<!-- Generated by IcoMoon.io -->
<svg version="1.1" xmlns="http://www.w3.org/2000/svg" width="32" height="32" viewBox="0 0 32 32">
<title>Aardwolf</title>
<path d="M11.25 4.875c-0.125 0.125-0.188 0.25-0.25 0.375 0 0.063-0.125 0.188-0.188 0.25-0.125 0.063-0.188 0.188-0.25 0.25 0 0.125 0 0.125 0.125 0 0.063-0.063 0.063 0-0.063 0.063-0.063 0.125-0.188 0.125-0.25 0.125s-0.063 0-0.063 0c0.063 0.125-0.625 0.813-1 1.063-0.125 0.125-0.438 0.188-0.625 0.188-0.188 0.063-0.375 0.125-0.438 0.125-0.25 0.313-1.625-0.125-1.625-0.5 0-0.125-0.563-0.938-1.063-1.5-0.5-0.5-0.625-0.625-0.625-0.438 0 0.063-0.063 0.125-0.125 0.188-0.25 0.25-0.063 1.625 0.25 1.75 0.063 0.063 0.125 0.188 0.125 0.313 0.063 0.25 0.063 0.313 0.125 0.188s0.063-0.125 0.063 0c-0.063 0.125 0 0.438 0.063 0.75 0.188 0.688 0.188 0.75 0 0.25-0.063-0.188-0.125-0.25-0.063-0.125 0 0.125 0.125 0.375 0.188 0.625 0.125 0.188 0.25 0.563 0.25 0.813 0.063 0.25 0.125 0.5 0.125 0.5 0.063 0.063 0-0.563-0.125-0.938-0.063-0.25-0.063-0.25 0.063-0.125 0.125 0.188 0.125 0.25 0.125 0.563-0.063 0.188 0.125 0.75 0.188 0.688 0-0.063 0-0.188-0.063-0.375-0.063-0.313-0.063-0.688 0.063-0.688 0.063 0 0.125 0.313 0.125 0.688s0.063 0.688 0.063 0.813c0.063 0.125 0.063 0.125 0 0-0.063-0.063-0.125-0.125-0.188-0.125-0.125 0-0.063 0.188 0.063 0.313s0.125 0.375 0 0.375c-0.125 0-0.125 0 0 0.063 0.188 0.063 0.25 0.188 0.063 0.188 0 0.063 0 0.063 0.125 0.125 0.063 0.063 0.125 0.125 0.125 0.125-0.063 0.063 0.25 0.375 0.625 0.688 0.375 0.375 0.625 0.688 0.625 0.75s0.188 0.25 0.625 0.563c0.063 0.063 0.063 0.063 0.125 0.063 0 0 0 0 0 0 0 0.063 0.25 0.313 0.563 0.688 0.5 0.5 0.938 1.188 0.938 1.438 0 0.063 0.125 0.25 0.25 0.438 0.125 0.125 0.25 0.375 0.25 0.5s0.125 0.75 0.313 1.063c0.25 0.5 0.25 0.75 0.188 1.625-0.063 0.563 0 0.938 0.063 1.188 0.125 0.563 0.188 1.563 0.125 1.563s-0.125 0.125-0.125 0.313v0.313l-0.125-0.625v0.375c0 0.188-0.063 0.375-0.188 0.5-0.375 0.438-0.563 0.938-0.563 1.313 0 0.25 0 0.313-0.063 0.25-0.063 0-0.063-0.063-0.063-0.125s0-0.063-0.125 0c-0.188 0.125-0.188 0.188 0.063 0.25 0.375 0.063 1.25 0.125 1.188 0.063 0-0.063 0-0.125 0.063-0.125s0.25-0.313 0.375-0.625c0.188-0.375 0.313-0.625 0.375-0.563 0 0 0.063-0.063 0.125-0.188 0-0.063 0.063-0.188 0.063-0.188 0.063 0 0.063 0 0.063-0.063-0.063-0.063 0-0.25 0.063-0.438 0-0.188 0.063-0.375 0.125-0.313 0 0.063 0.063 0 0.125-0.125 0-0.188 0-0.313-0.063-0.313-0.188-0.188 0-1.438 0.188-1.375 0.063 0 0.125 0 0.063-0.25 0-0.25 0-0.25 0.063-0.188 0.063 0.125 0.063 0.063 0.063-0.188 0-0.188 0-0.375 0.063-0.438 0-0.125 0-0.125-0.063-0.063-0.063 0.125-0.063 0.063-0.063-0.063s-0.063-0.313-0.063-0.438c0-0.125 0-0.125 0-0.063 0.063 0.063 0.125 0 0.188-0.25 0.063-0.188 0.188-0.5 0.25-0.75s0.125-0.563 0.063-0.625c0-0.063 0-0.125 0.063-0.063 0 0.063 0.063 0.063 0.188-0.125 0.063-0.125 0.125-0.313 0.125-0.375 0 0 0.063-0.063 0.125-0.063 0.125 0 0.125-0.063 0.125-0.063 0-0.063 0.063-0.063 0.125-0.063 0.125 0 0.188 0 0.188 0.063 0 0 0 0.063 0 0.063 0.188 0 0.75 0.938 0.938 1.438 0.125 0.313 0.188 0.75 0.25 1.375 0 0.75 0.063 1.125 0.313 1.75 0.125 0.438 0.25 1 0.313 1.25 0.125 0.5 0.063 0.563-0.063 0.875-0.188 0.375-0.188 1-0.063 0.875 0 0 0.063 0 0 0.063 0 0.125 0.063 0.125 0.313 0.125 0.313 0 0.5-0.063 0.5-0.188s0.563-0.688 0.625-0.625c0.125 0 0.125-0.063 0.063-0.375 0-0.063-0.063-0.125-0.063-0.063-0.125 0.125-0.313-0.75-0.438-1.75-0.063-0.875-0.125-1.625 0-2.563l0.063-0.688 0.063 0.5c0.063 0.375 0.063 0.375 0-0.188 0-0.438 0.063-0.75 0.125-0.938s0.063-0.25 0-0.25c0 0-0.063-0.125-0.063-0.188 0-0.125 0.063-0.125 0.125-0.125 0 0 0.063-0.063 0.063-0.188s0.063-0.25 0.125-0.25c0.063-0.063 0.063-0.125 0-0.125-0.188-0.063 0.063-0.188 0.25-0.188 0.125 0 0.125 0 0 0.125-0.063 0.063-0.125 0.063-0.063 0.063 0 0 0.125 0 0.188-0.063 0.125-0.063 0.25-0.125 0.375-0.125s0.188 0.063 0.25 0.188c0 0.188 0 0.25 0 0.313 0 0-0.063-0.063-0.063-0.125 0-0.125 0-0.188 0-0.125-0.063 0.063 0.188 1.375 0.25 1.375 0-0.063 0.125 0.188 0.188 0.563 0.063 0.313 0.188 0.938 0.313 1.313 0.188 0.688 0.188 1.313 0.063 1.438 0 0.063-0.063 0.188-0.063 0.25s-0.188 0.438-0.375 0.75c-0.188 0.375-0.313 0.563-0.5 0.625s-0.313 0.25-0.5 0.563c-0.438 0.688-0.438 0.813 0 0.813 0.063-0.063 0.063 0 0 0.063-0.25 0.125-0.063 0.188 0.438 0.063 0.25-0.063 0.438-0.125 0.375-0.125-0.125 0-0.125-0.063 0-0.125 0.063-0.063 0.063-0.063-0.063-0.063-0.188 0-0.063-0.125 0.188-0.188 0.25 0 0.25-0.063 0.875-0.938 0.063-0.188 0.25-0.313 0.25-0.313 0.063 0 0.063 0 0-0.063 0-0.063 0-0.125 0.063-0.125s0.063-0.063 0.063-0.125c0-0.063 0.063-0.063 0.125-0.063 0 0 0.063 0.063 0 0.125 0 0.063 0.125 0.125 0.5 0.125 0.75 0 0.813 0 0.813 0.063 0 0.188 0.125 0.063 0.313-0.188 0.125-0.188 0.188-0.313 0.25-0.25 0 0 0.063-0.063 0.063-0.063 0-0.063 0.125-0.313 0.313-0.563 0.313-0.438 0.813-1.438 0.813-1.688 0 0 0-0.063 0.063-0.125 0.063 0 0.125-0.063 0.125-0.125s0-0.063-0.063 0c-0.125 0.25-0.063 0 0.063-0.25 0.25-0.5 0.188-0.75-0.188-1.375-0.25-0.313-0.438-0.563-0.5-0.563 0 0-0.063-0.125 0-0.25 0-0.125 0.125-0.25 0.313-0.5 0.375-0.25 0.688-0.438 0.563-0.25 0 0.063 0.063 0 0.125-0.125l0.25-0.188v0.188c0 0.125 0 0.125 0.063-0.063 0.063-0.25 0.188-0.563 0.25-0.563 0 0.063 0 0.188-0.063 0.438-0.125 0.313-0.125 0.5-0.125 1.25l0.063 0.875 0.313 0.25c0.125 0.188 0.25 0.375 0.25 0.438s0 0.25 0.063 0.438c0.063 0.188 0.125 0.375 0.125 0.438 0.063 0.563 0.125 0.688 0.313 0.938 0.125 0.125 0.313 0.25 0.313 0.25 0.125 0 0.188 0.125 0.125 0.375 0 0.125 0.063 0.313 0.125 0.5 0.125 0.188 0.188 0.313 0.188 0.313 0-0.125 0.375 0.313 0.438 0.5 0.063 0.375 0.5 1.063 0.5 0.875 0-0.063 0.063-0.063 0.125-0.063 0.125 0.063 0.125 0 0.125-0.375-0.125-0.688-0.125-1.125 0-1.063 0 0.063 0-0.188 0-0.5-0.063-0.313-0.063-0.625 0-0.813 0.188-0.688 0.313-2.875 0.188-2.875-0.063 0-0.063-0.125-0.063-0.313 0-0.313-0.063-0.563-0.25-1.313-0.25-1-0.25-1-0.188-1 0.188 0.125-0.188-1-0.563-1.563-0.313-0.563-0.438-0.938-0.188-0.563 0.063 0.063 0.125 0.188 0.188 0.313l0.125 0.125-0.063-0.125c0-0.125-0.063-0.25 0-0.313 0 0 0-0.063-0.063 0-0.125 0.063-0.375-0.313-0.438-0.688-0.188-0.625-0.25-0.75-0.688-1.125-0.438-0.438-1.5-1.188-2.063-1.5-0.375-0.188-1.125-0.375-1.625-0.375-0.188 0-0.188 0-0.125-0.063s0-0.063-0.125 0c-0.125 0-0.188 0-0.188-0.063 0 0-0.188-0.063-0.375-0.063-0.25-0.063-0.563-0.125-0.688-0.125-0.125-0.063-0.375-0.125-0.563-0.125-2.25-0.25-2.438-0.25-3-0.188-0.25 0.063-0.625 0.063-0.75 0.063-0.063 0-0.125 0.063-0.125 0.063 0.063 0 0.063 0.063-0.125 0.188s-0.375 0.188-1.313 0.188c-0.625 0-1.25 0.063-1.438 0.063-0.25 0.063-0.438 0-0.563-0.063s-0.313-0.125-0.375-0.125c-0.188 0-0.563-0.188-0.75-0.375-0.063-0.063-0.188-0.125-0.25-0.125-0.188 0-0.25-0.688 0-0.938 0.063-0.125 0.125-0.125 0.125-0.063 0 0.313 0.625-0.688 0.938-1.563 0.125-0.438 0.188-0.75 0.188-1 0-0.313-0.063-0.313-0.25-0.313-0.188-0.063-0.25 0-0.375 0.125zM5.063 5.375c0.125 0.125 0.188 0.188 0.25 0.188s0.313 0.25 0.375 0.438c0.063 0.063 0 0-0.125-0.188-0.125-0.125-0.25-0.188-0.25-0.188 0 0.063 0.313 0.438 0.688 0.938 0.688 0.813 0.75 0.813 1.188 0.938 0.563 0.188 0.563 0.188 0.25 0.188h-0.313l0.313 0.063c0.438 0.125 2-0.313 2.188-0.625 0.063-0.063 0.125-0.063 0.188-0.063 0.125 0.063 0.375-0.188 0.375-0.375 0.063-0.125 0.125-0.25 0.188-0.25 0.063 0.063 0.125 0 0.188-0.063 0.063-0.125 0.063-0.188 0.125-0.125 0 0 0.188-0.188 0.313-0.375 0.188-0.25 0.313-0.375 0.375-0.375 0 0.125-0.188 0.75-0.438 1.375-0.25 0.5-0.375 0.625-0.188 0.188 0.063-0.125 0.063-0.375 0.063-0.438 0-0.125 0-0.125-0.188 0.125-0.125 0.188-0.188 0.313-0.188 0.375s-0.063 0.188-0.125 0.25l-0.188 0.125 0.125-0.188c0.25-0.375 0.063-0.125-0.375 0.438-0.375 0.5-0.563 0.875-0.25 0.563 0.125-0.125 0.188-0.188 0.188-0.125s-0.063 0.125-0.125 0.188c0 0-0.063 0.063 0 0.125 0 0 0.125-0.063 0.25-0.188l0.25-0.25v0.25c0 0.125-0.063 0.375-0.125 0.563-0.063 0.438-0.125 1.75-0.063 1.75s0.063-0.188 0.063-0.5c0-0.625 0.063-0.813 0.25-0.688 0.063 0.063 0.063 0-0.063-0.25 0-0.125-0.063-0.313 0-0.313 0 0 0.063 0 0-0.125 0-0.063 0-0.063 0.063-0.063 0.063 0.063 0.063 0.125 0.063 0.188-0.063 0.063 0 0.188 0.063 0.375 0.125 0.313 0.125 0.313 0.063 0.063 0-0.125 0-0.25 0.063-0.25 0 0 0.063 0 0.063 0.063s0.063 0.188 0.125 0.25c0.063 0.063 0.125 0.25 0.125 0.625 0 0.5 0.188 1 0.313 0.75 0-0.063 0-0.25-0.063-0.375-0.063-0.313 0-0.313 0.688-0.125 0.25 0.125 0.625 0.25 0.75 0.25 0.188 0 0.375 0.125 0.5 0.25 0.125 0.063 0.25 0.188 0.313 0.188s0.188 0.063 0.313 0.188c0.375 0.375 0.438 1.875 0.125 2.188-0.063 0.063-0.125 0.25-0.188 0.438l-0.063 0.25-0.063-0.188c0-0.25 0-0.25-0.063 0.063 0 0.188-0.063 0.375-0.063 0.438-0.188 0.25-0.313 0.875-0.25 1.125 0.125 0.188 0.125 0.188 0.125 0.063s0.063-0.25 0.125-0.375c0-0.063 0.063-0.188 0.063-0.313s0.063-0.25 0.125-0.313c0.063-0.063 0.125-0.125 0.125-0.188s0.063-0.125 0.125-0.25c0.063-0.125 0.063-0.125 0.188 0.063 0.063 0.188 0.063 0.125 0.063-0.188 0-0.25 0.063-0.625 0.125-0.813 0.063-0.375 0.125-1.25 0.063-1.563-0.063-0.188-0.063-0.188 0.063-0.188 0.063 0.063 0.063 0.063 0-0.063-0.313-0.313-0.625-0.688-0.75-0.625-0.063 0-0.125-0.063-0.188-0.125-0.125-0.125-0.188-0.188-0.25-0.188s-0.125-0.063-0.25-0.125c-0.125-0.063-0.125-0.063 0.125 0 0.125 0.063 0.25 0.188 0.375 0.25 0.188 0.188 0.313 0.125 0.063-0.063-0.063-0.125-0.188-0.188-0.25-0.188s-0.125-0.063-0.188-0.125c-0.063-0.063-0.125-0.125-0.188-0.063-0.063 0-0.125 0-0.063-0.063 0 0 0-0.063-0.125-0.125-0.063-0.125-0.125-0.125 0 0 0.125 0.188 0.063 0.188-0.188 0-0.188-0.063-0.188-0.063 0.063 0.125 0.25 0.25 0.25 0.25 0.063 0.25-0.125 0-0.313-0.125-0.438-0.25s-0.25-0.188-0.188-0.125c0.25 0.25 0.063 0.25-0.25-0.063-0.25-0.313-0.313-0.438 0-0.188 0.125 0.125 0.5 0.188 0.5 0.125 0 0-0.063-0.063-0.188-0.125-0.188-0.125-0.188-0.125-0.063-0.063 0.125 0 0.313 0.063 0.375 0.125 0.125 0.063 0.188 0.063 0.313 0.063 0.125-0.125 0.625 0 0.625 0.125 0 0.063-0.063 0.063-0.25 0-0.063-0.063-0.125-0.063-0.125-0.063 0 0.063 0.188 0.125 0.438 0.313 0.25 0.125 0.438 0.25 0.438 0.25-0.063 0.063 0.063 0.188 0.188 0.313 0.188 0.125 0.375 0.375 0.5 0.563 0.125 0.125 0.25 0.25 0.25 0.188 0 0-0.063-0.125-0.125-0.25s-0.125-0.188-0.063-0.188c0 0-0.063-0.125-0.188-0.25s-0.188-0.188-0.125-0.188c0.063 0 0.188 0.125 0.313 0.25s0.313 0.25 0.313 0.188c0 0 0.125 0.125 0.188 0.25 0.125 0.125 0.188 0.25 0.25 0.25s-0.188-0.375-0.375-0.563c-0.125-0.063-0.188-0.125-0.25-0.125 0 0-0.125-0.063-0.188-0.188-0.188-0.188-0.125-0.25 0.125 0 0.063 0.063 0.063 0.063-0.063-0.125-0.188-0.188-0.188-0.188-0.063-0.188 0.188 0.063 0.5 0.438 0.938 1 0.063 0.063 0.063 0.125 0.063 0.063-0.063-0.063-0.125-0.25-0.25-0.375-0.25-0.375-0.25-0.438 0.063-0.125 0.125 0.188 0.313 0.313 0.375 0.313s0-0.063-0.125-0.188c-0.125-0.063-0.188-0.188-0.125-0.188s0.188 0.125 0.313 0.25c0.063 0.063 0.188 0.125 0.188 0.125 0.063-0.063-0.313-0.313-1-0.813-0.125-0.063-0.25-0.125-0.25-0.125 0 0.063-0.063 0-0.188-0.063-0.25-0.125-0.625-0.125-0.438 0 0.063 0 0.125 0.063 0.188 0 0 0 0 0 0 0.063-0.063 0 0 0.063 0 0.125 0.188 0.188 0.063 0.125-0.563-0.313l-0.563-0.438h0.5c0.313 0 0.875-0.063 1.188-0.125 0.75-0.125 0.813-0.125 1.5-0.063 0.25 0 0.375 0 0.25 0-0.25-0.063-0.375-0.188-0.063-0.125 0.5 0.063 0.813 0.125 0.688 0.063s-0.125-0.188 0.063-0.188c0.063 0 0.25 0.063 0.438 0.125 0.375 0.125 0.5 0.063 0.188-0.063l-0.25-0.125 0.25 0.063c0.188 0 0.375 0.063 0.375 0.063 0.063 0.063 0.25 0.125 0.5 0.125 0.188 0 0.375 0.063 0.438 0.063 0 0 0.125 0 0.188 0 0.125-0.063 0.25-0.063 0.563 0 0.188 0.063 0.438 0.125 0.5 0.063 0 0 0.063 0 0 0.063s0 0.125 0.063 0.063c0.063-0.063 0.25 0 0.438 0 0.125 0.063 0.375 0.125 0.625 0.188 0.313 0.063 0.375 0.188 0.125 0.188-0.063 0-0.063 0-0.063-0.063 0.063-0.063 0-0.063-0.25 0-0.063 0.063-0.125 0.125-0.125 0.125s0 0.125-0.063 0.188c-0.063 0.063-0.063 0.063 0 0.063s0.125 0.125 0.125 0.313c-0.063 0.25-0.063 0.313-0.188 0.313s-0.125 0 0 0.063 0.125 0.25 0 0.188c-0.063 0-0.125 0-0.063 0.125 0 0.063 0 0.125-0.063 0.125s-0.125 0.063-0.188 0.125c0 0.063-0.125 0.188-0.313 0.25s-0.25 0.125-0.313 0.5c-0.125 0.563-0.25 0.813-0.563 0.938-0.125 0.063-0.25 0.188-0.25 0.313-0.125 0.188-0.125 0.188 0.063 0 0.063-0.063 0.188-0.125 0.188-0.063 0.063 0 0.125 0 0.125 0 0-0.063 0.125-0.188 0.25-0.313 0.25-0.125 0.313-0.25 0.313-0.313-0.063-0.125-0.063-0.188 0-0.188s0.063-0.063 0.063-0.125c0-0.063 0.063-0.125 0.188-0.188 0.063 0 0.125-0.063 0.125-0.125s0-0.063-0.063 0c-0.063 0.125-0.25 0.125-0.188-0.063 0-0.063 0.125-0.125 0.25-0.188s0.25-0.125 0.188-0.125c0-0.063 0-0.063 0.063-0.125 0.125 0 0.188 0 0.25 0.125 0.125 0.125 0.125 0.125 0.063-0.063 0-0.063 0-0.188 0.063-0.25s0.125-0.125 0.125-0.188c-0.063-0.063-0.063-0.063 0-0.063s0.063 0 0.125 0.063c0 0.063 0 0 0-0.063-0.063-0.125 0-0.188 0-0.188 0.063 0 0.063-0.063 0-0.188-0.063-0.188-0.063-0.188 0.063-0.125 0.125 0.125 0.125 0.125 0.125 0 0-0.063 0.063-0.125 0.188-0.188l0.125-0.125-0.188-0.125c-0.125-0.063-0.188-0.063-0.063 0.063s0 0.25-0.188 0.125c0 0 0 0 0 0.063 0 0 0 0.063 0 0.063-0.063 0-0.063-0.063-0.063-0.188s0-0.188 0.063-0.188c0 0 0-0.063 0-0.063 0-0.063 0-0.063 0.063-0.063s0.125-0.063 0.125-0.063c0-0.063 0.125-0.125 0.188-0.188 0.188-0.063 0.313 0 0.875 0.313 0.813 0.375 1.188 0.625 1.625 1.188 0.188 0.188 0.375 0.438 0.438 0.438 0.125 0 0.313 0.25 0.438 0.563 0.25 0.438 0.375 0.813 0.375 0.875-0.063 0.063 0 0.188 0.063 0.25 0 0.188-0.125 0-0.625-0.438-0.313-0.375-0.438-0.438-0.188-0.188s0.563 0.625 0.688 0.813c0.125 0.188 0.313 0.375 0.313 0.313 0.063 0 0.125 0.063 0.188 0.188 0.188 0.375 0.125 0.438-0.063 0.125-0.188-0.375-0.125-0.25 0.125 0.313 0.25 0.625 0.25 0.75 0.063 0.5 0-0.063 0 0.063 0.125 0.25 0.125 0.375 0.313 1 0.25 1 0 0-0.063-0.125-0.125-0.25s-0.063-0.125-0.063-0.063c0.063 0.25 0 0.188-0.188-0.125-0.125-0.25-0.188-0.25-0.125-0.063 0.063 0.125 0.125 0.375 0.188 0.563 0.125 0.188 0.188 0.5 0.188 0.625s0.125 0.5 0.188 0.813c0.125 0.625 0.063 0.875-0.063 0.313-0.063-0.188-0.125-0.313-0.125-0.25s0.063 0.313 0.125 0.625c0.25 0.625 0.375 1.563 0.25 1.438-0.063 0-0.125-0.063-0.125-0.125 0-0.188-0.125-0.313-0.188-0.25s-0.063 0.063 0 0.125c0.125 0.063 0.188 1.188 0.125 1.375-0.125 0.313-0.25-0.063-0.25-0.688 0-0.375 0-0.625 0-0.625-0.063 0.063-0.063 0.313-0.063 0.688 0 0.688-0.125 0.438-0.188-0.5-0.063-0.5-0.063-0.625-0.125-0.438 0 0.313 0.188 1.813 0.25 1.688 0.063-0.063 0.25 0.313 0.25 0.5 0 0.125-0.063 0.125-0.125 0.125 0 0-0.063-0.125-0.063-0.25s0-0.125-0.063-0.063c-0.125 0.063-0.125 0-0.188-0.375 0-0.188-0.063-0.375-0.125-0.375s-0.063-0.063-0.125-0.125c0-0.063-0.063-0.188-0.125-0.25-0.188-0.25-0.438-1.563-0.5-2.563v-1.063 1.188c0 0.625 0 1.438 0.063 1.75 0 0.375 0 0.5-0.063 0.438-0.063-0.125-0.063-0.375-0.063-0.625-0.063-0.25-0.125-0.625-0.125-0.813-0.188-0.438-0.125-1.063 0-2.063 0.063-0.5 0.063-0.75 0-0.813-0.063-0.188-0.063-0.125-0.063 0.125 0.063 0.313 0 0.5-0.063 0.75-0.188 0.438-0.313 1.375-0.188 1.375 0.063 0 0.063 0 0.063 0.063 0 0.125-0.125 0.125-0.25 0.063-0.125-0.125-0.125-0.563 0-1.188 0.063-0.25 0.125-0.625 0.125-0.813s-0.063-0.125-0.188 0.375l-0.125 0.625 0.063-0.625c0-0.313 0.063-0.688 0.063-0.813s0-0.25 0.063-0.188c0 0 0.063-0.063 0.063-0.125s0-0.063 0.063 0.063 0.063 0.063 0-0.25c0-0.188-0.063-0.5-0.125-0.688l-0.063-0.25-0.438 0.438c-0.25 0.25-0.5 0.625-0.625 0.875-0.25 0.375-1 1-1.688 1.25-0.813 0.375-1.188 0.563-1.25 0.75-0.063 0.063-0.063 0.313-0.125 0.5 0 0.438 0 0.438-0.188 0.375-0.063 0-0.188 0-0.25 0.063-0.125 0.125-0.063 0.125 0.188 0.125 0.313 0 0.313 0 0.063 0.75-0.125 0.5-0.188 0.875-0.438 2-0.063 0.5-0.125 0.75-0.313 1.063-0.188 0.188-0.313 0.5-0.438 0.625-0.125 0.313-0.313 0.438-0.688 0.5-0.125 0-0.25 0-0.25 0.063-0.188 0.125-0.125-0.063 0.125-0.375 0.188-0.188 0.25-0.25 0.25-0.188-0.063 0.063 0 0 0.125-0.125s0.25-0.25 0.25-0.188c0.063 0 0.125-0.063 0.125-0.188 0.063-0.125 0.188-0.438 0.313-0.75 0.25-0.563 0.25-0.563 0.25-1.438s0-0.938 0.25-0.688c0.125 0.063 0.125 0.063 0.188 0 0-0.125-0.313-0.313-0.563-0.375 0 0-0.125-0.5-0.25-1-0.188-0.688-0.313-1.188-0.313-1.625 0-0.563-0.063-0.813-0.25-1.25-0.25-0.563-0.5-0.938-0.688-1 0 0 0 0.063 0.063 0.25l0.188 0.25-0.188-0.125c-0.188-0.188-0.188-0.125 0.125 0.25 0.25 0.375 0.313 0.625 0.125 0.563-0.125 0-0.375-0.25-0.375-0.375 0-0.063-0.125-0.125-0.25-0.188-0.188-0.188-0.188-0.125 0.188 0.313l0.188 0.313h-0.188c-0.188 0-0.25-0.063-0.188-0.125 0 0-0.063-0.063-0.125-0.063-0.188 0-0.438 0.313-0.313 0.438 0 0 0 0-0.063 0s-0.125 0.063-0.25 0.188c-0.125 0.063-0.125 0.125-0.063 0.063 0.125-0.125 0.25-0.125 0.125 0.063 0 0.063-0.063 0.375-0.125 0.688-0.063 0.563-0.063 0.625-0.375 0.875-0.188 0.188-0.375 0.313-0.5 0.313s-0.125 0 0.063 0.063 0.125 0.188-0.125 0.25c-0.125 0-0.188-0.063-0.188-0.25-0.063-0.188-0.063-0.313-0.063-0.313s0.25-0.188 0.438-0.313c0.25-0.188 0.438-0.375 0.438-0.438 0 0 0.063-0.063 0.125 0 0.063 0 0.063 0 0.063-0.063-0.063-0.188-0.375 0-0.813 0.438l-0.313 0.375-0.125-0.188c-0.313-0.5-0.313-0.5 0.063-0.875 0.375-0.438 0.375-0.563 0-0.188-0.063 0.063-0.188 0.188-0.25 0.125 0 0 0.063-0.125 0.188-0.25 0.125-0.063 0.188-0.188 0.125-0.188 0-0.063 0.063-0.188 0.188-0.313 0.25-0.25 0.25-0.25 0.063-0.125-0.125 0.063-0.25 0.063-0.25 0.063-0.125-0.063-0.375 0.125-0.375 0.188s0 0.063 0.063 0c0.188-0.188 0.25-0.125 0.125 0.063-0.313 0.375-0.375 0.5-0.188 0.313 0.125-0.125 0.188-0.188 0.188-0.125s-0.313 0.5-0.375 0.5c-0.125 0-0.375-0.375-0.375-0.563 0-0.125-0.438-0.75-0.5-0.688 0 0.063-0.125 0.063-0.313-0.063l-0.25-0.125 0.25 0.188c0.063 0.063 0.25 0.25 0.375 0.313l0.188 0.188h-0.25c-0.25 0-0.375 0.063-0.563 0.25-0.125 0.188-0.313 0.25-0.313 0.25-0.063-0.063-0.125 0-0.125 0.125 0 0.375-0.063 0.5-0.188 0.813-0.188 0.25-0.313 0.813-0.375 1.875-0.063 0.438-0.125 0.938-0.188 1.188-0.063 0.188-0.125 0.563-0.125 0.75 0 0.438-0.25 1.25-0.375 1.188-0.063 0-0.063 0.063-0.063 0.188 0 0.25-0.375 1.125-0.625 1.375-0.063 0.188-0.063 0.188 0.063 0.063 0.063-0.063 0.188-0.25 0.25-0.375 0.25-0.438 0.25-0.375 0 0.188l-0.188 0.438-0.375 0.063c-0.313 0-0.313 0-0.313-0.188 0-0.063 0-0.125 0.063-0.125s0.188-0.25 0.313-0.5c0.188-0.313 0.375-0.625 0.438-0.688 0.125-0.188 0.188-0.375 0.188-0.938l0.063-0.688 0.125 0.438c0.125 0.375 0.125 0.375 0.125 0.125 0-0.125 0-0.188-0.063-0.188s-0.063-0.188-0.063-0.438c0-0.563 0-0.625-0.125-0.375 0 0.125 0-0.125 0-0.688 0.063-0.5 0-0.875 0-0.938-0.063-0.125-0.125-0.25-0.313-1.375-0.063-0.438-0.063-0.563-0.125-0.438-0.125 0.125-0.125 0.125-0.125-0.063 0-0.125 0-0.25-0.063-0.375-0.063-0.063-0.125-0.375-0.188-0.563 0-0.25-0.125-0.563-0.188-0.688-0.188-0.25-0.188-0.313 0.188-0.063 0.125 0.063 0.25 0.125 0.25 0.125 0-0.063-0.188-0.188-0.438-0.313-0.25-0.188-0.438-0.375-0.625-0.625-0.125-0.25-0.375-0.563-0.563-0.688-0.125-0.125-0.188-0.313-0.188-0.313 0-0.063 0-0.063 0-0.063-0.125 0.063-0.375-0.188-0.438-0.438-0.063-0.125-0.188-0.313-0.375-0.438s-0.313-0.25-0.313-0.375c-0.063-0.125 0-0.125 0.25-0.063 0.25 0 0.25 0 0.5-0.313 0.125-0.125 0.25-0.375 0.313-0.5s0.125-0.188 0.188-0.125 0.125 0 0.125-0.063c-0.063 0 0-0.125 0.063-0.188 0.125-0.125 0.188-0.188 0.125-0.188 0 0 0-0.063 0.063-0.188 0.063-0.063 0.125-0.188 0.125-0.25 0 0-0.063 0.063-0.125 0.188-0.25 0.375-0.5 0.313-0.875-0.188-0.125-0.25-0.188-0.375-0.125-0.563 0-0.25 0-0.313-0.063-0.188-0.063 0.188-0.063 0.188-0.125 0-0.063-0.25-0.188-0.188-0.188 0.25-0.063 0.438-0.063 0.875 0 0.688 0.063-0.125 0.188-0.063 0.313 0.125 0.063 0.25 0.063 0.438 0 0.25-0.125-0.125-0.125-0.063-0.063 0.125 0.063 0.063 0.125 0.063 0.188 0.063 0.25-0.125 0.25 0.125 0.063 0.563-0.125 0.188-0.188 0.313-0.188 0.25s-0.125-0.125-0.25-0.188-0.25-0.125-0.563 0c-0.125 0.063-0.25 0.063-0.125 0.063 0.125 0.063 0.125 0.188 0 0.188-0.25 0-0.313-0.25-0.313-0.813 0-0.375 0-0.563 0.063-0.563 0 0 0.063 0 0.063-0.063 0 0 0-0.125 0.063-0.188 0-0.063 0-0.125-0.063-0.063s-0.063 0 0-0.063c0.125-0.125 0.188-0.188 0.25-0.125 0 0 0.063 0 0.063-0.063s0-0.063 0.063-0.063c0.063 0.063 0.063-0.063 0.063-0.25 0-0.375-0.063-0.438-0.188-0.188-0.063 0.125-0.125 0.188-0.188 0.188 0 0-0.188 0.25-0.313 0.5s-0.25 0.5-0.25 0.5c0 0-0.125-0.063-0.25-0.125-0.125-0.125-0.188-0.188-0.188-0.438 0-0.313 0-0.313 0.375-0.125 0.063 0 0.125-0.063 0.125-0.125 0-0.125 0-0.125 0.063-0.063 0 0.063 0.063 0.063 0.188-0.063s0.125-0.125-0.125-0.313c-0.125-0.125-0.313-0.188-0.438-0.188-0.25 0-0.25 0-0.25-0.313s0-0.375-0.188-0.5c-0.125-0.125-0.125-0.188-0.125-0.313 0-0.063 0-0.063 0 0-0.125 0.125-0.25 0.063-0.313-0.188 0-0.125-0.063-0.313-0.063-0.375s0-0.063 0.063 0.063c0.125 0.25 0.25 0.25 0.125 0.063 0-0.188 0-0.188 0.063-0.125 0.125 0.125 0.125 0.125 0.125-0.063-0.063-0.125-0.063-0.125 0.125 0.063 0.125 0.125 0.25 0.188 0.25 0.188 0.063-0.063-0.438-0.75-0.5-0.75 0 0 0 0 0.063 0.063 0 0.063 0 0.063-0.063 0.063s-0.063 0-0.063-0.125c0.063-0.125-0.313-0.813-0.75-1.375-0.375-0.438-0.563-0.938-0.5-1.063s0.063-0.125 0.25 0.188zM22.5 18.063l0.188 0.25-0.313 0.438c-0.125 0.188-0.25 0.375-0.188 0.375 0 0 0.125-0.188 0.25-0.375 0.188-0.188 0.313-0.313 0.313-0.313 0.063 0.063 0 0.188-0.063 0.313-0.188 0.25-0.563 0.563-0.563 0.5 0 0-0.063 0-0.125 0.063-0.125 0.125-0.125-0.063 0-0.313 0.25-0.313 0.438-0.688 0.438-0.688-0.063 0-0.188 0.188-0.313 0.375s-0.25 0.375-0.313 0.375c0 0-0.063-0.125-0.125-0.188-0.125-0.25-0.125-0.25 0.188-0.625 0.188-0.25 0.375-0.438 0.438-0.438 0 0 0.125 0.125 0.188 0.25zM16.625 18.375c0 0.25-0.063 0.313-0.313 0.5-0.125 0.125-0.313 0.188-0.375 0.188-0.125 0-0.125 0 0 0.125s0.125 0.125 0.375 0l0.188-0.125v0.688l-0.313-0.063c-0.188 0-0.313 0-0.313 0.063s0.125 0.063 0.313 0.063c0.375 0 0.313-0.188 0.5 1.75 0.063 0.625 0.188 1.25 0.188 1.25 0 0.063 0 0.125-0.125 0.188-0.188 0.125-0.188 0.313 0 0.313 0.063 0 0.063 0 0-0.063-0.125-0.063-0.063-0.125 0.063-0.125 0.188 0 0.188 0.125 0.063 0.313-0.188 0.125-0.063 0.188 0.063 0 0.125-0.063 0.125-0.063 0.125 0.063-0.063 0.188-0.625 0.625-0.75 0.563-0.125 0-0.063-0.125 0.125-0.25 0.125-0.125 0.188-0.25 0.125-0.25-0.063-0.063-0.125-0.75-0.063-0.875 0.063-0.063 0.063-0.125-0.063-0.125-0.063-0.063-0.125-0.125-0.125-0.125 0-0.063 0-0.063 0.063-0.063 0.063 0.063 0.063 0.063 0-0.063s-0.063-0.188 0-0.25c0.063-0.063 0.063-0.063 0-0.063-0.188 0-0.25-0.25-0.125-0.375s0.125-0.125 0-0.063c-0.063 0-0.125-0.063-0.25-0.25-0.063-0.188-0.063-0.25 0.063-0.25 0.063 0 0.188 0 0.313-0.063 0.125-0.125 0.125-0.125-0.063-0.125-0.188 0.063-0.25 0.063-0.375-0.063s-0.25-0.75-0.25-1.438c0-0.563 0.063-0.625 0.375-0.625 0.125 0 0.188 0 0.125-0.063-0.125-0.125 0-0.25 0.313-0.5 0.125-0.125 0.125-0.125 0-0.063s-0.125 0.063 0-0.125c0.188-0.188 0.188-0.063 0.125 0.375zM22.938 18.313c0.125 0.313 0.188 0.313 0.063 0.5-0.063 0.125-0.25 0.313-0.375 0.5-0.25 0.188-0.313 0.188-0.375 0.125 0-0.063-0.063-0.063-0.063 0 0 0.125 0.063 0.188 0.188 0.188 0.063-0.063 0 0-0.063 0.188-0.125 0.063-0.188 0.188-0.125 0.188 0.063 0.063 0.25-0.125 0.188-0.188 0-0.063 0.438-0.625 0.688-0.875 0.125-0.125-0.188 0.5-0.375 0.688-0.125 0.125-0.188 0.188-0.125 0.188 0 0-0.063 0.125-0.188 0.25s-0.313 0.25-0.313 0.25c-0.063-0.063-0.063 0-0.125 0.063-0.063 0.188 0 0.125 0.438-0.25 0.188-0.188 0.375-0.313 0.375-0.25s-0.875 1.063-1 1.063c-0.125 0-0.063-0.375 0.188-0.813 0.125-0.25 0.25-0.5 0.188-0.5-0.125-0.063-0.063-0.313 0.063-0.313s0.25-0.125 0.438-0.375l0.313-0.375-0.125-0.25c-0.25-0.375-0.125-0.375 0.125 0zM21.063 18.625c0 0.063 0 0.188 0 0.25-0.063 0.063-0.063 0.125 0.063 0.063 0.063 0 0.125 0 0.063 0.063 0 0 0 0.063 0.063 0.125 0 0 0.063 0.063 0 0.125 0 0.063 0 0.063 0.125 0.063 0.063 0 0.125 0 0.125 0.125 0.063 0.063 0.125 0.125 0.125 0.125 0.063 0 0.125 0.063 0.125 0.188 0 0.063 0 0.125-0.063 0.125-0.125 0-0.375 0.563-0.375 0.813 0 0.063-0.25 0.375-0.563 0.625-0.5 0.5-0.5 0.5-0.625 0.375-0.063-0.063-0.063-0.188-0.063-0.25 0-0.188 0.25-0.938 0.25-0.75 0 0.125 0.063 0.125 0.125 0 0.063-0.063 0.125-0.813 0.25-1.688 0-0.188 0.063-0.375 0.063-0.438 0.063-0.125 0.375-0.063 0.313 0.063zM19.125 9.75l0.25 0.063-0.25 0.063c-0.188 0-0.188 0-0.125 0.063s0.063 0.063 0 0.125c-0.125 0.063-0.125 0.125 0 0.125 0.063 0 0.063 0 0.063 0.063-0.063 0.063-0.063 0.125 0 0.125s0.063 0.063 0.063 0.125c0 0-0.063 0.063-0.125 0-0.313-0.125-0.313-0.125-0.125 0.063 0.188 0.063 0.25 0.188 0.25 0.188-0.063 0.063 0 0.125 0 0.125 0.063 0.063 0.063 0.125 0 0.313-0.063 0.125-0.125 0.375-0.125 0.5 0 0.188-0.063 0.313-0.063 0.375-0.063 0.063-0.125 0.125-0.125 0.25-0.063 0.063-0.125 0.188-0.188 0.375-0.063 0.125-0.188 0.313-0.188 0.5 0 0.125 0 0.313-0.125 0.438-0.188 0.188-0.188 0.313-0.063 0.25s0.063 0.5-0.063 0.625c-0.063 0.125-0.063 0.125-0.063 0.125 0.063 0 0.188-0.125 0.313-0.313 0.188-0.125 0.25-0.25 0.188-0.188s-0.125 0.063-0.188 0.063c-0.063 0 0-0.563 0.125-0.688 0.063-0.063 0.063-0.063 0 0.063 0 0.063-0.063 0.25-0.063 0.313-0.063 0.125-0.063 0.125 0.063 0.063 0.063-0.125 0.063-0.125 0.125 0 0.063 0.063 0.063 0 0.063-0.25-0.063-0.25-0.063-0.313 0.063-0.313s0.188-0.063 0.188-0.188c0-0.125 0-0.188 0-0.188-0.063 0-0.063-0.063-0.063-0.125s0-0.063 0.063-0.063 0.188 0.188 0.125 0.313c0 0 0.063 0.063 0.063 0.063 0.125 0 0.125-0.125 0-0.188-0.063-0.063 0-0.125 0-0.188 0.063-0.063 0.063-0.125 0-0.25s-0.063-0.188 0.125-0.125c0.125 0.063 0.125 0.063 0.063-0.063-0.125-0.25-0.125-0.25 0-0.25 0.063 0 0.125-0.063 0.125-0.063 0-0.063-0.063-0.063-0.125-0.063-0.063 0.063-0.063 0-0.063 0 0-0.063 0-0.125 0.063-0.125 0.188 0.063 0.188 0 0.063-0.188-0.063-0.125-0.125-0.25-0.125-0.25 0.063-0.063 0.125 0 0.188 0.063 0.063 0.125 0.125 0.188 0.188 0.188s0-0.063-0.063-0.188c-0.125-0.125-0.188-0.75-0.063-0.813 0.063-0.063 0.063-0.063-0.063-0.125 0-0.063-0.063-0.125 0-0.125 0-0.063-0.063-0.125-0.125-0.125-0.063-0.063-0.063-0.063 0.063-0.188 0.063-0.125 0.063-0.125 0-0.063-0.125 0-0.125 0-0.125-0.063 0.063-0.063 0.125-0.125 0.188-0.125s0.063-0.063-0.063-0.125c-0.125-0.063-0.313-0.125-0.375-0.125-0.125 0.063-0.125 0.063 0.063 0.125zM16.25 9.938c0.125 0.063 0.25 0.063 0.25 0.063 0.063-0.063 0.063 0 0.063 0.125s0 0.125-0.125 0.063c-0.125 0-0.125 0 0.063 0.125 0.313 0.313 0.188 0.375-0.188 0.125l-0.375-0.125 0.375 0.313c0.313 0.313 0.5 0.5 0.25 0.375-0.063 0 0 0.063 0.125 0.188 0.188 0.313 0.188 0.313 0 0.25-0.063 0 0.063 0.125 0.25 0.375 0.188 0.188 0.313 0.375 0.313 0.438 0 0-0.125 0-0.188-0.063-0.188-0.188-0.188-0.063 0 0.188 0.125 0.125 0.188 0.188 0.188 0.063-0.063-0.063-0.063-0.125 0-0.063 0.125 0.063 0.063 0.313-0.063 0.25-0.125 0 0 0.25 0.188 0.375 0.125 0.125 0.125 0.125 0-0.063-0.063-0.063-0.063-0.125-0.063-0.125 0.125 0 0.25 0.188 0.25 0.313-0.063 0.063-0.125 0.063-0.188 0.063s-0.125 0-0.125 0.063c0 0.063 0.063 0.063 0.063 0.063 0.063-0.125 0.313 0.063 0.313 0.188s0 0.125-0.125 0-0.125-0.125 0 0.125c0.25 0.313 0.25 0.375 0.125 0.313-0.188-0.063-0.188 0.063 0 0.25 0.063 0.125 0.063 0.125 0.063 0-0.063-0.063 0-0.125 0.063-0.125s0.125-0.063 0.063-0.25c-0.063-0.125-0.063-0.438-0.063-0.625 0-0.25-0.125-0.563-0.188-0.75s-0.125-0.375-0.125-0.5c0-0.063-0.063-0.125-0.125-0.188-0.125-0.125-0.125-0.125-0.063 0 0 0.063 0 0.063-0.063 0.063 0-0.063-0.063-0.125 0-0.125 0-0.063 0-0.125-0.063-0.125-0.063-0.063-0.063-0.063-0.063-0.125s0-0.063 0.063 0 0.125 0.063 0.188 0.063 0.125 0 0-0.125c-0.125-0.063-0.125-0.063-0.063-0.063s0.063-0.125-0.125-0.188c-0.125-0.125-0.25-0.313-0.25-0.375 0-0.125 0.063-0.125 0.188-0.063 0.063 0.125 0.063 0.125 0-0.063-0.125-0.063-0.188-0.188-0.188-0.25 0-0.125 0.063-0.125 0.063-0.063s0.063 0.063 0.125 0.063c0.063 0 0-0.125-0.188-0.25-0.188-0.188-0.313-0.25-0.563-0.25s-0.25 0-0.063 0.063zM22.625 11.688c0 0.063 0 0.125-0.063 0.125 0 0-0.125 0.063-0.125 0.188-0.063 0.125-0.125 0.188-0.188 0.188 0 0-0.063 0.063-0.063 0.125s-0.063 0.125-0.125 0.125c-0.125 0-0.125 0-0.125 0.063 0.063 0.125 0.063 0.125 0.125 0.063s0.063-0.063 0.063 0c-0.063 0.063-0.125 0.125-0.188 0.063-0.188 0-0.188 0-0.125 0.125 0.063 0.063 0.063 0.125 0 0.25 0 0.063-0.063 0.125-0.125 0.125 0 0-0.188 0-0.313 0.063-0.188 0.063-0.313 0.063-0.313 0.188 0 0.063 0.063 0.063 0.063 0 0 0 0.063-0.063 0.125 0 0 0 0.063 0 0.063-0.063 0 0 0.063-0.063 0.188-0.063 0.313-0.063 0.188 0-0.25 0.188-0.313 0.188-0.375 0.188-0.375 0.125s0-0.063 0.063-0.063c0.063 0.063 0.063 0 0.063 0-0.125-0.188-0.188-0.125-0.188 0.125 0 0.188-0.063 0.25-0.375 0.375-0.188 0.063-0.438 0.25-0.563 0.375s-0.375 0.313-0.563 0.438c-0.188 0.125-0.313 0.25-0.313 0.313 0 0-0.063 0.125-0.188 0.25-0.25 0.25-0.188 0.25 0.25 0 0.5-0.313 1-0.75 1-0.813s0-0.063 0.063 0c0.063 0 0.625-0.25 0.625-0.375-0.063-0.063 0.438-0.438 0.75-0.563 0.188-0.063 0.375-0.25 0.688-0.625 0.188-0.313 0.438-0.563 0.5-0.563s0.125-0.125 0.188-0.25c0.063-0.313 0.063-0.313 0-0.25 0 0-0.063-0.063-0.125-0.125 0-0.063 0-0.125 0.063-0.188 0.063 0 0.063-0.063 0-0.063-0.125 0-0.188 0.063-0.188 0.125zM10.313 15.188c0 0.063 0.063 0.125 0.063 0.125 0.125 0 0.813 0.688 0.813 0.75 0 0 0 0.063 0.063 0.063 0 0 0.125 0.125 0.25 0.25 0.188 0.125 0.375 0.25 0.5 0.313s0.25 0.188 0.25 0.188c0 0.063 0.063 0.063 0.063 0.063 0.063 0 0.188 0.125 0.313 0.25 0.188 0.188 0.25 0.25 0.25 0.25s0-0.125 0.063-0.188c0.063-0.125 0.063-0.188-0.063-0.313-0.063-0.063-0.063-0.125 0-0.125 0.188 0 0.063-0.188-0.25-0.375-0.25-0.125-0.25-0.188-0.188-0.25 0.063 0 0.063-0.063-0.125-0.063-0.063 0-0.375-0.125-0.625-0.313-0.313-0.188-0.563-0.313-0.625-0.313-0.125 0-0.125 0-0.063 0 0.188 0.125 0.813 0.563 0.813 0.625 0 0.125-0.438-0.063-0.875-0.438-0.688-0.625-0.688-0.625-0.625-0.5z"></path>
</svg>
