<!-- Generated by IcoMoon.io -->
<svg version="1.1" xmlns="http://www.w3.org/2000/svg" width="32" height="32" viewBox="0 0 32 32">
<title>Aardvark</title>
<path d="M15.438 6.313c-1.313 0.188-2.625 0.75-3.75 1.625-0.375 0.313-1.313 1.063-2.063 1.688-0.75 0.563-1.563 1.125-1.688 1.313-0.188 0.125-0.313 0.188-0.375 0.188 0 0 0-0.125 0.063-0.188 0.063-0.125 0.063-0.5 0.063-0.813 0-0.75-0.063-1.188-0.438-1.938-0.125-0.313-0.188-0.563-0.25-0.938 0-0.25-0.063-0.563-0.063-0.563-0.125-0.125-0.313 0.063-0.563 0.563-0.438 0.875-0.5 1.813-0.25 3 0.188 0.625 0.188 0.938 0.125 0.938-0.188 0-0.438-0.438-1.438-2.625-0.188-0.313-0.875-1.125-1.188-1.375-0.188-0.063-0.188-0.125-0.313 0-0.063 0.063-0.063 0.25-0.063 0.625 0 1.188 0.375 1.875 1.5 3.125 0.375 0.375 0.563 0.75 0.563 1 0 0.063-0.313 0.375-0.75 0.688-0.938 0.688-1.188 1-1.563 1.625-0.5 0.875-1.25 1.5-1.875 1.5-0.438 0-0.625 0.063-0.75 0.375-0.25 0.438 0 1.063 0.375 1.125 0.063 0.063 0.25 0.125 0.375 0.25 0.313 0.313 0.563 0.25 1.5-0.313 0.313-0.188 0.625-0.313 0.75-0.375 0.125 0 0.438-0.125 0.75-0.25 0.25-0.125 0.875-0.25 1.313-0.375 0.438-0.063 1-0.188 1.188-0.25 1.063-0.375 2.563 0 3.5 0.875l0.375 0.313 0.188 1.188c0.313 1.375 0.313 1.625 0.063 2-0.125 0.25-0.25 0.313-0.813 0.625s-0.75 0.438-0.813 0.625c-0.125 0.25-0.125 0.313 0 0.313 0.063 0 0.125 0.063 0.188 0.063 0.063 0.063 0.188 0.063 0.438 0 0.125-0.063 0.313-0.125 0.375-0.063 0.063 0 0.313-0.063 0.563-0.188 0.125 0 0.125 0 0.063 0.063-0.063 0.188 0.125 0.313 0.375 0.313 0.188 0 0.25 0.063 0.25 0.125 0 0.125 0.125 0.125 0.438 0.063 0.125-0.063 0.375-0.063 0.563-0.063 0.25 0 0.313 0.063 0.25 0.125 0 0.125 0.125 0.188 0.188 0.063 0-0.063 0.188-0.188 0.438-0.313 0.563-0.375 0.75-0.625 1.5-2.25 0.625-1.375 0.75-1.563 1.5-1.875 0.563-0.313 1-0.375 1.625-0.375 0.563 0.063 0.625 0.063 1.063 0.313 0.438 0.313 0.5 0.375 0.5 0.563s-0.063 0.25-0.438 0.625c-0.75 0.563-0.938 0.813-1.063 1.125-0.313 0.688-0.25 1.188 0.125 1.5 0.313 0.188 0.438 0.188 0.5 0 0.063-0.125 0.063-0.188 0.125-0.125 0 0 0.125 0 0.188-0.063 0.125 0 0.125-0.063 0.063-0.25 0-0.188 0-0.25 0.125-0.313 0.125 0 0.188-0.125 0.25-0.375 0.063-0.375 0.125-0.438 0.75-1.063 0.5-0.563 0.5-0.563 0.625-0.438 0.125 0.063 0.313 0.125 0.563 0.188 0.188 0.063 0.438 0.125 0.5 0.188 0.313 0.188 0.313 0.938 0 1.5-0.125 0.25-0.188 0.313-0.625 0.5-0.188 0.125-0.5 0.313-0.563 0.375-0.125 0.125-0.125 0.125-0.063 0.313 0.125 0.313 0.25 0.313 0.563 0.313 0.188-0.063 0.313-0.063 0.438 0.063 0.25 0.188 0.5 0.063 0.813-0.438 0.25-0.375 0.375-0.438 0.375-0.313 0 0.063 0 0.125 0.125 0.188 0.063 0.125 0.125 0.125 0.125 0.063 0.188-0.188 0.375-0.875 0.375-1.25 0-0.188 0.063-0.813 0.188-1.375l0.25-1.063-0.125-0.25c-0.125-0.25-0.125-0.313-0.063-0.938 0-0.313 0.063-0.625 0.063-0.688s0.063-0.063 0.063-0.063 0.25 0.25 0.438 0.563c0.813 1.75 2.375 3.5 3.625 4.063 0.75 0.375 1.188 0.438 1.938 0.438 0.563 0 1.313-0.125 1.625-0.313 0 0-0.313-0.063-0.75-0.063-1.313 0-2.188-0.313-2.938-1-1.125-1.063-1.688-2.438-1.938-4.625-0.188-1.813-0.563-3-1.813-5.438-0.563-1.188-0.75-1.5-1.063-1.813-0.875-0.938-2.313-1.563-3.938-1.75-0.375 0-0.938-0.063-1.25-0.125-0.688-0.063-1.563-0.063-2.188 0z"></path>
</svg>
