<?xml version="1.0" encoding="UTF-8"?>
<svg width="700pt" height="700pt" version="1.1" viewBox="0 0 700 700" xmlns="http://www.w3.org/2000/svg" xmlns:xlink="http://www.w3.org/1999/xlink">
 <defs>
  <symbol id="o" overflow="visible">
   <path d="m36.781-2.2031c-1.8984 0.99219-3.8711 1.7344-5.9219 2.2344-2.0547 0.5-4.1992 0.75-6.4375 0.75-6.668 0-11.949-1.8633-15.844-5.5938-3.8984-3.7266-5.8438-8.7812-5.8438-15.156 0-6.4062 1.9453-11.469 5.8438-15.188 3.8945-3.7266 9.1758-5.5938 15.844-5.5938 2.2383 0 4.3828 0.25 6.4375 0.75 2.0508 0.5 4.0234 1.2422 5.9219 2.2188v8.2969c-1.9062-1.3125-3.793-2.2695-5.6562-2.875-1.8555-0.60156-3.8125-0.90625-5.875-0.90625-3.6797 0-6.5742 1.1836-8.6875 3.5469-2.1055 2.3555-3.1562 5.6055-3.1562 9.75 0 4.125 1.0508 7.3711 3.1562 9.7344 2.1133 2.3555 5.0078 3.5312 8.6875 3.5312 2.0625 0 4.0195-0.30078 5.875-0.90625 1.8633-0.61328 3.75-1.5703 5.6562-2.875z"/>
  </symbol>
  <symbol id="i" overflow="visible">
   <path d="m26.922-21.844c-0.84375-0.39453-1.6836-0.6875-2.5156-0.875-0.83594-0.1875-1.668-0.28125-2.5-0.28125-2.4688 0-4.3711 0.79297-5.7031 2.375-1.3359 1.5859-2 3.8516-2 6.7969v13.828h-9.5938v-30.031h9.5938v4.9375c1.2383-1.9688 2.6562-3.3984 4.25-4.2969 1.6016-0.90625 3.5195-1.3594 5.75-1.3594 0.32031 0 0.67188 0.015625 1.0469 0.046875 0.375 0.023437 0.92188 0.078125 1.6406 0.17188z"/>
  </symbol>
  <symbol id="b" overflow="visible">
   <path d="m34.578-15.094v2.7344h-22.438c0.23828 2.25 1.0508 3.9375 2.4375 5.0625 1.3945 1.125 3.3438 1.6875 5.8438 1.6875 2.0195 0 4.0859-0.29688 6.2031-0.89062 2.125-0.60156 4.3008-1.5078 6.5312-2.7188v7.3906c-2.2617 0.86719-4.5273 1.5156-6.7969 1.9531-2.2734 0.4375-4.543 0.65625-6.8125 0.65625-5.4375 0-9.6641-1.3789-12.672-4.1406-3.0117-2.7578-4.5156-6.6328-4.5156-11.625 0-4.8945 1.4766-8.7422 4.4375-11.547 2.957-2.8125 7.0312-4.2188 12.219-4.2188 4.707 0 8.4766 1.4219 11.312 4.2656 2.832 2.8438 4.25 6.6406 4.25 11.391zm-9.8594-3.1875c0-1.8203-0.53125-3.2891-1.5938-4.4062-1.0625-1.125-2.4531-1.6875-4.1719-1.6875-1.8555 0-3.3672 0.52734-4.5312 1.5781-1.1562 1.043-1.8828 2.5469-2.1719 4.5156z"/>
  </symbol>
  <symbol id="h" overflow="visible">
   <path d="m18.062-13.516c-2 0-3.5078 0.34375-4.5156 1.0312-1.0117 0.67969-1.5156 1.6797-1.5156 3 0 1.2109 0.40625 2.1562 1.2188 2.8438 0.82031 0.6875 1.957 1.0312 3.4062 1.0312 1.8008 0 3.3164-0.64453 4.5469-1.9375 1.2383-1.2891 1.8594-2.9102 1.8594-4.8594v-1.1094zm14.672-3.6094v17.125h-9.6719v-4.4531c-1.293 1.8242-2.7461 3.1523-4.3594 3.9844-1.6055 0.83203-3.5586 1.25-5.8594 1.25-3.1172 0-5.6406-0.90625-7.5781-2.7188-1.9375-1.8203-2.9062-4.1797-2.9062-7.0781 0-3.5195 1.207-6.0977 3.625-7.7344 2.4258-1.6445 6.2344-2.4688 11.422-2.4688h5.6562v-0.75c0-1.5195-0.60156-2.6328-1.7969-3.3438-1.1992-0.70703-3.0703-1.0625-5.6094-1.0625-2.0547 0-3.9648 0.21094-5.7344 0.625-1.7734 0.40625-3.418 1.0234-4.9375 1.8438v-7.3125c2.0508-0.5 4.1133-0.87891 6.1875-1.1406 2.082-0.25781 4.1602-0.39062 6.2344-0.39062 5.4062 0 9.3125 1.0703 11.719 3.2031 2.4062 2.1367 3.6094 5.6094 3.6094 10.422z"/>
  </symbol>
  <symbol id="a" overflow="visible">
   <path d="m15.094-38.547v8.5156h9.8906v6.875h-9.8906v12.734c0 1.3867 0.27344 2.3281 0.82812 2.8281 0.55078 0.49219 1.6484 0.73438 3.2969 0.73438h4.9375v6.8594h-8.2344c-3.793 0-6.4805-0.78906-8.0625-2.375-1.5742-1.582-2.3594-4.2656-2.3594-8.0469v-12.734h-4.7812v-6.875h4.7812v-8.5156z"/>
  </symbol>
  <symbol id="g" overflow="visible">
   <path d="m25.047-25.625v-16.094h9.6406v41.719h-9.6406v-4.3438c-1.3242 1.7734-2.7812 3.0703-4.375 3.8906s-3.4375 1.2344-5.5312 1.2344c-3.6992 0-6.7344-1.4688-9.1094-4.4062-2.375-2.9453-3.5625-6.7344-3.5625-11.359 0-4.6328 1.1875-8.4219 3.5625-11.359s5.4102-4.4062 9.1094-4.4062c2.0703 0 3.9102 0.41797 5.5156 1.25 1.6016 0.83594 3.0664 2.125 4.3906 3.875zm-6.3281 19.438c2.0508 0 3.6172-0.75 4.7031-2.25 1.082-1.5078 1.625-3.6914 1.625-6.5469 0-2.8633-0.54297-5.0469-1.625-6.5469-1.0859-1.5-2.6523-2.25-4.7031-2.25-2.043 0-3.6055 0.75-4.6875 2.25-1.0859 1.5-1.625 3.6836-1.625 6.5469 0 2.8555 0.53906 5.0391 1.625 6.5469 1.082 1.5 2.6445 2.25 4.6875 2.25z"/>
  </symbol>
  <symbol id="f" overflow="visible">
   <path d="m20.594-6.1875c2.0508 0 3.6172-0.75 4.7031-2.25 1.082-1.5078 1.625-3.6914 1.625-6.5469 0-2.8633-0.54297-5.0469-1.625-6.5469-1.0859-1.5-2.6523-2.25-4.7031-2.25-2.0625 0-3.6484 0.75781-4.75 2.2656-1.0938 1.5117-1.6406 3.6875-1.6406 6.5312s0.54688 5.0234 1.6406 6.5312c1.1016 1.5117 2.6875 2.2656 4.75 2.2656zm-6.3906-19.438c1.3203-1.75 2.7852-3.0391 4.3906-3.875 1.6133-0.83203 3.4688-1.25 5.5625-1.25 3.6953 0 6.7344 1.4688 9.1094 4.4062 2.3828 2.9375 3.5781 6.7266 3.5781 11.359 0 4.625-1.1953 8.4141-3.5781 11.359-2.375 2.9375-5.4141 4.4062-9.1094 4.4062-2.0938 0-3.9492-0.41797-5.5625-1.25-1.6055-0.83203-3.0703-2.125-4.3906-3.875v4.3438h-9.5938v-41.719h9.5938z"/>
  </symbol>
  <symbol id="e" overflow="visible">
   <path d="m0.67188-30.031h9.5938l8.0781 20.375 6.8594-20.375h9.5938l-12.625 32.875c-1.2734 3.3438-2.75 5.6758-4.4375 7-1.6875 1.332-3.918 2-6.6875 2h-5.5469v-6.2969h3c1.625 0 2.8047-0.26172 3.5469-0.78125 0.73828-0.51172 1.3164-1.4375 1.7344-2.7812l0.26562-0.82812z"/>
  </symbol>
  <symbol id="d" overflow="visible">
   <path d="m15.359-32.219v24.422h3.7031c4.2188 0 7.4375-1.0469 9.6562-3.1406 2.2266-2.0938 3.3438-5.1289 3.3438-9.1094 0-3.9688-1.1094-6.9883-3.3281-9.0625-2.2109-2.0703-5.4336-3.1094-9.6719-3.1094zm-10.312-7.8125h10.875c6.082 0 10.609 0.4375 13.578 1.3125 2.9766 0.86719 5.5312 2.3359 7.6562 4.4062 1.875 1.8047 3.2656 3.8867 4.1719 6.25 0.91406 2.3555 1.375 5.0273 1.375 8.0156 0 3.0234-0.46094 5.7148-1.375 8.0781-0.90625 2.3672-2.2969 4.4531-4.1719 6.2656-2.1484 2.0742-4.7188 3.543-7.7188 4.4062-3 0.86719-7.5078 1.2969-13.516 1.2969h-10.875z"/>
  </symbol>
  <symbol id="n" overflow="visible">
   <path d="m4.6094-30.031h9.5938v30.031h-9.5938zm0-11.688h9.5938v7.8281h-9.5938z"/>
  </symbol>
  <symbol id="m" overflow="visible">
   <path d="m34.797-18.281v18.281h-9.6562v-14c0-2.582-0.058594-4.3633-0.17188-5.3438-0.11719-0.98828-0.3125-1.7188-0.59375-2.1875-0.375-0.625-0.88672-1.1094-1.5312-1.4531-0.64844-0.35156-1.3828-0.53125-2.2031-0.53125-2 0-3.5742 0.77734-4.7188 2.3281-1.1484 1.543-1.7188 3.6836-1.7188 6.4219v14.766h-9.5938v-30.031h9.5938v4.4062c1.4453-1.75 2.9844-3.0391 4.6094-3.875 1.6328-0.83203 3.4297-1.25 5.3906-1.25 3.4688 0 6.0977 1.0625 7.8906 3.1875 1.8008 2.125 2.7031 5.2188 2.7031 9.2812z"/>
  </symbol>
  <symbol id="c" overflow="visible">
   <path d="m18.906-23.891c-2.1367 0-3.7617 0.76562-4.875 2.2969-1.1172 1.5312-1.6719 3.7344-1.6719 6.6094s0.55469 5.0781 1.6719 6.6094c1.1133 1.5312 2.7383 2.2969 4.875 2.2969 2.082 0 3.6758-0.76562 4.7812-2.2969 1.1133-1.5312 1.6719-3.7344 1.6719-6.6094s-0.55859-5.0781-1.6719-6.6094c-1.1055-1.5312-2.6992-2.2969-4.7812-2.2969zm0-6.8594c5.1641 0 9.1953 1.3984 12.094 4.1875 2.9062 2.7812 4.3594 6.6406 4.3594 11.578 0 4.9297-1.4531 8.7891-4.3594 11.578-2.8984 2.793-6.9297 4.1875-12.094 4.1875-5.1875 0-9.2461-1.3945-12.172-4.1875-2.918-2.7891-4.375-6.6484-4.375-11.578 0-4.9375 1.457-8.7969 4.375-11.578 2.9258-2.7891 6.9844-4.1875 12.172-4.1875z"/>
  </symbol>
  <symbol id="l" overflow="visible">
   <path d="m28.062-29.094v7.2969c-2.0547-0.85156-4.0391-1.4922-5.9531-1.9219-1.9062-0.4375-3.7109-0.65625-5.4062-0.65625-1.8242 0-3.1797 0.23047-4.0625 0.6875-0.88672 0.46094-1.3281 1.1641-1.3281 2.1094 0 0.77344 0.33203 1.3594 1 1.7656 0.67578 0.40625 1.8789 0.71094 3.6094 0.90625l1.6875 0.25c4.9141 0.625 8.2227 1.6523 9.9219 3.0781 1.6953 1.4297 2.5469 3.6719 2.5469 6.7344 0 3.1992-1.1836 5.6055-3.5469 7.2188-2.3555 1.6055-5.8711 2.4062-10.547 2.4062-1.9922 0-4.043-0.15625-6.1562-0.46875-2.1172-0.3125-4.293-0.78125-6.5312-1.4062v-7.2969c1.9141 0.92969 3.8789 1.625 5.8906 2.0938 2.0078 0.46094 4.0508 0.6875 6.125 0.6875 1.875 0 3.2852-0.25391 4.2344-0.76562 0.94531-0.51953 1.4219-1.2891 1.4219-2.3125 0-0.85156-0.32812-1.4883-0.98438-1.9062-0.64844-0.42578-1.9492-0.75391-3.9062-0.98438l-1.6875-0.21875c-4.2734-0.53125-7.2656-1.5195-8.9844-2.9688-1.7109-1.4453-2.5625-3.6484-2.5625-6.6094 0-3.1758 1.0859-5.5312 3.2656-7.0625 2.1875-1.5391 5.5312-2.3125 10.031-2.3125 1.7695 0 3.6289 0.13672 5.5781 0.40625 1.9453 0.26172 4.0625 0.67969 6.3438 1.25z"/>
  </symbol>
  <symbol id="k" overflow="visible">
   <path d="m24.375-41.719v6.2969h-5.3125c-1.3555 0-2.3047 0.25-2.8438 0.75-0.53125 0.49219-0.79688 1.3398-0.79688 2.5469v2.0938h8.2031v6.875h-8.2031v23.156h-9.6094v-23.156h-4.7656v-6.875h4.7656v-2.0938c0-3.2695 0.91016-5.6875 2.7344-7.25 1.8203-1.5625 4.6484-2.3438 8.4844-2.3438z"/>
  </symbol>
  <symbol id="j" overflow="visible">
   <path d="m5.0469-40.031h10.312v32.234h18.125v7.7969h-28.438z"/>
  </symbol>
 </defs>
 <path transform="matrix(10.98 0 0 10.98 70 0)" d="m25.5 6.7002v19h14.8" fill="none" stroke="#000" stroke-miterlimit="10" stroke-width="2"/>
 <path transform="matrix(10.98 0 0 10.98 70 0)" d="m49.2 21.7c0.19993 1.1999 0.2999 2.4998 0.2999 3.8001 0 13.3-10.7 24-24 24-13.3 0-24-10.7-24-24 0-13.3 10.7-24 24-24 9.3 0 17.4 5.2999 21.4 13.1" fill="none" stroke="#000" stroke-miterlimit="10" stroke-width="2"/>
 <path transform="matrix(10.98 0 0 10.98 70 0)" d="m49 4.3999-2.1 10.2-10.2-2.1" fill="none" stroke="#000" stroke-miterlimit="10" stroke-width="2"/>
 <g>
  <use x="70" y="724.707031" xlink:href="#o"/>
  <use x="110.292969" y="724.707031" xlink:href="#i"/>
  <use x="137.367188" y="724.707031" xlink:href="#b"/>
  <use x="174.601562" y="724.707031" xlink:href="#h"/>
  <use x="211.652344" y="724.707031" xlink:href="#a"/>
  <use x="237.894531" y="724.707031" xlink:href="#b"/>
  <use x="275.132812" y="724.707031" xlink:href="#g"/>
  <use x="333.546875" y="724.707031" xlink:href="#f"/>
  <use x="372.84375" y="724.707031" xlink:href="#e"/>
  <use x="427.746094" y="724.707031" xlink:href="#d"/>
  <use x="473.320312" y="724.707031" xlink:href="#n"/>
  <use x="492.140625" y="724.707031" xlink:href="#m"/>
  <use x="531.226562" y="724.707031" xlink:href="#c"/>
  <use x="568.941406" y="724.707031" xlink:href="#l"/>
  <use x="601.621094" y="724.707031" xlink:href="#c"/>
  <use x="639.339844" y="724.707031" xlink:href="#k"/>
  <use x="663.226562" y="724.707031" xlink:href="#a"/>
  <use x="689.46875" y="724.707031" xlink:href="#j"/>
 </g>
</svg>
