<?xml version="1.0" encoding="UTF-8"?>
<svg width="700pt" height="700pt" version="1.1" viewBox="0 0 700 700" xmlns="http://www.w3.org/2000/svg" xmlns:xlink="http://www.w3.org/1999/xlink">
 <defs>
  <symbol id="s" overflow="visible">
   <path d="m2.6094-0.15625c-0.13672 0.074219-0.27734 0.125-0.42188 0.15625-0.14844 0.039062-0.29688 0.0625-0.45312 0.0625-0.48047 0-0.85938-0.12891-1.1406-0.39062-0.27344-0.26953-0.40625-0.63281-0.40625-1.0938 0-0.44531 0.13281-0.80078 0.40625-1.0625 0.28125-0.26953 0.66016-0.40625 1.1406-0.40625 0.15625 0 0.30469 0.023437 0.45312 0.0625 0.14453 0.03125 0.28516 0.085937 0.42188 0.15625v0.57812c-0.13672-0.09375-0.27344-0.16016-0.40625-0.20312-0.125-0.039063-0.26172-0.0625-0.40625-0.0625-0.27344 0-0.48047 0.085937-0.625 0.25-0.14844 0.16797-0.21875 0.39844-0.21875 0.6875 0 0.30469 0.070313 0.53906 0.21875 0.70312 0.14453 0.16797 0.35156 0.25 0.625 0.25 0.14453 0 0.28125-0.019531 0.40625-0.0625 0.13281-0.050781 0.26953-0.125 0.40625-0.21875z"/>
  </symbol>
  <symbol id="e" overflow="visible">
   <path d="m1.9062-1.5469c-0.0625-0.03125-0.125-0.050781-0.1875-0.0625-0.054688-0.007813-0.10938-0.015625-0.17188-0.015625-0.16797 0-0.30469 0.058594-0.40625 0.17188-0.09375 0.10547-0.14062 0.26172-0.14062 0.46875v0.98438h-0.67188v-2.125h0.67188v0.34375c0.09375-0.13281 0.19531-0.23438 0.3125-0.29688 0.11328-0.0625 0.25-0.09375 0.40625-0.09375h0.0625c0.03125 0 0.070312 0.007813 0.125 0.015625z"/>
  </symbol>
  <symbol id="a" overflow="visible">
   <path d="m2.4531-1.0625v0.1875h-1.5938c0.019531 0.15625 0.078125 0.27734 0.17188 0.35938 0.10156 0.085937 0.24219 0.125 0.42188 0.125 0.13281 0 0.27344-0.019531 0.42188-0.0625 0.15625-0.050781 0.3125-0.11719 0.46875-0.20312v0.53125c-0.15625 0.0625-0.32031 0.10938-0.48438 0.14062-0.15625 0.03125-0.3125 0.046875-0.46875 0.046875-0.38672 0-0.6875-0.097656-0.90625-0.29688-0.21094-0.19531-0.3125-0.47266-0.3125-0.82812 0-0.34375 0.10156-0.61328 0.3125-0.8125 0.20703-0.19531 0.49219-0.29688 0.85938-0.29688 0.33203 0 0.59766 0.10156 0.79688 0.29688 0.20703 0.19922 0.3125 0.46875 0.3125 0.8125zm-0.70312-0.23438c0-0.125-0.039062-0.22656-0.10938-0.3125-0.074219-0.082031-0.17188-0.125-0.29688-0.125-0.13672 0-0.24609 0.042969-0.32812 0.125-0.074219 0.074219-0.12109 0.17969-0.14062 0.3125z"/>
  </symbol>
  <symbol id="d" overflow="visible">
   <path d="m1.2812-0.95312c-0.14844 0-0.25781 0.027344-0.32812 0.078125-0.0625 0.042969-0.09375 0.10938-0.09375 0.20312 0 0.085937 0.023437 0.15234 0.078125 0.20312 0.0625 0.054688 0.14453 0.078125 0.25 0.078125 0.125 0 0.22656-0.046875 0.3125-0.14062 0.09375-0.09375 0.14062-0.20703 0.14062-0.34375v-0.078125zm1.0312-0.26562v1.2188h-0.67188v-0.3125c-0.09375 0.125-0.19922 0.21875-0.3125 0.28125-0.11719 0.0625-0.25781 0.09375-0.42188 0.09375-0.21875 0-0.39844-0.0625-0.53125-0.1875-0.13672-0.13281-0.20312-0.30469-0.20312-0.51562 0-0.25 0.082031-0.42969 0.25-0.54688 0.17578-0.11328 0.44531-0.17188 0.8125-0.17188h0.40625v-0.0625c0-0.10156-0.046875-0.17969-0.14062-0.23438-0.085938-0.050781-0.21484-0.078125-0.39062-0.078125-0.14844 0-0.28125 0.015625-0.40625 0.046875s-0.24219 0.078125-0.34375 0.14062v-0.53125c0.14453-0.03125 0.28906-0.050781 0.4375-0.0625 0.14453-0.019531 0.28906-0.03125 0.4375-0.03125 0.38281 0 0.66016 0.078125 0.82812 0.23438 0.16406 0.14844 0.25 0.38672 0.25 0.71875z"/>
  </symbol>
  <symbol id="c" overflow="visible">
   <path d="m1.0625-2.7344v0.60938h0.70312v0.48438h-0.70312v0.90625c0 0.09375 0.019531 0.16406 0.0625 0.20312 0.039062 0.03125 0.11719 0.046875 0.23438 0.046875h0.35938v0.48438h-0.59375c-0.27344 0-0.46484-0.054688-0.57812-0.17188-0.10547-0.11328-0.15625-0.30078-0.15625-0.5625v-0.90625h-0.34375v-0.48438h0.34375v-0.60938z"/>
  </symbol>
  <symbol id="j" overflow="visible">
   <path d="m1.7812-1.8125v-1.1406h0.67188v2.9531h-0.67188v-0.3125c-0.09375 0.125-0.19922 0.21875-0.3125 0.28125-0.11719 0.0625-0.24609 0.09375-0.39062 0.09375-0.26172 0-0.48047-0.10156-0.65625-0.3125-0.16797-0.20703-0.25-0.47656-0.25-0.8125 0-0.32031 0.082031-0.58594 0.25-0.79688 0.17578-0.20703 0.39453-0.3125 0.65625-0.3125 0.14453 0 0.27344 0.03125 0.39062 0.09375 0.11328 0.054687 0.21875 0.14062 0.3125 0.26562zm-0.45312 1.375c0.14453 0 0.25391-0.050781 0.32812-0.15625 0.082031-0.11328 0.125-0.26953 0.125-0.46875 0-0.19531-0.042969-0.34766-0.125-0.45312-0.074219-0.11328-0.18359-0.17188-0.32812-0.17188-0.14844 0-0.26172 0.058594-0.34375 0.17188-0.074219 0.10547-0.10938 0.25781-0.10938 0.45312 0 0.19922 0.035156 0.35547 0.10938 0.46875 0.082031 0.10547 0.19531 0.15625 0.34375 0.15625z"/>
  </symbol>
  <symbol id="h" overflow="visible">
   <path d="m1.4531-0.4375c0.14453 0 0.25391-0.050781 0.32812-0.15625 0.082031-0.11328 0.125-0.26953 0.125-0.46875 0-0.19531-0.042969-0.34766-0.125-0.45312-0.074219-0.11328-0.18359-0.17188-0.32812-0.17188-0.14844 0-0.26172 0.058594-0.34375 0.17188-0.074219 0.10547-0.10938 0.25781-0.10938 0.45312 0 0.19922 0.035156 0.35547 0.10938 0.46875 0.082031 0.10547 0.19531 0.15625 0.34375 0.15625zm-0.45312-1.375c0.09375-0.125 0.19531-0.21094 0.3125-0.26562 0.11328-0.0625 0.25-0.09375 0.40625-0.09375 0.25781 0 0.47266 0.10547 0.64062 0.3125 0.16406 0.21094 0.25 0.47656 0.25 0.79688 0 0.33594-0.085937 0.60547-0.25 0.8125-0.16797 0.21094-0.38281 0.3125-0.64062 0.3125-0.15625 0-0.29297-0.03125-0.40625-0.09375-0.11719-0.0625-0.21875-0.15625-0.3125-0.28125v0.3125h-0.67188v-2.9531h0.67188z"/>
  </symbol>
  <symbol id="i" overflow="visible">
   <path d="m0.046875-2.125h0.6875l0.5625 1.4375 0.48438-1.4375h0.6875l-0.89062 2.3281c-0.09375 0.23828-0.20312 0.40625-0.32812 0.5-0.11719 0.09375-0.27344 0.14062-0.46875 0.14062h-0.39062v-0.45312h0.21875c0.11328 0 0.19531-0.023437 0.25-0.0625 0.050781-0.03125 0.085937-0.09375 0.10938-0.1875l0.03125-0.0625z"/>
  </symbol>
  <symbol id="b" overflow="visible">
   <path d="m2.4688-1.2969v1.2969h-0.6875v-0.98438c0-0.1875-0.007812-0.3125-0.015625-0.375-0.011719-0.070313-0.023437-0.12891-0.03125-0.17188-0.03125-0.039062-0.074219-0.070312-0.125-0.09375-0.042969-0.03125-0.089844-0.046875-0.14062-0.046875-0.14844 0-0.26172 0.058594-0.34375 0.17188-0.085938 0.10547-0.125 0.25781-0.125 0.45312v1.0469h-0.67188v-2.9531h0.67188v1.1406c0.10156-0.125 0.21094-0.21094 0.32812-0.26562 0.11328-0.0625 0.24219-0.09375 0.39062-0.09375 0.23828 0 0.42188 0.074219 0.54688 0.21875 0.13281 0.14844 0.20312 0.36719 0.20312 0.65625z"/>
  </symbol>
  <symbol id="g" overflow="visible">
   <path d="m2.4688-1.2969v1.2969h-0.6875v-0.98438c0-0.1875-0.007812-0.3125-0.015625-0.375-0.011719-0.070313-0.023437-0.12891-0.03125-0.17188-0.03125-0.039062-0.074219-0.070312-0.125-0.09375-0.042969-0.03125-0.089844-0.046875-0.14062-0.046875-0.14844 0-0.26172 0.058594-0.34375 0.17188-0.085938 0.10547-0.125 0.25781-0.125 0.45312v1.0469h-0.67188v-2.125h0.67188v0.3125c0.10156-0.125 0.21094-0.21094 0.32812-0.26562 0.11328-0.0625 0.24219-0.09375 0.39062-0.09375 0.23828 0 0.42188 0.074219 0.54688 0.21875 0.13281 0.14844 0.20312 0.36719 0.20312 0.65625z"/>
  </symbol>
  <symbol id="r" overflow="visible">
   <path d="m1-0.3125v1.125h-0.67188v-2.9375h0.67188v0.3125c0.09375-0.125 0.19531-0.21094 0.3125-0.26562 0.11328-0.0625 0.25-0.09375 0.40625-0.09375 0.25781 0 0.47266 0.10547 0.64062 0.3125 0.16406 0.21094 0.25 0.47656 0.25 0.79688 0 0.33594-0.085937 0.60547-0.25 0.8125-0.16797 0.21094-0.38281 0.3125-0.64062 0.3125-0.15625 0-0.29297-0.03125-0.40625-0.09375-0.11719-0.0625-0.21875-0.15625-0.3125-0.28125zm0.45312-1.375c-0.14844 0-0.26172 0.058594-0.34375 0.17188-0.074219 0.10547-0.10938 0.25781-0.10938 0.45312 0 0.19922 0.035156 0.35547 0.10938 0.46875 0.082031 0.10547 0.19531 0.15625 0.34375 0.15625 0.14453 0 0.25391-0.050781 0.32812-0.15625 0.082031-0.11328 0.125-0.26953 0.125-0.46875 0-0.19531-0.042969-0.34766-0.125-0.45312-0.074219-0.11328-0.18359-0.17188-0.32812-0.17188z"/>
  </symbol>
  <symbol id="q" overflow="visible">
   <path d="m1.7344-2.9531v0.4375h-0.39062c-0.09375 0-0.16406 0.023437-0.20312 0.0625-0.03125 0.03125-0.046875 0.089844-0.046875 0.17188v0.15625h0.57812v0.48438h-0.57812v1.6406h-0.6875v-1.6406h-0.32812v-0.48438h0.32812v-0.15625c0-0.22656 0.0625-0.39453 0.1875-0.5 0.13281-0.11328 0.33594-0.17188 0.60938-0.17188z"/>
  </symbol>
  <symbol id="f" overflow="visible">
   <path d="m1.3438-1.6875c-0.15625 0-0.27734 0.054688-0.35938 0.15625-0.074219 0.10547-0.10938 0.26172-0.10938 0.46875 0 0.21094 0.035156 0.36719 0.10938 0.46875 0.082031 0.10547 0.20312 0.15625 0.35938 0.15625 0.14453 0 0.25391-0.050781 0.32812-0.15625 0.082031-0.10156 0.125-0.25781 0.125-0.46875 0-0.20703-0.042969-0.36328-0.125-0.46875-0.074219-0.10156-0.18359-0.15625-0.32812-0.15625zm0-0.48438c0.36328 0 0.64453 0.10156 0.84375 0.29688 0.20703 0.1875 0.3125 0.46094 0.3125 0.8125 0 0.35547-0.10547 0.63281-0.3125 0.82812-0.19922 0.19922-0.48047 0.29688-0.84375 0.29688-0.375 0-0.66797-0.097656-0.875-0.29688-0.19922-0.19531-0.29688-0.47266-0.29688-0.82812 0-0.35156 0.097656-0.625 0.29688-0.8125 0.20703-0.19531 0.5-0.29688 0.875-0.29688z"/>
  </symbol>
  <symbol id="p" overflow="visible">
   <path d="m2.2969-1.7812c0.082031-0.125 0.17969-0.21875 0.29688-0.28125 0.125-0.070312 0.25781-0.10938 0.40625-0.10938 0.23828 0 0.42188 0.074219 0.54688 0.21875 0.13281 0.14844 0.20312 0.36719 0.20312 0.65625v1.2969h-0.6875v-1.1094-0.046875-0.078125c0-0.15625-0.023438-0.26562-0.0625-0.32812-0.042969-0.070312-0.11719-0.10938-0.21875-0.10938-0.125 0-0.22656 0.058594-0.29688 0.17188-0.074219 0.10547-0.10938 0.25781-0.10938 0.45312v1.0469h-0.6875v-1.1094c0-0.23828-0.023438-0.39062-0.0625-0.45312-0.03125-0.070312-0.10156-0.10938-0.20312-0.10938-0.13672 0-0.24219 0.058594-0.3125 0.17188-0.074219 0.10547-0.10938 0.25781-0.10938 0.45312v1.0469h-0.67188v-2.125h0.67188v0.3125c0.082031-0.125 0.17578-0.21094 0.28125-0.26562 0.11328-0.0625 0.23828-0.09375 0.375-0.09375 0.14453 0 0.27344 0.039063 0.39062 0.10938 0.11328 0.0625 0.19531 0.15625 0.25 0.28125z"/>
  </symbol>
  <symbol id="o" overflow="visible">
   <path d="m0.35938-2.8438h0.8125l1.0312 1.9531v-1.9531h0.70312v2.8438h-0.82812l-1.0312-1.9531v1.9531h-0.6875z"/>
  </symbol>
  <symbol id="n" overflow="visible">
   <path d="m0.29688-0.82812v-1.2969h0.6875v0.20312 0.45312 0.34375c0 0.16797 0.003906 0.28906 0.015625 0.35938 0.007812 0.074219 0.023438 0.13281 0.046875 0.17188 0.019531 0.042969 0.050781 0.078125 0.09375 0.10938 0.050781 0.023437 0.10938 0.03125 0.17188 0.03125 0.13281 0 0.24219-0.050781 0.32812-0.15625 0.082031-0.11328 0.125-0.26953 0.125-0.46875v-1.0469h0.67188v2.125h-0.67188v-0.3125c-0.10547 0.125-0.21484 0.21875-0.32812 0.28125-0.11719 0.0625-0.24219 0.09375-0.375 0.09375-0.25 0-0.44531-0.070312-0.57812-0.21875-0.125-0.15625-0.1875-0.37891-0.1875-0.67188z"/>
  </symbol>
  <symbol id="m" overflow="visible">
   <path d="m0.35938-2.8438h1.2188c0.35156 0 0.625 0.085938 0.8125 0.25 0.19531 0.15625 0.29688 0.38672 0.29688 0.6875 0 0.29297-0.10156 0.52344-0.29688 0.6875-0.1875 0.15625-0.46094 0.23438-0.8125 0.23438h-0.48438v0.98438h-0.73438zm0.73438 0.53125v0.79688h0.40625c0.13281 0 0.23828-0.03125 0.3125-0.09375 0.082031-0.070313 0.125-0.17188 0.125-0.29688s-0.042969-0.22266-0.125-0.29688c-0.074219-0.070313-0.17969-0.10938-0.3125-0.10938z"/>
  </symbol>
  <symbol id="l" overflow="visible">
   <path d="m0.32812-2.125h0.67188v2.0938c0 0.28125-0.070312 0.49219-0.20312 0.64062-0.13672 0.15625-0.33594 0.23438-0.59375 0.23438h-0.32812v-0.45312h0.10938c0.13281 0 0.22266-0.03125 0.26562-0.09375 0.050781-0.054687 0.078125-0.16406 0.078125-0.32812zm0-0.82812h0.67188v0.54688h-0.67188z"/>
  </symbol>
  <symbol id="k" overflow="visible">
   <path d="m2.0469-2.0625v0.5625c-0.09375-0.0625-0.1875-0.10938-0.28125-0.14062s-0.1875-0.046875-0.28125-0.046875c-0.19922 0-0.35156 0.058594-0.45312 0.17188-0.10547 0.10547-0.15625 0.25781-0.15625 0.45312 0 0.19922 0.050781 0.35547 0.15625 0.46875 0.10156 0.10547 0.25391 0.15625 0.45312 0.15625 0.10156 0 0.20312-0.015625 0.29688-0.046875s0.17969-0.078125 0.26562-0.14062v0.5625c-0.10547 0.042969-0.21484 0.070312-0.32812 0.09375-0.10547 0.019531-0.21484 0.03125-0.32812 0.03125-0.38672 0-0.6875-0.097656-0.90625-0.29688-0.21094-0.19531-0.3125-0.47266-0.3125-0.82812 0-0.35156 0.10156-0.625 0.3125-0.8125 0.21875-0.19531 0.51953-0.29688 0.90625-0.29688 0.11328 0 0.22266 0.011719 0.32812 0.03125 0.11328 0.011719 0.22266 0.039063 0.32812 0.078125z"/>
  </symbol>
 </defs>
 <g>
  <path d="m482.81 492.47c-10.18-0.34375-18.395-1.7188-26.633-2.793-2.3008-0.30469-3.1641 0.19531-3.7188 2.2461-0.73828 2.7148-1.8906 5.2969-2.3555 8.1211-0.90234 5.4141-4.1445 9.2695-8.8828 11.836-3.8281 2.0781-7.5898 2.3867-11.199-0.75391-1.375-1.1992-3.2266-3.2109-3.3281 1.1367-0.10937 4.8281-7.6133 9.9258-12.832 9.0312-2.7461-0.47266-5.4609-0.94922-7.5898-3.25-1.7578-1.8984-3.2266-2.125-4.9531 0.92578-4.8438 8.5391-16.488 11.496-23.965 5.9258-5.0312-3.7578-7.543-9.5352-9.5977-15.516-1.875-5.4766-1.9219-11.316-3.9961-16.73-0.77734-2.0234-1.4141-2.8242-3.7188-2.2695-2.7227 0.65234-5.4922 1.3438-8.3594 1.1367-2.1172-0.15625-2.1016 0.86328-1.375 2.4883 3.6094 8.1133 2.6133 16.496 0.83984 24.75-0.73828 3.4453-6.5781 6.1055-9.9102 4.9766-3.7891-1.2773-7.8711-1.6875-11.316-3.9492-2.4727-1.625-2.6055 0.62109-2.4258 1.8828 0.60547 4.3164-2.4258 5.6641-5.4141 6.8359-7.7695 3.0586-10.727 2.125-15.906-4.6055-2.2539-2.9336-3.7031-2.8633-5.0859 0.65234-0.77734 1.9844-2.0938 2.8477-3.7969 3.7422-6.8125 3.5859-13.922 4.4336-21.48 3.1328-5-0.85547-7.6055-4.0195-9.6602-8.207-2.2773-4.6602-2.4648-9.8867-4.1758-14.699-0.62109-1.75-1.2617-2.1094-2.8555-1.4062-9.4883 4.1836-19.68 4.9453-29.781 6.2773-4.0195 0.52734-8.0273 0.98047-12.047 0.69922-9.6367-0.66016-18.387-3.7891-25.348-10.664-3.9062-3.8594-7.4414-8.1289-10.789-12.492-6.8203-8.8984-5.5938-22.414 2.5195-30.207 0.76172-0.73047 1.5938-1.6875 2.5352-1.8984 4.5977-1.0195 6.7734-3.9414 7.832-8.3828 0.71484-3.0273 3.3359-5.1484 4.9219-7.793 0.57422-0.95703 1.8125-1.9688 0.69922-3.2188-5.5469-6.2461-6.1602-14.086-7.2656-21.809-1.8203-12.816-0.77734-25.27 5.0938-36.938 8.75-17.367 24.844-19.25 40.039-9.6758 1.1523 0.72266 2.3398 1.9688 3.5781 1.3086 1.0664-0.56641 0.44141-2.2227 0.53516-3.3984 1.5469-19.219 6.3711-37.551 14.496-55.051 1.8047-3.875 2.9805-8.0352 4.5352-12.031 0.60547-1.5547 0.078125-2.5352-1.1367-3.4531-7.6914-5.8242-13.93-13.059-19.594-20.781-1.9609-2.6758-3.4531-2.1094-4.875 0.17969-1.3281 2.1484-2.5508 4.2695-1.7422 7.1562 0.62109 2.207-0.23438 4.4336-2.8867 4.9688-2.6289 0.53516-5.0469 0.42188-6.3242-2.7227-1.9922-4.8984-3.6641-9.8555-3.4844-15.215 0.078126-2.3945-0.39844-3.9141-3.2656-3.7031-2.4414 0.17969-4.2227-0.90234-4.6289-3.5-0.375-2.418 0.023438-4.5508 2.543-5.7773 1.082-0.51953 2.0312-1.3125 3.0781-1.9062 6.293-3.5234 7.4141-7.9805 6.0586-14.73-2.7695-13.859-2.5977-27.57 0.84766-41.199 2.2383-8.8828 5.4062-17.492 10.43-25.238 1.6406-2.5273 1.168-3.4766-1.4844-4.5977-5.0859-2.1406-9.8398-4.8516-13.773-8.9141-5.0234-5.1875-11.246-9.0156-15.789-14.879-10.344-13.34-16.879-27.945-15.312-45.043 1.5781-17.328 7.8789-32.883 18.875-46.691 9.2617-11.637 21.422-18.27 34.914-23.316 6.625-2.4805 13.441-3.3047 20.387-4.2148 12.266-1.6094 21.297 4.7695 26.109 15.797 3.0781 7.0703 6.6797 14.062 7.6758 21.957 0.35938 2.8477 0.56641 5.625 0.20312 8.4297-1.2852 9.9258-1.2539 19.824-0.078125 29.773 0.64453 5.4531 3.5234 10.102 4.7617 15.312 0.39844 1.6562 1.6562 1.4766 2.9023 1.1055 8.5859-2.5977 17.445-3.2656 26.328-3.4375 9.582-0.1875 19.102 0.83984 28.328 3.4922 2.793 0.80078 4.0508 0.24219 5.2344-2.2852 4.043-8.6172 8.5078-17.043 11.543-26.094 0.66016-1.9766 1.9062-3.5234 3.0781-5.1562 3.6875-5.1094 7.457-10.156 10.98-15.375 2.6914-3.9805 7.0469-6.2773 9.8555-10.02 5.6641-7.543 13.238-12.398 21.676-16.078 7.6445-3.3359 15.852-4.793 23.52-1.2852 7.6914 3.5156 12.902 9.8086 14.219 18.746 1.5312 10.484 3.043 20.992 5.125 31.375 1.5547 7.7539 3.957 15.328 6.4258 22.875 2.3008 7.0469 6.2227 13.781 4.9062 21.746-1.207 7.3047-3.6953 13.945-8.4453 19.691-1.1836 1.4297-2.0547 3.125-3.1172 4.6602-6.332 9.0547-16.293 13.387-25.223 18.945-3.3047 2.0625-5.2109 3.1641-3.9297 7.7461 3.75 13.363 3.043 27.152 2.6758 40.855-0.17188 6.3242 1.8281 9.2773 7.793 11.691 1.3594 0.54297 2.7852 1.1055 3.9219 1.9922 1.7422 1.3594 2.2227 3.2969 1.5547 5.4531-0.61328 2-2.1914 2.5352-4.0508 2.7383-6.2852 0.68359-6.2461 0.69141-4.9297 6.7109 0.56641 2.6211 0.87109 5.2969 1.4062 7.9258 0.27344 1.3086 0.62109 2.7227 1.8984 3.4453 2.918 1.6641 3.6953 4.2539 1.9219 6.7891-2.0234 2.9023-5.2812 2.3555-8.0273 0.96484-3.9414-1.9922-6.8594-5.5078-10.965-7.4297-2.5742-1.207-3.5859-0.76172-4.9766 1.5391-4.0273 6.6797-7.9414 13.473-13.371 19.18-1.2305 1.293-1.7422 2.5508-0.70703 4.3086 10.188 17.242 12.801 37.188 19.68 55.609 0.89453 2.3867 1.6016 4.8438 2.332 7.2969 0.47266 1.5859 0.94141 1.5859 2.0859 0.39844 12.141-12.656 26.973-17.094 43.992-13.586 10.258 2.1172 18.574 7.7695 24.32 16.605 2.1875 3.3594 2.9883 7.4727 3.625 11.457 2.2227 13.961 1.3203 27.609-4.5742 40.648-0.66797 1.4688-0.35156 2.1875 0.67578 3.0586 3.5312 2.9961 4.9297 6.9219 5.0625 11.434 0.10156 3.4531 1.2383 5.6641 5.0469 7.0703 6.9453 2.5742 9.8789 8.7734 10.996 15.68 1.2695 7.8398-1.5234 14.535-6.6719 20.371-2.7617 3.125-5.3438 6.4336-8.3203 9.3242-7.4922 7.25-16.863 9.9805-25.172 10.758zm-199.39-377.72c0.75391-13.27 1.9141-26.539 2.125-39.82 0.15625-9.6211 0.078125-19.57-7.0156-27.457-2.7461-3.0508-4.4492-7.5273-8.7812-8.5938-9.5352-2.3477-19.016-1.3086-28.133 2.1797-12.508 4.7852-20.625 14.762-27.883 25.238-5.8086 8.3906-9.7852 17.695-11.324 28.141-1.6172 11.004-2.207 21.598 4.9688 30.816 8.1445 10.445 17.148 20.043 30.574 23.871 1.5312 0.4375 3.0195 1.1914 4.3633 2.0547 1.9453 1.2383 4.0039 1.6953 6.7422 1.9844-3.1094-3.625-6.0195-6.4805-10.133-7.918-3.1562-1.1055-6.2148-2.4961-9.3086-3.7891-2.4648-1.0273-3.8281-2.6992-3.7422-5.5859 0.085938-2.707 1.7734-3.7812 3.9062-4.4805 2.4258-0.79297 4.8828-1.5234 7.375-2.0781 1.4688-0.32812 1.7109-0.80078 1.0508-2.1484-6.3164-12.801-3.75-25.676-0.23438-38.547 0.54297-2 1.9844-3.1094 3.9727-3.6016 3.6953-0.91016 6.1914 0.47266 7.5664 4.6523 1.9453 5.8867 4.5117 11.363 9.6133 16.863-0.47266-1.75-0.55078-2.4102-0.82422-2.9727-1.1602-2.418-2.1094-5.0625 0.24219-7.0469 2.418-2.0391 5.4844-1.6641 7.9258 0.078125 6.8594 4.875 14.348 9.2539 16.953 18.16zm154.61-60.738c-0.29688 0.03125-1.0195-0.046875-1.625 0.19531-8.3359 3.3203-16.957 6.2773-22.609 13.891-5.2578 7.0781-11.793 13.355-15.074 21.723-2.1172 5.3828-3.8438 10.973-7.3125 15.609-3.9492 5.2734-6.0977 11.332-8.5391 17.273-0.57422 1.3906-2.125 3.5938-0.94141 4.3086 1.375 0.83203 3.125-1.0664 4.293-2.3008 4.5977-4.8516 7.6758-10.617 9.7383-16.949 0.72266-2.2305 1.5391-4.332 4.3086-4.7383 3.7188-0.54297 5.4141 0.82422 6.2383 5.5625 0.29688 1.7031 0.59766 2.9883 2.1406 1.0586 5.9102-7.4141 14.383-10.461 22.766-13.664 2.6367-1.0117 5.5078-1.3672 7.4062 1.1289 1.8047 2.3789 0.62891 4.6523-1.043 6.9375-4.8281 6.5938-9.2148 13.504-12.125 21.203-0.66016 1.7656-2.9336 4.4492-1.293 5.3125 2.1172 1.1211 4.2227-1.5156 5.9648-3.1875 0.48047-0.46484 1.0508-0.91797 1.3516-1.4922 1.6172-3.0781 4.2383-4.457 7.3594-3.1406 3.3438 1.4062 2.4492 4.7695 2.0938 7.4805-0.55078 4.2539-1.293 8.5-2.2227 12.688-1.5703 7.0859-4.5586 13.457-10.043 18.457-0.82422 0.75391-3.1016 0.84766-2.0938 2.5352 0.80859 1.3359 2.2227 2.7227 4.3945 2.0078 7.6445-2.5352 15.547-4.8906 21.965-9.7148 5.6328-4.2305 9.1172-10.719 11.395-17.414 0.94141-2.7617 1.7891-5.8633 1.0273-9.0859-1.5938-6.6719-4.0039-13.074-6.0039-19.617-1.4062-4.6211-2.6758-9.3242-3.5078-14.078-1.8594-10.57-3.2812-21.227-5.125-31.797-0.95703-5.4219-7.2266-10.277-12.883-10.191zm-184.99 346.66c-0.39062-3.5 0.13281-6.8281 0.82422-10.117 0.77734-3.6797 3.9727-6.4336 7.3047-6.3711 4.0664 0.078125 5.4922 2.8867 6.2539 6.2383 0.44922 1.9609 0.61328 3.9805 0.98047 5.957 0.24219 1.293 0.35938 2.457 2.3555 2.5742 10.258 0.55859 15.238 10.398 9.6055 19.008-1.4609 2.2305-3.4375 4.1758-5.8164 5.5234-2.9805 1.6797-4.082 3.6875-2.832 7.2656 1.3008 3.7109 1.0352 7.6836-0.29688 11.488-0.91016 2.5977-2.6758 3.7422-5.4297 4.0117-4.5195 0.44141-6.9609-2.1719-9-5.5391-0.99609-1.6406-2.457-2.0625-4.1523-1.6562-2.293 0.54297-0.75391 2.1992-0.73047 3.3047 0.10938 5.5312 2.6523 10.664 2.6055 16.262-0.015625 2.3242 1.293 2.1094 2.9023 0.83203 4.8086-3.8125 8.875-2.8711 10.867 2.8789 0.99609 2.8789 2.0781 2.8086 4.4805 2 1.7656-0.58984 2.5977-1.5625 3.3516-3.0703 1.5234-3.0703 3.7969-5.5703 6.8047-7.2266 5.8086-3.1875 10.188-0.58984 10.25 5.9648 0.007812 1.082 0.0625 2.1641-0.039063 3.2344-0.33594 3.4766 1.0352 4.4805 4.4805 3.75 6.6328-1.4062 12.848-4.9844 19.996-3.7891 4.3711 0.73047 8.7969 1.1367 13.152 1.9453 2.3398 0.4375 3.0859-0.13281 2.3945-2.4023-1.5234-5.0469-1.7109-10.328-2.6133-15.484-1.2695-7.2578-1.1914-7.2734-8.6797-7.5195-7.4297-0.25-7.4727-0.25-7.6602 7.3984-0.070313 2.7773-0.68359 5.2266-3.6484 6.0352-2.8398 0.77734-5.6094 0.60547-7.6758-2.0312-1.4219-1.8125-2.4727-3.8125-3.5781-5.8164-0.69141-1.2617-1.3359-2.2539-3.2266-0.53516-3.5391 3.2344-7.6055 1.5156-8.5469-3.2031-0.1875-0.92578-0.48047-1.8359-0.57422-2.7617-0.52734-5.4141-1.4531-11.629 3.3516-15.027 4.7383-3.3516 3.5781-6.7422 1.5469-9.793-2.9023-4.3633-2.4727-7.9102-0.15625-12.227 1.7656-3.2969 4.4961-4.8203 7.1328-3.2188 5.5625 3.3906 12.461 5.6094 14.645 12.91 0.81641 2.7305 2.7305 3.4766 5.2969 3.1484 1.3281-0.17188 2.6367-0.54297 3.9727-0.67578 4.4883-0.44141 4.8203-1.0664 3.5469-5.375-0.73828-2.4883-2.6133-1.8984-4.2461-1.9531-3.3281-0.11719-7.0781 0.71484-9.293-2.5352-1.9531-2.8555-4.1914-5.6914-4.8438-9.2227-0.62109-3.375-3.2109-5.5391-4.793-8.3086-0.51953-0.91016-1.3281-1.3203-2.6133-0.28125-5.0156 4.0586-10.516 3.7266-14.949-0.98047-3.5-3.7031-6.9375-7.4961-7.9961-12.824-0.36719-1.8281-0.91016-3.4219-3.7188-1.6016-4.6055 2.9883-11.77 0.46484-14.008-4.6992-1.3008-2.9883-3.1406-5.6328-4.5508-8.5234-0.51172-1.0664-0.93359-2.793-2.1719-2.582-1.2461 0.21094-1.0273 1.9766-1.1758 3.1406-2.1797 17.508-2.5039 35.102-2.3945 52.711 0.007813 1.1445-0.83203 3.1328 1.1602 3.2578 2.0938 0.125 2.9492-1.4375 2.8633-3.5391-0.11719-3.3828-1.3281-6.6523-0.71484-9.9492zm87.234-223.57c0 1.4844-0.046875 2.9648 0.015625 4.4492 0.046875 1.043-0.125 2.5742 0.45703 3.0039 0.87891 0.64453 1.9375-0.51172 2.7461-1.1133 3.6406-2.7305 7.1094-5.6992 10.836-8.3125 10.883-7.6602 22.852-11.395 36.043-8.0664 10.375 2.6211 17.5 9.5586 21.777 19.32 6.3867 14.574 9.9805 29.719 9.8867 45.75-0.054687 8.7734-0.46484 17.438-2.293 26.031-0.48047 2.2773-0.42969 4.0117 2.9961 3.1562 2.0938-0.52734 4.4492-1.1211 6.7031 0.046876 2.2461 1.1602 2.5664 0.039062 1.9453-1.8672-0.33594-1.0195-0.73047-2.0234-1.168-3.0039-1.5234-3.4453-1.8359-6.7578 1.2383-9.5508 1.3086-1.1836 1.1992-1.9453-0.015626-3.1953-2.7383-2.8398-3.8047-6.1523-3.2891-10.281 1.1758-9.4492 2.0781-18.867 1.082-28.52-1.7109-16.574-8.5391-30.832-18.684-43.477-15.438-19.258-36.5-29.121-60.254-33.879-5.5312-1.1133-5.8555-0.71484-5.9961 5.0703-0.19531 8.1836-0.3125 16.395-1.7031 24.477-1.1406 6.6211-2.3008 13.215-2.3242 19.961zm-90.898 96.535c0.21094-0.070313 0.42188-0.14844 0.62891-0.21875-0.38281-1.4062-0.76172-2.8086-1.1367-4.2227-2.3945-9.1016-5.2969-18.105-7.0625-27.332-2.2148-11.598-3.3906-23.293-1.9688-35.258 1.0195-8.5469 2.2852-16.816 7.2656-23.957 3.0352-4.3555 5.8086-9.5273 11.324-11.051 12.707-3.5156 25.09-3.3906 36.836 4.0117 4.3477 2.7383 7.9648 6.3398 12.273 9.0469 0.73828 0.46484 1.2227 1.7891 2.2852 1.2148 0.93359-0.50391 0.52734-1.7109 0.52734-2.6055-0.015624-10.625 0.58984-21.297-0.89453-31.852-0.91797-6.5195-0.29688-13.176-2.1562-19.602-0.48828-1.6953-0.65234-2.7695-2.7852-1.8672-5.5625 2.3633-11.355 4.2305-16.723 6.9531-11.883 6.0273-21.551 14.887-30.574 24.594-10.941 11.777-18.488 25.504-23.008 40.738-2.8633 9.6602-3.9375 19.688-2.3633 29.938 1.3984 9.1719 4.0586 18.527-1.0195 27.625-0.66016 1.1914-0.085937 3.6797 0.80078 4.9375 0.67578 0.96484 2.3242-0.64453 3.5859-0.95703 4.8125-1.1836 7.4492-0.21094 10.148 3.9141 1.3242 2.0156 2.6797 3.9766 4.0156 5.9492zm134.52 123.36c-0.1875 2.832 0.32812 6.9766-0.62109 11.137-1.4453 6.3242-3.3359 7.8086-9.7539 7.375-2.293-0.15625-4.7539-2.9414-6.6875-0.62891-1.6328 1.9453-0.55859 4.9453-0.63672 7.4727-0.03125 1.1133-0.64453 2.7305 0.61328 3.25 1.0039 0.41406 1.7109-1.0586 2.4023-1.8047 3.0117-3.2344 7.0781-3.7656 10.367-1.9219 4.5664 2.5586 4.0195 0.46484 4.6602-2.9648 1.0273-5.5234 5.1172-10.617 10.68-8.7734 4.293 1.4219 7.543 4.0273 8.4297 8.8438 0.87109 4.7461 1.7969 9.4805 2.7773 14.211 1.7188 8.3281-2.1992 12.848-10.523 11.145-3.9883-0.81641-4.9766 0.81641-5.8789 3.7969-1.8438 6.082-5.832 7.1641-10.727 2.8477-1.1523-1.0117-1.8516-1.4922-3.375-0.4375-1.7344 1.1992-3.8203 1.9531-5.832 2.668-1.3281 0.47266-2.2617 1.1367-1.8984 2.5586 0.94141 3.7188 0.61328 7.4883 0.74609 11.246 0.039062 1.1523 0.22656 2.4336 1.8281 1.5 2.418-1.4141 4.9688-2.7539 7.0469-4.5977 3.9492-3.5078 8.4844-5.3672 13.57-6.5625 4.582-1.082 9.125-2.1484 13.137-5.2969 4.4102-3.4688 9.668-5.5781 15.082-1.2617 0.53516 0.42969 1.082 0.66797 1.8281 0.28906 6.6328-3.3828 12.594-1.4844 18.254 2.4492 0.93359 0.65234 1.1523 0.13281 1.168-0.63672 0.015625-0.94141 0.015625-1.8984-0.14844-2.8164-2.5977-14.824-5.2578-29.633-7.8242-44.465-0.45703-2.6602-0.81641-5.0391-4.3789-5-1.2461 0.015625-2.0469-1.1445-2.6211-2.2773-1.0977-2.1562-1.9766-1.8594-2.668 0.28125-0.28906 0.89453-0.60547 1.7891-1.0039 2.6367-2.418 5.1953-5.4531 5.9336-10.117 2.4648-2.2852-1.6953-4.3008-1.8906-6.168 0.69141-1.7656 2.4414-4.3242 2.6367-6.9062 1.7344-2.5117-0.87891-2.457-3.2344-2.6055-5.4141-0.23438-3.3984-0.03125-6.8516 1.1367-9.9727 1.6719-4.4648 3.3281-9.3711 8.9141-10.516 2.3164-0.47266 3.2344-1.6953 4.1289-3.7344 2.4102-5.4922 4.4336-11.441 11.285-13.246 0.88672-0.23438 1.6016-0.91797 1.2148-2.1641-0.88672-2.8164-1.6875-5.6641-2.5352-8.4844-0.26562-0.88672-0.85547-1.6953-1.5547-0.51953-2.1875 3.6641-5.6914 3.8047-9.2227 3.4609-3.1094-0.29688-3.9883 1.4219-4.3945 3.8984-0.60547 3.7109-1.0195 7.4648-1.8438 11.129-1.7031 7.582-4.582 11.883-12.98 9.4648-0.38281-0.10938-0.80078-0.10938-1.1992-0.14844-2.4805-0.26562-3.8828 0.39062-4.418 3.2812-0.78516 4.1836-0.58203 8.332-0.74609 13.812zm-94.484 107.45c9.1094 0.51953 19.723-0.375 30.199-1.8828 6.207-0.89453 12.477-1.6797 18.652-2.9336 1.8125-0.36719 3.125-1.0195 2.5273-3.1875-1.3516-4.8984-1.9531-10.059-4.207-14.629-1.1992-2.4258-1.6719-6.1133-4.3867-6.8594-6.6953-1.8516-13.57-3.7188-20.633-2.5898-2.8711 0.45703-5.5156 2.1914-8.3828 2.7852-7.5586 1.5547-14.746 4.0664-21.422 7.8867-6.6875 3.8281-11.129 9-10.32 17.484 0.27344 2.8633 0.82422 4.1367 3.9141 3.9805 4.1602-0.21484 8.3438-0.054687 14.059-0.054687zm153.48-26.031c-0.40625-1.6094 0.21094-3.5078-1.5078-4.793-7.5586-5.6406-15.859-9.5977-25.332-10.312-14.738-1.1055-28.039 3.6328-40.422 11.082-2.3242 1.3984-4.332 4.0898-3.7656 7.5273 0.66797 4.0977 1.207 8.2227 1.9531 12.305 0.28125 1.5625 0.69922 3.1328 3.0625 2.8242 9.1797-1.207 18.449-1.8828 27.543-3.5234 12.453-2.2461 24.266-6.8125 36.082-11.27 2.0586-0.77344 2.8125-1.7695 2.3867-3.8398zm-4.7227-106.68c0.57422-0.52734 1.1211-1.1055 1.7344-1.5781 5.1797-4.0195 8.082-4.0117 13.223 0.29688 1.4297 1.1992 1.8594-0.11719 2.5898-0.66016 2.5742-1.9375 5.1641-3.8906 8.2852-4.8125 5.0859-1.5078 8.875 2.1094 7.8633 7.3047-1.1836 6.0742-4.3242 11.23-7.5039 16.371-0.84766 1.3672-2.6211 2.582-2.668 3.9297-0.085937 2.1406 2.6133 1.4219 3.9219 2.3633 3.3047 2.3711 7.0859 4.4492 6.3711 9.332-0.67578 4.582-4.7383 5.125-8.2383 5.7773-7.8164 1.4609-14.707-2-21.809-4.1836 0.57422 3.7656 1.2305 7.8555 1.8281 11.945 0.4375 2.9727 1.2773 4.5195 3.8047 1.3008 1.8906-2.4023 4.7305-3.7891 7.4375-3.4141 7.2344 0.98047 13.332-1.2773 19.777-4.2227 4.0664-1.8594 3.7188-2.6836 1.6406-5.6172-2.2148-3.1328-1.293-7.1719 1.9141-9.4102 1.3594-0.94922 1.1914-1.6328 0.68359-2.9258-1.9141-4.875-1.207-6.7891 3.5391-8.9219 4.293-1.9219 8.4062-4.1445 12.367-6.6641 0.99609-0.62891 2.0156-1.2227 1.75-2.832-0.44922-2.6836-1.3281-5.2109-2.4883-7.6211-0.42188-0.87891-1.5-1.9219-2.3555-1.9922-1.1836-0.10156-1.3672 1.4297-1.7734 2.3789-0.99609 2.3477-1.8672 4.7539-2.918 7.0781-1.1289 2.5117-3.1562 3.6484-5.8945 3.1719-2.8867-0.49609-3.375-2.7539-3.4375-5.1719-0.0625-2.2852-0.070312-4.582-0.039062-6.8672 0.03125-2.1641-0.91016-3.4297-3.1328-3.1328-4.5508 0.58984-6.8359-2.0625-7.918-5.8086-0.93359-3.2344-2.8477-3.5078-5.4922-2.7852-5.2812 1.4531-10.219 3.2578-14.73 6.8203-3.7188 2.9062-6.7461 5.9609-8.332 10.551zm-193.7-269.86c-1.7734 11.898-0.66797 17.453 4.1367 24.32 1.6016 2.2852 4.2305 3.2891 5.9336 5.3984 2.543 3.1328 1.9141 6.75-1.3984 7.918-1.0508 0.375-2.8555-0.48828-3.0586 0.95703-0.16406 1.2148 1.7656 1.3906 2.5742 2.2617 0.73047 0.78516 1.4297 1.5859 2.1562 2.3789 1.6094 1.7656 3.0859 2.0703 5.1016 0.26562 4.6211-4.1211 9.4883-7.9648 14.668-11.371 0.77734-0.51172 1.5391-0.98047 1.6328-2.1094 0.50391-6.2305-1.0508-11.984-3.9375-17.438-0.24219-0.44922-0.47266-1.1602-1.0898-0.87891-0.30469 0.13281-0.44922 0.87891-0.45703 1.3594-0.054687 2.2852-0.015625 4.582-0.054687 6.8672-0.039063 2.1406-0.49609 4.0664-2.9258 4.7227-2.3398 0.62109-4.2617-0.10156-5.6992-2.0156-5.5586-7.3711-12.699-13.477-17.582-22.637zm-24.727 289.83c0.13281 2.9336-1.4844 6.207-3.8125 7.0469-2.7852 0.99609-5.5625 1.0273-7.832-1.3828-0.55078-0.58203-1.1445-1.1523-1.7891-1.6328-2.8633-2.1328-4.1445-1.7188-4.8281 1.7188-0.39844 1.9688-0.30469 4.0352-0.75391 5.9805-0.50391 2.1797 0.32031 2.5195 2.2539 2.4102 3.9961-0.21875 7.4883 0.79297 9.4961 4.6992 0.375 0.73047 0.85547 1.625 1.7734 1.3203 3.25-1.0742 6.5273 0.62109 9.9336-0.56641 4.6992-1.6406 7.3125 0.62891 7.7305 5.7148 0.078125 0.92578-0.015625 2.0625 0.47266 2.7227 3.2969 4.4648 2.0547 9.2383 1.0273 13.945-0.90234 4.1055 0.41406 6.1445 4.7773 6.7266 3.4062 0.45703 4.7305-0.69141 4.0273-3.9805-0.57422-2.6836-0.51953-5.3438-0.59766-8.0273-0.039062-1.3281 0.14062-2.7383-1.1445-3.6875-1.8359-1.3672-2.2617-3.375-2.0312-5.4219 0.35938-3.1328-1.168-4.6523-3.8906-5.6719-1.6797-0.62891-4.082-0.75391-4.4492-3.0039-0.44922-2.793-2.3164-3.8906-4.457-5.1719-4.457-2.668-4.8828-11.262-0.44922-12.469 5.2578-1.4297 2.6836-2.6836 0.69141-4.5508-0.47266-0.44141-0.69922-1.1445-1.1133-1.6719-1.9375-2.5117-3.5703-2.2148-5.0703 0.63672-0.79688 1.5625 0.027343 2.8867 0.035156 4.3164zm110.61-168.7c-2.2227 0.42969-5.5312 0.99609-8.8047 1.7031-3.5938 0.76953-4.6289 2.6367-2.7617 5.7305 2.2617 3.75 3.8516 8.0039 7.3359 10.922 1.5781 1.3203 1.9375 3.0352 1.3008 4.7227-1.8906 4.9766-3.0703 10.359-7.1328 14.219-1.3008 1.2383-2.5586 2.4336-0.89453 3.9492 1.8047 1.6406 2.9492 0.28906 4.1445-1.3086 2.6836-3.5781 4.6445-7.4961 6.293-11.621 1.0273-2.5664 2.5352-2.7773 3.9961-0.51953 1.6641 2.5742 4.3242 4.3398 5.4453 7.4062 0.49609 1.3516 2.1016 2.3945 3.3906 3.3125 0.74609 0.52734 1.8359 0.29688 2.5586-0.51172 0.64453-0.70703 0.73047-1.6484 0.015625-2.1406-3.0625-2.1406-4.0664-5.8242-6.625-8.4219-4.0039-4.0508-6.6484-8.8047-3.3203-14.754 0.83984-1.5 1.3359-3.2109 1.8828-4.8672 1.6484-4.9883-0.42188-7.7891-6.8242-7.8203zm67.266-95.875c-0.1875-0.125-0.38281-0.25781-0.56641-0.38281-1.2773 1.5-2.4883 3.0586-3.8359 4.4961-1.1836 1.2539-1.168 1.875 0.42969 2.9492 8.3828 5.6719 16.18 12.078 22.836 19.746 1.3984 1.6094 2.6445 1.9531 4.5117 0.98047 5.5859-2.8945 7.1562-8.3594 8.8047-13.727 0.55078-1.7891-0.89453-1.6328-1.9531-1.3008-2.293 0.73828-4.543 1.5859-6.8047 2.4102-5.3672 1.9688-8.6953-0.62109-7.7461-6.1445 1.4531-8.4922 3.3281-16.855 8.6094-23.98 0.28906-0.39062 0.62891-1.207 0.45703-1.3984-0.69922-0.80859-1.1445 0.125-1.5703 0.48047-5.5859 4.7148-10.617 9.8164-12.723 17.148-0.51172 1.7812-1.4141 3.5234-2.4648 5.0547-1.4531 2.125-3.6719 2.6992-6.082 1.7969-2.3008-0.86328-2.5898-2.9102-2.4648-5.0156 0.054687-1.0391 0.35937-2.0703 0.5625-3.1133zm115.25 324c-0.22656-0.48047-0.41406-0.83984-0.55859-1.2227-1.4609-3.6875-4.3633-5.8398-8.0039-6.7656-3.5391-0.90234-5.3984-2.4336-5.8945-6.4258-1.2148-9.6992-5.5781-14.172-14.605-16.125-5.3828-1.168-9.8242 1.0039-12.023 5.8711-1.3984 3.1016-4.7617 3.625-7.6914 1.2383-1.1133-0.91016-1.8125-2.1875-3.4688-2.5977-3.8828-0.95703-7.0391 0.87891-9.5664 5.9492-0.41406 0.82422-1.2617 1.7656-0.67578 2.5664 0.58984 0.81641 1.7812 0.35938 2.668 0.125 3.3906-0.90234 6.7969-2.0156 10.297-0.82422 1.8672 0.63672 3.0625 0.34375 4.6211-0.96484 5.3438-4.5117 16.277-4.2695 20.797 0.14062 3.0117 2.9336 4.6289 6.4961 5.4922 10.562 0.26562 1.2539-0.007812 3.4922 2.0781 3.4062 5.8008-0.23438 10.891 1.2383 15.145 5.3125 0.35547 0.35547 1.1875 0.78125 1.3906-0.24609zm-161.28-23.262c0.79297 0.125 1.375 0.39844 1.8438 0.25781 1.7188-0.51172 3.8438-0.61328 3.7969-3.2656-0.046874-2.6289-2-2.0234-3.4844-2.0938-1.4922-0.070313-3.0117-0.015625-4.1367-1.1836-1.2148-1.2617-1.7188-1.1133-2.3164 0.60547-0.92578 2.6523-2.8164 5.0938-5.6328 5.1719-4.6523 0.125-3.9648 2.793-3.5312 5.6875 0.21875 1.4531 0.50391 2.918 0.49609 4.3789-0.015625 2.5977 0.42188 4.0117 3.6953 3.3125 3.6406-0.76953 6.7344 0.71484 8.1211 4.3555 0.93359 2.4648 1.6719 4.6602 4.7695 5.1797 1.3984 0.24219 1.8906 1.8906 1.9531 3.2578 0.125 2.8086 0.35938 5.6172-0.62109 8.3828-1.8281 5.1797-3.5078 10.414-5.2656 15.625-0.52734 1.5625-1.1211 3.8984 0.50391 4.2539 2.957 0.65234 6.2617 0.11719 8.9531-1.3203 2.6211-1.4062 0.32812-3.4844-0.10938-5.2734-0.125-0.51172-0.085938-1.0742-0.13281-1.6094-0.53516-6.6719-0.95703-13.371-1.6875-20.02-0.28125-2.5273 0.36719-5.8008-2.3555-7.2578-3.8984-2.0938-5.7852-5.9258-8.5469-8.9531-1.8359-2.0078-2.1562-5.0078-0.99609-7.6289 0.90625-2.0352 3.043-1.9023 4.6836-1.8633zm37.234-218.29c0.046876-6.9297-4.5273-12.406-10.391-12.43-5.3672-0.015624-9.2539 3.6875-9.3711 8.9219-0.14062 6.7109 4.5352 11.645 11.059 11.668 5.7227 0.03125 8.6641-2.7383 8.7031-8.1602zm-201.59 264.12c3.1797-2.9258 5.8008-5.5781 9.6445-5.793 3.7969-0.21094 5.3516-2.0781 6.0195-5.793 0.98828-5.4844 7.2812-10.133 12.785-10.25 4.457-0.09375 8.9062-0.070312 13.059 1.8047 1.4297 0.64453 2.3633 0.22656 3.1328-0.80859 1.043-1.3906-0.66016-1.7266-1.207-2.293-1.2305-1.293-2.0391-2.8086-2.9727-4.2773-3.3984-5.3984-5.5859-6.0117-11.723-4.582-4.875 1.1367-7.4219 4.9297-10.43 8.1992-2.1875 2.3711-4.043 5.2969-4.0273 8.5703 0.023437 4.1445-2.1562 5.5312-5.6406 6.4648-4.1211 1.1094-7.4023 3.4141-8.6406 8.7578zm94.32-250.7c4.8086-0.078125 10.906-5.3672 10.988-9.5195 0.078125-3.875-6.1211-9.707-10.367-9.7695-4.2773-0.054688-9.8867 6.2852-9.8164 11.09 0.066406 4.1172 4.7305 8.2773 9.1953 8.1992zm-48.191 169.59c2.4336 2.6758 4.2539 4.3945 6.8672 3.7734 0.91797-0.21875 0.98047-2.2695 0.40625-2.8633-1.8828-1.9453-4.2852-0.125-7.2734-0.91016z"/>
  <path d="m431.74 433.09c0.16406 1.9531-0.49609 3.7578-1.0039 5.5469-1.1133 3.9297-4.0977 5.4141-7.7539 3.5781-3.3516-1.6797-6.7188-3.2188-10.281-4.4492-3.2891-1.1367-3.5781-4.2617-2.1797-6.6875 2.582-4.4648 2.9336-8.8906 2.0859-13.844-0.56641-3.3125 2.1562-5.8867 3.7344-8.5469 0.90234-1.5234 3.2422-0.98828 4.9062-0.54297 1.6484 0.4375 2.2227 1.9844 2.2227 3.4922-0.007812 3.0273-0.085938 5.8086 3.7422 6.8828 1.3594 0.38281 1.8516 2.1992 2.4023 3.5781 1.4297 3.5352 1.5078 7.3125 2.125 10.992z"/>
  <use x="70" y="571.667969" xlink:href="#s"/>
  <use x="72.855469" y="571.667969" xlink:href="#e"/>
  <use x="74.773438" y="571.667969" xlink:href="#a"/>
  <use x="77.410156" y="571.667969" xlink:href="#d"/>
  <use x="80.035156" y="571.667969" xlink:href="#c"/>
  <use x="81.894531" y="571.667969" xlink:href="#a"/>
  <use x="84.53125" y="571.667969" xlink:href="#j"/>
  <use x="88.667969" y="571.667969" xlink:href="#h"/>
  <use x="91.453125" y="571.667969" xlink:href="#i"/>
  <use x="95.339844" y="571.667969" xlink:href="#b"/>
  <use x="98.109375" y="571.667969" xlink:href="#d"/>
  <use x="100.734375" y="571.667969" xlink:href="#g"/>
  <use x="103.5" y="571.667969" xlink:href="#g"/>
  <use x="106.269531" y="571.667969" xlink:href="#d"/>
  <use x="108.894531" y="571.667969" xlink:href="#b"/>
  <use x="113.015625" y="571.667969" xlink:href="#h"/>
  <use x="115.800781" y="571.667969" xlink:href="#r"/>
  <use x="70" y="575.554687" xlink:href="#q"/>
  <use x="71.691406" y="575.554687" xlink:href="#e"/>
  <use x="73.609375" y="575.554687" xlink:href="#f"/>
  <use x="76.28125" y="575.554687" xlink:href="#p"/>
  <use x="81.6875" y="575.554687" xlink:href="#c"/>
  <use x="83.546875" y="575.554687" xlink:href="#b"/>
  <use x="86.316406" y="575.554687" xlink:href="#a"/>
  <use x="90.304688" y="575.554687" xlink:href="#o"/>
  <use x="93.5625" y="575.554687" xlink:href="#f"/>
  <use x="96.234375" y="575.554687" xlink:href="#n"/>
  <use x="99" y="575.554687" xlink:href="#g"/>
  <use x="103.125" y="575.554687" xlink:href="#m"/>
  <use x="105.972656" y="575.554687" xlink:href="#e"/>
  <use x="107.890625" y="575.554687" xlink:href="#f"/>
  <use x="110.5625" y="575.554687" xlink:href="#l"/>
  <use x="111.898438" y="575.554687" xlink:href="#a"/>
  <use x="114.535156" y="575.554687" xlink:href="#k"/>
  <use x="116.839844" y="575.554687" xlink:href="#c"/>
 </g>
</svg>
