<!-- Generated by IcoMoon.io -->
<svg version="1.1" xmlns="http://www.w3.org/2000/svg" width="32" height="32" viewBox="0 0 32 32">
<title>African-golden-wolf</title>
<path d="M25.375 5.563c0.063 0.188 0 0.313-0.125 0.563-0.375 0.625-0.563 0.938-0.688 1.375-0.188 0.438-0.75 1-1.75 1.688-1.063 0.688-1.5 0.938-1.625 1.063-0.125 0.188-1.938 1.125-2.125 1.125-0.063 0-0.125 0-0.125 0.063 0 0-0.25 0-0.563 0-0.5 0-0.563 0-0.563-0.188 0-0.25-0.25-0.313-0.438-0.063-0.125 0.063-0.313 0.063-1.438 0-0.75-0.063-1.5-0.188-1.75-0.25-0.188 0-0.75-0.125-1.25-0.125-0.5-0.063-1.188-0.125-1.563-0.188-0.563-0.063-0.875 0-1.375 0.063-0.313 0.063-1 0.125-1.438 0.188-0.75 0.063-0.875 0.063-1.438 0.375-0.688 0.375-1.313 0.75-1.375 0.875-0.063 0.063-0.188 0.25-0.375 0.438s-0.313 0.375-0.313 0.438c0 0-0.063 0.063-0.188 0.063-0.063 0-0.063 0 0 0.063 0.063 0 0 0.125-0.188 0.5-0.313 0.563-0.375 0.938-0.563 2.125-0.063 0.438-0.188 1.188-0.25 1.563s-0.125 1.313-0.188 2.063c-0.063 0.75-0.125 1.313-0.188 1.375 0 0.063-0.063 0.125-0.063 0.25s0 0.125 0.063 0.063c0.063-0.125 0.125 0.063 0.125 0.5 0 0.313 0 0.625 0.063 0.625 0.063 0.063 0.063 0.188 0.063 0.375s0.063 0.313 0.063 0.313c0.063-0.063 0.125 0.063 0.188 0.25 0.063 0.25 0.188 0.313 0.313 0.375 0.25 0.063 0.375-0.125 0.563-0.75 0.125-0.375 0.188-0.625 0.313-0.688 0.25-0.25 0.5-0.625 0.563-1.125 0-0.5 0.125-1.313 0.25-1.75v-0.188l0.125 0.188c0.125 0.313 0.25 1.063 0.25 1.813 0 0.625 0 0.688-0.375 1.375s-0.375 0.813-0.375 1.125c0.063 0.25 0.063 0.375 0 0.313s-0.063 0 0 0.125c0.063 0.125 0.125 0.25 0.25 0.25 0.063 0 0.125 0 0.125 0.063 0 0 0.125 0.188 0.25 0.313 0.188 0.125 0.25 0.313 0.25 0.375 0 0 0.063 0 0.125 0 0.188-0.063 0.625 0.188 0.813 0.563 0.25 0.375 1 0.75 1.563 0.75 0.313 0 0.438 0.063 0.5 0.125 0.063 0.188 0.188 0 0.188-0.313 0-0.25-0.063-0.375-0.375-0.688-0.188-0.188-0.5-0.563-0.688-0.813-0.25-0.375-0.25-0.5-0.313-1.063 0-0.688 0.063-0.875 0.938-2.313 0.5-0.875 0.813-1.5 0.938-2.188 0.188-0.625 0.438-1.313 0.625-1.5 0.188-0.125 0.188-0.438 0.063-0.5-0.313-0.125-0.75 0.563-1.063 1.625-0.188 0.75-0.375 1.25-1.063 2.313-0.25 0.438-0.438 0.813-0.438 0.813 0 0.063 0 0.063-0.063 0.063s-0.063 0.063-0.063 0.125c0 0.063-0.063 0.25-0.188 0.438-0.25 0.5-0.25 0.875-0.125 1.5s0.563 1.25 1.063 1.688c0.25 0.313 0.25 0.375-0.063 0.375-0.563 0-1.313-0.563-1.313-1-0.063-0.313-0.25-1.125-0.438-1.438-0.25-0.438-0.188-0.688 0.188-1.313 0.25-0.563 0.313-0.688 0.375-1.25 0-0.375 0-0.75-0.063-0.813-0.063-0.125-0.063 0.063-0.125 0.563 0 0.375-0.063 0.75-0.188 0.875-0.063 0.125-0.25 0.5-0.375 0.813l-0.313 0.625 0.25 0.625c0.313 0.75 0.438 1.188 0.313 1.125-0.375-0.25-0.75-0.563-0.938-1-0.313-0.5-0.313-0.563 0.25-1.563 0.313-0.563 0.313-0.625 0.313-1.313 0-0.813-0.125-1.438-0.375-1.875-0.125-0.25-0.313-1.875-0.25-2.063 0.063-0.063-0.125-1.25-0.188-1.25-0.125 0-0.125 0.125-0.188 1.25 0 0.938-0.063 1.313-0.188 1.75-0.188 0.625-0.313 1.313-0.375 2-0.063 0.438-0.125 0.563-0.375 0.875-0.188 0.188-0.375 0.5-0.438 0.688l-0.063 0.313-0.188-0.375c-0.188-0.375-0.188-0.438-0.125-2.188 0-1.188 0.063-2.063 0.188-2.625 0.063-0.438 0.188-1.063 0.25-1.438 0.188-1.688 0.5-2.313 1.438-3.25 0.625-0.688 0.875-0.875 0.875-0.625 0 0.125 0.063 0.25 0.125 0.313 0.125 0.125 0.125 0.125 0 0.125-0.063 0-0.125 0-0.125 0.063 0 0.125 0 0.125 0.188 0 0.313-0.125 0.688-0.063 1.313 0.188 0.75 0.313 1.813 0.625 2.5 0.688 0.75 0.125 1.438 0.25 2.438 0.5 0.563 0.188 0.75 0.188 1.313 0.125 0.375 0 0.813-0.063 0.938-0.125 0.25-0.125 0.563-0.063 0.313 0.063-0.063 0.063 0 0.063 0.25 0.063 0.125-0.063 0.375-0.063 0.5 0 0.063 0.063 0.563 0 1.125-0.063 1.438-0.125 2-0.5 2.438-1.438 0.125-0.25 0.25-0.5 0.25-0.5 0.063 0 0.625-0.5 0.875-0.875 0.125-0.125 0.25-0.313 0.25-0.5 0.063-0.25 0.625-0.688 1.438-1.125 0.188-0.125 0.5-0.375 0.688-0.5 0.25-0.188 0.313-0.25 0.438-0.188 0.125 0.125 0.25 0.063 0.125-0.125-0.063-0.063-0.063-0.125 0.188-0.313 0.125-0.125 0.313-0.188 0.375-0.125 0.063 0 0.188-0.063 0.313-0.125l0.125-0.125-0.125-0.063c-0.25-0.125-0.188-0.438 0.25-1.188 0.188-0.313 0.375-0.625 0.375-0.688 0.063-0.063 0.188 0.063 0.313 0.188 0.25 0.25 0.25 0.313 0.188 0.563-0.188 0.563-0.125 0.875 0.25 1.625 0.5 1 0.75 1.375 1.25 1.688 0.625 0.438 0.688 0.5 0.5 0.688-0.25 0.188-0.438 0.188-0.438 0 0-0.063-0.125-0.188-0.25-0.25s-0.375-0.125-0.5-0.188c-0.25-0.125-0.813-0.188-0.813-0.063 0 0.063-0.125 0.125-0.188 0.125-0.125 0-0.188 0.063-0.25 0.188 0 0.063-0.188 0.375-0.375 0.563-0.188 0.25-0.5 0.625-0.625 0.813-0.063 0.25-0.25 0.438-0.375 0.5-0.313 0.188-1.25 1.375-1.625 2.063-0.188 0.25-0.563 0.813-0.813 1.125-0.313 0.438-0.438 0.75-0.5 1 0 0.125-0.063 0.375-0.188 0.438-0.063 0.063-0.125 0.25-0.063 0.313 0 0.063-0.125 0.25-0.313 0.438-0.625 0.625-0.625 0.438-0.5 3.688 0.063 2.5 0.125 3.063 0.5 3.5l0.25 0.25h-0.188c-0.438 0-1.063-1.188-1.313-2.375-0.125-0.625-0.125-0.813-0.063-1.375 0.188-1.125 0.125-2.375-0.063-3.25-0.063-0.375-0.188-1.063-0.188-1.438-0.063-0.688-0.063-0.813 0.188-1.25 0.188-0.563 0.438-1.688 0.375-1.875-0.063-0.063-0.125-0.125-0.188-0.125-0.125 0-0.125 0.125-0.25 0.688-0.063 0.375-0.188 0.875-0.25 1.063-0.25 0.625-0.313 1-0.188 1.938 0.063 0.438 0.188 1.063 0.25 1.375 0.125 0.563 0.125 2.25-0.063 3-0.063 0.375-0.063 0.5 0.125 1.375 0.188 1 0.5 1.688 1.063 2.313 0.188 0.25 0.25 0.313 0.625 0.25 0.563 0 0.75-0.063 0.75-0.25 0-0.25-0.125-0.375-0.5-0.563-0.125-0.063-0.188-0.125-0.188-0.188 0 0-0.063-0.313-0.125-0.688-0.063-0.438-0.063-1 0-1.688 0-0.625 0-1.313-0.063-1.625s-0.063-0.875-0.063-1.25v-0.75l0.313-0.313c0.5-0.438 0.75-0.938 0.75-1.438 0-0.188 0.063-0.375 0.125-0.438 0.125-0.063 0.125-0.125 0.125-0.125-0.063 0 0-0.063 0.063-0.125 0.063 0 0.125-0.063 0.125-0.125s0.125-0.313 0.313-0.438c0.125-0.188 0.313-0.5 0.438-0.75 0.125-0.188 0.313-0.438 0.375-0.563 0.063-0.063 0.188-0.188 0.188-0.188 0-0.063 0.063-0.063 0.063-0.063 0.063 0 0.063 0 0.063 0-0.063-0.125 0.563-0.813 0.938-1.188 0.188-0.188 0.438-0.5 0.625-0.813 0.125-0.25 0.25-0.438 0.313-0.438 0 0 0.063-0.063 0.063-0.188 0.063-0.125 0.188-0.313 0.313-0.438 0.188-0.188 0.25-0.188 0.375-0.125 0.375 0.25 0.875 0.5 1.25 0.563 0.375 0 0.438 0 0.688-0.188 0.125-0.125 0.25-0.188 0.313-0.125 0.125 0.063 0.188-0.313 0.125-0.563 0-0.063 0-0.188 0.125-0.25 0.188-0.063 0.25-0.188 0.063-0.188-0.063 0-0.125-0.063-0.188-0.125 0-0.063 0 0 0 0.125s-0.063 0.188-0.063 0.188c-0.063 0-0.688-0.438-1.063-0.75-0.125-0.063-0.25-0.25-0.375-0.375-0.063-0.125-0.125-0.313-0.188-0.438-0.125-0.125-0.25-0.438-0.375-0.75-0.25-0.563-0.25-0.563-0.125-0.938 0.063-0.188 0.188-0.563 0.188-0.75 0.063-0.375 0.063-0.438-0.063-0.5s-0.25-0.063-0.313 0-0.188 0.063-0.188-0.188c0-0.188-0.063-0.25-0.25-0.25-0.125 0-0.25 0.063-0.313 0.125s-0.125 0.063-0.125-0.063c0-0.063 0-0.125-0.063-0.125s-0.063 0.063-0.063 0.188zM19.563 12.188c-0.125 0.375-0.313 0.563-0.75 0.875-0.313 0.188-0.375 0.25-1.25 0.25-0.875 0.063-1.063 0.063-1.625-0.125l-0.688-0.25h0.813c0.438 0 0.875 0 1 0 1.125 0.125 1.313 0.125 1.625-0.125 0.188-0.063 0.438-0.375 0.625-0.563 0.188-0.25 0.313-0.438 0.313-0.438 0.063 0 0 0.188-0.063 0.375zM11.375 14.625c-0.063 0.563-0.375 1.375-0.688 1.813-0.313 0.5-0.313 0.688 0.063 0.313 0.125-0.25 0.25-0.25 0.375-0.25 0.25 0.063 0.5 0.313 0.438 0.438 0 0.063 0.063 0.063 0.188 0.063 0.125-0.063 0.563 0.063 0.875 0.188 0.688 0.188 0.688 0.188 2.125 0.125 2.25-0.063 2.375-0.188 0.25-0.188-1.563-0.063-1.938-0.063-2.375-0.25-0.25-0.063-0.563-0.125-0.688-0.125-0.063 0-0.188-0.125-0.25-0.188s-0.188-0.188-0.313-0.25l-0.25-0.063 0.125-0.25c0.188-0.25 0.5-1.375 0.375-1.5-0.063-0.188-0.188-0.125-0.25 0.125z"></path>
</svg>
