<svg xmlns="http://www.w3.org/2000/svg" xmlns:xlink="http://www.w3.org/1999/xlink" version="1.1" x="0px" y="0px" viewBox="0 0 2500 3125" enable-background="new 0 0 2500 2500" xml:space="preserve"><g><path d="M1908.7990723,130.3296204c-152.4116211,104.8500519-330.3690186,160.1837463-515.7939453,160.1837463h-145.6572266   v-95.9584351c0-204.1735382-308.9874878-204.1670532-308.9874878,0v95.9584351H595.8254395v-47.6691589   c0-20.2320404-16.399353-36.6337433-36.633728-36.6337433H433.9787292   c-79.3206482,0-143.8542175,64.5335846-143.8542175,143.8542023v252.9087219   c0,79.3206177,64.5335693,143.854187,143.8542175,143.854187h125.2129822c20.234375,0,36.633728-16.4016724,36.633728-36.633728   v-48.47052h342.5349731v80.5894775H826.4414673c-68.2637329,0-123.8010254,55.5372925-123.8010254,123.8010254v100.6712036   c0,62.4835205,47.3450928,123.8010254,130.9703979,123.8010254v70.0429688   c-185.2866211,26.1516113-325.7874756,184.9718018-325.7874756,375.8154297c0,90.7530518,0,725.8775635,0,824.6287842   C507.8233643,2437.6772461,570.1674805,2500,646.7978516,2500c38.5628662,0,853.5610352,0,892.1077881,0   c76.6303711,0,138.9744873-62.3227539,138.9744873-138.9267578c0-32.4938965,0-791.1031494,0-824.6287842   c0-193.5209961-142.7872314-349.8399658-325.7827148-375.7987061v-70.0596924   c82.9365234,0,130.970459-60.7587891,130.970459-123.8010254V866.1138306   c0-68.2637329-55.5373535-123.8010254-123.8010254-123.8010254h-111.9189453v-80.5894775h145.6572266   c180.6181641,0,361.114502,53.8322754,515.7963867,160.1834717   c24.7252197,185.7722778,301.0739746,167.4111328,301.0739746-20.0427246V150.3559418   C2209.8754883-37.0859795,1933.5097656-55.488369,1908.7990723,130.3296204z M522.5579834,673.5601196h-88.5792542   c-38.9233704,0-70.586731-31.6657715-70.586731-70.586731V350.0646667c0-38.9209595,31.6633606-70.586731,70.586731-70.586731   h88.5792542C522.5579834,324.4334106,522.5579834,627.0101318,522.5579834,673.5601196z M595.8254395,588.4558716V363.7808533   h342.5349731v224.6750183H595.8254395z M1430.3638916,1260.0061035   c107.71875,51.3741455,174.2487793,159.0330811,174.2487793,276.4383545v29.9699707L581.0908203,2185.3220215v-411.7504883   L1430.3638916,1260.0061035z M581.0908203,2361.0732422v-90.1291504l1023.5218506-618.9078369v411.7977295   l-600.1564941,362.8984375H646.7978516C610.5647583,2426.7324219,581.0908203,2397.2775879,581.0908203,2361.0732422z    M1604.6126709,2361.0732422c0,36.2043457-29.473877,65.6591797-65.7070313,65.6591797h-392.8491211l458.5561523-277.2785645   V2361.0732422z M1313.6463623,1230.5002441c7.019043,0.3485107,13.9868164,0.9951172,20.9212646,1.8120117   l-753.4768066,455.6359863V1536.444458c0-163.5185547,127.8031006-297.9067383,290.9567871-305.9442139   c19.5093994-0.9611816,34.8306885-17.0576172,34.8306885-36.5883789v-103.3258057h371.9516602v103.3258057   C1278.8299561,1213.4378662,1294.1464844,1229.5319824,1313.6463623,1230.5002441z M1409.800415,866.1138306v100.6712036   c0,27.8640747-22.6671143,50.5335693-50.5335693,50.5335693c-54.7979736,0-478.4744873,0-532.8253784,0   c-27.8664551,0-50.5335693-22.6694946-50.5335693-50.5335693V866.1138306   c0-27.8640747,22.6671143-50.5335693,50.5335693-50.5335693c61.5136108,0,472.4354858,0,532.8253784,0   C1387.1333008,815.5802612,1409.800415,838.2497559,1409.800415,866.1138306z M1011.6278687,742.3128052   c0-58.5681763,0-487.2246094,0-547.7578735c0-107.3443604,162.4525757-107.3423309,162.4525757,0   c0,60.5305328,0,489.2053223,0,547.7578735H1011.6278687z M1907.4182129,733.6432495   c-152.7259521-93.7236328-330.5831299-145.1873779-514.4130859-145.1873779h-145.6572266V363.7808533h145.6572266   c183.1925049,0,359.6450195-49.9826355,514.4130859-145.1492615V733.6432495z M2136.6079102,801.8640747   c0,103.0184937-155.907959,103.0152588-155.907959,0V150.3559418c0-103.0171967,155.907959-103.0152512,155.907959,0V801.8640747z"/></g><text x="0" y="2515" fill="#000000" font-size="5px" font-weight="bold" font-family="'Helvetica Neue', Helvetica, Arial-Unicode, Arial, Sans-serif">Created by Ferifrey</text><text x="0" y="2520" fill="#000000" font-size="5px" font-weight="bold" font-family="'Helvetica Neue', Helvetica, Arial-Unicode, Arial, Sans-serif">from the Noun Project</text></svg>