<?xml version="1.0" encoding="UTF-8"?>
<svg width="700pt" height="700pt" version="1.1" viewBox="0 0 700 700" xmlns="http://www.w3.org/2000/svg">
 <g>
  <path d="m595 93.332c-6.4414 0-11.668 5.2266-11.668 11.668v11.668h-175v-0.023438c0-34.465-25.199-62.906-58.332-68.738v-36.238c0-6.4414-5.2266-11.668-11.668-11.668-6.4414 0-11.668 5.2266-11.668 11.668v36.098c-33.832 5.25-59.781 33.949-59.781 68.879l0.003907 0.023438h-173.55v-11.668c0-6.4414-5.2266-11.668-11.668-11.668-6.4375 0-11.664 5.2266-11.664 11.668v35l73.219 12.203c-1.8672 3.3594-3.2188 7.0234-3.2188 11.129 0 12.902 10.453 23.332 23.332 23.332 12.879 0 23.332-10.43 23.332-23.332 0-1.4453-0.55859-2.6602-0.81641-4.0352l70.82 11.805v3.8984c0 6.4414 5.2266 11.668 11.668 11.668 6.4414 0 11.668-5.2266 11.668-11.668l46.668 7.7695-0.003906 3.8984v11.664c0 6.4414 5.2266 11.668 11.668 11.668 6.4414 0 11.668-5.2266 11.668-11.668v-15.566l46.668-7.7695c0 6.4414 5.2266 11.668 11.668 11.668s11.668-5.2266 11.668-11.668v-3.8984l70.816-11.809c-0.26562 1.3828-0.82422 2.5977-0.82422 4.043 0 12.902 10.43 23.332 23.332 23.332 12.902 0 23.332-10.43 23.332-23.332 0-4.1055-1.3516-7.7695-3.2188-11.129l73.223-12.203v-35c0-6.4414-5.2266-11.668-11.668-11.668zm-233.33 23.336h-46.668c-6.4414 0-11.668-5.2266-11.668-11.668s5.2266-11.668 11.668-11.668h46.668c6.4414 0 11.668 5.2266 11.668 11.668-0.003907 6.4414-5.2305 11.668-11.668 11.668z"/>
  <path d="m350 256.67v46.668h-23.332v-46.668h-93.332l-163.33 303.33h256.67v-70h23.332v70h256.67l-163.33-303.33zm0 186.66h-23.332v-93.332h23.332z"/>
 </g>
</svg>
