<svg xmlns="http://www.w3.org/2000/svg" xmlns:xlink="http://www.w3.org/1999/xlink" version="1.1" x="0px" y="0px" viewBox="0 0 64 80" style="enable-background:new 0 0 64 64;" xml:space="preserve"><g><path d="M13.477,19.695C13.174,18.852,13,17.947,13,17v-6c0-1.103,0.897-2,2-2h2.867l-0.656-5.25C13.571,5.247,11,8.827,11,13v3   C11,17.666,12.025,19.095,13.477,19.695z"/><path d="M24.236,17c-1.144,0-2.172-0.635-2.684-1.658c-0.211-0.422-0.895-0.422-1.105,0C19.936,16.365,18.907,17,17.764,17H15   c0,3.309,2.691,6,6,6s6-2.691,6-6H24.236z"/><path d="M3,60c0,0.551,0.448,1,1,1h2.586l2-2H3V60z"/><path d="M33.652,29.934c-0.413-0.81-1.159-1.415-2.064-1.596l-2.727-0.545l-1.116,5.583l-5.579-2.232L21,32.601l-1.166-1.457   l-5.579,2.232l-1.116-5.583l-2.727,0.545C9.015,28.617,8,29.854,8,31.279V37h18.586L33.652,29.934z"/><path d="M27,11H15v4h2.764c0.381,0,0.724-0.212,0.895-0.553C19.105,13.555,20.002,13,21,13s1.895,0.555,2.342,1.447   C23.513,14.788,23.855,15,24.236,15H27V11z"/><path d="M22.117,9l0.728-5.822C22.246,3.066,21.631,3,21,3c-0.631,0-1.246,0.066-1.845,0.178L19.883,9H22.117z"/><polygon points="18.414,41 22.586,41 20.586,39 16.414,39  "/><path d="M4,49h2.586l2-2H3v1C3,48.551,3.448,49,4,49z"/><path d="M6.586,39H4c-0.552,0-1,0.449-1,1v1h5.586L6.586,39z"/><polygon points="11.414,41 15.586,41 13.586,39 9.414,39  "/><path d="M6.586,51H4c-0.552,0-1,0.449-1,1v1h5.586L6.586,51z"/><polygon points="36.586,37 38.586,35 35,31.414 29.414,37  "/><rect x="37.879" y="28.464" transform="matrix(0.7071 -0.7071 0.7071 0.7071 -10.4975 36.6569)" width="2.243" height="5.071"/><rect x="44.879" y="20.879" transform="matrix(0.7071 -0.7071 0.7071 0.7071 -2.0833 38.9706)" width="2.243" height="2.243"/><polygon points="32.414,41 36.586,41 34.586,39 30.414,39  "/><path d="M45,48c0,0.352-0.072,0.686-0.184,1H57v-4H45V48z"/><polygon points="15.1,27.4 15.745,30.625 18.529,29.511 16.599,27.1  "/><polygon points="23.414,39 25.414,41 29.586,41 27.586,39  "/><polygon points="26.9,27.4 25.401,27.1 23.471,29.511 26.255,30.625  "/><path d="M24,25.649v-1.238C23.073,24.788,22.061,25,21,25s-2.073-0.212-3-0.589v1.238l3,3.75L24,25.649z"/><path d="M29,11v6c0,0.947-0.174,1.852-0.477,2.695C29.975,19.095,31,17.666,31,16v-3c0-4.173-2.571-7.753-6.211-9.25L24.133,9H27   C28.103,9,29,9.897,29,11z"/><polygon points="36.586,47 32.414,47 30.414,49 34.586,49  "/><polygon points="25.414,53 29.586,53 27.586,51 23.414,51  "/><path d="M42,51h-4.586l2,2H43v-1C43,51.449,42.552,51,42,51z"/><rect x="3" y="43" width="40" height="2"/><polygon points="32.414,53 36.586,53 34.586,51 30.414,51  "/><polygon points="29.586,47 25.414,47 23.414,49 27.586,49  "/><polygon points="9.414,61 13.586,61 15.586,59 11.414,59  "/><path d="M45,55h14v-4H44.816C44.928,51.314,45,51.648,45,52V55z"/><path d="M45,57v3c0,0.351-0.061,0.687-0.171,1H61v-4H45z"/><rect x="39.464" y="24.879" transform="matrix(0.7071 -0.7071 0.7071 0.7071 -6.0833 37.3137)" width="5.071" height="2.243"/><path d="M42,39h-4.586l2,2H43v-1C43,39.449,42.552,39,42,39z"/><path d="M37.414,49H42c0.552,0,1-0.449,1-1v-1h-3.586L37.414,49z"/><polygon points="30.414,61 34.586,61 36.586,59 32.414,59  "/><polygon points="23.414,61 27.586,61 29.586,59 25.414,59  "/><polygon points="16.414,61 20.586,61 22.586,59 18.414,59  "/><path d="M37.414,61H42c0.552,0,1-0.449,1-1v-1h-3.586L37.414,61z"/><polygon points="22.586,47 18.414,47 16.414,49 20.586,49  "/><polygon points="15.586,47 11.414,47 9.414,49 13.586,49  "/><polygon points="18.414,53 22.586,53 20.586,51 16.414,51  "/><polygon points="11.414,53 15.586,53 13.586,51 9.414,51  "/><rect x="3" y="55" width="40" height="2"/></g><text x="0" y="79" fill="#000000" font-size="5px" font-weight="bold" font-family="'Helvetica Neue', Helvetica, Arial-Unicode, Arial, Sans-serif">Created by Eucalyp</text><text x="0" y="84" fill="#000000" font-size="5px" font-weight="bold" font-family="'Helvetica Neue', Helvetica, Arial-Unicode, Arial, Sans-serif">from the Noun Project</text></svg>