<!-- Generated by IcoMoon.io -->
<svg version="1.1" xmlns="http://www.w3.org/2000/svg" width="32" height="32" viewBox="0 0 32 32">
<title>Ammunition</title>
<path d="M1.375-0.5h-0.313c0 0.188-0.125 0.25-0.313 0.25-0.25 0-0.375-0.188-0.375-0.5s0.125-0.5 0.375-0.5c0.188 0 0.313 0.125 0.313 0.313h0.313c-0.063-0.375-0.313-0.563-0.625-0.563-0.375 0-0.688 0.313-0.688 0.75 0 0.5 0.25 0.75 0.688 0.75 0.375 0 0.625-0.188 0.625-0.5zM0.75-0.813v-0.313c0 0-0.063 0-0.063 0-0.125 0-0.25 0.125-0.25 0.25v-0.188h-0.313v1.063h0.313v-0.563c0-0.188 0.063-0.25 0.188-0.25 0.063 0 0.063 0 0.125 0zM1.063-0.5c0-0.375-0.188-0.625-0.5-0.625s-0.5 0.25-0.5 0.625c0 0.313 0.188 0.5 0.5 0.5 0.188 0 0.438-0.063 0.5-0.313h-0.313c0 0.063-0.125 0.125-0.188 0.125-0.125 0-0.25-0.063-0.25-0.25h0.75zM0.75-0.625h-0.438c0.063-0.188 0.125-0.25 0.25-0.25s0.188 0.063 0.188 0.25zM1.063 0v-0.063c-0.063 0-0.063-0.063-0.063-0.125v-0.563c0-0.25-0.188-0.375-0.438-0.375-0.313 0-0.438 0.125-0.5 0.375h0.313c0-0.063 0.063-0.125 0.188-0.125s0.125 0.063 0.125 0.125-0.063 0.063-0.188 0.125h-0.125c-0.188 0.063-0.313 0.125-0.313 0.313 0 0.25 0.125 0.313 0.313 0.313 0.125 0 0.25-0.063 0.313-0.125 0 0.063 0 0.063 0.063 0.125zM0.688-0.438c0 0.125-0.063 0.25-0.188 0.25s-0.188-0.063-0.188-0.125c0-0.125 0.063-0.125 0.188-0.125l0.063-0.063c0.125 0 0.125 0 0.125 0zM0.625 0v-0.188c-0.063 0-0.063 0-0.063 0-0.125 0-0.125 0-0.125-0.125v-0.563h0.188v-0.188h-0.188v-0.313h-0.25v0.313h-0.188v0.188h0.188v0.625c0 0.188 0.063 0.25 0.25 0.25 0.063 0 0.125 0 0.188 0zM1.063 0v-1.438h-0.25v0.5c-0.063-0.125-0.188-0.188-0.313-0.188-0.25 0-0.438 0.25-0.438 0.563s0.188 0.563 0.438 0.563c0.125 0 0.25-0.063 0.313-0.125v0.125zM0.813-0.563c0 0.25-0.125 0.375-0.25 0.375s-0.25-0.125-0.25-0.375c0-0.188 0.125-0.313 0.25-0.313s0.25 0.125 0.25 0.313zM1.125-0.5c0-0.313-0.125-0.625-0.438-0.625-0.125 0-0.25 0.063-0.313 0.188v-0.5h-0.25v1.438h0.25v-0.125c0.063 0.063 0.188 0.125 0.313 0.125 0.25 0 0.438-0.188 0.438-0.5zM0.875-0.563c0 0.25-0.125 0.375-0.25 0.375s-0.25-0.125-0.25-0.375c0-0.188 0.125-0.313 0.25-0.313s0.25 0.125 0.25 0.313zM1.063-1.063h-0.25l-0.25 0.75-0.25-0.75h-0.313l0.438 1.125c0 0.063-0.063 0.188-0.188 0.188 0 0-0.063 0-0.063 0v0.188c0 0 0.063 0 0.063 0 0.188 0 0.313-0.063 0.375-0.25zM1.25-1c0-0.313-0.125-0.438-0.438-0.438h-0.688v1.438h0.313v-0.5h0.375c0.313 0 0.438-0.188 0.438-0.5zM0.938-1c0 0.188-0.063 0.25-0.188 0.25h-0.313v-0.438h0.313c0.125 0 0.188 0.063 0.188 0.188zM1.125-0.563c0-0.313-0.188-0.563-0.5-0.563-0.375 0-0.563 0.25-0.563 0.563 0 0.375 0.188 0.563 0.563 0.563 0.313 0 0.5-0.188 0.5-0.563zM0.875-0.563c0 0.25-0.125 0.375-0.25 0.375-0.188 0-0.25-0.125-0.25-0.375 0-0.188 0.063-0.313 0.25-0.313 0.125 0 0.25 0.125 0.25 0.313zM1.063 0v-0.75c0-0.188-0.125-0.375-0.313-0.375s-0.25 0.063-0.313 0.188v-0.125h-0.313v1.063h0.313v-0.625c0-0.125 0.063-0.25 0.188-0.25s0.188 0.063 0.188 0.188v0.688zM1.125 0l-0.438-0.688 0.375-0.375h-0.313l-0.375 0.375v-0.75h-0.25v1.438h0.25v-0.375l0.125-0.125 0.25 0.5zM1.563 0v-1.438h-0.438l-0.25 1.125-0.313-1.125h-0.438v1.438h0.313v-1.125l0.25 1.125h0.313l0.25-1.125v1.125zM1.063 0v-1.063h-0.25v0.625c0 0.125-0.125 0.188-0.25 0.188s-0.188-0.063-0.188-0.188v-0.625h-0.25v0.688c0 0.25 0.125 0.375 0.375 0.375 0.125 0 0.25-0.063 0.313-0.125v0.125zM0.438 0v-1.438h-0.313v1.438zM0.438 0v-1.063h-0.313v1.063zM0.438-1.188v-0.313h-0.313v0.313zM1.625 0v-0.75c0-0.25-0.125-0.375-0.313-0.375-0.125 0-0.25 0.063-0.313 0.188-0.063-0.125-0.188-0.188-0.313-0.188s-0.188 0.063-0.313 0.188v-0.125h-0.25v1.063h0.25v-0.625c0-0.125 0.125-0.25 0.188-0.25 0.125 0 0.188 0.063 0.188 0.125v0.75h0.25v-0.625c0-0.125 0.125-0.25 0.188-0.25 0.125 0 0.188 0.063 0.188 0.125v0.75zM14.375 8.813h-5.75v1c-0.625 1.813-0.875 3.625-0.875 5.5v9.875c0 0.188 0.188 0.438 0.438 0.438h6.625c0.25 0 0.438-0.25 0.438-0.438v-9.875c0-1.875-0.25-3.688-0.875-5.5zM10.625 23.125c0 0.25-0.25 0.438-0.438 0.438-0.25 0-0.438-0.188-0.438-0.438v-7.563c0-0.25 0.188-0.438 0.438-0.438 0.188 0 0.438 0.188 0.438 0.438zM11.875 0.188c-0.125-0.25-0.563-0.25-0.688 0-1.563 2.313-2.438 5-2.563 7.75h5.75c-0.125-2.75-0.938-5.438-2.5-7.75zM23.375 14.813h-4.313c-0.5 0-0.875 0.375-0.875 0.875v9.5c0 0.188 0.188 0.438 0.438 0.438h5.188c0.25 0 0.438-0.25 0.438-0.438v-9.5c0-0.5-0.375-0.875-0.875-0.875zM20.938 23.125c0 0.25-0.188 0.438-0.438 0.438s-0.438-0.188-0.438-0.438v-5.875c0-0.188 0.188-0.438 0.438-0.438s0.438 0.25 0.438 0.438zM23.375 13.938c0.188 0 0.375 0 0.438 0v-0.563c0-1.438-1.125-2.625-2.563-2.625s-2.625 1.188-2.625 2.625v0.563c0.188 0 0.313 0 0.438 0z"></path>
</svg>
