<!-- Generated by IcoMoon.io -->
<svg version="1.1" xmlns="http://www.w3.org/2000/svg" width="32" height="32" viewBox="0 0 32 32">
<title>Anodonthyla-rouxae</title>
<path d="M21.875 11.875c0-0.875-0.75-1.625-1.625-1.625s-1.563 0.75-1.563 1.625c0 0.875 0.688 1.563 1.563 1.563s1.625-0.688 1.625-1.563zM20.25 12.375c-0.25 0-0.5-0.188-0.5-0.5s0.25-0.563 0.5-0.563c0.313 0 0.563 0.25 0.563 0.563s-0.25 0.5-0.563 0.5zM31.125 25.188l0.75-0.688c0.125-0.125 0.188-0.375 0.063-0.563-0.063-0.188-0.25-0.313-0.5-0.313-1.313-0.125-2.688 0.125-4 0.563l-3.563-2.563c0.438-0.875 0.625-1.875 0.625-2.875 2.875-0.313 5.188-3.25 5.375-7 0-0.438-0.125-0.813-0.438-1.125-1.313-1.375-3.375-1.438-6.813-1.438-0.563-0.688-1.438-1.063-2.375-1.063-2 0-3.688 1.625-3.688 3.688-0.375 1.188-1.313 1.438-3.125 1.938-2.375 0.563-5.625 1.375-9.063 5.813-0.625 0.688-1.438 1.375-2.25 1.875-0.938 0.625-1.75 1.125-1.938 2 0 0.625 0.188 1.25 0.563 1.688-0.438 0.438-0.75 1.063-0.75 1.688 0 2.25 3.563 3.188 12.25 3.188 0.25 0 0.438-0.125 0.5-0.313s0.063-0.438-0.125-0.625l-0.688-0.688 0.625-0.563 1.563-0.5 1.438 2.438c0.063 0.125 0.25 0.25 0.438 0.25h5.313c0.25 0 0.438-0.125 0.5-0.313 0.125-0.188 0.063-0.438-0.125-0.625l-0.688-0.688 0.688-0.688c0.188-0.125 0.25-0.375 0.125-0.563-0.063-0.188-0.25-0.313-0.5-0.313-1.188-0.063-2.375 0.063-3.5 0.375l-0.688-1.063c1.813-0.313 3.563-1.063 5-2.188l-0.063 0.125 3.75 2.625c0.125 0.063 0.188 0.125 0.313 0.125h5.313c0.25 0 0.438-0.125 0.5-0.313 0.125-0.25 0.063-0.438-0.063-0.625zM7.875 28.813c0.938-0.563 2-0.875 3.063-0.938l-0.125 0.125c-0.188 0.25-0.188 0.563 0 0.75l0.188 0.188c-1.125 0-2.188-0.063-3.125-0.125zM19.875 28.75l0.188 0.188h-3.25c0.938-0.688 2.063-1.063 3.188-1.063l-0.125 0.125c-0.188 0.25-0.188 0.563 0 0.75zM16.563 25.188l-0.938-1.5c0.875-0.688 1.563-1.625 2.063-2.563 0.375-0.813 1-1.438 1.75-1.875 0.25-0.125 0.375-0.438 0.25-0.688s-0.438-0.375-0.75-0.25c-0.938 0.5-1.688 1.313-2.125 2.25-0.563 1-1.313 1.938-2.188 2.625-0.25 0.188-0.313 0.438-0.125 0.688l2.313 3.75c-0.313 0.188-0.625 0.438-0.875 0.625l-3-5.063c0.875-0.75 1.563-1.625 2.125-2.625 0.313-0.75 0.938-1.438 1.688-1.813 0.313-0.125 0.375-0.438 0.25-0.75-0.125-0.25-0.438-0.313-0.688-0.188-1 0.438-1.75 1.25-2.188 2.25-0.563 1-1.313 1.875-2.188 2.563-0.188 0.188-0.25 0.5-0.125 0.688l1.75 3.063-1.375 0.438c-1.25-0.063-2.5 0.125-3.688 0.5l-1.438-0.438c2.188-0.5 3.375-1.313 3.688-2.313 0.375-1.5-1.063-2.938-2.438-4.063-0.125-0.125-0.313-0.125-0.5-0.063s-0.313 0.188-0.313 0.375c-0.063 0.188 0 0.438 0.188 0.5 1.5 1.313 2.188 2.313 2 2.938-0.125 0.5-0.938 1.375-4.938 2-0.25 0.063-0.438 0.25-0.5 0.5 0 0.25 0.188 0.5 0.375 0.563l2.563 0.75c-0.25 0.125-0.438 0.313-0.625 0.5-0.063 0.063-0.125 0.125-0.125 0.188-3.563-0.313-5.375-1-5.375-1.938 0-1.25 2.625-2.688 6.375-2.688 0.313 0 0.563-0.25 0.563-0.5 0-0.313-0.25-0.563-0.563-0.563-2.375 0-4.5 0.563-5.875 1.438-0.188-0.25-0.313-0.563-0.313-0.875 0.063-0.438 0.688-0.813 1.438-1.313 0.938-0.563 1.813-1.313 2.563-2.125 3.188-4.063 6.25-4.875 8.5-5.438 1.75-0.438 3.313-0.813 3.813-2.75 0-0.063 0.063-0.063 0.063-0.125 0-1.5 1.188-2.688 2.625-2.688 0.688 0 1.375 0.313 1.75 0.875 0.125 0.125 0.25 0.188 0.375 0.188 3.313 0 5.313 0 6.25 1.063 0.063 0.063 0.125 0.188 0.125 0.25v0.063c-0.875 0.875-2.125 1.375-3.375 1.375-1.625 0.063-3.125 0.625-4.375 1.625-0.188 0.188-0.25 0.5-0.125 0.75 0.188 0.25 0.5 0.313 0.75 0.125 1.125-0.875 2.438-1.375 3.813-1.438 1.125 0 2.25-0.375 3.188-1-0.563 2.688-2.438 4.688-4.625 4.688-0.125 0-0.25 0.063-0.375 0.125-0.125 0.125-0.188 0.25-0.188 0.375 0 3.938-2 5.938-6.875 6.938zM25.75 25.375l-2.875-2.125c0.188-0.188 0.375-0.438 0.5-0.688l3.063 2.188c-0.25 0.188-0.438 0.375-0.688 0.625zM26.938 25.75c0.938-0.688 2.063-1.063 3.188-1.063l-0.125 0.125c-0.188 0.25-0.188 0.563 0 0.75l0.188 0.188z"></path>
</svg>
