<!-- Generated by IcoMoon.io -->
<svg version="1.1" xmlns="http://www.w3.org/2000/svg" width="26" height="32" viewBox="0 0 26 32">
<title>Antelope</title>
<path d="M14.618 23.782l-1.587-3.686-0.179-1.613-1.664-0.23 0.461 1.766c0 0 1.536 2.918 1.741 3.277 0.282 0.461-0.23 0.768-0.41 1.050-0.051 0.077 0 0.179 0.077 0.205l0.512 0.128c0.102 0.026 0.23 0.026 0.333-0.026l0.41-0.205 0.256-0.154c0.077-0.051 0.128-0.128 0.102-0.23l-0.051-0.282zM20.045 17.818l-1.101 0.282c1.434 0.922 1.357 1.818 1.357 1.818-0.435 1.382-1.51 2.611-1.843 2.918-0.077 0.051-0.128 0.154-0.154 0.23l-0.256 0.973c-0.026 0.077 0.026 0.154 0.102 0.154h0.538c0.026 0 0.077-0.026 0.102-0.051l0.41-0.538 0.307-0.051c0.051 0 0.102-0.051 0.102-0.102l0.077-0.307c0 0 1.894-3.2 2.048-3.302 0.179-0.102-0.051-0.512-0.051-0.512-0.512-0.486-1.638-1.51-1.638-1.51zM2.944 7.040c0.333-0.461 0.87-0.614 0.87-0.614s-0.333-0.486-0.256-1.229c0.077-0.742 0.358-1.024 0.461-2.534 0.026-0.742 0.154-1.613 1.101-2.15 0 0-1.766 0.538-1.766 1.843 0.026 1.485-0.512 2.048-0.563 2.586-0.026 0.435 0.077 1.536 0.102 1.946 0.026 0.102 0.051 0.154 0.051 0.154zM2.637 7.168l-0.077-0.819c-0.461-0.333-1.357-0.538-1.357-0.538 0.282 0.358 1.434 1.357 1.434 1.357zM23.373 15.949c0.154 0.154 0.256 1.357 1.024 1.331 0 0-0.256-0.128-0.256-0.87s0.333-1.024-0.256-2.483c0 0-0.051 0.742-0.666 1.562 0.026 0-0.026 0.282 0.154 0.461zM24.166 18.56c-0.333-0.179-1.101-1.434-1.28-2.458s0.768-1.126 0.768-2.842-1.434-2.995-2.458-3.046c-0.896-0.051-1.229 0.179-2.253 0.205-1.869 0.051-4.326 0.051-5.197-0.154-1.357-0.333-1.946 0.026-3.174 0.179-3.302 0.384-3.661-2.048-3.917-2.406 0 0-0.102-0.23-0.333-0.486 0.64-1.357-0.256-2.458-0.256-2.458-0.154 0.205-0.384 0.922-0.256 1.357 0.051 0.205 0.026 0.461 0 0.666-0.154-0.102-0.333-0.179-0.538-0.23 0-1.613 0.563-2.714 2.56-3.866 1.357-0.768 2.099-1.715 2.432-2.278 0.026-0.051-0.026-0.102-0.077-0.051-0.717 0.666-2.355 1.382-4.096 2.458-1.792 1.126-1.894 3.098-1.869 3.661-0.742 0.077-1.229 0.435-1.357 1.024-0.102 0.512-0.87 1.51-1.024 1.664-0.538 0.41-0.486 0.794-0.538 1.075s0.41 0.87 0.87 0.922c0.461 0.051 1.971-0.179 1.971-0.179s0.41 0 0.845-0.307c0 0-0.333 0.435-0.742 0.614 0.256 0.768 0.998 2.79 2.458 4.378 0.922 0.973 0.512 4.506 0.512 4.506 0.077 2.662-0.512 3.507-0.768 3.661-0.179 0.102-0.41 0.435-0.563 0.666-0.051 0.077 0 0.205 0.102 0.205h1.306c0.051 0 0.102-0.026 0.128-0.077l1.024-3.43c0 0 0.691-2.816 0.947-3.917s1.715-1.971 1.715-1.971c-0.512 0.589-1.024 1.894-1.024 1.894s3.226 0.435 4.762 0.435 4.71-0.691 4.71-0.691c-1.459-1.203-1.715-2.739-1.715-2.739 1.28 2.483 2.816 2.995 4.275 4.429s1.101 4.787 1.101 4.787l-0.538 0.87c-0.077 0.128-0.026 0.307 0.128 0.333 0.64 0.179 0.717 0.102 0.998 0.051 0.102-0.026 0.179-0.128 0.179-0.23-0.026-0.794 0.333-4.070 0.333-4.429 0.026-0.435 0.205-1.638-0.154-1.792zM2.15 10.752c-0.154 0.128-0.23 0.282-0.23 0.282s-0.486-0.154-0.486-0.435c0-0.077 0.077-0.154 0.179-0.154s0.23 0 0.358-0.051c0.077-0.026 0.154 0 0.205 0.077 0.026 0.102 0.051 0.205-0.026 0.282zM4.224 9.139c-0.179 0-0.307-0.128-0.307-0.307s0.128-0.307 0.307-0.307c0.179 0 0.307 0.128 0.307 0.307 0 0.154-0.154 0.307-0.307 0.307z"></path>
</svg>
