<!-- Generated by IcoMoon.io -->
<svg version="1.1" xmlns="http://www.w3.org/2000/svg" width="32" height="32" viewBox="0 0 32 32">
<title>Antler</title>
<path d="M22.438 8.125c-0.313-0.188-0.813-0.125-1.25 0.563-0.25 0.375-1.813 2.25-2.813 3.438-0.188 0.25-0.875 0.875-1.438 0.875-0.313-0.063-0.563-0.25-0.813-0.625-1.063-1.938-2.313-6.563-2.625-8.875-0.375-2.313-1.188-2.625-1.375-2.688s-0.375 0-0.438 0.125c-0.125 0.125-0.938 1.438-0.25 4.938 0.375 2.188-2.125 3.125-2.25 3.125-0.188 0.063-0.313 0.25-0.25 0.5 0 0.188 0.188 0.313 0.438 0.313 2.438-0.188 4.375 4.438 4.875 6.188 1.813 8.688 0.063 10.938-0.313 11.313-0.688 0.063-1.188 0.625-1.188 1.313 0 0.75 0.625 1.313 1.313 1.375 0 0.688 0.625 1.25 1.313 1.25h1.938c0.75 0 1.313-0.563 1.313-1.25 0.75-0.063 1.313-0.625 1.313-1.375 0-0.625-0.5-1.188-1.063-1.313-1.625-3.813-0.5-11.188 0.75-12.813 0.313-0.375 0.688-0.813 1-1.125 0.938-1.125 1.813-2.188 2.188-3.25 0.375-0.875 0.25-1.75-0.375-2zM17.375 30.438h-1.938c-0.25 0-0.5-0.25-0.5-0.5h3c-0.063 0.313-0.25 0.5-0.563 0.5zM18.625 28.063c0.375 0 0.625 0.25 0.625 0.563s-0.25 0.563-0.625 0.563h-4.438c-0.313 0-0.563-0.25-0.563-0.563s0.25-0.563 0.563-0.563zM22.125 9.813c-0.313 0.938-1.188 1.875-2.063 3-0.313 0.375-0.625 0.75-0.938 1.188-0.813 1-1.438 3.438-1.625 6.188-0.25 2.813 0 5.313 0.563 7.063h-3c0.688-1.188 1.563-4.25 0-11.5-0.063-0.25-1.625-5.5-4.438-6.625 1-0.625 1.938-1.813 1.625-3.438-0.438-2.063-0.25-3.25-0.063-3.813 0.125 0.25 0.375 0.813 0.5 1.75 0.313 2.063 1.563 6.938 2.813 9.125 0.375 0.625 0.813 1 1.375 1 1.125 0.125 2.063-1 2.188-1.125 0.25-0.25 2.5-2.938 2.875-3.563 0.125-0.188 0.188-0.25 0.188-0.25 0.063 0.063 0.25 0.375 0 1z"></path>
</svg>
