<svg xmlns="http://www.w3.org/2000/svg" xmlns:xlink="http://www.w3.org/1999/xlink" version="1.1" x="0px" y="0px" viewBox="0 0 72 90" style="enable-background:new 0 0 72 72;" xml:space="preserve"><g><g><g><path d="M10,21c-0.26,0-0.51-0.1-0.71-0.29l-6-6c-0.39-0.39-0.39-1.02,0-1.41s1.02-0.39,1.41,0l6,6c0.39,0.39,0.39,1.02,0,1.41     C10.51,20.9,10.26,21,10,21z"/></g><g><path d="M4,21c-0.26,0-0.51-0.1-0.71-0.29c-0.39-0.39-0.39-1.02,0-1.41l6-6c0.39-0.39,1.02-0.39,1.41,0s0.39,1.02,0,1.41l-6,6     C4.51,20.9,4.26,21,4,21z"/></g></g><g><g><path d="M68,61c-0.26,0-0.51-0.1-0.71-0.29l-6-6c-0.39-0.39-0.39-1.02,0-1.41s1.02-0.39,1.41,0l6,6c0.39,0.39,0.39,1.02,0,1.41     C68.51,60.9,68.26,61,68,61z"/></g><g><path d="M62,61c-0.26,0-0.51-0.1-0.71-0.29c-0.39-0.39-0.39-1.02,0-1.41l6-6c0.39-0.39,1.02-0.39,1.41,0s0.39,1.02,0,1.41l-6,6     C62.51,60.9,62.26,61,62,61z"/></g></g><g><path d="M58,58h-8.15C41.66,58,35,51.34,35,43.15v-12.3C35,23.77,29.23,18,22.15,18H14c-0.55,0-1-0.45-1-1s0.45-1,1-1h8.15    C30.34,16,37,22.66,37,30.85v12.3C37,50.23,42.77,56,49.85,56H58c0.55,0,1,0.45,1,1S58.55,58,58,58z"/></g><g><path d="M56,61c-0.26,0-0.51-0.1-0.71-0.29c-0.39-0.39-0.39-1.02,0-1.41L57.59,57l-2.29-2.29c-0.39-0.39-0.39-1.02,0-1.41    s1.02-0.39,1.41,0l3,3c0.39,0.39,0.39,1.02,0,1.41l-3,3C56.51,60.9,56.26,61,56,61z"/></g><g><g><path d="M56.83,17.45l-4-6c-0.37-0.56-1.29-0.56-1.66,0l-4,6c-0.2,0.31-0.22,0.7-0.05,1.03S47.63,19,48,19h8     c0.37,0,0.71-0.2,0.88-0.53S57.04,17.75,56.83,17.45z"/></g><g><path d="M17,42h-6c-0.55,0-1,0.45-1,1v6c0,0.55,0.45,1,1,1h6c0.55,0,1-0.45,1-1v-6C18,42.45,17.55,42,17,42z"/></g><g><path d="M52.71,35.29c-0.39-0.39-1.02-0.39-1.41,0l-3,3c-0.39,0.39-0.39,1.02,0,1.41l3,3C51.49,42.9,51.74,43,52,43     s0.51-0.1,0.71-0.29l3-3c0.39-0.39,0.39-1.02,0-1.41L52.71,35.29z"/></g><g><path d="M23.71,26.29c-0.39-0.39-1.02-0.39-1.41,0l-3,3c-0.39,0.39-0.39,1.02,0,1.41l3,3C22.49,33.9,22.74,34,23,34     s0.51-0.1,0.71-0.29l3-3c0.39-0.39,0.39-1.02,0-1.41L23.71,26.29z"/></g></g></g><text x="0" y="87" fill="#000000" font-size="5px" font-weight="bold" font-family="'Helvetica Neue', Helvetica, Arial-Unicode, Arial, Sans-serif">Created by I Putu Dicky Adi Pranatha</text><text x="0" y="92" fill="#000000" font-size="5px" font-weight="bold" font-family="'Helvetica Neue', Helvetica, Arial-Unicode, Arial, Sans-serif">from the Noun Project</text></svg>