<!-- Generated by IcoMoon.io -->
<svg version="1.1" xmlns="http://www.w3.org/2000/svg" width="32" height="32" viewBox="0 0 32 32">
<title>Arrested</title>
<path d="M32 23c0-5-4-9-9-9 0 0-0.063 0-0.063 0 0.688-1.188 1.063-2.563 1.063-4 0-4.438-3.563-8-8-8s-8 3.563-8 8c0 4.25 3.313 7.75 7.5 8-0.375 0.625-0.75 1.25-1 2h-10.5c-4 0-4 4-4 4v8h32v-8c0 0 0-0.813 0-1zM29.875 23c0 3.813-3.063 6.875-6.875 6.875s-6.875-3.063-6.875-6.875c0-3.813 3.063-6.875 6.875-6.875s6.875 3.063 6.875 6.875zM26.125 22c0-0.125 0.063-0.25 0.063-0.438-0.063-0.625-0.125-1.438-0.563-2.25-0.5-0.75-1.438-1.313-2.625-1.313s-2.125 0.563-2.625 1.313c-0.438 0.813-0.563 1.625-0.563 2.25 0 0.188 0.063 0.313 0.063 0.438h-0.875v5h8v-5zM21.813 21.563c0-0.438 0.125-0.938 0.25-1.188 0.188-0.188 0.313-0.375 0.938-0.375s0.75 0.188 0.875 0.375c0.188 0.25 0.313 0.75 0.313 1.188 0 0.188-0.063 0.313-0.063 0.438h-2.25c0-0.125-0.063-0.25-0.063-0.438z"></path>
</svg>
