<!-- Generated by IcoMoon.io -->
<svg version="1.1" xmlns="http://www.w3.org/2000/svg" width="32" height="32" viewBox="0 0 32 32">
<title>Bow-arrow</title>
<path d="M28.688 7.125c0.188 0.188 0.438 0.25 0.688 0.25 0.063 0 0.125 0 0.25 0 0.313-0.063 0.563-0.313 0.688-0.688l1.625-5.438c0.063-0.375 0-0.688-0.25-0.938s-0.625-0.375-1-0.25l-5.438 1.625c-0.313 0.063-0.563 0.313-0.688 0.688-0.063 0.313 0 0.625 0.25 0.875l1.25 1.25-3.25 3.25c-1.438-1.375-3.063-2.563-4.75-3.5-1.938-1.125-3.938-1.875-5.938-2.313-2.063-0.438-4.125-0.5-6.063-0.188-2 0.313-3.875 1-5.563 2.063-0.25 0.188-0.438 0.438-0.438 0.688-0.063 0.313 0.063 0.625 0.25 0.813l12.5 12.5-2.563 2.563-3.125 0.438c-0.188 0.063-0.375 0.125-0.5 0.313l-3.063 3.063c-0.188 0.125-0.313 0.375-0.313 0.625 0 0.313 0.125 0.5 0.313 0.688l2.875 2.875c0.188 0.188 0.438 0.313 0.688 0.313s0.5-0.125 0.688-0.313l3-3.063c0.188-0.125 0.25-0.313 0.313-0.5l0.438-3.063 2.625-2.625 12.563 12.563c0.188 0.188 0.438 0.313 0.688 0.313 0 0 0.063 0 0.063 0 0.313-0.063 0.563-0.188 0.75-0.438 1.063-1.688 1.75-3.563 2.063-5.563 0.313-1.938 0.25-4-0.188-6.063-0.438-2-1.25-4-2.313-5.938-1-1.75-2.188-3.375-3.625-4.875l3.25-3.25zM9.25 24.188l-2.125 2.188-1.5-1.563 2.125-2.125 1.75-0.25zM14.188 16.438l-11.625-11.625c5.625-2.813 12.938-1.188 18.938 4.313zM27.188 29.438l-11.688-11.625 7.313-7.313c5.625 5.938 7.313 13.313 4.375 18.938zM29.563 2.375l-0.688 2.25-1.563-1.563z"></path>
</svg>
