<!-- Generated by IcoMoon.io -->
<svg version="1.1" xmlns="http://www.w3.org/2000/svg" width="32" height="32" viewBox="0 0 32 32">
<title>Attacked-people</title>
<path d="M17.75 13.125c-1.25-1.063-2.563-1.5-4.188-1.438-0.188 0-0.438 0-0.625 0 0.625-0.5 1.375-0.938 2.063-1.375 3.063-0.688 0.375-0.375 0.875-1.813s1.5-0.313 1.438-1.25c-0.125-0.375-0.5-0.563-1.875-1-0.813-0.25-0.125-1.688-2.875-0.688 0-0.563-0.625-1.563-1.313-1.5-0.75 0.063-1 1.063-1.063 1.563l-1.688 1.188c-0.5 0.438-1.063 1.375-1.813 1.75h0.063c-0.25 0.125-0.5 0.25-0.75 0.438-3.313 2.75-5 6.813-5.375 11 0 0.5 0.063 0.875 0.25 1.188-0.188 1.063-0.375 2.125-0.5 3.25-0.063 0.063-0.063 0.125-0.125 0.25-0.5 1.063-0.313 2.313 0.813 3 0.938 0.5 2.5 0.25 3-0.813 0.688-1.563 1.375-3.063 1.813-4.688 1.563-0.25 3.125-1.063 4.25-2.25 1.438-1.5 1.938-3.375 1.75-5.25 1.313-0.188 2.75-0.5 3.875 0.438 1.313 1.25 3.375-0.75 2-2zM26.75 15.438c0 0.938-0.75 1.688-1.75 1.688-0.938 0-1.688-0.75-1.688-1.688s0.75-1.688 1.688-1.688c1 0 1.75 0.75 1.75 1.688zM28.188 19c-0.625 0.313-1.313 0.5-2.125 0.688-0.375-0.625-0.813-1.25-1.25-1.813-0.063-0.188-0.188-0.313-0.313-0.375-0.063-0.063-0.063-0.063-0.063-0.063-0.125-0.188-0.375-0.25-0.563-0.25 0 0-0.063 0-0.063 0-0.125-0.063-0.25-0.063-0.375-0.063-0.938 0.125-1.938 0.438-2.875 0.813-0.625-0.5-1.188-0.875-1.688-1.438-0.25-0.25-0.688-0.25-0.938 0-0.313 0.25-0.313 0.688-0.063 1 0.625 0.625 1.313 1.188 2.125 1.75 0.063 0.063 0.188 0.125 0.25 0.125s0.125 0.063 0.188 0.063c0.125 0 0.25 0 0.375-0.063 0.313-0.125 0.625-0.25 1-0.375-0.438 0.875-0.875 1.75-1.375 2.625 0 0.063-0.063 0.125-0.063 0.125-0.688 0.5-1.313 1.188-1.938 1.75-0.25 0.313-0.313 0.625-0.188 0.938 0.313 0.938 0.688 1.875 1.375 2.625 0.625 0.75 1.875-0.25 1.188-1-0.438-0.5-0.75-1.125-1-1.75 0.375-0.375 0.75-0.75 1.188-1.063 0.063 0 0.125 0.063 0.188 0.063s0.063 0 0.063 0c0.125 0.875 0.313 1.688 0.563 2.5 0.125 0.5 0.563 0.75 1.063 0.563 0.938-0.313 1.813-0.625 2.688-1 0.938-0.313 0.313-1.75-0.625-1.375-0.625 0.188-1.25 0.438-1.875 0.625-0.125-0.563-0.25-1.125-0.313-1.688 0-0.063 0-0.063 0-0.125 0.063-0.063 0.125-0.188 0.188-0.25 0.5-0.938 1-1.938 1.438-2.875 0.25 0.375 0.5 0.75 0.688 1.125 0.125 0.25 0.313 0.375 0.563 0.375 0.063 0 0.188 0 0.313-0.063 0 0 0 0 0 0 0.063 0.063 0.125 0.063 0.25 0 0.938-0.25 1.75-0.5 2.625-0.875 0.313-0.188 0.5-0.563 0.313-0.938-0.125-0.375-0.563-0.5-0.938-0.313zM31.375 15.875c0 0 0 0 0 0 0.063-0.063 0.125-0.125 0.063-0.188 0-0.125-0.125-0.125-0.188-0.125l-4.5 2.25zM31.813 17.375l-3.563 0.875 3.625-0.563c0 0 0 0 0 0 0.063-0.063 0.125-0.125 0.125-0.188 0-0.125-0.125-0.188-0.188-0.125zM28.563 15.125c0-0.063 0-0.188-0.063-0.25-0.063 0-0.188 0-0.188 0.063l-1.063 1.438 1.25-1.25c0 0 0.063 0 0.063 0z"></path>
</svg>
