<!-- Generated by IcoMoon.io -->
<svg version="1.1" xmlns="http://www.w3.org/2000/svg" width="32" height="32" viewBox="0 0 32 32">
<title>Axe</title>
<path d="M1.25-0.438h-0.25c-0.063 0.125-0.125 0.25-0.313 0.25s-0.313-0.188-0.313-0.5c0-0.25 0.125-0.438 0.313-0.438s0.25 0.063 0.313 0.25h0.25c-0.063-0.313-0.25-0.5-0.563-0.5-0.375 0-0.625 0.313-0.625 0.688 0 0.438 0.25 0.688 0.625 0.688 0.313 0 0.563-0.125 0.563-0.438zM0.688-0.75v-0.25c0 0-0.063 0-0.063 0-0.125 0-0.188 0.063-0.25 0.188v-0.188h-0.25v1h0.25v-0.5c0-0.188 0.063-0.25 0.188-0.25 0.063 0 0.063 0 0.125 0zM0.938-0.438c0-0.375-0.125-0.563-0.438-0.563s-0.438 0.188-0.438 0.5c0 0.313 0.125 0.5 0.438 0.5 0.188 0 0.375-0.063 0.438-0.25h-0.25c0 0.063-0.125 0.063-0.188 0.063-0.125 0-0.188-0.063-0.188-0.25h0.625zM0.688-0.563h-0.375c0-0.188 0.063-0.25 0.188-0.25s0.188 0.063 0.188 0.25zM0.938 0v-0.063c0 0-0.063-0.063-0.063-0.063v-0.563c0-0.188-0.125-0.313-0.375-0.313s-0.438 0.125-0.438 0.313h0.25c0-0.063 0.063-0.125 0.188-0.125s0.125 0.063 0.125 0.125-0.063 0.063-0.188 0.125h-0.125c-0.188 0.063-0.25 0.125-0.25 0.313s0.125 0.25 0.313 0.25c0.063 0 0.188-0.063 0.25-0.125 0 0.063 0 0.125 0.063 0.125zM0.625-0.438c0 0.188-0.063 0.25-0.188 0.25-0.063 0-0.125-0.063-0.125-0.125s0.063-0.063 0.125-0.125h0.125c0.063 0 0.063 0 0.063 0zM0.563 0v-0.188c-0.063 0-0.063 0-0.063 0-0.063 0-0.125 0-0.125-0.063v-0.563h0.188v-0.125h-0.188v-0.313h-0.25v0.313h-0.125v0.125h0.125v0.625c0 0.125 0.125 0.188 0.25 0.188 0.063 0 0.125 0 0.188 0zM1 0v-1.313h-0.25v0.438c-0.063-0.063-0.188-0.125-0.313-0.125-0.188 0-0.375 0.188-0.375 0.5s0.125 0.5 0.375 0.5c0.125 0 0.25 0 0.313-0.125v0.125zM0.75-0.5c0 0.188-0.125 0.313-0.25 0.313s-0.188-0.125-0.188-0.313c0-0.188 0.063-0.313 0.188-0.313s0.25 0.125 0.25 0.313zM1.063-0.5c0-0.25-0.188-0.5-0.438-0.5-0.125 0-0.188 0.063-0.25 0.125v-0.438h-0.25v1.313h0.25v-0.125c0.063 0.125 0.125 0.125 0.25 0.125 0.25 0 0.438-0.188 0.438-0.5zM0.813-0.5c0 0.188-0.125 0.313-0.25 0.313s-0.188-0.125-0.188-0.313c0-0.188 0.063-0.313 0.188-0.313s0.25 0.125 0.25 0.313zM1-1h-0.313l-0.188 0.75-0.188-0.75h-0.313l0.375 1.063c0 0.063-0.063 0.125-0.125 0.125s-0.063 0-0.063 0v0.188c0 0 0 0 0.063 0 0.188 0 0.25 0 0.313-0.188zM1.188-1.313h-0.313l-0.25 1-0.313-1h-0.25l0.438 1.313h0.25zM0.938-0.313h-0.25c0 0.063-0.063 0.125-0.188 0.125s-0.188-0.125-0.188-0.313c0-0.188 0.063-0.313 0.188-0.313s0.188 0.063 0.188 0.188h0.25c0-0.25-0.188-0.375-0.438-0.375s-0.438 0.188-0.438 0.5c0 0.313 0.188 0.5 0.438 0.5s0.438-0.125 0.438-0.313zM1.063-0.5c0-0.313-0.188-0.5-0.5-0.5s-0.5 0.188-0.5 0.5c0 0.313 0.188 0.5 0.5 0.5s0.5-0.188 0.5-0.5zM0.75-0.5c0 0.188-0.063 0.313-0.188 0.313s-0.25-0.125-0.25-0.313c0-0.188 0.125-0.313 0.25-0.313s0.188 0.125 0.188 0.313zM0.938-0.313v0c0-0.125-0.063-0.188-0.188-0.25l-0.313-0.063c-0.063 0-0.125-0.063-0.125-0.063 0-0.063 0.063-0.125 0.188-0.125s0.188 0.063 0.188 0.125h0.25c0-0.188-0.188-0.313-0.438-0.313s-0.438 0.125-0.438 0.313c0 0.125 0.063 0.188 0.25 0.25l0.313 0.125c0.063 0 0.063 0 0.063 0.063s-0.063 0.063-0.188 0.063c-0.125 0-0.188 0-0.188-0.125h-0.25c0 0.188 0.125 0.313 0.438 0.313s0.438-0.063 0.438-0.313zM0.375 0v-1.313h-0.25v1.313zM0.563-0.813v-0.125h-0.125v-0.125c0-0.063 0-0.063 0.063-0.063 0 0 0.063 0 0.063 0v-0.188c-0.063 0-0.125 0-0.125 0-0.188 0-0.25 0.063-0.25 0.25v0.125h-0.188v0.125h0.188v0.813h0.25v-0.813zM1.5 0v-0.688c0-0.188-0.125-0.313-0.313-0.313-0.125 0-0.188 0.063-0.313 0.125 0-0.063-0.125-0.125-0.25-0.125s-0.188 0.063-0.25 0.125v-0.125h-0.25v1h0.25v-0.563c0-0.125 0.063-0.25 0.188-0.25 0.063 0 0.125 0.063 0.125 0.188v0.625h0.25v-0.563c0-0.125 0.063-0.25 0.188-0.25 0.063 0 0.125 0.063 0.125 0.188v0.625zM1 0v-0.688c0-0.188-0.125-0.313-0.313-0.313-0.125 0-0.25 0.063-0.313 0.188v-0.5h-0.25v1.313h0.25v-0.563c0-0.125 0.063-0.25 0.188-0.25s0.188 0.063 0.188 0.188v0.625zM1.188 0v-1.313h-0.25v0.875l-0.563-0.875h-0.25v1.313h0.25v-0.938l0.563 0.938zM1 0v-1h-0.25v0.625c0 0.125-0.125 0.188-0.25 0.188-0.063 0-0.125-0.063-0.125-0.188v-0.625h-0.25v0.688c0 0.188 0.125 0.313 0.313 0.313 0.125 0 0.25-0.063 0.313-0.125v0.125zM1 0v-0.688c0-0.188-0.125-0.313-0.313-0.313-0.125 0-0.25 0.063-0.313 0.188v-0.188h-0.25v1h0.25v-0.563c0-0.125 0.063-0.25 0.188-0.25s0.188 0.063 0.188 0.188v0.625zM1.125-0.938c0-0.25-0.125-0.375-0.375-0.375h-0.625v1.313h0.313v-0.5h0.313c0.25 0 0.375-0.125 0.375-0.438zM0.875-0.875c0 0.125-0.063 0.188-0.188 0.188h-0.25v-0.438h0.25c0.125 0 0.188 0.063 0.188 0.25zM0.375 0.188v-1.188h-0.25v1.125c0 0.063 0 0.063-0.063 0.063 0 0-0.063 0-0.063 0v0.188c0.063 0 0.125 0 0.188 0 0.125 0 0.188-0.063 0.188-0.188zM0.375-1.125v-0.25h-0.25v0.25zM18.125 5.563c-0.063-0.063-0.125-0.063-0.188-0.188-0.5-0.438-1.313-0.438-1.813 0.063l-2.563 2.563c-0.5 0.5-0.5 1.313-0.063 1.813 0.125 0.063 0.125 0.125 0.188 0.188 0.438 0.438 0.813 0.875 1.125 1.375 1.563 2.125 2.688 4.688 3.313 6.375 3.313-1.5 6.313-4.438 7.938-7.688-1.688-0.625-4.313-1.75-6.5-3.375-0.563-0.313-1-0.688-1.438-1.125zM19.938 6.125c0.125 0.063 0.25 0.188 0.375 0.25 0.188-0.438 0.063-1-0.25-1.375-0.438-0.438-1.188-0.5-1.688-0.125 0 0 0 0 0.063 0.063s0.125 0.125 0.188 0.188c0.375 0.25 0.813 0.625 1.313 1zM4 19.75c0 0.313 0.125 0.688 0.375 0.938s0.563 0.375 0.875 0.375c0.375 0 0.688-0.188 0.938-0.375l8.375-8.375c-0.125-0.125-0.25-0.313-0.375-0.5-0.313-0.438-0.688-0.875-1-1.313-0.125-0.063-0.125-0.125-0.188-0.188 0 0 0-0.063-0.063-0.063l-8.563 8.625c-0.25 0.25-0.375 0.563-0.375 0.875zM27.938 10.875c0-0.063-0.063-0.188-0.188-0.188 0 0-0.375-0.125-0.938-0.313-1.688 3.438-4.875 6.563-8.375 8.125 0.25 0.688 0.375 1.063 0.375 1.125 0 0.125 0.125 0.188 0.188 0.188 0 0.063 0.063 0.063 0.125 0.063s0.063 0 0.125-0.063c3.813-1.313 7.375-4.875 8.688-8.688 0.063-0.063 0.063-0.188 0-0.25z"></path>
</svg>
