<!-- Generated by IcoMoon.io -->
<svg version="1.1" xmlns="http://www.w3.org/2000/svg" width="32" height="32" viewBox="0 0 32 32">
<title>Baboon</title>
<path d="M0 23.75c0 0.125 0.25 0.188 0.313 0.063 0.125-0.063 0.313-0.25 0.438 0 0.063 0.188 0.125 0.5 0.063 0.688s-0.25 0.5-0.188 0.625c0.125 0.063 0.188 0.063 0.25 0.063 0.063 0.063 0 0.188 0 0.313s0.125 0.188 0.188 0.188c0.063 0 0.188-0.125 0.25-0.063 0.125 0.063 0.188-0.188 0.438-0.5 0.25-0.375 0.125-0.563 0-1.125-0.063-0.625 0.063-1.063 0.125-1.438 0.063-0.438 0.25-1.188 0.438-1.438 0.188-0.313 0.625-0.188 0.938-0.188 0.375 0 2.25-0.125 2.625-0.25 0.5-0.063 1.313-0.5 1.938-0.688 0.563-0.188 1.313-0.438 1.313-0.438 0.063 0.063 0.375 0.375 0.25 0.625s-0.188 1.875-0.188 2.125c0 0.188-0.313 2.125-0.563 2.5-0.25 0.5-0.063 0.75 0 0.938s0.688 0.5 0.938 0.813c0.313 0.188 0.813 0.375 1 0.375 0.125 0 3.813 0 4.188 0 0.313 0 0.313-0.125 0.375-0.125s0.438-0.063 0.75-0.125c0.375-0.063 0.25-0.188 0.25-0.313 0-0.063-0.563-0.125-0.688-0.188s-0.875-0.188-0.938-0.25c-0.063-0.125-0.063-0.5 0-0.688 0.063-0.313 0.188-0.563 0.375-0.75s0.25-0.438 0.375-0.625c0.125-0.313 1-2.188 1.375-2.75 0.375-0.625 0.5-0.875 0.813-1.25 0.25-0.438 0.438-0.813 0.438-1 0.063-0.188 0.375-0.688 0.563-0.938 0.188-0.188 0.563-0.563 1.25-1.125 0.75-0.563 1.375-0.313 1.625-0.5 0.313-0.188 0.75-1.25 0.938-1.313 0.125-0.063 0.5-0.313 0.75-0.375 0.188-0.063 0.25 0.313 0.313 0.75 0.063 0.313 0.625 1.813 0.688 2.25 0.063 0.375 0.125 1 0.438 1.563 0.25 0.625 2 3.938 2.188 4.375 0.188 0.5 0.75 1.375 0.75 1.375s-0.063 0.313-0.063 0.5c0 0.188 0.375 0.5 0.5 0.563 0.063 0 0.125 0.063 0.125 0.188s0.188 0.375 0.313 0.5c0.125 0.125 0.375 0.125 0.375 0.188 0.063 0.063 0.188 0.125 0.313 0.125s0.25-0.188 0.375-0.125c0.188 0.063 0.813 0.125 1.688 0.125 0.938 0 0.875-0.125 0.938-0.188s-0.125-0.188-0.313-0.188c-0.188 0-1.25-0.313-1.563-0.438-0.375-0.125-0.813-0.625-0.938-0.813-0.188-0.188-0.375-0.938-0.5-1.188-0.188-0.25-0.688-2.375-0.813-2.688s-0.5-1.313-0.563-1.438c-0.063-0.125-0.25-1.375-0.438-1.938-0.188-0.625-0.5-1.375-0.688-1.625-0.125-0.188-0.063-0.438-0.063-0.688s0.063-1.938 0.063-2.125c-0.063-0.188-0.438-1.688-0.5-1.813 0-0.125-0.25-0.25-0.25-0.25h0.188c0 0 0.25 0.125 0.625 0.25 0.313 0.125 0.75 0.125 1 0.125 0.188 0 0.375-0.25 0.438-0.375s0-0.188 0-0.188c0 0 0.313 0.063 0.375-0.063s0.125-0.438 0.25-0.438c0.063 0 0.188-0.063 0.188-0.188 0.125-0.188-0.063-0.313-0.188-0.5-0.188-0.188-1.188-1.563-1.313-1.813-0.125-0.313 0.125-0.375 0.375-0.438 0.188-0.063 0.188-0.188 0.188-0.313s-0.125-0.438-0.438-0.625c-0.25-0.438-2.188-1.75-2.75-1.938-0.5-0.188-0.813-0.125-1.5 0-0.625 0.125-1.625 0.75-1.938 1s-0.813 0.688-1.188 0.563c-0.375-0.125-0.688-0.188-1.063-0.063-0.313 0.125-0.688 1.25-0.75 1.313s-0.438 0.063-0.75 0.063c-0.25 0-2.375 0.313-3.188 0.438-0.688 0.063-2.813 0.563-3.688 0.688-0.813 0.125-1.063-0.125-1.438-0.25-0.313-0.125-1.063-1.188-1.813-1.625-0.688-0.5-1.188-0.438-1.188-0.438-1.938 0-2.875 3.813-3.063 4.875-0.25 1.063-1 4-1.125 4.25s-0.813 1.25-0.813 1.5c-0.063 0.563 0.25 1.313 0.5 1.313s0.438-0.438 1.125-1c0.625-0.5 0.438-1.375 0.438-1.75-0.063-0.313 0.063-0.375 0.188-1.063 0.125-0.625 0.563-2.563 0.813-3.875 0.25-1.25 1.063-2.063 1.375-2.375 0.313-0.375 0.625-0.188 1.188 0.25 0.5 0.438 0.813 1.438 0.813 1.438-0.125 0.063-0.625 0.875-0.938 1.688-0.313 0.875-0.25 2.563 0.063 3.063 0.25 0.563 0.375 0.875 0.313 0.938s-0.063 1.375-0.063 1.375c0 0-0.25 0.063-0.688 0.313-0.375 0.25-2.125 1-2.563 1.125-0.375 0.125-1.375 0-1.75 0.125-0.313 0-0.375 0.375-0.625 0.938-0.188 0.438-0.438 1.125-0.438 1.375 0.063 0.25 0.25 0.375 0 0.5-0.125 0.125-0.25 0.563-0.313 0.75s0 0.5-0.125 0.625c0 0.063-0.125 0.375-0.125 0.563zM11.5 24.063c0.375-0.5 0.688-2.438 1-3.75s0.438-2.375 0.375-2.75c-0.063-0.375-0.625-1-0.625-1.125s-0.188-0.5-0.188-0.5c0 0 0.5 0.313 1.313 0.563 0.75 0.313 2 0.438 2.563 0.438 0 0-2.25 6-2.625 6.75-0.438 0.688-0.313 0.813-0.375 1.5-0.063 0.625-0.125 0.813-0.188 0.813-0.125 0-0.438-0.313-1.125-0.438-0.625-0.125-0.625-0.375-0.688-0.688-0.063-0.188 0.25-0.438 0.563-0.813z"></path>
</svg>
