<?xml version="1.0" encoding="UTF-8"?>
<svg width="700pt" height="700pt" version="1.1" viewBox="0 0 700 700" xmlns="http://www.w3.org/2000/svg">
 <path d="m198.42 168.52c-1.2578-0.41797-2.5195-0.83984-3.7773-1.1211-15.395-4.3398-32.473-5.0391-46.75 2.0977-30.234 15.117-49.688 44.23-49.688 68.441 0 19.875-20.297 29.531-20.297 29.531-6.8594 3.5-9.6562 11.898-6.2969 18.754 3.5 6.8594 11.898 9.6562 18.754 6.2969 0 0 35.691-18.336 35.691-54.445 0-15.816 14.418-33.59 34.293-43.527 8.1172-4.0586 17.914-2.6602 26.734-0.14062 4.4805 1.2578 8.8164 2.8008 12.738 4.4805-22.535 21.133-62.703 63.543-73.203 105.67-5.1797 20.574-1.6797 40.309 3.6406 60.746 4.3398 17.074 9.9375 34.852 9.9375 54.586 0 8.2578-3.3594 16.516-7.2773 24.773-4.8984 10.355-11.059 20.574-15.535 30.512-7.9766 17.355-11.059 34.012-3.6406 48.988 6.5781 13.156 20.715 22.113 38.91 27.293 21.695 6.1602 49.547 7.1367 70.824 8.3984 37.512 2.3789 84.539-13.996 126.81-13.996 42.27 0 89.297 16.375 126.81 13.996 21.273-1.2578 49.129-2.3789 70.824-8.3984 18.195-5.1797 32.332-14.137 38.91-27.293 7.418-14.836 4.3398-31.492-3.6406-48.988-4.6172-9.9375-10.637-20.156-15.535-30.512-3.918-8.2578-7.2773-16.656-7.2773-24.773 0-19.734 5.5977-37.512 9.9375-54.586 5.1797-20.434 8.6797-40.172 3.6406-60.746-10.078-40.172-46.887-80.34-69.844-102.45 24.773-6.4375 40.172-6.1602 51.648-1.1211 8.957 3.918 14.977 10.777 21.133 17.914 8.8164 10.355 17.914 21.555 31.773 30.793 6.4375 4.3398 15.117 2.5195 19.457-3.918s2.5195-15.117-3.918-19.457c-11.336-7.5586-18.617-17.074-26.035-25.754-8.957-10.355-18.055-19.594-31.07-25.332-11.898-5.1797-27.574-7.6992-50.527-4.1992 1.1211-1.9609 1.8203-3.7773 2.5195-5.457 3.6406-10.496 0.55859-18.477-6.7188-23.375-20.434-13.578-46.188-12.035-69.844-3.7773-14.977 5.1797-29.113 12.875-39.609 19.457-0.98047-3.2188-2.2383-6.4375-3.7773-9.5195-6.2969-12.598-17.074-22.535-34.43-22.535-20.434 0-35.133 11.336-44.09 21.273-10.777-9.2383-27.715-22.254-46.328-31.211-24.074-11.617-50.527-15.676-71.383-1.6797-4.3398 2.9375-7.6992 7.418-9.2383 13.715-1.2578 5.0391-1.2578 11.898 0 19.457 1.1211 6.5781 3.0781 13.855 5.3203 20.996zm208.55 195.39c-20.996-20.996-61.023-18.055-89.02 9.9375-27.992 27.992-30.934 68.164-9.9375 89.02 20.996 20.996 61.023 18.055 89.02-9.9375 27.992-27.992 30.934-68.164 9.9375-89.02zm-13.996 33.871c0 2.2383 0 4.4805-0.28125 6.7188-1.3984 9.7969-6.7188 20.156-15.258 28.832-8.5391 8.6797-18.895 13.855-28.832 15.258-2.2383 0.28125-4.4805 0.41797-6.7188 0.28125zm-70.961 31.352c0-2.2383 0-4.4805 0.28125-6.7188 1.3984-9.7969 6.7188-20.156 15.258-28.832 8.5391-8.5391 18.895-13.855 28.832-15.258 2.2383-0.28125 4.4805-0.41797 6.7188-0.28125zm14.137-207.43-13.996 83.98c-1.2578 7.5586 3.918 14.836 11.477 16.098 7.5586 1.2578 14.836-3.918 16.098-11.477l13.996-83.98c1.2578-7.5586-3.918-14.836-11.477-16.098-7.5586-1.2578-14.836 3.918-16.098 11.477zm58.926 11.059 55.984 69.984c4.7578 6.0195 13.578 7 19.594 2.2383 6.0195-4.7578 7-13.578 2.2383-19.594l-55.984-69.984c-4.7578-6.0195-13.578-7-19.594-2.2383-6.0195 4.7578-7 13.578-2.2383 19.594zm-138.98-4.6172-41.988 41.988c-5.457 5.457-5.457 14.277 0 19.875 5.457 5.457 14.277 5.457 19.875 0l41.988-41.988c5.457-5.457 5.457-14.277 0-19.875-5.457-5.457-14.277-5.457-19.875 0zm-26.312-144.02c14.277-0.69922 29.531 3.5 43.949 10.496 18.477 8.957 35.41 21.973 46.328 31.211 8.957-9.9375 23.652-21.273 44.09-21.273 17.355 0 28.133 9.9375 34.43 22.535 1.5391 3.0781 2.8008 6.2969 3.7773 9.3789 10.637-6.5781 24.633-14.277 39.609-19.457 15.676-5.457 32.332-7.9766 47.727-5.0391-3.6406-25.473-16.656-48.148-44.09-54.445-3.2188-8.5391-9.3789-15.395-17.355-20.434-11.477-7.1367-27.434-10.355-43.109-9.7969-7.8398-10.637-24.355-27.293-49.129-27.293-15.535 0-28.273 8.6797-37.652 19.875-6.5781 7.8398-11.195 16.656-14.137 23.094-18.617 2.6602-32.191 9.9375-41.711 20.297-5.457 5.8789-9.6562 12.875-12.738 20.855zm176.78 8.957s1.3984 1.5391 1.9609 2.2383c4.4805 6.2969 13.156 7.8398 19.457 3.3594 6.2969-4.4805 7.8398-13.156 3.3594-19.457-6.7188-9.5195-14.836-14.137-23.234-14.555-7.6992-0.41797-16.938 2.6602-26.594 13.297-5.1797 5.7383-4.7578 14.555 0.83984 19.734 5.7383 5.1797 14.555 4.7578 19.734-0.98047 1.2578-1.3984 3.0781-2.8008 4.1992-3.6406zm-86.219-13.156c2.3789-4.3398 4.8984-7.2773 7.9766-8.6797 5.0391-2.3789 10.777-0.98047 17.074 1.2578 7.2773 2.5195 15.258-1.2578 17.914-8.5391 2.5195-7.2773-1.2578-15.258-8.5391-17.914-14.137-4.8984-27.152-5.457-38.352-0.14062-7.6992 3.6406-14.836 10.078-20.574 20.715-3.6406 6.8594-1.1211 15.258 5.5977 19.035 6.7188 3.6406 15.258 1.1211 19.035-5.5977z" fill-rule="evenodd"/>
</svg>
