<!-- Generated by IcoMoon.io -->
<svg version="1.1" xmlns="http://www.w3.org/2000/svg" width="32" height="32" viewBox="0 0 32 32">
<title>Barbed-wire</title>
<path d="M25.063 22.063l-4.625-4.875 4.125-7.375c0.125-0.25 0.063-0.625-0.25-0.813s-0.688-0.063-0.875 0.25l-6.125 11.063c-0.188 0.313-0.063 0.688 0.25 0.813 0.063 0.063 0.188 0.125 0.313 0.125 0.188 0 0.375-0.125 0.5-0.313l1.438-2.625 4.375 4.563c0.125 0.125 0.25 0.188 0.438 0.188 0.125 0 0.313-0.063 0.438-0.125 0.25-0.25 0.25-0.625 0-0.875zM14.438 10.875c-0.313-0.188-0.688-0.063-0.813 0.188l-1.438 2.625-4.375-4.563c-0.188-0.25-0.625-0.25-0.875-0.063-0.25 0.25-0.25 0.625 0 0.875l4.625 4.875-4.125 7.375c-0.125 0.25-0.063 0.625 0.25 0.813 0.125 0.063 0.188 0.063 0.313 0.063 0.188 0 0.438-0.125 0.563-0.313l6.125-11.063c0.188-0.313 0.063-0.688-0.25-0.813zM19.375 12.688c-0.313-0.188-0.688-0.063-0.813 0.25l-3.688 6.625c-0.188 0.313-0.063 0.688 0.188 0.875 0.125 0 0.25 0.063 0.313 0.063 0.25 0 0.438-0.125 0.563-0.313l3.688-6.688c0.125-0.25 0.063-0.625-0.25-0.813zM16.5 12.688c-0.313-0.188-0.688-0.063-0.875 0.25l-3.688 6.625c-0.188 0.313-0.063 0.688 0.25 0.875 0.063 0 0.188 0.063 0.313 0.063 0.188 0 0.438-0.125 0.5-0.313l3.688-6.688c0.188-0.25 0.063-0.625-0.188-0.813z"></path>
</svg>
