<!-- Generated by IcoMoon.io -->
<svg version="1.1" xmlns="http://www.w3.org/2000/svg" width="32" height="32" viewBox="0 0 32 32">
<title>Bark-stripping</title>
<path d="M20.218 2.081c-0.258 0.201-0.308 0.39-0.195 0.773 0.075 0.251 0.082 0.402 0.031 0.66-0.063 0.346-0.352 1-0.56 1.257l-0.119 0.157-0.679-0.17c-1.1-0.27-1.804-0.365-2.98-0.402-2.15-0.069-4.143 0.289-6.016 1.088-6.777 2.886-10.248 10.455-7.997 17.44 0.648 1.993 1.779 3.917 3.143 5.325 0.453 0.465 0.264 0.427 2.691 0.522l1.792 0.069 0.692 0.34c3.282 1.603 7.054 1.616 10.317 0.031 2.879-1.389 5.073-3.873 6.073-6.853 0.484-1.452 0.654-2.653 0.604-4.206-0.063-1.811-0.44-3.313-1.245-4.916-0.654-1.314-1.792-2.76-2.892-3.671l-0.566-0.472h1.264c0.729 0 1.314-0.025 1.383-0.063 0.138-0.075 4.319-6.023 4.42-6.287 0.088-0.233-0.038-0.541-0.277-0.66-0.239-0.126-4.47-0.132-4.69-0.013-0.075 0.044-0.358 0.39-0.622 0.767-0.264 0.384-0.497 0.704-0.503 0.717-0.013 0.013-0.195-0.132-0.402-0.327-0.427-0.396-0.987-0.729-1.729-1.031-0.591-0.245-0.71-0.251-0.937-0.075zM27.618 3.225c-0.025 0.050-0.767 1.106-1.641 2.358l-1.597 2.276h-2.697l0.145-0.207c0.082-0.113 0.824-1.176 1.647-2.358l1.509-2.15h1.339c1.106 0 1.339 0.013 1.295 0.082zM21.822 3.841c0.478 0.321 0.547 0.465 0.415 0.824-0.182 0.465-1.289 2.194-1.911 2.986l-0.113 0.138-0.622-0.251c-2.27-0.912-4.91-1.081-7.337-0.465-4.112 1.037-7.456 4.401-8.506 8.55-0.459 1.811-0.459 3.961-0.006 5.752 0.534 2.125 1.679 4.112 3.263 5.652l0.547 0.528-0.616-0.038c-0.34-0.025-0.748-0.044-0.905-0.044-0.295 0-0.295 0-0.78-0.585-1.892-2.27-2.905-4.91-3.030-7.871-0.088-2.226 0.384-4.388 1.408-6.394 1.528-3.011 4.244-5.35 7.437-6.419 1.584-0.534 2.773-0.704 4.552-0.654 1.276 0.031 2.112 0.151 3.137 0.453 0.692 0.195 0.899 0.195 1.188 0 0.471-0.321 1.081-1.377 1.251-2.163 0.082-0.377 0.075-0.377 0.629 0zM16.126 7.921c1.873 0.182 3.464 0.748 5.061 1.804 0.88 0.591 2.087 1.767 2.722 2.659 0.786 1.106 1.433 2.603 1.754 4.055 0.119 0.547 0.138 0.817 0.138 2.075 0 1.591-0.069 2.081-0.465 3.313-1.578 4.835-6.438 7.909-11.461 7.249-4.545-0.597-8.116-3.917-9.11-8.475-0.119-0.553-0.138-0.836-0.145-2.056 0-1.245 0.019-1.496 0.145-2.087 0.616-2.867 2.213-5.231 4.602-6.828 1.050-0.698 2.584-1.327 3.785-1.553 1.138-0.214 1.936-0.251 2.974-0.157z"></path>
<path d="M14.516 9.694c-1.572 0.094-3.288 0.736-4.589 1.716-1.88 1.408-3.131 3.508-3.489 5.847-0.132 0.817-0.082 2.276 0.094 3.081 0.629 2.854 2.584 5.237 5.212 6.35 1.169 0.49 2.144 0.685 3.47 0.685 1.528 0 2.622-0.258 3.992-0.937 0.811-0.396 1.062-0.622 1.062-0.943 0-0.258-0.207-0.509-0.471-0.566-0.189-0.044-0.207-0.038-1 0.396-1.867 1.018-4.351 1.157-6.35 0.358-1.075-0.427-1.892-0.968-2.703-1.792-1.427-1.44-2.2-3.313-2.2-5.35 0-1.584 0.415-2.961 1.283-4.262 1.433-2.156 3.766-3.414 6.356-3.42 1.723-0.006 3.231 0.484 4.583 1.49 1.98 1.465 3.118 3.728 3.118 6.199 0 0.918-0.126 1.666-0.421 2.483-0.295 0.836-0.327 1.151-0.132 1.333 0.214 0.207 0.484 0.239 0.717 0.088 0.314-0.195 0.761-1.44 0.937-2.615 0.402-2.71-0.478-5.47-2.37-7.425-0.786-0.811-1.49-1.333-2.471-1.817-1.503-0.748-2.86-1.012-4.627-0.899z"></path>
<path d="M14.309 12.071c-1.754 0.277-3.282 1.194-4.325 2.603-1.641 2.2-1.685 5.275-0.107 7.551 0.415 0.604 1.283 1.433 1.892 1.811 2.1 1.308 4.797 1.308 6.897 0 0.604-0.377 1.471-1.207 1.886-1.811 1.578-2.276 1.534-5.35-0.107-7.55-1.207-1.628-2.999-2.565-5.011-2.634-0.415-0.013-0.924 0-1.125 0.031zM16.069 13.271c1.779 0.314 3.301 1.49 4.017 3.106 0.446 1.006 0.566 2.42 0.289 3.451-0.471 1.779-1.754 3.143-3.527 3.76-0.578 0.201-0.622 0.207-1.635 0.207s-1.056-0.006-1.635-0.207c-1.773-0.616-3.055-1.98-3.527-3.76-0.189-0.704-0.189-1.873-0.006-2.578 0.553-2.075 2.175-3.59 4.256-3.98 0.44-0.075 1.32-0.082 1.767 0z"></path>
<path d="M14.164 14.516c-1.371 0.371-2.414 1.364-2.886 2.741-0.239 0.698-0.251 1.716-0.038 2.42 0.56 1.804 2.119 2.961 3.973 2.961s3.414-1.157 3.973-2.961c0.119-0.384 0.145-0.604 0.138-1.195 0-0.635-0.025-0.786-0.195-1.264-0.434-1.257-1.352-2.175-2.609-2.615-0.635-0.226-1.697-0.264-2.358-0.088zM16.088 15.711c1.213 0.377 2.081 1.559 2.081 2.823-0.006 1.767-1.672 3.194-3.401 2.905-1.685-0.283-2.791-1.886-2.439-3.533 0.214-1 1.012-1.88 1.993-2.194 0.49-0.151 1.27-0.157 1.767 0z"></path>
<path d="M14.856 16.786c-0.534 0.107-0.949 0.434-1.207 0.956-0.44 0.88-0.107 1.905 0.773 2.358 0.264 0.138 0.409 0.17 0.792 0.17 0.402 0 0.522-0.025 0.811-0.182 0.88-0.484 1.195-1.465 0.754-2.345-0.365-0.736-1.132-1.113-1.924-0.956zM15.642 18.144c0.214 0.245 0.189 0.597-0.057 0.805-0.107 0.094-0.27 0.163-0.371 0.163s-0.264-0.069-0.371-0.163c-0.151-0.126-0.195-0.214-0.195-0.396 0-0.566 0.622-0.83 0.993-0.409z"></path>
<path d="M21.036 23.582c-0.22 0.258-0.214 0.522 0.019 0.754 0.138 0.132 0.245 0.182 0.415 0.182s0.277-0.050 0.415-0.182c0.233-0.233 0.239-0.497 0.019-0.754-0.132-0.163-0.207-0.195-0.434-0.195s-0.302 0.031-0.434 0.195z"></path>
</svg>
