<!-- Generated by IcoMoon.io -->
<svg version="1.1" xmlns="http://www.w3.org/2000/svg" width="32" height="32" viewBox="0 0 32 32">
<title>Bat</title>
<path d="M0.25-0.125h-0.063c0 0.063 0 0.063-0.063 0.063 0 0-0.063 0-0.063-0.063s0.063-0.125 0.063-0.125c0.063 0 0.063 0 0.063 0.063h0.063c0-0.063-0.063-0.125-0.125-0.125s-0.125 0.063-0.125 0.188c0 0.063 0.063 0.125 0.125 0.125s0.125-0.063 0.125-0.125zM0.125-0.188v0c0 0 0 0 0 0s-0.063 0-0.063 0v0h-0.063v0.188h0.063v-0.125c0 0 0.063-0.063 0.063-0.063s0 0 0 0zM0.188-0.125c0-0.063 0-0.063-0.063-0.063s-0.125 0-0.125 0.063c0 0.063 0.063 0.125 0.125 0.125 0 0 0.063 0 0.063-0.063h-0.063c0 0 0 0 0 0-0.063 0-0.063 0-0.063 0h0.125zM0.125-0.125h-0.063c0 0 0-0.063 0.063-0.063 0 0 0 0.063 0 0.063zM0.188 0v0c0 0 0 0 0-0.063v-0.063c0-0.063 0-0.063-0.063-0.063s-0.125 0-0.125 0.063h0.063c0-0.063 0-0.063 0.063-0.063 0 0 0 0 0 0.063 0 0 0 0 0 0h-0.063c0 0-0.063 0-0.063 0.063s0.063 0.063 0.063 0.063 0.063 0 0.063 0 0 0 0 0zM0.125-0.063c0 0 0 0 0 0-0.063 0-0.063 0-0.063 0s0 0 0.063 0v0c0-0.063 0-0.063 0-0.063zM0.125 0v-0.063c0 0 0 0 0 0-0.063 0-0.063 0-0.063 0v0c0 0.063 0 0.063 0 0.063 0.063 0 0.063 0 0.063 0zM0.188 0v-0.188c-0.063 0-0.063 0-0.063 0-0.063 0-0.125 0-0.125 0.063s0.063 0.125 0.125 0.125c0 0 0 0 0.063 0v0zM0.188-0.125c0 0.063-0.063 0.063-0.063 0.063-0.063 0-0.063 0-0.063-0.063 0 0 0-0.063 0.063-0.063 0 0 0.063 0.063 0.063 0.063zM0.25-0.125c0-0.063-0.063-0.063-0.125-0.063 0 0-0.063 0-0.063 0v-0.063h-0.063v0.25h0.063c0 0 0.063 0 0.063 0 0.063 0 0.125-0.063 0.125-0.125zM0.188-0.125c0 0.063-0.063 0.063-0.063 0.063s-0.063 0-0.063-0.063c0 0 0.063-0.063 0.063-0.063s0.063 0.063 0.063 0.063zM0.188-0.188h-0.063v0.125l-0.063-0.125h-0.063l0.063 0.188c0 0 0 0.063 0 0.063s0 0 0 0v0c0 0 0 0 0 0s0.063 0 0.063 0zM0.125-0.188v0h-0.063v-0.063c0 0 0 0 0.063 0 0 0 0 0 0 0v0c0 0 0 0-0.063 0 0 0 0 0 0 0v0.063zM0.188 0v-0.25h-0.063v0.25zM0.313 0v-0.125c0-0.063 0-0.063-0.063-0.063 0 0-0.063 0-0.063 0s0 0-0.063 0c0 0 0 0-0.063 0v0h-0.063v0.188h0.063v-0.125c0 0 0-0.063 0.063-0.063 0 0 0 0.063 0 0.063v0.125h0.063v-0.125c0 0 0-0.063 0.063-0.063 0 0 0 0.063 0 0.063v0.125zM0.063 0v-0.188h-0.063v0.188zM0.063-0.25v-0.063h-0.063v0.063zM0.188 0v-0.125c0-0.063 0-0.063-0.063-0.063 0 0 0 0-0.063 0v0h-0.063v0.188h0.063v-0.125c0 0 0.063-0.063 0.063-0.063s0.063 0.063 0.063 0.063v0.125zM0.188 0v-0.188c-0.063 0-0.063 0-0.063 0-0.063 0-0.125 0-0.125 0.063s0.063 0.125 0.125 0.125c0 0 0 0 0.063 0v0c0 0.063-0.063 0.063-0.063 0.063-0.063 0-0.063 0-0.063-0.063h-0.063c0 0.063 0.063 0.063 0.125 0.063s0.063 0 0.063-0.063zM0.188-0.125c0 0.063-0.063 0.063-0.063 0.063-0.063 0-0.063 0-0.063-0.063 0 0 0-0.063 0.063-0.063 0 0 0.063 0.063 0.063 0.063zM0.25-0.125c0-0.063-0.063-0.063-0.125-0.063s-0.125 0-0.125 0.063c0 0.063 0.063 0.125 0.125 0.125s0.125-0.063 0.125-0.125zM0.188-0.125c0 0.063-0.063 0.063-0.063 0.063-0.063 0-0.063 0-0.063-0.063 0 0 0-0.063 0.063-0.063 0 0 0.063 0.063 0.063 0.063zM0.125-0.188v0h-0.063v-0.063c0 0 0 0 0.063 0 0 0 0 0 0 0v0c0 0 0 0-0.063 0 0 0 0 0 0 0v0.063zM0.188 0v-0.125c0-0.063 0-0.063-0.063-0.063 0 0 0 0-0.063 0v-0.063h-0.063v0.25h0.063v-0.125c0 0 0.063-0.063 0.063-0.063s0 0.063 0 0.063v0.125zM0.25 0v-0.25h-0.063v0.188l-0.125-0.188h-0.063v0.25h0.063v-0.188l0.125 0.188zM0.188 0v-0.188h-0.063v0.125c0 0 0 0 0 0-0.063 0-0.063 0-0.063 0v-0.125h-0.063v0.125c0 0.063 0.063 0.063 0.063 0.063 0.063 0 0.063 0 0.063 0v0zM0.25-0.188c0-0.063-0.063-0.063-0.125-0.063h-0.125v0.25h0.063v-0.125h0.125c0 0 0.063 0 0.063-0.063zM0.188-0.188c0 0 0 0.063-0.063 0.063h-0.063v-0.125h0.063c0.063 0 0.063 0 0.063 0.063zM0.063 0.063v-0.25h-0.063v0.188c0 0.063 0 0.063 0 0.063s0 0 0 0v0c0 0 0 0 0.063 0 0 0 0 0 0 0zM0.063-0.25v-0.063h-0.063v0.063zM0.188-0.063h-0.063c0 0 0 0 0 0-0.063 0-0.063 0-0.063-0.063 0 0 0-0.063 0.063-0.063 0 0 0 0 0 0.063h0.063c0-0.063 0-0.063-0.063-0.063s-0.125 0-0.125 0.063c0 0.063 0.063 0.125 0.125 0.125s0.063 0 0.063-0.063zM17.125 9.625c0 0-2.25 0.813-2.313 0.813 0 0 0-2.188-2-4.063-2-1.938-4.75-2.5-5.438-2.375s1.063 0.938 1.375 2.438c0.313 1.625-1.313 2-0.938 2.375 0.313 0.438 1.75 1.25 2.063 2.5 0.375 1.313-1.125 2.375-0.75 2.688 0.313 0.313 1.25 0.938 1.375 2.063 0.188 1.063-1.063 2.688-0.75 3s2-0.938 3.063-0.75c1.063 0.125 1.688 1.063 2 1.438 0.375 0.313 1.438-1.25 2.688-0.813 1.313 0.375 2.063 1.813 2.438 2.125s0.875-1.25 2.375-1c1.563 0.313 2.313 2.063 2.5 1.375 0.125-0.688-0.5-3.438-2.313-5.438-1.938-1.938-4.125-1.938-4.125-2s0.813-2.313 0.813-2.313c-0.75 0.125-2.25-1.25-2.063-2.063z"></path>
</svg>
