<!-- Generated by IcoMoon.io -->
<svg version="1.1" xmlns="http://www.w3.org/2000/svg" width="32" height="32" viewBox="0 0 32 32">
<title>Bear</title>
<path d="M6.938 4.313l-1.938 0.625v2.313l0.813 0.938 0.813 0.875-0.625 0.75c-0.313 0.375-0.563 0.75-0.563 0.75s-0.25 1.75-0.438 3.875c-0.25 2.125-0.438 3.938-0.438 3.938 0 0.063 0.5 0.813 2.375 3.313l2.375 3.25 2 0.875c1.125 0.438 2 0.875 2 0.875 0.063 0 0.125 0.188 0.25 0.438l0.188 0.438 1.063 0.125 1 0.063 1-0.063 1-0.125 0.25-0.438c0.063-0.25 0.188-0.438 0.188-0.438s0.938-0.438 2.063-0.875l2-0.875 2.375-3.25c1.813-2.5 2.375-3.25 2.375-3.313 0 0-0.188-1.813-0.438-3.938s-0.438-3.875-0.438-3.875c0-0.063-0.375-0.5-1.063-1.375l-0.125-0.125 0.813-0.875 0.813-0.938v-2.313l-1.188-0.375c-0.625-0.25-1.5-0.563-1.938-0.688l-0.75-0.25-0.5 0.75c-0.313 0.438-0.563 0.75-0.563 0.75s-0.063 0-0.063-0.063l-0.063-0.063h-11.5l-0.125 0.125-0.563-0.75c-0.25-0.375-0.5-0.688-0.5-0.688 0-0.063-0.875 0.25-1.938 0.625zM8.938 5.25c0.375 0.438 0.438 0.563 0.375 0.563 0 0.063-0.313 0.375-0.375 0.438 0 0.063-0.125-0.125-0.25-0.313-0.188-0.25-0.188-0.313-0.25-0.313-0.063 0.063-1.188 0.375-1.438 0.5l-0.25 0.063v1.063l0.375 0.375c0.188 0.25 0.375 0.438 0.375 0.438-0.063 0-0.313 0.375-0.313 0.375s-0.313-0.375-0.688-0.75l-0.688-0.75v-1.375l1.375-0.5c0.688-0.188 1.313-0.438 1.313-0.438 0.063 0 0.25 0.313 0.438 0.625zM24.438 5.063c0.75 0.25 1.313 0.438 1.375 0.438 0 0 0 0.375 0 0.75v0.688l-0.688 0.75c-0.375 0.375-0.688 0.75-0.688 0.75s-0.313-0.375-0.313-0.375c0 0 0.188-0.188 0.375-0.438l0.313-0.375v-1.063l-0.625-0.188c-1-0.375-1.063-0.375-1.063-0.375-0.188 0.313-0.438 0.688-0.438 0.688-0.063-0.063-0.438-0.5-0.438-0.5 0.063-0.063 0.813-1.188 0.813-1.188 0.063 0 0.625 0.25 1.375 0.438zM21.188 5.813c0 0.063 4.063 4.875 4.188 5 0 0.063 0.813 7 0.813 7.313 0 0.063-0.063 0.188-2.188 3.125l-2.25 3-1.063 0.5c-0.563 0.25-1.063 0.438-1.063 0.438s0.25-0.313 0.563-0.688c0.313-0.375 0.563-0.75 0.563-0.75s-0.375-1.688-0.938-3.688c-0.5-2-0.938-3.688-0.938-3.688 0-0.063 0.25-0.063 0.875-0.063h0.938l0.75-1.125c0.438-0.563 0.813-1.125 0.875-1.125 0-0.063 0-0.063-1.563-0.063h-1.563l-0.5 0.688c-0.25 0.375-0.5 0.75-0.625 0.938l-0.188 0.25 1 3.813c0.563 2.125 1 3.813 1 3.875 0 0-0.438 0.5-0.938 1.063-0.625 0.75-0.875 1-0.938 1 0 0-0.438-0.063-0.875-0.125-0.5-0.063-0.875-0.125-0.875-0.125s0-0.063 0-0.188v-0.25h0.688c0.563 0 0.75 0 0.75 0s0-0.688 0.063-1.438c0-0.813 0.063-1.5 0.063-1.563v-0.063h-4v0.063c0 0.063 0 0.75 0.063 1.563 0 0.75 0.063 1.438 0.063 1.438s0.125 0 0.688 0h0.75v0.25c0 0.125 0 0.188 0 0.188s-0.375 0.063-0.875 0.125c-0.5 0.063-0.875 0.125-0.938 0.125 0 0-0.25-0.25-0.938-1-0.5-0.563-0.875-1.063-0.875-1.063 0-0.063 0.438-1.75 1-3.875l0.938-3.813-0.125-0.25c-0.125-0.188-0.438-0.563-0.688-0.938l-0.438-0.688h-1.563c-1.563 0-1.563 0-1.563 0.063 0 0 0.375 0.563 0.813 1.125l0.813 1.125h0.875c0.688 0 0.875 0 0.875 0.063 0 0-0.375 1.688-0.938 3.688-0.5 2-0.938 3.688-0.938 3.688s0.313 0.375 0.625 0.75c0.313 0.375 0.563 0.688 0.563 0.688s-0.5-0.188-1.063-0.438l-1.125-0.5-2.188-3c-2.125-2.938-2.25-3.063-2.188-3.125 0-0.313 0.813-7.25 0.813-7.313 0.125-0.125 4.125-4.938 4.188-5 0 0 1.125 0 5.375 0s5.313 0 5.375 0zM8.25 6.813l0.125 0.125-0.125 0.188c-0.063 0.063-0.125 0.188-0.188 0.188l-0.063 0.063-0.188-0.188c-0.188-0.188-0.188-0.25-0.188-0.313s0-0.063 0.25-0.188c0.125 0 0.25-0.063 0.25-0.063s0.063 0.063 0.125 0.188zM23.75 6.688c0.25 0.125 0.25 0.125 0.25 0.188 0 0 0 0.063-0.063 0.125s-0.313 0.375-0.375 0.375c0 0-0.375-0.438-0.375-0.438 0-0.063 0 0 0.063 0 0 0 0 0 0.125-0.125 0.063-0.125 0.125-0.188 0.125-0.188s0.125 0.063 0.25 0.063zM12.188 15.125c0.125 0.188 0.25 0.313 0.25 0.313 0 0.063-0.063 0.063-0.5 0.063-0.313 0-0.563 0-0.563 0 0-0.063-0.438-0.625-0.438-0.625s0.25-0.063 0.563-0.063h0.5zM20.688 14.875c0 0-0.438 0.563-0.438 0.625-0.063 0-0.313 0-0.563 0-0.438 0-0.5 0-0.5-0.063 0 0 0.125-0.125 0.188-0.313l0.25-0.313h0.5c0.313 0 0.563 0.063 0.563 0.063zM16.938 22.688c0 0 0 0.313-0.063 0.688 0 0.375 0 0.688 0 0.688v0.063h-1.063c-1.063 0-1.063 0-1.063-0.063-0.063-0.875-0.063-1.375-0.063-1.375s2.25 0 2.25 0zM16.625 26.313c0.438 0.063 0.813 0.125 0.813 0.125s0 0.063-0.063 0.188l-0.063 0.125-0.75 0.063-0.75 0.125-0.75-0.125-0.75-0.063-0.063-0.125c-0.063-0.125-0.063-0.188-0.063-0.188 0-0.063 1.5-0.25 1.563-0.25s0.438 0.063 0.875 0.125z"></path>
</svg>
