<!-- Generated by IcoMoon.io -->
<svg version="1.1" xmlns="http://www.w3.org/2000/svg" width="26" height="32" viewBox="0 0 26 32">
<title>Beaver</title>
<path d="M4.224 7.398c-0.179 0.026-0.64 0.512-0.666 0.922l0.819-0.358c0 0 0.026-0.589-0.154-0.563zM18.278 12.083c0.026-0.102 0.026-0.205 0.026-0.307 0.102-2.227-0.998-4.582-3.251-5.786s-4.506-0.205-5.734 1.126c-1.229 1.331-3.891 1.126-4.352 1.126-0.435 0-2.458 0.794-2.662 0.947-0.154 0.128-1.178 1.024-1.638 1.408-0.128 0.102-0.179 0.282-0.154 0.461 0.077 0.384 0.384 1.126 0.742 1.894 0.538 1.126 3.354 0.947 3.354 0.947-0.794 0.384-1.69 0.307-1.69 0.307s0.205 0.486 0.358 1.050c0.154 0.538 0.589 1.741 0.205 1.818-0.384 0.102-0.742 0.896-0.742 0.896l0.435-0.102-0.358 0.384c0 0 0.589 0.102 1.178-0.102s0.486-0.947 0.589-1.178c0.102-0.256 0.205-1.050 0.589-1.229 0.384-0.205 1.485 0.742 1.485 0.742 0.307 0 1.459-1.459 1.459-1.459l-0.563 1.075c0 0-0.205 0.41-0.333 0.614-0.384 0.589-0.384 1.126-1.485 1.101-0.845-0.026-0.845 1.254-0.691 0.947 0.282-0.563 0.717-0.486 0.717-0.486s0 0-0.384 0.358 0 0.896 0 0.896 0 0 0.154-0.307c0.154-0.307 0.998-0.589 0.998-0.589s0 0-0.384 0.256-0.307 0.691-0.307 0.691 0.307-0.256 0.742-0.358c0.435-0.102 0.742-1.126 1.869-1.741 1.126-0.589 1.69-2.611 1.69-2.611s0 0 0 0.845-0.998 1.741-0.998 1.741c1.792 0.717 3.098 0.282 3.712 0.051 0.051-0.128 0.179-0.666 0.026-0.896-0.179-0.256-0.64-1.638-0.23-2.944s1.331-2.355 1.331-2.355-2.074 3.251-0.742 5.325c0 0 0.154 0.384 0 0.819-0.051 0.256-1.126 0.666-1.715 0.845-0.64 0.205-1.382 0.794-1.075 0.896s0.358-0.051 0.486 0.051c0.154 0.102 0.102 0.64 0.435 0.486 0.358-0.154 0.947 0 0.896 0.358s0.845-0.307 0.845-0.307 1.28-1.126 1.869-1.382c0.589-0.256 0.691-0.307 0.845-1.229 0.051-0.282 0.282-0.691 0.589-1.178 1.536 1.101 5.222 0.102 5.222 0.102s-0.717 0-2.022-0.384c-1.357-0.435-1.382-2.714-1.331-3.635zM3.046 10.547c-0.205 0-0.358-0.128-0.358-0.307 0-0.154 0.154-0.307 0.358-0.307s0.358 0.128 0.358 0.307c0 0.179-0.154 0.307-0.358 0.307zM6.963 9.933c-0.077 0.563-0.845 0.435-0.845 0.435l0.23-0.256-0.486-0.307 0.333-0.154-0.589-0.307c0 0 0.358-0.666 0.819-0.563 0.435 0.154 0.614 0.589 0.538 1.152zM23.245 13.722c-0.794-0.154-2.97-0.026-4.454 0.077 0 0 0 1.254 1.101 1.587 1.075 0.358 2.022 0.486 3.2 0.205 1.178-0.307 1.818-0.256 1.971-0.845 0.154-0.563-1.024-0.87-1.818-1.024z"></path>
</svg>
