<!-- Generated by IcoMoon.io -->
<svg version="1.1" xmlns="http://www.w3.org/2000/svg" width="32" height="32" viewBox="0 0 32 32">
<title>Bee</title>
<path d="M26.375 11.5l-4.75-4.688c-0.063-2-1.125-3.875-2.875-4.875l1.313-1.313-1.125-1.125-1.813 1.813c-0.375-0.063-0.75-0.125-1.125-0.125s-0.75 0.063-1.188 0.125l-1.813-1.813-1.125 1.125 1.313 1.313c-1.688 1-2.75 2.875-2.813 4.875l-4.75 4.688c-1.5 1.563-1.5 4.063 0.063 5.625 1.5 1.563 4 1.563 5.563 0.063l0.125-0.125c0.813 1.875 2.188 3.438 3.875 4.5l0.75 0.438 0.75-0.438c1.688-1.063 3.063-2.625 3.875-4.5l0.125 0.125c1 1 2.5 1.438 3.875 1.063s2.5-1.438 2.875-2.813c0.313-1.438-0.063-2.938-1.125-3.938zM12.188 14.813c-0.063-0.25-0.063-0.438-0.125-0.688-0.063-0.313-0.063-0.625-0.063-0.938h8c0 0.313 0 0.625-0.063 0.938-0.063 0.188-0.125 0.438-0.188 0.688zM16 2.813c2.188 0 4 1.75 4 4v1.563h-8v-1.563c0-1.063 0.438-2.063 1.188-2.813s1.75-1.188 2.813-1.188zM20 11.625h-8v-1.625h8zM10.125 16.063c-0.938 0.938-2.438 0.938-3.375 0s-0.938-2.5 0-3.438l3.625-3.625v4.188c0 0.75 0.125 1.563 0.375 2.25zM16 20.188c-1.438-0.938-2.5-2.25-3.188-3.813h6.375c-0.688 1.563-1.813 2.875-3.188 3.813zM25.25 16.063c-0.938 0.938-2.438 0.938-3.375 0l-0.625-0.625c0.25-0.75 0.313-1.5 0.313-2.25v-4.188l3.688 3.625c0.938 0.938 0.938 2.5 0 3.438z"></path>
</svg>
