<!-- Generated by IcoMoon.io -->
<svg version="1.1" xmlns="http://www.w3.org/2000/svg" width="32" height="32" viewBox="0 0 32 32">
<title>beehive</title>
<path d="M22.75 19.125l-1.75 1.125v1.75l1.75 1.125 1.75-1.125v-1.75l-0.875-0.563zM13.75 19.125l-1.75 1.125v1.75l1.75 1.125 1.75-1.125v-1.75l-0.875-0.563zM18.25 15.625l1.75-1.125v-1.75l-1.75-1.125-1.75 1.125v1.75l0.875 0.563zM22.25 18.25v-1.75l-1.75-1.125-1.75 1.125v1.75l1.75 1.125 0.875-0.563zM18.25 19.125l-1.75 1.125v1.75l1.75 1.125 1.75-1.125v-1.75l-0.875-0.563zM13.75 15.625l1.75-1.125v-1.75l-1.75-1.125-1.75 1.125v1.75l0.875 0.563zM17.75 18.25v-1.75l-1.75-1.125-1.75 1.125v1.75l1.75 1.125 0.875-0.563zM13.25 18.25v-1.75l-1.75-1.125-1.75 1.125v1.75l1.75 1.125 0.875-0.563zM31.5 26.25h-2.75c1 0 1.813-0.688 1.938-1.688 0.188-0.938-0.375-1.875-1.25-2.188 0.313-0.5 0.375-1.188 0.188-1.75s-0.625-1.063-1.188-1.25c0.313-0.5 0.375-1.188 0.188-1.75s-0.625-1.063-1.188-1.25c0.313-0.5 0.375-1.188 0.188-1.75s-0.625-1.063-1.188-1.25c0.375-0.625 0.438-1.438 0.063-2.063-0.313-0.625-1-1.063-1.75-1.063v0c0.313-0.625 0.313-1.375 0-2-0.375-0.625-1.063-1-1.75-1v0c0.313-0.625 0.313-1.375 0-2-0.375-0.625-1.063-1-1.75-1 0-1.063-0.813-1.938-1.875-2-0.438-1.313-1.813-2.25-3.375-2.25s-2.938 0.938-3.375 2.25c-1.063 0.063-1.875 0.938-1.875 2-0.688 0-1.375 0.375-1.75 1-0.313 0.625-0.313 1.375 0 2v0c-0.688 0-1.375 0.375-1.75 1-0.313 0.625-0.313 1.375 0 2v0c-0.75 0-1.438 0.438-1.75 1.063-0.375 0.625-0.313 1.438 0.063 2.063-0.563 0.188-1 0.688-1.188 1.25s-0.125 1.25 0.188 1.75c-0.563 0.188-1 0.688-1.188 1.25s-0.125 1.25 0.188 1.75c-0.563 0.188-1 0.688-1.188 1.25s-0.125 1.25 0.188 1.75c-0.875 0.313-1.438 1.25-1.25 2.188 0.125 1 0.938 1.688 1.938 1.688h-2.75c-0.25 0-0.5 0.25-0.5 0.5s0.25 0.5 0.5 0.5h1v4.25c0 0.25 0.25 0.5 0.5 0.5s0.5-0.25 0.5-0.5v-4.25h27v4.25c0 0.25 0.25 0.5 0.5 0.5s0.5-0.25 0.5-0.5v-4.25h1c0.25 0 0.5-0.25 0.5-0.5s-0.25-0.5-0.5-0.5zM26.625 20.25l-0.063-0.063zM26.5 20.188v0zM26.75 20.25c0.063 0 0.125 0 0.188 0 0 0 0.063 0 0.063 0h-0.25c-0.063 0-0.063 0-0.125 0 0.063 0 0.063 0 0.125 0zM27.25 19.125l-0.063 0.063c-0.125 0.063-0.313 0.063-0.438 0.063-0.25 0-0.5 0.25-0.5 0.5 0 0 0 0.063 0 0.063s0 0 0-0.063l-0.75 0.5v1.75l1.75 1.125 0.125-0.063c0.063 0.125 0.188 0.188 0.375 0.188 0.063 0 0.125 0 0.188 0s0.063 0 0.125 0h0.688c0.063 0 0.063 0 0.125 0l-1.125 0.75v1.25h-1v-1.25l-1.75-1.125-1.75 1.125v1.25h-1v-1.25l-1.75-1.125-1.75 1.125v1.25h-1v-1.25l-1.75-1.125-2.25 1.5-2.75-1.875v-2.25l-2.25-1.5v-2.75l2.25-1.5v-2.25l2.75-1.875 2.25 1.5 2.25-1.5 2.75 1.875v2.25l1.75 1.125 2.125-1.375h0.063c0 0 0.063 0 0.063 0h0.125l1.625 1.063c0 0.375-0.25 0.688-0.563 0.813l-1.188-0.75-1.75 1.125v1.75l1.75 1.125 1.75-1.125v-1c0.438 0 0.813 0.313 0.938 0.75s-0.063 0.875-0.438 1.125zM26.438 20.125h-0.063zM26.375 20.063c0 0-0.063 0-0.063 0 0.063 0 0.063 0 0.063 0zM26.313 20c0 0 0 0 0-0.063 0 0.063 0 0.063 0 0.063zM26.25 19.938c0-0.063 0-0.063 0-0.063s0 0 0 0.063zM27.25 22.75c0 0.063 0 0.063 0 0.125 0-0.063 0-0.063 0-0.125zM27.25 22.875c0 0 0 0.063 0.063 0.063-0.063 0-0.063-0.063-0.063-0.063zM27.313 22.938c0 0.063 0 0.063 0 0.063s0 0 0-0.063zM15.75 28.75h-11.75c-0.25 0-0.5 0.25-0.5 0.5s0.25 0.5 0.5 0.5h11.75c0.25 0 0.5-0.25 0.5-0.5s-0.25-0.5-0.5-0.5zM12.5 31c0 0.25 0.25 0.5 0.5 0.5h5.5c0.25 0 0.5-0.25 0.5-0.5s-0.25-0.5-0.5-0.5h-5.5c-0.25 0-0.5 0.25-0.5 0.5zM26.5 30.25c0.25 0 0.5-0.25 0.5-0.5s-0.25-0.5-0.5-0.5h-6.25c-0.25 0-0.5 0.25-0.5 0.5s0.25 0.5 0.5 0.5z"></path>
</svg>
