<?xml version="1.0" encoding="UTF-8"?>
<svg width="700pt" height="700pt" version="1.1" viewBox="0 0 700 700" xmlns="http://www.w3.org/2000/svg" xmlns:xlink="http://www.w3.org/1999/xlink">
 <defs>
  <symbol id="r" overflow="visible">
   <path d="m18.766-1.125c-0.96875 0.5-1.9805 0.875-3.0312 1.125-1.043 0.25781-2.1367 0.39062-3.2812 0.39062-3.3984 0-6.0898-0.94531-8.0781-2.8438-1.9922-1.9062-2.9844-4.4844-2.9844-7.7344 0-3.2578 0.99219-5.8359 2.9844-7.7344 1.9883-1.9062 4.6797-2.8594 8.0781-2.8594 1.1445 0 2.2383 0.13281 3.2812 0.39062 1.0508 0.25 2.0625 0.625 3.0312 1.125v4.2188c-0.98047-0.65625-1.9453-1.1406-2.8906-1.4531-0.94922-0.3125-1.9492-0.46875-3-0.46875-1.875 0-3.3516 0.60547-4.4219 1.8125-1.0742 1.1992-1.6094 2.8555-1.6094 4.9688 0 2.1055 0.53516 3.7617 1.6094 4.9688 1.0703 1.1992 2.5469 1.7969 4.4219 1.7969 1.0508 0 2.0508-0.14844 3-0.45312 0.94531-0.3125 1.9102-0.80078 2.8906-1.4688z"/>
  </symbol>
  <symbol id="d" overflow="visible">
   <path d="m13.734-11.141c-0.4375-0.19531-0.87109-0.34375-1.2969-0.4375-0.41797-0.10156-0.83984-0.15625-1.2656-0.15625-1.2617 0-2.2305 0.40625-2.9062 1.2188-0.67969 0.80469-1.0156 1.9531-1.0156 3.4531v7.0625h-4.8906v-15.312h4.8906v2.5156c0.625-1 1.3438-1.7266 2.1562-2.1875 0.82031-0.46875 1.8008-0.70312 2.9375-0.70312 0.16406 0 0.34375 0.011719 0.53125 0.03125 0.19531 0.011719 0.47656 0.039062 0.84375 0.078125z"/>
  </symbol>
  <symbol id="a" overflow="visible">
   <path d="m17.641-7.7031v1.4062h-11.453c0.125 1.1484 0.53906 2.0078 1.25 2.5781 0.70703 0.57422 1.7031 0.85938 2.9844 0.85938 1.0312 0 2.082-0.14844 3.1562-0.45312 1.082-0.3125 2.1914-0.77344 3.3281-1.3906v3.7656c-1.1562 0.4375-2.3125 0.76562-3.4688 0.98438-1.1562 0.22656-2.3125 0.34375-3.4688 0.34375-2.7734 0-4.9297-0.70312-6.4688-2.1094-1.5312-1.4062-2.2969-3.3789-2.2969-5.9219 0-2.5 0.75391-4.4609 2.2656-5.8906 1.5078-1.4375 3.582-2.1562 6.2188-2.1562 2.4062 0 4.332 0.73047 5.7812 2.1875 1.4453 1.4492 2.1719 3.3828 2.1719 5.7969zm-5.0312-1.625c0-0.92578-0.27344-1.6719-0.8125-2.2344-0.54297-0.57031-1.25-0.85938-2.125-0.85938-0.94922 0-1.7188 0.26562-2.3125 0.79688s-0.96484 1.2969-1.1094 2.2969z"/>
  </symbol>
  <symbol id="c" overflow="visible">
   <path d="m9.2188-6.8906c-1.0234 0-1.793 0.17188-2.3125 0.51562-0.51172 0.34375-0.76562 0.85547-0.76562 1.5312 0 0.625 0.20703 1.1172 0.625 1.4688 0.41406 0.34375 0.98828 0.51562 1.7188 0.51562 0.92578 0 1.7031-0.32812 2.3281-0.98438 0.63281-0.66406 0.95312-1.4922 0.95312-2.4844v-0.5625zm7.4688-1.8438v8.7344h-4.9219v-2.2656c-0.65625 0.92969-1.3984 1.6055-2.2188 2.0312-0.82422 0.41406-1.8242 0.625-3 0.625-1.5859 0-2.8711-0.45703-3.8594-1.375-0.99219-0.92578-1.4844-2.1289-1.4844-3.6094 0-1.7891 0.61328-3.1016 1.8438-3.9375 1.2383-0.84375 3.1797-1.2656 5.8281-1.2656h2.8906v-0.39062c0-0.76953-0.30859-1.332-0.92188-1.6875-0.61719-0.36328-1.5703-0.54688-2.8594-0.54688-1.0547 0-2.0312 0.10547-2.9375 0.3125-0.89844 0.21094-1.7305 0.52344-2.5 0.9375v-3.7344c1.0391-0.25 2.0859-0.44141 3.1406-0.57812 1.0625-0.13281 2.125-0.20312 3.1875-0.20312 2.7578 0 4.75 0.54688 5.9688 1.6406 1.2266 1.0859 1.8438 2.8555 1.8438 5.3125z"/>
  </symbol>
  <symbol id="b" overflow="visible">
   <path d="m7.7031-19.656v4.3438h5.0469v3.5h-5.0469v6.5c0 0.71094 0.14062 1.1875 0.42188 1.4375s0.83594 0.375 1.6719 0.375h2.5156v3.5h-4.1875c-1.9375 0-3.3125-0.39844-4.125-1.2031-0.80469-0.8125-1.2031-2.1797-1.2031-4.1094v-6.5h-2.4219v-3.5h2.4219v-4.3438z"/>
  </symbol>
  <symbol id="g" overflow="visible">
   <path d="m12.766-13.078v-8.2031h4.9219v21.281h-4.9219v-2.2188c-0.66797 0.90625-1.4062 1.5703-2.2188 1.9844s-1.7578 0.625-2.8281 0.625c-1.8867 0-3.4336-0.75-4.6406-2.25-1.2109-1.5-1.8125-3.4258-1.8125-5.7812 0-2.3633 0.60156-4.2969 1.8125-5.7969 1.207-1.5 2.7539-2.25 4.6406-2.25 1.0625 0 2 0.21484 2.8125 0.64062 0.82031 0.42969 1.5664 1.0859 2.2344 1.9688zm-3.2188 9.9219c1.0391 0 1.8359-0.37891 2.3906-1.1406 0.55078-0.76953 0.82812-1.8828 0.82812-3.3438 0-1.457-0.27734-2.5664-0.82812-3.3281-0.55469-0.76953-1.3516-1.1562-2.3906-1.1562-1.043 0-1.8398 0.38672-2.3906 1.1562-0.55469 0.76172-0.82812 1.8711-0.82812 3.3281 0 1.4609 0.27344 2.5742 0.82812 3.3438 0.55078 0.76172 1.3477 1.1406 2.3906 1.1406z"/>
  </symbol>
  <symbol id="j" overflow="visible">
   <path d="m10.5-3.1562c1.0508 0 1.8516-0.37891 2.4062-1.1406 0.55078-0.76953 0.82812-1.8828 0.82812-3.3438 0-1.457-0.27734-2.5664-0.82812-3.3281-0.55469-0.76953-1.3555-1.1562-2.4062-1.1562-1.0547 0-1.8594 0.38672-2.4219 1.1562-0.55469 0.77344-0.82812 1.8828-0.82812 3.3281 0 1.4492 0.27344 2.5586 0.82812 3.3281 0.5625 0.77344 1.3672 1.1562 2.4219 1.1562zm-3.25-9.9219c0.67578-0.88281 1.4219-1.5391 2.2344-1.9688 0.82031-0.42578 1.7656-0.64062 2.8281-0.64062 1.8945 0 3.4453 0.75 4.6562 2.25 1.207 1.5 1.8125 3.4336 1.8125 5.7969 0 2.3555-0.60547 4.2812-1.8125 5.7812-1.2109 1.5-2.7617 2.25-4.6562 2.25-1.0625 0-2.0078-0.21094-2.8281-0.625-0.8125-0.42578-1.5586-1.0859-2.2344-1.9844v2.2188h-4.8906v-21.281h4.8906z"/>
  </symbol>
  <symbol id="i" overflow="visible">
   <path d="m0.34375-15.312h4.8906l4.125 10.391 3.5-10.391h4.8906l-6.4375 16.766c-0.64844 1.6953-1.4023 2.8828-2.2656 3.5625-0.86719 0.6875-2 1.0312-3.4062 1.0312h-2.8438v-3.2188h1.5312c0.83203 0 1.4375-0.13672 1.8125-0.40625 0.38281-0.26172 0.67969-0.73047 0.89062-1.4062l0.14062-0.42188z"/>
  </symbol>
  <symbol id="f" overflow="visible">
   <path d="m17.75-9.3281v9.3281h-4.9219v-7.1094c0-1.3438-0.03125-2.2656-0.09375-2.7656s-0.16797-0.86719-0.3125-1.1094c-0.1875-0.3125-0.44922-0.55469-0.78125-0.73438-0.32422-0.17578-0.69531-0.26562-1.1094-0.26562-1.0234 0-1.8242 0.39844-2.4062 1.1875-0.58594 0.78125-0.875 1.8711-0.875 3.2656v7.5312h-4.8906v-21.281h4.8906v8.2031c0.73828-0.88281 1.5195-1.5391 2.3438-1.9688 0.83203-0.42578 1.75-0.64062 2.75-0.64062 1.7695 0 3.1133 0.54688 4.0312 1.6406 0.91406 1.0859 1.375 2.6562 1.375 4.7188z"/>
  </symbol>
  <symbol id="h" overflow="visible">
   <path d="m16.547-12.766c0.61328-0.94531 1.3477-1.6719 2.2031-2.1719 0.85156-0.5 1.7891-0.75 2.8125-0.75 1.7578 0 3.0977 0.54688 4.0156 1.6406 0.92578 1.0859 1.3906 2.6562 1.3906 4.7188v9.3281h-4.9219v-7.9844-0.35938c0.007813-0.13281 0.015625-0.32031 0.015625-0.5625 0-1.082-0.16406-1.8633-0.48438-2.3438-0.3125-0.48828-0.82422-0.73438-1.5312-0.73438-0.92969 0-1.6484 0.38672-2.1562 1.1562-0.51172 0.76172-0.77344 1.8672-0.78125 3.3125v7.5156h-4.9219v-7.9844c0-1.6953-0.14844-2.7852-0.4375-3.2656-0.29297-0.48828-0.8125-0.73438-1.5625-0.73438-0.9375 0-1.6641 0.38672-2.1719 1.1562-0.51172 0.76172-0.76562 1.8594-0.76562 3.2969v7.5312h-4.9219v-15.312h4.9219v2.2344c0.60156-0.86328 1.2891-1.5156 2.0625-1.9531 0.78125-0.4375 1.6406-0.65625 2.5781-0.65625 1.0625 0 2 0.25781 2.8125 0.76562 0.8125 0.51172 1.4258 1.2305 1.8438 2.1562z"/>
  </symbol>
  <symbol id="q" overflow="visible">
   <path d="m12.422-21.281v3.2188h-2.7031c-0.6875 0-1.1719 0.125-1.4531 0.375-0.27344 0.25-0.40625 0.6875-0.40625 1.3125v1.0625h4.1875v3.5h-4.1875v11.812h-4.8906v-11.812h-2.4375v-3.5h2.4375v-1.0625c0-1.6641 0.46094-2.8984 1.3906-3.7031 0.92578-0.80078 2.3672-1.2031 4.3281-1.2031z"/>
  </symbol>
  <symbol id="e" overflow="visible">
   <path d="m9.6406-12.188c-1.0859 0-1.9141 0.39062-2.4844 1.1719-0.57422 0.78125-0.85938 1.9062-0.85938 3.375s0.28516 2.5938 0.85938 3.375c0.57031 0.77344 1.3984 1.1562 2.4844 1.1562 1.0625 0 1.875-0.38281 2.4375-1.1562 0.57031-0.78125 0.85938-1.9062 0.85938-3.375s-0.28906-2.5938-0.85938-3.375c-0.5625-0.78125-1.375-1.1719-2.4375-1.1719zm0-3.5c2.6328 0 4.6914 0.71484 6.1719 2.1406 1.4766 1.418 2.2188 3.3867 2.2188 5.9062 0 2.5117-0.74219 4.4805-2.2188 5.9062-1.4805 1.418-3.5391 2.125-6.1719 2.125-2.6484 0-4.7148-0.70703-6.2031-2.125-1.4922-1.4258-2.2344-3.3945-2.2344-5.9062 0-2.5195 0.74219-4.4883 2.2344-5.9062 1.4883-1.4258 3.5547-2.1406 6.2031-2.1406z"/>
  </symbol>
  <symbol id="p" overflow="visible">
   <path d="m2.5781-20.406h5.875l7.4219 14v-14h4.9844v20.406h-5.875l-7.4219-14v14h-4.9844z"/>
  </symbol>
  <symbol id="o" overflow="visible">
   <path d="m2.1875-5.9688v-9.3438h4.9219v1.5312c0 0.83594-0.007813 1.875-0.015625 3.125-0.011719 1.25-0.015625 2.0859-0.015625 2.5 0 1.2422 0.03125 2.1328 0.09375 2.6719 0.070313 0.54297 0.17969 0.93359 0.32812 1.1719 0.20703 0.32422 0.47266 0.57422 0.79688 0.75 0.32031 0.16797 0.69141 0.25 1.1094 0.25 1.0195 0 1.8203-0.39062 2.4062-1.1719 0.58203-0.78125 0.875-1.8672 0.875-3.2656v-7.5625h4.8906v15.312h-4.8906v-2.2188c-0.74219 0.89844-1.5234 1.5586-2.3438 1.9844-0.82422 0.41406-1.7344 0.625-2.7344 0.625-1.7617 0-3.1055-0.53906-4.0312-1.625-0.92969-1.082-1.3906-2.6602-1.3906-4.7344z"/>
  </symbol>
  <symbol id="n" overflow="visible">
   <path d="m17.75-9.3281v9.3281h-4.9219v-7.1406c0-1.3203-0.03125-2.2344-0.09375-2.7344s-0.16797-0.86719-0.3125-1.1094c-0.1875-0.3125-0.44922-0.55469-0.78125-0.73438-0.32422-0.17578-0.69531-0.26562-1.1094-0.26562-1.0234 0-1.8242 0.39844-2.4062 1.1875-0.58594 0.78125-0.875 1.8711-0.875 3.2656v7.5312h-4.8906v-15.312h4.8906v2.2344c0.73828-0.88281 1.5195-1.5391 2.3438-1.9688 0.83203-0.42578 1.75-0.64062 2.75-0.64062 1.7695 0 3.1133 0.54688 4.0312 1.6406 0.91406 1.0859 1.375 2.6562 1.375 4.7188z"/>
  </symbol>
  <symbol id="m" overflow="visible">
   <path d="m2.5781-20.406h8.7344c2.5938 0 4.582 0.57812 5.9688 1.7344 1.3945 1.1484 2.0938 2.7891 2.0938 4.9219 0 2.1367-0.69922 3.7812-2.0938 4.9375-1.3867 1.1562-3.375 1.7344-5.9688 1.7344h-3.4844v7.0781h-5.25zm5.25 3.8125v5.7031h2.9219c1.0195 0 1.8047-0.25 2.3594-0.75 0.5625-0.5 0.84375-1.2031 0.84375-2.1094 0-0.91406-0.28125-1.6172-0.84375-2.1094-0.55469-0.48828-1.3398-0.73438-2.3594-0.73438z"/>
  </symbol>
  <symbol id="l" overflow="visible">
   <path d="m2.3594-15.312h4.8906v15.031c0 2.0508-0.49609 3.6172-1.4844 4.7031-0.98047 1.082-2.4062 1.625-4.2812 1.625h-2.4219v-3.2188h0.85938c0.92578 0 1.5625-0.21094 1.9062-0.625 0.35156-0.41797 0.53125-1.2461 0.53125-2.4844zm0-5.9688h4.8906v4h-4.8906z"/>
  </symbol>
  <symbol id="k" overflow="visible">
   <path d="m14.719-14.828v3.9844c-0.65625-0.45703-1.3242-0.79688-2-1.0156-0.66797-0.21875-1.3594-0.32812-2.0781-0.32812-1.3672 0-2.4336 0.40234-3.2031 1.2031-0.76172 0.79297-1.1406 1.9062-1.1406 3.3438 0 1.4297 0.37891 2.543 1.1406 3.3438 0.76953 0.79297 1.8359 1.1875 3.2031 1.1875 0.75781 0 1.4844-0.10938 2.1719-0.32812 0.6875-0.22656 1.3203-0.56641 1.9062-1.0156v4c-0.76172 0.28125-1.5391 0.48828-2.3281 0.625-0.78125 0.14453-1.5742 0.21875-2.375 0.21875-2.7617 0-4.9219-0.70703-6.4844-2.125-1.5547-1.4141-2.3281-3.3828-2.3281-5.9062 0-2.5312 0.77344-4.5039 2.3281-5.9219 1.5625-1.4141 3.7227-2.125 6.4844-2.125 0.80078 0 1.5938 0.074219 2.375 0.21875 0.78125 0.13672 1.5547 0.35156 2.3281 0.64062z"/>
  </symbol>
 </defs>
 <g>
  <path d="m134.4 490c0 3.0938 2.5039 5.6016 5.6016 5.6016h84c3.0938 0 5.6016-2.5078 5.6016-5.6016 0-19.074-11.305-35.52-27.543-43.105 8.1992-6.1328 13.543-15.891 13.543-26.895 0-6.1562-1.6914-11.914-4.5938-16.879 15.332 11.293 32.441 20.281 50.82 26.523 2.0977 6.9805 6.4141 12.984 12.117 17.25-16.238 7.5859-27.547 24.031-27.547 43.105 0 3.0938 2.5039 5.6016 5.6016 5.6016h84c3.0938 0 5.6016-2.5078 5.6016-5.6016 0-19.074-11.305-35.52-27.543-43.105 2.7539-2.0586 5.1797-4.5195 7.1914-7.3125 0.25 0 0.5 0.019531 0.75 0.019531 17.965 0 35.68-2.5625 52.68-7.5312 2.2969 5.9453 6.2344 11.066 11.262 14.824-16.234 7.5859-27.543 24.031-27.543 43.105 0 3.0938 2.5039 5.6016 5.6016 5.6016h84c3.0938 0 5.6016-2.5078 5.6016-5.6016 0-19.074-11.305-35.52-27.543-43.105 5.1992-3.8867 9.2227-9.2266 11.484-15.43l62.496 62.496c1.0352 1.0312 2.4297 1.6211 3.8906 1.6406h0.24609c3.0859 0 30.582-0.4375 45.785-15.641 15.836-15.836 15.656-44.805 15.641-46.031-0.015624-1.4609-0.60547-2.8555-1.6406-3.8867l-81.332-81.332c1.4219-2.3555 2.8672-4.7031 4.1797-7.1094h73.191c3.0938 0 5.6016-2.5078 5.6016-5.6016 0-19.074-11.305-35.52-27.543-43.105 8.1992-6.1328 13.543-15.891 13.543-26.895 0-18.527-15.07-33.602-33.602-33.602-3.2305 0-6.3438 0.48437-9.3008 1.3398-1.0703-11.023-3.1289-21.754-6.0312-32.137h57.332c3.0938 0 5.6016-2.5078 5.6016-5.6016 0-19.074-11.305-35.52-27.543-43.105 8.1992-6.1328 13.543-15.891 13.543-26.895 0-18.527-15.07-33.602-33.602-33.602-18.527 0-33.602 15.07-33.602 33.602 0 11.004 5.3398 20.762 13.543 26.895-4.4141 2.0625-8.4531 4.7812-12.012 8.0352-32.082-57.523-93.523-96.531-163.93-96.531-103.44 0-187.6 84.156-187.6 187.6 0 53.73 22.742 102.22 59.062 136.46-3.582-1.3086-7.4297-2.0586-11.461-2.0586-18.527 0-33.602 15.07-33.602 33.602 0 11.004 5.3398 20.762 13.543 26.895-16.234 7.5859-27.543 24.031-27.543 43.105zm195.57-5.6016h-71.938c2.7031-17.422 17.801-30.797 35.969-30.797s33.266 13.375 35.969 30.797zm-53.285-50.363c9.4961 2.3672 19.281 3.9844 29.285 4.8359-3.4727 2.2031-7.5586 3.5273-11.969 3.5273-7.0156 0-13.207-3.3047-17.316-8.3633zm165.29 50.363h-71.938c2.7031-17.422 17.801-30.797 35.969-30.797s33.266 13.375 35.969 30.797zm-35.969-42c-9.3203 0-17.312-5.7266-20.684-13.84 11.594-4.1602 22.754-9.5156 33.395-15.934l9.4766 9.4766c-1.082 11.355-10.555 20.297-22.188 20.297zm148.35-6.1289c-0.27344 6.4336-1.957 25.414-12.309 35.77-10.305 10.305-29.41 12.02-35.777 12.305l-108.17-108.17c0.5-0.30469 0.97266-0.64844 1.4688-0.96094 0.97266-0.61328 1.9219-1.25 2.8789-1.8828 1.7695-1.1719 3.5078-2.375 5.2188-3.6211 0.94922-0.6875 1.8906-1.3789 2.8203-2.0898 1.7539-1.3438 3.4688-2.7344 5.1562-4.1523 0.77734-0.65234 1.5664-1.2812 2.3281-1.9492 2.3945-2.0977 4.7383-4.2578 6.9922-6.5078 0.019531-0.019531 0.035157-0.035156 0.054688-0.054687 2.2461-2.2461 4.4023-4.5859 6.4961-6.9766 0.67578-0.76953 1.3164-1.5703 1.9727-2.3555 1.4102-1.6797 2.7969-3.3828 4.1289-5.1289 0.71484-0.93359 1.4102-1.8828 2.1016-2.8359 1.2422-1.707 2.4453-3.4492 3.6172-5.2109 0.63281-0.95312 1.2695-1.9023 1.8789-2.875 0.3125-0.49609 0.65625-0.97266 0.96484-1.4727l25.48 25.48zm-168.06-66.207c-19.555 10.688-41.789 16.336-64.289 16.336-13.895 0-27.305-2.1211-39.922-6.0508-3.418-1.0664-6.7773-2.2617-10.07-3.5898-6.5898-2.6484-12.922-5.8086-18.949-9.4258-2.4492-1.4688-4.8477-3.0156-7.1914-4.6328-2.1992-1.5156-4.3477-3.0977-6.4492-4.7383-3.6758-2.8711-7.1992-5.9297-10.559-9.1641-2.9375-2.8281-5.7461-5.7852-8.418-8.8672-18.703-21.574-30.664-49.145-32.57-79.398-0.17969-2.8203-0.26953-5.6641-0.26953-8.5312 0-30.387 10.137-58.453 27.211-80.992 2.4375-3.2188 5.0195-6.3281 7.7305-9.3125 1.4453-1.5898 2.9297-3.1484 4.4531-4.6719 4.0547-4.0547 8.3672-7.8555 12.906-11.371 4.543-3.5156 9.3164-6.7461 14.289-9.6641 5.6875-3.3359 11.641-6.2656 17.816-8.7539 3.293-1.3242 6.6523-2.5234 10.07-3.5898 12.617-3.9258 26.027-6.043 39.922-6.043s27.305 2.1211 39.922 6.0508c3.418 1.0664 6.7773 2.2617 10.07 3.5898 6.1758 2.4844 12.129 5.4141 17.816 8.7539 4.9766 2.918 9.75 6.1484 14.289 9.6641 4.543 3.5156 8.8555 7.3125 12.906 11.371 1.5195 1.5195 3.0039 3.0781 4.4531 4.6719 2.7109 2.9844 5.293 6.0898 7.7305 9.3125 17.074 22.531 27.211 50.598 27.211 80.984 0 5.625-0.35156 11.234-1.0508 16.789-2.0898 16.664-7.2734 32.836-15.289 47.5-0.003906 0.003907-0.003906 0.007813-0.003906 0.011719-4.6523 8.5352-10.168 16.48-16.453 23.734-10.477 12.098-23.078 22.27-37.312 30.027zm123.31-118.06c0-2.2422-0.089843-4.4609-0.16797-6.6797 2.6406-1.1016 5.5312-1.7188 8.5664-1.7188 12.355 0 22.398 10.051 22.398 22.398 0 12.352-10.047 22.398-22.398 22.398-4.2031 0-8.0898-1.2344-11.453-3.2539 1.9453-10.883 3.0547-21.953 3.0547-33.145zm8.3984 47.602c18.168 0 33.266 13.375 35.969 30.801l-61.562-0.003906c4.0508-8.7891 7.4062-17.863 10.043-27.152 4.7344-2.2578 9.9648-3.6445 15.551-3.6445zm-22.398-173.6c0-12.352 10.047-22.398 22.398-22.398 12.355 0 22.398 10.051 22.398 22.398 0 12.352-10.047 22.398-22.398 22.398-12.355 0-22.398-10.047-22.398-22.398zm22.398 33.602c18.168 0 33.266 13.375 35.969 30.801h-54.809c-2.2656-6.5-4.8516-12.852-7.793-19.004 6.6562-7.1992 16.082-11.797 26.633-11.797zm-372.4 92.398c0-97.266 79.133-176.4 176.4-176.4 67.699 0 126.58 38.355 156.14 94.461 2.1797 4.1328 4.2188 8.3516 6.0703 12.672 1.082 2.5234 2.1016 5.082 3.0703 7.6641 1.375 3.6758 2.6133 7.4141 3.7461 11.199 3.5938 12.035 5.918 24.602 6.8555 37.551 0.30469 4.2539 0.51563 8.5273 0.51563 12.852 0 1.2031-0.09375 2.3984-0.11719 3.5977-0.12109 6.0547-0.51562 12.078-1.25 18.043-0.66797 5.4219-1.6094 10.793-2.7734 16.109-0.42969 1.9727-0.88281 3.9414-1.3828 5.8945-4.0078 15.711-10.121 30.848-18.344 44.965l-22.676-22.676c0.38672-0.76172 0.72266-1.5547 1.0977-2.3242 0.58984-1.2109 1.168-2.4219 1.7188-3.6484 0.66406-1.4648 1.2891-2.9492 1.9023-4.4375 0.50391-1.2227 1.0039-2.4414 1.4727-3.6758 0.58203-1.5312 1.1211-3.0781 1.6523-4.6328 0.41797-1.2266 0.84375-2.4453 1.2305-3.6797 0.5-1.5977 0.94531-3.2148 1.3906-4.8281 0.33594-1.2188 0.68359-2.4297 0.98828-3.6562 0.41406-1.6719 0.76172-3.3594 1.1172-5.0469 0.25-1.1953 0.52344-2.3789 0.74609-3.582 0.32422-1.7695 0.57812-3.5508 0.83594-5.332 0.16797-1.1367 0.36719-2.2695 0.50391-3.4102 0.23828-1.9609 0.39453-3.9297 0.55469-5.8984 0.078125-0.97266 0.19922-1.9453 0.25781-2.9219 0.17578-2.9414 0.27734-5.8984 0.27734-8.8594 0-80.285-65.312-145.6-145.6-145.6-80.285 0-145.6 65.316-145.6 145.6 0 64.824 42.59 119.87 101.25 138.67 13.051 4.1836 26.898 6.5469 41.25 6.8516 1.0352 0.019531 2.0586 0.078124 3.0977 0.078124 2.9609 0 5.918-0.097656 8.8633-0.27734 0.97656-0.058594 1.9453-0.17969 2.9219-0.25781 1.9688-0.16016 3.9414-0.31641 5.8984-0.55469 1.1484-0.14062 2.2852-0.33984 3.4297-0.50781 1.7695-0.25781 3.543-0.51172 5.3008-0.83203 1.2188-0.22266 2.4219-0.50391 3.6328-0.75781 1.668-0.35156 3.3359-0.69531 4.9883-1.1055 1.2461-0.30859 2.4727-0.66016 3.707-1 1.5977-0.44141 3.1953-0.87891 4.7773-1.375 1.2422-0.38672 2.4648-0.81641 3.6953-1.2344 1.5547-0.53125 3.1055-1.0703 4.6406-1.6562 1.2148-0.46094 2.418-0.95703 3.6211-1.4531 1.5156-0.625 3.0234-1.2617 4.5195-1.9375 1.1875-0.53516 2.3633-1.0977 3.5352-1.668 0.79688-0.38672 1.6094-0.73047 2.3984-1.1289l6.5977 6.6016 9.3555 9.3555 6.7188 6.7227c-8.5586 4.9844-17.516 9.125-26.719 12.578-3.7734 1.4141-7.5859 2.6992-11.445 3.8516-14.836 4.4258-30.25 6.8906-45.918 7.2891-1.5 0.035156-3.0039 0.14453-4.5195 0.14453-2.418 0-4.8164-0.085938-7.2109-0.18359-14.91-0.60156-29.344-3.0664-43.086-7.1602-3.7773-1.125-7.5039-2.3555-11.172-3.7227-67.043-25.008-114.93-89.676-114.93-165.33zm14 168c0-12.352 10.047-22.398 22.398-22.398 12.355 0 22.398 10.051 22.398 22.398 0 12.352-10.047 22.398-22.398 22.398-12.355 0-22.398-10.047-22.398-22.398zm22.398 33.602c18.168 0 33.266 13.375 35.969 30.801l-71.938-0.003906c2.7031-17.422 17.801-30.797 35.969-30.797z"/>
  <path d="m346.68 250.62c13.711-8.3633 22.918-23.418 22.918-40.621 0-26.246-21.355-47.602-47.602-47.602s-47.602 21.352-47.602 47.602c0 17.203 9.2031 32.258 22.914 40.621-29.582 10.262-50.914 38.344-50.914 71.379 0 3.0938 2.5039 5.6016 5.6016 5.6016h140c3.0938 0 5.6016-2.5078 5.6016-5.6016 0-33.035-21.332-61.117-50.918-71.379zm-61.082-40.621c0-20.07 16.328-36.398 36.398-36.398s36.398 16.328 36.398 36.398-16.328 36.398-36.398 36.398-36.398-16.328-36.398-36.398zm-27.762 106.4c2.8438-32.898 30.531-58.797 64.16-58.797s61.316 25.898 64.16 58.801z"/>
  <use x="70" y="644" xlink:href="#r"/>
  <use x="90.550781" y="644" xlink:href="#d"/>
  <use x="104.359375" y="644" xlink:href="#a"/>
  <use x="123.347656" y="644" xlink:href="#c"/>
  <use x="142.242188" y="644" xlink:href="#b"/>
  <use x="155.628906" y="644" xlink:href="#a"/>
  <use x="174.617188" y="644" xlink:href="#g"/>
  <use x="204.410156" y="644" xlink:href="#j"/>
  <use x="224.453125" y="644" xlink:href="#i"/>
  <use x="252.453125" y="644" xlink:href="#c"/>
  <use x="271.34375" y="644" xlink:href="#f"/>
  <use x="291.28125" y="644" xlink:href="#h"/>
  <use x="320.453125" y="644" xlink:href="#c"/>
  <use x="339.351562" y="644" xlink:href="#g"/>
  <use x="70" y="672" xlink:href="#q"/>
  <use x="82.183594" y="672" xlink:href="#d"/>
  <use x="95.992188" y="672" xlink:href="#e"/>
  <use x="115.226562" y="672" xlink:href="#h"/>
  <use x="154.152344" y="672" xlink:href="#b"/>
  <use x="167.535156" y="672" xlink:href="#f"/>
  <use x="187.46875" y="672" xlink:href="#a"/>
  <use x="216.207031" y="672" xlink:href="#p"/>
  <use x="239.640625" y="672" xlink:href="#e"/>
  <use x="258.878906" y="672" xlink:href="#o"/>
  <use x="278.8125" y="672" xlink:href="#n"/>
  <use x="308.492188" y="672" xlink:href="#m"/>
  <use x="329.015625" y="672" xlink:href="#d"/>
  <use x="342.820312" y="672" xlink:href="#e"/>
  <use x="362.058594" y="672" xlink:href="#l"/>
  <use x="371.65625" y="672" xlink:href="#a"/>
  <use x="390.648438" y="672" xlink:href="#k"/>
  <use x="407.242188" y="672" xlink:href="#b"/>
 </g>
</svg>
