<!-- Generated by IcoMoon.io -->
<svg version="1.1" xmlns="http://www.w3.org/2000/svg" width="32" height="32" viewBox="0 0 32 32">
<title>Bike</title>
<path d="M25 12c-0.688 0-1.375 0.125-2 0.313l-1.188-2.188 2.813-6.125 0.313-0.563c0.125-0.313 0.125-0.688-0.063-1-0.188-0.25-0.5-0.438-0.875-0.438h-5c-0.563 0-1 0.438-1 1s0.438 1 1 1h3.438l-1.875 4h-10.563c-0.438 0-0.813 0.25-0.938 0.688l-1.125 3.438c-0.313-0.063-0.625-0.125-0.938-0.125-3.875 0-7 3.125-7 7s3.125 7 7 7c3.875 0 7-3.125 7-7 0-2.875-1.688-5.25-4.125-6.375l0.438-1.313c0.25-0.75 1-1.313 1.813-1.313h7.25l0.125 0.25 1.188 2.188 0.438 0.75c-1.875 1.25-3.125 3.375-3.125 5.813 0 3.875 3.125 7 7 7s7-3.125 7-7c0-3.875-3.125-7-7-7M12 19c0 2.75-2.25 5-5 5s-5-2.25-5-5c0-2.75 2.25-5 5-5 0.125 0 0.188 0 0.313 0.063l-1 3c-0.188 0.5 0.125 1.063 0.625 1.25 0.25 0.063 0.563 0.063 0.75-0.063 0.25-0.125 0.438-0.313 0.5-0.563l1.063-3.125c1.625 0.813 2.75 2.5 2.75 4.438M25 24c-2.75 0-5-2.25-5-5 0-1.688 0.813-3.125 2.125-4.063l2.5 4.688c0.25 0.438 0.875 0.625 1.313 0.375 0.25-0.125 0.438-0.313 0.563-0.563 0.063-0.25 0-0.563-0.125-0.813l-2.438-4.5c0.375-0.063 0.688-0.125 1.063-0.125 2.75 0 5 2.25 5 5s-2.25 5-5 5M7 6h3c1.5 0 2.375-0.5 3.25-1.313 0.125-0.125 0.188-0.25 0.125-0.438-0.063-0.125-0.188-0.25-0.375-0.25h-6c-0.563 0-1 0.438-1 1s0.438 1 1 1"></path>
</svg>
