<!-- Generated by IcoMoon.io -->
<svg version="1.1" xmlns="http://www.w3.org/2000/svg" width="26" height="32" viewBox="0 0 26 32">
<title>Songbird</title>
<path d="M15.758 10.015c0.463 0.128 0.735 0.608 0.606 1.071s-0.608 0.735-1.071 0.606c-0.463-0.128-0.735-0.608-0.606-1.071s0.608-0.735 1.071-0.606zM20.403 11.674l-1.408-0.461c-0.358-1.536-1.331-2.765-2.714-3.354-1.101-0.486-2.33-0.538-3.482-0.205-0.358 0.102-0.717 0.256-1.024 0.435-0.742 0.384-1.434 1.050-2.099 2.048-0.384 0.589-0.64 1.126-0.87 1.613-0.282 0.614-0.512 1.101-0.947 1.562-0.051 0-0.077 0-0.128 0-0.717 0.026-1.408-0.154-2.048-0.486-0.384-0.205-0.845-0.179-1.203 0.077-0.333 0.256-0.512 0.666-0.435 1.101 0.077 0.41 0.205 0.819 0.384 1.203-0.819 0.282-1.664 0.461-2.483 0.538-0.563 0.051-1.024 0.41-1.229 0.922s-0.102 1.075 0.282 1.485c0.998 1.101 2.202 1.946 3.584 2.56 1.408 0.614 2.816 0.922 4.198 0.998v2.381c0 0.307 0.256 0.563 0.563 0.563s0.563-0.256 0.563-0.563v-2.406c0.512-0.026 1.050-0.102 1.536-0.205v2.611c0 0.307 0.256 0.563 0.563 0.563s0.563-0.256 0.563-0.563v-2.995c2.509-0.845 4.634-2.662 5.811-5.274 0.307-0.666 0.563-1.792 0.666-2.714l1.331-0.538c0.486-0.179 0.461-0.768 0.026-0.896zM7.757 14.438c1.024-0.026 2.176-0.512 2.406-0.614s1.434-0.563 2.176 0.307c0.23 0.282 0.307 0.563 0.256 0.922-0.102 0.589-0.64 1.203-1.382 1.638-1.843 1.050-4.429 0.307-5.53-1.562-0.23-0.41-0.384-0.819-0.486-1.28 0.794 0.41 1.664 0.614 2.56 0.589zM17.408 15.36c-2.099 4.582-7.398 6.4-12.365 4.25-1.229-0.538-2.304-1.306-3.2-2.278-0.102-0.102-0.051-0.23-0.051-0.282 0.026-0.051 0.077-0.179 0.256-0.179 0.973-0.077 1.997-0.333 2.97-0.666 1.024 1.357 2.637 2.125 4.275 2.125 0.845 0 1.69-0.205 2.458-0.64 1.050-0.589 1.766-1.51 1.946-2.432 0.128-0.666-0.051-1.306-0.486-1.843-0.973-1.152-2.483-1.075-3.507-0.614-0.051 0.026-0.102 0.051-0.179 0.077 0.102-0.205 0.205-0.435 0.307-0.64 0.23-0.461 0.435-0.947 0.794-1.459 0.538-0.819 1.101-1.357 1.69-1.69 0.256-0.154 0.538-0.282 0.819-0.358 0.358-0.102 0.742-0.179 1.126-0.179 0.538 0 1.050 0.102 1.562 0.333 1.894 0.819 2.15 2.816 2.176 3.405 0.051 0.768-0.256 2.33-0.589 3.072zM24.474 4.173l-3.302 0.486c-0.205 0.026-0.358 0.205-0.358 0.435v3.098c-0.179-0.051-0.41-0.077-0.614-0.026-0.589 0.102-0.973 0.614-0.87 1.101s0.64 0.794 1.229 0.691c0.512-0.102 0.896-0.512 0.896-0.947v-3.098l2.918-0.435v2.176c-0.179-0.051-0.41-0.077-0.614-0.026-0.589 0.102-0.973 0.614-0.87 1.101s0.64 0.794 1.229 0.691c0.512-0.102 0.896-0.512 0.896-0.947v-3.866c-0.051-0.256-0.282-0.461-0.538-0.435zM18.202 6.195c0.512-0.102 0.896-0.512 0.896-0.947v0-3.226c0.87 0 0.768 0.896 0.589 1.434-0.026 0.077 0 0.154 0.077 0.179l0.128 0.051c0.077 0.026 0.154 0.026 0.179-0.051 0.87-1.075 0.205-2.509-1.306-2.688-0.154-0.026-0.282 0.102-0.282 0.256v3.2c-0.179-0.051-0.41-0.077-0.614-0.026-0.589 0.102-0.973 0.614-0.87 1.101 0.077 0.512 0.614 0.819 1.203 0.717z"></path>
</svg>
