<!-- Generated by IcoMoon.io -->
<svg version="1.1" xmlns="http://www.w3.org/2000/svg" width="32" height="32" viewBox="0 0 32 32">
<title>Black-buck</title>
<path d="M1.313 0.125c0.063 0.125 0.063 0.188 0.063 0.188-0.063 0-0.063 0.063 0 0.125s0.188 0.125 0.25 0.125c0.125 0 0.125 0 0.125 0.063 0 0 0.063 0.125 0.063 0.313 0.063 0.25 1.063 1.375 1.25 1.375s0.5 0.563 0.438 0.688c-0.125 0.188 0 0.313 0.625 0.75 0.25 0.188 0.563 0.438 0.625 0.563 0.313 0.438 0.438 0.688 0.375 0.875 0 0.125 0.125 0.313 0.625 0.563 0.438 0.25 1.125 1.313 0.813 1.313 0 0-0.063-0.063-0.125-0.125-0.125-0.188-0.125-0.063 0 0.25 0.063 0.125 0.125 0.25 0.125 0.25-0.063 0-0.25-0.188-0.5-0.375-0.438-0.438-0.938-0.625-1.25-0.5s-0.375 0.313-0.188 0.5c0.063 0.063 0.125 0.125 0.063 0.125s-0.063 0.063 0 0.063 0.188 0.188 0.25 0.375c0.063 0.188 0.188 0.313 0.188 0.313 0.125-0.063 0.875 0.375 1.188 0.688 0.188 0.125 0.375 0.313 0.5 0.375s0.188 0.125 0.125 0.25c0 0.125 0.063 0.375 0.188 0.625 0.188 0.375 0.188 0.5 0.188 0.625-0.188 0.438-0.375 2.25-0.375 3.563 0 1.188 0.063 1.563 0.25 2.5 0.063 0.563 0.25 1.125 0.25 1.188 0.063 0.063 0.063 0.063 0.063-0.125-0.063-0.125-0.063-0.25 0-0.25 0.125 0 0.313 0.688 0.313 1 0 0.375 0.25 1 0.563 1.313 0.125 0.125 0.25 0.375 0.25 0.5 0.063 0.188 0.125 0.5 0.25 0.75 0.063 0.25 0.125 0.5 0.063 0.5 0 0.063 0 0.125 0.063 0.125 0.188 0 0.563 0.5 0.563 0.875 0.063 0.125 0.125 0.375 0.188 0.563 0.063 0.125 0.063 0.313 0.063 0.375-0.063 0.063-0.063 0.063 0 0 0.125-0.063 0.25 0.438 0.375 1 0 0.313 0.063 0.688 0.125 0.938 0.125 0.563 0.125 2.313 0 2.25-0.063 0-0.125-0.188-0.188-0.375 0-0.188 0 0.188 0 0.813 0 0.688 0 1.063 0 1 0-0.125 0.063-0.25 0.125-0.188 0 0 0.063 0.625 0.063 1.375 0 1.5 0 1.563 0.5 1.625 0.188 0.063 0.25 0.125 0.25 0.125 0 0.063 0.125 0.063 0.188-0.063 0.188-0.125 0.188 0.063 0-2.625-0.063-0.813 0.063-2 0.25-2.75 0.063-0.313 0.188-0.875 0.188-1.375 0.063-0.5 0.125-1.25 0.188-1.688s0.125-0.813 0.125-0.875c0-0.063 0.063-0.063 0.375-0.063 0.188 0.063 0.438 0.063 0.5 0.125 0.063 0 0.188 0 0.188 0.063 0.125 0.063 0.063 0.625-0.063 0.875-0.125 0.188-0.125 0.5-0.125 1.563 0.063 2.563 0 3.5-0.063 3.563-0.063 0-0.063 0.125-0.063 0.188-0.063 0.063-0.063 0.688-0.063 1.375-0.063 1.5-0.063 1.625 0.438 1.625 0.188 0.063 0.438 0.063 0.563 0.125h0.25l0.063-1.688c0-1.063 0.063-1.938 0.125-2.313 0.125-0.25 0.188-0.813 0.188-1.25 0.063-0.375 0.188-1.125 0.25-1.625 0.188-0.875 0.188-0.875 0.063-1.625-0.188-0.938-0.125-2.5 0.125-3.25 0.125-0.375 0.188-0.75 0.188-1.313 0-1 0.063-1.188 0.313-1.188 0.125-0.063 0.25 0 0.375 0 0.375 0.25 1.25 0.313 2.375 0.188 0.625-0.063 1.25-0.125 1.438-0.125 0.375-0.063 1.5-0.063 1.875 0s0.5 0.25 0.75 1c0.125 0.375 0.313 0.875 0.438 1.063 0.188 0.188 0.313 0.375 0.313 0.438 0 0 0.063 0.25 0.188 0.5s0.25 0.5 0.25 0.563c0 0.188 0.313 0.75 0.688 1.188s1.5 1.313 1.75 1.438l0.188 0.063-0.125-0.5c-0.125-0.188-0.188-0.5-0.188-0.625-0.063-0.063-0.125-0.25-0.188-0.313-0.125-0.188-0.313-0.5-0.188-0.438 0.188 0.125 0.063-0.063-0.125-0.25-0.25-0.188-0.313-0.375-0.125-0.313 0.063 0.063 0.063 0 0.063-0.063-0.063-0.125 0-0.188 0.125-0.25 0.188-0.063 0.188-0.313 0.063-0.313-0.063 0-0.125 0-0.188 0-0.063-0.063-0.125-0.063-0.125-0.063-0.063 0 0-0.063 0.063-0.125 0.125-0.125 0.188-0.188 0.125-0.313 0-0.125-0.063-0.188-0.125-0.188-0.125 0.063-0.125 0.063-0.063-0.125 0.063-0.125 0.063-0.125 0-0.188-0.125 0-0.063-0.375 0.063-0.375s0.125-0.125 0-0.188c-0.125-0.063 0.063-0.313 0.25-0.313 0.125 0 0.188 0 0.188-0.188 0-0.125 0.063-0.313 0.188-0.375l0.188-0.25-0.063 0.375c0 0.5-0.125 0.688-0.188 0.688-0.313-0.125-0.375-0.188-0.375-0.125s0.125 0.125 0.25 0.188c0.125 0.125 0.25 0.188 0.188 0.25-0.063 0.25 0 0.438 0.125 0.438 0.125 0.063 0.125 0 0.125-0.125-0.063-0.063 0-0.125 0.063-0.188 0.125 0 0.188-0.125 0.25-0.375 0.063-0.188 0.188-0.625 0.313-0.938 0.25-0.813 0.313-2.188 0.188-2.75-0.125-0.313-0.188-0.438-0.5-0.688-0.188-0.125-0.625-0.375-1-0.5-0.938-0.438-1.5-0.75-1.5-0.813s-0.063-0.063-0.125-0.063c-0.125 0.063-0.188 0-0.188-0.063s-0.063-0.063-0.125-0.063c-0.063 0.063-0.125 0.063-0.125 0-0.063-0.063-0.063-0.063-0.125-0.063-0.063 0.063-0.063 0.063-0.063 0 0-0.188-0.688-0.25-2.5-0.25-1.063 0-2.063 0-2.25 0-0.25 0-0.563 0.063-0.75 0.125-0.25 0.063-0.438 0.125-0.5 0.063-0.125-0.063-1.063-0.125-2.25-0.125-1.125-0.063-2.125-0.063-2.188-0.063-0.313 0-1.188 0.25-1.188 0.375 0 0.063 0 0.063-0.063 0.063 0 0.063-0.063-0.125-0.063-0.375-0.063-0.25-0.125-0.75-0.188-1.125-0.125-0.813-0.125-1.125 0-0.938s0.313 0 0.313-0.25c0-0.125 0.063-0.5 0.125-0.75s0.063-0.563 0.125-0.75c0-0.25 0-0.25 0.25-0.313 0.188-0.063 0.438-0.25 0.625-0.438 0.125-0.188 0.563-0.563 0.813-0.813 0.625-0.5 0.813-0.875 0.625-1.063-0.188-0.25-0.563-0.125-1.125 0.313-0.438 0.375-0.625 0.5-0.938 0.375-0.063-0.063-0.063-0.125-0.063-0.188 0-0.125 0-0.25-0.063-0.313s-0.063-0.125 0.063-0.313c0.125-0.125 0.25-0.313 0.313-0.5 0.125-0.125 0.313-0.313 0.438-0.375 0.125-0.125 0.188-0.25 0.188-0.438 0-0.25 0-0.25-0.25-0.188-0.625 0.125-1.125 0.75-1.188 1.438 0 0.313 0 0.313-0.375 0.438-0.438 0.125-0.875 0.438-0.875 0.563 0 0.063-0.063 0.25-0.188 0.438-0.125 0.313-0.188 0.313-0.438 0.313s-0.813-0.375-0.813-0.563c0-0.063-0.063-0.125-0.063-0.188 0-0.188-0.313-0.375-0.875-0.563-0.5-0.188-0.5-0.188-0.5-0.375 0.063-0.125 0-0.375-0.063-0.563-0.188-0.375-0.75-1-0.938-1-0.063 0-0.25-0.063-0.438-0.125-0.313-0.188-0.313-0.188-0.25-0.375s0.063-0.313-0.125-0.688c-0.25-0.563-0.688-0.875-1.313-1-0.25-0.063-0.25-0.188-0.125-0.25s0-0.438-0.188-0.688c-0.125-0.063-0.188-0.25-0.25-0.313 0-0.063-0.063-0.125-0.125-0.125-0.125 0-0.188-0.063-0.25-0.188 0-0.063-0.125-0.125-0.188-0.063-0.063 0-0.188 0-0.5-0.188 0 0 0.063-0.063 0.063-0.125 0.125-0.125 0.125-0.188 0-0.313-0.25-0.375-0.688-0.75-0.938-0.75-0.188 0-0.188 0-0.125 0.125zM12.625 7.938c-0.438 0.375-0.875 0.813-1 0.875-0.188 0.063-0.313 0.125-0.375 0.188s-0.188 0.125-0.25 0.063c-0.063 0-0.188 0.063-0.313 0.188-0.188 0.188-0.188 0.375 0 0.375 0.063 0 0.063 0 0.063 0.063s0.125 0.063 0.188 0.063c0.125-0.063 0.188-0.063 0.125 0.125-0.063 0.063-0.063 0.25-0.125 0.375-0.063 0.5-0.063 0.5-0.25 0.188-0.063-0.188-0.125-0.438-0.188-0.5 0-0.188-0.063-0.25-0.25-0.25s-0.313-0.125-0.375-0.188c-0.125-0.188-0.125-0.188 0.25-0.375 0.438-0.125 0.625-0.438 0.563-0.688-0.063-0.063 0-0.188 0.188-0.375s0.25-0.188 0.063 0c-0.25 0.313-0.063 0.375 0.313 0.063 0.25-0.25 0.313-0.313 0.625-0.25s0.375 0 0.938-0.375c0.313-0.188 0.563-0.375 0.563-0.375 0.063 0-0.313 0.375-0.75 0.813zM6.938 8.25c0.188 0.188 0.375 0.25 0.563 0.25 0.25 0 0.313 0 0.5 0.25 0.125 0.188 0.313 0.313 0.438 0.375 0.313 0.063 0.375 0.125 0.188 0.375-0.063 0.188-0.188 0.188-0.375 0.188-0.188-0.063-0.188 0-0.313 0.25-0.188 0.563-0.25 0.688-0.313 0.688s-0.125-0.063-0.125-0.125c0-0.063 0.063-0.125 0.125-0.125s0.063-0.063 0-0.25c-0.063-0.188 0-0.25 0.188-0.438 0.25-0.188 0.313-0.438 0.188-0.438-0.063 0-0.188-0.125-0.313-0.188-0.125-0.125-0.188-0.125-0.313-0.063-0.063 0.063-0.125 0.063-0.188 0 0-0.063-0.063-0.125-0.063-0.188 0 0-0.063-0.063-0.063-0.063-0.188 0-0.625-0.375-1-0.875l-0.313-0.563 0.438 0.375c0.25 0.188 0.625 0.438 0.75 0.563zM10.063 10.938c0.063 0.125 0.188 0.375 0.25 0.563 0.125 0.188 0.125 0.375 0.125 0.438-0.063 0.063-0.25 0.313-0.5 0.563-0.375 0.313-0.563 0.375-0.813 0.375s-0.313-0.063-0.563-0.313c-0.125-0.188-0.313-0.438-0.375-0.563-0.125-0.188-0.125-0.25 0.063-0.5 0.125-0.188 0.188-0.375 0.188-0.438 0-0.25 0.125-0.375 0.5-0.5 0.25-0.063 0.438-0.063 0.688 0 0.25 0.125 0.375 0.188 0.438 0.375zM9.25 16.938c0.188 0.063 0.5 0.25 0.563 0.375 0.188 0.25 0.25 0.25 0.688 0.313 0.938 0 1.125 0 1.438-0.125 0.438-0.188 0.438-0.125 0.813 0.688 0.188 0.625 0.25 0.75 0.25 1.75 0 0.625 0.063 1.25 0.063 1.438 0.063 0.188 0.125 0.5 0.125 0.625 0 0.25 0 0.25-0.188 0.188-0.438-0.063-1.125-0.125-1.188-0.063-0.125 0.125-0.375 1.563-0.438 2.688-0.063 0.375-0.125 1-0.188 1.375-0.313 1.188-0.375 2.063-0.313 3.75 0.063 1.438 0.063 1.625-0.063 1.625-0.25 0-0.313-0.313-0.25-1.438 0.188-3.25 0.188-3.75 0-5-0.188-1.563-0.563-2.813-1-3.5-0.375-0.563-0.625-1.25-0.625-1.438 0-0.125-0.188-0.438-0.313-0.75-0.188-0.313-0.375-0.875-0.5-1.188-0.188-0.688-0.438-1.25-0.563-1.25-0.25 0.063-0.125-0.125 0.125-0.25 0.375-0.125 1.125-0.063 1.563 0.188zM13.25 29.188c0 0.188 0.25 0.5 0.313 0.438 0.063 0 0.063 0.438 0.063 1.063v1.063l-0.25-0.063c-0.125-0.063-0.25-0.063-0.313-0.125-0.063 0-0.063-2 0-2.313 0.063-0.25 0.188-0.25 0.188-0.063zM8.625 11.063c0 0.063 0.063 0.188 0.188 0.375 0.188 0.25 0.25 0.375 0.063 0.5-0.188 0.063-0.063 0.125 0.25 0.188 0.188 0.063 0.313 0 0.438-0.063s0.125-0.125 0.063-0.125c-0.188 0-0.063-0.313 0.125-0.563 0.188-0.188 0.25-0.313 0.25-0.375-0.063 0-0.375-0.063-0.75-0.063-0.563 0-0.625 0-0.625 0.125zM16 0.188c-0.5 0.438-0.688 0.813-0.563 1.125 0.063 0.125 0.063 0.188-0.063 0.188s-0.188 0-0.25 0.063c-0.063 0.125-0.125 0.125-0.188 0.125-0.125-0.063-0.5 0.313-0.688 0.75-0.25 0.5-0.063 0.813 0.25 0.438 0.125-0.188 0.313-0.375 0.5-0.5 0.25-0.25 0.688-0.75 0.688-0.875 0-0.25 0.25-0.75 0.625-1.063 0.125-0.125 0.25-0.313 0.25-0.375 0-0.125-0.25-0.063-0.563 0.125zM14.063 3.125c-0.688 0.188-1.125 0.625-1.375 1.563-0.063 0.063 0 0.125 0.125 0.125s0.313-0.188 0.625-0.5c0.25-0.25 0.563-0.563 0.75-0.688s0.25-0.188 0.188-0.375c0-0.063-0.063-0.125-0.125-0.125 0 0-0.125 0-0.188 0zM14.75 22.375c0 0.063 0 0.125 0.063 0.125 0.063 0.063 0.063 0.125 0.063 0.188 0 0 0 0.063 0 0 0.063-0.063 0.25-0.063 0.5 0.063 0.063 0.063 0.563 0.188 0.938 0.25 0.688 0.188 0.875 0.188 1.625 0.125 0.5 0 1.063-0.063 1.313-0.063 0.313 0.063 0.688 0 1.063-0.125l0.625-0.188 0.313 0.25c0.188 0.188 0.5 0.375 0.625 0.5 0.5 0.25 1.375 1.125 1.875 1.875 0.188 0.313 0.5 0.688 0.625 0.75s0.375 0.313 0.625 0.625c0.438 0.563 0.438 0.688 0.188 1.813-0.25 1.25-0.313 1.438-0.313 1.875 0 0.25-0.063 0.625-0.125 0.875-0.188 0.75-0.25 0.688 0.313 0.688 0.5 0 0.5 0 0.625-0.188 0-0.188 0.188-0.313 0.25-0.438 0.188-0.125 0.188-0.25 0.25-0.75 0.063-0.375 0-0.625 0-0.625-0.063 0-0.063-0.063-0.063-0.188 0-0.25 0.125-0.688 0.25-0.688 0 0 0.125-0.25 0.188-0.625l0.125-0.625 0.125 0.438c0.063 0.25 0.125 0.75 0.188 1.125 0 0.438 0.125 0.938 0.188 1.25 0.125 0.25 0.188 0.563 0.188 0.688 0 0.188 0.063 0.313 0.125 0.25 0 0 0.063 0.063 0.125 0.188 0.063 0.063 0.188 0.188 0.313 0.188s0.188 0 0.25-0.25l0.063-0.313 0.063 0.25c0 0.125 0.063-0.5 0.063-1.438 0-0.875 0-2.188 0-2.875 0.063-0.688 0.063-1.063 0-0.813 0 0.375-0.063 0.5-0.125 0.5-0.125 0-0.188-0.375-0.125-0.688 0.063-0.188 0.063-0.438 0.063-0.688 0-0.313 0-0.375-0.625-1.063-0.313-0.375-0.625-0.688-0.625-0.688-0.063 0 0.125 0.5 0.313 0.875 0.25 0.375 0.313 0.563 0.188 0.75-0.063 0.063-0.125 0.125-0.25 0.063-0.188-0.063-0.188-0.063-0.188 0.125 0.063 0.125 0.125 0.25 0.125 0.25 0.375 0.438 0.813 2.313 0.813 3.25 0 0.188 0 0.875 0 1.438 0 0.938-0.063 1-0.125 0.938s-0.125-0.25-0.125-0.438c0-0.188-0.063-0.5-0.125-0.75s-0.125-0.625-0.125-0.875c0-0.188-0.063-0.563-0.063-0.813-0.063-0.25-0.125-0.625-0.188-0.813 0-0.25-0.125-0.563-0.188-0.75-0.125-0.313-0.313-0.375-0.313-0.125 0 0.063-0.063 0.125-0.063 0.188-0.063 0-0.125 0.125-0.125 0.313-0.063 0.125-0.188 0.625-0.313 1.125-0.188 0.563-0.313 1.125-0.313 1.625-0.063 0.625-0.125 0.75-0.313 1.125-0.25 0.438-0.25 0.438-0.438 0.375-0.063-0.063-0.063-0.188 0.063-0.5 0.063-0.25 0.063-0.563 0.063-0.813 0-0.188 0.063-0.563 0.125-0.875 0.375-1.688 0.438-2.25 0.313-2.563-0.063-0.125-0.25-0.375-0.438-0.625-0.188-0.188-0.625-0.688-0.938-1.125-1-1.125-1.75-1.875-2.063-2.063-0.188-0.063-0.5-0.313-0.688-0.5-0.25-0.188-0.5-0.375-0.563-0.375s-0.375 0.125-0.688 0.188c-0.938 0.25-2.688 0.375-3.625 0.188-0.438-0.063-0.938-0.188-1.125-0.25-0.313-0.188-0.688-0.25-0.813-0.125z"></path>
</svg>
