<!-- Generated by IcoMoon.io -->
<svg version="1.1" xmlns="http://www.w3.org/2000/svg" width="19" height="32" viewBox="0 0 19 32">
<title>Topi</title>
<path d="M15.474 0.558c-0.020 0.039-0.078 0.238-0.127 0.441-0.313 1.264-1.071 2.188-3.027 3.683-0.278 0.212-0.343 0.251-0.382 0.219-0.065-0.052-0.118-0.020-0.118 0.075 0 0.088-0.062 0.147-0.568 0.555-0.264 0.212-0.408 0.307-0.447 0.297-0.059-0.020-0.193 0.118-0.193 0.196 0 0.023-0.091 0.118-0.202 0.215-0.114 0.095-0.212 0.183-0.222 0.196-0.056 0.075-0.353 0.291-0.398 0.291-0.033 0-0.078 0.042-0.104 0.104-0.065 0.153-0.813 0.882-0.878 0.856-0.056-0.020-0.173 0.124-0.14 0.176 0.010 0.016-0.029 0.085-0.088 0.157-0.056 0.069-0.082 0.108-0.052 0.088 0.042-0.036 0.062-0.029 0.118 0.036 0.039 0.042 0.078 0.111 0.091 0.153s0.078 0.186 0.15 0.317l0.124 0.235-0.088 0.173c-0.127 0.248-0.157 0.271-0.245 0.199-0.124-0.101-0.444-0.444-0.438-0.467 0.003-0.013-0.026-0.062-0.062-0.111-0.059-0.075-0.078-0.082-0.111-0.039-0.020 0.023-0.056 0.039-0.082 0.029-0.049-0.020-0.072 0.007-0.098 0.137-0.059 0.278-0.069 0.258 0.372 0.731 0.127 0.134 0.229 0.268 0.229 0.294s-0.056 0.163-0.121 0.3l-0.121 0.248-0.212-0.127c-0.118-0.069-0.248-0.144-0.294-0.167-0.104-0.052-0.163-0.108-0.163-0.153 0-0.020-0.016-0.036-0.036-0.036s-0.059-0.023-0.085-0.052c-0.039-0.036-0.059-0.039-0.075-0.013-0.016 0.029-0.042 0.029-0.088 0.003-0.095-0.049-0.111-0.013-0.056 0.124 0.036 0.091 0.039 0.144 0.016 0.209-0.042 0.111-0.023 0.163 0.104 0.258 0.056 0.039 0.153 0.124 0.219 0.186 0.062 0.059 0.189 0.167 0.281 0.235l0.17 0.131-0.091 0.264c-0.052 0.147-0.118 0.287-0.153 0.313-0.052 0.042-0.052 0.046 0 0.029 0.029-0.013 0.056-0.007 0.056 0.010 0 0.059-0.065 0.065-0.17 0.013-0.144-0.072-0.549-0.346-0.549-0.369 0-0.013 0.029-0.127 0.065-0.258 0.036-0.127 0.065-0.264 0.065-0.3 0-0.039 0.013-0.062 0.029-0.052s0.039-0.020 0.049-0.069c0.029-0.104-0.029-0.176-0.062-0.075-0.020 0.065-0.023 0.069-0.072 0.010-0.046-0.056-0.046-0.056-0.026 0.007 0.052 0.14 0.059 0.222 0.020 0.199-0.020-0.013-0.036-0.056-0.039-0.095-0.003-0.085-0.029-0.010-0.127 0.346-0.033 0.124-0.085 0.242-0.118 0.264-0.042 0.033-0.049 0.069-0.036 0.144 0.013 0.065-0.016 0.281-0.075 0.562-0.056 0.251-0.098 0.5-0.098 0.549 0 0.056-0.033 0.131-0.082 0.183-0.108 0.118-0.121 0.264-0.026 0.336 0.033 0.026 0.049 0.091 0.049 0.18 0 0.078-0.003 0.307-0.003 0.506-0.003 0.255-0.016 0.369-0.039 0.369-0.062 0-0.124 0.108-0.127 0.216 0 0.056 0.039 0.163 0.095 0.245 0.069 0.108 0.104 0.209 0.127 0.405l0.036 0.258-0.14 0.167c-0.428 0.5-0.748 1.143-1.427 2.841-0.232 0.584-0.369 0.888-0.803 1.829-0.127 0.268-0.34 0.767-0.473 1.11-0.134 0.34-0.366 0.927-0.516 1.306-0.147 0.375-0.395 0.95-0.552 1.273-0.444 0.918-0.751 1.378-1.385 2.083-0.408 0.457-0.598 0.715-0.79 1.078-0.225 0.428-0.313 0.754-0.336 1.224-0.020 0.487 0.023 0.771 0.189 1.296 0.069 0.215 0.163 0.532 0.216 0.702 0.121 0.411 0.274 0.738 0.438 0.924 0.131 0.147 0.144 0.153 0.313 0.153 0.098 0 0.32-0.016 0.49-0.036 0.356-0.039 0.349-0.042 0.699 0.255 0.229 0.199 0.34 0.219 0.581 0.108 0.264-0.121 0.911-0.604 2.178-1.636 1.385-1.127 2.171-1.734 2.596-1.995 0.134-0.085 0.562-0.281 0.947-0.434 1.711-0.689 2.459-1.015 3.386-1.482 2.772-1.388 4.147-2.811 4.676-4.852 0.287-1.097 0.304-2.58 0.036-3.566-0.039-0.15-0.085-0.261-0.101-0.251s-0.023-0.003-0.013-0.026c0.023-0.062-0.131-0.242-0.163-0.189-0.020 0.029-0.013 0.036 0.016 0.016 0.033-0.020 0.039-0.013 0.023 0.029-0.013 0.033-0.010 0.049 0.010 0.036 0.046-0.029 0.039 0.026-0.007 0.078-0.023 0.026-0.026 0.036-0.007 0.026 0.026-0.016 0.046 0.046 0.059 0.183 0.013 0.111 0.029 0.251 0.042 0.313 0.013 0.078 0.007 0.105-0.020 0.088-0.020-0.013-0.039-0.078-0.039-0.144-0.003-0.105-0.010-0.098-0.033 0.055-0.029 0.18-0.062 0.261-0.059 0.147 0-0.033 0.013-0.131 0.026-0.215s0.013-0.147-0.003-0.137c-0.013 0.010-0.026 0.052-0.026 0.091 0 0.042-0.010 0.124-0.020 0.18l-0.020 0.101h-0.516v0.261h-0.258c-0.229 0-0.258 0.007-0.274 0.065-0.020 0.075 0.007 0.196 0.042 0.196 0.013 0 0.033 0.069 0.042 0.153 0.010 0.088 0.036 0.284 0.056 0.441 0.046 0.317 0.026 0.48-0.062 0.562-0.056 0.049-0.062 0.046-0.118-0.078-0.033-0.072-0.078-0.147-0.104-0.167-0.052-0.046-0.052-0.049 0.007 0.15 0.029 0.088 0.059 0.343 0.072 0.565 0.016 0.356 0.013 0.398-0.033 0.382-0.033-0.013-0.059 0.003-0.072 0.052-0.016 0.046-0.033 0.059-0.046 0.033-0.029-0.046-0.199 0.075-0.199 0.144 0 0.023-0.023 0.059-0.049 0.082-0.039 0.033-0.049 0.029-0.052-0.020 0-0.059-0.003-0.059-0.029 0.003s-0.039 0.052-0.046-0.049c-0.003-0.026-0.026-0.049-0.052-0.049-0.036 0-0.049 0.039-0.049 0.153 0 0.085-0.020 0.17-0.046 0.196-0.036 0.036-0.039 0.029-0.023-0.029 0.029-0.098-0.016-0.114-0.111-0.036-0.046 0.036-0.062 0.055-0.039 0.042 0.062-0.033 0.046 0.033-0.026 0.098-0.049 0.046-0.065 0.049-0.069 0.013-0.003-0.026-0.013-0.010-0.026 0.036-0.016 0.065-0.046 0.085-0.144 0.091-0.078 0.007-0.121 0.026-0.121 0.059s-0.039 0.046-0.131 0.046h-0.131v0.131c0 0.127-0.003 0.131-0.108 0.131-0.082 0-0.147 0.033-0.251 0.131-0.078 0.072-0.16 0.131-0.18 0.131s-0.072 0.036-0.114 0.082c-0.046 0.049-0.114 0.082-0.167 0.082-0.059 0-0.091 0.020-0.104 0.065-0.010 0.036-0.052 0.078-0.098 0.095s-0.091 0.049-0.104 0.065c-0.010 0.020-0.056 0.036-0.101 0.036-0.042 0-0.078 0.016-0.078 0.036s-0.046 0.072-0.098 0.118c-0.056 0.042-0.091 0.095-0.082 0.108 0.010 0.016 0 0.039-0.020 0.052-0.026 0.013-0.029 0.010-0.016-0.013s0.007-0.039-0.010-0.039c-0.020 0-0.036 0.023-0.036 0.049 0 0.049-0.202 0.153-0.271 0.137-0.020-0.003-0.056 0.036-0.082 0.085-0.023 0.049-0.072 0.108-0.108 0.131-0.033 0.020-0.062 0.055-0.062 0.078s-0.036 0.042-0.078 0.042c-0.042 0-0.095 0.023-0.118 0.049s-0.059 0.049-0.082 0.049c-0.026 0-0.072 0.036-0.108 0.082s-0.082 0.082-0.101 0.082c-0.020 0-0.036 0.023-0.036 0.049 0 0.036-0.036 0.049-0.118 0.049-0.114 0-0.238 0.095-0.242 0.186 0 0.020-0.036 0.065-0.082 0.101s-0.082 0.082-0.082 0.101c0 0.020-0.036 0.036-0.078 0.036s-0.095 0.023-0.118 0.049c-0.023 0.026-0.059 0.049-0.082 0.049-0.026 0-0.072 0.036-0.108 0.082s-0.082 0.082-0.101 0.082c-0.020 0-0.036 0.013-0.036 0.029 0 0.039-0.193 0.232-0.232 0.232-0.016 0-0.029 0.013-0.029 0.033 0 0.016-0.059 0.033-0.131 0.033-0.091 0-0.131 0.013-0.131 0.046 0 0.049-0.232 0.248-0.287 0.248-0.020 0-0.062 0.036-0.098 0.082s-0.095 0.082-0.131 0.082c-0.065 0-0.268 0.173-0.268 0.232 0 0.016-0.016 0.029-0.036 0.029s-0.065 0.036-0.101 0.082c-0.036 0.046-0.082 0.082-0.104 0.082s-0.101 0.055-0.176 0.124c-0.075 0.069-0.173 0.144-0.219 0.163s-0.078 0.055-0.075 0.078c0.007 0.020-0.033 0.059-0.082 0.085-0.049 0.023-0.108 0.072-0.131 0.108-0.020 0.033-0.056 0.062-0.078 0.062s-0.042 0.023-0.042 0.049c0 0.036-0.036 0.049-0.121 0.049-0.095 0.003-0.137 0.023-0.183 0.082-0.049 0.072-0.052 0.082-0.007 0.082 0.026 0 0.049 0.023 0.049 0.049 0 0.033-0.033 0.049-0.111 0.049-0.095 0-0.15 0.039-0.379 0.261-0.147 0.144-0.284 0.261-0.307 0.261-0.059 0-0.248 0.222-0.202 0.242 0.023 0.010 0.020 0.026-0.013 0.049s-0.062 0.020-0.091-0.007c-0.036-0.029-0.056-0.023-0.091 0.026-0.062 0.082-0.059 0.114 0.013 0.114 0.029 0-0.029 0.042-0.137 0.095-0.104 0.052-0.202 0.114-0.219 0.137-0.023 0.036-0.029 0.036-0.029-0.007 0-0.029 0.046-0.072 0.101-0.098 0.095-0.039 0.098-0.042 0.042-0.085-0.033-0.023-0.082-0.042-0.108-0.042-0.042 0-0.046 0.007-0.007 0.029 0.036 0.023 0.029 0.046-0.042 0.121-0.046 0.052-0.078 0.114-0.069 0.137 0.010 0.026-0.010 0.033-0.062 0.020s-0.082-0.003-0.095 0.033c-0.013 0.036-0.003 0.042 0.036 0.029 0.049-0.020 0.049-0.016 0.010 0.033-0.026 0.033-0.052 0.049-0.062 0.039-0.023-0.023-0.108 0.052-0.088 0.082 0.010 0.013-0.010 0.046-0.039 0.069-0.049 0.039-0.052 0.039-0.033-0.010 0.013-0.039 0.007-0.049-0.029-0.036-0.023 0.010-0.046 0.029-0.046 0.046s-0.020 0.029-0.042 0.029c-0.062 0-0.14 0.098-0.17 0.212-0.023 0.088-0.026 0.091-0.049 0.033-0.026-0.062-0.029-0.062-0.029 0.007-0.003 0.065-0.020 0.075-0.134 0.075-0.095 0-0.131 0.013-0.131 0.049 0 0.026-0.016 0.049-0.033 0.049-0.020 0-0.072 0.039-0.118 0.091-0.056 0.059-0.088 0.075-0.101 0.046-0.026-0.065-0.075-0.010-0.075 0.091 0 0.114-0.069 0.431-0.101 0.47-0.013 0.013-0.010-0.039 0.007-0.114 0.046-0.232 0.085-0.679 0.056-0.663-0.013 0.010-0.026-0.026-0.026-0.075 0-0.069-0.016-0.095-0.062-0.095-0.036 0-0.056 0.020-0.046 0.052 0.016 0.055-0.261 0.464-0.454 0.666-0.075 0.078-0.134 0.114-0.16 0.101-0.026-0.016-0.033-0.013-0.016 0.013 0.013 0.020 0.003 0.055-0.020 0.078-0.091 0.091-0.408 0.317-0.444 0.317-0.023 0-0.039 0.013-0.039 0.026 0 0.033-0.402 0.235-0.467 0.235-0.023 0-0.055 0.013-0.072 0.029-0.020 0.016-0.144 0.062-0.278 0.101-0.287 0.085-0.604 0.091-0.764 0.016-0.235-0.111-0.284-0.483-0.101-0.761 0.105-0.16 0.088-0.206-0.049-0.127-0.052 0.033-0.15 0.059-0.219 0.065-0.108 0.007-0.124-0.003-0.114-0.059 0.007-0.036 0.147-0.199 0.313-0.359 0.473-0.46 0.699-0.79 0.705-1.029 0.003-0.18 0.121-0.483 0.238-0.614 0.104-0.114 0.18-0.095 0.219 0.065 0.020 0.078 0.039 0.153 0.046 0.17 0.003 0.016 0.026-0.055 0.049-0.163 0.049-0.222 0.075-0.255 0.362-0.483 0.251-0.202 0.408-0.304 1.078-0.712 0.745-0.454 1.032-0.647 1.322-0.878 0.444-0.353 0.95-0.859 1.332-1.332 0.029-0.039 0.056-0.091 0.056-0.114 0-0.026 0.013-0.052 0.029-0.059 0.056-0.020 0.176-0.408 0.215-0.695 0.033-0.242 0.033-0.297-0.003-0.336-0.026-0.026-0.046-0.029-0.046-0.010s-0.026 0.036-0.062 0.036c-0.036 0-0.072 0.033-0.082 0.072-0.023 0.069-0.029 0.062-0.065-0.055l-0.039-0.131-0.003 0.147c0 0.078 0.020 0.163 0.042 0.189 0.052 0.052 0.059 0.105 0.016 0.105-0.020 0-0.026 0.055-0.016 0.121 0.013 0.121 0.013 0.121-0.020 0.026-0.016-0.055-0.023-0.124-0.013-0.16 0.016-0.046 0.010-0.052-0.023-0.036-0.026 0.016-0.036 0.016-0.023 0.003 0.023-0.029-0.082-0.349-0.229-0.689-0.114-0.261-0.235-0.624-0.235-0.695 0-0.029 0.056 0.013 0.131 0.095 0.134 0.147 0.346 0.552 0.382 0.722 0.010 0.049 0.029 0.091 0.039 0.091 0.013 0 0.069-0.088 0.127-0.199 0.118-0.225 0.137-0.424 0.052-0.594-0.029-0.059-0.147-0.196-0.261-0.304-0.114-0.111-0.209-0.219-0.209-0.238 0-0.036 0.082-0.026 0.392 0.046 0.098 0.023 0.255 0.052 0.343 0.062l0.163 0.023-0.147-0.137c-0.082-0.075-0.209-0.193-0.287-0.265-0.144-0.134-0.163-0.212-0.052-0.199 0.033 0.007 0.202 0.033 0.372 0.062 0.366 0.062 1.094 0.046 1.355-0.029 0.264-0.078 0.601-0.215 0.839-0.343 0.291-0.153 0.294-0.212 0.039-0.473-0.101-0.101-0.196-0.186-0.212-0.186s-0.029-0.016-0.029-0.036c0-0.039 0.209-0.029 0.539 0.023l0.131 0.020-0.098-0.085c-0.052-0.046-0.157-0.111-0.229-0.144s-0.15-0.085-0.173-0.111c-0.036-0.046-0.013-0.052 0.18-0.072 0.3-0.029 0.793-0.124 0.793-0.15 0-0.013-0.091-0.052-0.202-0.091-0.258-0.085-0.568-0.196-0.695-0.248-0.209-0.088-0.565-0.18-0.767-0.196-0.183-0.016-0.196-0.013-0.098 0.016 0.104 0.033 0.108 0.039 0.049 0.072-0.036 0.020-0.17 0.033-0.3 0.029-0.153-0.003-0.238 0.010-0.238 0.033s-0.059 0.029-0.167 0.020c-0.091-0.010-0.147-0.007-0.127 0.007 0.029 0.020 0.029 0.029-0.003 0.042-0.026 0.010 0 0.013 0.052 0.003 0.173-0.026 0.94-0.036 0.875-0.010-0.033 0.013-0.17 0.023-0.304 0.023-0.134 0.003-0.297 0.010-0.359 0.020-0.317 0.046-0.392 0.062-0.581 0.124-0.114 0.036-0.238 0.059-0.274 0.049-0.049-0.013-0.059-0.010-0.033 0.016 0.023 0.023-0.020 0.072-0.153 0.16-0.189 0.127-0.31 0.232-0.47 0.415-0.049 0.059-0.114 0.105-0.147 0.105-0.039 0-0.033-0.016 0.036-0.059 0.049-0.033 0.137-0.127 0.193-0.206l0.104-0.144-0.104 0.095c-0.059 0.055-0.104 0.114-0.104 0.131-0.003 0.046-0.225 0.189-0.261 0.167-0.013-0.010-0.033 0.007-0.042 0.029-0.013 0.033 0 0.042 0.046 0.036 0.039-0.007 0.056 0 0.042 0.020-0.010 0.020-0.049 0.029-0.082 0.020-0.039-0.010-0.062 0-0.062 0.033 0 0.026-0.013 0.036-0.033 0.026s0-0.065 0.042-0.131c0.039-0.059 0.082-0.101 0.095-0.095 0.013 0.010 0.016-0.007 0.007-0.036-0.016-0.042-0.007-0.049 0.062-0.033 0.065 0.016 0.091 0.007 0.121-0.049 0.033-0.059 0.029-0.069-0.003-0.049-0.029 0.020-0.036 0.010-0.020-0.029 0.013-0.036 0.010-0.049-0.013-0.036-0.020 0.013-0.026 0.042-0.016 0.069 0.020 0.052-0.029 0.091-0.078 0.062-0.020-0.013-0.003-0.059 0.039-0.118 0.069-0.091 0.078-0.095 0.114-0.042 0.023 0.033 0.052 0.046 0.065 0.033s0.003-0.036-0.020-0.049c-0.026-0.016-0.033-0.046-0.020-0.069 0.020-0.029 0.013-0.036-0.016-0.016-0.026 0.016-0.016-0.016 0.023-0.069 0.036-0.052 0.144-0.222 0.235-0.382 0.287-0.483 0.712-0.846 1.14-0.973 0.075-0.023 0.137-0.049 0.137-0.059 0-0.055-0.395-0.268-0.562-0.304-0.327-0.069-0.219-0.101 0.245-0.078l0.431 0.023-0.108-0.111c-0.062-0.062-0.219-0.163-0.349-0.222-0.134-0.062-0.242-0.127-0.242-0.144 0-0.039 0.451-0.408 0.709-0.581 0.255-0.173 0.751-0.418 1.084-0.539 0.712-0.261 1.509-0.304 2.119-0.111 0.14 0.042 0.186 0.075 0.219 0.153 0.065 0.15 0.052 0.033-0.033-0.327-0.14-0.575-0.33-1.025-0.718-1.698-0.163-0.281-0.186-0.287-0.088-0.033 0.118 0.32 0.131 0.294-0.124 0.284l-0.222-0.013-0.020-0.49c-0.013-0.271-0.023-0.598-0.023-0.725s-0.029-0.379-0.062-0.558c-0.137-0.702-0.121-1.192 0.062-1.94 0.219-0.895 0.585-1.629 1.202-2.413 0.271-0.343 0.31-0.362 0.101-0.052-0.052 0.075-0.082 0.144-0.072 0.157 0.013 0.010 0.003 0.020-0.016 0.020-0.023 0-0.039 0.013-0.039 0.029s0.065 0.020 0.144 0.013c0.271-0.033 0.48 0.14 0.663 0.545 0.153 0.336 0.558 1.453 0.673 1.845 0.193 0.663 0.317 1.453 0.317 2.011 0 0.297-0.085 1.13-0.163 1.58-0.052 0.31-0.082 0.46-0.18 0.931-0.016 0.078-0.016 0.082 0.036 0.016 0.049-0.062 0.052-0.059 0.026 0.049-0.039 0.193-0.036 0.245 0.026 0.235 0.069-0.010 0.15 0.229 0.085 0.251-0.020 0.007-0.003 0.036 0.042 0.069 0.042 0.033 0.078 0.095 0.082 0.137 0.007 0.101 0.056 0.212 0.157 0.362 0.062 0.088 0.082 0.15 0.065 0.196-0.062 0.199-0.49 0.699-0.676 0.793-0.261 0.134-0.444 0.046-0.705-0.333-0.101-0.147-0.199-0.294-0.219-0.327-0.033-0.056-0.036-0.056-0.056 0-0.013 0.033-0.010 0.049 0.010 0.036s0.056 0.029 0.082 0.095c0.026 0.062 0.062 0.121 0.082 0.134 0.056 0.033 0.036 0.082-0.039 0.114-0.059 0.023-0.062 0.029-0.016 0.029 0.029 0.003 0.056 0.026 0.056 0.052 0 0.036-0.039 0.049-0.15 0.049-0.144 0-0.15 0.003-0.131 0.082 0.029 0.114-0.020 0.101-0.075-0.020-0.059-0.134-0.085-0.095-0.036 0.059 0.14 0.441 0.431 0.872 0.689 1.009 0.167 0.091 0.526 0.082 0.709-0.016 0.294-0.15 0.611-0.509 0.852-0.957 0.072-0.137 0.134-0.261 0.134-0.274s-0.078 0.052-0.17 0.144c-0.095 0.091-0.238 0.215-0.32 0.278-0.15 0.114-0.656 0.382-0.718 0.382-0.065 0-0.029-0.085 0.062-0.14 0.235-0.14 0.738-0.761 0.709-0.882-0.007-0.029-0.003-0.049 0.010-0.039 0.016 0.007 0.046-0.026 0.069-0.075s0.062-0.127 0.085-0.176c0.052-0.101 0.059-0.17 0.013-0.14-0.016 0.010-0.033 0.049-0.033 0.085 0 0.033-0.016 0.062-0.036 0.062-0.023 0-0.026-0.023-0.013-0.059 0.013-0.029 0.033-0.082 0.039-0.114 0.010-0.033 0.036-0.052 0.059-0.042 0.026 0.010 0.052-0.007 0.062-0.033 0.010-0.029 0.003-0.039-0.013-0.029-0.042 0.026-0.042-0.003 0-0.082s0.183-0.581 0.264-0.947c0.268-1.185 0.189-2.576-0.216-3.814-0.18-0.545-0.64-1.495-1.104-2.276-0.075-0.127-0.137-0.251-0.144-0.278-0.003-0.029 0.111-0.15 0.261-0.281 0.147-0.124 0.578-0.493 0.953-0.813 0.754-0.643 1.607-1.463 2.021-1.943 0.375-0.431 1.071-1.329 1.303-1.682 0.242-0.366 0.454-0.787 0.565-1.117 0.105-0.313 0.144-0.849 0.078-1.123-0.042-0.173-0.147-0.421-0.183-0.421-0.082 0-0.15 0.098-0.229 0.333-0.366 1.1-1.048 1.917-2.348 2.808-0.379 0.261-1.042 0.679-1.071 0.679-0.010 0 0.131-0.238 0.317-0.532 0.568-0.901 0.826-1.411 0.986-1.936 0.114-0.382 0.131-1.032 0.033-1.319-0.131-0.389-0.261-0.519-0.349-0.356zM13.149 6.047c-0.010 0.023-0.016 0.007-0.016-0.039s0.007-0.062 0.016-0.042c0.007 0.023 0.007 0.062 0 0.082zM11.161 6.021c-0.023 0.026-0.049 0.039-0.056 0.036-0.016-0.020 0.033-0.082 0.065-0.082 0.016 0 0.013 0.020-0.010 0.046zM12.633 6.567c0.003 0.056-0.313 0.32-0.346 0.291-0.010-0.010-0.029 0.016-0.046 0.056-0.042 0.111-0.114 0.091-0.206-0.062-0.091-0.157-0.104-0.14 0.242-0.366 0.134-0.088 0.251-0.176 0.258-0.196 0.016-0.036 0.095 0.186 0.098 0.278zM10.704 6.71c0 0.016-0.020 0.029-0.049 0.023-0.036-0.010-0.046 0.003-0.029 0.042 0.013 0.042 0.007 0.049-0.042 0.033-0.049-0.013-0.059-0.007-0.049 0.039 0.013 0.042-0.029 0.108-0.124 0.202l-0.14 0.137-0.104-0.121c-0.059-0.069-0.108-0.137-0.104-0.157 0-0.020 0.121-0.134 0.268-0.255l0.264-0.215 0.052 0.118c0.029 0.069 0.056 0.134 0.059 0.153zM11.683 7.135c0.039 0.101 0.072 0.196 0.072 0.215 0 0.023-0.114 0.153-0.251 0.297-0.14 0.144-0.271 0.287-0.287 0.32-0.020 0.036-0.049 0.052-0.069 0.039-0.065-0.046-0.313-0.509-0.278-0.522 0.020-0.007 0.114-0.075 0.209-0.15 0.189-0.153 0.487-0.372 0.513-0.375 0.010-0.003 0.049 0.078 0.091 0.176zM12.585 7.047c0.007 0.013-0.013 0.026-0.046 0.026s-0.052-0.013-0.046-0.026c0.010-0.013 0.029-0.026 0.046-0.026s0.036 0.013 0.046 0.026zM9.878 7.543c-0.010 0.020-0.003 0.033 0.016 0.033 0.023 0-0.020 0.069-0.088 0.153-0.069 0.088-0.189 0.245-0.268 0.353-0.082 0.108-0.15 0.202-0.157 0.212-0.020 0.020-0.17-0.173-0.173-0.219 0-0.020-0.010-0.042-0.023-0.049-0.016-0.007-0.056-0.056-0.095-0.108-0.059-0.085-0.062-0.104-0.023-0.144 0.056-0.049 0.039-0.118-0.026-0.118-0.026 0-0.042 0.026-0.042 0.059 0.007 0.046-0.003 0.049-0.039 0.020-0.052-0.042-0.007-0.104 0.108-0.134 0.052-0.013 0.065-0.007 0.052 0.026-0.029 0.075 0.033 0.052 0.157-0.062 0.062-0.056 0.186-0.167 0.274-0.245l0.157-0.14 0.095 0.167c0.052 0.091 0.085 0.18 0.075 0.196zM11.004 7.197c0 0.007-0.039 0.039-0.088 0.069l-0.091 0.059 0.062-0.069c0.056-0.065 0.118-0.095 0.118-0.059zM10.364 7.736c-0.088 0.078-0.095 0.095-0.049 0.124 0.029 0.020 0.042 0.046 0.029 0.059s-0.046 0-0.075-0.029c-0.059-0.056-0.098-0.072-0.069-0.023 0.029 0.046-0.016 0.137-0.059 0.111-0.020-0.010-0.023-0.007-0.010 0.007 0.049 0.055 0.137 0.046 0.209-0.023 0.065-0.059 0.069-0.075 0.026-0.104-0.042-0.033-0.042-0.042 0.016-0.078 0.039-0.023 0.065-0.026 0.065-0.007 0 0.016-0.020 0.033-0.039 0.033-0.026 0.003-0.020 0.020 0.016 0.046 0.033 0.026 0.085 0.124 0.121 0.219 0.033 0.098 0.088 0.245 0.127 0.33l0.065 0.15-0.3 0.405-0.118-0.124c-0.065-0.072-0.173-0.199-0.238-0.284-0.104-0.137-0.114-0.17-0.088-0.242s0.023-0.078-0.013-0.049c-0.036 0.029-0.052 0.023-0.082-0.042-0.033-0.072-0.020-0.095 0.209-0.3 0.137-0.121 0.264-0.238 0.287-0.258 0.020-0.023 0.042-0.033 0.052-0.023 0.010 0.007-0.029 0.056-0.085 0.104zM10.286 7.967c0 0.016-0.013 0.033-0.033 0.033-0.016 0-0.033-0.016-0.033-0.033 0-0.020 0.016-0.033 0.033-0.033 0.020 0 0.033 0.013 0.033 0.033zM9.58 8.575c0.010 0.029 0.020 0.078 0.020 0.114 0 0.033 0.020 0.062 0.042 0.062 0.020 0 0.075 0.069 0.121 0.15 0.042 0.085 0.14 0.222 0.219 0.307s0.14 0.173 0.14 0.193c0 0.039-0.291 0.526-0.317 0.526-0.007 0-0.121-0.078-0.248-0.173-0.127-0.091-0.245-0.167-0.258-0.16-0.016 0.003-0.023-0.007-0.010-0.026 0.010-0.016 0.007-0.033-0.010-0.033s-0.078-0.062-0.137-0.134l-0.108-0.134 0.059-0.104c0.085-0.147 0.313-0.487 0.366-0.536 0.023-0.023 0.042-0.059 0.042-0.075 0-0.049 0.056-0.033 0.078 0.023zM8.878 9.878c0 0.016-0.013 0.010-0.029-0.016-0.020-0.029-0.033-0.033-0.033-0.010 0 0.042 0.062 0.088 0.118 0.091 0.023 0 0.167 0.134 0.32 0.3l0.284 0.3-0.134 0.258c-0.072 0.144-0.131 0.274-0.131 0.294s-0.016 0.046-0.036 0.059c-0.026 0.013-0.029-0.003-0.016-0.056 0.020-0.069 0.020-0.072-0.023-0.023-0.039 0.049-0.052 0.046-0.176-0.036-0.229-0.153-0.415-0.327-0.418-0.395-0.003-0.033 0.007-0.056 0.023-0.046 0.013 0.010 0.026-0.003 0.026-0.029s0.023-0.091 0.049-0.14c0.026-0.052 0.049-0.121 0.049-0.15s0.016-0.065 0.033-0.075c0.046-0.026 0.042-0.137-0.003-0.167-0.026-0.016-0.033 0.003-0.023 0.065 0.020 0.091-0.003 0.108-0.069 0.042-0.036-0.033-0.039-0.020-0.020 0.072 0.016 0.075 0.013 0.101-0.013 0.088-0.036-0.023-0.046 0.010-0.039 0.111 0 0.029-0.013 0.023-0.033-0.020-0.026-0.052-0.016-0.104 0.049-0.251 0.046-0.098 0.085-0.199 0.085-0.219s0.013-0.026 0.033-0.016c0.020 0.010 0.023-0.003 0.013-0.033-0.013-0.026 0-0.072 0.023-0.101 0.039-0.046 0.046-0.046 0.065 0.010 0.013 0.033 0.026 0.072 0.026 0.091zM7.164 10.749c-0.029 0.046-0.075-0.007-0.056-0.059 0.013-0.039 0.026-0.042 0.046-0.010 0.013 0.023 0.016 0.056 0.010 0.069zM7.118 10.873c0 0.016-0.013 0.033-0.033 0.033-0.016 0-0.033-0.016-0.033-0.033 0-0.020 0.016-0.033 0.033-0.033 0.020 0 0.033 0.013 0.033 0.033zM7.076 11.154c-0.010 0.010-0.039 0.013-0.062 0.003-0.026-0.010-0.016-0.020 0.020-0.020 0.036-0.003 0.056 0.007 0.042 0.016zM8.666 11.451c0.157 0.157 0.206 0.225 0.176 0.245-0.033 0.020-0.033 0.026 0.003 0.026 0.023 0-0.023 0.065-0.101 0.147-0.082 0.082-0.163 0.147-0.183 0.147-0.016 0-0.026 0.029-0.016 0.065 0.013 0.046 0 0.065-0.036 0.065-0.029 0-0.052-0.016-0.052-0.039 0-0.020-0.010-0.029-0.020-0.020-0.010 0.013 0.007 0.056 0.036 0.101 0.036 0.056 0.042 0.088 0.016 0.104-0.016 0.010-0.042-0.003-0.052-0.029-0.010-0.029-0.039-0.052-0.062-0.052-0.091 0-0.144-0.111-0.114-0.245 0.013-0.072 0.042-0.219 0.065-0.327 0.036-0.199 0.095-0.408 0.111-0.408 0.007 0 0.108 0.098 0.229 0.219zM7.327 12.016c0.069 0.056 0.111 0.098 0.091 0.098-0.023 0-0.039 0.013-0.039 0.033 0 0.016 0.020 0.023 0.046 0.013s0.088 0.007 0.14 0.036l0.091 0.052-0.104-0.020c-0.088-0.016-0.104-0.013-0.088 0.029 0.010 0.029-0.013 0.082-0.065 0.127-0.046 0.042-0.085 0.095-0.085 0.118 0 0.020-0.026 0.036-0.059 0.036-0.088 0-0.098 0.245-0.013 0.291 0.036 0.020 0.075 0.023 0.088 0.010 0.016-0.013 0.016-0.007 0.003 0.016-0.016 0.029-0.049 0.026-0.14-0.013-0.153-0.062-0.349-0.209-0.313-0.235 0.013-0.010 0.029-0.085 0.033-0.167s0.023-0.268 0.046-0.418l0.036-0.271 0.104 0.085c0.056 0.046 0.16 0.127 0.229 0.18zM8.611 12.323c0 0.026-0.020 0.039-0.049 0.029-0.036-0.016-0.036-0.023 0-0.046 0.023-0.016 0.042-0.029 0.046-0.029 0 0 0.003 0.020 0.003 0.046zM8.147 12.865c0.010 0.016 0.003 0.033-0.013 0.033-0.020 0-0.036-0.016-0.036-0.033 0-0.020 0.007-0.033 0.013-0.033 0.010 0 0.026 0.013 0.036 0.033zM11.461 13.933c0 0.049-0.131 0.013-0.153-0.042-0.007-0.023 0.003-0.062 0.029-0.088 0.036-0.042 0.049-0.039 0.082 0.023 0.023 0.036 0.039 0.085 0.042 0.108zM11.602 14.514c0.082 0.033 0.127 0.082 0.167 0.183 0.029 0.075 0.046 0.144 0.036 0.153s-0.016 0-0.016-0.020c0-0.020-0.072-0.091-0.163-0.16-0.088-0.065-0.163-0.14-0.163-0.163 0-0.052 0-0.052 0.14 0.007zM13.574 14.864c-0.010 0.026-0.020 0.016-0.020-0.020-0.003-0.036 0.007-0.056 0.016-0.042 0.010 0.010 0.013 0.039 0.003 0.062zM12.614 16.529c-0.033 0.069-0.033 0.069-0.029-0.029 0.003-0.062 0.016-0.091 0.033-0.075 0.020 0.020 0.016 0.059-0.003 0.105zM12.758 16.62c0.069 0.078 0.069 0.085 0.013 0.085-0.033 0-0.056-0.020-0.046-0.039 0.007-0.023 0-0.049-0.020-0.062-0.020-0.010-0.036-0.036-0.036-0.055s0.003-0.029 0.010-0.023c0.003 0.007 0.039 0.049 0.078 0.095zM12.585 16.673c0.010 0.026 0.007 0.039-0.013 0.029s-0.033-0.033-0.033-0.052c0-0.046 0.023-0.036 0.046 0.023zM16.911 17.998c0 0.101-0.010 0.121-0.026 0.078-0.023-0.059-0.010-0.215 0.016-0.215 0.007 0 0.013 0.062 0.010 0.137zM9.42 18.253c-0.010 0.016-0.039 0.033-0.059 0.033-0.023 0-0.020-0.013 0.010-0.033 0.062-0.039 0.075-0.039 0.049 0zM9.283 18.439c-0.023 0.007-0.069 0.007-0.098 0-0.033-0.010-0.013-0.016 0.039-0.016 0.056 0 0.078 0.007 0.059 0.016zM9.636 18.962c0.042 0.052 0.039 0.055-0.010 0.013-0.056-0.042-0.072-0.069-0.046-0.069 0.007 0 0.033 0.026 0.056 0.055zM6.681 19.912c-0.056 0.052-0.059 0.052-0.016-0.016 0.023-0.039 0.049-0.065 0.059-0.055 0.010 0.007-0.010 0.039-0.042 0.072zM14.328 21.313c-0.033 0.007-0.091 0.007-0.131 0-0.042-0.007-0.016-0.013 0.056-0.013 0.072-0.003 0.104 0.003 0.075 0.013zM7.461 22.452c-0.020 0.144-0.082 0.202-0.082 0.078 0-0.036 0.016-0.065 0.033-0.065 0.020 0 0.036-0.062 0.036-0.14 0.003-0.075 0.010-0.111 0.020-0.075 0.010 0.033 0.007 0.124-0.007 0.202zM7.347 22.514c0 0.016-0.016 0.010-0.033-0.016s-0.033-0.065-0.033-0.082c0-0.020 0.016-0.010 0.033 0.016s0.033 0.062 0.033 0.082zM6.772 22.776c-0.013 0.026-0.026 0.049-0.033 0.049s-0.013-0.023-0.013-0.049c0-0.026 0.013-0.049 0.033-0.049 0.016 0 0.023 0.023 0.013 0.049zM6.939 22.949c-0.016 0.016-0.147-0.118-0.147-0.15 0-0.010 0.036 0.016 0.082 0.059s0.075 0.085 0.065 0.091zM6.857 22.991c0.023 0.042 0.023 0.062 0 0.062-0.016 0-0.033-0.026-0.036-0.059-0.003-0.036-0.013-0.029-0.029 0.026-0.026 0.078-0.026 0.075-0.029-0.026-0.003-0.114 0.036-0.114 0.095-0.003zM7.272 22.994c-0.010 0.023-0.016 0.007-0.016-0.039s0.007-0.062 0.016-0.042c0.007 0.023 0.007 0.062 0 0.082zM6.759 23.272c-0.036 0.055-0.036 0.055-0.020 0 0.010-0.033 0.020-0.078 0.023-0.098 0-0.029 0.007-0.029 0.016 0 0.010 0.023 0 0.065-0.020 0.098zM7.053 26.939c0 0.016-0.039 0.033-0.088 0.029l-0.091-0.003 0.082-0.026c0.046-0.013 0.085-0.026 0.091-0.029 0.003-0.003 0.007 0.010 0.007 0.029zM5.587 28.222c-0.033 0.029-0.036 0.026-0.016-0.020 0.010-0.033 0.029-0.049 0.039-0.039s0 0.036-0.023 0.059zM12.522 6.553c0.016 0.056 0.007 0.075-0.029 0.075-0.029 0-0.052 0.013-0.052 0.033 0 0.049 0.052 0.039 0.098-0.013 0.029-0.036 0.029-0.062 0-0.108-0.033-0.052-0.033-0.049-0.016 0.013zM10.103 8.088c0.010 0.010 0.003 0.039-0.016 0.065-0.056 0.062-0.003 0.052 0.069-0.016 0.062-0.059 0.062-0.059-0.003-0.062-0.039-0.003-0.062 0.003-0.049 0.013zM9.518 8.82c-0.036 0.056 0.003 0.069 0.049 0.013 0.026-0.029 0.026-0.049 0.007-0.049s-0.046 0.016-0.056 0.036zM9.437 8.947c0 0.016 0.016 0.033 0.033 0.033 0.020 0 0.033-0.016 0.033-0.033 0-0.020-0.013-0.033-0.033-0.033-0.016 0-0.033 0.013-0.033 0.033zM9.257 9.244c-0.013 0.020-0.016 0.039-0.007 0.049 0.007 0.010 0.023-0.007 0.033-0.036 0.023-0.056 0.003-0.065-0.026-0.013zM8.578 8.199c0.013 0.042 0.026 0.059 0.036 0.033 0.007-0.023-0.003-0.059-0.020-0.075-0.026-0.026-0.029-0.013-0.016 0.042zM8.425 8.183c0 0.013 0.026 0.042 0.056 0.065 0.033 0.023 0.049 0.052 0.036 0.065-0.016 0.013-0.059-0.003-0.098-0.039l-0.075-0.062 0.062 0.072c0.049 0.062 0.056 0.082 0.020 0.124-0.023 0.029-0.036 0.059-0.026 0.065 0.007 0.010 0.049-0.029 0.091-0.088 0.056-0.072 0.065-0.114 0.042-0.15-0.033-0.056-0.108-0.091-0.108-0.052zM8.307 8.333c-0.039 0.059-0.049 0.216-0.016 0.235 0.016 0.010 0.026-0.036 0.023-0.104 0-0.085 0.010-0.118 0.039-0.111 0.026 0.003 0.036-0.007 0.023-0.026-0.026-0.042-0.039-0.042-0.069 0.007zM7.739 9.078c-0.026 0.049-0.026 0.065-0.003 0.052 0.020-0.013 0.036-0.003 0.036 0.020 0 0.026 0.016 0.016 0.036-0.016 0.026-0.042 0.026-0.072 0.003-0.095s-0.046-0.010-0.072 0.039zM7.755 9.306c0.010 0.016 0.026 0.033 0.036 0.033 0.007 0 0.013-0.016 0.013-0.033 0-0.020-0.016-0.033-0.036-0.033-0.016 0-0.023 0.013-0.013 0.033zM7.579 9.378c-0.042 0.065-0.039 0.072 0.003 0.036 0.026-0.023 0.059-0.033 0.072-0.020s0.013 0 0-0.033c-0.026-0.069-0.020-0.069-0.075 0.016zM7.497 9.518c-0.029 0.085-0.023 0.104 0.016 0.039 0.020-0.033 0.029-0.069 0.020-0.075-0.007-0.010-0.023 0.007-0.036 0.036zM7.562 9.78c0.013 0.026 0.026 0.049 0.033 0.049s0.013-0.023 0.013-0.049c0-0.026-0.013-0.049-0.033-0.049-0.016 0-0.023 0.023-0.013 0.049zM12.611 10.42c-0.039 0.127-0.062 0.245-0.052 0.264 0.013 0.023 0.007 0.026-0.013 0.013-0.052-0.033-0.15 0.209-0.104 0.255 0.026 0.026 0.029 0.020 0.016-0.016-0.013-0.033-0.007-0.065 0.013-0.078 0.056-0.033 0.042 0.124-0.013 0.199-0.026 0.033-0.046 0.091-0.049 0.127 0 0.193 0.216-0.431 0.258-0.751 0.020-0.124 0.029-0.229 0.023-0.235-0.003-0.003-0.039 0.095-0.078 0.222zM7.184 10.318c0 0.026 0.016 0.072 0.033 0.098 0.029 0.042 0.033 0.042 0.033 0 0-0.026-0.016-0.072-0.033-0.098-0.029-0.042-0.033-0.042-0.033 0zM12.66 12.725c-0.104 0.163-0.193 0.34-0.18 0.353 0.007 0.003 0.072-0.101 0.144-0.232 0.144-0.255 0.163-0.323 0.036-0.121zM12.366 13.29c-0.010 0.036-0.007 0.065 0.010 0.065 0.013 0 0.033-0.029 0.042-0.065s0.007-0.065-0.010-0.065c-0.013 0-0.033 0.029-0.042 0.065zM12.539 13.783c-0.023 0.036-0.033 0.075-0.023 0.082 0.007 0.007 0.029-0.023 0.049-0.069 0.046-0.098 0.023-0.108-0.026-0.013zM12.382 13.845c0 0.046 0.007 0.062 0.016 0.039 0.007-0.020 0.007-0.059 0-0.082-0.010-0.020-0.016-0.003-0.016 0.042zM12.444 14.060c0 0.036 0.010 0.046 0.020 0.020 0.010-0.023 0.007-0.052-0.003-0.062-0.010-0.013-0.020 0.007-0.016 0.042zM12.411 14.191c0 0.036 0.010 0.046 0.020 0.020 0.010-0.023 0.007-0.052-0.003-0.062-0.010-0.013-0.020 0.007-0.016 0.042zM12.313 14.387c0 0.036 0.010 0.046 0.020 0.020 0.010-0.023 0.007-0.052-0.003-0.062-0.010-0.013-0.020 0.007-0.016 0.042zM12.539 14.42c-0.023 0.052-0.046 0.137-0.052 0.193-0.010 0.056 0.013 0.023 0.049-0.078 0.039-0.098 0.062-0.186 0.052-0.193-0.007-0.010-0.029 0.026-0.049 0.078zM12.411 14.743c0.003 0.062 0.059 0.167 0.059 0.114 0-0.026-0.013-0.072-0.029-0.098s-0.029-0.036-0.029-0.016zM12.447 15.037c0 0.052 0.007 0.072 0.016 0.039 0.007-0.029 0.007-0.075 0-0.098-0.010-0.020-0.016 0.003-0.016 0.059zM12.493 15.154c-0.023 0.069-0.049 0.493-0.029 0.473 0.023-0.020 0.075-0.49 0.056-0.506-0.007-0.007-0.020 0.007-0.026 0.033zM12.32 15.971c-0.007 0.075 0.010 0.082 0.033 0.013 0.013-0.026 0.010-0.052-0.003-0.062s-0.029 0.013-0.029 0.049zM16.754 17.293c0 0.036 0.010 0.046 0.020 0.020 0.010-0.023 0.007-0.052-0.003-0.062-0.010-0.013-0.020 0.007-0.016 0.042zM8.539 18.152c-0.026 0.046 0.163 0.075 0.408 0.062 0.206-0.013 0.206-0.013-0.056-0.020-0.157-0.003-0.271-0.020-0.271-0.039 0-0.042-0.056-0.042-0.082-0.003zM8.81 18.145c0.023 0.010 0.052 0.007 0.062-0.003 0.013-0.010-0.007-0.020-0.042-0.016-0.036 0-0.046 0.010-0.020 0.020zM8.059 18.309c0.023 0.010 0.052 0.007 0.062-0.003 0.013-0.010-0.007-0.020-0.042-0.016-0.036 0-0.046 0.010-0.020 0.020zM7.931 18.361c0.016 0.016 0.078 0.023 0.137 0.016 0.108-0.010 0.108-0.013-0.026-0.026-0.075-0.010-0.127-0.007-0.111 0.010zM8.091 18.439c0.023 0.010 0.052 0.007 0.062-0.003 0.013-0.010-0.007-0.020-0.042-0.016-0.036 0-0.046 0.010-0.020 0.020zM7.928 18.472c0.020 0.007 0.059 0.007 0.082 0 0.020-0.010 0.003-0.016-0.042-0.016s-0.062 0.007-0.039 0.016zM7.367 18.635c-0.020 0.046-0.016 0.049 0.016 0.020 0.023-0.023 0.033-0.049 0.023-0.059s-0.029 0.007-0.039 0.039zM7.115 18.766c-0.042 0.052-0.039 0.055 0.013 0.013 0.029-0.023 0.056-0.049 0.056-0.055 0-0.026-0.026-0.010-0.069 0.042zM7.304 18.766c-0.033 0.029-0.029 0.108 0.003 0.108 0.013 0 0.026-0.029 0.026-0.065 0-0.075 0-0.072-0.029-0.042zM7.167 18.808c-0.010 0.016-0.003 0.033 0.013 0.033 0.020 0 0.036-0.016 0.036-0.033 0-0.020-0.007-0.033-0.013-0.033-0.010 0-0.026 0.013-0.036 0.033zM10.312 20.431c0.023 0.010 0.052 0.007 0.062-0.003 0.013-0.010-0.007-0.020-0.042-0.016-0.036 0-0.046 0.010-0.020 0.020zM14.893 20.689c0 0.036 0.010 0.046 0.020 0.020 0.010-0.023 0.007-0.052-0.003-0.062-0.010-0.013-0.020 0.007-0.016 0.042zM7.608 21.714c-0.029 0.020-0.033 0.033-0.010 0.033 0.020 0 0.049-0.016 0.059-0.033 0.026-0.039 0.013-0.039-0.049 0zM7.905 21.884c-0.016 0.046-0.010 0.15 0.013 0.271l0.042 0.196v-0.271c0-0.147-0.007-0.268-0.013-0.268-0.010 0-0.026 0.033-0.042 0.072zM11.755 22.955c0 0.016 0.023 0.033 0.049 0.033s0.049-0.016 0.049-0.033c0-0.020-0.023-0.033-0.049-0.033s-0.049 0.013-0.049 0.033zM6.498 27.2c0 0.016 0.023 0.023 0.049 0.013 0.026-0.013 0.049-0.026 0.049-0.033s-0.023-0.013-0.049-0.013c-0.026 0-0.049 0.013-0.049 0.033zM3.918 28.797c0 0.033 0.062 0.082 0.082 0.065 0.003-0.007-0.010-0.033-0.036-0.055s-0.046-0.026-0.046-0.010zM3.465 29.211c0 0.036 0.010 0.046 0.020 0.020 0.010-0.023 0.007-0.052-0.003-0.062-0.010-0.013-0.020 0.007-0.016 0.042zM2.312 29.607c0.039 0.007 0.098 0.007 0.131 0 0.029-0.010-0.003-0.016-0.075-0.013-0.072 0-0.098 0.007-0.055 0.013z"></path>
</svg>
