<svg xmlns="http://www.w3.org/2000/svg" xmlns:xlink="http://www.w3.org/1999/xlink" xml:space="preserve" version="1.1" style="shape-rendering:geometricPrecision;text-rendering:geometricPrecision;image-rendering:optimizeQuality;" viewBox="0 0 847 1058.75" x="0px" y="0px" fill-rule="evenodd" clip-rule="evenodd"><defs><style type="text/css">
   
    .fil0 {fill:black;fill-rule:nonzero}
   
  </style></defs><g><path class="fil0" d="M146 670c-1,-95 134,-194 149,-351 1,-7 11,-7 12,0 11,156 150,256 149,351 -1,209 -307,209 -310,0zm328 -114c-1,-68 98,-141 109,-256 0,-5 8,-5 9,0 7,114 109,187 108,256 -1,153 -224,153 -226,0zm153 -115c34,64 23,96 18,139 -6,44 67,-15 -18,-139zm-244 -198c-1,-59 83,-122 93,-219 0,-5 7,-5 8,0 6,97 93,159 93,219 -1,131 -192,131 -194,0zm131 -99c29,55 20,82 15,119 -5,37 57,-13 -15,-119zm-158 368c46,88 31,130 24,190 -8,60 92,-20 -24,-190z"/></g><text x="0" y="862" fill="#000000" font-size="5px" font-weight="bold" font-family="'Helvetica Neue', Helvetica, Arial-Unicode, Arial, Sans-serif">Created by Qomariyah</text><text x="0" y="867" fill="#000000" font-size="5px" font-weight="bold" font-family="'Helvetica Neue', Helvetica, Arial-Unicode, Arial, Sans-serif">from the Noun Project</text></svg>