<!-- Generated by IcoMoon.io -->
<svg version="1.1" xmlns="http://www.w3.org/2000/svg" width="32" height="32" viewBox="0 0 32 32">
<title>Boat</title>
<path d="M29.125 17.063c0 0-6.063 1.375-13.063 2.063v-16.438c0-0.375-0.313-0.688-0.688-0.688s-0.688 0.313-0.688 0.688v16.563c-4.125 0.313-8.5 0.375-12.063-0.313-0.25 4.125 2.688 7.063 6.063 7.063h11.938c4.875 0 8.813-3.938 8.813-8.813zM26.938 15.813l-9.75 1.5c-0.188 0.063-0.375-0.125-0.375-0.313v-13.5c0-0.313 0.375-0.5 0.563-0.25l9.813 12c0.125 0.188 0 0.5-0.25 0.563zM6.875 17.625l6.688-0.188c0.188-0.063 0.313-0.188 0.313-0.375v-9.25c0-0.313-0.438-0.5-0.625-0.188l-6.688 9.5c-0.125 0.188 0 0.5 0.313 0.5z"></path>
</svg>
