<!-- Generated by IcoMoon.io -->
<svg version="1.1" xmlns="http://www.w3.org/2000/svg" width="32" height="32" viewBox="0 0 32 32">
<title>bones</title>
<path d="M10.125 31.5c-1.188 0-2.25-0.438-3.063-1.25-1.125-1.125-1.5-2.75-1.063-4.25-0.375 0.125-0.75 0.188-1.188 0.188-1.125 0-2.188-0.438-3-1.25-1.688-1.625-1.688-4.313 0-6 0.813-0.813 1.875-1.25 3-1.25s2.188 0.438 3 1.25c0.125 0.125 0.188 0.188 0.313 0.313 0 0 11.188-11.188 11.188-11.188-0.125-0.063-0.25-0.188-0.313-0.313-0.813-0.75-1.25-1.875-1.25-3s0.438-2.188 1.25-3c0.813-0.813 1.875-1.25 3-1.25s2.188 0.438 3 1.25c0.813 0.813 1.25 1.875 1.25 3 0 0.438-0.063 0.813-0.188 1.25 0.375-0.125 0.813-0.188 1.188-0.188 1.188 0 2.25 0.438 3 1.25 1.688 1.625 1.688 4.313 0 6-0.75 0.813-1.813 1.25-3 1.25-1.125 0-2.188-0.438-3-1.25-0.063-0.125-0.188-0.188-0.25-0.313 0 0-11.188 11.188-11.188 11.188 0.063 0.063 0.188 0.188 0.313 0.313 0.75 0.75 1.25 1.875 1.25 3s-0.5 2.188-1.25 3c-0.813 0.813-1.875 1.25-3 1.25zM7.938 24.563c0 0.188 0 0.313-0.125 0.375-1.25 1.25-1.25 3.313 0 4.563 0.625 0.625 1.438 0.938 2.313 0.938 0.813 0 1.625-0.313 2.25-0.938s0.938-1.438 0.938-2.25c0-0.875-0.313-1.688-0.938-2.313-0.188-0.188-0.438-0.375-0.625-0.5-0.125-0.063-0.25-0.188-0.25-0.375-0.063-0.125 0-0.313 0.125-0.438 0 0 12.063-12.063 12.063-12.063 0.125-0.063 0.25-0.125 0.438-0.125 0.125 0 0.313 0.125 0.375 0.25 0.125 0.25 0.313 0.438 0.5 0.625 0.625 0.625 1.438 0.938 2.25 0.938 0.875 0 1.688-0.313 2.313-0.938 1.25-1.25 1.25-3.25 0-4.563-0.625-0.563-1.438-0.938-2.313-0.938-0.813 0-1.625 0.375-2.25 0.938-0.188 0.25-0.563 0.25-0.75 0-0.188-0.188-0.188-0.5 0-0.688 0.625-0.625 0.938-1.438 0.938-2.313 0-0.813-0.313-1.625-0.938-2.25s-1.375-0.938-2.25-0.938c-0.875 0-1.688 0.313-2.313 0.938-0.563 0.625-0.938 1.438-0.938 2.25 0 0.875 0.375 1.688 0.938 2.313 0.188 0.188 0.438 0.375 0.688 0.5 0.125 0.063 0.188 0.188 0.25 0.375 0 0.125-0.063 0.313-0.188 0.438 0 0-12.063 12.063-12.063 12.063-0.063 0.063-0.25 0.125-0.438 0.125-0.125 0-0.25-0.125-0.375-0.25-0.125-0.25-0.25-0.438-0.5-0.625-0.563-0.625-1.375-0.938-2.25-0.938s-1.688 0.313-2.25 0.938c-1.313 1.25-1.313 3.25 0 4.563 0.563 0.563 1.375 0.938 2.25 0.938s1.688-0.375 2.25-0.938c0.25-0.25 0.563-0.25 0.75 0 0.125 0.063 0.125 0.188 0.125 0.313z"></path>
</svg>
