<!-- Generated by IcoMoon.io -->
<svg version="1.1" xmlns="http://www.w3.org/2000/svg" width="32" height="32" viewBox="0 0 32 32">
<title>Bonobo</title>
<path d="M0.875-0.313h-0.188c0 0.125-0.063 0.188-0.188 0.188-0.188 0-0.25-0.125-0.25-0.313 0-0.25 0.063-0.375 0.25-0.375 0.125 0 0.188 0.063 0.188 0.188h0.188c0-0.188-0.188-0.313-0.375-0.313-0.25 0-0.438 0.188-0.438 0.5 0 0.25 0.188 0.438 0.438 0.438 0.188 0 0.375-0.125 0.375-0.313zM0.5-0.5v-0.188c-0.063 0-0.063 0-0.063 0-0.063 0-0.125 0.063-0.188 0.125v-0.125h-0.188v0.688h0.188v-0.375c0-0.125 0.063-0.125 0.188-0.125 0 0 0 0 0.063 0zM0.688-0.313c0-0.25-0.125-0.375-0.313-0.375-0.25 0-0.375 0.125-0.375 0.375 0 0.188 0.125 0.313 0.375 0.313 0.125 0 0.25-0.063 0.313-0.188h-0.188c0 0.063-0.063 0.063-0.125 0.063-0.125 0-0.188-0.063-0.188-0.188h0.5zM0.5-0.438h-0.313c0.063-0.063 0.063-0.125 0.188-0.125 0.063 0 0.125 0.063 0.125 0.125zM0.688 0v0c-0.063-0.063-0.063-0.063-0.063-0.125v-0.375c0-0.125-0.063-0.188-0.25-0.188s-0.313 0.063-0.313 0.25h0.188c0-0.125 0-0.125 0.125-0.125 0.063 0 0.063 0 0.063 0.063s-0.063 0.063-0.125 0.063l-0.063 0.063c-0.125 0-0.188 0.063-0.188 0.188s0.063 0.188 0.188 0.188c0.063 0 0.125 0 0.188-0.063 0 0 0 0.063 0.063 0.063zM0.438-0.313c0 0.125-0.063 0.188-0.125 0.188s-0.125-0.063-0.125-0.063c0-0.063 0.063-0.063 0.125-0.125h0.063c0.063 0 0.063 0 0.063 0zM0.375 0v-0.125c0 0 0 0 0 0-0.063 0-0.063 0-0.063-0.063v-0.375h0.063v-0.125h-0.063v-0.188h-0.188v0.188h-0.125v0.125h0.125v0.438c0 0.063 0.063 0.125 0.188 0.125 0 0 0.063 0 0.063 0zM0.688 0v-0.938h-0.188v0.313c0-0.063-0.063-0.063-0.188-0.063s-0.25 0.125-0.25 0.313c0 0.25 0.063 0.375 0.25 0.375 0.125 0 0.188 0 0.188-0.063v0.063zM0.5-0.313c0 0.125-0.063 0.188-0.125 0.188-0.125 0-0.188-0.063-0.188-0.25 0-0.125 0.063-0.188 0.188-0.188 0.063 0 0.125 0.063 0.125 0.25zM0.75-0.313c0-0.25-0.125-0.375-0.313-0.375-0.063 0-0.125 0-0.188 0.063v-0.313h-0.188v0.938h0.188v-0.063c0.063 0.063 0.125 0.063 0.188 0.063 0.188 0 0.313-0.125 0.313-0.313zM0.563-0.375c0 0.125-0.063 0.25-0.125 0.25-0.125 0-0.188-0.063-0.188-0.25 0-0.125 0.063-0.188 0.188-0.188 0.063 0 0.125 0.063 0.125 0.188zM0.688-0.688h-0.188l-0.125 0.5-0.188-0.5h-0.188l0.25 0.688v0.063c0 0.063 0 0.063-0.063 0.063s-0.063 0-0.063 0v0.125c0 0 0 0 0.063 0 0.125 0 0.188 0 0.188-0.125zM0.813 0v-0.938h-0.188v0.375h-0.375v-0.375h-0.188v0.938h0.188v-0.438h0.375v0.438zM0.688-0.188v0c0-0.125-0.063-0.188-0.188-0.188l-0.188-0.063c-0.063 0-0.063-0.063-0.063-0.063 0-0.063 0.063-0.063 0.125-0.063s0.125 0 0.125 0.063h0.125c0-0.125-0.063-0.188-0.25-0.188s-0.313 0.063-0.313 0.188c0 0.125 0 0.188 0.125 0.188l0.25 0.063c0.063 0 0.063 0.063 0.063 0.063 0 0.063-0.063 0.063-0.125 0.063-0.125 0-0.125 0-0.188-0.125h-0.125c0 0.188 0.063 0.25 0.313 0.25 0.188 0 0.313-0.063 0.313-0.188zM0.938-0.438c0-0.313-0.188-0.5-0.438-0.5s-0.438 0.188-0.438 0.5c0 0.25 0.188 0.438 0.438 0.438s0.438-0.188 0.438-0.438zM0.75-0.438c0 0.188-0.125 0.313-0.25 0.313s-0.25-0.125-0.25-0.313c0-0.188 0.125-0.375 0.25-0.375 0.188 0 0.25 0.125 0.25 0.375zM0.375-0.563v-0.125h-0.063v-0.063c0-0.063 0-0.063 0-0.063 0.063 0 0.063 0 0.063 0v-0.125c0 0-0.063 0-0.063 0-0.125 0-0.188 0.063-0.188 0.188v0.063h-0.125v0.125h0.125v0.563h0.188v-0.563zM0.875-0.25c0-0.125-0.063-0.188-0.188-0.25 0.125-0.063 0.125-0.125 0.125-0.188 0-0.125-0.125-0.25-0.313-0.25h-0.375v0.938h0.375c0.25 0 0.375-0.125 0.375-0.25zM0.625-0.688c0 0.063 0 0.125-0.125 0.125h-0.188v-0.188h0.188c0.125 0 0.125 0 0.125 0.063zM0.688-0.25c0 0.063-0.063 0.063-0.188 0.063h-0.188v-0.188h0.188c0.125 0 0.188 0 0.188 0.125zM0.25 0v-0.688h-0.188v0.688zM0.25-0.75v-0.188h-0.188v0.188zM0.75-0.313c0-0.25-0.125-0.375-0.375-0.375-0.188 0-0.313 0.125-0.313 0.313 0 0.25 0.125 0.375 0.313 0.375 0.25 0 0.375-0.125 0.375-0.313zM0.563-0.313c0 0.125-0.063 0.188-0.188 0.188-0.063 0-0.125-0.063-0.125-0.25 0-0.125 0.063-0.188 0.125-0.188 0.125 0 0.188 0.063 0.188 0.25zM1.063 0v-0.5c0-0.125-0.063-0.188-0.25-0.188-0.063 0-0.125 0-0.188 0.063 0-0.063-0.125-0.063-0.188-0.063s-0.125 0-0.188 0.063v-0.063h-0.188v0.688h0.188v-0.438c0-0.063 0.063-0.125 0.125-0.125s0.125 0.063 0.125 0.125v0.438h0.125v-0.438c0-0.063 0.063-0.125 0.125-0.125s0.125 0.063 0.125 0.125v0.438zM0.688 0v-0.438c0-0.188-0.063-0.25-0.25-0.25-0.063 0-0.125 0-0.188 0.125v-0.375h-0.188v0.938h0.188v-0.438c0-0.063 0.063-0.125 0.125-0.125s0.125 0.063 0.125 0.125v0.438zM0.875 0v-0.938h-0.25v0.625l-0.313-0.625h-0.25v0.938h0.188v-0.625l0.375 0.625zM0.688 0v-0.688h-0.188v0.438c0 0.063-0.063 0.125-0.125 0.125s-0.125-0.063-0.125-0.125v-0.438h-0.188v0.438c0 0.188 0.125 0.25 0.25 0.25 0.063 0 0.125 0 0.188-0.063v0.063zM0.688 0v-0.438c0-0.188-0.063-0.25-0.25-0.25-0.063 0-0.125 0-0.188 0.125v-0.125h-0.188v0.688h0.188v-0.438c0-0.063 0.063-0.125 0.125-0.125 0.125 0 0.125 0.063 0.125 0.125v0.438zM0.813-0.625c0-0.188-0.125-0.313-0.313-0.313h-0.375v0.938h0.188v-0.313h0.188c0.188 0 0.313-0.125 0.313-0.313zM0.625-0.625c0 0.063-0.063 0.125-0.125 0.125h-0.188v-0.25h0.188c0.063 0 0.125 0 0.125 0.125zM0.25 0.125v-0.813h-0.188v0.75c0 0.063 0 0.063 0 0.063-0.063 0-0.063 0-0.063 0v0.125c0.063 0 0.063 0 0.125 0 0.125 0 0.125 0 0.125-0.125zM0.25-0.75v-0.188h-0.188v0.188zM0.688-0.25h-0.188c0 0.063-0.063 0.125-0.125 0.125-0.125 0-0.125-0.063-0.125-0.188s0-0.25 0.125-0.25c0.063 0 0.125 0.063 0.125 0.125h0.188c-0.063-0.188-0.125-0.25-0.313-0.25s-0.313 0.125-0.313 0.375c0 0.188 0.125 0.313 0.313 0.313s0.25-0.063 0.313-0.25zM28.188 10.5c0-2.125-1.688-3.813-3.813-3.813-0.188 0-0.438 0-0.688 0.063-1.313-2.938-4.25-4.938-7.688-4.938-3.375 0-6.313 2-7.688 4.813-0.25 0-0.5-0.063-0.688-0.063-2.125 0-3.813 1.75-3.813 3.813 0 1.063 0.438 2.063 1.25 2.813 0 0.125 0 0.25 0 0.438 0 1.375 1.125 2.563 2.563 2.563 0.625 0 1.25-0.25 1.688-0.688 0.25 0.375 0.563 0.625 0.875 0.938-0.125 0.438-0.125 0.938-0.125 1.375-0.063 3.313 2.625 6 5.938 6s6-2.688 6-6c0-0.438-0.063-0.938-0.188-1.375 0.375-0.313 0.688-0.625 1-1 0 0 0.063 0.063 0.125 0.063 0.438 0.375 0.938 0.563 1.5 0.563 1.313 0 2.375-1.063 2.375-2.375 0-0.125 0-0.188 0-0.25 0.875-0.688 1.375-1.813 1.375-2.938zM7.625 15.125c-0.813 0-1.5-0.688-1.5-1.5 0-0.188 0-0.313 0.063-0.438 0.063-0.25 0-0.5-0.188-0.625-0.688-0.5-1.125-1.313-1.125-2.188 0-1.5 1.188-2.688 2.688-2.688 0.125 0 0.25 0 0.313 0-0.25 0.813-0.375 1.688-0.375 2.625 0 1.563 0.438 3 1.125 4.313-0.188 0.25-0.563 0.5-1 0.5zM19.688 13.375c-0.188 0-0.313 0.125-0.438 0.375 0 0.125 0 0.375 0.125 0.5 0.875 0.813 1.375 1.875 1.563 3 0 0.188 0 0.375 0 0.563 0 2.75-2.188 5-4.938 5s-4.938-2.25-4.938-5c0-0.188 0-0.375 0-0.563 0.125-1.125 0.688-2.188 1.5-3 0.188-0.125 0.188-0.375 0.125-0.5-0.063-0.188-0.25-0.375-0.438-0.375-1.375-0.188-2.5-1.375-2.5-2.813 0-1.563 1.313-2.875 2.875-2.875s2.813 1.313 2.813 2.875c0 0.25 0.25 0.5 0.563 0.5 0.25 0 0.5-0.25 0.5-0.5 0-1.563 1.25-2.875 2.813-2.875s2.875 1.313 2.875 2.875c0 1.438-1.063 2.625-2.5 2.813zM25.875 12.75c-0.25 0.125-0.313 0.375-0.25 0.625 0 0.063 0.063 0.188 0.063 0.375 0 0.688-0.563 1.25-1.313 1.25-0.313 0-0.563-0.125-0.813-0.313-0.063-0.063-0.125-0.125-0.188-0.188 0.688-1.25 1.125-2.688 1.125-4.188 0-0.875-0.125-1.75-0.375-2.5 0.063 0 0.188-0.063 0.25-0.063 1.5 0 2.688 1.188 2.688 2.688 0.063 0.938-0.438 1.813-1.188 2.313zM14.25 10.563c0-0.938-0.75-1.625-1.625-1.625-0.938 0-1.688 0.688-1.688 1.625s0.75 1.688 1.688 1.688c0.875 0 1.625-0.75 1.625-1.688zM12.625 11.25c-0.375 0-0.688-0.313-0.688-0.688s0.313-0.625 0.688-0.625c0.313 0 0.625 0.25 0.625 0.625s-0.25 0.688-0.625 0.688zM19.375 8.938c-0.875 0-1.625 0.688-1.625 1.625s0.75 1.688 1.625 1.688c0.938 0 1.688-0.75 1.688-1.688s-0.75-1.625-1.688-1.625zM19.375 11.25c-0.375 0-0.688-0.313-0.688-0.688s0.313-0.688 0.688-0.688c0.438 0 0.75 0.313 0.75 0.688s-0.313 0.688-0.75 0.688zM14.563 15.75c0.25 0 0.5-0.188 0.5-0.5 0-0.125 0.063-0.188 0.188-0.188s0.188 0.063 0.188 0.188v0.813c0 0.25 0.25 0.5 0.563 0.5 0.25 0 0.5-0.25 0.5-0.5v-0.813c0-0.125 0.063-0.188 0.188-0.188s0.188 0.063 0.188 0.188c0 0.313 0.25 0.5 0.563 0.5 0.25 0 0.5-0.188 0.5-0.5 0-0.688-0.563-1.25-1.25-1.25-0.25 0-0.5 0.125-0.688 0.25-0.25-0.125-0.5-0.25-0.75-0.25-0.688 0-1.25 0.563-1.25 1.25 0 0.25 0.25 0.5 0.563 0.5zM12.5 17.5c-0.188-0.188-0.5-0.188-0.75 0.063-0.125 0.188-0.125 0.5 0.063 0.688 1.188 1 2.625 1.563 4.188 1.563s3-0.563 4.188-1.563c0.188-0.125 0.188-0.5 0.063-0.688-0.188-0.25-0.563-0.25-0.75-0.063-1 0.813-2.25 1.313-3.5 1.313s-2.5-0.5-3.5-1.313z"></path>
</svg>
