<!-- Generated by IcoMoon.io -->
<svg version="1.1" xmlns="http://www.w3.org/2000/svg" width="26" height="32" viewBox="0 0 26 32">
<title>Explosive</title>
<path d="M17.165 18.885h-0.732v-0.627c0-0.379-0.307-0.687-0.687-0.687h-6.522c-0.379 0-0.687 0.307-0.687 0.687v2.432h7.895v-1.279h0.732v-0.526zM10.175 16.58h4.621v0.742h-4.621v-0.742zM17.617 4.811l-3.016 5.81-0.892-2.72-2.029 4.887-3.733-4.524 0.099 2.893-3.794-2.407 1.936 4.13-5.977-1.147 6.381 5.402h2.009l-1.706-2.499 3.419 0.979-0.692-2.7 2.317 3.044 0.259-2.018 0.817 1.369 0.88-3.27 0.503 3.498 2.136-1.597-0.401 2.872 9.261-8.48-7.21 4.312 0.566-2.946-2.345 2.087z"></path>
</svg>
