<?xml version="1.0" encoding="UTF-8"?>
<svg width="1200pt" height="1200pt" version="1.1" viewBox="0 0 1200 1200" xmlns="http://www.w3.org/2000/svg">
 <g>
  <path d="m1e3 475h200v225h-200z"/>
  <path d="m500 475h200v225h-200z"/>
  <path d="m0 475h200v225h-200z"/>
  <path d="m1022 353.03c18.945 18.945 46.559 26.344 72.438 19.41s46.094-27.148 53.027-53.027-0.46484-53.492-19.41-72.438l-224.9-224.9c-3.5352-3.5312-7.4102-6.707-11.57-9.4727-1.668-1.1094-3.4805-1.8633-5.2109-2.8242-2.4805-1.5-5.0469-2.8516-7.6875-4.0469-2.3906-0.88281-4.8281-1.6367-7.2969-2.2656-2.2305-0.66406-4.3711-1.5234-6.6836-1.9844-9.6875-1.9258-19.66-1.9258-29.352 0-2.3164 0.46484-4.4648 1.3203-6.6992 1.9883h0.003906c-2.4688 0.62891-4.8984 1.3828-7.2852 2.2617-2.6523 1.1992-5.2305 2.5586-7.7227 4.0625-1.7188 0.95703-3.5195 1.7031-5.1719 2.8086-4.1602 2.7656-8.0391 5.9375-11.574 9.4727l-224.9 224.9c-18.945 18.945-26.344 46.559-19.41 72.438s27.148 46.094 53.027 53.027 53.492-0.46484 72.438-19.41l96.973-96.973v868.95c0 26.793 14.293 51.555 37.5 64.953 23.207 13.395 51.793 13.395 75 0 23.207-13.398 37.5-38.16 37.5-64.953v-868.95z"/>
  <path d="m521.97 846.97-96.973 96.973v-868.95c0-26.793-14.293-51.555-37.5-64.953-23.207-13.395-51.793-13.395-75 0-23.207 13.398-37.5 38.16-37.5 64.953v868.95l-96.973-96.973c-18.945-18.945-46.559-26.344-72.438-19.41s-46.094 27.148-53.027 53.027 0.46484 53.492 19.41 72.438l224.9 224.9c3.5352 3.5352 7.4141 6.707 11.578 9.4727 1.6562 1.1055 3.4531 1.8516 5.1719 2.8086 2.4883 1.5039 5.0664 2.8633 7.7188 4.0625 2.3867 0.87891 4.8203 1.6328 7.2852 2.2617 2.2344 0.67188 4.3789 1.5234 6.6992 1.9883 9.6836 1.9688 19.664 1.9688 29.348 0 2.3125-0.45703 4.4531-1.3203 6.6836-1.9844 2.4688-0.62891 4.9062-1.3828 7.3008-2.2656 2.6367-1.1953 5.207-2.5469 7.6875-4.0469 1.7305-0.96484 3.543-1.7148 5.2109-2.8242h-0.003906c4.1602-2.7656 8.0352-5.9375 11.57-9.4727l224.9-224.9c18.945-18.945 26.344-46.555 19.41-72.438-6.9336-25.879-27.148-46.09-53.027-53.027-25.879-6.9336-53.492 0.46484-72.438 19.41z"/>
 </g>
</svg>
