<!-- Generated by IcoMoon.io -->
<svg version="1.1" xmlns="http://www.w3.org/2000/svg" width="26" height="32" viewBox="0 0 26 32">
<title>Breeding</title>
<path d="M20.923 15.427c-0.046-0.11-0.153-0.187-0.278-0.187s-0.23 0.075-0.276 0.182l-0.001 0.002c-0.003 0.008-0.284 0.663-0.951 1.462v-0.007c0-0.001 0-0.003 0-0.004 0-0.166-0.133-0.3-0.299-0.302h-0c-0.054 0-0.197-0.001-0.419 0.002 0.073-0.165 0.108-0.271 0.112-0.283 0.009-0.027 0.014-0.058 0.014-0.091 0-0.166-0.134-0.3-0.3-0.3-0.131 0-0.243 0.084-0.284 0.202l-0.001 0.002c-0.071 0.191-0.145 0.352-0.23 0.505l0.009-0.019c-0.307 0.010-0.627 0.026-0.95 0.043v-0.006c0.003-0.015 0.004-0.033 0.004-0.051 0-0.166-0.134-0.3-0.3-0.3-0.148 0-0.27 0.107-0.295 0.247l-0 0.002c-0.013 0.060-0.026 0.11-0.043 0.159l0.003-0.010c-0.207 0.015-0.416 0.031-0.624 0.048 0.008-0.038 0.016-0.077 0.023-0.115 1.371-0.725 2.219-1.316 2.227-1.322 0.071-0.055 0.117-0.141 0.117-0.237 0-0.166-0.134-0.3-0.3-0.3-0.060 0-0.115 0.017-0.162 0.047l0.001-0.001c-0.007 0.005-0.688 0.481-1.84 1.11-0.020-0.287-0.083-0.455-0.091-0.475-0.045-0.113-0.153-0.191-0.28-0.191-0.166 0-0.3 0.134-0.3 0.3 0 0.039 0.008 0.077 0.021 0.111l-0.001-0.002c0 0.002 0.074 0.209 0.051 0.573-0.26 0.134-0.526 0.265-0.794 0.392l-0.011-0.004c-0.083-1.146-0.098-1.95-0.041-2.325 0.081-0.542 0.038-0.599-0.067-0.676-0.034-0.023-0.063-0.053-0.085-0.087l-0.001-0.001c-0.133-0.206-0.625-1.083-0.703-1.26-0.066-0.15-0.189-0.447-0.253-0.624 0.564 0.223 1.016 0.387 1.342 0.486 1.28 0.388 2.804 0.758 3.884 0.941 0.080 0.014 0.14-0.002 0.177-0.046 0.049-0.059 0.046-0.158-0.008-0.304-0.394-1.055-3.783-4.919-6.096-5.305-1.193-0.199-1.841-0.477-2.037-0.875-0.194-0.393 0.068-0.884 0.371-1.453 0.131-0.245 0.267-0.501 0.379-0.771 0.012-0.033 0.29-0.819 0.024-1.317-0.099-0.185-0.259-0.307-0.477-0.361-0.295-0.074-0.548-0.034-0.753 0.119-0.448 0.333-0.512 1.088-0.518 1.197-0.163 0.302-0.295 0.526-0.411 0.724-0.052 0.089-0.102 0.175-0.154 0.262-0.608 1.060-0.702 1.446-0.717 1.517l-0.034 0.172 0.122-0.125c0.007-0.007 0.676-0.69 1.126-1.304 0.23-0.315 0.417-0.518 0.573-0.663l-0.085 0.111c-0.279 0.364-0.915 1.477-0.985 2.409-0.007 0.102-0.161 2.515 1.284 3.31 0.003 0.002 0.333 0.151 0.813 0.361 0.468 0.527 0.773 0.935 0.86 1.152 0.051 0.131 0.102 0.236 0.145 0.33 0.109 0.232 0.187 0.4 0.212 0.738 0.041 0.552 0.068 1.449 0.002 1.717-0.020 0.074-0.031 0.159-0.031 0.246 0 0.038 0.002 0.075 0.006 0.112l-0-0.005c0.004 0.041 0.006 0.089 0.006 0.138 0 0.083-0.007 0.165-0.019 0.245l0.001-0.009c-0.013 0.091-0.035 0.313-0.063 0.594-0.020 0.199-0.044 0.43-0.069 0.671-0.288-0.015-0.575-0.021-0.854-0.016-0.272-0.214-0.514-0.425-0.744-0.647l0.003 0.003c-0.053-0.055-0.128-0.090-0.211-0.091h-0.005c-0.166 0-0.3 0.135-0.3 0.3 0 0.081 0.032 0.155 0.085 0.209l-0-0s0.104 0.105 0.291 0.272c-0.081 0.007-0.16 0.014-0.236 0.023-0.814 0.086-1.551 0.231-2.263 0.435l0.093-0.023c-1.106-0.261-1.861-0.521-1.869-0.524-0.029-0.010-0.063-0.016-0.098-0.016-0.131 0-0.242 0.083-0.283 0.199l-0.001 0.002c-0.010 0.026-0.016 0.056-0.017 0.088v0.001c-0.413-0.559-0.57-1.006-0.572-1.014-0.041-0.12-0.153-0.205-0.285-0.205-0.166 0-0.3 0.134-0.3 0.3 0 0.034 0.006 0.067 0.016 0.097l-0.001-0.002c0.013 0.040 0.321 0.942 1.215 1.836-1.047-0.287-1.647-0.524-1.653-0.526-0.033-0.014-0.071-0.021-0.111-0.021-0.126 0-0.233 0.077-0.278 0.187l-0.001 0.002c-0.013 0.033-0.021 0.071-0.021 0.111 0 0.126 0.077 0.233 0.187 0.278l0.002 0.001c0.037 0.014 0.883 0.35 2.297 0.704-0.16 0.077-0.316 0.159-0.466 0.244-0.492-0.054-0.923-0.127-1.346-0.223l0.080 0.015c-0.021-0.005-0.045-0.008-0.070-0.008-0.166 0-0.3 0.134-0.3 0.3 0 0.141 0.097 0.259 0.228 0.291l0.002 0c0.011 0.003 0.249 0.060 0.643 0.125-0.151 0.113-0.285 0.229-0.41 0.354l-0 0c-0.051 0.054-0.083 0.127-0.083 0.207 0 0.166 0.135 0.3 0.301 0.3 0.086 0 0.163-0.036 0.218-0.093l0-0c0.003-0.003 0.291-0.297 0.874-0.649 0.226 0.023 0.453 0.041 0.675 0.053 0.312 0.017 0.617 0.024 0.911 0.020-0.896 0.059-1.429 0.044-1.438 0.044h-0.011c-0.002-0-0.003-0-0.005-0-0.166 0-0.3 0.134-0.3 0.3 0 0.164 0.131 0.297 0.295 0.3h0c0.023 0 0.112 0.003 0.261 0.003 0.521 0 1.591-0.030 3.036-0.223-0.042 0.051-0.067 0.117-0.067 0.189 0 0.014 0.001 0.028 0.003 0.041l-0-0.002c-1.945 0.368-3.679 0.147-3.697 0.147-0.013-0.002-0.027-0.003-0.042-0.003-0.068 0-0.131 0.023-0.18 0.062l0.001-0c-0.073 0.055-0.12 0.142-0.12 0.24 0 0.152 0.113 0.278 0.26 0.298l0.002 0c0.060 0.008 0.612 0.079 1.43 0.079 1.012 0 2.521-0.111 3.98-0.637 0.053 0.048 0.123 0.078 0.201 0.078 0.010 0 0.020-0 0.029-0.001l-0.001 0c0.796-0.079 1.541-0.23 2.216-0.447 0.018 0.149 0.145 0.264 0.297 0.264 0 0 0 0 0 0h0.015c1.198-0.059 2.321-0.331 3.339-0.808 0.173-0.004 0.344-0.014 0.508-0.031 0.152-0.017 0.269-0.144 0.269-0.299 0-0.011-0.001-0.021-0.002-0.032l0 0.001c-0.002-0.018-0.005-0.035-0.010-0.051l0 0.002c0.365-0.222 0.678-0.446 0.974-0.69l-0.014 0.011c0.573 0.128 0.934 0.286 0.938 0.287 0.034 0.014 0.073 0.022 0.114 0.022 0.166 0 0.3-0.134 0.3-0.3 0-0.119-0.069-0.221-0.169-0.27l-0.002-0.001c-0.171-0.075-0.383-0.152-0.602-0.215l-0.038-0.009 0.020-0.020 0.028-0.028c0.349-0.019 0.57-0.023 0.608-0.023 0.009 0.001 0.019 0.001 0.029 0.001 0.166 0 0.3-0.134 0.3-0.3 0-0.143-0.101-0.263-0.235-0.293l-0.002-0c-0.034-0.004-0.074-0.007-0.114-0.007-0.009 0-0.017 0-0.025 0l0.001-0c0.694-0.846 0.988-1.541 1.001-1.571 0.015-0.034 0.024-0.075 0.024-0.117s-0.009-0.082-0.024-0.118l0.001 0.002zM17.431 18.586c-0.172 0.102-0.349 0.198-0.531 0.287-0.043 0-0.083 0-0.125 0 0.167-0.113 0.311-0.221 0.448-0.336l-0.008 0.007c0.075 0.014 0.147 0.028 0.216 0.043zM18.293 17.322c0.030-0.047 0.060-0.094 0.088-0.14 0.403-0.009 0.658-0.008 0.728-0.007h0.009c0 0 0 0 0 0 0.018 0 0.036-0.002 0.053-0.005l-0.002 0q-0.041 0.045-0.083 0.090c-0.253 0.017-0.519 0.038-0.793 0.063zM15.821 18.66c0.088-0.081 0.173-0.166 0.254-0.252 0.094 0.005 0.186 0.012 0.276 0.019-0.118 0.077-0.24 0.147-0.363 0.211-0.055 0.007-0.111 0.015-0.168 0.022zM14.831 19.549q-0.213 0.038-0.435 0.067 0.182-0.088 0.351-0.183c0.019 0.046 0.048 0.085 0.085 0.115l0 0zM12.704 19.438h0.008c0.167 0.002 0.334 0.002 0.521-0.001-0.241 0.079-0.494 0.149-0.755 0.209 0.039-0.026 0.078-0.051 0.116-0.075 0.049-0.032 0.087-0.078 0.11-0.131l0.001-0.002zM12.9 14.356c-0.015-0.135-0.038-0.269-0.062-0.41-0.057-0.333-0.122-0.708-0.1-1.231 0.020-0.331 0.073-0.641 0.157-0.938l-0.007 0.031c0.038 0.102 0.133 0.265 0.286 0.526 0.263 0.448 0.624 1.061 0.694 1.48 0.055 0.331 0.093 0.421 0.121 0.486s0.042 0.1 0.053 0.418c0.006 0.157 0.021 0.439 0.040 0.766 0.018 0.311 0.037 0.66 0.054 1.002-0.275-0.102-0.45-0.175-0.471-0.183-0.034-0.014-0.073-0.023-0.115-0.023-0.166 0-0.3 0.134-0.3 0.3 0 0.042 0.008 0.081 0.024 0.117l-0.001-0.002c0.011 0.027 0.025 0.050 0.041 0.071l-0.001-0.001c-0.252-0.038-0.51-0.067-0.771-0.089 0.109-0.858 0.205-1.393 0.295-1.634 0.015-0.031 0.111-0.252 0.064-0.687zM13.947 17.522l0.088-0.011 0.027 0.006q-0.144 0.041-0.287 0.079c0.058-0.025 0.116-0.049 0.173-0.075zM12.416 18.509l0.099-0.017-0.092 0.031zM9.508 17.408c0.267-0.045 0.534-0.082 0.799-0.109 0.274-0.029 0.555-0.048 0.835-0.057l0.116 0.088c-0.323 0.059-0.649 0.123-0.969 0.19-0.253-0.031-0.515-0.068-0.781-0.112zM8.635 18.462c0.032 0.013 0.070 0.021 0.109 0.021 0.026 0 0.051-0.003 0.074-0.009l-0.002 0c0.16-0.040 0.322-0.080 0.494-0.121-0 0.003-0 0.007-0 0.010 0 0.069 0.023 0.132 0.062 0.182l-0.001-0.001c0.016 0.021 0.034 0.040 0.055 0.056l0.001 0c-0.282-0.038-0.563-0.081-0.845-0.128zM11.048 18.706c0.003-0.009 0.007-0.020 0.010-0.032l0.001-0.002c0.245-0.017 0.501-0.042 0.764-0.075-0.142 0.061-0.421 0.101-0.775 0.109zM7.038 17.477c-0.064 0.055-0.105 0.137-0.105 0.228 0 0.166 0.134 0.3 0.3 0.3 0.041 0 0.080-0.008 0.115-0.023l-0.002 0.001c0.011-0.005 0.271-0.112 0.724-0.245q0.164 0.038 0.336 0.075 0.097 0.021 0.196 0.041c-0.528 0.105-0.978 0.23-1.415 0.383l0.072-0.022c-0.471-0.291-0.874-0.635-1.218-1.032l-0.005-0.006c0.124 0.042 0.485 0.16 1.001 0.302zM7.206 18.876c0.047 0.026 0.093 0.050 0.14 0.073q-0.157 0-0.316-0.004c0.058-0.024 0.117-0.047 0.176-0.069zM9.828 19.26l0.146 0.016q-0.301 0.048-0.585 0.087 0.225-0.047 0.439-0.104z"></path>
</svg>
