<!-- Generated by IcoMoon.io -->
<svg version="1.1" xmlns="http://www.w3.org/2000/svg" width="32" height="32" viewBox="0 0 32 32">
<title>Bridge</title>
<path d="M1.125-2.375h-0.25c0 0.125-0.125 0.188-0.25 0.188-0.188 0-0.313-0.125-0.313-0.375s0.125-0.438 0.313-0.438c0.125 0 0.188 0.063 0.25 0.25h0.188c0-0.313-0.188-0.438-0.438-0.438-0.375 0-0.563 0.25-0.563 0.625s0.188 0.563 0.563 0.563c0.25 0 0.438-0.125 0.5-0.375zM0.563-2.625v-0.25c0 0 0 0 0 0-0.125 0-0.188 0.063-0.25 0.188v-0.188h-0.188v0.875h0.188v-0.438c0-0.125 0.063-0.25 0.188-0.25 0.063 0 0.063 0.063 0.063 0.063zM0.813-2.375c0-0.313-0.125-0.5-0.375-0.5s-0.375 0.188-0.375 0.438c0 0.313 0.125 0.438 0.375 0.438 0.188 0 0.313-0.063 0.375-0.25h-0.188c-0.063 0.063-0.125 0.063-0.188 0.063-0.125 0-0.188 0-0.188-0.188h0.563zM0.625-2.5h-0.375c0-0.125 0.063-0.188 0.188-0.188 0.063 0 0.188 0.063 0.188 0.188zM0.813-2v0c0-0.063 0-0.063 0-0.125v-0.5c0-0.188-0.125-0.25-0.375-0.25s-0.375 0.125-0.375 0.313h0.188c0.063-0.125 0.063-0.125 0.188-0.125 0.063 0 0.125 0 0.125 0.063 0 0.125-0.063 0.125-0.188 0.125h-0.063c-0.188 0.063-0.25 0.125-0.25 0.25 0 0.188 0.125 0.25 0.25 0.25 0.063 0 0.188 0 0.25-0.125 0 0.063 0 0.125 0.063 0.125zM0.563-2.375c0 0.125-0.063 0.188-0.188 0.188-0.063 0-0.125 0-0.125-0.063s0.063-0.125 0.125-0.125h0.125c0.063 0 0.063 0 0.063-0.063zM0.5-2v-0.188c-0.063 0.063-0.063 0.063-0.063 0.063-0.063 0-0.063-0.063-0.063-0.125v-0.438h0.125v-0.188h-0.125v-0.188h-0.25v0.188h-0.125v0.188h0.125v0.5c0 0.125 0.063 0.188 0.25 0.188 0 0 0.063 0 0.125 0zM0.875-2v-1.188h-0.25v0.438c-0.063-0.063-0.125-0.125-0.188-0.125-0.25 0-0.375 0.188-0.375 0.438s0.125 0.438 0.375 0.438c0.063 0 0.125 0 0.188-0.125v0.125zM0.625-2.438c0 0.188-0.063 0.25-0.188 0.25-0.063 0-0.188-0.063-0.188-0.25 0-0.125 0.125-0.25 0.188-0.25 0.125 0 0.188 0.125 0.188 0.25zM0.938-2.438c0-0.25-0.125-0.438-0.375-0.438-0.125 0-0.188 0.063-0.25 0.125v-0.438h-0.188v1.188h0.188v-0.125c0.063 0.125 0.125 0.125 0.25 0.125 0.188 0 0.375-0.188 0.375-0.438zM0.688-2.438c0 0.188-0.063 0.25-0.188 0.25s-0.188-0.063-0.188-0.25c0-0.125 0.063-0.25 0.188-0.25s0.188 0.125 0.188 0.25zM0.875-2.875h-0.25l-0.188 0.625-0.188-0.625h-0.25l0.313 0.938c0 0.063-0.063 0.125-0.125 0.125 0 0 0 0-0.063 0v0.188c0.063 0 0.063 0 0.063 0 0.188 0 0.25-0.063 0.313-0.188zM0.5-2.688v-0.188h-0.125v-0.063c0-0.063 0-0.063 0.063-0.063 0 0 0.063 0 0.063 0v-0.188c-0.063 0-0.125 0-0.125 0-0.188 0-0.25 0.063-0.25 0.25v0.063h-0.125v0.188h0.125v0.688h0.25v-0.688zM0.875-2v-0.875h-0.25v0.125c-0.063-0.063-0.125-0.125-0.188-0.125-0.25 0-0.375 0.188-0.375 0.438 0 0.313 0.125 0.438 0.375 0.438 0.063 0 0.125 0 0.188-0.125v0.125c0 0.125-0.063 0.188-0.188 0.188-0.063 0-0.125 0-0.125-0.063h-0.25c0 0.125 0.125 0.25 0.375 0.25s0.438-0.125 0.438-0.375zM0.688-2.438c0 0.188-0.125 0.25-0.25 0.25-0.063 0-0.188-0.063-0.188-0.25 0-0.125 0.125-0.25 0.188-0.25 0.125 0 0.25 0.125 0.25 0.25zM0.75-2v-0.188h-0.438l0.438-0.5v-0.188h-0.688v0.188h0.375l-0.375 0.5v0.188zM0.313-2v-0.875h-0.188v0.875zM0.313-2.938v-0.25h-0.188v0.25zM0.875-2l-0.313-0.563 0.313-0.313h-0.25l-0.313 0.375v-0.688h-0.188v1.188h0.188v-0.313l0.125-0.063 0.188 0.375zM0.938-2.438c0-0.25-0.125-0.438-0.375-0.438-0.125 0-0.188 0.063-0.25 0.125v-0.125h-0.25v1.25h0.25v-0.5c0.063 0.125 0.125 0.125 0.25 0.125 0.188 0 0.375-0.188 0.375-0.438zM0.688-2.438c0 0.188-0.063 0.25-0.188 0.25s-0.188-0.063-0.188-0.25c0-0.188 0.063-0.25 0.188-0.25s0.188 0.063 0.188 0.25zM0.938-2.438c0-0.25-0.188-0.438-0.438-0.438-0.313 0-0.438 0.188-0.438 0.438 0 0.313 0.125 0.438 0.438 0.438 0.25 0 0.438-0.125 0.438-0.438zM0.688-2.438c0 0.188-0.063 0.25-0.188 0.25s-0.25-0.063-0.25-0.25c0-0.188 0.125-0.25 0.25-0.25s0.188 0.063 0.188 0.25zM1.313-2v-0.625c0-0.125-0.125-0.25-0.25-0.25s-0.188 0.063-0.25 0.125c-0.063-0.063-0.125-0.125-0.25-0.125s-0.188 0-0.25 0.125v-0.125h-0.188v0.875h0.188v-0.5c0-0.125 0.063-0.188 0.188-0.188 0.063 0 0.125 0.063 0.125 0.125v0.563h0.188v-0.5c0-0.125 0.063-0.188 0.188-0.188 0.063 0 0.125 0.063 0.125 0.125v0.563zM0.875-2v-0.563c0-0.188-0.125-0.313-0.313-0.313-0.063 0-0.188 0.063-0.25 0.125v-0.438h-0.188v1.188h0.188v-0.5c0-0.125 0.063-0.188 0.188-0.188 0.063 0 0.125 0.063 0.125 0.188v0.5zM1.063-2v-1.188h-0.25v0.813l-0.438-0.813h-0.25v1.188h0.25v-0.813l0.438 0.813zM0.875-2v-0.875h-0.25v0.5c0 0.125-0.063 0.188-0.188 0.188-0.063 0-0.125-0.063-0.125-0.125v-0.563h-0.25v0.563c0 0.188 0.125 0.313 0.313 0.313 0.125 0 0.188 0 0.25-0.125v0.125zM0.875-2v-0.563c0-0.188-0.125-0.313-0.313-0.313-0.125 0-0.188 0.063-0.25 0.125v-0.125h-0.188v0.875h0.188v-0.5c0-0.125 0.063-0.188 0.188-0.188s0.125 0.063 0.125 0.125v0.563zM1-2.813c0-0.25-0.125-0.375-0.375-0.375h-0.5v1.188h0.25v-0.438h0.313c0.188 0 0.313-0.125 0.313-0.375zM0.75-2.813c0 0.125-0.063 0.188-0.188 0.188h-0.188v-0.313h0.188c0.125 0 0.188 0 0.188 0.125zM0.313-1.875v-1h-0.188v1c0 0 0 0.063-0.063 0.063 0 0-0.063 0-0.063 0v0.125c0.063 0.063 0.125 0.063 0.125 0.063 0.125 0 0.188-0.063 0.188-0.25zM0.313-2.938v-0.25h-0.188v0.25zM0.813-2.313h-0.188c-0.063 0.125-0.063 0.125-0.188 0.125-0.063 0-0.188-0.063-0.188-0.25 0-0.125 0.063-0.25 0.188-0.25s0.188 0.063 0.188 0.125h0.188c0-0.188-0.125-0.313-0.375-0.313s-0.375 0.125-0.375 0.438c0 0.313 0.125 0.438 0.375 0.438s0.375-0.125 0.375-0.313zM29.625 18.375c-0.313 0-0.563-0.25-0.625-0.5-0.375-1.688-1.75-6.75-5.75-6.75-3.938 0-5.313 5.063-5.688 6.688-0.063 0.313-0.375 0.5-0.625 0.5h-1.813c-0.313 0-0.563-0.188-0.625-0.5-0.375-1.625-1.75-6.75-5.75-6.75-3.938 0-5.375 5.125-5.75 6.75-0.063 0.313-0.375 0.5-0.625 0.5h-1.688c-0.375 0-0.688-0.25-0.688-0.625v-10.313c0-0.375 0.313-0.625 0.688-0.625h30.625c0.375 0 0.688 0.25 0.688 0.625v10.313c0 0.375-0.313 0.688-0.688 0.688z"></path>
</svg>
