<!-- Generated by IcoMoon.io -->
<svg version="1.1" xmlns="http://www.w3.org/2000/svg" width="32" height="32" viewBox="0 0 32 32">
<title>broken-trees</title>
<path d="M30.25 25.5l-0.25-0.25c0 0-1.25-0.875-2.188-2-0.875-1.125-1.625-5.625-1.813-6.75s-0.938-4.313-1.25-5.25c-0.25-0.938-0.313-3-0.313-3l-0.188 1-0.125 1.75-0.688-2.75-0.813-2.375 0.625 3.25-0.25-0.5-0.5-1.063 0.313 1.5c0 0 0.625 2.813 1.125 4.25s0.563 4.563 0.563 4.563c0-0.25-0.125-0.625-0.313-0.938l-1.688-2.563c-0.438-0.063-1.313-1.375-1.313-1.375l-1.063-2h-0.313l0.5 0.938c-0.188 0-1.625-0.438-1.625-0.438l0.625 1.063-0.625-0.188c0 0 0.313 0.438 0.75 0.938s0.688 1.625 0.688 1.625l-0.75-0.625h-0.375c0 0 2.5 3.125 2.75 4 0.25 0.938 1.063 3.5 0.813 4.813-0.188 0.813-0.875 1.5-1.313 1.875-0.188 0.125-0.125 0.375 0.125 0.438s0.5 0.125 0.688 0.188c0.063 0 0.063 0 0.063 0 0.438 0 1.313-0.438 2.625-0.563 0.313 0 0.688 0 1.063 0 0.938 0 1.75 0.125 2.25 0.313 0.563 0.25 1 0.625 1.625 0.75 0.063 0 0.125 0.063 0.188 0.063 0.125 0 0.188 0 0.313-0.063 0.25-0.063 0.313-0.438 0.063-0.625zM18.563 14.063c0.125-0.125 0.313-0.25 0.5-0.25h0.125c0-0.063-0.063-0.125-0.125-0.188-0.125-0.125-0.188-0.25-0.313-0.438-0.625 0.25-1.313 0.5-1.875 0.75-0.25 0.125-0.563 0.313-0.938 0.5-0.5-0.188-1.188-0.375-1.75-0.813-0.188-0.438-0.875-1.563-2.375-2.813 0 0-0.313-1.375-0.625-1.75s-0.625-0.625 0-2.25l-0.438 0.5c0 0-0.5 1.188 0 1.563 0.313 0.313 0.438 1.063 0.563 1.5-1.75-1.313-1.688-0.813-3.75-2.813h-0.313c0 0 0.75 1.188 1.313 1.563 0 0 2.313 1.563 3.125 2.25 0.563 0.438 0.875 1 1 1.313-1.063-0.375-2.25-0.25-2.25-0.25s-1.75 0.063-2.938-0.813c-1.188-0.875-1.188-0.875-1.188-0.875v0.313c0 0 0.5 0.688 1.125 1.063 0.25 0.188 0.625 0.375 1.063 0.5-0.563 0.125-1.313 0.25-1.75 0.438-0.813 0.313-2.063-0.313-2.063-0.313 0.875 0.75 1.625 0.75 1.625 0.75 0.875-0.375 2.75-0.688 2.75-0.688 0.563 0.125 1.188 0.25 1.875 0.188 1.625-0.063 2.25 1.188 3.188 1.563 0.313 0.063 0.563 0.313 0.75 0.5-1.313 0.813-2.938 1.813-3.938 2.313-0.125 0.063-0.375 0.125-0.563 0.25-0.313-0.125-0.688-0.313-1.313-0.563-1.25-0.563-2.75-0.563-3.938-0.688-1.313-0.063-2.313-0.938-2.313-0.938l-0.625-0.563c-0.188-0.125-0.375-0.25-0.563-0.25 0 0 1.125 1.5 2.125 1.938 0.625 0.25 1.5 0.438 2.313 0.625-0.375 0.313-1 0.688-1.375 0.688-0.625 0.063-1.188-0.5-1.813-0.625-0.25-0.063-0.375 0-0.5 0-0.188 0.125-0.125 0.375 0.063 0.375 0 0 0 0 0 0 0.625-0.125 0.625 0.25 1.813 0.563s2.625-0.813 2.625-0.813c0.313 0.063 0.563 0.063 0.75 0.125 0.625 0.063 1.375 0.438 1.938 0.688-2.063 1.25-5.188 3.313-5.188 3.313l-0.938 0.563c0 0-0.125 0.75 0.313 0.875 0 0 0 0 0.063 0 0.5 0 2.25-1 3.25-1.438 0.063 0.313 0.125 0.625 0.313 0.813 0.438 0.313 0.813 0.813 0.813 0.813s0.938 0.188 0.813-0.188c-0.063-0.375-0.813-0.625-1.125-0.875-0.188-0.188-0.125-0.563 0-0.938 1.313-0.5 3.688-1.313 4.5-1.938 0.25-0.188 0.688-0.438 1.25-0.688 0.125 0.313 0.25 0.625 0.563 1.063 0.688 1 0.313 1.563 0.438 2.063 0.188 0.5-1.438 1.125-1.438 1.125s-0.25-0.313-0.75-0.75c-0.563-0.5-0.625-0.438-1.625 0.063-1.063 0.563-1.125 0.813-1.125 0.813 0.75 0.125 1.125-0.625 1.875-0.75 0.5-0.063 0.938 0.625 1.188 1.063 0.125 0.188 0.375 0.25 0.563 0.125 0.563-0.313 1.563-0.875 1.75-1 0.313-0.25 0.25-1.313 0.25-1.313 0.5 0.25 1.188 1.625 1.188 1.625l0.313-0.313c0 0-0.938-2-1.75-2.813-0.5-0.563-0.625-1.125-0.625-1.438 1.125-0.438 2.438-0.938 3.25-1.188s1.625-0.563 2.25-0.563c-0.438-0.625-0.938-1.25-1.375-1.75-0.063-0.125-0.063-0.313 0-0.5zM22.563 13.875c0.125 0.063 0.25 0.125 0.375 0.25l0.938 1.5c-0.063-0.813-0.188-1.625-0.375-2.125-0.063-0.125-0.125-0.313-0.188-0.438-0.438-0.25-1.063-0.438-1.75-0.438 0 0 0 0 0 0l0.063 0.125c0.313 0.5 0.75 1.063 0.938 1.125z"></path>
</svg>
