<!-- Generated by IcoMoon.io -->
<svg version="1.1" xmlns="http://www.w3.org/2000/svg" width="32" height="32" viewBox="0 0 32 32">
<title>Buffalo</title>
<path d="M28.938 3.875c-0.563-0.313-1.125-0.563-1.75-0.813-0.313-0.063-0.563 0-0.75 0.25-0.125 0.313-0.063 0.625 0.188 0.75 0.875 0.688 2.063 1.688 2.313 3 0.313 1.188 0.125 2.188-0.5 2.938-0.75 0.813-1.875 1.063-2.438 1 0 0 0 0 0 0-0.375-0.063-0.813-0.125-1.25-0.313-0.25-0.063-0.5 0.063-0.563 0.313s0.063 0.5 0.313 0.563c0.5 0.188 0.938 0.25 1.438 0.313 0 0 0 0 0 0 0.875 0.125 2.25-0.25 3.188-1.313 0.563-0.625 1.125-1.813 0.688-3.75-0.125-0.75-0.563-1.438-1-2 1.688 1.125 2.438 2.688 2.25 4.688-0.188 1.875-0.875 3.125-2.188 3.813-0.938 0.563-2.188 0.75-3.5 0.688 0 0-0.063 0-0.063 0-0.688 0-1.438-0.125-2.25-0.25 0 0 0 0 0 0-3.25-0.625-6.313-2.063-6.875-2.313-0.125-0.063-0.25-0.063-0.375 0-0.563 0.25-3.625 1.688-6.875 2.313 0 0 0 0 0 0-0.813 0.125-1.563 0.25-2.25 0.25 0 0-0.063 0-0.063 0-1.313 0.063-2.563-0.125-3.5-0.688-1.313-0.688-2-1.938-2.188-3.813-0.188-2 0.563-3.563 2.25-4.688-0.438 0.563-0.875 1.25-1 2-0.438 1.938 0.125 3.125 0.75 3.75 0.875 1.063 2.25 1.438 3.125 1.313 0 0 0 0 0 0 1.75-0.188 3.938-1.125 6.5-2.938 1-0.688 2.313-0.5 3.125 0.375 0.063 0.125 0.188 0.188 0.313 0.188s0.25-0.063 0.313-0.188c0.813-0.875 2.125-1.063 3.125-0.375 1.125 0.813 2.25 1.438 3.25 1.938 0.188 0.063 0.5 0 0.563-0.25 0.125-0.188 0.063-0.5-0.188-0.563-0.938-0.5-2-1.125-3.125-1.875-1.25-0.813-2.813-0.75-3.938 0.188-1.125-0.938-2.688-1-3.938-0.188-2.438 1.688-4.563 2.625-6.063 2.813 0 0 0 0 0 0-0.563 0.063-1.688-0.188-2.438-1-0.625-0.75-0.813-1.75-0.5-2.938 0.25-1.313 1.438-2.313 2.313-3 0.25-0.125 0.313-0.438 0.188-0.75-0.188-0.25-0.438-0.313-0.75-0.25-0.625 0.25-1.188 0.5-1.75 0.813-2.25 1.25-3.25 3.25-3 5.75 0.188 2.125 1.063 3.625 2.563 4.5 0.875 0.438 1.813 0.688 2.875 0.75-2.938 2.625-3.313 3.563-3.313 4.125 0 0.25 0.188 0.5 0.375 0.625 0.625 0.438 1.375 0.688 2.375 0.875 0.25 0.063 0.438-0.125 0.5-0.375s-0.125-0.5-0.375-0.5c-0.813-0.188-1.5-0.438-1.938-0.688 0-0.188 0.313-1.125 3.75-4 0.188 0 0.375-0.063 0.625-0.063-0.375 0.313-0.688 0.563-1 0.875-1.125 0.938-1.938 1.75-2.438 2.375-0.125 0.125-0.188 0.313-0.125 0.5s0.188 0.375 0.375 0.438c0.75 0.188 1.688 0.313 2.563 0.313 0.438 0 0.75 0 1-0.063 0.063 0 0.125-0.063 0.188-0.063 0.188-0.125 0.563-0.438 1-1.25l0.063 0.313v0.25c-0.5 0.813-0.875 1.063-1.063 1.063-0.25 0.125-0.688 0.125-1.188 0.125 0 0 0 0 0 0-0.25 0-0.438 0.188-0.438 0.438s0.188 0.5 0.438 0.5c0 0 0 0 0 0 0.563 0 1.063-0.063 1.375-0.125 0.375-0.125 0.75-0.375 1.125-0.813 0.188 0.625 0.563 1.188 1.125 1.625 0.438 0.375 0.75 0.813 0.813 1.25l0.438 2.125c0.063 0.188 0.188 0.438 0.313 0.625 0 0.438 0.063 0.875 0.25 1.188 0.125 0.188 0.25 0.313 0.438 0.438 0.125 1.125 1.063 1.938 2.188 1.938h2.125c1.125 0 2.063-0.813 2.188-1.938 0.188-0.125 0.313-0.25 0.438-0.438 0.188-0.313 0.25-0.75 0.25-1.188v0c0.125-0.188 0.25-0.438 0.313-0.625l0.438-2.125c0.063-0.438 0.375-0.875 0.813-1.25 0.563-0.438 0.938-1 1.125-1.625 0.375 0.438 0.75 0.688 1.125 0.813 0.313 0.063 0.813 0.125 1.375 0.125 0 0 0 0 0 0 1.313 0 3.125-0.313 4.313-1.063 0.188-0.125 0.375-0.375 0.375-0.625 0-0.563-0.375-1.5-3.313-4.125 1.063-0.063 2-0.313 2.875-0.75 1.5-0.875 2.375-2.375 2.563-4.5 0.25-2.5-0.75-4.5-3-5.75zM8.563 16.875c-0.5 1.063-0.813 1.438-0.938 1.563-0.125 0-0.375 0.063-0.75 0.063-0.563 0-1.25-0.063-1.813-0.188 0.438-0.438 1.063-1.063 2-1.875 0.438-0.438 0.938-0.813 1.5-1.25 0 0 0 0 0 0s0 0 0 0l0.188 1.25c-0.125 0.313-0.125 0.438-0.188 0.438zM17.063 28.063h-2.125c-0.438 0-0.813-0.188-1.063-0.5 0.625 0.125 1.313 0.188 2.125 0.188 0 0 0 0 0 0s0 0 0 0 0 0 0 0 0 0 0 0c0.813 0 1.5-0.063 2.125-0.188-0.25 0.313-0.625 0.5-1.063 0.5zM18.938 26.063c-0.125 0.188-0.375 0.375-0.688 0.5 0 0 0 0-0.063 0 0 0 0 0 0 0-0.063 0-0.063 0.063-0.125 0.063 0 0 0 0 0 0-0.438 0.125-1 0.188-1.813 0.188 0 0 0 0 0 0-0.125 0-0.188 0-0.25 0s-0.125 0-0.25 0c0 0 0 0 0 0-0.75 0-1.375-0.063-1.813-0.188 0 0 0 0 0 0-0.063 0-0.063-0.063-0.125-0.063 0 0 0 0 0 0-0.063 0-0.063 0-0.063 0-0.313-0.125-0.563-0.313-0.688-0.5-0.188-0.313-0.125-1.563 0-2 0.188-0.688 0.25-0.688 0.625-0.688 0 0 0.063 0 0.063 0 0.438 0 0.875 0.063 1.313 0.25l0.75 0.25c0.125 0.063 0.25 0.063 0.375 0l0.75-0.25c0.438-0.188 0.938-0.25 1.375-0.25 0.375 0 0.438 0 0.625 0.688 0.125 0.438 0.188 1.688 0 2zM22.563 14.875c0 0 0 0 0 0s0 0 0 0.063c0 0 0 0.063 0 0.125 0 0 0 0 0 0l-0.188 1.125-0.063 0.25-0.25 1.563-0.188 1.063c0 0 0 0 0 0-0.125 0.625-0.438 1.188-0.938 1.625-0.625 0.5-1 1.125-1.125 1.75l-0.188 0.813c-0.25-0.563-0.625-0.75-1.313-0.813-0.563 0-1.125 0.125-1.75 0.313l-0.563 0.25-0.563-0.25c-0.625-0.188-1.188-0.313-1.75-0.313-0.688 0.063-1.063 0.25-1.313 0.813l-0.188-0.813c-0.125-0.625-0.5-1.25-1.125-1.75-0.5-0.438-0.813-1-0.938-1.625 0 0 0 0 0 0l-0.375-2.188-0.063-0.438-0.25-1.375c0-0.063 0-0.125 0-0.188 0 0 0 0 0 0s0 0 0 0c0-0.063 0-0.125 0-0.125 0-0.063 0-0.063 0-0.063 0-0.063 0-0.063 0-0.125 2.875-0.563 5.5-1.688 6.563-2.188 1.063 0.5 3.688 1.625 6.563 2.188 0 0.063 0 0.125 0 0.125s0 0.063 0 0.063 0 0.063 0 0.125zM23.438 15.188c0 0 0 0 0 0s0 0 0 0c0.563 0.438 1.063 0.813 1.5 1.25 0.938 0.813 1.563 1.438 2 1.875-0.563 0.125-1.25 0.188-1.813 0.188-0.375 0-0.625-0.063-0.75-0.063-0.125-0.125-0.438-0.5-0.938-1.563-0.063 0-0.063-0.125-0.188-0.438zM28.875 18.938c-0.938 0.625-2.563 0.813-3.75 0.813 0 0 0 0 0 0-0.5 0-0.938 0-1.188-0.125-0.188 0-0.563-0.25-1.063-1.063l0.063-0.563c0.438 0.813 0.813 1.125 1 1.25 0.063 0 0.125 0.063 0.188 0.063 0.25 0.063 0.563 0.063 1 0.063 0.875 0 1.813-0.125 2.563-0.313 0.188-0.063 0.313-0.25 0.375-0.438s0-0.375-0.125-0.5c-0.5-0.625-1.313-1.438-2.438-2.375-0.313-0.313-0.625-0.563-1-0.875 0.25 0 0.438 0.063 0.625 0.063 3.438 2.875 3.75 3.813 3.75 4zM14.5 24.25c-0.188-0.188-0.5-0.25-0.688-0.125-0.188 0.188-0.188 0.5-0.063 0.688l0.688 0.875c0.063 0.063 0.188 0.125 0.313 0.125s0.25 0 0.313-0.063c0.188-0.188 0.25-0.438 0.063-0.625zM18.188 24.125c-0.188-0.125-0.5-0.063-0.688 0.125l-0.625 0.875c-0.188 0.188-0.125 0.438 0.063 0.625 0.063 0.063 0.188 0.063 0.313 0.063s0.25-0.063 0.313-0.125l0.688-0.875c0.125-0.188 0.125-0.5-0.063-0.688zM13 18.875l-0.875-0.563c-0.188-0.188-0.5-0.125-0.625 0.125-0.125 0.188-0.063 0.5 0.125 0.625l0.875 0.563c0.125 0.063 0.188 0.063 0.25 0.063 0.188 0 0.313-0.063 0.438-0.188 0.125-0.188 0.063-0.5-0.188-0.625zM12 16.813c-0.25 0-0.438 0.25-0.438 0.5s0.25 0.438 0.5 0.375c0.625 0 1.188 0.438 1.25 1.125 0 0.188 0.188 0.375 0.438 0.375 0 0 0 0 0 0 0.25 0 0.438-0.25 0.438-0.5-0.063-1.125-1.063-2-2.188-1.875zM19.875 18.313l-0.875 0.563c-0.25 0.125-0.313 0.438-0.188 0.625 0.125 0.125 0.25 0.188 0.438 0.188 0.063 0 0.125 0 0.25-0.063l0.875-0.563c0.188-0.125 0.25-0.438 0.125-0.625-0.125-0.25-0.438-0.313-0.625-0.125zM19.938 17.688c0.25 0.063 0.5-0.125 0.5-0.375s-0.188-0.5-0.438-0.5c-1.125-0.125-2.125 0.75-2.188 1.875 0 0.25 0.188 0.5 0.438 0.5 0 0 0 0 0 0 0.25 0 0.438-0.188 0.438-0.375 0.063-0.688 0.625-1.125 1.25-1.125z"></path>
</svg>
