<!-- Generated by IcoMoon.io -->
<svg version="1.1" xmlns="http://www.w3.org/2000/svg" width="32" height="32" viewBox="0 0 32 32">
<title>Built</title>
<path d="M22 19c-1.938 0-3.625 0.875-4.813 2.188l-2.625-1.875c0.75-1.063 1.188-2.313 1.188-3.688 0-1.5-0.563-2.938-1.5-4l3.688-3.063c0.813 0.813 2 1.25 3.25 1.25 2.625 0 4.813-2.125 4.813-4.813s-2.188-4.875-4.813-4.875c-2.688 0-4.875 2.188-4.875 4.875 0 0.75 0.188 1.5 0.5 2.188l-3.875 3.25c-1-0.625-2.125-1-3.375-1-3.375 0-6.188 2.813-6.188 6.188 0 3.438 2.813 6.188 6.188 6.188 1.438 0 2.688-0.438 3.75-1.25l2.875 2.063c-0.438 0.875-0.688 1.813-0.688 2.875 0 3.563 2.938 6.438 6.5 6.438s6.438-2.875 6.438-6.438c0-3.563-2.875-6.5-6.438-6.5zM18.063 5c0-1.688 1.375-3.063 3.125-3.063 1.688 0 3.063 1.375 3.063 3.063s-1.375 3.063-3.063 3.063c-0.75 0-1.375-0.25-1.938-0.625l2.125-1.75c0.375-0.313 0.375-0.875 0.063-1.25s-0.875-0.438-1.25-0.125l-1.938 1.688c-0.125-0.313-0.188-0.688-0.188-1zM9.563 20.063c-2.438 0-4.375-2-4.375-4.438s1.938-4.375 4.375-4.375c2.438 0 4.438 1.938 4.438 4.375 0 1-0.313 1.875-0.875 2.625l-2.875-2.125c-0.438-0.25-1-0.188-1.25 0.188-0.313 0.438-0.188 1 0.188 1.25l2.625 1.875c-0.688 0.375-1.438 0.625-2.25 0.625zM22 30.188c-2.625 0-4.75-2.125-4.75-4.688 0-2.625 2.125-4.688 4.75-4.688 2.563 0 4.688 2.063 4.688 4.688 0 2.563-2.125 4.688-4.688 4.688z"></path>
</svg>
