<!-- Generated by IcoMoon.io -->
<svg version="1.1" xmlns="http://www.w3.org/2000/svg" width="32" height="32" viewBox="0 0 32 32">
<title>Burned</title>
<path d="M21.25 26.063l-18.625-18.75c-0.438-0.5-1.188-0.5-1.688 0-0.438 0.438-0.438 1.188 0 1.625l18.688 18.813c0.188-0.313 0.5-0.625 0.75-0.938 0.313-0.25 0.563-0.5 0.875-0.75zM23.875 27.5c0.75 0.75 1.313 2.625 0.563 3.438-0.813 0.813-2.625 0.188-3.438-0.563l-0.625-0.625c-0.813-0.813-0.188-1.5 0.563-2.313 0.813-0.813 1.5-1.375 2.313-0.563zM23.188 25.25c-4-3.188-2.313-6.813 1-10.5 1.188-1.313 3.438-3.375 5.313-2.625-0.875 0.063-1.313 1.563-1.438 2.313-0.25 1.938 0.938 3.875 1.813 5.5 0.875 1.688 1.875 3.625 1.125 5.5-0.188 0.563-0.563 1.125-1 1.563-0.813 0.938-1.688 1.688-3 1.875 1.563-0.375 2.313-1.938 3-3.188 0.813-1.688-0.375-3.5-1.125-5-0.375-0.688-3.125-5.5-2.25-6-3.313 2.188-5.75 6.875-4 9.875 0.125 0.25 0.313 0.5 0.563 0.688zM26.063 26.688c-0.688-0.5-1.25-1.125-1.75-1.813-0.75-1.25-0.75-2.5-0.125-3.813 0.438-0.813 0.938-1.625 1.5-2.375 0.125-0.188 0.25-0.375 0.375-0.5 0.25 0.438 0.25 1 0.438 1.5 0.188 0.563 0.438 1.063 0.688 1.625 0.438 0.875 1.5 1.375 1.813 2.313 0.313 1.125-0.938 2.375-1.75 3.063 0.313-0.25 0.5-0.938 0.563-1.313 0.188-0.563 0.25-1.188-0.25-1.688-0.563-0.563-1.125-1.063-1.5-1.75-0.188-0.375-0.25-0.813-0.375-1.25-0.875 1.125-1.063 2.625-0.75 3.938 0.188 0.688 0.5 1.625 1.125 2.063z"></path>
</svg>
