<?xml version="1.0" encoding="UTF-8"?>
<svg width="700pt" height="700pt" version="1.1" viewBox="0 0 700 700" xmlns="http://www.w3.org/2000/svg">
 <g>
  <path d="m258.72 99.703c-6.1719 0.11328-12.047 2.6602-16.348 7.0898-4.3008 4.4258-6.6797 10.375-6.6133 16.547-0.10156 6.2656 2.3203 12.312 6.7148 16.777 4.3984 4.4688 10.406 6.9844 16.672 6.9844 6.2695 0 12.273-2.5156 16.672-6.9844 4.3945-4.4648 6.8164-10.512 6.7148-16.777 0.066406-6.3203-2.4258-12.398-6.9102-16.852-4.4844-4.4492-10.582-6.8984-16.902-6.7852zm0.11328 5.7969h0.003906c4.7656-0.082031 9.3672 1.7656 12.754 5.125 3.3828 3.3594 5.2656 7.9453 5.2148 12.715 0.078125 4.7305-1.75 9.2969-5.0703 12.668-3.3164 3.375-7.8516 5.2734-12.586 5.2734s-9.2656-1.8984-12.586-5.2734c-3.3203-3.3711-5.1484-7.9375-5.0703-12.668-0.050782-4.6602 1.7461-9.1523 4.9961-12.492 3.25-3.3438 7.6875-5.2656 12.348-5.3477z"/>
  <path d="m193.8 99.547c-6.2266 0.070313-12.168 2.6172-16.508 7.0859-4.3398 4.4648-6.7188 10.48-6.6094 16.707-0.078126 6.25 2.3516 12.27 6.7422 16.719 4.3945 4.4453 10.383 6.9492 16.633 6.9492s12.242-2.5039 16.633-6.9492c4.3945-4.4492 6.8203-10.469 6.7422-16.719 0.11328-6.3164-2.3359-12.41-6.7852-16.891-4.4531-4.4844-10.531-6.9727-16.848-6.9023zm0.13672 5.7539h0.003906c4.7695-0.035156 9.3477 1.8633 12.695 5.2617 3.3477 3.3984 5.1758 8.0078 5.0703 12.777 0.070313 4.7227-1.7617 9.2773-5.0781 12.641s-7.8438 5.2578-12.566 5.2578c-4.7266 0-9.25-1.8945-12.57-5.2578-3.3164-3.3633-5.1445-7.918-5.0781-12.641-0.10156-4.7266 1.6914-9.2969 4.9883-12.688 3.293-3.3906 7.8086-5.3203 12.539-5.3516z"/>
  <path d="m129.48 23.344c-5.3906 0.015625-10.676 1.4609-15.32 4.1875-4.6445 2.7305-8.4805 6.6445-11.113 11.344-9.9609 17.762-12.094 38.867-5.8867 58.266 6.2109 19.395 20.203 35.336 38.629 44.012 2.6406 1.2422 4.6719 3.4922 5.6406 6.2461 5.5234 15.758 15.66 29.492 29.094 39.41 9.5195 15.285 21.18 29.129 34.621 41.113-14.332 12.535-26.852 27.004-37.195 42.992-5.5312 5.4258-9.0859 12.547-10.094 20.23-0.085938 1.4961 0.99219 2.8086 2.4805 3.0078 1.4844 0.19922 2.875-0.78125 3.1836-2.25 0.69141-5.2539 2.8125-10.215 6.1289-14.344 1.3594 2.043 2.9453 3.9258 4.7227 5.6172-4.7539 5.5977-6.5703 13.121-4.8984 20.273 0.13672 0.77734 0.58594 1.4609 1.2422 1.8945s1.4609 0.57812 2.2266 0.39844c0.76562-0.17969 1.4258-0.66406 1.8242-1.3398 0.39453-0.67969 0.49609-1.4922 0.27734-2.2461-1.2773-5.4531 0.13672-11.191 3.8047-15.422 2.1016 1.3828 4.3555 2.5156 6.7148 3.3789-1.7422 2.8477-2.6055 6.1445-2.4844 9.4805s1.2266 6.5625 3.1719 9.2734c0.96875 1.125 2.6367 1.3203 3.8438 0.45312 1.207-0.86719 1.5469-2.5117 0.78906-3.7891-3.3047-4.6133-2.6523-10.969 1.5234-14.812 14.82-12.555 26.727-28.188 34.891-45.812 16.293 10.664 34.141 18.742 52.906 23.945 0.40234 0.10938 0.72656 0.41016 0.86328 0.80469 0.13672 0.39453 0.070313 0.83203-0.17578 1.168-8.9844 12.293-15.609 26.152-19.539 40.863-10.875-3.8242-22.914-2.3242-32.516 4.0547-1.1758 0.92187-1.4453 2.5898-0.62109 3.8359 0.82422 1.2461 2.4648 1.6484 3.7734 0.92969 8.4766-5.6289 19.176-6.7422 28.625-2.9766 0.19531 1.5703 0.55469 3.1172 1.0781 4.6094-9.7969-0.75391-19.391 3.0742-25.984 10.363-1.0625 1.1875-0.96094 3.0078 0.22656 4.0742 1.1836 1.0625 3.0078 0.96094 4.0703-0.22656 3.1094-3.4336 7.0742-5.9766 11.496-7.3633 4.418-1.3906 9.125-1.5742 13.637-0.53516 0.68359 0.875 1.4336 1.6992 2.2383 2.4609-8.2031 2.3438-14.848 8.375-17.969 16.316-0.58203 1.4766 0.14453 3.1445 1.6211 3.7266 1.4766 0.57812 3.1445-0.14844 3.7266-1.625 1.6211-4.1094 4.457-7.6289 8.1367-10.082 3.6758-2.4492 8.0117-3.7188 12.43-3.6367 0.29688 0.003907 0.58984-0.042969 0.87109-0.13281 23.43-6.9531 44.758-19.629 62.062-36.883h49.906c-5.7656 3.4844-10.852 7.9805-15.016 13.273-0.96094 1.2422-0.74219 3.0273 0.48828 4.0039 1.2344 0.97266 3.0195 0.77344 4.0117-0.44531h0.16016c3.3516-4.2617 7.3711-7.9492 11.906-10.922-0.14844 2.9414 0.40234 5.8828 1.6094 8.5703-5.9922 1.6523-11.055 5.668-14.031 11.125-0.73828 1.3867-0.21875 3.1094 1.1602 3.8633 1.3789 0.75391 3.1055 0.25781 3.875-1.1133 2.7734-5.0859 7.9219-8.4336 13.695-8.9062h86.703c8.6992-0.003906 17.203-2.5742 24.445-7.3906 7.2422-4.8203 12.898-11.668 16.262-19.691 3.6523-8.6953 6.8711-17.57 9.6484-26.586 21.855 44.395 21.855 96.422 0 140.82-18.5 23.938-43.859 41.66-72.695 50.809-28.836 9.1445-59.777 9.2734-88.691 0.375-1.0742-0.33594-2.0938-0.83203-3.0195-1.4805-5.4297-3.7852-11.914-5.7734-18.535-5.6797-6.6211 0.09375-13.043 2.2617-18.367 6.1953-4.5938 3.4023-7.7891 8.3594-8.9883 13.941-1.2031 5.5859-0.33203 11.418 2.4492 16.406 8.6211 15.461 21.281 28.289 36.629 37.105 15.348 8.8203 32.801 13.297 50.5 12.961 24.5 2.3594 49.223-0.20703 72.711-7.5586 23.488-7.3477 45.27-19.328 64.055-35.234 21.398-17.074 37.789-39.613 47.441-65.234 9.6523-25.621 12.203-53.375 7.3867-80.324-12.672-50.355-33.434-98.324-61.477-142.02-1.7578-12.652-6.8672-24.605-14.793-34.625-19.332-24.434-44.656-43.457-73.508-55.215-28.855-11.762-60.262-15.859-91.164-11.902 1.5352-3.8789 2.5938-7.9297 3.1523-12.062 0.92188-13.875-0.55469-27.805-4.3633-41.18-3.3125-11.621-12.25-20.797-23.781-24.414-11.531-3.6133-24.109-1.1836-33.465 6.4648-13.406 10.945-25.645 23.246-36.523 36.703-2.7383 3.3867-7.2227 4.8203-11.414 3.6484-19.562-5.457-40.277-5.1875-59.691 0.78125-5.0742 1.5625-10.539-0.76562-12.934-5.5078-8.8281-17.445-22.766-31.785-39.949-41.113-4.4688-2.4297-9.4805-3.6992-14.57-3.6953zm0.13672 5.7305c4.125-0.007813 8.1875 1.0234 11.816 2.9961 16.148 8.7812 29.238 22.27 37.531 38.672 1.7695 3.5039 4.7227 6.2695 8.3359 7.8086 3.6133 1.5352 7.6523 1.7422 11.402 0.58594 18.371-5.6445 37.977-5.8984 56.488-0.73047 3.125 0.86719 6.4375 0.80469 9.5273-0.1875 3.0898-0.98828 5.8203-2.8633 7.8594-5.3867 10.641-13.156 22.609-25.176 35.719-35.875 7.8633-6.4219 18.43-8.457 28.113-5.4219 9.6875 3.0391 17.195 10.746 19.984 20.508 3.6133 12.676 5.0273 25.875 4.1836 39.031-1.7852 12.781-8.8789 24.223-19.539 31.5-10.664 7.2773-23.898 9.7188-36.457 6.7227-1.8477-0.43359-3.793-0.097656-5.3867 0.93359-1.5977 1.0312-2.707 2.6641-3.0703 4.5273-4.3828 22.422-18.434 41.77-38.402 52.867-19.965 11.098-43.816 12.82-65.168 4.7031-21.355-8.1172-38.039-25.246-45.594-46.805-1.4727-4.2109-4.5781-7.6562-8.6172-9.5547-16.988-7.9961-29.887-22.695-35.613-40.574-5.7266-17.883-3.7617-37.34 5.4219-53.715 2.1406-3.8164 5.2539-6.9922 9.0273-9.207 3.7695-2.2148 8.0625-3.3828 12.438-3.3945zm256.77 78.891c26.355 0.042968 52.359 6.0391 76.074 17.539 23.711 11.504 44.52 28.211 60.871 48.883 9.6992 12.262 14.727 27.57 14.188 43.195-3.2852 24.469-9.7891 48.398-19.336 71.168-2.9297 6.9844-7.8555 12.945-14.164 17.141-6.3086 4.1914-13.711 6.4297-21.285 6.4258h-85.336c-2.6211-4.1914-2.6211-9.5078 0-13.695h32.07c3.1172 0.003906 5.8633-2.0547 6.7305-5.0508 0.86719-2.9961-0.35156-6.2031-2.9922-7.8633-29.801-18.887-53.227-46.305-67.23-78.691-4.1523-9.6055-3.2656-20.645 2.3594-29.469 5.6289-8.8242 15.266-14.285 25.727-14.574 13.809-0.38281 27.535 2.2812 40.195 7.8125 1.418 0.51562 2.9961-0.15625 3.6055-1.5391 0.60938-1.3828 0.039063-3-1.3008-3.6992-13.434-5.8711-28-8.707-42.656-8.3008-12.359 0.34375-23.746 6.8008-30.391 17.23-6.6445 10.426-7.6836 23.473-2.7773 34.824 14.453 33.426 38.625 61.734 69.379 81.238 0.48828 0.29297 0.72266 0.875 0.57031 1.4258-0.15234 0.54688-0.65234 0.92969-1.2227 0.92578h-85.582c6.1562-6.8398 11.656-14.246 16.43-22.113 5.082-8.3477 5.8398-18.633 2.0352-27.637-9.8047-23.121-26.621-42.582-48.074-55.637-1.3516-0.81641-3.1055-0.38672-3.9297 0.96094-0.82422 1.3438-0.40625 3.1055 0.93359 3.9375 20.441 12.426 36.465 30.957 45.809 52.977 3.0938 7.3008 2.4883 15.645-1.6328 22.422-18.055 29.715-46.414 51.742-79.672 61.883-2.6562-1.2656-4.9297-3.2148-6.582-5.6523-1.6523-2.4336-2.625-5.2656-2.8164-8.2031 3.6289-15.008 10.184-29.152 19.289-41.625 1.3594-1.8594 1.7188-4.2656 0.95703-6.4375-0.75781-2.1758-2.5391-3.832-4.7617-4.4414-40.055-11.113-75.129-35.535-99.457-69.242 23.262 11.809 50.715 12.027 74.16 0.58594 23.445-11.441 40.168-33.215 45.172-58.82 0.066407-0.33984 0.26953-0.63672 0.55859-0.82422 0.29297-0.1875 0.64844-0.24609 0.98438-0.16406 10.914 2.6016 22.375 1.5664 32.645-2.9414 10.273-4.5078 18.793-12.242 24.27-22.031 8.668-1.3008 17.422-1.9414 26.184-1.9297zm156.82 109.35c24.93 40.766 43.551 85.062 55.234 131.39 4.5938 25.922 2.1094 52.602-7.1953 77.227-9.3047 24.625-25.078 46.285-45.664 62.691-18.246 15.469-39.414 27.113-62.246 34.238-22.836 7.1289-46.867 9.5977-70.672 7.2578-16.711 0.37891-33.207-3.8086-47.719-12.109-14.508-8.3008-26.477-20.402-34.617-35.004-2.1094-3.7773-2.7695-8.1953-1.8555-12.43 0.91406-4.2305 3.3398-7.9844 6.8242-10.551 4.3594-3.2148 9.6172-4.9805 15.031-5.0508 5.418-0.070312 10.719 1.5547 15.16 4.6523 1.4102 0.98828 2.9648 1.75 4.6094 2.2617 30.125 9.2734 62.363 9.1094 92.391-0.47656 30.023-9.5859 56.395-28.133 75.574-53.145 11.73-23.676 17.613-49.824 17.145-76.242-0.46875-26.418-7.2695-52.34-19.832-75.586 3.4688-12.594 6.0703-25.41 7.7891-38.359v-0.75781zm-333.57 14.391c4.1953 3.5 8.543 6.8125 13.023 9.9375-7.625 16.797-18.793 31.746-32.742 43.82-6.8828-1.8633-12.746-6.3867-16.293-12.578 10.059-15.316 22.176-29.172 36.012-41.18z"/>
  <path d="m201.32 123.35c0.023437-1.9453-0.73438-3.8164-2.1016-5.1992-1.3672-1.3789-3.2305-2.1602-5.1719-2.1602-1.9453 0-3.8086 0.78125-5.1758 2.1602-1.3672 1.3828-2.125 3.2539-2.1016 5.1992-0.023438 1.9453 0.73437 3.8164 2.1016 5.1953 1.3672 1.3828 3.2305 2.1602 5.1758 2.1602 1.9414 0 3.8047-0.77734 5.1719-2.1602 1.3672-1.3789 2.125-3.25 2.1016-5.1953z"/>
  <path d="m266.42 123.35c0.085937-1.9805-0.64062-3.9102-2.0117-5.3438-1.3711-1.4297-3.2656-2.2422-5.25-2.2422s-3.8789 0.8125-5.25 2.2422c-1.3711 1.4336-2.0977 3.3633-2.0117 5.3438-0.085937 1.9805 0.64062 3.9102 2.0117 5.3438 1.3711 1.4297 3.2656 2.2422 5.25 2.2422s3.8789-0.8125 5.25-2.2422c1.3711-1.4336 2.0977-3.3633 2.0117-5.3438z"/>
  <path d="m247.23 172.86c1.3594-0.73438 1.8867-2.4141 1.1992-3.7969-0.6875-1.3789-2.3477-1.9688-3.7539-1.3281-11.16 5.582-24.016 6.7344-35.988 3.2266-1.5195-0.45703-3.1172 0.40625-3.5742 1.9258-0.45312 1.5156 0.41016 3.1172 1.9258 3.5703 13.367 3.9219 27.719 2.6367 40.176-3.5938z"/>
 </g>
</svg>
