<!-- Generated by IcoMoon.io -->
<svg version="1.1" xmlns="http://www.w3.org/2000/svg" width="32" height="32" viewBox="0 0 32 32">
<title>Bushmeat</title>
<path d="M30.375 20.375l-1.563-1.75c-1.438-1.563-2.438-3.438-2.938-5.5l-1.313-5.625c-0.063-0.188-0.125-0.313-0.25-0.375l1.375-4.563c0.063-0.188 0.125-0.375 0.125-0.563 0-0.938-0.813-1.75-1.813-1.75-0.813 0-1.5 0.5-1.688 1.25l-1.75 5.563h-3.813l1.375-4.5c0.063-0.188 0.063-0.375 0.063-0.5 0-1-0.813-1.813-1.75-1.813-0.813 0-1.5 0.5-1.75 1.25l-1.75 5.563h-3.313l1.375-4.5c0.063-0.188 0.063-0.375 0.063-0.563 0-0.938-0.813-1.75-1.813-1.75-0.75 0-1.438 0.5-1.688 1.25l-1.75 5.563h-0.563c-0.25 0-0.438 0.125-0.5 0.375l-4 11.125c-0.875 2.438-1 5.063-0.313 7.563 0.438 1.5 1.313 2.75 2.5 3.688l0.938 0.688c1.063 0.813 2.438 1.25 3.813 1.25h17.875c1.563 0 3.063-0.563 4.188-1.625l0.125-0.063c1.375-1.188 2.125-2.938 2.125-4.813v-0.625c0-1.563-0.563-3.063-1.625-4.25zM23.313 1.813c0.125-0.375 0.5-0.625 0.938-0.5 0.313 0.125 0.5 0.375 0.5 0.688 0 0.125 0 0.188-0.063 0.25l-1.5 4.813h-1.563zM15.688 1.813c0.125-0.313 0.375-0.5 0.688-0.5 0.438 0 0.75 0.313 0.813 0.75-0.063 0.063-0.063 0.125-0.063 0.188l-1.5 4.813h-1.563zM8.563 1.813c0.125-0.375 0.563-0.625 0.938-0.5 0.313 0.125 0.563 0.375 0.563 0.688 0 0.125-0.063 0.188-0.063 0.25l-1.5 4.813h-1.563zM11.688 30.688c-1.125 0-2.25-0.375-3.188-1l-0.938-0.75c-1-0.75-1.75-1.875-2.063-3.125-0.25-0.75-0.375-1.625-0.438-2.438l-1 0.063c0 0.875 0.188 1.813 0.438 2.688 0.375 1.5 1.25 2.75 2.438 3.688l0.938 0.688c0.125 0.063 0.25 0.125 0.313 0.188h-0.5c-1.188 0-2.25-0.375-3.188-1l-0.938-0.75c-1-0.75-1.75-1.875-2.125-3.125-0.625-2.25-0.5-4.688 0.313-6.938l3.875-10.75h6.438l-3.75 10.438c-0.875 2.438-1 5.063-0.313 7.563 0.438 1.5 1.313 2.75 2.5 3.688l0.938 0.688c0.125 0.063 0.25 0.125 0.313 0.188zM15.25 30.688c-1.125 0-2.25-0.375-3.188-1l-0.938-0.75c-1-0.75-1.75-1.875-2.063-3.125-0.625-2.25-0.563-4.688 0.25-6.938l3.875-10.75h6l-3.75 10.438c-0.875 2.438-0.938 5.063-0.25 7.563 0.375 1.5 1.25 2.75 2.438 3.688l0.938 0.688c0.125 0.063 0.25 0.125 0.313 0.188zM30.938 25.25c0 1.563-0.625 3-1.75 4.063l-0.063 0.063c-1 0.875-2.25 1.313-3.563 1.313h-3.188c-1.125 0-2.25-0.375-3.188-1l-0.875-0.75c-1.063-0.75-1.813-1.875-2.125-3.125-0.625-2.25-0.563-4.688 0.25-6.938l3.875-10.75h3.313l1.25 5.25c0.563 2.25 1.625 4.313 3.188 6l1.563 1.688c0.813 1 1.313 2.25 1.313 3.563zM4.75 18.563l1.875-5.25 1 0.375-1.875 5.188zM7.75 10.188l-0.5 1.5 0.938 0.313 0.563-1.438zM13.625 27.75l-0.875 0.563c0.438 0.563 0.875 1.063 1.438 1.5l0.625-0.875c-0.438-0.313-0.875-0.75-1.188-1.188zM13 18.875l-1-0.313c-0.875 2.438-1 5.063-0.313 7.563l0.5-0.125 0.563-0.188c-0.688-2.25-0.563-4.688 0.25-6.938zM28.813 21.813l-0.313-0.375c-0.5-0.563-1.188-0.938-1.875-1.188l-0.563-0.125c-0.875-0.313-1.813-0.438-2.688-0.438h-3.375c-0.438 0-0.938 0.125-1.375 0.313-1.125 0.563-1.813 1.688-1.813 2.938 0 0.875 0.125 1.813 0.375 2.688 0.25 1 0.875 1.875 1.688 2.5l0.938 0.688c0.75 0.563 1.625 0.875 2.563 0.875h3.188c1.063 0 2.063-0.438 2.813-1.125l0.063-0.063c0.938-0.813 1.438-2 1.438-3.25v-0.625c0-1.063-0.375-2.063-1.063-2.813zM28.813 25.25c0 0.938-0.375 1.875-1.125 2.5v0.063c-0.625 0.5-1.375 0.813-2.125 0.813h-3.25c-0.625 0-1.313-0.25-1.875-0.625l-0.938-0.688c-0.625-0.5-1.063-1.188-1.313-1.938-0.188-0.813-0.313-1.625-0.375-2.438 0.063-0.875 0.563-1.625 1.313-2 0.25-0.125 0.563-0.188 0.875-0.188h3.375c0.813 0 1.625 0.125 2.375 0.375l0.563 0.125c0.5 0.188 1 0.5 1.375 0.938l0.313 0.313c0.563 0.563 0.813 1.313 0.813 2.125zM24.688 16.188c-0.313-0.813-0.625-1.688-0.875-2.563l-0.813-3.563c-0.125-0.5-0.625-0.875-1.125-0.875s-0.938 0.313-1.125 0.75l-2.188 6.188c-0.25 0.625-0.063 1.375 0.5 1.875l0.188 0.188c0.313 0.313 0.75 0.438 1.125 0.438h2.75c0.938 0 1.75-0.813 1.75-1.75 0-0.25-0.063-0.438-0.188-0.688zM23.625 17.375c-0.188 0.125-0.313 0.188-0.5 0.188h-2.75c-0.125 0-0.313-0.063-0.438-0.188l-0.188-0.188c-0.25-0.188-0.313-0.438-0.25-0.75l2.25-6.125c0-0.063 0.063-0.063 0.125-0.063s0.063 0 0.125 0.063l0.813 3.563c0.25 0.938 0.563 1.875 0.938 2.75 0.063 0.063 0.063 0.188 0.063 0.25 0 0.188-0.063 0.375-0.188 0.5z"></path>
</svg>
