<!-- Generated by IcoMoon.io -->
<svg version="1.1" xmlns="http://www.w3.org/2000/svg" width="32" height="32" viewBox="0 0 32 32">
<title>Bushbuck</title>
<path d="M8.125 5.438c-0.063 0.75 0 1.625 0.063 1.875 0 0.25 0.063 0.5 0 0.5 0 0-0.313-0.188-0.688-0.438-0.875-0.625-1.063-0.625-0.938 0 0.125 0.75 0.688 1.5 1.313 1.813s0.75 0.688 0.875 2.563c0.063 0.688 0.125 1.25 0.188 1.25 0 0 0.188-0.063 0.25-0.188 0.25-0.188 0.875-0.313 1.438-0.25 0.313 0.063 0.313 0.5-0.063 0.688-0.125 0.063-0.563 0.188-0.938 0.25-0.625 0.063-0.688 0.063-0.688 0.5s0.125 0.875 0.563 1.875c0.125 0.313 0.125 0.375 0.438 0.188 0.188-0.063 0.313-0.188 0.313-0.188-0.125-0.063 1.75-0.688 2.063-0.688 0.125 0 0.188 0.125 0.188 0.375 0 0.625-0.125 0.75-0.688 0.875-0.25 0.063-0.625 0.188-0.813 0.375-0.188 0.125-0.438 0.25-0.625 0.25s-0.313 0.063-0.313 0.125c0 0.188 1.063 1.875 1.438 2.25 0.188 0.188 0.5 0.313 0.938 0.375 0.875 0.125 1.375 0.5 1.188 0.875-0.25 0.375-0.563 0.375-1.063 0-0.25-0.188-0.5-0.375-0.563-0.375 0 0-0.125 0.438-0.188 1-0.25 1.063-0.25 1.813-0.063 4.25l0.063 1.688 0.5 0.375c1.25 1.125 1.875 1 1-0.125-0.688-0.875-0.75-1.25-0.688-3.188 0.063-1.313 0.125-1.625 0.438-2.125 0.188-0.313 0.438-0.688 0.625-0.813 0.25-0.25 0.25-0.25 0.313 1.188 0.063 0.813 0.188 2.125 0.313 2.875 0.25 1.875 0.25 2.25-0.063 3.188s-0.313 0.938-0.125 0.938c0.125 0 0.375-0.25 0.625-0.5l0.438-0.438v-1.938c-0.063-1.563 0-2.125 0.188-2.813 0.125-0.438 0.25-1.375 0.313-2.125s0.125-1.5 0.188-1.625c0.063-0.125 0.375-0.25 0.75-0.313 0.375 0 1.188-0.188 1.813-0.375 1.563-0.438 1.75-0.438 1.875 0 0.125 0.25 0.25 0.563 0.375 0.813 0.125 0.188 0.438 0.75 0.625 1.125 0.25 0.375 0.5 0.688 0.563 0.688 0.125 0 0.375 0.188 0.563 0.438 0.25 0.313 0.313 0.5 0.25 0.875-0.063 0.625-0.375 1-0.625 0.938-0.125-0.063-0.25 0.125-0.375 0.375s-0.5 1-0.875 1.75c-0.813 1.438-0.938 1.75-0.438 1.688 0.188 0 0.688-0.688 1.813-2.438 0.875-1.375 1.625-2.625 1.688-2.75 0.125-0.25 0.063-0.5-0.188-1.25-0.25-0.563-0.438-1.25-0.438-1.563-0.125-0.563-0.063-0.563 0.125-0.313 0.188 0.063 0.625 0.375 1.125 0.625 0.438 0.25 1.063 0.688 1.5 1 0.375 0.25 0.938 0.625 1.25 0.813 0.375 0.188 0.75 0.563 1 0.938 0.438 0.688 1.188 3.25 1.313 4.313 0 0.563 0.063 0.813 0.25 0.813 0.313 0 0.688-0.25 0.688-0.5 0-0.313-0.875-5.125-1.063-5.875-0.188-0.625-0.938-1.375-1.688-1.75-0.563-0.313-1.063-0.875-1.063-1.25 0-0.188 0.125-0.625 0.25-1.063s0.188-1.25 0.188-1.75c0.063-0.75-0.063-1.063-0.438-1.938-0.625-1.25-1.063-1.625-2.75-2.438-1.938-0.875-4.25-1.063-6.313-0.438-0.563 0.188-1.75 0.375-2.625 0.438-0.813 0.063-1.813 0.25-2.188 0.375-0.313 0.063-0.688 0.188-0.75 0.125s-0.125-0.5-0.188-1c-0.063-0.5-0.125-1.125-0.188-1.313-0.063-0.438 0-0.5 0.313-0.625 0.75-0.25 1.438-1.125 1.438-1.75 0-0.375-0.313-0.5-1-0.188-0.313 0.125-0.563 0.188-0.625 0.125 0 0 0.063-0.375 0.188-0.75 0.25-0.813 0.25-1.875 0.063-2.188-0.188-0.25-0.25-0.125-0.5 1-0.438 2.188-1.688 3.25-2.375 2-0.125-0.25-0.313-1-0.375-1.625-0.188-1.375-0.313-1.813-0.5-1.875-0.125 0-0.188 0.375-0.188 1.375z"></path>
</svg>
