<!-- Generated by IcoMoon.io -->
<svg version="1.1" xmlns="http://www.w3.org/2000/svg" width="32" height="32" viewBox="0 0 32 32">
<title>Bustard</title>
<path d="M23.125 0.375c0 0-0.063 0.063-0.313 0.188-0.188 0.063-0.5 0.188-0.813 0.313-0.5 0.313-1.188 0.5-1.625 0.5s-0.625 0.125-0.625 0.313c0 0.188 0.125 0.563 0.25 0.688 0 0.063 0 0.125 0 0.188 0 0 0 0.125 0.125 0.188l0.125 0.125-0.25-0.375 0.188 0.188c0.063 0.125 0.188 0.188 0.375 0.188 0.313 0 0.375 0.063 0.438 0.25 0 0.125 0 0.188 0.063 0.25 0.063 0 0.063 0 0-0.125s-0.063-0.188 0-0.188c0.063 0 0.25 0.688 0.25 0.938 0 0.125 0 0.313-0.063 0.313s-0.125 0.063-0.125 0.188c-0.063 0.125-0.063 0.125 0.063 0.063 0.125-0.125 0.125-0.125 0.125 0-0.063 0.125 0 0.125 0 0.125 0.063 0 0.063 0.063 0.063 0.063 0 0.063 0 0.313 0 0.563-0.063 0.25-0.063 0.625-0.125 0.75 0 0.188 0 0.563-0.063 0.938 0 1.063-0.063 1.25-0.25 1.563-0.125 0.188-0.25 0.313-0.25 0.313-0.063-0.063-0.25 0.125-0.188 0.188 0.063 0.125-0.125 0.313-0.375 0.313-0.063 0-0.25 0.063-0.313 0.063-0.313 0.125-2.188 0.125-3.125 0.063-1.188-0.125-2.125-0.063-3.063 0.25-0.313 0.125-0.75 0.188-1.25 0.25-0.375 0-1 0.063-1.313 0.188-0.563 0.125-1.375 0.438-1.438 0.563 0 0-0.063 0.063-0.125 0.063 0 0 0-0.063 0.063-0.188 0.125-0.063 0.125-0.063-0.063 0.063-0.125 0.063-0.188 0.188-0.25 0.188 0 0 0.063 0 0.125-0.063 0.125 0 0.063 0.063-0.063 0.188s-0.25 0.188-0.313 0.188c-0.063 0.063-0.125 0.063-0.125 0.125s-0.125 0.125-0.25 0.188c-0.188 0.063-0.625 0.25-1.875 1-0.188 0.125-0.375 0.188-0.438 0.188 0 0-0.063 0 0 0 0 0.063-0.063 0.125-0.125 0.188-0.188 0.125-0.25 0.125-0.188 0.063 0-0.063 0-0.063-0.063-0.063-0.063 0.063-0.125 0.063-0.063 0.125 0.063 0-0.125 0.125-0.375 0.25-0.313 0.188-0.438 0.25-0.438 0.188-0.063 0-0.063 0-0.063 0.063 0.063 0.063 0 0.125-0.063 0.188s-0.125 0.063-0.125 0c0 0-0.125 0.063-0.25 0.188s-0.188 0.25-0.188 0.25c0 0.063-0.063 0.125-0.125 0.25-0.125 0.063-0.188 0.125-0.188 0.125 0-0.063-0.125 0-0.188 0.063s-0.188 0.188-0.125 0.188c0 0.125-0.063 0.25-0.313 0.375-0.313 0.25-0.375 0.25-0.313 0.125 0 0-0.125 0.125-0.313 0.313-0.375 0.313-0.438 0.438-0.313 0.313 0.063 0 0.063 0 0.063 0.063s-0.375 0.375-0.438 0.375c0 0-0.063 0.063-0.063 0.063 0 0.063 0 0.063-0.063 0.063s-0.063 0-0.063 0.063c0.063 0.063 0 0.125 0 0.188-0.063 0.063-0.125 0.063-0.188 0 0-0.063 0-0.063 0 0 0 0.125-0.25 0.625-0.313 0.625 0-0.063-0.063 0-0.063 0 0 0.063 0 0.063 0 0.063 0.125-0.063 0.125 0.063 0 0.125-0.063 0.063-0.063 0.063-0.125 0 0-0.063 0 0 0 0.125 0 0.25-0.188 0.813-0.25 0.938-0.063 0-0.188 0.125-0.313 0.188-0.5 0.25-0.5 0.25-0.5 0.813 0 0.313 0 0.563 0.063 0.625 0.125 0.063 0.813-0.125 1-0.25 0.125-0.063 0.25-0.125 0.313-0.063 0 0 0.063 0 0 0 0-0.063 0.375-0.375 0.563-0.375 0.063 0 0.063-0.063 0.063-0.125s0.063-0.063 0.125-0.063c0 0 0.063 0 0-0.063-0.063-0.125 0.188-0.188 0.438-0.188 0.125 0.063 0.188 0.063 0.125 0-0.063 0 0.625-0.375 0.75-0.375 0.063 0.063 0.125 0.063 0 0-0.063-0.063 0.625-0.438 0.938-0.438 0.125 0 0.438-0.125 0.688-0.188 0.438-0.125 0.563-0.125 0.75-0.125 0.188 0.063 0.313 0.063 0.375 0 0.063 0 0.125 0 0.188 0 0 0.063 0 0 0 0-0.063-0.063 0.188-0.25 0.25-0.188 0 0 0 0 0 0 0-0.063 0-0.063 0.063-0.125s0.25-0.125 0.938-0.125c0.813 0 0.875 0 1.188-0.125 0.438-0.188 1-0.25 1.125-0.063 0.063 0.063 0.188 0.125 0.313 0.188 0.25 0 1.125 0.625 1.125 0.688 0 0 0 0.063 0 0.063 0.063 0.063 0.063 0.063 0.063 0-0.063-0.063-0.063-0.125 0.063-0.063 0 0 0.25 0.063 0.438 0.063 0.188 0.063 0.438 0.063 0.438 0.125 0.063 0.063 0.063 0.063 0 0-0.063-0.25 1.188-0.563 1.438-0.375 0.063 0 0.188 0.313 0.313 0.625 0.188 0.313 0.313 0.5 0.375 0.438 0 0 0.063 0 0 0.063 0 0 0.063 0.125 0.125 0.188s0.063 0.125 0.063 0.188c0 0.063 0 0.063 0.063 0.063s0.063 0 0.063 0.063 0 0.125 0.063 0.125c0.063 0 0.063 0.063 0.063 0.25 0 0.125 0 0.25-0.063 0.313-0.063 0-0.25 0.188-0.25 0.25s0 0 0.125-0.125 0.125-0.063-0.063 0.188c-0.063 0.063-0.125 0.125-0.188 0.125 0 0-0.063 0-0.063 0.063-0.063 0.063 0 0.063 0 0 0.063 0 0.125 0 0.125 0 0 0.063-0.313 0.375-0.313 0.375-0.188 0-0.25 0.125-0.25 0.438l0.063 0.313v-0.25c0.063-0.125 0.063-0.25 0.063-0.313s0-0.063 0.063-0.125c0 0 0.063 0.125 0 0.625 0 0.313-0.063 1.188-0.063 1.875-0.063 0.938-0.063 1.438-0.188 1.75-0.063 0.25-0.125 0.688-0.125 1-0.063 0.75-0.25 1.75-0.375 2-0.063 0.125-0.125 0.313-0.125 0.5-0.063 0.125-0.125 0.313-0.188 0.438-0.125 0.25-0.313 1.125-0.313 1.438 0 0.125 0 0.375 0.063 0.5l0.063 0.313h1.375c1.313 0 1.375 0 1.375-0.125 0-0.063 0-0.188 0.063-0.188s0.063-0.125 0.063-0.25c-0.063-0.125-0.063-0.125 0-0.125s0.063 0 0.063 0c-0.063-0.063-0.188-0.063-0.25-0.063-0.125 0-0.375 0-0.5-0.125-0.188-0.063-0.375-0.125-0.438-0.125-0.063-0.063-0.188-0.125-0.25-0.188-0.188-0.125-0.188-0.125-0.188-1.438s0-1.375 0.188-2.063 0.313-1.313 0.375-2c0.063-0.5 0.125-0.813 0.25-0.813 0 0.063 0 0 0-0.063-0.063-0.063 0.188-0.5 0.25-0.438 0 0 0.063 0 0.063 0 0.063-0.063 0.063-0.063 0-0.063-0.063 0.063-0.063 0-0.063-0.125 0.063-0.125 0.063-0.313 0.063-0.5 0.063-0.5 0.125-0.313 0.125 0.563 0 0.125 0.063 0.125 0.063 0.125s0.063 0.125 0.125 0.25c0.063 0.125 0.188 0.313 0.25 0.375 0.063 0 0.125 0.125 0.125 0.125-0.063 0 0.063 0.125 0.125 0.25 0.125 0.063 0.188 0.125 0.188 0.125 0-0.063 0.063 0 0.125 0.063s0.125 0.125 0.125 0.125c-0.063 0.063-0.063 0.063 0 0.063 0.063-0.063 0.063 0 0.125 0 0 0.063 0.063 0.063 0.125 0.063s0.375 0.188 0.75 0.438c0.375 0.25 0.688 0.438 0.75 0.438s0.563 0.438 0.563 0.5c0 0.063-0.063 0-0.125-0.125l-0.188-0.188 0.125 0.25c0.063 0.063 0.188 0.188 0.188 0.125 0.063 0 0.25 0.25 0.25 0.313s-0.063 0-0.063 0c-0.125-0.063-0.125-0.063 0 0.063 0.063 0.063 0.125 0.125 0.125 0.063 0.063 0 0.5 0.438 0.438 0.5-0.063 0-0.063 0 0 0 0.063-0.063 0.188 0.063 0.313 0.188s0.25 0.25 0.375 0.313c0.25 0.125 0.625 0.438 0.625 0.563 0 0.063-0.063 0-0.188-0.125-0.063-0.125-0.125-0.188-0.125-0.125s0.25 0.375 0.313 0.313c0.063 0 0.125 0.063 0.188 0.188s0.125 0.25 0.188 0.375c0.125 0.063 0.125 0.125 0.063 0.063 0 0-0.063 0-0.063 0.063 0 0 0.063 0.063 0.125 0.063 0.125-0.063 0.188 0 0.125 0 0 0.063 0.063 0.125 0.188 0.188v0c-0.125-0.125-0.125-0.188 0.063-0.063 0.375 0.188 0.563 0.25 1.063 0.25 0.25-0.063 0.5-0.063 0.563-0.063 0.188 0 0.25-0.188 0.125-0.313-0.063-0.125-0.063-0.125 0 0 0.063 0.063 0.063 0.125 0.063 0.125-0.063 0.063-0.125 0-0.188-0.125 0-0.125-0.125-0.188-0.188-0.25 0-0.063-0.063-0.125 0-0.188 0-0.125 0-0.125-0.063 0-0.063 0.063-0.125 0-0.063-0.125 0 0-0.063 0-0.063 0-0.125 0.063-0.688-0.438-0.625-0.563 0 0 0-0.063 0-0.063-0.125 0.063-0.188 0-0.125-0.063 0.125 0 0.063-0.063-0.063 0-0.063 0-0.125-0.063-0.125-0.063 0-0.063 0-0.125-0.063-0.063s-0.625-0.313-0.563-0.438c0 0-0.063-0.125-0.188-0.188v0c0.063 0.125 0.125 0.188 0.063 0.188 0 0-0.188-0.125-0.375-0.313-0.125-0.125-0.25-0.25-0.188-0.188 0.125 0.063 0.063 0-0.063-0.125s-0.25-0.25-0.25-0.25c0 0 0 0.063 0.125 0.125 0.25 0.313 0.063 0.188-0.313-0.125-0.25-0.188-0.375-0.375-0.375-0.438 0.063 0 0 0 0 0-0.063 0.063-0.375-0.25-0.313-0.313 0-0.063-0.063-0.125-0.125-0.188v0l0.125 0.188-0.188-0.125c-0.063-0.125-0.125-0.188-0.125-0.25 0 0 0 0-0.063 0-0.125 0-0.188-0.063-0.313-0.188s-0.125-0.125-0.063-0.063c0.125 0.063 0.125 0.063 0.125 0-0.063-0.063-0.125-0.125-0.125-0.125-0.063 0-0.125 0-0.125 0-0.188 0-0.875-0.625-0.875-0.688s0-0.125-0.063-0.125c-0.125 0-0.125 0 0 0.063 0.063 0 0.063 0.063 0 0.063s-0.25-0.188-0.25-0.25c0.063 0 0-0.063-0.063-0.063 0 0 0 0 0.063 0.063s0.063 0.063 0 0.063-0.125-0.063-0.125-0.125c-0.063-0.063-0.438-0.813-0.5-1.063-0.063-0.063 0 0 0.063 0 0.125 0.125 0.125 0.125 0.063 0-0.063-0.063-0.125-0.063-0.188-0.063-0.063 0.063-0.188-0.313-0.25-0.625-0.063-0.188-0.125-0.688-0.25-1.063-0.313-1-0.313-1.125 0.063-1.688 0.125-0.25 0.313-0.438 0.313-0.375 0.063 0 0.188-0.125 0.25-0.313 0.125-0.125 0.188-0.25 0.188-0.25-0.063 0.063-0.063 0.063-0.063 0s0.375-0.438 0.438-0.438c0 0 0 0 0 0-0.063-0.063 0.313-0.375 0.438-0.375 0.063 0 0.125 0 0.188 0.063 0.125 0.125 0.313 0.125 0.438-0.063 0.063-0.125 0.188-0.125 0.188-0.125 0.063 0.063 0.25-0.188 0.25-0.25-0.063-0.063 0-0.125 0-0.125 0.063 0 0.125-0.125 0.188-0.25 0.063-0.188 0.125-0.25 0.313-0.313 0.063-0.063 0.25-0.125 0.25-0.188 0.125-0.125 0.25-0.188 0.188-0.063 0 0.063 0 0.063 0.063 0 0.063 0 0.125 0 0.063-0.063-0.125-0.063 0.313-0.25 0.438-0.25 0.063 0.063 0.125 0 0.188-0.063l0.063-0.188-0.125 0.125-0.188 0.125 0.188-0.188c0.125-0.188 0.25-0.313 0.125-0.125 0 0.063 0 0.063 0.063 0 0.125-0.125 0.188-0.188 0.063-0.125s-0.063-0.063 0.063-0.188c0.125-0.125 0.25-0.188 0.125-0.063 0 0.063 0.063 0 0.188-0.063 0.125-0.125 0.188-0.25 0.25-0.313s0 0-0.125 0.063c-0.125 0.125-0.25 0.25-0.25 0.188s0.563-0.563 0.625-0.563c0.063 0 0.125-0.063 0.188-0.125 0.125-0.125 0.125-0.125 0-0.063-0.125 0.125-0.125 0 0-0.125 0.063 0 0.063-0.063 0.063 0 0 0 0.063 0 0.125-0.063 0.063 0 0.063-0.125 0.063-0.188s0-0.125 0.063-0.125c0.063 0 0.063-0.063 0.063-0.125s0.063-0.063 0.063-0.063 0.063 0 0.063-0.063c-0.063-0.063 0.25-0.5 0.25-0.438 0.063 0.063 0 0.125 0 0.188-0.125 0.063-0.125 0.063 0 0 0.063-0.063 0.063-0.125 0.063-0.188s0.063-0.188 0.188-0.375c0.313-0.438 0.438-0.875 0.938-2.688 0.125-0.5 0.125-0.875 0.188-1.813 0.063-0.625 0.063-1.25 0.125-1.313l0.063-0.188v0.188c0.063 0.063 0.063 0.063 0.063-0.188 0-0.75 0.063-1.688 0.25-2 0.063-0.188 0.125-0.5 0.25-0.75 0.125-0.563 0.25-0.938 0.5-1.063 0.125-0.125 0.125-0.125-0.063 0.063-0.063 0.125-0.125 0.25-0.125 0.25 0.063 0 0.313-0.375 0.313-0.5 0-0.063 0.25-0.313 0.313-0.313 0 0 0.063 0 0.063-0.063s0.125-0.188 0.188-0.188c0.063 0 0.063 0 0 0.063 0 0 0 0.063 0.063 0 0.125 0 0.125-0.063 0.063-0.063-0.063-0.063 0.188-0.188 0.5-0.438 0.5-0.313 0.75-0.375 1.25-0.5 0.375-0.125 0.813-0.188 1-0.25 0.438-0.125 0.625-0.125 0.563 0-0.063 0-0.063 0 0 0 0 0 0.063-0.125 0-0.313 0-0.25 0-0.25-0.375-0.438-0.313-0.125-0.438-0.125-0.875-0.125-0.25 0-0.625 0-0.75 0.063-0.438 0.125-1.313 0.125-1.813-0.063-0.313-0.125-0.438-0.188-0.375-0.188 0-0.063-0.5-0.063-1.25-0.063-0.688 0-1.25 0.063-1.188 0.063z"></path>
</svg>
