<svg xmlns="http://www.w3.org/2000/svg" xmlns:xlink="http://www.w3.org/1999/xlink" version="1.1" x="0px" y="0px" viewBox="0 0 100 125" style="enable-background:new 0 0 100 100;" xml:space="preserve"><path d="M62.2,37c-1.9,1.8-3.5,3.8-4.8,5.8c-0.2,0.3-0.4,0.4-0.6,0.6L55.9,75c0.5,0.3,0.8,0.8,0.9,1.4c1.4,6,6.7,10.3,12.9,10.3  c7.3,0,13.2-5.9,13.2-13.2c0-4.7-2.5-9.1-6.6-11.5c-0.2-0.1-0.4-0.3-0.5-0.5c0,0-0.1,0-0.1-0.1c-0.2-0.2-0.3-0.5-0.4-0.7  c0-0.2,0-0.4,0-0.5c0-0.1,0-0.2,0-0.3c0-0.3,0.1-0.5,0.3-0.8c0.1-0.1,0.2-0.2,0.3-0.3c0.1-0.1,0.1-0.2,0.3-0.3  c1.4-1.1,2.7-2.2,4-3.5c6.1-6.1,9.9-13.6,9.9-19.5c0-2.6-0.7-4.7-2.2-6.1C83,24.4,71.2,28,62.2,37z"/><path d="M47.4,76.7l0.2,8c0,1.1,0.9,1.9,1.9,1.9c1.1,0,1.9-0.8,1.9-1.9l1.1-43.3c0-0.8-0.3-1.6-0.9-2.2c-0.6-0.6-1.3-0.9-2.2-0.9  c-0.8,0-1.6,0.3-2.2,0.9c-0.6,0.6-0.9,1.4-0.9,2.2l0.9,35.1C47.4,76.6,47.4,76.6,47.4,76.7L47.4,76.7C47.4,76.7,47.4,76.7,47.4,76.7  z"/><path d="M23.9,58.4c0.1,0.1,0.2,0.2,0.3,0.3c0.1,0.1,0.2,0.2,0.3,0.3c0.1,0.3,0.2,0.5,0.3,0.8c0,0.1,0,0.2,0,0.3c0,0.2,0,0.4,0,0.5  c-0.1,0.3-0.2,0.5-0.4,0.7c0,0-0.1,0-0.1,0.1c-0.1,0.2-0.3,0.4-0.5,0.5c-4.1,2.4-6.6,6.8-6.6,11.5c0,7.3,5.9,13.2,13.2,13.2  c6.2,0,11.4-4.2,12.9-10.2l-0.2-7c0,0,0,0,0,0v0l-0.7-27c-1.3-1.9-2.8-3.6-4.5-5.3c-9-9-20.8-12.6-25.6-7.7  c-1.5,1.4-2.2,3.5-2.2,6.1c0,5.9,3.8,13.4,9.9,19.5C21.2,56.2,22.5,57.3,23.9,58.4z"/><path d="M37.6,13.9c-0.9-0.7-2.2-0.7-3,0.2c-0.8,0.9-0.7,2.2,0.2,3c2.7,2.3,4.9,5.1,6.6,8.3c1.7,3.3,2.8,7,3,10.8  c1.1-1.1,2.6-1.7,4.1-1.9c-0.5-3.8-1.6-7.5-3.4-10.9C43.3,19.8,40.8,16.6,37.6,13.9z"/><path d="M64.1,17.1c0.9-0.8,1-2.1,0.2-3c-0.8-0.9-2.1-1-3-0.2c-3.1,2.7-5.7,5.9-7.6,9.5c-1.7,3.3-2.9,7.1-3.4,10.9  c1.5,0.2,2.9,0.8,4.1,1.9c0.3-3.7,1.3-7.5,3-10.8C59.2,22.2,61.4,19.4,64.1,17.1z"/><text x="0" y="115" fill="#000000" font-size="5px" font-weight="bold" font-family="'Helvetica Neue', Helvetica, Arial-Unicode, Arial, Sans-serif">Created by NAPISAH</text><text x="0" y="120" fill="#000000" font-size="5px" font-weight="bold" font-family="'Helvetica Neue', Helvetica, Arial-Unicode, Arial, Sans-serif">from the Noun Project</text></svg>