<?xml version="1.0" standalone="no"?>
<!DOCTYPE svg PUBLIC "-//W3C//DTD SVG 20010904//EN"
 "http://www.w3.org/TR/2001/REC-SVG-20010904/DTD/svg10.dtd">
<svg version="1.0" xmlns="http://www.w3.org/2000/svg"
 width="200.000000pt" height="200.000000pt" viewBox="0 0 200.000000 200.000000"
 preserveAspectRatio="xMidYMid meet">

<g transform="translate(0.000000,200.000000) scale(0.100000,-0.100000)"
fill="#000000" stroke="none">
<path d="M60 1816 l0 -125 48 -3 47 -3 0 -685 0 -685 -47 -3 -48 -3 0 -125 0
-124 940 0 940 0 0 124 0 125 -47 3 -48 3 0 685 0 685 48 3 47 3 0 125 0 124
-940 0 -940 0 0 -124z m1810 -6 l0 -60 -870 0 -870 0 0 60 0 60 870 0 870 0 0
-60z m-1590 -810 l0 -690 -30 0 -30 0 0 690 0 690 30 0 30 0 0 -690z m250 610
l0 -80 -95 0 -95 0 0 73 c0 41 3 77 7 80 3 4 46 7 95 7 l88 0 0 -80z m125
-610 l0 -685 -30 0 -30 0 -3 675 c-1 371 0 681 3 688 3 8 16 12 32 10 l28 -3
0 -685z m253 608 l3 -78 -96 0 -95 0 0 80 0 81 93 -3 92 -3 3 -77z m122 -608
l0 -690 -30 0 -30 0 0 690 0 690 30 0 30 0 0 -690z m250 610 l0 -80 -95 0 -95
0 0 73 c0 41 3 77 7 80 3 4 46 7 95 7 l88 0 0 -80z m125 -610 l0 -685 -30 0
-30 0 -3 675 c-1 371 0 681 3 688 3 8 16 12 32 10 l28 -3 0 -685z m253 608 l3
-78 -96 0 -95 0 0 80 0 81 93 -3 92 -3 3 -77z m122 -608 l0 -690 -30 0 -30 0
0 690 0 690 30 0 30 0 0 -690z m-1250 440 l0 -30 -95 0 -95 0 0 30 0 30 95 0
95 0 0 -30z m380 0 l0 -30 -95 0 -95 0 0 30 0 30 95 0 95 0 0 -30z m370 0 l0
-30 -95 0 -95 0 0 30 0 30 95 0 95 0 0 -30z m380 0 l0 -30 -95 0 -95 0 0 30 0
30 95 0 95 0 0 -30z m-1130 -225 l0 -126 -92 3 -93 3 -3 123 -3 122 96 0 95 0
0 -125z m378 3 l-3 -123 -92 -3 -93 -3 0 126 0 125 95 0 96 0 -3 -122z m372
-3 l0 -126 -92 3 -93 3 -3 123 -3 122 96 0 95 0 0 -125z m378 3 l-3 -123 -92
-3 -93 -3 0 126 0 125 95 0 96 0 -3 -122z m-1128 -218 l0 -30 -95 0 -95 0 0
30 0 30 95 0 95 0 0 -30z m380 0 l0 -30 -95 0 -95 0 0 30 0 30 95 0 95 0 0
-30z m370 0 l0 -30 -95 0 -95 0 0 30 0 30 95 0 95 0 0 -30z m380 0 l0 -30 -95
0 -95 0 0 30 0 30 95 0 95 0 0 -30z m-1130 -200 l0 -110 -95 0 -95 0 0 103 c0
57 3 107 7 110 3 4 46 7 95 7 l88 0 0 -110z m378 -2 l3 -108 -96 0 -95 0 0
110 0 111 93 -3 92 -3 3 -107z m372 2 l0 -110 -95 0 -95 0 0 103 c0 57 3 107
7 110 3 4 46 7 95 7 l88 0 0 -110z m378 -2 l3 -108 -96 0 -95 0 0 110 0 111
93 -3 92 -3 3 -107z m-1128 -208 l0 -31 -92 3 -93 3 -3 28 -3 27 95 0 96 0 0
-30z m378 3 l-3 -28 -92 -3 -93 -3 0 31 0 30 96 0 95 0 -3 -27z m372 -3 l0
-31 -92 3 -93 3 -3 28 -3 27 95 0 96 0 0 -30z m378 3 l-3 -28 -92 -3 -93 -3 0
31 0 30 96 0 95 0 -3 -27z m-1128 -188 l0 -96 -92 3 -93 3 -3 93 -3 92 96 0
95 0 0 -95z m378 3 l-3 -93 -92 -3 -93 -3 0 96 0 95 95 0 96 0 -3 -92z m372
-3 l0 -96 -92 3 -93 3 -3 93 -3 92 96 0 95 0 0 -95z m378 3 l-3 -93 -92 -3
-93 -3 0 96 0 95 95 0 96 0 -3 -92z m212 -218 l0 -60 -870 0 -870 0 0 60 0 60
870 0 870 0 0 -60z"/>
</g>
</svg>
