<!-- Generated by IcoMoon.io -->
<svg version="1.1" xmlns="http://www.w3.org/2000/svg" width="32" height="32" viewBox="0 0 32 32">
<title>Camel</title>
<path d="M1.375-2.5h-0.313c0 0.188-0.125 0.25-0.313 0.25-0.25 0-0.375-0.188-0.375-0.5s0.125-0.5 0.375-0.5c0.188 0 0.313 0.125 0.313 0.313h0.313c-0.063-0.375-0.313-0.563-0.625-0.563-0.375 0-0.688 0.313-0.688 0.75 0 0.5 0.25 0.75 0.688 0.75 0.375 0 0.625-0.188 0.625-0.5zM0.75-2.813v-0.313c0 0-0.063 0-0.063 0-0.125 0-0.25 0.125-0.25 0.25v-0.188h-0.313v1.063h0.313v-0.563c0-0.188 0.063-0.25 0.188-0.25 0.063 0 0.063 0 0.125 0zM1.063-2.5c0-0.375-0.188-0.625-0.5-0.625s-0.5 0.25-0.5 0.625c0 0.313 0.188 0.5 0.5 0.5 0.188 0 0.438-0.063 0.5-0.313h-0.313c0 0.063-0.125 0.125-0.188 0.125-0.125 0-0.25-0.063-0.25-0.25h0.75zM0.75-2.625h-0.438c0.063-0.188 0.125-0.25 0.25-0.25s0.188 0.063 0.188 0.25zM1.063-2v-0.063c-0.063 0-0.063-0.063-0.063-0.125v-0.563c0-0.25-0.188-0.375-0.438-0.375-0.313 0-0.438 0.125-0.5 0.375h0.313c0-0.063 0.063-0.125 0.188-0.125s0.125 0.063 0.125 0.125-0.063 0.063-0.188 0.125h-0.125c-0.188 0.063-0.313 0.125-0.313 0.313 0 0.25 0.125 0.313 0.313 0.313 0.125 0 0.25-0.063 0.313-0.125 0 0.063 0 0.063 0.063 0.125zM0.688-2.438c0 0.125-0.063 0.25-0.188 0.25s-0.188-0.063-0.188-0.125c0-0.125 0.063-0.125 0.188-0.125l0.063-0.063c0.125 0 0.125 0 0.125 0zM0.625-2v-0.188c-0.063 0-0.063 0-0.063 0-0.125 0-0.125 0-0.125-0.125v-0.563h0.188v-0.188h-0.188v-0.313h-0.25v0.313h-0.188v0.188h0.188v0.625c0 0.188 0.063 0.25 0.25 0.25 0.063 0 0.125 0 0.188 0zM1.063-2v-1.438h-0.25v0.5c-0.063-0.125-0.188-0.188-0.313-0.188-0.25 0-0.438 0.25-0.438 0.563s0.188 0.563 0.438 0.563c0.125 0 0.25-0.063 0.313-0.125v0.125zM0.813-2.563c0 0.25-0.125 0.375-0.25 0.375s-0.25-0.125-0.25-0.375c0-0.188 0.125-0.313 0.25-0.313s0.25 0.125 0.25 0.313zM1.125-2.5c0-0.313-0.125-0.625-0.438-0.625-0.125 0-0.25 0.063-0.313 0.188v-0.5h-0.25v1.438h0.25v-0.125c0.063 0.063 0.188 0.125 0.313 0.125 0.25 0 0.438-0.188 0.438-0.5zM0.875-2.563c0 0.25-0.125 0.375-0.25 0.375s-0.25-0.125-0.25-0.375c0-0.188 0.125-0.313 0.25-0.313s0.25 0.125 0.25 0.313zM1.063-3.063h-0.25l-0.25 0.75-0.25-0.75h-0.313l0.438 1.125c0 0.063-0.063 0.188-0.188 0.188 0 0-0.063 0-0.063 0v0.188c0 0 0.063 0 0.063 0 0.188 0 0.313-0.063 0.375-0.25zM1.25-2.438c0-0.25-0.125-0.313-0.375-0.375l-0.25-0.063c-0.188-0.063-0.25-0.063-0.25-0.188s0.125-0.188 0.25-0.188c0.188 0 0.313 0.063 0.313 0.25h0.25c0-0.313-0.188-0.5-0.563-0.5-0.313 0-0.563 0.188-0.563 0.438s0.125 0.375 0.438 0.438h0.188c0.188 0.063 0.313 0.125 0.313 0.25s-0.125 0.188-0.313 0.188c-0.188 0-0.313-0.125-0.313-0.25h-0.313c0 0.313 0.25 0.438 0.625 0.438s0.563-0.125 0.563-0.438zM1.625-2v-0.75c0-0.25-0.125-0.375-0.313-0.375-0.125 0-0.25 0.063-0.313 0.188-0.063-0.125-0.188-0.188-0.313-0.188s-0.188 0.063-0.313 0.188v-0.125h-0.25v1.063h0.25v-0.625c0-0.125 0.125-0.25 0.188-0.25 0.125 0 0.188 0.063 0.188 0.125v0.75h0.25v-0.625c0-0.125 0.125-0.25 0.188-0.25 0.125 0 0.188 0.063 0.188 0.125v0.75zM1.063-2.313v0c0-0.125-0.063-0.25-0.25-0.25l-0.313-0.125c-0.125 0-0.125-0.063-0.125-0.063 0-0.063 0.063-0.125 0.188-0.125s0.188 0.063 0.188 0.125h0.25c0-0.188-0.188-0.375-0.438-0.375-0.313 0-0.438 0.188-0.438 0.375 0 0.125 0 0.188 0.188 0.25l0.375 0.125c0.063 0 0.063 0.063 0.063 0.063 0 0.063-0.063 0.125-0.188 0.125s-0.188-0.063-0.25-0.125h-0.25c0 0.188 0.188 0.313 0.5 0.313s0.5-0.125 0.5-0.313zM1.063-2v-1.063h-0.25v0.625c0 0.125-0.125 0.188-0.25 0.188s-0.188-0.063-0.188-0.188v-0.625h-0.25v0.688c0 0.25 0.125 0.375 0.375 0.375 0.125 0 0.25-0.063 0.313-0.125v0.125zM0.438-2v-1.438h-0.313v1.438zM1.375-2v-0.063c-0.063 0-0.063-0.063-0.063-0.125 0-0.438-0.063-0.438-0.25-0.5 0.188-0.063 0.25-0.188 0.25-0.375 0-0.25-0.125-0.375-0.375-0.375h-0.75v1.438h0.25v-0.563h0.375c0.125 0 0.188 0.063 0.188 0.188v0.125c0 0.125 0 0.188 0.063 0.25zM1.063-3c0 0.125-0.063 0.188-0.25 0.188h-0.375v-0.375h0.375c0.188 0 0.25 0.063 0.25 0.188zM0.438-2v-1.063h-0.313v1.063zM0.438-3.188v-0.313h-0.313v0.313zM0.938-2v-0.25h-0.563l0.563-0.625v-0.188h-0.875v0.188h0.5l-0.5 0.625v0.25zM5.313 15.938c0 0-0.125 1.25-0.438 1.375 0 0-0.375 0.063-0.375 0.188s0.125 0.75 0.625 1.063c0 0 0.25 0 0.188-0.438-0.125-0.375 0.375-0.75 0.5-1 0.063-0.188 0.063-0.875 0.125-1.313 0.063-0.5 0.375-1.875 0.563-2.25 0.25-0.375 1.375-1.313 1.563-1.438 0.25-0.188-0.313 1.813-0.313 2.125 0.063 0.375 0.5 1.188 0.688 1.563 0.188 0.313 0.438 1.438 0.5 1.75s0.25 1.438 0.625 1.5c0.375 0.063 0.938-0.125 1.125-0.188 0.25-0.125-0.063-0.188-0.25-0.25-0.25-0.125-0.563 0.125-1-1.25-0.375-1.313-0.438-1.688-0.375-1.938s0.25-3.063 0.25-3.313c0-0.313 0.688-1.188 0.813-1.313s0.188-0.5 0.188-0.75c0.063-0.25 0.75-0.688 1.188-0.5 0.5 0.188 1.063 0.625 1.875 0.625 0.875 0 1.438 0.438 1.75 0.438s-0.375 1.063-0.5 1.25c-0.125 0.188-0.938 1.875-1 2.188-0.125 0.313-0.125 1.313-0.188 1.625-0.125 0.313-1.25 2.5-1.188 2.813 0 0.25 0.313 0.375 0.688 0.375s0.813 0.063 0.688-0.25c-0.125-0.375-0.5-0.313-0.188-1.125 0.313-0.75 0.688-1.938 0.813-2.188 0.188-0.313 0.625-1.313 0.813-1.688s1.375-2.5 1.75-2.813c0.375-0.25 0.688-0.813 1 0 0.25 0.75 0.625 2.688 0.75 3.063 0.125 0.438 0.313 1.125 0.5 1.438 0.25 0.313 0.875 2.75 0.938 3 0.125 0.188 0 0.5 0.313 0.5 0.25 0.063 1.375 0.188 1.563 0 0.188-0.25-0.625-0.688-0.813-0.75-0.25-0.063-1.125-2.25-1.125-2.625-0.063-0.313 0.188-0.563 0.063-0.938-0.063-0.375-0.375-1.063-0.375-1.25s-0.313-2.625-0.25-3.063c0.063-0.375 0.75-0.813 1.313-0.625 0.5 0.25 1.125 0.063 1.875-0.5s2.188-2 2.188-3.375c0 0 0.563-0.25 0.688-0.375 0.063-0.188 0.813-0.813 1-0.875 0.25 0 1-0.25 1-0.563 0.063-0.313-0.25-0.813-0.75-0.938s-1.313 0.125-1.875-0.125c-0.5-0.25-0.938-0.313-1.188-0.188-0.188 0.125-0.688-0.125-0.813 0.313-0.063 0.438-0.875 2.125-1.063 2.813-0.125 0.75-1 0.75-1.438 0.625-0.375-0.188-1.5-1.75-1.688-2.063-0.25-0.313-1.125-0.625-1.438-0.688-0.313 0-0.75-0.125-1.75-0.625-0.938-0.563-2.625-0.688-3.188 0.063s-1.938 1.188-2.25 1.313c-0.25 0.125-1 0.313-1.688 1.188 0 0-0.938 0.5-1.25 1.375-0.375 0.875 0.125 2.875 0 3.5-0.188 0.563-0.313 0.75-0.313 0.75s0.563-0.938 0.688-1.625c0.063-0.625 0.188-1.563 0.063-2.063-0.125-0.438 0.188 0.063 0.188 0.188 0 0.188 0.313 1.75-0.375 3-0.688 1.188-1.813 1.875-1.875 2.375-0.125 0.438 0.063 2.313-0.125 2.875z"></path>
</svg>
