<!-- Generated by IcoMoon.io -->
<svg version="1.1" xmlns="http://www.w3.org/2000/svg" width="32" height="32" viewBox="0 0 32 32">
<title>Cameratrap</title>
<path d="M16 10c1.438 0 2.625 0.5 3.625 1.5s1.5 2.25 1.5 3.625c0 1.438-0.5 2.625-1.5 3.625-1 1.063-2.188 1.563-3.625 1.563s-2.625-0.5-3.625-1.563c-1-1-1.5-2.188-1.5-3.625 0-1.375 0.5-2.625 1.5-3.625s2.188-1.5 3.625-1.5zM28.563 2.563c1.25 0 2.375 0.438 3.25 1.375 0.875 0.875 1.313 1.938 1.313 3.188v16c0 1.25-0.438 2.375-1.313 3.25s-2 1.313-3.25 1.313h-25.125c-1.25 0-2.375-0.438-3.25-1.313s-1.313-2-1.313-3.25v-16c0-1.25 0.438-2.313 1.313-3.188 0.875-0.938 2-1.375 3.25-1.375h4l0.875-2.438c0.25-0.563 0.688-1.063 1.25-1.5 0.625-0.438 1.25-0.625 1.875-0.625h9.125c0.625 0 1.25 0.188 1.875 0.625 0.563 0.438 1 0.938 1.25 1.5l0.875 2.438zM16 23.125c2.188 0 4.063-0.75 5.625-2.313s2.375-3.438 2.375-5.688c0-2.188-0.813-4.063-2.375-5.625s-3.438-2.375-5.625-2.375c-2.188 0-4.063 0.813-5.625 2.375s-2.375 3.438-2.375 5.625c0 2.25 0.813 4.125 2.375 5.688s3.438 2.313 5.625 2.313z"></path>
</svg>
