<!-- Generated by IcoMoon.io -->
<svg version="1.1" xmlns="http://www.w3.org/2000/svg" width="32" height="32" viewBox="0 0 32 32">
<title>Caprihorn</title>
<path d="M12.063 3.188c-0.063 0-0.25 0.063-0.313 0-0.063 0-0.125 0-0.188 0.063 0 0.063 0 0.063 0.125 0 0.063 0 0 0.063-0.188 0.125-0.188 0.188-0.313 0.188-0.938 0.188-0.5 0-0.75 0-1.25 0.188-0.313 0.125-0.625 0.188-0.625 0.125-0.063 0-0.063 0-0.063 0.063 0.063 0.063 0 0.063-0.188 0.063-0.188-0.063-0.188-0.063-0.125 0 0.125 0.063 0.125 0.063-0.125 0.188-0.125 0.063-0.25 0.125-0.313 0.125s0-0.063 0.063-0.125c0.063-0.125 0.063-0.125-0.063-0.063-0.063 0.063-0.125 0.188-0.063 0.188 0 0.063-0.375 0.375-0.5 0.375 0 0 0.063-0.063 0.188-0.188l0.188-0.188-0.25 0.188c-0.25 0.125-0.438 0.375-0.188 0.25 0.063-0.063-0.063 0.125-0.313 0.313-0.375 0.375-0.563 0.563-0.438 0.313 0-0.063 0-0.063-0.063 0s-0.125 0.125-0.125 0.188c0.063 0-0.063 0.25-0.25 0.5-0.625 0.813-1 1.375-1.063 1.813-0.125 0.313-0.125 0.375-0.188 0.25 0-0.063-0.063 0 0 0.188 0 0.188 0 0.688 0.063 1.125 0 0.438 0.063 1.063 0.125 1.438 0.063 0.313 0.125 0.625 0.125 0.688s0 0.063 0 0.063c0-0.063 0.063 0 0.125 0.188 0.063 0.125 0.125 0.25 0.063 0.25 0 0.063-0.063 0-0.125-0.125 0-0.125-0.063-0.125-0.063-0.063 0 0.125 0.125 0.25 0.25 0.25 0.063 0 0.125 0.063 0.125 0.188 0 0.063 0 0.188 0.063 0.25 0 0 0 0 0-0.125-0.063-0.125-0.063-0.125 0.063 0 0.063 0.063 0.125 0.188 0.063 0.25 0 0.125 0 0.125 0.063 0.063 0.063-0.125 0.063-0.125 0.125 0 0.063 0.063 0.125 0.188 0.125 0.188 0.063 0.188 0.188 0.5 0.313 0.5 0.063 0 0-0.125-0.125-0.25l-0.188-0.188 0.25 0.188c0.188 0.188 0.25 0.25 0.188 0.438-0.063 0.125 0 0.188 0.125 0.313s0.188 0.125 0.125 0.063c-0.063-0.063-0.063-0.125-0.063-0.125s0.313 0.188 0.75 0.438 1.938 0.875 2.375 0.875c0.125 0.063 0.375 0 0.5 0l0.188-0.063-0.313 0.438c-0.25 0.438-0.813 1.188-0.688 0.938 0.063-0.125 0-0.125-0.125 0.063-0.125 0.063-0.125 0.063-0.063 0.063 0.25-0.125 0.063 0.063-0.375 0.625-0.313 0.25-0.5 0.438-0.438 0.375 0.188-0.188 0.063-0.188-0.125 0-0.063 0.125-0.063 0.188-0.063 0.125 0.188-0.063 0.125 0.063 0 0.25-0.188 0.125-0.313 0.125-0.188 0 0.063-0.125 0-0.063-0.125 0.063-0.25 0.25-0.438 0.688-0.25 0.563 0-0.063 0.063-0.125 0.063-0.188 0-0.125 0.063-0.188 0.125-0.188 0.063-0.063 0.063-0.063 0 0.063-0.125 0.313-0.125 1.25 0 1.625 0.063 0.188 0.125 0.375 0.063 0.438s0 0.063 0.063 0c0.063-0.063 0.063 0 0.063 0.063-0.063 0.125-0.063 0.125 0 0.125 0.063-0.063 0.063-0.063 0.063 0.063-0.063 0.063-0.063 0.125 0 0.063s0.125 0 0.063 0.063c0 0.063 0 0.125 0 0.125 0.125-0.063 0.188 0.125 0.125 0.313 0 0.063 0 0.063 0.063 0 0-0.063 0.125 0 0.188 0.313 0.125 0.188 0.188 0.375 0.188 0.375-0.063 0.063 0 0.125 0.063 0.188 0.125 0.188 0.125 0.188 0 0-0.125-0.25 0-0.188 0.188 0.125s0.188 0.375 0.063 0.25c-0.063 0-0.063 0-0.063 0.063 0.063 0 0.125 0.063 0.188 0.063 0 0 0.063 0.063 0.063 0.125s0 0.125 0.063 0.063c0.063-0.063 0.625 0.813 0.563 0.938-0.063 0.063-0.063 0.063 0 0 0.063 0 0.188 0.188 0.375 0.438 0.313 0.5 0.313 0.625 0.125 0.438-0.125-0.063-0.125-0.063 0 0.063 0.063 0.063 0.125 0.125 0.125 0.063 0.063 0 0.125 0.063 0.188 0.188 0.188 0.25 0.188 0.313 0 0.188-0.063-0.063 0 0 0.063 0.125 0.125 0.125 0.188 0.188 0.25 0.188 0 0-0.063-0.063-0.125-0.125 0-0.125 0-0.063 0.125 0 0.188 0.188 0.563 0.813 0.813 1.438 0.063 0.063 0 0.063-0.063 0s-0.063 0 0 0.063c0.125 0.188 0.188 0.188 0.125 0.063-0.063-0.063 0-0.063 0-0.063 0.125 0.063 0.5 0.688 0.5 0.813 0 0-0.063 0-0.063 0-0.063-0.063-0.125-0.063-0.063 0s0.063 0.063 0.125 0.063 0.188 0.125 0.875 1.125c0.125 0.188 0.188 0.313 0.188 0.313-0.063 0-0.25-0.25-0.5-0.563s-0.438-0.625-0.5-0.625c-0.125-0.063 0.063 0.125 0.563 0.813 0.313 0.375 0.375 0.375 0.625 0.375 0.313 0 0.563-0.125 0.5-0.25-0.063 0 0.125-0.438 0.375-0.938 0.313-0.625 0.438-1 0.563-1.5 0.063-0.375 0.188-0.875 0.25-1.125 0.188-0.5 0.313-0.875 0.688-2.313 0.063-0.5 0.25-1.063 0.375-1.25 0.25-0.688 0.438-1.5 0.563-2.188 0.063-0.625 0.438-1.688 0.688-1.813 0.063 0 0.25-0.063 0.5-0.063 0.313-0.063 0.438-0.063 0.813 0.188 0.5 0.188 1.5 1 1.5 1.188 0 0 0.063 0.063 0.125 0.063 0.063 0.063 0.063 0.063 0 0-0.125-0.125-0.063-0.125 0.063-0.063 0.125 0 0.313 0.125 0.375 0.188 0.125 0.063 0.313 0.063 0.375 0.063 0.125 0 0.188 0.063 0.125 0.125-0.063 0.125 0.25-0.063 0.375-0.188 0.063-0.125 0.125-0.125 0.188-0.188 0.125 0 0.125 0 0.063 0-0.063-0.063-0.188 0-0.313 0.125-0.125 0.063-0.188 0.125-0.25 0.125-0.063-0.063 0.5-0.438 0.75-0.5 0.125 0 0.313-0.125 0.438-0.25s0.25-0.188 0.25-0.188c0.063 0.063 0.313-0.375 0.375-0.625 0-0.063 0.063-0.188 0.125-0.25s0.063-0.063 0 0.063c0 0 0 0.063 0.063 0.063 0 0 0.063-0.063 0.063-0.125 0-0.125-0.563-1.313-0.688-1.438-0.063-0.063-0.063-0.188-0.063-0.188 0.063-0.063 0.063-0.063 0-0.063-0.063 0.063-0.188-0.125-0.313-0.375-0.125-0.188-0.5-0.688-0.875-1-0.313-0.313-0.625-0.625-0.625-0.688 0 0 0.313 0.25 0.688 0.625s0.625 0.625 0.625 0.625c0 0-0.25-0.375-0.625-0.688-0.375-0.375-0.688-0.688-0.688-0.625 0 0-0.063-0.063-0.188-0.125-0.063-0.125-0.188-0.25-0.125-0.313 0-0.063-0.063-0.125-0.125-0.188l-0.188-0.188 0.125 0.188c0.125 0.125 0 0.063-0.188-0.125-0.25-0.188-0.313-0.375-0.313-0.438 0-0.125 0-0.25-0.063-0.375s-0.188-0.375-0.188-0.563c-0.063-0.438-0.5-0.938-0.813-0.938-0.063 0-0.125-0.063-0.125-0.063 0.063-0.063 0-0.125-0.125-0.125-0.063 0-0.125 0-0.063-0.063 0 0-0.063-0.063-0.125 0-0.063 0-0.125 0-0.063-0.063 0-0.063 0-0.188-0.063-0.188-0.063-0.063-0.063 0 0 0.063s0 0.063-0.063 0c-0.063-0.063-0.313-1.188-0.25-1.313 0-0.063 0-0.125 0-0.063-0.125 0.063-0.563-1.438-0.563-1.688 0.063-0.125 0.063-0.125 0 0s-0.125 0.063-0.25-0.375c-0.188-0.563-0.625-1.438-0.875-1.813-0.125-0.125-0.188-0.313-0.188-0.375 0.063-0.125-0.375-0.5-0.563-0.5-0.125-0.063-0.375-0.125-0.5-0.25-0.188-0.125-0.438-0.25-0.625-0.375s-0.313-0.188-0.25-0.25c0.063 0-0.375 0-1 0-0.563-0.063-1.125 0-1.25 0.063zM11.813 7.313c0.125 0.063 0.25 0.125 0.188 0.188 0 0 0 0 0.063 0s0.313 0.188 0.625 0.5c0.625 0.625 0.938 1.125 0.938 1.375 0 0.313-0.188 1.063-0.375 1.438-0.375 0.625-0.938 1-1.063 0.563 0-0.125 0-0.25 0-0.25 0-0.063-0.063-0.125-0.125-0.25-0.125-0.063-0.125-0.063-0.125 0 0.063 0.063 0 0.063-0.25 0-0.313-0.063-0.563-0.125-0.5-0.25 0 0 0.063 0 0.125 0.063s0.188 0.125 0.313 0.125c0.125 0 0.125-0.063-0.125-0.125-0.188-0.063-0.313-0.125-0.375-0.063-0.063 0-0.25-0.125-0.375-0.313-0.188-0.375-0.25-0.5-0.25-0.938 0-0.5 0.125-1 0.25-0.938 0.063 0 0.125 0 0.125-0.063 0.063-0.063 0-0.063 0 0-0.125 0.063-0.125-0.063 0-0.313 0.063-0.125 0.063-0.188 0.125-0.125s0.063 0 0-0.125c0-0.25 0.063-0.375 0.188-0.188 0 0.063 0 0.063 0.063 0 0-0.125 0-0.125 0-0.125-0.125 0.063-0.125 0 0-0.188 0.063-0.188 0.188-0.188 0.563 0zM8.125 9.813c0.063 0.063 0.125 0.375 0.25 0.75 0.188 0.75 0.375 1.063 0.938 1.688 0.5 0.5 0.313 0.5-0.375 0-0.438-0.313-0.563-0.375-0.75-0.875-0.125-0.375-0.25-0.75-0.25-1.125-0.063-0.5 0-0.688 0.188-0.438z"></path>
</svg>
