<!-- Generated by IcoMoon.io -->
<svg version="1.1" xmlns="http://www.w3.org/2000/svg" width="32" height="32" viewBox="0 0 32 32">
<title>Car-patrol</title>
<path d="M6.313 19.438c0-0.813-0.313-1.438-0.875-2s-1.25-0.875-2-0.875c-0.813 0-1.438 0.313-2 0.875s-0.875 1.188-0.875 2c0 0.75 0.313 1.438 0.875 2s1.188 0.875 2 0.875c0.75 0 1.438-0.313 2-0.875s0.875-1.25 0.875-2zM6.938 13.688h18.125l-1.563-6.375c-0.063-0.063-0.125-0.188-0.25-0.313-0.188-0.063-0.313-0.125-0.375-0.125h-13.75c-0.063 0-0.188 0.063-0.375 0.125-0.125 0.125-0.188 0.25-0.25 0.313zM31.438 19.438c0-0.813-0.313-1.438-0.875-2s-1.188-0.875-2-0.875c-0.75 0-1.438 0.313-2 0.875s-0.875 1.188-0.875 2c0 0.75 0.313 1.438 0.875 2s1.25 0.875 2 0.875c0.813 0 1.438-0.313 2-0.875s0.875-1.25 0.875-2zM34.313 17.688v6.875c0 0.188-0.063 0.313-0.188 0.438-0.125 0.063-0.25 0.125-0.438 0.125h-1.688v2.313c0 0.938-0.313 1.75-1 2.438-0.688 0.625-1.5 1-2.438 1s-1.75-0.375-2.438-1c-0.625-0.688-1-1.5-1-2.438v-2.313h-18.25v2.313c0 0.938-0.375 1.75-1 2.438-0.688 0.625-1.5 1-2.438 1s-1.75-0.375-2.438-1c-0.688-0.688-1-1.5-1-2.438v-2.313h-1.688c-0.188 0-0.313-0.063-0.438-0.125-0.125-0.125-0.188-0.25-0.188-0.438v-6.875c0-1.063 0.438-2 1.188-2.813 0.813-0.75 1.75-1.188 2.813-1.188h0.5l1.875-7.438c0.313-1.125 0.938-2.063 1.875-2.813 1-0.75 2.063-1.125 3.188-1.125h13.75c1.125 0 2.188 0.375 3.188 1.125 0.938 0.75 1.563 1.688 1.875 2.813l1.875 7.438h0.5c1.063 0 2 0.438 2.813 1.188 0.75 0.813 1.188 1.75 1.188 2.813z"></path>
</svg>
