<!-- Generated by IcoMoon.io -->
<svg version="1.1" xmlns="http://www.w3.org/2000/svg" width="32" height="32" viewBox="0 0 32 32">
<title>Caracal</title>
<path d="M6.875 1.563c0 0.063 0 0.063 0.063 0.063 0.25 0 2.875 1.688 2.875 1.813 0 0.063-0.25-0.063-0.625-0.25-1-0.563-1.813-0.75-0.938-0.25 1.188 0.688 3 2.25 3.125 2.688 0 0.125-0.063 0.313-0.375 0.875-0.188 0.375-0.313 0.75-0.313 0.75 0 0.063 0.25-0.188 0.563-0.5 0.688-0.75 0.75-0.75 1.25-0.188 0.813 0.875 1.875 2.625 2.25 3.813 0.25 0.688 0.313 1.438 0.25 1.75 0 0.125-0.25 0.375-0.625 0.625-0.25 0.25-0.625 0.625-0.688 0.75-0.125 0.188-0.125 0.313-0.125 0.313s0.313-0.125 0.625-0.313c0.688-0.375 1.75-0.688 2.188-0.688 0.25 0 0.313-0.125 0.125-0.188-0.25-0.063 1.125 0 1.563 0.063 0.563 0.063 1.125 0.25 1.313 0.375 0.125 0.063 0.063 0.063-0.438 0-0.313-0.063-0.813-0.125-1.375-0.125-1 0.063-1.25 0.188-0.688 0.313 2.25 0.5 4.25 1.625 5.313 2.938 0.438 0.625 0.563 0.813 0.625 1.625 0.063 1.625 0.438 2.438 1.625 3.875 0.188 0.313 0.375 0.563 0.375 0.625s-0.188 0.063-0.5 0.125c-0.563 0-0.813 0.188-0.875 0.563l-0.063 0.25 0.313-0.125c0.125-0.063 0.313-0.125 0.375-0.125 0.188 0-0.188 0.313-0.438 0.375s-0.313-0.063-0.313-0.375c0-0.188-0.063-0.25-0.438-0.625-0.313-0.25-0.563-0.5-0.563-0.5-0.063 0 0 0.438 0.188 0.875 0.063 0.188 0.313 0.5 0.5 0.75 0.188 0.188 0.438 0.5 0.5 0.563 0.25 0.375 0.625 0.375 0.938 0.063 0.125-0.125 0.25-0.188 0.25-0.188 0 0.125-0.438 0.438-0.688 0.5s-0.25 0.063-0.188 0.375c0.063 0.563-0.25 0.938-1 1.313-0.875 0.438-1.5 0.438-3-0.063-0.625-0.25-0.938-0.313-1.25-0.313-0.25 0-0.438 0.063-0.438 0.063 0 0.063 0.813 0.438 1.375 0.625 1.313 0.438 3 0.313 3.75-0.25 0.25-0.188 0.313-0.188 0.313 0 0 0.375 0.375 0.188 0.75-0.313 0.313-0.375 0.313-0.5-0.063-0.188-0.25 0.25-0.5 0.375-0.5 0.188 0 0 0.063-0.188 0.188-0.375s0.188-0.375 0.188-0.438c0-0.063 0.188-0.313 0.375-0.5 0.25-0.25 0.5-0.5 0.563-0.625 0.063-0.188 0.125-0.25 0.188-0.25 0 0.063 0 0.125-0.063 0.188-0.125 0.125 0 0.188 0.188 0.063 0.25-0.188 0.313-0.438 0.25-0.75-0.063-0.25-0.125-0.313-0.375-0.313-0.125 0-0.313 0-0.438-0.063-0.125 0-0.063-0.063 0.25-0.063 0.25 0 0.438 0 0.438 0 0-0.188-0.438-0.813-0.875-1.438-0.313-0.375-0.688-1-0.875-1.313-0.25-0.625-0.313-0.75-0.313-1.25l-0.063-0.625 0.313-0.125c0.188-0.063 0.313-0.125 0.313-0.188 0.063-0.063 0-0.063 0-0.063-0.063 0.063-0.188 0.063-0.25 0-0.188-0.063-0.188-0.125-0.188-0.375 0-0.625-0.25-1-1.75-2.438-0.75-0.75-1.438-1.5-1.5-1.625-0.188-0.313-0.125-0.875 0.5-4 0.313-1.375 0.5-2.563 0.5-2.688 0-0.063-0.063-0.25-0.188-0.313-0.125-0.188-0.188-0.25-0.125-0.563 0-0.313 0.438-1.625 0.625-2.125 0.063-0.125 0.063-0.125-0.063-0.063-0.063 0 0-0.125 0.188-0.438 0.188-0.25 0.375-0.5 0.313-0.5 0-0.063-0.125 0.125-0.313 0.313-0.625 0.625-1.188 2-1.375 3.375-0.125 0.563-0.188 0.875-0.438 1.375-0.625 1.313-2 3.563-2.5 4.125-0.313 0.313-0.688 0.438-1.438 0.5l-0.375 0.063-0.063-0.438c-0.188-1.75-2.188-5.5-3.375-6.375-0.063-0.063-0.25-0.313-0.375-0.563-0.125-0.313-0.313-0.5-0.375-0.563-0.063 0-0.063 0 0.063 0.188 0.188 0.438 0.188 0.563-0.063 0.188-0.375-0.5-1.438-1.625-2.125-2.125-0.313-0.25-0.875-0.625-1.188-0.75-0.563-0.313-1.25-0.5-1.25-0.375zM11.5 7.063c-0.813 1-1 1.625-0.938 3.188v1.125l0.313-0.25c0.125-0.125 0.313-0.25 0.313-0.188 0 0-0.125 0.25-0.25 0.5-0.25 0.438-0.313 0.625-0.188 0.563 0 0 0.063 0 0.125 0.063 0.125 0.125 0.125 0.875 0.063 2.25 0 0.688 0 0.875 0.125 1.125 0.188 0.563 0.125 0.688-0.375 0.938-0.75 0.375-0.688 0.375-0.688-0.25 0-0.313 0-0.688-0.063-0.875 0-0.125-0.063-0.25 0-0.188 0 0 0.188 0.063 0.313 0.125s0.313 0.125 0.313 0.125c0 0-0.063-0.188-0.125-0.313-0.188-0.438-0.25-1.25-0.188-2.125 0.063-1.188 0.125-2.313 0.125-2.313-0.125 0.125-0.563 1.625-0.563 1.875 0 0.188 0 0.25-0.063 0.188-0.125-0.25-0.063-0.75 0.188-1.625 0.125-0.5 0.25-1.063 0.25-1.313l0.063-0.438-0.125 0.313c-0.063 0.188-0.375 1.063-0.688 1.938-0.938 2.5-1.188 3.25-1.188 3.875 0 0.438 0 0.5-0.125 0.563-0.375 0.25-0.813 1.125-1.125 2.375l-0.188 0.688-0.688 0.688c-1.375 1.438-2.5 3.438-3 5.5-0.125 0.625-0.25 2.188-0.125 2.188 0 0 0.188-0.375 0.313-0.813 0.313-0.938 1-2.375 1.563-3.313 0.875-1.438 2.125-2.75 2.813-2.938 0.188-0.063 0.188-0.063 0.063 0.188-0.188 0.5-0.188 1.813 0 2.563 0.438 1.875 1.688 3.313 3.188 3.625 0.688 0.125 1.625 0.063 2.438-0.188 0.563-0.188 1.5-0.625 1.5-0.688 0 0-0.188 0-0.438 0.125-1 0.313-2.125 0.188-3-0.25-1.125-0.563-2.063-2.063-2.063-3.25s0.688-1.813 2.5-2.438c0.313-0.125 0.563-0.25 0.563-0.25 0-0.063-0.5-0.125-1.125-0.125-0.563 0-1.188 0.125-1.5 0.313-0.063 0.063-0.188 0.125-0.188 0.063-0.063-0.063 0.313-0.813 0.688-1.375 0.5-0.813 1.938-2.313 2.813-2.875 0.375-0.25 1.125-0.625 1.625-0.938 0.563-0.25 1-0.438 0.938-0.5s-1.188 0.125-2 0.375c-0.875 0.188-1.313 0.25-1.5 0.125-0.375-0.188-0.688-1.313-0.625-2 0-0.188 0.063-0.563 0.125-0.813 0.125-0.25 0.188-0.438 0.125-0.563s-0.063-0.188 0-0.188c0.125 0.125 0.375 0.813 0.438 1.313l0.063 0.438h0.313c0.438-0.063 1-0.313 1-0.375 0.063-0.063-0.188-0.188-0.5-0.313-0.563-0.313-0.688-0.438-0.5-0.625 0.125-0.188 0.125-0.188 0-0.188-0.063 0-0.188 0-0.313-0.063l-0.188-0.125 0.188-0.063c0.25-0.125 0.438-0.375 0.438-0.563 0-0.313-0.563-0.563-1.125-0.625-0.438-0.063-0.438-0.063-0.188-0.188 0.25-0.063 0.75-0.063 1.125 0 0.188 0.063 0.375 0.063 0.438 0.063 0.313-0.125-0.5-0.75-1.25-1-0.5-0.125-0.5-0.25-0.063-0.938 0.313-0.5 0.438-1 0.25-1.25-0.125-0.125-0.125-0.063-0.438 0.313zM17.563 16.5c-0.188 0.063-0.125 0.25 0.188 0.375 0.125 0.063 0.313 0.063 0.375 0.063 0.25 0 0.063 0.188-0.375 0.25-1.063 0.313-2.063 1-2.438 1.688l-0.188 0.313 0.375-0.313c0.813-0.625 1-0.625 2.063 0.063 0.75 0.5 1.25 0.75 1.375 0.625 0.063 0 0-0.063-0.063-0.125-0.25-0.125-0.75-0.625-0.875-0.813-0.063-0.125-0.125-0.313-0.125-0.5-0.063-0.25-0.063-0.25 0.063-0.125s0.188 0.125 0.188-0.063c0-0.188 0.125-0.375 0.25-0.375s0.375 0.25 0.313 0.5c-0.063 0.188 0 0.375 0.063 0.375s0.375-0.313 0.375-0.438c0-0.125 0-0.125 0.063-0.063 0 0.063 0.063 0.188 0.063 0.313s0 0.188-0.125 0.188c-0.125-0.063-0.125 0 0 0.188 0.063 0.125 0.063 0.125 0.188 0s0.125-0.125 0.125 0.063c0 0.125-0.063 0.25-0.188 0.375s-0.188 0.188-0.188 0.25c0 0 0.25 0 0.563 0 0.438 0.063 0.563 0.063 0.875 0.25 0.188 0.188 0.375 0.25 0.375 0.25 0.063-0.063-0.188-1-0.438-1.5-0.313-0.625-0.688-0.938-1.313-1.25-0.25-0.125-0.438-0.25-0.438-0.313 0 0 0.25 0.063 0.5 0.125 0.25 0 0.438 0.063 0.5 0.063 0 0-0.188-0.125-0.438-0.25-0.375-0.125-0.563-0.188-1.063-0.188-0.313 0-0.563 0-0.625 0zM15.625 23.875c-0.75 0.125-1.438 0.5-1.938 1.063-0.438 0.5-0.563 0.688-0.313 0.563 0.313-0.125 1.75-0.438 2.25-0.5 0.313 0 0.563-0.063 0.5-0.063 0-0.063-0.313-0.063-0.688-0.125h-0.625l0.563-0.313c0.313-0.188 0.75-0.375 1-0.438 0.188 0 0.5-0.125 0.625-0.125l0.188-0.063-0.188-0.063c-0.375-0.063-0.875-0.063-1.375 0.063zM18.375 24.75c-0.125 0.125-0.063 0.375 0.125 0.5 0.375 0.25 1.75 0.625 2.375 0.625 0.5 0 0.563-0.063 0.125-0.125s-1.063-0.313-1.75-0.75c-0.5-0.313-0.75-0.375-0.875-0.25zM15.5 26.563c-0.313 0.063-0.75 0.563-0.813 0.938-0.188 0.438-0.125 1.188 0 1.563l0.125 0.375 0.125-0.438c0.188-0.563 0.563-1 1.063-1.188 0.125-0.063 0.125-0.063-0.063 0.25s-0.25 1.063-0.188 1.625c0.063 0.813 0.438 1.625 0.438 1 0-0.375 0.188-1.188 0.375-1.563 0.313-0.75 0.875-1.188 1.438-1.188 0.125 0 0.5 0.063 0.813 0.188 1.5 0.688 2.563 0.813 3.188 0.563 0.438-0.25 0.875-0.75 1.125-1.313 0.375-0.625 0.313-0.813 0-0.313-0.563 0.625-1.25 1-2.125 1-0.688 0-1-0.125-2.313-0.75-0.625-0.313-1.375-0.688-1.625-0.75-0.5-0.063-1.25-0.125-1.563 0z"></path>
</svg>
