<!-- Generated by IcoMoon.io -->
<svg version="1.1" xmlns="http://www.w3.org/2000/svg" width="32" height="32" viewBox="0 0 32 32">
<title>Carcass</title>
<path d="M29.125 19.688c-0.125-0.063-0.25-0.125-0.375-0.125l-0.25-0.188-5.438-3.813 1.625-1.188c1.438 0.625 3.438-0.625 4.313-1.125 2.188-1.375 2.813-4.313 1.438-6.438-1.25-2-3.75-2.75-5.813-1.813h-0.063c-1.188-1.875-3.625-2.438-5.5-1.25-1.25 0.75-2.125 2.938-1.125 5.438l-1.938 1.438-2.125-1.563c0.875-2.5-0.063-4.688-1.313-5.375-1.938-1.125-4.375-0.5-5.5 1.375v0.063c-2.125-0.875-4.625-0.063-5.813 1.938-1.313 2.25-0.563 5.063 1.625 6.375 0.875 0.563 2.938 1.75 4.375 1.063l1.875 1.25-5.563 4.188-0.25 0.125c-0.125 0.063-0.188 0.125-0.313 0.25-2.188 1.313-2.813 4.25-1.438 6.438 1.375 2.125 4.25 2.813 6.438 1.438 1-0.688 1.75-1.688 2-2.875l6.188-4.625 6.063 4.25c0.313 1.188 1.063 2.188 2.125 2.813 2.188 1.313 5.063 0.563 6.375-1.625 1.313-2.25 0.563-5.125-1.625-6.438zM18.438 12.313l3.063-2.25-0.75-1.125c-1-1.563-0.5-2.813-0.25-2.938 0.625-0.438 1.438-0.25 1.813 0.375l1.438 2.25 1.688-1.063c0.938-0.563 2.188-0.313 2.75 0.625 0.625 0.938 0.313 2.188-0.625 2.75-1 0.688-1.5 0.875-1.813 0.938l-0.563-0.938-3.688 2.625-1.063 0.813-2.5-1.688zM12.375 20.188l-4.813 3.563-0.063 0.625c-0.063 0.625-0.438 1.188-0.938 1.563-0.938 0.563-2.188 0.313-2.75-0.625-0.625-0.938-0.313-2.188 0.625-2.75 0.125-0.125 0.25-0.188 0.375-0.188l1.313-0.938 5.375-4 0.563-0.375 2.438 1.625zM28.438 24.75c-0.563 0.938-1.75 1.25-2.75 0.688-0.5-0.313-0.875-0.813-0.938-1.5l-0.063-0.625-6.25-4.25-2.313-1.563-2.438-1.688-3-2-4.063-2.813-0.563 1c-0.25 0-0.75-0.25-1.813-0.813-0.938-0.563-1.25-1.813-0.688-2.75s1.75-1.313 2.75-0.75l1.688 1.063 1.375-2.313c0.375-0.625 1.188-0.875 1.813-0.5 0.188 0.188 0.75 1.375-0.188 3l-0.688 1.125 3.313 2.313 4.875 3.375 2.313 1.625 5.188 3.625 1.375 0.813c0.125 0.063 0.25 0.125 0.375 0.188 0.938 0.563 1.25 1.813 0.688 2.75z"></path>
</svg>
