<!-- Generated by IcoMoon.io -->
<svg version="1.1" xmlns="http://www.w3.org/2000/svg" width="32" height="32" viewBox="0 0 32 32">
<title>Caught</title>
<path d="M0.563-2.188h-0.125c0 0.063-0.063 0.063-0.125 0.063-0.125 0-0.125-0.063-0.125-0.188s0.063-0.188 0.125-0.188c0.063 0 0.125 0 0.125 0.125h0.125c0-0.188-0.125-0.25-0.25-0.25-0.188 0-0.25 0.125-0.25 0.313s0.063 0.313 0.25 0.313c0.125 0 0.25-0.063 0.25-0.188zM0.313-2.313v-0.125c0 0 0 0 0 0-0.063 0-0.125 0-0.125 0.063v-0.063h-0.125v0.438h0.125v-0.25c0-0.063 0-0.063 0.063-0.063s0.063 0 0.063 0zM0.438-2.188c0-0.188-0.063-0.25-0.188-0.25s-0.25 0.063-0.25 0.25c0 0.125 0.125 0.188 0.25 0.188 0.063 0 0.125-0.063 0.188-0.125h-0.125c0 0.063-0.063 0.063-0.063 0.063-0.063 0-0.125-0.063-0.125-0.125h0.313zM0.313-2.25h-0.188c0-0.063 0.063-0.125 0.125-0.125 0 0 0.063 0.063 0.063 0.125zM0.438-2v0c0-0.063 0-0.063 0-0.063v-0.25c0-0.125-0.063-0.125-0.188-0.125s-0.188 0.063-0.188 0.125h0.063c0-0.063 0.063-0.063 0.125-0.063 0 0 0.063 0 0.063 0.063s-0.063 0.063-0.125 0.063h-0.063c-0.063 0-0.125 0.063-0.125 0.125s0.063 0.125 0.188 0.125c0 0 0.063 0 0.125-0.063 0 0 0 0.063 0 0.063zM0.313-2.188c0 0.063-0.063 0.125-0.125 0.125 0 0-0.063-0.063-0.063-0.063 0-0.063 0.063-0.063 0.063-0.063h0.063c0 0 0 0 0.063 0zM0.25-2v-0.063c0 0 0 0 0 0-0.063 0-0.063 0-0.063-0.063v-0.25h0.063v-0.063h-0.063v-0.125h-0.125v0.125h-0.063v0.063h0.063v0.25c0 0.125 0.063 0.125 0.125 0.125 0 0 0.063 0 0.063 0zM0.438-2v-0.625h-0.125v0.25c0-0.063-0.063-0.063-0.125-0.063s-0.188 0.063-0.188 0.188c0 0.125 0.063 0.25 0.188 0.25 0.063 0 0.125 0 0.125-0.063v0.063zM0.313-2.25c0 0.125 0 0.188-0.063 0.188s-0.125-0.063-0.125-0.188c0-0.063 0.063-0.125 0.125-0.125s0.063 0.063 0.063 0.125zM0.5-2.188c0-0.188-0.125-0.25-0.188-0.25s-0.125 0-0.125 0.063v-0.25h-0.125v0.625h0.125v-0.063c0 0.063 0.063 0.063 0.125 0.063s0.188-0.063 0.188-0.188zM0.375-2.25c0 0.125-0.063 0.188-0.125 0.188s-0.063-0.063-0.063-0.188c0-0.063 0-0.125 0.063-0.125s0.125 0.063 0.125 0.125zM0.438-2.438h-0.125l-0.063 0.313-0.125-0.313h-0.125l0.188 0.438c0 0.063-0.063 0.125-0.063 0.125-0.063 0-0.063 0-0.063-0.063v0.125c0 0 0.063 0 0.063 0 0.063 0 0.125 0 0.125-0.125zM0.563-2v-0.313h-0.188v0.063h0.125c0 0.125-0.125 0.125-0.188 0.125s-0.125-0.063-0.125-0.188c0-0.125 0.063-0.188 0.125-0.188s0.125 0 0.188 0.063h0.063c0-0.125-0.063-0.188-0.25-0.188s-0.25 0.125-0.25 0.313c0 0.188 0.063 0.313 0.25 0.313 0.063 0 0.125 0 0.188-0.063v0.063zM0.438-2v-0.313c0-0.063-0.063-0.125-0.125-0.125s-0.125 0-0.125 0.063v-0.063h-0.125v0.438h0.125v-0.25c0-0.063 0-0.125 0.063-0.125s0.063 0.063 0.063 0.125v0.25zM0.563-2l-0.25-0.313 0.25-0.313h-0.125l-0.25 0.313v-0.313h-0.125v0.625h0.125v-0.188l0.063-0.063 0.188 0.25zM0.438-2v-0.313c0-0.063-0.063-0.125-0.125-0.125s-0.125 0-0.125 0.063v-0.25h-0.125v0.625h0.125v-0.25c0-0.063 0-0.125 0.063-0.125s0.063 0.063 0.063 0.125v0.25zM0.5-2.25c0-0.125-0.125-0.188-0.25-0.188s-0.25 0.063-0.25 0.188c0 0.188 0.125 0.25 0.25 0.25s0.25-0.063 0.25-0.25zM0.375-2.25c0 0.125-0.063 0.188-0.125 0.188s-0.125-0.063-0.125-0.188c0-0.063 0.063-0.125 0.125-0.125s0.125 0.063 0.125 0.125zM0.5-2v-0.125h-0.313v-0.5h-0.125v0.625zM0.25-2.375v-0.063h-0.063v-0.063c0 0 0 0 0.063 0 0 0 0 0 0 0v-0.125c0 0-0.063 0-0.063 0-0.063 0-0.125 0.063-0.125 0.125v0.063h-0.063v0.063h0.063v0.375h0.125v-0.375zM0.688-2v-0.313c0-0.063-0.063-0.125-0.125-0.125s-0.125 0-0.125 0.063c-0.063-0.063-0.125-0.063-0.125-0.063-0.063 0-0.125 0-0.125 0.063v-0.063h-0.125v0.438h0.125v-0.25c0-0.063 0-0.125 0.063-0.125s0.063 0.063 0.063 0.063v0.313h0.125v-0.25c0-0.063 0-0.125 0.063-0.125s0.063 0.063 0.063 0.063v0.313zM0.563-2v-0.625h-0.125v0.438l-0.25-0.438h-0.125v0.625h0.125v-0.438l0.25 0.438zM0.438-2v-0.438h-0.125v0.25c0 0.063 0 0.125-0.063 0.125s-0.063-0.063-0.063-0.125v-0.25h-0.125v0.313c0 0.063 0.063 0.125 0.125 0.125s0.125 0 0.125-0.063v0.063zM0.5-2.438c0-0.125-0.063-0.188-0.188-0.188h-0.25v0.625h0.125v-0.188h0.125c0.125 0 0.188-0.125 0.188-0.25zM0.375-2.438c0 0.063 0 0.125-0.063 0.125h-0.125v-0.188h0.125c0.063 0 0.063 0 0.063 0.063zM0.188-1.938v-0.5h-0.125v0.5c0 0 0 0-0.063 0 0 0 0 0 0 0v0.125c0 0 0.063 0 0.063 0 0.063 0 0.125-0.063 0.125-0.125zM0.188-2.5v-0.125h-0.125v0.125zM0.438-2.125h-0.125c0 0 0 0.063-0.063 0.063s-0.125-0.063-0.125-0.188c0-0.063 0.063-0.125 0.125-0.125s0.063 0.063 0.063 0.125h0.125c0-0.125-0.063-0.188-0.188-0.188s-0.25 0.063-0.25 0.188c0 0.188 0.125 0.25 0.25 0.25s0.188-0.063 0.188-0.125zM31.188 20.938v-20.938h-30.375v20.938h-0.813v1.438h32v-1.438zM30 6.75v2.688l-1.063 1-2.375-2.375 2.375-2.313zM29.188 5.5l0.813-0.813v1.625zM7.875 10.75c-0.188-0.125-0.125-0.375 0-0.5 0.188-0.125 0.375-0.125 0.563 0.063 0.125 0.125 0.063 0.375-0.063 0.5s-0.375 0.125-0.5-0.063zM6.375 7.625c0.125 0.125 0.563 0.5 0.875 0.938-0.25 0-0.563 0.063-0.75 0.188l-0.625-0.688zM25.75 13.625c0 0 0 0 0 0.063l-0.625 0.625-0.313-2.375 1 1c0 0.25 0 0.438-0.063 0.688zM22.563 14.438l-1.188-1.188 0.563-0.5zM11.813 12.938l0.063 1.188-0.813-0.875 0.5-0.5c0.125 0.063 0.188 0.125 0.25 0.188zM14.25 14.438c0.063 0.063 0.188 0.063 0.25 0.125l-0.313 0.313zM10.813 13.063l-1-1c0.063-0.125 0.125-0.188 0.188-0.188 0.188-0.063 0.688 0.25 1.313 0.688zM10.813 13.5l1.063 1.063 0.125 2.5-1.188 1.188-2.375-2.375zM14.063 15.438l0.938-1c0.375-0.063 0.813-0.313 1.313-0.625l2.063 2.063-2.375 2.375-2.063-2.063zM16.625 13.688c0.375-0.25 0.75-0.438 1.188-0.688-0.063-0.5-0.188-1.563-0.813-2.813 0.375 0.438 1.125 1.438 1.313 2.563 0.25-0.125 0.5-0.25 0.813-0.375-0.125-0.563-0.313-1.313-0.75-2.125 0.313 0.313 0.875 1.063 1.188 1.938 0.063 0 0.188 0 0.25-0.063l0.563 0.563c0-0.125 0-0.313-0.063-0.5l-0.188-0.188c0.063 0 0.125 0 0.125 0-0.125-0.5-0.313-1.125-0.625-1.75 0.25 0.313 0.75 0.938 1.063 1.625 0.313-0.063 0.563-0.063 0.875-0.063l0.25 0.625-0.625 0.625-0.188-0.188c0 0.063 0 0.125 0 0.25l-0.125 0.063 0.063 0.063-2.375 2.375zM21.188 13.5l1.625 1.625 0.375 1.063-2 2.063-2.375-2.375zM25.188 14.688l0.688-0.688c0.063 0.125 0.25 0.25 0.375 0.25 0.063 0 0.063 0 0.063 0 0.25 0 0.438-0.125 0.5-0.313l1.938 1.938-2.375 2.375-0.813-0.813zM25.813 8.875l0.563-0.563 2.375 2.375-1.75 1.75c-0.063-1.5-0.438-2.688-1.188-3.563zM25.813 12.5l-1.125-1.125-0.125-1.25 0.438-0.438c0.563 0.688 0.813 1.625 0.813 2.813zM24.5 9.75l-0.125-0.625c0.063 0 0.063 0.063 0.125 0.063 0.063 0.063 0.188 0.188 0.313 0.25zM6.75 13.625c0 0 1.125 0.5 1.938 0.188 0.563-0.188 0.813-0.938 1-1.438l0.938 0.875-2.375 2.375-2.375-2.375 0.813-0.813c-0.188 0.5 0.063 1.188 0.063 1.188zM8.25 16.063l2.375 2.375-1.75 1.75h-1.313l-1.688-1.75zM10.813 18.688l1.5 1.5h-3zM11.063 18.438l0.938-0.938 0.063 1.063c0 0.438 0.313 0.688 0.688 0.75 0 0 0 0 0 0 0.375 0 0.688-0.25 0.75-0.625l0.375-2.125 1.875 1.875-1.688 1.75h-1.313zM16 18.688l1.5 1.5h-3zM16.25 18.438l2.313-2.375 2.375 2.375-1.688 1.75h-1.313zM21.188 18.688l1.5 1.5h-3zM21.375 18.438l1.938-1.938 0.75 1.938c0.125 0.313 0.438 0.563 0.75 0.563 0.063 0 0.125-0.063 0.25-0.063 0.375-0.063 0.625-0.5 0.563-0.875v-0.125l0.5 0.5-1.688 1.75h-1.313zM26.375 18.688l1.5 1.5h-3zM26.563 18.438l2.375-2.375 1.063 1.063v2.688l-0.375 0.375h-1.313zM29.188 15.875l0.813-0.813v1.625zM28.938 15.625l-2-2c0-0.25 0-0.5 0.063-0.75l1.938-2 1.063 1.063v2.688zM29.188 10.688l0.813-0.813v1.625zM26.375 7.875l-2.375-2.375 2.375-2.375 2.375 2.375zM26.125 8.063l-0.5 0.563c-0.188-0.125-0.313-0.25-0.5-0.375-0.813-0.625-1.813-0.875-2.938-0.938l1.563-1.563zM21.813 7.25c-0.438 0-0.813 0-1.188 0.063l-1.813-1.813 2.375-2.375 2.375 2.375zM20.188 7.313c-1.375 0.125-2.813 0.5-3.875 0.875l-0.063-0.125 2.313-2.313zM16 7.875l-2.375-2.375 2.375-2.375 2.375 2.375zM15.75 8.063l-0.375 0.375c-0.063 0.063-0.188 0.125-0.313 0.125-0.25 0-0.5-0.063-0.813-0.188-0.188 0.25-0.5 0.688-0.938 1.125 0.063-0.813 0.063-1.313 0.063-1.313-0.625 0.125-1.375 0.125-2.125 0.125l-0.188-0.25 2.375-2.313zM10.813 7.875l-2.375-2.375 2.375-2.375 2.375 2.375zM10.625 8.063l-0.25 0.25c-0.813-0.063-1.438-0.125-1.813-0.188-0.688-0.875-1.625-0.75-2.063-0.688l1.75-1.688zM5.625 7.875l-2.375-2.375 2.375-2.375 2.375 2.375zM6.188 8.875c-0.375 0.25-0.563 0.563-0.563 0.563s0.688 0.063 1.438 0.313l0.063 0.063c-0.063 0.125-0.125 0.313-0.063 0.5 0 0.375 0.188 0.75 0.188 1.125l-1.625 1.625-2.375-2.375 2.375-2.375zM8 15.875l-2.375 2.375-2.375-2.375 2.375-2.375zM7.125 20.188h-3l1.5-1.5zM29.625 1.188l0.375 0.375v2.688l-1.063 1.063-2.375-2.375 1.75-1.75zM27.875 1.188l-1.5 1.5-1.5-1.5zM24.438 1.188l1.688 1.75-2.375 2.375-2.375-2.375 1.75-1.75zM22.688 1.188l-1.5 1.5-1.5-1.5zM19.25 1.188l1.688 1.75-2.375 2.375-2.313-2.375 1.688-1.75zM17.5 1.188l-1.5 1.5-1.5-1.5zM14.063 1.188l1.688 1.75-2.313 2.375-2.375-2.375 1.688-1.75zM12.313 1.188l-1.5 1.5-1.5-1.5zM8.875 1.188l1.75 1.75-2.375 2.375-2.375-2.375 1.688-1.75zM7.125 1.188l-1.5 1.5-1.5-1.5zM2 1.563l0.375-0.375h1.313l1.75 1.75-2.375 2.375-1.063-1.063zM2 4.688l0.813 0.813-0.813 0.813zM2 6.75l1.063-1 2.375 2.313-2.375 2.375-1.063-1zM2 9.875l0.813 0.813-0.813 0.813zM2 11.938l1.063-1.063 2.375 2.375-2.375 2.375-1.063-1zM2 15.063l0.813 0.813-0.813 0.813zM2 17.125l1.063-1.063 2.375 2.375-1.75 1.75h-1.313l-0.375-0.375z"></path>
</svg>
