<!-- Generated by IcoMoon.io -->
<svg version="1.1" xmlns="http://www.w3.org/2000/svg" width="26" height="32" viewBox="0 0 26 32">
<title>Chameleon</title>
<path d="M6 7c0 0.331-0.269 0.6-0.6 0.6s-0.6-0.269-0.6-0.6c0-0.331 0.269-0.6 0.6-0.6s0.6 0.269 0.6 0.6zM19.2 10.4h0.8v0.8h-0.8v-0.8zM20.4 11.6h0.8v0.8h-0.8v-0.8zM22.8 9.2c0-2.34-3.508-5.2-7.6-5.2-2.896 0-5.532 0.672-6.8 1.6v-1.6c0-0.221-0.179-0.4-0.4-0.4v0h-1.208c-0.69 0.030-1.277 0.444-1.555 1.033l-0.005 0.011-0.248 0.576c-1.006 0.104-1.784 0.948-1.784 1.973 0 0.46 0.157 0.883 0.419 1.22l-0.003-0.004-0.784 1.836c-0.020 0.046-0.032 0.1-0.032 0.156 0 0.221 0.179 0.4 0.4 0.4h0.552l0.292 0.58c0.468 0.94 1.256 1.020 1.956 1.020h3.036l-0.672 0.668c-0.036 0.040-0.068 0.088-0.104 0.132h-7.46v2.4h4.216c-0.382 0.422-0.615 0.984-0.616 1.6v2.4h0.8c1.024-0.002 1.898-0.644 2.242-1.547l0.006-0.017c0.438 0.471 1.061 0.764 1.752 0.764 0 0 0 0 0 0h0.8v-1.6c-0.001-0.616-0.234-1.178-0.618-1.602l0.002 0.002h6.032c-0.382 0.422-0.615 0.983-0.616 1.6v0.8c0.003 1.987 1.613 3.597 3.6 3.6h0c0.001 0 0.002 0 0.002 0 2.429 0 4.398-1.969 4.398-4.398 0-0.001 0-0.002 0-0.003v0-1.6h2v-2.4h-2zM5.2 6c0.663 0 1.2 0.537 1.2 1.2s-0.537 1.2-1.2 1.2c-0.663 0-1.2-0.537-1.2-1.2v0c0.002-0.662 0.538-1.198 1.2-1.2h0zM7.6 11.6h-1.6c-0.74 0-1.016-0.128-1.244-0.58l-0.108-0.22h2.952zM7.6 10h-3.792l0.448-1.048c0.275 0.153 0.603 0.243 0.952 0.243 1.099 0 1.991-0.891 1.991-1.991 0-0.882-0.574-1.631-1.369-1.892l-0.014-0.004 0.152-0.348c0.155-0.314 0.461-0.532 0.821-0.56l0.003-0h0.808zM20.8 7.604c0.001-0.18 0.037-0.352 0.099-0.51l-0.003 0.010c0.353 0.346 0.647 0.751 0.868 1.198l0.012 0.026c-0.377 0.219-0.821 0.365-1.296 0.407l-0.012 0.001c0.198-0.323 0.32-0.712 0.332-1.129l0-0.003zM18.512 5.504c0.048 0.086 0.076 0.189 0.076 0.299 0 0.050-0.006 0.099-0.017 0.145l0.001-0.004c-0.131 0.376-0.36 0.689-0.656 0.921l-0.004 0.003c-0.078-0.395-0.201-0.746-0.367-1.071l0.011 0.023c-0.101-0.203-0.16-0.441-0.16-0.694 0-0.006 0-0.013 0-0.019v0.001c0.446 0.127 0.816 0.262 1.175 0.419l-0.059-0.023zM14.744 4.808c0.040 0.082 0.082 0.151 0.127 0.217l-0.004-0.005c0.075 0.105 0.12 0.236 0.12 0.378 0 0.052-0.006 0.102-0.017 0.15l0.001-0.004c-0.131 0.376-0.36 0.689-0.656 0.921l-0.004 0.003c-0.078-0.395-0.201-0.746-0.367-1.071l0.011 0.023c-0.084-0.164-0.139-0.356-0.156-0.559l-0-0.005c0.304-0.024 0.62-0.040 0.944-0.048zM11.020 5.32c0.064 0.191 0.148 0.356 0.252 0.507l-0.004-0.007c0.075 0.105 0.12 0.236 0.12 0.378 0 0.052-0.006 0.102-0.017 0.15l0.001-0.004c-0.131 0.376-0.36 0.689-0.656 0.921l-0.004 0.003c-0.078-0.395-0.201-0.746-0.367-1.071l0.011 0.023c-0.096-0.186-0.156-0.405-0.164-0.637l-0-0.003c0.248-0.092 0.528-0.18 0.828-0.26zM6.8 17.2c0 0.884-0.716 1.6-1.6 1.6v0-1.6c0-0.884 0.716-1.6 1.6-1.6v0zM1.6 14.8v-0.8h6.4c-0 0.005-0 0.011-0 0.017 0 0.299 0.107 0.572 0.286 0.784l-0.002-0.002zM9.2 18c-0.884 0-1.6-0.716-1.6-1.6v0-0.8c0.884 0 1.6 0.716 1.6 1.6v0zM9.016 14.368c-0.129-0.061-0.217-0.19-0.217-0.339 0-0.010 0-0.020 0.001-0.030l-0 0.001c0-0.001 0-0.002 0-0.003 0-0.138 0.050-0.264 0.133-0.362l-0.001 0.001 1.352-1.352c0.071-0.073 0.115-0.174 0.116-0.284v-2h0.8v2.636l-1.484 1.48c-0.124 0.166-0.319 0.272-0.539 0.272-0.057 0-0.113-0.007-0.165-0.021l0.005 0.001zM10.144 14.8c0.048-0.040 0.096-0.072 0.14-0.116l0.68-0.684h1.436c-0 0.005-0 0.011-0 0.017 0 0.299 0.107 0.572 0.286 0.784l-0.002-0.002zM12.66 13.2h-0.896l0.12-0.116c0.071-0.073 0.115-0.174 0.116-0.284v-0.4h1.436l-0.672 0.668c-0.036 0.040-0.068 0.088-0.104 0.132zM13.416 14.368c-0.129-0.061-0.217-0.19-0.217-0.339 0-0.010 0-0.020 0.001-0.030l-0 0.001c0-0.001 0-0.002 0-0.003 0-0.138 0.050-0.264 0.133-0.362l-0.001 0.001 1.352-1.352c0.071-0.073 0.115-0.174 0.116-0.284v-1.6c-0.003-0.022-0.005-0.047-0.005-0.072 0-0.16 0.070-0.304 0.18-0.404l0.001-0c0.044-0.028 0.098-0.044 0.156-0.044 0.001 0 0.003 0 0.004 0h-0c0.104 0.005 0.202 0.032 0.288 0.078l-0.004-0.002 1.38 0.692v0.952h-0.8c-0.221 0-0.4 0.179-0.4 0.4v0 0.636l-1.484 1.48c-0.124 0.166-0.319 0.272-0.539 0.272-0.057 0-0.113-0.007-0.165-0.021l0.005 0.001zM17.6 12.4c0.648 0.001 1.224 0.313 1.584 0.795l0.004 0.005h-3.024l0.12-0.116c0.071-0.073 0.115-0.174 0.116-0.284v-0.4zM14.544 14.8c0.048-0.040 0.096-0.072 0.14-0.116l0.68-0.684h4.196c0.024 0.12 0.039 0.258 0.040 0.399v0.401zM19.188 15.6h0.412v2.4c0 0.663-0.537 1.2-1.2 1.2s-1.2-0.537-1.2-1.2v0-0.8h2c0.221 0 0.4-0.179 0.4-0.4v0c-0.002-0.454-0.157-0.872-0.415-1.204l0.003 0.005zM22 17.2c-0.003 1.987-1.613 3.597-3.6 3.6h-0c-1.546-0.002-2.798-1.254-2.8-2.8v-0.8c0-0.884 0.716-1.6 1.6-1.6v0h0.4c0.001 0 0.002 0 0.003 0 0.33 0 0.628 0.133 0.845 0.348l-0-0c0.123 0.125 0.219 0.276 0.281 0.443l0.003 0.009h-1.532c-0.441 0.001-0.799 0.359-0.8 0.8v0.8c0 1.105 0.895 2 2 2s2-0.895 2-2v0-3.6c-0.002-1.546-1.254-2.798-2.8-2.8h-0v-1.2c0-0.001 0-0.001 0-0.002 0-0.154-0.089-0.288-0.218-0.353l-0.002-0.001-1.6-0.8c-0.177-0.102-0.389-0.163-0.616-0.163-0.224 0-0.433 0.059-0.615 0.162l0.006-0.003c-0.34 0.237-0.559 0.625-0.559 1.066 0 0.033 0.001 0.066 0.004 0.099l-0-0.004v1.2h-2v-2c0-0.221-0.179-0.4-0.4-0.4v0h-1.6c-0.221 0-0.4 0.179-0.4 0.4v0 2h-1.2v-4.8c0-0.228 0.356-0.564 1.024-0.896 0.040 0.253 0.117 0.48 0.226 0.688l-0.006-0.012c0.204 0.415 0.333 0.9 0.356 1.412l0 0.008c0 0 0 0.001 0 0.001 0 0.148 0.081 0.278 0.202 0.346l0.002 0.001c0.055 0.033 0.121 0.052 0.192 0.052 0.002 0 0.003 0 0.005-0h-0c0.075-0 0.146-0.021 0.206-0.057l-0.002 0.001c0.136-0.080 1.324-0.82 1.548-1.82 0.023-0.096 0.036-0.206 0.036-0.32 0-0.308-0.096-0.594-0.259-0.829l0.003 0.005c-0.045-0.070-0.089-0.151-0.127-0.236l-0.005-0.012c0.376-0.080 0.776-0.148 1.204-0.2 0.027 0.314 0.113 0.602 0.246 0.861l-0.006-0.013c0.204 0.415 0.333 0.9 0.356 1.412l0 0.008c0 0 0 0.001 0 0.001 0 0.148 0.081 0.278 0.202 0.346l0.002 0.001c0.055 0.033 0.121 0.052 0.192 0.052 0.002 0 0.003 0 0.005-0h-0c0.075-0 0.146-0.021 0.206-0.057l-0.002 0.001c0.136-0.080 1.324-0.82 1.548-1.82 0.022-0.096 0.035-0.205 0.035-0.318 0-0.212-0.045-0.413-0.127-0.595l0.004 0.009c0.351 0.021 0.673 0.058 0.989 0.111l-0.053-0.007c-0.006 0.063-0.010 0.137-0.010 0.212 0 0.381 0.094 0.741 0.26 1.057l-0.006-0.012c0.204 0.415 0.333 0.9 0.356 1.412l0 0.008c0 0 0 0.001 0 0.001 0 0.148 0.081 0.278 0.202 0.346l0.002 0.001c0.055 0.033 0.121 0.052 0.192 0.052 0.002 0 0.003 0 0.005-0h-0c0.075-0 0.146-0.021 0.206-0.057l-0.002 0.001c0.136-0.080 1.324-0.82 1.548-1.82 0.010-0.052 0.017-0.114 0.020-0.177l0-0.003c0.344 0.201 0.638 0.401 0.917 0.621l-0.017-0.013c-0.168 0.301-0.269 0.661-0.272 1.043v0.001c-0.062 0.519-0.305 0.972-0.663 1.303l-0.001 0.001c-0.083 0.074-0.135 0.181-0.135 0.3 0 0.221 0.179 0.4 0.399 0.4h0c0.333-0.003 0.657-0.027 0.975-0.072l-0.039 0.005c0.539-0.060 1.032-0.203 1.484-0.416l-0.028 0.012c0 0.024 0.008 0.048 0.008 0.072zM24 14v0.8h-1.2v-0.8z"></path>
</svg>
