<!-- Generated by IcoMoon.io -->
<svg version="1.1" xmlns="http://www.w3.org/2000/svg" width="32" height="32" viewBox="0 0 32 32">
<title>Charcoal</title>
<path d="M8.375 0h15.25v3.75h-15.25zM24.125 5.625h-16.25l-2.875 4.063v18.25c0 2.25 1.813 4.063 4.063 4.063 0.938 0 1.75 0 2.25 0h9.375c0.563 0 1.313 0 2.313 0 1.063-0.063 2.063-0.5 2.813-1.25s1.188-1.75 1.188-2.813v-18.25zM16 28.25c-3.438 0-6.25-2.813-6.25-6.25 0-4.125 3.938-7.875 4.063-8l0.313-0.25h1.688l0.5 4.188c0 0.188 0.188 0.375 0.375 0.375s0.313-0.125 0.375-0.25l0.875-1.813h1.5l0.313 0.313c0.063 0.125 2.5 2.813 2.5 5.438 0 3.438-2.813 6.25-6.25 6.25zM18.938 18.563l-0.188 0.313c-0.438 0.813-1.188 1.313-2.063 1.313-1.188 0-2.125-0.875-2.25-2.063l-0.188-1.813c-0.313 0.313-0.625 0.75-0.938 1.188-0.75 1.125-1.688 2.813-1.688 4.5 0 2.125 1.5 3.875 3.438 4.313v-3.625h1.875v3.625c1.938-0.438 3.438-2.188 3.438-4.313 0-1.188-0.813-2.563-1.438-3.438z"></path>
</svg>
