<svg xmlns="http://www.w3.org/2000/svg" xmlns:xlink="http://www.w3.org/1999/xlink" version="1.2" baseProfile="tiny" x="0px" y="0px" viewBox="0 0 100 125" xml:space="preserve"><polygon points="86.692,21.269 83.231,17.808 52.077,18.5 12.615,33.731 63.846,34.423  "/><path d="M16.785,77.608L26.25,66.25l-6.818,11.689l21.599,2.7L38.75,61.25c0,0,3.896,14.83,4.838,19.708l9.874,1.234l10.385-4.846   l1.385-22.154L46.25,55l12.783-2.5l4.121-15.308L27.812,36.25L31.25,50l-5.755-13.812l-14.264-0.38L13.75,51.25l-2.5-5.314   l-2.789,3.718L5,73.192l4.154,3.461L16.785,77.608z"/><polygon points="64.313,42.25 75,36.25 63.362,45.647 61.077,53.808 67.308,53.115 93.615,31.654 89.462,29.577 90.846,22.654    88.077,21.269 65.923,36.5  "/><polygon points="83.75,52.5 93.067,44.347 94.308,34.423 67.308,55.192 65.231,78.038 69.385,78.731 95,56.577 93.136,46.634  "/><text x="0" y="115" fill="#000000" font-size="5px" font-weight="bold" font-family="'Helvetica Neue', Helvetica, Arial-Unicode, Arial, Sans-serif">Created by Arthur Shlain</text><text x="0" y="120" fill="#000000" font-size="5px" font-weight="bold" font-family="'Helvetica Neue', Helvetica, Arial-Unicode, Arial, Sans-serif">from the Noun Project</text></svg>
