<!-- Generated by IcoMoon.io -->
<svg version="1.1" xmlns="http://www.w3.org/2000/svg" width="32" height="32" viewBox="0 0 32 32">
<title>Cheetah</title>
<path d="M31.75 10.688c-0.625-0.5-0.188-1.25-1.25-1.5-0.688-0.125-0.875-0.063-0.875 0 0-0.188-0.063-0.938-0.813-0.438 0 0-0.438-0.063-0.375 0.438 0 0-0.813 0.25-1.438 0.75-0.688 0.438-3.25 1.563-6.875 0.625s-6.75-2.125-9.438-0.25c0 0-2.75 1.313-4.063 4.188-1.25 2.875-2.875 3.75-5.188 3.688-2.25-0.063-1.563 2.313 0 1.438 1.563-0.938 3.5 0.063 5.375-2.875 1.938-2.938 1.813-3.875 3-4.5 0 0 0.125 1.125 2.25 2.313 0 0-1.063 0.625-0.875 1s0.813 1.25 0.813 1.25c0 0-0.5 0.375-0.313 0.688 0.25 0.313 1.813 1.875 2 2.125 0.125 0.313 0.813 1.563 1.25 1.313 0 0 0.438 0.563 0.75 0.375 0 0 0.75-0.125 0.125-0.938s-0.75-0.938-0.75-0.938c0 0 0.625-0.75-1.063-2.313 0 0 2.688-1.75 2.438-2.375-0.313-0.625 2.5 2.875 3.875 1.938 0 0-1.125 1.875-1.313 2.563-0.125 0.75-0.875 1.875-2 1.938 0 0-1.063-0.063-0.813 2 0 0 0.375 0.5 0.563 0.125 0.188-0.438 0.438-0.938 0.938-1.188 0.563-0.25 1.813-0.625 2.375-1.938 0.625-1.313 2-2.438 2-2.438s1.25 2.438 1.25 2.625c0 0.188-1 0.875-1.125 1.375 0 0-1 0.75-0.688 1 0 0 0.125 0.688 0.688 0.188 0.625-0.438 1.125-0.813 1.438-1 0.375-0.188 0.375-0.5 0.813-0.938 0.375-0.438 0.125-0.875-0.188-1.5-0.313-0.688-0.5-2.188-0.5-2.188s2-0.5 2.375-1.313c0.313-0.813 1.438-2.25 2.063-2.813 0.688-0.5 2-0.625 2.25-0.938 0 0 0.75 0.5 1-0.188l-0.125-0.125c0 0 0.438-0.125 0.438-0.438 0 0 0.625-0.313 0-0.813z"></path>
</svg>
