<?xml version="1.0" standalone="no"?>
<!DOCTYPE svg PUBLIC "-//W3C//DTD SVG 20010904//EN"
 "http://www.w3.org/TR/2001/REC-SVG-20010904/DTD/svg10.dtd">
<svg version="1.0" xmlns="http://www.w3.org/2000/svg"
 width="500.000000pt" height="500.000000pt" viewBox="0 0 500.000000 500.000000"
 preserveAspectRatio="xMidYMid meet">

<g transform="translate(0.000000,500.000000) scale(0.100000,-0.100000)"
fill="#000000" stroke="none">
<path d="M2427 4692 c-67 -63 -164 -149 -382 -337 -76 -66 -182 -158 -235
-205 -53 -47 -158 -139 -235 -205 -76 -66 -182 -158 -235 -205 -54 -47 -157
-137 -230 -200 -289 -250 -280 -240 -280 -288 0 -46 24 -93 79 -154 59 -66 99
-84 144 -64 17 7 140 105 272 218 132 112 332 281 445 376 223 188 321 271
593 501 98 83 184 151 191 151 12 0 263 -204 737 -601 594 -496 779 -648 799
-654 37 -12 85 4 117 38 42 44 102 141 109 176 9 42 -11 70 -111 153 -49 41
-182 154 -295 249 -113 96 -358 304 -545 463 -187 158 -425 360 -528 449 -104
89 -201 170 -215 179 -17 12 -47 18 -80 18 -52 0 -56 -2 -115 -58z"/>
<path d="M2284 3823 c-137 -115 -326 -273 -419 -353 -94 -80 -231 -197 -305
-260 -74 -63 -170 -145 -212 -183 l-78 -69 0 -573 c0 -315 3 -580 6 -589 5
-13 25 -16 118 -16 128 0 144 7 177 73 112 222 256 371 380 392 21 4 42 12 47
18 6 7 12 124 14 265 l3 254 37 34 38 34 482 0 482 0 28 -27 28 -27 0 -798 0
-799 -87 3 -88 3 -3 714 c-1 507 -5 718 -13 728 -16 18 -669 19 -687 1 -9 -9
-12 -71 -12 -217 l0 -204 68 -67 c46 -46 79 -90 102 -136 19 -38 59 -96 90
-129 31 -33 67 -75 80 -93 21 -32 22 -36 8 -66 -9 -18 -50 -68 -92 -113 l-76
-81 0 -63 c-1 -130 -34 -283 -89 -403 -17 -38 -31 -70 -31 -72 0 -2 251 -5
558 -6 l557 -3 5 -253 c6 -301 -3 -282 133 -282 85 0 90 1 118 29 l29 29 0
246 0 246 60 0 c52 0 64 4 92 29 l33 29 2 904 c2 497 0 922 -3 945 -6 47 41 4
-429 393 -358 297 -440 364 -445 370 -11 11 -365 306 -394 328 -16 12 -37 22
-46 22 -9 0 -129 -93 -266 -207z"/>
<path d="M1951 2044 c-62 -31 -104 -84 -190 -238 -66 -120 -98 -158 -153 -187
-57 -29 -118 -39 -248 -40 -143 -1 -168 9 -278 106 -53 47 -81 65 -111 70 -83
14 -133 -18 -146 -93 -9 -53 12 -251 35 -336 24 -87 86 -214 137 -281 75 -97
225 -197 361 -241 l52 -16 0 -129 0 -129 -30 0 c-19 0 -40 -9 -55 -24 -22 -22
-23 -28 -14 -55 6 -18 19 -36 29 -41 25 -14 466 -13 491 0 27 15 26 80 -2 106
-17 15 -41 20 -127 24 l-107 5 0 120 0 120 84 8 c69 6 96 14 154 45 224 120
366 338 368 567 1 50 4 130 8 179 l6 89 44 24 c56 29 81 52 81 72 0 9 -20 35
-44 58 -24 23 -55 67 -70 99 -62 136 -157 176 -275 118z"/>
</g>
</svg>
