<!-- Generated by IcoMoon.io -->
<svg version="1.1" xmlns="http://www.w3.org/2000/svg" width="32" height="32" viewBox="0 0 32 32">
<title>Chicken</title>
<path d="M0.75-2.25h-0.188c0 0.063-0.063 0.125-0.188 0.125s-0.188-0.063-0.188-0.25c0-0.188 0.125-0.25 0.25-0.25 0.063 0 0.125 0 0.125 0.125h0.188c-0.063-0.188-0.188-0.313-0.375-0.313s-0.313 0.188-0.313 0.438c0 0.25 0.125 0.375 0.313 0.375s0.375-0.063 0.375-0.25zM0.375-2.438v-0.125c0 0 0 0 0 0-0.063 0-0.125 0-0.188 0.125v-0.125h-0.125v0.563h0.125v-0.313c0-0.063 0.063-0.125 0.188-0.125 0 0 0 0 0 0zM0.563-2.25c0-0.188-0.125-0.313-0.25-0.313-0.188 0-0.313 0.063-0.313 0.313 0 0.125 0.125 0.25 0.313 0.25 0.125 0 0.188-0.063 0.25-0.188h-0.125c-0.063 0.063-0.063 0.063-0.125 0.063s-0.125 0-0.125-0.125h0.375zM0.375-2.375h-0.188c0-0.063 0.063-0.125 0.125-0.125s0.063 0.063 0.063 0.125zM0.563-2v0c0-0.063-0.063-0.063-0.063-0.063v-0.375c0-0.063-0.063-0.125-0.188-0.125-0.188 0-0.25 0.063-0.25 0.188h0.125c0-0.063 0.063-0.063 0.125-0.063s0.063 0 0.063 0c0 0.063-0.063 0.063-0.125 0.125h-0.063c-0.125 0-0.188 0.063-0.188 0.188 0 0.063 0.125 0.125 0.188 0.125s0.125 0 0.188-0.063c0 0 0 0.063 0 0.063zM0.375-2.25c0 0.063-0.063 0.125-0.125 0.125s-0.063 0-0.063-0.063c0 0 0-0.063 0.063-0.063h0.063c0.063 0 0.063 0 0.063 0zM0.313-2v-0.125c0 0 0 0 0 0-0.063 0-0.063 0-0.063-0.063v-0.25h0.063v-0.125h-0.063v-0.188h-0.188v0.188h-0.063v0.125h0.063v0.313c0 0.063 0.063 0.125 0.188 0.125 0 0 0.063 0 0.063 0zM0.563-2v-0.75h-0.125v0.25c-0.063-0.063-0.063-0.063-0.188-0.063s-0.188 0.125-0.188 0.25c0 0.188 0.063 0.313 0.188 0.313s0.125 0 0.188-0.063v0.063zM0.438-2.313c0 0.125-0.063 0.188-0.125 0.188s-0.125-0.063-0.125-0.188c0-0.063 0.063-0.125 0.125-0.125s0.125 0.063 0.125 0.125zM0.625-2.25c0-0.188-0.125-0.313-0.25-0.313-0.063 0-0.125 0-0.188 0.063v-0.25h-0.125v0.75h0.125v-0.063c0.063 0.063 0.125 0.063 0.188 0.063 0.125 0 0.25-0.125 0.25-0.25zM0.438-2.313c0 0.125 0 0.188-0.125 0.188-0.063 0-0.125-0.063-0.125-0.188 0-0.063 0.063-0.125 0.125-0.125 0.125 0 0.125 0.063 0.125 0.125zM0.563-2.563h-0.125l-0.125 0.375-0.125-0.375h-0.188l0.25 0.563c0 0.063-0.063 0.125-0.125 0.125 0 0 0 0-0.063 0v0.125c0.063 0 0.063 0 0.063 0 0.125 0 0.188-0.063 0.188-0.125zM0.688-2.25c0-0.125-0.063-0.188-0.188-0.188h-0.125c-0.125-0.063-0.188-0.063-0.188-0.125s0.063-0.125 0.125-0.125c0.125 0 0.188 0.063 0.188 0.125h0.125c0-0.125-0.063-0.25-0.313-0.25-0.188 0-0.25 0.125-0.25 0.25s0.063 0.188 0.188 0.25h0.125c0.125 0 0.125 0.063 0.125 0.125s-0.063 0.063-0.125 0.063-0.188-0.063-0.188-0.125h-0.125c0 0.188 0.125 0.25 0.313 0.25s0.313-0.063 0.313-0.25zM0.875-2v-0.438c0-0.063-0.063-0.125-0.188-0.125-0.063 0-0.125 0-0.188 0.063 0-0.063-0.063-0.063-0.125-0.063s-0.125 0-0.188 0.063v-0.063h-0.125v0.563h0.125v-0.375c0-0.063 0.063-0.063 0.125-0.063s0.063 0 0.063 0.063v0.375h0.188v-0.375c0-0.063 0-0.063 0.063-0.063s0.125 0 0.125 0.063v0.375zM0.625-2.313c0-0.188-0.125-0.25-0.313-0.25s-0.25 0.063-0.25 0.25c0 0.188 0.063 0.313 0.25 0.313s0.313-0.125 0.313-0.313zM0.438-2.313c0 0.125-0.063 0.188-0.125 0.188s-0.125-0.063-0.125-0.188c0-0.063 0.063-0.125 0.125-0.125s0.125 0.063 0.125 0.125zM0.25-2v-0.75h-0.188v0.75zM0.563-2v-0.375c0-0.125-0.063-0.188-0.188-0.188-0.063 0-0.125 0-0.188 0.063v-0.063h-0.125v0.563h0.125v-0.375c0-0.063 0.063-0.063 0.125-0.063s0.125 0 0.125 0.063v0.375zM0.313-2.438v-0.125h-0.063v-0.063c0 0 0-0.063 0.063-0.063 0 0 0 0 0 0v-0.063c0 0-0.063 0-0.063 0-0.125 0-0.125 0-0.125 0.125v0.063h-0.125v0.125h0.125v0.438h0.125v-0.438zM0.563-2v-0.375c0-0.125-0.063-0.188-0.188-0.188-0.063 0-0.125 0-0.125 0.063v-0.25h-0.188v0.75h0.188v-0.375c0-0.063 0-0.063 0.063-0.063s0.125 0 0.125 0.063v0.375zM0.688-2v-0.75h-0.125v0.5l-0.313-0.5h-0.188v0.75h0.188v-0.563l0.313 0.563zM0.563-2v-0.563h-0.125v0.313c0 0.063-0.063 0.125-0.125 0.125s-0.125 0-0.125-0.125v-0.313h-0.125v0.375c0 0.125 0.063 0.188 0.188 0.188 0.063 0 0.125 0 0.188-0.063v0.063zM0.688-2.563c0-0.125-0.125-0.188-0.25-0.188h-0.375v0.75h0.188v-0.25h0.188c0.125 0 0.25-0.125 0.25-0.313zM0.5-2.5c0 0.063 0 0.063-0.125 0.063h-0.125v-0.188h0.125c0.125 0 0.125 0 0.125 0.125zM0.25-1.875v-0.688h-0.188v0.625c0 0.063 0 0.063 0 0.063-0.063 0-0.063 0-0.063 0v0.125c0.063 0 0.063 0 0.063 0 0.125 0 0.188-0.063 0.188-0.125zM0.25-2.625v-0.188h-0.188v0.188zM0.563-2.188h-0.125c-0.063 0.063-0.063 0.063-0.125 0.063s-0.125-0.063-0.125-0.188c0-0.063 0-0.125 0.125-0.125 0.063 0 0.063 0 0.125 0.063h0.125c0-0.125-0.125-0.188-0.25-0.188-0.188 0-0.25 0.063-0.25 0.25s0.063 0.313 0.25 0.313c0.125 0 0.25-0.063 0.25-0.188zM25.563 6.125l-0.313-0.813c0.375-1.375-0.25-2.875-1.563-3.563l-0.25-0.125c-0.688-0.375-1.563-0.438-2.313-0.188-0.563 0.188-0.938 0.625-1.188 1.125-0.188 0.563-0.125 1.125 0.188 1.625l0.063 0.063c-0.125 0.125-0.188 0.25-0.25 0.375l-0.063 0.063c-0.5 1.125-1.625 2-2.875 2.25l-0.688 0.125c-0.938 0.188-1.938 0.063-2.75-0.375l-2.063-1.063c-1.438-0.75-3-1.125-4.563-1.125-0.188 0-0.375 0.063-0.438 0.25-0.125 0.125-0.125 0.313-0.063 0.438l2.063 6.125c0.438 1.313 1.25 2.563 2.313 3.438l0.25 0.188c1.188 1.063 2.625 1.625 4.188 1.75v2.5h-0.25c-0.313 0-0.563 0.25-0.563 0.563s0.25 0.5 0.563 0.5h2.813c0.313 0 0.563-0.188 0.563-0.5s-0.25-0.563-0.563-0.563h-1.5v-2.438c2.563-0.188 4.813-1.5 6.125-3.625 0.75-1.188 1.125-2.563 1.063-3.938 1-0.375 1.563-1.313 1.563-2.313 0.188 0 0.375-0.063 0.438-0.25 0.125-0.125 0.125-0.313 0.063-0.5zM21 3c0.063-0.25 0.25-0.438 0.5-0.5 0.5-0.188 1-0.125 1.5 0.125l0.188 0.063c0.5 0.25 0.813 0.688 1 1.125-0.125-0.125-0.313-0.25-0.5-0.313-0.688-0.375-1.438-0.375-2.188-0.188-0.125 0.063-0.313 0.125-0.438 0.25-0.125-0.188-0.125-0.375-0.063-0.563zM22.25 7.813c0.438 1.625 0.188 3.375-0.688 4.688-1.25 2-3.375 3.188-5.75 3.188-1.5 0-2.938-0.563-4.063-1.5l-0.188-0.188c-0.938-0.813-1.625-1.875-2-3l-1.875-5.375c1.188 0.125 2.313 0.438 3.313 0.938l2.063 1.063c1.063 0.563 2.313 0.75 3.5 0.5l0.688-0.125c1.563-0.313 2.938-1.375 3.625-2.875 0.125-0.125 0.188-0.313 0.313-0.438 0.188-0.188 0.375-0.313 0.625-0.375 0.438-0.125 0.938-0.125 1.375 0.063 0.438 0.25 0.813 0.688 1 1.125l0.063 0.25h-0.438c-0.875 0-1.625 0.75-1.625 1.625 0 0.188 0 0.313 0.063 0.438zM23.375 8c0-0.125-0.063-0.313-0.125-0.438 0-0.063 0-0.063 0-0.125 0-0.313 0.25-0.563 0.563-0.563h0.188c0 0.438-0.188 0.875-0.625 1.125zM19.063 10.625c-1.5 1.5-3.75 2-5.75 1.25l0.875-1.188c0.188-0.188 0.125-0.563-0.125-0.75-0.25-0.125-0.563-0.063-0.75 0.188l-1.25 1.688c-0.063 0.125-0.125 0.313-0.063 0.438 0.063 0.188 0.125 0.313 0.25 0.375 0.938 0.438 1.938 0.688 2.938 0.688 1.688 0 3.375-0.625 4.625-1.875 0.188-0.188 0.188-0.563 0-0.75-0.25-0.25-0.563-0.25-0.75-0.063z"></path>
</svg>
