<!-- Generated by IcoMoon.io -->
<svg version="1.1" xmlns="http://www.w3.org/2000/svg" width="32" height="32" viewBox="0 0 32 32">
<title>Chili-fence</title>
<path d="M28.313 3.188c-1.75 0.625-3.188 1.938-3.625 3.375-0.125 0.438-0.375 0.563-1.125 0.563-0.875 0-2.313 0.75-2.313 1.25 0 0.125 0.438 0.313 0.938 0.375 1.438 0.25 2.313 0.813 3 1.813l0.625 1v-1.125c0-0.625-0.125-1.5-0.313-1.938-0.25-0.75-0.188-0.875 0.438-1.688 0.75-1 2.75-2.125 4.188-2.375 0.938-0.188 0.938-0.188 0.688-0.875-0.313-0.875-0.938-0.938-2.5-0.375zM18.375 10.125c-0.688 0.5-1.688 1.5-2.625 2.75-0.813 1.125-2.125 3-2.938 4.125-1.688 2.313-3.375 3.813-5.5 5-1.688 0.938-4.25 1.813-5.313 1.813-1.188 0-0.813 0.563 0.813 1.125 1.063 0.375 2.063 0.5 4.25 0.5 2.563 0 3.188-0.125 4.938-0.688 6.25-2.125 11.813-5.875 13.188-8.875 0.75-1.563 0.75-2.25 0.125-3.563-1.25-2.75-4.438-3.75-6.938-2.188zM21.75 10.875c0.25 0.188 0.25 0.438 0.188 0.875-0.125 0.5-0.313 0.563-1 0.563-1.063 0-1.5 0.375-3.625 3.125-1.688 2.063-4.563 4.625-6.75 5.813-0.938 0.563-0.875 0.5 0.75-1.125 1.063-0.938 2.688-2.813 3.688-4.125 2.5-3.438 3.75-4.875 4.313-5.063 0.75-0.313 2-0.313 2.438-0.063z"></path>
</svg>
