<!-- Generated by IcoMoon.io -->
<svg version="1.1" xmlns="http://www.w3.org/2000/svg" width="32" height="32" viewBox="0 0 32 32">
<title>Civet</title>
<path d="M16.75 9.313l-0.5 0.125 1 0.063c0.563 0 1.25 0 1.5 0 0.438-0.063 0.625 0 0.938 0.063 0.25 0.063 0.563 0.188 0.75 0.188 0.438 0.125 1.625 0.875 2.125 1.375 0.563 0.5 0.688 0.75 0.75 1.063 0 0.188 0.063 0.25 0.125 0.25s0.063-0.25-0.125-0.5c-0.125-0.375-0.938-1.563-1.063-1.688-0.188-0.188-1.688-0.813-2.188-0.875-0.75-0.188-2.688-0.25-3.313-0.063zM16.938 9.875c-0.125 0.125-0.125 0.188-0.063 0.25 0.063 0.188 0.5 0.563 0.875 0.813 0.375 0.188 0.563 0.563 0.625 0.938l0.063 0.25-0.313 0.063c-0.313 0.125-0.375 0.25-0.25 0.438s0.188 0.188 0.375 0c0.063-0.125 0.313-0.25 0.625-0.313l0.438-0.188v-0.438c-0.063-0.438-0.125-0.688-0.188-0.688s-0.125 0.125-0.188 0.25c-0.188 0.313-0.313 0.25-0.563-0.188-0.125-0.25-0.313-0.438-0.438-0.438-0.125-0.063-0.25-0.188-0.438-0.5-0.125-0.25-0.313-0.438-0.313-0.438-0.063 0-0.188 0.063-0.25 0.188zM17.813 9.938c0.125 0.125 0.313 0.375 0.438 0.625 0.313 0.313 0.375 0.313 0.5 0.313 0.125-0.063 0.313 0 0.438 0 0.188 0.125 0.313 0 0.25-0.25 0-0.313 0.063-0.313 0.313-0.063 0.188 0.125 0.313 0.188 0.563 0.188 0.125 0 0.375 0.063 0.5 0.125 0.375 0.125 1.063 0.688 1.313 1 0.125 0.188 0.375 0.5 0.625 0.75 0.438 0.5 0.438 0.5 0.25-0.375-0.125-0.5-0.25-0.563-1-1.125-0.313-0.25-0.563-0.5-0.563-0.5 0-0.063-0.125-0.063-0.25-0.125-0.438-0.125-0.813-0.25-1.063-0.5-0.25-0.188-0.5-0.188-0.75-0.063-0.125 0.063-0.188 0.063-0.375-0.063s-0.25-0.125-0.313-0.063c-0.125 0.125-0.438 0.125-0.625 0-0.313-0.188-0.375-0.125-0.25 0.125zM15.375 9.938c-0.125 0.125-0.25 0.188-0.25 0.25 0 0 0.125 0.063 0.313 0.063s0.313 0 0.313 0.063c0 0 0.063 0.125 0.125 0.188 0.125 0.125 0.25 0.188 0.5 0.188 0.313 0 0.313 0 0.188-0.438-0.063-0.313-0.063-0.375-0.313-0.438-0.375-0.063-0.688-0.063-0.875 0.125zM13.438 10c-0.25 0.063-0.25 0.063-0.125 0.125 0.063 0.063 0.375 0.188 0.75 0.25 0.375 0.125 0.75 0.188 0.813 0.25 0.063 0 0.063 0 0.063-0.25 0-0.188-0.063-0.313-0.125-0.375s-0.813-0.063-1.375 0zM13.063 10.5c0.75 0.688 0.813 0.75 1.5 0.75 0.563 0.063 0.688 0.125 0.813 0.25 0.188 0.125 0.063 0.313-0.188 0.375-0.125 0-0.188 0-0.125 0.125 0 0.125 0.063 0.25 0.063 0.438 0.063 0.25 0.063 0.25 0.188 0.188 0.063-0.063 0.188-0.125 0.313-0.125h0.25v-0.313c0-0.125 0.063-0.438 0.063-0.563 0.063-0.313 0-0.5-0.313-0.938-0.188-0.25-0.313-0.25-0.375-0.063s-0.25 0.25-0.688 0.25c-0.313 0-0.438 0-1.125-0.313l-0.75-0.375zM12.438 10.5c0 0.063 0.188 0.188 0.313 0.313s0.25 0.25 0.25 0.313c0 0 0.125 0.313 0.25 0.625 0.438 0.875 0.438 0.938 0.438 1.813-0.063 0.688-0.063 0.813 0.063 1.063 0.063 0.125 0.125 0.375 0.125 0.438 0 0.25 0.125 0.313 0.188 0.063 0-0.063 0.125-0.188 0.25-0.313 0.25-0.375 0.25-0.75 0-1.063-0.188-0.188-0.25-0.25-0.375-0.188-0.25 0.063-0.188-0.125 0-0.188 0.25-0.063 0.25-0.188 0.125-0.5-0.313-0.688-0.375-0.875-0.375-1.188-0.063-0.313-0.188-0.5-0.75-0.875s-0.563-0.438-0.5-0.313zM11.813 10.563c-0.063 0.125 0.063 0.375 0.625 1 0.25 0.313 0.375 0.75 0.5 1.5 0 0.438 0.063 0.75 0.188 1l0.188 0.313-0.063-0.313c-0.063-0.813-0.063-1.25 0-1.5s0-0.313-0.125-0.5c-0.063-0.125-0.188-0.375-0.25-0.625-0.125-0.25-0.25-0.438-0.5-0.625-0.5-0.313-0.5-0.313-0.563-0.25zM16.625 10.938c-0.125 0-0.188 0.063-0.188 0.188 0 0.188 0.313 0.625 0.563 0.875 0.125 0.063 0.25 0.25 0.313 0.313l0.125 0.188 0.125-0.188c0.063-0.125 0.188-0.25 0.313-0.313 0.25-0.125 0.25-0.25 0.063-0.313-0.063 0-0.25-0.188-0.438-0.375-0.375-0.375-0.563-0.438-0.875-0.375zM8.875 11.063c-0.625 0.25-1.813 1.125-2.75 2.063-0.75 0.688-1.688 1.5-2.563 2.063-0.5 0.375-0.625 0.563-0.313 0.438 0.438-0.063 3-1.813 3.375-2.25 0.188-0.188 0.438-0.438 0.563-0.625 0.375-0.375 1.438-1.25 1.938-1.5 0.438-0.188 0.438-0.188 0.313-0.25-0.188-0.063-0.188-0.063-0.563 0.063zM11 10.938c0 0.188 0.438 1.063 0.688 1.375 0.125 0.188 0.313 0.625 0.375 0.875 0.188 0.563 0.813 1.813 0.938 2 0.125 0.063 0.125 0.188 0.125 0.375 0 0.25 0.188 0.5 0.375 0.375 0.063-0.125 0.125-1 0.063-0.938-0.313 0.125-0.938-0.75-1.188-1.75-0.125-0.25-0.25-0.75-0.375-0.938-0.125-0.25-0.25-0.563-0.313-0.625 0-0.125-0.688-0.813-0.688-0.75zM19.75 11.063c-0.125 0.125-0.125 0.5 0 0.813 0.063 0.188 0.188 0.25 0.313 0.063 0.125-0.125 0.313-0.125 0.375 0.063 0.125 0.063 0.25 0.063 0.5-0.063 0.125 0 0.125 0 0.063 0.25v0.25h0.25c0.313 0 0.438 0.125 0.313 0.313-0.125 0.125 0 0.25 0.25 0.313 0.188 0.063 0.25 0.063 0.25 0.313 0 0.5 0.188 0.5 0.563 0.063 0.313-0.313 0.313-0.438 0-0.625-0.125-0.063-0.5-0.375-0.75-0.688-0.313-0.313-0.563-0.563-0.688-0.625-0.063 0-0.25-0.125-0.375-0.188-0.125-0.188-0.25-0.25-0.5-0.25-0.125 0-0.313-0.063-0.375-0.063-0.063-0.063-0.125 0-0.188 0.063zM23.813 11.75c0.25 0.313 0.188 0.75-0.125 1.625-0.125 0.438-0.25 0.938-0.25 1.125s-0.063 0.375-0.125 0.375c-0.188 0-0.375-0.063-0.313-0.125 0-0.063 0-0.125-0.063-0.188s-0.938-0.625-0.938-0.563c0 0-0.063 0.25-0.125 0.563-0.063 0.625-0.188 0.875-0.438 1.125-0.188 0.125-0.188 0.188-0.125 0.313 0.125 0.25 0.25 0.125 0.813-0.438 0.313-0.313 0.563-0.563 0.625-0.563 0 0 0.063 0.125 0.125 0.25 0 0.125 0.063 0.188 0.25 0.188 0.063 0.063 0.188 0.125 0.313 0.25 0.125 0.188 1.313 1.5 2.063 2.188 0.438 0.438 2 1.625 2.375 1.75 0.125 0.063 0.563 0.188 0.938 0.25 0.375 0.125 0.875 0.25 1.188 0.375 0.938 0.25 1.875 0.25 1.938 0 0.063-0.313-0.25-0.438-2.375-1.25-1.125-0.438-1.375-0.5-2.375-1.313-0.625-0.5-0.875-0.875-1.25-2.063-0.188-0.563-0.5-1.313-0.688-1.75l-0.375-0.75 0.063 0.438c0 0.25 0.125 0.813 0.25 1.188 0.313 0.875 0.313 1.125 0.125 1.375s-0.188 0.313-0.125 0.313c0 0 0.125-0.063 0.188-0.188 0.125-0.125 0.188-0.25 0.188-0.25s0.125 0.125 0.188 0.313c0.063 0.313 0.25 0.5 0.875 1.125 0.875 0.875 1.438 1.188 2.563 1.625 0.813 0.313 1.125 0.438 0.875 0.5-0.125 0.063-0.938-0.188-1.688-0.438-1.125-0.5-2.313-1.375-3.063-2.313-0.438-0.438-0.438-0.5-0.438-0.688 0.063-0.375 0.125-1.563 0.063-1.875-0.063-0.188-0.063-0.063-0.063 0.625 0 0.5-0.063 1-0.063 1.063l-0.063 0.188-0.188-0.25-0.188-0.188 0.125-0.563c0.063-0.563 0.125-1.938 0.063-2.188 0-0.063-0.063-0.063-0.125-0.063 0 0 0 0.25 0 0.563 0.063 0.5 0 0.688-0.125 1.313-0.063 0.375-0.188 0.688-0.188 0.688s-0.125-0.125-0.188-0.188-0.188-0.188-0.125-0.563c0.313-2 0.313-2.75-0.063-3.063-0.063-0.063-0.063-0.063 0.063 0.125zM14.125 11.625c0 0 0.063 0.188 0.188 0.438s0.188 0.563 0.25 0.875c0 0.25 0.063 0.563 0.125 0.688 0.063 0.188 0.125 0.313 0.125 0.375s0.063 0.125 0.188 0.063c0.313-0.063 0.375-0.125 0.313-0.5 0-0.188-0.125-0.438-0.188-0.625-0.125-0.313-0.875-1.313-0.938-1.313s-0.063 0-0.063 0zM8.75 11.813c0 0 0.063 0.063 0.188 0.125 0.313 0.188 1.125 1.25 1.25 1.563 0 0.188 0.063 0.375 0.125 0.5 0 0.125 0 0.375 0 0.563 0 0.25 0 0.25 0.063 0.188 0.063-0.125 0.063-0.375 0.125-0.625 0-0.438 0-0.563-0.125-0.813s-0.938-1.25-1.125-1.438c-0.125-0.125-0.438-0.188-0.5-0.063zM20.625 12.438c-0.063 0.063-0.125 0.25-0.188 0.375 0 0.125-0.125 0.313-0.188 0.375-0.313 0.25-0.25 0.375 0.188 0.5 0.5 0.188 0.563 0.188 0.625-0.188 0.063-0.125 0.063-0.313 0.125-0.375s-0.125-0.438-0.375-0.688c-0.125-0.125-0.125-0.125-0.188 0zM16.813 12.625c-0.125 0.125-0.125 0.188-0.125 0.375 0.063 0.188 0.625 0.813 0.75 0.813 0.063 0 0.125-0.125 0.25-0.313 0.125-0.25 0.125-0.313 0.063-0.5-0.063-0.125-0.375-0.375-0.688-0.563-0.063 0-0.125 0.063-0.25 0.188zM19.375 12.688c-0.188 0.188-0.438 0.313-0.5 0.375-0.125 0.125-0.125 0.125-0.063 0.313 0.063 0.125 0.188 0.313 0.188 0.438 0.063 0.125 0.125 0.188 0.188 0.188 0.188 0.063 0.438-0.125 0.438-0.313 0-0.063 0.063-0.188 0.188-0.25 0.125-0.188 0.188-0.25 0.188-0.438 0-0.313-0.063-0.563-0.188-0.563 0 0-0.25 0.125-0.438 0.25zM15.625 12.813c-0.063 0.063-0.063 0.188-0.063 0.5 0.125 0.5 0.125 0.5 0.313 0.438 0.25-0.125 0.5-0.375 0.5-0.563 0-0.375-0.563-0.625-0.75-0.375zM11.125 13.313c0.313 0.438 0.625 1.688 0.625 2.563 0 0.438-0.063 0.5-0.375 1.125-0.188 0.375-0.375 0.75-0.313 0.75 0.063 0.063 0.5-0.625 0.688-1.125 0.313-0.688 0.313-1.313 0.063-2.063-0.125-0.5-0.563-1.313-0.75-1.438-0.063 0 0 0.063 0.063 0.188zM21.313 13.313c-0.063 0.063-0.063 0.188-0.063 0.313 0 0.25-0.125 0.563-0.5 0.938-0.125 0.125-0.125 0.25-0.125 0.438 0.063 0.375 0.125 0.375 0.375 0.188s0.375-0.438 0.375-0.875c0-0.25 0-0.375 0.125-0.5 0.063-0.063 0.125-0.25 0.188-0.313 0.063-0.125 0.063-0.188 0-0.188-0.188-0.063-0.25-0.063-0.375 0zM16.313 13.75c-0.313 0.188-0.375 0.375-0.313 0.625 0.063 0.188 0.063 0.313 0 0.438-0.063 0.188-0.063 0.25 0.188 0.25s1-0.438 1-0.625c0 0-0.063-0.125-0.188-0.188-0.063-0.125-0.188-0.25-0.313-0.375-0.125-0.25-0.125-0.25-0.375-0.125zM18.25 13.75c0 0.063 0 0.188 0 0.313 0.063 0.375 0.063 0.625 0 0.813 0 0.125 0 0.125 0.25 0.125 0.375 0 0.375-0.063 0.5-0.438 0-0.25 0-0.313-0.25-0.563-0.313-0.375-0.438-0.438-0.5-0.25zM19.875 13.813c-0.063 0.063-0.125 0.25-0.188 0.375-0.063 0.25-0.063 0.25 0.063 0.5 0.188 0.375 0.25 0.813 0.063 1.063-0.125 0.125-0.063 0.25 0.063 0.188 0.063-0.063 0.125-0.125 0.188-0.25 0-0.125 0.063-0.188 0.063-0.188 0.188 0 0.625 0.5 0.75 0.75 0.063 0.375 0.188 0.313 0.063-0.125s-0.125-0.5-0.438-0.75c-0.188-0.125-0.313-0.313-0.313-0.375-0.063-0.188 0-0.25 0.188-0.438 0.125-0.125 0.188-0.25 0.188-0.25 0-0.125-0.25-0.375-0.438-0.563-0.188-0.125-0.188-0.125-0.25 0.063zM7.563 13.938c-0.125 0.063-0.375 0.25-0.5 0.313-0.375 0.188-2 1.438-2 1.563-0.063 0.313 0.688 0.188 1.25-0.188 1.063-0.625 1-0.625 1.625-0.563l0.563 0.063 0.125-0.313c0.188-0.313 0.188-0.625 0.125-0.625s-0.25-0.125-0.438-0.25c-0.188-0.125-0.375-0.25-0.438-0.25s-0.188 0.125-0.313 0.25zM17.563 14.25c-0.063 0.125-0.063 0.313 0 0.563v0.375l-0.125-0.125c-0.125-0.063-0.188-0.125-0.188-0.125 0 0.063 0 0.25 0 0.563v0.438l0.125-0.313c0.125-0.313 0.25-0.375 0.25-0.125 0 0.063 0.063 0.125 0.125 0.188 0.125 0.125 0.25-0.063 0.313-0.563 0.063-0.375 0-0.438-0.125-0.75-0.25-0.375-0.25-0.375-0.375-0.125zM9.688 14.5c-0.125 0.25-0.188 0.438-0.25 0.5 0 0.063-0.063 0.25-0.063 0.438-0.063 0.188-0.125 0.375-0.125 0.375-0.063 0-0.125-0.188-0.25-0.313-0.063-0.25-0.125-0.375-0.25-0.375-0.063 0-1.313 0.563-1.938 0.938-0.188 0.125-0.375 0.188-0.5 0.188-0.188 0-1.313 0.5-1.313 0.563s0.125 0.25 0.313 0.438l0.375 0.313 0.125-0.125c0.063-0.063 0.313-0.25 0.5-0.313 0.25-0.125 0.75-0.375 1.125-0.563 0.5-0.25 0.813-0.313 1-0.313 0.438 0 0.688 0.25 0.813 0.813 0.063 0.313 0.125 0.375 0.313 0.438 0.375 0.125 0.438 0.063 0.438-0.5 0-0.375-0.063-0.625-0.188-0.938l-0.125-0.375 0.125-0.563c0.25-0.938 0.188-1.313-0.125-0.625zM15.188 14.375c-0.188 0.313-0.438 0.813-0.375 0.938 0 0.063 0.563 0.375 0.75 0.375 0.125 0 0.313-0.188 0.313-0.313 0-0.063-0.063-0.188-0.125-0.25-0.063-0.125-0.063-0.188 0-0.375s0.063-0.188-0.125-0.375c-0.25-0.188-0.313-0.188-0.438 0zM19.313 14.438c0 0-0.063 0.125-0.063 0.25-0.063 0.25-0.188 0.375-0.563 0.5-0.25 0.125-0.375 0.188-0.375 0.313-0.188 0.438 0.25 0.375 0.938-0.188 0.25-0.188 0.313-0.25 0.313-0.5 0-0.375-0.125-0.563-0.25-0.375zM10.5 14.875c-0.063 0.125-0.125 0.25-0.125 0.25-0.063 0-0.188 0.5-0.188 0.75 0 0.188 0.313 1.125 0.375 1.063 0 0 0.125-2.25 0.063-2.313 0 0-0.063 0.125-0.125 0.25zM14.313 15.313c-0.125 0-0.125 0.063-0.125 0.125s-0.063 0.125-0.125 0.188c-0.125 0.063-0.313 0.688-0.375 1.063-0.063 0.188 0 0.313 0.063 0.375 0.125 0.125 0.188 0.063 0.188-0.125 0-0.063 0.125-0.25 0.25-0.438 0.063-0.188 0.188-0.375 0.188-0.438 0 0 0-0.188 0.063-0.313 0.125-0.313 0-0.563-0.125-0.438zM16.5 15.5c-0.125 0.063-0.313 0.188-0.375 0.313-0.125 0.25-0.188 0.313-0.625 0.188s-0.688-0.063-0.75 0.25c-0.063 0.313-0.063 0.313 0.125 0.438 0.188 0.063 0.25 0.063 0.563 0 0.5-0.125 0.625-0.25 0.875-0.625 0.125-0.125 0.313-0.375 0.375-0.438 0.188-0.125 0.188-0.313 0.125-0.25-0.063 0-0.188 0.063-0.313 0.125zM22.5 15.875c-0.063 0.125-0.875 0.75-1.25 1-0.188 0.125-0.313 0.188-0.375 0.25 0 0 0.125 0.125 0.25 0.188l0.25 0.125 0.125-0.188c0.125-0.125 0.188-0.125 0.25-0.063 0.063 0.188 0 0.25-0.375 0.375l-0.375 0.188 0.563 0.438c0.313 0.313 0.625 0.563 0.625 0.625 0.063 0.063 0.063 0.563 0.125 1.063 0 0.875 0.063 1.063 0.188 1.375 0.188 0.375 0.313 0.438 0.688 0.313l0.25-0.125 0.063-0.875c0-0.813 0.063-0.938 0.188-1.313 0.313-0.625 0.188-1-0.5-1.625-0.063-0.125-0.25-0.25-0.313-0.375s-0.125-0.125-0.438-0.125c-0.688 0-0.688-0.063-0.125-0.375 0.438-0.313 0.5-0.375 0.375-0.813 0-0.25-0.063-0.25-0.188-0.063zM16.938 16.063c-0.188 0.25-0.188 0.5-0.188 0.875 0 0.188 0 0.188-0.25 0.25-0.438 0-0.5 0.063-0.438 0.25 0 0.125 0.063 0.5 0.125 0.938 0 0.625 0 0.688-0.125 1.063-0.125 0.188-0.313 0.5-0.438 0.688l-0.25 0.313h-0.5c-0.438 0-0.438 0-0.625 0.25-0.125 0.188-0.188 0.313-0.188 0.313 0.063 0 0.188 0.063 0.313 0.063s0.25 0 0.25 0.063c0.063 0 0.375 0.063 0.75 0.063 0.813 0 0.625 0.063 1.75-1.063 1.063-1.125 1.125-1.25 0.813-1.813-0.25-0.375-0.25-0.688-0.125-0.875 0.125-0.125 0.125-0.188 0.125-0.25 0 0 0.125-0.125 0.188-0.25 0.188-0.313 0.125-0.438-0.313-0.5s-0.563-0.125-0.625-0.313l-0.125-0.188zM8.188 17.375c-0.375 0.375-0.5 0.438-1.188 0.5-0.875 0.063-1 0.063-1.063 0.188 0 0.125 0 0.188 0 0.25 0.063 0.125 0.563 0.375 0.75 0.375 0 0 0.313-0.125 0.625-0.25 0.375-0.188 0.625-0.313 0.938-0.313l0.438-0.063v-0.438c0-0.313 0-0.5-0.063-0.5s-0.25 0.125-0.438 0.25zM13.438 18c-0.188 0.688-0.313 0.75-1.063 0.563-0.5-0.125-0.625-0.188-0.625-0.313s-0.25-0.375-0.313-0.313c0 0 0 0.125 0 0.25 0.188 0.438 0.125 0.875-0.125 1.438-0.188 0.438-0.25 0.5-0.188 0.875 0 0.313 0 0.5-0.063 0.688-0.125 0.313-0.125 0.313-0.375 0.375-0.5 0.063-0.813 0.313-0.938 0.688-0.063 0.125 0 0.188 0.063 0.188s0.188 0.063 0.25 0.125l0.063 0.125 0.063-0.125c0.125-0.188 0.188-0.188 0.375 0 0.125 0.125 0.125 0.125 0.25 0s0.188-0.125 0.313 0.063c0.125 0.188 0.188 0.188 0.5 0 0.375-0.188 0.625-0.688 0.625-1.188 0-0.313 0.063-0.438 0.188-0.75 0.125-0.188 0.313-0.625 0.438-0.938 0.188-0.438 0.313-0.75 0.5-0.938 0.313-0.25 0.375-0.688 0.313-1.063-0.063-0.188-0.063-0.188-0.25 0.25zM7.063 18.813c-0.375 0.125-0.563 0.313-0.563 0.625 0 0.375 0.125 0.688 0.5 1.063 0.375 0.313 0.5 0.375 0.438 0.125-0.063-0.188 0-0.25 0.125-0.25 0.063 0 0.125-0.063 0.125-0.125-0.125-0.313-0.125-0.375 0.063-0.438l0.125-0.063-0.125-0.063c-0.25-0.125-0.375-0.438-0.313-0.75 0.063-0.25 0.063-0.25-0.375-0.125zM2.25 19.188c-0.125 0.188-0.313 0.438-0.438 0.563-0.063 0.063-0.188 0.25-0.188 0.313 0 0.125 0.063 0.125 0.25-0.063 0.688-0.625 1-0.75 1.188-0.375 0.063 0.125 0.063 0.25 0.063 0.313-0.063 0.125-0.813 0.438-1.125 0.5-0.125 0-0.25 0.063-0.25 0.063-0.063 0.125 0.125 0.25 0.375 0.313 0.188 0.063 0.188 0.125 0.25 0.375 0.063 0.188 0.063 0.313 0.063 0.313 0.063 0 0.25-0.125 0.5-0.25s0.625-0.313 0.813-0.313c0.375-0.125 0.625-0.25 0.875-0.438l0.188-0.125h-0.313c-0.438 0-0.438-0.063-0.438-0.5 0.063-0.313 0.063-0.375-0.063-0.5s-0.313-0.125-0.375 0c-0.063 0.063-0.125 0.125-0.125 0.125-0.063 0-0.563-0.313-0.875-0.5-0.188-0.125-0.188-0.125-0.375 0.188z"></path>
</svg>
