<!-- Generated by IcoMoon.io -->
<svg version="1.1" xmlns="http://www.w3.org/2000/svg" width="32" height="32" viewBox="0 0 32 32">
<title>Clamp</title>
<path d="M1.75 0.438c-0.125 0.25-0.188 4.313-0.188 11.625v11.188l0.688 1.063c0.625 1 0.625 1 0.125 1-0.25 0-0.875 0.438-1.438 1l-1 1 0.125 1.438c0.063 1.188 0.188 1.563 0.625 2.063 0.875 0.938 1.688 1.25 3.063 1.125 1.125-0.063 1.313-0.188 2.125-1.125l0.938-1 0.875 0.5 0.875 0.563h11.438c8.625 0 11.563-0.063 11.75-0.25 0.125-0.188 0.25-0.875 0.25-1.75 0-1.313-0.063-1.688-0.688-2.625-0.375-0.625-0.813-1.125-1-1.125s-0.625 0.438-1 1l-0.688 1-0.625-1c-0.375-0.563-0.813-1-1-1s-0.625 0.438-0.938 1c-0.375 0.5-0.688 0.938-0.75 0.938s-0.375-0.438-0.688-0.938c-0.313-0.563-0.75-1-0.938-1s-0.625 0.438-1 1l-0.625 1-0.625-0.938c-0.875-1.313-1.313-1.313-2-0.063-0.625 1.063-0.625 1.063-1 0.563-1.313-1.875-1.563-1.938-2.438-0.375l-0.563 1-0.563-1c-0.813-1.563-1.375-1.563-2.188 0l-0.563 1h-2.813c-2.75 0-2.813 0-3.063-0.563-0.188-0.313-0.5-0.688-0.75-0.75-0.375-0.25-0.375-0.563-0.375-3.188v-2.938l1.125-0.625c1.313-0.688 1.438-1.313 0.375-1.875-1.438-0.813-1.438-0.813-0.313-1.438 1.313-0.813 1.313-1.25 0-2.063l-1.063-0.563 1.063-0.688c1.313-0.813 1.313-1.313 0-2.063l-1-0.625 1-0.625c1.313-0.813 1.313-1.313 0.125-1.938-0.5-0.313-0.875-0.625-0.875-0.688 0-0.125 0.375-0.438 0.875-0.688 1.25-0.688 1.188-1.25-0.125-2.063l-1.063-0.563 1.063-0.625c0.625-0.375 1-0.813 1-1.063 0-0.188-0.438-0.625-1-1-0.938-0.625-1.25-0.688-2.688-0.688-1.375 0-1.625 0.063-1.875 0.438zM11 1.438c-0.25 0.563 0.25 0.875 2.25 1.563 2.188 0.75 3.75 1.625 5.5 3.125 1.563 1.313 2 1.438 2.25 0.75 0.438-1.313-5.875-5.25-9.063-5.688-0.625-0.125-0.875-0.063-0.938 0.25zM10.75 4.375c-0.188 0.063-0.313 0.313-0.313 0.625 0 0.375 0.313 0.625 1.5 1.188 2.313 1.063 4.688 2.688 6.625 4.5 1.625 1.563 2.375 1.875 2.5 1.063 0.188-1-4.438-4.813-7.813-6.5-1.188-0.563-2.125-1-2.188-1 0 0-0.188 0.063-0.313 0.125zM10.063 7.75c-0.625 0.375-0.125 1 1.313 1.813 3 1.563 5.25 3.625 7.875 7.188 0.5 0.688 1.188 0.625 1.188-0.188 0-1.125-3.5-5.125-6-6.75-2.625-1.813-3.875-2.375-4.375-2.063z"></path>
</svg>
