<svg xmlns="http://www.w3.org/2000/svg" xmlns:xlink="http://www.w3.org/1999/xlink" version="1.1" x="0px" y="0px" viewBox="0 0 100 125" style="enable-background:new 0 0 100 100;" xml:space="preserve"><path d="M21.01,78.67c1.11,1.07,2.38,1.92,3.75,2.59c0.83,1.52,1.9,3.06,3.36,4.52l0.17,0.17c2.77,2.7,6.39,4.05,10.04,4.05  c3.81,0,7.64-1.46,10.56-4.38l6.13-6.13l18.17-18.17c1.73-1.73,1.73-4.55,0-6.29c-0.63-0.63-1.41-1.03-2.23-1.2l0.8-0.8  c1.73-1.73,1.73-4.55,0-6.29c-0.62-0.62-1.42-1.01-2.26-1.17l0.83-0.83c1.73-1.73,1.73-4.55,0-6.29c-1.73-1.73-4.55-1.73-6.29,0  l-0.8,0.8c-0.1-0.5-0.3-0.98-0.57-1.43l0.37-0.37c0.84-0.84,1.3-1.96,1.3-3.15c0-1.19-0.46-2.31-1.3-3.15  c-1.73-1.73-4.55-1.73-6.29,0.01l-0.79,0.79c-0.17-0.83-0.58-1.6-1.2-2.22c-1.68-1.68-4.62-1.68-6.3,0l-16,16  c-1.28-1.18-2.97-1.92-4.85-1.92c-0.05,0-0.09,0.01-0.13,0.01l0-0.14c0-1.92-0.74-3.71-2.09-5.06c-1.35-1.35-3.15-2.09-5.05-2.09  c-0.75-0.01-1.55,0.3-2.11,0.86c-0.57,0.56-0.88,1.32-0.88,2.03l-2.42,25c0.04,2.49,0.69,8.86,5.9,14.07L21.01,78.67z M49.89,31.17  c0.92-0.92,2.52-0.92,3.44,0c0.46,0.46,0.71,1.06,0.7,1.72c0.01,0.63-0.25,1.25-0.71,1.71L40.3,47.62c0,0,0,0,0,0l-2.36,2.36  c-0.39,0.39-0.39,1.03,0,1.43c0.2,0.2,0.46,0.3,0.71,0.3s0.52-0.1,0.71-0.3l15.38-15.38c0,0,0,0,0-0.01l3.42-3.42  c0.46-0.46,1.07-0.71,1.72-0.71c0.6-0.04,1.26,0.25,1.71,0.7c0.46,0.46,0.71,1.06,0.71,1.72c0,0.65-0.25,1.26-0.71,1.72l-0.37,0.37  c-1.71-1.06-4-0.86-5.49,0.62L34.78,58.01v-7.03c0-1.34-0.39-2.58-1.04-3.65L49.89,31.17z M27.62,45.84c2.83,0,5.14,2.31,5.14,5.14  V65.7c0,0.56,0.45,1.01,1.01,1.01c0.56,0,1.01-0.45,1.01-1.01v-4.83l22.41-22.41c0.95-0.94,2.48-0.94,3.43,0  c0.95,0.95,0.95,2.49,0,3.43L47.59,54.92l-2.35,2.35c-0.39,0.39-0.39,1.03,0,1.43c0.39,0.39,1.03,0.39,1.43,0l2.35-2.35l13.03-13.03  l3.43-3.43c0.95-0.95,2.49-0.94,3.43,0c0.95,0.95,0.95,2.49,0,3.43L52.45,59.77c0,0,0,0,0,0l-2.35,2.35c-0.39,0.39-0.39,1.03,0,1.43  c0.39,0.39,1.03,0.39,1.43,0l15.38-15.38c0.91-0.91,2.52-0.91,3.43,0c0.95,0.95,0.95,2.49,0,3.43l-3.43,3.43l-11.1,11.1l-2.57,2.57  c-0.39,0.39-0.39,1.03,0,1.43c0.39,0.39,1.03,0.39,1.43,0l2.57-2.57l11.1-11.1c0.95-0.94,2.48-0.94,3.43,0  c0.95,0.95,0.95,2.49,0,3.43L53.59,78.07l-6.13,6.13c-4.93,4.93-12.89,5.07-17.76,0.32l-0.16-0.16c-4.86-4.86-5.29-10.92-5.31-12.56  l2.41-25C26.65,46.27,27.09,45.84,27.62,45.84z M19.37,39.52c0-0.26,0.1-0.51,0.28-0.69c0.18-0.18,0.48-0.23,0.68-0.27  c1.38,0,2.67,0.53,3.63,1.5c0.97,0.97,1.5,2.26,1.5,3.64l0.01,1.03c-0.51,0.52-0.83,1.23-0.83,1.98l-2.41,25.01  c0.01,1.28,0.2,3.59,1.08,6.24c-0.29-0.24-0.61-0.45-0.88-0.71l-0.16-0.16c-4.69-4.69-5.27-10.43-5.31-12.56L19.37,39.52z"/><path d="M68.57,27.51c0.26,0,0.52-0.1,0.71-0.3l8.77-8.77c0.39-0.39,0.39-1.03,0-1.43s-1.03-0.39-1.43,0l-8.77,8.77  c-0.39,0.39-0.39,1.03,0,1.43C68.05,27.41,68.31,27.51,68.57,27.51z"/><path d="M62.22,23.96c0.09,0.02,0.18,0.03,0.26,0.03c0.45,0,0.85-0.3,0.97-0.75l3.21-11.97c0.14-0.54-0.18-1.09-0.71-1.24  c-0.54-0.14-1.09,0.18-1.24,0.71l-3.21,11.97C61.37,23.26,61.69,23.82,62.22,23.96z"/><path d="M71.11,32.84c0.12,0.45,0.53,0.75,0.97,0.75c0.09,0,0.17-0.01,0.26-0.03l11.98-3.21c0.54-0.14,0.86-0.7,0.71-1.24  c-0.14-0.54-0.7-0.86-1.24-0.71l-11.98,3.21C71.28,31.75,70.96,32.31,71.11,32.84z"/><text x="0" y="115" fill="#000000" font-size="5px" font-weight="bold" font-family="'Helvetica Neue', Helvetica, Arial-Unicode, Arial, Sans-serif">Created by NAPISAH</text><text x="0" y="120" fill="#000000" font-size="5px" font-weight="bold" font-family="'Helvetica Neue', Helvetica, Arial-Unicode, Arial, Sans-serif">from the Noun Project</text></svg>