<svg xmlns="http://www.w3.org/2000/svg" xmlns:xlink="http://www.w3.org/1999/xlink" xml:space="preserve" version="1.1" style="shape-rendering:geometricPrecision;text-rendering:geometricPrecision;image-rendering:optimizeQuality;" viewBox="0 0 650 818.75" x="0px" y="0px" fill-rule="evenodd" clip-rule="evenodd"><defs><style type="text/css">
   
    .fil0 {fill:black}
   
  </style></defs><g><path class="fil0" d="M67 179c48,-12 96,19 109,70 13,50 -10,123 -58,135 -48,12 -103,-42 -115,-92 -13,-51 16,-101 64,-113zm519 19c-43,-8 -85,22 -94,67 -9,46 15,110 58,118 43,9 89,-41 98,-87 9,-45 -18,-89 -62,-98zm-327 -133c41,5 69,43 64,86 -5,43 -45,92 -85,87 -41,-5 -67,-63 -61,-105 5,-43 42,-73 82,-68zm164 0c-41,5 -69,43 -64,86 6,43 45,92 85,87 41,-5 67,-63 62,-105 -6,-43 -43,-73 -83,-68zm34 -1c-3,-24 -15,-40 -35,-64 -20,27 -31,41 -36,68 0,0 39,-27 71,-4zm93 128c6,-24 22,-40 47,-63 15,28 24,44 26,72 0,0 -37,-30 -73,-9zm-449 -22c-8,-25 -25,-40 -51,-63 -15,30 -23,46 -24,75 0,0 36,-32 75,-12zm123 -106c3,-24 15,-40 35,-64 19,27 30,41 36,68 0,0 -39,-27 -71,-4zm360 469c0,247 -161,40 -246,40 -74,0 -246,209 -253,-40 -3,-88 65,-126 93,-149 35,-28 10,-144 156,-144 146,0 124,116 154,142 27,23 96,60 96,151z"/></g><text x="0" y="670" fill="#000000" font-size="5px" font-weight="bold" font-family="'Helvetica Neue', Helvetica, Arial-Unicode, Arial, Sans-serif">Created by kareemovic1000</text><text x="0" y="675" fill="#000000" font-size="5px" font-weight="bold" font-family="'Helvetica Neue', Helvetica, Arial-Unicode, Arial, Sans-serif">from the Noun Project</text></svg>