<!-- Generated by IcoMoon.io -->
<svg version="1.1" xmlns="http://www.w3.org/2000/svg" width="32" height="32" viewBox="0 0 32 32">
<title>Cleaned1</title>
<path d="M0.875-0.313h-0.188c0 0.125-0.063 0.188-0.188 0.188-0.188 0-0.25-0.125-0.25-0.313 0-0.25 0.063-0.375 0.25-0.375 0.125 0 0.188 0.063 0.188 0.188h0.188c0-0.188-0.188-0.313-0.375-0.313-0.25 0-0.438 0.188-0.438 0.5 0 0.25 0.188 0.438 0.438 0.438 0.188 0 0.375-0.125 0.375-0.313zM0.5-0.5v-0.188c-0.063 0-0.063 0-0.063 0-0.063 0-0.125 0.063-0.188 0.125v-0.125h-0.188v0.688h0.188v-0.375c0-0.125 0.063-0.125 0.188-0.125 0 0 0 0 0.063 0zM0.688-0.313c0-0.25-0.125-0.375-0.313-0.375-0.25 0-0.375 0.125-0.375 0.375 0 0.188 0.125 0.313 0.375 0.313 0.125 0 0.25-0.063 0.313-0.188h-0.188c0 0.063-0.063 0.063-0.125 0.063-0.125 0-0.188-0.063-0.188-0.188h0.5zM0.5-0.438h-0.313c0.063-0.063 0.063-0.125 0.188-0.125 0.063 0 0.125 0.063 0.125 0.125zM0.688 0v0c-0.063-0.063-0.063-0.063-0.063-0.125v-0.375c0-0.125-0.063-0.188-0.25-0.188s-0.313 0.063-0.313 0.25h0.188c0-0.125 0-0.125 0.125-0.125 0.063 0 0.063 0 0.063 0.063s-0.063 0.063-0.125 0.063l-0.063 0.063c-0.125 0-0.188 0.063-0.188 0.188s0.063 0.188 0.188 0.188c0.063 0 0.125 0 0.188-0.063 0 0 0 0.063 0.063 0.063zM0.438-0.313c0 0.125-0.063 0.188-0.125 0.188s-0.125-0.063-0.125-0.063c0-0.063 0.063-0.063 0.125-0.125h0.063c0.063 0 0.063 0 0.063 0zM0.375 0v-0.125c0 0 0 0 0 0-0.063 0-0.063 0-0.063-0.063v-0.375h0.063v-0.125h-0.063v-0.188h-0.188v0.188h-0.125v0.125h0.125v0.438c0 0.063 0.063 0.125 0.188 0.125 0 0 0.063 0 0.063 0zM0.688 0v-0.938h-0.188v0.313c0-0.063-0.063-0.063-0.188-0.063s-0.25 0.125-0.25 0.313c0 0.25 0.063 0.375 0.25 0.375 0.125 0 0.188 0 0.188-0.063v0.063zM0.5-0.313c0 0.125-0.063 0.188-0.125 0.188-0.125 0-0.188-0.063-0.188-0.25 0-0.125 0.063-0.188 0.188-0.188 0.063 0 0.125 0.063 0.125 0.25zM0.75-0.313c0-0.25-0.125-0.375-0.313-0.375-0.063 0-0.125 0-0.188 0.063v-0.313h-0.188v0.938h0.188v-0.063c0.063 0.063 0.125 0.063 0.188 0.063 0.188 0 0.313-0.125 0.313-0.313zM0.563-0.375c0 0.125-0.063 0.25-0.125 0.25-0.125 0-0.188-0.063-0.188-0.25 0-0.125 0.063-0.188 0.188-0.188 0.063 0 0.125 0.063 0.125 0.188zM0.688-0.688h-0.188l-0.125 0.5-0.188-0.5h-0.188l0.25 0.688v0.063c0 0.063 0 0.063-0.063 0.063s-0.063 0-0.063 0v0.125c0 0 0 0 0.063 0 0.125 0 0.188 0 0.188-0.125zM0.875 0l-0.313-0.938h-0.188l-0.313 0.938h0.188l0.063-0.188h0.313l0.063 0.188zM0.563-0.375h-0.188l0.063-0.313zM0.25 0v-0.688h-0.188v0.688zM0.25-0.75v-0.188h-0.188v0.188zM0.688 0v-0.438c0-0.188-0.063-0.25-0.25-0.25-0.063 0-0.125 0-0.188 0.125v-0.125h-0.188v0.688h0.188v-0.438c0-0.063 0.063-0.125 0.125-0.125 0.125 0 0.125 0.063 0.125 0.125v0.438zM0.75-0.313c0-0.25-0.125-0.375-0.375-0.375-0.188 0-0.313 0.125-0.313 0.313 0 0.25 0.125 0.375 0.313 0.375 0.25 0 0.375-0.125 0.375-0.313zM0.563-0.313c0 0.125-0.063 0.188-0.188 0.188-0.063 0-0.125-0.063-0.125-0.25 0-0.125 0.063-0.188 0.125-0.188 0.125 0 0.188 0.063 0.188 0.25zM0.688 0.25v-0.938h-0.188v0.125c0-0.125-0.063-0.125-0.188-0.125s-0.25 0.125-0.25 0.313c0 0.25 0.063 0.375 0.25 0.375 0.125 0 0.188 0 0.188-0.063v0.313zM0.5-0.313c0 0.125-0.063 0.188-0.125 0.188-0.125 0-0.188-0.063-0.188-0.25 0-0.125 0.063-0.188 0.188-0.188 0.063 0 0.125 0.063 0.125 0.25zM0.688 0v-0.688h-0.188v0.438c0 0.063-0.063 0.125-0.125 0.125s-0.125-0.063-0.125-0.125v-0.438h-0.188v0.438c0 0.188 0.125 0.25 0.25 0.25 0.063 0 0.125 0 0.188-0.063v0.063zM0.375-0.563v-0.125h-0.063v-0.063c0-0.063 0-0.063 0-0.063 0.063 0 0.063 0 0.063 0v-0.125c0 0-0.063 0-0.063 0-0.125 0-0.188 0.063-0.188 0.188v0.063h-0.125v0.125h0.125v0.563h0.188v-0.563zM1.063 0v-0.5c0-0.125-0.063-0.188-0.25-0.188-0.063 0-0.125 0-0.188 0.063 0-0.063-0.125-0.063-0.188-0.063s-0.125 0-0.188 0.063v-0.063h-0.188v0.688h0.188v-0.438c0-0.063 0.063-0.125 0.125-0.125s0.125 0.063 0.125 0.125v0.438h0.125v-0.438c0-0.063 0.063-0.125 0.125-0.125s0.125 0.063 0.125 0.125v0.438zM0.688 0v-0.438c0-0.188-0.063-0.25-0.25-0.25-0.063 0-0.125 0-0.188 0.125v-0.375h-0.188v0.938h0.188v-0.438c0-0.063 0.063-0.125 0.125-0.125s0.125 0.063 0.125 0.125v0.438zM0.875 0v-0.938h-0.25v0.625l-0.313-0.625h-0.25v0.938h0.188v-0.625l0.375 0.625zM0.813-0.625c0-0.188-0.125-0.313-0.313-0.313h-0.375v0.938h0.188v-0.313h0.188c0.188 0 0.313-0.125 0.313-0.313zM0.625-0.625c0 0.063-0.063 0.125-0.125 0.125h-0.188v-0.25h0.188c0.063 0 0.125 0 0.125 0.125zM0.25 0.125v-0.813h-0.188v0.75c0 0.063 0 0.063 0 0.063-0.063 0-0.063 0-0.063 0v0.125c0.063 0 0.063 0 0.125 0 0.125 0 0.125 0 0.125-0.125zM0.25-0.75v-0.188h-0.188v0.188zM0.688-0.25h-0.188c0 0.063-0.063 0.125-0.125 0.125-0.125 0-0.125-0.063-0.125-0.188s0-0.25 0.125-0.25c0.063 0 0.125 0.063 0.125 0.125h0.188c-0.063-0.188-0.125-0.25-0.313-0.25s-0.313 0.125-0.313 0.375c0 0.188 0.125 0.313 0.313 0.313s0.25-0.063 0.313-0.25zM11.438 15.875c0.125 0 0.25-0.188 0.25-0.313s-0.125-0.25-0.25-0.25c-1.438-0.313-2.5-1.438-2.813-2.875-0.063-0.125-0.188-0.188-0.313-0.188s-0.25 0.063-0.25 0.188c-0.313 1.438-1.438 2.563-2.875 2.875-0.125 0-0.25 0.125-0.25 0.25s0.125 0.313 0.25 0.313c1.438 0.313 2.563 1.375 2.875 2.813 0 0.125 0.125 0.25 0.25 0.25 0.188 0 0.25-0.125 0.313-0.25 0.25-1.438 1.375-2.563 2.813-2.813zM10.375 11.813c0 0.125 0.125 0.25 0.25 0.25 0.875 0.25 1.563 0.938 1.75 1.813 0.063 0.125 0.188 0.188 0.313 0.188s0.25-0.063 0.25-0.188c0.25-0.875 0.938-1.563 1.813-1.813 0.125 0 0.188-0.125 0.188-0.25s-0.063-0.25-0.188-0.313c-0.875-0.188-1.563-0.875-1.813-1.75 0-0.125-0.125-0.25-0.25-0.25s-0.25 0.125-0.313 0.25c-0.188 0.875-0.875 1.563-1.75 1.75-0.125 0.063-0.25 0.188-0.25 0.313zM6.938 8.438c0.875 0.188 1.625 0.938 1.813 1.813 0 0.125 0.188 0.188 0.313 0.188s0.25-0.063 0.25-0.188c0.188-0.875 0.938-1.625 1.813-1.813 0.125 0 0.188-0.125 0.188-0.25s-0.063-0.25-0.188-0.313c-0.938-0.188-1.625-0.875-1.813-1.813 0-0.125-0.125-0.188-0.25-0.188s-0.313 0.063-0.313 0.188c-0.188 0.938-0.875 1.625-1.813 1.813-0.125 0.063-0.188 0.188-0.188 0.313s0.063 0.25 0.188 0.25zM22.625 14.313l-4-1.875c-0.188-0.125-0.5-0.063-0.688 0.125l-0.125 0.188c-1.938 2.438-4.25 4.438-7 5.875-0.125 0.063-0.25 0.25-0.313 0.438 0 0.188 0.063 0.375 0.188 0.5 0.438 0.438 0.938 0.813 1.375 1.188 1.875-1.063 3.563-2.375 5-4l0.125-0.125c0.25-0.25 0.625-0.313 0.875-0.063s0.25 0.625 0.063 0.875l-0.125 0.125c-1.438 1.625-3 2.938-4.813 4 2.688 1.875 5.875 3.063 9.125 3.375 0.063 0 0.063 0 0.063 0 0.125 0 0.313-0.063 0.438-0.188s0.188-0.313 0.125-0.5c-0.625-3-0.625-6.063 0-9.125l0.063-0.188c0-0.313-0.125-0.563-0.375-0.625zM26.5 0.688c-0.5-0.188-1.063 0-1.25 0.5l-4.125 8.813-1.188-0.5c-0.25-0.125-0.625 0-0.75 0.25l-0.438 1c-0.063 0.125-0.063 0.313-0.063 0.438 0.063 0.125 0.188 0.25 0.313 0.313l4.063 1.938c0.125 0 0.188 0 0.25 0s0.125 0 0.188 0c0.188-0.063 0.313-0.125 0.375-0.313l0.438-1c0.125-0.25 0-0.625-0.25-0.75l-1.188-0.563 4.063-8.813c0.25-0.5 0-1.063-0.438-1.313z"></path>
</svg>
