<?xml version="1.0" standalone="no"?>
<!DOCTYPE svg PUBLIC "-//W3C//DTD SVG 20010904//EN"
 "http://www.w3.org/TR/2001/REC-SVG-20010904/DTD/svg10.dtd">
<svg version="1.0" xmlns="http://www.w3.org/2000/svg"
 width="742.000000pt" height="884.000000pt" viewBox="0 0 742.000000 884.000000"
 preserveAspectRatio="xMidYMid meet">

<g transform="translate(0.000000,884.000000) scale(0.100000,-0.100000)"
fill="#000000" stroke="none">
<path d="M2535 8595 c-319 -50 -607 -195 -839 -422 -284 -278 -439 -622 -462
-1023 -6 -98 -4 -108 18 -150 48 -89 165 -115 238 -53 50 42 62 77 71 208 20
290 132 543 331 752 226 236 488 357 826 382 124 9 147 18 190 82 20 28 23 44
20 90 -5 65 -32 109 -82 133 -42 20 -191 20 -311 1z"/>
<path d="M2675 7960 c-210 -23 -423 -131 -560 -281 -135 -150 -216 -339 -231
-539 -6 -74 -4 -93 14 -133 33 -74 113 -111 189 -87 79 25 107 70 118 185 28
302 237 510 538 535 97 8 125 21 165 80 31 46 31 124 -1 170 -43 65 -107 84
-232 70z"/>
<path d="M2885 7440 c-155 -32 -289 -136 -368 -287 -37 -71 -67 -172 -67 -229
0 -28 -5 -34 -52 -54 -97 -41 -302 -146 -413 -213 -469 -278 -906 -716 -1196
-1197 -243 -406 -395 -840 -466 -1341 -25 -181 -25 -690 0 -879 53 -391 162
-757 326 -1092 98 -201 142 -270 191 -297 105 -59 240 18 240 137 0 36 -12 67
-66 165 -572 1040 -516 2295 145 3281 114 169 225 302 390 467 179 179 307
284 506 415 135 89 359 214 383 214 9 0 12 -48 12 -175 l0 -175 -32 -19 c-314
-185 -534 -358 -731 -576 -448 -496 -696 -1087 -736 -1751 -48 -797 254 -1589
824 -2159 455 -455 1053 -742 1700 -816 141 -17 469 -17 610 0 972 111 1810
698 2235 1566 447 912 382 1963 -174 2810 -232 353 -542 648 -921 876 l-110
66 -3 177 c-2 131 1 176 9 176 25 0 248 -125 384 -214 77 -51 187 -130 245
-176 136 -108 395 -367 499 -499 625 -791 839 -1805 586 -2769 -106 -402 -324
-833 -589 -1167 -110 -139 -378 -403 -516 -509 -415 -320 -843 -517 -1340
-616 -234 -47 -331 -55 -625 -54 -292 1 -427 15 -672 70 -366 81 -740 241
-1054 449 -194 129 -307 222 -499 411 -137 134 -172 163 -203 169 -138 26
-241 -109 -178 -233 22 -43 301 -319 411 -407 533 -426 1091 -666 1765 -762
184 -26 713 -26 895 0 768 110 1427 429 1968 951 575 556 930 1261 1039 2066
25 189 25 698 0 879 -71 501 -223 935 -466 1341 -290 481 -727 919 -1196 1197
-111 67 -316 172 -412 213 -48 20 -53 26 -53 54 0 57 -30 158 -67 229 -86 163
-236 271 -405 292 -33 4 -136 -3 -278 -19 -496 -57 -663 -57 -1159 -1 -230 26
-253 27 -316 15z m288 -339 c525 -59 671 -59 1219 0 108 12 212 19 231 15 48
-9 110 -66 138 -128 23 -52 24 -61 27 -355 2 -167 1 -303 -1 -303 -2 0 -37 11
-78 25 -199 69 -465 125 -689 145 -375 33 -806 -20 -1169 -145 -41 -14 -76
-25 -78 -25 -3 0 -3 138 -1 308 l3 307 27 50 c41 79 102 125 166 125 17 0 110
-9 205 -19z m1010 -950 c539 -96 1000 -332 1367 -700 389 -389 632 -870 715
-1411 9 -58 18 -181 22 -275 20 -577 -149 -1119 -492 -1580 -396 -532 -954
-873 -1616 -986 -117 -20 -168 -23 -399 -23 -231 0 -282 3 -399 23 -409 70
-782 228 -1096 464 -580 436 -938 1072 -1006 1787 -14 153 -6 443 16 590 111
719 514 1344 1120 1739 306 200 712 346 1085 391 41 5 185 7 320 6 195 -3 269
-8 363 -25z"/>
</g>
</svg>
