<!-- Generated by IcoMoon.io -->
<svg version="1.1" xmlns="http://www.w3.org/2000/svg" width="32" height="32" viewBox="0 0 32 32">
<title>Collecting-insects</title>
<path d="M28.688 26l-5.875-5.75c-0.25-0.25-0.625-0.25-0.813 0l-1 1c-0.125 0.125-0.188 0.25-0.188 0.438 0 0.125 0.063 0.25 0.188 0.375l5.875 5.75c0.125 0.125 0.25 0.188 0.375 0.188 0.188 0 0.313-0.063 0.438-0.188l1-1c0.125-0.125 0.125-0.25 0.125-0.438 0-0.125-0.063-0.25-0.125-0.375zM27.25 26.625l-5.063-5 0.25-0.188 5 4.938zM20.938 20.125c2.125-2.188 3.5-4.813 3.875-7.438 0.438-2.688-0.25-5.063-1.875-6.688 0 0 0 0 0 0s-0.063-0.063-0.063-0.063c-3.25-3.188-9.25-2.375-13.688 1.813-0.188 0.125-0.313 0.25-0.5 0.375-0.125 0.188-0.25 0.375-0.375 0.625 0 0 0 0 0 0v0c-0.688 1.75 0.938 5 3.938 7.938 2.5 2.438 5.25 4 7.063 4 0 0 0 0 0 0 0.563 0 1.063-0.188 1.375-0.438 0.125-0.063 0.188-0.063 0.25-0.125zM14 5.938c0.063 0.063 0.125 0.063 0.188 0.063s0.938 0 2.063 0.438c-0.313 0.188-0.563 0.375-0.875 0.563-0.75-0.375-1.375-0.625-1.938-0.813 0.188-0.063 0.375-0.125 0.563-0.25zM17.625 7.063c0.625 0.375 1.375 0.875 2.063 1.563l-0.875 0.875c-0.75-0.813-1.563-1.375-2.313-1.875 0.375-0.188 0.75-0.375 1.125-0.563zM22.375 10.063c-0.375-0.5-0.688-1-1.063-1.438l0.938-1c0.188 0.938 0.188 1.75 0.125 2.438zM23.125 14.125c0 0.125 0.063 0.188 0.125 0.25-0.125 0.313-0.25 0.625-0.375 0.938-0.25-0.5-0.5-1-0.75-1.438 0.188-0.313 0.375-0.563 0.5-0.875 0.188 0.375 0.313 0.75 0.5 1.125zM20.875 16.25c-0.125-0.188-0.25-0.438-0.375-0.625 0.188-0.188 0.5-0.438 0.813-0.813 0.313 0.563 0.563 1.125 0.813 1.75 0.063 0 0.063 0.063 0.063 0.063-0.25 0.438-0.5 0.813-0.813 1.188-0.125-0.438-0.25-1-0.5-1.563zM17.875 12.063l0.938-0.938c0.688 0.75 1.313 1.625 1.938 2.688-0.313 0.375-0.625 0.625-0.813 0.813-0.563-0.875-1.25-1.688-2.063-2.563zM21.5 12.75c-0.625-0.938-1.25-1.75-1.875-2.438l0.875-0.875c0.5 0.625 1 1.375 1.5 2.25-0.188 0.375-0.313 0.75-0.5 1.063zM21.625 6.625l-1.125 1.188c-0.5-0.5-1-0.938-1.5-1.25 0.875-0.188 1.75-0.25 2.625 0.063zM18 10.313l-0.938 0.938c-0.875-0.813-1.75-1.5-2.625-2.063 0.25-0.25 0.563-0.5 1-0.813 0.813 0.438 1.688 1.063 2.563 1.938zM23.688 12.5c0 0 0 0 0 0.063-0.125-0.375-0.313-0.688-0.438-1 0.188-0.625 0.313-1.375 0.313-2.188 0.25 0.938 0.313 2 0.125 3.125zM19.375 5.313c-0.625 0.125-1.188 0.25-1.688 0.438-0.5-0.188-0.875-0.375-1.313-0.5 1.063-0.125 2.063-0.125 3 0.063zM11.938 7.063c0.375 0.063 1.25 0.188 2.375 0.688-0.438 0.375-0.688 0.625-0.875 0.813-0.563-0.313-1.125-0.563-1.625-0.75-0.125 0-0.188-0.063-0.313-0.063 0 0 0 0-0.063 0-0.063-0.063-0.188-0.063-0.313-0.125 0 0 0 0 0 0 0.25-0.188 0.563-0.375 0.813-0.563zM19.313 19.5c-1.25 0-3.688-1.125-6.25-3.625-2.75-2.75-4-5.438-3.688-6.625 0.063-0.063 0.125-0.188 0.25-0.25 0.063-0.125 0.125-0.188 0.25-0.25 0 0 0 0 0.063 0 0 0 0.063-0.063 0.125-0.063 0 0 0 0 0.063 0 1.188-0.125 3.688 1 6.375 3.625 1.5 1.438 2.625 3 3.25 4.375 0.563 1.188 0.625 2.188 0.25 2.563 0 0-0.063 0.063-0.063 0.125-0.188 0.063-0.375 0.125-0.625 0.125zM10.625 18.5c-0.188-0.125-0.375-0.188-0.625-0.188-0.75 0-1.75 0.75-2.438 1.875-0.125 0.188-0.188 0.375-0.313 0.563-0.125-0.188-0.25-0.438-0.375-0.688-0.75-1.063-1.688-1.688-2.5-1.688-0.25 0-0.5 0.063-0.688 0.188-0.25 0.188-0.688 0.625-0.5 1.625 0.125 0.625 0.375 1.25 0.813 1.875 0.688 0.938 1.5 1.563 2.25 1.688 0 0.125-0.063 0.188-0.063 0.313 0 0.563 0.438 1 1 1s1-0.438 1-1c0-0.063 0-0.188-0.063-0.25 0.813-0.063 1.688-0.75 2.375-1.813 0.375-0.625 0.625-1.313 0.75-1.938 0.125-1-0.313-1.375-0.625-1.563zM4.938 21.375c-0.625-0.938-0.688-1.75-0.563-1.875 0 0 0 0 0 0 0.313 0 0.938 0.375 1.5 1.25 0.688 0.938 0.75 1.75 0.625 1.875 0 0 0 0 0 0-0.313 0-0.938-0.375-1.563-1.25zM9.5 21.375c-0.5 0.875-1.188 1.313-1.438 1.313v0c-0.125-0.125-0.125-0.938 0.5-1.938 0.563-0.875 1.188-1.25 1.5-1.313 0.125 0.125 0.063 0.938-0.563 1.938z"></path>
</svg>
