<?xml version="1.0" encoding="UTF-8"?>
<svg width="700pt" height="700pt" version="1.1" viewBox="0 0 700 700" xmlns="http://www.w3.org/2000/svg">
 <g>
  <path d="m344.68 277.45c1.7148 1.6953 3.9375 2.5547 6.1953 2.5547 2.2227 0 4.4805-0.85938 6.1953-2.5547l131.25-122.5c1.6641-1.6797 2.5547-3.9023 2.5547-6.1953 0-1.1211-0.24609-2.2578-0.68359-3.3438-1.3281-3.2539-4.5508-5.4062-8.0664-5.4062h-62.125v-131.25c0-4.8125-3.9375-8.75-8.75-8.75h-122.5c-4.8477 0-8.75 3.9375-8.75 8.75v131.25h-60.375c-3.5508 0-6.7383 2.1523-8.1016 5.4062-0.4375 1.0859-0.64844 2.2227-0.64844 3.3438 0 2.293 0.89062 4.5156 2.5547 6.1953z"/>
  <path d="m553.63 240.59-68.738-34.633-37.344 34.859 60.828 30.434-157.5 78.031-157.5-78.031 60.828-30.414-37.363-34.844-68.723 34.613c-4.4414 2.2422-7.2422 6.7578-7.2422 11.781v195.23c0 5.0234 2.8008 9.5391 7.2461 11.797l196.88 99.156c1.8555 1.0273 3.8672 1.4297 5.8789 1.4297s4.0234-0.40234 5.8789-1.4336l196.88-99.156c4.4453-2.2578 7.2461-6.7734 7.2461-11.797v-195.23c0-5.0234-2.8008-9.5391-7.2461-11.797z"/>
 </g>
</svg>
