<!-- Generated by IcoMoon.io -->
<svg version="1.1" xmlns="http://www.w3.org/2000/svg" width="34" height="32" viewBox="0 0 34 32">
<title>CommunityWork</title>
<path d="M16.45 4.201c-0.115 0.059-0.242 0.191-0.28 0.291-0.028 0.072-0.040 0.589-0.047 1.872l-0.006 1.041 0.074 0.136c0.119 0.215 0.266 0.304 0.512 0.302 0.242 0 0.395-0.1 0.512-0.331 0.076-0.151 0.072-0.066 0.091-1.7 0.011-0.85 0.006-1.188-0.011-1.232-0.013-0.036-0.026-0.068-0.026-0.074-0.004-0.026-0.113-0.183-0.142-0.206-0.019-0.015-0.091-0.055-0.159-0.091-0.172-0.087-0.357-0.089-0.518-0.006z"></path>
<path d="M10.856 5.323c-0.113 0.036-0.255 0.166-0.321 0.293-0.094 0.187-0.064 0.442 0.081 0.654 0.040 0.059 0.072 0.113 0.072 0.119s0.064 0.113 0.14 0.238c0.076 0.123 0.151 0.244 0.164 0.268 0.015 0.021 0.049 0.079 0.079 0.128 0.028 0.047 0.070 0.119 0.091 0.159 0.023 0.040 0.047 0.079 0.055 0.085 0.006 0.006 0.032 0.047 0.053 0.091 0.023 0.045 0.059 0.102 0.081 0.125 0.021 0.026 0.038 0.057 0.038 0.074 0 0.015 0.008 0.028 0.017 0.028s0.028 0.026 0.043 0.057c0.013 0.034 0.045 0.093 0.070 0.134 0.389 0.642 0.448 0.72 0.606 0.79 0.185 0.081 0.399 0.062 0.569-0.049 0.159-0.106 0.24-0.302 0.217-0.523-0.013-0.138-0.085-0.293-0.28-0.599-0.125-0.2-0.191-0.306-0.246-0.406-0.017-0.030-0.072-0.123-0.125-0.208-0.051-0.085-0.104-0.172-0.115-0.191-0.085-0.14-0.242-0.406-0.287-0.482-0.312-0.531-0.459-0.718-0.61-0.778-0.094-0.036-0.291-0.040-0.391-0.008z"></path>
<path d="M22.064 5.31c-0.083 0.021-0.193 0.104-0.276 0.208-0.036 0.045-0.321 0.506-0.633 1.026-0.314 0.521-0.591 0.98-0.618 1.020-0.166 0.259-0.217 0.484-0.159 0.688 0.059 0.215 0.272 0.359 0.531 0.361 0.174 0.002 0.276-0.043 0.404-0.178 0.055-0.057 0.28-0.406 0.54-0.841 0.246-0.408 0.535-0.89 0.648-1.071 0.238-0.393 0.278-0.487 0.278-0.667 0-0.138-0.032-0.268-0.066-0.268-0.011 0-0.019-0.013-0.019-0.028 0-0.043-0.151-0.178-0.24-0.217-0.093-0.038-0.293-0.055-0.389-0.034z"></path>
<path d="M5.618 8.829c-0.302 0.149-0.423 0.478-0.289 0.782 0.070 0.157 0.157 0.221 0.737 0.546 0.036 0.019 0.1 0.057 0.142 0.083s0.085 0.047 0.093 0.045c0.008-0.002 0.021 0.004 0.028 0.015 0.015 0.019 0.021 0.023 0.289 0.178 0.106 0.062 0.268 0.155 0.361 0.21 0.196 0.115 0.355 0.206 0.446 0.251 0.036 0.019 0.068 0.040 0.074 0.049s0.093 0.057 0.191 0.111c0.236 0.123 0.355 0.14 0.538 0.081 0.255-0.085 0.376-0.238 0.393-0.504 0.008-0.13 0.002-0.17-0.043-0.268-0.057-0.123-0.176-0.24-0.344-0.336-0.051-0.030-0.145-0.083-0.206-0.119-0.064-0.036-0.287-0.166-0.497-0.289s-0.425-0.246-0.478-0.274c-0.053-0.030-0.136-0.079-0.187-0.111s-0.113-0.068-0.138-0.079c-0.026-0.013-0.062-0.030-0.079-0.043-0.128-0.085-0.353-0.212-0.376-0.212-0.015 0-0.028-0.006-0.028-0.017 0-0.015-0.187-0.121-0.215-0.121-0.008 0-0.023-0.006-0.032-0.017-0.008-0.008-0.074-0.015-0.147-0.015-0.096 0-0.157 0.015-0.236 0.053z"></path>
<path d="M27.453 8.827c-0.040 0.015-0.155 0.076-0.255 0.136-0.176 0.104-1.041 0.606-1.19 0.688-0.493 0.28-0.939 0.55-1.003 0.608-0.108 0.098-0.183 0.261-0.185 0.408-0.006 0.227 0.174 0.489 0.378 0.548 0.132 0.040 0.317 0.030 0.448-0.023 0.125-0.053 2.18-1.237 2.32-1.337 0.121-0.089 0.185-0.242 0.202-0.497 0.009-0.104 0-0.149-0.034-0.219-0.064-0.123-0.166-0.232-0.266-0.283-0.106-0.055-0.314-0.070-0.416-0.030z"></path>
<path d="M16.557 11.2c-1.228 0.119-2.342 0.784-3.024 1.81-0.463 0.699-0.684 1.424-0.684 2.246 0 0.665 0.145 1.26 0.446 1.855 1.041 2.044 3.483 2.841 5.51 1.798 0.901-0.463 1.598-1.245 1.963-2.201 0.087-0.227 0.191-0.644 0.227-0.899 0.036-0.259 0.032-0.858-0.009-1.12-0.185-1.171-0.814-2.161-1.787-2.815-0.778-0.521-1.725-0.763-2.643-0.674z"></path>
<path d="M6.895 13.567c-0.731 0.121-1.449 0.512-1.902 1.033-0.433 0.499-0.652 0.933-0.788 1.572-0.068 0.317-0.068 0.869 0 1.186 0.149 0.695 0.406 1.175 0.882 1.649 0.453 0.45 0.971 0.744 1.553 0.878 0.869 0.202 1.772 0.036 2.531-0.463 0.397-0.259 0.856-0.782 1.077-1.222 0.142-0.287 0.268-0.705 0.314-1.045 0.034-0.268 0.013-0.763-0.045-1.035-0.168-0.786-0.603-1.466-1.249-1.957-0.193-0.145-0.678-0.399-0.909-0.476-0.295-0.098-0.538-0.134-0.922-0.14-0.244-0.006-0.431 0.002-0.542 0.021z"></path>
<path d="M26.167 13.58c-1.079 0.13-2.029 0.795-2.514 1.761-0.108 0.215-0.242 0.616-0.293 0.882-0.055 0.285-0.051 0.844 0.009 1.126 0.142 0.665 0.427 1.207 0.875 1.662 0.261 0.268 0.512 0.448 0.839 0.612 0.312 0.155 0.497 0.221 0.818 0.289 0.321 0.070 0.909 0.070 1.232 0 0.999-0.212 1.804-0.829 2.252-1.723 0.108-0.217 0.238-0.603 0.289-0.863 0.053-0.266 0.053-0.841 0-1.103-0.091-0.461-0.291-0.931-0.55-1.3-0.164-0.234-0.523-0.593-0.752-0.756-0.37-0.261-0.89-0.482-1.32-0.557-0.236-0.043-0.667-0.057-0.886-0.030z"></path>
<path d="M12.93 20.845c-0.691 0.057-1.351 0.304-1.866 0.695-0.612 0.465-1.041 1.048-1.266 1.719-0.185 0.559-0.193 0.671-0.193 2.733v1.696h14.661v-1.73c0-1.723-0.009-1.991-0.076-2.329-0.049-0.244-0.168-0.578-0.306-0.861-0.482-0.994-1.453-1.702-2.603-1.897-0.166-0.028-0.708-0.032-4.175-0.036-2.191-0.002-4.069 0.002-4.175 0.011z"></path>
<path d="M4.135 21.165c-0.746 0.066-1.47 0.463-1.94 1.067-0.208 0.268-0.419 0.686-0.495 0.988-0.087 0.342-0.089 0.423-0.085 3.058v0.261h6.842v-1.145c0-0.629 0.011-1.243 0.021-1.364 0.072-0.731 0.312-1.407 0.714-1.999 0.21-0.31 0.329-0.45 0.644-0.746l0.151-0.142-2.83 0.002c-1.558 0.002-2.917 0.011-3.021 0.021z"></path>
<path d="M24.147 21.335c0.113 0.108 0.291 0.308 0.395 0.446 0.376 0.499 0.597 0.946 0.75 1.517 0.128 0.472 0.142 0.674 0.142 2.033v1.207h6.865l-0.008-1.483c-0.006-1.43-0.008-1.487-0.053-1.687-0.255-1.13-1.092-1.944-2.242-2.178-0.157-0.032-0.467-0.036-3.115-0.043l-2.941-0.009 0.206 0.195z"></path>
</svg>
