<!-- Generated by IcoMoon.io -->
<svg version="1.1" xmlns="http://www.w3.org/2000/svg" width="32" height="32" viewBox="0 0 32 32">
<title>Confiscated</title>
<path d="M30.813 0.625c0.813 2.25 0.688 4.375-0.25 6.375s-2.313 3.688-4.063 5.063c0 0 0.563 0.75 0.563 0.75 0.313 0.563 0.375 1.188 0.188 1.688 0 0-1.563 5.063-1.563 5.063-0.25 0.688-0.625 1.125-1.125 1.5 0 0-14.875 10.5-14.875 10.5-0.875 0.625-1.563 0.563-2-0.125 0 0-6.75-9.75-6.75-9.75-0.25-0.375-0.375-0.813-0.313-1.25 0.125-0.438 0.313-0.813 0.688-1.063 0 0 14.875-10.5 14.875-10.5 0.563-0.375 1.125-0.563 1.688-0.563 0 0 5.063 0 5.063 0 0.688 0 1.188 0.313 1.563 0.813 0 0 0.875 1.313 0.875 1.313 3.625-2.75 4.813-5.813 3.688-9.188-0.25-0.563-0.063-1 0.563-1.25 0.688-0.188 1.063 0.063 1.188 0.625M23.938 15.625c0.813-0.688 1.188-1.563 1.063-2.563 0 0-1 0.5-1 0.5-0.188 0.063-0.313 0.125-0.375 0.125-0.438 0-0.688-0.188-0.938-0.563-0.25-0.625-0.063-1.063 0.5-1.313 0 0 0.813-0.438 0.813-0.438-1.063-0.688-2-0.688-2.938 0-0.625 0.375-1 0.938-1.125 1.625-0.125 0.75 0.063 1.375 0.438 2 0.438 0.5 0.938 0.875 1.688 1 0.688 0.125 1.313 0 1.875-0.375"></path>
</svg>
