<!-- Generated by IcoMoon.io -->
<svg version="1.1" xmlns="http://www.w3.org/2000/svg" width="32" height="32" viewBox="0 0 32 32">
<title>Controlled-fire</title>
<path d="M25.324 11.828c-0.1 0-0.188-0.076-0.2-0.176-0.2-1.636-0.844-3.188-1.856-4.492-0.060-0.080-0.052-0.184 0.008-0.252 0.004-0.004 0.004-0.012 0.008-0.012l1.464-1.468-1.376-1.376-1.468 1.464c0 0.004-0.008 0.004-0.012 0.004-0.036 0.036-0.080 0.056-0.128 0.056-0.044 0-0.088-0.012-0.124-0.044-1.304-1.012-2.856-1.656-4.492-1.856-0.1-0.012-0.168-0.096-0.172-0.192 0-0.004-0.004-0.004-0.004-0.008v-2.076h-1.944v2.076c0 0.004-0.004 0.004-0.004 0.008-0.004 0.096-0.072 0.18-0.172 0.192-1.636 0.2-3.188 0.844-4.492 1.856-0.036 0.032-0.080 0.044-0.124 0.044-0.048 0-0.092-0.020-0.128-0.056-0.004 0-0.012 0-0.012-0.004l-1.468-1.464-1.376 1.376 1.464 1.468c0.004 0 0.004 0.008 0.008 0.012 0.060 0.068 0.068 0.172 0.008 0.252-1.012 1.304-1.656 2.856-1.856 4.492-0.012 0.1-0.1 0.176-0.2 0.176l-2.076-0v1.944h2.076c0.004 0 0.004 0.004 0.008 0.004 0.096 0 0.18 0.072 0.192 0.172 0.2 1.636 0.844 3.188 1.856 4.492 0.060 0.076 0.052 0.176 0 0.244-0.008 0.008-0.008 0.012-0.016 0.020l-1.464 1.468 1.376 1.376 1.468-1.464c0.004-0.008 0.008-0.004 0.012-0.008 0.072-0.060 0.176-0.068 0.252-0.008 1.304 1.012 2.856 1.656 4.492 1.856 0.1 0.012 0.168 0.096 0.172 0.192 0 0.004 0.004 0.004 0.004 0.008v2.076h1.944v-2.076c0-0.004 0.004-0.004 0.004-0.008 0.004-0.096 0.072-0.18 0.172-0.192 1.636-0.2 3.188-0.844 4.492-1.856 0.080-0.064 0.184-0.052 0.256 0.012 0.004 0 0.008 0 0.008 0.004l1.468 1.464 1.376-1.376-1.464-1.468c-0.004 0-0.004-0.004-0.004-0.008-0.064-0.068-0.076-0.176-0.012-0.256 1.012-1.304 1.656-2.856 1.856-4.492 0.012-0.1 0.096-0.168 0.192-0.172 0.004 0 0.004-0.004 0.008-0.004l2.076 0v-1.944zM16 20c-3.968 0-7.2-3.228-7.2-7.2s3.232-7.2 7.2-7.2 7.2 3.228 7.2 7.2-3.232 7.2-7.2 7.2z"></path>
<path d="M18.82 9.807s0.107 0.332 0.167 0.925c0.033 0.328 0.057 0.648 0.057 0.956 0 1.44-0.288 2.332-0.748 2.332-0.168 0-0.252-0.212-0.408-0.732-0.144-0.468-0.34-1.112-0.796-1.72-1.154-1.529-1.206-3.018-1.092-3.896 0.064-0.49 0.108-1.024 0.108-1.024s-0.722 0.331-1.209 1.052c-0.647 0.959-0.865 2.181-0.603 3.351 0.148 0.672 0.224 1.328 0.224 1.952 0 1.248-0.396 2.124-0.956 2.124-0.564 0-0.96-0.876-0.96-2.124 0-1.547 0.3-2.896 0.3-2.896s-1.3 1.37-1.576 3.62c-0.166 1.356 0.32 2.72 1.236 3.732 0.892 0.988 2.108 1.536 3.42 1.54h0.012c1.252 0 2.432-0.488 3.316-1.372 0.892-0.888 1.38-2.068 1.38-3.324 0-1.253-0.334-2.327-1.12-3.666-0.285-0.486-0.753-0.831-0.753-0.831z"></path>
<path d="M4.54 31.52c-0.069 0.036-0.141 0.063-0.216 0.081s-0.153 0.028-0.234 0.028c-0.243 0-0.436-0.068-0.578-0.204s-0.213-0.32-0.213-0.553 0.071-0.417 0.213-0.553c0.142-0.136 0.335-0.204 0.578-0.204 0.081 0 0.159 0.009 0.234 0.027s0.147 0.045 0.216 0.081v0.301c-0.070-0.047-0.139-0.082-0.206-0.104s-0.139-0.034-0.214-0.034c-0.134 0-0.24 0.043-0.316 0.129s-0.115 0.204-0.115 0.355c0 0.151 0.038 0.269 0.115 0.355s0.182 0.129 0.316 0.129c0.075 0 0.146-0.011 0.214-0.033s0.136-0.057 0.206-0.105z"></path>
<path d="M5.649 30.804c-0.031-0.014-0.062-0.025-0.092-0.031s-0.060-0.011-0.091-0.011c-0.090 0-0.159 0.029-0.208 0.086s-0.072 0.14-0.072 0.248v0.504h-0.35v-1.094h0.35v0.179c0.045-0.071 0.096-0.124 0.154-0.156s0.129-0.049 0.21-0.049c0.011 0 0.024 0.001 0.038 0.001s0.034 0.003 0.059 0.006z"></path>
<path d="M6.914 31.050v0.1h-0.818c0.009 0.082 0.038 0.143 0.089 0.184s0.122 0.061 0.214 0.061c0.073 0 0.149-0.011 0.226-0.032s0.156-0.055 0.238-0.099v0.269c-0.082 0.031-0.165 0.055-0.248 0.071s-0.166 0.024-0.248 0.024c-0.198 0-0.352-0.050-0.462-0.151s-0.164-0.242-0.164-0.424c0-0.179 0.054-0.319 0.161-0.421s0.256-0.154 0.445-0.154c0.172 0 0.309 0.052 0.413 0.156s0.155 0.241 0.155 0.414zM6.555 30.934c0-0.067-0.020-0.12-0.059-0.161s-0.089-0.061-0.151-0.061c-0.068 0-0.123 0.019-0.166 0.057s-0.068 0.093-0.079 0.165z"></path>
<path d="M7.668 31.108c-0.073 0-0.128 0.012-0.164 0.037s-0.055 0.061-0.055 0.109c0 0.044 0.015 0.079 0.044 0.104s0.071 0.037 0.124 0.037c0.066 0 0.121-0.024 0.166-0.071s0.068-0.106 0.068-0.177v-0.040zM8.203 30.976v0.624h-0.352v-0.162c-0.047 0.066-0.1 0.115-0.159 0.145s-0.13 0.046-0.214 0.046c-0.113 0-0.206-0.033-0.276-0.099s-0.106-0.152-0.106-0.257c0-0.129 0.044-0.223 0.132-0.282s0.227-0.090 0.416-0.090h0.206v-0.028c0-0.055-0.022-0.096-0.066-0.121s-0.111-0.039-0.204-0.039c-0.075 0-0.144 0.008-0.209 0.023s-0.124 0.037-0.18 0.067v-0.266c0.075-0.019 0.15-0.032 0.226-0.041s0.151-0.014 0.226-0.014c0.197 0 0.34 0.039 0.427 0.117s0.131 0.204 0.131 0.379z"></path>
<path d="M8.91 30.196v0.311h0.36v0.25h-0.36v0.464c0 0.051 0.010 0.086 0.030 0.104s0.060 0.026 0.12 0.026h0.18v0.25h-0.3c-0.138 0-0.236-0.029-0.294-0.086s-0.086-0.155-0.086-0.294v-0.464h-0.174v-0.25h0.174v-0.311z"></path>
<path d="M10.576 31.050v0.1h-0.818c0.009 0.082 0.038 0.143 0.089 0.184s0.122 0.061 0.214 0.061c0.073 0 0.149-0.011 0.226-0.032s0.156-0.055 0.238-0.099v0.269c-0.082 0.031-0.165 0.055-0.248 0.071s-0.166 0.024-0.248 0.024c-0.198 0-0.352-0.050-0.462-0.151s-0.164-0.242-0.164-0.424c0-0.179 0.054-0.319 0.161-0.421s0.256-0.154 0.445-0.154c0.172 0 0.309 0.052 0.413 0.156s0.155 0.241 0.155 0.414zM10.217 30.934c0-0.067-0.020-0.12-0.059-0.161s-0.089-0.061-0.151-0.061c-0.068 0-0.123 0.019-0.166 0.057s-0.068 0.093-0.079 0.165z"></path>
<path d="M11.585 30.666v-0.586h0.351v1.519h-0.351v-0.158c-0.048 0.064-0.101 0.111-0.159 0.141s-0.125 0.045-0.201 0.045c-0.135 0-0.246-0.054-0.332-0.161s-0.129-0.245-0.129-0.414 0.043-0.306 0.129-0.414c0.087-0.107 0.197-0.161 0.332-0.161 0.076 0 0.143 0.015 0.201 0.046s0.112 0.077 0.16 0.141zM11.354 31.374c0.075 0 0.132-0.027 0.171-0.082s0.059-0.134 0.059-0.238c0-0.104-0.020-0.184-0.059-0.239s-0.096-0.082-0.171-0.082c-0.074 0-0.131 0.027-0.171 0.082s-0.059 0.134-0.059 0.239c0 0.104 0.019 0.183 0.059 0.238s0.096 0.082 0.171 0.082z"></path>
<path d="M13.551 31.374c0.075 0 0.132-0.027 0.171-0.082s0.059-0.134 0.059-0.238c0-0.104-0.020-0.184-0.059-0.239s-0.097-0.082-0.171-0.082c-0.075 0-0.132 0.028-0.172 0.083s-0.060 0.134-0.060 0.238c0 0.103 0.020 0.183 0.060 0.238s0.097 0.082 0.172 0.082zM13.318 30.666c0.048-0.064 0.101-0.111 0.16-0.141s0.126-0.046 0.202-0.046c0.135 0 0.245 0.054 0.332 0.161s0.13 0.245 0.13 0.414-0.043 0.306-0.13 0.414c-0.087 0.107-0.197 0.161-0.332 0.161-0.076 0-0.144-0.015-0.202-0.046s-0.112-0.077-0.16-0.141v0.158h-0.35v-1.519h0.35z"></path>
<path d="M14.256 30.506h0.35l0.294 0.742 0.25-0.742h0.35l-0.46 1.197c-0.046 0.122-0.1 0.207-0.162 0.255s-0.143 0.073-0.244 0.073h-0.202v-0.229h0.109c0.059 0 0.102-0.010 0.129-0.029s0.048-0.052 0.064-0.101l0.009-0.030z"></path>
<path d="M17.12 30.081v0.229h-0.194c-0.050 0-0.084 0.009-0.104 0.027s-0.029 0.049-0.029 0.093v0.076h0.299v0.25h-0.299v0.844h-0.349v-0.844h-0.174v-0.25h0.174v-0.076c0-0.119 0.033-0.207 0.099-0.264s0.169-0.086 0.309-0.086z"></path>
<path d="M17.76 31.108c-0.073 0-0.128 0.012-0.164 0.037s-0.055 0.061-0.055 0.109c0 0.044 0.015 0.079 0.044 0.104s0.071 0.037 0.124 0.037c0.066 0 0.121-0.024 0.166-0.071s0.068-0.106 0.068-0.177v-0.040zM18.294 30.976v0.624h-0.352v-0.162c-0.047 0.066-0.1 0.115-0.159 0.145s-0.13 0.046-0.214 0.046c-0.113 0-0.206-0.033-0.276-0.099s-0.106-0.152-0.106-0.257c0-0.129 0.044-0.223 0.132-0.282s0.227-0.090 0.416-0.090h0.206v-0.028c0-0.055-0.022-0.096-0.066-0.121s-0.111-0.039-0.204-0.039c-0.075 0-0.144 0.008-0.209 0.023s-0.124 0.037-0.18 0.067v-0.266c0.075-0.019 0.15-0.032 0.226-0.041s0.151-0.014 0.226-0.014c0.198 0 0.34 0.039 0.427 0.117s0.131 0.204 0.131 0.379z"></path>
<path d="M19.433 30.804c-0.031-0.014-0.062-0.025-0.092-0.031s-0.060-0.011-0.091-0.011c-0.090 0-0.159 0.029-0.208 0.086s-0.072 0.14-0.072 0.248v0.504h-0.35v-1.094h0.35v0.179c0.045-0.071 0.096-0.124 0.154-0.156s0.129-0.049 0.21-0.049c0.011 0 0.024 0.001 0.038 0.001s0.034 0.003 0.059 0.006z"></path>
<path d="M20.419 30.804c-0.031-0.014-0.062-0.025-0.092-0.031s-0.060-0.011-0.091-0.011c-0.090 0-0.159 0.029-0.208 0.086s-0.072 0.14-0.072 0.248v0.504h-0.35v-1.094h0.35v0.179c0.045-0.071 0.096-0.124 0.154-0.156s0.129-0.049 0.21-0.049c0.011 0 0.024 0.001 0.038 0.001s0.034 0.003 0.059 0.006z"></path>
<path d="M21.083 31.108c-0.073 0-0.128 0.012-0.164 0.037s-0.055 0.061-0.055 0.109c0 0.044 0.015 0.079 0.044 0.104s0.071 0.037 0.124 0.037c0.066 0 0.121-0.024 0.166-0.071s0.068-0.106 0.068-0.177v-0.040zM21.617 30.976v0.624h-0.352v-0.162c-0.047 0.066-0.1 0.115-0.159 0.145s-0.13 0.046-0.214 0.046c-0.113 0-0.206-0.033-0.276-0.099s-0.106-0.152-0.106-0.257c0-0.129 0.044-0.223 0.132-0.282s0.227-0.090 0.416-0.090h0.206v-0.028c0-0.055-0.022-0.096-0.066-0.121s-0.111-0.039-0.204-0.039c-0.075 0-0.144 0.008-0.209 0.023s-0.124 0.037-0.18 0.067v-0.266c0.075-0.019 0.15-0.032 0.226-0.041s0.151-0.014 0.226-0.014c0.198 0 0.34 0.039 0.427 0.117s0.131 0.204 0.131 0.379z"></path>
<path d="M23.738 30.934v0.666h-0.352v-0.51c0-0.094-0.002-0.159-0.006-0.195s-0.011-0.062-0.021-0.079c-0.014-0.023-0.032-0.040-0.056-0.053s-0.050-0.019-0.080-0.019c-0.073 0-0.13 0.028-0.172 0.084s-0.062 0.134-0.062 0.234v0.538h-0.35v-1.094h0.35v0.16c0.052-0.064 0.108-0.111 0.167-0.141s0.125-0.046 0.197-0.046c0.126 0 0.222 0.039 0.287 0.116s0.099 0.19 0.099 0.338z"></path>
<path d="M24.051 31.174v-0.668h0.351v0.109c0 0.059-0.001 0.133-0.001 0.223s-0.001 0.149-0.001 0.179c0 0.088 0.002 0.151 0.006 0.19s0.013 0.067 0.024 0.084c0.014 0.023 0.033 0.041 0.056 0.053s0.050 0.019 0.080 0.019c0.073 0 0.13-0.028 0.171-0.084s0.063-0.134 0.063-0.234v-0.54h0.349v1.094h-0.349v-0.158c-0.053 0.063-0.109 0.11-0.168 0.141s-0.123 0.046-0.194 0.046c-0.127 0-0.223-0.039-0.289-0.116s-0.099-0.19-0.099-0.338z"></path>
<path d="M26.23 31.414c-0.048 0.064-0.101 0.111-0.159 0.141s-0.125 0.045-0.201 0.045c-0.133 0-0.244-0.052-0.331-0.158s-0.131-0.239-0.131-0.401c0-0.164 0.044-0.298 0.131-0.402s0.197-0.156 0.331-0.156c0.076 0 0.143 0.015 0.201 0.045s0.111 0.077 0.159 0.141v-0.162h0.351v0.984c0 0.176-0.056 0.31-0.166 0.402s-0.272 0.139-0.483 0.139c-0.069 0-0.135-0.005-0.199-0.016s-0.128-0.026-0.192-0.048v-0.272c0.061 0.035 0.121 0.061 0.18 0.079s0.117 0.026 0.176 0.026c0.115 0 0.199-0.025 0.252-0.075s0.080-0.128 0.080-0.235zM26 30.734c-0.072 0-0.128 0.027-0.169 0.081s-0.061 0.129-0.061 0.226c0 0.1 0.019 0.176 0.059 0.228s0.096 0.078 0.171 0.078c0.073 0 0.129-0.027 0.17-0.080s0.061-0.129 0.061-0.226c0-0.098-0.020-0.173-0.061-0.226s-0.097-0.081-0.17-0.081z"></path>
<path d="M27.731 30.804c-0.031-0.014-0.062-0.025-0.092-0.031s-0.060-0.011-0.091-0.011c-0.090 0-0.159 0.029-0.208 0.086s-0.072 0.14-0.072 0.248v0.504h-0.35v-1.094h0.35v0.179c0.045-0.071 0.096-0.124 0.154-0.156s0.129-0.049 0.21-0.049c0.011 0 0.024 0.001 0.038 0.001s0.034 0.003 0.059 0.006z"></path>
<path d="M28.394 31.108c-0.073 0-0.128 0.012-0.164 0.037s-0.055 0.061-0.055 0.109c0 0.044 0.015 0.079 0.044 0.104s0.071 0.037 0.124 0.037c0.066 0 0.121-0.024 0.166-0.071s0.068-0.106 0.068-0.177v-0.040zM28.928 30.976v0.624h-0.352v-0.162c-0.047 0.066-0.1 0.115-0.159 0.145s-0.13 0.046-0.214 0.046c-0.113 0-0.206-0.033-0.276-0.099s-0.106-0.152-0.106-0.257c0-0.129 0.044-0.223 0.132-0.282s0.227-0.090 0.416-0.090h0.206v-0.028c0-0.055-0.022-0.096-0.066-0.121s-0.111-0.039-0.204-0.039c-0.075 0-0.144 0.008-0.209 0.023s-0.124 0.037-0.18 0.067v-0.266c0.075-0.019 0.15-0.032 0.226-0.041s0.151-0.014 0.226-0.014c0.198 0 0.34 0.039 0.427 0.117s0.131 0.204 0.131 0.379z"></path>
<path d="M30.354 30.934v0.666h-0.352v-0.508c0-0.096-0.002-0.161-0.006-0.197s-0.011-0.062-0.021-0.079c-0.014-0.023-0.032-0.040-0.056-0.053s-0.050-0.019-0.080-0.019c-0.073 0-0.13 0.028-0.172 0.084s-0.062 0.134-0.062 0.234v0.538h-0.35v-1.519h0.35v0.586c0.052-0.064 0.108-0.111 0.167-0.141s0.125-0.046 0.197-0.046c0.126 0 0.222 0.039 0.287 0.116s0.099 0.19 0.099 0.338z"></path>
<path d="M31.168 31.108c-0.073 0-0.128 0.012-0.164 0.037s-0.055 0.061-0.055 0.109c0 0.044 0.015 0.079 0.044 0.104s0.071 0.037 0.124 0.037c0.066 0 0.121-0.024 0.166-0.071s0.068-0.106 0.068-0.177v-0.040zM31.702 30.976v0.624h-0.352v-0.162c-0.047 0.066-0.1 0.115-0.159 0.145s-0.13 0.046-0.214 0.046c-0.113 0-0.206-0.033-0.276-0.099s-0.106-0.152-0.106-0.257c0-0.129 0.044-0.223 0.132-0.282s0.227-0.090 0.416-0.090h0.206v-0.028c0-0.055-0.022-0.096-0.066-0.121s-0.111-0.039-0.204-0.039c-0.075 0-0.144 0.008-0.209 0.023s-0.124 0.037-0.18 0.067v-0.266c0.075-0.019 0.15-0.032 0.226-0.041s0.151-0.014 0.226-0.014c0.198 0 0.34 0.039 0.427 0.117s0.131 0.204 0.131 0.379z"></path>
</svg>
