<!-- Generated by IcoMoon.io -->
<svg version="1.1" xmlns="http://www.w3.org/2000/svg" width="32" height="32" viewBox="0 0 32 32">
<title>Cow</title>
<path d="M0.875-2.313h-0.188c0 0.125-0.063 0.188-0.188 0.188-0.188 0-0.25-0.125-0.25-0.313 0-0.25 0.063-0.375 0.25-0.375 0.125 0 0.188 0.063 0.188 0.188h0.188c0-0.188-0.188-0.313-0.375-0.313-0.25 0-0.438 0.188-0.438 0.5 0 0.25 0.188 0.438 0.438 0.438 0.188 0 0.375-0.125 0.375-0.313zM0.5-2.5v-0.188c-0.063 0-0.063 0-0.063 0-0.063 0-0.125 0.063-0.188 0.125v-0.125h-0.188v0.688h0.188v-0.375c0-0.125 0.063-0.125 0.188-0.125 0 0 0 0 0.063 0zM0.688-2.313c0-0.25-0.125-0.375-0.313-0.375-0.25 0-0.375 0.125-0.375 0.375 0 0.188 0.125 0.313 0.375 0.313 0.125 0 0.25-0.063 0.313-0.188h-0.188c0 0.063-0.063 0.063-0.125 0.063-0.125 0-0.188-0.063-0.188-0.188h0.5zM0.5-2.438h-0.313c0.063-0.063 0.063-0.125 0.188-0.125 0.063 0 0.125 0.063 0.125 0.125zM0.688-2v0c-0.063-0.063-0.063-0.063-0.063-0.125v-0.375c0-0.125-0.063-0.188-0.25-0.188s-0.313 0.063-0.313 0.25h0.188c0-0.125 0-0.125 0.125-0.125 0.063 0 0.063 0 0.063 0.063s-0.063 0.063-0.125 0.063l-0.063 0.063c-0.125 0-0.188 0.063-0.188 0.188s0.063 0.188 0.188 0.188c0.063 0 0.125 0 0.188-0.063 0 0 0 0.063 0.063 0.063zM0.438-2.313c0 0.125-0.063 0.188-0.125 0.188s-0.125-0.063-0.125-0.063c0-0.063 0.063-0.063 0.125-0.125h0.063c0.063 0 0.063 0 0.063 0zM0.375-2v-0.125c0 0 0 0 0 0-0.063 0-0.063 0-0.063-0.063v-0.375h0.063v-0.125h-0.063v-0.188h-0.188v0.188h-0.125v0.125h0.125v0.438c0 0.063 0.063 0.125 0.188 0.125 0 0 0.063 0 0.063 0zM0.688-2v-0.938h-0.188v0.313c0-0.063-0.063-0.063-0.188-0.063s-0.25 0.125-0.25 0.313c0 0.25 0.063 0.375 0.25 0.375 0.125 0 0.188 0 0.188-0.063v0.063zM0.5-2.313c0 0.125-0.063 0.188-0.125 0.188-0.125 0-0.188-0.063-0.188-0.25 0-0.125 0.063-0.188 0.188-0.188 0.063 0 0.125 0.063 0.125 0.25zM0.75-2.313c0-0.25-0.125-0.375-0.313-0.375-0.063 0-0.125 0-0.188 0.063v-0.313h-0.188v0.938h0.188v-0.063c0.063 0.063 0.125 0.063 0.188 0.063 0.188 0 0.313-0.125 0.313-0.313zM0.563-2.375c0 0.125-0.063 0.25-0.125 0.25-0.125 0-0.188-0.063-0.188-0.25 0-0.125 0.063-0.188 0.188-0.188 0.063 0 0.125 0.063 0.125 0.188zM0.688-2.688h-0.188l-0.125 0.5-0.188-0.5h-0.188l0.25 0.688v0.063c0 0.063 0 0.063-0.063 0.063s-0.063 0-0.063 0v0.125c0 0 0 0 0.063 0 0.125 0 0.188 0 0.188-0.125zM0.875-2l-0.313-0.938h-0.188l-0.313 0.938h0.188l0.063-0.188h0.313l0.063 0.188zM0.563-2.375h-0.188l0.063-0.313zM0.688-2v-0.688h-0.188v0.125c0-0.125-0.063-0.125-0.188-0.125s-0.25 0.125-0.25 0.375c0 0.188 0.125 0.313 0.25 0.313s0.125 0 0.188-0.063v0.063c0 0.125-0.063 0.188-0.125 0.188s-0.125-0.063-0.125-0.125h-0.188c0 0.125 0.125 0.188 0.313 0.188s0.313-0.063 0.313-0.25zM0.5-2.313c0 0.125-0.063 0.188-0.125 0.188s-0.125-0.063-0.125-0.188c0-0.188 0.063-0.25 0.125-0.25s0.125 0.063 0.125 0.25zM0.688-2v-0.438c0-0.188-0.063-0.25-0.25-0.25-0.063 0-0.125 0-0.188 0.125v-0.125h-0.188v0.688h0.188v-0.438c0-0.063 0.063-0.125 0.125-0.125 0.125 0 0.125 0.063 0.125 0.125v0.438zM0.25-2v-0.688h-0.188v0.688zM0.25-2.75v-0.188h-0.188v0.188zM0.25-1.875v-0.813h-0.188v0.75c0 0.063 0 0.063 0 0.063-0.063 0-0.063 0-0.063 0v0.125c0.063 0 0.063 0 0.125 0 0.125 0 0.125 0 0.125-0.125zM0.25-2.75v-0.188h-0.188v0.188zM0.688-2v-0.438c0-0.188-0.063-0.25-0.25-0.25-0.063 0-0.125 0-0.188 0.125v-0.375h-0.188v0.938h0.188v-0.438c0-0.063 0.063-0.125 0.125-0.125s0.125 0.063 0.125 0.125v0.438zM0.375-2.563v-0.125h-0.063v-0.063c0-0.063 0-0.063 0-0.063 0.063 0 0.063 0 0.063 0v-0.125c0 0-0.063 0-0.063 0-0.125 0-0.188 0.063-0.188 0.188v0.063h-0.125v0.125h0.125v0.563h0.188v-0.563zM0.75-2.313c0-0.25-0.125-0.375-0.375-0.375-0.188 0-0.313 0.125-0.313 0.313 0 0.25 0.125 0.375 0.313 0.375 0.25 0 0.375-0.125 0.375-0.313zM0.563-2.313c0 0.125-0.063 0.188-0.188 0.188-0.063 0-0.125-0.063-0.125-0.25 0-0.125 0.063-0.188 0.125-0.188 0.125 0 0.188 0.063 0.188 0.25zM1.063-2v-0.5c0-0.125-0.063-0.188-0.25-0.188-0.063 0-0.125 0-0.188 0.063 0-0.063-0.125-0.063-0.188-0.063s-0.125 0-0.188 0.063v-0.063h-0.188v0.688h0.188v-0.438c0-0.063 0.063-0.125 0.125-0.125s0.125 0.063 0.125 0.125v0.438h0.125v-0.438c0-0.063 0.063-0.125 0.125-0.125s0.125 0.063 0.125 0.125v0.438zM0.875-2v-0.938h-0.25v0.625l-0.313-0.625h-0.25v0.938h0.188v-0.625l0.375 0.625zM0.688-2v-0.688h-0.188v0.438c0 0.063-0.063 0.125-0.125 0.125s-0.125-0.063-0.125-0.125v-0.438h-0.188v0.438c0 0.188 0.125 0.25 0.25 0.25 0.063 0 0.125 0 0.188-0.063v0.063zM0.813-2.625c0-0.188-0.125-0.313-0.313-0.313h-0.375v0.938h0.188v-0.313h0.188c0.188 0 0.313-0.125 0.313-0.313zM0.625-2.625c0 0.063-0.063 0.125-0.125 0.125h-0.188v-0.25h0.188c0.063 0 0.125 0 0.125 0.125zM0.688-2.25h-0.188c0 0.063-0.063 0.125-0.125 0.125-0.125 0-0.125-0.063-0.125-0.188s0-0.25 0.125-0.25c0.063 0 0.125 0.063 0.125 0.125h0.188c-0.063-0.188-0.125-0.25-0.313-0.25s-0.313 0.125-0.313 0.375c0 0.188 0.125 0.313 0.313 0.313s0.25-0.063 0.313-0.25zM18.438 15.5c-0.188-0.438-1.063 0.125-1.5-0.188-0.375-0.188-0.813-0.188-0.938-0.188s-0.563 0-0.938 0.188c-0.438 0.313-1.313-0.25-1.5 0.188-0.188 0.5-0.125 1.938 0.75 2.125 0.813 0.188 0.875 0.438 1.688 0.438v0c0 0 0 0 0 0s0 0 0 0v0c0.813 0 0.875-0.25 1.688-0.438 0.875-0.188 0.938-1.625 0.75-2.125zM27.313 5.25c-0.438-0.313-1.063-0.75-1.813-1-1-0.313-2.5 0.438-3.125 0.75-0.188 0.125-0.375 0.063-0.5-0.125-0.313-0.563-1.125-1.75-2.313-2.313 0 0-0.75-0.438-1.688-0.375s-0.938 0.375-1.875 0.375c-0.938 0-0.938-0.313-1.875-0.375s-1.688 0.375-1.688 0.375c-1.188 0.563-2 1.75-2.313 2.313-0.125 0.188-0.313 0.25-0.5 0.125-0.625-0.313-2.125-1.063-3.125-0.75-0.75 0.25-1.375 0.688-1.813 1-0.25 0.188-0.313 0.563-0.063 0.813 0.5 0.563 1.063 1 1.688 1.25 0.313-0.125 0.313-0.5 0.313-0.5 0-0.188 0.063-0.313 0.188-0.438s0.25-0.188 0.438-0.188c0.375 0 0.625 0.25 0.625 0.625 0 0.5 0.375 0.5 0.5 0.5 0.313 0 0.625 0.188 0.75 0.5 0.188-0.063 0.313-0.063 0.438-0.063 0.188 0 0.375 0.125 0.375 0.375 0.063 1.25 0.813 2.438 1.938 4.063 1.313 1.813 0.5 2 0.813 4.75 0.25 2.563 2.938 2.5 3.313 2.5s3.063 0.063 3.313-2.5c0.313-2.75-0.5-2.938 0.813-4.75 1.125-1.625 1.875-2.813 1.938-4.063 0-0.25 0.188-0.375 0.375-0.375 0.938 0.063 3.438 0.125 4.938-1.688 0.25-0.25 0.188-0.625-0.063-0.813zM17.438 10.563c-0.688 1.438-0.313 3.438 0.5 3.938 0.875 0.5 0.938 1 0.938 1 0.125 0.625 0.063 2.25-0.938 2.438-0.938 0.188-1 0.5-1.938 0.5v0c0 0 0 0 0 0s0 0 0 0v0c-0.938 0-1-0.313-1.938-0.5-1-0.188-1.063-1.813-0.938-2.438 0 0 0.063-0.5 0.938-1 0.813-0.5 1.188-2.5 0.5-3.938-0.625-1.25-1.938-4.25-2.125-7.188 0-0.813 0.688-0.813 0.813-0.813 0.375 0.063 0.75 0.125 1.125 0.313 0.75 0.438 1.5 0.438 1.625 0.438s0.813 0 1.625-0.438c0.375-0.188 0.75-0.25 1.125-0.313 0.125 0 0.813 0 0.813 0.813-0.188 2.938-1.5 5.938-2.125 7.188zM9 8.25c0-0.375-0.313-0.688-0.625-0.688-0.75 0-0.75-0.75-0.75-0.75 0-0.188-0.188-0.375-0.375-0.375s-0.375 0.188-0.375 0.375c0 0 0 0.75-0.688 0.813-0.375 0-0.625 0.25-0.625 0.625v0.938c0 0.375 0.25 0.625 0.625 0.625h2.188c0.313 0 0.625-0.25 0.625-0.625zM7.25 6.938c-0.063 0-0.125-0.063-0.125-0.125s0.063-0.125 0.125-0.125c0.063 0 0.125 0.063 0.125 0.125s-0.063 0.125-0.125 0.125z"></path>
</svg>
