<svg xmlns="http://www.w3.org/2000/svg" xmlns:xlink="http://www.w3.org/1999/xlink" version="1.1" x="0px" y="0px" viewBox="0 0 32 40" style="enable-background:new 0 0 32 32;" xml:space="preserve"><path d="M25.9430904,6.2315502c0.127491-0.244689,0.0324821-0.5464001-0.2122078-0.6738906  c-0.0024967-0.0013008-0.0050049-0.0025811-0.0075226-0.0038395l-2.9990005-1.5009999  c-0.2053432-0.1026673-0.454216-0.0523295-0.6035194,0.1220698L19.32761,7.4345598  c-0.1584492-0.0749998-0.3023701-0.14112-0.41675-0.1893301c-0.447794-0.1929646-0.9621391-0.1512623-1.3729992,0.11132  c-3.8204403,2.4332299-9.7424402,7.9293294-10.8403997,8.9886494c-0.0237999,0.0205708-0.0450001,0.04352-0.0675001,0.0657406  c-0.02387,0.0233097-0.0596299,0.0576801-0.0755,0.0735397c-0.0184531,0.0228558-0.0347395,0.0473766-0.0486498,0.0732498  c-0.1945724,0.2522564-0.3168402,0.552702-0.3537002,0.8691406l-0.1348009,1.0781288  c-0.0886607,1.1766644,0.5086699,2.2990799,1.5341797,2.8828011L19.67449,27.8096809  c0.2230167,0.1228294,0.4729519,0.1885853,0.727541,0.1914101c0.2006226,0.0003262,0.3986797-0.0450993,0.5791092-0.1328201  c0.4214115-0.2230854,0.7159958-0.6284866,0.7980003-1.0981998l0.0037804-0.0053101  c1.213438-5.102087,2.1697216-10.2619267,2.8652401-15.46c0.0635071-0.5465775-0.1831627-1.0829353-0.6394691-1.3904505  c0.0159302-0.0213604,0.0408306-0.0324001,0.0535297-0.0568199L25.9430904,6.2315502z M22.6266804,5.12218l2.1953201,1.09863  l-1.6464901,3.1757803c-0.0056801,0.0108099-0.0049992,0.0226498-0.0097599,0.0337  c-0.8505898-0.4593601-1.9769306-1.0606098-2.9135799-1.53754L22.6266804,5.12218z M20.5456314,26.9678802  c-0.1330967,0.0504017-0.2821541,0.0352116-0.4023495-0.0410004L8.0202398,20.5049992  c-0.6606851-0.3876362-1.050426-1.111021-1.0107398-1.8759995l0.1347599-1.0781307  c0.0046382-0.2051582,0.1107283-0.394659,0.2831998-0.5058594c0.0645375-0.0309544,0.1354365-0.0463409,0.2069998-0.04492  c0.1614318,0.006937,0.3184133,0.0550079,0.4560499,0.1396503l7.3455801,4.1849995  c-0.2980175,0.5824528-0.3073626,1.2705688-0.0252705,1.8609009c0.4271021,0.8290825,1.2629271,1.3684368,2.1943407,1.4160004  c0.0341797,0.0020008,0.0683594,0.0020008,0.1035099,0.0020008c0.7211666-0.0036621,1.3942337-0.362381,1.7993793-0.9589996  l0.809,0.4609394c0.4886646,0.3391209,0.7444439,0.9247246,0.6611404,1.51367l-0.1660004,0.9111309  C20.7960606,26.7096844,20.6975746,26.8713284,20.5456314,26.9678802z M16.294632,21.8138313l2.3390503,1.3326397  c-0.2345486,0.3035355-0.6022758,0.4737587-0.9854698,0.4561806c-0.5650597-0.0310097-1.0726471-0.3555698-1.3378906-0.8554707  c-0.1451225-0.2929726-0.150898-0.6356544-0.0157318-0.9333515L16.294632,21.8138313z M21.4677315,23.839592  c-0.1745377-0.2441158-0.3977032-0.4494705-0.6554604-0.6031494l-12.227581-6.9658222  c-0.0767908-0.0397644-0.1559381-0.0748024-0.2370005-0.1049194c3.0439281-2.8883057,6.294673-5.5505152,9.7263098-7.9654007  c0.1343174-0.0857601,0.3027534-0.0982361,0.4482403-0.0332003c0.9423809,0.39746,3.7265606,1.90137,4.8808594,2.5292997  c0.1782703,0.0942049,0.2791481,0.2893419,0.2529297,0.4892597c-0.2569485,2.1314707-1.3132191,8.5734806-2.1883392,12.6539307  L21.4677315,23.839592z"/><text x="0" y="47" fill="#000000" font-size="5px" font-weight="bold" font-family="'Helvetica Neue', Helvetica, Arial-Unicode, Arial, Sans-serif">Created by Valerie Lamm</text><text x="0" y="52" fill="#000000" font-size="5px" font-weight="bold" font-family="'Helvetica Neue', Helvetica, Arial-Unicode, Arial, Sans-serif">from the Noun Project</text></svg>