<svg xmlns="http://www.w3.org/2000/svg" xmlns:xlink="http://www.w3.org/1999/xlink" version="1.1" x="0px" y="0px" viewBox="0 0 100 125" enable-background="new 0 0 100 100" xml:space="preserve"><path d="M70.046,38.61L70.046,38.61c0,6.835-3.92,12.574-9.406,16.724c-4.56,3.45-8.618,9.342-8.618,15.529l0.025,21.731h5.855  c1.329,0,2.407,1.078,2.407,2.407H46.584c0-1.329,1.078-2.407,2.407-2.407h0.649V62.019L29.47,74.278l-0.231-0.848  c-1.031-3.786-0.971-7.791,0.196-11.537C35.366,42.86,42.73,36.501,45.717,34.455c3.678-2.519,8.485-2.616,11.925,0.221  c0.77,0.634,1.496,1.232,2.087,1.717c0.366,0.305,0.814,0.455,1.255,0.455c0.536,0,1.069-0.217,1.459-0.641  c0.757-0.828,0.675-2.117-0.18-2.843l-1.599-1.352c-4.102-3.468-5.4-9.701-3.377-14.411c0.851-1.982,2.32-3.291,4.413-3.291  c2.33,0,4.243,1.776,4.465,4.047l4.696,1.412l0.628,1.728h-6.211c-0.819,1.084-2.115,1.787-3.578,1.787  c-0.153,0-0.305-0.008-0.454-0.023c-0.135,1.413,0.437,2.83,1.571,3.754c0.926,0.754,2.05,1.694,3.232,2.736  C68.593,31.991,70.046,35.221,70.046,38.61z M63.954,12.299L67.955,8.3c-0.273-0.273-0.562-0.536-0.859-0.78l-3.593,4.37  C63.658,12.017,63.81,12.155,63.954,12.299z M55.255,12.299c0.136-0.136,0.28-0.268,0.428-0.391l-3.614-4.352  c-0.282,0.234-0.556,0.484-0.814,0.742c-0.257,0.256-0.504,0.527-0.735,0.805l4.348,3.619C54.99,12.577,55.119,12.435,55.255,12.299  z M63.669,5.56C62.982,5.308,62.267,5.12,61.543,5l-0.924,5.581c0.377,0.062,0.749,0.16,1.106,0.291L63.669,5.56z M58.56,10.586  L57.606,5.01c-0.723,0.124-1.437,0.316-2.123,0.571l1.972,5.302C57.812,10.75,58.184,10.651,58.56,10.586z M53.826,18.763  c-0.13-0.357-0.228-0.729-0.29-1.107l-5.582,0.922c0.119,0.724,0.307,1.439,0.558,2.125L53.826,18.763z M53.841,14.494l-5.301-1.975  c-0.255,0.685-0.447,1.399-0.572,2.121l5.575,0.96C53.608,15.223,53.708,14.851,53.841,14.494z M50.476,24.141  c0.243,0.296,0.505,0.584,0.778,0.857L55.256,21c-0.145-0.145-0.283-0.297-0.411-0.452L50.476,24.141z"/><text x="0" y="115" fill="#000000" font-size="5px" font-weight="bold" font-family="'Helvetica Neue', Helvetica, Arial-Unicode, Arial, Sans-serif">Created by Laymik</text><text x="0" y="120" fill="#000000" font-size="5px" font-weight="bold" font-family="'Helvetica Neue', Helvetica, Arial-Unicode, Arial, Sans-serif">from the Noun Project</text></svg>