<!-- Generated by IcoMoon.io -->
<svg version="1.1" xmlns="http://www.w3.org/2000/svg" width="32" height="32" viewBox="0 0 32 32">
<title>Crocodile</title>
<path d="M13.75 15.313c0 0.188-0.188 0.375-0.375 0.375s-0.375-0.188-0.375-0.375c0-0.25 0.188-0.438 0.375-0.438s0.375 0.188 0.375 0.438zM23.438 7.438h-4.438c-1.688 0-3.125-1.25-3.313-2.938 0-0.188-0.188-0.375-0.375-0.375-0.25 0-0.438 0.188-0.438 0.438v1.625c0 1.813 0.688 3.5 2 4.75 1.25 1.313 2.938 2 4.75 2h8.563c0.063 0.188 0.125 0.438 0.188 0.625h-13.438c-0.813 0-1.563 0.25-2.25 0.625-0.313-0.375-0.875-0.625-1.438-0.625-0.75 0.063-1.375 0.625-1.563 1.375-0.063 0.25-0.063 0.5 0 0.75l-5.875 0.875h-0.063c-0.188 0.063-0.375 0-0.563-0.125-0.25-0.25-0.5-0.438-0.813-0.563-0.375-0.188-0.688-0.25-1.063-0.25h-0.5c-1.25 0-2.25 1.063-2.25 2.313v1.875c0 1.25 1 2.25 2.25 2.25h9.875c0.813 0 1.563-0.25 2.188-0.75 0.75-0.563 1.375-1.313 1.75-2.188 0.188-0.313 0.313-0.625 0.438-1 0.125-0.438 0.188-0.875 0.188-1.313 0.063-0.25-0.125-0.438-0.375-0.438v0c-0.188 0-0.375 0.188-0.438 0.375 0 0.313-0.063 0.563-0.125 0.875h-0.875c-0.688 0-1.438 0.063-2.125 0.125-0.625 0.125-1.313 0.25-1.938 0.438v-0.313c0-0.25-0.188-0.438-0.375-0.438-0.25 0-0.438 0.188-0.438 0.438v0.563c-0.625 0.125-1.25 0.25-1.875 0.313v-0.5c0-0.25-0.188-0.438-0.438-0.438-0.188 0-0.375 0.188-0.375 0.438v0.563c-0.188 0-0.313 0-0.438 0h-1.313v-0.563c0-0.25-0.188-0.438-0.438-0.438-0.188 0-0.375 0.188-0.375 0.438v0.563h-1.75v-0.563c0-0.25-0.188-0.438-0.438-0.438-0.188 0-0.375 0.188-0.375 0.438v0.563h-0.5c-0.5 0-0.875-0.375-0.875-0.813v-0.063c0-0.813 0.625-1.5 1.438-1.5h0.5c0.25 0 0.5 0.063 0.75 0.188 0.188 0.063 0.375 0.188 0.563 0.375 0.375 0.375 0.875 0.5 1.313 0.375l6.188-0.938c0.188 0.25 0.438 0.375 0.75 0.5 0.25 0.063 0.5-0.125 0.5-0.438 0-0.125-0.125-0.313-0.313-0.375-0.438-0.125-0.75-0.625-0.5-1.188 0.125-0.313 0.438-0.563 0.813-0.563 0.5 0 0.813 0.25 0.875 0.75 0.063 0.188 0.188 0.313 0.375 0.313v0c0.25 0 0.5-0.188 0.438-0.438 0-0.063 0-0.063 0-0.063 0.563-0.375 1.188-0.563 1.875-0.563h13.625c0.063 0.375 0.063 0.75 0.063 1.063v1.063c0 0.188 0.188 0.375 0.438 0.375 0.188 0 0.375-0.188 0.375-0.375v-1.063c0-4.375-3.563-8-8-8zM2.25 19.625h1.75v0.625c0 0.25 0.188 0.375 0.438 0.375 0.188 0 0.375-0.125 0.375-0.375v-0.625h1.813v0.625c0 0.25 0.188 0.375 0.375 0.375 0.25 0 0.438-0.125 0.438-0.375v-0.625c0.625 0 1.25-0.063 1.813-0.125v0.75c0 0.25 0.188 0.375 0.438 0.375 0.188 0 0.375-0.125 0.375-0.375v-0.875c0.5-0.125 1-0.25 1.5-0.375 0.125-0.063 0.25-0.063 0.438-0.125v0.5c0 0.25 0.188 0.438 0.375 0.438 0.25 0 0.438-0.188 0.438-0.438v-0.688c0.188-0.063 0.438-0.063 0.625-0.125 0.688-0.125 1.313-0.125 2-0.125h0.625c0 0.125-0.063 0.25-0.125 0.375-0.375 0.688-0.938 1.375-1.563 1.875-0.5 0.375-1.063 0.563-1.688 0.563h-9.875c-0.813 0-1.438-0.625-1.438-1.438v-0.438c0.25 0.188 0.563 0.25 0.875 0.25zM21.625 12.125c-1.625 0-3.063-0.625-4.188-1.75-0.75-0.688-1.25-1.625-1.5-2.563 0.25 0.438 0.563 0.813 0.938 1.188 1.125 1.125 2.688 1.813 4.313 1.938 0.188 0 0.438-0.188 0.438-0.438 0-0.188-0.188-0.375-0.375-0.375-1.438-0.125-2.813-0.688-3.813-1.75-0.25-0.25-0.5-0.5-0.688-0.813 0.625 0.438 1.438 0.688 2.25 0.688h4.438c2.75 0 5.188 1.563 6.375 3.875zM23.438 10.938h0.813c0.188 0 0.375-0.188 0.375-0.375 0-0.25-0.188-0.438-0.375-0.438h-0.813c-0.188 0-0.375 0.188-0.375 0.438 0 0.188 0.188 0.375 0.375 0.375zM28.438 21.25c-0.188-1-1.063-1.688-2.063-1.688-1.063 0-1.938 0.75-2.125 1.688h-3.063c-0.188-0.938-1.063-1.688-2.063-1.688-1.063 0-1.938 0.75-2.125 1.688h-0.75c-0.25 0-0.438 0.188-0.438 0.438 0 0.188 0.188 0.375 0.438 0.375h0.688v1h-0.688c-0.25 0-0.438 0.125-0.438 0.375s0.188 0.438 0.438 0.438h5v-1.813h2.938v1h-0.75c-0.188 0-0.375 0.125-0.375 0.375s0.188 0.438 0.375 0.438h5.063v-1.813c1.5-0.188 2.688-1.375 2.938-2.875 0-0.25-0.188-0.5-0.438-0.5-0.188 0-0.375 0.188-0.375 0.375-0.188 1.125-1.063 2-2.188 2.188zM20.438 23.063h-2.688v-1.313c0-0.688 0.563-1.313 1.25-1.375 0.75-0.063 1.438 0.563 1.438 1.313zM27.688 23.063h-2.688v-1.313c0-0.688 0.5-1.313 1.25-1.375s1.438 0.563 1.438 1.313zM22.875 17l2.125 1.25 2.063-1.25 1.563 0.875c0.188 0.125 0.438 0.063 0.563-0.125s0.063-0.438-0.125-0.563l-2-1.188-2.063 1.25-2.125-1.25-2.063 1.25-1.563-0.875c-0.188-0.125-0.438-0.063-0.563 0.125-0.063 0.188 0 0.438 0.188 0.563l1.938 1.188z"></path>
</svg>
