<?xml version="1.0" standalone="no"?>
<!DOCTYPE svg PUBLIC "-//W3C//DTD SVG 20010904//EN"
 "http://www.w3.org/TR/2001/REC-SVG-20010904/DTD/svg10.dtd">
<svg version="1.0" xmlns="http://www.w3.org/2000/svg"
 width="648.000000pt" height="648.000000pt" viewBox="0 0 648.000000 648.000000"
 preserveAspectRatio="xMidYMid meet">

<g transform="translate(0.000000,648.000000) scale(0.100000,-0.100000)"
fill="#000000" stroke="none">
<path d="M2896 6053 c-3 -21 -6 -54 -6 -73 0 -20 -4 -40 -10 -46 -5 -5 -12
-78 -16 -162 -4 -83 -11 -152 -16 -152 -11 0 -11 -217 0 -224 5 -3 12 -54 15
-113 3 -60 11 -109 17 -111 5 -2 10 -19 10 -38 0 -19 5 -34 11 -34 6 0 9 -7 5
-15 -3 -8 -1 -15 4 -15 6 0 10 -6 10 -14 0 -7 7 -27 15 -42 8 -16 15 -37 15
-46 0 -10 5 -18 10 -18 6 0 10 -9 10 -19 0 -11 7 -26 15 -35 8 -8 15 -19 15
-25 0 -6 5 -11 11 -11 5 0 7 -4 4 -10 -3 -5 -1 -10 4 -10 6 0 11 -7 11 -15 0
-8 4 -15 10 -15 5 0 12 -11 16 -25 3 -14 10 -25 14 -25 5 0 12 -10 15 -21 4
-12 23 -37 41 -56 19 -18 34 -37 34 -41 1 -18 226 -222 245 -222 4 0 21 -10
38 -22 42 -30 63 -43 117 -68 25 -11 52 -25 61 -29 9 -5 41 -15 72 -22 l57
-14 0 -288 0 -288 -22 7 c-12 3 -48 29 -81 55 -32 27 -62 49 -68 49 -11 0
-219 169 -264 215 -17 16 -44 42 -60 56 -42 37 -134 141 -157 178 -11 17 -24
31 -28 31 -4 0 -11 11 -14 25 -4 14 -11 25 -16 25 -6 0 -10 7 -10 15 0 8 -4
15 -9 15 -9 0 -191 291 -191 304 0 3 -22 42 -50 86 -27 44 -50 83 -50 86 0 12
-182 308 -199 324 -9 8 -34 38 -56 65 -50 63 -72 82 -112 100 -17 8 -34 19
-38 25 -6 10 -116 64 -155 75 -14 4 -30 11 -36 16 -13 10 -175 39 -220 39 -18
0 -36 5 -39 10 -8 13 -258 13 -270 1 -6 -5 -25 -11 -43 -13 l-34 -3 41 -30
c22 -16 41 -36 41 -42 0 -7 4 -13 10 -13 11 0 111 -100 183 -183 70 -80 207
-306 207 -342 0 -8 5 -15 10 -15 6 0 10 -10 10 -23 0 -13 5 -28 12 -35 7 -7 9
-12 5 -12 -4 0 2 -16 13 -35 11 -20 20 -43 20 -53 0 -9 13 -44 30 -76 16 -33
32 -72 35 -88 4 -15 11 -28 16 -28 5 0 9 -7 9 -15 0 -8 4 -15 9 -15 5 0 13
-10 16 -22 9 -33 38 -88 46 -88 4 0 10 -11 13 -25 4 -14 11 -25 16 -25 6 0 10
-6 10 -14 0 -8 7 -16 15 -20 8 -3 15 -10 15 -16 0 -9 26 -43 63 -82 9 -10 17
-20 17 -23 0 -13 194 -195 224 -209 19 -9 38 -21 42 -27 3 -6 21 -18 38 -26
47 -22 113 -58 128 -70 7 -6 31 -16 53 -22 22 -7 47 -15 55 -18 8 -4 17 -7 20
-8 3 -1 16 -6 30 -12 14 -6 43 -13 65 -17 22 -5 45 -12 51 -17 5 -4 55 -16
110 -25 54 -9 107 -20 116 -25 9 -4 85 -13 170 -19 84 -6 177 -14 206 -16 l52
-5 0 -186 c0 -150 -3 -184 -13 -180 -8 3 -45 8 -83 12 -38 4 -73 11 -79 15 -5
4 -48 13 -95 20 -47 7 -89 15 -95 19 -5 3 -14 6 -20 6 -5 1 -17 4 -25 7 -8 4
-44 12 -80 18 -36 7 -70 16 -76 21 -7 5 -16 9 -20 8 -5 -1 -16 0 -24 3 -8 4
-37 12 -65 19 -27 6 -54 15 -60 19 -5 4 -37 15 -70 25 -33 9 -64 20 -70 25 -5
4 -36 15 -67 25 -32 10 -58 21 -58 25 0 4 -19 12 -42 19 -24 7 -50 19 -58 25
-8 7 -31 19 -50 26 -19 8 -41 20 -48 27 -7 7 -19 13 -26 13 -7 0 -21 9 -31 20
-10 11 -23 20 -29 20 -7 0 -27 13 -46 30 -19 16 -40 29 -46 30 -14 0 -350 274
-413 336 -24 24 -48 44 -53 44 -4 0 -8 5 -8 11 0 5 -27 38 -60 71 l-59 61 6
-54 c3 -30 9 -58 14 -63 5 -6 9 -25 9 -42 0 -18 4 -35 9 -38 5 -3 12 -33 16
-66 4 -33 11 -60 15 -60 4 0 11 -22 15 -50 4 -27 11 -50 16 -50 5 0 9 -10 9
-22 0 -13 14 -50 30 -83 16 -33 30 -68 30 -77 0 -10 5 -18 10 -18 6 0 10 -7
10 -15 0 -26 106 -212 150 -262 11 -13 20 -26 20 -31 0 -4 18 -24 40 -45 22
-20 40 -39 40 -42 0 -3 17 -22 38 -43 49 -49 302 -256 302 -247 0 4 20 -9 44
-29 24 -20 47 -36 50 -36 3 0 29 -15 59 -32 85 -53 87 -54 202 -112 125 -62
184 -88 236 -105 20 -6 53 -20 74 -31 21 -11 55 -23 74 -26 20 -4 41 -10 46
-14 6 -4 35 -13 65 -20 30 -7 62 -15 70 -18 8 -3 20 -6 25 -7 6 0 15 -3 21 -7
5 -4 58 -12 117 -19 l107 -13 0 -371 0 -372 -67 -6 c-38 -4 -89 -7 -115 -7
-26 0 -50 -5 -53 -11 -4 -6 -44 -9 -101 -8 -52 1 -98 -1 -101 -5 -9 -8 -478
-8 -486 1 -4 3 -34 5 -66 4 -33 -1 -67 2 -78 7 -10 6 -61 16 -113 22 -52 7
-99 15 -105 20 -5 4 -44 15 -85 25 -41 9 -79 21 -85 25 -5 4 -36 16 -67 26
-32 10 -58 21 -58 26 0 4 -5 8 -11 8 -13 0 -162 72 -214 105 -22 13 -54 32
-72 41 -18 8 -37 22 -44 30 -6 8 -16 14 -21 14 -6 0 -28 14 -50 32 l-40 32 7
-33 c4 -18 13 -44 21 -59 8 -15 14 -35 14 -44 0 -10 5 -18 10 -18 6 0 10 -8
10 -17 0 -10 7 -31 16 -48 9 -16 24 -43 32 -60 34 -66 124 -205 133 -205 5 0
9 -5 9 -11 0 -23 190 -215 223 -225 12 -3 32 -15 44 -27 25 -23 53 -40 103
-63 19 -8 58 -27 87 -40 28 -13 56 -24 61 -24 5 0 22 -6 38 -14 16 -8 58 -20
94 -26 36 -6 74 -16 85 -20 26 -11 152 -30 203 -30 21 0 42 -3 45 -6 4 -4 42
-6 86 -5 47 1 82 -2 86 -8 8 -15 481 -15 490 -1 3 6 35 10 71 10 l64 0 0 -385
0 -385 95 0 95 0 0 766 c0 599 3 768 13 778 6 6 41 23 77 36 36 13 79 32 95
42 17 10 36 18 43 18 7 0 39 13 70 28 31 16 81 37 110 47 28 10 52 23 52 27 0
5 6 8 13 6 6 -1 26 6 44 15 18 9 38 17 46 17 8 0 42 18 76 40 34 22 63 40 65
40 2 0 20 16 41 37 51 51 95 117 117 177 10 28 24 61 30 73 6 13 8 26 5 30 -4
3 -3 11 2 17 5 6 19 61 31 121 13 61 26 112 30 115 3 3 14 41 24 85 10 44 19
86 22 93 2 6 -2 12 -9 12 -17 0 -88 -19 -112 -30 -11 -5 -65 -18 -120 -30 -55
-12 -107 -24 -115 -28 -8 -3 -19 -7 -25 -7 -5 -1 -17 -4 -25 -7 -8 -3 -52 -15
-98 -27 -46 -11 -90 -28 -98 -36 -9 -8 -22 -15 -29 -15 -8 0 -44 -28 -80 -62
-50 -47 -76 -81 -106 -142 -21 -44 -39 -84 -39 -88 0 -4 -12 -32 -26 -61 -14
-28 -35 -77 -46 -107 -12 -30 -24 -57 -27 -60 -3 -3 -6 -9 -6 -15 -1 -5 -8
-26 -17 -45 -9 -19 -21 -46 -26 -60 -8 -18 -11 65 -11 296 l-1 322 33 12 c17
7 59 25 92 40 87 39 119 53 125 55 6 2 40 17 115 50 125 56 161 72 167 73 4 1
34 28 65 60 55 54 103 134 103 171 0 9 4 21 9 27 4 5 18 54 31 109 12 55 27
106 32 112 6 7 8 19 5 27 -3 7 -2 17 3 22 11 13 31 114 24 125 -3 6 -10 6 -17
1 -7 -5 -56 -19 -110 -31 -53 -11 -105 -25 -115 -31 -9 -5 -62 -19 -117 -31
-65 -14 -116 -31 -147 -50 -59 -38 -133 -117 -155 -166 -9 -21 -26 -60 -38
-88 -12 -27 -28 -63 -35 -80 -8 -16 -14 -32 -15 -35 -2 -6 -20 -50 -40 -95
-12 -26 -14 2 -14 212 l-1 241 33 20 c19 10 60 29 93 41 32 13 63 26 69 31 10
9 76 34 133 51 17 6 32 13 32 17 0 4 19 15 43 25 36 15 127 88 127 103 0 2 11
21 23 42 13 20 22 43 20 50 -3 6 0 12 5 12 5 0 20 48 32 108 12 59 26 112 30
117 12 15 33 126 25 133 -3 3 -15 1 -25 -6 -11 -6 -63 -21 -117 -32 -54 -11
-106 -25 -116 -31 -10 -5 -22 -7 -27 -4 -5 3 -11 1 -15 -5 -3 -5 -16 -10 -27
-10 -27 0 -110 -39 -121 -57 -4 -7 -14 -13 -21 -13 -15 0 -56 -42 -56 -58 0
-6 -6 -15 -13 -19 -7 -4 -21 -28 -31 -53 -10 -25 -29 -69 -43 -98 -14 -29 -29
-65 -33 -80 -5 -16 -9 62 -9 191 l-1 218 38 15 c20 8 55 23 77 33 22 11 68 29
103 41 34 13 62 27 62 31 0 5 7 9 15 9 28 0 93 70 111 118 9 26 19 54 22 62 3
8 4 19 3 24 -1 6 2 19 8 30 17 33 50 196 40 196 -20 0 -205 -41 -224 -50 -11
-5 -39 -14 -63 -20 -24 -6 -61 -27 -83 -47 l-39 -35 8 33 c4 19 7 63 7 99 0
69 -16 111 -74 200 -17 25 -42 68 -56 95 -15 28 -30 54 -34 58 -8 8 -61 -64
-61 -83 0 -5 -3 -10 -8 -10 -4 0 -14 -15 -22 -32 l-15 -33 -3 50 c-3 50 -4 51
-60 85 -31 19 -61 37 -67 39 -5 2 -34 24 -63 48 -30 23 -60 43 -68 43 -8 0
-14 6 -14 13 0 7 -38 42 -85 77 -46 36 -85 69 -85 73 0 4 -20 27 -45 51 -25
25 -45 46 -45 49 0 5 -39 53 -82 100 -16 17 -28 36 -28 43 0 8 -4 14 -9 14 -5
0 -13 10 -17 22 -3 12 -13 28 -20 36 -8 7 -14 22 -14 33 0 10 -4 19 -10 19 -5
0 -10 7 -10 15 0 8 -5 15 -11 15 -6 0 -9 6 -6 14 3 8 -3 23 -14 34 -10 12 -19
27 -19 34 0 7 -6 25 -14 40 -8 14 -17 45 -21 67 -4 23 -11 43 -16 47 -5 3 -9
18 -9 35 0 42 -16 36 -24 -8z"/>
<path d="M1500 3093 c-109 -11 -194 -24 -204 -32 -6 -5 -38 -14 -71 -21 -33
-7 -73 -18 -90 -25 -16 -7 -56 -20 -87 -29 -32 -9 -60 -21 -63 -26 -5 -8 54
-30 83 -30 7 0 23 -7 35 -14 12 -8 44 -20 72 -26 27 -6 56 -17 65 -25 8 -7 34
-19 58 -26 23 -7 42 -16 42 -20 0 -4 10 -11 23 -15 12 -3 30 -13 40 -22 9 -8
17 -12 17 -7 0 4 7 1 16 -6 17 -14 30 -22 85 -53 19 -10 47 -29 62 -42 16 -13
33 -24 38 -24 11 0 232 -179 237 -192 6 -13 174 -148 184 -148 6 0 32 -18 58
-40 26 -22 51 -40 55 -40 5 0 23 -11 41 -25 18 -14 37 -25 42 -25 5 0 15 -7
22 -15 7 -9 15 -14 17 -11 3 2 28 -8 58 -24 29 -15 70 -33 91 -40 22 -7 48
-18 59 -25 11 -7 63 -20 115 -30 52 -9 106 -22 119 -28 33 -16 449 -16 482 0
13 6 67 19 119 28 52 10 100 21 106 26 7 5 36 16 65 24 30 8 72 23 94 34 21
12 45 21 52 21 7 0 13 4 13 9 0 10 -22 16 -125 31 -38 6 -79 14 -90 19 -11 5
-58 17 -105 26 -47 10 -89 21 -95 24 -5 4 -39 16 -75 26 -36 10 -83 26 -106
36 -22 11 -44 19 -49 19 -5 0 -16 6 -24 13 -9 8 -32 20 -51 27 -19 7 -43 20
-53 28 -20 18 -50 36 -92 56 -17 8 -39 24 -49 35 -11 12 -25 21 -31 21 -7 0
-35 18 -63 40 -27 22 -53 40 -57 40 -4 0 -42 27 -84 60 -99 79 -234 179 -279
209 -21 13 -52 37 -70 52 -18 16 -39 29 -46 29 -7 0 -21 9 -31 20 -10 11 -27
22 -39 26 -11 3 -30 14 -41 24 -11 10 -38 23 -60 30 -22 7 -49 19 -60 25 -38
24 -254 40 -375 28z"/>
</g>
</svg>
