<!-- Generated by IcoMoon.io -->
<svg version="1.1" xmlns="http://www.w3.org/2000/svg" width="32" height="32" viewBox="0 0 32 32">
<title>crops-damaged</title>
<path d="M12.841 2.174c-0.738 0.759-1.415 2.256-1.785 3.98-0.185 0.903-0.226 0.944-0.8 0.862-0.451-0.062-0.656 0-0.759 0.287-0.164 0.451 0.472 6.585 0.8 7.733 0.287 0.964 1.579 2.297 2.544 2.605 0.595 0.205 0.697 0.328 0.697 0.862 0 0.472-0.062 0.574-0.246 0.431-0.144-0.103-0.636-0.492-1.087-0.841-1.641-1.272-5.477-2.708-6.42-2.4-0.656 0.185-0.677 0.615-0.144 2.318 0.615 1.928 1.805 3.774 3.323 5.169 1.477 1.354 2.195 1.723 2.728 1.436 0.759-0.41 0.513-1.108-0.697-2.010-0.615-0.472-1.436-1.231-1.826-1.723-0.78-0.964-1.887-3.015-1.703-3.18 0.267-0.267 3.61 1.641 4.882 2.79 1.456 1.333 1.969 1.497 2.626 0.841 0.328-0.328 0.41-0.677 0.41-1.908v-1.477l1.026-0.472c1.149-0.533 2.174-1.723 2.359-2.79 0.39-2.113 0.841-7.036 0.677-7.364-0.369-0.738-1.046-0.39-3.036 1.6l-1.928 1.949-1.005-0.985-1.005-0.964 0.123-1.231c0.205-2.256 1.333-4.8 2.031-4.554 0.144 0.041 0.533 0.574 0.862 1.19 0.636 1.128 1.128 1.436 1.641 1.005 0.451-0.39 0.369-1.005-0.287-2.174-0.738-1.272-1.395-1.723-2.462-1.723-0.677 0-0.944 0.144-1.538 0.738zM14.462 12.923c0.226 0 0.985-0.574 1.682-1.272 1.272-1.272 1.292-1.272 1.292-0.677-0.020 1.354-0.41 3.61-0.718 4.082-0.841 1.272-2.913 1.477-4.021 0.41-0.677-0.656-0.923-1.395-1.108-3.569l-0.144-1.538 1.313 1.272c0.718 0.718 1.477 1.292 1.703 1.292z"></path>
<path d="M20.308 21.108c-3.221 1.046-6.154 3.344-7.508 5.887-0.328 0.595-0.492 0.677-1.272 0.738-1.067 0.062-1.518 0.533-1.149 1.128 0.205 0.328 0.78 0.369 6.564 0.431 5.785 0.041 6.359 0.020 6.605-0.308 0.328-0.451 0.308-0.574-0.082-0.964-0.226-0.246-0.738-0.328-1.846-0.328h-1.538l0.697-0.882c1.415-1.744 2.503-4.246 2.359-5.415-0.062-0.513-0.144-0.574-0.882-0.615-0.451-0.020-1.333 0.123-1.949 0.328zM20.882 23.323c-0.472 1.067-1.251 2.195-2.277 3.282l-1.026 1.087h-1.497c-0.862 0-1.518-0.082-1.518-0.205 0-0.103 0.615-0.841 1.354-1.641 1.026-1.087 1.764-1.641 2.995-2.256 2.010-1.005 2.297-1.046 1.969-0.267z"></path>
<path d="M4.964 27.938c-0.328 0.328-0.308 0.882 0.041 1.169 0.164 0.144 0.759 0.226 1.395 0.185 0.964-0.062 1.087-0.123 1.149-0.533 0.041-0.267-0.041-0.615-0.164-0.779-0.308-0.349-2.072-0.39-2.42-0.041z"></path>
</svg>
