<!-- Generated by IcoMoon.io -->
<svg version="1.1" xmlns="http://www.w3.org/2000/svg" width="32" height="32" viewBox="0 0 32 32">
<title>Crown-fire</title>
<path d="M21.55 8.282c0.245-0.049 0.465-0.182 0.622-0.376s0.241-0.437 0.238-0.687v-2.148c-0.001-0.272 0.078-0.538 0.227-0.766s0.361-0.407 0.611-0.515v1.863c0.001 0.306 0.136 0.596 0.37 0.793s0.543 0.281 0.844 0.23c0.246-0.049 0.466-0.183 0.624-0.378s0.242-0.439 0.238-0.689v-0.065c0.577 0.626 0.877 1.457 0.834 2.308s-0.427 1.646-1.064 2.21c-0.681 0.608-1.593 0.889-2.498 0.772-0.683-0.089-1.319-0.398-1.813-0.879s-0.818-1.109-0.924-1.79v-0c-0.045-0.309-0.046-0.623-0.002-0.932 0.008-0.124 0.114-0.218 0.238-0.211 0.008 0 0.015 0 0.021 0.001 0.061 0 0.12 0.026 0.162 0.071s0.062 0.106 0.057 0.167c0 0.306 0.136 0.597 0.37 0.794s0.544 0.281 0.846 0.229zM10.922 7.834c0.001-0.564-0.162-1.117-0.468-1.59-0.091-0.145-0.27-0.209-0.432-0.154-0.179 0.047-0.302 0.209-0.3 0.394v0.478c0.006 0.26-0.076 0.514-0.231 0.722s-0.376 0.358-0.627 0.426c-0.387 0.097-0.796-0.017-1.077-0.3-0.215-0.211-0.336-0.5-0.334-0.801v-3c-0.456 0.342-0.723 0.879-0.722 1.449v0.265c0.005 0.234-0.059 0.464-0.186 0.66s-0.309 0.35-0.524 0.442c-0.059 0.023-0.119 0.041-0.181 0.054-0.201 0.030-0.386 0.128-0.523 0.277s-0.221 0.341-0.234 0.544l-0.002 0.133c0 1.044 0.557 2.008 1.461 2.53s2.018 0.522 2.921 0c0.904-0.522 1.461-1.486 1.461-2.53zM25.433 10.581c-0.685 0.578-1.553 0.894-2.449 0.894-0.906 0.001-1.783-0.324-2.47-0.916s-1.137-1.411-1.269-2.308v0c-0.054-0.367-0.054-0.741-0.002-1.108 0.028-0.217 0.139-0.415 0.31-0.553s0.387-0.204 0.606-0.187c0.217 0.012 0.421 0.108 0.569 0.267s0.229 0.37 0.224 0.588c0 0.124 0.055 0.242 0.151 0.322s0.221 0.113 0.343 0.091c0.209-0.049 0.353-0.239 0.344-0.452v-1.357c-0.411-0.267-0.933-0.296-1.371-0.076-0.119 0.058-0.262 0.035-0.356-0.059-0.944-0.946-2.226-1.478-3.562-1.478s-2.618 0.532-3.562 1.478c-0.094 0.094-0.237 0.117-0.356 0.059-0.251-0.126-0.535-0.172-0.813-0.133s-0.538 0.161-0.745 0.351c0.531 0.872 0.659 1.931 0.351 2.904s-1.022 1.766-1.958 2.173c-0.936 0.408-2.002 0.39-2.925-0.047-0.261 0.258-0.409 0.609-0.411 0.976 0.001 0.372 0.148 0.728 0.411 0.991s0.619 0.411 0.991 0.411c0.198-0.001 0.393-0.043 0.573-0.126 0.12-0.054 0.262-0.026 0.352 0.070 0.359 0.391 0.816 0.679 1.324 0.833s1.048 0.17 1.564 0.045c0.135-0.031 0.274 0.032 0.341 0.153 0.173 0.326 0.469 0.569 0.822 0.676s0.734 0.070 1.059-0.104c0.325-0.174 0.568-0.47 0.675-0.823 0.026-0.083 0.085-0.151 0.163-0.188s0.168-0.039 0.249-0.007c0.128 0.052 0.259 0.098 0.391 0.14-0.004-0.036-0.005-0.074-0.008-0.109-0.002-0.009-0.004-0.019-0.005-0.029v-0c-0.186-1.287-0.487-2.555-0.899-3.788-0.091-0.276-0.074-0.578 0.050-0.841s0.343-0.47 0.614-0.577c0.289-0.117 0.614-0.108 0.896 0.024s0.497 0.376 0.592 0.673c0.256 0.764 0.493 1.625 0.679 2.452 0.344-0.549 0.761-1.049 1.239-1.486 0.234-0.208 0.546-0.305 0.857-0.266 0.292 0.049 0.554 0.207 0.735 0.441s0.267 0.528 0.241 0.823c-0.026 0.288-0.155 0.556-0.364 0.756-0.527 0.527-0.962 1.138-1.287 1.808 0.018-0.007 0.037-0.013 0.056-0.021 0.080-0.033 0.17-0.030 0.249 0.007s0.137 0.105 0.163 0.188c0.107 0.353 0.35 0.649 0.675 0.823s0.706 0.211 1.059 0.104c0.353-0.107 0.649-0.351 0.822-0.676 0.067-0.121 0.206-0.183 0.341-0.153 0.516 0.124 1.056 0.108 1.564-0.046s0.965-0.442 1.324-0.832c0.091-0.096 0.232-0.124 0.353-0.070 0.18 0.082 0.375 0.125 0.573 0.126 0.372-0 0.728-0.148 0.991-0.411s0.411-0.619 0.411-0.991c-0.034-0.378-0.203-0.73-0.476-0.993s-0.633-0.418-1.012-0.436zM17.324 14.806c0.001-0.017 0.004-0.034 0.008-0.051 0.391-1.141 1.029-2.181 1.868-3.047 0.201-0.194 0.233-0.504 0.077-0.735l-0-0.001-0.011-0.017c-0.075-0.113-0.195-0.188-0.33-0.205-0.133-0.019-0.267 0.023-0.366 0.113-0.619 0.582-1.132 1.267-1.518 2.023-0.061 0.117-0.19 0.182-0.32 0.16-0.13-0.020-0.233-0.12-0.257-0.249-0.204-1.073-0.479-2.132-0.822-3.169-0.042-0.137-0.14-0.249-0.269-0.309s-0.279-0.061-0.409-0.004c-0.255 0.103-0.385 0.386-0.298 0.646 0.422 1.265 0.731 2.565 0.922 3.885 0.006 0.024 0.009 0.049 0.009 0.074 0.095 0.924 0.142 1.852 0.14 2.781 0 0.517-0.014 1.042-0.044 1.56v0c-0.012 0.235-0.146 0.447-0.354 0.559-0.21 0.116-0.464 0.115-0.673-0.003-0.391-0.219-0.731-0.516-1-0.874-0.151-0.193-0.409-0.266-0.639-0.182-0.144 0.051-0.255 0.166-0.299 0.312-0.045 0.143-0.020 0.299 0.068 0.421 0.375 0.523 0.864 0.954 1.431 1.26 0.376 0.204 0.678 0.524 0.859 0.913s0.233 0.824 0.148 1.244c-0.179 0.926-0.463 1.828-0.846 2.689h4.207c-0.838-1.758-1.348-4.709-1.348-7.898 0-0.666 0.023-1.304 0.067-1.896zM25.646 2.884c0.137 0.002 0.269-0.052 0.366-0.149s0.151-0.229 0.149-0.366c-0.001-0.503-0.184-0.989-0.515-1.368-0.332 0.378-0.516 0.865-0.517 1.368 0.002 0.139 0.058 0.272 0.156 0.37 0.096 0.094 0.225 0.147 0.36 0.146zM12.952 2.884c0.137 0.002 0.269-0.052 0.366-0.149s0.151-0.229 0.149-0.366c-0.001-0.503-0.184-0.989-0.515-1.368-0.332 0.378-0.516 0.865-0.517 1.368 0.002 0.139 0.057 0.272 0.156 0.37 0.096 0.094 0.225 0.147 0.36 0.145z"></path>
<path d="M4.54 31.52c-0.069 0.036-0.141 0.063-0.216 0.081s-0.153 0.028-0.234 0.028c-0.243 0-0.436-0.068-0.578-0.204s-0.213-0.32-0.213-0.553 0.071-0.417 0.213-0.553c0.142-0.136 0.335-0.204 0.578-0.204 0.081 0 0.159 0.009 0.234 0.027s0.147 0.045 0.216 0.081v0.301c-0.070-0.047-0.139-0.082-0.206-0.104s-0.139-0.034-0.214-0.034c-0.134 0-0.24 0.043-0.316 0.129s-0.115 0.204-0.115 0.355c0 0.151 0.038 0.269 0.115 0.355s0.182 0.129 0.316 0.129c0.075 0 0.146-0.011 0.214-0.033s0.136-0.057 0.206-0.105z"></path>
<path d="M5.649 30.804c-0.031-0.014-0.062-0.025-0.092-0.031s-0.060-0.011-0.091-0.011c-0.090 0-0.159 0.029-0.208 0.086s-0.072 0.14-0.072 0.248v0.504h-0.35v-1.094h0.35v0.179c0.045-0.071 0.096-0.124 0.154-0.156s0.129-0.049 0.21-0.049c0.011 0 0.024 0.001 0.038 0.001s0.034 0.003 0.059 0.006z"></path>
<path d="M6.914 31.050v0.1h-0.818c0.009 0.082 0.038 0.143 0.089 0.184s0.122 0.061 0.214 0.061c0.073 0 0.149-0.011 0.226-0.032s0.156-0.055 0.238-0.099v0.269c-0.082 0.031-0.165 0.055-0.248 0.071s-0.166 0.024-0.248 0.024c-0.198 0-0.352-0.050-0.462-0.151s-0.164-0.242-0.164-0.424c0-0.179 0.054-0.319 0.161-0.421s0.256-0.154 0.445-0.154c0.172 0 0.309 0.052 0.413 0.156s0.155 0.241 0.155 0.414zM6.555 30.934c0-0.067-0.020-0.12-0.059-0.161s-0.089-0.061-0.151-0.061c-0.068 0-0.123 0.019-0.166 0.057s-0.068 0.093-0.079 0.165z"></path>
<path d="M7.668 31.108c-0.073 0-0.128 0.012-0.164 0.037s-0.055 0.061-0.055 0.109c0 0.044 0.015 0.079 0.044 0.104s0.071 0.037 0.124 0.037c0.066 0 0.121-0.024 0.166-0.071s0.068-0.106 0.068-0.177v-0.040zM8.203 30.976v0.624h-0.352v-0.162c-0.047 0.066-0.1 0.115-0.159 0.145s-0.13 0.046-0.214 0.046c-0.113 0-0.206-0.033-0.276-0.099s-0.106-0.152-0.106-0.257c0-0.129 0.044-0.223 0.132-0.282s0.227-0.090 0.416-0.090h0.206v-0.028c0-0.055-0.022-0.096-0.066-0.121s-0.111-0.039-0.204-0.039c-0.075 0-0.144 0.008-0.209 0.023s-0.124 0.037-0.18 0.067v-0.266c0.075-0.019 0.15-0.032 0.226-0.041s0.151-0.014 0.226-0.014c0.197 0 0.34 0.039 0.427 0.117s0.131 0.204 0.131 0.379z"></path>
<path d="M8.91 30.196v0.311h0.36v0.25h-0.36v0.464c0 0.051 0.010 0.086 0.030 0.104s0.060 0.026 0.12 0.026h0.18v0.25h-0.3c-0.138 0-0.236-0.029-0.294-0.086s-0.086-0.155-0.086-0.294v-0.464h-0.174v-0.25h0.174v-0.311z"></path>
<path d="M10.576 31.050v0.1h-0.818c0.009 0.082 0.038 0.143 0.089 0.184s0.122 0.061 0.214 0.061c0.073 0 0.149-0.011 0.226-0.032s0.156-0.055 0.238-0.099v0.269c-0.082 0.031-0.165 0.055-0.248 0.071s-0.166 0.024-0.248 0.024c-0.198 0-0.352-0.050-0.462-0.151s-0.164-0.242-0.164-0.424c0-0.179 0.054-0.319 0.161-0.421s0.256-0.154 0.445-0.154c0.172 0 0.309 0.052 0.413 0.156s0.155 0.241 0.155 0.414zM10.217 30.934c0-0.067-0.020-0.12-0.059-0.161s-0.089-0.061-0.151-0.061c-0.068 0-0.123 0.019-0.166 0.057s-0.068 0.093-0.079 0.165z"></path>
<path d="M11.585 30.666v-0.586h0.351v1.519h-0.351v-0.158c-0.048 0.064-0.101 0.111-0.159 0.141s-0.125 0.045-0.201 0.045c-0.135 0-0.246-0.054-0.332-0.161s-0.129-0.245-0.129-0.414 0.043-0.306 0.129-0.414c0.087-0.107 0.197-0.161 0.332-0.161 0.076 0 0.143 0.015 0.201 0.046s0.112 0.077 0.16 0.141zM11.354 31.374c0.075 0 0.132-0.027 0.171-0.082s0.059-0.134 0.059-0.238c0-0.104-0.020-0.184-0.059-0.239s-0.096-0.082-0.171-0.082c-0.074 0-0.131 0.027-0.171 0.082s-0.059 0.134-0.059 0.239c0 0.104 0.019 0.183 0.059 0.238s0.096 0.082 0.171 0.082z"></path>
<path d="M13.551 31.374c0.075 0 0.132-0.027 0.171-0.082s0.059-0.134 0.059-0.238c0-0.104-0.020-0.184-0.059-0.239s-0.097-0.082-0.171-0.082c-0.075 0-0.132 0.028-0.172 0.083s-0.060 0.134-0.060 0.238c0 0.103 0.020 0.183 0.060 0.238s0.097 0.082 0.172 0.082zM13.318 30.666c0.048-0.064 0.101-0.111 0.16-0.141s0.126-0.046 0.202-0.046c0.135 0 0.245 0.054 0.332 0.161s0.13 0.245 0.13 0.414-0.043 0.306-0.13 0.414c-0.087 0.107-0.197 0.161-0.332 0.161-0.076 0-0.144-0.015-0.202-0.046s-0.112-0.077-0.16-0.141v0.158h-0.35v-1.519h0.35z"></path>
<path d="M14.256 30.506h0.35l0.294 0.742 0.25-0.742h0.35l-0.46 1.197c-0.046 0.122-0.1 0.207-0.162 0.255s-0.143 0.073-0.244 0.073h-0.202v-0.229h0.109c0.059 0 0.102-0.010 0.129-0.029s0.048-0.052 0.064-0.101l0.009-0.030z"></path>
<path d="M16.89 31.108c-0.073 0-0.128 0.012-0.164 0.037s-0.055 0.061-0.055 0.109c0 0.044 0.015 0.079 0.044 0.104s0.071 0.037 0.124 0.037c0.066 0 0.121-0.024 0.166-0.071s0.068-0.106 0.068-0.177v-0.040zM17.424 30.976v0.624h-0.352v-0.162c-0.047 0.066-0.1 0.115-0.159 0.145s-0.13 0.046-0.214 0.046c-0.113 0-0.206-0.033-0.276-0.099s-0.106-0.152-0.106-0.257c0-0.129 0.044-0.223 0.132-0.282s0.227-0.090 0.416-0.090h0.206v-0.028c0-0.055-0.022-0.096-0.066-0.121s-0.111-0.039-0.204-0.039c-0.075 0-0.144 0.008-0.209 0.023s-0.124 0.037-0.18 0.067v-0.266c0.075-0.019 0.15-0.032 0.226-0.041s0.151-0.014 0.226-0.014c0.198 0 0.34 0.039 0.427 0.117s0.131 0.204 0.131 0.379z"></path>
<path d="M18.494 31.414c-0.048 0.064-0.101 0.111-0.159 0.141s-0.125 0.045-0.201 0.045c-0.133 0-0.244-0.052-0.331-0.158s-0.131-0.239-0.131-0.401c0-0.164 0.044-0.298 0.131-0.402s0.197-0.156 0.331-0.156c0.076 0 0.143 0.015 0.201 0.045s0.111 0.077 0.159 0.141v-0.162h0.351v0.984c0 0.176-0.056 0.31-0.166 0.402s-0.272 0.139-0.483 0.139c-0.069 0-0.135-0.005-0.199-0.016s-0.128-0.026-0.192-0.048v-0.272c0.061 0.035 0.121 0.061 0.18 0.079s0.117 0.026 0.176 0.026c0.115 0 0.199-0.025 0.252-0.075s0.080-0.128 0.080-0.235zM18.263 30.734c-0.072 0-0.128 0.027-0.169 0.081s-0.061 0.129-0.061 0.226c0 0.1 0.019 0.176 0.059 0.228s0.096 0.078 0.171 0.078c0.073 0 0.129-0.027 0.17-0.080s0.061-0.129 0.061-0.226c0-0.098-0.020-0.173-0.061-0.226s-0.097-0.081-0.17-0.081z"></path>
<path d="M19.17 31.174v-0.668h0.351v0.109c0 0.059-0.001 0.133-0.001 0.223s-0.001 0.149-0.001 0.179c0 0.088 0.002 0.151 0.006 0.19s0.013 0.067 0.024 0.084c0.014 0.023 0.033 0.041 0.056 0.053s0.050 0.019 0.080 0.019c0.073 0 0.13-0.028 0.171-0.084s0.063-0.134 0.063-0.234v-0.54h0.349v1.094h-0.349v-0.158c-0.053 0.063-0.109 0.11-0.168 0.141s-0.123 0.046-0.194 0.046c-0.127 0-0.223-0.039-0.289-0.116s-0.099-0.19-0.099-0.338z"></path>
<path d="M21.459 30.541v0.265c-0.075-0.031-0.147-0.054-0.216-0.070s-0.135-0.024-0.197-0.024c-0.067 0-0.116 0.008-0.149 0.025s-0.048 0.042-0.048 0.076c0 0.028 0.012 0.050 0.036 0.065s0.068 0.026 0.131 0.033l0.061 0.009c0.179 0.023 0.299 0.061 0.361 0.113s0.093 0.134 0.093 0.245c0 0.117-0.043 0.204-0.129 0.263s-0.214 0.088-0.384 0.088c-0.073 0-0.147-0.006-0.224-0.017s-0.156-0.029-0.238-0.051v-0.266c0.069 0.034 0.141 0.059 0.214 0.076s0.148 0.025 0.224 0.025c0.068 0 0.119-0.009 0.154-0.028s0.052-0.047 0.052-0.084c0-0.031-0.012-0.055-0.036-0.070s-0.071-0.027-0.142-0.036l-0.061-0.008c-0.156-0.019-0.265-0.055-0.327-0.108s-0.094-0.133-0.094-0.241c0-0.116 0.040-0.201 0.119-0.257s0.201-0.084 0.365-0.084c0.064 0 0.132 0.005 0.203 0.015s0.148 0.025 0.231 0.046z"></path>
<path d="M23.305 30.804c-0.031-0.014-0.062-0.025-0.092-0.031s-0.060-0.011-0.091-0.011c-0.090 0-0.159 0.029-0.208 0.086s-0.072 0.14-0.072 0.248v0.504h-0.35v-1.094h0.35v0.179c0.045-0.071 0.096-0.124 0.154-0.156s0.129-0.049 0.21-0.049c0.011 0 0.024 0.001 0.038 0.001s0.034 0.003 0.059 0.006z"></path>
<path d="M23.968 31.108c-0.073 0-0.128 0.012-0.164 0.037s-0.055 0.061-0.055 0.109c0 0.044 0.015 0.079 0.044 0.104s0.071 0.037 0.124 0.037c0.066 0 0.121-0.024 0.166-0.071s0.068-0.106 0.068-0.177v-0.040zM24.503 30.976v0.624h-0.352v-0.162c-0.047 0.066-0.1 0.115-0.159 0.145s-0.13 0.046-0.214 0.046c-0.113 0-0.206-0.033-0.276-0.099s-0.106-0.152-0.106-0.257c0-0.129 0.044-0.223 0.132-0.282s0.227-0.090 0.416-0.090h0.206v-0.028c0-0.055-0.022-0.096-0.066-0.121s-0.111-0.039-0.204-0.039c-0.075 0-0.144 0.008-0.209 0.023s-0.124 0.037-0.18 0.067v-0.266c0.075-0.019 0.15-0.032 0.226-0.041s0.151-0.014 0.226-0.014c0.198 0 0.34 0.039 0.427 0.117s0.131 0.204 0.131 0.379z"></path>
<path d="M25.928 30.934v0.666h-0.352v-0.508c0-0.096-0.002-0.161-0.006-0.197s-0.011-0.062-0.021-0.079c-0.014-0.023-0.032-0.040-0.056-0.053s-0.050-0.019-0.080-0.019c-0.073 0-0.13 0.028-0.172 0.084s-0.062 0.134-0.062 0.234v0.538h-0.35v-1.519h0.35v0.586c0.052-0.064 0.108-0.111 0.167-0.141s0.125-0.046 0.197-0.046c0.126 0 0.222 0.039 0.287 0.116s0.099 0.19 0.099 0.338z"></path>
<path d="M26.742 31.108c-0.073 0-0.128 0.012-0.164 0.037s-0.055 0.061-0.055 0.109c0 0.044 0.015 0.079 0.044 0.104s0.071 0.037 0.124 0.037c0.066 0 0.121-0.024 0.166-0.071s0.068-0.106 0.068-0.177v-0.040zM27.276 30.976v0.624h-0.352v-0.162c-0.047 0.066-0.1 0.115-0.159 0.145s-0.13 0.046-0.214 0.046c-0.113 0-0.206-0.033-0.276-0.099s-0.106-0.152-0.106-0.257c0-0.129 0.044-0.223 0.132-0.282s0.227-0.090 0.416-0.090h0.206v-0.028c0-0.055-0.022-0.096-0.066-0.121s-0.111-0.039-0.204-0.039c-0.075 0-0.144 0.008-0.209 0.023s-0.124 0.037-0.18 0.067v-0.266c0.075-0.019 0.15-0.032 0.226-0.041s0.151-0.014 0.226-0.014c0.198 0 0.34 0.039 0.427 0.117s0.131 0.204 0.131 0.379z"></path>
<path d="M28.414 30.804c-0.031-0.014-0.062-0.025-0.092-0.031s-0.060-0.011-0.091-0.011c-0.090 0-0.159 0.029-0.208 0.086s-0.072 0.14-0.072 0.248v0.504h-0.35v-1.094h0.35v0.179c0.045-0.071 0.096-0.124 0.154-0.156s0.129-0.049 0.21-0.049c0.011 0 0.024 0.001 0.038 0.001s0.034 0.003 0.059 0.006z"></path>
<path d="M28.587 30.506h0.35v1.074c0 0.146-0.035 0.258-0.106 0.335s-0.172 0.116-0.306 0.116h-0.173v-0.229h0.061c0.066 0 0.112-0.015 0.136-0.045s0.037-0.089 0.037-0.176zM28.587 30.081h0.35v0.285h-0.35z"></path>
<path d="M29.794 30.73c-0.078 0-0.137 0.028-0.178 0.084s-0.061 0.136-0.061 0.241c0 0.105 0.020 0.185 0.061 0.241s0.1 0.084 0.178 0.084c0.076 0 0.134-0.028 0.174-0.084s0.061-0.136 0.061-0.241c0-0.105-0.020-0.185-0.061-0.241s-0.098-0.084-0.174-0.084zM29.794 30.48c0.188 0 0.335 0.051 0.441 0.152s0.159 0.242 0.159 0.422c0 0.18-0.053 0.32-0.159 0.422s-0.253 0.152-0.441 0.152c-0.189 0-0.337-0.051-0.444-0.152s-0.159-0.242-0.159-0.422c0-0.18 0.053-0.321 0.159-0.422s0.254-0.152 0.444-0.152z"></path>
</svg>
