<?xml version="1.0" encoding="UTF-8"?>
<svg width="700pt" height="700pt" version="1.1" viewBox="0 0 700 700" xmlns="http://www.w3.org/2000/svg" xmlns:xlink="http://www.w3.org/1999/xlink">
 <defs>
  <symbol id="m" overflow="visible">
   <path d="m29.312-1.75c-1.5117 0.78125-3.0898 1.3711-4.7344 1.7656-1.6367 0.40625-3.3398 0.60938-5.1094 0.60938-5.3125 0-9.5273-1.4844-12.641-4.4531-3.1055-2.9688-4.6562-7-4.6562-12.094s1.5508-9.125 4.6562-12.094c3.1133-2.9688 7.3281-4.4531 12.641-4.4531 1.7695 0 3.4727 0.19922 5.1094 0.59375 1.6445 0.39844 3.2227 0.99219 4.7344 1.7812v6.5938c-1.5312-1.0391-3.0391-1.8008-4.5156-2.2812-1.4805-0.48828-3.0391-0.73438-4.6719-0.73438-2.9375 0-5.2461 0.94531-6.9219 2.8281-1.6797 1.875-2.5156 4.4648-2.5156 7.7656 0 3.293 0.83594 5.8828 2.5156 7.7656 1.6758 1.875 3.9844 2.8125 6.9219 2.8125 1.6328 0 3.1914-0.23828 4.6719-0.71875 1.4766-0.48828 2.9844-1.2539 4.5156-2.2969z"/>
  </symbol>
  <symbol id="b" overflow="visible">
   <path d="m21.453-17.406c-0.67969-0.3125-1.3516-0.53906-2.0156-0.6875-0.65625-0.15625-1.3203-0.23438-1.9844-0.23438-1.9688 0-3.4844 0.63281-4.5469 1.8906-1.0547 1.2617-1.5781 3.0703-1.5781 5.4219v11.016h-7.6562v-23.922h7.6562v3.9219c0.97656-1.5625 2.1016-2.7031 3.375-3.4219 1.2812-0.71875 2.8125-1.0781 4.5938-1.0781 0.25 0 0.52344 0.011719 0.82812 0.03125 0.30078 0.023438 0.73438 0.070312 1.2969 0.14062z"/>
  </symbol>
  <symbol id="a" overflow="visible">
   <path d="m27.562-12.031v2.1875h-17.891c0.1875 1.793 0.83203 3.1367 1.9375 4.0312 1.1133 0.89844 2.6719 1.3438 4.6719 1.3438 1.6016 0 3.25-0.23438 4.9375-0.70312 1.6875-0.47656 3.4219-1.2031 5.2031-2.1719v5.8906c-1.8047 0.6875-3.6094 1.2031-5.4219 1.5469-1.8125 0.35156-3.6211 0.53125-5.4219 0.53125-4.3359 0-7.7031-1.0977-10.109-3.2969-2.3984-2.207-3.5938-5.2969-3.5938-9.2656 0-3.9062 1.1758-6.9727 3.5312-9.2031 2.3633-2.2383 5.6094-3.3594 9.7344-3.3594 3.7578 0 6.7695 1.1367 9.0312 3.4062 2.2578 2.2617 3.3906 5.2812 3.3906 9.0625zm-7.8594-2.5312c0-1.457-0.42969-2.6289-1.2812-3.5156-0.84375-0.89453-1.9492-1.3438-3.3125-1.3438-1.4922 0-2.6992 0.41797-3.625 1.25-0.91797 0.83594-1.4922 2.0391-1.7188 3.6094z"/>
  </symbol>
  <symbol id="h" overflow="visible">
   <path d="m14.391-10.766c-1.5938 0-2.793 0.27344-3.5938 0.8125-0.80469 0.54297-1.2031 1.3398-1.2031 2.3906 0 0.96875 0.32031 1.7305 0.96875 2.2812 0.64453 0.54297 1.5469 0.8125 2.7031 0.8125 1.4375 0 2.6445-0.51562 3.625-1.5469 0.98828-1.0312 1.4844-2.3203 1.4844-3.875v-0.875zm11.688-2.8906v13.656h-7.7031v-3.5469c-1.0312 1.4492-2.1875 2.5078-3.4688 3.1719s-2.8398 1-4.6719 1c-2.4805 0-4.4961-0.72266-6.0469-2.1719-1.543-1.4453-2.3125-3.3203-2.3125-5.625 0-2.8125 0.96094-4.8672 2.8906-6.1719 1.9375-1.3125 4.9688-1.9688 9.0938-1.9688h4.5156v-0.60938c0-1.207-0.48047-2.0938-1.4375-2.6562-0.94922-0.5625-2.4375-0.84375-4.4688-0.84375-1.6367 0-3.1562 0.16797-4.5625 0.5-1.4062 0.32422-2.7188 0.8125-3.9375 1.4688v-5.8281c1.6445-0.40625 3.2891-0.70703 4.9375-0.90625 1.6562-0.20703 3.3047-0.3125 4.9531-0.3125 4.3203 0 7.4375 0.85547 9.3438 2.5625 1.9141 1.6992 2.875 4.4609 2.875 8.2812z"/>
  </symbol>
  <symbol id="g" overflow="visible">
   <path d="m12.031-30.719v6.7969h7.875v5.4688h-7.875v10.141c0 1.1172 0.21875 1.8711 0.65625 2.2656 0.4375 0.38672 1.3125 0.57812 2.625 0.57812h3.9375v5.4688h-6.5625c-3.0234 0-5.1641-0.62891-6.4219-1.8906-1.2617-1.2578-1.8906-3.3984-1.8906-6.4219v-10.141h-3.7969v-5.4688h3.7969v-6.7969z"/>
  </symbol>
  <symbol id="f" overflow="visible">
   <path d="m19.953-20.422v-12.812h7.6875v33.234h-7.6875v-3.4531c-1.0547 1.4062-2.2148 2.4375-3.4844 3.0938-1.2734 0.65625-2.7422 0.98438-4.4062 0.98438-2.9492 0-5.3711-1.1719-7.2656-3.5156-1.8867-2.3438-2.8281-5.3594-2.8281-9.0469s0.94141-6.7031 2.8281-9.0469c1.8945-2.3438 4.3164-3.5156 7.2656-3.5156 1.6562 0 3.1172 0.33594 4.3906 1 1.2812 0.65625 2.4453 1.6836 3.5 3.0781zm-5.0469 15.484c1.6445 0 2.8945-0.59766 3.75-1.7969 0.86328-1.1953 1.2969-2.9297 1.2969-5.2031 0-2.2812-0.43359-4.0195-1.2969-5.2188-0.85547-1.1953-2.1055-1.7969-3.75-1.7969-1.625 0-2.8711 0.60156-3.7344 1.7969-0.85547 1.1992-1.2812 2.9375-1.2812 5.2188 0 2.2734 0.42578 4.0078 1.2812 5.2031 0.86328 1.1992 2.1094 1.7969 3.7344 1.7969z"/>
  </symbol>
  <symbol id="e" overflow="visible">
   <path d="m16.406-4.9375c1.6328 0 2.8828-0.59766 3.75-1.7969 0.86328-1.1953 1.2969-2.9297 1.2969-5.2031 0-2.2812-0.43359-4.0195-1.2969-5.2188-0.86719-1.1953-2.1172-1.7969-3.75-1.7969-1.6367 0-2.8906 0.60547-3.7656 1.8125-0.875 1.1992-1.3125 2.9336-1.3125 5.2031 0 2.2617 0.4375 3.9961 1.3125 5.2031 0.875 1.1992 2.1289 1.7969 3.7656 1.7969zm-5.0781-15.484c1.0508-1.3945 2.2188-2.4219 3.5-3.0781 1.2812-0.66406 2.7539-1 4.4219-1 2.9453 0 5.3672 1.1719 7.2656 3.5156 1.8945 2.3438 2.8438 5.3594 2.8438 9.0469s-0.94922 6.7031-2.8438 9.0469c-1.8984 2.3438-4.3203 3.5156-7.2656 3.5156-1.668 0-3.1406-0.33594-4.4219-1s-2.4492-1.6914-3.5-3.0781v3.4531h-7.6562v-33.234h7.6562z"/>
  </symbol>
  <symbol id="d" overflow="visible">
   <path d="m0.53125-23.922h7.6562l6.4219 16.234 5.4688-16.234h7.6562l-10.062 26.188c-1.0117 2.6641-2.1953 4.5234-3.5469 5.5781-1.3438 1.0625-3.1211 1.5938-5.3281 1.5938h-4.4219v-5.0156h2.3906c1.3008 0 2.2422-0.21094 2.8281-0.625 0.59375-0.40625 1.0547-1.1484 1.3906-2.2188l0.20312-0.65625z"/>
  </symbol>
  <symbol id="c" overflow="visible">
   <path d="m3.6719-23.922h7.6562v23.922h-7.6562zm0-9.3125h7.6562v6.2344h-7.6562z"/>
  </symbol>
  <symbol id="l" overflow="visible">
   <path d="m0.65625-23.922h7.6562l5.9531 16.531 5.9375-16.531h7.6719l-9.4219 23.922h-8.3906z"/>
  </symbol>
  <symbol id="k" overflow="visible">
   <path d="m23-23.172v6.2344c-1.0312-0.71875-2.0742-1.2422-3.125-1.5781-1.043-0.34375-2.125-0.51562-3.25-0.51562-2.1367 0-3.8047 0.625-5 1.875-1.1875 1.2422-1.7812 2.9805-1.7812 5.2188 0 2.2305 0.59375 3.9688 1.7812 5.2188 1.1953 1.25 2.8633 1.875 5 1.875 1.1953 0 2.332-0.17578 3.4062-0.53125 1.0703-0.36328 2.0625-0.89453 2.9688-1.5938v6.2656c-1.1875 0.4375-2.4023 0.76562-3.6406 0.98438-1.2305 0.22656-2.4648 0.34375-3.7031 0.34375-4.3125 0-7.6875-1.1094-10.125-3.3281s-3.6562-5.2969-3.6562-9.2344c0-3.9453 1.2188-7.0234 3.6562-9.2344 2.4375-2.2188 5.8125-3.3281 10.125-3.3281 1.25 0 2.4844 0.10938 3.7031 0.32812s2.4297 0.55469 3.6406 1z"/>
  </symbol>
  <symbol id="j" overflow="visible">
   <path d="m15.062-19.031c-1.6992 0-2.9961 0.60938-3.8906 1.8281-0.88672 1.2188-1.3281 2.9766-1.3281 5.2656 0 2.293 0.44141 4.0469 1.3281 5.2656 0.89453 1.2188 2.1914 1.8281 3.8906 1.8281 1.6641 0 2.9375-0.60938 3.8125-1.8281 0.88281-1.2188 1.3281-2.9727 1.3281-5.2656 0-2.2891-0.44531-4.0469-1.3281-5.2656-0.875-1.2188-2.1484-1.8281-3.8125-1.8281zm0-5.4688c4.1133 0 7.3281 1.1094 9.6406 3.3281s3.4688 5.2969 3.4688 9.2344c0 3.9297-1.1562 7.0078-3.4688 9.2344-2.3125 2.2188-5.5273 3.3281-9.6406 3.3281-4.1367 0-7.3711-1.1094-9.7031-3.3281-2.3242-2.2266-3.4844-5.3047-3.4844-9.2344 0-3.9375 1.1602-7.0156 3.4844-9.2344 2.332-2.2188 5.5664-3.3281 9.7031-3.3281z"/>
  </symbol>
  <symbol id="i" overflow="visible">
   <path d="m27.734-14.562v14.562h-7.7031v-11.156c0-2.0625-0.046875-3.4844-0.14062-4.2656-0.085937-0.78125-0.24219-1.3594-0.46875-1.7344-0.30469-0.5-0.71094-0.88281-1.2188-1.1562-0.51172-0.28125-1.0938-0.42188-1.75-0.42188-1.5938 0-2.8516 0.61719-3.7656 1.8438-0.90625 1.2305-1.3594 2.9375-1.3594 5.125v11.766h-7.6562v-23.922h7.6562v3.5c1.1445-1.3945 2.3633-2.4219 3.6562-3.0781 1.3008-0.66406 2.7383-1 4.3125-1 2.7578 0 4.8516 0.85156 6.2812 2.5469 1.4375 1.6875 2.1562 4.1523 2.1562 7.3906z"/>
  </symbol>
 </defs>
 <g>
  <path d="m125.49 535.14c13.34 10.664 29.973 16.359 47.051 16.109 6.7695-0.019531 13.52-0.78516 20.125-2.2734 25.781-6.2461 48.715-20.984 65.105-41.844 15.273-18.516 24.676-41.168 27.004-65.055 2.5977-32.543 13.254-63.926 31.012-91.316 1.4883-2.3398 1.7539-5.2539 0.71484-7.8242l26.496-17.387 39.516 18.785v0.003906c-0.55859 2.2969-0.14844 4.7227 1.1367 6.7109l0.875 1.3906c17.531 26.273 28.008 56.613 30.426 88.105 2.1172 24.492 11.68 47.75 27.402 66.648 20.512 26.363 51.637 42.305 85.016 43.547 17.246 0.30469 34.051-5.4375 47.504-16.23 36.41-29.75 36.27-90.379-0.33984-135.27v-0.003906c-14.812-18.398-34.664-32.082-57.129-39.375-31.484-9.3945-60.078-26.598-83.125-50.012-3.1641-3.2734-8.3086-3.5742-11.832-0.69141l-0.31641 0.26172-21.305-30.738 110.76-238.15c1.4141-3.0469 0.95703-6.6367-1.1719-9.2344l-15.836-19.336c-1.7344-2.1484-4.3867-3.3398-7.1406-3.2109-2.7539 0.11719-5.2891 1.5273-6.8438 3.7969l-131.43 191.62-132.05-190.44c-1.5664-2.2617-4.1094-3.6523-6.8594-3.7539-2.75-0.13672-5.3984 1.0586-7.1133 3.2188l-15.75 19.363c-2.1211 2.6094-2.5625 6.207-1.1289 9.25l111.68 237.12-20.859 30.406-0.31641-0.25391c-3.5312-2.8633-8.6719-2.5391-11.82 0.74219l-37.398 39.051c-4.5703 4.5898-10.832 7.0859-17.305 6.9062h-0.0625c-33.504 1.2969-64.684 17.461-85.059 44.09-19.52 23.184-29.133 53.121-26.766 83.336 1.7539 20.238 11.523 38.934 27.133 51.93zm386.75-158.51v0.003907c19.16 6.2539 36.086 17.957 48.703 33.676 30.504 37.398 31.77 87.027 2.8438 110.64-28.875 23.625-77.254 12.496-107.83-24.832-13.438-16.094-21.633-35.914-23.484-56.797-2.4492-32.387-12.711-63.695-29.906-91.246l24.867-20.344c24.105 22.637 53.129 39.379 84.797 48.906zm-23.809-344.56 4.9609 6.0625-104.12 223.92-29.434-42.43zm-279.05 1.1797 199.16 287.33-12.941 10.586-69.223-32.891-121.93-258.9zm97.203 264.02 5.3203 11.297c0.86328 1.8281 2.332 3.3047 4.1562 4.1719l8.4531 4.0156-21.133 13.859-12.652-10.238zm-167.82 113.62c17.066-22.559 43.289-36.348 71.547-37.625h0.089843c11.184 0.16406 21.945-4.2852 29.75-12.301l31.84-33.25 24.91 20.125c-16.844 28.238-26.977 59.973-29.609 92.75-2.0195 20.402-10.082 39.738-23.16 55.527-13.902 17.789-33.383 30.387-55.309 35.77-18.109 4.8281-37.43 0.98828-52.316-10.395-12.047-10.035-19.516-24.52-20.703-40.152-1.8789-25.586 6.3633-50.887 22.961-70.449z"/>
  <path d="m342.7 287.18c4.8281 0 9.4414-1.9961 12.75-5.5117 3.3047-3.5156 5.0117-8.2461 4.7148-13.062-0.29688-4.8203-2.5703-9.3008-6.2852-12.387-3.7109-3.0859-8.5352-4.5-13.328-3.9062-4.7891 0.59375-9.125 3.1367-11.977 7.0352-2.8516 3.8945-3.9648 8.7969-3.0781 13.543 0.73047 4.0234 2.8516 7.6641 6 10.277 3.1445 2.6133 7.1133 4.0352 11.203 4.0117zm8.6016-19.102-8.5938 1.6094z"/>
  <path d="m153.91 505.34c6.0234 4.2656 13.25 6.5078 20.633 6.4141 5.8281-0.070312 11.602-1.1797 17.043-3.2812 13.891-5.6016 25.828-15.16 34.336-27.484 8.9219-12.031 14.113-26.418 14.926-41.371 1.2031-13.367-4.4922-26.43-15.102-34.648-11.207-7.3906-25.402-8.5703-37.676-3.1328-13.887 5.6055-25.824 15.16-34.336 27.484-8.918 12.035-14.109 26.422-14.93 41.379-1.1953 13.363 4.4961 26.422 15.105 34.641zm2.3711-34.125c0.71875-11.488 4.793-22.512 11.715-31.711 6.4844-9.5039 15.609-16.898 26.25-21.27 3.4844-1.3438 7.1719-2.0664 10.902-2.1445 3.7422-0.10547 7.418 0.98828 10.5 3.1133 5.6602 4.9883 8.5703 12.398 7.8125 19.906-0.70703 11.48-4.7656 22.496-11.672 31.691-6.4766 9.5078-15.605 16.906-26.25 21.273-6.8633 3.1406-14.816 2.7773-21.367-0.97266-5.6875-4.9727-8.6289-12.387-7.8906-19.906z"/>
  <path d="m506.98 508.47c5.4375 2.1016 11.211 3.2109 17.043 3.2812 7.3828 0.09375 14.605-2.1484 20.633-6.4141 10.613-8.2148 16.312-21.273 15.121-34.641-0.82031-14.957-6.0117-29.344-14.93-41.379-20.125-28.133-51.758-38.84-72.02-24.352-10.613 8.2148-16.309 21.273-15.113 34.641 1.0664 14.902 6.2344 29.223 14.926 41.375 8.6953 12.152 20.578 21.664 34.34 27.488zm-23.977-89.27c3.1016-2.1406 6.8008-3.2461 10.57-3.1484 15.246 1.8398 28.848 10.453 37.031 23.449 6.9023 9.1992 10.957 20.215 11.672 31.691 1.0234 4.9883 0.070312 10.176-2.6602 14.473-2.7266 4.3008-7.0195 7.3672-11.965 8.5625-4.9492 1.1953-10.168 0.42188-14.559-2.1562-10.496-4.6055-19.555-11.953-26.223-21.273-6.6719-9.3242-10.703-20.27-11.672-31.691-0.76562-7.5039 2.1406-14.918 7.8047-19.906z"/>
  <use x="70" y="691.25" xlink:href="#m"/>
  <use x="102.109375" y="691.25" xlink:href="#b"/>
  <use x="123.683594" y="691.25" xlink:href="#a"/>
  <use x="153.355469" y="691.25" xlink:href="#h"/>
  <use x="182.878906" y="691.25" xlink:href="#g"/>
  <use x="203.792969" y="691.25" xlink:href="#a"/>
  <use x="233.464844" y="691.25" xlink:href="#f"/>
  <use x="280.011719" y="691.25" xlink:href="#e"/>
  <use x="311.328125" y="691.25" xlink:href="#d"/>
  <use x="355.078125" y="691.25" xlink:href="#b"/>
  <use x="376.65625" y="691.25" xlink:href="#c"/>
  <use x="391.652344" y="691.25" xlink:href="#l"/>
  <use x="420.171875" y="691.25" xlink:href="#a"/>
  <use x="449.84375" y="691.25" xlink:href="#b"/>
  <use x="471.417969" y="691.25" xlink:href="#k"/>
  <use x="497.351562" y="691.25" xlink:href="#j"/>
  <use x="527.410156" y="691.25" xlink:href="#i"/>
 </g>
</svg>
