<!-- Generated by IcoMoon.io -->
<svg version="1.1" xmlns="http://www.w3.org/2000/svg" width="32" height="32" viewBox="0 0 32 32">
<title>Cutting</title>
<path d="M17.375 2.875l-1.188-2.75c-0.063-0.125-0.25-0.188-0.375-0.063l-2.438 1.5-0.313-0.688c-0.188-0.375-0.563-0.563-0.938-0.375-0.375 0.125-0.563 0.563-0.375 0.938l0.313 0.75-0.5 0.188c-0.188 0.125-0.313 0.313-0.188 0.5l0.75 1.75c0.063 0.188 0.25 0.25 0.5 0.188l0.5-0.25 1.188 2.688c0.313-0.375 0.75-0.625 1.25-0.688l-1.125-2.563 2.813-0.75c0.125-0.063 0.188-0.188 0.125-0.375zM17.625 11.25l-0.375-0.875c-0.438 0.625-0.5 0.688-1 1.375l0.063 0.125c0.188 0.313 0.563 0.5 0.938 0.375 0.375-0.188 0.563-0.625 0.375-1zM13.75 13.688l3.063-4.375c0.375-0.5 0.25-1.25-0.25-1.625-0.563-0.375-1.313-0.25-1.625 0.313l-2.625 3.688-3.875-0.938 2.75 0.125c-0.375-0.75-1.125-1.188-1.938-1l-3.063 0.625c-0.938 0.188-1.563 1.125-1.375 2.063l1.75 8.438c0 0.625-0.188 3.688-0.188 4.063l-2.938 4.875c-0.375 0.625-0.188 1.5 0.438 1.875 0.688 0.375 1.5 0.188 1.875-0.5l3.125-5.125c0.125-0.188 0.188-0.375 0.188-0.625 0-0.438 0.25-4.313 0.25-4.75l1.125-0.25c0.25 0.625 1.375 3.25 1.5 3.688l0.063 6.375c0.063 0.75 0.625 1.375 1.375 1.375 0.813 0 1.375-0.625 1.375-1.375l-0.063-6.688c0-0.188-0.063-0.375-0.125-0.5-0.125-0.438-1.313-3.188-1.438-3.625l-1.063-4.875-4.188-1.875 4.688 1.063c0.438 0.125 0.938-0.063 1.188-0.438zM9.938 6.125c-0.313-1.438-1.688-2.313-3.063-2-1.375 0.25-2.313 1.625-2 3.063 0.313 1.375 1.688 2.313 3.063 2s2.313-1.688 2-3.063zM28.563 24.875c-0.313-0.313-0.75-0.25-1 0l-1.563 1.75c0.063-0.875 0.313-1.688 0.625-2.5 0.125-0.25-0.063-0.563-0.375-0.563h-6.438c-0.313 0-0.5 0.313-0.375 0.563 0.938 2.438 0.938 4.875 0 7.313-0.125 0.25 0.063 0.563 0.375 0.563h6.438c0.313 0 0.5-0.313 0.375-0.563-0.375-0.938-0.563-1.813-0.688-2.75l2.625-2.875c0.25-0.25 0.25-0.688 0-0.938z"></path>
</svg>
