<?xml version="1.0" standalone="no"?>
<!DOCTYPE svg PUBLIC "-//W3C//DTD SVG 20010904//EN"
 "http://www.w3.org/TR/2001/REC-SVG-20010904/DTD/svg10.dtd">
<svg version="1.0" xmlns="http://www.w3.org/2000/svg"
 width="500.000000pt" height="500.000000pt" viewBox="0 0 500.000000 500.000000"
 preserveAspectRatio="xMidYMid meet">

<g transform="translate(0.000000,500.000000) scale(0.100000,-0.100000)"
fill="#000000" stroke="none">
<path d="M2457 3730 c-94 -24 -203 -73 -286 -129 -79 -54 -81 -77 -11 -120 63
-39 82 -80 84 -183 2 -83 3 -85 26 -88 31 -5 38 1 89 69 63 85 131 147 191
173 25 12 52 24 60 28 8 4 37 57 64 119 63 142 61 145 -55 148 -55 1 -110 -5
-162 -17z m129 -122 c-20 -46 -31 -57 -79 -81 -30 -15 -82 -53 -115 -83 -63
-57 -72 -62 -72 -41 0 18 -39 88 -63 115 -26 27 -25 28 80 78 81 38 167 62
230 63 l42 1 -23 -52z"/>
<path d="M2965 3496 c-159 -50 -270 -184 -282 -340 -7 -83 2 -89 115 -69 72
12 93 12 160 0 97 -19 117 -11 108 41 -28 156 -28 160 0 316 6 32 4 42 -11 52
-23 17 -37 17 -90 0z m0 -205 l0 -109 -95 -4 c-52 -2 -97 -3 -98 -2 -9 6 23
82 49 120 27 39 110 104 133 104 7 0 11 -38 11 -109z"/>
<path d="M2172 3014 c-26 -18 -28 -47 -7 -129 21 -80 59 -151 106 -200 21 -23
39 -44 39 -47 0 -4 -181 -8 -402 -10 -401 -3 -403 -3 -447 -27 -65 -34 -132
-109 -179 -198 -181 -349 -94 -897 167 -1051 l46 -27 993 -3 c991 -2 992 -2
1042 19 29 13 71 44 103 78 279 293 228 1003 -84 1176 l-54 30 -366 5 -366 5
-37 28 c-103 79 -158 165 -178 278 -6 35 -18 70 -27 77 -24 19 -320 17 -349
-4z m305 -146 c22 -73 50 -122 111 -197 l34 -41 -80 0 c-78 0 -82 1 -129 38
-88 70 -150 158 -168 240 l-7 32 109 0 109 0 21 -72z m-804 -352 c141 -96 232
-356 213 -608 -23 -307 -177 -534 -340 -504 -124 23 -238 217 -267 451 -34
272 59 573 204 660 58 35 140 35 190 1z m1063 -53 c15 -160 -26 -288 -100
-313 -67 -22 -59 -58 24 -117 33 -24 60 -47 60 -53 0 -6 -131 -10 -373 -10
l-374 0 -6 93 c-11 160 -65 321 -140 420 -21 26 -37 49 -37 52 0 3 211 5 469
5 l469 0 8 -77z m786 48 c39 -25 88 -78 88 -95 0 -3 -93 -6 -206 -6 -211 0
-244 -5 -244 -39 0 -42 21 -46 269 -48 l236 -2 14 -33 c7 -18 22 -73 32 -123
63 -303 -40 -660 -214 -744 -43 -21 -53 -21 -880 -21 l-837 0 37 48 c71 92
128 245 148 394 l6 48 431 2 c393 3 432 5 442 20 14 23 -9 69 -68 135 l-47 52
30 43 c44 62 61 142 61 280 l0 118 328 0 328 0 46 -29z"/>
<path d="M1525 2396 c-94 -41 -165 -227 -165 -430 0 -92 31 -239 63 -301 43
-85 116 -139 169 -127 40 8 30 82 -11 82 -42 0 -92 79 -117 187 -12 51 -15
100 -11 198 7 186 44 282 125 322 39 19 51 45 32 68 -15 18 -45 18 -85 1z"/>
<path d="M1552 2178 c-16 -16 -15 -53 2 -67 8 -7 18 -38 21 -69 3 -31 8 -67
11 -79 6 -30 41 -39 66 -17 17 16 19 26 13 74 -10 82 -24 129 -46 151 -22 22
-49 25 -67 7z"/>
<path d="M2999 2219 c-18 -18 -19 -23 -6 -42 13 -20 24 -22 136 -25 128 -3
161 5 161 38 0 38 -37 50 -157 50 -101 0 -115 -2 -134 -21z"/>
<path d="M2128 1789 c-21 -12 -24 -49 -6 -67 15 -15 330 -17 359 -2 24 13 25
42 1 63 -16 14 -43 17 -178 17 -89 0 -167 -5 -176 -11z"/>
<path d="M2342 1608 c-20 -20 -14 -58 11 -67 25 -9 731 -6 747 4 14 9 13 48
-2 63 -17 17 -739 17 -756 0z"/>
</g>
</svg>
