<svg xmlns="http://www.w3.org/2000/svg" data-name="Layer 4" viewBox="0 0 512 640" x="0px" y="0px"><title>32. architecture, building, house, real estate, destroy, rebuild </title><path d="M483.227,209.347,247.93,108.49l6.3-14.706c4.547-10.607,2.015-23.12-7.129-35.231-8.166-10.814-20.928-20.313-35.936-26.746s-30.687-9.128-44.151-7.581c-15.078,1.729-25.885,8.523-30.432,19.132l-31.517,73.529c-4.547,10.608-2.015,23.12,7.129,35.231,8.166,10.815,20.928,20.314,35.936,26.747a99.826,99.826,0,0,0,25.1,7.169,15.9,15.9,0,0,0-7.025,2.986L30.407,291.28A15.955,15.955,0,0,0,40,320h8l.046,143.833A24.46,24.46,0,0,0,72.337,488h.046l208-.4a23.839,23.839,0,0,0,16.957-7.062,23.013,23.013,0,0,0,6.707-16.739v-144h8a16.034,16.034,0,0,0,15.173-11.229,15.781,15.781,0,0,0-5.613-17.85L185.412,188.983a15.8,15.8,0,0,0-4.115-2.2c1.08.046,2.152.077,3.209.077,18.146,0,32.749-6.8,38.211-19.548l6.3-14.707,235.3,100.856c2.2.895,8.089,1.459,10.5-4.2l12.607-29.412A8,8,0,0,0,483.227,209.347ZM64,320l32.046-.045v18.9l-32.04,16.02ZM288.046,463.833a7.921,7.921,0,0,1-8,7.969h-56v-72a15.954,15.954,0,0,0-15.833-16.062h-.029l-64.138.062c-7.829-.193-16,8-16,16v72l-55.694.2h-.015a8.448,8.448,0,0,1-8.291-8.2l.116-91.114,19.685-9.842,12.771,31.927a8,8,0,1,0,14.855-5.941L98.207,355.665l9.416-4.708a8,8,0,0,0,4.422-7.155v-24h176Zm-104-255.9v27.337l36.116,21.67a8,8,0,1,1-8.232,13.721l-27.884-16.73v9.87a8,8,0,0,1-4.422,7.155l-32,16a8,8,0,1,1-7.155-14.311l27.578-13.789v-51.19l7.79-5.866Zm39.723-83.689-15.759,36.765c-4.472,10.435-27.574,14.294-53.573,3.149-12.308-5.276-23.05-13.179-29.47-21.683-5.456-7.227-7.349-14.256-5.192-19.287l20.993-48.977c7.47,12.117,21.135,23.514,38.883,31.122,12.243,5.248,24.932,8.007,36.5,8.007a67.033,67.033,0,0,0,7.649-.426c1.789-.205,3.514-.487,5.18-.833Z"/><text x="0" y="527" fill="#000000" font-size="5px" font-weight="bold" font-family="'Helvetica Neue', Helvetica, Arial-Unicode, Arial, Sans-serif">Created by Foxyard Studio</text><text x="0" y="532" fill="#000000" font-size="5px" font-weight="bold" font-family="'Helvetica Neue', Helvetica, Arial-Unicode, Arial, Sans-serif">from the Noun Project</text></svg>