<svg xmlns="http://www.w3.org/2000/svg" xmlns:xlink="http://www.w3.org/1999/xlink" version="1.1" x="0px" y="0px" viewBox="0 0 100 125" style="enable-background:new 0 0 100 100;" xml:space="preserve"><path d="M11.3,91.5h77.5c0.8,0,1.5-0.7,1.5-1.5V70.6c0-22.2-18-40.2-40.2-40.2S9.8,48.4,9.8,70.6V90C9.8,90.8,10.4,91.5,11.3,91.5z   M12.8,70.6c0-20.5,16.7-37.2,37.2-37.2s37.2,16.7,37.2,37.2v17.9h-6.7V70.6c0-5.8-1.6-11.2-4.5-15.9c0.1-0.6,0.2-1.3,0.2-1.9  c0-5-4.1-9.1-9.1-9.1c-0.8,0-1.5,0.1-2.2,0.3c-4.4-2.5-9.5-3.9-15-3.9S39.5,41.5,35,44c-0.7-0.2-1.5-0.3-2.2-0.3  c-5,0-9.1,4.1-9.1,9.1c0,0.7,0.1,1.3,0.2,1.9c-2.8,4.6-4.5,10.1-4.5,15.9v17.9h-6.7L12.8,70.6L12.8,70.6z M37.3,84.3  c1.5-3.7,4.4-6.5,8-7.8c0.9,1.7,2.6,2.9,4.7,2.9s3.8-1.2,4.7-2.9c3.6,1.3,6.6,4.1,8,7.8c-3.3,2.7-7.7,4.2-12.7,4.2  S40.6,87,37.3,84.3z M26.7,52.8c0-3.4,2.7-6.1,6.1-6.1c3,0,5.5,2.2,6,5c-2.9,1.7-5.3,4-7,7.1C28.9,58.4,26.7,55.8,26.7,52.8z   M73.3,52.8c0,3-2.2,5.6-5.2,6c-1.7-3-4-5.4-7-7.1c0.5-2.9,3-5,6-5C70.6,46.7,73.3,49.4,73.3,52.8z M31.8,72.3  c0-6.1,1.8-20.2,18.2-20.2s18.2,14.1,18.2,20.2c0,3.7-1.1,7.1-3.3,9.8c-2-4.1-5.5-7.1-9.7-8.5c-0.3-2.6-2.5-4.7-5.2-4.7  s-4.9,2.1-5.2,4.7c-4.2,1.4-7.8,4.4-9.7,8.5C32.9,79.4,31.8,76,31.8,72.3z"/><path d="M38.2,67.3c0,0.8,0.7,1.5,1.5,1.5h3.6c0.8,0,1.5-0.7,1.5-1.5s-0.7-1.5-1.5-1.5h-3.6C38.9,65.8,38.2,66.5,38.2,67.3z"/><path d="M56.7,68.8h3.6c0.8,0,1.5-0.7,1.5-1.5s-0.7-1.5-1.5-1.5h-3.6c-0.8,0-1.5,0.7-1.5,1.5S55.9,68.8,56.7,68.8z"/><text x="0" y="115" fill="#000000" font-size="5px" font-weight="bold" font-family="'Helvetica Neue', Helvetica, Arial-Unicode, Arial, Sans-serif">Created by Lars Meiertoberens</text><text x="0" y="120" fill="#000000" font-size="5px" font-weight="bold" font-family="'Helvetica Neue', Helvetica, Arial-Unicode, Arial, Sans-serif">from the Noun Project</text></svg>