<svg xmlns="http://www.w3.org/2000/svg" xmlns:xlink="http://www.w3.org/1999/xlink" viewBox="0 0 60 76.25" version="1.1" x="0px" y="0px"><title>031 - Harvest Crop </title><desc>Created with Sketch.</desc><g stroke="none" stroke-width="1" fill="none" fill-rule="evenodd"><g fill="#000000" fill-rule="nonzero"><path d="M52.419,52.752 C52.794248,52.376904 53.0050729,51.8680734 53.0050729,51.3375 C53.0050729,50.8069266 52.794248,50.298096 52.419,49.923 L44.507,42.011 C44.001804,41.5105629 43.2688815,41.3160053 42.582,41.5 L40.492,39.41 C43.778883,33.6906922 43.8554314,26.6737402 40.6941004,20.8840884 C37.5327693,15.0944367 31.588406,11.3650909 25,11.038 L25,9 C26.454,8.979 29.009,8.776 30.441,7.677 C32.462,6.127 32.757,2.49 32.784,2.077 C32.8017626,1.80984786 32.7116528,1.54673035 32.5338447,1.34655528 C32.3560367,1.14638021 32.1053826,1.02586821 31.838,1.012 C31.38,0.991 27.3,0.824 25.345,2.325 C25.2238522,2.41770247 25.1086268,2.51789844 25,2.625 L25,1 C25,0.44771525 24.5522847,3.38176876e-17 24,0 C23.4477153,-3.38176876e-17 23,0.44771525 23,1 L23,2.627 C22.8913732,2.51989844 22.7761478,2.41970247 22.655,2.327 C20.7,0.824 16.623,0.99 16.162,1.014 C15.8946174,1.02786821 15.6439633,1.14838021 15.4661553,1.34855528 C15.2883472,1.54873035 15.1982374,1.81184786 15.216,2.079 C15.243,2.488 15.538,6.125 17.559,7.679 C18.992,8.774 21.546,8.977 23,9 L23,11.039 C16.357702,11.3712713 10.3749903,15.1591315 7.23376267,21.0211462 C4.09253504,26.8831608 4.25199977,33.9623765 7.654,39.677 C8.36862777,40.8936562 9.60613015,41.7110555 11.0056387,41.8908358 C12.4051473,42.0706161 13.8090668,41.5925329 14.808,40.596 C15.1983819,40.2055001 15.1983819,39.5724999 14.808,39.182 C12.1959768,36.5628142 10.8212176,32.9562984 11.027,29.263 C11.2930805,24.4123099 14.2429298,20.1152415 18.6739179,18.123675 C23.1049061,16.1321085 28.2767768,16.778762 32.081,19.8 C37.1152695,23.8482405 38.4488674,30.9610455 35.223,36.558 C34.1190594,38.3747149 34.131046,40.6579758 35.254,42.463 C35.4699518,42.8040939 35.7224432,43.1206302 36.007,43.407 L38.34,45.739 C38.1542233,46.4253907 38.3486185,47.1587562 38.85,47.663 L46.763,55.576 C47.5439997,56.3567639 48.8100003,56.3567639 49.591,55.576 L52.419,52.752 Z M26.563,3.912 C27.8232554,3.26582052 29.2275568,2.95191786 30.643,3 C30.509848,4.15319397 30.0124173,5.23387951 29.223,6.085 C27.9630652,6.73234344 26.5587164,7.04728931 25.143,7 C25.2755352,5.84574821 25.7730066,4.76392322 26.563,3.912 Z M18.777,6.088 C17.9901683,5.23656104 17.4936938,4.15748163 17.359,3.006 C18.676,3.045 20.572,3.248 21.437,3.912 C22.2238742,4.76329954 22.7200565,5.84250486 22.854,6.994 C21.538,6.955 19.642,6.752 18.777,6.088 Z M36.942,41.4 C36.2235667,40.2263138 36.2258861,38.7484254 36.948,37.577 C40.8073959,30.9861941 39.0982759,22.5478218 32.978436,17.9782246 C26.8585961,13.4086274 18.2823503,14.1670637 13.0594386,19.7397519 C7.83652699,25.3124401 7.63483788,33.9197939 12.591,39.731 C12.1760375,39.9091236 11.7207063,39.9719994 11.273,39.913 C10.4790275,39.8149343 9.77633005,39.3518937 9.373,38.661 C6.25377043,33.4116465 6.19213966,26.8919856 9.21157571,21.5846029 C12.2310118,16.2772202 17.8668306,12.9989093 23.973,12.998 C23.984,12.998 23.992,13.004 24.003,13.004 C24.0124296,13.0024789 24.0217751,13.0004763 24.031,12.998 C30.213384,13.000682 35.905623,16.3637717 38.8909998,21.7775877 C41.8763766,27.1914038 41.6829325,33.8000751 38.386,39.03 C38.1363559,39.4250907 38.193659,39.940404 38.524,40.271 L40.971,42.718 L39.557,44.132 L37.422,42 C37.2406329,41.8180719 37.0796785,41.616879 36.942,41.4 Z M40.264,46.257 L43.093,43.429 L51.005,51.342 L48.177,54.17 L40.264,46.257 Z"/><path d="M59,58 L50,58 C49.4477153,58 49,58.4477153 49,59 C49,59.5522847 49.4477153,60 50,60 L59,60 C59.5522847,60 60,59.5522847 60,59 C60,58.4477153 59.5522847,58 59,58 Z"/><path d="M46,58 L25,58 L25,51 C26.454,50.979 29.009,50.776 30.441,49.677 C32.462,48.127 32.757,44.49 32.784,44.077 C32.8017626,43.8098479 32.7116528,43.5467304 32.5338447,43.3465553 C32.3560367,43.1463802 32.1053826,43.0258682 31.838,43.012 C31.38,42.988 27.301,42.822 25.345,44.323 C25.2238522,44.4157025 25.1086268,44.5158984 25,44.623 L25,41 C26.454,40.979 29.009,40.776 30.441,39.677 C32.462,38.127 32.757,34.49 32.784,34.077 C32.8017626,33.8098479 32.7116528,33.5467304 32.5338447,33.3465553 C32.3560367,33.1463802 32.1053826,33.0258682 31.838,33.012 C31.38,32.988 27.301,32.823 25.345,34.323 C25.2238522,34.4157025 25.1086268,34.5158984 25,34.623 L25,31 C26.454,30.979 29.009,30.776 30.441,29.677 C32.462,28.127 32.757,24.49 32.784,24.077 C32.8017626,23.8098479 32.7116528,23.5467304 32.5338447,23.3465553 C32.3560367,23.1463802 32.1053826,23.0258682 31.838,23.012 C31.38,22.989 27.301,22.822 25.345,24.323 C25.2238522,24.4157025 25.1086268,24.5158984 25,24.623 L25,20 C25,19.4477153 24.5522847,19 24,19 C23.4477153,19 23,19.4477153 23,20 L23,24.627 C22.8913732,24.5198984 22.7761478,24.4197025 22.655,24.327 C20.698,22.827 16.623,22.992 16.162,23.016 C15.8946174,23.0298682 15.6439633,23.1503802 15.4661553,23.3505553 C15.2883472,23.5507304 15.1982374,23.8138479 15.216,24.081 C15.243,24.49 15.538,28.127 17.559,29.681 C18.992,30.781 21.546,30.981 23,31.004 L23,34.633 C22.8913732,34.5258984 22.7761478,34.4257025 22.655,34.333 C20.698,32.833 16.623,32.998 16.162,33.022 C15.8946174,33.0358682 15.6439633,33.1563802 15.4661553,33.3565553 C15.2883472,33.5567304 15.1982374,33.8198479 15.216,34.087 C15.243,34.496 15.538,38.133 17.559,39.687 C18.992,40.787 21.546,40.987 23,41.01 L23,44.639 C22.8913732,44.5318984 22.7761478,44.4317025 22.655,44.339 C20.698,42.839 16.623,43.003 16.162,43.028 C15.8946174,43.0418682 15.6439633,43.1623802 15.4661553,43.3625553 C15.2883472,43.5627304 15.1982374,43.8258479 15.216,44.093 C15.243,44.502 15.538,48.139 17.559,49.693 C18.992,50.793 21.546,50.993 23,51.016 L23,58.016 L1,58.016 C0.44771525,58.016 6.76353751e-17,58.4637153 0,59.016 C-6.76353751e-17,59.5682847 0.44771525,60.016 1,60.016 L46,60.016 C46.5522847,60.016 47,59.5682847 47,59.016 C47,58.4637153 46.5522847,58.016 46,58.016 L46,58 Z M26.563,45.912 C27.8232554,45.2658205 29.2275568,44.9519179 30.643,45 C30.509848,46.153194 30.0124173,47.2338795 29.223,48.085 C27.9625151,48.7302669 26.558195,49.0431412 25.143,48.994 C25.2767682,47.8418639 25.7741582,46.7623176 26.563,45.912 Z M26.563,35.912 C27.8232554,35.2658205 29.2275568,34.9519179 30.643,35 C30.509848,36.153194 30.0124173,37.2338795 29.223,38.085 C27.9625151,38.7302669 26.558195,39.0431412 25.143,38.994 C25.2767682,37.8418639 25.7741582,36.7623176 26.563,35.912 Z M26.563,25.912 C27.8232554,25.2658205 29.2275568,24.9519179 30.643,25 C30.509848,26.153194 30.0124173,27.2338795 29.223,28.085 C27.9625151,28.7302669 26.558195,29.0431412 25.143,28.994 C25.2767682,27.8418639 25.7741582,26.7623176 26.563,25.912 Z M18.777,28.088 C17.9901683,27.236561 17.4936938,26.1574816 17.359,25.006 C18.676,25.045 20.572,25.248 21.437,25.912 C22.2238742,26.7632995 22.7200565,27.8425049 22.854,28.994 C21.538,28.955 19.642,28.752 18.777,28.088 Z M18.777,38.088 C17.9901683,37.236561 17.4936938,36.1574816 17.359,35.006 C18.676,35.045 20.572,35.248 21.437,35.912 C22.2238742,36.7632995 22.7200565,37.8425049 22.854,38.994 C21.538,38.955 19.642,38.752 18.777,38.088 Z M18.777,48.088 C17.9901683,47.236561 17.4936938,46.1574816 17.359,45.006 C18.676,45.045 20.572,45.248 21.437,45.912 C22.2238742,46.7632995 22.7200565,47.8425049 22.854,48.994 C21.538,48.955 19.642,48.752 18.777,48.088 Z"/></g></g><text x="0" y="76" fill="#000000" font-size="5px" font-weight="bold" font-family="'Helvetica Neue', Helvetica, Arial-Unicode, Arial, Sans-serif">Created by Smashicons</text><text x="0" y="81" fill="#000000" font-size="5px" font-weight="bold" font-family="'Helvetica Neue', Helvetica, Arial-Unicode, Arial, Sans-serif">from the Noun Project</text></svg>