<!-- Generated by IcoMoon.io -->
<svg version="1.1" xmlns="http://www.w3.org/2000/svg" width="32" height="32" viewBox="0 0 32 32">
<title>died-of-old-age</title>
<path d="M0.875-2.313h-0.188c0 0.125-0.063 0.188-0.188 0.188-0.188 0-0.25-0.125-0.25-0.313 0-0.25 0.063-0.375 0.25-0.375 0.125 0 0.188 0.063 0.188 0.188h0.188c0-0.188-0.188-0.313-0.375-0.313-0.25 0-0.438 0.188-0.438 0.5 0 0.25 0.188 0.438 0.438 0.438 0.188 0 0.375-0.125 0.375-0.313zM0.5-2.5v-0.188c-0.063 0-0.063 0-0.063 0-0.063 0-0.125 0.063-0.188 0.125v-0.125h-0.188v0.688h0.188v-0.375c0-0.125 0.063-0.125 0.188-0.125 0 0 0 0 0.063 0zM0.688-2.313c0-0.25-0.125-0.375-0.313-0.375-0.25 0-0.375 0.125-0.375 0.375 0 0.188 0.125 0.313 0.375 0.313 0.125 0 0.25-0.063 0.313-0.188h-0.188c0 0.063-0.063 0.063-0.125 0.063-0.125 0-0.188-0.063-0.188-0.188h0.5zM0.5-2.438h-0.313c0.063-0.063 0.063-0.125 0.188-0.125 0.063 0 0.125 0.063 0.125 0.125zM0.688-2v0c-0.063-0.063-0.063-0.063-0.063-0.125v-0.375c0-0.125-0.063-0.188-0.25-0.188s-0.313 0.063-0.313 0.25h0.188c0-0.125 0-0.125 0.125-0.125 0.063 0 0.063 0 0.063 0.063s-0.063 0.063-0.125 0.063l-0.063 0.063c-0.125 0-0.188 0.063-0.188 0.188s0.063 0.188 0.188 0.188c0.063 0 0.125 0 0.188-0.063 0 0 0 0.063 0.063 0.063zM0.438-2.313c0 0.125-0.063 0.188-0.125 0.188s-0.125-0.063-0.125-0.063c0-0.063 0.063-0.063 0.125-0.125h0.063c0.063 0 0.063 0 0.063 0zM0.375-2v-0.125c0 0 0 0 0 0-0.063 0-0.063 0-0.063-0.063v-0.375h0.063v-0.125h-0.063v-0.188h-0.188v0.188h-0.125v0.125h0.125v0.438c0 0.063 0.063 0.125 0.188 0.125 0 0 0.063 0 0.063 0zM0.688-2v-0.938h-0.188v0.313c0-0.063-0.063-0.063-0.188-0.063s-0.25 0.125-0.25 0.313c0 0.25 0.063 0.375 0.25 0.375 0.125 0 0.188 0 0.188-0.063v0.063zM0.5-2.313c0 0.125-0.063 0.188-0.125 0.188-0.125 0-0.188-0.063-0.188-0.25 0-0.125 0.063-0.188 0.188-0.188 0.063 0 0.125 0.063 0.125 0.25zM0.75-2.313c0-0.25-0.125-0.375-0.313-0.375-0.063 0-0.125 0-0.188 0.063v-0.313h-0.188v0.938h0.188v-0.063c0.063 0.063 0.125 0.063 0.188 0.063 0.188 0 0.313-0.125 0.313-0.313zM0.563-2.375c0 0.125-0.063 0.25-0.125 0.25-0.125 0-0.188-0.063-0.188-0.25 0-0.125 0.063-0.188 0.188-0.188 0.063 0 0.125 0.063 0.125 0.188zM0.688-2.688h-0.188l-0.125 0.5-0.188-0.5h-0.188l0.25 0.688v0.063c0 0.063 0 0.063-0.063 0.063s-0.063 0-0.063 0v0.125c0 0 0 0 0.063 0 0.125 0 0.188 0 0.188-0.125zM0.688-2v-0.688h-0.188v0.125c0-0.125-0.063-0.125-0.188-0.125s-0.25 0.125-0.25 0.375c0 0.188 0.125 0.313 0.25 0.313s0.125 0 0.188-0.063v0.063c0 0.125-0.063 0.188-0.125 0.188s-0.125-0.063-0.125-0.125h-0.188c0 0.125 0.125 0.188 0.313 0.188s0.313-0.063 0.313-0.25zM0.5-2.313c0 0.125-0.063 0.188-0.125 0.188s-0.125-0.063-0.125-0.188c0-0.188 0.063-0.25 0.125-0.25s0.125 0.063 0.125 0.25zM0.25-2v-0.688h-0.188v0.688zM0.25-2.75v-0.188h-0.188v0.188zM0.25-2v-0.938h-0.188v0.938zM0.688-2.188v0c0-0.125-0.063-0.188-0.188-0.188l-0.188-0.063c-0.063 0-0.063-0.063-0.063-0.063 0-0.063 0.063-0.063 0.125-0.063s0.125 0 0.125 0.063h0.125c0-0.125-0.063-0.188-0.25-0.188s-0.313 0.063-0.313 0.188c0 0.125 0 0.188 0.125 0.188l0.25 0.063c0.063 0 0.063 0.063 0.063 0.063 0 0.063-0.063 0.063-0.125 0.063-0.125 0-0.125 0-0.188-0.125h-0.125c0 0.188 0.063 0.25 0.313 0.25 0.188 0 0.313-0.063 0.313-0.188zM0.375-2.563v-0.125h-0.063v-0.063c0-0.063 0-0.063 0-0.063 0.063 0 0.063 0 0.063 0v-0.125c0 0-0.063 0-0.063 0-0.125 0-0.188 0.063-0.188 0.188v0.063h-0.125v0.125h0.125v0.563h0.188v-0.563zM0.75-2.313c0-0.25-0.125-0.375-0.375-0.375-0.188 0-0.313 0.125-0.313 0.313 0 0.25 0.125 0.375 0.313 0.375 0.25 0 0.375-0.125 0.375-0.313zM0.563-2.313c0 0.125-0.063 0.188-0.188 0.188-0.063 0-0.125-0.063-0.125-0.25 0-0.125 0.063-0.188 0.125-0.188 0.125 0 0.188 0.063 0.188 0.25zM1.063-2v-0.5c0-0.125-0.063-0.188-0.25-0.188-0.063 0-0.125 0-0.188 0.063 0-0.063-0.125-0.063-0.188-0.063s-0.125 0-0.188 0.063v-0.063h-0.188v0.688h0.188v-0.438c0-0.063 0.063-0.125 0.125-0.125s0.125 0.063 0.125 0.125v0.438h0.125v-0.438c0-0.063 0.063-0.125 0.125-0.125s0.125 0.063 0.125 0.125v0.438zM0.688-2v-0.438c0-0.188-0.063-0.25-0.25-0.25-0.063 0-0.125 0-0.188 0.125v-0.375h-0.188v0.938h0.188v-0.438c0-0.063 0.063-0.125 0.125-0.125s0.125 0.063 0.125 0.125v0.438zM0.875-2v-0.938h-0.25v0.625l-0.313-0.625h-0.25v0.938h0.188v-0.625l0.375 0.625zM0.688-2v-0.688h-0.188v0.438c0 0.063-0.063 0.125-0.125 0.125s-0.125-0.063-0.125-0.125v-0.438h-0.188v0.438c0 0.188 0.125 0.25 0.25 0.25 0.063 0 0.125 0 0.188-0.063v0.063zM0.688-2v-0.438c0-0.188-0.063-0.25-0.25-0.25-0.063 0-0.125 0-0.188 0.125v-0.125h-0.188v0.688h0.188v-0.438c0-0.063 0.063-0.125 0.125-0.125 0.125 0 0.125 0.063 0.125 0.125v0.438zM0.813-2.625c0-0.188-0.125-0.313-0.313-0.313h-0.375v0.938h0.188v-0.313h0.188c0.188 0 0.313-0.125 0.313-0.313zM0.625-2.625c0 0.063-0.063 0.125-0.125 0.125h-0.188v-0.25h0.188c0.063 0 0.125 0 0.125 0.125zM0.25-1.875v-0.813h-0.188v0.75c0 0.063 0 0.063 0 0.063-0.063 0-0.063 0-0.063 0v0.125c0.063 0 0.063 0 0.125 0 0.125 0 0.125 0 0.125-0.125zM0.25-2.75v-0.188h-0.188v0.188zM0.688-2.25h-0.188c0 0.063-0.063 0.125-0.125 0.125-0.125 0-0.125-0.063-0.125-0.188s0-0.25 0.125-0.25c0.063 0 0.125 0.063 0.125 0.125h0.188c-0.063-0.188-0.125-0.25-0.313-0.25s-0.313 0.125-0.313 0.375c0 0.188 0.125 0.313 0.313 0.313s0.25-0.063 0.313-0.25zM28.813 17.313c0 0.375 0 1.938 0 2.563 0 2.063-1.688 3.688-3.75 3.688h-1l-0.75 0.063h-1.75l-0.75-0.063h-1c-2.063 0-3.75-1.625-3.75-3.688 0-0.625 0-2.188 0-2.563 0-0.313 0.313-0.438 0.5-0.188 0.125 0.125 1.875 1.875 3.125 3.188l1.875 1.875v-8.438c0-0.75-0.188-1.438-0.438-2.063-0.813-1.75-2.563-2.938-4.563-2.938-1 0-1.875 0.25-2.688 0.75-0.188 0.063-0.313 0.188-0.5 0.375l0.063 0.063c-0.063 0.063-0.125 0.125 0 0.25s0.25 0.313 0.313 0.438c1.063 1.688 0.625 4.313-0.875 5.75-0.188 0.125-0.313 0.25-0.438 0.313-0.438 0.438-0.938 0.75-1.438 1-0.625 0.313-1.313 0.625-2.188 0.813-0.188 0.063-0.313 0.125-0.5-0.063-0.063-0.125-0.125-0.25-0.063-0.375 0.125-0.375 0.75-2.438 0.813-2.563 0-0.188-0.063-0.313-0.25-0.25-0.125 0-2.25 0.5-2.625 0.563-0.125 0.063-0.25 0-0.375-0.125-0.063-0.063-0.125-0.188-0.063-0.313 0.063-0.375 0.75-2.438 0.813-2.625 0.063-0.125-0.125-0.25-0.25-0.25-0.125 0.063-2.25 0.5-2.688 0.625-0.063 0-0.25-0.063-0.313-0.125-0.188-0.25-0.125-0.313-0.063-0.5 0.625-1.625 1.313-2.75 2.5-3.813 1-0.938 2.5-1.375 3.875-1.188 0.875 0.063 1.75 0.438 2.313 1.125 0.063 0 0.063 0 0.125 0.063 0 0 0.063 0 0.063 0 0.063 0 0.125-0.063 0.125-0.063l0.563-0.563c1.063-0.688 2.375-1.063 3.75-1.063h0.063c3.563 0 6.5 2.875 6.688 6.375 0 0.125 0 0.25 0 0.375v8.438l1.875-1.875c1.25-1.313 3-3.063 3.125-3.188 0.25-0.25 0.5-0.125 0.5 0.188z"></path>
</svg>
