<!-- Generated by IcoMoon.io -->
<svg version="1.1" xmlns="http://www.w3.org/2000/svg" width="32" height="32" viewBox="0 0 32 32">
<title>digging-traces</title>
<path d="M0.875-0.313h-0.188c0 0.125-0.063 0.188-0.188 0.188-0.188 0-0.25-0.125-0.25-0.313 0-0.25 0.063-0.375 0.25-0.375 0.125 0 0.188 0.063 0.188 0.188h0.188c0-0.188-0.188-0.313-0.375-0.313-0.25 0-0.438 0.188-0.438 0.5 0 0.25 0.188 0.438 0.438 0.438 0.188 0 0.375-0.125 0.375-0.313zM0.5-0.5v-0.188c-0.063 0-0.063 0-0.063 0-0.063 0-0.125 0.063-0.188 0.125v-0.125h-0.188v0.688h0.188v-0.375c0-0.125 0.063-0.125 0.188-0.125 0 0 0 0 0.063 0zM0.688-0.313c0-0.25-0.125-0.375-0.313-0.375-0.25 0-0.375 0.125-0.375 0.375 0 0.188 0.125 0.313 0.375 0.313 0.125 0 0.25-0.063 0.313-0.188h-0.188c0 0.063-0.063 0.063-0.125 0.063-0.125 0-0.188-0.063-0.188-0.188h0.5zM0.5-0.438h-0.313c0.063-0.063 0.063-0.125 0.188-0.125 0.063 0 0.125 0.063 0.125 0.125zM0.688 0v0c-0.063-0.063-0.063-0.063-0.063-0.125v-0.375c0-0.125-0.063-0.188-0.25-0.188s-0.313 0.063-0.313 0.25h0.188c0-0.125 0-0.125 0.125-0.125 0.063 0 0.063 0 0.063 0.063s-0.063 0.063-0.125 0.063l-0.063 0.063c-0.125 0-0.188 0.063-0.188 0.188s0.063 0.188 0.188 0.188c0.063 0 0.125 0 0.188-0.063 0 0 0 0.063 0.063 0.063zM0.438-0.313c0 0.125-0.063 0.188-0.125 0.188s-0.125-0.063-0.125-0.063c0-0.063 0.063-0.063 0.125-0.125h0.063c0.063 0 0.063 0 0.063 0zM0.375 0v-0.125c0 0 0 0 0 0-0.063 0-0.063 0-0.063-0.063v-0.375h0.063v-0.125h-0.063v-0.188h-0.188v0.188h-0.125v0.125h0.125v0.438c0 0.063 0.063 0.125 0.188 0.125 0 0 0.063 0 0.063 0zM0.688 0v-0.938h-0.188v0.313c0-0.063-0.063-0.063-0.188-0.063s-0.25 0.125-0.25 0.313c0 0.25 0.063 0.375 0.25 0.375 0.125 0 0.188 0 0.188-0.063v0.063zM0.5-0.313c0 0.125-0.063 0.188-0.125 0.188-0.125 0-0.188-0.063-0.188-0.25 0-0.125 0.063-0.188 0.188-0.188 0.063 0 0.125 0.063 0.125 0.25zM0.75-0.313c0-0.25-0.125-0.375-0.313-0.375-0.063 0-0.125 0-0.188 0.063v-0.313h-0.188v0.938h0.188v-0.063c0.063 0.063 0.125 0.063 0.188 0.063 0.188 0 0.313-0.125 0.313-0.313zM0.563-0.375c0 0.125-0.063 0.25-0.125 0.25-0.125 0-0.188-0.063-0.188-0.25 0-0.125 0.063-0.188 0.188-0.188 0.063 0 0.125 0.063 0.125 0.188zM0.688-0.688h-0.188l-0.125 0.5-0.188-0.5h-0.188l0.25 0.688v0.063c0 0.063 0 0.063-0.063 0.063s-0.063 0-0.063 0v0.125c0 0 0 0 0.063 0 0.125 0 0.188 0 0.188-0.125zM0.75-0.313c0-0.25-0.125-0.375-0.375-0.375-0.188 0-0.313 0.125-0.313 0.313 0 0.25 0.125 0.375 0.313 0.375 0.25 0 0.375-0.125 0.375-0.313zM0.563-0.313c0 0.125-0.063 0.188-0.188 0.188-0.063 0-0.125-0.063-0.125-0.25 0-0.125 0.063-0.188 0.125-0.188 0.125 0 0.188 0.063 0.188 0.25zM1 0v-0.938h-0.313l-0.125 0.75-0.188-0.75h-0.313v0.938h0.188v-0.75l0.188 0.75h0.188l0.188-0.75v0.75zM0.25 0v-0.688h-0.188v0.688zM0.25-0.75v-0.188h-0.188v0.188zM0.688-0.25h-0.188c0 0.063-0.063 0.125-0.125 0.125-0.125 0-0.125-0.063-0.125-0.188s0-0.25 0.125-0.25c0.063 0 0.125 0.063 0.125 0.125h0.188c-0.063-0.188-0.125-0.25-0.313-0.25s-0.313 0.125-0.313 0.375c0 0.188 0.125 0.313 0.313 0.313s0.25-0.063 0.313-0.25zM0.688 0v-0.438c0-0.188-0.063-0.25-0.25-0.25-0.063 0-0.125 0-0.188 0.125v-0.125h-0.188v0.688h0.188v-0.438c0-0.063 0.063-0.125 0.125-0.125 0.125 0 0.125 0.063 0.125 0.125v0.438zM0.375-0.563v-0.125h-0.063v-0.063c0-0.063 0-0.063 0-0.063 0.063 0 0.063 0 0.063 0v-0.125c0 0-0.063 0-0.063 0-0.125 0-0.188 0.063-0.188 0.188v0.063h-0.125v0.125h0.125v0.563h0.188v-0.563zM1.063 0v-0.5c0-0.125-0.063-0.188-0.25-0.188-0.063 0-0.125 0-0.188 0.063 0-0.063-0.125-0.063-0.188-0.063s-0.125 0-0.188 0.063v-0.063h-0.188v0.688h0.188v-0.438c0-0.063 0.063-0.125 0.125-0.125s0.125 0.063 0.125 0.125v0.438h0.125v-0.438c0-0.063 0.063-0.125 0.125-0.125s0.125 0.063 0.125 0.125v0.438zM0.688 0v-0.438c0-0.188-0.063-0.25-0.25-0.25-0.063 0-0.125 0-0.188 0.125v-0.375h-0.188v0.938h0.188v-0.438c0-0.063 0.063-0.125 0.125-0.125s0.125 0.063 0.125 0.125v0.438zM0.875 0v-0.938h-0.25v0.625l-0.313-0.625h-0.25v0.938h0.188v-0.625l0.375 0.625zM0.688 0v-0.688h-0.188v0.438c0 0.063-0.063 0.125-0.125 0.125s-0.125-0.063-0.125-0.125v-0.438h-0.188v0.438c0 0.188 0.125 0.25 0.25 0.25 0.063 0 0.125 0 0.188-0.063v0.063zM0.813-0.625c0-0.188-0.125-0.313-0.313-0.313h-0.375v0.938h0.188v-0.313h0.188c0.188 0 0.313-0.125 0.313-0.313zM0.625-0.625c0 0.063-0.063 0.125-0.125 0.125h-0.188v-0.25h0.188c0.063 0 0.125 0 0.125 0.125zM0.25 0.125v-0.813h-0.188v0.75c0 0.063 0 0.063 0 0.063-0.063 0-0.063 0-0.063 0v0.125c0.063 0 0.063 0 0.125 0 0.125 0 0.125 0 0.125-0.125zM0.25-0.75v-0.188h-0.188v0.188zM4.375 24.188c0 0 0 0 0-0.063 0 0.063 0 0.063 0 0.063s0 0 0 0zM17.125 23.438c0 0.313-0.125 0.563-0.25 0.813 0-0.188-0.125-0.313-0.25-0.5 0-0.063 0-0.063 0-0.125 0-0.688-0.563-1.188-1.188-1.188-0.375 0-0.688 0.125-0.875 0.375-0.063 0-0.125 0-0.125 0 0-0.063 0-0.063 0-0.125 0-0.375-0.188-0.75-0.5-1-0.188-0.313-0.625-0.5-1-0.5-0.563 0-1 0.375-1.188 0.875 0 0-0.063-0.063-0.125-0.125-0.063-0.563-0.563-1.063-1.188-1.063-0.375 0-0.625 0.125-0.813 0.375-0.563 0.063-1 0.563-1 1.063-0.188-0.125-0.438-0.188-0.688-0.188-0.375 0-0.688 0.188-0.938 0.438-0.063-0.063-0.125-0.125-0.188-0.188 0.188-0.688 0.813-1.188 1.563-1.188 0.063 0 0.188 0 0.25 0.063 0.125-0.75 0.813-1.313 1.563-1.313 0.688 0 1.25 0.438 1.5 1 0.125-0.063 0.188-0.063 0.375-0.063 0.25-0.375 0.688-0.625 1.25-0.625 0.875 0 1.563 0.688 1.563 1.625 0 0 0 0 0 0.063 0.188-0.125 0.375-0.125 0.563-0.125 1 0 1.688 0.75 1.688 1.625zM25.125 19.938c-0.063 0-0.188-0.188-0.25-0.188-0.313-0.813-1.063-1.625-2.063-1.625 0 0 0 0 0 0s0 0 0-0.125c0-1-0.688-1.75-1.625-2-0.063-1.125-1-2.063-2.188-2.063-0.625 0-1.188 0.313-1.563 0.75-0.188 0-0.313 0-0.438 0-0.563 0-1.063 0.188-1.438 0.563-0.375-0.25-0.813-0.375-1.25-0.375s-0.75 0.125-1.063 0.25c-0.375-0.563-1.313-0.875-2-0.875-1.188 0-2.438 0.938-2.438 2.188 0 0 0 0 0 0-1 0.188-1.25 0.688-1.313 1.75-1 0-1.875 0.875-2.125 1.813-0.688 0.375-1.125 1.188-1.125 2 0 0.313-0.063 0.625 0.063 0.875 0-0.938 0.688-1.625 1.438-1.688 0 0 0-0.063 0-0.063 0-0.938 0.875-1.688 1.875-1.688 0.313 0 0.625 0.063 0.875 0.25 0.063 0 0.063-0.063 0.125-0.063-0.063-0.125-0.063-0.313-0.063-0.438 0-0.813 0.563-1.5 1.375-1.688-0.125-0.25-0.188-0.5-0.188-0.75 0-0.938 0.75-1.688 1.75-1.688 0.875 0 1.563 0.625 1.688 1.438 0.313-0.25 0.688-0.375 1.125-0.375 0.688 0 1.25 0.375 1.563 0.938 0.188-0.063 0.375-0.063 0.625-0.063 0 0 0.063 0 0.063 0 0.188-0.563 0.625-1 1.188-1.125 0.313-0.5 0.813-0.875 1.438-0.875 0.938 0 1.75 0.813 1.75 1.75 0 0.125-0.063 0.25-0.063 0.375 0 0 0.063 0 0.063 0.063-0.188-0.125-0.5-0.25-0.75-0.25-0.938 0-1.625 0.75-1.625 1.625 0 0 0 0 0 0.063-0.188-0.063-0.375-0.125-0.563-0.125-0.875 0-1.625 0.75-1.625 1.625 0 0.313 0.125 0.563 0.25 0.813 0.063-0.125 0.125-0.313 0.25-0.5 0-0.063 0-0.063 0-0.125 0-0.625 0.563-1.188 1.25-1.188 0.313 0 0.625 0.125 0.875 0.375 0 0 0.063 0 0.063 0 0-0.063 0-0.063 0-0.125 0-0.375 0.188-0.75 0.5-0.938 0.25-0.313 0.625-0.563 1-0.563 0.563 0 0.938 0.375 1.125 0.813 0 0.25-0.063 0.5-0.188 0.75 0.063 0.063 0.125 0.125 0.188 0.188 0.188-0.063 0.438-0.188 0.688-0.188 0.938 0 1.625 0.688 1.75 1.563 0.188-0.063 0.375-0.125 0.563-0.125 0.813 0 1.5 0.625 1.688 1.375 0.313 0.125 0.563 0.375 0.75 0.75 0.125-0.313 0.188-0.563 0.188-0.938 0-1.188-1-2.125-2.188-2.125z"></path>
</svg>
