<!-- Generated by IcoMoon.io -->
<svg version="1.1" xmlns="http://www.w3.org/2000/svg" width="32" height="32" viewBox="0 0 32 32">
<title>Dikdik</title>
<path d="M27.313 1.563c-0.063 0.125-0.125 0.5-0.125 0.813 0 0.688-0.313 1.313-0.313 0.688v-0.438l-0.25 0.438c-0.125 0.188-0.188 0.313-0.25 0.188 0-0.188-0.063-0.188-0.313-0.125s-0.313 0-0.375-0.313c-0.063-0.25-0.188-0.438-0.25-0.438s-0.125 0.125-0.063 0.313c0.063 0.25 0.063 0.25-0.188-0.063-0.125-0.188-0.25-0.438-0.313-0.688-0.063-0.188-0.188-0.313-0.25-0.313-0.188 0-0.063 1.313 0.188 1.813 0.125 0.188 0.063 0.188-0.25-0.125-0.438-0.5-1.313-0.938-1.813-0.938-0.313 0-0.375 0.125-0.375 0.625-0.125 1.813 0.25 2.625 1.313 3.125 0.688 0.313 0.688 0.375 0.75 1 0 1.063-0.313 2.438-0.625 2.875-0.5 0.625-0.938 0.625-2.688-0.25-0.875-0.438-1.938-0.813-2.375-0.875s-1.188-0.25-1.813-0.5c-1.438-0.5-3.375-0.75-5.563-0.75-1.563 0-2 0.063-2.813 0.313-1.25 0.5-3.563 2.25-4.313 3.188-0.313 0.438-0.688 1-0.875 1.25-0.25 0.313-0.375 0.688-0.375 1.25 0 0.938 0.25 1.313 0.875 1.188 0.313-0.063 0.438-0.063 0.438 0.125 0 0.313 0.313 0.375 0.313 0.063 0-0.125 0.125 0 0.25 0.25 0.188 0.25 0.25 0.563 0.188 0.688s0 0.25 0.063 0.25c0.063 0 0.125 0.063 0.063 0.188s0 0.25 0.125 0.25c0.125 0 0.125 0.063 0.063 0.125 0 0.063 0 0.25 0.063 0.375 0.125 0.188 0.125 0.313 0 0.375-0.063 0.063-0.125 0.188-0.063 0.313 0.125 0.25-0.375 0.688-1.875 1.75l-1.188 0.875v1.563c-0.063 0.875-0.125 2.625-0.25 3.938l-0.188 2.313 0.438 0.625c0.188 0.313 0.438 0.75 0.5 0.875 0.063 0.25 0.25 0.313 0.875 0.313 0.438 0 0.813 0 0.813-0.063s-0.25-0.438-0.625-0.813l-0.563-0.813 0.063-2.375c0.125-2.438 0.375-3.688 0.938-4.25 0.188-0.25 0.25-0.188 0.625 0.938 0.25 0.688 0.813 2.063 1.188 3.063 0.438 1 0.875 2.188 1 2.625s0.5 1.063 0.688 1.313c0.313 0.313 0.5 0.688 0.563 0.875 0.125 0.25 0.25 0.313 0.938 0.313 0.813 0 1-0.25 0.5-0.688-0.188-0.063-0.375-0.375-0.5-0.563-0.125-0.25-0.25-0.563-0.313-0.688-0.313-0.438-1.5-3.125-1.5-3.313 0-0.125-0.125-0.438-0.25-0.813-0.188-0.313-0.313-1-0.375-1.563 0-0.813 0.063-1.063 0.375-1.625 0.5-0.75 3.063-3.375 3.938-4l0.563-0.438 0.563 0.375c0.25 0.188 0.625 0.375 0.75 0.375 0.188 0 0.75 0.188 1.375 0.375 1.188 0.375 2.25 0.625 3 0.625 0.313 0 0.438 0.125 0.5 0.688 0.25 1.375 0.125 3.625-0.313 6-0.438 2.438-0.5 3.125-0.25 4.313 0.25 1 0.313 1.125 1.188 1.125 0.813 0 1.063-0.25 0.563-0.625-0.313-0.25-0.75-1.563-0.75-2.188 0-0.75 0.625-3.75 1-4.563 0.125-0.438 0.313-1.125 0.375-1.5 0.125-1.063 0.563-2.5 0.688-2.5 0.188 0 1.5 2.25 1.5 2.625 0 0.063-0.125 0.063-0.25 0-0.25-0.125-0.25-0.063-0.188 0.438 0.188 0.75 0.375 1.125 0.688 1 0.25-0.063 0.75 1.188 1.188 3.188 0.25 1.563 0.5 2.188 0.813 2.188 0.063 0 0.25 0.25 0.375 0.563 0.313 0.563 0.375 0.625 1.063 0.688 0.875 0.063 0.938-0.063 0.438-0.625-0.188-0.188-0.313-0.438-0.313-0.5s-0.188-0.313-0.375-0.5c-0.563-0.5-1.313-2.75-1.563-4.563-0.063-0.75-0.313-1.875-0.438-2.5-0.438-1.625-0.438-2.25 0.125-2.563 0.25-0.188 0.563-0.438 0.75-0.688 0.188-0.188 0.375-0.313 0.438-0.25s0.125 0 0.125-0.125c0-0.188 0.063-0.313 0.125-0.313 0.125 0 0.188-0.313 0.25-0.75 0.188-1.063 0.375-1.563 1.125-2.438 0.313-0.375 0.75-0.875 0.875-1.063 0.25-0.25 0.375-0.75 0.438-1.563l0.125-1.188 0.375 0.188c0.75 0.25 1.75 0.313 1.938 0.063 0.25-0.313 0.188-3.625-0.063-3.875-0.125-0.063-0.063-0.125 0.063-0.25 0.125-0.063 0.188-0.125 0.063-0.125-0.063 0-0.25-0.313-0.25-0.563-0.063-0.313-0.313-0.75-0.5-1-0.313-0.313-0.375-0.563-0.313-0.813 0.25-0.75 0.375-1.75 0.313-2.063-0.125-0.125-0.313-0.438-0.5-0.688-0.313-0.313-0.438-0.375-0.688-0.188-0.25 0.125-0.438 0.125-0.563 0-0.188-0.125-0.25-0.063-0.313 0.125z"></path>
</svg>
