<!-- Generated by IcoMoon.io -->
<svg version="1.1" xmlns="http://www.w3.org/2000/svg" width="32" height="32" viewBox="0 0 32 32">
<title>Dismantled</title>
<path d="M9 22.688l-4.563 4.563c-0.125 0.125-0.313 0.188-0.438 0.188s-0.25-0.063-0.438-0.188c-0.063-0.125-0.125-0.25-0.125-0.375 0-0.188 0.063-0.313 0.125-0.438l4.625-4.563c0.063-0.125 0.25-0.188 0.375-0.188 0.188 0 0.313 0.063 0.438 0.188 0.063 0.125 0.125 0.25 0.125 0.438 0 0.125-0.063 0.25-0.125 0.375zM12 23.438v5.688c0 0.188-0.063 0.313-0.188 0.438-0.063 0.125-0.188 0.125-0.375 0.125s-0.313 0-0.438-0.125c-0.063-0.125-0.125-0.25-0.125-0.438v-5.688c0-0.188 0.063-0.313 0.125-0.438 0.125-0.063 0.25-0.125 0.438-0.125s0.313 0.063 0.375 0.125c0.125 0.125 0.188 0.25 0.188 0.438zM8 19.438c0 0.188-0.063 0.313-0.188 0.375-0.063 0.125-0.188 0.188-0.375 0.188h-5.75c-0.125 0-0.25-0.063-0.375-0.188-0.125-0.063-0.188-0.188-0.188-0.375s0.063-0.313 0.188-0.438c0.125-0.063 0.25-0.125 0.375-0.125h5.75c0.188 0 0.313 0.063 0.375 0.125 0.125 0.125 0.188 0.25 0.188 0.438zM30.563 21.688c0 1.438-0.5 2.688-1.5 3.625l-2.625 2.625c-1 1-2.188 1.5-3.625 1.5s-2.688-0.5-3.625-1.5l-6-6c-0.25-0.25-0.5-0.563-0.75-1l4.25-0.313 4.875 4.875c0.375 0.313 0.75 0.5 1.25 0.5s0.875-0.188 1.188-0.5l2.625-2.563c0.375-0.375 0.5-0.75 0.5-1.25 0-0.438-0.125-0.875-0.5-1.188l-4.875-4.938 0.313-4.25c0.438 0.25 0.75 0.5 1 0.75l6 6c1 1.063 1.5 2.25 1.5 3.625zM19.563 8.813l-4.25 0.313-4.875-4.938c-0.375-0.313-0.75-0.5-1.25-0.5-0.438 0-0.875 0.188-1.188 0.5l-2.625 2.625c-0.375 0.313-0.5 0.75-0.5 1.188 0 0.5 0.125 0.875 0.5 1.188l4.875 4.938-0.313 4.25c-0.438-0.25-0.75-0.5-1-0.75l-6-6c-1-1-1.5-2.25-1.5-3.625 0-1.438 0.5-2.625 1.5-3.625l2.625-2.625c1-1 2.188-1.438 3.625-1.438s2.688 0.5 3.625 1.5l6 6c0.25 0.25 0.5 0.563 0.75 1zM30.875 10.313c0 0.125-0.063 0.25-0.188 0.375s-0.25 0.188-0.375 0.188h-5.75c-0.188 0-0.313-0.063-0.375-0.188-0.125-0.125-0.188-0.25-0.188-0.375 0-0.188 0.063-0.313 0.188-0.438 0.063-0.125 0.188-0.188 0.375-0.188h5.75c0.125 0 0.25 0.063 0.375 0.188s0.188 0.25 0.188 0.438zM21.125 0.563v5.75c0 0.125-0.063 0.25-0.125 0.375-0.125 0.125-0.25 0.188-0.438 0.188s-0.313-0.063-0.375-0.188c-0.125-0.125-0.188-0.25-0.188-0.375v-5.75c0-0.188 0.063-0.313 0.188-0.375 0.063-0.125 0.188-0.188 0.375-0.188s0.313 0.063 0.438 0.188c0.063 0.063 0.125 0.188 0.125 0.375zM28.438 3.25l-4.625 4.563c-0.125 0.125-0.25 0.188-0.375 0.188s-0.313-0.063-0.438-0.188c-0.063-0.063-0.125-0.25-0.125-0.375 0-0.188 0.063-0.313 0.125-0.438l4.563-4.563c0.125-0.125 0.313-0.125 0.438-0.125s0.313 0 0.438 0.125c0.063 0.125 0.125 0.25 0.125 0.438 0 0.125-0.063 0.25-0.125 0.375z"></path>
</svg>
