<!-- Generated by IcoMoon.io -->
<svg version="1.1" xmlns="http://www.w3.org/2000/svg" width="32" height="32" viewBox="0 0 32 32">
<title>Dog</title>
<path d="M23.938 5.75c0.5 0 0.938 0.375 0.938 0.938 0 0.5-0.438 0.875-0.938 0.875s-0.938-0.375-0.938-0.875c0-0.563 0.438-0.938 0.938-0.938zM10.25 15.938l-1.875 1.938c-0.25 0.25-0.375 0.5-0.375 0.875v2.938c0 1-0.625 1.625-1.563 1.625-1 0-1.625-0.625-1.625-1.625v-7.125c0-0.5 0.125-0.938 0.438-1.25 0.25-0.25 0.375-0.563 0.375-0.875v-1.375c-0.938-0.125-1.625-0.563-2.25-1.188-0.75-0.688-1.188-1.688-1.188-2.813s0.438-2.125 1.188-2.813c0.75-0.75 1.75-1.188 2.813-1.188 0.5 0 0.938 0.063 1.375 0.25 0.438 0.125 0.875 0.375 1.188 0.688 0.563 0.438 0.625 1.25 0.188 1.813s-1.313 0.625-1.875 0.188c-0.125-0.125-0.25-0.188-0.375-0.25-0.125 0-0.313-0.063-0.5-0.063-0.375 0-0.688 0.188-0.938 0.438-0.25 0.188-0.375 0.563-0.375 0.938s0.125 0.75 0.375 0.938c0.188 0.188 0.375 0.313 0.563 0.375h10.938c0.313 0 0.563-0.125 0.813-0.313l0.5-0.438 4.313 4.313v9.813c0 0.938-0.625 1.563-1.563 1.563-1 0-1.625-0.625-1.625-1.563v-5.625c0-0.313-0.25-0.563-0.5-0.563h-7.563c-0.313 0-0.625 0.125-0.875 0.375zM19.063 6.75l4.188 4.25 0.5-0.5c0.25-0.188 0.563-0.188 0.75 0l0.438 0.375c0.5 0.563 1.438 0.563 1.938 0l1.563-1.5c0.563-0.563 0.563-1.438 0-2l-3.625-3.625v-1.625c0-0.438-0.375-0.75-0.75-0.375z"></path>
</svg>
