<svg xmlns="http://www.w3.org/2000/svg" xmlns:xlink="http://www.w3.org/1999/xlink" version="1.1" x="0px" y="0px" viewBox="0 0 100 125" enable-background="new 0 0 100 100" xml:space="preserve"><g><path fill="none" d="M75.336,74.591c0.027-0.137,0.081-0.266,0.161-0.378c11.305-16.066,2.493-34.209,2.402-34.39   c-3.481-6.629-4.407-12.262-2.745-16.724c1.203-3.233,3.463-4.967,4.761-5.737c-0.907-1.472-2.125-2.442-3.703-2.955   c-4.706-1.533-10.854,1.716-10.915,1.75c-0.316,0.169-0.698,0.153-0.997-0.042c-12.369-8.063-22.983-10.817-31.54-8.2   c-9.065,2.775-12.53,10.778-12.563,10.858c-0.116,0.273-0.349,0.479-0.633,0.561c-3.698,1.056-4.066,2.022-4.102,2.205   c-0.061,0.31,0.289,0.802,0.937,1.313c1.341,1.059,3.099,1.55,4.954,1.387c17.289-1.559,37.412,17.324,45.257,25.507   c3.143,3.279,5.283,7.267,6.189,11.534c1.008,4.752,0.353,8.226-1.947,10.326c-4.015,3.667-11.515,1.606-12.423,1.339   c-2.648-0.348-4.205,0.734-5.062,1.767c6.639,0.032,16.018,9.123,17.379,10.478c11.836,9.054,13.625,7.831,13.697,7.775   c0.22-0.176,0.077-1.204-0.266-2.07C73.814,83.229,75.27,74.942,75.336,74.591z"/><path d="M85.86,89.858c-0.07-0.153-0.178-0.286-0.314-0.384c-8.814-6.411-8.464-13.106-8.316-14.327   c11.768-16.961,2.516-36.006,2.412-36.215c-3.21-6.113-4.108-11.197-2.669-15.112c1.395-3.793,4.509-5.084,4.637-5.136   c0.254-0.099,0.454-0.3,0.553-0.553c0.099-0.254,0.089-0.537-0.03-0.782c-1.169-2.422-2.96-4.038-5.323-4.804   c-4.686-1.522-10.201,0.805-11.914,1.626C52.221,6.015,41.215,3.278,32.189,6.045c-8.783,2.689-12.701,9.7-13.595,11.536   c-3.149,0.955-4.759,2.098-5.051,3.58c-0.219,1.108,0.334,2.194,1.644,3.228c1.734,1.372,3.979,2.009,6.34,1.8   c16.45-1.482,36.021,16.933,43.671,24.913c2.89,3.014,4.857,6.676,5.687,10.586c0.854,4.022,0.4,6.872-1.349,8.473   c-3.359,3.073-10.536,0.916-10.61,0.892c-0.049-0.014-0.099-0.026-0.149-0.033c-5.064-0.716-7.573,2.757-8.195,4.697   c-0.116,0.361-0.012,0.756,0.265,1.014c0.277,0.259,0.68,0.333,1.03,0.193c4.59-1.843,14.212,6.378,17.533,9.697   c0.031,0.031,0.063,0.059,0.096,0.085c8.626,6.604,12.566,8.297,14.59,8.296c0.727,0,1.206-0.218,1.566-0.505   C87.28,93.206,86.112,90.407,85.86,89.858z M84.444,92.965c-0.072,0.056-1.861,1.279-13.697-7.775   c-1.361-1.355-10.74-10.446-17.379-10.478c0.858-1.034,2.415-2.115,5.062-1.767c0.908,0.266,8.408,2.328,12.423-1.339   c2.3-2.1,2.954-5.574,1.947-10.326c-0.906-4.267-3.046-8.255-6.189-11.534c-7.845-8.183-27.967-27.066-45.257-25.507   c-1.856,0.163-3.613-0.328-4.954-1.387c-0.648-0.511-0.998-1.003-0.937-1.313c0.036-0.183,0.404-1.149,4.102-2.205   c0.285-0.082,0.518-0.288,0.633-0.561c0.033-0.08,3.499-8.084,12.563-10.858c8.557-2.617,19.171,0.137,31.54,8.2   c0.299,0.195,0.681,0.211,0.997,0.042c0.061-0.033,6.209-3.283,10.915-1.75c1.578,0.513,2.796,1.483,3.703,2.955   c-1.298,0.77-3.558,2.504-4.761,5.737c-1.662,4.462-0.735,10.095,2.745,16.724c0.091,0.181,8.903,18.324-2.402,34.39   c-0.08,0.113-0.135,0.242-0.161,0.378c-0.067,0.351-1.523,8.638,8.841,16.305C84.521,91.761,84.664,92.79,84.444,92.965z"/></g><text x="0" y="115" fill="#000000" font-size="5px" font-weight="bold" font-family="'Helvetica Neue', Helvetica, Arial-Unicode, Arial, Sans-serif">Created by Alena Artemova</text><text x="0" y="120" fill="#000000" font-size="5px" font-weight="bold" font-family="'Helvetica Neue', Helvetica, Arial-Unicode, Arial, Sans-serif">from the Noun Project</text></svg>