<!-- Generated by IcoMoon.io -->
<svg version="1.1" xmlns="http://www.w3.org/2000/svg" width="32" height="32" viewBox="0 0 32 32">
<title>Donkey</title>
<path d="M25.5 0.125c-0.125 0.063-0.313 0.25-0.375 0.438-0.063 0.063-0.063 0.125-0.125 0.188 0 0.063-0.063 0.188-0.125 0.313s-0.188 0.313-0.188 0.438c-0.063 0.125-0.125 0.25-0.125 0.313s-0.063 0.125-0.063 0.125c-0.063 0-0.063 0.125-0.125 0.188 0 0.063-0.063 0.25-0.063 0.313-0.125 0.25-0.188 0.875-0.188 1.5 0 0.375-0.063 0.438-0.125 0.563s-0.063 0.125-0.25 0.125c-0.125 0-0.375 0.063-0.625 0.063-0.375 0-0.438 0.063-0.5 0.125s-0.125 0.188-0.125 0.313-0.063 0.25-0.438 0.688l-0.25 0.188-0.563 0.063c-0.563 0-0.625 0-0.938 0.313-0.125 0.063-0.125 0.063-0.125 0.375s0 0.313-0.125 0.5c-0.063 0.063-0.188 0.125-0.188 0.125-0.063 0-0.188 0.063-0.25 0.125-0.188 0.125-0.188 0.125-0.25 0.313 0 0.125 0 0.188-0.125 0.25-0.063 0.125-0.125 0.125-0.313 0.125-0.313-0.063-0.75 0.125-0.813 0.25-0.125 0.188-0.063 0.313 0.063 0.5 0.063 0.063 0.125 0.188 0.125 0.188 0 0.125-0.125 0.25-0.313 0.313-0.125 0.063-0.375 0.25-0.438 0.375 0 0.063-0.063 0.125-0.125 0.188s-0.063 0.125-0.063 0.188c-0.063 0.063-0.063 0.125-0.125 0.188s-0.188 0.5-0.25 0.75c0 0.188-0.188 0.375-0.313 0.375-0.063 0-0.125 0.063-0.188 0.125s-0.188 0.063-0.25 0.063c-0.063 0-0.125 0.063-0.188 0.125-0.188 0.063-0.313 0.063-1 0.125s-1.813 0-2-0.125c-0.063 0-0.188-0.063-0.313-0.125-0.125 0-0.313-0.063-0.313-0.063-0.063-0.063-0.125-0.063-0.25-0.125-0.125 0-0.188-0.063-0.25-0.063-0.063-0.063-0.125-0.063-0.25-0.125-0.063 0-0.188-0.063-0.188-0.063-0.063-0.063-0.125-0.063-0.25-0.125-0.063 0-0.188-0.063-0.25-0.125-0.063 0-0.125-0.063-0.188-0.063 0 0-0.125 0-0.188-0.063-0.125-0.063-0.25-0.063-0.375-0.125-0.125 0-0.25-0.063-0.375-0.125-0.188-0.063-0.25-0.063-1-0.063-0.813 0-0.813 0-1.125 0.125-0.125 0.063-0.313 0.063-0.375 0.063s-0.125 0.063-0.25 0.063c-0.063 0.063-0.188 0.125-0.25 0.125s-0.313 0.125-0.75 0.375c-0.063 0-0.125 0.063-0.188 0.125s-0.125 0.063-0.125 0.063-0.125 0.063-0.188 0.125c0 0.063-0.063 0.063-0.063 0.063-0.063 0-0.188 0.125-0.313 0.25-0.438 0.313-1 0.938-1.5 1.5 0 0.063-0.063 0.125-0.125 0.188s-0.125 0.063-0.125 0.125c0 0.063-0.188 0.313-0.25 0.438-0.063 0.063-0.125 0.125-0.125 0.188 0 0 0 0.063-0.063 0.125-0.063 0.125-0.125 0.188-0.125 0.25 0 0 0 0.063-0.063 0.125-0.063 0.125-0.125 0.188-0.125 0.188 0 0.063 0 0.125-0.063 0.188 0 0.063-0.063 0.25-0.125 0.375 0 0.125-0.063 0.25-0.125 0.375-0.063 0.188-0.125 0.5-0.188 1.063 0 0.188 0 0.375 0.063 0.625 0 0.188 0.063 0.438 0.063 0.625 0.063 0.125 0.063 0.313 0.125 0.375 0 0.063 0.063 0.188 0.063 0.25 0 0.125 0.063 0.25 0.125 0.375 0.063 0.063 0.063 0.188 0.063 0.188 0 0.063 0.063 0.125 0.063 0.188 0.063 0.063 0.125 0.125 0.125 0.188 0.063 0.063 0.063 0.188 0.125 0.25s0.063 0.125 0.063 0.125 0.063 0.125 0.125 0.188c0 0.063 0.125 0.125 0.125 0.188 0.125 0.188 0.188 0.25 0.375 0.5 0.25 0.313 0.25 0.625 0.063 0.813-0.25 0.313-0.313 0.625-0.188 1.25 0.063 0.188 0.063 0.438 0.063 0.5 0 0.25 0.063 0.813 0.125 1.063 0.063 0.125 0.063 0.688 0.063 1.25 0.063 0.75 0.063 1.188 0.125 1.313 0.063 0.188 0.063 0.563 0.063 1.375 0.063 1 0.063 1.063 0.125 1.188 0.063 0.063 0.125 0.188 0.125 0.25 0 0.125 0.25 0.375 0.438 0.375 0.25 0.063 0.313 0.125 0.438 0.5 0.063 0.313 0.125 0.375 0.188 0.438 0.125 0.063 0.313 0.25 0.438 0.438l0.063 0.125h0.813c0.688 0 0.813 0 0.813-0.063 0.063-0.063 0-0.25-0.063-0.375-0.125-0.063-0.313-0.75-0.25-0.875 0-0.063 0.063-0.063 0.188-0.063 0.063 0.063 0.125 0.063 0.188 0.125s0.125 0.063 0.125 0.063 0.5 0.25 0.625 0.375c0.063 0.125 0.125 0.188 0.125 0.188 0 0.063 0.125 0.25 0.313 0.438 0.063 0.063 0.063 0.125 0.063 0.125 0 0.063 0.438 0.063 1.063 0.063 1.125 0 1.125 0 0.938-0.25-0.063-0.063-0.063-0.125-0.063-0.125 0-0.063-0.063-0.125-0.063-0.188-0.063 0-0.125-0.125-0.125-0.188-0.063-0.25-0.438-0.75-0.563-0.75s-0.563-0.438-0.688-0.688c-0.063-0.063-0.125-0.188-0.188-0.25 0-0.063-0.063-0.188-0.125-0.25 0-0.063-0.063-0.188-0.063-0.25-0.063-0.125-0.125-0.188-0.125-0.188 0-0.063 0-0.188-0.063-0.25-0.063-0.125-0.125-0.25-0.125-0.25 0-0.063 0-0.125-0.063-0.25s-0.125-0.188-0.125-0.25c0 0 0-0.125-0.063-0.25s-0.125-0.313-0.125-0.313c0-0.063 0-0.188-0.063-0.25s-0.125-0.25-0.125-0.375c0-0.125-0.063-0.313-0.063-0.375-0.063-0.125-0.063-0.25-0.063-0.938s0-0.813 0.063-1.063c0.063-0.125 0.063-0.375 0.063-0.438 0-0.125 0.063-0.25 0.063-0.375 0.063-0.125 0.125-0.375 0.125-0.563 0.063-0.188 0.063-0.375 0.125-0.438 0-0.063 0.063-0.188 0.063-0.25 0.063-0.125 0.063-0.25 0.125-0.25 0-0.063 0.063-0.125 0.063-0.188 0.063-0.125 0.063-0.188 0.125-0.25 0 0 0.063-0.125 0.125-0.313 0.063-0.125 0.188-0.313 0.25-0.438s0.063-0.25 0.063-0.25c0-0.063 0.063-0.125 0.125-0.188 0.063-0.125 0.063-0.188 0.063-0.188 0-0.063 0.063-0.125 0.188-0.188 0.125-0.125 0.125-0.188 0.25-0.125 0.063 0 0.25 0.125 0.5 0.313 0.188 0.188 0.438 0.375 0.5 0.438s0.125 0.063 0.125 0.125c0 0 0.063 0.063 0.125 0.063 0.063 0.063 0.25 0.125 0.313 0.188 0.125 0.063 0.25 0.125 0.313 0.125 0 0.063 0.125 0.063 0.25 0.125s0.25 0.125 0.313 0.125c0 0 0.188 0.063 0.313 0.125 0.25 0.063 0.375 0.063 0.875 0.063 0.875 0.063 2.25 0 2.5-0.063 0.125-0.063 0.375-0.063 0.688-0.063 0.438-0.063 0.438-0.063 0.625 0.063l0.125 0.125v0.75c-0.063 0.375-0.063 0.938-0.063 1.188s0 0.625-0.063 0.938c0 0.25-0.063 0.688-0.063 0.938 0 0.313-0.063 0.625-0.125 0.688 0 0.125-0.063 0.375-0.063 0.625-0.063 0.188-0.063 0.438-0.125 0.5 0 0.125-0.063 0.375-0.063 0.625-0.063 0.188-0.063 0.5-0.125 0.688-0.063 0.438-0.063 1.5 0.063 1.875 0 0.125 0.063 0.313 0.063 0.375 0 0.125 0.25 0.438 0.375 0.438 0.063 0 0.125 0.063 0.188 0.125 0.063 0 0.188 0.063 0.375 0.063 0.375 0 0.375 0 0.563 0.188 0.125 0.125 0.25 0.188 0.25 0.188s0.063 0.063 0.125 0.063l0.063 0.125h1.125c1.063 0 1.063 0 1.063-0.063 0.063-0.125 0.188-0.125 0.375-0.063 0.313 0.063 0.75 0 0.75-0.188 0.063-0.125 0-0.438-0.063-0.688-0.063-0.125-0.063-0.25-0.063-0.313s-0.25-0.375-0.5-0.625c0 0-0.125-0.125-0.188-0.188-0.063-0.125-0.125-0.25-0.188-0.313s-0.125-0.125-0.125-0.125c0 0 0-0.125-0.063-0.188s-0.125-0.125-0.125-0.188c0 0 0-0.063-0.063-0.125 0 0-0.063-0.125-0.125-0.25 0-0.063-0.063-0.25-0.063-0.313-0.188-0.375-0.188-2.125 0-2.563 0.063-0.125 0.063-0.375 0.125-1 0-0.5 0-0.938-0.125-1.313-0.063-0.25-0.063-0.25 0-0.375s0.063-0.188 0.063-0.25c0-0.063 0.063-0.125 0.063-0.125 0.125-0.125 0.313-0.563 0.313-0.625 0 0 0.063-0.063 0.125-0.125 0-0.063 0.063-0.188 0.063-0.25 0.063-0.125 0.063-0.25 0.125-0.25 0.063-0.063 0.063-0.188 0.125-0.313 0-0.125 0.063-0.25 0.063-0.313 0.063-0.063 0.125-0.125 0.125-0.188 0 0 0.188-0.25 0.438-0.5s0.438-0.5 0.5-0.563c0-0.063 0.063-0.125 0.125-0.125 0-0.063 0.063-0.063 0.063-0.125 0 0 0-0.125 0.063-0.25 0.063-0.063 0.125-0.25 0.125-0.313 0-0.125 0.063-0.25 0.063-0.313 0.063 0 0.125-0.188 0.125-0.375 0.063-0.188 0.063-0.438 0.125-0.5 0-0.063 0.063-0.188 0.063-0.375 0-0.125 0.063-0.313 0.125-0.375 0-0.125 0.063-0.25 0.063-0.313s0.063-0.188 0.063-0.25c0.063-0.125 0.125-0.25 0.125-0.25 0-0.063 0-0.125 0.063-0.188s0.125-0.188 0.125-0.25c0-0.125 0.063-0.188 0.063-0.25 0.063-0.063 0.125-0.125 0.125-0.25 0-0.063 0.063-0.25 0.125-0.313 0-0.063 0.063-0.125 0.063-0.188 0 0 0.063-0.125 0.063-0.188 0.063-0.125 0.125-0.25 0.125-0.313 0.063-0.063 0.063-0.125 0.063-0.125 0.063 0 0.063-0.063 0.125-0.188s0.25-0.375 0.313-0.375c0.063 0 0.375 0.375 0.688 0.688 0.125 0.188 0.25 0.25 0.375 0.313 0.188 0.063 0.563 0.125 0.813 0.125 0 0 0.188 0.125 0.313 0.25 0.188 0.188 0.313 0.313 0.375 0.313 0.125 0.063 0.5 0.063 0.688 0 0.125 0 0.25-0.125 0.438-0.313 0.125-0.063 0.375-0.438 0.375-0.5 0 0 0.063-0.063 0.063-0.125 0.063-0.063 0.125-0.188 0.125-0.188 0-0.063 0-0.125 0.063-0.188 0.125-0.125 0.188-0.5 0.125-1.063 0-0.313-0.063-0.563-0.063-0.625-0.125-0.563-0.188-0.625-0.25-0.75-0.063-0.063-0.063-0.125-0.063-0.188s-0.063-0.188-0.063-0.25c-0.063-0.125-0.188-0.75-0.188-0.813 0 0 0.063-0.125 0.125-0.188 0.125-0.188 0.125-0.188 0.125-0.5 0-0.25 0-0.25 0.063-0.375 0.063 0 0.125-0.125 0.188-0.188 0.125-0.125 0.125-0.188 0.125-0.438 0-0.188 0-0.313-0.063-0.375 0-0.063-0.063-0.125-0.125-0.188 0-0.125-0.063-0.188-0.125-0.25 0 0-0.063-0.125-0.063-0.188-0.063-0.125-0.063-0.188-0.125-0.25 0 0-0.063-0.125-0.063-0.188-0.063-0.125-0.125-0.313-0.313-0.5-0.125-0.125-0.25-0.313-0.313-0.375 0-0.125 0.063-0.375 0.125-0.438 0.063-0.125 0.25-0.313 0.313-0.438 0-0.125 0.063-0.188 0.125-0.188 0 0 0 0 0.063-0.063 0-0.125 0.25-0.438 0.313-0.5 0-0.063 0.063-0.063 0.063-0.125 0 0 0-0.063 0.063-0.125s0.125-0.188 0.125-0.313c0-0.063 0.063-0.25 0.063-0.25 0.063-0.063 0.125-0.25 0.125-0.438s0.063-0.375 0.063-0.5c0.063-0.125 0.063-0.25 0-0.625-0.063-0.25-0.063-0.625-0.063-0.75-0.063-0.125-0.063-0.313-0.063-0.375-0.063-0.063-0.063-0.25-0.125-0.438 0-0.188-0.063-0.375-0.125-0.438l-0.063-0.125h-0.563v0.188c0 0.125-0.063 0.25-0.125 0.313s-0.063 0.125-0.063 0.188c0 0-0.063 0.125-0.063 0.188-0.063 0.063-0.125 0.188-0.125 0.313-0.063 0.125-0.063 0.313-0.125 0.375-0.063 0.125-0.063 0.25-0.063 0.313s-0.063 0.25-0.125 0.313c-0.063 0.125-0.063 0.25-0.063 0.313 0 0-0.063 0.063-0.125 0.125s-0.063 0.188-0.063 0.188c0 0.063-0.063 0.125-0.125 0.125-0.063 0.063-0.063 0.125-0.063 0.125 0 0.063-0.063 0.125-0.125 0.125 0 0.063-0.125 0.188-0.188 0.313-0.25 0.375-0.438 0.625-0.563 0.625s-0.125-0.25 0-0.625c0.125-0.313 0.125-0.688 0-1.063-0.063-0.188-0.125-0.375-0.125-0.438s-0.063-0.188-0.063-0.25c-0.063-0.063-0.063-0.25-0.125-0.5 0-0.25-0.063-0.5-0.063-0.625-0.063-0.125-0.125-0.25-0.125-0.313s-0.25-0.313-0.313-0.313c-0.063 0-0.188 0.063-0.25 0.125zM4.25 15.75c0 0 0.063 0.25 0.063 0.5 0 0.438 0.063 0.688 0.25 0.938 0 0.063 0.063 0.188 0.063 0.25 0.063 0.063 0.125 0.188 0.125 0.25 0.063 0 0.125 0.063 0.125 0.125 0 0 0 0.125 0.063 0.188s0.125 0.125 0.125 0.188c0 0 0 0.125 0.063 0.125 0.063 0.125 0.125 0.188 0.125 0.25 0 0 0 0.125 0.063 0.188 0.188 0.313 0.188 1.188 0 1.563-0.063 0.063-0.063 0.188-0.063 0.188s-0.063 0.125-0.125 0.188l-0.188 0.125-0.125-0.125c-0.188-0.125-0.875-0.875-0.938-1-0.125-0.125-0.25-0.438-0.313-0.75-0.063-0.125-0.125-0.5-0.188-0.75s0-1.25 0.063-1.375c0-0.063 0.063-0.188 0.063-0.313 0.063-0.125 0.188-0.5 0.375-0.688 0.063-0.125 0.125-0.125 0.25-0.125 0 0 0.125 0.063 0.125 0.063zM6.188 27.125c0 0.125 0.063 0.25 0.125 0.313 0 0.063 0.063 0.188 0.063 0.313 0 0.188 0.063 0.313 0.063 0.375 0.063 0.063 0.125 0.25 0.125 0.375 0 0.188 0.063 0.375 0.063 0.438 0.063 0.063 0.125 0.25 0.125 0.438s0.063 0.375 0.125 0.5c0.063 0.125 0.063 0.188 0 0.188-0.063 0.063-0.25 0-0.25-0.063s-0.063-0.188-0.125-0.313c-0.063-0.125-0.125-0.25-0.125-0.375s-0.063-0.313-0.125-0.5c0-0.125-0.063-0.375-0.063-0.5-0.063-0.188-0.063-0.375-0.125-0.438-0.125-0.313-0.063-1 0.063-0.938 0 0 0 0.125 0.063 0.188zM18.75 27.938c0.063 0.063 0.125 0.313 0.125 0.563 0 0.188 0.063 0.438 0.063 0.563 0.125 0.438 0.125 0.438-0.063 0.438-0.063 0.063-0.063 0-0.125 0-0.063-0.063-0.188-0.938-0.188-1.25s0-0.375 0.063-0.375c0.063 0 0.125 0.063 0.125 0.063z"></path>
</svg>
