<!-- Generated by IcoMoon.io -->
<svg version="1.1" xmlns="http://www.w3.org/2000/svg" width="32" height="32" viewBox="0 0 32 32">
<title>Drainage</title>
<path d="M1.75-2.625h-0.375c0 0.25-0.188 0.313-0.438 0.313s-0.438-0.188-0.438-0.625c0-0.375 0.188-0.625 0.5-0.625 0.188 0 0.313 0.125 0.375 0.313h0.375c-0.063-0.375-0.375-0.625-0.813-0.625-0.5 0-0.813 0.375-0.813 0.938 0 0.625 0.313 0.938 0.813 0.938s0.75-0.188 0.813-0.625zM0.938-3.063v-0.313c0 0 0 0-0.063 0-0.125 0-0.313 0.063-0.375 0.25v-0.25h-0.313v1.375h0.313v-0.75c0-0.188 0.125-0.313 0.313-0.313 0.063 0 0.063 0 0.125 0zM1.313-2.625c0-0.5-0.188-0.75-0.625-0.75-0.375 0-0.625 0.25-0.625 0.688s0.25 0.688 0.625 0.688c0.313 0 0.563-0.125 0.625-0.375h-0.375c0 0.063-0.125 0.125-0.25 0.125-0.188 0-0.25-0.063-0.25-0.313h0.875zM0.938-2.813h-0.5c0-0.188 0.063-0.313 0.25-0.313 0.125 0 0.25 0.125 0.25 0.313zM1.313-2v-0.063c-0.063-0.063-0.063-0.063-0.063-0.125v-0.813c0-0.25-0.188-0.375-0.563-0.375s-0.563 0.125-0.563 0.438h0.313c0-0.125 0.063-0.188 0.25-0.188 0.125 0 0.188 0.063 0.188 0.125 0 0.188-0.063 0.188-0.25 0.188h-0.125c-0.313 0.063-0.438 0.188-0.438 0.438s0.188 0.375 0.438 0.375c0.125 0 0.25-0.063 0.375-0.188 0 0.063 0.063 0.125 0.063 0.188zM0.875-2.563c0 0.188-0.063 0.313-0.25 0.313-0.125 0-0.188-0.063-0.188-0.188 0-0.063 0.063-0.125 0.188-0.125l0.125-0.063c0.125 0 0.125 0 0.125 0zM0.75-2v-0.25c0 0-0.063 0-0.063 0-0.125 0-0.125 0-0.125-0.125v-0.75h0.188v-0.25h-0.188v-0.313h-0.375v0.313h-0.125v0.25h0.125v0.813c0 0.25 0.125 0.313 0.375 0.313 0.063 0 0.125 0 0.188 0zM1.375-2v-1.875h-0.375v0.688c-0.063-0.125-0.188-0.188-0.375-0.188-0.313 0-0.563 0.25-0.563 0.688 0 0.375 0.25 0.688 0.563 0.688 0.188 0 0.313-0.063 0.375-0.188v0.188zM1-2.688c0 0.25-0.063 0.438-0.25 0.438s-0.313-0.188-0.313-0.438c0-0.25 0.125-0.438 0.313-0.438s0.25 0.188 0.25 0.438zM1.438-2.688c0-0.375-0.188-0.688-0.563-0.688-0.188 0-0.313 0.063-0.375 0.188v-0.688h-0.375v1.875h0.375v-0.188c0.063 0.125 0.188 0.188 0.375 0.188 0.313 0 0.563-0.25 0.563-0.688zM1.125-2.688c0 0.25-0.125 0.438-0.313 0.438s-0.313-0.188-0.313-0.438c0-0.25 0.125-0.438 0.313-0.438s0.313 0.188 0.313 0.438zM1.375-3.375h-0.375l-0.313 1-0.25-1h-0.438l0.563 1.438c0 0.125-0.125 0.25-0.25 0.25 0 0-0.063 0-0.063-0.063v0.313c0 0 0.063 0 0.125 0 0.188 0 0.313-0.063 0.438-0.313zM1.625-3.25c0-0.375-0.25-0.625-0.625-0.625h-0.813v1.875h0.375v-0.688h0.5c0.313 0 0.563-0.188 0.563-0.563zM1.25-3.25c0 0.188-0.125 0.25-0.313 0.25h-0.375v-0.563h0.375c0.188 0 0.313 0.125 0.313 0.313zM1.438-2.688c0-0.438-0.25-0.688-0.688-0.688-0.375 0-0.688 0.25-0.688 0.688s0.313 0.688 0.688 0.688c0.438 0 0.688-0.25 0.688-0.688zM1.063-2.688c0 0.25-0.125 0.438-0.313 0.438s-0.313-0.188-0.313-0.438c0-0.25 0.125-0.438 0.313-0.438s0.313 0.188 0.313 0.438zM1.625-2.563c0-0.313-0.188-0.438-0.5-0.5l-0.313-0.063c-0.25-0.063-0.313-0.063-0.313-0.25 0-0.125 0.125-0.188 0.313-0.188 0.25 0 0.375 0.063 0.375 0.25h0.375c0-0.375-0.313-0.563-0.75-0.563s-0.688 0.188-0.688 0.563c0 0.313 0.125 0.438 0.5 0.5l0.25 0.063c0.25 0.063 0.375 0.063 0.375 0.25 0 0.125-0.125 0.25-0.375 0.25s-0.438-0.125-0.438-0.313h-0.375c0 0.375 0.313 0.563 0.813 0.563 0.438 0 0.75-0.188 0.75-0.563zM2.063-2v-1c0-0.25-0.125-0.375-0.375-0.375-0.188 0-0.313 0.063-0.438 0.188-0.063-0.125-0.188-0.188-0.375-0.188-0.125 0-0.25 0.063-0.375 0.188v-0.188h-0.375v1.375h0.375v-0.813c0-0.188 0.125-0.25 0.25-0.25s0.188 0.063 0.188 0.125v0.938h0.375v-0.813c0-0.188 0.063-0.25 0.25-0.25 0.125 0 0.188 0.063 0.188 0.125v0.938zM0.5-2v-1.875h-0.313v1.875zM1.313-2.438v0c0-0.125-0.063-0.25-0.25-0.313l-0.438-0.125c-0.125-0.063-0.125-0.063-0.125-0.125s0.063-0.125 0.188-0.125c0.188 0 0.25 0.063 0.25 0.188h0.375c-0.063-0.313-0.25-0.438-0.625-0.438s-0.563 0.125-0.563 0.438c0 0.188 0.063 0.25 0.313 0.313l0.438 0.188c0.063 0 0.063 0 0.063 0.063s-0.063 0.125-0.25 0.125c-0.125 0-0.25-0.063-0.25-0.188h-0.375c0 0.313 0.25 0.438 0.688 0.438 0.375 0 0.563-0.125 0.563-0.438zM17.563 15.5c0.188-0.125 0.313-0.125 0.5-0.125 0.313 0 0.563 0.125 0.75 0.375 0.5 0.938 1.938 1.188 2.563 0 0.188-0.25 0.438-0.375 0.75-0.375 0.25 0 0.5 0.125 0.688 0.375 0.563 1 1.813 1 2.438 0.25 0-1-0.188-2.813-0.563-6.188-0.875-6.375-5.563-6.938-7.188-6.938v4.625c0.813 2 0.438 5.75 0.063 8zM26.438 15.938c-0.125-0.188-0.5-0.188-0.563 0-0.813 1.438-2.813 1.313-3.5 0-0.063-0.188-0.375-0.188-0.563 0 0 0.063 0 0.125-0.063 0.188-0.75 1.188-2.625 1.25-3.438-0.188-0.063-0.188-0.375-0.188-0.563 0 0 0.063 0 0.125-0.063 0.188-0.75 1.125-2.625 1.25-3.438-0.188-0.063-0.188-0.375-0.188-0.563 0 0 0.063 0 0.125-0.063 0.188-0.75 1.188-2.625 1.25-3.438-0.188-0.063-0.188-0.438-0.188-0.563 0-0.75 1.438-2.688 1.438-3.5 0-0.063-0.188-0.375-0.188-0.563 0-0.25 0.5-0.75 1.125-1.688 1.5v1.438c1.438-0.625 1.125-1.625 2-1.625 0.938 0 0.688 1.25 2.063 1.25 0.5 0 0.938-0.25 1.25-0.813 0.188-0.25 0.438-0.438 0.688-0.438 0.938 0 0.688 1.188 2.063 1.188 1.25 0 1.188-1.188 2-1.188 0.563 0 0.688 0.313 0.813 0.563 0.313 0.375 0.75 0.625 1.25 0.625 0.625 0 1-0.313 1.313-0.813 0.313-0.563 1.125-0.563 1.438 0 0 0.063 0.063 0.063 0.063 0.125 0.5 0.875 1.75 1.063 2.5-0.125 0.313-0.563 1.125-0.563 1.438 0 0.625 1.063 2.063 1 2.625 0.063v-0.063c0.313-0.5 1.125-0.563 1.438 0.063 0.313 0.5 0.688 0.938 1.313 1.188v-1.438c-0.938-0.313-1.438-1-1.688-1.5zM26.438 17.938c-0.125-0.188-0.438-0.188-0.563 0-0.813 1.438-2.813 1.313-3.5 0-0.063-0.188-0.375-0.188-0.563 0 0 0.063 0 0.125-0.063 0.125-0.75 1.25-2.625 1.313-3.438-0.125-0.063-0.188-0.375-0.188-0.563 0 0 0.063 0 0.125-0.063 0.125-0.75 1.188-2.625 1.313-3.438-0.125-0.063-0.188-0.375-0.188-0.563 0 0 0.063 0 0.125-0.063 0.125-0.75 1.25-2.625 1.313-3.438-0.125-0.063-0.188-0.438-0.188-0.563 0 0 0.063 0 0.125-0.063 0.125-0.688 1.25-2.563 1.313-3.313-0.125-0.125-0.188-0.438-0.188-0.563 0-0.25 0.5-0.75 1.125-1.75 1.5v3.563h24.188v-3.563c-0.938-0.375-1.438-1-1.688-1.5zM14.375 7.75v-8.063c0 0 0-0.063 0-0.063h-10.5v8.188h10.5c0 0 0 0 0-0.063zM15.938 8.875c0.563 0 1.063-0.5 1.063-1.125v-8.063c0-0.625-0.5-1.063-1.063-1.063s-1.063 0.438-1.063 1.063v8.063c0 0.625 0.438 1.125 1.063 1.125z"></path>
</svg>
