<!-- Generated by IcoMoon.io -->
<svg version="1.1" xmlns="http://www.w3.org/2000/svg" width="32" height="32" viewBox="0 0 32 32">
<title>Drinking</title>
<path d="M23.678 5.421c-0.59 0.579-1.388 0.805-2.271 0.805-1.122 0-2.142-0.462-2.729-1.338-0.581 0.893-1.607 1.338-2.743 1.338-1.122 0-2.133-0.472-2.719-1.347-0.582 0.903-1.607 1.347-2.756 1.347-0.829 0-1.59-0.189-2.162-0.703l-0.434-3.148c0.595 0.796 1.538 1.31 2.596 1.31 1.148 0 2.174-0.57 2.756-1.473 0.586 0.875 1.597 1.473 2.719 1.473 1.136 0 2.162-0.57 2.743-1.463 0.586 0.875 1.607 1.463 2.729 1.463 1.145 0 2.157-0.597 2.734-1.5l-0.462 3.236z"></path>
<path d="M24.508 32l4.959-32-3.339 0.033-4.51 28.593h-11.237l-4.51-28.593-3.338-0.033 4.959 32h17.015z"></path>
</svg>
