<?xml version="1.0" encoding="UTF-8"?>
<svg width="700pt" height="700pt" version="1.1" viewBox="0 0 700 700" xmlns="http://www.w3.org/2000/svg" xmlns:xlink="http://www.w3.org/1999/xlink">
 <defs>
  <symbol id="w" overflow="visible">
   <path d="m2.2188-0.125c-0.11719 0.054688-0.23438 0.09375-0.35938 0.125s-0.25781 0.046875-0.39062 0.046875c-0.39844 0-0.71484-0.10938-0.95312-0.32812-0.23047-0.22656-0.34375-0.53516-0.34375-0.92188 0-0.38281 0.11328-0.6875 0.34375-0.90625 0.23828-0.22656 0.55469-0.34375 0.95312-0.34375 0.13281 0 0.26562 0.015625 0.39062 0.046875 0.125 0.023438 0.24219 0.0625 0.35938 0.125v0.5c-0.11719-0.070312-0.23047-0.125-0.34375-0.15625-0.11719-0.039062-0.23047-0.0625-0.34375-0.0625-0.23047 0-0.40625 0.074219-0.53125 0.21875-0.125 0.13672-0.1875 0.32812-0.1875 0.57812s0.0625 0.44922 0.1875 0.59375c0.125 0.13672 0.30078 0.20312 0.53125 0.20312 0.11328 0 0.22656-0.015625 0.34375-0.046875 0.11328-0.039063 0.22656-0.097656 0.34375-0.17188z"/>
  </symbol>
  <symbol id="c" overflow="visible">
   <path d="m1.625-1.3125c-0.054688-0.03125-0.10547-0.050781-0.15625-0.0625-0.054688-0.007812-0.10156-0.015625-0.14062-0.015625-0.15625 0-0.27734 0.054687-0.35938 0.15625-0.074219 0.09375-0.10938 0.23047-0.10938 0.40625v0.82812h-0.57812v-1.8125h0.57812v0.29688c0.070313-0.11328 0.15625-0.19531 0.25-0.25 0.10156-0.0625 0.21875-0.09375 0.34375-0.09375 0.019531 0 0.039063 0.007813 0.0625 0.015625h0.10938z"/>
  </symbol>
  <symbol id="b" overflow="visible">
   <path d="m2.0938-0.90625v0.15625h-1.3594c0.007813 0.13672 0.054687 0.24219 0.14062 0.3125 0.082031 0.0625 0.20312 0.09375 0.35938 0.09375 0.125 0 0.25-0.015625 0.375-0.046875 0.125-0.039063 0.25391-0.097656 0.39062-0.17188v0.45312c-0.13672 0.054688-0.27344 0.089844-0.40625 0.10938-0.13672 0.03125-0.27734 0.046875-0.42188 0.046875-0.32422 0-0.57812-0.082031-0.76562-0.25-0.17969-0.16406-0.26562-0.39844-0.26562-0.70312 0-0.28906 0.085937-0.51953 0.26562-0.6875 0.17578-0.17578 0.42188-0.26562 0.73438-0.26562 0.28906 0 0.51953 0.089844 0.6875 0.26562 0.17578 0.16797 0.26562 0.39844 0.26562 0.6875zm-0.60938-0.20312c0-0.10156-0.03125-0.1875-0.09375-0.25-0.0625-0.070313-0.14844-0.10938-0.25-0.10938-0.11719 0-0.21094 0.03125-0.28125 0.09375-0.0625 0.0625-0.10547 0.15234-0.125 0.26562z"/>
  </symbol>
  <symbol id="a" overflow="visible">
   <path d="m1.0938-0.8125c-0.125 0-0.21875 0.023438-0.28125 0.0625-0.0625 0.042969-0.09375 0.10156-0.09375 0.17188 0 0.074219 0.023438 0.13281 0.078125 0.17188 0.050781 0.042969 0.11719 0.0625 0.20312 0.0625 0.11328 0 0.20703-0.035156 0.28125-0.10938 0.070312-0.082031 0.10938-0.17969 0.10938-0.29688v-0.0625zm0.875-0.21875v1.0312h-0.57812v-0.26562c-0.074219 0.10547-0.16406 0.18359-0.26562 0.23438-0.09375 0.050781-0.21094 0.078125-0.34375 0.078125-0.1875 0-0.34375-0.050781-0.46875-0.15625-0.11719-0.11328-0.17188-0.25781-0.17188-0.4375 0-0.20703 0.070313-0.35938 0.21875-0.45312 0.14453-0.10156 0.375-0.15625 0.6875-0.15625h0.34375v-0.046875c0-0.09375-0.039063-0.16016-0.10938-0.20312-0.074219-0.039062-0.1875-0.0625-0.34375-0.0625-0.11719 0-0.23047 0.015625-0.34375 0.046875-0.10547 0.023437-0.20312 0.054687-0.29688 0.09375v-0.4375c0.125-0.03125 0.25-0.050781 0.375-0.0625 0.125-0.019531 0.25-0.03125 0.375-0.03125 0.33203 0 0.56641 0.070313 0.70312 0.20312 0.14453 0.125 0.21875 0.33594 0.21875 0.625z"/>
  </symbol>
  <symbol id="d" overflow="visible">
   <path d="m0.90625-2.3281v0.51562h0.59375v0.42188h-0.59375v0.76562c0 0.085938 0.015625 0.14062 0.046875 0.17188 0.039063 0.023437 0.10938 0.03125 0.20312 0.03125h0.29688v0.42188h-0.5c-0.21875 0-0.38281-0.046875-0.48438-0.14062-0.09375-0.09375-0.14062-0.25391-0.14062-0.48438v-0.76562h-0.28125v-0.42188h0.28125v-0.51562z"/>
  </symbol>
  <symbol id="l" overflow="visible">
   <path d="m1.5156-1.5469v-0.96875h0.57812v2.5156h-0.57812v-0.26562c-0.085937 0.10547-0.17188 0.18359-0.26562 0.23438s-0.21094 0.078125-0.34375 0.078125c-0.21875 0-0.40234-0.085938-0.54688-0.26562-0.13672-0.17578-0.20312-0.40625-0.20312-0.6875s0.066406-0.50781 0.20312-0.6875c0.14453-0.17578 0.32812-0.26562 0.54688-0.26562 0.125 0 0.23438 0.027344 0.32812 0.078125 0.10156 0.054688 0.19531 0.13281 0.28125 0.23438zm-0.39062 1.1719c0.125 0 0.21875-0.039062 0.28125-0.125 0.070312-0.09375 0.10938-0.22656 0.10938-0.40625 0-0.16406-0.039063-0.29688-0.10938-0.39062-0.0625-0.09375-0.15625-0.14062-0.28125-0.14062s-0.21875 0.046875-0.28125 0.14062-0.09375 0.22656-0.09375 0.39062c0 0.17969 0.03125 0.3125 0.09375 0.40625 0.0625 0.085938 0.15625 0.125 0.28125 0.125z"/>
  </symbol>
  <symbol id="k" overflow="visible">
   <path d="m1.25-0.375c0.11328 0 0.20312-0.039062 0.26562-0.125 0.070313-0.09375 0.10938-0.22656 0.10938-0.40625 0-0.16406-0.039062-0.29688-0.10938-0.39062-0.0625-0.09375-0.15234-0.14062-0.26562-0.14062-0.125 0-0.22656 0.046875-0.29688 0.14062-0.0625 0.09375-0.09375 0.22656-0.09375 0.39062 0 0.17969 0.03125 0.3125 0.09375 0.40625 0.070313 0.085938 0.17188 0.125 0.29688 0.125zm-0.39062-1.1719c0.082031-0.10156 0.17188-0.17969 0.26562-0.23438 0.09375-0.050781 0.20312-0.078125 0.32812-0.078125 0.22656 0 0.41016 0.089844 0.54688 0.26562 0.14453 0.17969 0.21875 0.40625 0.21875 0.6875s-0.074219 0.51172-0.21875 0.6875c-0.13672 0.17969-0.32031 0.26562-0.54688 0.26562-0.125 0-0.23438-0.027344-0.32812-0.078125s-0.18359-0.12891-0.26562-0.23438v0.26562h-0.57812v-2.5156h0.57812z"/>
  </symbol>
  <symbol id="j" overflow="visible">
   <path d="m0.046875-1.8125h0.57812l0.48438 1.2344 0.40625-1.2344h0.57812l-0.75 1.9844c-0.085938 0.19531-0.17969 0.33594-0.28125 0.42188-0.09375 0.082031-0.22656 0.125-0.39062 0.125h-0.34375v-0.39062h0.1875c0.09375 0 0.16016-0.015625 0.20312-0.046875 0.050781-0.03125 0.085938-0.085938 0.10938-0.15625l0.015625-0.0625z"/>
  </symbol>
  <symbol id="i" overflow="visible">
   <path d="m0.28125-2.5156h0.57812v1.375l0.67188-0.67188h0.67188l-0.89062 0.82812 0.95312 0.98438h-0.70312l-0.70312-0.75v0.75h-0.57812z"/>
  </symbol>
  <symbol id="h" overflow="visible">
   <path d="m1.9531-1.5156c0.070313-0.10156 0.16016-0.1875 0.26562-0.25 0.10156-0.0625 0.21094-0.09375 0.32812-0.09375 0.20703 0 0.36328 0.070313 0.46875 0.20312 0.11328 0.125 0.17188 0.30859 0.17188 0.54688v1.1094h-0.57812v-0.9375-0.046875-0.0625c0-0.13281-0.023437-0.22656-0.0625-0.28125-0.03125-0.0625-0.089844-0.09375-0.17188-0.09375-0.11719 0-0.20312 0.046875-0.26562 0.14062-0.054687 0.09375-0.085937 0.22656-0.09375 0.39062v0.89062h-0.57812v-0.9375c0-0.20703-0.015625-0.33594-0.046875-0.39062-0.03125-0.0625-0.09375-0.09375-0.1875-0.09375-0.11719 0-0.20312 0.046875-0.26562 0.14062-0.054688 0.09375-0.078125 0.22656-0.078125 0.39062v0.89062h-0.57812v-1.8125h0.57812v0.26562c0.070313-0.10156 0.14844-0.17969 0.23438-0.23438 0.09375-0.050781 0.19531-0.078125 0.3125-0.078125 0.125 0 0.23438 0.03125 0.32812 0.09375s0.16406 0.14844 0.21875 0.25z"/>
  </symbol>
  <symbol id="v" overflow="visible">
   <path d="m0.28125-2.5156h0.57812v2.5156h-0.57812z"/>
  </symbol>
  <symbol id="g" overflow="visible">
   <path d="m0.1875-1.8125h1.5781v0.40625l-0.95312 0.98438h0.95312v0.42188h-1.6094v-0.40625l0.95312-0.98438h-0.92188z"/>
  </symbol>
  <symbol id="f" overflow="visible">
   <path d="m2.0938-1.1094v1.1094h-0.57812v-0.84375c0-0.15625-0.007813-0.25781-0.015625-0.3125 0-0.0625-0.011719-0.10938-0.03125-0.14062-0.023438-0.039063-0.054688-0.070313-0.09375-0.09375-0.042969-0.019531-0.085938-0.03125-0.125-0.03125-0.125 0-0.22656 0.046875-0.29688 0.14062-0.0625 0.09375-0.09375 0.22656-0.09375 0.39062v0.89062h-0.57812v-2.5156h0.57812v0.96875c0.082031-0.10156 0.17188-0.17969 0.26562-0.23438 0.10156-0.050781 0.21094-0.078125 0.32812-0.078125 0.21875 0 0.37891 0.070313 0.48438 0.20312 0.10156 0.125 0.15625 0.30859 0.15625 0.54688z"/>
  </symbol>
  <symbol id="u" overflow="visible">
   <path d="m0.32812-0.046875v-0.45312c0.10156 0.042969 0.19531 0.078125 0.28125 0.10938 0.09375 0.023437 0.1875 0.03125 0.28125 0.03125 0.17578 0 0.31641-0.050781 0.42188-0.15625 0.10156-0.10156 0.16406-0.25391 0.1875-0.45312-0.074219 0.054688-0.15234 0.09375-0.23438 0.125-0.085937 0.023438-0.17188 0.03125-0.26562 0.03125-0.25 0-0.45312-0.070312-0.60938-0.21875-0.14844-0.14453-0.21875-0.33203-0.21875-0.5625 0-0.25781 0.082031-0.46875 0.25-0.625 0.16406-0.15625 0.39453-0.23438 0.6875-0.23438 0.3125 0 0.55078 0.10938 0.71875 0.32812 0.17578 0.21094 0.26562 0.50781 0.26562 0.89062 0 0.39844-0.10547 0.71094-0.3125 0.9375-0.19922 0.23047-0.47656 0.34375-0.82812 0.34375-0.10547 0-0.21094-0.011719-0.3125-0.03125-0.10547-0.011719-0.21094-0.03125-0.3125-0.0625zm0.76562-1.1719c0.11328 0 0.19531-0.03125 0.25-0.09375 0.050781-0.070312 0.078125-0.17969 0.078125-0.32812 0-0.13281-0.027344-0.23828-0.078125-0.3125-0.054688-0.070313-0.13672-0.10938-0.25-0.10938-0.10547 0-0.1875 0.039062-0.25 0.10938-0.054688 0.074219-0.078125 0.17969-0.078125 0.3125 0 0.14844 0.023437 0.25781 0.078125 0.32812 0.0625 0.0625 0.14453 0.09375 0.25 0.09375z"/>
  </symbol>
  <symbol id="t" overflow="visible">
   <path d="m1.5469-1.2969c0.15625 0.042969 0.27344 0.11719 0.35938 0.21875 0.09375 0.10547 0.14062 0.23438 0.14062 0.39062 0 0.24219-0.09375 0.42188-0.28125 0.54688s-0.45312 0.1875-0.79688 0.1875c-0.125 0-0.25-0.011719-0.375-0.03125-0.125-0.019531-0.25-0.050781-0.375-0.09375v-0.46875c0.11328 0.054687 0.22656 0.09375 0.34375 0.125 0.11328 0.03125 0.22656 0.046875 0.34375 0.046875 0.16406 0 0.28906-0.023438 0.375-0.078125 0.09375-0.0625 0.14062-0.14453 0.14062-0.25 0-0.11328-0.046875-0.19531-0.14062-0.25-0.09375-0.0625-0.22656-0.09375-0.39062-0.09375h-0.25v-0.39062h0.25c0.15625 0 0.26953-0.023438 0.34375-0.078125 0.082031-0.050781 0.125-0.125 0.125-0.21875s-0.039063-0.16406-0.10938-0.21875c-0.074219-0.050781-0.17969-0.078125-0.3125-0.078125-0.10547 0-0.21094 0.011719-0.3125 0.03125-0.09375 0.023438-0.19531 0.054688-0.29688 0.09375v-0.45312c0.125-0.03125 0.24219-0.050781 0.35938-0.0625 0.125-0.019531 0.24219-0.03125 0.35938-0.03125 0.3125 0 0.54688 0.054687 0.70312 0.15625 0.15625 0.09375 0.23438 0.24609 0.23438 0.45312 0 0.14844-0.039063 0.26562-0.10938 0.35938-0.074219 0.085937-0.18359 0.14844-0.32812 0.1875z"/>
  </symbol>
  <symbol id="s" overflow="visible">
   <path d="m1.4688-2.5156v0.375h-0.3125c-0.085938 0-0.14062 0.015625-0.17188 0.046875s-0.046875 0.085938-0.046875 0.15625v0.125h0.48438v0.42188h-0.48438v1.3906h-0.59375v-1.3906h-0.28125v-0.42188h0.28125v-0.125c0-0.19531 0.054688-0.34375 0.17188-0.4375 0.11328-0.09375 0.28516-0.14062 0.51562-0.14062z"/>
  </symbol>
  <symbol id="e" overflow="visible">
   <path d="m1.1406-1.4375c-0.125 0-0.22656 0.046875-0.29688 0.14062-0.0625 0.085937-0.09375 0.21484-0.09375 0.39062 0 0.17969 0.03125 0.3125 0.09375 0.40625 0.070312 0.09375 0.17188 0.14062 0.29688 0.14062s0.21875-0.046875 0.28125-0.14062c0.070313-0.09375 0.10938-0.22656 0.10938-0.40625 0-0.17578-0.039062-0.30469-0.10938-0.39062-0.0625-0.09375-0.15625-0.14062-0.28125-0.14062zm0-0.42188c0.3125 0 0.55469 0.089844 0.73438 0.26562 0.17578 0.16797 0.26562 0.39844 0.26562 0.6875 0 0.30469-0.089844 0.53906-0.26562 0.70312-0.17969 0.16797-0.42188 0.25-0.73438 0.25s-0.55859-0.082031-0.73438-0.25c-0.17969-0.16406-0.26562-0.39844-0.26562-0.70312 0-0.28906 0.085937-0.51953 0.26562-0.6875 0.17578-0.17578 0.42188-0.26562 0.73438-0.26562z"/>
  </symbol>
  <symbol id="r" overflow="visible">
   <path d="m0.29688-2.4219h0.70312l0.875 1.6562v-1.6562h0.59375v2.4219h-0.70312l-0.875-1.6562v1.6562h-0.59375z"/>
  </symbol>
  <symbol id="q" overflow="visible">
   <path d="m0.26562-0.70312v-1.1094h0.57812v0.1875 0.375 0.28125 0.32812c0.007812 0.0625 0.023438 0.10547 0.046875 0.125 0.019531 0.042969 0.046875 0.074219 0.078125 0.09375 0.039062 0.023437 0.085938 0.03125 0.14062 0.03125 0.125 0 0.21875-0.046875 0.28125-0.14062 0.070313-0.09375 0.10938-0.22266 0.10938-0.39062v-0.89062h0.57812v1.8125h-0.57812v-0.26562c-0.085938 0.10547-0.17969 0.18359-0.28125 0.23438-0.09375 0.050781-0.19922 0.078125-0.3125 0.078125-0.21094 0-0.37109-0.0625-0.48438-0.1875-0.10547-0.13281-0.15625-0.32031-0.15625-0.5625z"/>
  </symbol>
  <symbol id="p" overflow="visible">
   <path d="m2.0938-1.1094v1.1094h-0.57812v-0.84375c0-0.15625-0.007813-0.25781-0.015625-0.3125 0-0.0625-0.011719-0.10938-0.03125-0.14062-0.023438-0.039063-0.054688-0.070313-0.09375-0.09375-0.042969-0.019531-0.085938-0.03125-0.125-0.03125-0.125 0-0.22656 0.046875-0.29688 0.14062-0.0625 0.09375-0.09375 0.22656-0.09375 0.39062v0.89062h-0.57812v-1.8125h0.57812v0.26562c0.082031-0.10156 0.17188-0.17969 0.26562-0.23438 0.10156-0.050781 0.21094-0.078125 0.32812-0.078125 0.21875 0 0.37891 0.070313 0.48438 0.20312 0.10156 0.125 0.15625 0.30859 0.15625 0.54688z"/>
  </symbol>
  <symbol id="o" overflow="visible">
   <path d="m0.29688-2.4219h1.0469c0.30078 0 0.53516 0.074219 0.70312 0.21875 0.16406 0.13672 0.25 0.32812 0.25 0.57812s-0.085937 0.44531-0.25 0.57812c-0.16797 0.13672-0.40234 0.20312-0.70312 0.20312h-0.42188v0.84375h-0.625zm0.625 0.45312v0.67188h0.34375c0.125 0 0.21875-0.023437 0.28125-0.078125 0.070313-0.0625 0.10938-0.14453 0.10938-0.25 0-0.10156-0.039062-0.1875-0.10938-0.25-0.0625-0.0625-0.15625-0.09375-0.28125-0.09375z"/>
  </symbol>
  <symbol id="n" overflow="visible">
   <path d="m0.28125-1.8125h0.57812v1.7812c0 0.23828-0.058594 0.42188-0.17188 0.54688-0.11719 0.13281-0.28906 0.20312-0.51562 0.20312h-0.28125v-0.39062h0.09375c0.11328 0 0.19141-0.027344 0.23438-0.078125 0.039062-0.042969 0.0625-0.13672 0.0625-0.28125zm0-0.70312h0.57812v0.46875h-0.57812z"/>
  </symbol>
  <symbol id="m" overflow="visible">
   <path d="m1.7344-1.75v0.46875c-0.074219-0.050781-0.15234-0.085938-0.23438-0.10938-0.074219-0.03125-0.15234-0.046875-0.23438-0.046875-0.16797 0-0.29688 0.046875-0.39062 0.14062-0.085938 0.09375-0.125 0.22656-0.125 0.39062 0 0.16797 0.039062 0.30469 0.125 0.40625 0.09375 0.09375 0.22266 0.14062 0.39062 0.14062 0.082031 0 0.16406-0.015625 0.25-0.046875 0.082031-0.03125 0.15625-0.070312 0.21875-0.125v0.48438c-0.085937 0.03125-0.17188 0.050781-0.26562 0.0625-0.09375 0.019531-0.1875 0.03125-0.28125 0.03125-0.32422 0-0.57812-0.082031-0.76562-0.25-0.1875-0.16406-0.28125-0.39844-0.28125-0.70312 0-0.30078 0.09375-0.53516 0.28125-0.70312 0.1875-0.16406 0.44141-0.25 0.76562-0.25 0.09375 0 0.1875 0.011719 0.28125 0.03125 0.09375 0.011719 0.17969 0.039063 0.26562 0.078125z"/>
  </symbol>
 </defs>
 <g>
  <path d="m181.68 242.36c10.266 3.168 18.719 10.465 23.402 19.961h49.434c6.8516-16.695 17.938-31.199 31.934-42.164 17.539-13.75 39.605-21.953 63.555-21.953 23.945 0 46.008 8.2031 63.555 21.945 13.988 10.965 25.082 25.477 31.934 42.172h49.422c4.6914-9.4961 13.141-16.793 23.414-19.961v-33.344h-31.59c-15.062 0-15.062-22.891 0-22.891h31.59v-2.6836c0-15.062 22.898-15.062 22.898 0v2.6836h31.582c15.062 0 15.062 22.891 0 22.891h-31.582v33.344c15.859 4.8828 27.395 19.656 27.395 37.133 0 21.457-17.395 38.844-38.844 38.844-15.293 0-28.516-8.8242-34.855-21.676h-86.738c-2.1484 7.3477-5.6016 14.07-10.066 19.922l51.586 51.59c10.648 10.648-5.5508 26.832-16.199 16.184l-52.449-52.449c-9.3125 5.6367-20.188 8.8281-31.668 8.8281-11.156 0-21.746-3.0312-30.887-8.3789l-51.996 52c-10.648 10.648-26.84-5.5352-16.191-16.184l50.895-50.895c-4.7305-6.0195-8.375-12.977-10.609-20.617h-85.516c-6.3438 12.852-19.559 21.676-34.852 21.676-21.457 0-38.844-17.391-38.844-38.844 0-17.477 11.527-32.25 27.391-37.133v-33.344h-31.582c-15.062 0-15.062-22.891 0-22.891h31.582v-2.6836c0-15.062 22.906-15.062 22.906 0v2.6836h31.578c15.062 0 15.062 22.891 0 22.891h-31.578v33.344zm168.32-6.8711c14.5 0 26.25 11.754 26.25 26.25 0 14.5-11.754 26.258-26.25 26.258-14.492 0-26.258-11.762-26.258-26.258 0-14.5 11.766-26.25 26.258-26.25z" fill-rule="evenodd"/>
  <use x="70" y="569.921875" xlink:href="#w"/>
  <use x="72.425781" y="569.921875" xlink:href="#c"/>
  <use x="74.058594" y="569.921875" xlink:href="#b"/>
  <use x="76.300781" y="569.921875" xlink:href="#a"/>
  <use x="78.53125" y="569.921875" xlink:href="#d"/>
  <use x="80.113281" y="569.921875" xlink:href="#b"/>
  <use x="82.355469" y="569.921875" xlink:href="#l"/>
  <use x="85.875" y="569.921875" xlink:href="#k"/>
  <use x="88.242188" y="569.921875" xlink:href="#j"/>
  <use x="91.550781" y="569.921875" xlink:href="#i"/>
  <use x="93.75" y="569.921875" xlink:href="#a"/>
  <use x="95.980469" y="569.921875" xlink:href="#h"/>
  <use x="99.425781" y="569.921875" xlink:href="#a"/>
  <use x="101.65625" y="569.921875" xlink:href="#v"/>
  <use x="103.941406" y="569.921875" xlink:href="#a"/>
  <use x="106.175781" y="569.921875" xlink:href="#g"/>
  <use x="109.25" y="569.921875" xlink:href="#g"/>
  <use x="111.175781" y="569.921875" xlink:href="#a"/>
  <use x="113.40625" y="569.921875" xlink:href="#f"/>
  <use x="115.761719" y="569.921875" xlink:href="#c"/>
  <use x="117.394531" y="569.921875" xlink:href="#a"/>
  <use x="120.777344" y="569.921875" xlink:href="#u"/>
  <use x="123.078125" y="569.921875" xlink:href="#t"/>
  <use x="70" y="573.226562" xlink:href="#s"/>
  <use x="71.4375" y="573.226562" xlink:href="#c"/>
  <use x="73.070312" y="573.226562" xlink:href="#e"/>
  <use x="75.339844" y="573.226562" xlink:href="#h"/>
  <use x="79.9375" y="573.226562" xlink:href="#d"/>
  <use x="81.519531" y="573.226562" xlink:href="#f"/>
  <use x="83.875" y="573.226562" xlink:href="#b"/>
  <use x="87.269531" y="573.226562" xlink:href="#r"/>
  <use x="90.035156" y="573.226562" xlink:href="#e"/>
  <use x="92.308594" y="573.226562" xlink:href="#q"/>
  <use x="94.664062" y="573.226562" xlink:href="#p"/>
  <use x="98.167969" y="573.226562" xlink:href="#o"/>
  <use x="100.59375" y="573.226562" xlink:href="#c"/>
  <use x="102.222656" y="573.226562" xlink:href="#e"/>
  <use x="104.496094" y="573.226562" xlink:href="#n"/>
  <use x="105.628906" y="573.226562" xlink:href="#b"/>
  <use x="107.871094" y="573.226562" xlink:href="#m"/>
  <use x="109.832031" y="573.226562" xlink:href="#d"/>
 </g>
</svg>
