<!-- Generated by IcoMoon.io -->
<svg version="1.1" xmlns="http://www.w3.org/2000/svg" width="32" height="32" viewBox="0 0 32 32">
<title>dropping</title>
<path d="M24.438 19.5c-0.563-2.438-2.75-4.438-5.125-4.75 0.313-2.313-1.063-5.563-3-6.938l-0.813-0.563v1c0 2.063-0.938 3.188-1.688 4.188-0.563 0.688-1.125 1.438-1.125 2.25-2.375 0.313-4.563 2.375-5.125 4.813-4.438 0.188-7.563 3.75-7.563 8.5 0 1.688 2.75 3.75 16 3.75s16-2.063 16-3.75c0-4.75-3.125-8.313-7.563-8.5zM23.5 20.25v0-0.063zM14.688 13.063c0.625-0.813 1.5-1.938 1.75-3.688 1.375 1.5 2.188 4.125 1.75 5.688l-0.125 0.375c-0.313 0.125-1 0.313-2.063 0.313s-1.75-0.188-2.063-0.313l-0.063-0.375c-0.25-0.625 0.125-1.125 0.813-2zM12.875 15.75c0.125 0.313 0.438 0.625 1.188 0.813 0.5 0.188 1.188 0.25 1.938 0.25 0.875 0 2.813-0.125 3.125-1.063 2.063 0.313 4.063 2.188 4.375 4.313v0.063c-0.438 0.313-3.063 0.813-7.5 0.813s-7.063-0.5-7.5-0.813v-0.063c0.313-2.125 2.313-4 4.375-4.313zM8.563 20.25h-0.063v-0.063zM16 30.688c-10.25 0-14.938-1.375-14.938-2.688 0-4.188 2.625-7.188 6.438-7.438 0.25 0.563 1.125 0.875 2.938 1.125 1.5 0.188 3.438 0.313 5.563 0.313 5.125 0 8-0.5 8.438-1.438 3.875 0.25 6.5 3.188 6.5 7.438 0 1.313-4.688 2.688-14.938 2.688zM29.313 12.563c-0.25 0-0.5 0.188-0.5 0.5s0.25 0.563 0.5 0.563c0.938 0 2.688-0.563 2.688-2.688 0-1.375-0.813-1.813-1.375-2.063-0.5-0.25-0.75-0.375-0.75-1.125 0-0.688 0.25-1.125 0.75-1.375 0.313-0.188 0.375-0.5 0.25-0.75s-0.438-0.375-0.688-0.25c-0.875 0.438-1.375 1.313-1.375 2.375 0 1.375 0.75 1.813 1.375 2.063 0.5 0.25 0.75 0.375 0.75 1.125 0 1.5-1.313 1.625-1.625 1.625zM21.875 7.188c-0.313 0-0.563 0.25-0.563 0.563s0.25 0.5 0.563 0.5c0.938 0 2.688-0.563 2.688-2.625 0-1.438-0.813-1.813-1.375-2.063-0.5-0.25-0.813-0.438-0.813-1.125s0.313-1.188 0.813-1.438c0.25-0.125 0.375-0.438 0.25-0.688s-0.438-0.375-0.688-0.25c-0.938 0.438-1.438 1.25-1.438 2.375 0 1.375 0.813 1.75 1.375 2.063 0.5 0.25 0.813 0.375 0.813 1.125 0 1.5-1.375 1.563-1.625 1.563zM2.688 13.625c0.25 0 0.5-0.25 0.5-0.563 0-0.25-0.25-0.5-0.5-0.5-0.313 0-1.625-0.125-1.625-1.625 0-0.75 0.25-0.875 0.75-1.125 0.625-0.25 1.375-0.688 1.375-2.063 0-1.063-0.5-1.938-1.375-2.375-0.25-0.125-0.563 0-0.688 0.25s-0.063 0.563 0.25 0.75c0.5 0.25 0.75 0.688 0.75 1.375 0 0.75-0.25 0.875-0.75 1.125-0.563 0.25-1.375 0.688-1.375 2.063 0 2.125 1.75 2.688 2.688 2.688zM10.125 8.25c0.313 0 0.563-0.188 0.563-0.5s-0.25-0.563-0.563-0.563c-0.25 0-1.563-0.063-1.563-1.563 0-0.75 0.25-0.875 0.75-1.125 0.563-0.313 1.375-0.688 1.375-2.063 0-1.125-0.5-1.938-1.375-2.375-0.313-0.125-0.625 0-0.75 0.25s0 0.563 0.25 0.688c0.563 0.25 0.813 0.75 0.813 1.438s-0.313 0.875-0.813 1.125c-0.563 0.25-1.313 0.625-1.313 2.063 0 2.063 1.688 2.625 2.625 2.625z"></path>
</svg>
