<svg xmlns="http://www.w3.org/2000/svg" xmlns:xlink="http://www.w3.org/1999/xlink" version="1.1" x="0px" y="0px" viewBox="0 0 66 82.5" style="enable-background:new 0 0 66 66;" xml:space="preserve"><g><path d="M6.1,58.9C6.1,63.7,23.7,65,33,65s26.9-1.3,26.9-6.1c0-10.6,0-19.8,0-31.4c0,0,0,0,0,0c0-3.6-9.8-5.1-16.2-5.7   c-0.1-0.4-0.2-0.8-0.4-1.1L55,8.8c0.4-0.4,0.4-1,0-1.4c-0.4-0.4-1-0.4-1.4,0L41.9,19.2c-1.4-0.8-3.3-0.6-4.5,0.6   c-0.4,0.4-0.7,1-0.9,1.5c-1.1,0-2.2,0-3.5,0c-9.3,0-26.9,1.3-26.9,6.1c0,0,0,0,0,0C6.1,39,6.1,48.2,6.1,58.9z M33,39.9   c3.9,0,8.2-0.2,11.6-0.6L33,56.3L22.5,39.5C26.1,39.8,29.8,39.9,33,39.9z M31.2,57C20.3,56.9,13,55.5,9.8,54.2L20.5,40L31.2,57z    M46.5,40l9.7,14.1c-3.1,1.3-10.4,2.7-21.4,2.9L46.5,40z M58,36.3v16.5c0,0.1,0,0.2-0.1,0.3L48.1,39C51,38.6,55.5,37.8,58,36.3z    M58,33.8c0,1.4-8.8,4.2-25,4.2c-5.2,0-25-1.1-25-4.2v-3.9c4.8,2.8,17.5,3.6,25,3.6c7.4,0,20.1-0.8,25-3.6V33.8z M18.8,39.1   L8.2,53.2C8.1,53.1,8,53,8,52.9V36.3C10.7,37.9,15.7,38.7,18.8,39.1z M33,63.1c-16.1,0-25-2.8-25-4.2v-3.5C12.9,58.2,25.5,59,33,59   l0,0c0,0,0,0,0,0c7.4,0,20.1-0.8,25-3.6v3.5C58,60.3,49.1,63.1,33,63.1z M41.3,21.2c1.3,1.3-0.1,3.6-1.9,2.9   c-1.1-0.5-1.5-2-0.6-2.9C39.4,20.5,40.6,20.5,41.3,21.2z M33,23.2c1.2,0,2.3,0,3.4,0c0.4,1.6,1.9,2.9,3.6,2.9c1.6,0,3-1.1,3.5-2.5   c11,1,14.4,3.1,14.4,3.7c0,1.4-8.8,4.2-25,4.2c-16.1,0-25-2.8-25-4.2S16.9,23.2,33,23.2z"/><path d="M22.5,18.9c0.7,0.7,1.6,1.1,2.6,1.1c3.3,0,5-4,2.6-6.3c-1.2-1.2-3.1-1.4-4.5-0.6L11.5,1.3c-0.4-0.4-1-0.4-1.4,0   c-0.4,0.4-0.4,1,0,1.4l11.8,11.8C21.1,15.8,21.3,17.7,22.5,18.9z M26.4,15c0.7,0.7,0.7,1.7,0.1,2.4c0,0-0.1,0.1-0.1,0.1   c-0.7,0.7-1.8,0.7-2.5,0c-0.7-0.7-0.7-1.8,0-2.5C24.6,14.3,25.7,14.3,26.4,15z"/></g><text x="0" y="81" fill="#000000" font-size="5px" font-weight="bold" font-family="'Helvetica Neue', Helvetica, Arial-Unicode, Arial, Sans-serif">Created by ProSymbols</text><text x="0" y="86" fill="#000000" font-size="5px" font-weight="bold" font-family="'Helvetica Neue', Helvetica, Arial-Unicode, Arial, Sans-serif">from the Noun Project</text></svg>