<!-- Generated by IcoMoon.io -->
<svg version="1.1" xmlns="http://www.w3.org/2000/svg" width="32" height="32" viewBox="0 0 32 32">
<title>Duiker</title>
<path d="M18.812 2.25c0.125 0.438 0.063 1.813-0.125 3.063-0.125 0.688-0.188 1.313-0.188 1.375s0.188-0.125 0.313-0.375 1.313-1.188 1.625-1.25c0.875-0.125 0.938-0.125 1.25 0.563l0.25 0.625 0.5-0.563c0.313-0.313 0.688-0.625 0.938-0.75 0.188-0.125 0.563-0.313 0.813-0.438 0.375-0.25 1.125-0.438 1.563-0.438 0.25 0 0.375 0.063 0.563 0.313 0.375 0.375 0.5 0.875 0.5 2.063 0 2-0.063 2.813-0.438 3.5-0.125 0.188-0.188 0.438-0.25 0.563 0 0.125-0.438 0.563-0.875 1-0.625 0.625-0.875 0.813-1.188 0.938-0.188 0-0.563 0.188-0.75 0.25-0.25 0.125-0.5 0.25-0.5 0.25-0.063 0-0.188 0.063-0.375 0.188-0.25 0.25-0.25 0.25-0.063 0.375 0.063 0.063 0.125 0.125 0.125 0.188s0.063 0.188 0.188 0.313c0.563 0.625 1.313 2.125 2.125 4 0.063 0.188 0.188 0.313 0.188 0.313 0.063 0 0.125 0.063 0.125 0.125s0.063 0.188 0.188 0.313c0.125 0.063 0.375 0.438 0.563 0.688 0.375 0.5 0.813 0.813 1.063 0.813 0.063 0 0.313 0.125 0.563 0.188 0.625 0.313 1.938 0.375 2.25 0.125 0.125-0.063 0.375-0.188 0.563-0.313l0.313-0.188 0.375 0.438c0.25 0.188 0.5 0.625 0.688 0.875l0.313 0.5v1.438c0 1.688 0.063 1.5-1.125 3.313-0.938 1.438-1.5 2.188-2.25 2.938-1.063 1.063-0.875 1-3.313 1h-2.063l-0.625-0.438c-0.375-0.25-0.938-0.563-1.188-0.688-0.313-0.188-0.5-0.313-0.563-0.438 0-0.125-0.063-0.25-0.125-0.313-0.188-0.125-0.688-1.188-0.688-1.313 0-0.063-0.063-0.188-0.188-0.25-0.125-0.125-0.438-0.625-0.5-0.813 0-0.063-0.188-0.5-0.5-1-0.25-0.5-0.5-1-0.563-1.063-0.125-0.375-0.563-1-1.125-1.625l-0.563-0.625-1.688 0.063c-0.938 0-2.5 0.063-3.438 0.063-1.75 0.063-2.25 0.125-3.125 0.375-0.938 0.313-2.563 0.688-3.125 0.625-0.438 0-0.688 0-0.938-0.188-0.5-0.25-0.438-0.375 0.125-0.688 0.625-0.313 0.625-0.313 0.125-0.313-0.313 0-0.625-0.063-0.813-0.125-0.438-0.125-1.063-0.625-1.125-0.875 0-0.125-0.125-0.25-0.25-0.375-0.25-0.125-0.25-0.188-0.25-0.5s0.125-0.75 0.25-0.875c0 0 0.188-0.25 0.438-0.563 0.5-0.625 1-1.313 1.25-1.563 0.125-0.063 0.25-0.188 0.25-0.188 0-0.188 2.438-2.5 3.5-3.375 0.25-0.25 0.563-0.5 0.625-0.625 0.125-0.313 1.625-1.75 1.875-1.875 0.063-0.063 0.188-0.188 0.188-0.375 0-0.125 0.125-0.563 0.188-0.938 0.125-0.688 0.313-2.25 0.313-2.813 0-0.25 0.063-0.375 0.125-0.375 0.188 0 0.375 0.625 0.375 1.063 0 0.25 0.063 0.625 0.125 0.875l0.125 0.438 0.063-0.625c0-0.375 0.063-1 0.063-1.375 0-0.438 0-0.75 0.063-0.75s0.125 0.063 0.125 0.125c0 0.125 0.063 0.313 0.125 0.438 0.188 0.25 0.25 0.563 0.313 1.125 0.063 0.188 0.188 0.625 0.313 1.063 0.125 0.375 0.25 0.813 0.25 0.875 0 0.188 0.188 0.25 0.75 0.125 0.5-0.125 0.5-0.125 0.75-0.563 0.125-0.25 0.188-0.438 0.188-0.438s0.25-0.563 0.563-1.188c0.75-1.563 0.813-1.75 0.875-2.063 0.063-0.125 0.313-0.688 0.625-1.313 0.25-0.563 0.438-1.125 0.438-1.188 0-0.125 0.313-0.813 0.375-0.813s0.063 0.25 0.125 0.625c0.063 0.563 0 0.75-0.188 1.5-0.313 1.188-0.375 1.438-0.313 1.438s0.188-0.313 0.313-0.688c0.125-0.375 0.313-0.875 0.438-1.125s0.25-0.688 0.313-0.938c0.25-1.063 0.375-1.313 0.5-0.875z"></path>
</svg>
