<!-- Generated by IcoMoon.io -->
<svg version="1.1" xmlns="http://www.w3.org/2000/svg" width="32" height="32" viewBox="0 0 32 32">
<title>Eaten-things</title>
<path d="M9.625 1.688c-0.125 0.063-0.25 0.188-0.313 0.313s-0.063 0.313 0 0.75c0.063 1.063 0.25 1.938 0.625 2.688 0.188 0.375 0.438 0.75 0.625 1 0.063 0.063 0.125 0.125 0.125 0.125s-0.125 0-0.25-0.063c-1.125-0.125-2.375-0.063-3.375 0.25-0.75 0.25-1.438 0.625-2.063 1.063-0.25 0.188-0.688 0.688-0.938 0.938-0.188 0.25-0.5 0.75-0.625 1-0.688 1.25-1.125 2.875-1.25 4.688-0.125 1.5-0.125 2.75 0.125 4.063 0.438 2.813 1.625 5.688 3.188 7.813 1.125 1.5 2.375 2.625 3.75 3.313 0.563 0.313 1.188 0.5 1.813 0.625l0.25 0.063h1.938l0.188-0.063c0.313-0.063 0.5-0.125 0.875-0.25 0.438-0.188 0.625-0.188 0.938-0.188s0.5 0 0.938 0.188c0.375 0.125 0.563 0.188 0.875 0.25l0.188 0.063h1c0.938 0 0.938 0 1.188-0.063 0.75-0.125 1.438-0.375 2.188-0.75 1-0.5 1.875-1.125 2.75-2 0.688-0.75 1.25-1.375 1.813-2.25 0.938-1.375 1.688-3 2.125-4.625 0.125-0.375 0.125-0.5 0.063-0.688-0.125-0.188-0.313-0.313-0.5-0.313-0.125 0-0.125 0-0.313 0.063-0.438 0.125-0.688 0.188-1 0.188s-0.625-0.063-0.875-0.25c-0.25-0.188-0.563-0.5-0.688-0.875-0.063-0.125-0.125-0.188-0.188-0.563 0-0.125-0.188-0.313-0.375-0.375-0.063 0-0.125 0-0.25 0-0.313 0-0.5 0-0.625-0.063-0.5-0.125-0.875-0.438-1-0.875-0.125-0.188-0.125-0.375-0.125-0.625s0.063-0.438 0.25-0.75c0.063-0.063 0.125-0.188 0.125-0.25 0-0.125 0-0.25-0.063-0.5-0.125-0.375-0.188-0.5-0.5-0.625-0.25-0.063-0.438-0.188-0.625-0.375-0.125-0.188-0.25-0.375-0.313-0.688-0.063-0.125-0.063-0.563 0-0.688 0.063-0.25 0.188-0.5 0.313-0.688 0.188-0.188 0.375-0.25 0.625-0.375 0.188-0.063 0.25-0.125 0.375-0.25 0.125-0.188 0.125-0.375 0-0.688-0.125-0.25-0.188-0.375-0.188-0.563 0-0.625 0.313-1.125 0.813-1.438 0.25-0.125 0.375-0.125 0.75-0.125 0.25 0 0.313 0 0.375-0.063 0.313-0.125 0.438-0.5 0.25-0.813-0.063-0.188-0.25-0.25-0.75-0.5-0.625-0.188-1.188-0.313-1.875-0.375-0.313-0.063-1.188-0.063-1.438 0-0.875 0.063-1.625 0.188-3.125 0.688-0.688 0.188-1 0.313-1.313 0.375h-0.25c0-0.063 0.063-0.5 0.125-0.688 0.125-0.5 0.313-0.938 0.563-1.438 0.125-0.25 0.188-0.375 0.688-1.25 0.25-0.313 0.375-0.5 0.375-0.563 0.063-0.25 0-0.438-0.188-0.625-0.125-0.063-0.25-0.125-0.375-0.125-0.25 0-0.438 0.125-0.563 0.375-0.063 0.063-0.25 0.375-0.438 0.625-0.375 0.625-0.375 0.688-0.563 1.063l-0.188 0.313-0.063-0.125c-0.125-0.25-0.313-0.625-0.5-0.875-0.625-0.938-1.5-1.688-2.563-2.125-0.438-0.188-1-0.375-1.438-0.438-0.313 0-1.063 0-1.125 0zM10.813 2.938c1.063 0.188 2 0.813 2.688 1.625 0.313 0.375 0.625 0.938 0.75 1.375 0.125 0.25 0.25 0.688 0.313 0.938 0 0.188 0.063 0.563 0.063 0.625 0 0-0.563-0.188-0.813-0.313-1.125-0.375-2-1-2.563-1.813-0.375-0.625-0.625-1.313-0.688-2.125-0.063-0.125-0.063-0.25-0.063-0.25 0-0.125-0.063-0.125 0.313-0.063zM9.813 7.625c0.75 0.125 1.438 0.25 2.813 0.688 1.438 0.438 1.938 0.5 2.625 0.5s1.188-0.063 2.625-0.5c1.75-0.563 2.563-0.688 3.563-0.688 0.313 0 0.688 0.063 0.688 0.063s0 0.063-0.063 0.125c-0.438 0.375-0.625 0.875-0.75 1.438-0.063 0.25-0.063 0.688 0 1 0 0.125 0 0.188 0 0.188-0.063 0-0.313 0.25-0.5 0.375-0.375 0.438-0.688 1-0.75 1.563-0.063 0.375 0 0.688 0.063 1.063 0.188 0.625 0.625 1.25 1.25 1.563 0.063 0.063 0.125 0.125 0.125 0.125s0 0.063 0 0.125c-0.188 0.313-0.25 0.813-0.25 1.188 0 0.625 0.25 1.188 0.688 1.625 0.375 0.5 1.063 0.875 1.688 0.938h0.188v0.125c0.375 0.875 1 1.5 1.813 1.75 0.313 0.125 0.5 0.188 0.938 0.188h0.375l-0.063 0.188c-0.375 1.125-0.938 2.313-1.625 3.313-0.563 0.75-1 1.375-1.625 2-0.875 0.875-1.688 1.5-2.625 1.938-0.938 0.5-1.938 0.688-2.938 0.688-0.5-0.063-0.813-0.063-1.25-0.25-0.625-0.188-0.875-0.313-1.125-0.313-0.188-0.063-0.625-0.063-0.813 0-0.313 0-0.625 0.125-1.125 0.313-0.25 0.063-0.5 0.188-0.75 0.188-0.313 0.063-1.063 0.063-1.313 0-1-0.125-1.938-0.5-2.875-1.125-1.938-1.375-3.625-3.938-4.625-7-0.5-1.313-0.75-2.625-0.875-4 0-0.438 0-1.813 0-2.313 0.188-1.75 0.438-3 1-4.063 0.313-0.625 0.625-1.063 1.063-1.5s0.75-0.688 1.313-0.938c0.563-0.313 1.25-0.5 2-0.5 0.25-0.063 0.875-0.063 1.125-0.063zM8.813 8.875c-0.813 0-1.563 0.25-2.188 0.75-0.188 0.125-0.563 0.5-0.75 0.75-0.25 0.375-0.5 0.813-0.688 1.188-0.125 0.313-0.063 0.5 0.063 0.688 0.188 0.125 0.25 0.188 0.5 0.188 0.125 0 0.125 0 0.188-0.063 0.188-0.063 0.25-0.125 0.375-0.313 0.375-0.938 0.938-1.563 1.625-1.813 0.313-0.125 0.625-0.188 1.125-0.25 0.25 0 0.375 0 0.438 0 0.125-0.063 0.25-0.188 0.313-0.313 0.063-0.063 0.063-0.125 0.063-0.25s0-0.188-0.063-0.25-0.188-0.25-0.313-0.313c-0.125-0.063-0.375-0.063-0.688 0z"></path>
</svg>
