<?xml version="1.0" standalone="no"?>
<!DOCTYPE svg PUBLIC "-//W3C//DTD SVG 20010904//EN"
 "http://www.w3.org/TR/2001/REC-SVG-20010904/DTD/svg10.dtd">
<svg version="1.0" xmlns="http://www.w3.org/2000/svg"
 width="234.000000pt" height="220.000000pt" viewBox="0 0 234.000000 220.000000"
 preserveAspectRatio="xMidYMid meet">

<g transform="translate(0.000000,220.000000) scale(0.100000,-0.100000)"
fill="#000000" stroke="none">
<path d="M1390 1874 c-6 -14 -10 -43 -10 -65 0 -66 -30 -43 -49 38 l-9 38 -1
-33 c-1 -37 25 -94 64 -140 l26 -31 -41 -45 c-25 -27 -54 -48 -73 -52 -18 -4
-135 -7 -262 -8 l-230 -1 -42 -28 c-64 -41 -78 -68 -63 -120 7 -23 14 -61 17
-85 5 -38 2 -45 -30 -75 -28 -26 -38 -46 -53 -109 -10 -43 -22 -78 -28 -78 -6
0 -59 -24 -118 -54 l-108 -54 0 58 0 58 34 6 c47 9 92 54 106 104 15 56 4 152
-26 223 -13 31 -31 87 -40 125 -23 91 -71 144 -131 144 -42 0 -84 -25 -103
-60 -6 -10 -17 -51 -25 -91 -9 -40 -29 -97 -46 -126 -44 -77 -50 -153 -17
-225 21 -45 34 -59 70 -77 24 -11 54 -21 66 -21 21 0 22 -4 22 -94 l0 -94 -54
-42 c-30 -23 -73 -61 -95 -86 l-41 -44 0 -225 c0 -137 4 -234 10 -246 10 -18
23 -19 185 -19 101 0 176 4 180 10 3 5 15 47 26 92 33 130 89 229 183 324 86
85 130 114 236 154 58 22 80 25 200 25 123 -1 141 -3 204 -28 90 -35 194 -105
251 -169 77 -86 143 -220 165 -337 6 -30 16 -59 23 -63 6 -4 100 -8 208 -8
177 0 197 2 212 18 15 16 17 48 17 238 l0 220 -30 40 c-17 21 -64 64 -105 94
l-76 54 3 135 3 135 37 8 c54 11 109 49 143 98 24 35 30 55 33 110 5 78 -6
119 -53 199 -18 31 -36 75 -40 98 -4 23 -19 62 -35 87 -89 139 -260 84 -294
-94 -3 -19 -26 -66 -51 -103 -48 -74 -62 -129 -51 -201 13 -87 97 -179 178
-195 l33 -7 3 -107 c1 -59 0 -107 -3 -107 -3 0 -28 11 -56 25 -128 65 -326
125 -489 148 l-85 12 -8 63 c-10 72 -5 92 22 92 12 0 52 42 116 123 l98 122
45 0 c33 0 48 5 56 18 9 16 5 23 -23 47 -34 29 -37 44 -16 94 7 16 5 18 -8 13
-9 -4 -24 -10 -32 -13 -8 -3 -15 -2 -15 3 0 13 39 30 87 39 45 8 63 20 62 43
0 10 -2 11 -6 4 -2 -7 -13 -13 -23 -13 -13 0 -17 6 -14 23 3 17 1 16 -8 -5
-20 -48 -38 -34 -40 30 -1 53 -1 54 -7 17 -9 -57 -35 -58 -55 -3 l-15 43 2
-50 c2 -41 -1 -50 -17 -53 -16 -4 -18 0 -13 29 l6 34 -20 -37 c-11 -21 -24
-38 -29 -38 -16 0 -23 48 -12 90 11 45 7 53 -8 14z m141 -107 c-8 -8 -11 -7
-11 4 0 9 3 19 7 23 4 4 9 2 11 -4 3 -7 -1 -17 -7 -23z m-31 -12 c0 -8 -4 -15
-10 -15 -5 0 -10 7 -10 15 0 8 5 15 10 15 6 0 10 -7 10 -15z m-30 -25 c0 -19
-5 -30 -14 -30 -20 0 -32 40 -15 51 23 15 29 10 29 -21z m-50 0 c0 -5 -4 -10
-10 -10 -5 0 -10 5 -10 10 0 6 5 10 10 10 6 0 10 -4 10 -10z m-272 -429 c8 -1
12 -23 12 -76 l0 -75 -112 0 c-62 0 -130 -3 -150 -6 -35 -6 -38 -5 -38 16 0
13 16 51 36 84 l35 61 102 -2 c56 -1 108 -2 115 -2z m-338 -65 c-19 -32 -20
-37 -7 -69 l15 -34 -57 -11 c-31 -6 -66 -14 -78 -18 -57 -16 -9 69 77 137 68
54 86 52 50 -5z m430 -68 c0 -12 -7 -18 -21 -18 -15 0 -19 4 -15 16 3 9 6 25
6 37 1 22 1 22 15 3 8 -11 15 -28 15 -38z"/>
</g>
</svg>
