<!-- Generated by IcoMoon.io -->
<svg version="1.1" xmlns="http://www.w3.org/2000/svg" width="32" height="32" viewBox="0 0 32 32">
<title>Common-eland</title>
<path d="M22 4.75c0 0.125 0.313 0.5 0.688 0.875 0.438 0.438 0.75 0.875 0.813 0.938 0 0.125 0.125 0.188 0.188 0.188s0.188 0.125 0.25 0.25c0.063 0.125 0.188 0.188 0.25 0.188 0.25 0 0.938 0.563 1.438 1.125 0.5 0.625 0.563 0.625 0.375 0.813-0.375 0.25-2.5 0.875-3.313 1-0.875 0.125-1.25 0.063-2.25-0.438-0.75-0.375-0.813-0.375-2-0.375h-1.25l-1.75 1h-3.25c-2.625 0.063-3.438 0-4.188-0.125-0.875-0.188-1.125-0.125-1.375 0.188-0.063 0.125-0.25 0.188-0.313 0.188-0.125 0-0.5 0.125-0.875 0.313-1.625 0.688-2.25 1.563-1.563 2.125 0.313 0.25 0.563 1.188 0.563 2.125 0 0.438 0.063 0.688 0.188 0.813 0.063 0.063 0.125 0.313 0.125 0.5s0.063 0.5 0.188 0.688c0.063 0.313 0.063 0.438 0 0.438-0.25 0.063-0.188 0.25 0 0.25s0.188 0.188 0 0.75c-0.188 0.563-0.438 0.938-1.063 1.563l-0.375 0.438v1c0 1.125-0.125 1.75-0.375 1.938-0.125 0.063-0.125 0.125 0 0.125 0.063 0.063 0.125 0.125 0.125 0.25 0 0.063-0.063 0.125-0.125 0.125-0.125 0-0.125 0.063 0 0.125s0.125 0.188 0.063 0.438c-0.125 0.75-0.125 1.188 0.125 1.375 0.313 0.25 0.313 0.313 0 0.375-0.25 0.063-0.25 0.063 0.063 0.25 0.188 0.063 0.375 0.188 0.5 0.313 0.188 0.188 0.625 0.25 0.5 0.063 0-0.063 0-0.125 0.063-0.125 0.188 0 0.063-0.563-0.125-0.625-0.25-0.188-0.125-1.813 0.125-2 0.063 0 0.125-0.313 0.125-0.688 0-0.5 0.063-0.75 0.375-1.125 0.188-0.25 0.313-0.5 0.375-0.563 0.063 0 0.125-0.188 0.188-0.375 0.125-0.125 0.313-0.375 0.5-0.438 0.125-0.125 0.375-0.375 0.438-0.563 0.125-0.188 0.25-0.313 0.375-0.25 0.063 0 0.125-0.063 0.125-0.125s0.125-0.313 0.313-0.5c0.188-0.188 0.375-0.375 0.375-0.5 0.063-0.188 0.438 0.75 0.375 1.188 0 0.25 0 0.438 0 0.5 0 0 0.063 0.313 0.063 0.625 0 0.375 0.125 0.688 0.25 0.875 0.188 0.25 0.188 0.313 0.125 0.375-0.063 0-0.063 0.063 0.125 0.063s0.188 0.063 0.188 0.313c0 0.188 0.063 0.25 0.25 0.188s0.438 0.188 0.375 0.438c-0.063 0.063 0 0.188 0.063 0.188s0.125 0.063 0.125 0.188c0 0.25 0.188 0.563 0.438 0.563 0.063 0 0.063-0.063 0-0.125-0.063-0.125-0.125-0.188-0.125-0.25 0-0.125 0.625 0.688 0.688 0.938 0.063 0.125 0.188 0.313 0.313 0.5 0.188 0.125 0.25 0.313 0.25 0.375-0.063 0.125 0 0.188 0.125 0.188 0.063 0 0.125 0.063 0.125 0.188 0 0.188 0.063 0.25 0.25 0.188 0.188 0 0.313 0 0.375 0.125s0.188 0.125 0.375 0.063c0.188 0 0.313-0.125 0.25-0.125 0-0.063 0-0.188 0.063-0.313 0.125-0.188 0.125-0.25-0.063-0.438-0.375-0.438-0.563-0.688-0.563-0.938 0-0.063-0.125-0.188-0.25-0.25-0.125-0.125-0.188-0.25-0.188-0.313s-0.063-0.188-0.125-0.188c-0.125-0.063-0.125-0.063 0-0.063 0.063 0 0.125-0.063 0.125-0.125s-0.063-0.063-0.125-0.063c-0.063 0.063-0.125 0-0.125-0.063 0-0.25-0.188-0.25-0.25-0.063-0.063 0.063-0.063 0.063-0.063 0s0.063-0.188 0.188-0.25 0.188-0.313-0.125-0.188c-0.125 0.063-0.188 0.063-0.125 0 0-0.063 0-0.125-0.125-0.188-0.375-0.125-0.5-0.688-0.313-1.25 0.188-0.5 0.125-0.625-0.063-0.438-0.125 0.063-0.188 0.063-0.25 0.063 0-0.063-0.063-0.813-0.063-1.688 0-1.063 0.063-1.5 0.125-1.438s0.125 0.25 0.188 0.438c0.063 0.375 0.125 0.5 0.125 0.188 0-0.125 0.188-0.188 1.25-0.188 1.5 0 2.625-0.125 2.75-0.313 0.125-0.125 0.125-0.125 0.188 0 0.063 0.063 0.188 0.125 0.313 0.063 0.313-0.063 1.375 0.5 1.563 0.875 0.188 0.438 0.375 2.813 0.188 3.25-0.188 0.375-1.313 1.438-1.563 1.438-0.063 0-0.313 0.25-0.563 0.563-0.438 0.438-0.438 0.5-0.375 0.938 0.063 0.25 0.063 0.438 0.125 0.5 0.063 0.125 0.563 0.125 0.563-0.063 0-0.063 0.125-0.188 0.25-0.25 0.625-0.125 1.063-0.438 1.063-0.688 0-0.063 0.125-0.25 0.25-0.375 0.188-0.125 0.375-0.438 0.5-0.688 0.188-0.375 0.25-0.438 0.438-0.438 0.125 0.063 0.188 0.063 0.188 0-0.063-0.125 0.25-0.375 0.5-0.5 0.188-0.063 0.25-0.125 0.188-0.313 0-0.125 0.063-0.375 0.125-0.5 0.125-0.188 0.188-0.5 0.188-0.75 0-0.188 0-0.5 0.063-0.563s0.125-0.313 0.125-0.5c0-0.25 0.125-0.625 0.188-0.875l0.25-0.5 0.125 0.375c0.063 0.25 0.125 0.375 0.375 0.438 0.438 0.063 1.375-0.25 1.688-0.5s1.063-0.625 1.375-0.625c0.063 0 0.188 0.125 0.313 0.188 0.188 0.125 0.188 0.188 0.063 0.313-0.188 0.25-0.063 0.313 0.188 0.188 0.188-0.125 0.25-0.125 0.375 0.063 0.188 0.125 0.25 0.188 0.75 0.125 0.875-0.125 1.125-0.375 1.313-1.188 0.063-0.188 0.125-0.313 0.188-0.25 0.063 0 0.063-0.25 0.063-0.563 0-0.375 0.063-0.75 0.125-0.938s0.125-0.438 0.125-0.563c0-0.125 0.063-0.25 0.125-0.25 0 0 0.063-0.125 0-0.313 0-0.125 0.188-0.563 0.563-1.25 0.563-1 0.625-1.063 1.063-1.125 0.563-0.063 1.563 0 2.125 0.25 0.438 0.188 0.5 0.125 0.813-0.063 0.438-0.313 0.5-0.625 0.188-1.188-0.188-0.25-0.313-0.5-0.313-0.563s0-0.125-0.063-0.125c-0.063 0-0.188-0.125-0.25-0.313s-0.25-0.5-0.375-0.688c-0.188-0.25-0.313-0.563-0.375-0.75 0-0.188-0.125-0.438-0.25-0.625-0.125-0.125-0.188-0.375-0.188-0.5 0-0.313-0.063-0.313-0.375-0.125-0.125 0.063-0.25 0.063-0.438-0.063-0.125-0.125-0.313-0.188-0.438-0.188-0.313 0-1.438-0.938-1.625-1.25 0-0.125-0.188-0.313-0.438-0.375-0.313-0.188-0.875-0.625-1.313-1.063-0.125-0.125-0.313-0.25-0.375-0.25s-0.125 0-0.125-0.063c0-0.063-0.063-0.125-0.188-0.188-0.125 0-0.25-0.125-0.313-0.25 0-0.125-0.125-0.188-0.375-0.188s-0.438 0-0.438 0c0 0 0.188 0.188 0.375 0.438 0.313 0.375 0.375 0.625 0.063 0.375-0.063-0.063-0.375-0.313-0.688-0.563-0.5-0.438-0.813-0.5-0.813-0.25zM20 20.625c-0.188 0.25-0.188 0.5-0.188 1.75 0 1.125 0 1.5 0.125 1.688 0.125 0.125 0.125 0.5 0.125 1.375 0 1.063 0 1.188 0.125 1.125s0.25 0 0.25 0.063c0.063 0.125 0.125 0.188 0.188 0.063 0.188-0.125 0.938-0.438 0.938-0.375s-0.125 0.125-0.313 0.25c-0.25 0.188-0.25 0.188 0 0.063 0.125 0 0.438-0.063 0.563-0.063h0.313l-0.188-0.188c-0.125-0.063-0.25-0.188-0.188-0.25s0-0.125-0.125-0.25c-0.125-0.188-0.5-1-0.5-1.25 0-0.063 0.188-0.125 0.313-0.25 0.375-0.188 0.438-0.125 0.188 0.188-0.063 0.063-0.188 0.125-0.25 0.125-0.188-0.063-0.188-0.063 0 0.063 0.125 0.063 0.188 0 0.438-0.25 0.188-0.188 0.313-0.375 0.313-0.438s-0.25 0-0.5 0.125c-0.25 0.125-0.25 0.125-0.25 0s0.063-0.188 0.125-0.188c0.063 0 0.063-0.063-0.063-0.125s-0.125-0.063 0-0.063 0.125-0.063 0.125-0.125c-0.188-0.125-0.438 0.25-0.375 0.5 0 0.125 0 0.25-0.063 0.25 0 0-0.125-0.188-0.125-0.438-0.125-0.625-0.125-0.75 0.063-0.688s0.313-0.5 0.188-0.625c-0.063 0-0.063-0.125 0-0.188 0.063-0.125 0-1.75-0.063-2.063 0-0.063-0.25-0.125-0.5-0.125-0.438 0-0.563 0.063-0.688 0.313z"></path>
</svg>
