<!-- Generated by IcoMoon.io -->
<svg version="1.1" xmlns="http://www.w3.org/2000/svg" width="32" height="32" viewBox="0 0 32 32">
<title>Electricity</title>
<path d="M10.875 28.375c-0.063-0.063 0.313-1.063 1.125-3 0.813-1.875 1.688-3.875 2.5-5.813 0.875-1.938 1.313-3 1.25-3.125s-1.063-0.625-3-1.438c-2-0.813-3-1.438-3.125-1.75-0.125-0.25 0.813-1.563 2.688-3.875s3.75-4.5 5.75-6.688c1.938-2.125 3-3.188 3.063-3.063 0.125 0.063-0.688 2.063-2.375 5.938s-2.563 5.875-2.5 5.938c0.063 0.063 1.063 0.563 3.063 1.375 1.938 0.813 3 1.438 3.063 1.813 0.125 0.438-1.75 2.875-5.563 7.25-3.75 4.438-5.75 6.563-5.938 6.438"></path>
</svg>
