<!-- Generated by IcoMoon.io -->
<svg version="1.1" xmlns="http://www.w3.org/2000/svg" width="32" height="32" viewBox="0 0 32 32">
<title>Elephant</title>
<path d="M27.75 6.875c0 0.063 0.063 0.813 0.125 2.313 0.125 1.438 0.25 3 0.313 4.625 0.063 1.563 0.063 3.375 0 5.438-0.125 2.063-0.313 3.875-0.625 5.5-0.313 1.563-0.875 2.938-1.625 4-0.813 1.125-1.75 1.625-2.938 1.625-3.25 0-5.375-0.25-6.188-0.813-0.563-0.438-0.75-1.813-0.563-4.125 0-0.875 0.438-1.5 1.188-1.938 0.688-0.375 1.438-0.563 2.188-0.563 0 0 1.063 0.063 1.063 0.063s-0.125 2.188-0.125 2.188c-0.25 0.063-0.625 0.063-1.188 0.063-0.438 0-0.688 0.313-0.813 0.875-0.063 0.813 0.375 1.25 1.313 1.313 0 0 2.75-0.125 2.75-0.125 0.813-0.063 1.125-1.5 0.875-4.313 0-0.375-0.188-0.625-0.563-0.875-0.313-0.188-0.688-0.313-1.063-0.375s-0.938-0.188-1.563-0.25c-0.688-0.125-1.188-0.25-1.5-0.313-0.625-0.188-1.125-0.5-1.5-0.875-0.375-0.438-0.688-0.875-0.875-1.188-0.188-0.375-0.313-0.563-0.313-0.563-0.063 0-0.188 0.625-0.313 1.875-0.125 1.188-0.438 1.813-0.938 1.813-0.938 0-2.438-0.125-4.438-0.438-2.063-0.313-3.25-0.688-3.688-1.125-0.75-0.75-1.375-2.313-2-4.813-0.563-2.438-0.875-4.063-0.875-4.813 0-0.688 0.625-1.063 1.875-0.938 0 0 3.688 0 3.688 0 1.688 0 2.5-0.75 2.5-2.313 0-0.25 0-0.813-0.063-1.688 0-0.813 0-1.5 0-1.875 0-1.75 0.438-2.625 1.25-2.625 1.938 0 3.25 0.125 3.875 0.438 0.375 0.188 0.688 0.438 0.938 0.813 0.188 0.375 0.375 0.75 0.375 1.063 0 0 0.125 0.5 0.125 0.5s6.5 0.375 6.5 0.375c0.188 0 0.5 0 0.813 0.063s0.688 0.313 1.25 0.625c0.5 0.375 0.75 0.813 0.75 1.375M24.688 16.5c0.125-0.125 0.063-0.438-0.063-1-0.188-0.563-0.5-1.125-0.938-1.688s-1-0.813-1.563-0.813c-0.625 0-1.063 0.25-1.438 0.75s-0.625 0.938-0.688 1.438c-0.063 0.5-0.063 0.813 0 0.938 0.188 0.125 0.313 0.188 0.5 0.188 0.125-0.063 0.438-0.125 0.813-0.188s0.75-0.125 1-0.125c0.313 0 0.625 0.063 1 0.188s0.625 0.25 0.875 0.313c0.25 0.125 0.375 0.125 0.5 0M9.25 6.625c0 0.5-0.313 0.75-0.875 0.75 0 0-4.625 0-4.625 0s5.625-5.5 5.625-5.5c-0.063 2.938-0.125 4.5-0.125 4.75"></path>
</svg>
