<?xml version="1.0" standalone="no"?>
<!DOCTYPE svg PUBLIC "-//W3C//DTD SVG 20010904//EN"
 "http://www.w3.org/TR/2001/REC-SVG-20010904/DTD/svg10.dtd">
<svg version="1.0" xmlns="http://www.w3.org/2000/svg"
 width="618.000000pt" height="614.000000pt" viewBox="0 0 618.000000 614.000000"
 preserveAspectRatio="xMidYMid meet">

<g transform="translate(0.000000,614.000000) scale(0.100000,-0.100000)"
fill="#000000" stroke="none">
<path d="M2285 5923 c-228 -28 -506 -132 -674 -250 -97 -68 -207 -184 -283
-298 -92 -138 -101 -161 -96 -264 4 -107 38 -184 124 -285 101 -117 210 -166
369 -166 165 1 313 43 634 182 320 138 321 139 437 250 128 123 158 165 214
293 55 127 60 200 18 281 -53 101 -213 210 -364 248 -58 15 -290 20 -379 9z"/>
<path d="M3692 5810 c-108 -9 -184 -35 -262 -89 -108 -74 -155 -191 -155 -386
1 -120 21 -185 91 -287 59 -87 207 -228 309 -293 127 -83 352 -196 434 -220
42 -12 116 -34 165 -49 247 -73 486 13 576 207 65 139 62 294 -9 442 -47 100
-168 261 -257 345 -127 118 -341 242 -529 306 -91 30 -205 38 -363 24z"/>
<path d="M2996 4965 c-22 -7 -52 -23 -68 -35 -167 -123 -436 -245 -1112 -501
-58 -22 -95 -43 -107 -59 -12 -16 -32 -101 -58 -246 -22 -121 -52 -253 -66
-293 -63 -175 -262 -572 -362 -724 -44 -67 -238 -252 -412 -394 -159 -130
-190 -171 -228 -304 -15 -53 -18 -100 -17 -269 0 -183 3 -219 27 -333 108
-508 393 -950 747 -1156 444 -259 701 -362 1101 -440 250 -49 398 -63 714 -68
514 -9 715 22 970 149 186 93 316 191 486 365 218 223 395 484 560 827 84 177
117 271 173 497 69 276 83 372 68 461 -23 135 -54 184 -226 352 -160 158 -209
222 -296 388 -85 163 -149 338 -235 650 -63 228 -89 299 -113 320 -9 8 -42 23
-72 32 -70 22 -397 173 -603 279 -127 65 -193 107 -335 215 -196 149 -341 252
-387 275 -47 23 -105 28 -149 12z"/>
<path d="M745 4636 c-191 -74 -259 -133 -335 -291 -107 -223 -145 -368 -171
-653 -14 -159 -7 -314 26 -512 31 -188 51 -229 134 -272 40 -21 67 -28 110
-28 64 0 219 30 271 52 80 34 225 182 338 346 105 153 277 519 314 671 30 123
30 312 0 395 -46 126 -114 200 -233 256 -137 64 -340 80 -454 36z"/>
<path d="M5060 4469 c-76 -14 -211 -71 -240 -101 -19 -19 -31 -43 -35 -73 -13
-80 42 -416 101 -628 46 -165 104 -297 192 -432 108 -168 185 -243 361 -349
76 -45 102 -56 138 -56 80 0 133 20 184 69 39 38 51 59 72 127 65 207 68 287
21 614 -30 215 -42 259 -107 384 -172 336 -419 497 -687 445z"/>
</g>
</svg>
