<svg xmlns="http://www.w3.org/2000/svg" xmlns:xlink="http://www.w3.org/1999/xlink" version="1.1" x="0px" y="0px" viewBox="0 0 200 250" style="enable-background:new 0 0 200 200;" xml:space="preserve"><g><path d="M67,98c17.1,0,31-13.9,31-31S84.1,36,67,36S36,49.9,36,67S49.9,98,67,98z M67,40c14.9,0,27,12.1,27,27S81.9,94,67,94   S40,81.9,40,67S52.1,40,67,40z"/><path d="M124,152c6.1,0,11-4.9,11-11s-4.9-11-11-11s-11,4.9-11,11S117.9,152,124,152z M124,134c3.9,0,7,3.1,7,7s-3.1,7-7,7   s-7-3.1-7-7S120.1,134,124,134z"/><path d="M54.6,79.4C55,79.8,55.5,80,56,80s1-0.2,1.4-0.6l9.6-9.6l9.6,9.6C77,79.8,77.5,80,78,80s1-0.2,1.4-0.6c0.8-0.8,0.8-2,0-2.8   L69.8,67l9.6-9.6c0.8-0.8,0.8-2,0-2.8s-2-0.8-2.8,0L67,64.2l-9.6-9.6c-0.8-0.8-2-0.8-2.8,0s-0.8,2,0,2.8l9.6,9.6l-9.6,9.6   C53.8,77.4,53.8,78.6,54.6,79.4z"/><path d="M109.4,112.6c1.1-3.4,4.1-5.6,7.6-5.6h45c1.1,0,2-0.9,2-2s-0.9-2-2-2h-23V65h11.3c3.2,0,6.1,1.9,7.4,4.9l2.4,5.8   c0.4,1,1.6,1.5,2.6,1.1s1.5-1.6,1.1-2.6l-2.4-5.8c-1.9-4.5-6.2-7.4-11.1-7.4H133c-6.6,0-12,5.4-12,12v30h-4c-4.8,0-9,2.8-10.9,7H55   c-6.1,0-11,4.9-11,11v2.4c-1.4,2.1-6,9.7-6,19.6c0,11.5,6.1,19.9,6.4,20.2c0.4,0.5,1,0.8,1.6,0.8c0.4,0,0.8-0.1,1.2-0.4   c0.9-0.7,1.1-1.9,0.4-2.8c-0.1-0.1-5.6-7.6-5.6-17.8s5.5-17.7,5.6-17.8c0.3-0.3,0.4-0.8,0.4-1.2v-3c0-3.9,3.1-7,7-7h50   c0,0.3,0,0.7,0,1v7H56c-1.1,0-2,0.9-2,2s0.9,2,2,2h6.4c-1.9,3.5-4.4,9.6-4.4,17c0,11.5,6.1,19.9,6.4,20.2c0.4,0.5,1,0.8,1.6,0.8   c0.4,0,0.8-0.1,1.2-0.4c0.9-0.7,1.1-1.9,0.4-2.8c-0.1-0.1-5.6-7.6-5.6-17.8c0-8.3,3.7-14.8,5.1-17h15.4c-1.9,3.5-4.4,9.6-4.4,17   c0,11.5,6.1,19.9,6.4,20.2c0.4,0.5,1,0.8,1.6,0.8c0.4,0,0.8-0.1,1.2-0.4c0.9-0.7,1.1-1.9,0.4-2.8c-0.1-0.1-5.6-7.6-5.6-17.8   c0-8.3,3.7-14.8,5.1-17H105v2.1c-2.5,3.7-4,8.1-4,12.9c0,12.7,10.3,23,23,23c12,0,21.9-9.3,22.9-21H162c1.1,0,2-0.9,2-2s-0.9-2-2-2   h-15.1c-1-11.7-10.9-21-22.9-21c-5.7,0-11,2.1-15,5.6V115C109,114.2,109.1,113.4,109.4,112.6z M125,73c0-4.4,3.6-8,8-8h2v38h-10V73   z M124,122c10.5,0,19,8.5,19,19s-8.5,19-19,19s-19-8.5-19-19S113.5,122,124,122z"/></g><text x="0" y="215" fill="#000000" font-size="5px" font-weight="bold" font-family="'Helvetica Neue', Helvetica, Arial-Unicode, Arial, Sans-serif">Created by bsd studio</text><text x="0" y="220" fill="#000000" font-size="5px" font-weight="bold" font-family="'Helvetica Neue', Helvetica, Arial-Unicode, Arial, Sans-serif">from the Noun Project</text></svg>