<!-- Generated by IcoMoon.io -->
<svg version="1.1" xmlns="http://www.w3.org/2000/svg" width="26" height="32" viewBox="0 0 26 32">
<title>Entry</title>
<path d="M15.246 13.333h-12.579c-0.295 0-0.533-0.239-0.533-0.533s0.239-0.533 0.533-0.533v0h12.579l-3.012-3.012c-0.094-0.096-0.152-0.228-0.152-0.373 0-0.295 0.239-0.533 0.533-0.533 0.145 0 0.277 0.058 0.373 0.152l3.922 3.922c0.097 0.097 0.156 0.23 0.156 0.377s-0.060 0.281-0.156 0.377l-3.922 3.922c-0.097 0.099-0.232 0.16-0.381 0.16-0.295 0-0.533-0.239-0.533-0.533 0-0.149 0.061-0.284 0.16-0.381l0-0zM17.067 4.267h-5.333c-1.767 0-3.2 1.433-3.2 3.2v0 1.6c0 0.295 0.239 0.533 0.533 0.533s0.533-0.239 0.533-0.533v0-1.6c0.001-1.178 0.956-2.132 2.133-2.133h5.333c1.178 0.001 2.132 0.956 2.133 2.133v10.667c-0.001 1.178-0.956 2.132-2.133 2.133h-5.333c-1.178-0.001-2.132-0.956-2.133-2.133v-1.601c0-0.295-0.239-0.533-0.533-0.533s-0.533 0.239-0.533 0.533v0 1.601c0 1.767 1.433 3.2 3.2 3.2v0h5.333c1.767 0 3.2-1.433 3.2-3.2v0-10.667c0-1.767-1.433-3.2-3.2-3.2v0z"></path>
</svg>
