<?xml version="1.0" standalone="no"?>
<!DOCTYPE svg PUBLIC "-//W3C//DTD SVG 20010904//EN"
 "http://www.w3.org/TR/2001/REC-SVG-20010904/DTD/svg10.dtd">
<svg version="1.0" xmlns="http://www.w3.org/2000/svg"
 width="1024.000000pt" height="1024.000000pt" viewBox="0 0 1024.000000 1024.000000"
 preserveAspectRatio="xMidYMid meet">

<g transform="translate(0.000000,1024.000000) scale(0.100000,-0.100000)"
fill="#000000" stroke="none">
<path d="M4241 10009 c-312 -35 -588 -121 -1261 -392 -601 -242 -869 -319
-1165 -334 -66 -3 -131 -11 -145 -18 -83 -42 -93 -153 -18 -207 28 -20 39 -21
172 -15 318 13 618 97 1248 350 594 239 814 313 1073 358 178 31 427 31 600 0
266 -47 465 -113 1035 -341 448 -179 624 -242 825 -293 215 -55 305 -68 501
-74 424 -13 690 56 1544 400 532 214 816 301 1059 323 l71 7 0 -4452 c0 -3960
2 -4455 15 -4481 35 -68 132 -78 189 -21 l31 31 0 4550 0 4550 -33 32 -33 33
-122 -1 c-300 -3 -644 -95 -1213 -325 -642 -259 -859 -332 -1144 -385 -147
-28 -457 -26 -615 4 -261 49 -434 107 -1005 334 -585 234 -796 302 -1074 349
-140 23 -408 33 -535 18z"/>
<path d="M220 5060 l0 -4840 4838 1 c2708 0 4826 4 4812 9 -14 5 -245 81 -515
170 -467 153 -492 162 -540 203 -27 24 -179 147 -337 274 l-286 231 -484 51
c-265 28 -500 54 -521 57 -34 5 -76 48 -542 563 l-506 556 -197 95 c-108 52
-309 149 -447 216 l-250 121 -136 712 c-131 688 -137 713 -165 742 -16 17
-170 164 -341 327 -172 162 -313 296 -313 297 0 19 -443 1271 -452 1276 -7 5
-151 93 -320 196 l-308 188 -255 766 -256 767 -62 16 c-304 76 -1140 295
-1143 299 -3 3 -118 261 -257 573 l-252 569 -265 140 c-146 77 -318 169 -382
203 l-118 62 0 -4840z m500 3475 c28 -15 56 -57 142 -212 33 -61 39 -79 34
-109 -16 -84 -112 -130 -181 -86 -37 23 -175 263 -175 305 0 89 98 145 180
102z m1708 -1330 c24 -26 32 -44 32 -72 0 -71 -22 -90 -227 -202 l-190 -103
-8 -166 c-8 -184 -15 -208 -67 -235 -51 -26 -423 -127 -468 -127 -58 0 -100
40 -107 103 -6 51 9 85 51 112 13 9 95 36 181 60 86 24 159 46 162 48 2 3 7
77 11 165 7 152 9 163 32 187 21 22 370 219 462 261 49 22 97 11 136 -31z
m-1291 -1366 c35 -11 98 -75 113 -115 30 -79 -5 -188 -77 -238 -133 -93 -312
3 -313 167 0 61 18 103 63 146 57 54 125 66 214 40z m2203 -94 c36 -19 60 -62
60 -110 0 -26 -8 -44 -32 -70 -31 -32 -48 -39 -242 -91 -227 -60 -249 -63
-295 -44 -82 33 -87 167 -8 209 34 18 417 119 455 120 18 1 46 -6 62 -14z
m-783 -1150 c125 -14 241 -31 257 -37 60 -24 84 -113 47 -174 -35 -57 -57 -60
-294 -35 -117 13 -219 24 -227 26 -9 2 -94 -73 -208 -183 l-193 -187 111 -145
c61 -80 121 -154 133 -166 12 -12 176 -88 365 -169 240 -104 349 -156 363
-173 62 -80 9 -192 -91 -192 -23 0 -161 55 -410 163 l-375 162 -313 405 c-172
223 -316 411 -320 418 -7 11 -60 6 -275 -27 -147 -23 -281 -41 -297 -41 -69 0
-120 53 -120 125 0 26 9 45 33 71 l33 36 333 50 c257 40 341 49 369 42 32 -8
52 -29 149 -154 62 -80 125 -160 140 -177 l28 -33 195 190 c107 105 209 200
225 210 39 26 67 25 342 -5z m1610 -1726 c34 -112 62 -212 62 -222 1 -14 -228
-384 -259 -420 -6 -7 -427 145 -441 160 -11 12 -99 235 -99 251 0 10 152 314
174 349 3 4 482 91 491 89 5 -2 38 -95 72 -207z m-2965 -332 c61 -33 92 -88
96 -166 3 -81 -20 -129 -86 -176 -39 -26 -52 -30 -112 -30 -60 0 -74 4 -111
30 -78 55 -111 163 -76 248 17 40 88 105 124 113 16 3 33 7 38 9 21 8 91 -8
127 -28z m2250 -843 c756 -252 718 -234 718 -329 0 -40 -5 -52 -34 -81 -27
-27 -42 -34 -73 -34 -23 0 -278 80 -653 205 l-614 205 -31 -29 c-280 -261
-639 -582 -657 -586 -13 -3 -144 -5 -291 -3 l-269 3 -29 33 c-23 26 -29 41
-29 80 0 27 7 57 16 70 33 48 58 52 296 52 l223 0 339 311 c320 294 360 327
396 328 8 1 320 -101 692 -225z m3160 -563 c56 -39 82 -85 86 -156 3 -48 0
-70 -17 -102 -75 -148 -281 -150 -358 -4 -52 100 -12 220 92 276 45 24 152 17
197 -14z"/>
<path d="M4350 8237 c-227 -64 -311 -352 -154 -526 26 -29 69 -62 102 -78 49
-24 69 -28 142 -28 103 1 161 25 232 97 64 66 91 139 86 238 -4 89 -32 154
-91 213 -78 78 -213 114 -317 84z"/>
<path d="M5288 6487 l-348 -302 0 -366 c0 -201 -3 -386 -6 -411 l-6 -44 239
-195 239 -196 191 95 191 96 393 -89 394 -88 183 189 c101 104 236 245 301
314 l119 125 -329 479 c-181 264 -334 483 -341 487 -19 10 -833 209 -855 209
-10 -1 -174 -137 -365 -303z"/>
<path d="M7985 4406 c-72 -32 -118 -105 -118 -187 0 -111 75 -190 187 -197 77
-4 137 24 181 87 26 37 30 51 30 111 0 60 -4 74 -30 111 -55 78 -167 112 -250
75z"/>
<path d="M6535 3616 c-97 -45 -150 -107 -180 -211 -41 -139 30 -294 168 -367
35 -19 58 -23 137 -23 84 0 101 3 146 27 141 74 208 245 154 393 -29 78 -114
164 -185 188 -73 25 -178 22 -240 -7z"/>
<path d="M8937 2430 c-170 -31 -312 -61 -317 -66 -15 -16 -230 -440 -230 -455
0 -8 29 -86 64 -174 l64 -160 283 -107 c156 -59 287 -107 291 -108 6 0 345
520 354 544 3 7 -34 139 -81 294 -47 156 -85 285 -85 288 0 8 -32 2 -343 -56z"/>
</g>
</svg>
