<?xml version="1.0" standalone="no"?>
<!DOCTYPE svg PUBLIC "-//W3C//DTD SVG 20010904//EN"
 "http://www.w3.org/TR/2001/REC-SVG-20010904/DTD/svg10.dtd">
<svg version="1.0" xmlns="http://www.w3.org/2000/svg"
 width="500.000000pt" height="500.000000pt" viewBox="0 0 500.000000 500.000000"
 preserveAspectRatio="xMidYMid meet">

<g transform="translate(0.000000,500.000000) scale(0.100000,-0.100000)"
fill="#000000" stroke="none">
<path d="M3156 3744 c-9 -8 -16 -18 -16 -21 0 -3 23 -27 51 -53 l51 -46 -96
-113 c-53 -62 -96 -117 -96 -121 0 -7 56 -56 271 -237 14 -12 28 0 114 102 53
63 99 115 102 115 3 0 26 -16 49 -36 28 -22 52 -34 66 -32 54 7 29 36 -209
238 -131 111 -246 206 -255 211 -12 6 -21 4 -32 -7z"/>
<path d="M2747 3463 c-4 -3 -7 -18 -7 -32 0 -18 17 -41 62 -83 l61 -57 -36
-43 c-19 -24 -49 -59 -66 -80 l-31 -36 71 -63 c62 -55 69 -64 55 -77 -13 -14
-23 -9 -84 41 -38 32 -71 57 -74 57 -2 0 -29 -30 -58 -66 l-54 -67 69 -63 c62
-56 68 -65 55 -78 -13 -14 -22 -9 -85 45 l-70 60 -43 -48 c-79 -87 -79 -87
-36 -125 94 -81 97 -85 91 -101 -10 -26 -20 -21 -90 38 -35 30 -67 55 -70 55
-3 0 -31 -30 -63 -66 l-58 -65 49 -42 c100 -85 96 -80 81 -100 -13 -17 -19
-14 -86 44 -39 34 -75 57 -79 53 -67 -79 -101 -123 -101 -131 0 -5 29 -33 65
-63 36 -30 65 -57 65 -61 0 -3 -6 -12 -14 -18 -11 -9 -27 -1 -79 44 -36 30
-70 55 -75 55 -8 0 -112 -122 -112 -133 0 -3 29 -29 65 -58 65 -53 78 -75 50
-85 -10 -4 -40 15 -82 52 l-66 58 -49 -54 c-78 -87 -78 -81 1 -146 59 -48 68
-60 60 -76 -5 -10 -12 -18 -16 -18 -3 0 -35 25 -70 55 -36 30 -68 55 -73 55
-11 0 -154 -167 -158 -184 -2 -8 15 -28 38 -46 22 -17 40 -36 40 -40 0 -5 -34
-48 -75 -97 -41 -48 -75 -93 -75 -99 0 -6 18 -25 40 -43 22 -17 40 -36 40 -42
0 -6 -78 -102 -172 -214 -95 -113 -173 -210 -173 -216 0 -37 39 -1 185 173 90
106 171 202 181 212 18 19 19 19 63 -17 24 -21 48 -37 53 -37 4 0 42 41 83 90
41 50 78 90 83 90 5 0 28 -16 51 -35 l43 -35 30 33 c28 29 208 242 931 1102
135 160 249 292 254 294 5 1 30 -15 56 -36 61 -52 88 -66 112 -58 34 11 25 56
-17 97 -64 60 -586 500 -618 519 -31 19 -57 24 -68 12z"/>
</g>
</svg>
