<?xml version="1.0" standalone="no"?>
<!DOCTYPE svg PUBLIC "-//W3C//DTD SVG 20010904//EN"
 "http://www.w3.org/TR/2001/REC-SVG-20010904/DTD/svg10.dtd">
<svg version="1.0" xmlns="http://www.w3.org/2000/svg"
 width="500.000000pt" height="500.000000pt" viewBox="0 0 500.000000 500.000000"
 preserveAspectRatio="xMidYMid meet">

<g transform="translate(0.000000,500.000000) scale(0.100000,-0.100000)"
fill="#000000" stroke="none">
<path d="M3099 3575 c-15 -8 -29 -21 -33 -30 -3 -9 -18 -15 -36 -15 -70 0
-107 -94 -57 -144 13 -13 29 -25 35 -27 10 -3 9 -14 -3 -48 -33 -94 -12 -78
29 22 28 65 28 101 2 64 -19 -25 -35 -21 -50 15 -15 34 -12 53 12 81 17 20 52
23 52 5 0 -7 12 2 26 20 50 64 135 28 134 -57 -1 -20 2 -50 5 -68 9 -42 -23
-76 -68 -71 -26 2 -32 7 -30 26 2 12 -2 22 -7 22 -12 0 -101 -132 -94 -139 2
-3 11 4 18 15 43 60 52 67 74 55 75 -40 160 35 127 115 -6 16 -10 48 -7 71 4
37 1 46 -26 73 -33 33 -62 37 -103 15z"/>
<path d="M2608 3215 c-24 -6 -60 -20 -78 -32 -39 -24 -96 -80 -89 -88 3 -2 27
2 54 11 78 23 74 11 -6 -20 -147 -57 -247 -143 -279 -239 -18 -56 -9 -153 20
-212 74 -154 297 -275 485 -262 88 6 151 33 216 94 58 54 79 89 79 132 0 49
29 61 166 65 65 2 147 -1 182 -7 81 -14 159 1 255 47 173 85 302 265 268 376
-14 48 -59 77 -91 60 -25 -13 -56 -73 -66 -125 -7 -37 -6 -39 10 -26 29 24 27
6 -4 -31 -34 -41 -112 -93 -155 -104 -25 -6 -28 -5 -18 7 7 8 8 20 4 28 -6 9
-10 8 -13 -7 -7 -25 -128 -126 -189 -157 -102 -52 -222 -66 -305 -35 -24 9
-26 14 -21 47 10 60 27 69 78 41 36 -19 59 -23 130 -23 78 0 91 3 160 37 40
20 90 51 109 68 28 24 30 28 10 19 -14 -7 -36 -20 -49 -30 -52 -41 -110 -18
-176 68 -66 85 -198 210 -268 251 -42 26 -74 36 -129 42 -126 15 -245 17 -290
5z m356 -206 c14 -12 -14 -40 -37 -37 -29 4 -46 36 -27 48 15 10 48 4 64 -11z"/>
<path d="M3935 3075 c0 -18 3 -31 8 -28 4 2 7 15 7 28 0 13 -3 26 -7 28 -5 3
-8 -10 -8 -28z"/>
<path d="M3910 3075 c1 -26 2 -28 11 -12 8 14 8 22 0 30 -8 8 -11 3 -11 -18z"/>
<path d="M3340 2961 c0 -5 5 -13 10 -16 6 -3 10 -2 10 4 0 5 -4 13 -10 16 -5
3 -10 2 -10 -4z"/>
<path d="M1580 2920 c-124 -15 -232 -65 -321 -147 -202 -188 -344 -519 -366
-858 -5 -85 -4 -95 12 -101 28 -11 41 18 48 105 14 180 68 375 148 538 68 139
77 144 78 47 0 -43 5 -101 11 -130 10 -49 8 -70 -34 -251 -86 -377 -122 -569
-112 -607 3 -12 17 -28 31 -34 36 -16 252 -16 285 1 55 27 26 118 -50 157 -22
11 -40 24 -40 28 1 4 20 56 43 117 39 100 45 111 82 132 66 37 166 68 175 53
17 -27 82 -314 87 -385 9 -111 7 -109 165 -113 153 -3 181 5 186 53 4 43 -30
91 -85 118 l-47 24 -32 154 c-18 85 -33 161 -33 170 -1 13 18 17 122 23 67 3
138 9 158 12 l37 6 7 -113 c10 -174 11 -330 1 -371 -14 -63 -3 -68 144 -68
110 0 129 2 143 18 22 24 21 40 -2 78 -14 22 -30 33 -55 38 -20 4 -36 10 -36
14 0 8 82 456 84 459 0 0 17 4 38 8 32 6 37 4 43 -17 4 -12 40 -126 81 -251
70 -215 74 -231 63 -268 -11 -34 -10 -42 6 -59 16 -18 31 -20 131 -20 108 0
114 1 129 23 25 38 3 84 -50 107 l-42 18 -8 69 c-4 37 -20 165 -36 283 -22
163 -27 234 -23 293 l7 77 -70 -6 c-50 -5 -92 -2 -147 10 -289 65 -470 318
-368 517 l27 54 -280 1 c-154 0 -305 -2 -335 -6z"/>
<path d="M3780 2744 c-14 -16 -13 -17 3 -11 9 3 17 2 17 -3 0 -5 -8 -14 -17
-19 -10 -6 -13 -11 -7 -11 6 0 18 8 27 18 18 20 23 37 8 28 -5 -4 -11 -1 -13
5 -2 7 -10 4 -18 -7z"/>
<path d="M3182 2550 c4 -34 48 -58 79 -43 22 11 22 11 -8 6 -28 -5 -34 -1 -53
28 -19 31 -21 32 -18 9z"/>
<path d="M3154 2523 c1 -30 -4 -39 -24 -50 -14 -7 -19 -13 -12 -13 32 0 52 21
52 55 0 18 -4 36 -9 39 -4 3 -8 -11 -7 -31z"/>
<path d="M3252 2478 c-28 -14 -40 -55 -20 -74 12 -12 13 -10 10 20 -3 29 0 37
25 50 32 17 20 20 -15 4z"/>
<path d="M3134 2435 c-18 -14 -17 -15 7 -6 29 11 48 1 67 -34 10 -17 11 -18
12 -2 0 20 -34 57 -53 57 -7 0 -22 -7 -33 -15z"/>
</g>
</svg>
