<?xml version="1.0" encoding="UTF-8"?>
<svg width="700pt" height="700pt" version="1.1" viewBox="0 0 700 700" xmlns="http://www.w3.org/2000/svg" xmlns:xlink="http://www.w3.org/1999/xlink">
 <defs>
  <symbol id="t" overflow="visible">
   <path d="m11.719-0.70312c-0.60547 0.3125-1.2344 0.54688-1.8906 0.70312-0.64844 0.16406-1.3281 0.25-2.0469 0.25-2.125 0-3.8086-0.59375-5.0469-1.7812-1.2422-1.1875-1.8594-2.7969-1.8594-4.8281 0-2.0391 0.61719-3.6562 1.8594-4.8438 1.2383-1.1875 2.9219-1.7812 5.0469-1.7812 0.71875 0 1.3984 0.078125 2.0469 0.23438 0.65625 0.15625 1.2852 0.39062 1.8906 0.70312v2.6406c-0.60547-0.40625-1.2031-0.70703-1.7969-0.90625-0.59375-0.19531-1.2188-0.29688-1.875-0.29688-1.168 0-2.0898 0.38281-2.7656 1.1406-0.67969 0.75-1.0156 1.7891-1.0156 3.1094 0 1.3125 0.33594 2.3438 1.0156 3.0938 0.67578 0.75 1.5977 1.125 2.7656 1.125 0.65625 0 1.2812-0.09375 1.875-0.28125 0.59375-0.19531 1.1914-0.50391 1.7969-0.92188z"/>
  </symbol>
  <symbol id="d" overflow="visible">
   <path d="m8.5781-6.9688c-0.27344-0.125-0.53906-0.21094-0.79688-0.26562-0.26172-0.0625-0.52734-0.09375-0.79688-0.09375-0.79297 0-1.4023 0.25781-1.8281 0.76562-0.41797 0.5-0.625 1.2188-0.625 2.1562v4.4062h-3.0625v-9.5781h3.0625v1.5781c0.39453-0.625 0.84375-1.0781 1.3438-1.3594 0.50781-0.28906 1.125-0.4375 1.8438-0.4375 0.10156 0 0.21094 0.007813 0.32812 0.015625 0.125 0 0.30078 0.015625 0.53125 0.046875z"/>
  </symbol>
  <symbol id="b" overflow="visible">
   <path d="m11.016-4.8125v0.875h-7.1406c0.070312 0.71875 0.32812 1.2617 0.76562 1.625 0.44531 0.35547 1.0703 0.53125 1.875 0.53125 0.64453 0 1.3008-0.09375 1.9688-0.28125 0.67578-0.19531 1.3672-0.48828 2.0781-0.875v2.3594c-0.71875 0.27344-1.4453 0.47656-2.1719 0.60938-0.71875 0.14453-1.4375 0.21875-2.1562 0.21875-1.7422 0-3.0898-0.4375-4.0469-1.3125-0.96094-0.88281-1.4375-2.125-1.4375-3.7188 0-1.5625 0.46875-2.7852 1.4062-3.6719 0.94531-0.89453 2.25-1.3438 3.9062-1.3438 1.5 0 2.6953 0.45312 3.5938 1.3594 0.90625 0.90625 1.3594 2.1172 1.3594 3.625zm-3.1406-1.0156c0-0.58203-0.17188-1.0508-0.51562-1.4062-0.33594-0.35156-0.77344-0.53125-1.3125-0.53125-0.59375 0-1.0781 0.16797-1.4531 0.5-0.36719 0.33594-0.59375 0.8125-0.6875 1.4375z"/>
  </symbol>
  <symbol id="k" overflow="visible">
   <path d="m5.7656-4.3125c-0.64844 0-1.1328 0.10938-1.4531 0.32812-0.3125 0.21875-0.46875 0.53906-0.46875 0.95312 0 0.39844 0.125 0.70312 0.375 0.92188 0.25781 0.21875 0.625 0.32812 1.0938 0.32812 0.57031 0 1.0508-0.20703 1.4375-0.625 0.39453-0.41406 0.59375-0.92969 0.59375-1.5469v-0.35938zm4.6719-1.1406v5.4531h-3.0938v-1.4219c-0.40625 0.58594-0.86719 1.0117-1.375 1.2812-0.51172 0.25781-1.1367 0.39062-1.875 0.39062-0.99219 0-1.7969-0.28516-2.4219-0.85938-0.61719-0.58203-0.92188-1.3359-0.92188-2.2656 0-1.1133 0.38281-1.9297 1.1562-2.4531 0.76953-0.53125 1.9844-0.79688 3.6406-0.79688h1.7969v-0.23438c0-0.48828-0.19531-0.84375-0.57812-1.0625-0.375-0.22656-0.96875-0.34375-1.7812-0.34375-0.65625 0-1.2656 0.070313-1.8281 0.20312-0.5625 0.125-1.0859 0.32031-1.5625 0.57812v-2.3281c0.65625-0.15625 1.3125-0.27344 1.9688-0.35938 0.65625-0.082031 1.3164-0.125 1.9844-0.125 1.7266 0 2.9727 0.33984 3.7344 1.0156 0.76953 0.67969 1.1562 1.7891 1.1562 3.3281z"/>
  </symbol>
  <symbol id="c" overflow="visible">
   <path d="m4.8125-12.281v2.7031h3.1562v2.1875h-3.1562v4.0625c0 0.44922 0.085938 0.75 0.26562 0.90625 0.17578 0.15625 0.52344 0.23438 1.0469 0.23438h1.5781v2.1875h-2.625c-1.2109 0-2.0703-0.25-2.5781-0.75-0.5-0.50781-0.75-1.3672-0.75-2.5781v-4.0625h-1.5156v-2.1875h1.5156v-2.7031z"/>
  </symbol>
  <symbol id="j" overflow="visible">
   <path d="m7.9844-8.1719v-5.125h3.0781v13.297h-3.0781v-1.3906c-0.42969 0.57422-0.89844 0.99219-1.4062 1.25-0.5 0.25781-1.0859 0.39062-1.75 0.39062-1.1797 0-2.1484-0.46875-2.9062-1.4062-0.76172-0.9375-1.1406-2.1445-1.1406-3.625 0-1.4688 0.37891-2.6719 1.1406-3.6094 0.75781-0.9375 1.7266-1.4062 2.9062-1.4062 0.65625 0 1.2383 0.13672 1.75 0.40625 0.50781 0.26172 0.97656 0.66797 1.4062 1.2188zm-2.0156 6.2031c0.65625 0 1.1562-0.23828 1.5-0.71875 0.34375-0.47656 0.51562-1.1758 0.51562-2.0938 0-0.90625-0.17188-1.5977-0.51562-2.0781-0.34375-0.47656-0.84375-0.71875-1.5-0.71875s-1.1562 0.24219-1.5 0.71875c-0.34375 0.48047-0.51562 1.1719-0.51562 2.0781 0 0.91797 0.17188 1.6172 0.51562 2.0938 0.34375 0.48047 0.84375 0.71875 1.5 0.71875z"/>
  </symbol>
  <symbol id="f" overflow="visible">
   <path d="m6.5625-1.9688c0.65625 0 1.1562-0.23828 1.5-0.71875 0.34375-0.47656 0.51562-1.1758 0.51562-2.0938 0-0.90625-0.17188-1.5977-0.51562-2.0781-0.34375-0.47656-0.84375-0.71875-1.5-0.71875s-1.1641 0.24219-1.5156 0.71875c-0.34375 0.48047-0.51562 1.1719-0.51562 2.0781s0.17188 1.6055 0.51562 2.0938c0.35156 0.48047 0.85938 0.71875 1.5156 0.71875zm-2.0312-6.2031c0.41406-0.55078 0.87891-0.95703 1.3906-1.2188 0.51953-0.26953 1.1133-0.40625 1.7812-0.40625 1.1758 0 2.1406 0.46875 2.8906 1.4062 0.75781 0.9375 1.1406 2.1406 1.1406 3.6094 0 1.4805-0.38281 2.6875-1.1406 3.625-0.75 0.9375-1.7148 1.4062-2.8906 1.4062-0.66797 0-1.2617-0.13281-1.7812-0.39062-0.51172-0.26953-0.97656-0.6875-1.3906-1.25v1.3906h-3.0625v-13.297h3.0625z"/>
  </symbol>
  <symbol id="e" overflow="visible">
   <path d="m0.21875-9.5781h3.0469l2.5781 6.5 2.1875-6.5h3.0625l-4.0312 10.484c-0.40625 1.0625-0.88281 1.8047-1.4219 2.2344-0.53125 0.42578-1.2422 0.64062-2.125 0.64062h-1.7656v-2.0156h0.95312c0.51953 0 0.89844-0.085937 1.1406-0.25 0.23828-0.16797 0.42188-0.46484 0.54688-0.89062l0.09375-0.25z"/>
  </symbol>
  <symbol id="i" overflow="visible">
   <path d="m10.484-12.359v2.7031c-0.69922-0.3125-1.3828-0.54688-2.0469-0.70312-0.66797-0.16406-1.2969-0.25-1.8906-0.25-0.79297 0-1.375 0.10938-1.75 0.32812s-0.5625 0.55859-0.5625 1.0156c0 0.33594 0.125 0.60156 0.375 0.79688 0.25781 0.1875 0.72266 0.35156 1.3906 0.48438l1.4062 0.28125c1.4141 0.29297 2.4219 0.73047 3.0156 1.3125 0.60156 0.57422 0.90625 1.3984 0.90625 2.4688 0 1.4062-0.42188 2.4531-1.2656 3.1406-0.83594 0.6875-2.1055 1.0312-3.8125 1.0312-0.8125 0-1.625-0.078125-2.4375-0.23438s-1.625-0.38281-2.4375-0.6875v-2.7656c0.8125 0.42969 1.5977 0.75 2.3594 0.96875 0.75781 0.21875 1.4922 0.32812 2.2031 0.32812 0.70703 0 1.2539-0.11719 1.6406-0.35938 0.38281-0.23828 0.57812-0.57812 0.57812-1.0156 0-0.40625-0.13281-0.71094-0.39062-0.92188-0.26172-0.21875-0.77734-0.41406-1.5469-0.59375l-1.2812-0.28125c-1.2734-0.26953-2.2031-0.70312-2.7969-1.2969-0.59375-0.60156-0.89062-1.4102-0.89062-2.4219 0-1.2695 0.41016-2.2422 1.2344-2.9219 0.82031-0.6875 2.0039-1.0312 3.5469-1.0312 0.69531 0 1.4141 0.054687 2.1562 0.15625 0.73828 0.10547 1.5039 0.26172 2.2969 0.46875z"/>
  </symbol>
  <symbol id="h" overflow="visible">
   <path d="m10.344-7.9844c0.38281-0.59375 0.84375-1.0391 1.375-1.3438 0.53125-0.3125 1.1133-0.46875 1.75-0.46875 1.1016 0 1.9414 0.33984 2.5156 1.0156 0.57031 0.67969 0.85938 1.6641 0.85938 2.9531v5.8281h-3.0625v-4.9844-0.23438c0.007812-0.082031 0.015625-0.19531 0.015625-0.34375 0-0.67578-0.10547-1.1641-0.3125-1.4688-0.19922-0.3125-0.51562-0.46875-0.95312-0.46875-0.58594 0-1.0391 0.24219-1.3594 0.71875-0.3125 0.48047-0.47656 1.1719-0.48438 2.0781v4.7031h-3.0781v-4.9844c0-1.0625-0.09375-1.7422-0.28125-2.0469-0.17969-0.3125-0.5-0.46875-0.96875-0.46875-0.58594 0-1.0391 0.24609-1.3594 0.73438-0.3125 0.48047-0.46875 1.168-0.46875 2.0625v4.7031h-3.0781v-9.5781h3.0781v1.4062c0.375-0.53906 0.80078-0.94531 1.2812-1.2188 0.48828-0.26953 1.0312-0.40625 1.625-0.40625 0.65625 0 1.2383 0.16406 1.75 0.48438 0.50781 0.3125 0.89453 0.75781 1.1562 1.3281z"/>
  </symbol>
  <symbol id="a" overflow="visible">
   <path d="m6.0312-7.6094c-0.6875 0-1.2109 0.24609-1.5625 0.73438-0.35547 0.48047-0.53125 1.1797-0.53125 2.0938 0 0.91797 0.17578 1.6211 0.53125 2.1094 0.35156 0.49219 0.875 0.73438 1.5625 0.73438 0.66406 0 1.1719-0.24219 1.5156-0.73438 0.35156-0.48828 0.53125-1.1914 0.53125-2.1094 0-0.91406-0.17969-1.6133-0.53125-2.0938-0.34375-0.48828-0.85156-0.73438-1.5156-0.73438zm0-2.1875c1.6445 0 2.9258 0.44531 3.8438 1.3281 0.92578 0.88672 1.3906 2.1172 1.3906 3.6875 0 1.5742-0.46484 2.8086-1.3906 3.7031-0.91797 0.88672-2.1992 1.3281-3.8438 1.3281-1.6562 0-2.9531-0.44141-3.8906-1.3281-0.92969-0.89453-1.3906-2.1289-1.3906-3.7031 0-1.5703 0.46094-2.8008 1.3906-3.6875 0.9375-0.88281 2.2344-1.3281 3.8906-1.3281z"/>
  </symbol>
  <symbol id="s" overflow="visible">
   <path d="m1.4688-13.297h3.0625v13.297h-3.0625z"/>
  </symbol>
  <symbol id="g" overflow="visible">
   <path d="m11.094-5.8281v5.8281h-3.0781v-4.4531c0-0.83203-0.023437-1.4062-0.0625-1.7188-0.03125-0.3125-0.09375-0.53906-0.1875-0.6875-0.11719-0.19531-0.27734-0.35156-0.48438-0.46875-0.21094-0.11328-0.44531-0.17188-0.70312-0.17188-0.63672 0-1.1367 0.25-1.5 0.75-0.36719 0.49219-0.54688 1.1719-0.54688 2.0469v4.7031h-3.0625v-9.5781h3.0625v1.4062c0.45703-0.55078 0.94531-0.95703 1.4688-1.2188 0.51953-0.26953 1.0938-0.40625 1.7188-0.40625 1.1016 0 1.9414 0.33984 2.5156 1.0156 0.57031 0.67969 0.85938 1.6641 0.85938 2.9531z"/>
  </symbol>
  <symbol id="r" overflow="visible">
   <path d="m7.7656-13.297v2.0156h-1.6875c-0.4375 0-0.74609 0.078125-0.92188 0.23438-0.16797 0.15625-0.25 0.42969-0.25 0.8125v0.65625h2.625v2.1875h-2.625v7.3906h-3.0469v-7.3906h-1.5312v-2.1875h1.5312v-0.65625c0-1.0391 0.28516-1.8125 0.85938-2.3125 0.58203-0.5 1.4844-0.75 2.7031-0.75z"/>
  </symbol>
  <symbol id="q" overflow="visible">
   <path d="m11.094-5.8281v5.8281h-3.0781v-4.4375c0-0.84375-0.023437-1.4219-0.0625-1.7344-0.03125-0.3125-0.09375-0.53906-0.1875-0.6875-0.11719-0.19531-0.27734-0.35156-0.48438-0.46875-0.21094-0.11328-0.44531-0.17188-0.70312-0.17188-0.63672 0-1.1367 0.25-1.5 0.75-0.36719 0.49219-0.54688 1.1719-0.54688 2.0469v4.7031h-3.0625v-13.297h3.0625v5.125c0.45703-0.55078 0.94531-0.95703 1.4688-1.2188 0.51953-0.26953 1.0938-0.40625 1.7188-0.40625 1.1016 0 1.9414 0.33984 2.5156 1.0156 0.57031 0.67969 0.85938 1.6641 0.85938 2.9531z"/>
  </symbol>
  <symbol id="p" overflow="visible">
   <path d="m1.6094-12.75h3.6719l4.6406 8.75v-8.75h3.125v12.75h-3.6875l-4.6406-8.75v8.75h-3.1094z"/>
  </symbol>
  <symbol id="o" overflow="visible">
   <path d="m1.375-3.7188v-5.8594h3.0625v0.96875c0 0.52344-0.007812 1.1719-0.015625 1.9531v1.5625c0 0.77344 0.019531 1.3281 0.0625 1.6719 0.039063 0.33594 0.10938 0.57812 0.20312 0.73438 0.125 0.19922 0.28516 0.35547 0.48438 0.46875 0.20703 0.10547 0.44141 0.15625 0.70312 0.15625 0.64453 0 1.1484-0.24219 1.5156-0.73438 0.36328-0.48828 0.54688-1.1719 0.54688-2.0469v-4.7344h3.0469v9.5781h-3.0469v-1.3906c-0.46875 0.5625-0.96484 0.98047-1.4844 1.25-0.51172 0.25781-1.0742 0.39062-1.6875 0.39062-1.1055 0-1.9492-0.33594-2.5312-1.0156-0.57422-0.67578-0.85938-1.6602-0.85938-2.9531z"/>
  </symbol>
  <symbol id="n" overflow="visible">
   <path d="m1.6094-12.75h5.4531c1.625 0 2.8672 0.35938 3.7344 1.0781 0.875 0.71875 1.3125 1.7461 1.3125 3.0781 0 1.3359-0.4375 2.3672-1.3125 3.0938-0.86719 0.71875-2.1094 1.0781-3.7344 1.0781h-2.1719v4.4219h-3.2812zm3.2812 2.375v3.5625h1.8281c0.63281 0 1.125-0.14844 1.4688-0.45312 0.35156-0.3125 0.53125-0.75391 0.53125-1.3281 0-0.57031-0.17969-1.0078-0.53125-1.3125-0.34375-0.3125-0.83594-0.46875-1.4688-0.46875z"/>
  </symbol>
  <symbol id="m" overflow="visible">
   <path d="m1.4688-9.5781h3.0625v9.4062c0 1.2812-0.30859 2.2578-0.92188 2.9375-0.61719 0.67578-1.5078 1.0156-2.6719 1.0156h-1.5156v-2.0156h0.53125c0.58203 0 0.97656-0.13281 1.1875-0.39062 0.21875-0.26172 0.32812-0.77734 0.32812-1.5469zm0-3.7188h3.0625v2.5h-3.0625z"/>
  </symbol>
  <symbol id="l" overflow="visible">
   <path d="m9.2031-9.2656v2.4844c-0.41797-0.28125-0.83594-0.48828-1.25-0.625-0.41797-0.13281-0.85547-0.20312-1.3125-0.20312-0.85547 0-1.5234 0.25-2 0.75-0.46875 0.49219-0.70312 1.1836-0.70312 2.0781 0 0.89844 0.23438 1.5938 0.70312 2.0938 0.47656 0.5 1.1445 0.75 2 0.75 0.47656 0 0.92969-0.066406 1.3594-0.20312 0.4375-0.14453 0.83594-0.35938 1.2031-0.64062v2.5c-0.48047 0.17969-0.96875 0.30469-1.4688 0.39062-0.49219 0.09375-0.98047 0.14062-1.4688 0.14062-1.7305 0-3.0859-0.44141-4.0625-1.3281-0.96875-0.88281-1.4531-2.1172-1.4531-3.7031 0-1.5703 0.48438-2.8008 1.4531-3.6875 0.97656-0.88281 2.332-1.3281 4.0625-1.3281 0.5 0 0.99219 0.046875 1.4844 0.14062 0.48828 0.085938 0.97266 0.21484 1.4531 0.39062z"/>
  </symbol>
 </defs>
 <g>
  <path d="m523.95 381.15h72.801v-32.547h-93.801z"/>
  <path d="m281.05 283.5-67.551 154.7h35.352l43.047-154.7z"/>
  <path d="m310.45 438.2h32.551v-154.7h-11.551z"/>
  <path d="m494.2 334.6h102.55v-21.703h-116.55z"/>
  <path d="m306.25 283.5-42.699 154.7h32.898l21-154.7z"/>
  <path d="m382.55 283.5 21 154.7h32.898l-42.699-154.7z"/>
  <path d="m514.5 392-70-108.5h-10.148l67.547 154.7h42.352z"/>
  <path d="m408.1 283.5 43.047 154.7h35.352l-67.551-154.7z"/>
  <path d="m357 283.5v154.7h32.551l-21-154.7z"/>
  <path d="m255.5 283.5-70 108.5-29.75 46.199h42.352l67.547-154.7z"/>
  <path d="m561.05 438.2h35.699v-43.051h-63.699z"/>
  <path d="m103.25 395.15v43.051h35.699l28-43.051z"/>
  <path d="m471.1 298.9h125.65v-15.398h-135.8z"/>
  <path d="m239.05 283.5h-135.8v15.398h125.65z"/>
  <path d="m219.8 312.9h-116.55v21.703h102.55z"/>
  <path d="m197.05 348.6h-93.801v32.547h72.801z"/>
  <path d="m160.3 218.05 28.352 52.148h16.102l-20.648-38.148h26.949l20.648 38.148h16.102l-20.648-38.148h26.949l21 38.148h15.395l-21-38.148h26.949l20.648 38.148h16.102l-20.648-38.148h42c0.69922-4.8984 2.4492-9.8008 4.5508-14z"/>
  <path d="m452.2 166.6v-44.801h-65.801c-10.5 0-19.25 8.3984-19.25 18.551v66.852c3.1484-3.1484 6.6484-5.9492 10.5-8.0508 4.1992-2.4492 9.1016-3.8516 14-4.8984 2.4492-0.35156 4.8984-0.69922 7.6992-0.69922 24.852 0 45.148 20.301 45.148 45.148 0 1.3984 0 2.8008-0.35156 4.1992 0 1.0508-0.35156 2.4492-0.35156 3.5h17.852c0-1.0508 0.35156-2.4492 0.69922-3.5 3.5-14.699 16.801-25.551 32.199-25.551 15.75 0 28.699 10.852 32.199 25.551 0.35156 1.0508 0.35156 2.4492 0.69922 3.5h12.25l0.007813-56.703zm-14 0h-43.051v-30.801h43.051z"/>
  <path d="m399.35 207.55c-2.8008 0-5.25 0.35156-7.6992 1.0508-5.25 1.3984-10.148 3.8516-14 7.6992-5.9492 5.6016-9.8008 13.648-9.8008 22.75 0 17.148 14 31.148 31.5 31.148 10.5 0 19.949-5.25 25.551-13.301 2.8008-3.8516 4.8984-8.75 5.6016-14 0-1.3984 0.35156-2.8008 0.35156-4.1992-0.003907-17.148-14.004-31.148-31.504-31.148zm0 44.449c-7.3516 0-12.949-5.9492-12.949-12.949s5.9492-12.949 12.949-12.949 12.949 5.9492 12.949 12.949-5.6016 12.949-12.949 12.949z"/>
  <path d="m513.45 246.05c-2.1016-8.3984-9.4492-14.699-18.551-14.699-8.0508 0-15.051 4.8984-17.852 12.25-1.0508 2.1016-1.3984 4.5508-1.3984 7 0 2.1016 0.35156 3.8516 1.0508 5.6016 2.4492 7.6992 9.8008 13.301 18.199 13.301 9.4492 0 17.148-6.6484 18.898-15.75 0.35156-1.0508 0.35156-2.4492 0.35156-3.5-0.34766-1.0547-0.34766-2.8047-0.69922-4.2031zm-18.551 12.25c-4.1992 0-7.3516-3.5-7.3516-7.3516 0-4.1992 3.5-7.3516 7.3516-7.3516 3.8516 0 7.3516 3.5 7.3516 7.3516 0 3.8516-3.5 7.3516-7.3516 7.3516z"/>
  <use x="70" y="612.5" xlink:href="#t"/>
  <use x="82.84375" y="612.5" xlink:href="#d"/>
  <use x="91.472656" y="612.5" xlink:href="#b"/>
  <use x="103.34375" y="612.5" xlink:href="#k"/>
  <use x="115.152344" y="612.5" xlink:href="#c"/>
  <use x="123.515625" y="612.5" xlink:href="#b"/>
  <use x="135.386719" y="612.5" xlink:href="#j"/>
  <use x="154.003906" y="612.5" xlink:href="#f"/>
  <use x="166.53125" y="612.5" xlink:href="#e"/>
  <use x="184.03125" y="612.5" xlink:href="#i"/>
  <use x="196.636719" y="612.5" xlink:href="#e"/>
  <use x="208.042969" y="612.5" xlink:href="#h"/>
  <use x="226.277344" y="612.5" xlink:href="#f"/>
  <use x="238.804687" y="612.5" xlink:href="#a"/>
  <use x="250.828125" y="612.5" xlink:href="#s"/>
  <use x="256.828125" y="612.5" xlink:href="#a"/>
  <use x="268.847656" y="612.5" xlink:href="#g"/>
  <use x="70" y="630" xlink:href="#r"/>
  <use x="77.613281" y="630" xlink:href="#d"/>
  <use x="86.242188" y="630" xlink:href="#a"/>
  <use x="98.265625" y="630" xlink:href="#h"/>
  <use x="122.59375" y="630" xlink:href="#c"/>
  <use x="130.960938" y="630" xlink:href="#q"/>
  <use x="143.417969" y="630" xlink:href="#b"/>
  <use x="161.378906" y="630" xlink:href="#p"/>
  <use x="176.023437" y="630" xlink:href="#a"/>
  <use x="188.046875" y="630" xlink:href="#o"/>
  <use x="200.507812" y="630" xlink:href="#g"/>
  <use x="219.058594" y="630" xlink:href="#n"/>
  <use x="231.882812" y="630" xlink:href="#d"/>
  <use x="240.515625" y="630" xlink:href="#a"/>
  <use x="252.535156" y="630" xlink:href="#m"/>
  <use x="258.535156" y="630" xlink:href="#b"/>
  <use x="270.402344" y="630" xlink:href="#l"/>
  <use x="280.777344" y="630" xlink:href="#c"/>
 </g>
</svg>
