<!-- Generated by IcoMoon.io -->
<svg version="1.1" xmlns="http://www.w3.org/2000/svg" width="26" height="32" viewBox="0 0 26 32">
<title>Feeding</title>
<path d="M19.558 2.355c-0.051-1.101-0.973-1.997-2.074-1.997-1.152 0-2.074 0.947-2.074 2.074v8.576c0 0.947 0.666 1.766 1.536 2.022v10.829c0 0.666 0.538 1.203 1.203 1.203h0.205c0.666 0 1.203-0.538 1.203-1.203 0.026 0.026 0-21.478 0-21.504z"></path>
<path d="M11.878 9.293c0.794-0.819 0.768-1.843 0.768-1.894v-6.323c0-0.384-0.307-0.717-0.717-0.717-0.384 0-0.717 0.307-0.717 0.717v6.323c0 0.026 0 0.538-0.358 0.896-0.179 0.179-0.461 0.307-0.768 0.384v-7.603c0-0.384-0.307-0.717-0.717-0.717-0.384 0-0.717 0.307-0.717 0.717v7.578c-0.358-0.077-0.614-0.205-0.794-0.41-0.282-0.307-0.282-0.691-0.282-0.691 0-0.026 0-0.051 0-0.051v-6.323c0-0.384-0.307-0.717-0.717-0.717-0.384 0-0.717 0.307-0.717 0.717v6.272c0 0.23 0 1.024 0.64 1.715 0.435 0.461 1.024 0.768 1.766 0.896-0.128 1.331-0.256 2.739-0.358 4.173-0.282 0.256-0.461 0.614-0.461 1.024v8.422c0 0.768 0.64 1.408 1.408 1.408h0.538c0.768 0 1.408-0.64 1.408-1.408v-8.422c0-0.461-0.23-0.896-0.589-1.152-0.102-1.382-0.205-2.765-0.333-4.019 0.691-0.077 1.28-0.358 1.715-0.794z"></path>
</svg>
