<?xml version="1.0" encoding="UTF-8"?>
<svg width="700pt" height="700pt" version="1.1" viewBox="0 0 700 700" xmlns="http://www.w3.org/2000/svg" xmlns:xlink="http://www.w3.org/1999/xlink">
 <defs>
  <symbol id="w" overflow="visible">
   <path d="m5.375-0.32812c-0.28125 0.14844-0.57422 0.25781-0.875 0.32812-0.29297 0.070312-0.60547 0.10938-0.9375 0.10938-0.96875 0-1.7422-0.26953-2.3125-0.8125-0.5625-0.53906-0.84375-1.2812-0.84375-2.2188 0-0.92578 0.28125-1.6602 0.84375-2.2031 0.57031-0.55078 1.3438-0.82812 2.3125-0.82812 0.33203 0 0.64453 0.039063 0.9375 0.10938 0.30078 0.074219 0.59375 0.18359 0.875 0.32812v1.2031c-0.28125-0.1875-0.55859-0.32031-0.82812-0.40625-0.27344-0.09375-0.55859-0.14062-0.85938-0.14062-0.54297 0-0.96875 0.17188-1.2812 0.51562-0.30469 0.34375-0.45312 0.82031-0.45312 1.4219 0 0.60547 0.14844 1.0781 0.45312 1.4219 0.3125 0.34375 0.73828 0.51562 1.2812 0.51562 0.30078 0 0.58594-0.039063 0.85938-0.125 0.26953-0.09375 0.54688-0.23438 0.82812-0.42188z"/>
  </symbol>
  <symbol id="c" overflow="visible">
   <path d="m3.9219-3.1875c-0.11719-0.0625-0.23438-0.10156-0.35938-0.125-0.125-0.03125-0.24609-0.046875-0.35938-0.046875-0.36719 0-0.64844 0.11719-0.84375 0.34375-0.1875 0.23047-0.28125 0.5625-0.28125 1v2.0156h-1.4062v-4.3906h1.4062v0.73438c0.17578-0.28906 0.37891-0.5 0.60938-0.625 0.23828-0.13281 0.51953-0.20312 0.84375-0.20312h0.15625c0.050781 0 0.12891 0.011719 0.23438 0.03125z"/>
  </symbol>
  <symbol id="a" overflow="visible">
   <path d="m5.0469-2.2031v0.40625h-3.2812c0.039063 0.32422 0.16016 0.57031 0.35938 0.73438 0.20703 0.16797 0.49219 0.25 0.85938 0.25 0.28906 0 0.59375-0.039062 0.90625-0.125 0.3125-0.09375 0.62891-0.22656 0.95312-0.40625v1.0781c-0.33594 0.125-0.66797 0.21875-1 0.28125-0.33594 0.0625-0.66406 0.09375-0.98438 0.09375-0.80469 0-1.4219-0.19531-1.8594-0.59375-0.4375-0.40625-0.65625-0.97266-0.65625-1.7031 0-0.71875 0.21094-1.2812 0.64062-1.6875 0.4375-0.40625 1.0352-0.60938 1.7969-0.60938 0.6875 0 1.2344 0.21094 1.6406 0.625 0.41406 0.40625 0.625 0.96094 0.625 1.6562zm-1.4375-0.46875c0-0.25781-0.078125-0.47266-0.23438-0.64062-0.15625-0.16406-0.35938-0.25-0.60938-0.25-0.27344 0-0.49609 0.078125-0.67188 0.23438-0.16797 0.15625-0.27344 0.375-0.3125 0.65625z"/>
  </symbol>
  <symbol id="d" overflow="visible">
   <path d="m2.6406-1.9688c-0.29297 0-0.51562 0.054688-0.67188 0.15625-0.14844 0.09375-0.21875 0.23438-0.21875 0.42188 0 0.17969 0.054688 0.32031 0.17188 0.42188 0.125 0.10547 0.29688 0.15625 0.51562 0.15625 0.25781 0 0.47656-0.09375 0.65625-0.28125 0.17578-0.19531 0.26562-0.4375 0.26562-0.71875v-0.15625zm2.1406-0.53125v2.5h-1.4219v-0.65625c-0.1875 0.27344-0.40234 0.46875-0.64062 0.59375-0.23047 0.11328-0.51172 0.17188-0.84375 0.17188-0.46094 0-0.82812-0.12891-1.1094-0.39062-0.28125-0.26953-0.42188-0.61328-0.42188-1.0312 0-0.51953 0.17578-0.89844 0.53125-1.1406 0.35156-0.23828 0.91016-0.35938 1.6719-0.35938h0.8125v-0.10938c0-0.21875-0.089844-0.37891-0.26562-0.48438-0.16797-0.10156-0.4375-0.15625-0.8125-0.15625-0.30469 0-0.58594 0.03125-0.84375 0.09375-0.25 0.0625-0.48438 0.15234-0.70312 0.26562v-1.0625c0.28906-0.070313 0.58594-0.125 0.89062-0.15625 0.3125-0.039063 0.61719-0.0625 0.92188-0.0625 0.78125 0 1.3477 0.15625 1.7031 0.46875 0.35156 0.3125 0.53125 0.82031 0.53125 1.5156z"/>
  </symbol>
  <symbol id="b" overflow="visible">
   <path d="m2.2031-5.625v1.2344h1.4375v1.0156h-1.4375v1.8594c0 0.19922 0.039063 0.33594 0.125 0.40625 0.082031 0.074219 0.24219 0.10938 0.48438 0.10938h0.71875v1h-1.2031c-0.55469 0-0.94922-0.11328-1.1875-0.34375-0.23047-0.22656-0.34375-0.61719-0.34375-1.1719v-1.8594h-0.6875v-1.0156h0.6875v-1.2344z"/>
  </symbol>
  <symbol id="k" overflow="visible">
   <path d="m3.6562-3.7344v-2.3594h1.4062v6.0938h-1.4062v-0.64062c-0.19922 0.26172-0.41406 0.45312-0.64062 0.57812-0.23047 0.11328-0.49609 0.17188-0.79688 0.17188-0.54297 0-0.99219-0.21094-1.3438-0.64062-0.34375-0.42578-0.51562-0.97656-0.51562-1.6562 0-0.67578 0.17188-1.2266 0.51562-1.6562 0.35156-0.42578 0.80078-0.64062 1.3438-0.64062 0.30078 0 0.56641 0.0625 0.79688 0.1875 0.22656 0.11719 0.44141 0.30469 0.64062 0.5625zm-0.92188 2.8281c0.30078 0 0.53125-0.10938 0.6875-0.32812s0.23438-0.53516 0.23438-0.95312c0-0.41406-0.078125-0.73438-0.23438-0.95312s-0.38672-0.32812-0.6875-0.32812c-0.30469 0-0.53125 0.10938-0.6875 0.32812s-0.23438 0.53906-0.23438 0.95312c0 0.41797 0.078125 0.73438 0.23438 0.95312s0.38281 0.32812 0.6875 0.32812z"/>
  </symbol>
  <symbol id="f" overflow="visible">
   <path d="m3-0.90625c0.30078 0 0.53125-0.10938 0.6875-0.32812s0.23438-0.53516 0.23438-0.95312c0-0.41406-0.078125-0.73438-0.23438-0.95312s-0.38672-0.32812-0.6875-0.32812c-0.29297 0-0.52344 0.10938-0.6875 0.32812-0.15625 0.21875-0.23438 0.53906-0.23438 0.95312 0 0.41797 0.078125 0.73438 0.23438 0.95312 0.16406 0.21875 0.39453 0.32812 0.6875 0.32812zm-0.92188-2.8281c0.1875-0.25781 0.39453-0.44531 0.625-0.5625 0.23828-0.125 0.51562-0.1875 0.82812-0.1875 0.53906 0 0.98438 0.21484 1.3281 0.64062 0.34375 0.42969 0.51562 0.98047 0.51562 1.6562 0 0.67969-0.17188 1.2305-0.51562 1.6562-0.34375 0.42969-0.78906 0.64062-1.3281 0.64062-0.3125 0-0.58984-0.058594-0.82812-0.17188-0.23047-0.125-0.4375-0.31641-0.625-0.57812v0.64062h-1.4062v-6.0938h1.4062z"/>
  </symbol>
  <symbol id="j" overflow="visible">
   <path d="m0.09375-4.3906h1.4062l1.1719 2.9844 1-2.9844h1.4062l-1.8438 4.8125c-0.1875 0.47656-0.40625 0.81641-0.65625 1.0156-0.24219 0.19531-0.5625 0.29688-0.96875 0.29688h-0.8125v-0.92188h0.4375c0.23828 0 0.41016-0.042969 0.51562-0.125 0.11328-0.074219 0.20312-0.20312 0.26562-0.39062l0.03125-0.125z"/>
  </symbol>
  <symbol id="i" overflow="visible">
   <path d="m4.2812-1.0625h-2.3594l-0.375 1.0625h-1.5l2.1562-5.8438h1.7969l2.1719 5.8438h-1.5156zm-1.9844-1.0938h1.6094l-0.79688-2.3125z"/>
  </symbol>
  <symbol id="h" overflow="visible">
   <path d="m4.7344-3.6562c0.17578-0.26953 0.38281-0.47266 0.625-0.60938 0.25-0.14453 0.51953-0.21875 0.8125-0.21875 0.5 0 0.87891 0.15625 1.1406 0.46875 0.26953 0.30469 0.40625 0.75 0.40625 1.3438v2.6719h-1.4062v-2.2812-0.10938-0.15625c0-0.3125-0.046875-0.53516-0.14062-0.67188-0.085937-0.14453-0.23047-0.21875-0.4375-0.21875-0.26172 0-0.46484 0.10938-0.60938 0.32812-0.14844 0.21875-0.22656 0.53906-0.23438 0.95312v2.1562h-1.4062v-2.2812c0-0.48828-0.042969-0.80078-0.125-0.9375-0.085937-0.14453-0.23047-0.21875-0.4375-0.21875-0.27344 0-0.48047 0.11719-0.625 0.34375-0.14844 0.21875-0.21875 0.53125-0.21875 0.9375v2.1562h-1.4062v-4.3906h1.4062v0.65625c0.16406-0.25 0.35938-0.4375 0.57812-0.5625 0.22656-0.125 0.47656-0.1875 0.75-0.1875 0.30078 0 0.56641 0.074219 0.79688 0.21875 0.23828 0.14844 0.41406 0.35156 0.53125 0.60938z"/>
  </symbol>
  <symbol id="v" overflow="visible">
   <path d="m0.67188-6.0938h1.4062v6.0938h-1.4062z"/>
  </symbol>
  <symbol id="u" overflow="visible">
   <path d="m0.67188-4.3906h1.4062v4.3906h-1.4062zm0-1.7031h1.4062v1.1406h-1.4062z"/>
  </symbol>
  <symbol id="t" overflow="visible">
   <path d="m0.23438-5.8438h1.4531l1 4.25 1-4.25h1.4531l1.0156 4.25 1-4.25h1.4375l-1.375 5.8438h-1.75l-1.0469-4.4375-1.0625 4.4375h-1.7344z"/>
  </symbol>
  <symbol id="g" overflow="visible">
   <path d="m5.0781-2.6719v2.6719h-1.4062v-2.0469c0-0.375-0.011719-0.63281-0.03125-0.78125-0.011719-0.14453-0.039063-0.25-0.078125-0.3125-0.0625-0.09375-0.14062-0.16406-0.23438-0.21875-0.09375-0.050781-0.19922-0.078125-0.3125-0.078125-0.29297 0-0.52344 0.11719-0.6875 0.34375-0.16797 0.23047-0.25 0.54297-0.25 0.9375v2.1562h-1.4062v-4.3906h1.4062v0.65625c0.20703-0.25781 0.42969-0.44531 0.67188-0.5625 0.23828-0.125 0.5-0.1875 0.78125-0.1875 0.50781 0 0.89453 0.15625 1.1562 0.46875 0.25781 0.30469 0.39062 0.75 0.39062 1.3438z"/>
  </symbol>
  <symbol id="s" overflow="visible">
   <path d="m3.6562-0.75c-0.19922 0.26172-0.41406 0.45312-0.64062 0.57812-0.23047 0.11719-0.49609 0.17188-0.79688 0.17188-0.54297 0-0.99219-0.20703-1.3438-0.625-0.34375-0.42578-0.51562-0.96875-0.51562-1.625 0-0.64453 0.17188-1.1758 0.51562-1.5938 0.35156-0.42578 0.80078-0.64062 1.3438-0.64062 0.30078 0 0.56641 0.0625 0.79688 0.1875 0.22656 0.11719 0.44141 0.30469 0.64062 0.5625v-0.65625h1.4062v3.9531c0 0.69531-0.22656 1.2344-0.67188 1.6094-0.4375 0.375-1.0781 0.5625-1.9219 0.5625-0.28125 0-0.55469-0.023437-0.8125-0.0625-0.25-0.042969-0.50781-0.10938-0.76562-0.20312v-1.0781c0.25 0.13281 0.48828 0.23438 0.71875 0.29688 0.23828 0.070312 0.47656 0.10938 0.71875 0.10938 0.45703 0 0.78906-0.10156 1-0.29688 0.21875-0.19922 0.32812-0.50781 0.32812-0.9375zm-0.92188-2.7188c-0.29297 0-0.52344 0.10938-0.6875 0.32812-0.15625 0.21094-0.23438 0.50781-0.23438 0.89062 0 0.40625 0.078125 0.71484 0.23438 0.92188 0.15625 0.21094 0.38281 0.3125 0.6875 0.3125 0.28906 0 0.51562-0.10156 0.67188-0.3125 0.16406-0.21875 0.25-0.52344 0.25-0.92188 0-0.38281-0.085938-0.67969-0.25-0.89062-0.15625-0.21875-0.38281-0.32812-0.67188-0.32812z"/>
  </symbol>
  <symbol id="r" overflow="visible">
   <path d="m3.5625-6.0938v0.92188h-0.78125c-0.19922 0-0.33984 0.039063-0.42188 0.10938-0.074219 0.074219-0.10938 0.19922-0.10938 0.375v0.29688h1.2031v1.0156h-1.2031v3.375h-1.4062v-3.375h-0.6875v-1.0156h0.6875v-0.29688c0-0.47656 0.12891-0.83203 0.39062-1.0625 0.26953-0.22656 0.6875-0.34375 1.25-0.34375z"/>
  </symbol>
  <symbol id="e" overflow="visible">
   <path d="m2.7656-3.4844c-0.3125 0-0.55469 0.11719-0.71875 0.34375-0.16797 0.21875-0.25 0.53906-0.25 0.95312 0 0.41797 0.082031 0.74219 0.25 0.96875 0.16406 0.21875 0.40625 0.32812 0.71875 0.32812 0.30078 0 0.53125-0.10938 0.6875-0.32812 0.16406-0.22656 0.25-0.55078 0.25-0.96875 0-0.41406-0.085937-0.73438-0.25-0.95312-0.15625-0.22656-0.38672-0.34375-0.6875-0.34375zm0-1c0.75 0 1.332 0.20312 1.75 0.60938 0.42578 0.40625 0.64062 0.96875 0.64062 1.6875s-0.21484 1.2812-0.64062 1.6875c-0.41797 0.40625-1 0.60938-1.75 0.60938-0.76172 0-1.3555-0.20312-1.7812-0.60938-0.42969-0.40625-0.64062-0.96875-0.64062-1.6875s0.21094-1.2812 0.64062-1.6875c0.42578-0.40625 1.0195-0.60938 1.7812-0.60938z"/>
  </symbol>
  <symbol id="q" overflow="visible">
   <path d="m5.0781-2.6719v2.6719h-1.4062v-2.0312c0-0.38281-0.011719-0.64844-0.03125-0.79688-0.011719-0.14453-0.039063-0.25-0.078125-0.3125-0.0625-0.09375-0.14062-0.16406-0.23438-0.21875-0.09375-0.050781-0.19922-0.078125-0.3125-0.078125-0.29297 0-0.52344 0.11719-0.6875 0.34375-0.16797 0.23047-0.25 0.54297-0.25 0.9375v2.1562h-1.4062v-6.0938h1.4062v2.3594c0.20703-0.25781 0.42969-0.44531 0.67188-0.5625 0.23828-0.125 0.5-0.1875 0.78125-0.1875 0.50781 0 0.89453 0.15625 1.1562 0.46875 0.25781 0.30469 0.39062 0.75 0.39062 1.3438z"/>
  </symbol>
  <symbol id="p" overflow="visible">
   <path d="m0.73438-5.8438h1.6875l2.125 4.0156v-4.0156h1.4219v5.8438h-1.6719l-2.125-4.0156v4.0156h-1.4375z"/>
  </symbol>
  <symbol id="o" overflow="visible">
   <path d="m0.625-1.7031v-2.6875h1.4062v0.45312 0.89062 0.71875c0 0.35547 0.003906 0.60938 0.015625 0.76562 0.019531 0.14844 0.054687 0.25781 0.10938 0.32812 0.050781 0.09375 0.125 0.16797 0.21875 0.21875 0.09375 0.042969 0.19531 0.0625 0.3125 0.0625 0.28906 0 0.51953-0.10938 0.6875-0.32812 0.16406-0.22656 0.25-0.53906 0.25-0.9375v-2.1719h1.4062v4.3906h-1.4062v-0.64062c-0.21094 0.26172-0.43359 0.45312-0.67188 0.57812-0.23047 0.11328-0.48438 0.17188-0.76562 0.17188-0.51172 0-0.90234-0.14844-1.1719-0.45312-0.26172-0.3125-0.39062-0.76562-0.39062-1.3594z"/>
  </symbol>
  <symbol id="n" overflow="visible">
   <path d="m0.73438-5.8438h2.5c0.75 0 1.3203 0.16797 1.7188 0.5 0.39453 0.32422 0.59375 0.79297 0.59375 1.4062 0 0.61719-0.19922 1.0898-0.59375 1.4219-0.39844 0.32422-0.96875 0.48438-1.7188 0.48438h-0.98438v2.0312h-1.5156zm1.5156 1.0938v1.625h0.82812c0.28906 0 0.51562-0.066406 0.67188-0.20312 0.15625-0.14453 0.23438-0.34766 0.23438-0.60938 0-0.25781-0.078125-0.45703-0.23438-0.59375-0.15625-0.14453-0.38281-0.21875-0.67188-0.21875z"/>
  </symbol>
  <symbol id="m" overflow="visible">
   <path d="m0.67188-4.3906h1.4062v4.3125c0 0.58203-0.14062 1.0312-0.42188 1.3438s-0.69531 0.46875-1.2344 0.46875h-0.6875v-0.92188h0.23438c0.26953 0 0.45312-0.0625 0.54688-0.1875 0.10156-0.11719 0.15625-0.35156 0.15625-0.70312zm0-1.7031h1.4062v1.1406h-1.4062z"/>
  </symbol>
  <symbol id="l" overflow="visible">
   <path d="m4.2188-4.25v1.1406c-0.19922-0.125-0.39062-0.21875-0.57812-0.28125s-0.38672-0.09375-0.59375-0.09375c-0.39844 0-0.70312 0.11719-0.92188 0.34375-0.21875 0.23047-0.32812 0.54688-0.32812 0.95312s0.10938 0.72656 0.32812 0.95312c0.21875 0.23047 0.52344 0.34375 0.92188 0.34375 0.21875 0 0.42578-0.03125 0.625-0.09375 0.19531-0.0625 0.37891-0.16016 0.54688-0.29688v1.1562c-0.21875 0.074219-0.44531 0.12891-0.67188 0.17188-0.23047 0.039062-0.45312 0.0625-0.67188 0.0625-0.79297 0-1.4141-0.20312-1.8594-0.60938-0.44922-0.40625-0.67188-0.96875-0.67188-1.6875s0.22266-1.2812 0.67188-1.6875c0.44531-0.40625 1.0664-0.60938 1.8594-0.60938 0.22656 0 0.45312 0.023437 0.67188 0.0625 0.21875 0.03125 0.44141 0.089844 0.67188 0.17188z"/>
  </symbol>
 </defs>
 <g>
  <path d="m428.93 320.64c0-0.0625-0.015626-0.14453-0.015626-0.22656-0.015624-0.0625-0.03125-0.12891-0.03125-0.20703-0.03125-0.12891-0.03125-0.27344-0.082031-0.40234-0.046875-0.14453-0.11328-0.27344-0.17578-0.40234-0.046875-0.12891-0.097656-0.25781-0.16016-0.36719-0.082032-0.12891-0.17578-0.22656-0.27344-0.33594-0.082031-0.11328-0.16016-0.22656-0.25781-0.30469-0.11328-0.11328-0.24219-0.17578-0.35156-0.27344-0.097656-0.0625-0.19141-0.14453-0.28906-0.20703-0.03125-0.015625-0.046875-0.015625-0.0625-0.015625-0.11328-0.0625-0.24219-0.11328-0.35156-0.17578l-10.398-5.2773c-0.94531-0.48047-2.0859-0.46484-3.0156 0.0625l-9.4492 5.3281c-0.046875 0.015625-0.11328 0.046875-0.16016 0.082031-0.22656 0.12891-0.41797 0.28906-0.60938 0.44922-0.03125 0.03125-0.082032 0.0625-0.11328 0.10938-0.17578 0.17578-0.33594 0.38672-0.48047 0.60938-0.046875 0.082031-0.0625 0.16016-0.11328 0.25781-0.082031 0.16016-0.16016 0.32031-0.20703 0.5-0.03125 0.10938-0.03125 0.22656-0.046875 0.33594-0.03125 0.16016-0.082031 0.33594-0.082031 0.51172v0.035156 137.99c0 1.1055 0.5625 2.1328 1.4922 2.7109l10.172 6.418c0.046874 0.035156 0.097656 0.035156 0.14453 0.0625 0.046875 0.035156 0.082031 0.0625 0.12891 0.097656 0.11328 0.046875 0.25781 0.082031 0.38672 0.12891 0.082031 0.03125 0.16016 0.082032 0.24219 0.097656 0.27344 0.0625 0.54688 0.11328 0.81641 0.11328 0.30469 0 0.60937-0.0625 0.89844-0.14453 0.097656-0.035156 0.17578-0.0625 0.27344-0.11328 0.19141-0.082031 0.38672-0.16016 0.57813-0.28906 0.046874-0.035157 0.11328-0.046875 0.16016-0.082031l10.156-7.4766c0.81641-0.60938 1.3008-1.5586 1.3008-2.582v-136.93c-0.007813-0.039062-0.023437-0.058594-0.023437-0.085937zm-16.559 138.66-3.7539-2.3594v-130.4l1.3164 0.81641 2.4375 1.5391zm3.207-135.97-3.9141-2.4531 3.4492-1.9414 4.125 2.0859zm6.9492 132.7-3.7383 2.7422v-129.87l0.85156-0.53125 2.8867-1.8281z"/>
  <path d="m698.32 279.64c-0.43359-0.53125-1.043-0.92969-1.75-1.0898l-540.73-125.68c-0.48047-0.11328-0.96094-0.11328-1.4297-0.015625l-151.9 33.695c-1.4453 0.33594-2.4883 1.6055-2.5039 3.0977 0 0.19141 0.015625 0.36719 0.046875 0.5625l3.1602-0.51172 3.1602-0.53125v0.015625c0.0625 0.33594 0.40234 2.1484 1.332 4.9414l490.94 122.33c4.3008 13.367 9.1133 24.949 14.504 34.836 0.54688 1.0117 1.1055 2.0039 1.668 2.9844 0.48438 0.81641 0.96484 1.6211 1.4297 2.4062 1.0586 1.7344 2.1328 3.418 3.2266 5.0391 1.3789 2.0391 2.7773 3.9805 4.2188 5.8242 0.48047 0.62891 0.96484 1.2383 1.4453 1.832 0.78516 0.96094 1.5703 1.8945 2.375 2.8086 1.1875 1.3633 2.4062 2.6602 3.6602 3.9141 1.6992 1.7031 3.4492 3.2891 5.2305 4.7969-23.168-7.2031-59.879-18.582-107.46-33.246v6.7227c83.773 25.801 133.32 41.316 133.82 41.48l0.12891-0.40234c8.1328 2.5039 16.957 3.7539 26.57 3.7539 7.0117 0 14.555-0.69141 22.414-2.0391 63.426-10.926 86.148-109 87.094-113.17l1.0273-4.6055zm-578.29-70.695c-1.2188-0.046875-2.3594-0.082031-3.418-0.082031-9.1289 0-12.676 1.6523-13.75 2.3438l-85.648-21.34 134.39-29.812c-1.0117 9.3047-5.6641 32.461-26.859 49.293-1.6367-0.20703-3.2266-0.33594-4.7188-0.40234zm376.28 61.309c-3.2266 0.16016-6.582 0.32031-10.094 0.32031-8.25 0-19.445-0.81641-32.879-7.3008-26.219-12.645-67.438-14.426-89.598-15.387-3.5938-0.14453-6.625-0.27344-8.9219-0.43359-2.3086-0.14453-4.125-0.20703-5.3125-0.17578-1.0273-0.51172-3.0469-1.3945-7.2031-2.8555-5.793-2.0391-14.152-3.0312-25.559-3.0312-11.152 0-23.152 0.92969-33.758 1.75-7.6875 0.59375-14.328 1.1055-18.773 1.1055-9.082 0-18.949-6.7539-29.41-13.895-6.3398-4.332-12.902-8.8086-19.527-11.84-11.602-5.3125-29.684-6.0977-39.422-6.0977-9.1953 0-17.699 0.69141-20.684 1.6992-0.11328 0.03125-0.54687 0.14453-1.5547 0.14453-3.1602 0-8.4883-1.1055-14.137-2.2617-2.0859-0.43359-4.2539-0.88281-6.4336-1.3008 19.801-18.242 24.102-41.527 25.016-50.719l521.3 121.18-112.12 18.469c-1.7656-0.48047-8.8906-4.957-15.195-8.9219-10.461-6.5938-23.492-14.777-32.57-18.422-4.0273-1.6055-8.5039-2.3281-14.52-2.3281-2.7812 0-5.6211 0.14453-8.6367 0.30469zm70.902 29.379-0.25781 0.03125v-0.046875c0.11328 0.003907 0.19531 0.003907 0.25781 0.015625zm43.582 91.203c-7.4922 1.2852-14.664 1.9414-21.324 1.9414-40.645 0-66.699-23.602-84.109-76.426l186.16-29.137c-5.3164 19.543-28.996 94.699-80.727 103.62z"/>
  <path d="m402.2 339.43v6.707c-20.586-6.2266-77.434-22.336-137.52-39.344-67.07-18.98-142.58-40.371-177.22-50.75v-6.707c33.664 10.156 110.7 31.961 178.97 51.297 58.375 16.508 113.7 32.184 135.78 38.797z"/>
  <path d="m64.988 242.51v6.7227c-1.0586-0.33594-2.0039-0.625-2.793-0.85156-54.508-16.352-61.789-56.062-62.145-58.133v-0.046875l3.1602-0.51172 3.1602-0.53125v0.015625c0.0625 0.33594 0.40234 2.1484 1.332 4.9414 3.5781 10.734 16.078 36.039 56.32 48.105 0.29297 0.097656 0.64453 0.19531 0.96484 0.28906z"/>
  <path d="m428.95 320.57c0 0.015626-0.015624 0.046876-0.015624 0.0625 0-0.0625-0.015626-0.14453-0.015626-0.22656 0.015626 0.050781 0.03125 0.11328 0.03125 0.16406z"/>
  <path d="m417.33 467.79c-0.082031 0.046876-0.12891 0.10938-0.19141 0.14453-0.12891 0.0625-0.25781 0.097656-0.38672 0.14453 0.19531-0.082031 0.38672-0.16406 0.57812-0.28906z"/>
  <path d="m77.969 350.95c-0.0625 0.046876-0.12891 0.11328-0.19141 0.14453-0.03125 0.015625-0.0625 0.035156-0.097656 0.035156 0.097656-0.066406 0.19141-0.11719 0.28906-0.17969z"/>
  <path d="m87.438 234.17c0-0.11328-0.03125-0.20703-0.03125-0.32031-0.03125-0.17578-0.046875-0.35156-0.097656-0.51172-0.03125-0.11328-0.097656-0.20703-0.12891-0.30469-0.082032-0.16016-0.12891-0.32031-0.22656-0.46484-0.0625-0.097656-0.14453-0.17578-0.22656-0.27344-0.097656-0.12891-0.19141-0.25781-0.30469-0.36719-0.097656-0.097656-0.22656-0.16016-0.32031-0.24219-0.11328-0.082032-0.19141-0.16016-0.30469-0.22656-0.03125-0.015625-0.046875-0.015625-0.0625-0.015625-0.11328-0.0625-0.24219-0.11328-0.35156-0.17578l-8.1367-4.1406c-0.96094-0.48047-2.1016-0.46484-3.0312 0.0625l-7.4297 4.1875c-0.046875 0.03125-0.097656 0.046875-0.14453 0.082031-0.75391 0.41797-1.3008 1.125-1.5391 1.9414v0.097656c-0.0625 0.24219-0.11328 0.49609-0.11328 0.75391v108.96c0 1.1055 0.5625 2.1172 1.4922 2.7109l8.0234 5.0703c0.046875 0.03125 0.097656 0.03125 0.14453 0.0625 0.046874 0.015625 0.082031 0.0625 0.12891 0.082031 0.11328 0.0625 0.24219 0.097656 0.36719 0.14453 0.097657 0.035156 0.17578 0.0625 0.25781 0.097656 0.27344 0.0625 0.54688 0.10938 0.81641 0.10938 0.30469 0 0.60938-0.0625 0.89844-0.14453 0.097656-0.03125 0.17578-0.0625 0.27344-0.097656s0.19141-0.082031 0.28906-0.12891c0.097656-0.0625 0.19141-0.11328 0.28906-0.17578 0.046875-0.03125 0.11328-0.046874 0.16016-0.082031l8.0234-5.9219c0.81641-0.60938 1.3008-1.5547 1.3008-2.582v-108.1c0-0.03125-0.015625-0.0625-0.015625-0.09375zm-14.426 108.29-1.6055-1.0117v-101.36l1.6055 1.0117zm3.207-106.93-0.64062-0.40234-1.125-0.70703 1.4102-0.80078 1.8789 0.94531zm4.8164 105.21-1.6055 1.1875v-100.83l1.6055-1.0117z"/>
  <use y="492.402344" xlink:href="#w"/>
  <use x="5.886719" y="492.402344" xlink:href="#c"/>
  <use x="9.84375" y="492.402344" xlink:href="#a"/>
  <use x="15.285156" y="492.402344" xlink:href="#d"/>
  <use x="20.699219" y="492.402344" xlink:href="#b"/>
  <use x="24.535156" y="492.402344" xlink:href="#a"/>
  <use x="29.976563" y="492.402344" xlink:href="#k"/>
  <use x="38.511719" y="492.402344" xlink:href="#f"/>
  <use x="44.253906" y="492.402344" xlink:href="#j"/>
  <use x="52.277344" y="492.402344" xlink:href="#i"/>
  <use x="58.484375" y="492.402344" xlink:href="#h"/>
  <use x="66.84375" y="492.402344" xlink:href="#a"/>
  <use x="72.285156" y="492.402344" xlink:href="#v"/>
  <use x="75.035156" y="492.402344" xlink:href="#u"/>
  <use x="77.785156" y="492.402344" xlink:href="#d"/>
  <use x="85.992188" y="492.402344" xlink:href="#t"/>
  <use x="94.84375" y="492.402344" xlink:href="#d"/>
  <use x="100.257812" y="492.402344" xlink:href="#b"/>
  <use x="104.089844" y="492.402344" xlink:href="#b"/>
  <use x="107.925781" y="492.402344" xlink:href="#a"/>
  <use x="113.367188" y="492.402344" xlink:href="#g"/>
  <use x="119.078125" y="492.402344" xlink:href="#f"/>
  <use x="124.820313" y="492.402344" xlink:href="#a"/>
  <use x="130.261719" y="492.402344" xlink:href="#c"/>
  <use x="134.21875" y="492.402344" xlink:href="#s"/>
  <use x="139.960938" y="492.402344" xlink:href="#a"/>
  <use x="145.402344" y="492.402344" xlink:href="#c"/>
  <use y="500.421875" xlink:href="#r"/>
  <use x="3.492188" y="500.421875" xlink:href="#c"/>
  <use x="7.445312" y="500.421875" xlink:href="#e"/>
  <use x="12.957031" y="500.421875" xlink:href="#h"/>
  <use x="24.109375" y="500.421875" xlink:href="#b"/>
  <use x="27.945312" y="500.421875" xlink:href="#q"/>
  <use x="33.65625" y="500.421875" xlink:href="#a"/>
  <use x="41.890625" y="500.421875" xlink:href="#p"/>
  <use x="48.605469" y="500.421875" xlink:href="#e"/>
  <use x="54.117188" y="500.421875" xlink:href="#o"/>
  <use x="59.828125" y="500.421875" xlink:href="#g"/>
  <use x="68.332031" y="500.421875" xlink:href="#n"/>
  <use x="74.214844" y="500.421875" xlink:href="#c"/>
  <use x="78.171875" y="500.421875" xlink:href="#e"/>
  <use x="83.683594" y="500.421875" xlink:href="#m"/>
  <use x="86.433594" y="500.421875" xlink:href="#a"/>
  <use x="91.871094" y="500.421875" xlink:href="#l"/>
  <use x="96.628906" y="500.421875" xlink:href="#b"/>
 </g>
</svg>
