<!-- Generated by IcoMoon.io -->
<svg version="1.1" xmlns="http://www.w3.org/2000/svg" width="32" height="32" viewBox="0 0 32 32">
<title>Fence-inspection</title>
<path d="M6.5 5.125c-0.125 0.125-0.75 1.188-1.375 2.438l-1.125 2.25v2.313h-0.813c-0.625 0-0.813 0.063-0.938 0.313-0.625 0.75-0.063 1.5 1 1.5h0.75v6.125h-0.688c-0.75 0-1.125 0.25-1.25 0.813-0.188 0.688 0.438 1.188 1.438 1.188h0.5v2.125c0 2.125 0 2.188 0.313 2.5 0.375 0.375 0.438 0.375 2.625 0.375 2.063 0 2.313-0.063 2.688-0.313l0.313-0.313v-4.375h4.125l0.375 2.313c0.563 2.938 0.5 2.875 2.375 2.75 1.563-0.125 1.875-0.25 2.563-1.063l0.563-0.563v-1.438c0-0.813-0.063-1.563-0.125-1.75-0.188-0.25-0.125-0.25 1.063-0.25h1.188v4.375l0.375 0.313c0.313 0.25 0.563 0.313 2.625 0.313 2.25 0 2.313 0 2.625-0.375 0.313-0.313 0.375-0.375 0.375-2.5v-2.125h0.438c1.063 0 1.625-0.5 1.5-1.188-0.188-0.563-0.5-0.813-1.25-0.813h-0.688v-6.125h0.688c1.125 0 1.625-0.75 1.063-1.5-0.188-0.25-0.375-0.313-1-0.313h-0.75v-1.188l-0.063-1.188-1.125-2.25c-1.75-3.375-2-3.375-3.688-0.063-1 2-1.063 2.063-1.125 3.313l-0.063 1.25-1.813 0.063c-2.063 0.063-1.813 0.25-2.125-1.688-0.25-1.063-0.25-1.125-1.75-3.063-0.813-1.125-1.688-2.063-1.813-2.063-0.375-0.125-0.875 0.063-1.063 0.313-0.063 0.125-0.438 1.25-0.813 2.563-0.563 2.063-0.625 2.438-0.5 3 0.188 1.063 0.25 1-1 0.938l-1.063-0.063-0.125-1.25c-0.063-1.25-0.063-1.313-1.063-3.313-1.188-2.313-1.625-2.75-2.375-2.313zM8 11.063v1.063l-1-0.063-0.938-0.063-0.063-0.875c-0.063-0.75 0-1 0.5-1.875l0.5-1.063 0.5 0.938c0.375 0.813 0.438 1.063 0.5 1.938zM25.563 9.25c0.438 0.875 0.5 1.125 0.438 1.875v0.875l-1 0.063-0.938 0.063v-1c0-0.875 0.063-1.188 0.438-1.938 0.25-0.5 0.5-0.938 0.5-0.938 0.063 0 0.313 0.438 0.563 1zM16.813 14.313c0.625 3.813 0.688 4.188 0.563 4.938l-0.188 0.813h-0.75c-0.563 0-0.75-0.063-0.75-0.188 0-0.063-0.438-2.25-0.875-4.75l-0.813-4.625 0.25-0.875c0.125-0.5 0.313-0.938 0.313-1.063 0.063-0.125 0.313 0.063 0.813 0.688l0.688 0.938zM8 19.5v5.563h-2v-11.125h2zM12.625 14.125c0.063 0.188 1.063 5.625 1.063 5.813 0 0.063-0.75 0.125-1.875 0.125h-1.875v-6.125h1.313c0.875 0 1.313 0.063 1.375 0.188zM22.063 17v3.063h-1.438c-1.563 0-1.5 0.063-1.25-0.938 0.125-0.5 0.063-1-0.25-2.563-0.5-2.875-0.625-2.625 1.313-2.625h1.625zM26.063 19.5v5.563h-2v-11.125h2zM17.75 22.688c0.375 0.813 0.438 1.813 0.063 2.125-0.125 0.125-0.438 0.25-0.688 0.313-0.5 0.063-0.5 0.063-0.75-1.375-0.063-0.5-0.188-1.063-0.25-1.313-0.063-0.375-0.063-0.375 0.625-0.375s0.688 0 1 0.625z"></path>
</svg>
