<!-- Generated by IcoMoon.io -->
<svg version="1.1" xmlns="http://www.w3.org/2000/svg" width="32" height="32" viewBox="0 0 32 32">
<title>Fence1</title>
<path d="M31.313 11.313c0.375 0 0.688-0.25 0.688-0.625v-2.688c0-0.375-0.313-0.688-0.688-0.688h-0.625v-2c0-0.125-0.063-0.25-0.125-0.375l-2-2.688c-0.313-0.313-0.813-0.313-1.125 0l-2 2.688c-0.063 0.125-0.125 0.25-0.125 0.375v2h-2.625v-2c0-0.125-0.063-0.25-0.125-0.375l-2-2.688c-0.25-0.313-0.813-0.313-1.125 0l-2 2.688c-0.063 0.125-0.125 0.25-0.125 0.375v2h-1.563l0.25-1.625c0-0.188 0-0.313-0.063-0.438l-1.625-2.938c-0.125-0.125-0.313-0.25-0.5-0.313-0.188 0-0.438 0.063-0.563 0.188l-2.375 2.375c-0.063 0.125-0.125 0.25-0.188 0.375l-0.313 2.375h-3.688v-2c0-0.125-0.063-0.25-0.125-0.375l-2-2.688c-0.25-0.313-0.813-0.313-1.125 0l-2 2.688c-0.063 0.125-0.125 0.25-0.125 0.375v2h-0.625c-0.375 0-0.688 0.313-0.688 0.688v2.688c0 0.375 0.313 0.625 0.688 0.625h0.625v5.375h-0.625c-0.375 0-0.688 0.25-0.688 0.625v2.688c0 0.375 0.313 0.688 0.688 0.688h0.625v4.625c0 0.375 0.313 0.688 0.688 0.688h4c0.375 0 0.688-0.313 0.688-0.688v-4.625h1.813l-0.563 4c0 0.188 0.063 0.375 0.125 0.5 0.125 0.125 0.313 0.25 0.5 0.25l3.938 0.563c0 0 0.063 0 0.063 0 0.375 0 0.625-0.25 0.688-0.563l0.688-4.75h3.375v4.625c0 0.375 0.313 0.688 0.688 0.688h4c0.375 0 0.688-0.313 0.688-0.688v-4.625h2.625v4.625c0 0.375 0.313 0.688 0.688 0.688h4c0.375 0 0.688-0.313 0.688-0.688v-4.625h0.625c0.375 0 0.688-0.313 0.688-0.688v-2.688c0-0.375-0.313-0.625-0.688-0.625h-0.625v-5.375zM15.188 11.313h2.125v5.375h-2.875zM22.688 11.313h2.625v5.375h-2.625zM6.688 11.313h3.125l-0.75 5.375h-2.375z"></path>
</svg>
