<!-- Generated by IcoMoon.io -->
<svg version="1.1" xmlns="http://www.w3.org/2000/svg" width="32" height="32" viewBox="0 0 32 32">
<title>Ferret</title>
<path d="M2.875 10.5c-0.5 0.188-0.563 0.313-0.5 0.5s-0.063 0.313-0.313 0.375c-0.375 0.125-0.375 0.188-0.313 0.688 0.063 0.313 0.125 0.75 0.125 0.938 0 0.25 0.063 0.75 0.125 1.125l0.188 0.75 0.188-0.5c0.063-0.25 0.25-0.438 0.313-0.438 0.188 0 0.188 0.375 0 0.438-0.313 0.125 0.125 0.688 0.5 0.688s0.625-0.313 0.375-0.625c-0.188-0.25 0-0.625 0.313-0.625 0.125 0 0.438 0.188 0.688 0.375l0.375 0.438 0.313-0.75c0.188-0.438 0.313-0.875 0.25-1-0.125-0.25-0.75-0.438-1.25-0.25-0.188 0.063-0.438 0.125-0.563 0-0.313-0.125-0.813-0.125-0.813 0.063 0 0.125-0.125 0.125-0.25 0s-0.313-0.188-0.438-0.125c-0.125 0.063-0.188 0-0.188-0.063 0-0.25 0.5-0.688 0.938-0.938 0.5-0.25 2-0.188 2.688 0.125 0.563 0.25 0.625 0.25 0.563 0-0.063-0.188 0-0.375 0.063-0.563 0.125-0.25 0.125-0.25-0.375-0.125-0.688 0.125-0.75 0.125-0.75 0s0.188-0.25 0.5-0.313c0.375-0.188 0.375-0.188 0.125-0.313-0.438-0.188-2.25-0.125-2.875 0.125zM14.563 10.563c-1.438 0.438-2.438 1-4.063 2.5-0.625 0.563-1.25 1-1.375 1-0.5 0-1.063-0.625-1.563-1.688-0.25-0.563-0.5-1-0.5-1s0 0.5 0 1.125c0 0.813-0.125 1.25-0.313 1.688-0.625 1.125-1.625 1.688-3 1.625-0.5-0.063-0.75 0-0.75 0.063 0 0.313 0.688 1.5 1.375 2.375 0.625 0.813 0.75 1.375 0.438 2-0.125 0.188-0.313 0.25-1.125 0.25-0.5 0-1 0.063-1.063 0.125-0.125 0.25 0.5 0.438 1.438 0.438 1.125 0 1.688 0.188 1 0.375-0.25 0-0.75 0.063-1.125 0.125-0.75 0.125-0.938 0.25-0.688 0.563 0.125 0.188 0.5 0.25 1.25 0.25 1.125 0 2.313-0.25 5.563-0.938 3.5-0.813 3.5-0.813 4.375-0.563 0.875 0.188 2.938 1.125 2.938 1.25 0 0.063-0.188 0.25-0.375 0.438l-0.375 0.313 0.375 0.25c0.375 0.25 0.438 0.25 1.313-0.063 1.375-0.438 4.125-1.813 4.438-2.188l0.25-0.313 0.813 0.25c2.25 0.688 4.75 0.313 6.125-1 0.625-0.625 0.5-1-0.563-1.438l-0.813-0.313-1.375 0.438c-0.938 0.313-1.625 0.438-2.25 0.438-0.813 0-0.875 0-1.063 0.375-0.188 0.563-0.313 0.25-0.125-0.5 0.375-1.625 0.063-3.375-0.75-4.938-0.875-1.688-2.375-2.813-4.188-3.25-1.188-0.25-3.25-0.25-4.25-0.063z"></path>
</svg>
