<!-- Generated by IcoMoon.io -->
<svg version="1.1" xmlns="http://www.w3.org/2000/svg" width="32" height="32" viewBox="0 0 32 32">
<title>Fined</title>
<path d="M24.313 21.188c0 1.813-0.563 3.375-1.75 4.688s-2.75 2.125-4.625 2.438v3.125c0 0.188-0.063 0.313-0.188 0.375-0.063 0.125-0.25 0.188-0.375 0.188h-2.438c-0.125 0-0.25-0.063-0.375-0.188s-0.188-0.25-0.188-0.375v-3.125c-0.813-0.125-1.563-0.313-2.25-0.563-0.75-0.25-1.375-0.5-1.813-0.813-0.5-0.25-0.938-0.563-1.375-0.813-0.375-0.313-0.625-0.563-0.813-0.688-0.125-0.125-0.25-0.25-0.313-0.313-0.188-0.25-0.188-0.5 0-0.75l1.813-2.438c0.063-0.063 0.25-0.188 0.438-0.188 0.125 0 0.313 0 0.375 0.188h0.063c1.375 1.188 2.813 1.938 4.313 2.25 0.438 0.063 0.938 0.125 1.375 0.125 0.938 0 1.813-0.25 2.5-0.75 0.75-0.5 1.125-1.25 1.125-2.188 0-0.313-0.125-0.625-0.25-0.938-0.188-0.313-0.375-0.563-0.625-0.75s-0.563-0.438-1.063-0.688c-0.438-0.25-0.875-0.438-1.188-0.563s-0.75-0.313-1.375-0.563c-0.5-0.188-0.875-0.375-1.125-0.438-0.25-0.125-0.625-0.313-1.125-0.5-0.438-0.188-0.813-0.375-1.063-0.563-0.313-0.125-0.625-0.375-1.063-0.625-0.375-0.25-0.688-0.5-0.938-0.75s-0.5-0.563-0.75-0.875c-0.313-0.375-0.5-0.688-0.625-1.063-0.188-0.313-0.313-0.75-0.375-1.188-0.125-0.438-0.188-0.875-0.188-1.375 0-1.625 0.563-3.063 1.75-4.313s2.688-2.063 4.563-2.375v-3.25c0-0.125 0.063-0.25 0.188-0.375s0.25-0.188 0.375-0.188h2.438c0.125 0 0.313 0.063 0.375 0.188 0.125 0.063 0.188 0.188 0.188 0.375v3.125c0.688 0.125 1.313 0.25 1.938 0.438 0.688 0.188 1.188 0.375 1.563 0.625 0.438 0.188 0.813 0.375 1.125 0.625 0.375 0.25 0.625 0.438 0.75 0.563 0.063 0.063 0.188 0.125 0.25 0.25 0.188 0.188 0.25 0.438 0.063 0.625l-1.438 2.625c-0.063 0.188-0.25 0.313-0.375 0.313-0.188 0-0.375 0-0.5-0.125-0.063-0.063-0.125-0.125-0.25-0.25-0.125-0.063-0.375-0.25-0.688-0.438-0.375-0.25-0.688-0.438-1.063-0.563-0.375-0.188-0.813-0.375-1.313-0.5-0.563-0.125-1.063-0.188-1.563-0.188-1.125 0-2.063 0.25-2.75 0.75-0.75 0.5-1.063 1.188-1.063 2 0 0.313 0.063 0.563 0.125 0.875 0.125 0.25 0.313 0.5 0.563 0.688 0.25 0.25 0.438 0.438 0.688 0.625 0.188 0.125 0.563 0.313 1 0.563 0.438 0.188 0.813 0.375 1.063 0.438 0.313 0.125 0.688 0.313 1.25 0.5 0.625 0.25 1.125 0.438 1.438 0.563 0.375 0.125 0.813 0.375 1.375 0.625 0.563 0.313 1 0.563 1.375 0.75 0.313 0.25 0.688 0.563 1.063 0.938 0.438 0.375 0.75 0.75 0.938 1.125 0.25 0.375 0.438 0.813 0.563 1.375 0.188 0.5 0.25 1.063 0.25 1.688z"></path>
</svg>
