<!-- Generated by IcoMoon.io -->
<svg version="1.1" xmlns="http://www.w3.org/2000/svg" width="32" height="32" viewBox="0 0 32 32">
<title>Fingerprint</title>
<path d="M11.875 30.875c-0.125 0-0.25 0-0.375-0.125-0.188-0.188-0.188-0.563 0-0.75l2.188-2.438c2.063-2.25 3.188-5.188 3.188-8.188v-2.25c0-0.313-0.25-0.563-0.563-0.563s-0.563 0.25-0.563 0.563v2c0 2.75-1 5.375-2.813 7.438l-2.313 2.5c-0.188 0.25-0.5 0.25-0.75 0.063-0.25-0.25-0.25-0.563-0.063-0.813l2.313-2.5c1.625-1.875 2.5-4.188 2.5-6.688v-2c0-0.938 0.75-1.688 1.688-1.688s1.625 0.75 1.625 1.688v2.25c0 3.313-1.188 6.438-3.438 8.875l-2.188 2.438c-0.125 0.125-0.25 0.188-0.438 0.188zM13.875 32c-0.125 0-0.25-0.063-0.375-0.125-0.25-0.25-0.25-0.563-0.063-0.813l1.875-2.063c2.438-2.625 3.75-6.063 3.75-9.625v-2.25c0-1.563-1.25-2.75-2.75-2.75s-2.75 1.188-2.75 2.75v2c0 2.188-0.813 4.313-2.25 5.938l-1.625 1.813c-0.25 0.188-0.563 0.25-0.813 0-0.188-0.188-0.25-0.563 0-0.75l1.563-1.813c1.313-1.438 2-3.25 2-5.188v-2c0-2.125 1.75-3.875 3.875-3.875s3.875 1.75 3.875 3.875v2.25c0 3.875-1.438 7.563-4.063 10.375l-1.813 2.063c-0.125 0.125-0.313 0.188-0.438 0.188zM16.875 32c-0.125 0-0.25-0.063-0.375-0.125-0.25-0.25-0.25-0.563-0.063-0.813l0.563-0.563c2.75-3.063 4.25-7 4.25-11.125v-2.25c0-2.75-2.188-5-4.938-5s-5 2.25-5 5v2c0 1.688-0.563 3.25-1.688 4.438l-1.438 1.625c-0.188 0.25-0.563 0.25-0.75 0.063-0.25-0.188-0.25-0.563-0.063-0.813l1.438-1.625c0.938-1 1.438-2.313 1.438-3.688v-2c0-3.375 2.688-6.063 6.063-6.063 3.313 0 6.063 2.688 6.063 6.063v2.25c0 4.375-1.625 8.625-4.563 11.875l-0.563 0.563c-0.063 0.125-0.25 0.188-0.375 0.188zM22.688 27.063c-0.063 0-0.125-0.063-0.188-0.063-0.313-0.125-0.438-0.438-0.313-0.75 0.25-0.688 0.5-1.375 0.688-2.125 0.063-0.313 0.375-0.438 0.688-0.375 0.25 0.063 0.438 0.375 0.375 0.688-0.188 0.75-0.438 1.5-0.75 2.25-0.063 0.188-0.313 0.375-0.5 0.375zM6.313 23.75c-0.125 0-0.25-0.063-0.375-0.188-0.25-0.188-0.25-0.563-0.063-0.75l1.313-1.438c0.563-0.625 0.875-1.375 0.875-2.25 0-0.25 0.188-0.5 0.5-0.5s0.563 0.25 0.563 0.5c0 1.125-0.375 2.188-1.125 3l-1.313 1.438c-0.063 0.125-0.25 0.188-0.375 0.188zM23.875 22.563c-0.063 0-0.063 0-0.125 0-0.25-0.063-0.5-0.313-0.438-0.625 0.125-0.875 0.188-1.688 0.188-2.563v-2.25c0-2.063-0.875-4-2.375-5.375-0.25-0.188-0.25-0.563-0.063-0.75 0.188-0.25 0.563-0.25 0.75-0.063 1.75 1.563 2.75 3.813 2.75 6.188v2.25c0 0.875-0.063 1.813-0.188 2.688 0 0.313-0.25 0.5-0.5 0.5zM8.563 17.625c-0.313 0-0.5-0.188-0.5-0.5 0-4.125 3-7.625 7.063-8.188 0.313-0.063 0.563 0.125 0.625 0.438s-0.188 0.563-0.438 0.625c-3.563 0.5-6.188 3.563-6.188 7.125 0 0.313-0.25 0.5-0.563 0.5zM19.625 10.688c-0.063 0-0.188 0-0.25-0.063-0.625-0.313-1.313-0.5-2.063-0.625-0.25-0.063-0.5-0.313-0.438-0.625s0.313-0.5 0.625-0.438c0.813 0.063 1.625 0.313 2.375 0.688 0.25 0.125 0.375 0.438 0.25 0.75-0.125 0.188-0.313 0.313-0.5 0.313zM5.313 21.5c-0.125 0-0.25 0-0.375-0.125-0.188-0.188-0.25-0.563-0.063-0.75l0.688-0.75c0.188-0.188 0.25-0.438 0.25-0.75v-2c0-2.688 1-5.25 2.875-7.188 0.188-0.25 0.563-0.25 0.75-0.063 0.25 0.25 0.25 0.563 0.063 0.813-1.688 1.75-2.563 4-2.563 6.438v2c0 0.563-0.188 1.125-0.563 1.5l-0.625 0.688c-0.125 0.125-0.313 0.188-0.438 0.188zM26.25 19.938c-0.313 0-0.563-0.25-0.563-0.563v-2.25c0-5.188-4.188-9.375-9.375-9.375-0.188 0-0.375 0-0.5 0-0.313 0-0.563-0.25-0.625-0.563 0-0.25 0.25-0.563 0.563-0.563 0.188 0 0.375 0 0.563 0 5.75 0 10.5 4.688 10.5 10.5v2.25c0 0.313-0.25 0.563-0.563 0.563zM10.625 9.5c-0.125 0-0.313-0.063-0.438-0.25-0.188-0.25-0.125-0.563 0.125-0.75 1-0.688 2.063-1.188 3.125-1.5 0.313-0.063 0.625 0.125 0.688 0.375 0.125 0.313-0.063 0.625-0.375 0.688-1 0.313-1.938 0.75-2.813 1.313-0.063 0.063-0.188 0.125-0.313 0.125zM4.188 17.125c0 0 0 0 0 0-0.313-0.063-0.563-0.313-0.563-0.625 0.313-6.75 5.875-12.063 12.688-12.063 0.625 0 1.188 0 1.813 0.125 0.313 0 0.5 0.313 0.5 0.625-0.063 0.313-0.375 0.5-0.625 0.438-0.563-0.063-1.125-0.125-1.688-0.125-6.188 0-11.313 4.875-11.563 11.063 0 0.313-0.25 0.563-0.563 0.563zM27.813 13.813c-0.25 0-0.438-0.188-0.5-0.375-0.563-1.563-1.375-2.938-2.5-4.188-0.188-0.188-0.188-0.563 0.063-0.75s0.563-0.188 0.75 0c1.25 1.375 2.125 2.875 2.688 4.563 0.125 0.313 0 0.625-0.313 0.688-0.063 0.063-0.125 0.063-0.188 0.063zM23.563 7.938c-0.125 0-0.25-0.063-0.313-0.125-1-0.75-2.063-1.313-3.188-1.688-0.313-0.063-0.438-0.375-0.375-0.688 0.125-0.313 0.438-0.438 0.75-0.375 1.188 0.438 2.375 1.063 3.438 1.875 0.25 0.188 0.313 0.5 0.125 0.75-0.125 0.188-0.25 0.25-0.438 0.25zM5 8.813c-0.125 0-0.25 0-0.313-0.125-0.25-0.188-0.313-0.5-0.125-0.75 1.625-2 3.688-3.625 6.063-4.625 0.25-0.063 0.625 0.063 0.688 0.313 0.125 0.313 0 0.625-0.25 0.75-2.188 0.875-4.125 2.375-5.625 4.25-0.125 0.125-0.25 0.188-0.438 0.188zM26.625 7.75c-0.125 0-0.25-0.063-0.375-0.188-2.625-2.75-6.188-4.25-9.938-4.25-1.063 0-2.125 0.125-3.188 0.375-0.313 0.063-0.563-0.125-0.688-0.438-0.063-0.25 0.125-0.563 0.438-0.625 1.125-0.313 2.25-0.438 3.438-0.438 4.063 0 7.875 1.625 10.75 4.625 0.188 0.188 0.188 0.563 0 0.75-0.125 0.125-0.25 0.188-0.438 0.188zM24.063 3c-0.125 0-0.188 0-0.313-0.063-0.5-0.25-1-0.5-1.563-0.688-0.25-0.125-0.375-0.438-0.313-0.75 0.125-0.25 0.438-0.438 0.75-0.313 0.563 0.25 1.125 0.5 1.688 0.813 0.25 0.125 0.375 0.438 0.188 0.75-0.063 0.188-0.25 0.25-0.438 0.25zM9.125 2.75c-0.188 0-0.375-0.125-0.5-0.313-0.125-0.313 0-0.625 0.25-0.75 2.375-1.125 4.813-1.688 7.438-1.688 1.375 0 2.688 0.188 4 0.5 0.313 0.063 0.5 0.313 0.375 0.625-0.063 0.313-0.313 0.5-0.625 0.438-1.25-0.313-2.5-0.438-3.75-0.438-2.438 0-4.75 0.5-6.938 1.563-0.063 0.063-0.188 0.063-0.25 0.063z"></path>
</svg>
