<!-- Generated by IcoMoon.io -->
<svg version="1.1" xmlns="http://www.w3.org/2000/svg" width="32" height="32" viewBox="0 0 32 32">
<title>Fireplace</title>
<path d="M1.375 23l3.875 1.188 8.75-2.188-11.375-3.625c-0.625-0.188-1.313-0.063-1.813 0.313s-0.813 0.938-0.813 1.625v0.813c0 0.813 0.563 1.625 1.375 1.875M30.625 27.125l-0.313-0.063-8.875 2.188 7.938 2.5c0.625 0.188 1.313 0.063 1.813-0.313s0.813-0.938 0.813-1.563v-0.813c0-0.875-0.563-1.688-1.375-1.938M31.25 20.563c-0.375-0.313-0.813-0.438-1.25-0.438l-0.5 0.063-28 7c-0.875 0.188-1.5 1-1.5 1.938v0.875c0 0.625 0.313 1.188 0.75 1.563 0.375 0.313 0.813 0.438 1.25 0.438l0.5-0.063 28-7c0.875-0.25 1.5-1 1.5-1.938v-0.875c0-0.625-0.313-1.188-0.75-1.563M11 16c1.688 3.813 8.063 6.063 11.25 1.375s0.438-12.188-5.25-17.375c0.938 5.375-9.813 7.563-6 16M14.375 14c0.875-0.875 3.063-2.063 3.313-6.063 4.75 3.188 2.688 10.813-0.875 10.188s-3.313-3.188-2.438-4.125"></path>
</svg>
