<svg xmlns="http://www.w3.org/2000/svg" xmlns:xlink="http://www.w3.org/1999/xlink" version="1.1" x="0px" y="0px" viewBox="0 0 100 125" style="enable-background:new 0 0 100 100;" xml:space="preserve"><path d="M18.1,48.7c0.4-1.2,1-2.6,1.7-4c0.9-2,2.2-3.8,3.6-5.6l4.3-5.2l-2.1,6.4c-0.9,2.7-1.3,5.4-1.3,8.2c0,2.2,0.3,4.4,0.9,6.6  l1.5,5.4L23,56.3c-0.6-0.7-1.2-1.5-1.6-2.4c-0.2-0.3-0.3-0.6-0.4-0.9c0,0.1-0.1,0.3-0.2,0.4c-2.4,7-1.1,14-1.1,14.1l0,0.1  c1.2,9.8,7.4,15.6,13.2,17c0.5,0.1,1.1,0.2,1.6,0.3l0.1,0l0.1,0c12.7,3.2,26.2-6.9,30-22.4l9.5-36c-0.6-0.7-1-1.6-1.3-2.7  c-0.4-1.8-0.3-4.1,0.2-6.3s1.6-4.2,2.9-5.6c1.5-1.6,3.2-2.3,4.8-1.8c1.6,0.4,2.7,1.8,3.2,4c0.4,1.8,0.3,4.1-0.2,6.3  c-0.6,2.2-1.6,4.2-2.9,5.6c-0.8,0.9-1.8,1.5-2.7,1.8L69,63.6c-2.1,8.6-7,16.1-13.5,20.9c-4.4,3.2-9.2,5.1-14.1,5.4  c-2.5,0.2-5,0-7.4-0.6c-0.7-0.1-1.3-0.2-2-0.4c-3.9-1-7.6-3.4-10.4-6.7c-3.2-3.8-5.2-8.6-5.8-13.9c-0.6-4.7-0.1-10.5,1.2-16  C17.3,50.7,18,48.9,18.1,48.7z M81.4,19.7c0.5-1.8,0.6-3.6,0.2-5c-0.3-1.1-0.7-1.8-1.3-2c-0.6-0.2-1.4,0.2-2.1,1.1  c-1,1-1.8,2.7-2.3,4.5c-0.4,1.4-0.5,2.8-0.4,4c0,0.3,0.1,0.7,0.2,1c0.3,1.1,0.7,1.8,1.3,2c0.6,0.2,1.4-0.2,2.1-1.1  c0.1-0.1,0.2-0.3,0.4-0.4C80.4,22.7,81,21.2,81.4,19.7z"/><text x="0" y="115" fill="#000000" font-size="5px" font-weight="bold" font-family="'Helvetica Neue', Helvetica, Arial-Unicode, Arial, Sans-serif">Created by Mu'as</text><text x="0" y="120" fill="#000000" font-size="5px" font-weight="bold" font-family="'Helvetica Neue', Helvetica, Arial-Unicode, Arial, Sans-serif">from the Noun Project</text></svg>