<svg xmlns="http://www.w3.org/2000/svg" version="1.1" viewBox="-5.0 -10.0 110.0 135.0">
 <path d="m29.895 79.137c-0.13672 0-0.26953-0.003907-0.39844-0.019531-2.0469-0.22266-4.2539-2.3477-5.7383-4.0938-2.1094-2.4688-4.1641-5.7422-5.9375-9.4727-2.9648-6.2148-4.707-12.781-5.1797-19.527-0.47266-6.7148 0.32812-13.383 2.3789-19.824 0.0625-0.20312 0.125-0.40625 0.19141-0.60156l0.17187-0.53125c0.003907-0.015625 0.007813-0.03125 0.015626-0.042968 0.015624-0.039063 0.023437-0.078126 0.039062-0.12109 0.035156-0.11719 0.082031-0.22266 0.15234-0.32031 0.35938-0.53906 1.0898-0.68359 1.625-0.32812 0.45312 0.30469 0.625 0.86328 0.46094 1.3516-0.015625 0.042969-0.03125 0.09375-0.042969 0.13672 0 0.003906-0.003906 0.007812-0.003906 0.015624l-0.17578 0.54688c-0.0625 0.19531-0.125 0.39453-0.19141 0.60156-3.9414 12.367-2.9883 25.734 2.6797 37.625 1.6875 3.543 3.6289 6.6406 5.6055 8.9531 1.9648 2.2969 3.4609 3.1992 4.2148 3.2812 0.73828 0.082031 2.3672-0.46094 4.7344-2.2188 2.3867-1.7734 4.9141-4.3008 7.3047-7.3203 3.4805-4.3828 9.6172-13.594 11.586-25.977 0.007812-0.046875 0.015625-0.09375 0.019531-0.14062 0.078125-0.57031 0.56641-1.0156 1.1641-1.0156 0.64844 0 1.1719 0.52344 1.1719 1.1719 0 0.058594-0.003907 0.12109-0.015626 0.17969-0.007812 0.058594-0.019531 0.11719-0.03125 0.17578-2.0547 12.906-8.4414 22.496-12.066 27.066-2.5195 3.1719-5.1953 5.8516-7.7383 7.7422-1.6953 1.2695-4.0508 2.707-5.9961 2.707zm-12.371-53.254zm0.007812-0.003906zm0.066406-0.074218v0 0zm0.039063-0.13281zm0-0.003906z"/>
 <path d="m29.672 79.125c-0.058594 0-0.12109-0.003906-0.17969-0.007812-1.0469-0.11719-1.8438-1.1875-2.6719-3.5742-0.66016-1.9102-1.2812-4.5273-1.793-7.5703-0.71875-4.2734-1.8359-13.172-1.2578-24.758 0.09375-1.8984 0.27344-3.8281 0.53906-5.7344 0.085937-0.64062 0.67969-1.0898 1.3203-1 0.64062 0.085937 1.0898 0.67969 1 1.3203-0.25391 1.8359-0.42578 3.6953-0.51562 5.5312-0.39453 7.9727-0.019531 16.227 1.0625 23.227 0.44531 2.8594 0.98438 5.3984 1.5742 7.3398 0.4375 1.4492 0.80078 2.2227 1.0234 2.6172 0.3125-0.34375 0.83984-1.0234 1.6016-2.3789 1.0117-1.7969 2.1094-4.1992 3.1719-6.9375 2.6172-6.7227 4.7891-14.82 6.1289-22.797 0.10938-0.64062 0.71094-1.0703 1.3477-0.96094 0.64062 0.10938 1.0703 0.71094 0.96094 1.3477-1.9375 11.582-5 20.172-6.6484 24.262-1.1719 2.9062-2.3633 5.3672-3.4375 7.1211-1.2578 2.0508-2.2383 2.9531-3.2266 2.9531zm0.37109-2.2344z"/>
 <path d="m49.219 58.91c-0.042969 0-0.082031 0-0.125-0.003906l-4.4219-0.47266c-10.484-1.1289-20.504-5.043-28.965-11.328l-2.6953-2c-0.51562-0.38672-0.62891-1.1172-0.24219-1.6406 0.38672-0.51562 1.1172-0.62891 1.6406-0.24219l2.6953 2c8.1289 6.0352 17.75 9.8008 27.82 10.883l4.4219 0.47266c0.64453 0.070313 1.1094 0.64453 1.0391 1.2891-0.070313 0.60156-0.57812 1.043-1.168 1.043z"/>
 <path d="m42.688 69.176c-0.03125 0-0.0625 0-0.09375-0.003906-8.875-0.69531-17.453-3.7188-24.797-8.7578l-2.4375-1.6719c-0.53125-0.36719-0.66797-1.0938-0.30469-1.6328 0.36719-0.53125 1.0938-0.66797 1.6328-0.30469l2.4375 1.6719c7.0078 4.8047 15.188 7.6953 23.652 8.3555 0.64453 0.046875 1.1289 0.61719 1.0781 1.2578-0.050781 0.62109-0.56641 1.0859-1.168 1.0859z"/>
 <path d="m47.285 46.371c-0.46875 0-0.94531-0.015625-1.4492-0.046875-4.4219-0.27734-9.6836-1.7734-14.809-4.2031-3.8906-1.8438-7.3984-4.0859-10.148-6.4844-2.7656-2.4141-4.6094-4.8516-5.3477-7.0664-0.53906-1.6094-0.46875-3.125 0.1875-4.3711 0.68359-1.2891 1.9219-2.2227 3.6914-2.7695 1.5469-0.48438 3.4609-0.65625 5.6836-0.51172 4.4219 0.27734 9.6836 1.7734 14.809 4.2031 3.8906 1.8438 7.3984 4.0859 10.148 6.4844 2.7656 2.4141 4.6094 4.8516 5.3477 7.0664 0.53906 1.6094 0.46875 3.125-0.1875 4.3711-0.68359 1.2891-1.9219 2.2227-3.6914 2.7695-1.1992 0.36719-2.6172 0.55859-4.2344 0.55859zm-23.613-23.164c-1.375 0-2.5938 0.15625-3.5586 0.45312-1.1562 0.35938-1.9336 0.91016-2.3125 1.6328-0.35547 0.67188-0.37109 1.5273-0.035156 2.5352 1.2734 3.8359 7.0078 8.7305 14.273 12.172 4.8633 2.3086 9.8203 3.7188 13.953 3.9844 1.9102 0.12109 3.5859-0.023437 4.8398-0.41406 1.1562-0.35937 1.9336-0.91016 2.3125-1.6328l1.0352 0.54688-1.0352-0.54688c0.35547-0.67188 0.37109-1.5273 0.035157-2.5352-1.2734-3.8359-7.0078-8.7305-14.273-12.172-4.8633-2.3086-9.8203-3.7188-13.953-3.9844-0.44141-0.023438-0.86719-0.039063-1.2812-0.039063z"/>
 <path d="m47.281 42.406c-1.9141 0-4.2109-0.33203-6.625-0.95703-2.6016-0.67188-5.2734-1.6562-7.9258-2.9141-4.1758-1.9766-7.875-4.4609-10.43-6.9961-1.1406-1.1328-2.0312-2.2617-2.5742-3.2617l-0.007812-0.019532c-0.33203-0.62109-0.35547-1.3438-0.058594-1.9766 0.29688-0.64062 0.85938-1.0898 1.5469-1.2305 0.70703-0.15234 1.5312-0.22266 2.457-0.22266 1.9141 0 4.2109 0.33203 6.625 0.95703 2.6016 0.67188 5.2734 1.6562 7.9258 2.9141 4.1758 1.9766 7.875 4.4609 10.43 6.9961 1.1406 1.1328 2.0312 2.2617 2.5742 3.2617 0 0 0 0.003907 0.003906 0.003907l0.007813 0.015624c0.33203 0.62109 0.35156 1.3359 0.058593 1.9766-0.29687 0.64062-0.85937 1.0898-1.5469 1.2305-0.71484 0.15234-1.5391 0.22266-2.4609 0.22266zm-25.414-15.098c0.4375 0.76562 1.1562 1.6562 2.0781 2.5703 2.3672 2.3516 5.8438 4.6797 9.7852 6.543 2.5234 1.1953 5.0469 2.125 7.5117 2.7656 2.2305 0.57812 4.3203 0.88281 6.0391 0.88281 0.67969 0 1.2812-0.046874 1.793-0.14062-0.44531-0.77344-1.1562-1.6562-2.0781-2.5703-2.3672-2.3516-5.8438-4.6797-9.7852-6.543-2.5234-1.1953-5.0469-2.125-7.5117-2.7656-2.2305-0.57812-4.3203-0.88281-6.0391-0.88281-0.68359 0-1.2812 0.042969-1.793 0.14062z"/>
 <path d="m64.73 46.305c-0.21484 0-0.43359-0.058594-0.62891-0.1875l-10.762-6.9062c-0.007813-0.003907-0.015625-0.007813-0.023438-0.015626-0.53906-0.35937-0.67969-1.0938-0.3125-1.625 0.35938-0.53125 1.0781-0.67187 1.6094-0.32031l10.75 6.8984c0.54688 0.35156 0.70312 1.0742 0.35156 1.6211-0.22266 0.34375-0.59766 0.53516-0.98438 0.53516z"/>
 <path d="m61.699 51.031c-0.21484 0-0.43359-0.058594-0.62891-0.1875l-7.8281-5.0195c-0.54688-0.35156-0.70313-1.0742-0.35156-1.6211s1.0742-0.70312 1.6211-0.35156l7.8281 5.0195c0.54688 0.35156 0.70312 1.0742 0.35156 1.6211-0.22656 0.34766-0.60156 0.53906-0.99219 0.53906z"/>
 <path d="m81.148 65.656c-0.625 0-1.2422-0.17969-1.7812-0.52734l-17.652-11.32c-1.5391-0.98438-1.9883-3.043-1-4.5781l3.0312-4.7305c0.48047-0.74609 1.2148-1.2578 2.0859-1.4492 0.86328-0.19141 1.7539-0.03125 2.4961 0.44922l17.648 11.32c1.5391 0.98438 1.9883 3.043 1 4.5781l-3.0312 4.7305c-0.48047 0.74609-1.2148 1.2578-2.0859 1.4492-0.23828 0.050781-0.47656 0.078125-0.71094 0.078125zm-0.52344-2.5c0.21875 0.14062 0.48047 0.1875 0.73438 0.13281 0.25391-0.054687 0.46875-0.20312 0.60938-0.42578l3.0312-4.7305c0.28906-0.44922 0.15625-1.0547-0.29297-1.3438l-17.648-11.32c-0.21875-0.14062-0.48047-0.1875-0.73438-0.13281-0.25391 0.054687-0.46875 0.20312-0.60938 0.42578l-3.0312 4.7305c-0.28906 0.44922-0.15625 1.0547 0.29297 1.3438z"/>
<text x="0.0" y="117.5" font-size="5.0" font-weight="bold" font-family="Arbeit Regular, Helvetica, Arial-Unicode, Arial, Sans-serif" fill="#000000">Created by Iconbunny</text><text x="0.0" y="122.5" font-size="5.0" font-weight="bold" font-family="Arbeit Regular, Helvetica, Arial-Unicode, Arial, Sans-serif" fill="#000000">from Noun Project</text></svg>