<!-- Generated by IcoMoon.io -->
<svg version="1.1" xmlns="http://www.w3.org/2000/svg" width="32" height="32" viewBox="0 0 32 32">
<title>Fishing</title>
<path d="M9.313 28.313c-0.25 1-0.625 2.688-1.125 3.375 0.875 0 5.563-0.125 6.125-2 0.625-2.313-2-1.813-2-1.813s-2.563-0.75-3 0.438zM17.563 19.375c-3.125-3.25-5.5-3.375-5.5-3.375l-5.188 3.938c0 0 1.313 1.313 1.688 2.313 3.125-0.75 9-2.875 9-2.875zM28 2.125h-1.563c0 5.25 3.563 7.625 3.563 10.625 0 1.938-1.063 3.5-2.875 3.5-1.875 0-3.938-1.813-3-4.438l1.313 0.813-1.188-3.125c-1.313 0.875-1.688 2.438-1.688 3.25 0 2.5 2.063 4.563 4.563 4.563 2.438 0 4.563-2.063 4.563-4.563 0-3.125-3.688-5.5-3.688-10.625zM27.625 23.438c-1.813-1.938-5.25-4.813-11.75-4.813-5.75 0-12.938 6.5-12.938 6.5s7.563 6.563 13.313 6.563c3.438 0 8.875-2.375 10.875-4.188l-1.688-1.688zM21.875 25.125c-1.063 0-1.938-0.875-1.938-1.938s0.875-1.938 1.938-1.938c1.063 0 1.938 0.875 1.938 1.938s-0.875 1.938-1.938 1.938zM21.875 23.563c-0.625 0-1.188-0.5-1.188-1.188 0-0.625 0.563-1.125 1.188-1.125 0.688 0 1.188 0.5 1.188 1.125 0 0.688-0.5 1.188-1.188 1.188zM0.313 19.938c0.938 1.438 1.438 3.25 1.438 5.188 0 2-0.5 3.813-1.438 5.25 3-0.375 5.25-2.5 5.25-5.25s-2.25-4.813-5.25-5.188zM27.125 0.313c0.688 0 1.313 0.563 1.313 1.313s-0.625 1.313-1.313 1.313c-0.75 0-1.313-0.563-1.313-1.313s0.563-1.313 1.313-1.313z"></path>
</svg>
