<!-- Generated by IcoMoon.io -->
<svg version="1.1" xmlns="http://www.w3.org/2000/svg" width="32" height="32" viewBox="0 0 32 32">
<title>Fish</title>
<path d="M8.438 18.5c-0.313 0-0.625-0.063-0.875-0.25l-5.125-3c-0.5-0.188-0.813-0.688-0.813-1.188s0.313-1 0.813-1.188l2.063-1.188c0.938-0.5 1.938-0.938 2.938-1.188l3.75-0.875c1-0.25 2.125-0.313 3.188-0.188l4.75 0.75c0.813 0.063 1.688-0.125 2.438-0.563l1.688-1.125c0.25-0.188 0.5-0.125 0.688 0.125 0.125 0.188 0.063 0.5-0.125 0.688l-1.75 1.125c-0.938 0.563-2 0.813-3.063 0.688l-4.813-0.688c-0.938-0.125-1.875-0.063-2.813 0.125l-3.688 0.875c-0.938 0.25-1.813 0.625-2.688 1.063l-2.125 1.188c-0.125 0.063-0.25 0.25-0.313 0.375 0.063 0.188 0.188 0.313 0.313 0.375l5.188 3c0.125 0.125 0.313 0.125 0.438 0.063s0.188-0.25 0.188-0.438l0.063-3.313c0-0.313 0.188-0.5 0.438-0.5s0.5 0.188 0.5 0.5l-0.063 3.375c0.063 0.5-0.188 1-0.625 1.25-0.188 0.125-0.375 0.125-0.563 0.125zM27.313 14.375c-0.25 0-0.5-0.063-0.75-0.188l-0.813-0.313c-0.813-0.313-2.063-0.813-2.75-1.188l-1.313-0.625c-0.125-0.063-0.25-0.25-0.25-0.438s0.063-0.313 0.188-0.438c0.188-0.063 0.375-0.063 0.5 0l1.313 0.625c0.688 0.375 1.875 0.875 2.625 1.188l0.875 0.313c0.25 0.125 0.5 0.125 0.813 0 0.25-0.125 0.438-0.313 0.563-0.563l1.125-2.875c0.063-0.188 0.188-0.313 0.375-0.313 0.188-0.063 0.375 0.063 0.438 0.188 0.125 0.125 0.125 0.313 0.063 0.5l-1.125 2.875c-0.313 0.75-1.063 1.25-1.875 1.25zM29.75 19.375c-0.188 0-0.313-0.063-0.438-0.25l-1.063-2.375c-0.25-0.563-0.875-0.875-1.5-0.688l-0.25 0.063c-0.813 0.25-2.125 0.625-2.938 0.813l-1.938 0.563c-0.25 0.063-0.5-0.125-0.563-0.375s0.063-0.5 0.313-0.563l1.938-0.5c0.813-0.25 2.125-0.625 2.938-0.875l0.25-0.063c1-0.313 2.125 0.188 2.625 1.188l1.063 2.438c0.063 0.125 0.063 0.313 0 0.438-0.125 0.125-0.25 0.188-0.438 0.188zM15.688 19.625c-0.375 0-0.75 0-1.125-0.125l-4.125-0.938c-0.25-0.063-0.438-0.313-0.375-0.563s0.313-0.438 0.563-0.375l4.125 0.938c0.875 0.188 1.813 0.125 2.688-0.125l1-0.438c0.938-0.313 1.938-0.375 2.938-0.188l1.125 0.375c0.25 0.063 0.438 0.375 0.313 0.625-0.063 0.25-0.313 0.375-0.563 0.313l-1.188-0.375c-0.75-0.125-1.563-0.063-2.25 0.188l-1.063 0.375c-0.625 0.25-1.375 0.313-2.063 0.313zM6.438 13.75c0 0.375-0.313 0.688-0.688 0.688s-0.625-0.313-0.625-0.688c0-0.375 0.25-0.625 0.625-0.625s0.688 0.25 0.688 0.625zM12.063 16.063c-0.25 0-0.438-0.125-0.5-0.375-0.063-0.188 0.063-0.438 0.25-0.563l1.875-0.875h-2.875c-0.25 0-0.438-0.188-0.438-0.5 0-0.125 0.063-0.25 0.125-0.313s0.188-0.125 0.375-0.125h1.625c0.5 0 1.313 0 1.813 0h0.625c0.5 0 0.75 0.125 0.875 0.5 0.063 0.313-0.125 0.563-0.563 0.813l-3 1.375c-0.063 0.063-0.125 0.063-0.188 0.063z"></path>
</svg>
