<!-- Generated by IcoMoon.io -->
<svg version="1.1" xmlns="http://www.w3.org/2000/svg" width="26" height="32" viewBox="0 0 26 32">
<title>Flamingo</title>
<path d="M19.917 4.016l-0.086-0.264c0.378-1.229-0.657-2.472-2.172-2.472h-0.424c-1.716 0-2.955 1.643-2.482 3.293l1.389 4.848c0.14 0.489-0.227 0.976-0.736 0.976-0.423 0-0.765-0.343-0.765-0.765v-0.552c0-1.707-1.384-3.090-3.090-3.090-0.059 0-0.313 0.016-0.369 0.023-3.092 0.31-5.58 3.196-5.58 6.484 0 0.675 0.102 1.326 0.291 1.938l2.373-1.979h2.315l-3.453 2.88c-0.112 0.093-0.154 0.249-0.104 0.386s0.181 0.23 0.327 0.23h4.465l0.001 8.37 3.491-0c0-0.397-0.322-0.72-0.72-0.72h-2.143v-7.65h2.155v2.565h0.001c0.397 0 0.719-0.322 0.719-0.719v-1.756c0-0.398-0.322-0.72-0.72-0.72v0 0h-2.155v-2.865h2.984c1.544 0 2.659-1.479 2.233-2.963l-1.482-5.166c-0.226-0.787 0.365-1.572 1.184-1.572v0c0.68 0 1.232 0.552 1.232 1.232v1.438c0 0.215-0.043 0.426-0.127 0.624l-0.111 0.261 0.586-0.231c0.819-0.322 1.244-1.225 0.973-2.061zM11.815 15.32h-3.687l3.436-2.865h0.251v2.865z"></path>
</svg>
