<svg xmlns="http://www.w3.org/2000/svg" data-name="Layer 1" viewBox="0 0 39.52 51.887499999999996" x="0px" y="0px"><path d="M43.87,40.59a10.58,10.58,0,0,0-3.39.48,8.8,8.8,0,0,1-2.9.42,8.8,8.8,0,0,1-2.9-.42,10.58,10.58,0,0,0-3.39-.48,10.58,10.58,0,0,0-3.39.48,9.82,9.82,0,0,1-1.67.36.22.22,0,0,0,0-.08V35.21l.07-.05a10.65,10.65,0,0,1,1.26-.8,8.67,8.67,0,0,0,1.17,1.23,6.29,6.29,0,0,0,4.19,1.64,6,6,0,0,0,1.11-.1,7.9,7.9,0,0,0,5-3.21A4.73,4.73,0,0,1,41.54,32a1.26,1.26,0,0,0,1-.9c.16-.62-.18-1.31-1-2.05-1.73-1.55-5.89-3.49-9.72-2.06-3.45,1.28-4.61,4.82-4.85,5.67l-.7.4V22.3c.13-.15.27-.3.41-.44a7,7,0,0,0,.91.46,5,5,0,0,0,1.9.39,4.59,4.59,0,0,0,2.18-.56,5.83,5.83,0,0,0,2.73-3.39,3,3,0,0,1,1.11-1.68A1.16,1.16,0,0,0,36.05,16c0-.56-.47-1-1.28-1.37a8,8,0,0,0-3.28-.54,6.63,6.63,0,0,0-3.89,1.38,6.18,6.18,0,0,0-2.05,5c-.26.25-.49.49-.71.74a1,1,0,0,0-.18.3.94.94,0,0,0-.2.57v1.41l-.67-.23A7.35,7.35,0,0,0,19.05,19c-3.42-.8-6.75,1.3-8,2.8-.65.75-.86,1.41-.64,2a1.17,1.17,0,0,0,1,.73,4,4,0,0,1,2.19,1.3A6.83,6.83,0,0,0,18.21,28h.27a5.44,5.44,0,0,0,4.11-1.91A7.85,7.85,0,0,0,23.38,25a9.38,9.38,0,0,1,.93.35l.15,0v11.2l-1.05-.21c-.41-.71-2.41-3.8-6-4.14-4-.38-7.41,2.5-8.64,4.4-.59.9-.73,1.65-.42,2.2a1.22,1.22,0,0,0,1.16.61,4.6,4.6,0,0,1,2.79,1.17c.4.27.82.56,1.3.83a9.76,9.76,0,0,1-1.17.06,8.8,8.8,0,0,1-2.9-.42,10.58,10.58,0,0,0-3.39-.48.89.89,0,1,0,0,1.78,9.14,9.14,0,0,1,2.9.41,10.52,10.52,0,0,0,3.39.49,10.52,10.52,0,0,0,3.39-.49,9.14,9.14,0,0,1,2.9-.41,9.14,9.14,0,0,1,2.9.41,10.52,10.52,0,0,0,3.39.49,10.52,10.52,0,0,0,3.39-.49,9.14,9.14,0,0,1,2.9-.41,9.14,9.14,0,0,1,2.9.41,10.52,10.52,0,0,0,3.39.49A10.52,10.52,0,0,0,41,42.78a9.14,9.14,0,0,1,2.9-.41.89.89,0,0,0,0-1.78ZM32.41,28.67a7.86,7.86,0,0,1,5.51.28,8.2,8.2,0,0,1,2.53,1.54,7,7,0,0,0-2.74,2.28,6.23,6.23,0,0,1-4,2.61,4.47,4.47,0,0,1-3.79-1.1,7.66,7.66,0,0,1-.7-.69A17.07,17.07,0,0,1,35,32.52a.89.89,0,0,0,.92-.87.88.88,0,0,0-.86-.91,18.15,18.15,0,0,0-5.82,1A6,6,0,0,1,32.41,28.67ZM21.26,24.86a3.6,3.6,0,0,1-3,1.31,5.14,5.14,0,0,1-3.52-1.72,6.36,6.36,0,0,0-2.38-1.58,7,7,0,0,1,1.82-1.39,6.43,6.43,0,0,1,4.43-.79,4.9,4.9,0,0,1,2.79,2c-.63-.1-1.29-.18-2-.23a.89.89,0,0,0-.13,1.78,19.48,19.48,0,0,1,2.22.28A3.17,3.17,0,0,1,21.26,24.86Zm7.46-8a5.22,5.22,0,0,1,3.43-1,6,6,0,0,1,1.64.29,6,6,0,0,0-1.07,1.92,4.06,4.06,0,0,1-1.93,2.48,2.92,2.92,0,0,1-2.67.05c.48-.34.95-.63,1.34-.86a.89.89,0,0,0,.33-1.21.9.9,0,0,0-1.22-.33c-.38.22-.74.45-1.09.68A3.75,3.75,0,0,1,28.72,16.87ZM10.18,37.69a7.77,7.77,0,0,1,2-2A7.56,7.56,0,0,1,17.23,34,6,6,0,0,1,21,36.11a24.94,24.94,0,0,0-5.71.43.87.87,0,0,0-.68,1.05.89.89,0,0,0,1,.69,23.52,23.52,0,0,1,5.66-.36,6.73,6.73,0,0,1-.42.69,4.3,4.3,0,0,1-3.26,2,6,6,0,0,1-4.38-1.45A7,7,0,0,0,10.18,37.69Zm11.13,3.17a6.86,6.86,0,0,0,1.14-1.3,8.93,8.93,0,0,0,.77-1.43c.42.07.83.17,1.24.28v2.94a.53.53,0,0,0,0,.13,8.87,8.87,0,0,1-2.37-.41Z" transform="translate(-5.24 -4.24)"/><path d="M18.27,10.61a.89.89,0,0,0,.89-.89V7.65a.89.89,0,0,0-1.78,0V9.72A.89.89,0,0,0,18.27,10.61Z" transform="translate(-5.24 -4.24)"/><path d="M43.12,13.42a.89.89,0,0,0,.89-.89V10.46a.89.89,0,0,0-1.78,0v2.07A.89.89,0,0,0,43.12,13.42Z" transform="translate(-5.24 -4.24)"/><path d="M38.39,8.09a.88.88,0,0,0,.89-.88V5.13a.89.89,0,0,0-1.78,0V7.21A.88.88,0,0,0,38.39,8.09Z" transform="translate(-5.24 -4.24)"/><path d="M23.6,16.67a.89.89,0,0,0,.89-.89V13.71a.89.89,0,0,0-1.78,0v2.07A.89.89,0,0,0,23.6,16.67Z" transform="translate(-5.24 -4.24)"/><path d="M7.33,23a.88.88,0,0,0,.89-.88V20.07a.89.89,0,0,0-1.78,0v2.08A.88.88,0,0,0,7.33,23Z" transform="translate(-5.24 -4.24)"/><path d="M7.18,33.83a.89.89,0,0,0,.89-.89V30.87a.89.89,0,0,0-1.78,0v2.07A.89.89,0,0,0,7.18,33.83Z" transform="translate(-5.24 -4.24)"/><path d="M13.39,30V27.91a.89.89,0,1,0-1.78,0V30a.89.89,0,0,0,1.78,0Z" transform="translate(-5.24 -4.24)"/><path d="M25.52,8.09a.88.88,0,0,0,.89-.88V5.13a.89.89,0,1,0-1.78,0V7.21A.88.88,0,0,0,25.52,8.09Z" transform="translate(-5.24 -4.24)"/><path d="M43,23.33V25.4a.89.89,0,0,0,1.78,0V23.33a.89.89,0,0,0-1.78,0Z" transform="translate(-5.24 -4.24)"/><path d="M35.28,22.44v2.07a.89.89,0,0,0,1.78,0V22.44a.89.89,0,1,0-1.78,0Z" transform="translate(-5.24 -4.24)"/><path d="M42.09,34.86a.89.89,0,0,0-.89.89v2.08a.89.89,0,0,0,1.78,0V35.75A.89.89,0,0,0,42.09,34.86Z" transform="translate(-5.24 -4.24)"/><path d="M38.54,15.93V18a.89.89,0,1,0,1.77,0V15.93a.89.89,0,1,0-1.77,0Z" transform="translate(-5.24 -4.24)"/><path d="M32.92,12.24a.89.89,0,0,0,.89-.89V9.28a.89.89,0,0,0-1.78,0v2.07A.89.89,0,0,0,32.92,12.24Z" transform="translate(-5.24 -4.24)"/><path d="M14.57,16.82a.89.89,0,0,0,.89-.89V13.86a.89.89,0,1,0-1.78,0v2.07A.89.89,0,0,0,14.57,16.82Z" transform="translate(-5.24 -4.24)"/><path d="M10,9.43a.89.89,0,0,0,.89-.89V6.47a.89.89,0,0,0-1.78,0V8.54A.89.89,0,0,0,10,9.43Z" transform="translate(-5.24 -4.24)"/><path d="M19.27,43.83a14.46,14.46,0,0,1-3,.12.89.89,0,1,0-.1,1.77c.11,0,.6,0,1.23,0a10.77,10.77,0,0,0,2.3-.2.89.89,0,1,0-.41-1.73Z" transform="translate(-5.24 -4.24)"/><path d="M34.1,43.48a6.29,6.29,0,0,1-2.37,0,.89.89,0,0,0-1.06.67.91.91,0,0,0,.68,1.07,7.88,7.88,0,0,0,1.59.15,7.75,7.75,0,0,0,1.53-.15.89.89,0,1,0-.37-1.74Z" transform="translate(-5.24 -4.24)"/><text x="0" y="56.51" fill="#000000" font-size="5px" font-weight="bold" font-family="'Helvetica Neue', Helvetica, Arial-Unicode, Arial, Sans-serif">Created by Chatchai Pripimuk</text><text x="0" y="61.51" fill="#000000" font-size="5px" font-weight="bold" font-family="'Helvetica Neue', Helvetica, Arial-Unicode, Arial, Sans-serif">from the Noun Project</text></svg>