<!-- Generated by IcoMoon.io -->
<svg version="1.1" xmlns="http://www.w3.org/2000/svg" width="32" height="32" viewBox="0 0 32 32">
<title>Footprint</title>
<path d="M10.5 11.5c0 0.75-0.625 1.375-1.375 1.375s-1.375-0.625-1.375-1.375c0-0.813 0.625-1.375 1.375-1.375s1.375 0.563 1.375 1.375zM23.875 5c0 1.5-1.25 2.75-2.813 2.75s-2.813-1.25-2.813-2.75c0-1.563 1.25-2.813 2.813-2.813s2.813 1.25 2.813 2.813zM17 5.875c0 0.938-0.75 1.75-1.75 1.75-0.938 0-1.75-0.813-1.75-1.75 0-1 0.813-1.75 1.75-1.75 1 0 1.75 0.75 1.75 1.75zM23.313 23.688c-0.438-0.688-0.688-1.563-0.688-2.438 0-0.813 0.188-1.563 0.563-2.188h-0.063c0.75-1.063 1.125-2.313 1.125-3.688 0-3.625-2.938-6.563-6.563-6.563s-6.563 2.938-6.563 6.563c0 0.75 0.125 1.438 0.313 2.063 0.125 0.563 0.375 1.125 0.688 1.563l-0.063 0.063 4.75 8.188c0.5 1.5 1.938 2.563 3.563 2.563 2.125 0 3.75-1.688 3.75-3.75 0-0.875-0.313-1.688-0.813-2.375zM12.938 8.563c0 0.75-0.625 1.375-1.375 1.375s-1.375-0.625-1.375-1.375c0-0.813 0.625-1.438 1.375-1.438s1.375 0.625 1.375 1.438z"></path>
</svg>
