<!-- Generated by IcoMoon.io -->
<svg version="1.1" xmlns="http://www.w3.org/2000/svg" width="32" height="32" viewBox="0 0 32 32">
<title>Foot-patrol</title>
<path d="M20 16c-0.75 0-8 0-8 0s-2 0-2 2c0 0.75 0 12 0 12h12v-12c0 0 0-2-2-2zM19 11c0 1.688-1.313 3-3 3s-3-1.313-3-3c0-1.688 1.313-3 3-3s3 1.313 3 3zM11 5c0 1.688-1.313 3-3 3s-3-1.313-3-3c0-1.688 1.313-3 3-3s3 1.313 3 3zM12 14v0c-0.625-0.813-1-1.875-1-3 0-0.313 0.063-0.688 0.125-1-2.188 0-7.125 0-7.125 0s-2 0-2 2c0 0.75 0 12 0 12h6v-6c0-4 4-4 4-4zM30 12c0 0 0-2-2-2-0.563 0-5.125 0-7.125 0 0.063 0.313 0.125 0.688 0.125 1 0 1.125-0.375 2.188-1 3v0c4 0 4 4 4 4v6h6zM27 5c0 1.688-1.313 3-3 3s-3-1.313-3-3c0-1.688 1.313-3 3-3s3 1.313 3 3z"></path>
</svg>
