<!-- Generated by IcoMoon.io -->
<svg version="1.1" xmlns="http://www.w3.org/2000/svg" width="26" height="32" viewBox="0 0 26 32">
<title>Foraging</title>
<path d="M9.984 8.243c-1.931 0-3.497 1.566-3.497 3.497s1.566 3.497 3.497 3.497c1.931 0 3.497-1.566 3.497-3.497v0c0-1.931-1.566-3.497-3.497-3.497v0zM12.672 12.8c-0.212 0-0.384-0.458-0.384-1.024s0.172-1.024 0.384-1.024 0.384 0.458 0.384 1.024-0.172 1.024-0.384 1.024z"></path>
<path d="M21.76 11.443c-1.288 0-2.332 1.044-2.332 2.332s1.044 2.332 2.332 2.332c1.288 0 2.332-1.044 2.332-2.332v0c0-1.288-1.044-2.332-2.332-2.332v0zM23.552 14.336c-0.141 0-0.256-0.305-0.256-0.684s0.115-0.684 0.256-0.684 0.256 0.305 0.256 0.684-0.115 0.684-0.256 0.684z"></path>
<path d="M25.344 12.698c-0-1.907-1.146-3.547-2.786-4.269l-0.030-0.012c-1.637-3.559-5.172-5.986-9.273-5.986-1.276 0-2.497 0.235-3.622 0.664l0.070-0.023c-0.475-0.115-1.020-0.181-1.58-0.181-3.861 0-6.991 3.13-6.991 6.991 0 2.025 0.861 3.849 2.236 5.125l0.004 0.004c1.118 4.495 5.118 7.773 9.884 7.773 4.013 0 7.484-2.324 9.138-5.701l0.027-0.060c1.728-0.708 2.924-2.377 2.924-4.326 0-0 0-0.001 0-0.001v0zM10.752 20.736c-0.768-0.512-0.512-1.536-0.512-1.536l2.304 1.536s-1.024 0.512-1.792 0zM8.131 16.625q-0.177 0-0.351 0h-0.1l-0.256-0.020-0.11-0.015-0.233-0.031-0.108-0.018-0.233-0.044-0.084-0.036-0.236-0.056-0.087-0.026-0.241-0.069-0.074-0.026-0.256-0.087-0.061-0.026-0.256-0.102-0.051-0.023-0.256-0.12-0.018-0.018c-0.087-0.044-0.174-0.090-0.256-0.138l-0.028-0.015q-0.133-0.074-0.256-0.156h-0.018q-0.133-0.084-0.256-0.174v0q-0.131-0.092-0.256-0.192v0q-0.131-0.1-0.256-0.207v0q-0.256-0.215-0.481-0.456c-1.142-1.204-1.844-2.835-1.844-4.629 0-3.718 3.014-6.733 6.733-6.733 1.214 0 2.353 0.321 3.336 0.883l-0.033-0.017h0.015q0.256 0.143 0.481 0.305v0c0.478 0.336 0.893 0.712 1.257 1.133l0.007 0.009 0.028 0.033q0.172 0.202 0.328 0.42l0.036 0.049c0.102 0.143 0.2 0.292 0.289 0.445l0.026 0.044c0.168 0.281 0.329 0.609 0.463 0.95l0.016 0.046 0.018 0.046c0.061 0.164 0.115 0.333 0.164 0.512l0.023 0.082q0.069 0.256 0.118 0.512l0.015 0.090c0.031 0.174 0.056 0.351 0.072 0.53 0 0.023 0 0.046 0 0.069 0.015 0.189 0.026 0.379 0.026 0.571-0.022 3.709-3.034 6.707-6.745 6.707-0.004 0-0.007 0-0.011 0h0.001zM22.584 16.666c-0.133 0.064-0.271 0.12-0.412 0.172l-0.049 0.018-0.223 0.072c-0.084 0.026-0.172 0.046-0.256 0.067l-0.148 0.031c-0.11 0.020-0.223 0.038-0.335 0.051h-0.077c-0.133 0-0.256 0.020-0.399 0.020-2.433 0-4.406-1.973-4.406-4.406s1.973-4.406 4.406-4.406v0c0.133 0 0.256 0 0.397 0.020h0.087c0.118 0.013 0.233 0.031 0.348 0.054l0.133 0.028c0.079 0.018 0.156 0.038 0.233 0.061s0.166 0.051 0.256 0.079l0.136 0.049c0.17 0.066 0.307 0.128 0.44 0.196l-0.025-0.012c1.44 0.742 2.407 2.219 2.407 3.922 0 1.74-1.010 3.243-2.476 3.957l-0.026 0.011z"></path>
</svg>
