<!-- Generated by IcoMoon.io -->
<svg version="1.1" xmlns="http://www.w3.org/2000/svg" width="32" height="32" viewBox="0 0 32 32">
<title>Fox</title>
<path d="M4.25 14.688v0c-0.25 0-0.438 0.188-0.438 0.375v0.75c0 1.188 0.75 2.25 1.938 2.563l0.563 0.188c0.25 0.063 0.438-0.063 0.563-0.25v0c0.063-0.25-0.063-0.438-0.313-0.563l-0.625-0.125c-0.75-0.25-1.313-1-1.313-1.813v-0.75c0-0.188-0.188-0.375-0.375-0.375zM5.688 20.563v0l0.938 3.188-0.313 4.5h-0.563c-0.188 0-0.375 0.188-0.375 0.438 0 0.188 0.188 0.375 0.375 0.375h4.563l1.125-5.75-0.563-3.625c-0.063-0.375-0.313-0.688-0.688-0.813l-1.875-0.563c-0.188-0.063-0.438 0.063-0.5 0.25v0c-0.063 0.25 0.063 0.438 0.25 0.5l1.938 0.563c0.063 0.063 0.063 0.125 0.063 0.188l0.563 3.5-1 4.938h-0.875l0.688-4.938-0.625-2.688-2.938-0.813c-2.188-0.625-3.75-2.688-3.75-5v-2.313c0.188 0.125 0.313 0.25 0.5 0.375l1.125 0.688c0.438 0.25 0.938 0.375 1.438 0.375s0.938-0.125 1.375-0.375l1.125-0.688c0.5-0.313 0.875-0.75 1.125-1.25 1.063 1.5 2.813 2.438 4.625 2.438h5.063c2.188 0 3.813 2.188 3.813 4.188 0 0.938-0.375 1.875-1.063 2.563l-0.188 0.25h-0.063c-0.5 0.938-0.375 2.063 0.313 2.813 0.188 0.25 0.313 0.5 0.188 0.813l-1.188 3.563h-0.875l1.125-3.625-0.375-0.125c-1.625-0.625-3-1.75-4-3.188-0.438-0.688-0.688-1.313-0.875-1.688-0.063-0.188-0.25-0.313-0.438-0.25v0c-0.25 0.063-0.375 0.313-0.313 0.5s0.125 0.375 0.25 0.625h-2.563c-0.25 0-0.375 0.188-0.375 0.438v0c0 0.188 0.125 0.375 0.375 0.375h1.125c0.688 1.063 1.438 1.875 2.313 2.5 0.688 0.5 1.438 0.875 2.188 1.125l-1.063 3.313h-0.625c-0.188 0-0.375 0.188-0.375 0.438 0 0.188 0.188 0.375 0.375 0.375h4.75l1.313-4.125c0.188-0.563 0.063-1.188-0.313-1.625-0.5-0.438-0.563-1.188-0.25-1.75l0.188-0.188c0.125-0.188 0.25-0.375 0.438-0.563v1.813c0 3.313 2.5 6.063 5.688 6.438v0h0.063c0.188 0 0.438 0 0.625 0h1.563c0.25 0 0.438-0.188 0.438-0.375 0-0.25-0.188-0.438-0.375-0.438-1.563-0.188-2.75-1.5-2.75-3.125v-4.25c0-3.938-3-7.188-6.813-7.625v0h-0.125c-0.25 0-0.5 0-0.75 0h-6.438c-1.875 0-3.563-1.125-4.438-2.813v-2.25c0-0.063 0-0.063 0-0.063v0-4.438c0-0.188-0.063-0.375-0.188-0.563-0.25-0.25-0.688-0.25-0.938-0.125-0.5 0.313-0.875 0.688-1.188 1.125-0.313 0.375-0.563 0.813-0.688 1.313h-1.625c-0.188-0.5-0.375-0.938-0.688-1.313-0.313-0.438-0.75-0.813-1.188-1.063-0.188-0.125-0.375-0.188-0.563-0.125-0.375 0.063-0.625 0.375-0.625 0.75v4.438c0 0 0 0 0 0.063v2.375c0 0.063 0 0.063 0 0.125v0 4.125c0 2.688 1.813 5.063 4.375 5.75zM8.125 21.25l0.5 2.063-0.688 4.938h-0.813l0.313-4.625-0.813-2.813zM14.375 21.313h0.875c0.063 0.125 0.188 0.313 0.25 0.438 0.5 0.688 1.188 1.5 2.188 2.25-1.5-0.563-2.563-1.625-3.313-2.688zM17.688 28.25l1-3.125c0.25 0.063 0.563 0.125 0.813 0.125l-0.938 3zM24.438 20.125c0 0.188 0.188 0.375 0.438 0.375 0.188 0 0.375-0.188 0.375-0.438-0.063-1.375-0.5-2.688-1.188-3.875-0.375-0.563-0.813-1.063-1.313-1.5 2.375 1.063 4 3.438 4 6.188v4.25c0 1.313 0.563 2.375 1.5 3.125-0.063 0-0.063 0-0.125 0v0 0c-0.063 0-0.063 0-0.063 0-1.563-0.25-2.813-1.625-2.813-3.25v-3c0-0.188-0.188-0.375-0.375-0.375v0c-0.25 0-0.438 0.188-0.438 0.375v3c0 0.625 0.188 1.188 0.438 1.75-1.125-1.063-1.75-2.5-1.75-4.125v-4.375c0-1.125-0.438-2.25-1.125-3.188 1.438 1.25 2.375 3.063 2.438 5.063zM7.313 4.563c0.25-0.313 0.563-0.563 0.875-0.813v2.5c-0.375-0.375-0.813-0.625-1.375-0.75 0.125-0.313 0.313-0.625 0.5-0.938zM2.125 3.75c0.375 0.25 0.688 0.5 0.875 0.813 0.25 0.313 0.375 0.625 0.5 0.938-0.5 0.125-1 0.375-1.375 0.75zM2.125 8.188c0-1.063 0.875-1.938 1.938-1.938h2.25c1.063 0 1.875 0.875 1.875 1.938v0.875h-0.5c-1.063 0-1.938 0.813-2 1.813l-0.5 0.5-0.5-0.438v-0.125c0-0.625-0.313-1.75-2.375-1.75h-0.188zM2.125 9.875h0.188c1.563 0 1.563 0.688 1.563 0.938v0.5l0.75 0.625c0.188 0.188 0.375 0.25 0.563 0.25s0.375-0.125 0.5-0.25l0.813-0.688v-0.188c0-0.688 0.5-1.188 1.188-1.188h0.5v0.688c0 0.625-0.313 1.25-0.875 1.625l-1.125 0.688c-0.625 0.375-1.375 0.375-2 0l-1.125-0.688c-0.563-0.375-0.938-1-0.938-1.625z"></path>
</svg>
