<!-- Generated by IcoMoon.io -->
<svg version="1.1" xmlns="http://www.w3.org/2000/svg" width="32" height="32" viewBox="0 0 32 32">
<title>Gazelle</title>
<path d="M7.875 3.813c0 0.125 0 1.063 0 2.125 0 1.75 0 1.875 0.125 2 0.188 0.188 0.188 0.438 0 0.438-0.063 0-0.188 0-0.25-0.125-0.125-0.063-0.313-0.063-0.875-0.063h-0.688v0.188c0 0.125 0 0.25 0.063 0.313 0.125 0.063 0.125 0.25 0.125 0.375s0.063 0.188 0.125 0.25c0.063 0 0.125 0.125 0.125 0.188s0.063 0.125 0.125 0.125c0.063 0 0.125 0.063 0.125 0.125 0 0.125 0.063 0.188 0.125 0.188s0.125 0.063 0.125 0.125c0 0.063 0.063 0.125 0.125 0.125s0.125 0 0.125 0.063c0 0.125 0.063 0.125 0.313 0.125 0.313 0 0.375 0.063 0.438 0.188 0.063 0.375 0.063 0.813-0.125 0.938-0.125 0.063-0.188 0.25-0.188 0.438s0.063 0.313 0.188 0.375c0.125 0.063 0.188 0.188 0.188 0.313 0 0.188 0 0.25 0 0.25 0.125-0.125 0.375 0.063 0.313 0.188 0 0.063 0 0.063 0.188 0h0.188v0.5c0 0.375 0 0.5 0.125 0.5 0.063 0 0.125 0.125 0.125 0.313s0 0.25 0.125 0.188c0.063 0 0.125 0.063 0.125 0.25 0 0.25 0 0.313 0.125 0.313 0.063 0 0.125 0.063 0.125 0.188s0 0.188 0.125 0.188c0.063 0 0.125 0.063 0.125 0.125 0.063 0.188 0.5 0.625 0.813 0.813 0.125 0.063 0.188 0.188 0.188 0.313 0 0.063 0.063 0.125 0.125 0.125s0.125 0.063 0.125 0.313c0 0.25 0 0.313 0.125 0.313 0.063-0.063 0.125 0 0.125 0.125s0.063 0.188 0.063 0.188c0.188 0.063 0.5 0.375 0.438 0.563-0.063 0.125 0 0.25 0.125 0.375s0.188 0.25 0.188 1c0 0.438 0 0.813 0.063 0.75 0.125-0.063 0.125 0.313 0.125 1.625 0 0.875 0.063 1.25 0.125 1.125 0.063-0.063 0.063 0 0.063 0.25 0 0.188-0.063 0.313-0.063 0.313-0.063-0.063-0.125 0.188-0.125 0.563 0 0.438 0 0.625-0.125 0.625-0.063 0.063-0.063 0.188-0.063 0.438 0 0.313-0.063 0.375-0.313 0.625-0.125 0.125-0.25 0.313-0.25 0.375 0 0-0.063 0.063-0.125 0-0.125 0-0.125 0.063-0.125 0.25 0 0.25-0.063 0.25-0.125 0.25-0.125-0.063-0.125 0-0.125 0.25 0 0.125 0 0.25 0.063 0.188 0.063 0 0.125 0.063 0.125 0.125 0.063 0.063 0.188 0.125 0.813 0.125 0.438 0 0.688-0.063 0.625-0.125 0 0 0-0.063 0.063-0.063 0 0 0.063-0.063 0.063-0.188 0-0.188 0-0.188 0.25-0.125 0.125 0 0.25 0.063 0.25 0.125 0 0.188 0.625 0.125 0.688 0 0-0.125 0.313-0.188 0.375-0.063 0 0.063 0-0.063 0-0.25-0.063-0.375-0.063-0.375 0.063-0.375 0.125 0.063 0.125 0 0.125-0.188s0.063-0.313 0.125-0.313c0.063 0 0.125-0.063 0.125-0.25 0.063-0.125 0.063-0.25 0.125-0.25 0.125 0 0.125-0.125 0.125-0.563 0-0.313-0.063-0.5-0.063-0.438-0.125 0.313-0.188-0.188-0.188-1.813 0-1.563 0.063-2.125 0.188-1.75 0 0.063 0.063-0.5 0.063-1.188v-1.188h0.875c0.438 0 0.813 0 0.75-0.063-0.25-0.063-0.063-0.188 0.375-0.188h0.5v0.375c0 0.25 0 0.375 0.125 0.375 0.063 0 0.125 0.063 0.125 0.125 0 0.313 0 0.313 0.125 0.438s0.188 0.188 0.188 0.25c0 0.125 0 0.188 0.063 0.25 0.125 0.063 0.125 0.188 0.125 0.313 0 0.063 0.063 0.125 0.125 0.188 0.063 0 0.125 0.125 0.125 0.25s0.063 0.188 0.125 0.188c0.063 0 0.125 0.063 0.125 0.25 0 0.125 0.063 0.25 0.125 0.25s0.125 0.063 0.125 0.313c0 0.25 0 0.313 0.125 0.25s0.125 0.063 0.125 0.625c-0.063 0.375-0.063 0.688-0.125 0.625-0.063 0-0.125 0.188-0.125 0.438 0 0.313-0.063 0.5-0.125 0.438-0.063 0-0.125 0.125-0.125 0.438s0 0.438-0.125 0.438c-0.063 0-0.125 0.125-0.125 0.375s-0.063 0.375-0.125 0.375c-0.063 0-0.125 0.063-0.125 0.25s0 0.313-0.125 0.313c-0.063 0.063-0.063 0.125-0.063 0.188 0 0.125-0.125 0.188-0.188 0.313-0.063 0.063-0.188 0.188-0.188 0.25s0 0.125-0.125 0.125c-0.063 0-0.063 0-0.063 0.063 0.063 0.125-0.125 0.313-0.188 0.25-0.063 0-0.063 0.125-0.063 0.313s0 0.313 0.063 0.375c0.063 0 0.5 0 1 0.063 0.438 0 0.813 0 0.75 0-0.125-0.063-0.063-0.375 0.063-0.375 0.063-0.063 0.125-0.188 0.125-0.375 0-0.25 0-0.313 0.125-0.313 0.063 0 0.125-0.063 0.125-0.125s0-0.125 0.125-0.188c0.063 0 0.063-0.125 0.063-0.25s0.125-0.313 0.188-0.375c0.125-0.125 0.188-0.25 0.188-0.563-0.063-0.625-0.063-0.688 0.063-0.625 0.125 0 0.125-0.063 0.125-0.375s0.063-0.375 0.125-0.375c0.125 0.063 0.125 0 0.125-0.313 0-0.25 0.063-0.375 0.125-0.375s0.125-0.063 0.125-0.25c0-0.188 0.063-0.313 0.125-0.313s0.125-0.063 0.125-0.313c0-0.313 0-0.375 0.125-0.375 0.063 0 0.125-0.125 0.125-0.563 0-0.313 0-0.5 0.063-0.438 0 0.063 0.063 0.188 0.063 0.25 0.063 0 0.125 0.25 0.125 0.563 0 0.25 0 0.438 0.063 0.375 0.125-0.25 0.188 0.063 0.188 0.875-0.063 0.875 0 1.5 0.125 1.438 0.063 0 0.063 0.125 0.063 0.375s0 0.375-0.063 0.375c-0.063-0.063-0.188 0.438-0.125 0.625 0 0.188-0.063 0.313-0.125 0.25-0.125-0.063-0.125 0-0.125 0.25 0 0.188-0.063 0.25-0.125 0.25-0.125-0.063-0.125 0-0.125 0.375 0 0.563 0 0.625 0.75 0.625 0.438 0 0.688-0.063 0.625-0.188 0-0.063 0-0.063 0.063-0.063 0 0 0.063-0.063 0.063-0.188 0.063-0.125 0.125-0.125 0.188-0.125 0 0.063 0.063-0.063 0.063-0.25 0-0.25 0-0.313 0.125-0.313s0.125-0.063 0.125-2.5c0-1.563 0-1.75 0.125-1.75 0.063 0 0.125-0.125 0.125-0.75 0-0.563-0.063-0.75-0.125-0.75s-0.125-0.125-0.125-0.313c0-0.188-0.063-0.25-0.125-0.25s-0.125-0.125-0.125-0.313c0-0.188-0.063-0.25-0.125-0.25s-0.063-0.188-0.125-0.75 0-1 0.125-0.688c0.063 0.063 0.188 0.125 0.313 0.125h0.313v-1.063c0-0.875-0.063-1.063-0.125-1.125-0.125-0.063-0.125-0.25-0.125-1.375s0-1.313-0.125-1.313c-0.125 0-0.125-0.063-0.125-0.313 0-0.188-0.063-0.313-0.125-0.313s-0.125-0.063-0.125-0.25c0-0.125-0.063-0.25-0.063-0.25-0.25 0-0.25 0-0.25-0.125 0-0.063-0.063-0.125-0.125-0.125s-0.125-0.063-0.125-0.125c0-0.063-0.063-0.125-0.188-0.125-0.125-0.063-0.188-0.125-0.188-0.125 0-0.063-0.063-0.063-0.188-0.063-0.063 0-0.188-0.125-0.25-0.188 0-0.125-0.125-0.188-0.25-0.188-0.188 0-0.188 0-0.188-0.063 0.063-0.125 0-0.125-0.375-0.125-0.313 0-0.438-0.063-0.438-0.125 0-0.125-0.188-0.125-1.063-0.125-0.75 0-1 0-1 0.063s-0.125 0.125-0.438 0.125c-0.375 0.063-0.5 0.063-0.438 0.188 0.063 0.063-0.063 0.063-0.563 0.063-0.563 0-0.688 0.063-0.75 0.188s-0.25 0.125-1.313 0.125c-0.875 0.063-1.25 0.063-1.313 0.188-0.063 0.063-0.313 0.063-0.625 0.063-0.375 0-0.5 0.063-0.563 0.188s-0.063 0.125-0.125 0-0.188-0.188-0.313-0.188c-0.125 0-0.125 0-0.125-0.188 0-0.063-0.063-0.188-0.125-0.25-0.125 0-0.125-0.125-0.125-0.375s-0.063-0.375-0.125-0.375c-0.063-0.063-0.125-0.188-0.125-0.438v-0.375h0.438c0.438 0 0.5 0 0.563-0.125 0-0.125 0.063-0.188 0.125-0.188 0.125 0 0.125-0.063 0.125-0.125s0.063-0.125 0.125-0.125c0.063 0 0.125 0 0.125-0.063-0.063 0 0-0.125 0.063-0.125 0.063-0.063 0.125-0.125 0.125-0.063s0.063-0.063 0.063-0.188c0-0.188 0.063-0.313 0.125-0.25 0.125 0 0.125-0.188 0.125-0.625s0-0.563-0.125-0.625c-0.25-0.063-0.5-0.063-0.625 0.125-0.063 0.125-0.25 0.188-0.438 0.188-0.25 0-0.25-0.063-0.188-0.188 0.063-0.063 0.188-0.188 0.25-0.188s0.063 0 0.063-0.063c0-0.125 0.063-0.125 0.125-0.125s0.188-0.125 0.188-0.25c0-0.125 0.125-0.25 0.125-0.25 0.063 0 0.125-0.063 0.125-0.125s0.063-0.125 0.125-0.125c0.063 0 0.125-0.063 0.125-0.25s0.063-0.25 0.125-0.188 0.125-0.063 0.125-0.313c0-0.25 0.063-0.375 0.125-0.438 0.063 0 0.125-0.188 0.125-0.625s-0.063-0.563-0.125-0.625c-0.125 0-0.125-0.125-0.125-0.438 0-0.375 0-0.375-0.25-0.375-0.375 0-0.5 0.188-0.5 1 0 0.563 0 0.75-0.125 0.813-0.063 0-0.063 0.125-0.063 0.188 0 0.125-0.063 0.188-0.125 0.188s-0.125 0.063-0.125 0.125c0 0.125-0.625 0.688-0.75 0.688 0 0-0.063 0.063-0.063 0.188-0.063 0.063-0.125 0.125-0.188 0.125 0-0.063-0.063 0-0.063 0.063s-0.125 0.188-0.25 0.313c-0.125 0.063-0.25 0.25-0.25 0.375-0.063 0.063-0.125 0.125-0.125 0.125-0.063 0-0.063 0.063-0.063 0.125s-0.063 0.188-0.125 0.188c-0.063 0.063-0.125 0.188-0.188 0.313s-0.188 0.188-0.25 0.188c-0.188 0-0.25-0.25-0.25-0.875 0-0.375-0.063-0.563-0.063-0.5-0.125 0.188-0.188-0.188-0.188-1.25 0-0.813 0-1.063-0.125-1-0.063 0-0.063-0.125-0.125-0.375 0-0.25-0.063-0.375-0.125-0.313-0.063 0-0.125-0.063-0.125-0.313 0-0.375 0-0.375-0.375-0.375-0.313-0.063-0.313 0-0.375 0.188zM10.5 9.5c0.063 0.063 0.125 0.188 0.125 0.25 0 0.125-0.063 0.125-0.25 0.125-0.313-0.063-0.563 0.125-0.5 0.375 0.063 0.125 0 0.188-0.125 0.188-0.125 0.063-0.125 0.125-0.125 0.25s-0.063 0.188-0.125 0.188c-0.063 0-0.125 0.125-0.125 0.25-0.063 0.188-0.125 0.25-0.188 0.25s-0.063 0-0.063 0.125c0.063 0.063 0 0.125-0.25 0.125-0.25-0.063-0.25-0.063-0.125-0.125 0.063-0.063 0.125-0.188 0.125-0.375 0-0.25 0.063-0.313 0.125-0.313s0.125-0.125 0.125-0.313c0-0.125-0.063-0.25-0.063-0.25-0.063 0-0.188-0.063-0.313-0.25-0.188-0.25-0.188-0.375 0-0.375 0.063 0 0.125-0.063 0.125-0.125 0-0.188 1.438-0.188 1.625 0zM10.875 12.313c0 0.188 0.063 0.25 0.125 0.25 0.125 0 0.125 0.063 0.063 0.25 0 0.25 0 0.25 0.063 0.125 0.188-0.25 0.25-0.125 0.25 0.25 0 0.188 0 0.25 0.125 0.188 0.063 0 0.125 0.063 0.125 0.5s0 0.5 0.25 0.5c0.188 0.063 0.188 0 0.25-0.25 0-0.188 0.063-0.438 0-0.625l-0.063-0.375h0.625c0.5 0 0.563 0 0.563-0.125-0.063-0.125 0.125-0.125 1.25-0.125 0.75 0 1.25-0.063 1.125-0.063-0.438-0.125 0-0.188 0.875-0.188 0.75 0 0.875 0 0.813-0.125-0.063-0.063 0.063-0.125 0.375-0.125 0.375 0 0.5 0 0.5-0.125 0-0.063 0-0.063 0.063-0.063 0.125-0.063 0.5-0.063 1-0.063 0.438 0 0.875 0 0.875 0.063 0.063 0 0.063 0.125 0.063 0.313l-0.063 0.375h0.313c0.25 0 0.563 0.25 0.563 0.438-0.063 0 0.125 0.063 0.25 0.063 0.313 0 0.375 0 0.375-0.25 0-0.313 0.063-0.313 0.313 0 0.188 0.188 0.188 0.313 0.125 0.313s-0.125 0.188-0.188 0.563c-0.063 0.5 0 0.563 0.125 0.75 0.125 0.125 0.188 0.25 0.188 1.313 0 1 0 1.188 0.063 1.25 0.125 0 0.125 0.125 0.125 0.188 0 0.125 0 0.188-0.125 0.25s-0.125 2.313 0 2.438c0.125 0.063 0.125 0.25 0.125 0.375s0.063 0.25 0.125 0.25c0.063 0.063 0.125 0.188 0.125 0.313s0.063 0.25 0.125 0.25c0.125 0 0.125 0.125 0.125 0.75 0 0.563 0 0.75-0.125 0.813-0.063 0.125-0.125 0.125-0.125 0 0-0.063-0.063-0.125-0.063-0.125-0.063 0-0.125-0.125-0.125-0.5-0.063-0.375-0.063-0.5-0.188-0.5-0.063 0-0.125-0.125-0.125-0.375 0-0.063-0.063-0.188-0.125-0.25-0.125-0.063-0.188-0.125-0.188-0.313 0-0.125 0-0.313-0.063-0.375-0.125-0.063-0.125-0.188-0.125-0.313s-0.063-0.25-0.125-0.313c-0.063 0-0.125-0.125-0.125-0.25 0-0.188-0.063-0.25-0.125-0.25s-0.125-0.125-0.125-0.313c0-0.188-0.063-0.25-0.125-0.25s-0.125-0.063-0.125-0.25c0-0.125-0.063-0.25-0.063-0.188-0.063 0-0.125-0.125-0.188-0.188 0-0.125 0.063-0.188 0.125-0.188 0.125 0 0.125-0.063 0.125-0.25 0-0.25 0.063-0.313 0.125-0.313s0.125-0.063 0.125-0.188c0-0.063 0.063-0.188 0.125-0.125 0.063 0 0.125-0.125 0.125-0.313s0-0.25 0.125-0.25c0.063 0 0.125-0.125 0.125-0.75v-0.688h-0.25c-0.188 0-0.25 0-0.25 0.188 0 0.25-0.125 0.313-0.188 0.188 0-0.063-0.063 0.125-0.063 0.438 0 0.438 0 0.563-0.125 0.563-0.063 0-0.125 0.063-0.125 0.188s-0.063 0.188-0.125 0.25c-0.063 0-0.125 0.125-0.125 0.25s-0.063 0.188-0.125 0.188c-0.063 0-0.063 0.063-0.063 0.25 0 0.125-0.063 0.25-0.188 0.313s-0.188 0.125-0.188 1.188c0 1 0.063 1.125 0.188 1.188 0.063 0.063 0.188 0.188 0.188 0.25 0 0.125 0 0.25 0.125 0.25 0.125 0.125 0.063 0.313-0.188 0.313s-0.25 0.25-0.063 0.375c0.063 0.063 0.125 0.25 0.063 0.625 0 0.313 0 0.438 0 0.313-0.063-0.188-0.063-0.25-0.125-0.25s-0.125-0.188-0.125-0.313c-0.063-0.188-0.125-0.375-0.188-0.375-0.063-0.063-0.063-0.125-0.063-0.25s-0.063-0.188-0.125-0.25c-0.063 0-0.125-0.125-0.125-0.25s-0.063-0.188-0.125-0.188c-0.063 0-0.125-0.063-0.125-0.25 0-0.125-0.063-0.25-0.125-0.188-0.063 0-0.125-0.125-0.125-0.25 0-0.188-0.063-0.313-0.125-0.25 0 0-0.063-0.125-0.125-0.313 0-0.188-0.063-0.25-0.125-0.25s-0.125-0.125-0.125-0.313c0-0.25 0-0.375-0.063-0.375-0.125 0-0.125-0.063-0.188-0.375 0-0.188-0.063-0.375-0.063-0.313-0.125 0-0.25-0.188-0.25-0.625 0-0.25 0-0.438-0.063-0.375 0 0-0.063-0.063-0.125-0.125 0-0.125-0.125-0.188-0.25-0.188h-0.25v0.563c0 0.5 0 0.563 0.125 0.563 0.063 0 0.125 0.063 0.125 0.125 0 0-0.125 0-0.25 0-0.188 0-0.25 0-0.188 0.125 0 0.063-0.188 0.063-1.25 0.063h-1.313v-0.438c0.063-0.313 0-0.438-0.063-0.438s-0.188-0.063-0.25-0.125c-0.063-0.188-0.063-0.188 0.188-0.188 0.188 0 0.188 0 0.188-0.125-0.063-0.063 0.063-0.125 0.438-0.125s0.5 0 0.438-0.125c-0.063-0.063 0.125-0.063 1.125-0.125h1.125v-0.625c0.063-0.438 0.063-0.625 0.188-0.688s0.125-0.375-0.063-0.438c-0.063 0-0.188-0.063-0.313-0.063-0.188 0-0.25 0.063-0.25 0.188s-0.063 0.125-0.313 0.125c-0.188 0-0.25 0.063-0.25 0.125s-0.25 0.125-1 0.125c-0.688 0-1 0.063-1 0.125s-0.125 0.063-0.438 0.125c-0.375 0-0.438 0-0.375 0.125 0 0.125 0 0.125-0.313 0.125-0.25-0.063-0.375 0-0.313 0.063 0 0.063 0 0.188-0.063 0.313 0 0.125-0.063 0.188-0.125 0.063-0.063-0.063-0.063 0-0.063 0.188 0 0.25 0.063 0.313 0.125 0.313 0.125 0 0.188 0.313 0 0.375-0.063 0 0.063 0 0.25 0l0.375-0.063v0.5c-0.063 0.438-0.063 0.563-0.125 0.563-0.125 0-0.125 0.188-0.125 1 0 0.938-0.063 1.375-0.188 1.063-0.063-0.063-0.063 0.25-0.063 0.625 0 0.75 0 0.75-0.125 0.563-0.063-0.125-0.125-0.438-0.125-1.125s0-0.938-0.063-0.938c-0.125 0.063-0.125-0.125-0.188-0.438 0-0.375 0-0.5-0.125-0.5 0 0.063-0.125 0-0.188-0.125-0.063-0.188-0.063-0.188 0.125-0.188s0.188-0.063 0.188-0.375c0-0.188 0-0.313-0.125-0.313-0.063 0-0.125-0.063-0.125-0.25 0-0.25 0-0.313-0.313-0.313-0.188 0-0.313 0.063-0.375 0.188-0.063 0.063-0.063 0.063-0.063-0.125s-0.063-0.25-0.125-0.25c-0.125 0-0.125-0.188-0.125-0.75s-0.063-0.688-0.125-0.688c-0.063 0-0.125-0.125-0.125-0.188-0.063-0.125-0.125-0.188-0.25-0.188-0.25 0-0.25 0.063-0.25 0.625s0 0.625-0.125 0.5c-0.063-0.063-0.125-0.188-0.125-0.313 0-0.063-0.063-0.188-0.125-0.25-0.125-0.063-0.188-0.125-0.125-0.25 0-0.063 0-0.125-0.063-0.125-0.125 0-0.25-0.188-0.25-0.375 0-0.125 0-0.188-0.063-0.25-0.125 0-0.125-0.125-0.125-0.438 0-0.25-0.063-0.438-0.125-0.438 0 0-0.063-0.063-0.063-0.125 0 0 0.063-0.063 0.188-0.063s0.188-0.063 0.188-0.125c0-0.125 0.313-0.375 0.563-0.375 0.125 0 0.188 0 0.188-0.063 0-0.125 0.188-0.313 0.25-0.25 0.063 0 0.063 0.125 0.063 0.25z"></path>
</svg>
