<!-- Generated by IcoMoon.io -->
<svg version="1.1" xmlns="http://www.w3.org/2000/svg" width="32" height="32" viewBox="0 0 32 32">
<title>Genet</title>
<path d="M27.125 9c0 0.063-0.063 0.063-0.063 0.063s0 0 0 0c-0.063 0-0.188 0.188-0.188 0.188 0 0.063 0 0.063-0.063 0.125 0 0.125-0.063 0.375 0 0.75 0 0.125 0 0.313 0.063 0.313 0 0.063 0 0.188 0 0.25 0.063 0.313 0 0.813-0.188 1.188 0 0 0 0.063 0 0.063s0 0.063 0 0.063c-0.063 0-0.063 0-0.063 0 0 0.063-0.063 0.25-0.125 0.25 0 0-0.375 0-0.5-0.063 0 0-0.063 0-0.125 0 0 0-0.063 0-0.063-0.063-0.063 0-0.5-0.063-0.813-0.063-1.063 0-1.75-0.063-2.375-0.125-0.125 0-0.375-0.063-0.563-0.063s-0.375 0-0.438-0.063c-0.063 0-0.188 0-0.25 0-0.125 0-0.313-0.063-0.438-0.063-0.25-0.063-0.5-0.063-0.688-0.125-0.063 0-0.25 0-0.313 0s-0.25-0.063-0.375-0.063c-0.125 0-0.313-0.063-0.375-0.063s-0.25 0-0.313-0.063c-0.125 0-0.188 0-0.188 0-0.063 0-0.125 0-0.25-0.063-0.375 0-0.563-0.063-0.75-0.063-0.313-0.063-1.188-0.125-1.438-0.125-0.375 0-1.375 0.063-1.438 0.125 0 0-0.063 0-0.125 0-0.188 0.063-0.188 0.063-0.375 0.125-0.063 0-0.188 0-0.188 0.063-0.063 0-0.063 0-0.063 0-0.063 0-0.063 0-0.063 0-0.063 0-0.125 0.063-0.188 0.063-0.063 0.063-0.125 0.063-0.125 0.063-0.063 0-0.25 0.125-0.313 0.188 0 0-0.063 0-0.125 0.063 0 0-0.063 0-0.063 0s0 0.063 0 0.063c0 0-0.125 0.063-0.188 0.063 0 0.063 0 0.063 0 0.063-0.063 0-0.063 0-0.063 0s0 0.063-0.063 0.063-0.25 0.25-0.438 0.438c-0.375 0.313-0.625 0.563-0.75 0.563-0.063 0.063-0.25 0.125-0.563 0.188-0.063 0-0.188 0-0.25 0.063 0 0-0.125 0-0.188 0.063-0.188 0.063-0.75 0.25-0.813 0.25 0 0-0.063 0.063-0.125 0.063s-0.125 0.063-0.188 0.063c-0.063 0-0.125 0.063-0.125 0.063s0 0 0 0 0 0-0.063 0c0 0-0.25 0.125-0.625 0.313-0.188 0.125-0.813 0.563-0.875 0.625 0 0-0.063 0.063-0.125 0.125-0.188 0.125-0.625 0.563-0.813 0.813-0.063 0.125-0.188 0.188-0.188 0.188 0 0.063-0.063 0.125-0.125 0.188s-0.125 0.188-0.188 0.188c0 0 0 0.063 0 0.063s0 0-0.063 0c0 0-0.063 0.125-0.125 0.188-0.125 0.125-0.188 0.25-0.188 0.25s-0.063 0.063-0.125 0.125c-0.063 0.063-0.125 0.125-0.125 0.188-0.063 0-0.125 0.063-0.188 0.188-0.25 0.313-0.688 0.688-1 0.938-0.063 0.063-0.125 0.125-0.188 0.125 0 0.063-0.063 0.063-0.125 0.125 0 0-0.063 0.063-0.063 0.063s-0.063 0-0.063 0c0 0 0 0.063-0.063 0.063 0 0-0.063 0.063-0.063 0.063s0 0 0 0-0.125 0.063-0.25 0.125c-0.125 0.063-0.25 0.125-0.313 0.188 0 0-0.063 0.063-0.125 0.063 0 0-0.063 0-0.063 0s0 0.063 0 0.063c0 0-0.063 0-0.063 0s-0.063 0.063-0.125 0.063c-0.063 0.063-0.125 0.063-0.125 0.063s0 0.063 0 0.063c-0.063 0-0.063 0-0.125 0 0 0.063-0.188 0.188-0.438 0.313-0.188 0.125-0.375 0.25-0.375 0.313 0 0 0 0-0.063 0 0 0-0.188 0.125-0.188 0.188 0 0 0 0-0.063 0 0 0-0.188 0.125-0.188 0.188 0 0-0.063 0.063-0.125 0.063-0.25 0.188-1 0.875-1 0.938 0 0 0 0.063-0.063 0.063-0.063 0.063-0.063 0.125-0.125 0.188 0 0 0 0.063-0.063 0.063 0 0 0 0 0 0s0 0.063 0 0.063c0 0-0.063 0.063-0.125 0.125-0.063 0.125-0.063 0.125-0.063 0.375s0 0.25 0.063 0.25c0.125 0.125 0.625 0.063 0.938-0.063 0.063 0 0.188-0.063 0.25-0.063s0.125-0.063 0.25-0.063c0.063-0.063 0.125-0.063 0.125-0.063 0.063 0 0.125-0.063 0.313-0.125 0 0 0.063-0.063 0.125-0.063 0.125 0 0.188-0.063 0.188-0.063s0 0 0.063 0c0 0 0.063-0.063 0.25-0.125 0 0 0.125-0.063 0.25-0.125 0.188-0.063 0.813-0.375 0.813-0.375s0.063-0.063 0.063-0.063c0 0 0.063 0 0.063 0 0.063 0 0.125-0.063 0.188-0.125 0.125-0.063 0.563-0.25 0.625-0.313 0 0 0.063-0.063 0.063-0.063 0.063 0 0.813-0.5 0.875-0.563 0 0 0.063-0.063 0.125-0.063 0-0.063 0.063-0.125 0.063-0.125s0.125-0.063 0.25-0.188c0.063 0 0.063-0.063 0.125-0.063 0.063-0.063 0.125-0.125 0.188-0.188 0.125-0.125 0.875-0.875 1.063-1.063 0.063-0.063 0.125-0.125 0.125-0.188 0.063 0 0.313-0.313 0.438-0.438 0.125-0.188 0.313-0.375 0.375-0.438 0-0.063 0.063-0.125 0.125-0.188s0.125-0.125 0.125-0.188c0.063 0 0.125-0.063 0.125-0.063s0.625-0.625 0.688-0.688c0.188-0.188 0.313-0.25 0.375-0.313 0 0 0.063-0.063 0.063-0.063s0 0 0.125-0.063c0-0.063 0-0.063 0.063-0.063 0 0 0.125-0.063 0.125-0.125 0 0 0 0 0.063 0 0 0 0.063 0 0.063-0.063 0.063 0 0.125-0.063 0.125-0.063s0.063 0 0.063 0c0.063-0.063 0.438-0.25 0.438-0.25s0 0.063-0.063 0.125c0 0.125-0.063 0.188-0.063 0.25s-0.063 0.125-0.063 0.188c0 0-0.063 0.125-0.063 0.188s-0.063 0.188-0.063 0.25c-0.063 0.25-0.063 1.063 0 1.25 0 0.063 0 0.063 0 0.125s0.063 0.125 0.063 0.188c0.125 0.625 0.125 0.875 0 1.5 0 0.063-0.063 0.125-0.063 0.188 0 0 0 0.063 0 0.063s-0.063 0.125-0.063 0.188c-0.063 0.125-0.063 0.25-0.125 0.313 0 0.125-0.063 0.25-0.063 0.313-0.063 0.063-0.063 0.125-0.063 0.188-0.063 0.063-0.063 0.25-0.063 0.375s0 0.313 0.063 0.313c0 0 0 0 0 0.063s0.188 0.438 0.313 0.813c0.125 0.25 0.188 0.313 0.188 0.313s0.063 0.063 0.063 0.063c0.063 0.188 0.188 0.313 0.25 0.313 0.125 0.063 0.25 0.125 0.625 0.125 0.5 0 0.688-0.063 0.875-0.188 0.063-0.063 0.063-0.063 0.063-0.125 0-0.125-0.125-0.375-0.125-0.375-0.063 0-0.063 0-0.063-0.063 0 0 0 0 0 0s-0.063-0.063-0.063-0.063c-0.125-0.063-0.438-0.25-0.5-0.25-0.125 0-0.125-0.063-0.25-0.438-0.063-0.188-0.063-0.563 0-0.688s0.125-0.313 0.125-0.313c0 0 0.063-0.063 0.063-0.063 0.063-0.125 0.313-0.375 0.563-0.625 0.063-0.063 0.188-0.188 0.313-0.25 0.063-0.063 0.125-0.125 0.125-0.125s0 0 0-0.063c0 0 0.063 0 0.125-0.063 0 0 0.063-0.063 0.125-0.063 0-0.063 0.125-0.125 0.188-0.188s0.125-0.125 0.125-0.125c0 0 0.063-0.063 0.063-0.063s0.063 0 0.125-0.063 0.25-0.125 0.313-0.188c0.063-0.063 0.125-0.125 0.188-0.125 0-0.063 0-0.063 0-0.063 0.063 0 0.063 0 0.063 0s0-0.063 0.063-0.063c0 0 0.063 0 0.063 0 0-0.063 0-0.063 0-0.063 0.063 0 0.063 0 0.063 0s0.188-0.125 0.313-0.25c0 0 0.063-0.063 0.188-0.063 0.063-0.063 0.125-0.125 0.125-0.125 0.063 0 0.063 0 0.063-0.063 0 0 0.063 0 0.063 0 0.063 0 0.063-0.063 0.063-0.063 0.063 0 0.188 0 0.188 0.063s0 0.313-0.125 0.5c-0.063 0.063-0.063 0.125-0.063 0.188-0.063 0.063-0.063 0.125-0.063 0.125s0 0 0 0-0.063 0.063-0.063 0.063c0 0 0 0.063-0.063 0.125 0 0.125-0.063 0.25-0.125 0.313 0 0.125-0.063 0.188-0.063 0.188s0 0.063 0 0.063c-0.063 0-0.063 0-0.063 0s0 0.063 0 0.125c-0.125 0.188-0.125 0.25-0.125 0.25s0 0.063-0.063 0.063c0 0.063 0 0.25 0.063 0.375 0 0.063 0.063 0.125 0.063 0.125s0 0.063 0 0.063 0 0.063 0 0.125c0.063 0 0.063 0 0.063 0.063 0 0 0 0.063 0 0.063 0.063 0.063 0.063 0.125 0.125 0.25 0 0.063 0.063 0.125 0.063 0.125s0 0.063 0.063 0.188c0 0.063 0.063 0.125 0.063 0.188 0 0 0 0.063 0 0.063s0.063 0.063 0.063 0.063c0 0 0 0 0 0 0 0.063 0.063 0.125 0.125 0.188 0 0.063 0 0.063 0 0.125 0 0 0.063 0.063 0.063 0.063s0 0 0.063 0.063c0 0.063 0.063 0.125 0.063 0.125s0 0 0 0c0 0.063 0.25 0.313 0.313 0.313 0 0 0 0 0 0 0 0.063 0.25 0.125 0.438 0.125 0.375 0.063 1 0 1-0.063 0 0 0 0 0 0 0.063 0 0.125-0.125 0.125-0.188 0-0.125 0-0.25 0-0.25-0.063 0-0.063-0.063-0.063-0.063s-0.188-0.188-0.25-0.25c-0.188-0.063-0.25-0.063-0.5-0.125-0.063-0.063-0.125-0.063-0.125-0.125s-0.063-0.125-0.063-0.125c0-0.063-0.063-0.188-0.063-0.188-0.063-0.063-0.063-0.125-0.063-0.188 0 0 0 0-0.063-0.063 0-0.063 0-0.063 0-0.125 0 0-0.063-0.063-0.063-0.188 0-0.25 0-0.375 0.125-0.5 0.063-0.063 0.188-0.188 0.313-0.313 0.063-0.125 0.25-0.25 0.25-0.313 0.188-0.188 0.438-0.5 0.563-0.625 0.063-0.063 0.188-0.188 0.25-0.25s0.25-0.313 0.5-0.5c0-0.063 0.125-0.188 0.125-0.188 0.063-0.063 0.063-0.063 0.063-0.125 0 0 0.063 0 0.063 0 0.063-0.063 0.063-0.063 0.188-0.063 0.063 0.063 0.188 0.063 0.25 0.063 0 0 0.125 0 0.125 0 0.063 0.063 0.25 0.063 0.813 0.125 0.188 0 0.375 0 0.563 0 0.125 0.063 0.625 0.063 1.125 0.063s0.938 0.063 0.938 0.063c0.063 0 0.125 0.125 0.188 0.188 0 0 0.063 0.063 0.063 0.125 0.063 0 0.063 0.063 0.063 0.063 0 0.063 0.063 0.063 0.063 0.063s0 0 0 0.063c0 0 0.063 0.125 0.188 0.25 0.063 0.125 0.125 0.25 0.125 0.25s0.125 0.125 0.125 0.125c0 0.063 0 0.063 0 0.063s0.063 0.125 0.188 0.25c0.063 0.125 0.125 0.188 0.125 0.188 0 0.063 0 0.063 0 0.063s0.063 0 0.063 0c0 0 0 0.125 0.063 0.188s0.125 0.125 0.125 0.125c0 0 0 0.063 0.063 0.125s0.063 0.125 0.063 0.188c0 0.063-0.063 0.125-0.063 0.188 0 0 0 0 0 0.063 0 0-0.313 0.313-0.375 0.313 0 0-0.063 0-0.063 0.063 0 0-0.125 0.063-0.25 0-0.25-0.125-0.438-0.125-0.625-0.063-0.063 0-0.125 0.063-0.125 0.063-0.063 0.063-0.125 0.25-0.125 0.313 0.063 0.063 0.063 0.25 0.125 0.25 0 0 0 0 0 0 0 0.063 0.188 0.188 0.313 0.25 0.188 0.125 0.438 0.188 0.688 0.188 0.188 0 0.25-0.063 0.313-0.063 0-0.063 0.063-0.063 0.063-0.063 0.063 0 0.063-0.063 0.063-0.063 0.125-0.063 0.25-0.188 0.313-0.188 0 0 0.063-0.063 0.125-0.188 0.063-0.063 0.125-0.125 0.125-0.125 0.063 0 0.625-0.563 0.625-0.563s0.063-0.063 0.125-0.125c0.188-0.188 0.25-0.375 0.25-0.5 0-0.063 0-0.125 0-0.188 0 0-0.063-0.125-0.063-0.125 0-0.063 0-0.125 0-0.125-0.063-0.063-0.063-0.063-0.063-0.063 0-0.063-0.188-0.625-0.188-0.75-0.063-0.063-0.125-0.375-0.125-0.375s0.438 0 0.625 0c0.25 0 0.313 0.063 0.375 0.188 0 0.125 0.063 0.188 0.063 1 0 1.125 0 1.938 0.063 2 0 0 0.063 0 0.063 0 0 0.063 0 0.125 0.063 0.125 0 0.063 0.063 0.125 0.063 0.188 0 0 0 0.063 0 0.063 0.063 0 0.063 0 0.063 0.063 0 0 0 0.063 0 0.063s0 0.063 0.063 0.063c0 0.063 0 0.125 0 0.125 0.125 0.25 0.125 0.313 0.125 0.313 0.063 0 0.063 0 0.063 0 0 0.063 0.25 0.25 0.375 0.25 0 0 0.063 0 0.063 0 0 0.063 0.375 0.125 0.563 0.125s0.375-0.063 0.438-0.125c0.063 0 0.063 0 0.063-0.125 0-0.25-0.25-0.563-0.5-0.688-0.125-0.063-0.188-0.125-0.188-0.125s0 0 0 0c-0.063 0-0.063-0.125-0.063-0.688 0.063-0.75 0.063-1.188 0.188-1.75 0-0.063 0-0.188 0-0.25 0.063-0.188 0.063-0.5 0.125-0.563 0-0.063 0-0.188 0.063-0.25 0-0.125 0-0.125 0.125-0.188 0.063-0.063 0.125-0.125 0.188-0.188 0 0 0.063-0.063 0.063-0.063s0.063-0.063 0.063-0.063c0-0.063 0.125-0.125 0.125-0.125s0.375-0.313 0.375-0.313c0 0 0-0.063 0.063-0.063 0.063-0.063 0.125-0.125 0.125-0.125 0-0.063 0.063-0.125 0.125-0.125 0 0 0.063-0.063 0.063-0.063 0-0.063 0.063-0.125 0.063-0.125 0.063-0.063 0.188-0.125 0.188-0.188 0 0 0.063 0 0.063-0.063 0.063 0 0.125-0.063 0.125-0.125 0.063-0.063 0.063-0.063 0.125-0.063 0 0 0.125-0.188 0.125-0.188s0.063-0.063 0.125-0.125 0.188-0.25 0.25-0.563c0.063-0.125 0.125-0.25 0.125-0.25s0-0.063 0-0.063c0 0 0-0.063 0.063-0.125 0 0 0-0.063 0-0.063s0-0.063 0.063-0.063c0-0.063 0.063-0.25 0.063-0.313 0 0 0.063-0.063 0.063-0.063s0-0.063 0-0.125c0 0 0.063-0.063 0.063-0.063s0-0.125 0.063-0.188c0-0.063 0.063-0.188 0.063-0.188 0-0.063 0.063-0.188 0.125-0.438 0-0.063 0.063-0.125 0.063-0.188 0 0 0-0.063 0.063-0.125 0.063-0.25 0.188-0.438 0.313-0.688 0.188-0.313 0.375-0.688 0.5-0.938 0.063-0.063 0.063-0.125 0.063-0.188 0 0 0.063-0.063 0.063-0.125 0.063-0.063 0.063-0.125 0.063-0.188 0.063-0.125 0.125-0.375 0.188-0.5 0-0.063 0-0.188 0.063-0.188 0.063-0.313 0.125-1 0-1.188-0.063-0.188-0.125-0.25-0.313-0.25-0.125 0-0.313 0.063-0.313 0.063s0 0.063-0.063 0.063c0 0-0.063 0-0.125 0.063-0.125 0.063-0.125 0.125-0.25 0 0 0-0.063-0.063-0.125-0.063s-0.063-0.063-0.063-0.063c-0.063 0-0.313-0.125-0.438-0.188s-0.188-0.063-0.75-0.063c-0.563 0-0.625 0-0.688 0.063-0.063 0-0.063 0-0.125 0 0 0 0 0.063-0.063 0.063s-0.313 0.125-0.438 0.188c-0.063 0.063-0.25 0.063-0.25 0-0.063 0-0.063 0-0.063 0s-0.063-0.063-0.063-0.063c0 0-0.125-0.125-0.25-0.188-0.063-0.063-0.313-0.063-0.438-0.063zM27.625 9.438c0.188 0.188 0.375 0.313 0.438 0.313 0 0 0 0 0 0 0.063 0.063 0.125 0.125 0.125 0.125 0.063 0 0.063 0 0.125 0 0.063-0.063 0.063-0.063 0.063-0.063 0.063 0 0.125-0.063 0.188-0.063 0.125-0.063 0.125-0.063 0.25-0.063 0.188 0 0.25 0 0.5 0.125 0.125 0.125 0.125 0.125 0.25 0.125s0.25-0.063 0.25-0.125c0 0 0.188-0.063 0.25-0.125 0.125 0 0.188 0 0.375 0.125 0.125 0.063 0.188 0.063 0.25 0.063s0.125-0.063 0.188-0.063c0 0 0.063-0.063 0.063-0.063 0.063 0 0.188-0.063 0.25-0.125 0 0 0.063-0.063 0.125-0.063 0.063-0.063 0.125-0.125 0.188-0.125 0.125 0 0.188 0 0.188 0.063 0.063 0 0.063 0.063 0.063 0.125 0 0.188 0 0.5-0.063 0.625 0 0.063 0 0.125 0 0.125 0 0.063 0 0.125 0 0.125-0.063 0-0.063 0.063-0.063 0.125s-0.063 0.125-0.063 0.125c0 0.063 0 0.125-0.063 0.188 0 0.125-0.063 0.25-0.125 0.375 0 0.063 0 0.063 0 0.063 0 0.063 0 0.063 0 0.063-0.063 0.063-0.063 0.125-0.063 0.125-0.063 0.125-0.25 0.563-0.313 0.625-0.063 0.125-0.25 0.313-0.25 0.313s0 0 0 0c0 0.063-0.063 0.063-0.063 0.063s-0.125 0.125-0.125 0.188c0 0 0 0 0 0s-0.063 0.063-0.125 0.25c-0.063 0.125-0.063 0.125-0.25 0.188l-0.125 0.063h-0.313c-0.313 0-0.375 0-0.688-0.063 0-0.063-0.125-0.063-0.188-0.063-0.125 0-0.125 0-0.188 0.063 0 0.063 0 0.125 0 0.188 0 0 0 0.125 0.125 0.188 0.125 0.125 0.625 0.25 1 0.313 0.125 0 0.25 0 0.25 0s-0.125 0.375-0.125 0.438c-0.063 0.063-0.375 0.063-0.5 0-0.188-0.063-0.438-0.188-0.563-0.313-0.063 0-0.125-0.063-0.125-0.063s0 0 0 0-0.063 0-0.063 0c0-0.063-0.063-0.063-0.125-0.125-0.125-0.063-0.25-0.063-0.313 0.063-0.063 0-0.063 0.063-0.063 0.063 0 0.063 0.188 0.313 0.438 0.438 0.188 0.188 0.875 0.625 0.875 0.625 0.063 0 0.063 0 0.063 0s0.063 0.063 0.063 0.063c0.063 0 0.063 0.063 0 0.125 0 0.063 0 0.063 0 0.125 0 0-0.063 0.063-0.063 0.125s-0.063 0.125-0.25 0.125c-0.063 0-0.188 0-0.25 0-0.125-0.063-0.25-0.125-0.25-0.188 0 0 0 0-0.063 0 0 0 0 0 0 0-0.063-0.063-0.063-0.063-0.063-0.063-0.125-0.063-0.313-0.25-0.375-0.313 0 0 0-0.063 0-0.063s-0.063 0-0.063 0c0 0-0.125-0.188-0.188-0.313-0.063-0.063-0.063-0.125-0.063-0.125 0-0.063-0.063-0.063-0.063-0.125s0-0.125-0.063-0.125c-0.188 0.063-0.188 0.313-0.063 0.625 0.063 0.063 0.063 0.125 0.063 0.188 0.063 0 0.063 0.063 0.063 0.063s0 0 0 0c0 0.063 0.063 0.125 0.063 0.125 0.063 0.063 0.063 0.125 0.063 0.188 0.063 0 0.063 0.063 0.063 0.063 0.125 0.188 0.188 0.25 0.188 0.25s0.063 0 0.063 0.063c0 0 0 0 0 0s0 0.063 0.063 0.063c0 0.063 0.125 0.188 0.188 0.25l0.188 0.188-0.063 0.063c0 0.063-0.063 0.063-0.063 0.063s0 0.063-0.063 0.125c-0.063 0-0.125 0.063-0.125 0.063-0.063 0.063-0.063 0.063-0.063 0 0.063 0 0.063-0.063 0.063-0.125s-0.063-0.188-0.188-0.188c-0.063 0-0.25 0.125-0.25 0.125s0 0 0 0-0.063 0.125-0.063 0.188c0 0 0 0 0.063 0.063 0 0 0.063 0.063 0.125 0.063s0.125-0.063 0.188-0.063c0 0 0 0.063-0.063 0.063-0.063 0.063-0.063 0.063-0.125 0.125-0.563 0.313-1.063 0.563-1.313 0.625-0.063 0-0.125 0-0.125 0.063-0.063 0-0.188 0-0.313 0-0.25 0.063-0.25 0.063-0.438 0-0.188 0-0.25 0-0.375-0.125 0 0-0.063 0-0.063 0s-0.125-0.125-0.188-0.188c-0.313-0.25-0.313-0.313-0.438-0.25-0.063 0.063-0.125 0.063-0.125 0.063-0.063 0.063-0.063 0.063-0.063 0.063-0.063 0-0.313 0.25-0.313 0.25s0 0.063 0 0.063c-0.063 0-0.125 0.125-0.125 0.25-0.063 0.188-0.063 0.5 0.063 0.813 0.125 0.438 0.188 0.625 0.125 0.938 0 0.25-0.125 0.438-0.25 0.438-0.063 0-0.25-0.063-0.313-0.125 0-0.063-0.063-0.063-0.063-0.063s-0.063-0.125-0.063-0.125c0 0 0 0-0.063 0 0 0-0.438-0.625-0.563-0.875 0 0 0-0.063 0-0.063s-0.063-0.063-0.063-0.063-0.063-0.125-0.063-0.125c-0.063-0.063-0.125-0.188-0.313-0.563-0.313-0.688-0.375-0.875-0.375-1.125v-0.188l0.125-0.25c0.063-0.125 0.125-0.313 0.188-0.375 0.063-0.125 0.125-0.25 0.125-0.25 0-0.125-0.188-0.063-0.313 0.063-0.063 0.063-0.063 0.063-0.125 0.063 0 0 0 0 0 0.063 0 0 0 0 0 0s0 0-0.063 0c0 0 0 0-0.063 0-0.063-0.063-0.313-0.063-0.438 0.063-0.125 0.063-0.063 0.25 0 0.313s0.125 0.063 0.125 0.063c0.125 0.063 0.125 0.063 0.063 0.188-0.063 0.063-0.063 0.063-0.063 0.125 0 0 0 0 0 0.063-0.063 0.063-0.125 0.375-0.125 0.438 0 0.125-0.063 0.188-0.313 0.25-0.125 0.063-0.813 0.063-1.25 0.063-0.438-0.063-1.063-0.125-1.25-0.188 0 0-0.125 0-0.188 0s-0.188-0.063-0.188-0.063c-0.063 0-0.188 0-0.313-0.063-0.188 0-0.313-0.063-0.563-0.125 0 0-0.125-0.063-0.188-0.063s-0.188-0.063-0.188-0.063c-0.063 0-0.125 0-0.125 0s-0.063-0.063-0.063-0.063c0 0 0 0-0.063 0 0 0-0.063-0.063-0.125-0.063l-0.063-0.063v-0.375c0-0.188-0.063-0.375-0.063-0.438 0-0.125-0.125-0.25-0.188-0.25s-0.25 0.063-0.25 0.125c-0.063 0-0.125 0.063-0.25 0.125-0.063 0.063-0.125 0.125-0.125 0.188 0 0-0.063 0-0.063 0s-0.313 0.188-0.375 0.25c0 0.063-0.063 0.063-0.188 0.125-0.063 0.063-0.125 0.125-0.125 0.125s0 0.063 0 0.063c-0.063 0-0.25 0.125-0.25 0.125s0 0.063 0 0.063c-0.063 0-0.25 0.125-0.25 0.125 0 0.063 0 0.063 0 0.063-0.063 0-0.375 0.188-0.438 0.25 0 0.063-0.063 0.063-0.063 0.063s-0.125 0.063-0.125 0.125c0 0-0.063 0-0.125 0-0.188 0.125-0.625 0.563-1.063 1.063-0.125 0.125-0.25 0.25-0.313 0.313s-0.188 0.188-0.188 0.188c-0.063 0.063-0.063 0.125-0.125 0.125 0 0 0 0 0 0s0 0.063 0 0.063c0 0-0.125 0.063-0.188 0.125s-0.188 0.188-0.25 0.188c-0.063 0.063-0.063 0.063-0.063 0.063 0 0.063 0 0.063-0.063 0.063 0 0 0 0-0.063 0.063-0.188 0.125-0.313 0.188-0.5 0.188-0.125 0-0.125 0-0.188-0.063s-0.188-0.25-0.188-0.375c0 0 0.063-0.25 0.125-0.313 0 0 0.063-0.063 0.063-0.063 0-0.063 0-0.063 0-0.125 0.063-0.063 0.063-0.5 0-0.688 0 0-0.063-0.125-0.063-0.125 0-0.063 0-0.125 0-0.125-0.063-0.125-0.188-0.563-0.188-0.688v-0.125h0.25c0.188 0 0.313 0 0.375-0.063 0.063 0 0.188 0 0.375 0 0.25 0 0.25 0 0.375-0.063 0.125-0.125 0.125-0.25 0.063-0.375-0.125-0.063-0.25-0.125-0.438-0.063-0.125 0-0.313 0-0.438 0.063-0.063 0-0.25 0-0.313 0.063-0.188 0.063-0.188 0.063-0.188 0s0-0.125 0-0.188c0-0.063 0-0.125 0.063-0.125 0-0.063 0.063-0.063 0.125 0 0.063 0 0.188 0 0.313 0 0.063-0.063 0.188-0.063 0.188-0.063s0.25-0.063 0.5-0.063c0.375 0 0.438 0 0.5 0 0.063-0.063 0.125-0.125 0.125-0.188 0.125-0.25-0.063-0.375-0.438-0.313-0.125 0-0.313 0-0.375 0-0.188 0.063-0.813 0.063-0.813 0 0 0 0 0 0-0.063s0.063-0.125 0.063-0.125c0.063-0.188 0.375-0.75 0.375-0.75 0.063 0 0-0.125 0-0.125s0-0.063 0-0.188c0-0.25 0.063-0.625 0.25-0.813 0.063-0.125 0.25-0.25 0.375-0.313 0.063-0.063 0.125-0.063 0.125-0.063s0.063-0.063 0.063-0.063 0.125-0.125 0.188-0.188 0.25-0.188 0.25-0.188c0 0 0.063 0 0.125-0.063 0.063 0 0.125-0.063 0.188-0.125 0.063 0 0.063 0 0.063 0 0-0.063 0.063-0.063 0.125-0.063 0.063-0.063 0.188-0.125 0.25-0.125 0.375-0.188 1-0.375 1.438-0.438 0.125 0 0.375 0 0.625 0 0.688-0.063 1.875 0 2.375 0.125 0.125 0 0.313 0.063 0.375 0.063 0.188 0 0.438 0.063 0.5 0.063 0 0 0.125 0.063 0.438 0.125 0.063 0 0.25 0 0.313 0.063 0.125 0 0.25 0.063 0.313 0.063s0.375 0.063 0.5 0.063c0.063 0.063 0.125 0.063 0.188 0.063s0.188 0.063 0.625 0.125c0.125 0 0.25 0.063 0.313 0.063 0.125 0 0.25 0.063 0.563 0.125 0.125 0 0.438 0.063 0.625 0.063 0.063 0.063 0.25 0.063 0.313 0.063 0.125 0.063 0.313 0.063 0.375 0.063s0.313 0.063 0.5 0.063c0.188 0.063 0.5 0.063 0.688 0.063 0.313 0.063 1.25 0 1.313 0 0 0 0.063-0.063 0.063-0.063 0.063 0 0.063-0.063-0.063-0.063-0.25-0.063-0.688-0.063-1.25-0.125-0.375 0-0.875-0.063-1.063-0.125-0.125 0-0.313 0-0.438-0.063-0.125 0-0.25 0-0.313 0s-0.125-0.063-0.188-0.063c-0.125 0-0.375-0.063-0.438-0.063-0.063-0.063-0.125-0.063-0.188-0.063s-0.125 0-0.188-0.063c-0.063 0-0.188 0-0.25-0.063-0.125 0-0.25 0-0.25 0-0.25-0.063-0.375-0.125-0.438-0.125-0.188-0.063-0.375-0.125-0.438-0.125 0 0-0.063 0-0.063 0-0.25-0.063-0.375-0.125-0.563-0.125-0.063-0.063-0.188-0.063-0.188-0.063-0.063 0-0.125-0.063-0.125-0.063s-0.063 0-0.125 0c-0.063 0-0.125-0.063-0.125-0.063s-0.25-0.063-0.438-0.063c-0.063-0.063 0-0.063 0.188 0 0.125 0 0.25 0 0.313 0 0 0 0.125 0 0.188 0 0.125 0.063 0.25 0.063 0.313 0.063s0.188 0.063 0.25 0.063c0.25 0 0.563 0.063 0.688 0.063s0.313 0.063 0.438 0.063c0.125 0.063 0.313 0.063 0.375 0.063s0.188 0.063 0.25 0.063c0.063 0 0.188 0 0.188 0 0.063 0 0.188 0.063 0.25 0.063 0.375 0 0.688 0.063 0.938 0.125 0.375 0.063 0.875 0.063 1.313 0s0.5-0.063 0.688-0.063c0.188 0.063 0.438 0.125 0.563 0.125 0 0 0.063 0.063 0.125 0.063s0.063 0 0.063 0.063c0.063 0 0.063 0 0.063 0 0.063 0 0.063 0 0.063 0 0.063 0 0.063 0.063 0.125 0.063 0 0 0.125 0 0.188 0.063 0.125 0.063 0.25 0.063 0.25 0.063 0-0.063 0.063-0.063 0.125 0 0.188 0 0.188-0.063 0.25-0.188 0 0 0-0.063 0-0.063 0.063 0 0.063-0.063 0.063-0.125s0.063-0.188 0.063-0.25c0-0.063 0.063-0.125 0.063-0.25 0-0.063 0.063-0.188 0.063-0.188 0-0.188 0.063-0.938 0-1.125-0.063-0.25-0.063-0.313-0.125-0.375 0-0.063-0.063-0.188-0.063-0.438-0.063-0.188-0.063-0.25 0-0.375 0-0.25 0.125-0.313 0.313-0.313 0.125 0.063 0.125 0.063 0.25 0.188zM10.875 14.125c-0.063 0.25-0.063 0.313 0 0.75 0 0.063 0 0.063-0.063 0.063-0.125 0.063-0.375 0.188-0.375 0.188-0.063 0-0.063 0-0.063 0.063 0 0 0 0 0 0-0.063 0-0.063 0-0.125 0 0 0.063 0 0.063 0 0.063-0.063 0-0.125-0.125-0.125-0.188 0 0 0 0 0-0.063-0.063-0.063-0.125-0.438-0.063-0.625 0-0.125 0-0.188 0.063-0.188s0.125-0.063 0.125-0.063c0.125-0.063 0.25-0.063 0.438-0.125 0.063-0.063 0.188-0.063 0.188-0.063s0.063 0 0.063 0c0 0 0 0.063-0.063 0.188zM9.313 14.688c0.063 0.5 0.125 0.625 0.188 0.75 0.063 0.063 0.063 0.063 0.063 0.063-0.063 0-0.063 0-0.063 0.063 0.063 0.063 0.063 0.063 0 0.125-0.063 0-0.063 0-0.063 0-0.063 0-0.063 0.063-0.125 0.063 0 0.063-0.063 0.063-0.063 0.063s0 0 0 0.063c-0.063 0-0.063 0-0.063 0-0.063 0-0.063 0-0.063 0.063 0 0-0.063 0-0.063 0.063-0.063 0-0.063 0.063-0.063 0.063s-0.125 0.063-0.188 0c0 0 0-0.063 0-0.063-0.063-0.063-0.063-0.125-0.063-0.125s-0.063-0.063-0.063-0.125-0.063-0.188-0.125-0.25c0-0.125-0.063-0.375-0.063-0.375s0.063-0.063 0.125-0.125c0.063-0.063 0.125-0.125 0.188-0.125 0 0 0 0 0.063-0.063 0.063 0 0.063 0 0.063-0.063 0.063 0 0.063 0 0.125-0.063 0.063 0 0.125-0.063 0.125-0.063 0.125-0.063 0.125-0.063 0.125 0.063zM7.875 15.75c0.063 0.063 0.063 0.188 0.125 0.25 0 0.125 0.125 0.313 0.25 0.5 0 0.063 0.063 0.125 0.063 0.125s0 0.063-0.125 0.188c-0.063 0.063-0.125 0.125-0.188 0.188 0 0.063-0.063 0.125-0.125 0.125 0 0.063 0 0.063-0.063 0.125 0 0 0 0.063-0.063 0.063 0 0-0.188-0.188-0.188-0.25 0 0 0 0 0 0s-0.063-0.063-0.063-0.125c-0.063-0.063-0.063-0.125-0.063-0.188-0.063-0.063-0.125-0.25-0.125-0.375s0-0.125 0.188-0.375c0.125-0.188 0.25-0.25 0.25-0.25s0 0 0 0c0-0.063 0.063-0.125 0.125-0.063 0 0 0 0.063 0 0.063zM6.75 17.25c0 0.063 0 0.063 0 0.125 0.063 0 0.063 0.063 0.063 0.063s0 0.063 0 0.063c0.063 0.125 0.063 0.125 0.188 0.313 0 0.063 0.063 0.125 0.125 0.188l0.063 0.063-0.063 0.063c-0.063 0.063-0.125 0.188-0.25 0.25-0.063 0.063-0.125 0.125-0.125 0.188-0.125 0.125-0.313 0.25-0.313 0.25-0.125 0-0.25-0.375-0.25-0.813v-0.25l0.125-0.125c0.063-0.063 0.188-0.188 0.188-0.25 0.063-0.063 0.063-0.063 0.063-0.063 0.063 0 0.063 0 0.063-0.063 0 0 0 0 0-0.063 0.063 0 0.063 0 0.063 0 0.063 0.063 0.063 0.063 0.063 0.063zM5.438 18.625c0 0.063 0 0.188 0 0.188 0 0.063 0 0.125 0.063 0.125 0 0.063 0 0.063 0 0.125 0 0 0 0.063 0.063 0.063 0 0.063 0 0.125 0 0.125s0.063 0 0.063 0.063c0 0 0.063 0.063 0.063 0.063s0 0.063 0 0.063c0.063 0.063 0.063 0.125 0 0.125 0 0-0.063 0-0.063 0s-0.063 0.063-0.125 0.125c-0.125 0.063-0.188 0.125-0.188 0.188-0.063 0-0.188 0.125-0.25 0.125-0.125 0-0.25-0.313-0.25-0.75v-0.313l0.125-0.125c0.125-0.125 0.188-0.188 0.25-0.188 0.063-0.063 0.188-0.125 0.188-0.125s0 0.063 0.063 0.125zM4.125 19.188c-0.063 0.125-0.063 0.688-0.063 0.875 0.063 0.25 0.063 0.313 0.125 0.438 0.063 0.063 0.063 0.125 0.063 0.125s-0.25 0.125-0.25 0.125c0 0-0.063 0.063-0.125 0.125-0.125 0.063-0.25 0.125-0.313 0.125-0.125 0.063-0.125 0.063-0.188 0.063-0.063-0.063-0.125-0.25-0.125-0.438 0-0.25 0.125-0.688 0.188-1 0-0.063 0-0.125 0-0.125 0-0.063 0.125-0.125 0.188-0.125 0.063-0.063 0.063-0.063 0.188-0.188 0.063 0 0.125 0 0.125 0s0.063-0.063 0.063-0.063c0 0 0.063 0 0.063 0 0.063 0 0.063 0 0.063 0.063zM2.625 20.063c0 0.063 0 0.063 0 0.125-0.063 0-0.125 0.25-0.125 0.438s-0.063 0.688 0 0.75c0 0.063 0 0.125-0.063 0.125s-0.125 0.063-0.188 0.063c-0.063 0-0.188 0.063-0.25 0.063s-0.125 0.063-0.25 0.063c-0.063 0-0.125 0-0.125-0.063-0.063-0.063-0.063-0.063-0.063-0.188s0-0.188 0-0.25c0-0.063 0.125-0.25 0.125-0.25 0-0.063 0-0.063 0-0.063s0 0 0.063-0.063c0 0 0-0.063 0-0.063s0 0 0.063 0c0-0.063 0.125-0.313 0.188-0.313 0 0 0 0 0 0 0-0.063 0.063-0.125 0.063-0.125s0.125-0.063 0.188-0.125c0.063 0 0.125-0.063 0.125-0.063s0.063-0.063 0.125-0.063c0.063-0.063 0.125-0.063 0.125-0.063s0 0 0 0.063zM27.25 9.5c-0.125 0.188-0.063 0.75 0.125 0.75 0.125 0 0.25-0.063 0.313-0.188 0.063 0 0.063-0.063 0.063-0.125-0.063-0.125-0.125-0.25-0.25-0.375-0.063-0.063-0.063-0.063-0.125-0.063s-0.125 0-0.125 0zM31.313 9.688c-0.063 0-0.188 0.188-0.25 0.313l-0.063 0.125 0.063 0.125c0.063 0.063 0.188 0.188 0.25 0.188s0.125-0.125 0.188-0.188c0.125-0.25 0.125-0.375 0.063-0.5s-0.125-0.125-0.25-0.063zM28.563 10.563c0 0-0.063 0-0.125 0.063-0.313 0.063-0.5 0.125-0.625 0.313-0.188 0.125-0.188 0.25-0.188 0.375 0 0.063 0.063 0.125 0.125 0.125 0 0.063 0.313 0.25 0.375 0.25 0 0.063 0.063 0.063 0.063 0.063 0.063 0.063 0.125 0.063 0.313-0.188 0.125-0.125 0.25-0.25 0.375-0.25 0.125-0.125 0.188-0.188 0.188-0.375 0-0.125-0.063-0.313-0.125-0.313-0.063-0.063-0.313-0.125-0.375-0.063zM30 10.625c-0.125 0.063-0.188 0.188-0.188 0.375s0 0.188 0.063 0.25 0.188 0.125 0.313 0.188c0.25 0.188 0.375 0.313 0.438 0.5s0.188 0.25 0.25 0.188c0.063-0.063 0.125-0.25 0.188-0.375 0-0.063 0-0.125 0-0.188 0.063-0.063 0.063-0.188 0.063-0.313v-0.125l-0.125-0.125c-0.063-0.063-0.125-0.125-0.125-0.125s-0.063 0-0.125-0.063c-0.063 0-0.125-0.063-0.125-0.063s-0.063 0-0.063-0.063c-0.125-0.063-0.188-0.125-0.375-0.125-0.063 0-0.125 0-0.188 0.063zM29.438 11.438c-0.188 0-0.375 0.125-0.438 0.188-0.063 0.188 0.125 0.438 0.375 0.5 0.125 0 0.188 0 0.313 0 0.125-0.063 0.25-0.125 0.313-0.313 0-0.125 0-0.125 0-0.188-0.063-0.063-0.125-0.125-0.25-0.188-0.125 0-0.25-0.063-0.313 0zM29.125 12.313c-0.188 0-0.25 0.125-0.125 0.188 0 0.063 0 0.063 0.438 0.063 0.5 0 0.688-0.063 0.625-0.188-0.063-0.063-0.063-0.063-0.188-0.063-0.063 0-0.688 0-0.75 0zM16.375 12.375c-0.063 0-0.125 0.063-0.188 0.125s-0.063 0.063-0.063 0.188 0 0.188 0.063 0.25c0.125 0.063 0.313 0.063 0.438 0s0.188-0.125 0.188-0.313c0-0.125 0-0.125-0.063-0.188s-0.125-0.063-0.188-0.063c-0.063 0-0.188 0-0.188 0zM17.25 12.375c-0.063 0-0.063 0-0.125 0 0 0.063 0 0.063 0 0.063-0.063 0-0.063 0-0.125 0.063s-0.063 0.063-0.063 0.188 0.063 0.188 0.188 0.25c0.25 0.125 0.5 0 0.5-0.313 0-0.188-0.125-0.313-0.375-0.25zM18.188 12.438c-0.25 0.063-0.313 0.125-0.313 0.313 0 0.063 0 0.125 0.063 0.188 0.125 0.125 0.313 0.125 0.438 0.063 0.25-0.125 0.25-0.438 0.125-0.563-0.063 0-0.25-0.063-0.313 0zM15.563 12.438c0 0-0.063 0-0.063 0.063 0 0-0.125 0-0.188 0-0.188 0-0.375 0.063-0.375 0.125 0 0 0 0 0 0-0.063 0-0.125 0.063-0.125 0.125s0 0.25 0.063 0.25c0 0 0 0 0 0.063 0 0 0 0 0.063 0 0 0 0 0 0 0 0 0.125 0.438 0.125 0.688 0.063 0-0.063 0.063-0.063 0.125-0.063 0 0 0.063-0.063 0.125-0.125l0.125-0.063v-0.188c0-0.125-0.063-0.125-0.125-0.188 0-0.063-0.063-0.063-0.125-0.063s-0.125 0-0.188 0zM18.938 12.688c-0.125 0.063-0.188 0.25-0.125 0.375 0.125 0.125 0.188 0.188 0.375 0.125 0.125 0 0.25-0.125 0.25-0.25s0-0.188-0.063-0.25c-0.063-0.063-0.063-0.063-0.188-0.063-0.063 0-0.188 0-0.25 0.063zM14.313 12.688c-0.063 0-0.125 0.063-0.188 0.063s-0.125 0-0.125 0.063c0 0-0.125 0-0.313 0-0.563 0.063-0.75 0.188-0.75 0.438 0.063 0.125 0.125 0.25 0.313 0.313 0.063 0 0.063 0 0.25-0.063 0.063 0 0.125 0 0.125 0 0.063-0.063 0.063-0.063 0.063-0.063 0.063 0 0.063 0 0.125 0 0 0 0.188-0.063 0.313-0.063 0.25 0 0.313 0 0.375 0 0.188-0.125 0.25-0.313 0.188-0.5 0-0.063-0.063-0.063-0.063-0.125 0 0-0.188-0.063-0.25-0.063 0 0-0.063 0-0.063 0zM20.125 12.875c-0.063 0-0.125 0-0.125 0.063 0 0 0 0 0 0-0.063 0-0.125 0.125-0.125 0.188 0 0.125 0.125 0.188 0.25 0.25s0.313-0.063 0.375-0.25c0-0.063 0-0.063 0-0.125-0.063-0.125-0.188-0.188-0.375-0.125zM27.5 12.938c0 0.063-0.063 0.063-0.063 0.063s-0.063 0.063-0.063 0.063c0 0 0 0-0.063 0 0 0-0.063 0.063-0.063 0.063s0 0-0.063 0c0 0-0.063 0.063-0.125 0.063-0.063 0.063-0.063 0.063-0.125 0.063 0 0-0.063 0-0.063 0.063-0.188 0.063-0.375 0.125-0.5 0.125-0.313 0.063-0.5 0.125-0.625 0.125-0.063 0-0.188 0.063-0.188 0.063s-0.188 0-0.438 0c-0.188 0-0.375 0.063-0.438 0.063-0.063 0.063-0.125 0.063-0.063 0.188 0 0.063 0 0.063 0.063 0.125 0.125 0 0.438 0 0.625 0 0.563-0.125 0.813-0.125 1-0.188 0.063 0 0.188-0.063 0.313-0.063 0.188-0.063 0.375-0.125 0.375-0.125 0-0.063 0-0.063 0.063-0.063 0 0 0.063 0 0.125-0.063 0.063 0 0.125-0.063 0.125-0.063s0.063 0 0.125-0.063c0.125-0.125 0.25-0.25 0.25-0.313 0-0.125-0.125-0.188-0.188-0.125zM21.125 13c-0.125 0.063-0.313 0.125-0.375 0.188 0 0.125 0 0.125 0 0.25 0.063 0.063 0.125 0.125 0.25 0.125 0.25 0.125 0.5-0.188 0.375-0.438-0.063-0.063-0.188-0.125-0.25-0.125zM17.375 13.125c-0.188 0.063-0.375 0.188-0.375 0.313s0.125 0.313 0.313 0.313c0.313 0.063 0.5-0.188 0.375-0.5-0.063-0.125-0.125-0.125-0.313-0.125zM16.25 13.188c-0.188 0.063-0.25 0.125-0.25 0.313 0 0.125 0.063 0.25 0.25 0.313 0.125 0 0.188 0 0.313-0.063s0.125-0.125 0.125-0.313c0-0.125 0-0.125-0.063-0.188-0.125-0.125-0.25-0.125-0.375-0.063zM18.5 13.188c-0.313 0.125-0.375 0.188-0.375 0.375 0.063 0.188 0.25 0.313 0.438 0.313 0.063 0 0.188-0.063 0.25-0.188 0.063-0.063 0.063-0.313 0-0.375 0 0-0.063-0.063-0.063-0.063s0 0 0 0c-0.063-0.063-0.188-0.063-0.25-0.063zM22.375 13.25c-0.063 0-0.125 0.063-0.125 0.063s0 0 0 0c-0.063 0-0.188 0.188-0.188 0.25 0 0.125 0.125 0.25 0.313 0.25 0.063 0.063 0.188 0 0.188 0 0-0.063 0-0.063 0.063-0.063 0 0 0.063-0.063 0.125-0.188 0.063-0.188-0.125-0.375-0.375-0.313zM15.563 13.313c-0.125 0-0.188 0-0.188 0.063 0 0-0.125 0-0.188 0s-0.188 0-0.25 0.063c-0.313 0.125-0.313 0.438 0 0.563 0.125 0.063 0.125 0.063 0.313 0 0.125 0 0.25-0.063 0.313-0.063s0.25 0 0.313-0.063c0-0.063 0.063-0.125 0.063-0.188 0-0.25-0.125-0.438-0.375-0.375zM19.5 13.375c-0.063 0-0.125 0.063-0.188 0.125s-0.063 0.063-0.063 0.188 0.063 0.188 0.125 0.188c0 0 0 0.063 0 0.063s0.188 0.063 0.25 0.063c0.063 0 0.25-0.125 0.25-0.188 0.063-0.063 0.063-0.063 0.063-0.188s0-0.125-0.063-0.188c-0.063-0.125-0.125-0.125-0.188-0.125s-0.188 0.063-0.188 0.063zM27.5 13.563c-0.25 0.188-0.75 0.438-0.938 0.5-0.688 0.188-1 0.25-1.375 0.313-0.375 0-0.438 0.063-0.438 0.25 0.063 0.125 0.063 0.125 0.375 0.125 0.25 0 0.5-0.063 0.875-0.125 0.125-0.063 0.25-0.063 0.25-0.063 0.188-0.063 0.313-0.125 0.375-0.125 0 0 0 0 0.063 0 0 0 0.063-0.063 0.125-0.063s0.063-0.063 0.125-0.063c0.188-0.063 0.5-0.25 0.563-0.313 0.063 0 0.063-0.063 0.125-0.063 0.188-0.188 0.25-0.375 0.125-0.438-0.063-0.063-0.063-0.063-0.25 0.063zM23.625 13.5c-0.063 0-0.125 0.063-0.188 0.125s-0.125 0.125 0 0.25 0.313 0.188 0.438 0.063c0.125-0.063 0.188-0.188 0.125-0.25-0.063-0.188-0.188-0.25-0.375-0.188zM20.438 13.688c-0.188 0.063-0.25 0.125-0.25 0.25-0.063 0.188 0.125 0.375 0.375 0.375 0.063 0 0.188-0.063 0.25-0.063 0.063-0.125 0.125-0.188 0.125-0.313s-0.063-0.188-0.188-0.25c-0.063-0.063-0.188-0.063-0.313 0zM21.625 13.688c-0.313 0.125-0.375 0.438-0.125 0.625 0.063 0 0.125 0.063 0.188 0.063 0.188 0 0.188 0 0.25-0.125l0.125-0.125v-0.125c0-0.125 0-0.188-0.063-0.188-0.125-0.125-0.188-0.125-0.375-0.125zM13.938 13.75c-0.25 0.063-0.313 0.063-0.375 0.063 0 0-0.25 0.063-0.5 0.063-0.5 0-0.75 0-0.875 0.063-0.188 0.063-0.25 0.125-0.313 0.188s-0.063 0.063-0.063 0.188c0 0.063 0 0.125 0.125 0.188 0.063 0.063 0.5 0.063 0.75 0 0.375-0.063 0.563-0.063 0.875-0.125 0.438 0 0.625-0.063 0.75-0.063 0.125-0.063 0.188-0.063 0.188-0.125 0 0 0 0 0-0.063 0.063 0 0.063-0.063 0.063-0.125 0-0.125 0-0.125-0.063-0.188l-0.125-0.125h-0.188c-0.125 0-0.25 0.063-0.25 0.063zM22.813 14c-0.125 0.063-0.188 0.125-0.25 0.25 0 0 0.063 0.125 0.125 0.25 0.063 0.063 0.313 0.125 0.438 0.063s0.25-0.25 0.188-0.375c-0.063-0.25-0.25-0.313-0.5-0.188zM17 14.188c-0.25 0.125-0.313 0.313-0.188 0.438 0 0.063 0.063 0.125 0.063 0.125s0.063 0 0.063 0c0 0.063 0.063 0.063 0.188 0.063 0.063 0 0.125 0 0.188-0.063s0.188-0.25 0.188-0.313c0-0.063-0.063-0.188-0.125-0.25s-0.25-0.063-0.375 0zM23.875 14.25c-0.188 0.063-0.25 0.25-0.188 0.375s0.188 0.188 0.313 0.188c0.125 0.063 0.375-0.063 0.375-0.25 0.063-0.125 0-0.25-0.063-0.313-0.125-0.125-0.25-0.125-0.438 0zM18.125 14.188c0 0-0.063 0.063-0.063 0.063-0.063 0-0.25 0.125-0.25 0.25-0.063 0.063 0 0.25 0.188 0.313 0.063 0.063 0.25 0.063 0.313 0 0.125-0.063 0.188-0.125 0.188-0.188 0.063-0.125 0.063-0.125 0-0.25-0.063-0.063-0.063-0.125-0.188-0.188-0.063 0-0.125 0-0.188 0zM16.313 14.25c-0.125 0.063-0.25 0.188-0.25 0.25-0.063 0.063 0.063 0.188 0.125 0.25 0 0 0.063 0 0.063 0 0 0.063 0.188 0.063 0.25 0 0.125-0.063 0.188-0.125 0.188-0.25s0-0.125-0.063-0.188-0.063-0.063-0.125-0.063c0 0 0 0-0.063 0 0 0-0.063 0-0.125 0zM18.938 14.313c-0.125 0.063-0.188 0.188-0.188 0.25-0.063 0.25 0.25 0.5 0.5 0.313 0.188-0.063 0.25-0.375 0.125-0.5-0.063-0.063-0.125-0.063-0.25-0.063-0.063 0-0.125 0-0.188 0zM15.188 14.313c-0.25 0.063-0.438 0.125-0.563 0.25-0.063 0.125-0.063 0.125-0.063 0.25 0 0.063 0.063 0.188 0.125 0.188 0 0 0 0 0 0s0.063 0.063 0.125 0.063 0.313 0 0.438-0.063l0.063-0.125 0.125 0.063c0.25 0.125 0.438 0 0.5-0.188 0.063-0.25-0.063-0.375-0.313-0.438-0.125 0-0.25 0-0.438 0zM20 14.5c-0.063 0.063-0.188 0.125-0.188 0.125-0.125 0.125-0.125 0.125-0.125 0.188 0 0.25 0.313 0.438 0.5 0.313 0.125-0.063 0.25-0.188 0.25-0.313 0-0.25-0.188-0.375-0.438-0.313zM27.313 14.563c-0.125 0-0.188 0.25-0.188 0.563s0 0.375 0.313 0.688c0.25 0.188 0.25 0.25 0.313 0.375 0.063 0.188 0.125 0.25 0.25 0.25 0.063-0.063 0.125-0.063 0.188-0.188s0-0.25-0.25-0.438c-0.063-0.063-0.125-0.063-0.125-0.125 0 0 0 0 0 0-0.063 0-0.313-0.25-0.375-0.375s-0.063-0.188-0.063-0.313c0-0.063 0.063-0.188 0.063-0.313s0-0.125 0-0.125c-0.063-0.063-0.063-0.063-0.125 0zM13.688 14.563c0 0.063-0.125 0.063-0.25 0.125-0.125 0-0.188 0.063-0.188 0.063-0.063 0-0.063 0-0.125 0.063-0.063 0-0.063 0.063-0.125 0.063-0.188-0.063-0.625-0.063-0.938 0.063-0.25 0.063-0.313 0.125-0.313 0.25-0.063 0.125 0 0.125 0 0.188 0 0 0.063 0 0.063 0.063 0 0 0 0 0.063 0 0.125 0.063 0.5 0.063 0.875 0 0.125 0 0.375-0.063 0.5-0.063 0.75-0.063 1.188-0.188 1.188-0.438 0-0.125-0.188-0.313-0.375-0.375-0.063 0-0.25 0-0.375 0zM22.188 14.688c-0.063 0-0.125 0-0.125 0 0 0.063 0 0.063-0.063 0.063 0 0 0 0-0.063 0.063s-0.063 0.125-0.063 0.188c0 0.063 0 0.125 0.063 0.125 0 0 0 0 0 0s0 0.063 0.063 0.063c0.125 0.125 0.313 0.188 0.438 0.063 0.25-0.188 0.25-0.5 0-0.625-0.063 0-0.125 0-0.25 0.063zM21 14.688c-0.125 0.063-0.25 0.25-0.25 0.313s0.063 0.188 0.125 0.25c0.063 0.063 0.063 0.063 0.125 0.063 0 0 0 0 0.063 0 0 0.063 0.063 0.063 0.125 0 0.125 0 0.188-0.063 0.25-0.188s0.063-0.188 0-0.313c-0.063-0.125-0.25-0.188-0.438-0.125zM23.313 14.938c-0.063 0-0.125 0.063-0.188 0.125s-0.125 0.063-0.125 0.188c0 0.125 0.063 0.188 0.188 0.25s0.313 0.063 0.375 0c0.125-0.063 0.188-0.125 0.188-0.313 0-0.125 0-0.125-0.063-0.188s-0.125-0.063-0.188-0.063c-0.063 0-0.125 0-0.188 0zM26.625 15c0 0.063-0.063 0.125 0 0.188 0 0.063 0.125 0.125 0.188 0.063 0.188-0.063 0.125-0.25-0.063-0.25 0 0-0.063 0-0.125 0zM24.438 15.188c-0.063 0-0.125 0.063-0.188 0.125s-0.063 0.063-0.063 0.125c0 0.188 0.063 0.25 0.25 0.313 0.125 0.063 0.125 0.063 0.188 0 0.125 0 0.25-0.125 0.25-0.25 0 0 0.063-0.063 0.063-0.063 0-0.063-0.063-0.188-0.125-0.25s-0.25-0.063-0.375 0zM25.938 15.188c0 0-0.063 0-0.063 0s-0.063 0.063-0.063 0.125c0 0.063 0.063 0.188 0.063 0.188 0.063 0 0.125 0 0.125 0 0.188 0 0.25-0.25 0.125-0.313-0.063-0.063-0.188-0.063-0.188 0zM17.375 15.313c-0.125 0.063-0.125 0.125-0.063 0.25 0.063 0.063 0.125 0.063 0.25 0.063 0.063 0 0.125 0 0.188-0.063 0.063-0.125 0.063-0.188 0-0.25 0-0.063-0.063-0.063-0.188-0.063-0.063 0-0.125 0-0.188 0.063zM14.625 15.313c-0.125 0-0.25 0.125-0.25 0.25 0 0.188 0.125 0.25 0.313 0.25s0.313-0.125 0.313-0.25c0-0.188-0.188-0.313-0.375-0.25zM18.25 15.375c-0.063 0.063-0.063 0.063-0.063 0.188 0.063 0.063 0.125 0.125 0.188 0.125 0.188 0 0.313-0.25 0.188-0.313-0.063-0.063-0.25-0.063-0.313 0zM26.688 15.438c-0.063 0.063-0.063 0.125-0.063 0.188 0.125 0.125 0.188 0.125 0.313 0.063 0.063-0.063 0.063-0.063 0.063-0.125 0-0.125-0.063-0.188-0.188-0.188-0.063 0-0.125 0-0.125 0.063zM15.563 15.5c-0.125 0.063-0.188 0.063-0.188 0.125-0.063 0.125 0 0.188 0.125 0.25 0.063 0.063 0.063 0.063 0.188 0.063s0.125 0 0.188-0.063 0.125-0.063 0.125-0.188c0-0.125-0.063-0.125-0.063-0.188-0.063-0.063-0.125-0.063-0.188-0.063s-0.188 0-0.188 0.063zM19.75 15.563c-0.063 0-0.125 0.063-0.188 0.063-0.063 0.063-0.063 0.125-0.063 0.188 0 0.125 0.063 0.188 0.125 0.25 0.188 0.063 0.438 0 0.5-0.188 0-0.063 0-0.188-0.125-0.25 0-0.063-0.188-0.063-0.25-0.063zM25.375 15.625c-0.063 0.063-0.125 0.188-0.063 0.25 0.063 0.125 0.188 0.188 0.313 0.063s0.063-0.313-0.125-0.313c-0.063 0-0.125 0-0.125 0zM13.875 15.75c-0.063 0-0.063 0.063-0.125 0.063-0.063 0.063-0.063 0.313 0 0.375s0.188 0.063 0.25 0.063c0.063 0 0.125 0 0.188-0.125 0.125-0.063 0.063-0.313-0.063-0.375-0.063-0.063-0.125-0.063-0.25 0zM18.875 15.75c-0.125 0-0.188 0.063-0.188 0.125-0.063 0.125 0.063 0.25 0.25 0.25 0.063 0 0.125 0 0.188-0.063s0.063-0.188 0-0.313c-0.063 0-0.063-0.063-0.063-0.063s-0.063 0-0.063 0c0 0-0.063 0-0.125 0.063zM20.5 15.75c-0.125 0.063-0.188 0.125-0.25 0.188s-0.063 0.063 0 0.125c0.125 0.25 0.375 0.25 0.563 0.063 0.063-0.125 0-0.313-0.125-0.375-0.063-0.063-0.125-0.063-0.188 0zM13.25 15.75c0 0.063-0.063 0.063-0.063 0.063s-0.063 0-0.063 0-0.125 0.188-0.063 0.25c0 0 0 0.063 0 0.063s0.063 0 0.063 0c0 0 0 0 0 0.063 0 0 0.063 0 0.125 0 0.25 0.063 0.438-0.063 0.375-0.313-0.063-0.063-0.188-0.125-0.375-0.125zM26 15.813c-0.063 0.063-0.063 0.188 0.063 0.25 0 0.063 0.063 0.063 0.125 0.063 0.125 0 0.25-0.188 0.125-0.313-0.063-0.063-0.188-0.063-0.313 0zM26.75 15.813c0 0-0.063 0-0.063 0-0.063 0-0.125 0.125-0.125 0.188 0 0 0 0.063 0.063 0.063 0.063 0.063 0.063 0.063 0.188 0.063s0.188 0 0.188-0.125c0-0.125 0-0.125 0-0.188-0.063-0.063-0.25-0.063-0.25 0zM17.938 15.875c-0.063 0-0.125 0.063-0.125 0.125-0.063 0.063-0.063 0.063 0 0.125s0.125 0.125 0.25 0.125c0.125 0 0.188-0.125 0.188-0.25s-0.063-0.188-0.188-0.188c-0.063 0-0.125 0-0.125 0.063zM23.875 16c0 0 0 0.125 0 0.188s0.063 0.063 0.063 0.125c0.063 0 0.063 0 0.188 0 0.063-0.063 0.125-0.125 0.125-0.188s0-0.063-0.063-0.125c0-0.063-0.063-0.063-0.125-0.063-0.125 0-0.125 0-0.188 0.063zM14.75 16.063c-0.125 0.063-0.188 0.188-0.063 0.313 0.063 0.063 0.125 0.125 0.188 0.063 0.125 0 0.125 0 0.25-0.125 0-0.063 0-0.125 0-0.188-0.125-0.063-0.25-0.125-0.375-0.063zM24.5 16.125c-0.125 0-0.188 0.188-0.063 0.25 0.063 0.125 0.188 0.063 0.313 0 0.125-0.125 0.063-0.25-0.125-0.313-0.063 0-0.125 0-0.125 0.063zM19.313 16.25c-0.063 0.063-0.125 0.063-0.063 0.125 0 0.125 0.063 0.125 0.125 0.188 0.063 0 0.125 0 0.188 0 0.125-0.063 0.125-0.125 0.125-0.25s-0.063-0.188-0.188-0.188c-0.125 0-0.125 0-0.188 0.125zM23.313 16.188c-0.125 0.063-0.125 0.188 0 0.25 0.063 0.063 0.188 0.063 0.188 0.063s0-0.063 0-0.063c0.063 0 0.125-0.063 0.125-0.125s-0.063-0.125-0.125-0.125c0 0-0.063 0-0.063 0 0-0.063-0.063-0.063-0.125 0zM25.625 16.188c-0.125 0.063-0.188 0.125-0.188 0.188 0 0.188 0.375 0.25 0.438 0 0-0.063 0-0.125-0.125-0.188-0.063 0-0.063 0-0.125 0zM21 16.25c-0.125 0.063-0.125 0.063-0.125 0.188-0.063 0.125 0.063 0.313 0.25 0.313 0.25 0 0.375-0.188 0.313-0.375s-0.25-0.188-0.438-0.125zM18.625 16.25c-0.063 0-0.125 0.063-0.125 0.125-0.125 0.063-0.125 0.125-0.063 0.25 0.125 0.063 0.188 0.063 0.313 0.063 0.188-0.125 0.188-0.375 0-0.438-0.063 0-0.125 0-0.125 0zM27.063 16.25c-0.125 0.063-0.188 0.125-0.188 0.188s0 0.063 0.063 0.125 0.188 0.125 0.25 0.063c0.25-0.125 0.125-0.438-0.125-0.375zM20.188 16.375c-0.188 0.063-0.25 0.125-0.25 0.25 0 0.063 0 0.125 0.063 0.125 0.125 0.125 0.188 0.125 0.313 0.125 0.25-0.063 0.313-0.375 0.125-0.5-0.125-0.063-0.125-0.063-0.25 0zM26.313 16.438c-0.063 0-0.063 0.063-0.063 0.063s0 0-0.063 0c0 0 0 0.063 0 0.125 0 0 0 0.063 0 0.063 0.063 0 0.063 0 0.063 0s0 0.063 0 0.063c0.063 0 0.063 0 0.063 0s0 0 0.063 0c0.125 0.063 0.313-0.063 0.25-0.188 0-0.125-0.188-0.188-0.313-0.125zM25 16.438c-0.063 0.063-0.125 0.063-0.125 0.125-0.063 0.063-0.063 0.063 0 0.125 0.063 0.188 0.313 0.188 0.375 0 0.063-0.063 0.063-0.063 0.063-0.125-0.063-0.063-0.063-0.063-0.125-0.125-0.063 0-0.063 0-0.188 0zM14.063 16.5c-0.063 0.063-0.125 0.188-0.125 0.25s0.063 0.125 0.063 0.125c0.063 0.125 0.063 0.125 0.188 0.125s0.125 0 0.188-0.063c0.125-0.063 0.188-0.25 0.063-0.375-0.063-0.063-0.063-0.125-0.188-0.125-0.063 0-0.125 0.063-0.188 0.063zM12.813 16.5c-0.25 0.125-0.25 0.313 0 0.438 0.125 0.063 0.25 0.063 0.313-0.063 0.125-0.063 0.125-0.188 0-0.313-0.063-0.063-0.188-0.063-0.313-0.063zM13.438 16.5c-0.125 0.063-0.188 0.188-0.188 0.25 0 0 0 0.063 0 0.063s0 0 0 0c0 0.063 0.125 0.063 0.188 0.125 0.063 0 0.125 0 0.188 0 0.25-0.125 0.25-0.375 0-0.438-0.063 0-0.125 0-0.188 0zM23.813 16.563c-0.063 0-0.063 0.063-0.063 0.063 0 0.063 0 0.125 0.063 0.188 0.125 0.063 0.25-0.063 0.25-0.188 0-0.063-0.188-0.125-0.25-0.063zM22.813 16.563c-0.063 0.063-0.125 0.125-0.125 0.188 0 0 0 0.063 0 0.125 0.063 0 0.125 0.063 0.188 0.063 0.125 0 0.188-0.063 0.188-0.188 0-0.063-0.063-0.125-0.063-0.125 0-0.063-0.125-0.063-0.188-0.063zM24.375 16.625c-0.125 0.063-0.125 0.063-0.125 0.125 0 0.125 0.188 0.188 0.25 0.125s0.063-0.125 0.063-0.188c-0.063-0.063-0.125-0.063-0.188-0.063zM27.375 16.688c-0.063 0-0.125 0.063-0.125 0.063-0.125 0.125 0 0.25 0.188 0.25s0.313-0.188 0.125-0.313c-0.063-0.063-0.125-0.063-0.188 0zM25.563 16.813c-0.125 0.063-0.188 0.188-0.063 0.313s0.375 0 0.375-0.188c0-0.063-0.125-0.125-0.188-0.125 0 0-0.063 0-0.125 0zM26.688 17.063c-0.063 0.063-0.063 0.063 0 0.125 0.125 0.125 0.438 0.125 0.438-0.063 0 0-0.063-0.063-0.063-0.063 0-0.063-0.063-0.063-0.125-0.063-0.125 0-0.188 0-0.25 0.063zM23.875 17.063c-0.063 0.125 0 0.25 0.125 0.25 0.063 0 0.125-0.063 0.125-0.125 0-0.125-0.188-0.188-0.25-0.125zM26.188 17.125c-0.063 0.063-0.063 0.063-0.063 0.125 0 0.125 0.063 0.188 0.125 0.188 0.188 0 0.313-0.063 0.313-0.188s-0.188-0.188-0.375-0.125zM13.438 17.188c-0.063 0-0.125 0-0.125 0 0 0.063 0 0.063 0 0.063s-0.063 0-0.063 0c0 0.063 0 0.063 0 0.063-0.063 0 0 0.125 0.063 0.188 0 0 0.063 0.063 0.125 0.063 0.063 0.063 0.063 0.063 0.125 0 0.063 0 0.125-0.063 0.125-0.063 0.063-0.063 0.063-0.25 0-0.313-0.063 0-0.188-0.063-0.25 0zM12.563 17.188c0 0.063-0.063 0.063-0.063 0.063-0.125 0-0.188 0.125-0.188 0.125 0 0.063 0 0.063 0.063 0.125s0.188 0.125 0.313 0.125c0.188 0 0.313-0.063 0.375-0.125 0-0.063 0-0.125 0-0.125-0.063-0.125-0.313-0.188-0.5-0.188zM11.813 17.313c-0.125 0.063-0.188 0.125-0.188 0.188 0 0-0.063 0-0.063-0.063-0.063-0.063-0.125-0.063-0.188-0.063-0.313 0-0.5 0.125-0.375 0.313 0.063 0.063 0.188 0.125 0.313 0.125s0.125 0 0.188-0.063 0.063-0.125 0.063-0.125c0 0 0.063 0 0.063 0.063 0.063 0 0.063 0.063 0.125 0.063 0 0 0.063 0 0.063 0s0 0.063 0.063 0.063c0 0 0.063-0.063 0.063-0.063s0.063 0 0.063 0 0.125-0.125 0.188-0.188c0.063-0.125 0-0.188-0.125-0.25-0.125 0-0.188 0-0.25 0zM23.375 17.375c0 0-0.063 0.063 0 0.125 0 0.063 0.125 0.125 0.188 0.063 0 0 0 0 0 0 0.063 0 0.125-0.063 0.125-0.125s-0.063-0.063-0.063-0.125c-0.063 0-0.188 0-0.25 0.063zM23.688 17.813c0 0.063 0 0.063 0 0.125 0.063 0.063 0.063 0.063 0.125 0.063 0.125 0 0.25-0.063 0.188-0.188 0-0.063 0-0.063-0.125-0.063s-0.125 0-0.188 0.063zM23.313 17.875c-0.125 0.063-0.125 0.063-0.063 0.125 0 0.063 0.063 0.063 0.063 0.063s0.063 0 0.063 0.063c0 0 0.063 0 0.125-0.063s0.063-0.063 0.063-0.125c0-0.125-0.188-0.188-0.25-0.063zM12.688 17.938c-0.063 0-0.188 0.125-0.188 0.188s0.063 0.125 0.063 0.125 0.125 0.063 0.188 0.063 0.188 0 0.25-0.125c0-0.063 0-0.063 0-0.125-0.063-0.063-0.063-0.125-0.063-0.125-0.063 0-0.188 0-0.25 0zM12.063 17.938c-0.125 0.063-0.188 0.125-0.188 0.188-0.063 0.125 0.063 0.25 0.25 0.25 0.125 0 0.25 0 0.313-0.125 0-0.063 0-0.188-0.063-0.25s-0.063-0.063-0.188-0.063c-0.063 0-0.125 0-0.125 0zM11.375 18.063c-0.063 0-0.125 0.063-0.125 0.125-0.063 0.188 0.063 0.313 0.188 0.313s0.188 0 0.313-0.125c0.188-0.188-0.063-0.438-0.375-0.313zM23.813 18.313c0 0-0.063 0.063-0.063 0.063-0.063 0.063 0.063 0.188 0.125 0.188 0.125 0 0.25-0.125 0.125-0.25 0 0-0.125 0-0.188 0zM23.313 18.375c0 0-0.063 0.063-0.063 0.063 0 0.063 0 0.063 0 0.125 0.063 0.063 0.063 0.063 0.125 0.063 0.125 0 0.188-0.188 0.125-0.25s-0.125-0.063-0.188 0zM11.688 18.625c-0.063 0.063-0.063 0.125 0 0.188s0.125 0.063 0.188 0.063c0.125-0.063 0.125-0.188 0-0.25-0.063-0.063-0.188-0.063-0.188 0zM12.125 18.625c0 0.063 0 0.188 0.063 0.188 0.063 0.063 0.125 0.063 0.188 0 0.063 0 0.063-0.125 0-0.188s-0.188-0.063-0.25 0zM23.625 18.938c-0.063 0.063-0.063 0.063-0.063 0.125 0.063 0.125 0.188 0.125 0.313 0 0-0.063 0-0.063 0-0.125s-0.125-0.063-0.188-0.063c0 0-0.063 0-0.063 0.063zM11.375 18.938c-0.063 0-0.125 0.063-0.125 0.125s0 0.063 0.063 0.125 0.063 0.063 0.188 0c0.063-0.063 0.063-0.188 0-0.25s-0.063-0.063-0.125 0zM11.875 19c-0.125 0.063-0.125 0.188 0 0.25 0.063 0.063 0.188-0.063 0.188-0.125s0-0.125-0.063-0.125c0 0-0.125-0.063-0.125 0zM11.063 19.375c-0.063 0.125 0.063 0.313 0.188 0.25s0.125-0.125 0.063-0.25c-0.063-0.063-0.25-0.063-0.25 0z"></path>
</svg>
