<!-- Generated by IcoMoon.io -->
<svg version="1.1" xmlns="http://www.w3.org/2000/svg" width="32" height="32" viewBox="0 0 32 32">
<title>Gerenuk</title>
<path d="M19.313 3c-1 0.75-1.125 0.813-1.75 0.875-1.313 0.188-1.688 0.125-2.5-0.313-0.438-0.25-1-0.438-1.25-0.5-0.375-0.063-0.438-0.063-0.438 0.188s1.063 1.375 1.313 1.375c0.25 0 1.188 0.563 1.438 0.875 0.375 0.5 0.438 1.5 0.563 4.813l0.063 2.688-0.375-0.063c-0.188 0-1.063-0.188-1.875-0.375-1.688-0.313-2.063-0.313-3.313 0.125-1.125 0.313-1.5 0.688-2.125 1.875l-0.5 1 0.063 1.313c0.188 2.188 0.188 4.563 0.125 5.5-0.063 0.5-0.125 1.813-0.188 2.938-0.063 1.75-0.313 3.688-0.688 5.563-0.063 0.188-0.063 0.313 0 0.313 0.188 0 0.813-2.75 1.063-4.875 0.063-0.563 0.188-1.438 0.313-1.875 0.063-0.5 0.25-1.5 0.313-2.188 0.125-0.875 0.313-1.563 0.5-1.938 0.125-0.313 0.375-0.938 0.563-1.375 0.125-0.375 0.313-0.75 0.375-0.75 0.25-0.125 0.625 0.375 0.625 0.813 0 0.25 0.063 0.438 0.125 0.438 0.188 0.063 0 1-0.375 1.813s-0.25 4.188 0.188 4.188c0 0 0.063-0.25 0.063-0.563 0-1.625 0.5-3.063 1.688-4.75 0.688-1 0.688-1 1.188 2 0.313 1.938 0.313 2.125 0.313 5.688v3.688h0.375c0.375 0 0.438 0 0.313-0.313 0-0.188-0.063-2.875-0.125-6.063l-0.063-5.688h0.688l-0.063 5.5c0 5.5 0.063 6.75 0.25 6.25 0.125-0.313 0.188-1.438 0.25-3.75 0.125-4.188 0.25-5.313 0.625-6.75 0.125-0.625 0.25-1.188 0.25-1.313s0.25-0.688 0.625-1.25c0.5-0.875 0.563-1.063 0.563-1.75 0-0.375-0.063-1.063-0.125-1.5-0.125-0.813-0.438-4.625-0.563-6.875-0.063-1.375-0.063-1.5 0.188-1.75 0.125-0.188 0.25-0.5 0.313-0.75 0.125-0.75 0.5-1.125 1.375-1.75 1.063-0.625 1.25-0.813 1.25-1.063 0-0.188-0.063-0.25-0.438-0.25s-0.625 0.125-1.188 0.563z"></path>
</svg>
