<svg xmlns="http://www.w3.org/2000/svg" xmlns:xlink="http://www.w3.org/1999/xlink" xmlns:serif="http://www.serif.com/" viewBox="0 0 32 40" version="1.1" xml:space="preserve" style="" x="0px" y="0px" fill-rule="evenodd" clip-rule="evenodd" stroke-linejoin="round" stroke-miterlimit="2"><g transform="matrix(1,0,0,1,-74,-417)"><path d="M90.958,444.994C91.33,445.156 91.936,445.337 92.439,445.1C92.509,445.067 92.575,445.036 92.636,445.008C92.632,445.015 92.629,445.019 92.629,445.019C92.629,445.019 94.235,445.118 94.42,445.933C94.606,446.748 94.42,446.538 93.568,446.118C92.716,445.698 91.444,446.168 91.098,445.884C90.781,445.623 90.93,445.084 90.958,444.994ZM92.737,444.819C92.751,444.791 92.767,444.76 92.783,444.726C93.115,444.521 93.604,444.257 94.086,444.133C94.252,444.143 95.217,444.231 95.3,444.849C95.372,445.378 94.812,445.46 94.415,445.486C94.257,445.304 94.033,445.166 93.788,445.066C93.382,444.901 92.93,444.839 92.737,444.819ZM90.972,444.786L90.98,443.314C90.98,443.314 89.554,444.286 88.488,443.643C87.423,443.001 86.404,441.481 86.545,439.522C86.686,437.564 86.612,436.337 87.611,434.907C88.61,433.477 90.803,432.047 92.067,433.281C92.067,433.281 92.153,433.331 92.246,433.459C92.161,433.434 92.057,433.41 91.943,433.398C91.622,433.363 91.227,433.421 90.918,433.77C90.621,434.107 90.561,434.626 90.679,435.099C90.797,435.573 91.094,435.989 91.458,436.133C91.667,436.216 91.871,436.244 92.062,436.226C92.031,436.237 92,436.248 91.966,436.259L92.543,436.673L95.494,434.688C95.494,434.688 95.673,434.55 95.95,434.344C96.088,434.584 96.267,434.775 96.45,434.828C96.456,434.83 96.454,434.838 96.456,434.844C96.459,434.854 96.462,434.866 96.464,434.877C96.47,434.914 96.472,434.954 96.473,434.996C96.478,435.197 96.472,435.43 96.554,435.607C96.566,435.632 96.583,435.655 96.603,435.673C96.023,436.309 94.429,438.052 94.041,438.419C93.565,438.871 92.731,439.675 91.39,439.249C90.724,439.037 90.472,438.956 90.387,438.927L90.387,438.923C90.387,438.923 90.301,438.898 90.387,438.927L90.462,440.402C90.462,440.402 92.751,438.613 93.315,440.807C93.687,442.256 93.283,443.629 92.966,444.394C92.873,444.446 92.787,444.497 92.709,444.545C92.676,444.566 92.648,444.596 92.631,444.632C92.585,444.727 92.547,444.8 92.521,444.847L92.38,444.913C91.929,445.126 91.384,444.949 91.049,444.803C91.024,444.793 90.998,444.787 90.972,444.786ZM92.918,439.44C93.125,439.457 93.333,439.518 93.525,439.645C94.276,440.14 94.172,443.099 94.129,443.912C94.115,443.913 94.102,443.915 94.089,443.918C93.801,443.992 93.511,444.113 93.249,444.244C93.556,443.423 93.868,442.122 93.516,440.755C93.355,440.127 93.058,439.792 92.721,439.631C92.649,439.596 92.574,439.569 92.498,439.55C92.646,439.526 92.786,439.488 92.918,439.44ZM89.998,440.502C89.993,440.501 89.987,440.501 89.98,440.501C89.894,440.506 89.444,440.545 89.019,440.935C88.713,441.215 88.416,441.681 88.289,442.456C88.281,442.511 88.318,442.562 88.372,442.571C88.426,442.58 88.478,442.543 88.487,442.489C88.604,441.773 88.871,441.341 89.154,441.082C89.564,440.707 89.999,440.701 89.999,440.701C90.055,440.701 90.099,440.656 90.099,440.6C90.099,440.545 90.053,440.501 89.998,440.501L89.998,440.502ZM89.7,438.797C89.7,438.797 88.344,438.19 87.484,439.635C87.456,439.682 87.471,439.744 87.519,439.772C87.566,439.8 87.627,439.785 87.656,439.737C88.42,438.454 89.619,438.98 89.619,438.98C89.669,439.002 89.728,438.979 89.75,438.929C89.773,438.878 89.75,438.819 89.7,438.797ZM86.684,436.381C86.322,434.694 86.532,430.748 86.532,430.408C86.532,430.002 85.956,425.754 85.956,425.754C85.956,425.754 85.836,424.659 85.74,423.52C85.787,423.516 85.832,423.496 85.867,423.462C85.958,423.375 86.081,423.307 86.23,423.394C86.458,423.528 86.737,423.527 87.008,423.453C87.325,424.705 88.34,428.67 88.69,429.477C89.037,430.275 89.452,432.283 89.582,432.94C88.744,433.345 87.945,434.065 87.44,434.788C87.06,435.331 86.83,435.846 86.684,436.381ZM91.034,436.004C91.034,436.004 89.668,434.874 87.98,435.662C87.929,435.686 87.908,435.745 87.931,435.795C87.955,435.845 88.014,435.867 88.064,435.843C89.635,435.11 90.906,436.158 90.906,436.158C90.949,436.193 91.012,436.187 91.047,436.145C91.082,436.102 91.076,436.039 91.034,436.004ZM92.532,435.818C92.274,436.028 91.912,436.089 91.534,435.939C90.914,435.694 90.565,434.485 91.075,433.908C91.584,433.333 92.384,433.732 92.387,433.734C92.455,433.931 92.494,434.204 92.446,434.574C92.446,434.574 92.366,434.814 92.516,435.035C92.609,435.172 92.681,435.518 92.532,435.818ZM96.119,434.219C96.911,433.638 98.242,432.713 98.811,432.612C99.647,432.464 100.132,433.162 99.719,433.899C99.684,433.963 99.342,433.346 98.524,433.972C97.706,434.597 96.815,435.44 96.815,435.44L96.743,435.519C96.601,435.213 96.799,434.712 96.508,434.628C96.36,434.585 96.228,434.415 96.119,434.219ZM91.8,434.862C91.933,434.853 92.155,434.817 92.177,434.879C92.2,434.942 92.075,435.348 91.933,435.237C91.791,435.126 91.666,434.87 91.8,434.862ZM86.893,423.267C86.697,423.312 86.499,423.31 86.335,423.214C86.085,423.068 85.876,423.165 85.723,423.312C85.663,422.57 85.616,421.835 85.623,421.397C85.642,420.246 85.549,419.781 86.153,419.549C86.756,419.317 87.499,420.227 86.933,420.014C86.366,419.8 86.236,421.286 86.236,421.286C86.236,421.286 86.663,420.84 86.682,421.211C86.7,421.583 86.913,423.074 86.913,423.074C86.913,423.074 86.929,423.138 86.957,423.251C86.936,423.257 86.916,423.262 86.895,423.267L86.913,423.283L86.893,423.267ZM85.451,420.17C85.41,420.46 85.424,420.853 85.415,421.394L85.415,421.398L83.011,421.236C83.011,421.236 82.394,420.184 83.192,420.256C83.815,420.313 84.973,420.215 85.451,420.17ZM87.342,420.023L88.411,419.95C88.411,419.95 88.55,420.911 89.193,421.228L86.906,421.396C86.898,421.316 86.892,421.249 86.89,421.201C86.881,421.03 86.809,420.945 86.741,420.901C86.677,420.861 86.598,420.846 86.512,420.863C86.541,420.727 86.581,420.579 86.635,420.45C86.668,420.371 86.705,420.3 86.751,420.248C86.781,420.215 86.814,420.192 86.859,420.209C87.013,420.267 87.117,420.258 87.173,420.238C87.243,420.213 87.288,420.169 87.315,420.115C87.329,420.088 87.338,420.058 87.342,420.023Z"/></g><text x="0" y="47" fill="#000000" font-size="5px" font-weight="bold" font-family="'Helvetica Neue', Helvetica, Arial-Unicode, Arial, Sans-serif"></text><text x="0" y="52" fill="#000000" font-size="5px" font-weight="bold" font-family="'Helvetica Neue', Helvetica, Arial-Unicode, Arial, Sans-serif"></text></svg>
