<?xml version="1.0" standalone="no"?>
<!DOCTYPE svg PUBLIC "-//W3C//DTD SVG 20010904//EN"
 "http://www.w3.org/TR/2001/REC-SVG-20010904/DTD/svg10.dtd">
<svg version="1.0" xmlns="http://www.w3.org/2000/svg"
 width="500.000000pt" height="500.000000pt" viewBox="0 0 500.000000 500.000000"
 preserveAspectRatio="xMidYMid meet">

<g transform="translate(0.000000,500.000000) scale(0.100000,-0.100000)"
fill="#000000" stroke="none">
<path d="M608 4590 c-132 -24 -270 -84 -325 -143 -50 -53 -140 -192 -187 -290
-143 -298 -114 -568 81 -749 58 -53 101 -64 213 -55 77 6 131 30 175 77 28 29
30 38 33 113 3 74 0 88 -25 137 -23 46 -37 60 -82 83 -94 47 -190 31 -238 -42
-29 -44 -32 -120 -5 -145 18 -15 20 -14 35 24 31 79 126 75 151 -7 5 -17 1
-29 -18 -48 -48 -48 -158 -27 -201 38 -44 67 -21 213 58 381 131 276 283 388
482 355 59 -10 75 -17 101 -45 38 -39 61 -104 70 -188 5 -54 1 -73 -31 -161
-73 -198 -145 -417 -180 -549 -45 -171 -48 -292 -11 -440 37 -143 83 -225 187
-328 128 -127 146 -176 90 -247 -45 -56 -78 -126 -92 -189 -17 -85 -6 -223 25
-313 17 -47 30 -113 36 -182 6 -60 15 -128 20 -153 8 -33 7 -52 -3 -77 -20
-45 -31 -53 -127 -76 -155 -37 -468 -154 -511 -191 -48 -41 -63 -124 -56 -306
5 -138 4 -154 -14 -184 -40 -64 10 -100 138 -100 106 0 169 20 214 67 59 61
63 76 38 125 -45 88 -42 146 11 193 18 16 33 19 79 17 64 -4 231 28 294 56 24
10 81 25 127 31 47 7 105 20 130 28 45 16 138 69 153 88 7 8 4 252 -6 465 l-2
45 55 0 c41 0 73 -9 125 -33 86 -41 213 -125 284 -189 l54 -49 -46 -84 c-126
-234 -246 -569 -279 -783 -9 -61 -9 -80 1 -90 8 -8 51 -12 134 -12 111 0 131
3 219 32 106 36 224 53 361 53 86 0 90 1 160 42 40 24 84 49 99 56 34 17 40
35 26 70 -12 27 -15 37 -17 59 0 6 -10 15 -21 18 -11 3 -20 15 -20 26 0 16 -7
19 -40 19 -23 0 -60 -10 -83 -22 -45 -23 -346 -87 -410 -88 l-39 0 41 46 c84
96 202 335 271 550 18 54 49 126 69 158 32 52 36 67 38 135 1 42 3 78 3 81 0
3 11 -27 24 -65 38 -110 119 -291 233 -520 168 -336 184 -363 258 -425 36 -30
68 -66 72 -79 3 -13 3 -61 -1 -106 -7 -98 -2 -106 79 -113 45 -4 61 0 99 22
76 44 119 148 114 272 l-3 68 -69 56 c-53 42 -75 67 -93 108 -42 97 -87 289
-182 787 -21 114 -19 123 45 166 49 33 206 89 250 89 44 0 77 -41 72 -88 -5
-38 8 -50 108 -101 145 -73 462 -149 784 -187 199 -23 338 -21 485 6 88 16
138 20 187 15 104 -10 105 23 0 78 -84 45 -65 59 34 27 110 -37 113 9 6 97
-49 40 -57 43 -111 43 -69 0 -139 -19 -212 -60 -33 -18 -69 -30 -92 -30 -43 0
-168 33 -303 81 -208 73 -507 239 -519 288 -4 14 -22 58 -40 97 -40 83 -38
104 16 179 18 25 33 45 33 45 1 0 23 -7 49 -15 26 -8 81 -17 121 -21 70 -6 76
-5 136 27 34 18 95 64 136 102 74 69 74 69 74 120 0 66 -30 134 -65 147 -31
12 -31 25 -1 120 24 74 24 75 5 101 -82 116 -248 177 -485 180 -97 1 -129 -3
-172 -19 -67 -26 -137 -71 -181 -116 l-35 -36 -125 0 c-340 0 -861 -84 -1461
-235 -96 -25 -184 -47 -195 -50 -13 -4 -54 10 -113 40 -157 79 -261 204 -293
355 -22 102 -7 218 49 390 68 205 90 301 102 442 25 279 -45 455 -215 538
-125 62 -301 92 -417 70z m2200 -2367 c-90 -75 -221 -188 -292 -252 l-128
-115 6 -40 c3 -23 9 -52 12 -66 5 -18 -2 -12 -24 20 -33 50 -146 162 -352 350
-135 124 -177 170 -104 116 84 -63 143 -114 239 -206 l100 -96 92 4 92 4 118
106 c215 192 366 312 395 312 5 0 -64 -62 -154 -137z"/>
</g>
</svg>
