<!-- Generated by IcoMoon.io -->
<svg version="1.1" xmlns="http://www.w3.org/2000/svg" width="32" height="32" viewBox="0 0 32 32">
<title>Goat</title>
<path d="M0.875-2.313h-0.188c0 0.125-0.063 0.188-0.188 0.188-0.188 0-0.25-0.125-0.25-0.313 0-0.25 0.063-0.375 0.25-0.375 0.125 0 0.188 0.063 0.188 0.188h0.188c0-0.188-0.188-0.313-0.375-0.313-0.25 0-0.438 0.188-0.438 0.5 0 0.25 0.188 0.438 0.438 0.438 0.188 0 0.375-0.125 0.375-0.313zM0.5-2.5v-0.188c-0.063 0-0.063 0-0.063 0-0.063 0-0.125 0.063-0.188 0.125v-0.125h-0.188v0.688h0.188v-0.375c0-0.125 0.063-0.125 0.188-0.125 0 0 0 0 0.063 0zM0.688-2.313c0-0.25-0.125-0.375-0.313-0.375-0.25 0-0.375 0.125-0.375 0.375 0 0.188 0.125 0.313 0.375 0.313 0.125 0 0.25-0.063 0.313-0.188h-0.188c0 0.063-0.063 0.063-0.125 0.063-0.125 0-0.188-0.063-0.188-0.188h0.5zM0.5-2.438h-0.313c0.063-0.063 0.063-0.125 0.188-0.125 0.063 0 0.125 0.063 0.125 0.125zM0.688-2v0c-0.063-0.063-0.063-0.063-0.063-0.125v-0.375c0-0.125-0.063-0.188-0.25-0.188s-0.313 0.063-0.313 0.25h0.188c0-0.125 0-0.125 0.125-0.125 0.063 0 0.063 0 0.063 0.063s-0.063 0.063-0.125 0.063l-0.063 0.063c-0.125 0-0.188 0.063-0.188 0.188s0.063 0.188 0.188 0.188c0.063 0 0.125 0 0.188-0.063 0 0 0 0.063 0.063 0.063zM0.438-2.313c0 0.125-0.063 0.188-0.125 0.188s-0.125-0.063-0.125-0.063c0-0.063 0.063-0.063 0.125-0.125h0.063c0.063 0 0.063 0 0.063 0zM0.375-2v-0.125c0 0 0 0 0 0-0.063 0-0.063 0-0.063-0.063v-0.375h0.063v-0.125h-0.063v-0.188h-0.188v0.188h-0.125v0.125h0.125v0.438c0 0.063 0.063 0.125 0.188 0.125 0 0 0.063 0 0.063 0zM0.688-2v-0.938h-0.188v0.313c0-0.063-0.063-0.063-0.188-0.063s-0.25 0.125-0.25 0.313c0 0.25 0.063 0.375 0.25 0.375 0.125 0 0.188 0 0.188-0.063v0.063zM0.5-2.313c0 0.125-0.063 0.188-0.125 0.188-0.125 0-0.188-0.063-0.188-0.25 0-0.125 0.063-0.188 0.188-0.188 0.063 0 0.125 0.063 0.125 0.25zM0.75-2.313c0-0.25-0.125-0.375-0.313-0.375-0.063 0-0.125 0-0.188 0.063v-0.313h-0.188v0.938h0.188v-0.063c0.063 0.063 0.125 0.063 0.188 0.063 0.188 0 0.313-0.125 0.313-0.313zM0.563-2.375c0 0.125-0.063 0.25-0.125 0.25-0.125 0-0.188-0.063-0.188-0.25 0-0.125 0.063-0.188 0.188-0.188 0.063 0 0.125 0.063 0.125 0.188zM0.688-2.688h-0.188l-0.125 0.5-0.188-0.5h-0.188l0.25 0.688v0.063c0 0.063 0 0.063-0.063 0.063s-0.063 0-0.063 0v0.125c0 0 0 0 0.063 0 0.125 0 0.188 0 0.188-0.125zM0.813-2.938h-0.188l-0.188 0.438-0.188-0.438h-0.188l0.313 0.563v0.375h0.188v-0.375zM0.688-2v-0.688h-0.188v0.438c0 0.063-0.063 0.125-0.125 0.125s-0.125-0.063-0.125-0.125v-0.438h-0.188v0.438c0 0.188 0.125 0.25 0.25 0.25 0.063 0 0.125 0 0.188-0.063v0.063zM0.25-2v-0.938h-0.188v0.938zM0.688-2.25h-0.188c0 0.063-0.063 0.125-0.125 0.125-0.125 0-0.125-0.063-0.125-0.188s0-0.25 0.125-0.25c0.063 0 0.125 0.063 0.125 0.125h0.188c-0.063-0.188-0.125-0.25-0.313-0.25s-0.313 0.125-0.313 0.375c0 0.188 0.125 0.313 0.313 0.313s0.25-0.063 0.313-0.25zM0.688-2l-0.25-0.438 0.25-0.25h-0.188l-0.25 0.25v-0.5h-0.188v0.938h0.188v-0.25l0.063-0.063 0.188 0.313zM0.375-2.563v-0.125h-0.063v-0.063c0-0.063 0-0.063 0-0.063 0.063 0 0.063 0 0.063 0v-0.125c0 0-0.063 0-0.063 0-0.125 0-0.188 0.063-0.188 0.188v0.063h-0.125v0.125h0.125v0.563h0.188v-0.563zM0.75-2.313c0-0.25-0.125-0.375-0.375-0.375-0.188 0-0.313 0.125-0.313 0.313 0 0.25 0.125 0.375 0.313 0.375 0.25 0 0.375-0.125 0.375-0.313zM0.563-2.313c0 0.125-0.063 0.188-0.188 0.188-0.063 0-0.125-0.063-0.125-0.25 0-0.125 0.063-0.188 0.125-0.188 0.125 0 0.188 0.063 0.188 0.25zM1.063-2v-0.5c0-0.125-0.063-0.188-0.25-0.188-0.063 0-0.125 0-0.188 0.063 0-0.063-0.125-0.063-0.188-0.063s-0.125 0-0.188 0.063v-0.063h-0.188v0.688h0.188v-0.438c0-0.063 0.063-0.125 0.125-0.125s0.125 0.063 0.125 0.125v0.438h0.125v-0.438c0-0.063 0.063-0.125 0.125-0.125s0.125 0.063 0.125 0.125v0.438zM0.688-2v-0.438c0-0.188-0.063-0.25-0.25-0.25-0.063 0-0.125 0-0.188 0.125v-0.375h-0.188v0.938h0.188v-0.438c0-0.063 0.063-0.125 0.125-0.125s0.125 0.063 0.125 0.125v0.438zM0.875-2v-0.938h-0.25v0.625l-0.313-0.625h-0.25v0.938h0.188v-0.625l0.375 0.625zM0.688-2v-0.438c0-0.188-0.063-0.25-0.25-0.25-0.063 0-0.125 0-0.188 0.125v-0.125h-0.188v0.688h0.188v-0.438c0-0.063 0.063-0.125 0.125-0.125 0.125 0 0.125 0.063 0.125 0.125v0.438zM0.813-2.625c0-0.188-0.125-0.313-0.313-0.313h-0.375v0.938h0.188v-0.313h0.188c0.188 0 0.313-0.125 0.313-0.313zM0.625-2.625c0 0.063-0.063 0.125-0.125 0.125h-0.188v-0.25h0.188c0.063 0 0.125 0 0.125 0.125zM0.25-1.875v-0.813h-0.188v0.75c0 0.063 0 0.063 0 0.063-0.063 0-0.063 0-0.063 0v0.125c0.063 0 0.063 0 0.125 0 0.125 0 0.125 0 0.125-0.125zM0.25-2.75v-0.188h-0.188v0.188zM26 5.813c-0.25-0.313-0.563-0.625-0.875-0.875-0.063-0.125-0.125-0.188-0.25-0.25-0.063-0.125-0.125-0.188-0.25-0.313-0.375-0.375-0.813-0.875-1.375-1 0 0 0 0 0 0-0.25-0.25-1.25-1.438-3.313-0.688l0.188 0.5c1.25-0.5 2.063-0.063 2.438 0.25-0.25 0-0.438 0.125-0.688 0.188-0.563 0.313-0.875 0.875-1.188 1.5-0.25 0.438-0.5 0.938-0.938 1.438l-0.25 0.25c-0.875 0.875-1.375 1.438-2.938 1.688-0.875 0.063-1.813 0-2.75-0.125h-0.063c-0.188 0-0.375-0.063-0.563-0.063-0.813-0.125-1.688-0.25-2.438 0.063-0.25 0.063-0.438 0.188-0.688 0.375-0.438 0.25-0.938 0.563-1.25 0.438-0.063 0-0.125 0-0.188-0.063-0.375-0.125-0.688-0.188-0.938-0.625-0.063-0.125-0.188-0.125-0.313-0.063s-0.188 0.188-0.125 0.313c0.375 0.625 0.813 0.75 1.25 0.875 0.063 0 0.125 0.063 0.188 0.063 0.063 0.063 0.188 0.063 0.25 0.063 0.438 0 0.938-0.313 1.375-0.563 0.25-0.188 0.438-0.313 0.563-0.375 0.688-0.188 1.5-0.125 2.25 0 0.188 0.063 0.375 0.063 0.625 0.063v0c0.938 0.125 1.938 0.25 2.875 0.125 1.75-0.25 2.375-0.875 3.25-1.875l0.25-0.25c0.438-0.5 0.75-1.063 1-1.5 0.313-0.563 0.563-1.063 1-1.25 0.313-0.188 0.688-0.25 1.063-0.188s0.75 0.438 1.063 0.813c0.125 0.063 0.188 0.188 0.25 0.25 0.125 0.125 0.188 0.188 0.313 0.313 0.25 0.25 0.563 0.5 0.75 0.813s0.125 0.563 0.063 0.625c-0.188 0.125-1.563 0.063-2.313-0.125-0.063-0.938-0.438-1.75-0.438-1.813-0.063-0.125-0.25-0.188-0.375-0.125s-0.188 0.25-0.125 0.375c0.063 0 0.438 0.813 0.438 1.688-0.063 0.188-0.063 0.375-0.063 0.5-0.25-0.188-0.688-0.563-0.813-1.5 0-0.125-0.125-0.25-0.313-0.188-0.125 0-0.25 0.125-0.188 0.25 0.125 1 0.563 1.5 0.938 1.75-0.125 0.438-0.25 0.875-0.375 1.25-0.063 0.375-0.188 0.688-0.25 1.063-0.313 1.313-0.688 2.75-1.5 3.875-0.688 0.938-0.313 4.25 0 5.438h-0.625c-0.125 0-0.25 0.125-0.25 0.25s0.125 0.25 0.25 0.25h0.938c0.125 0 0.188 0 0.25-0.125 0.063-0.063 0.063-0.125 0-0.188-0.25-0.75-0.75-4.5-0.125-5.313 0.875-1.25 1.188-2.688 1.563-4.063 0.063-0.375 0.125-0.688 0.25-1.063s0.188-0.75 0.313-1.125c0 0 0.063 0 0.063 0 0 0.063 0.063 0.063 0.125 0.063 0 0 0 0 0.063 0 0.125 0 0.188-0.125 0.25-0.25 0 0 0-0.063 0-0.063 0-0.063 0-0.188 0-0.438 0.125 0.063 0.375 0.063 0.688 0.125-0.063 0.25 0 0.625 0.25 1 0.063 0.125 0.125 0.125 0.188 0.125s0.125 0 0.125 0c0.125-0.125 0.188-0.25 0.125-0.375-0.188-0.25-0.188-0.563-0.188-0.688 0.563 0.063 1.188 0.063 1.438-0.125 0.313-0.25 0.375-0.875 0.063-1.375zM19.563 19.063c0 0 0 0 0 0 0.188-0.063 0.25-0.188 0.25-0.313 0-0.375-0.125-0.875-0.25-1.375-0.063-0.563-0.188-1.063-0.25-1.438-0.063-1-0.188-2.563-1.625-3-0.125-0.063-0.313 0-0.313 0.125-0.063 0.188 0 0.313 0.125 0.375 1.063 0.313 1.25 1.375 1.313 2.5 0.063 0.438 0.125 1 0.25 1.5s0.188 1 0.25 1.375c0 0.125 0.125 0.25 0.25 0.25zM17.438 13.938c0 0-1.063 0.25-2.688 0.25-1 0-1.938-0.063-2.938-0.313 0.188-0.125 0.375-0.313 0.563-0.438 0.813-0.688 0.875-2.563 0.875-2.75s-0.125-0.25-0.25-0.313c-0.125 0-0.25 0.125-0.25 0.313 0 0.5-0.125 1.938-0.688 2.375-0.188 0.125-0.375 0.313-0.625 0.438-0.75 0.563-1.625 1.188-1.813 1.875s-0.563 2.125 0.125 3.75h-0.563c-0.188 0-0.25 0.125-0.25 0.25 0 0.188 0.063 0.313 0.25 0.313h0.938c0.125 0 0.188-0.063 0.25-0.125 0.063-0.125 0.063-0.188 0-0.25-0.875-1.688-0.438-3.125-0.25-3.813 0.125-0.438 0.625-0.813 1.188-1.25 1.188 0.375 2.25 0.438 3.438 0.438 0.063 0 0.188 0 0.25 0 1.563 0 2.563-0.25 2.563-0.313 0.188 0 0.25-0.125 0.188-0.313 0-0.125-0.188-0.188-0.313-0.125zM8.938 18.938c0.125-0.063 0.25-0.125 0.25-0.313 0-0.375-0.063-0.75-0.063-1.063-0.125-1-0.188-1.875 0.188-2.75 0.063-0.063 0.063-0.125 0.125-0.188 0.063-0.25 0.25-0.5 0.25-0.813 0-0.25-0.125-0.5-0.188-0.688-0.063-0.125-0.063-0.25-0.125-0.375-0.063-0.313-0.125-0.688-0.188-1 0-0.188-0.063-0.313-0.063-0.5l-0.063-0.313c0-0.063 0-0.063 0-0.125 0-0.125 0-0.25-0.063-0.375-0.188-0.313-0.438-0.375-0.625-0.438-0.25-0.063-0.375-0.125-0.563-0.25-0.125-0.063-0.25 0-0.375 0.063-0.063 0.125-0.063 0.313 0.063 0.375 0.25 0.188 0.5 0.25 0.75 0.313 0.188 0.063 0.25 0.063 0.25 0.125 0.063 0.063 0.063 0.125 0.063 0.25 0 0.063 0 0.063 0 0.125l0.063 0.313c0 0.188 0.063 0.375 0.063 0.563 0.063 0.313 0.125 0.688 0.188 1 0.063 0.125 0.125 0.25 0.125 0.375 0.063 0.188 0.188 0.375 0.125 0.563 0 0.188-0.063 0.375-0.188 0.563 0 0.063-0.063 0.125-0.063 0.188-0.5 1-0.375 2.063-0.25 3 0 0.375 0.063 0.75 0.063 1.125 0 0.125 0.125 0.25 0.25 0.25 0 0 0 0 0 0zM23.813 5.063c0 0.125-0.125 0.313-0.313 0.313-0.125 0-0.313-0.188-0.313-0.313 0-0.188 0.188-0.313 0.313-0.313 0.188 0 0.313 0.125 0.313 0.313z"></path>
</svg>
