<!-- Generated by IcoMoon.io -->
<svg version="1.1" xmlns="http://www.w3.org/2000/svg" width="32" height="32" viewBox="0 0 32 32">
<title>Gorilla</title>
<path d="M10.938 2.313c-1.25 0.375-1.563 0.625-1.75 1.438-0.188 0.438-0.438 0.875-0.75 1.125-0.375 0.25-0.563 0.563-0.563 0.875 0 0.25-0.125 0.438-0.375 0.438-0.188 0-0.5 0.125-0.75 0.25-0.313 0.25-0.438 0.5-0.375 0.875 0.063 0.5 0.063 0.563-0.438 0.563-0.375 0-0.5 0.063-0.625 0.563-0.188 0.938 0.063 1.625 0.938 2.313 0.813 0.688 0.813 0.688 0.938 2.25 0.125 1.438 0.063 1.625-0.25 2.125-0.688 0.938-1 2.063-1 3.563-0.063 1.313-0.125 1.5-0.75 2.5-1.063 1.563-1.813 3.125-2.313 4.875-0.625 2.125-0.625 2.875 0 3.5 0.438 0.375 0.75 0.438 2.188 0.5l1.688 0.063 0.25-0.688c0.313-0.688 0.313-0.813 0-1.625l-0.313-0.938 0.938-0.938c1-1.125 1.75-2.438 2.125-3.75 0.125-0.5 0.313-1 0.5-1.125 0.25-0.188 0.25-0.063 0.125 0.688-0.063 0.563-0.188 1.813-0.25 2.938-0.125 1.063-0.313 2.313-0.5 2.688-0.375 1-0.375 1.625 0.188 2.25 0.438 0.438 0.563 0.438 2.063 0.438 1.438 0 1.563 0 1.938-0.438 0.563-0.75 0.5-1.5-0.188-2.188-0.25-0.313-0.563-0.625-0.563-0.625 0-0.063 0.813-1.25 1.688-2.625l1.688-2.5 0.75 0.563c0.563 0.438 1.375 0.75 2.375 1 0.25 0.125 0.688 1.75 0.938 3.313 0.188 0.938 0.125 1.125-0.125 1.188-0.938 0.313-1.5 1.625-0.813 2.188 0.375 0.313 3.563 0.125 3.813-0.188 0.063-0.188 0.313-0.875 0.5-1.563 0.125-0.688 0.313-1.313 0.375-1.375 0.125 0 0.5 0.25 0.875 0.625 0.625 0.688 0.625 0.75 0.438 1.313-0.375 1.063-0.125 1.25 1.875 1.313l1.75 0.063 0.563-0.938c0.563-0.938 0.563-0.938-0.063-3.063-0.25-0.75-0.5-1.25-0.625-1.25-0.5 0-1.125-0.438-1.438-0.938-0.438-0.75-0.438-1.563 0.125-2.188 0.688-0.875 0.875-1.375 0.875-2.375 0-1.938-1.063-4.063-2.313-4.688-0.438-0.188-1.125-0.313-2.313-0.313-2.438 0-3.188-0.438-3.938-2.625-0.375-1.313-1.625-2.563-3-3.188l-1.125-0.5-0.438-2.313c-0.5-2.688-0.625-3.063-1.313-3.438-0.625-0.313-2.25-0.313-3.25 0z"></path>
</svg>
