<svg xmlns="http://www.w3.org/2000/svg" viewBox="0 0 64 80" x="0px" y="0px"><g><path d="M50.7236,23.4062c-1.1826-4.5517-3.8007-12.499-8.0478-14.5791-3.4512-1.6894-8.9151-1.82-16.2578-1.82-3.2774,0-8.5664.6387-9.51,2.0088a5.4588,5.4588,0,0,0-.4561,3.4317.5.5,0,0,0,.2823.37c.0695.0323,1.1118.5157,2.3952.9962a21.1854,21.1854,0,0,0-.2333,2.5034c-.2471.0161-.494.0268-.741.0443a.504.504,0,0,0-.3526.1826,11.7137,11.7137,0,0,0-2.08,4.6794c-.1968.0072-.395.0094-.5917.0169a.5016.5016,0,0,0-.377.1953C14.6006,21.6357,11,26.457,11,37.5c0,7.333,2.4648,13.2773,6.7617,16.3086,2.6944,1.9014,5.086,2.9678,10.002,3.1631.0761.0029.1562.0039.2363.0039s.16-.001.2354-.0039c4.92-.1953,7.3085-1.2617,9.9931-3.1631C42.5322,50.7725,45,44.8281,45,37.5c0-11.043-3.61-15.8643-3.7637-16.0645a.5.5,0,0,0-.3769-.1953c-.197-.0075-.3957-.01-.5928-.0169a13.1958,13.1958,0,0,0-1.18-3.2909A16.8985,16.8985,0,0,1,43.5254,21.79c2.9316,4.0157,4.748,11.0967,5.3994,21.0469a.5032.5032,0,0,0,.0381.1611,3.72,3.72,0,0,0,3.53,1.9932h.0078a.5012.5012,0,0,0,.5-.4853A87.093,87.093,0,0,0,50.7236,23.4062ZM20.0917,14.1545c.5272.1756,1.064.3349,1.5685.45a45.8125,45.8125,0,0,0,7.3908.4,4.4545,4.4545,0,0,0,.2363,1.03c-3.0917-.0368-6.2377.039-9.39.2221A20.0647,20.0647,0,0,1,20.0917,14.1545ZM33.5,18A3.5,3.5,0,1,1,37,14.5,3.5042,3.5042,0,0,1,33.5,18Zm-18.08,4.23q3.0282-.1134,6.073-.17a48.66,48.66,0,0,0-1.3392,8.74c-3.61-.17-6.4188-.4025-7.5479-.5037A22.3136,22.3136,0,0,1,15.42,22.2305Zm18.0394-.1836a48.0221,48.0221,0,0,1,1.3744,8.7986c-2.1095.088-4.4358.1506-6.8337.1506-2.4,0-4.729-.0627-6.84-.1508a48.0064,48.0064,0,0,1,1.374-8.7984Q27.993,21.9588,33.4593,22.0469Zm1.4821,15.7568a59.4438,59.4438,0,0,1-.6327,6.9146c-1.9617.1689-4.1037.2866-6.3087.2866-2.2069,0-4.3513-.118-6.3151-.2873a59.4033,59.4033,0,0,1-.6322-6.9139c-.0879-2.1675-.0541-4.1578.0454-5.96,2.1293.0892,4.4794.1527,6.9019.1527,2.42,0,4.7679-.0634,6.8956-.1524C34.9952,33.6461,35.0291,35.6363,34.9414,37.8037ZM12.44,31.2856c1.0875.0985,3.9535.3388,7.6541.5133-.0981,1.8236-.13,3.84-.0411,6.0458a61.9737,61.9737,0,0,0,.6012,6.7792c-4.1951-.4127-7.3448-1.0283-8.0294-1.168A27.4286,27.4286,0,0,1,12,37.5,42.0452,42.0452,0,0,1,12.44,31.2856Zm.4516,13.2413c1.2279.2366,4.1826.7605,7.9281,1.1176A25.0608,25.0608,0,0,0,24.772,55.6876a14.1183,14.1183,0,0,1-6.4341-2.6954A14.9157,14.9157,0,0,1,12.8913,44.5269Zm15.304,11.4448c-.126.0058-.2617.0058-.3916,0-.612-.0243-1.1785-.0644-1.7139-.1167a24.4344,24.4344,0,0,1-4.2307-10.1185c1.9189.16,4.002.2684,6.1409.2684,2.1364,0,4.2173-.1087,6.1345-.2679a24.436,24.436,0,0,1-4.2308,10.1189C29.37,55.9079,28.8052,55.9476,28.1953,55.9717Zm9.4561-2.98a14.0467,14.0467,0,0,1-6.43,2.6963,25.0615,25.0615,0,0,0,3.9525-10.0434c3.7475-.357,6.7044-.8811,7.9337-1.118A14.9738,14.9738,0,0,1,37.6514,52.9922Zm5.7246-9.5364c-.6842.14-3.8362.7564-8.0363,1.169a61.9738,61.9738,0,0,0,.6017-6.78c.0889-2.2054.0567-4.222-.0415-6.0455,3.7025-.1745,6.57-.4149,7.6593-.5134A41.9341,41.9341,0,0,1,44,37.5,27.1235,27.1235,0,0,1,43.376,43.4558Zm.0166-13.1586c-1.1307.1013-3.9412.334-7.5528.5039A48.6955,48.6955,0,0,0,34.5,22.06q3.0419.0585,6.0709.17A22.2773,22.2773,0,0,1,43.3926,30.2972ZM16.7569,21.1938a10.833,10.833,0,0,1,1.6894-3.85c3.8068-.2644,7.6169-.3666,11.3429-.3056a4.4668,4.4668,0,0,0,7.1951.2743c.1475.0074.2952.0141.4425.0244l.1093.0078a10.7836,10.7836,0,0,1,1.696,3.849C31.7657,20.9449,24.2263,20.9449,16.7569,21.1938ZM52.01,43.9551a2.6963,2.6963,0,0,1-2.0938-1.2813C49.2471,32.582,47.3682,25.3584,44.334,21.2c-1.8946-2.5955-5.4205-4.5977-6.6034-5.2226A4.4458,4.4458,0,0,0,38,14.5a4.488,4.488,0,0,0-8.95-.4962,45.9723,45.9723,0,0,1-7.1674-.3739,28.3282,28.3282,0,0,1-4.4795-1.6065,4.1988,4.1988,0,0,1,.3291-2.4414c.4883-.709,4.5918-1.5752,8.6856-1.5752,7.207,0,12.56.1231,15.8183,1.7188C46.27,11.7,48.8379,20.127,49.7549,23.6582A85.3168,85.3168,0,0,1,52.01,43.9551Z"/></g><text x="0" y="79" fill="#000000" font-size="5px" font-weight="bold" font-family="'Helvetica Neue', Helvetica, Arial-Unicode, Arial, Sans-serif">Created by Muhammad Tajudin</text><text x="0" y="84" fill="#000000" font-size="5px" font-weight="bold" font-family="'Helvetica Neue', Helvetica, Arial-Unicode, Arial, Sans-serif">from the Noun Project</text></svg>