<!-- Generated by IcoMoon.io -->
<svg version="1.1" xmlns="http://www.w3.org/2000/svg" width="26" height="32" viewBox="0 0 26 32">
<title>Ground-hornbill</title>
<path d="M17.040 22.175c-0.063 0-0.125-0.024-0.172-0.069-0.386-0.371-0.706-0.799-0.951-1.273-0.354-0.685-0.542-1.456-0.542-2.233 0-0.656 0.129-1.293 0.382-1.892l0.015-0.035c0.43-0.923 0.336-1.306 0.242-1.452-0.113-0.176-0.336-0.182-0.339-0.182v0c-0.004 0-0.008 0-0.013-0-0.225-0.008-0.457-0.013-0.688-0.013-4.749 0-9.321 1.484-12.23 3.969-0.045 0.038-0.102 0.059-0.161 0.059h-0.067c-0.056 0-0.108-0.019-0.151-0.051-0.004-0.003-0.008-0.007-0.013-0.011-0.087-0.076-0.108-0.199-0.059-0.297 1.293-3.348 3.807-6.084 7-7.665-3.119-0.243-5.582-2.859-5.582-6.039 0-0.32 0.025-0.642 0.075-0.956 0.025-0.139 0.257-1.313 0.955-1.659 0.084-0.053 0.306-0.167 0.507-0.057 0.095 0.052 0.207 0.166 0.201 0.417 0 0.009-0.001 0.018-0.002 0.026l-0.071 0.56c-0 0.004-0.001 0.007-0.001 0.010-0.026 0.154-0.039 0.312-0.039 0.469 0 1.291 0.876 2.404 2.129 2.706 0.021 0.005 2.396 0.53 8.316-0.153 0.009-0.001 0.019-0.002 0.028-0.002 0.63 0 1.194 0.385 1.435 0.949 0.003 0.007 0.006 0.014 0.008 0.020 0.033 0.079 0.059 0.162 0.078 0.247 0.127 0.367 0.239 0.514 0.291 0.567 0.002 0.002 0.004 0.004 0.006 0.006 0.009 0.009 0.016 0.015 0.021 0.018l0.148 0.038c3.31 0.643 5.711 3.559 5.711 6.937 0 1.779-0.663 3.479-1.868 4.786-1.197 1.299-2.821 2.099-4.573 2.253-0.008 0.001-0.017 0.002-0.025 0.002zM15.677 14.544c0.186 0 0.546 0.086 0.754 0.409 0.266 0.412 0.197 1.060-0.206 1.925l-0.012 0.027c-0.227 0.536-0.342 1.108-0.342 1.697 0 0.707 0.164 1.381 0.486 2.004 0.204 0.393 0.464 0.75 0.774 1.065 3.306-0.347 5.879-3.195 5.879-6.535 0-3.143-2.236-5.856-5.317-6.451-0.005-0.001-0.009-0.002-0.014-0.003l-0.146-0.037c-0.645 0.934-1.542 1.311-2.143 1.463-0.162 0.297-0.655 1.287-0.572 2.232 0 0 0 0.001 0 0.001l0.005 0.059c0.008 0.085 0.016 0.173 0.016 0.267 0 0.752-0.331 1.43-0.861 1.887 0.566-0.025 1.143-0.029 1.699-0.008zM10.629 10.983c-3.171 1.234-5.769 3.602-7.299 6.606 1.273-1.24 2.766-2.349 4.382-3.249 2.158-1.201 4.435-1.96 6.601-2.202-0.004-0.756 0.264-1.483 0.471-1.931-0.021 0.001-0.035 0.002-0.040 0.002-2.514 0.16-4.019 0.736-4.103 0.77-0.004 0.002-0.008 0.003-0.013 0.005zM14.344 12.633c-3.322 0.379-6.917 2.054-9.745 4.469 2.236-1.276 4.982-2.127 7.89-2.439 0.021-0.008 0.044-0.014 0.068-0.016 1.019-0.104 1.788-0.955 1.788-1.982 0-0.011-0-0.021-0-0.032zM4.939 2.832c-0.39 0.219-0.615 1.017-0.664 1.286-0.045 0.283-0.068 0.579-0.068 0.873 0 3.067 2.495 5.561 5.562 5.561 0.239 0 0.479-0.015 0.714-0.045 0.224-0.087 1.73-0.635 4.239-0.794 0.023-0.001 0.185-0.008 0.424-0.059 0.019-0.007 0.040-0.011 0.061-0.014 0.522-0.121 1.355-0.444 1.938-1.307-0.094-0.138-0.193-0.336-0.288-0.617-0-0-0-0.001-0-0.002-0.024-0.069-0.047-0.143-0.070-0.223-0.163-0.378-0.541-0.638-0.964-0.643-6.015 0.692-8.375 0.164-8.472 0.141-1.478-0.356-2.51-1.668-2.51-3.188 0-0.183 0.015-0.367 0.045-0.546l0.054-0.423zM17.947 12.272c-0.028 0-0.056-0.001-0.084-0.005-0.211-0.022-0.4-0.125-0.534-0.29s-0.195-0.371-0.172-0.582c0.022-0.211 0.125-0.4 0.29-0.534s0.371-0.194 0.582-0.172c0.211 0.022 0.4 0.125 0.534 0.29s0.195 0.371 0.172 0.582c-0.022 0.21-0.125 0.4-0.29 0.533-0.143 0.115-0.317 0.177-0.498 0.177zM17.945 11.181c-0.068 0-0.133 0.023-0.187 0.066-0.062 0.050-0.101 0.121-0.109 0.2s0.015 0.156 0.064 0.218 0.121 0.101 0.2 0.109v0c0.079 0.008 0.156-0.015 0.218-0.065s0.101-0.121 0.109-0.2c0.008-0.079-0.015-0.156-0.065-0.218s-0.121-0.1-0.2-0.109c-0.011-0.001-0.021-0.002-0.032-0.002z"></path>
</svg>
