<!-- Generated by IcoMoon.io -->
<svg version="1.1" xmlns="http://www.w3.org/2000/svg" width="32" height="32" viewBox="0 0 32 32">
<title>Gsm</title>
<path d="M8 8h14v12h-14zM12 4h6v2h-6zM22 0h-14c-2.188 0-4 1.813-4 4v24c0 2.188 1.813 4 4 4h14c2.188 0 4-1.813 4-4v-24c0-2.188-1.813-4-4-4M24 28c0 1.125-0.875 2-2 2h-14c-1.125 0-2-0.875-2-2v-24c0-1.125 0.875-2 2-2h14c1.125 0 2 0.875 2 2zM8 26h2v2h-2zM12 26h2v2h-2zM16 26h2v2h-2zM20 26h2v2h-2zM8 22h2v2h-2zM12 22h2v2h-2zM16 22h2v2h-2zM20 22h2v2h-2z"></path>
</svg>
