<!-- Generated by IcoMoon.io -->
<svg version="1.1" xmlns="http://www.w3.org/2000/svg" width="32" height="32" viewBox="0 0 32 32">
<title>hair</title>
<path d="M6.938 9.938c0.125-0.375 0.125-0.375 0.875-0.25 0.125 0.188 0.125 0.188 0.125 0.188 0.063 0.063 0.063 0.063 0.063 0.125 0 0 0 0 0 0.063 0 0 0 0.063 0 0.125 0 0 0 0 0 0.063 0 0.125 0.063 0.313 0.063 0.5 0.063 0.375 0.125 0.688 0.188 1.063 0.563-1.813 1.125-2.688 2.188-3.25 0.375-0.125 0.75 0.125 0.75 0.5v0.438c1.125-1.188 2.75-2.063 4.813-2.063 0.625 0 0.75 0.875 0.188 1.063-0.063 0-0.125 0.063-0.188 0.063 2.063-0.5 4.625-0.438 5.688 0.688 0.375 0.313 0.125 0.875-0.375 0.875-0.625 0-1.375 0.125-2.063 0.375 0.5-0.063 0.938-0.063 1.375-0.125 2.25 0 3.75 0.375 4.375 1.625 0.188 0.375-0.063 0.813-0.438 0.813-0.5 0-0.875 0-1.25 0 1.063 0.563 2.125 1.375 2.75 2.375 0.188 0.313-0.063 0.813-0.438 0.813-1.063 0-1.813 0-2.625 0.125-1.125 0.125-2 0.438-2.375 0.813-0.313 0.313-0.875 0.063-0.875-0.375 0-0.75 0.125-1.25 0.5-1.75-1.25 0-2.875 0.375-3.938 1.125-0.375 0.188-0.875-0.063-0.875-0.5 0-0.563 0.125-0.938 0.313-1.375-1.375 0.438-2.75 1.5-3.563 2.75-0.313 0.438-1 0.25-1-0.25 0-0.563 0-0.875 0-1.125-0.438 0.5-0.813 1.188-1.063 2.313-0.063 0.313-0.5 0.5-0.813 0.313-3.375-1.938-3.875-4.938-2.375-8.063zM9.313 16.75c0.5-1.5 1.25-2.375 2.188-2.813 0.375-0.188 0.75 0.063 0.75 0.438 0 0.313 0 0.5 0 0.688 1.313-1.313 3.125-2.25 4.813-2.25 0.5 0 0.688 0.563 0.375 0.875s-0.5 0.563-0.625 0.75c1.5-0.625 3.438-0.875 4.625-0.563 0.438 0.125 0.563 0.625 0.25 0.875-0.25 0.313-0.438 0.5-0.563 0.688 0.5-0.188 1.063-0.313 1.75-0.375 0.563-0.063 1.063-0.125 1.563-0.125-0.938-0.938-2.313-1.625-3.125-1.625-0.438 0-0.688-0.563-0.375-0.875 0.375-0.375 1-0.563 1.938-0.625 0.125 0 0.188 0 0.313-0.063-0.625-0.188-1.438-0.313-2.5-0.25-0.563 0-1.125 0-1.875 0.125 0.25-0.063-0.75 0.063-0.938 0.063-0.375 0.063-0.625 0.063-0.813 0.063-0.375 0-0.625-0.438-0.5-0.813 0.375-0.688 1.5-1.25 2.688-1.563-1.813-0.188-4.188 0.313-5 1.125-0.313 0.375-0.938 0.125-0.938-0.375 0-0.375 0.188-0.75 0.438-1.125-1.188 0.5-2.063 1.375-2.625 2.438-0.25 0.5-1 0.313-1-0.25v-1c-0.438 0.563-0.75 1.375-1.063 2.75-0.188 0.813-0.75 1.313-1.313 0.625-0.188-0.25-0.313-0.625-0.5-1.25 0 0 0 0 0 0-0.313 1.688 0.313 3.25 2.063 4.438z"></path>
</svg>
