<!-- Generated by IcoMoon.io -->
<svg version="1.1" xmlns="http://www.w3.org/2000/svg" width="32" height="32" viewBox="0 0 32 32">
<title>Handcart</title>
<path d="M5.813 23.563c0 0.875-0.688 1.563-1.563 1.563s-1.563-0.688-1.563-1.563c0-0.875 0.688-1.563 1.563-1.563s1.563 0.688 1.563 1.563zM31.563 3.875c-0.125-0.688-0.813-1.125-1.5-0.938l-5.25 1.25c-0.375 0.063-0.688 0.375-0.875 0.688l-3.625 15.813h-18.688c-0.688 0-1.25 0.563-1.25 1.25s0.563 1.25 1.25 1.25h0.5c0.188-1 1.063-1.813 2.125-1.813s1.938 0.813 2.125 1.813h8.125c0.188-1 1.063-1.813 2.125-1.813s2 0.813 2.125 1.813h2.375c0.5 0 0.938-0.25 1.125-0.75l3.75-15.938 4.688-1.125c0.625-0.188 1.063-0.875 0.875-1.5zM18.188 23.563c0 0.875-0.688 1.563-1.563 1.563s-1.563-0.688-1.563-1.563c0-0.875 0.688-1.563 1.563-1.563s1.563 0.688 1.563 1.563zM6.5 11.875h4.125v3.813h-4.125zM11.438 11.875h4.188v3.813h-4.188zM9 7.563h4.125v3.813h-4.125zM14.063 16.25h4.125v3.813h-4.125zM9 16.25h4.125v3.813h-4.125zM3.938 16.25h4.125v3.813h-4.125z"></path>
</svg>
