<!-- Generated by IcoMoon.io -->
<svg version="1.1" xmlns="http://www.w3.org/2000/svg" width="32" height="32" viewBox="0 0 32 32">
<title>Hare</title>
<path d="M1.063-0.375h-0.25c0 0.125-0.125 0.188-0.25 0.188-0.188 0-0.25-0.125-0.25-0.375s0.063-0.375 0.25-0.375c0.125 0 0.188 0.063 0.25 0.188h0.188c0-0.25-0.188-0.375-0.438-0.375-0.313 0-0.5 0.25-0.5 0.563 0 0.375 0.188 0.563 0.5 0.563 0.25 0 0.438-0.125 0.5-0.375zM0.563-0.625v-0.188c0 0 0 0 0 0-0.125 0-0.188 0.063-0.25 0.188v-0.188h-0.188v0.813h0.188v-0.438c0-0.125 0.063-0.188 0.188-0.188 0 0 0 0 0.063 0zM0.813-0.375c0-0.313-0.188-0.438-0.375-0.438-0.25 0-0.375 0.125-0.375 0.438 0 0.25 0.125 0.375 0.313 0.375s0.375-0.063 0.438-0.25h-0.25c0 0.063-0.063 0.125-0.125 0.125-0.125 0-0.188-0.063-0.188-0.25h0.563zM0.563-0.5h-0.313c0-0.125 0.063-0.188 0.188-0.188 0.063 0 0.125 0.063 0.125 0.188zM0.813 0v0c-0.063-0.063-0.063-0.063-0.063-0.125v-0.438c0-0.188-0.125-0.25-0.313-0.25-0.25 0-0.375 0.063-0.375 0.25h0.188c0-0.063 0.063-0.125 0.188-0.125 0.063 0 0.125 0.063 0.125 0.125s-0.063 0.063-0.188 0.063l-0.063 0.063c-0.188 0-0.25 0.063-0.25 0.188 0 0.188 0.063 0.25 0.25 0.25 0.063 0 0.125 0 0.25-0.125 0 0.063 0 0.125 0 0.125zM0.563-0.375c0 0.125-0.063 0.188-0.188 0.188-0.063 0-0.125 0-0.125-0.063s0.063-0.063 0.125-0.125h0.063c0.063 0 0.063 0 0.125 0zM0.438 0v-0.125c0 0 0 0-0.063 0 0 0-0.063-0.063-0.063-0.125v-0.438h0.125v-0.125h-0.125v-0.188h-0.188v0.188h-0.125v0.125h0.125v0.5c0 0.125 0.063 0.188 0.188 0.188 0.063 0 0.125 0 0.125 0zM0.813 0v-1.125h-0.188v0.438c-0.063-0.125-0.125-0.125-0.25-0.125-0.188 0-0.313 0.188-0.313 0.438 0 0.188 0.125 0.375 0.313 0.375 0.125 0 0.188 0 0.25-0.125v0.125zM0.625-0.375c0 0.125-0.063 0.188-0.188 0.188s-0.188-0.063-0.188-0.188c0-0.188 0.063-0.25 0.188-0.25s0.188 0.063 0.188 0.25zM0.875-0.375c0-0.25-0.125-0.438-0.375-0.438-0.063 0-0.125 0-0.188 0.125v-0.438h-0.25v1.125h0.25v-0.125c0.063 0.125 0.125 0.125 0.188 0.125 0.25 0 0.375-0.125 0.375-0.375zM0.625-0.375c0 0.125-0.063 0.188-0.125 0.188-0.125 0-0.188-0.063-0.188-0.25 0-0.125 0.063-0.188 0.188-0.188 0.063 0 0.125 0.063 0.125 0.25zM0.813-0.813h-0.188l-0.188 0.563-0.188-0.563h-0.25l0.313 0.875c0 0.063-0.063 0.125-0.125 0.125 0 0 0 0-0.063 0v0.125c0.063 0 0.063 0 0.063 0 0.188 0 0.25 0 0.313-0.188zM0.875 0v-0.188h-0.5v-0.938h-0.25v1.125zM0.813 0v-0.813h-0.188v0.5c0 0.063-0.063 0.125-0.188 0.125-0.063 0-0.125 0-0.125-0.125v-0.5h-0.25v0.563c0 0.188 0.125 0.25 0.313 0.25 0.125 0 0.188 0 0.25-0.125v0.125zM0.875-0.375c0-0.313-0.188-0.438-0.438-0.438s-0.375 0.125-0.375 0.375c0 0.313 0.125 0.438 0.375 0.438s0.438-0.125 0.438-0.375zM0.625-0.375c0 0.125-0.063 0.188-0.188 0.188s-0.188-0.063-0.188-0.25c0-0.125 0.063-0.25 0.188-0.25s0.188 0.125 0.188 0.313zM0.813-0.813h-0.25l-0.125 0.563-0.188-0.563h-0.25l0.313 0.813h0.188zM0.313 0v-0.813h-0.188v0.813zM0.313-0.938v-0.188h-0.188v0.188zM0.813-0.313h-0.25c0 0.125-0.063 0.125-0.125 0.125-0.125 0-0.188-0.063-0.188-0.188 0-0.188 0.063-0.313 0.188-0.313 0.063 0 0.125 0.063 0.125 0.188h0.25c-0.063-0.188-0.188-0.313-0.375-0.313-0.25 0-0.375 0.125-0.375 0.438 0 0.25 0.125 0.375 0.375 0.375 0.188 0 0.313-0.125 0.375-0.313zM1 0v-0.063c0 0 0 0 0-0.063-0.063-0.313-0.063-0.375-0.188-0.375 0.125-0.063 0.188-0.188 0.188-0.313 0-0.188-0.125-0.313-0.313-0.313h-0.563v1.125h0.25v-0.438h0.25c0.063 0 0.125 0.063 0.125 0.125v0.125c0 0.125 0 0.125 0 0.188zM0.75-0.75c0 0.063 0 0.125-0.125 0.125h-0.25v-0.313h0.25c0.125 0 0.125 0.063 0.125 0.188zM0.938-0.688v-0.125h-0.125v-0.063c0-0.063 0-0.063 0.063-0.063 0 0 0.063 0 0.063 0v-0.125c-0.063-0.063-0.125-0.063-0.125-0.063-0.125 0-0.188 0.063-0.188 0.25v0.063h-0.25v-0.063c0-0.063 0-0.063 0-0.063 0.063 0 0.063 0 0.063 0v-0.125c0-0.063-0.063-0.063-0.063-0.063-0.188 0-0.25 0.063-0.25 0.25v0.063h-0.125v0.125h0.125v0.688h0.25v-0.688h0.25v0.688h0.188v-0.688zM0.313 0v-1.125h-0.188v1.125zM0.5-0.688v-0.125h-0.125v-0.063c0-0.063 0-0.063 0-0.063 0.063 0 0.063 0 0.063 0v-0.125c0-0.063-0.063-0.063-0.063-0.063-0.188 0-0.25 0.063-0.25 0.25v0.063h-0.125v0.125h0.125v0.688h0.25v-0.688zM1.25 0v-0.563c0-0.188-0.125-0.25-0.25-0.25s-0.188 0-0.25 0.125c-0.063-0.125-0.125-0.125-0.25-0.125-0.063 0-0.125 0-0.188 0.125v-0.125h-0.25v0.813h0.25v-0.5c0-0.063 0.063-0.125 0.125-0.125s0.125 0 0.125 0.063v0.563h0.188v-0.5c0-0.063 0.063-0.125 0.188-0.125 0.063 0 0.063 0 0.063 0.063v0.563zM0.813 0v-0.563c0-0.188-0.125-0.25-0.25-0.25s-0.188 0-0.25 0.125v-0.438h-0.188v1.125h0.188v-0.5c0-0.063 0.063-0.125 0.188-0.125 0.063 0 0.125 0 0.125 0.125v0.5zM1 0v-1.125h-0.25v0.75l-0.438-0.75h-0.188v1.125h0.188v-0.75l0.438 0.75zM0.813 0v-0.563c0-0.188-0.063-0.25-0.25-0.25-0.125 0-0.188 0-0.25 0.125v-0.125h-0.188v0.813h0.188v-0.5c0-0.063 0.063-0.125 0.188-0.125 0.063 0 0.125 0 0.125 0.125v0.5zM0.938-0.75c0-0.25-0.125-0.375-0.313-0.375h-0.5v1.125h0.188v-0.375h0.313c0.188 0 0.313-0.188 0.313-0.375zM0.75-0.75c0 0.125-0.063 0.188-0.188 0.188h-0.25v-0.375h0.25c0.125 0 0.188 0.063 0.188 0.188zM0.313 0.125v-0.938h-0.188v0.938c0 0-0.063 0.063-0.063 0.063-0.063 0-0.063 0-0.063-0.063v0.188c0.063 0 0.125 0 0.125 0 0.125 0 0.188-0.063 0.188-0.188zM0.313-0.938v-0.188h-0.188v0.188zM19.063 20.938c0 0.375 0.313 0.75 0.688 0.875l3.125 0.875c0.625 0.125 1.25 0.813 1.313 1.5l0.063 0.5-4.875-0.688c-0.688-0.063-1.625-0.5-2.188-0.875l-7.188-5.5c-3.438-0.25-6.188-2.813-6.688-6.125h-1.063c-0.75 0-1.313-0.563-1.313-1.313l3.625-4.063c1.625-1.813 3.5-3 5.938-3 0.313 0 0.625 0.063 0.938 0.063 0.375 0.063 0.75 0.125 1.125 0.188 4.688 1.25 8.125 7.375 8.125 7.375 0.313 0.438 0.938 0.875 1.438 1.063l0.25 0.063c0.5 0.125 1.188-0.125 1.5-0.563l1-1.188-3.125-1.5c-4.25-1.875-3.063-7.188-3.063-7.188 0-0.313 0.25-0.375 0.5-0.188l6.688 6.313-5.438-6.063c0.063-1.125 1.063-1.5 1.063-1.5l5.188 8.375 0.438 0.375 2.75 1.938c0.625 0.438 1.125 1.438 1.125 2.188l0.063 3.5-0.188 0.188c-0.563 0.375-1.438 0.5-2.063 0.188l-0.938-0.438c-1-0.438-2.375-0.25-3.188 0.375l-2.75 2.313c-0.313 0.25-0.688 0.5-1.125 0.688-0.188-4.375-1.938-7.938-5.813-10.625-0.313-0.188-0.813 0.375-0.563 0.625 3.375 3.063 4.625 6.375 4.625 10.625zM29.563 14.125c0.375 0 0.625-0.25 0.625-0.625 0-0.313-0.25-0.563-0.625-0.563-0.313 0-0.625 0.25-0.625 0.563 0 0.375 0.313 0.625 0.625 0.625zM6.938 25.625v-0.688c0-0.688 0.563-1.375 1.188-1.563 0 0 3.375-0.813 4.313-2.313 0 0 2.563 2.063 2.563 2.063-3.563 1.75-8.063 2.5-8.063 2.5z"></path>
</svg>
