<!-- Generated by IcoMoon.io -->
<svg version="1.1" xmlns="http://www.w3.org/2000/svg" width="32" height="32" viewBox="0 0 32 32">
<title>Hartebeest</title>
<path d="M10.813 1.5c0.063 0.313-0.188 0.813-0.625 1.375-0.813 1-1.188 2.563-0.813 3.75 0.188 0.438 0.688 1.625 1.188 2.563 0.75 1.563 0.813 1.938 0.688 3.125-0.125 0.688-0.25 1.313-0.375 1.375s-4.5-1-6.25-1.5c-0.563-0.188-0.563-0.188-0.313 0.313 0.313 0.625 2.563 2.5 3.688 3.063 0.375 0.188 1.125 0.438 1.625 0.5 1.125 0.25 1.188 0.438 1.25 2.625 0 0.875 0.063 2.188 0.188 2.938 0.125 1.063 0 1.438-0.438 2.188-0.625 1.063-0.688 2.75-0.188 3.563 0.313 0.313 0.688 0.438 1.688 0.438h1.25l1.313 2.063 1.313 2h15.5v-5.188c0-5.188 0-5.25-0.563-5.438-0.313-0.063-0.875-0.375-1.313-0.688-0.813-0.625-2.5-0.688-3.875-0.063-2.313 0.938-4.875 0.313-6.875-1.875-1.938-2-1.938-2.063-0.313-2.813 1-0.5 1.938-1.25 3.063-2.5 0.875-1 1.563-1.938 1.438-2-0.063-0.063-0.375 0.063-0.688 0.313-0.25 0.25-1 0.563-1.625 0.813-0.563 0.188-1.563 0.5-2.125 0.75-1.313 0.563-1.813 0.438-1.875-0.375s0.375-1.75 1.313-2.625c0.875-0.813 1.688-2.375 1.688-3.25 0-0.375-0.125-1.5-0.313-2.5l-0.313-1.875 0.688-0.625c0.75-0.625 0.75-0.625 0.188-0.625-0.875 0-2.563 1.063-2.75 1.75-0.125 0.375 0 1.125 0.188 1.625 0.313 1.063 0.188 2.5-0.375 3.125-0.375 0.5-2.688 2.375-2.875 2.375-0.25 0-1.813-1.75-2.438-2.813-0.688-1.125-0.75-2.063-0.188-3.313 0.563-1.063 0.25-2.813-0.5-2.938-0.313-0.063-0.375 0-0.25 0.375z"></path>
</svg>
