<!-- Generated by IcoMoon.io -->
<svg version="1.1" xmlns="http://www.w3.org/2000/svg" width="32" height="32" viewBox="0 0 32 32">
<title>Hawk</title>
<path d="M26.375 32c-0.438-12.25-2.875-23-11.438-23s-11 10.75-11.438 23zM8.625 32c-0.688-5.75-2.188-9.688-3.938-9.688s-3.188 3.938-3.875 9.688zM30.875 32c-0.813-5.75-2.5-9.688-4.438-9.688s-3.625 3.938-4.375 9.688zM26.438 20.063c-3.813-10.813 0.563-20.063-10.125-20.063s-8.5 7.938-12.813 18.563c-1.063 2.625 1.438 5.688 1.438 5.688s2.5-4.563 4.563-5.625c0.563 3.188 1.688 6.688 1.688 6.688s4.813-5.438 8.813-8c1.125 1.5 4.813 7.313 4.813 7.313s2.375-2.375 1.625-4.563M22.125 1.938c4.25 2.938 5.375 2.125 7.563 3.438 2.063 1.313 1.938 4.813 0.125 7.813-0.563-2.563 0.5-3-6.75-3-4.813 0-7.688 0.25-6.75-1 0.875-1.25 9.688 0.438 5.813-7.25M20.125 4.375c0 0.813-0.625 1.438-1.438 1.438s-1.438-0.625-1.438-1.438c0-0.813 0.625-1.438 1.438-1.438s1.438 0.625 1.438 1.438M21.125 3.938h-4.813v-1.938h4.813zM14.375 16.5c0 0 0.938 2.875 5.813 6.75 0.938-2.875 3.875-7.75 3.875-7.75z"></path>
</svg>
