<?xml version="1.0" encoding="UTF-8"?>
<svg width="700pt" height="700pt" version="1.1" viewBox="0 0 700 700" xmlns="http://www.w3.org/2000/svg">
 <path d="m349.93-0.085938c-56.297 0-102.33 46-102.33 102.3 0 56.297 46.035 102.33 102.33 102.33 56.297 0 102.3-46.035 102.3-102.33s-46-102.3-102.3-102.3zm195.95 52.02c-0.71484-0.003906-1.4336 0.039062-2.1523 0.070312-30.508 1.2734-52.332 31.633-43.785 60.941 0.10156 0.34766 0.21875 0.6875 0.33984 1.0273l29.84 83.125c1.2734 5.1484 0.99219 6.3164-7.5547 14.219-7.543 6.9766-24.043 13.602-34.418 13.602h-276.34c-10.375 0-26.84-6.625-34.383-13.602-8.5508-7.9023-8.8281-9.0742-7.5547-14.219l29.84-83.125c0.16797-0.44922 0.31641-0.90625 0.44531-1.3672 8.4023-31.086-17.125-62.164-49.254-59.984-20.77 1.4219-38.348 16.348-43.137 36.605l-30.078 118.67c-10.844 42.809 7.8281 83.258 35.035 108.42 26.488 24.492 61.785 38.93 99.086 38.93h15.824l27.07 189.8h0.003906c0.59375 4.1719 2.6719 7.9922 5.8555 10.754s7.2578 4.2852 11.473 4.2852h155.93-0.003906c4.2148 0 8.2891-1.5234 11.473-4.2852s5.2617-6.582 5.8594-10.754l27.035-189.8h15.824c37.301 0 72.664-14.434 99.156-38.93 27.211-25.164 45.844-65.617 35-108.42l-30.113-118.81c-4.8867-21.621-24.285-37.074-46.312-37.152z"/>
</svg>
