<!-- Generated by IcoMoon.io -->
<svg version="1.1" xmlns="http://www.w3.org/2000/svg" width="32" height="32" viewBox="0 0 32 32">
<title>Herbs</title>
<path d="M6.938 4.25c0.5-0.063 0.938 0.188 1.313 0.563 0.5 0.5 0.563 1.375 0.188 2-0.063 0.063 0 0.125 0 0.188l3.438 3.75h-1l-2.938-3.25c-0.063-0.063-0.125-0.063-0.25-0.063-0.625 0.375-1.438 0.188-1.938-0.375-0.625-0.688-0.625-1.75 0.063-2.375 0.313-0.313 0.688-0.438 1.125-0.438zM16.938 5.938c0.125 0 0.313 0 0.438 0.063 0.625 0.063 1.188 0.375 1.75 1 0.688 0.813 0.688 1.938 0.25 3.25-0.25-0.438-0.5-0.938-0.813-1.375l0.063-1.063c0-0.063 0-0.125 0-0.125-0.063-0.063-0.125-0.063-0.125-0.063-0.125 0-0.188 0.063-0.188 0.125l-0.063 0.625c-0.188-0.25-0.375-0.5-0.563-0.75l-0.125-1.125c0-0.063-0.063-0.125-0.125-0.125s-0.125 0-0.125 0.063c-0.063 0-0.063 0.063-0.063 0.125l0.063 0.688c-0.25-0.188-0.5-0.438-0.75-0.563 0-0.063-0.063-0.063-0.125-0.063s-0.125 0.063-0.125 0.125c-0.063 0.063 0 0.188 0.063 0.188 0.5 0.313 0.875 0.688 1.25 1.125l-0.75 0.125c-0.063 0-0.125 0-0.125 0.063-0.063 0.063-0.063 0.125 0 0.188s0.125 0.063 0.188 0.063l0.875-0.125c0.188 0.188 0.313 0.375 0.438 0.563 0 0.063 0 0.063 0 0.125 0.125 0.188 0.25 0.375 0.375 0.563l-0.813 0.125c-0.125 0-0.188 0.063-0.125 0.188 0 0.063 0.063 0.125 0.188 0.125l0.938-0.125c0.125 0.25 0.188 0.438 0.313 0.625-0.875 0.125-1.375 0.063-1.688-0.063-0.375-0.125-0.563-0.313-0.75-0.563-0.813-0.75-1.313-2.375-0.938-3.813 0.25-0.063 0.5-0.125 0.75-0.125 0.125-0.063 0.313-0.063 0.438-0.063zM22.875 6.75c0.438 0 0.813 0.063 1.188 0.188 0.375 1.188-0.125 2.5-0.875 3.188-0.25 0.188-0.438 0.375-0.813 0.5-0.313 0.125-0.813 0.125-1.688 0 0.125-0.125 0.188-0.313 0.313-0.438l0.938 0.125c0.063 0 0.125-0.063 0.188-0.063 0.063-0.063 0.063-0.125 0-0.188 0-0.063-0.063-0.125-0.125-0.125l-0.813-0.063c0.125-0.125 0.25-0.313 0.313-0.438 0.063-0.063 0.063-0.063 0.125-0.125 0.063-0.188 0.188-0.313 0.313-0.5l0.938 0.125c0.063 0 0.125 0 0.188-0.063s0.063-0.125 0-0.188c0-0.063-0.063-0.063-0.125-0.063l-0.688-0.125c0.313-0.313 0.75-0.625 1.188-0.875 0.063-0.063 0.125-0.125 0.063-0.188 0-0.063-0.063-0.125-0.125-0.125v0c-0.063 0-0.063 0-0.125 0-0.25 0.125-0.5 0.313-0.75 0.5l0.063-0.563c0-0.063 0-0.125-0.063-0.125 0-0.063-0.063-0.063-0.125-0.063s-0.125 0.063-0.125 0.125l-0.125 1c-0.188 0.188-0.375 0.375-0.563 0.625l-0.063-0.563c0-0.063-0.063-0.125-0.188-0.125 0 0-0.063 0-0.125 0.063 0 0 0 0.063 0 0.125l0.063 0.875c-0.313 0.438-0.563 0.875-0.813 1.25-0.188-0.563-0.313-1-0.313-1.438 0-0.5 0.188-0.938 0.563-1.313 0.5-0.563 1.125-0.813 1.75-0.938 0.125 0 0.25 0 0.438 0zM19.875 9.875c0.063 0.25 0.188 0.563 0.313 0.875h-0.625c0 0 0 0 0.063 0 0.063-0.313 0.188-0.625 0.25-0.875zM26.688 11.063c0 0.375 0 0.688-0.063 1.063h-21.063c0-0.375-0.063-0.688-0.063-1.063zM26.625 12.438c-0.063 0.438-0.188 0.813-0.25 1.188 0 0.063-0.063 0.125-0.063 0.188s0 0.063 0 0.125c-0.063 0.063-0.063 0.063-0.063 0.125h-20.25c-0.188-0.5-0.313-1.063-0.375-1.625zM26.125 14.375c-0.875 2.5-2.563 4.625-4.938 5.875h-10.125c-2.375-1.25-4.125-3.375-4.938-5.875zM20.875 20.625c0.313 0 0.438 0.188 0.438 0.375 0 0.25-0.188 0.438-0.438 0.438h-9.5c-0.313 0-0.5-0.188-0.5-0.438 0-0.188 0.188-0.375 0.438-0.375z"></path>
</svg>
