<!-- Generated by IcoMoon.io -->
<svg version="1.1" xmlns="http://www.w3.org/2000/svg" width="32" height="32" viewBox="0 0 32 32">
<title>Hinderence</title>
<path d="M4.75 2c0 0.25-0.25 0.5-0.5 0.5s-0.5-0.25-0.5-0.5c0-0.25 0.25-0.5 0.5-0.5s0.5 0.25 0.5 0.5zM28.25 2c0 0.25-0.25 0.5-0.5 0.5s-0.5-0.25-0.5-0.5c0-0.25 0.25-0.5 0.5-0.5s0.5 0.25 0.5 0.5zM31 8.25h-1.5v-3.813c1.063-0.75 1.5-2.125 1.125-3.375-0.438-1.25-1.563-2.063-2.875-2.063s-2.438 0.813-2.875 2.063c-0.375 1.25 0.063 2.625 1.125 3.375v3.813h-20v-3.813c1.063-0.75 1.5-2.125 1.125-3.375-0.438-1.25-1.563-2.063-2.875-2.063s-2.438 0.813-2.875 2.063c-0.375 1.25 0.063 2.625 1.125 3.375v3.813h-1.5c-0.563 0-1 0.438-1 1v3c0 0.563 0.438 1 1 1h1.5v2h-1.5c-0.563 0-1 0.438-1 1v3c0 0.563 0.438 1 1 1h1.5v7.75c0 0.563 0.438 1 1 1h1.5c0.563 0 1-0.438 1-1v-7.75h20v7.75c0 0.563 0.438 1 1 1h1.5c0.563 0 1-0.438 1-1v-7.75h1.5c0.563 0 1-0.438 1-1v-3c0-0.563-0.438-1-1-1h-1.5v-2h1.5c0.563 0 1-0.438 1-1v-3c0-0.563-0.438-1-1-1zM25.75 2c0-1.125 0.875-2 2-2s2 0.875 2 2c0 1.125-0.875 2-2 2s-2-0.875-2-2zM28.5 4.875v3.375h-1.5v-3.375c0.5 0.188 1 0.188 1.5 0zM25.5 9.25l2.438 3h-1.938l-2.438-3zM28.5 13.25v2h-1.5v-2zM26 13.25v2h-20v-2zM22.313 9.25l2.375 3h-2l-2.375-3zM19 9.25l2.438 3h-1.938l-2.438-3zM15.813 9.25l2.375 3h-2l-2.375-3zM12.5 9.25l2.438 3h-1.938l-2.438-3zM9.313 9.25l2.375 3h-2l-2.375-3zM6 9.25l2.438 3h-1.938l-2.438-3zM3.5 8.25v-3.375c0.5 0.188 1 0.188 1.5 0v3.375zM2.25 2c0-1.125 0.875-2 2-2s2 0.875 2 2c0 1.125-0.875 2-2 2s-2-0.875-2-2zM1 12.25v-3h1.813l2.375 3zM5 13.25v2h-1.5v-2zM5 28h-1.5v-7.75h1.5zM1 19.25v-3h1.813l2.375 3zM6.5 19.25l-2.438-3h1.938l2.438 3zM9.688 19.25l-2.375-3h2l2.375 3zM13 19.25l-2.438-3h1.938l2.438 3zM16.188 19.25l-2.375-3h2l2.375 3zM19.5 19.25l-2.438-3h1.938l2.438 3zM22.688 19.25l-2.375-3h2l2.375 3zM26 19.25l-2.438-3h1.938l2.438 3zM28.5 28h-1.5v-7.75h1.5zM31 16.25v3h-1.813l-2.375-3zM31 12.25h-1.813l-2.375-3h4.188z"></path>
</svg>
