<!-- Generated by IcoMoon.io -->
<svg version="1.1" xmlns="http://www.w3.org/2000/svg" width="32" height="32" viewBox="0 0 32 32">
<title>Hippo</title>
<path d="M3.188 5.75c-0.125 0-0.25 0-0.5 0.063-0.188 0.063-0.375 0.063-0.438 0.125-0.25 0-0.5 0.188-0.688 0.375-0.188 0.25-0.375 0.5-0.375 0.75 0 0.063 0 0.188 0 0.188 0 0.063 0 0.125 0.063 0.188 0 0.063 0.125 0.25 0.313 0.5 0.125 0.188 0.125 0.25 0.125 0.25 0 0.063 0 0.063 0 0.063-0.063 0.063-0.063 0.125-0.063 0.188s0 0.063 0 0.125c0.063 0 0.063 0.063 0.125 0.063 0 0 0 0 0.063 0s0.063 0 0.188 0c0.063 0 0.125-0.063 0.125-0.063 0.188 0 0.438 0 0.563 0.063 0.125 0 0.313 0.063 0.438 0.188 0.063 0.063 0.188 0.25 0.313 0.438 0.063 0.188 0.125 0.375 0.188 0.5 0 0.063 0.063 0.125 0.063 0.125 0.063 0.25 0.125 0.688 0.188 1 0 0 0 0.063 0 0.063s0 0.063 0 0.125 0 0.5 0 0.625c0 0 0 0.063 0 0.063-0.063 0.188-0.063 0.438-0.125 0.625-0.063 0.063-0.125 0.313-0.25 0.563-0.313 0.75-0.625 1.5-0.938 1.938-0.188 0.188-0.25 0.313-0.375 0.438-0.063 0.063-0.063 0.063-0.125 0.125-0.125 0.063-0.25 0.125-0.375 0.25-0.063 0.063-0.063 0.063-0.063 0.063s-0.063-0.063-0.188-0.188c-0.25-0.313-0.313-0.438-0.375-0.375-0.063 0-0.063 0-0.063 0.063-0.063 0.063-0.063 0.188 0 0.25 0 0.188 0.063 0.375 0.125 0.438s0.063 0.063 0.063 0.063-0.063 0-0.125 0c-0.063-0.063-0.188-0.188-0.5-0.5-0.188-0.25-0.313-0.375-0.375-0.375 0 0-0.063 0-0.063 0.125 0 0 0 0.125 0 0.125s0 0.063 0 0.063c0 0.125 0.063 0.25 0.125 0.375 0 0.063 0 0.063 0.125 0.188 0.188 0.25 0.25 0.375 0.313 0.438 0 0.063 0 0.063-0.125 0.313s-0.125 0.313-0.188 0.375c0 0 0 0.063 0.063 0.063 0 0.125 0.375 0.375 0.688 0.625 0.188 0.063 0.25 0.125 0.438 0.188 0.313 0.125 0.438 0.125 0.625 0.188 0.125 0 0.188 0 0.313 0 0.188 0 0.313 0 0.438-0.063 0.25-0.063 0.438-0.188 1-0.563 0.313-0.188 0.438-0.25 0.5-0.313 0.125 0 0.25-0.063 0.313-0.063s0.063 0 0.125 0.063c0.063 0 0.188 0.063 0.313 0.188 0.188 0.188 0.25 0.25 0.375 0.25 0 0 0 0.063 0.063 0.063 0.25 0.125 0.75 0.5 1 0.75 0.063 0.063 0.063 0.063 0.25 0.313 0.125 0.125 0.375 0.313 0.438 0.375 0.125 0.125 0.188 0.188 0.25 0.25 0.25 0.125 0.375 0.188 0.875 0.313 0.438 0.188 0.563 0.188 0.688 0.25s0.188 0.125 0.188 0.188c0 0 0 0 0 0.063 0 0 0 0.125 0 0.188 0 0 0 0 0 0 0 0.063 0 0.25 0 0.25s0 0.063 0 0.125c-0.063 0.063-0.063 0.125-0.063 0.125s0 0 0 0c0 0.125 0 0.438-0.063 0.5 0 0 0 0.063 0 0.063 0 0.313-0.063 0.875-0.125 1.188-0.125 0.5-0.188 0.75-0.25 0.938-0.063 0.063-0.125 0.188-0.313 0.313-0.188 0.188-0.375 0.375-0.875 0.75-0.438 0.438-0.563 0.5-0.688 0.625s-0.125 0.188-0.125 0.25c0.063 0.063 0.5 0.188 1 0.25 0.125 0 0.125 0 0.188 0s0.063 0 0.063 0c0.125 0.063 0.438 0.063 0.625 0 0.313 0 0.625-0.063 0.813-0.125 0.125-0.063 0.25-0.063 0.25-0.125 0.063-0.063 0.063-0.063 0.188-0.313 0.125-0.313 0.125-0.375 0.25-0.563 0.125-0.25 0.188-0.375 0.313-0.563s0.5-0.563 0.938-1.125c0.063-0.063 0.188-0.125 0.188-0.188 0.125-0.125 0.188-0.188 0.188-0.188 0.063 0 0.063 0 0.063 0s0.063 0 0.125 0.063c0.5 0.188 0.938 0.375 1 0.438s0.125 0.063 0.188 0.125c0.063 0.063 0.125 0.188 0.25 0.375s0.125 0.25 0.25 0.313c0.188 0.125 0.25 0.188 0.313 0.25 0.188 0.188 0.25 0.313 0.25 0.438 0.063 0 0.063 0.125 0 0.125 0 0.125-0.063 0.188-0.125 0.313-0.125 0.063-0.25 0.188-0.563 0.438-0.25 0.125-0.375 0.188-0.375 0.25s0 0.063 0 0.125c0.063 0 0.125 0.063 0.25 0.063 0.188 0.063 0.438 0.063 0.75 0.125 0.063 0 0.188 0 0.313 0 0.063 0 0.063 0 0.188 0.063 0.063 0 0.125 0 0.125 0s0.125 0 0.188 0c0.125 0 0.188 0 0.25-0.063 0.188 0 0.25-0.125 0.375-0.25 0.063-0.188 0.125-0.5 0.125-0.875 0 0 0 0 0-0.063 0-0.188 0-0.75 0-1.063 0-0.188 0-0.438 0-0.563 0 0 0-0.063 0-0.063 0-0.063 0-0.063 0-0.125-0.063-0.063-0.063-0.063-0.063-0.063s0.063 0 0.063 0c0.188 0.063 0.5 0.25 0.688 0.313 1.063 0.375 2 0.625 2.75 0.688 0.188 0.063 0.313 0.063 0.5 0.063 0.063 0 0.125 0 0.188 0 0 0 0 0 0 0 0.063 0 0.125 0 0.25-0.063 1.313-0.188 2.625-0.5 3.313-0.75 0.063 0 0.125 0 0.188-0.063 0.188-0.063 0.438-0.063 0.563 0 0.063 0 0.125 0.063 0.125 0.063v0 0.125c0 0.125-0.063 0.25-0.063 0.313s0 0.063 0 0.125 0 0.188 0 0.25c-0.125 0.5-0.25 0.875-0.438 1.063 0 0.063-0.063 0.125-0.125 0.188-0.063 0-0.125 0.063-0.188 0.125-0.125 0.063-0.125 0.063-0.313 0.188-0.313 0.188-0.375 0.25-0.438 0.375-0.063 0.063-0.063 0.063 0 0.125 0 0.063 0.063 0.125 0.188 0.125 0 0 0.063 0 0.063 0s0.188 0 0.438 0c0.25 0 0.438 0 0.438 0 0.063 0 0.063 0 0.125 0 0.063 0.063 0.25 0.063 0.313 0.063 0 0 0.125 0 0.25 0 0.188 0 0.375 0 0.563 0 0.25 0 0.438-0.063 0.438-0.188 0.063 0 0.063-0.063 0.063-0.125 0-0.25 0.063-0.25 0.063-0.375 0.063-0.125 0.188-0.313 0.313-0.438 0.188-0.25 0.813-0.875 1.75-1.75 0.125-0.188 0.125-0.188 0.125-0.188 0.063 0 0.125 0.125 0.188 0.188 0.25 0.313 0.375 0.625 0.313 0.75 0 0.063 0 0.125-0.063 0.188-0.063 0.125-0.188 0.25-0.5 0.438-0.063 0.063-0.125 0.125-0.125 0.125-0.188 0.125-0.25 0.25-0.313 0.313 0 0 0 0.063 0 0.063 0.063 0.063 0.125 0.063 0.125 0.125 0.063 0.063 0.188 0.063 0.25 0.125 0.188 0.063 0.375 0.125 0.5 0.125 0.313 0 0.5 0 0.875-0.063 0.563-0.188 1-0.375 1.125-0.563 0-0.063 0-0.125 0-0.438-0.063-0.125-0.063-0.188-0.063-0.25 0 0 0-0.188 0-0.25 0-0.188 0.063-0.375 0.125-0.563 0.188-0.563 0.188-0.563 0.25-0.75 0.188-0.5 0.25-0.75 0.25-0.938 0-0.063 0-0.063 0-0.125-0.063-0.063-0.313-0.375-0.5-0.563v-0.125c0.125-0.125 0.25-0.313 0.375-0.438 0.188-0.25 0.25-0.313 0.313-0.313 0 0 0 0.063 0 0.063 0.063 0.188 0.188 0.375 0.313 0.375 0.063 0.063 0.125 0 0.125 0 0.063 0 0.188-0.188 0.25-0.438 0.063-0.375 0.125-0.813 0.125-1.25 0-0.188 0-0.313 0-0.5-0.063-0.563-0.188-1.125-0.375-1.625-0.313-0.75-0.813-1.5-1.375-2.188-0.188-0.188-0.438-0.438-0.625-0.625-0.25-0.188-0.563-0.438-0.875-0.625-1.063-0.75-2.375-1.188-3.75-1.375 0 0-0.063 0-0.063 0-0.125 0-0.375 0-0.5 0-0.063 0-0.063 0-0.125 0-0.125-0.063-0.938-0.063-1.25-0.063-0.25 0.063-0.625 0.063-0.875 0.063-0.125 0-0.188 0-0.188 0-0.063 0-0.125 0-0.188 0-0.125 0.063-0.188 0.063-0.25 0.063 0 0-0.063 0-0.125 0s-0.125 0-0.125 0c0 0 0 0-0.063 0-0.188 0-0.625 0.063-0.75 0.063 0 0-0.063 0-0.125 0.063-0.375 0-0.75 0.063-1.125 0.125-0.625 0.063-1.313 0.188-2.313 0.313-0.063 0.063-0.438 0.125-0.688 0.125-0.438 0.063-0.875 0.125-1.125 0.125-0.063 0-0.25 0-0.313 0-0.563-0.063-1.063-0.188-1.5-0.313-0.188-0.125-0.25-0.125-0.5-0.375-0.125-0.063-0.188-0.063-0.25-0.125-0.063 0-0.125 0-0.375 0-0.188 0.063-0.25 0.063-0.313 0.063s-0.063 0-0.125-0.063c-0.063 0-0.125-0.063-0.375-0.375-0.313-0.313-0.438-0.375-0.563-0.5-0.313-0.25-1.438-1.063-1.75-1.25 0 0-0.063 0-0.063-0.063-0.063 0-0.063-0.063-0.125-0.188-0.063-0.188-0.063-0.25-0.125-0.25-0.063-0.125-0.125-0.125-0.188-0.188-0.063 0-0.063-0.063-0.125-0.063s-0.188 0-0.313 0c-0.25 0.063-0.438 0-0.688-0.125-0.125-0.063-0.25-0.125-0.375-0.25-0.25-0.188-0.5-0.438-0.75-0.688-0.375-0.438-0.688-0.938-0.813-1.188 0-0.063-0.063-0.188-0.063-0.313s0-0.188 0-0.188c0-0.25-0.125-0.375-0.375-0.5-0.125-0.063-0.375-0.125-0.563-0.188s-0.25-0.063-0.375-0.063c-0.125 0-0.125 0-0.25 0-0.125-0.063-0.125-0.063-0.25-0.063-0.063 0-0.125 0-0.25 0z"></path>
</svg>
