<!-- Generated by IcoMoon.io -->
<svg version="1.1" xmlns="http://www.w3.org/2000/svg" width="32" height="32" viewBox="0 0 32 32">
<title>hole</title>
<path d="M1-0.375h-0.25c0 0.125-0.063 0.188-0.188 0.188-0.188 0-0.313-0.125-0.313-0.313 0-0.25 0.125-0.375 0.313-0.375 0.125 0 0.188 0.063 0.188 0.188h0.188c0-0.25-0.188-0.375-0.375-0.375-0.313 0-0.5 0.188-0.5 0.563 0 0.313 0.188 0.5 0.438 0.5 0.313 0 0.438-0.125 0.5-0.375zM0.5-0.563v-0.188c0 0 0 0 0 0-0.063 0-0.188 0.063-0.188 0.125v-0.125h-0.25v0.75h0.25v-0.438c0-0.063 0.063-0.125 0.125-0.125s0.063 0 0.063 0zM0.75-0.375c0-0.25-0.125-0.375-0.375-0.375-0.188 0-0.313 0.125-0.313 0.375s0.125 0.375 0.313 0.375c0.188 0 0.313-0.063 0.375-0.188h-0.188c-0.063 0-0.125 0.063-0.188 0.063s-0.125-0.063-0.125-0.188h0.5zM0.563-0.438h-0.313c0-0.125 0.063-0.188 0.125-0.188s0.125 0.063 0.188 0.188zM0.75 0v0c-0.063-0.063-0.063-0.063-0.063-0.125v-0.438c0-0.125-0.125-0.188-0.313-0.188s-0.313 0.063-0.313 0.25h0.188c0-0.063 0.063-0.125 0.125-0.125s0.125 0.063 0.125 0.063c0 0.125-0.063 0.063-0.125 0.125h-0.125c-0.125 0-0.188 0.063-0.188 0.25 0 0.125 0.063 0.188 0.188 0.188s0.188 0 0.25-0.125c0 0.063 0 0.125 0 0.125zM0.5-0.313c0 0.125-0.063 0.188-0.125 0.188-0.125 0-0.125-0.063-0.125-0.125s0-0.063 0.125-0.063h0.063c0.063-0.063 0.063-0.063 0.063-0.063zM0.438 0v-0.125c0 0-0.063 0-0.063 0-0.063 0-0.063 0-0.063-0.063v-0.438h0.125v-0.125h-0.125v-0.188h-0.188v0.188h-0.125v0.125h0.125v0.438c0 0.125 0.063 0.188 0.188 0.188 0.063 0 0.063 0 0.125 0zM0.75 0v-1.063h-0.188v0.375c-0.063-0.063-0.125-0.063-0.188-0.063-0.188 0-0.313 0.125-0.313 0.375 0 0.188 0.125 0.375 0.313 0.375 0.063 0 0.125 0 0.188-0.063v0.063zM0.563-0.375c0 0.125-0.063 0.25-0.125 0.25-0.125 0-0.188-0.125-0.188-0.25s0.063-0.25 0.188-0.25c0.063 0 0.125 0.125 0.125 0.25zM0.813-0.375c0-0.188-0.125-0.375-0.313-0.375-0.125 0-0.188 0-0.188 0.063v-0.375h-0.25v1.063h0.25v-0.063c0 0.063 0.063 0.063 0.188 0.063 0.188 0 0.313-0.125 0.313-0.375zM0.625-0.375c0 0.125-0.063 0.25-0.188 0.25-0.063 0-0.125-0.125-0.125-0.25s0.063-0.25 0.125-0.25c0.125 0 0.188 0.125 0.188 0.25zM0.75-0.75h-0.188l-0.188 0.563-0.125-0.563h-0.25l0.313 0.813c0 0.063-0.063 0.125-0.125 0.125 0 0-0.063 0-0.063-0.063v0.188c0 0 0.063 0 0.063 0 0.125 0 0.188 0 0.25-0.188zM0.813 0v-0.188h-0.5v-0.875h-0.188v1.063zM0.438-0.625v-0.125h-0.125v-0.063c0-0.063 0-0.063 0.063-0.063 0 0 0.063 0 0.063 0v-0.125c-0.063-0.063-0.063-0.063-0.125-0.063-0.125 0-0.188 0.063-0.188 0.25v0.063h-0.125v0.125h0.125v0.625h0.188v-0.625zM1.125 0v-1.063h-0.375l-0.125 0.875-0.188-0.875h-0.313v1.063h0.188v-0.813l0.188 0.813h0.188l0.188-0.813v0.813zM0.313 0v-0.75h-0.188v0.75zM0.313-0.875v-0.188h-0.188v0.188zM0.75 0v-0.5c0-0.188-0.063-0.25-0.25-0.25-0.063 0-0.125 0-0.188 0.125v-0.125h-0.25v0.75h0.25v-0.438c0-0.125 0.063-0.188 0.125-0.188 0.125 0 0.125 0.063 0.125 0.125v0.5zM0.688 0v-0.188h-0.438l0.375-0.438v-0.125h-0.563v0.125h0.375l-0.438 0.438v0.188zM0.813-0.375c0-0.25-0.125-0.375-0.375-0.375s-0.375 0.125-0.375 0.375c0 0.25 0.125 0.375 0.375 0.375s0.375-0.125 0.375-0.375zM0.625-0.375c0 0.125-0.063 0.25-0.188 0.25s-0.188-0.125-0.188-0.25c0-0.125 0.063-0.25 0.188-0.25s0.188 0.125 0.188 0.25zM1.188 0v-0.563c0-0.125-0.125-0.188-0.25-0.188s-0.188 0-0.25 0.063c0-0.063-0.125-0.063-0.188-0.063-0.125 0-0.125 0-0.188 0.063v-0.063h-0.25v0.75h0.25v-0.438c0-0.125 0-0.188 0.125-0.188 0.063 0 0.063 0.063 0.063 0.125v0.5h0.25v-0.438c0-0.125 0-0.188 0.125-0.188 0.063 0 0.125 0.063 0.125 0.125v0.5zM0.75 0v-0.5c0-0.188-0.063-0.25-0.25-0.25-0.063 0-0.125 0-0.188 0.125v-0.438h-0.188v1.063h0.188v-0.438c0-0.125 0.063-0.188 0.125-0.188s0.125 0.063 0.125 0.188v0.438zM0.938 0v-1.063h-0.188v0.75l-0.438-0.75h-0.188v1.063h0.188v-0.688l0.438 0.688zM0.75 0v-0.75h-0.188v0.438c0 0.125-0.063 0.188-0.125 0.188-0.125 0-0.188-0.063-0.188-0.188v-0.438h-0.188v0.5c0 0.188 0.125 0.25 0.25 0.25s0.188 0 0.25-0.125v0.125zM0.875-0.688c0-0.25-0.125-0.375-0.313-0.375h-0.438v1.063h0.188v-0.375h0.25c0.188 0 0.313-0.125 0.313-0.313zM0.688-0.688c0 0.063-0.063 0.125-0.188 0.125h-0.188v-0.313h0.188c0.125 0 0.188 0.063 0.188 0.188zM0.313 0.125v-0.875h-0.188v0.813c0 0.063-0.063 0.063-0.063 0.063-0.063 0-0.063 0-0.063 0v0.188c0.063 0 0.125 0 0.125 0 0.125 0 0.188-0.063 0.188-0.188zM0.313-0.875v-0.188h-0.188v0.188zM0.75-0.25h-0.188c-0.063 0.063-0.063 0.125-0.125 0.125-0.125 0-0.188-0.125-0.188-0.25s0.063-0.25 0.188-0.25c0.063 0 0.063 0.063 0.125 0.125h0.188c0-0.188-0.125-0.25-0.313-0.25-0.25 0-0.375 0.125-0.375 0.375s0.125 0.375 0.375 0.375c0.125 0 0.313-0.125 0.313-0.25zM16 9.313c-5.125 0-10.563 1.188-10.563 3.5 0 0.438 0.188 0.875 0.625 1.25 0 0 0 0 0 0s0 0.063 0 0.063c0.125 0.063 0.188 0.125 0.25 0.188 0 0 0.063 0 0.063 0.063 0.5 0.313 1.063 0.625 1.813 0.875 1.438 0.5 3.25 0.875 5.313 1 0 0 0.063 0 0.063 0 0.5 0 1 0.063 1.563 0.063 0 0 0.063 0 0.125 0 0.25 0 0.5 0 0.75 0s0.5 0 0.75 0c0.063 0 0.125 0 0.188 0 0.188 0 0.375 0 0.563 0 0.125 0 0.25 0 0.375-0.063 0.063 0 0.125 0 0.25 0 0.25 0 0.5 0 0.75-0.063 0 0 0.063 0 0.063 0 0.75-0.063 1.5-0.125 2.188-0.25 0 0 0.063 0 0.063-0.063 0.188 0 0.25 0 0.375-0.063 0.188 0 0.313-0.063 0.5-0.063 0.063-0.063 0.125-0.063 0.188-0.063 0.125-0.063 0.25-0.063 0.375-0.125 0.063 0 0.125 0 0.188 0 0.125-0.063 0.375-0.063 0.5-0.125 0.063 0 0.063-0.063 0.125-0.063 0.313-0.125 0.688-0.188 1-0.375 0 0 0 0 0 0 0.188-0.063 0.313-0.125 0.438-0.188 0 0 0 0 0 0 0.125-0.063 0.25-0.125 0.375-0.188 0.063 0 0.063-0.063 0.125-0.063 0.063-0.063 0.125-0.125 0.188-0.125 0.063-0.063 0.125-0.125 0.188-0.188 0.063 0 0.125-0.063 0.188-0.125 0 0 0 0 0-0.063 0 0 0.063 0 0.063 0 0.375-0.375 0.563-0.813 0.563-1.25 0-2.313-5.438-3.5-10.563-3.5zM24.813 13.813c0 0.063-0.063 0.063-0.063 0.063-0.063 0.063-0.125 0.063-0.188 0.125 0 0-0.063 0-0.063 0-0.125 0.063-0.25 0.125-0.438 0.188 0 0 0 0-0.063 0-0.063 0.063-0.125 0.063-0.25 0.125 0 0 0 0-0.063 0-0.125 0.063-0.313 0.125-0.5 0.188-0.063 0-0.125 0.063-0.188 0.063-0.188 0.063-0.375 0.063-0.625 0.125-0.063 0.063-0.188 0.063-0.25 0.063-0.125 0.063-0.25 0.063-0.375 0.125-0.125 0-0.313 0.063-0.438 0.063 0 0-0.063 0-0.063 0-0.563 0.125-1.125 0.188-1.813 0.25 0 0 0 0-0.063 0-0.375 0.063-0.813 0.063-1.25 0.125 0 0 0 0-0.063 0-0.125 0-0.25 0-0.438 0s-0.313 0.063-0.5 0.063c-0.125 0-0.188 0-0.313 0-0.313 0-0.563 0-0.875 0-0.25 0-0.438 0-0.625 0-0.063 0-0.125 0-0.188 0-0.188 0-0.375 0-0.563-0.063-0.063 0-0.063 0-0.063 0-1.875-0.063-3.625-0.313-5-0.688 0 0-0.063 0-0.125 0s-0.188-0.063-0.313-0.063c-0.063-0.063-0.125-0.063-0.25-0.125-0.063 0-0.063 0-0.125 0-0.125-0.063-0.188-0.063-0.313-0.125-0.313-0.063-0.625-0.25-0.875-0.313 0 0-0.063 0-0.063-0.063-0.063-0.063-0.188-0.063-0.25-0.125s-0.125-0.063-0.125-0.063-0.063-0.063-0.063-0.063c1.563-1 5.063-1.688 8.938-1.688s7.375 0.688 8.938 1.688c0.063 0.125 0 0.125-0.063 0.125zM25.625 13.188c-1.688-1.188-5.438-1.938-9.625-1.938s-7.938 0.75-9.625 1.938c-0.063-0.125-0.125-0.25-0.125-0.375 0-0.438 0.688-1.188 2.688-1.813 1.875-0.563 4.375-0.875 7.063-0.875 2.625 0 5.125 0.313 7 0.875 2 0.625 2.688 1.313 2.688 1.813 0.063 0.125 0 0.25-0.063 0.375z"></path>
</svg>
