<svg xmlns="http://www.w3.org/2000/svg" version="1.1" viewBox="-5.0 -10.0 110.0 135.0">
 <path d="m21.102 48.602h22.199l11.102-19.199-11.102-19.203h-22.199l-11.102 19.199zm2-33.5c0.19922-0.39844 0.69922-0.69922 1.1992-0.69922l15.699-0.003906c0.80078 0 1.3984 0.60156 1.3984 1.3984 0 0.80078-0.60156 1.3984-1.3984 1.3984h-15l-7.5 13c-0.19922 0.39844-0.69922 0.69922-1.1992 0.69922-0.19922 0-0.5-0.10156-0.69922-0.19922-0.69922-0.39844-0.89844-1.1992-0.5-1.8984z"/>
 <path d="m56.699 30.801-11.098 19.199 11.102 19.199h22.199l11.098-19.199-11.102-19.199zm19 6.8984h-15l-7.5 13c-0.30078 0.39844-0.69922 0.69922-1.1992 0.69922-0.19922 0-0.5-0.10156-0.69922-0.19922-0.69922-0.39844-0.89844-1.1992-0.5-1.8984l7.8984-13.699c0.30078-0.40234 0.80078-0.60156 1.3008-0.60156h15.801c0.80078 0 1.3984 0.60156 1.3984 1.3984-0.097657 0.70312-0.69922 1.3008-1.5 1.3008z"/>
 <path d="m43.301 89.801 11.102-19.199-11.102-19.203h-22.199l-11.102 19.203 11.102 19.199zm-26.902-17.801c-0.19922 0-0.5-0.10156-0.69922-0.19922-0.69922-0.39844-0.89844-1.1992-0.5-1.8984l7.8984-13.602c0.19922-0.39844 0.69922-0.69922 1.1992-0.69922h15.703c0.80078 0 1.3984 0.60156 1.3984 1.3984 0 0.69922-0.60156 1.3984-1.3984 1.3984h-15l-7.5 13c-0.10156 0.30078-0.60156 0.60156-1.1016 0.60156z"/>
<text x="0.0" y="117.5" font-size="5.0" font-weight="bold" font-family="Arbeit Regular, Helvetica, Arial-Unicode, Arial, Sans-serif" fill="#000000">Created by NAPISAH</text><text x="0.0" y="122.5" font-size="5.0" font-weight="bold" font-family="Arbeit Regular, Helvetica, Arial-Unicode, Arial, Sans-serif" fill="#000000">from Noun Project</text></svg>