<!-- Generated by IcoMoon.io -->
<svg version="1.1" xmlns="http://www.w3.org/2000/svg" width="32" height="32" viewBox="0 0 32 32">
<title>Horn</title>
<path d="M0.188-0.063h-0.063c0 0 0 0.063 0 0.063-0.063 0-0.063-0.063-0.063-0.063 0-0.063 0-0.063 0.063-0.063 0 0 0 0 0 0h0.063c0-0.063-0.063-0.063-0.063-0.063-0.063 0-0.125 0.063-0.125 0.125 0 0 0.063 0.063 0.125 0.063 0 0 0.063 0 0.063-0.063zM0.063-0.125v0c0 0 0 0 0 0s0 0 0 0v0h-0.063v0.125h0.063v-0.063c0 0 0-0.063 0-0.063s0 0 0 0zM0.125-0.063c0-0.063 0-0.063-0.063-0.063s-0.063 0-0.063 0.063 0 0.063 0.063 0.063 0.063 0 0.063-0.063v0c-0.063 0.063-0.063 0.063-0.063 0.063s0-0.063 0-0.063h0.063zM0.125-0.063h-0.063c0-0.063 0-0.063 0-0.063s0 0 0.063 0.063zM0.125 0v0c0 0 0 0 0 0v-0.125c0 0 0 0-0.063 0 0 0-0.063 0-0.063 0.063h0.063c0-0.063 0-0.063 0-0.063s0 0 0 0c0 0.063 0 0.063 0 0.063v0c-0.063 0-0.063 0-0.063 0 0 0.063 0 0.063 0.063 0.063 0 0 0 0 0 0s0 0 0 0zM0.063-0.063c0 0 0 0.063 0 0.063s0 0 0-0.063c0 0 0 0 0 0v0c0 0 0 0 0 0zM0.063 0v0c0 0 0 0 0 0s0 0 0-0.063v-0.125h-0.063v0.188c0 0 0.063 0 0.063 0s0 0 0 0zM0.125 0v-0.125c-0.063 0-0.063 0-0.063 0s-0.063 0-0.063 0.063c0 0.063 0 0.063 0.063 0.063 0 0 0 0 0.063 0v0zM0.125-0.063c0 0-0.063 0.063-0.063 0.063s0-0.063 0-0.063c0 0 0-0.063 0-0.063s0.063 0.063 0.063 0.063zM0.125-0.063c0-0.063 0-0.063-0.063-0.063 0 0 0 0 0 0v-0.063h-0.063v0.188h0.063c0 0 0 0 0 0 0.063 0 0.063 0 0.063-0.063zM0.125-0.063c0 0 0 0.063-0.063 0.063 0 0 0-0.063 0-0.063s0-0.063 0-0.063c0.063 0 0.063 0.063 0.063 0.063zM0.125-0.125v0l-0.063 0.063v-0.063h-0.063l0.063 0.125c0 0 0 0-0.063 0 0 0 0 0 0 0v0.063c0 0 0 0 0.063 0 0 0 0 0 0-0.063zM0.063 0v-0.188h-0.063v0.188zM0.125-0.063v0c-0.063 0-0.063 0.063-0.063 0.063s0-0.063 0-0.063c0 0 0-0.063 0-0.063s0 0 0.063 0.063v0c0-0.063 0-0.063-0.063-0.063 0 0-0.063 0-0.063 0.063s0.063 0.063 0.063 0.063 0.063 0 0.063-0.063zM0.125-0.063c0-0.063 0-0.063-0.063-0.063 0 0-0.063 0-0.063 0.063s0.063 0.063 0.063 0.063 0.063 0 0.063-0.063zM0.125-0.063c0 0 0 0.063-0.063 0.063 0 0 0-0.063 0-0.063s0-0.063 0-0.063c0.063 0 0.063 0 0.063 0.063zM0.125 0v-0.063c0-0.063 0-0.063-0.063-0.063 0 0 0 0 0 0v0h-0.063v0.125h0.063v-0.063c0-0.063 0-0.063 0-0.063 0.063 0 0.063 0 0.063 0.063v0.063zM0.125-0.125v-0.063h-0.125v0.188h0.063v-0.063h0.063v-0.063h-0.063zM0.063 0v-0.125h-0.063v0.125zM0.063-0.125v-0.063h-0.063v0.063zM0.063-0.125v0 0 0c0 0 0-0.063 0-0.063s0 0.063 0 0.063v-0.063c0 0 0 0 0 0s-0.063 0-0.063 0.063v0 0 0 0 0.125h0.063v-0.125zM0.188 0v-0.125c0 0 0 0 0 0-0.063 0-0.063 0-0.063 0s0 0-0.063 0c0 0 0 0 0 0v0h-0.063v0.125h0.063v-0.063c0-0.063 0-0.063 0-0.063s0 0 0 0.063v0.063h0.063v-0.063c0-0.063 0-0.063 0-0.063 0.063 0 0.063 0 0.063 0.063v0.063zM0.125 0v-0.063c0-0.063 0-0.063-0.063-0.063 0 0 0 0 0 0v-0.063h-0.063v0.188h0.063v-0.063c0-0.063 0-0.063 0-0.063s0.063 0 0.063 0.063v0.063zM0.188 0v-0.188h-0.063v0.125l-0.063-0.125h-0.063v0.188h0.063v-0.125l0.063 0.125zM0.125 0v-0.063c0 0-0.063 0.063-0.063 0.063s0-0.063 0-0.063v-0.063h-0.063v0.063c0 0.063 0.063 0.063 0.063 0.063s0 0 0.063 0v0zM0.188-0.125c0-0.063-0.063-0.063-0.063-0.063h-0.125v0.188h0.063v-0.063h0.063c0 0 0.063 0 0.063-0.063zM0.125-0.125c0 0 0 0-0.063 0v0 0 0c0.063 0 0.063 0 0.063 0zM0.063 0v-0.125h-0.063v0.125c0 0 0 0 0 0s0 0 0 0v0.063c0 0 0 0 0 0 0.063 0 0.063 0 0.063-0.063zM0.063-0.125v-0.063h-0.063v0.063zM19.5 14.375v0c-0.438-0.188-1.5-0.375-2.563 0.188v0c-0.375 0.188-0.5 0.563-0.313 0.938v0c0.188 0.375 0.625 0.5 0.938 0.313v0c0.75-0.375 1.313-0.125 1.375-0.125 0.375 0.125 0.75 0 0.938-0.375v0c0.125-0.313 0-0.75-0.375-0.938zM14.438 18.938l-0.688 0.688c-0.313 0.313-0.313 0.75-0.063 1 0.188 0.188 0.625 0.438 1 0.063l0.75-0.75c0.25-0.25 0.25-0.688 0-1-0.25-0.25-0.688-0.25-1 0zM28.5 3.438c-0.125-0.125-0.313-0.188-0.5-0.188-0.625 0-1.25 0.063-1.813 0.125-0.5-0.875-1.375-1.313-1.375-1.313-0.188-0.125-0.438-0.125-0.688 0-1 0.438-1.688 1.188-2 2.125-0.063 0.313-0.125 0.625-0.188 0.938-1.625 1.25-2.313 2.75-2.313 2.813-0.438 2.063-2 3.438-2.938 4.063-0.25 0.188-0.563 0.188-0.813 0.063-0.938-0.563-1.688-1.688-1.688-1.688-0.5-0.625-1.125-0.25-1.25 0.125-0.5 1.25-0.125 2.625 0.188 3.563-4.25-0.188-8.5-6.188-8.5-6.25-0.313-0.5-1.375-0.438-1.313 0.438 0 0.313 0.75 6.688 8.125 10.938 0.188 0.125 0.313 0.313 0.25 0.563 0 1.688 0.375 2.875 1.188 3.438 0.813 0.625 1.813 0.438 1.938 0.375 5.75 0 9.625-4.313 9.813-4.5 0 0 0.75-0.938 0.875-1 0.625 0.625 1.188 0.938 1.813 1 0.688 0 1.375-0.313 1.375-0.938v-14.188c0-0.188-0.063-0.375-0.188-0.5zM27.313 17.625c-0.188-0.063-0.5-0.25-0.75-0.563-0.188-0.25-0.5-0.438-0.938-0.5-0.688 0-1.313 0.5-2.125 1.625-0.25 0.313-3.188 3.25-7.25 3.875 0.5-0.438 1.188-0.875 2.25-1.375 0.313-0.125 0.5-0.563 0.313-0.938-0.125-0.313-0.563-0.5-0.938-0.313-2.313 1.063-3.313 2.188-3.75 2.75-0.125 0-0.25-0.063-0.375-0.125-0.438-0.313-0.625-1.125-0.625-2.313 0-0.75-0.375-1.375-1-1.75-3.5-2.063-5.375-4.625-6.375-6.625 2.375 2.5 5.688 4.563 8.563 4.063 0.25-0.063 0.813-0.438 0.5-1.063-0.188-0.313-0.5-1.063-0.625-1.875 0.25 0.25 0.625 0.563 0.938 0.75 0.75 0.438 1.625 0.375 2.313-0.063 1.125-0.75 3-2.375 3.563-4.875 0.125-0.188 0.438-0.813 1.125-1.5 0.188 0.625 0.438 1.063 0.438 1.063 0.188 0.375 0.625 0.5 0.938 0.313 0.375-0.188 0.5-0.625 0.313-0.938 0 0-0.75-1.438-0.313-2.625 0.125-0.438 0.438-0.813 0.938-1.125 0.25 0.188 0.625 0.563 0.75 1.063s0 1.125-0.438 1.75c-0.25 0.313-0.125 0.75 0.188 0.938 0.313 0.25 0.75 0.125 1-0.188 0.5-0.813 0.75-1.563 0.688-2.313 0.25 0 0.438-0.063 0.688-0.063z"></path>
</svg>
