<!-- Generated by IcoMoon.io -->
<svg version="1.1" xmlns="http://www.w3.org/2000/svg" width="32" height="32" viewBox="0 0 32 32">
<title>Horse</title>
<path d="M11 8.375c-1.688 0.188-1.938 0.75-2.75 0.75s-2.938 1.063-2.938 2.063c0 1 0.125 3.625-1.563 3.938s2.563 0.938 2.813-0.938c0.25-1.875 0.375-2.938 0.688-3.438 0.313-0.438 1.125-0.75 1.313-0.75 0.25 0-0.938 1.875 0.125 3.75 1.125 1.938-0.938 2.813-0.938 2.813v3.5h-0.875v1.75h0.875l0.875-0.875v-2.625c0 0 0.438-1.688 1-2s1.375-0.563 1.813-0.563c0.438 0 0 0.5 0 0.5v1.188l0.563 1.313v1.813h0.938v1.25h1.813l-0.938-1.75-0.875-0.438-0.563-2.063v-0.813l0.563-0.188v-1.75l0.375-0.563c0 0 1.25 1.813 4.063 1.813 2.875 0 3.813-0.375 3.813-0.375v0.75l-1.25 1v1.75l-0.375 0.875v0.875l0.375 0.25v0.625h1.75v-0.875l-0.875-0.875v-0.875l1.438-2.125v-1.438l0.938-0.563 2.813 2.375 0.625 1.688v0.5h-0.625v1.375h0.813l0.938-0.938v-0.875l-0.875-2.625-2.625-2.375 0.5-2.688 0.75-1.188v-1.438h0.625l0.75 0.875v0.938h1.375l0.375-0.313v-2l-0.375-0.313-0.5-1.938v-0.875c0 0 0.188-0.188 0.875 0-0.5-0.563-0.875-1.75-2.625 0h-1.75l-4.313 2.625-0.75 0.938-2.688 0.438c0 0-3.5-1.125-5.5-0.875z"></path>
</svg>
