<!-- Generated by IcoMoon.io -->
<svg version="1.1" xmlns="http://www.w3.org/2000/svg" width="32" height="32" viewBox="0 0 32 32">
<title>Human-tracking</title>
<path d="M10.25 2c-2.375 0-4.25 3.125-4.25 7 0 2.125 0.563 4.438 1.063 7.938 0.438 2.75 1.438 5.063 3.188 5.063s2.938-1.5 2.938-4.313c0-0.938-0.75-2.438-0.813-3.75-0.063-2.313 1.563-3.25 1.563-5.375 0-3.875-1.313-6.563-3.688-6.563zM21.688 10c-2.313 0-3.625 2.688-3.625 6.563 0 2.125 1.563 3.063 1.5 5.375 0 1.313-0.813 2.813-0.813 3.75 0 2.813 1.188 4.313 2.938 4.313 1.813 0 2.813-2.313 3.188-5.063 0.563-3.5 1.063-5.813 1.063-7.938 0-3.875-1.875-7-4.25-7z"></path>
</svg>
