<!-- Generated by IcoMoon.io -->
<svg version="1.1" xmlns="http://www.w3.org/2000/svg" width="32" height="32" viewBox="0 0 32 32">
<title>Human-activity</title>
<path d="M8.313 0.688c-3.375 1.375-6.375 2.813-6.75 3.063-1 0.875-0.875 6.25 0.25 10.25 1.625 6.063 5.188 11.063 9.813 14.25 3.438 2.25 4.75 2.313 8.188 0.063 6.25-4.063 10.313-11.313 11.063-19.688 0.313-3.125 0.25-3.438-0.688-4.5-1.25-1.375-12.625-6.125-14.5-6.063-0.688 0-4 1.188-7.375 2.625zM26.125 8.375c0.188 2.125-0.938 6-2.688 9.313-1.25 2.375-6 7.438-7.063 7.438-0.188 0-0.375-4.563-0.375-11.313v-11.25l5 2.063 5 2.125z"></path>
</svg>
