<!-- Generated by IcoMoon.io -->
<svg version="1.1" xmlns="http://www.w3.org/2000/svg" width="26" height="32" viewBox="0 0 26 32">
<title>Hunting-P-P</title>
<path d="M24.576 9.813c-0.114 0.028-0.256 0.085-0.37 0.142-0.171 0.114-0.313 0.284-0.484 0.427-0.199 0.199-0.455 0.398-0.711 0.512-0.455 0.199-0.967 0.228-1.451 0.199-0.825-0.057-1.593-0.284-2.361-0.54-0.484-0.171-0.939-0.341-1.422-0.512-0.683-0.228-1.422-0.341-2.133-0.484-0.455-0.085-0.91-0.199-1.337-0.427-0.484-0.284-0.967-0.569-1.451-0.853-0.768-0.427-1.536-0.853-2.304-1.308-0.313-0.171-0.654-0.37-0.967-0.569-0.199-0.114-0.398-0.284-0.626-0.398-0.398-0.199-0.825-0.313-1.28-0.37-0.171-0.028-0.341-0.028-0.512-0.057-0.171 0-0.341 0-0.54 0-0.028 0-0.057 0-0.085 0-0.683 0.028-1.308 0.171-1.934 0.398-0.455 0.171-0.939 0.341-1.394 0.512-0.057 0.028-0.114 0-0.142-0.028-0.085-0.057-0.171-0.142-0.256-0.171-0.228-0.142-0.427-0.085-0.569 0.114-0.028 0-0.028 0-0.057 0-0.171-0.057-0.313 0-0.398 0.142-0.057 0.114-0.085 0.228-0.085 0.341 0.028 0.199-0.057 0.341-0.256 0.427-0.028 0-0.057 0.028-0.057 0.028-0.142 0.085-0.256 0.199-0.341 0.37-0.057 0.114-0.085 0.256-0.114 0.37-0.057 0.284-0.142 0.597-0.199 0.882-0.028 0.114 0 0.228 0.114 0.284 0.171 0.142 0.284 0.256 0.37 0.37 0.028 0.057 0.085 0.085 0.114 0.142 0.142 0.114 0.256 0.171 0.455 0.085 0.256-0.114 0.484-0.256 0.683-0.427 0.085-0.085 0.199-0.114 0.313-0.114 0.171 0 0.341 0 0.512 0 0 0 0 0 0.028 0.028-0.085 0.028-0.199 0.085-0.284 0.114-0.284 0.114-0.569 0.256-0.768 0.512-0.171 0.199-0.284 0.455-0.313 0.711-0.028 0.199 0.085 0.284 0.256 0.313 0.085 0 0.142 0.028 0.199 0.085 0.085 0.085 0.171 0.114 0.284 0.142 0.028 0 0.085 0.028 0.114 0.057 0.114 0.057 0.199 0.057 0.313-0.028 0.085-0.085 0.142-0.171 0.228-0.256 0.057-0.057 0.085-0.114 0.142-0.199 0.057 0.114 0.114 0.199 0.199 0.313 0.057 0.085 0.142 0.142 0.256 0.142 0.199 0 0.37 0.028 0.569 0.028 0.114 0 0.171-0.028 0.199-0.142 0.028-0.085 0.085-0.171 0.171-0.199 0.085-0.057 0.114-0.085 0.057-0.171-0.028-0.028-0.028-0.057-0.057-0.114 0.028 0 0.028-0.028 0.057-0.028 0.398-0.114 0.796-0.114 1.195-0.057 0.455 0.057 0.882 0.057 1.337 0.028 0.256-0.028 0.54-0.028 0.796 0.028 0.825 0.171 1.678 0.341 2.503 0.484 0.284 0.057 0.569 0.114 0.853 0.199 0.54 0.171 0.996 0.54 1.365 0.967 0.398 0.455 0.74 0.939 1.109 1.394 0.256 0.313 0.484 0.626 0.825 0.882 0.512 0.398 1.109 0.683 1.707 0.939 0.455 0.199 0.853 0.455 1.195 0.825 0.228 0.284 0.484 0.569 0.74 0.825 0.626 0.711 1.252 1.422 1.678 2.304 0.114 0.228 0.284 0.427 0.569 0.512 0.028 0 0.085 0 0.114 0 0.057-0.028 0.114-0.028 0.142-0.085 0.057-0.085 0.114-0.085 0.199-0.085 0.028 0 0.028 0 0.057 0 0.199-0.028 0.398-0.199 0.427-0.37s0.028-0.341-0.057-0.512c-0.057-0.114-0.085-0.228-0.142-0.37-0.057-0.171-0.142-0.284-0.284-0.37-0.085-0.057-0.199-0.085-0.284-0.142-0.114-0.085-0.256-0.142-0.341-0.256-0.142-0.171-0.256-0.341-0.341-0.512-0.228-0.455-0.455-0.939-0.654-1.422-0.142-0.313-0.313-0.597-0.569-0.796-0.114-0.085-0.228-0.171-0.313-0.284-0.512-0.54-0.853-1.166-1.052-1.877-0.114-0.427-0.228-0.853-0.37-1.28-0.057-0.199-0.171-0.398-0.341-0.54-0.057-0.057-0.114-0.085-0.171-0.142 0.057 0 0.114 0 0.142 0 0.825-0.028 1.593 0.171 2.361 0.37 0.569 0.142 1.138 0.313 1.707 0.455 0.54 0.114 1.052 0.171 1.593 0.085 0.711-0.114 1.337-0.427 1.82-0.996 0.199-0.228 0.341-0.512 0.341-0.825 0.028-0.142-0.085-0.228-0.228-0.171zM1.764 8.277c-0.057 0.085-0.142 0.057-0.199 0.028-0.085-0.057-0.085-0.085-0.028-0.142 0.028-0.028 0.085-0.057 0.114-0.085s0.057-0.028 0.085-0.057c0.085 0.085 0.085 0.171 0.028 0.256z"></path>
</svg>
