<!-- Generated by IcoMoon.io -->
<svg version="1.1" xmlns="http://www.w3.org/2000/svg" width="32" height="32" viewBox="0 0 32 32">
<title>Hunting-H-A</title>
<path d="M6.188 17.875c0 0.813 0.313 1.563 0.875 2.063l0.438 10.375c0.063 0.938 0.75 1.625 1.688 1.688s1.75-0.688 1.813-1.688l0.438-10.375c0.5-0.5 0.813-1.25 0.813-2.063v-6.625l-6.063-0.438zM13.875 3.875c0 1.625-1.375 2.938-3 2.938s-2.938-1.313-2.938-2.938c0-1.688 1.313-3 2.938-3s3 1.313 3 3zM11.813 7.125c-1.688-0.063-2.875-0.625-4-0.438l-3.875 0.688c-0.625 0.125-1.063 0.625-1.125 1.25-0.063 0.813 0.5 1.438 1.25 1.5l8.5 0.75c0 0 0.938 0 1.125-0.875 0.188-1.125-0.875-1.25-0.875-1.25l-2-0.375 0.688-0.25 1.313 0.188c0.375 0.063 0.625 0.25 0.813 0.438l0.563-1.625zM22 8.938c-0.063-0.188-0.063-0.375-0.063-0.5-0.063-0.438-0.063-0.813-0.188-1.125l-6-0.125-0.688 1.75zM29 9.438l-1.938-1.125c-0.125-0.063-0.25-0.063-0.375 0s-0.188 0.188-0.188 0.313v0.75h-2.063c-0.063-0.625-0.125-1.188-0.188-1.813-0.375-2-1.188-3.938-2.563-5.438-0.688-0.75-1.5-1.375-2.438-1.75-0.438-0.188-0.875-0.313-1.375-0.375-0.375 0-0.813 0-1.188 0.063-0.188 0-0.188 0.25 0 0.313 0.125 0 0.25 0.063 0.375 0.063l-3.313 8.938h-1.188v0.75h1.188l3.375 9c-0.188 0.063-0.313 0.063-0.438 0.125-0.125 0-0.125 0.125-0.063 0.188s0.125 0.063 0.188 0.063c0.25 0 0.5 0 0.688 0 2.063-0.063 3.75-1.375 4.875-2.938 1.188-1.625 1.813-3.625 2-5.625 0-0.25 0-0.5 0.063-0.813h2.063v0.75c0 0.125 0.063 0.25 0.188 0.313 0.063 0.063 0.125 0.063 0.188 0.063s0.125 0 0.188-0.063l1.938-1.125c0.125-0.063 0.188-0.188 0.188-0.313s-0.063-0.25-0.188-0.313zM17.688 0.625c0.188 0.063 0.375 0.188 0.563 0.25 0.75 0.438 1.438 1.063 1.938 1.75 1.25 1.625 1.875 3.688 2.125 5.75 0 0.313 0 0.688 0.063 1h-8zM22.25 11.375c-0.188 2-0.813 4.063-2.125 5.688-0.625 0.75-1.375 1.438-2.313 1.813-0.063 0-0.063 0.063-0.125 0.063l-3.313-8.813h8c-0.063 0.438-0.063 0.813-0.125 1.25z"></path>
</svg>
