<?xml version="1.0" standalone="no"?>
<!DOCTYPE svg PUBLIC "-//W3C//DTD SVG 20010904//EN"
 "http://www.w3.org/TR/2001/REC-SVG-20010904/DTD/svg10.dtd">
<svg version="1.0" xmlns="http://www.w3.org/2000/svg"
 width="258.000000pt" height="319.000000pt" viewBox="0 0 258.000000 319.000000"
 preserveAspectRatio="xMidYMid meet">
<metadata>
Created by potrace 1.16, written by Peter Selinger 2001-2019
</metadata>
<g transform="translate(0.000000,319.000000) scale(0.100000,-0.100000)"
fill="#000000" stroke="none">
<path d="M1765 2790 c-105 -29 -364 -101 -475 -130 -36 -10 -105 -30 -155 -44
-49 -15 -189 -56 -310 -91 -384 -111 -365 -101 -365 -190 0 -115 22 -137 111
-111 29 9 56 16 61 16 4 0 8 -177 8 -394 0 -433 -4 -406 61 -406 16 0 29 -4
29 -9 0 -11 -20 -100 -55 -246 -130 -543 -146 -620 -136 -648 22 -57 98 -60
130 -5 9 15 79 75 156 134 77 60 193 150 259 201 132 104 117 102 212 26 34
-26 142 -109 239 -183 186 -141 199 -152 228 -194 36 -53 117 -21 117 46 0 18
-13 89 -30 158 -16 69 -59 251 -95 405 -36 154 -68 288 -71 298 -4 14 1 17 33
17 22 0 44 5 51 12 9 9 12 146 12 553 l0 542 40 12 c21 6 53 23 70 37 29 25
30 29 30 109 0 63 -4 88 -16 99 -20 20 -19 20 -139 -14z m-285 -700 l0 -150
-275 0 c-151 0 -275 3 -275 8 -5 80 -8 277 -4 284 3 4 129 8 280 8 l274 0 0
-150z m53 -667 c6 -14 7 -27 1 -33 -29 -28 -321 -250 -329 -250 -11 0 -318
238 -323 250 -1 4 2 19 8 34 l10 27 311 -2 311 -2 11 -24z m-553 -283 c58 -45
106 -86 108 -90 2 -5 -52 -51 -120 -103 -68 -53 -150 -117 -182 -143 -58 -46
-59 -46 -51 -18 4 16 13 60 21 98 8 38 23 101 34 140 10 39 26 106 35 149 15
72 18 77 33 64 10 -8 64 -51 122 -97z m654 -139 c31 -129 55 -235 54 -236 -2
-2 -85 61 -186 138 l-183 142 43 37 c105 90 204 165 209 159 4 -3 32 -111 63
-240z"/>
</g>
</svg>
