<?xml version="1.0" standalone="no"?>
<!DOCTYPE svg PUBLIC "-//W3C//DTD SVG 20010904//EN"
 "http://www.w3.org/TR/2001/REC-SVG-20010904/DTD/svg10.dtd">
<svg version="1.0" xmlns="http://www.w3.org/2000/svg"
 width="500.000000pt" height="500.000000pt" viewBox="0 0 500.000000 500.000000"
 preserveAspectRatio="xMidYMid meet">
<metadata>
Created by potrace 1.16, written by Peter Selinger 2001-2019
</metadata>
<g transform="translate(0.000000,500.000000) scale(0.100000,-0.100000)"
fill="#000000" stroke="none">
<path d="M1775 3168 c-107 -20 -127 -29 -179 -82 -34 -33 -72 -60 -109 -75
-61 -25 -66 -34 -41 -69 12 -17 25 -22 60 -22 41 0 44 -1 30 -16 -39 -39 7
-68 62 -40 20 10 57 16 102 16 59 0 77 -4 110 -26 22 -14 42 -34 45 -44 3 -9
7 -61 10 -113 5 -127 10 -122 -195 -172 -39 -10 -87 -31 -120 -53 -63 -44
-108 -65 -120 -57 -5 3 -11 1 -15 -5 -3 -5 -15 -10 -26 -10 -17 0 -19 -4 -13
-22 9 -29 22 -37 53 -33 14 1 33 3 42 4 9 0 27 11 40 24 37 35 78 59 90 51 6
-4 15 -1 19 6 7 11 197 39 265 39 19 0 19 0 -2 -18 -21 -18 -107 -44 -185 -56
-29 -5 -44 -15 -63 -43 -14 -20 -25 -44 -25 -54 0 -9 -23 -42 -51 -73 -50 -54
-54 -70 -19 -76 25 -4 70 12 70 26 0 7 6 15 13 18 7 2 18 26 25 52 8 32 19 49
32 52 11 3 20 9 20 14 0 13 52 20 205 27 l139 7 9 38 c8 33 12 38 31 32 32
-10 127 -14 386 -19 129 -2 259 -9 287 -16 50 -11 53 -14 64 -53 20 -76 51
-128 116 -195 68 -69 113 -144 113 -186 0 -14 -9 -40 -20 -58 -25 -42 -25 -54
1 -61 15 -4 22 1 29 18 5 13 14 26 20 30 5 3 28 33 50 66 l40 60 -59 69 c-36
44 -64 88 -74 121 -10 29 -15 54 -13 56 8 8 350 -228 414 -286 76 -68 93 -77
155 -85 42 -5 47 -4 47 14 0 11 -4 20 -10 20 -5 0 -10 6 -10 14 0 9 -20 19
-51 27 -33 9 -57 22 -68 37 -31 46 -126 140 -157 155 -65 33 -169 179 -214
300 -15 39 -33 66 -56 83 -49 37 -44 59 19 90 125 63 308 229 348 317 20 45
27 157 9 157 -5 0 -10 -17 -10 -38 0 -21 -12 -62 -26 -91 -55 -110 -306 -291
-403 -291 -21 0 -69 11 -107 24 -38 13 -137 36 -220 50 -186 32 -232 46 -358
103 -54 24 -114 47 -132 50 -20 3 -54 25 -90 56 -31 28 -100 74 -153 101 -89
47 -96 54 -101 85 -6 40 -9 41 -75 29z"/>
</g>
</svg>
