<!-- Generated by IcoMoon.io -->
<svg version="1.1" xmlns="http://www.w3.org/2000/svg" width="32" height="32" viewBox="0 0 32 32">
<title>Hut</title>
<path d="M28 13.313l-10-8.625h-4l-10 8.625c-0.5 0.438-0.688 0.688-0.688 1 0 0.688 0.688 1 1.375 1h1.313v10.688c0 0.75 0.625 1.313 1.313 1.313h17.375c0.75 0 1.313-0.563 1.313-1.313v-10.688h1.313c0.688 0 1.375-0.313 1.375-1 0-0.313-0.188-0.563-0.688-1zM20.688 26h-9.375v-1.313h9.375zM20.688 23.313h-9.375v-1.313h9.375zM20.688 20.688h-9.375v-1.375h9.375zM20.688 18h-9.375v-1.313h9.375z"></path>
</svg>
