<!-- Generated by IcoMoon.io -->
<svg version="1.1" xmlns="http://www.w3.org/2000/svg" width="32" height="32" viewBox="0 0 32 32">
<title>Hyena</title>
<path d="M1.375 18.188c0.063 0 0.063 0.063 0 0.063-0.25 0.063-0.438 0.063-0.625 0.125-0.125 0-0.313-0.063-0.5-0.063-0.063 0-0.125 0.063-0.063 0.063 0.5 0.688 1.313 0.813 2.375 0.25 0.063-0.063 0.063 0 0.063 0.063 0 0.125-0.063 0.25-0.563 0.813-0.063 0.063-0.063 0.125 0 0.125 0.5 0 0.938-0.125 1.313-0.375 0.438-0.25 0.813-0.563 1.188-0.938 0.25-0.25 0.438-0.5 0.625-0.75 0.063-0.063 0.125-0.063 0.125 0 0.063 0.063 0.063 0.125 0.125 0.125 0 0.063 0.063 0.188 0.063 0.25-0.063 1.188-0.875 2.25-2 2.688-0.813 0.313-0.813 0.313-0.813 1.188 0.063 1.125 0.125 2.313 0.188 3.438 0 0.188 0.188 0.375 0.313 0.375 0.625 0.063 1.25 0 1.813-0.063 0.375-0.063 0.5-0.438 0.375-0.75-0.188-0.438-0.563-0.688-1.125-0.688-0.063 0-0.125-0.063-0.125-0.125 0-0.188 0-0.375 0-0.563 0-0.5 0.188-0.875 0.625-1.063 0.625-0.313 1.188-0.563 1.813-0.875 0.75-0.313 1.5-0.75 2-1.375 0.188-0.188 0.5-0.188 0.563 0.125 0.125 0.375 0.188 0.813 0.125 1.188-0.125 0.438-0.438 0.875-0.625 1.313-0.125 0.188-0.188 0.313 0 0.5 0.875 0.688 1.75 1.375 2.563 2.125 0.25 0.25 0.5 0.375 0.875 0.375 0.438-0.063 0.813-0.063 1.188-0.063 0.438-0.063 0.563-0.375 0.375-0.75-0.063-0.125-0.125-0.25-0.25-0.375-0.188-0.313-0.5-0.438-0.813-0.25-0.25 0.188-0.375 0.125-0.563-0.063-0.375-0.5-0.813-1-1.188-1.563-0.063-0.063-0.063-0.125 0-0.125 1.313-0.813 1.75-2.063 1.75-3.625 0-0.063 0.063-0.063 0.125-0.063 1.063 0.563 2.063 0.438 3-0.25 0.063-0.063 0.063-0.063 0.063 0 0 0.75 0.313 1.438-0.063 2.125-0.063 0.125 0 0.375 0.063 0.563 0 0.25 0.063 0.5 0.063 0.75 0.063 0.063 0 0.125-0.063 0.125-0.063 0.063-0.125 0.063-0.188 0.063-0.938 0.125-1.438 1-1 1.875 0.125 0.375 0.313 0.438 0.688 0.25 0.563-0.375 1.188-0.625 1.75-1 0.188-0.188 0.313-0.5 0.375-0.813 0.188-0.438 0.313-0.875 0.438-1.313 0.125-0.25 0.313-0.563 0.438-0.875 0.063-0.063 0.125-0.063 0.125 0 0.688 1.25 1.375 2.438 2.063 3.563 0.125 0.188 0.25 0.313 0.375 0.5 0 0.063 0.063 0.063 0.125 0 0.125-0.125 0.188-0.25 0.375-0.438 0-0.063 0.063-0.063 0.125 0 0.375 0.438 0.813 0.875 1.188 1.375 0.25 0.25 0.375 0.375 0.75 0.375 0.563 0 1.063 0 1.625 0 0.313 0 0.438-0.188 0.313-0.5-0.125-0.5-0.5-0.938-0.938-1.188-0.125-0.063-0.313-0.125-0.375-0.063-0.375 0.188-0.563-0.063-0.75-0.25-0.438-0.5-0.875-0.938-1.25-1.438-0.188-0.188-0.25-0.438-0.313-0.688-0.375-0.875-0.75-1.688-1.125-2.563-0.25-0.625-0.5-1.25-0.688-1.813-0.063-0.063 0-0.188 0-0.188 0.313-0.313 0.625-0.625 0.938-0.875 0.063-0.063 0.313-0.125 0.438-0.063 1.375 0.25 2.688 0.813 3.875 1.563 0.313 0.188 0.5 0.563 0.688 0.875 0.188 0.375 0.375 0.75 0.5 1.125 0.188 0.313 0.438 0.5 0.75 0.438 0.063 0 0.125 0 0.188 0s0.125 0 0.188 0c0 0 0 0 0.063 0 0 0 0 0 0.063 0 0 0 0.063 0 0.063 0s0 0 0 0c0.75 0 1.188-0.313 1.313-1.063 0.063-0.75 0.313-1.375 1.063-1.688 0.313-0.188 0.438-0.563 0.5-0.938 0-0.313 0.188-0.5 0.5-0.625 0.938-0.5 1.063-0.625 0.938-1.688-0.063-0.438-0.125-0.813-0.25-1.188 0-0.063 0-0.125 0-0.188-0.125-0.313-0.188-0.563-0.313-0.875-0.125-0.5-0.25-0.5-0.75-0.25-0.438 0.188-0.875 0.5-1.313 0.688-0.375 0.25-0.563 0.188-0.75-0.25-0.125-0.313-0.188-0.688-0.313-1.063 0-0.063 0-0.063-0.063 0-0.125 0.188-0.188 0.438-0.313 0.625 0 0.063-0.063 0.063-0.063 0-0.125-0.25-0.188-0.438-0.313-0.75 0-0.063-0.063-0.063-0.063 0-0.063 0.25-0.063 0.375-0.125 0.5 0 0.063-0.063 0.125-0.125 0.188 0 0.063-0.125 0.063-0.125 0.063-0.125-0.063-0.188-0.125-0.25-0.188-0.063-0.188-0.063-0.375-0.063-0.5-0.063-0.125-0.063-0.25-0.063-0.5 0-0.063-0.063-0.063-0.063 0-0.125 0.188-0.188 0.375-0.313 0.5 0 0.063-0.063 0.063-0.125 0.063-0.813-0.438-0.875-1.313-1.25-2 0-0.063 0-0.063-0.063 0 0 0.188 0 0.375-0.063 0.5 0 0.125-0.063 0.188-0.125 0.25 0 0.063-0.063 0.063-0.125 0s-0.188-0.188-0.188-0.25c0.063-0.313 0.125-0.563 0.188-0.875 0-0.063-0.063-0.125-0.063-0.063-0.125 0.188-0.25 0.313-0.375 0.438-0.063 0.063-0.125 0.063-0.188 0-0.063-0.188-0.25-0.438-0.375-0.688 0-0.063-0.063-0.063-0.063-0.063-0.063 0-0.063 0.063-0.063 0.125s0 0.188 0 0.25c0.063 0.063 0 0.125-0.063 0.063-0.375-0.063-0.625-0.625-0.75-1.563 0 0-0.063-0.063-0.063 0-0.063 0.25-0.188 0.438-0.25 0.688 0 0.063-0.063 0.063-0.063 0-0.125-0.188-0.25-0.438-0.313-0.688-0.063-0.063-0.063-0.063-0.125 0 0 0.25-0.063 0.375-0.063 0.5-0.063 0.063-0.063 0.125-0.125 0.125 0 0-0.063 0-0.125-0.063-0.125-0.438-0.313-0.875-0.5-1.375 0-0.063-0.063-0.063-0.063 0-0.063 0.313-0.125 0.563-0.188 0.813 0 0.063-0.063 0.063-0.125 0-0.188-0.25-0.375-0.438-0.563-0.688-0.063 0-0.125-0.063-0.125 0 0 0 0 0.063 0 0.125s0.063 0.188 0.063 0.25c0 0.063 0 0.063-0.063 0.063-0.25-0.188-0.438-0.375-0.75-0.563-0.063 0-0.063 0-0.063 0.063 0.125 0.188 0.125 0.375 0.188 0.563 0.063 0.063 0 0.063-0.063 0.063-0.438-0.25-0.938-0.5-1.438-0.75-0.063-0.063-0.063 0-0.063 0.063 0.188 0.313 0.313 0.625 0.438 0.875 0.063 0.063 0.063 0.125 0 0.188 0 0-0.063 0-0.125-0.063-0.313-0.125-0.625-0.313-1-0.5 0-0.063-0.063 0-0.063 0.063 0.063 0.188 0.125 0.375 0.188 0.563 0 0.063 0 0.125-0.063 0.063-0.25 0-0.5-0.063-0.688-0.125-0.063 0-0.125 0-0.125 0-0.063 0.063 0 0.063 0.063 0.125 0.125 0.063 0.188 0.188 0.313 0.25 0.063 0.063 0.063 0.125 0 0.125-0.313 0-0.563 0-0.813 0-0.063 0-0.125 0.063-0.125 0.063 0 0.063 0 0.125 0.063 0.125 0.063 0.063 0.125 0.063 0.188 0.125 0.063 0 0.063 0 0 0-3.125 0.188-5.5 1.75-7.75 3.5-0.813 0.625-1.563 1.313-2.25 2.063-0.438 0.438-0.625 1.063-1 1.688-0.313 0.563-0.688 1-1.313 1.25-0.938 0.375-1.688 0.125-2.438-0.688-0.063-0.063-0.125-0.063-0.125 0-0.063 0.375 0 0.5 0.563 1.25 0 0 0 0.063-0.063 0.063-0.563 0-1-0.375-1.5-1.313-0.063-0.063-0.063-0.063-0.125 0-0.125 0.813 0.375 1.688 1.375 2.188z"></path>
</svg>
