<svg xmlns="http://www.w3.org/2000/svg" version="1.1" viewBox="-5.0 -10.0 110.0 135.0">
 <g>
  <path d="m56.73 71.758 0.007812-0.007812-0.070312-0.011719z"/>
  <path d="m30.508 70.957c0.53906-0.59375 1.043-1.293 1.4102-2.0117-0.042969-2.082-0.70703-6.168-1.5586-8.0625-0.66406-1.5664-2.1367-2.8125-3.625-3.5586 1.2734 3.75 2.707 7.332 0.8125 11.219-0.35938 0.73438-0.91016 1.5273-1.7227 1.7852-1.168 0.37109-1.7266-0.11328-2.7734 1.0938 0.34766 0.019531 0.69922 0.046875 1.0469 0.078125 0.88281-0.51562 2.2148-1.0625 3.1523-0.4375-0.10547 0.023438-0.054688 0.027344-0.14844-0.007812l0.035157 0.03125c-0.84766 0.125-1.7031 0.24609-2.4219 0.75391-0.21094 0.19141-0.43359 0.37891-0.63281 0.58203 2.7852-0.14062 4.2461 0.92969 6.4258-1.4609z"/>
  <path d="m78.441 75.16c-2.5625 0.95703-5.5273 1.5664-8.0508 0.18359-1.1602 0.88672-2.7383 0.80859-4.1172 1.1133-1.6094 0.25391-3.4688 0.53125-4.2812 2.1484 0.76172-0.82422 2.2695-2.0039 3.4141-1.332-1.1484 0.12109-2.3008 0.81641-2.9258 1.7969-0.16016 0.25781-0.32812 0.66406-0.15625 0.95313 0.082031 0.023437 0.074219 0.042968 0.13281-0.003907 0.15625-0.10938 0.26172-0.375 0.36328-0.53906 0.43359-0.71484 1.0859-1.1172 1.8516-1.4141 0.42188-0.10156 0.99219-0.29688 1.4062-0.10547l0.042969 0.070312c-0.13672 0.10156-0.34375 0.11719-0.51172 0.15234-1.0547 0.23047-2.1719 1.0391-2.4375 2.1289 0.39453 0 0.79297-0.019531 1.1797-0.09375 0.57422-0.87891 1.5508-1.4648 2.4961-1.8711-0.39453 0.94922-1.4062 1.4023-1.9375 2.2734 3.0234 0.085937 5.9336-1.0117 8.8555-1.6562 1.5703-0.43359 3.3086-0.6875 4.6055-1.7383 0.27344-0.24219 0.55078-0.57812 0.56641-0.96094 0-0.33594-0.16797-0.95312-0.5-1.1016z"/>
  <path d="m59.512 72.215c1.3203-0.070313 2.5-0.46094 3.7852-0.71484 0.84766-0.16797 1.7227-0.22656 2.5625-0.40625-0.21094-0.38281-0.4375-0.76562-0.62891-1.1602-1.707-0.44922-3.3086-1.2617-4.9844-1.8086-0.91797 0.76562-3.082 1.1289-3.5273 2.1289 0.16797-0.019531 1.2969-1.4062 2.5703-0.93359l-0.011718 0.054688c-1.1367 0.32812-2.2539 1.1094-2.6133 2.2891l0.074219 0.078126c0.22656-0.20313 0.33984-0.51172 0.53125-0.74609 0.55859-0.65625 1.7695-1.2891 2.6328-0.99609-0.097656 0.11719-0.33984 0.15625-0.48438 0.19531-0.82422 0.22656-1.6992 0.9375-2.0156 1.7461l-0.027344 0.14844c0.10938 0.09375 0.19922 0.10547 0.34375 0.097656 0.69922-0.042969 1.4727-0.46875 2.0156-0.89062 0.25781-0.16016 0.69531-0.6875 0.97656-0.64062 0.019531 0.60547-0.76563 1.207-1.207 1.5625z"/>
  <path d="m56.754 71.754-0.007812-0.011718-0.007813 0.007812z"/>
  <path d="m18.109 18.766c-0.074219-0.074219-0.16016-0.097656-0.25781-0.125-1.125 0.34375-2.0742 1.5977-2.6055 2.5898-0.50391 0.9375-0.57812 1.8789-0.60547 2.9219 1.6172-0.77344 3.3398-1.2656 5.1055-1.5742-0.82422-1.0195-0.88281-2.8242-1.6367-3.8125z"/>
  <path d="m6.6523 44.469c0.8125-0.17969 0.70312-0.98438 0.47266-1.5938-0.50391-0.92969-1.7734-1.0547-2.7227-1.0586-0.60156 0.22266-0.57812 1.2383-0.375 1.7266 0.29688 0.60547 1.2578 0.83203 1.8359 1.0742 0.26562-0.046876 0.53125-0.082032 0.79297-0.14844z"/>
  <path d="m4.8398 44.988c0.33594 1 0.85938 1.8594 1.8477 2.3281 0.046875 0.019532 0.058594 0.023438 0.097656 0.035156-0.50391-0.60547-0.87891-1.3164-1.1055-2.0703-0.28516-0.089844-0.5625-0.18359-0.83984-0.29688z"/>
  <path d="m87.422 69.125c3.7891-1.5781 6.0742-5.3203 7.4336-9.0352 1.3398-4.125 0.98828-9.8711 0.19141-14.082-1.457-8.7617-6.3984-16.613-13.75-21.621-5.2227-3.5469-14.086-6.7852-20.477-6.3281-5.3398 0.34375-10.609 2.918-15.012 5.8125-3.2695 2.207-7.4531 5.4375-11.176 2.2773-0.15625 1.7109-0.50781 3.043-1.8672 4.1758-0.25 0.20703-0.53125 0.40234-0.74219 0.64844-0.35938 0.41406-0.62109 1.207-1.1797 1.375-0.066406-0.058594-0.050781-0.023437-0.054688-0.11719-0.007812-0.60156 0.70703-1.4883 0.82813-2.1328-0.39844 0.17188-0.78125 0.29688-1.207 0.37891 0.37109-0.82031 0.65625-1.4609 0.75-2.3711-0.70703 0.51562-1.2773 1.0352-1.7734 1.7539-2.1602-2.4414-1.6953-6.3984 0.86328-8.375 0.39453-0.34375 1.0703-0.98047 1.5898-1.0625l0.066406 0.027344c-0.16016 0.33984-0.73438 0.69531-1.0117 0.96875-2.2031 2-3.082 4.9023-1.4336 7.5586 0.38281-0.44141 1.4023-1.543 2.043-1.3125 0.42969 0.59375-0.066406 1.4883-0.28125 2.0938 0.41016-0.17578 0.99609-0.29297 0.95703 0.34766l-0.058594 0.035156 0.0625 0.054687-0.007813 0.039063c1.3281-1.4727 1.7812-2.9922 1.6719-4.9648-0.11328-0.94922-0.48438-5.2266-1.8125-5.1523-1.0625 0.074218-3.5664 2.4453-4.2383 3.2812-0.35156 0.44141-0.70703 0.97266-0.88672 1.5117-0.10547 0.31641-0.15625 0.69141-0.17188 1.0273-0.015625 0.375 0.125 1.2422-0.10156 1.5312-0.12109-0.03125-0.14844-0.078125-0.20703-0.18359-0.67969-1.3008-0.17188-2.8477 0.60547-3.9844-6.3789-1.2578-13.578 0.92578-17.543 6.2148-0.96875 1.1875-1.082 2.6914-1.5977 4.0742-1.2812 2.4648-2.9414 4.7383-3.5625 7.4961 1.5-0.15625 3.6445 0.41797 3.6875 2.2383 0.023438 0.47266-0.015625 1.125-0.35938 1.4766-0.29688 0.30469-0.79688 0.40234-1.1953 0.50781 0.83984 3.0078 4.6836 2.9102 7.0547 1.9258 0.3125-0.11719 1.0391-0.48047 1.3477-0.41016 0.035156 0.097656 0.042968 0.058593 0.003906 0.14453-1.3281 1.6953-3.9453 1.8438-5.9062 1.3906 0.9375 1.1133 2.8555 1.4219 4.2344 1.5 2.5547-0.11328 5.625-1.418 7.7227 0.69531 1.1836 1.3984 2.1758 2.9727 3.5898 4.1719 1.4219 1.3047 3.2031 2.1172 4.6875 3.3359 0.76562 0.66406 1.3359 1.4219 1.7773 2.3359 1.0508 2.1836 1.8477 7.1914 1.8047 9.6016-0.085938 1.6836-0.90625 5.8516-3.1133 5.8438-1.0898-0.16406-2.0703-0.32031-2.9883 0.47266l-0.078126 0.11719c0.125 0.12109 0.38672 0.14453 0.55859 0.18359 1.25-0.625 1.9023-0.34375 3.2383-0.5l0.023437 0.058593c-0.33594 0.37891-1.7734 0.41797-2.3281 0.70703-0.46875 0.24219-0.85547 0.65625-1.1953 1.0508 0.65625 0.070312 1.2617 0.19141 1.8906 0.38281 0.53125-0.96875 1.7578-1.6484 2.832-1.1641-1.0625 0.25-2.0195 0.71875-2.4258 1.8164 0.84375-0.30469 1.4414-0.28516 2.3086-0.36328 0.97656-0.085938 1.9609-0.53516 2.7539-1.0977 3.4805-2.7852 4.7812-7.7109 8.0898-10.703 2.7188-2.5352 4.9375-4.5781 3.5391-8.5859-0.52734-1.6445-1.0469-2.6055-0.35547-4.3477-0.035156 1.75 0.30078 2.6367 0.83984 4.2617 1.0977 3.2891 0.29688 5.0156-1.9492 7.4531 2.6992-0.47266 5.3945-1.3047 8.168-0.80859 4.3516 0.80078 8.3203 2.9414 12.512 4.2734-0.875-2.625-2.0703-5.3633-1.6562-8.2031 0.90234 5.0234 2.0938 10.41 6.5742 13.508 1.5156 1.0469 3.1211 1.5117 4.9492 1.1758 2.3125-0.42578 5.5391-1.2969 7.2969-2.8984 0.84375-0.76953 1.5273-1.6797 2.5078-2.2969 0.82031-0.51563 1.7656-0.84766 2.6562-1.2227zm-67.164-38.75c1.0508-0.10547 1.8281 0.29688 2.5625 1.0039-1.2969-0.57812-2.7383-0.72266-3.9883 0.039063-0.63281 0.37891-1.1445 0.96875-1.6484 1.4961 0.44141-1.3359 1.6758-2.3516 3.0703-2.5391zm-0.53906 6.5859c-0.88281-0.19141-1.6055-0.92578-2.3828-0.58594 0.45312-1.4219 1.0078-3.0742 2.5977-3.5391 0.10938-0.011719 0.21875-0.023438 0.32422-0.019532 3.1523 0.25391 2.3984 4.4102-0.54297 4.1445zm1.6602 11.285c-3.2773-2.1406-7.0898-3.2617-10.953-3.6641l0.007813-0.058593 0.20312-0.050782c3.6055-0.03125 7.5469 1.1953 10.41 3.4023 0.13281 0.10547 0.33984 0.23047 0.40625 0.39062zm-6.8711-4.3438c-1.1758-0.15234-3.0352 0.16797-4.1055 0.011718l-0.027344-0.0625c0.54297-0.26172 2.1016-0.28906 2.7812-0.33594 3.5273-0.14062 8.3203 0.98828 10.945 3.4141-2.9609-1.6328-6.1836-2.8633-9.5938-3.0273zm-3.1484-0.94531c-0.33984 0.058594-1 0.41406-1.293 0.22266 0.88672-0.71094 3.6055-1.0742 4.8008-1.1719 3.6172-0.22656 7.6758 0.46484 10.562 2.7852-4.2852-2.2617-9.3398-3.1484-14.066-1.8359zm16.035 4.8945c-0.1875 0.039063-0.37891 0.054688-0.56641 0.082032 0.66016-0.52344 1.4336-0.875 2.1328-1.3398 4.1445-2.6797 6.6484-7.9844 3.5977-12.422 4.5352 4.4922 0.007812 11.992-5.1602 13.684zm34.559 9.0938c-0.019531 0.003907-0.039063-0.011718-0.058594-0.019531 0.035157-3.9844 1.0156-8.0195 3.2812-11.34 2.1055-3.0391 5.4414-5.5664 9.1172-6.2305l0.058593 0.007812c-8.3711 3.2031-11.297 9.0234-12.398 17.582z"/>
  <path d="m20.555 35.234c0.20703-0.070313 0.37891-0.14453 0.48047-0.35156 0.23047-0.45312-0.25391-0.87891-0.69922-0.80469-0.76172 0.30859-0.67188 1.2383 0.21875 1.1562z"/>
  <path d="m95.801 58.672c-1.0625 4.2305-3.9609 9.2109-8.1328 10.945-0.94922 0.39844-3.1797 1.0938-3.6406 2.0234 0.066406 0.066406 0.027344 0.046875 0.12891 0.050781 3.4883-0.55469 8.0078-1.7461 10.195-4.7305 1.6055-2.2383 2.0625-5.625 1.4492-8.2852z"/>
 </g>
<text x="0.0" y="117.5" font-size="5.0" font-weight="bold" font-family="Arbeit Regular, Helvetica, Arial-Unicode, Arial, Sans-serif" fill="#000000">Created by Fauzi Arts</text><text x="0.0" y="122.5" font-size="5.0" font-weight="bold" font-family="Arbeit Regular, Helvetica, Arial-Unicode, Arial, Sans-serif" fill="#000000">from Noun Project</text></svg>