<!-- Generated by IcoMoon.io -->
<svg version="1.1" xmlns="http://www.w3.org/2000/svg" width="32" height="32" viewBox="0 0 32 32">
<title>Id</title>
<path d="M26.125 4.188h-6.313v-3.375c0-0.438-0.375-0.813-0.875-0.813h-5.938c-0.5 0-0.813 0.438-0.813 0.813v3.375h-6.313c-0.813 0-1.438 0.688-1.438 1.438v24.938c0 0.813 0.625 1.438 1.438 1.438h20.25c0.813 0 1.438-0.625 1.438-1.438v-24.938c0.063-0.75-0.625-1.438-1.438-1.438zM10.375 6.625c0-0.5 0.375-0.813 0.875-0.813h1v0.688c0 0.5 0.313 0.813 0.813 0.813h5.938c0.5 0 0.938-0.313 0.938-0.813v-0.75h0.938c0.5 0 0.938 0.313 0.938 0.813v1.313c0 0.5-0.438 0.813-0.938 0.813h-9.688c-0.5 0-0.875-0.375-0.875-0.813zM24.188 29.563h-16.25c-0.563 0-1.063-0.5-1.063-1.063s0.5-1 1.063-1h16.25c0.563 0 1 0.438 1 1 0 0.625-0.438 1.063-1 1.063zM25.25 22.063c0 0.813-0.688 1.5-1.438 1.5h-3.188v-2.313c0-1.75-1.5-3.125-3.25-3.125h-2.75c-1.75 0-3.125 1.375-3.125 3.125v2.313h-3.313c-0.813 0-1.438-0.688-1.438-1.5v-9.438c0-0.813 0.625-1.438 1.438-1.438h15.563c0.813 0 1.438 0.688 1.438 1.438zM18.813 14.813c0 1.5-1.25 2.75-2.813 2.75s-2.813-1.25-2.813-2.75c0-1.563 1.25-2.813 2.813-2.813s2.813 1.25 2.813 2.813z"></path>
</svg>
