<?xml version="1.0" standalone="no"?>
<!DOCTYPE svg PUBLIC "-//W3C//DTD SVG 20010904//EN"
 "http://www.w3.org/TR/2001/REC-SVG-20010904/DTD/svg10.dtd">
<svg version="1.0" xmlns="http://www.w3.org/2000/svg"
 width="422.000000pt" height="380.000000pt" viewBox="0 0 422.000000 380.000000"
 preserveAspectRatio="xMidYMid meet">

<g transform="translate(0.000000,380.000000) scale(0.100000,-0.100000)"
fill="#000000" stroke="none">
<path d="M2394 3068 c3 -134 9 -300 13 -370 4 -84 2 -128 -4 -128 -6 0 -65
111 -132 246 -67 135 -125 244 -127 241 -3 -3 -1 -36 6 -74 6 -37 15 -93 20
-123 5 -30 14 -82 20 -115 19 -106 30 -188 26 -192 -4 -4 -167 135 -186 157
-10 12 -140 120 -145 120 -9 0 26 -77 110 -246 46 -92 82 -171 79 -176 -3 -4
-17 -2 -32 6 -98 50 -323 156 -331 156 -12 0 -4 -26 19 -60 10 -14 27 -41 38
-60 11 -19 47 -80 81 -135 33 -55 61 -107 61 -115 0 -8 -48 -51 -107 -95 -59
-44 -108 -85 -110 -91 -2 -6 6 -14 19 -17 13 -2 61 -19 108 -36 47 -18 119
-44 160 -58 82 -28 165 -67 175 -83 4 -7 -52 -10 -169 -10 -96 0 -181 -3 -190
-6 -9 -3 -16 -15 -16 -25 0 -19 24 -19 910 -19 886 0 910 0 910 19 0 10 -7 22
-16 25 -9 3 -113 6 -232 7 -229 0 -239 4 -112 40 25 7 48 15 52 18 4 4 -4 29
-18 56 l-26 51 32 54 c18 30 41 69 50 85 10 17 34 58 54 92 20 34 36 66 36 72
0 6 -36 8 -105 4 -76 -4 -105 -3 -105 6 0 11 33 62 303 474 87 130 157 242
157 247 0 6 5 10 10 10 6 0 10 5 10 10 0 20 -21 9 -172 -92 -253 -168 -460
-299 -466 -294 -2 3 10 60 27 127 17 67 29 124 26 127 -3 3 -14 -5 -25 -19
-57 -71 -183 -236 -190 -249 -18 -31 -23 3 -12 80 7 44 17 117 23 163 6 45 15
106 20 136 18 104 8 143 -20 79 -13 -30 -107 -228 -168 -355 -14 -29 -28 -53
-32 -53 -4 0 -13 48 -19 108 -7 59 -17 141 -22 182 -6 41 -10 92 -10 113 0 83
-25 28 -81 -178 -26 -98 -39 -135 -48 -135 -4 0 -14 39 -24 88 -9 48 -26 130
-37 182 -25 117 -38 183 -46 233 -4 20 -11 37 -17 37 -7 0 -8 -80 -3 -242z
m290 -600 c32 -62 63 -118 69 -125 9 -9 25 -7 67 8 76 27 73 28 74 -6 1 -36 3
-36 109 7 43 17 81 28 84 24 5 -5 -66 -89 -174 -206 -18 -19 -33 -40 -33 -47
0 -10 33 -55 68 -92 22 -23 45 -61 40 -67 -3 -2 -26 1 -51 8 -26 6 -49 9 -53
6 -3 -4 5 -31 20 -59 42 -85 35 -95 -36 -55 -90 49 -123 66 -134 66 -6 0 -27
-18 -48 -40 -34 -37 -56 -50 -56 -32 0 4 -10 20 -23 36 l-23 28 -52 -27 c-29
-15 -55 -25 -59 -22 -3 3 0 29 7 57 15 64 10 78 -37 85 -218 35 -215 34 -208
45 4 6 25 19 48 29 23 10 63 28 89 40 26 11 49 25 52 29 3 5 -12 26 -34 47
-42 41 -43 55 -4 55 14 0 45 5 70 11 l45 12 -2 63 c-1 35 0 67 4 70 3 3 19 -3
35 -15 17 -12 34 -21 40 -21 10 0 32 117 32 169 0 17 4 31 8 31 5 0 34 -51 66
-112z"/>
<path d="M3150 3201 c-13 -26 4 -64 27 -59 25 5 40 35 27 56 -16 25 -41 26
-54 3z"/>
<path d="M1763 3043 c-18 -7 -16 -58 2 -73 12 -10 18 -10 30 0 20 17 19 66 -1
74 -9 3 -16 6 -17 5 -1 0 -8 -3 -14 -6z"/>
<path d="M1070 2955 c0 -20 6 -25 38 -31 49 -8 113 -46 146 -85 15 -17 34 -58
44 -90 14 -49 20 -59 37 -57 46 7 5 137 -64 206 -39 40 -128 82 -171 82 -25 0
-30 -4 -30 -25z"/>
<path d="M1040 2835 c-17 -20 -5 -33 43 -47 55 -17 119 -81 132 -133 8 -30 16
-41 33 -43 18 -3 22 1 22 26 0 65 -47 138 -113 176 -55 31 -102 39 -117 21z"/>
<path d="M990 2706 c0 -18 7 -25 29 -29 40 -8 83 -48 96 -88 8 -23 19 -35 33
-37 44 -7 22 77 -35 136 -17 17 -77 42 -103 42 -14 0 -20 -7 -20 -24z"/>
<path d="M967 2473 c-4 -3 -7 -53 -7 -110 l0 -103 -275 0 c-260 0 -278 -1
-321 -21 -52 -25 -86 -66 -102 -125 -9 -30 -12 -269 -12 -871 0 -920 -1 -903
63 -964 59 -56 79 -59 448 -59 367 0 395 4 452 58 59 56 57 16 57 968 0 862 0
874 -21 910 -25 45 -38 58 -80 82 l-34 19 -3 111 -3 112 -78 0 c-43 0 -81 -3
-84 -7z m101 -131 c3 -57 1 -62 -18 -62 -18 0 -20 6 -20 58 0 32 3 62 7 66 17
17 28 -5 31 -62z m41 -141 c28 -6 55 -20 75 -40 l31 -31 3 -858 c2 -471 0
-872 -3 -890 -3 -18 -21 -48 -41 -67 l-35 -35 -374 0 -375 0 -40 40 -40 40 0
876 c0 643 3 881 12 897 18 35 59 66 92 70 62 8 652 6 695 -2z"/>
<path d="M534 2075 c-23 -14 -52 -42 -65 -62 -22 -35 -24 -50 -27 -214 -4
-208 4 -248 57 -299 54 -51 95 -60 278 -60 169 0 206 7 261 47 63 47 72 80 72
281 0 222 -11 257 -100 311 -33 19 -48 21 -235 21 -195 0 -201 -1 -241 -25z"/>
<path d="M463 1300 c-39 -23 -53 -48 -53 -92 0 -59 63 -105 124 -92 91 19 113
130 36 182 -40 27 -65 28 -107 2z m93 -65 c16 -25 16 -27 -6 -50 -29 -30 -44
-31 -71 -4 -14 14 -18 27 -13 42 14 44 64 51 90 12z"/>
<path d="M712 1300 c-58 -36 -68 -101 -23 -152 26 -29 35 -33 77 -32 40 1 52
6 76 33 46 52 32 123 -33 157 -37 19 -58 18 -97 -6z m86 -52 c21 -21 14 -63
-13 -78 -20 -11 -28 -10 -50 4 -28 18 -31 36 -13 66 14 22 57 27 76 8z"/>
<path d="M963 1300 c-39 -23 -53 -48 -53 -93 0 -41 36 -82 81 -92 113 -25 176
125 77 185 -41 25 -65 25 -105 0z m89 -57 c24 -22 23 -35 -6 -62 -27 -26 -59
-22 -76 9 -27 51 38 93 82 53z"/>
<path d="M466 1035 c-41 -22 -55 -44 -56 -85 0 -43 20 -75 62 -96 27 -14 37
-14 69 -4 54 18 72 42 73 95 1 35 -4 50 -25 70 -32 32 -84 41 -123 20z m84
-55 c11 -11 20 -23 20 -28 0 -20 -34 -52 -55 -52 -21 0 -55 32 -55 52 0 14 39
48 55 48 8 0 24 -9 35 -20z"/>
<path d="M713 1034 c-80 -40 -62 -161 28 -189 30 -10 87 14 109 45 61 86 -40
194 -137 144z m80 -48 c20 -15 23 -56 5 -74 -27 -27 -88 0 -88 39 0 18 35 49
55 49 5 0 18 -7 28 -14z"/>
<path d="M966 1035 c-40 -21 -55 -44 -56 -83 0 -71 69 -124 133 -103 51 17 72
45 72 97 0 33 -6 49 -26 69 -32 32 -84 41 -123 20z m84 -55 c11 -11 20 -25 20
-32 0 -20 -32 -48 -56 -48 -21 0 -54 32 -54 52 0 14 39 48 55 48 8 0 24 -9 35
-20z"/>
<path d="M439 751 c-82 -83 16 -209 125 -160 33 15 59 71 51 109 -17 80 -118
109 -176 51z m111 -41 c24 -24 24 -29 5 -54 -31 -40 -104 -9 -89 38 13 41 52
48 84 16z"/>
<path d="M695 756 c-26 -21 -30 -31 -30 -74 0 -44 4 -54 30 -76 45 -39 97 -36
141 8 36 36 43 70 23 109 -31 60 -110 76 -164 33z m99 -39 c24 -18 18 -67 -10
-78 -52 -19 -97 44 -52 75 27 19 39 20 62 3z"/>
<path d="M939 749 c-80 -85 17 -207 125 -158 34 16 59 71 50 112 -17 78 -119
105 -175 46z m111 -39 c24 -24 24 -29 5 -54 -31 -40 -104 -9 -89 38 13 41 52
48 84 16z"/>
<path d="M498 521 c-20 -4 -48 -15 -63 -25 -22 -14 -26 -24 -23 -53 3 -32 9
-39 48 -59 150 -77 366 43 223 123 -28 16 -137 24 -185 14z m157 -53 c29 -13
31 -21 8 -39 -10 -9 -42 -14 -93 -14 -72 0 -110 12 -110 35 0 27 145 41 195
18z"/>
<path d="M864 505 c-66 -29 -73 -84 -15 -122 29 -20 47 -23 121 -23 74 0 92 3
121 23 37 25 50 67 28 93 -35 42 -186 59 -255 29z m175 -39 c19 -7 37 -18 39
-24 5 -17 -59 -42 -108 -42 -49 0 -113 25 -108 42 6 16 65 36 108 36 19 0 50
-5 69 -12z"/>
<path d="M3484 2374 c-9 -34 18 -64 44 -48 22 14 27 41 12 59 -20 24 -49 18
-56 -11z"/>
<path d="M2721 1469 c-7 -12 -21 -36 -30 -53 -10 -17 -46 -77 -80 -134 -33
-56 -61 -107 -61 -112 0 -6 22 -10 49 -10 39 0 51 -4 55 -17 2 -10 1 -92 -2
-183 l-7 -165 -598 -3 -598 -2 3 -78 3 -77 675 0 675 0 5 250 c3 138 9 256 13
263 5 7 29 12 58 12 27 0 49 2 49 4 0 3 -15 31 -34 63 -18 32 -45 78 -58 103
-71 127 -91 160 -98 160 -3 0 -11 -10 -19 -21z"/>
</g>
</svg>
