<!-- Generated by IcoMoon.io -->
<svg version="1.1" xmlns="http://www.w3.org/2000/svg" width="32" height="32" viewBox="0 0 32 32">
<title>Impala</title>
<path d="M28.563 0c0.063-0.063 0.688 1.438 0.813 2.125 0.125 0.625 0.625 2.375 0.625 2.5s-0.125 0.375-0.438 0.5c-0.25 0.188-1.313 0.625-1.625 0.875-0.25 0.188-0.875 0.75-1.125 1.188-0.25 0.375-0.5 0.875-0.5 0.875s0.125 0.063 0.25 0.063c0.125 0 0.563-0.188 0.75-0.313 0.25-0.063 0.75-0.25 1.063-0.313s0.5-0.063 0.688-0.125c0.125-0.063 0.5-0.063 0.563-0.063 0 0 0.063 0-0.063 0.25s-0.25 0.438-0.438 0.563c-0.25 0.125-0.375 0.5-0.5 0.625-0.125 0.063-0.188 0.25-0.688 0.25-0.563 0.063-0.875 0.063-1 0.188-0.125 0.063-0.625 0.438-0.625 0.438-0.063 0.063-0.063 0.25 0 0.438 0 0.188 0.063 0.375 0 0.5 0 0.188 0 0.375 0 0.375 0.063 0.125 0.063 0.25 0.063 0.313-0.063 0.125-0.125 0.688-0.188 0.813s-0.063 0.375 0 0.563c0.063 0.125 0.125 0.188 0.063 0.375-0.063 0.125-0.125 0.313-0.125 0.438s-0.125 0.813-0.188 1.063c-0.063 0.188-0.313 0.813-0.438 1.063-0.063 0.188-0.313 0.563-0.5 0.813-0.188 0.188-1.313 1.375-1.688 1.688-0.375 0.375-0.75 0.75-0.938 0.813-0.188 0.125-0.188 0.188-0.25 0.313s-0.125 0.563-0.625 1c-0.563 0.438-1.188 0.875-1.188 0.875s-0.063 1.063-0.063 1.563c0.063 0.5 0.063 1.375 0.063 1.625 0.063 0.25 0.125 0.625 0.125 0.875-0.063 0.25-0.125 0.875-0.125 1.063-0.063 0.125-0.063 0.313 0 0.625 0.125 0.313 0.25 1.938 0.25 2.125 0 0.125 0.125 0.563 0.125 0.688 0.125 0.188 0.25 0.5 0.25 0.625 0.063 0.188 0.063 0.313 0.125 0.313 0.063 0.125 0.313 0.438 0.438 0.5 0.063 0.063 0.25 0.375 0.25 0.438s0.188 0.438 0.188 0.438h-1.813c0 0 0-0.5 0.063-0.625 0-0.125-0.063-0.375-0.188-0.438-0.188-0.063-0.563-0.188-0.563-0.563 0.063-0.438 0-2.625 0-2.938s-0.063-1.188-0.25-1.563c-0.125-0.313-0.125-0.5-0.125-0.625s-0.188-1.188-0.25-1.375c-0.125-0.188-0.438-1.25-0.438-1.625 0-0.313-0.188-1.125-0.25-1.125 0-0.063-0.563-0.125-1-0.063-0.375 0.063-1.438 0.188-2.063 0.438s-1.188 0.5-1.938 0.438c-0.75-0.125-2.313-0.313-2.5-0.438-0.125-0.063-0.813-0.5-0.938-0.688-0.188-0.125-0.25-0.188-0.25-0.188s-0.438 0.625-0.563 0.75c-0.125 0.188-0.875 1.25-1.063 1.375-0.188 0.188-0.625 0.5-0.813 0.688-0.188 0.125-0.625 0.75-1 1.063-0.438 0.25-1.125 0.938-1.25 1.063-0.188 0.063-0.5 0.563-0.688 0.813-0.125 0.188-0.313 0.563-0.375 0.875-0.125 0.375-0.25 1-0.25 1.188 0 0.25-0.063 0.875-0.063 0.938s0 1.188 0 1.25c0 0.063 0.063 0.625 0.125 0.875 0.125 0.25 0.313 0.5 0.313 0.5h-1.75c0 0 0-0.375 0.063-0.438 0.063-0.125 0.188-0.438 0.188-0.5 0-0.125-0.188-0.063-0.25-0.25 0-0.188 0.125-0.188 0.125-0.438 0.063-0.313 0.25-2.5 0.25-2.875 0.063-0.313 0.063-1.188 0-1.375 0-0.125-0.063-0.875-0.063-1 0.063-0.125 0.125-0.313 0.313-0.375 0.188-0.125 0.563-0.5 0.688-0.625 0.063-0.188 0.813-1.375 0.875-1.563 0.063-0.25 0.063-0.938 0.063-1.125s-0.063-0.625-0.125-0.625c0-0.063-0.625-1.313-0.75-1.5-0.063-0.25-0.563-1.625-0.313-2.313s0.438-1.313 0.688-1.5c0.25-0.125 3-1.125 3.375-1.25s1.063-0.125 1.5-0.188c0.438-0.063 2.813-0.188 3-0.25 0.125-0.063 1.75-0.188 2.125-0.188s1.313-0.063 1.438-0.063c0.125 0 0.813-0.25 1.063-0.25 0.188-0.063 0.375-0.125 0.563-0.188 0.125-0.063 0.313-0.063 0.438-0.063 0.063 0 0.25-0.125 0.375-0.125 0.188 0 0.563 0 0.688 0 0.125-0.063 0.438-0.063 0.688 0 0.25 0 0.75 0.063 1.313 0.125 0.563 0 0.813 0 1-0.063 0.125-0.063 0.375-0.188 0.5-0.25 0.188-0.063 0.438-0.063 0.563-0.125 0.063 0 0.313-0.25 0.375-0.313s0.188-0.5 0.25-0.625c0.063-0.125 0.25-0.688 0.25-0.75 0.063-0.125 0.063-0.313 0.063-0.375-0.063-0.125 0-0.813 0-0.813s-0.375-0.25-0.438-0.375c-0.063-0.063-0.25-0.125-0.25-0.125s-0.313 0.063-0.625 0.063c-0.25 0-0.5-0.063-0.625-0.25s-0.313-0.5-0.438-0.625c-0.063-0.063-0.438-0.375-0.438-0.688 0-0.25 0.125-0.25 0.438-0.25 0.375 0 1.125 0.125 1.313 0.125 0.125 0.063 0.5 0.313 0.563 0.375 0.125 0.063 0.5 0.313 0.5 0.313l0.25-0.188c0 0-0.125-0.563-0.375-0.875-0.313-0.313-1.063-1.375-1.75-1.688-0.75-0.375-1.188-0.625-1.188-0.813 0-0.125 0-0.125 0.313-0.563 0.313-0.5 0.75-1.938 0.875-2.125 0.125-0.25 0.813-1.625 0.875-1.75 0.125-0.125 0.125-0.188 0.188-0.188 0.063 0.063-0.313 0.813-0.375 0.938 0 0.125-0.5 1.5-0.563 1.875-0.125 0.438-0.25 1.063-0.25 1.25-0.125 0.188-0.125 0.313-0.125 0.313s0.25 0.125 0.625 0.313c0.375 0.188 1 0.75 1.438 1.25s1.125 1.625 1.188 1.75c0 0 0.25 0 0.313 0 0.125 0 0.5 0.063 0.5 0.063s0.438-0.75 0.625-1.063c0.188-0.25 0.938-1.063 1.125-1.188 0.125-0.125 0.438-0.438 1-0.688 0.625-0.25 1.063-0.375 1.063-0.438 0 0 0-1.125 0-1.438s-0.125-1.25-0.25-1.625c-0.063-0.375-0.438-1.313-0.313-1.375z"></path>
</svg>
