<!-- Generated by IcoMoon.io -->
<svg version="1.1" xmlns="http://www.w3.org/2000/svg" width="32" height="32" viewBox="0 0 32 32">
<title>Injured-person</title>
<path d="M15.522 2.93c-0.893 0.145-2.494 1.184-2.597 1.683-0.125 0.686 4.447 2.784 6.587 3.013l1.268 0.125v-0.665c0-2.514-2.639-4.613-5.257-4.156z"></path>
<path d="M11.283 7.855c-0.353 0.249-0.686 1.018-0.686 1.642 0 0.665 0.519 1.517 0.914 1.517 0.166 0 0.332 0.332 0.395 0.831 0.104 0.852 1.496 3.408 2.182 4.010 0.478 0.436 1.787 0.977 2.369 0.977 1.039 0 2.182-0.81 3.138-2.265 0.873-1.33 1.579-3.013 1.351-3.242-0.042-0.062-0.81-0.208-1.704-0.332-2.93-0.395-5.299-1.288-6.899-2.577-0.457-0.395-0.935-0.623-1.060-0.561z"></path>
<path d="M10.909 17.932c-2.41 1.475-3.616 2.618-4.343 4.156-0.603 1.247-1.434 4.8-1.268 5.361 0.187 0.54 2.016 1.351 3.927 1.745 6.545 1.309 16.748 0.416 18.078-1.6 0.291-0.436 0.27-0.665-0.187-2.597-0.603-2.535-1.081-3.532-2.327-4.862-0.769-0.831-4.842-3.512-5.319-3.512-0.083 0-0.145 0.187-0.145 0.436 0 0.748-0.395 1.184-1.683 1.912l-1.288 0.727-1.060-0.644c-1.538-0.914-1.787-1.184-1.787-1.849 0-0.332-0.104-0.582-0.249-0.561-0.145 0-1.205 0.582-2.348 1.288z"></path>
</svg>
