<?xml version="1.0" encoding="UTF-8"?>
<svg width="700pt" height="700pt" version="1.1" viewBox="0 0 700 700" xmlns="http://www.w3.org/2000/svg" xmlns:xlink="http://www.w3.org/1999/xlink">
 <defs>
  <symbol id="f" overflow="visible">
   <path d="m38.922-2.3281c-2.0117 1.043-4.1055 1.8281-6.2812 2.3594-2.168 0.53125-4.4336 0.79688-6.7969 0.79688-7.0547 0-12.641-1.9688-16.766-5.9062-4.125-3.9453-6.1875-9.2969-6.1875-16.047 0-6.7695 2.0625-12.125 6.1875-16.062 4.125-3.9453 9.7109-5.9219 16.766-5.9219 2.3633 0 4.6289 0.26562 6.7969 0.79688 2.1758 0.52344 4.2695 1.3047 6.2812 2.3438v8.7656c-2.0234-1.375-4.0156-2.3828-5.9844-3.0312-1.9688-0.64453-4.043-0.96875-6.2188-0.96875-3.8984 0-6.9609 1.25-9.1875 3.75-2.2305 2.4922-3.3438 5.9336-3.3438 10.328 0 4.3672 1.1133 7.7969 3.3438 10.297 2.2266 2.4922 5.2891 3.7344 9.1875 3.7344 2.1758 0 4.25-0.31641 6.2188-0.95312 1.9688-0.64453 3.9609-1.6602 5.9844-3.0469z"/>
  </symbol>
  <symbol id="e" overflow="visible">
   <path d="m15.969-40.797v9.0312h10.469v7.25h-10.469v13.484c0 1.4688 0.28906 2.4648 0.875 2.9844 0.59375 0.52344 1.7578 0.78125 3.5 0.78125h5.2188v7.2656h-8.7188c-4.0117 0-6.8555-0.83203-8.5312-2.5-1.668-1.6758-2.5-4.5195-2.5-8.5312v-13.484h-5.0469v-7.25h5.0469v-9.0312z"/>
  </symbol>
  <symbol id="d" overflow="visible">
   <path d="m26.5-27.125v-17.016h10.203v44.141h-10.203v-4.5938c-1.4062 1.875-2.9531 3.25-4.6406 4.125-1.6797 0.86328-3.6211 1.2969-5.8281 1.2969-3.918 0-7.1367-1.5547-9.6562-4.6719-2.5117-3.1133-3.7656-7.1172-3.7656-12.016 0-4.8945 1.2539-8.8945 3.7656-12 2.5195-3.1133 5.7383-4.6719 9.6562-4.6719 2.1875 0 4.125 0.44531 5.8125 1.3281 1.6953 0.875 3.25 2.2344 4.6562 4.0781zm-6.7031 20.578c2.1758 0 3.8359-0.78906 4.9844-2.375 1.1445-1.5938 1.7188-3.9062 1.7188-6.9375 0-3.0195-0.57422-5.3203-1.7188-6.9062-1.1484-1.5938-2.8086-2.3906-4.9844-2.3906-2.1562 0-3.8086 0.79688-4.9531 2.3906-1.1367 1.5859-1.7031 3.8867-1.7031 6.9062 0 3.0312 0.56641 5.3438 1.7031 6.9375 1.1445 1.5859 2.7969 2.375 4.9531 2.375z"/>
  </symbol>
  <symbol id="c" overflow="visible">
   <path d="m21.781-6.5469c2.1758 0 3.8359-0.78906 4.9844-2.375 1.1445-1.5938 1.7188-3.9062 1.7188-6.9375 0-3.0195-0.57422-5.3203-1.7188-6.9062-1.1484-1.5938-2.8086-2.3906-4.9844-2.3906-2.1797 0-3.8516 0.80469-5.0156 2.4062-1.1562 1.5938-1.7344 3.8906-1.7344 6.8906 0 3.0117 0.57812 5.3203 1.7344 6.9219 1.1641 1.5938 2.8359 2.3906 5.0156 2.3906zm-6.75-20.578c1.4062-1.8438 2.957-3.2031 4.6562-4.0781 1.6953-0.88281 3.6562-1.3281 5.875-1.3281 3.9062 0 7.1133 1.5586 9.625 4.6719 2.5195 3.1055 3.7812 7.1055 3.7812 12 0 4.8984-1.2617 8.9023-3.7812 12.016-2.5117 3.1172-5.7188 4.6719-9.625 4.6719-2.2188 0-4.1797-0.4375-5.875-1.3125-1.6992-0.88281-3.25-2.2539-4.6562-4.1094v4.5938h-10.156v-44.141h10.156z"/>
  </symbol>
  <symbol id="b" overflow="visible">
   <path d="m43.406-3.1562c-2.7305 1.3359-5.5625 2.3359-8.5 3-2.9297 0.65625-5.9492 0.98438-9.0625 0.98438-7.0547 0-12.641-1.9688-16.766-5.9062-4.125-3.9453-6.1875-9.2969-6.1875-16.047 0-6.832 2.0977-12.203 6.2969-16.109 4.1953-3.9141 9.9453-5.875 17.25-5.875 2.8125 0 5.5078 0.26562 8.0938 0.79688 2.582 0.52344 5.0195 1.3047 7.3125 2.3438v8.7656c-2.3672-1.3438-4.7188-2.3438-7.0625-3-2.3359-0.66406-4.6719-1-7.0156-1-4.3438 0-7.6953 1.2188-10.047 3.6562-2.3555 2.4297-3.5312 5.9023-3.5312 10.422 0 4.4805 1.1289 7.9375 3.3906 10.375 2.2695 2.4375 5.5 3.6562 9.6875 3.6562 1.1328 0 2.1875-0.066406 3.1562-0.20312 0.97656-0.14453 1.8516-0.36719 2.625-0.67188v-8.2344h-6.6719v-7.3125h17.031z"/>
  </symbol>
  <symbol id="a" overflow="visible">
   <path d="m5.3281-42.344h10.922v15.453l15.75-15.453h12.672l-20.391 20.047 22.5 22.297h-13.672l-16.859-16.672v16.672h-10.922z"/>
  </symbol>
 </defs>
 <g>
  <path d="m416.61 329.71 24.992-53.992 114.84 35.484 4.7734-15.465-128.35-39.664-24.422 52.762-21.914-9.0156c0.47656-3.4609 0.77734-7.0195 0.91797-10.664l31.672-27.141 21.102-45.207 89.371-112.93-12.688-10.051-89.965 113.68-21.008 44.5-19.66 16.848c-3.0195-19.344-11.223-35.102-21.973-42.617v-16.918c23.121-6.6797 47.555-27.918 47.555-53.145 0-12.047-5.625-23.156-13.965-32.242l60.625-25.641-38.449-98.293-15.082 5.8906 32.719 83.609-53.691 22.715c-10.887-7.1328-23.297-11.41-34.02-11.41-10.723 0-23.121 4.2891-34.02 11.41l-53.68-22.703 32.719-83.609-15.082-5.9023-38.457 98.281 60.625 25.641c-8.3438 9.0859-13.965 20.203-13.965 32.242 0 25.223 24.445 46.465 47.555 53.145v16.918c-10.746 7.5156-18.949 23.273-21.973 42.617l-19.66-16.848-20.02-42.895-90.922-115.28-12.699 10.039 89.371 112.93 21.102 45.207 31.672 27.141c0.12891 3.6484 0.44141 7.2031 0.91797 10.664l-21.914 9.0156-24.422-52.762-128.36 39.672 4.7734 15.465 114.83-35.484 24.992 53.992 33.684-13.871c1.1367 3.5195 2.4648 6.8438 3.9609 9.9219l-20.113 16.754-42.398-18.02-50.629 117.13-19.332 109.57 15.953 2.7773 18.625-106.81 43.871-101.46 36.68 15.594 26.469-22.051c1.7656 1.8711 3.6133 3.5312 5.5547 4.8906v16.523c-30.383 9.8047-53.168 50.168-53.168 98.516 0 55.688 30.207 100.83 67.469 100.83s67.469-45.141 67.469-100.83c0-48.344-22.785-88.699-53.168-98.516v-16.523c1.9414-1.3594 3.7891-3.0195 5.5547-4.8906l26.457 22.051 36.68-15.594 43.883 101.46 18.613 106.81 15.953-2.7773-18.777-107.75-51.191-118.93-42.398 18.02-20.113-16.766c1.5-3.0781 2.8242-6.3906 3.9609-9.9102z"/>
  <use x="138.78125" y="734.28125" xlink:href="#f"/>
  <use x="288.667969" y="734.28125" xlink:href="#e"/>
  <use x="355.839844" y="734.28125" xlink:href="#d"/>
  <use x="417.648438" y="734.28125" xlink:href="#c"/>
  <use x="517.328125" y="734.28125" xlink:href="#b"/>
  <use x="665.796875" y="734.28125" xlink:href="#a"/>
 </g>
</svg>
