<!-- Generated by IcoMoon.io -->
<svg version="1.1" xmlns="http://www.w3.org/2000/svg" width="32" height="32" viewBox="0 0 32 32">
<title>Checked</title>
<path d="M1.375-0.5h-0.313c0 0.188-0.125 0.25-0.313 0.25-0.25 0-0.375-0.188-0.375-0.5s0.125-0.5 0.375-0.5c0.188 0 0.313 0.125 0.313 0.313h0.313c-0.063-0.375-0.313-0.563-0.625-0.563-0.375 0-0.688 0.313-0.688 0.75 0 0.5 0.25 0.75 0.688 0.75 0.375 0 0.625-0.188 0.625-0.5zM0.75-0.813v-0.313c0 0-0.063 0-0.063 0-0.125 0-0.25 0.125-0.25 0.25v-0.188h-0.313v1.063h0.313v-0.563c0-0.188 0.063-0.25 0.188-0.25 0.063 0 0.063 0 0.125 0zM1.063-0.5c0-0.375-0.188-0.625-0.5-0.625s-0.5 0.25-0.5 0.625c0 0.313 0.188 0.5 0.5 0.5 0.188 0 0.438-0.063 0.5-0.313h-0.313c0 0.063-0.125 0.125-0.188 0.125-0.125 0-0.25-0.063-0.25-0.25h0.75zM0.75-0.625h-0.438c0.063-0.188 0.125-0.25 0.25-0.25s0.188 0.063 0.188 0.25zM1.063 0v-0.063c-0.063 0-0.063-0.063-0.063-0.125v-0.563c0-0.25-0.188-0.375-0.438-0.375-0.313 0-0.438 0.125-0.5 0.375h0.313c0-0.063 0.063-0.125 0.188-0.125s0.125 0.063 0.125 0.125-0.063 0.063-0.188 0.125h-0.125c-0.188 0.063-0.313 0.125-0.313 0.313 0 0.25 0.125 0.313 0.313 0.313 0.125 0 0.25-0.063 0.313-0.125 0 0.063 0 0.063 0.063 0.125zM0.688-0.438c0 0.125-0.063 0.25-0.188 0.25s-0.188-0.063-0.188-0.125c0-0.125 0.063-0.125 0.188-0.125l0.063-0.063c0.125 0 0.125 0 0.125 0zM0.625 0v-0.188c-0.063 0-0.063 0-0.063 0-0.125 0-0.125 0-0.125-0.125v-0.563h0.188v-0.188h-0.188v-0.313h-0.25v0.313h-0.188v0.188h0.188v0.625c0 0.188 0.063 0.25 0.25 0.25 0.063 0 0.125 0 0.188 0zM1.063 0v-1.438h-0.25v0.5c-0.063-0.125-0.188-0.188-0.313-0.188-0.25 0-0.438 0.25-0.438 0.563s0.188 0.563 0.438 0.563c0.125 0 0.25-0.063 0.313-0.125v0.125zM0.813-0.563c0 0.25-0.125 0.375-0.25 0.375s-0.25-0.125-0.25-0.375c0-0.188 0.125-0.313 0.25-0.313s0.25 0.125 0.25 0.313zM1.125-0.5c0-0.313-0.125-0.625-0.438-0.625-0.125 0-0.25 0.063-0.313 0.188v-0.5h-0.25v1.438h0.25v-0.125c0.063 0.063 0.188 0.125 0.313 0.125 0.25 0 0.438-0.188 0.438-0.5zM0.875-0.563c0 0.25-0.125 0.375-0.25 0.375s-0.25-0.125-0.25-0.375c0-0.188 0.125-0.313 0.25-0.313s0.25 0.125 0.25 0.313zM1.063-1.063h-0.25l-0.25 0.75-0.25-0.75h-0.313l0.438 1.125c0 0.063-0.063 0.188-0.188 0.188 0 0-0.063 0-0.063 0v0.188c0 0 0.063 0 0.063 0 0.188 0 0.313-0.063 0.375-0.25zM1.375-0.75c0-0.188-0.063-0.375-0.188-0.563-0.125-0.125-0.25-0.125-0.438-0.125h-0.625v1.438h0.625c0.188 0 0.313-0.063 0.438-0.188s0.188-0.313 0.188-0.563zM1.063-0.75c0 0.313-0.125 0.5-0.313 0.5h-0.313v-0.938h0.313c0.188 0 0.313 0.125 0.313 0.438zM0.438 0v-1.438h-0.313v1.438zM1.563-1.063h-0.313l-0.188 0.75-0.125-0.75h-0.313l-0.125 0.75-0.188-0.75h-0.313l0.313 1.063h0.313l0.125-0.75 0.188 0.75h0.313zM1.313 0v-1.438h-0.313v0.5h-0.563v-0.5h-0.313v1.438h0.313v-0.688h0.563v0.688zM1.125-0.563c0-0.313-0.188-0.563-0.5-0.563-0.375 0-0.563 0.25-0.563 0.563 0 0.375 0.188 0.563 0.563 0.563 0.313 0 0.5-0.188 0.5-0.563zM0.875-0.563c0 0.25-0.125 0.375-0.25 0.375-0.188 0-0.25-0.125-0.25-0.375 0-0.188 0.063-0.313 0.25-0.313 0.125 0 0.25 0.125 0.25 0.313zM1.063-0.313v0c0-0.125-0.063-0.25-0.25-0.25l-0.313-0.125c-0.125 0-0.125-0.063-0.125-0.063 0-0.063 0.063-0.125 0.188-0.125s0.188 0.063 0.188 0.125h0.25c0-0.188-0.188-0.375-0.438-0.375-0.313 0-0.438 0.188-0.438 0.375 0 0.125 0 0.188 0.188 0.25l0.375 0.125c0.063 0 0.063 0.063 0.063 0.063 0 0.063-0.063 0.125-0.188 0.125s-0.188-0.063-0.25-0.125h-0.25c0 0.188 0.188 0.313 0.5 0.313s0.5-0.125 0.5-0.313zM0.438 0v-1.063h-0.313v1.063zM0.438-1.188v-0.313h-0.313v0.313zM1.063 0v-0.75c0-0.188-0.125-0.375-0.313-0.375s-0.25 0.063-0.313 0.188v-0.125h-0.313v1.063h0.313v-0.625c0-0.125 0.063-0.25 0.188-0.25s0.188 0.063 0.188 0.188v0.688zM11.938 19.688l-0.75-0.813-2.125 1.938-2-2.063-1.125 1.063 2.125 2-2.125 1.938 1.125 1.188 2-2.188 2.125 2 0.75-0.813-2-2.125zM13.813 9.625c0 0-0.063 0-0.063 0l-5 3.75-2.688-1.625c-0.063 0-0.125 0-0.125 0-0.063 0.063-0.125 0.063-0.063 0.125l2.125 3.5 0.688 1.188 0.813-1.188 4.25-5.625c0.125-0.063 0.125-0.125 0.063-0.125zM13.813 0.75c0-0.063-0.063-0.063-0.063 0l-5 3.688-2.688-1.625c0 0-0.063 0-0.125 0 0 0 0 0.125 0 0.125l2.125 3.563 0.688 1.125 0.813-1.125 4.25-5.688c0.063-0.063 0.063-0.063 0-0.063zM14.938 3.5h11.125v1.375h-11.125zM14.938 12.375h11.125v1.438h-11.125zM14.938 21.125h11.125v1.375h-11.125z"></path>
</svg>
