<!-- Generated by IcoMoon.io -->
<svg version="1.1" xmlns="http://www.w3.org/2000/svg" width="32" height="32" viewBox="0 0 32 32">
<title>inTransit</title>
<path d="M27.111 5.556v0.889h-9.111v1.556h9.111v0.889c0 0.489 0.044 0.889 0.089 0.889 0.156 0 4-2.222 4.2-2.444 0.156-0.133-3.778-2.667-4.156-2.667-0.067 0-0.133 0.4-0.133 0.889z"></path>
<path d="M6.933 6.044c-0.156 0.156-0.267 0.667-0.289 1.156-0.044 2.222-0.711 2.689-1.689 1.267-0.733-1.067-0.956-1.133-0.956-0.289 0 0.4 0.244 0.844 0.667 1.267 0.6 0.578 0.644 0.667 0.311 1.022-0.267 0.289-0.489 0.333-1.022 0.2-0.356-0.111-0.8-0.311-0.978-0.467-0.422-0.356-0.622-0.111-0.444 0.556 0.2 0.778 0.911 0.911 2.489 0.489 0.733-0.2 1.667-0.378 2.089-0.4 0.644-0.067 0.778-0.156 0.778-0.6 0-0.622 0.222-0.756 2-1.289l1.333-0.378-0.978-0.133c-1.2-0.133-1.622-0.667-1.067-1.289 0.467-0.511 0.489-1.156 0.044-1.156-0.378 0-0.644 0.511-1 1.911-0.111 0.489-0.422 1.089-0.667 1.311-0.444 0.4-0.444 0.378-0.444-0.489 0-0.489 0.156-1.333 0.333-1.844s0.333-0.978 0.333-1.022c0-0.2-0.6-0.067-0.844 0.178z"></path>
<path d="M15.333 7.867c-1.711 0.844-3.556 1.956-3.556 2.133s2.956 1.933 4.067 2.4c0.6 0.267 0.6 0.244 0.6-0.622v-0.889h9.111v-1.778h-9.089l-0.067-0.867-0.067-0.889-1 0.511z"></path>
<path d="M5.2 11.867c-1.267 0.4-2.756 1.467-3.844 2.778-0.822 0.978-0.911 1.178-0.689 1.6 0.244 0.422 0.378 0.467 1.422 0.311 2.467-0.356 2.267-0.467 3.8 1.978 1.022 1.6 1.667 2.356 2.4 2.844 0.867 0.556 1.044 0.8 1.333 1.911 0.467 1.756 0.2 5.044-0.511 6.022l-0.467 0.689h0.667c0.578 0 0.689-0.111 1-1.067 0.178-0.578 0.467-2.267 0.6-3.756 0.156-1.511 0.333-2.822 0.422-2.933 0.067-0.133 1.422-0.289 3-0.356l2.889-0.156 3.467 3.511-0.822 1.733c-0.444 0.956-1.067 1.867-1.333 2.067-0.289 0.178-0.533 0.422-0.533 0.533 0 0.156 1.289 0.111 1.444-0.067 0.244-0.311 2.111-4.533 2.111-4.8 0-0.178-0.267-0.911-0.6-1.644l-0.578-1.311 0.8-0.667c1-0.822 2.6-3.2 2.6-3.867s-1.511-2.022-2.6-2.311c-1.156-0.333-2.378-0.311-4.444 0.089-0.956 0.178-3.089 0.4-4.733 0.489-3.422 0.156-3.733 0.067-5.178-1.444l-0.844-0.867 0.333-0.822c0.378-0.911 0.311-0.933-1.111-0.489z"></path>
<path d="M24.156 18.822c-0.2 1.022 1.178 1.644 1.844 0.844 0.222-0.289 0.2-0.333-0.178-0.333-0.244 0-0.644-0.244-0.889-0.556-0.556-0.711-0.622-0.689-0.778 0.044z"></path>
<path d="M22 21.222l-0.511 0.556 1.133 1.778 1.156 1.8-0.133 1.6c-0.111 1.156-0.267 1.733-0.6 2.089-0.556 0.622-0.467 0.711 0.444 0.578 0.867-0.133 0.956-0.422 0.956-3.311 0-2.178-0.022-2.289-0.667-3.089-0.378-0.467-0.733-1.222-0.8-1.711-0.178-1-0.289-1.022-0.978-0.289z"></path>
<path d="M7.711 25.067c-0.667 2.689-0.756 3.867-0.289 4.244 0.356 0.311 0.578-0.267 0.578-1.644 0-0.489 0.2-1.6 0.444-2.444 0.422-1.467 0.444-2.556 0.044-2.556-0.111 0-0.467 1.089-0.778 2.4z"></path>
</svg>
