<?xml version="1.0" standalone="no"?>
<!DOCTYPE svg PUBLIC "-//W3C//DTD SVG 20010904//EN"
 "http://www.w3.org/TR/2001/REC-SVG-20010904/DTD/svg10.dtd">
<svg version="1.0" xmlns="http://www.w3.org/2000/svg"
 width="128.000000pt" height="128.000000pt" viewBox="0 0 128.000000 128.000000"
 preserveAspectRatio="xMidYMid meet">

<g transform="translate(0.000000,128.000000) scale(0.100000,-0.100000)"
fill="#000000" stroke="none">
<path d="M349 1265 c-14 -7 -38 -32 -54 -55 -36 -52 -81 -72 -172 -74 -50 -1
-77 -6 -88 -16 -13 -14 -9 -16 43 -15 90 0 103 -7 140 -77 18 -35 32 -66 32
-70 0 -4 -15 -8 -32 -10 -23 -2 -34 -9 -36 -22 -4 -17 1 -19 50 -13 46 4 56 2
66 -14 17 -26 17 -26 -28 -55 -42 -28 -53 -54 -22 -54 9 0 35 12 55 26 21 14
39 24 40 22 1 -1 10 -13 21 -25 18 -21 18 -22 -23 -43 -40 -20 -56 -50 -26
-50 9 0 34 9 56 20 l40 21 29 -25 29 -24 -41 -34 c-34 -28 -38 -35 -26 -46 12
-10 23 -6 56 18 48 34 55 36 72 15 10 -12 8 -20 -9 -41 -24 -31 -28 -64 -7
-64 12 0 26 15 61 68 2 1 14 -3 29 -9 19 -9 25 -17 20 -28 -4 -9 -9 -26 -11
-38 -7 -33 30 -31 45 2 12 27 19 30 40 17 10 -7 9 -16 -3 -46 -9 -20 -13 -41
-10 -46 12 -19 33 -10 45 20 16 38 27 45 45 30 21 -17 19 -23 -15 -43 -30 -18
-39 -40 -20 -52 6 -4 29 7 52 24 38 28 43 29 59 15 16 -15 16 -17 -3 -50 -19
-33 -19 -64 1 -64 5 0 18 16 30 36 l21 35 25 -28 24 -28 -24 -20 c-45 -37 -24
-70 23 -36 27 19 29 19 39 2 9 -14 7 -24 -8 -47 -10 -16 -19 -35 -19 -41 0
-20 34 -15 48 7 12 20 12 20 32 0 11 -11 20 -28 20 -38 0 -58 63 -167 111
-193 14 -7 9 3 -15 35 -34 44 -49 81 -60 143 -4 25 -1 34 19 47 22 15 26 14
55 -10 17 -14 42 -46 56 -71 15 -24 29 -42 31 -39 10 10 -37 95 -80 143 -62
70 -67 90 -31 119 23 18 27 25 16 35 -10 11 -18 10 -42 -4 -28 -17 -29 -17
-40 3 -9 17 -6 26 15 54 14 18 25 38 25 44 0 22 -34 12 -57 -15 l-22 -28 -26
26 -27 26 36 22 c35 22 46 44 27 55 -5 3 -25 -5 -45 -19 -42 -29 -49 -30 -65
-12 -8 11 -6 18 9 32 11 10 20 24 20 31 0 26 -23 26 -48 1 -25 -25 -26 -26
-54 -9 -15 9 -28 19 -28 22 0 4 14 16 30 28 16 13 30 26 30 31 0 21 -31 17
-66 -9 -31 -23 -42 -26 -61 -17 l-22 10 19 27 c17 24 18 30 6 39 -11 10 -19 6
-39 -15 -18 -20 -30 -24 -47 -19 l-22 7 28 29 c21 22 25 32 16 41 -8 8 -20 4
-47 -17 -26 -19 -40 -24 -47 -17 -8 8 -2 21 21 47 31 36 41 75 19 75 -6 0 -26
-18 -45 -40 -36 -42 -51 -48 -71 -28 -9 9 -6 18 15 40 21 22 24 31 15 40 -9 9
-19 7 -43 -11 l-31 -23 -26 25 -25 26 49 14 c59 17 74 47 24 47 -17 0 -45 -7
-61 -16 -24 -12 -34 -13 -45 -3 -20 16 -18 21 16 44 31 20 41 55 16 55 -7 0
-26 -10 -41 -21 -30 -25 -25 -29 -76 58 l-30 53 26 49 c15 27 38 54 51 62 26
13 32 29 12 29 -7 -1 -25 -7 -39 -15z"/>
</g>
</svg>
