<!-- Generated by IcoMoon.io -->
<svg version="1.1" xmlns="http://www.w3.org/2000/svg" width="32" height="32" viewBox="0 0 32 32">
<title>Investigated1</title>
<path d="M21.688 14.875c0-2.25-0.75-4.125-2.313-5.688s-3.438-2.313-5.688-2.313c-2.188 0-4.063 0.75-5.625 2.313s-2.375 3.438-2.375 5.688c0 2.188 0.813 4.063 2.375 5.625s3.438 2.375 5.625 2.375c2.25 0 4.125-0.813 5.688-2.375s2.313-3.438 2.313-5.625zM30.875 29.688c0 0.625-0.25 1.188-0.688 1.625s-1 0.688-1.625 0.688c-0.625 0-1.188-0.25-1.625-0.688l-6.125-6.125c-2.125 1.5-4.5 2.25-7.125 2.25-1.688 0-3.313-0.313-4.875-1s-2.875-1.563-4-2.688c-1.125-1.125-2-2.438-2.688-4-0.625-1.563-1-3.188-1-4.875 0-1.75 0.375-3.375 1-4.875 0.688-1.563 1.563-2.938 2.688-4.063s2.438-2 4-2.688c1.563-0.625 3.188-0.938 4.875-0.938 1.75 0 3.375 0.313 4.938 0.938 1.5 0.688 2.875 1.563 4 2.688s2 2.5 2.688 4.063c0.625 1.5 1 3.125 1 4.875 0 2.625-0.75 5-2.25 7.125l6.125 6.125c0.438 0.438 0.688 0.938 0.688 1.563z"></path>
</svg>
