<!-- Generated by IcoMoon.io -->
<svg version="1.1" xmlns="http://www.w3.org/2000/svg" width="32" height="32" viewBox="0 0 32 32">
<title>Jackal</title>
<path d="M5.75 5.75c-0.188 0.188-0.313 0.875-0.313 1.625 0 0.813-0.438 1.688-1.188 2.375-1.313 1.313-1 2.188 0.688 1.875 1-0.188 1.438 0.063 2.625 1.75 2.813 3.688 3.813 6 3.813 8.875 0 1.5-0.25 2.813-0.438 3-0.313 0.125-0.5 0.438-0.5 0.688 0 0.688 1.188 0.5 1.875-0.313s1.313-8.5 0.875-10.188l-0.313-1.125h3.688c2-0.063 5-0.375 6.563-0.813 2.875-0.75 2.938-0.75 3.813 0.063 0.938 0.938 2.125 7.938 1.5 8.563-0.5 0.563-1.125-0.875-1.438-3.5l-0.313-2.5-0.563 2.75c-0.313 1.5-0.438 3.063-0.375 3.375 0.188 0.625 0.188 0.625-0.313 0-0.438-0.563-0.5-0.5-0.25 0.188 0.125 0.438 0.25 1.125 0.313 1.563 0.063 0.5 0.188 0.375 0.438-0.375l0.375-1.125-0.063 1.125c-0.063 0.625-0.313 1.063-0.5 0.938-0.25-0.125-0.563 0.188-0.813 0.75-0.188 0.625-0.563 1.063-0.813 1.063s-0.125-0.563 0.25-1.25c0.688-1.188 0.625-1.438-1.125-5.188-1.063-2.125-1.875-4.188-1.938-4.5-0.063-0.375-0.188-0.188-0.375 0.5-0.188 0.75-0.688 1.188-1.625 1.375-1.063 0.25-1 0.25 0.438 0.188 1.438-0.125 1.75 0 2 0.75 0.125 0.563 0.688 1.875 1.313 3 1.188 2.313 1.25 3 0.313 4.438-0.688 1.063-0.688 1.125 0.125 1.125 0.438 0 1.563-0.563 2.375-1.25 1.375-1.125 1.438-1.438 1-2.25-0.313-0.563-0.438-1.563-0.438-2.25v-1.313l0.375 1.188c0.75 2.563 1.063 3.188 1.563 3 0.688-0.188 0.875-4.375 0.25-7.438-0.313-1.938-0.813-3-1.813-4-1.313-1.313-1.563-1.375-5.375-1.375-2.188 0-5 0.125-6.313 0.188-2.125 0.188-2.625 0-4.813-1.375-1.438-1-2.688-2.25-3.063-3.063-0.5-1.438-0.938-1.688-1.5-1.125zM7.063 7.75c0.125 0.438 0.938 1.25 1.75 1.75s1.938 1.625 2.625 2.5c0.938 1.375 1.125 2.125 1.188 6.25 0.125 2.563-0.063 5.188-0.313 5.813-0.375 0.938-0.438 0.563-0.438-2-0.063-3.5-0.813-5.125-4.063-9.5-1.375-1.813-1.875-2.125-2.813-1.875l-1.125 0.313 1.063-1.063c0.5-0.688 1-1.563 1-2.125 0-1.25 0.688-1.313 1.125-0.063z"></path>
</svg>
