<!-- Generated by IcoMoon.io -->
<svg version="1.1" xmlns="http://www.w3.org/2000/svg" width="32" height="32" viewBox="0 0 32 32">
<title>Jerrycan</title>
<path d="M2.875 2.25v1.125h0.25c0.188 0 0.25 0 0.25 0.25s-0.188 0.563-0.375 0.563c-0.063 0-0.125 0.063-0.125 0.25s0 0.188-0.125 0.188c-0.125-0.063-0.125 1.375-0.125 12.438 0 9.813 0.063 12.438 0.125 12.438s0.125 0.063 0.125 0.125c0 0.125 0.063 0.188 0.125 0.188s0.125 0.063 0.125 0.125c0 0.063 0.063 0.125 0.188 0.188 0.125 0 0.188 0.063 0.188 0.125-0.063 0.125 1.5 0.125 12.125 0.125 10.938 0 12.188 0 12.188-0.125 0-0.063 0.125-0.125 0.188-0.188 0.125 0 0.188-0.063 0.125-0.063s0-0.063 0.125-0.188c0.063-0.063 0.125-0.188 0.125-0.25 0 0 0.063-0.063 0.125 0 0.125 0 0.125-0.063 0.125-0.438 0-0.313 0.063-0.438 0.125-0.375 0.125 0.063 0.125-0.688 0.125-6.063 0-3.313 0-6-0.063-5.938 0 0.063-0.063 0.125-0.125 0.063 0 0-0.063-0.563-0.063-1.25 0-1.063 0-1.25-0.125-1.188-0.063 0.063-0.125-0.063-0.125-0.5 0-0.375 0-0.5-0.063-0.5-0.125 0-0.125-0.125-0.188-0.375 0-0.188-0.063-0.375-0.063-0.375-0.125 0-0.188-0.188-0.188-0.5-0.063-0.063-0.063-0.188-0.125-0.25-0.125 0-0.125-0.125-0.125-0.25s-0.063-0.25-0.125-0.313c-0.063 0-0.125-0.125-0.125-0.25s-0.063-0.25-0.125-0.313c-0.063 0-0.125-0.125-0.125-0.25s-0.063-0.188-0.125-0.188c-0.063 0.063-0.063-0.063-0.125-0.188 0-0.125-0.063-0.188-0.125-0.188s-0.125-0.125-0.125-0.25c0-0.125 0-0.25-0.063-0.188-0.063 0-0.5-0.438-0.438-0.563 0 0 0-0.063-0.063-0.063s-0.125-0.063-0.125-0.125c0-0.063-0.063-0.188-0.188-0.25-0.063-0.063-0.125-0.188-0.125-0.25s-0.063-0.063-0.125-0.063c-0.063 0-0.125-0.063-0.125-0.125s-0.063-0.125-0.125-0.125c-0.063 0-0.125-0.063-0.125-0.188s-0.063-0.125-0.063-0.125c-0.063 0.063-0.125 0-0.188-0.063 0-0.125-0.063-0.188-0.188-0.25-0.063 0-0.125-0.063-0.063-0.125 0-0.063-0.063-0.063-0.125-0.063-0.125 0-0.188-0.063-0.188-0.125s-0.063-0.125-0.125-0.125c-0.063 0-0.125-0.063-0.125-0.125s-0.063-0.125-0.125-0.125-0.188-0.063-0.125-0.125-0.063-0.125-0.188-0.125c-0.125-0.063-0.188-0.125-0.188-0.125 0-0.063-0.063-0.063-0.125-0.063s-0.125-0.063-0.188-0.125c0-0.063-0.063-0.125-0.125-0.125s-0.125-0.063-0.188-0.188c-0.063-0.063-0.188-0.125-0.25-0.188-0.125 0-0.188-0.063-0.188-0.125s-0.063-0.063-0.188-0.063c-0.125 0-0.188-0.063-0.125-0.125 0-0.125-0.063-0.125-0.25-0.125s-0.313-0.063-0.313-0.125c0-0.063-0.063-0.125-0.25-0.125-0.125 0-0.188-0.063-0.188-0.125s-0.125-0.125-0.313-0.125c-0.188 0-0.313-0.063-0.313-0.125-0.063-0.063-0.188-0.125-0.313-0.125-0.188 0-0.313 0-0.313-0.125-0.063-0.063-0.188-0.063-0.375-0.125-0.313 0-0.563-0.063-0.563-0.188 0.063 0-0.188-0.063-0.563-0.063-0.438-0.063-0.563-0.063-0.5-0.188 0-0.063-0.375-0.063-3.188-0.063-3.063 0-3.25 0-3.25-0.188 0-0.063 0.063-0.125 0.125-0.125 0.063 0.063 0.125-0.188 0.125-1.063v-1.125h-8.75zM10.688 2.25v0.375h-6.875v-0.375c0-0.188 0-0.375 0-0.375s1.563 0 3.438 0h3.438zM10.563 3.5c0 0 0 0.063 0 0.063-0.063 0.063-6.438 0.063-6.438 0-0.063 0-0.063-0.063 0-0.125 0-0.063 6.375 0 6.438 0.063zM16.938 4.5c0 0 0 0.063-0.063 0.063-0.063 0.063 0.25 0.063 0.688 0.063 0.688 0 0.875 0 0.813 0.125s0.063 0.125 0.438 0.125c0.375 0.063 0.5 0.063 0.5 0.125s0.063 0.125 0.313 0.125c0.188 0 0.313 0.063 0.313 0.125 0.063 0.063 0.188 0.125 0.375 0.125 0.125 0 0.25 0.063 0.313 0.125 0 0.063 0.125 0.125 0.25 0.125 0.063 0 0.188 0 0.188 0.125 0.063 0.063 0.125 0.063 0.188 0.063 0.125 0 0.25 0.063 0.313 0.125s0.188 0.125 0.25 0.188c0.125 0 0.188 0.125 0.188 0.188s0.063 0.063 0.188 0.063c0.125 0 0.188 0.063 0.188 0.125s0.063 0.125 0.125 0.125c0-0.063 0.125 0 0.188 0.125 0.063 0.063 0.188 0.125 0.313 0.125 0.063 0 0.125 0.063 0.125 0.125s0.063 0.125 0.188 0.125c0.063 0.063 0.125 0.125 0.063 0.125 0 0.063 0.063 0.125 0.125 0.125 0.125 0 0.188 0.063 0.188 0.125s0.063 0.125 0.125 0.125c0.063 0 0.125 0 0.125 0.125 0 0.063 0.063 0.063 0.125 0.063s0.125 0.063 0.125 0.125c0 0.063 0 0.125 0.063 0.125 0.125 0 0.125 0.063 0.125 0.125s0.063 0.125 0.125 0.125c0.063 0 0.125 0.063 0.125 0.188 0 0.063 0.063 0.125 0.125 0.125 0-0.063 0.063 0 0.125 0.063 0 0.125 0.063 0.188 0.125 0.188s0.125 0.063 0.125 0.188c0 0.063 0.063 0.125 0.125 0.125s0.125 0.063 0.125 0.125c0 0.063 0.063 0.188 0.125 0.25 0.125 0.063 0.188 0.188 0.125 0.25 0 0.063 0 0.063 0.125 0.063 0.063-0.063 0.063 0 0.063 0.125 0 0.063 0.125 0.25 0.188 0.313s0.188 0.188 0.188 0.25c0 0.063 0 0.188 0.063 0.188 0.125 0 0.125 0.125 0.125 0.25s0.063 0.188 0.125 0.25c0.063 0 0.125 0.125 0.125 0.25 0 0.188 0.063 0.25 0.125 0.25s0.125 0.063 0.125 0.25c0 0.188 0.063 0.313 0.125 0.313s0.125 0.125 0.125 0.375c0 0.25 0 0.375 0.125 0.375 0.063 0 0.125 0.063 0.125 0.438 0 0.438 0 0.5 0.125 0.438 0.063 0 0.125 0.063 0.125 0.688 0 0.5 0 0.75 0.063 0.625 0.063-0.063 0.063-0.063 0.125-0.063 0 0.063 0 3.188 0 7 0 6.75 0 6.938-0.125 7.125-0.063 0.063-0.188 0.125-0.25 0.125-0.063-0.063-0.063-0.063 0 0.063 0 0.063-1.125 0.125-11.813 0.125-10 0-11.813-0.063-11.75-0.125 0-0.063 0-0.125-0.125-0.125-0.063 0-0.125-0.063-0.125-0.125-0.063-0.125-0.125-0.188-0.125-0.25-0.188-0.125-0.125-24 0-24 0.063 0.063 0.125-0.063 0.125-0.188s0-0.188 0.188-0.188c0.188 0 0.25 0 0.25-0.125-0.063-0.063 0.688-0.125 6.438-0.125 3.875 0 6.438 0.063 6.438 0.125zM8.688 7.5c0.063 0.063-0.063 0.125-0.25 0.125 0 0-0.063 0.063-0.063 0.125 0 0.125 0 0.188-0.125 0.188-0.063 0-0.063 0.125-0.063 0.813s0 0.813 0.063 0.875c0.125 0 0.125 0.125 0.125 0.313 0 0.125 0.063 0.25 0.125 0.25s0.125 0.125 0.125 0.188c0 0.125 0.063 0.188 0.125 0.188s0.125 0.063 0.125 0.188c0 0.125 0.063 0.188 0.063 0.188 0.063-0.063 0.125 0 0.188 0.063 0 0.188 0.063 0.25 0.688 0.875s1.063 1 1.188 1c0.063 0.063 0.125 0.063 0.125 0.125s0.063 0.125 0.188 0.125c0.063 0 0.188 0.063 0.125 0.125 0 0.063 0.125 0.125 0.25 0.125s0.25 0 0.25 0.125c0 0.063 0.063 0.125 0.25 0.125 0.125 0 0.25 0 0.25 0.125 0.063 0.063 0.188 0.063 0.313 0.063s0.25 0.125 0.375 0.188c0.063 0.125 0.188 0.188 1 0.188 0.75 0 0.813-0.063 0.938-0.188 0-0.063 0.125-0.188 0.188-0.188s0.125 0 0.125-0.063c0-0.125 0.063-0.188 0.125-0.188 0.063-0.063 0.125-0.188 0.125-0.813 0-0.563-0.063-0.75-0.125-0.813-0.063 0-0.125-0.125-0.125-0.25 0-0.188-0.063-0.25-0.125-0.25s-0.125-0.063-0.125-0.25c0-0.125-0.063-0.25-0.125-0.25s-0.125-0.063-0.125-0.125c0-0.125-0.063-0.188-0.125-0.188s-0.125-0.063-0.125-0.125c0-0.125-0.063-0.188-0.125-0.188s-0.125-0.063-0.125-0.125c0-0.188-1.188-1.313-1.375-1.313-0.063 0-0.125-0.063-0.125-0.125s-0.063-0.125-0.125-0.125c-0.125 0-0.188-0.063-0.188-0.125s-0.063-0.125-0.188-0.125c-0.125-0.063-0.188-0.125-0.188-0.125 0-0.063-0.125-0.063-0.188-0.063s-0.188-0.125-0.25-0.188c-0.063-0.063-0.125-0.188-0.188-0.125-0.25 0-0.375-0.063-0.313-0.125 0-0.125-0.063-0.125-0.313-0.125-0.313 0-0.375-0.063-0.375-0.125 0.063-0.125-0.063-0.125-0.938-0.125-0.813 0-1 0-0.938 0.125zM9.875 8.5c0 0.125 0.063 0.125 0.375 0.125s0.375 0.063 0.375 0.125c0 0.063 0.125 0.125 0.25 0.125 0.188 0 0.25 0.063 0.25 0.125s0.063 0.125 0.188 0.125c0.063 0 0.188 0.063 0.125 0.125 0 0.063 0.063 0.125 0.188 0.125s0.188 0.063 0.188 0.125c0 0.063 0.125 0.125 0.188 0.125s0.188 0 0.188 0.125c0 0.063 0 0.063 0.063 0.063 0.125 0 0.125 0.063 0.125 0.125s0.063 0.125 0.125 0.125c0 0 0.25 0.188 0.5 0.438 0.375 0.375 0.438 0.5 0.375 0.563s-0.125 0.125-0.125 0.188c0 0 0.063 0 0.125-0.063 0.063-0.125 0.125-0.125 0.188-0.063s0.063 0.125 0.063 0.188c0 0 0 0.063 0.063 0.063 0.125 0 0.125 0.063 0.125 0.125s0.125 0.188 0.188 0.25c0.063 0.063 0.188 0.188 0.188 0.313 0 0.063 0 0.188 0.063 0.188 0.188 0.063 0.188 0.563 0.063 0.75-0.125 0.125-0.5 0.125-0.5 0 0-0.063-0.125-0.125-0.375-0.125s-0.375-0.063-0.313-0.125c0-0.063-0.063-0.125-0.25-0.125-0.125 0-0.25-0.063-0.313-0.125 0-0.063-0.125-0.125-0.188-0.125-0.125-0.063-0.188-0.125-0.188-0.125 0.063-0.063 0-0.063-0.125-0.063-0.063 0-0.188-0.063-0.188-0.125-0.063-0.063-0.063-0.125-0.125-0.125-0.125 0-1.688-1.563-1.688-1.688 0-0.063-0.063-0.063-0.125-0.125-0.063 0-0.125-0.063-0.125-0.125s0-0.125-0.063-0.188c-0.125-0.063-0.125-0.188-0.125-0.313 0-0.063-0.063-0.125-0.125-0.188-0.125 0-0.125-0.125-0.125-0.375 0-0.438 0.063-0.563 0.313-0.563 0.188 0 0.25 0.063 0.188 0.125z"></path>
</svg>
