<!-- Generated by IcoMoon.io -->
<svg version="1.1" xmlns="http://www.w3.org/2000/svg" width="20" height="32" viewBox="0 0 20 32">
<title>K9-patrol</title>
<path d="M6.822 18.829c0.863-0.012 1.727-0.084 2.589-0.214v1.089c-0.877 0.31-1.506 1.147-1.506 2.13 0 1.247 1.011 2.259 2.259 2.259s2.259-1.011 2.259-2.259c0-0.983-0.629-1.82-1.506-2.13v-1.377c0.579-0.134 1.159-0.295 1.738-0.482 1.806-0.584 3.608-1.428 5.405-2.529 0.766 2.903 1.27 6.062 1.514 9.477 0.030 0.415-0.283 0.775-0.697 0.805l-11.724 0.002c-0.416 0-0.753-0.337-0.753-0.753 0-2.042 0.128-3.96 0.384-5.754 0.013-0.087 0.025-0.175 0.038-0.264v0zM7.065 17.318c0.191-1.105 0.423-2.291 0.695-3.559l-3.454 0.345c-1.502 0.15-2.922-0.711-3.483-2.113l-0.77-1.924c-0.143-0.359 0.008-0.767 0.35-0.947l7.537-3.948 0.345-4.478c0.049-0.634 0.812-0.926 1.271-0.486 2.965 2.836 5.283 6.313 6.954 10.425 0.414 1.020 0.788 2.078 1.123 3.175-1.819 1.151-3.632 2.018-5.441 2.604-1.712 0.554-3.42 0.855-5.127 0.905v0zM8.847 9.035c0.52 0 0.941-0.421 0.941-0.941s-0.421-0.941-0.941-0.941c-0.52 0-0.941 0.421-0.941 0.941s0.421 0.941 0.941 0.941zM10.165 22.588c-0.416 0-0.753-0.337-0.753-0.753s0.337-0.753 0.753-0.753c0.416 0 0.753 0.337 0.753 0.753s-0.337 0.753-0.753 0.753z"></path>
</svg>
