<!-- Generated by IcoMoon.io -->
<svg version="1.1" xmlns="http://www.w3.org/2000/svg" width="32" height="32" viewBox="0 0 32 32">
<title>Rrifle</title>
<path d="M30.375 0.125l-18.125 12.938-0.563-0.813 1.063-0.75 1.625-0.625 0.063 0.063 0.438-0.313-1.563-2.188-0.375 0.188-1.313 1.5-4.75 3.438-1.813 0.688-0.438 0.313 1.5 2.125 0.438-0.313 1.063-1.25 1.063-0.75 0.563 0.875-1.25 0.875c-0.625 0.5-0.875 1.313-0.625 2.063 0 0 0 0.063 0 0.063 0 0.688-0.125 1.938-1.125 2.688-0.75 0.625-5.5 4.438-5.5 4.438s-0.75 0.625-0.625 1.063c0.125 0.5 2.938 5.188 2.938 5.188s0.375 0.25 0.625 0.25c0.25-0.125 2.25-1.813 2.938-2.563 1.375-1.25 1.25-2.938 1.375-3.563 0.125-1.125 0.375-1.75 1-2.125 0.5-0.375 0.938 0.125 1.063 0.5s0.25 0.5 0.375 0.75c0.25 0.313 0.375 0.375 0.625 0.25s0.875-0.625 0.875-0.625c0 0 0.375-0.25 0.125-0.75 0 0-0.125-0.188-0.125-0.313 0.25-0.25 0.688-0.688 1.375-1.375 1.25-1.25 0.25-2.875 0.25-2.875s-0.125-0.063-0.125-0.063c0.438-0.375 0.813-0.688 0.813-0.688h0.125c0.313-0.063 0.625-0.125 0.875-0.375l5.188-3.688c0.875-0.625 1.438-2.063 1.313-3.313l-0.063-1.813 10-7.188zM11.313 12.563l0.563 0.813-2.125 1.5-0.063 0.063-0.625-0.813zM12.625 19.75c0.188 0.813-0.125 1.5-0.438 1.813-0.25 0.313-0.5 0.625-0.688 0.813-0.125-0.313-0.188-0.625-0.313-0.813-0.125-0.375 0-0.875 0.75-1.375 0.188-0.125 0.438-0.313 0.688-0.438z"></path>
</svg>
