<!-- Generated by IcoMoon.io -->
<svg version="1.1" xmlns="http://www.w3.org/2000/svg" width="32" height="32" viewBox="0 0 32 32">
<title>Killed-animal</title>
<path d="M17 1.875c-0.188 0.063-0.5 0.25-0.688 0.5-0.125 0.063-0.188 0.188-0.25 0.313-0.25 0.5-0.563 0.813-0.813 0.938-0.125 0-0.188 0-0.563 0.063-0.25 0-0.5 0-0.563 0-0.125 0.063-0.375 0.125-0.438 0.188-0.313 0.125-0.438 0.375-0.438 0.688 0 0.25 0.125 0.375 0.375 0.5 0.125 0.125 0.375 0.125 0.813 0.125h0.313v0.125c0 0.188-0.125 2.125-0.125 2.125 0 0.063-0.063 0.063-0.188 0.125-0.25 0.188-0.5 0.438-0.688 0.75s-0.313 0.813-0.313 1.188v0.125h-0.188c-0.438 0.063-0.938 0.188-1.313 0.313-1.125 0.375-2 1.063-2.438 1.938 0 0.125-0.125 0.313-0.188 0.438-0.125 0.438-0.125 0.625 0 0.813 0.063 0 0.063 0.063 0.125 0.063 0.125 0.063 0.125 0.063 0.063 0.188-0.25 0.313-0.5 0.813-0.688 1.313-0.188 0.688-0.25 1.313-0.188 2.188 0 0.813 0.125 1.188 0.313 1.375 0.125 0.125 0.313 0.188 0.438 0.188 0.125-0.063 0.25-0.063 0.375-0.188s0.375-0.313 0.5-0.375c0.438-0.188 0.938-0.313 1.438-0.25 0.188 0 0.188 0 0.5 0.125 1.063 0.5 2.625 1 4.188 1.5 0.125 0.063 0.25 0.063 0.25 0.063s0 0.125 0.063 0.25c0.125 1.063 0.5 2.375 1.125 3.875 0.25 0.75 0.75 1.875 0.875 2.063 0.063 0 0.063 0.125 0.125 0.125l0.063 0.063-0.188 0.125c-0.5 0.313-0.813 0.625-0.938 1.125-0.063 0.125-0.063 0.188-0.063 0.438 0 0.188 0 0.25 0.063 0.375 0.188 0.688 0.563 1.063 1.063 1.125 0.25 0.063 0.5 0 0.688-0.063l0.063-0.063 0.063 0.188c0.063 0.5 0.375 0.875 0.813 1.063 0.5 0.188 0.938 0.188 1.25 0.125 0.25-0.125 0.375-0.188 0.563-0.375 0.125-0.125 0.25-0.313 0.375-0.5 0-0.063 0.063-0.125 0.063-0.125s0 0 0.063 0c0.188 0.125 0.688 0.313 0.813 0.375h0.063v-0.688h-0.063c-0.125-0.063-0.438-0.25-0.688-0.375-0.375-0.25-0.438-0.25-0.625-0.125-0.063 0.063-0.063 0.125-0.125 0.375-0.125 0.375-0.313 0.688-0.563 0.75-0.188 0.063-0.438 0.063-0.688 0-0.375-0.125-0.5-0.25-0.563-0.5-0.063-0.188-0.125-0.438-0.063-0.625 0-0.25-0.063-0.375-0.188-0.438-0.063 0-0.188 0-0.25 0s-0.063 0.063-0.125 0.063c-0.125 0.063-0.375 0.25-0.5 0.25-0.125 0.063-0.313 0.063-0.438 0-0.063-0.063-0.188-0.188-0.25-0.375-0.188-0.313-0.188-0.563-0.063-0.875 0.063-0.125 0.125-0.188 0.25-0.313 0.188-0.188 0.313-0.25 0.625-0.375 0.25-0.125 0.313-0.188 0.313-0.313 0.063-0.125 0.063-0.188-0.188-0.563-0.125-0.188-0.25-0.375-0.375-0.625-0.563-1.313-1.063-2.625-1.438-3.813-0.125-0.625-0.25-1.188-0.313-1.75-0.063-0.125-0.063-0.188-0.063-0.25s-0.125-0.125-0.125-0.125c-0.063-0.063-0.375-0.125-0.688-0.25-1.5-0.438-2.875-0.938-4-1.438-0.375-0.125-0.375-0.125-0.563-0.125-0.25-0.063-0.75-0.063-1 0-0.5 0.125-0.938 0.313-1.375 0.563-0.063 0.063-0.125 0.125-0.125 0.063-0.125-0.125-0.125-1.5-0.063-1.938 0.063-0.75 0.313-1.375 0.688-1.875 0.125-0.188 0.438-0.5 0.625-0.625s0.188-0.188 0.25-0.313c0-0.188-0.125-0.313-0.25-0.375-0.125 0-0.125 0-0.375 0.063-0.188 0.063-0.313 0.063-0.313 0.063s0.125-0.25 0.125-0.375c0.25-0.438 0.625-0.875 1.125-1.188 0.625-0.438 1.438-0.688 2.438-0.813 0.25 0 0.313-0.063 0.438-0.125v-0.063l0.063-0.375c0-0.5 0.063-0.688 0.188-0.938 0.125-0.375 0.375-0.563 0.688-0.688 0.188-0.125 0.25-0.188 0.25-0.25 0.063-0.063 0.188-2.375 0.188-2.75s0-0.375-0.125-0.5l-0.063-0.063h-0.625c-0.688 0-0.75 0-0.625-0.063 0.188-0.063 0.313-0.063 0.75-0.125 0.5 0 0.563 0 0.813-0.125 0.188-0.063 0.313-0.188 0.5-0.375s0.438-0.5 0.563-0.813c0.125-0.188 0.188-0.25 0.313-0.375h0.063c0 0.125 0 0.25-0.125 0.375-0.25 0.5-0.313 0.688-0.063 0.938 0.063 0.063 0.25 0.188 0.438 0.188 0.063 0 0.063 0 0.188 0.125 0.063 0.063 0.063 0.063 0.063 0.063 0 0.063 0 0.063-0.063 0.063-0.125 0.063-0.688 0.063-1 0-0.25 0-0.375 0-0.438 0.063-0.125 0.063-0.125 0.125-0.188 0.438 0 0.125-0.063 0.313-0.063 0.375 0 0.125-0.25 2.313-0.25 2.438s0.063 0.25 0.188 0.313c0.375 0.25 0.563 0.625 0.563 1.25 0 0.25 0 0.25 0.125 0.375 0 0 0.063 0.063 0.063 0.063 0.063 0 0.375 0 0.813 0 1.188 0.063 1.25 0.063 1.313 0.063 0.063-0.063 0.125-0.125 0.188-0.188 0-0.125 0.188-0.313 0.25-0.438 0.125-0.125 0.25-0.188 0.375-0.25 0.188-0.063 0.25-0.125 0.313-0.25 0.063-0.25 0.563-3.063 0.563-3.063 0-0.125-0.063-0.188-0.125-0.25s-0.125-0.063-0.313-0.125c-0.438 0-1-0.125-1-0.125s0-0.063 0.063-0.063c0.125-0.063 0.5-0.063 0.813 0 0.625 0.063 1-0.063 1.5-0.438 0.125-0.125 0.313-0.375 0.5-0.625 0.063-0.063 0.125-0.125 0.125-0.188 0.063-0.063 0.25-0.188 0.313-0.188 0 0-0.063 0.188-0.063 0.25-0.063 0-0.125 0.125-0.188 0.188-0.188 0.25-0.25 0.438-0.25 0.563s0 0.188 0.125 0.313c0.125 0.125 0.313 0.188 0.75 0.313 0.125 0 0.25 0.063 0.25 0.063 0.063 0 0.063 0 0 0s-0.875 0-1.375 0c-0.25-0.063-0.438-0.063-0.438 0-0.125 0-0.188 0.125-0.25 0.188 0 0-0.125 0.75-0.313 1.688-0.25 1.313-0.313 1.625-0.313 1.688 0 0.125 0.063 0.188 0.188 0.25 0.438 0.25 0.563 0.688 0.5 1.313-0.063 0.313 0 0.313 0.313 0.563 0.813 0.625 1.375 1.188 1.813 1.75 0.063 0.125 0.188 0.375 0.25 0.5s0.125 0.25 0.188 0.313c0.313 0.5 0.563 1.25 0.688 1.938 0.125 0.625 0.188 1.188 0.125 2.25-0.063 2.438-0.188 3.813-0.313 4.688 0 0.25 0 0.25 0 0.375 0 0.063 0.125 0.188 0.25 0.188 0.313 0.125 0.75 0.375 1.063 0.563 0.125 0.125 0.375 0.313 0.375 0.375 0 0-0.25 0.188-0.375 0.313-0.313 0.188-0.75 0.313-1.25 0.375-0.438 0.063-0.5 0.063-0.625 0.375-0.125 0.5-0.313 0.938-0.438 1.125s-0.125 0.25-0.063 0.438c0 0.063 0.125 0.125 0.313 0.188 0.125 0 0.25 0.063 0.375 0.063 0.688 0.25 1.125 0.75 1.125 1.375 0 0.125-0.063 0.313-0.063 0.375-0.063 0.063 0 0.063 0.313 0.063h0.375v-0.125c0.063-0.313 0.063-0.625-0.063-0.938-0.25-0.625-0.75-1.125-1.563-1.375 0 0 0 0 0-0.063 0.063-0.188 0.25-0.563 0.25-0.688 0.063-0.063 0.063-0.125 0.063-0.125 0.063 0 0.125 0 0.188-0.063 0.5 0 1.063-0.188 1.5-0.5 0.188-0.125 0.563-0.5 0.625-0.625 0.063-0.063 0.063-0.125 0.063-0.188 0-0.125-0.125-0.313-0.375-0.563-0.313-0.313-0.563-0.5-1.063-0.75-0.125-0.063-0.313-0.125-0.313-0.125s0-0.125 0-0.25c0.125-0.938 0.25-2.25 0.313-4.5 0-0.813 0-1.125-0.063-1.625-0.063-0.75-0.188-1.5-0.438-2.063-0.125-0.25-0.313-0.625-0.438-0.813 0-0.063-0.125-0.188-0.125-0.313-0.313-0.563-0.625-1-1.188-1.5-0.313-0.313-0.563-0.563-0.875-0.813l-0.25-0.188v-0.25c0-0.563-0.188-1.063-0.563-1.438l-0.125-0.125 0.25-1.313c0.125-0.75 0.25-1.313 0.313-1.375 0 0 0.188 0 0.5 0.063 0.625 0 1.063 0 1.313-0.063 0.438-0.125 0.625-0.25 0.625-0.563 0-0.375-0.375-0.625-1.125-0.813-0.125 0-0.25-0.063-0.25-0.063s0.063-0.063 0.063-0.063c0.188-0.25 0.313-0.5 0.313-0.813 0.063-0.25 0-0.438-0.125-0.563s-0.25-0.125-0.438-0.125c-0.188 0-0.375 0.063-0.625 0.25-0.188 0.125-0.313 0.25-0.438 0.438-0.188 0.25-0.375 0.438-0.5 0.563-0.313 0.25-0.5 0.25-0.875 0.188-0.25 0-0.625 0-0.813 0s-0.375 0.063-0.5 0.188c-0.375 0.188-0.438 0.688-0.188 0.938 0.188 0.188 0.438 0.313 1 0.375 0.125 0 0.25 0.063 0.25 0.063s-0.438 2.375-0.438 2.438c0 0-0.063 0-0.125 0.063-0.25 0.125-0.5 0.375-0.625 0.625l-0.063 0.063h-0.313c-0.188 0-0.438 0-0.688 0h-0.313l-0.063-0.188c-0.063-0.5-0.25-0.875-0.563-1.188l-0.125-0.125 0.063-0.813c0.125-0.75 0.188-1.688 0.25-1.688 0 0 0.063 0 0.125 0 0.188 0.063 0.75 0 0.875 0 0.313-0.063 0.5-0.188 0.625-0.438 0.063-0.063 0.063-0.125 0.063-0.25 0-0.063 0-0.125-0.063-0.188-0.063-0.313-0.375-0.625-0.688-0.688 0 0-0.063 0-0.063 0s0.063-0.063 0.063-0.125c0.188-0.313 0.25-0.5 0.25-0.813 0-0.25 0-0.25-0.063-0.375-0.063-0.25-0.313-0.375-0.625-0.313zM21.25 24c0 0 0.063 0.125 0.125 0.25l0.188 0.25-0.063 0.063c-0.063 0.125-0.063 0.313 0 0.375v0.063l-0.188 0.25c-0.063 0.125-0.125 0.25-0.125 0.25s0.125 0 0.25 0h0.25l0.125-0.188h0.125c0.063 0 0.125 0 0.125-0.063 0.063 0 0.063 0 0.125 0.125l0.125 0.125h0.313v-0.313l-0.063-0.125-0.125-0.125v-0.125c0-0.063 0-0.125 0-0.188v-0.063l0.063-0.188c0.125-0.125 0.125-0.125 0.125-0.25v-0.125h-0.375l-0.125 0.25h-0.25l-0.125-0.25h-0.25c-0.125 0-0.25 0-0.25 0zM29.375 28.813c0 0 0 0.063 0 0.063 0 0.125 0 0.188 0.125 0.188h0.063v-0.313h-0.063c-0.063 0-0.063 0-0.125 0.063z"></path>
</svg>
