<!-- Generated by IcoMoon.io -->
<svg version="1.1" xmlns="http://www.w3.org/2000/svg" width="32" height="32" viewBox="0 0 32 32">
<title>killed-person</title>
<path d="M15 2c0 0.26 0.22 0.26 0.6 0 0.24-0.16 0.22-0.2-0.14-0.2-0.26 0-0.46 0.080-0.46 0.2z"></path>
<path d="M16.2 2c0.4 0.26 0.86 0.26 0.7 0-0.060-0.12-0.32-0.2-0.56-0.2-0.36 0-0.38 0.040-0.14 0.2z"></path>
<path d="M14 2.5c-0.32 0.38 0 0.38 0.52 0 0.32-0.24 0.32-0.28 0.060-0.3-0.18 0-0.44 0.14-0.58 0.3z"></path>
<path d="M17.2 2.36c0 0.1 0.1 0.26 0.24 0.4 0.32 0.32 0.58 0.3 0.44-0.040-0.12-0.32-0.68-0.6-0.68-0.36z"></path>
<path d="M13.56 3.12c-0.1 0.080-0.16 0.32-0.16 0.56 0 0.28 0.060 0.34 0.22 0.18 0.12-0.12 0.18-0.38 0.14-0.56-0.020-0.18-0.12-0.26-0.2-0.18z"></path>
<path d="M16.6 3.38c-0.52 0.2-0.46 0.76 0.060 0.76 0.34 0 0.46-0.1 0.44-0.36-0.040-0.48-0.14-0.56-0.5-0.4z"></path>
<path d="M18 3.64c0 0.32 0.1 0.56 0.2 0.56 0.26 0 0.26-0.4 0-0.8-0.16-0.24-0.2-0.18-0.2 0.24z"></path>
<path d="M14.68 3.78c0 0.24 0.14 0.36 0.42 0.36s0.42-0.12 0.42-0.36c0-0.26-0.14-0.38-0.42-0.38s-0.42 0.12-0.42 0.38z"></path>
<path d="M13.4 4.54c0 0.24 0.1 0.5 0.2 0.56 0.26 0.16 0.26-0.3 0-0.7-0.16-0.24-0.2-0.22-0.2 0.14z"></path>
<path d="M18 4.82c-0.26 0.48-0.080 0.82 0.2 0.38 0.2-0.32 0.26-0.8 0.1-0.8-0.040 0-0.18 0.18-0.3 0.42z"></path>
<path d="M13.8 5.56c0 0.1 0.14 0.3 0.3 0.44s0.3 0.16 0.3 0.040c0-0.1-0.14-0.3-0.3-0.44s-0.3-0.16-0.3-0.040z"></path>
<path d="M17.34 5.9c-0.2 0.14-0.28 0.32-0.18 0.38s0.3-0.020 0.44-0.18c0.34-0.42 0.18-0.54-0.26-0.2z"></path>
<path d="M14.8 6.4c0 0.080 0.18 0.2 0.4 0.26s0.4 0.040 0.4-0.060c0-0.080-0.18-0.2-0.4-0.26s-0.4-0.040-0.4 0.060z"></path>
<path d="M16.36 6.36c-0.2 0.040-0.36 0.16-0.36 0.26 0 0.26 0.54 0.22 0.7-0.040 0.18-0.26 0.080-0.32-0.34-0.22z"></path>
<path d="M14.6 7.2c0 0.1 0.18 0.2 0.38 0.2 0.22 0 0.46-0.1 0.52-0.2 0.080-0.12-0.1-0.2-0.38-0.2s-0.52 0.080-0.52 0.2z"></path>
<path d="M15.8 7.2c0 0.1 0.22 0.2 0.5 0.2s0.5-0.1 0.5-0.2c0-0.12-0.22-0.2-0.5-0.2s-0.5 0.080-0.5 0.2z"></path>
<path d="M13.54 7.34c-0.080 0.060-0.14 0.2-0.14 0.28 0 0.18 0.78-0.020 0.92-0.24 0.12-0.2-0.58-0.24-0.78-0.040z"></path>
<path d="M17.3 7.4c0.54 0.24 0.7 0.24 0.7 0 0-0.12-0.24-0.2-0.54-0.18-0.5 0-0.52 0.020-0.16 0.18z"></path>
<path d="M18.32 7.56c-0.060 0.080 0.080 0.26 0.28 0.4 0.22 0.12 0.42 0.16 0.48 0.080s-0.080-0.26-0.28-0.4c-0.22-0.12-0.42-0.16-0.48-0.080z"></path>
<path d="M12.64 7.84c-0.38 0.38-0.28 0.58 0.16 0.32 0.4-0.26 0.54-0.56 0.24-0.56-0.080 0-0.26 0.1-0.4 0.24z"></path>
<path d="M19.22 8.3c0 0.1 0.16 0.52 0.38 0.9 0.32 0.56 0.38 0.62 0.4 0.28 0-0.24-0.18-0.64-0.4-0.9-0.2-0.26-0.38-0.4-0.38-0.28z"></path>
<path d="M11.8 9c-0.14 0.26-0.14 0.4-0.020 0.4s0.3-0.18 0.42-0.4c0.14-0.26 0.14-0.4 0.020-0.4s-0.3 0.18-0.42 0.4z"></path>
<path d="M11.6 10.24c0 0.38 0.040 0.4 0.2 0.16 0.26-0.38 0.26-0.6 0-0.6-0.1 0-0.2 0.2-0.2 0.44z"></path>
<path d="M19.8 10.24c0 0.14 0.1 0.4 0.2 0.56 0.16 0.24 0.2 0.18 0.2-0.26 0-0.3-0.080-0.54-0.2-0.54-0.1 0-0.2 0.12-0.2 0.24z"></path>
<path d="M13.040 11.7c0.040 0.5 0 0.9-0.080 0.9-0.24 0-0.18 0.7 0.080 0.96 0.18 0.18 0.18 0.24 0 0.24-0.14 0-0.22 0.24-0.22 0.54 0.040 0.48 0.040 0.5 0.12 0.1 0.040-0.24 0.22-0.44 0.4-0.44 0.22 0 0.26-0.1 0.16-0.36-0.1-0.18-0.14-0.9-0.12-1.6 0.040-0.84-0.040-1.24-0.18-1.24-0.16 0-0.22 0.3-0.16 0.9z"></path>
<path d="M11.4 11.52c0 0.28 0.080 0.46 0.2 0.38 0.12-0.060 0.2-0.3 0.2-0.52 0-0.2-0.080-0.38-0.2-0.38-0.1 0-0.2 0.24-0.2 0.52z"></path>
<path d="M18.24 11.42c0.020 0.26 0.16 0.46 0.26 0.42 0.3-0.060 0.24-0.7-0.060-0.8-0.18-0.060-0.26 0.060-0.2 0.38z"></path>
<path d="M20 11.68c0 0.28 0.1 0.52 0.2 0.52 0.12 0 0.2-0.18 0.2-0.38 0-0.22-0.080-0.46-0.2-0.52-0.12-0.080-0.2 0.1-0.2 0.38z"></path>
<path d="M11.34 12.34c-0.22 0.2-0.16 0.86 0.060 0.86 0.12 0 0.2-0.22 0.2-0.5 0-0.52-0.040-0.58-0.26-0.36z"></path>
<path d="M18.2 12.7c0 0.32 0.12 0.5 0.3 0.5s0.3-0.18 0.3-0.5c0-0.32-0.12-0.5-0.3-0.5s-0.3 0.18-0.3 0.5z"></path>
<path d="M20.2 12.9c0 0.28 0.080 0.5 0.18 0.5 0.080 0 0.12-0.22 0.060-0.5-0.040-0.28-0.12-0.5-0.16-0.5s-0.080 0.22-0.080 0.5z"></path>
<path d="M11.2 13.88c0 0.62 0.12 0.68 0.26 0.12 0.060-0.22 0.020-0.46-0.080-0.52s-0.18 0.12-0.18 0.4z"></path>
<path d="M18.2 13.9c0 0.36 0.1 0.5 0.4 0.5 0.48 0 0.56-0.7 0.080-0.88-0.46-0.18-0.48-0.16-0.48 0.38z"></path>
<path d="M20.2 14.18c0 0.22 0.1 0.46 0.2 0.52 0.12 0.080 0.2-0.1 0.2-0.38s-0.080-0.52-0.2-0.52c-0.1 0-0.2 0.18-0.2 0.38z"></path>
<path d="M13.2 14.9c0 0.28 0.1 0.5 0.2 0.5 0.12 0 0.2-0.22 0.2-0.5s-0.080-0.5-0.2-0.5c-0.1 0-0.2 0.22-0.2 0.5z"></path>
<path d="M11.14 14.74c-0.22 0.2-0.16 0.86 0.060 0.86 0.12 0 0.2-0.22 0.2-0.5 0-0.52-0.040-0.58-0.26-0.36z"></path>
<path d="M18.2 15.080c0 0.28 0.1 0.52 0.2 0.52 0.12 0 0.2-0.18 0.2-0.38 0-0.22-0.080-0.46-0.2-0.52-0.12-0.080-0.2 0.1-0.2 0.38z"></path>
<path d="M18.8 15.32c0 0.28 0.080 0.46 0.18 0.4s0.14-0.3 0.080-0.52c-0.14-0.56-0.26-0.5-0.26 0.12z"></path>
<path d="M12.6 15.5c0 0.28 0.1 0.5 0.2 0.5 0.12 0 0.2-0.22 0.2-0.5s-0.080-0.5-0.2-0.5c-0.1 0-0.2 0.22-0.2 0.5z"></path>
<path d="M20.4 15.48c0 0.28 0.1 0.52 0.2 0.52 0.12 0 0.2-0.18 0.2-0.38 0-0.22-0.080-0.46-0.2-0.52-0.12-0.080-0.2 0.1-0.2 0.38z"></path>
<path d="M13.2 16.1c0 0.28 0.1 0.5 0.2 0.5 0.12 0 0.2-0.22 0.2-0.5s-0.080-0.5-0.2-0.5c-0.1 0-0.2 0.22-0.2 0.5z"></path>
<path d="M10.94 16.4c-0.060 0.22-0.020 0.4 0.080 0.4s0.18-0.18 0.18-0.4c0-0.22-0.040-0.4-0.080-0.4s-0.12 0.18-0.18 0.4z"></path>
<path d="M18.2 16.4c0 0.22 0.1 0.4 0.2 0.4 0.12 0 0.2-0.18 0.2-0.4s-0.080-0.4-0.2-0.4c-0.1 0-0.2 0.18-0.2 0.4z"></path>
<path d="M18.8 16.38c0 0.22 0.1 0.46 0.2 0.52 0.12 0.080 0.2-0.1 0.2-0.38s-0.080-0.52-0.2-0.52c-0.1 0-0.2 0.18-0.2 0.38z"></path>
<path d="M12.56 16.6c-0.14 0.48-0.060 0.76 0.16 0.56 0.060-0.080 0.080-0.34 0.040-0.6l-0.060-0.46-0.14 0.5z"></path>
<path d="M20.4 16.44c0 0.14 0.1 0.4 0.2 0.56 0.16 0.24 0.2 0.18 0.2-0.26 0-0.3-0.080-0.54-0.2-0.54-0.1 0-0.2 0.12-0.2 0.24z"></path>
<path d="M13.2 17.28c0 0.28 0.1 0.52 0.2 0.52 0.12 0 0.2-0.18 0.2-0.38 0-0.22-0.080-0.46-0.2-0.52-0.12-0.080-0.2 0.1-0.2 0.38z"></path>
<path d="M11 17.6c0.12 0.22 0.3 0.4 0.4 0.4 0.12 0 0.1-0.18-0.040-0.4s-0.32-0.4-0.42-0.4c-0.080 0-0.060 0.18 0.060 0.4z"></path>
<path d="M18.2 17.7c0 0.28 0.1 0.5 0.2 0.5 0.12 0 0.2-0.22 0.2-0.5s-0.080-0.5-0.2-0.5c-0.1 0-0.2 0.22-0.2 0.5z"></path>
<path d="M19 17.44c0 0.36 0.36 0.68 0.56 0.48 0.060-0.080-0.040-0.28-0.22-0.46-0.32-0.32-0.34-0.32-0.34-0.020z"></path>
<path d="M12.12 17.72c-0.22 0.14-0.32 0.34-0.26 0.42 0.080 0.080 0.3-0.020 0.48-0.2 0.44-0.42 0.28-0.6-0.22-0.22z"></path>
<path d="M20.24 17.64c-0.38 0.38-0.28 0.6 0.16 0.36 0.22-0.12 0.4-0.3 0.4-0.4 0-0.28-0.28-0.24-0.56 0.040z"></path>
<path d="M13.24 18.6c0 0.28 0.040 0.38 0.1 0.24 0.040-0.12 0.040-0.36 0-0.5-0.060-0.12-0.1-0.020-0.1 0.26z"></path>
<path d="M15.64 19.24c-0.020 0.92 0.020 1 0.28 0.72 0.22-0.22 0.28-0.5 0.18-1.040-0.2-1.040-0.42-0.88-0.46 0.32z"></path>
<path d="M18.2 18.78c0 0.22 0.1 0.46 0.2 0.52 0.12 0.080 0.2-0.1 0.2-0.38s-0.080-0.52-0.2-0.52c-0.1 0-0.2 0.18-0.2 0.38z"></path>
<path d="M13.060 19.72c-0.060 0.16-0.020 0.4 0.12 0.54 0.16 0.16 0.22 0.080 0.22-0.32 0-0.6-0.14-0.7-0.34-0.22z"></path>
<path d="M18.44 20.1c0 0.32 0.040 0.44 0.1 0.24 0.040-0.18 0.040-0.46 0-0.6-0.060-0.12-0.1 0.020-0.1 0.36z"></path>
<path d="M16.040 20.7c0 0.32 0.040 0.44 0.1 0.24 0.040-0.18 0.040-0.46 0-0.6-0.060-0.12-0.1 0.020-0.1 0.36z"></path>
<path d="M15.4 20.9c0 0.28 0.1 0.5 0.2 0.5 0.12 0 0.2-0.22 0.2-0.5s-0.080-0.5-0.2-0.5c-0.1 0-0.2 0.22-0.2 0.5z"></path>
<path d="M13 21.1c0 0.28 0.1 0.5 0.2 0.5 0.12 0 0.2-0.22 0.2-0.5s-0.080-0.5-0.2-0.5c-0.1 0-0.2 0.22-0.2 0.5z"></path>
<path d="M18.4 21.4c0 0.22 0.080 0.4 0.18 0.4s0.14-0.18 0.080-0.4c-0.060-0.22-0.14-0.4-0.18-0.4s-0.080 0.18-0.080 0.4z"></path>
<path d="M16 21.78c0 0.22 0.1 0.46 0.2 0.52 0.12 0.080 0.2-0.1 0.2-0.38s-0.080-0.52-0.2-0.52c-0.1 0-0.2 0.18-0.2 0.38z"></path>
<path d="M15.36 22c-0.14 0.48-0.060 0.76 0.16 0.56 0.060-0.080 0.080-0.34 0.040-0.6l-0.060-0.46-0.14 0.5z"></path>
<path d="M13 22.3c0 0.28 0.1 0.5 0.2 0.5 0.12 0 0.2-0.22 0.2-0.5s-0.080-0.5-0.2-0.5c-0.1 0-0.2 0.22-0.2 0.5z"></path>
<path d="M18.4 22.72c0 0.28 0.080 0.46 0.2 0.38 0.12-0.060 0.2-0.3 0.2-0.52 0-0.2-0.080-0.38-0.2-0.38-0.1 0-0.2 0.24-0.2 0.52z"></path>
<path d="M16.2 23.040c0 0.32 0.1 0.56 0.2 0.56 0.26 0 0.26-0.4 0-0.8-0.16-0.24-0.2-0.18-0.2 0.24z"></path>
<path d="M15.2 23.42c0 0.22 0.1 0.34 0.2 0.28 0.12-0.060 0.2-0.26 0.2-0.42s-0.080-0.28-0.2-0.28c-0.1 0-0.2 0.18-0.2 0.42z"></path>
<path d="M13 23.6c0 0.22 0.040 0.4 0.080 0.4s0.12-0.18 0.18-0.4c0.060-0.22 0.020-0.4-0.080-0.4s-0.18 0.18-0.18 0.4z"></path>
<path d="M18.4 23.9c0 0.28 0.1 0.5 0.2 0.5 0.12 0 0.2-0.22 0.2-0.5s-0.080-0.5-0.2-0.5c-0.1 0-0.2 0.22-0.2 0.5z"></path>
<path d="M16.3 24c-0.060 0.1-0.020 0.36 0.080 0.54 0.18 0.32 0.2 0.28 0.22-0.2 0-0.56-0.1-0.68-0.3-0.34z"></path>
<path d="M15 24.58c0 0.22 0.1 0.46 0.2 0.52 0.12 0.080 0.2-0.1 0.2-0.38s-0.080-0.52-0.2-0.52c-0.1 0-0.2 0.18-0.2 0.38z"></path>
<path d="M13.040 24.9c0 0.32 0.040 0.44 0.1 0.24 0.040-0.18 0.040-0.46 0-0.6-0.060-0.12-0.1 0.020-0.1 0.36z"></path>
<path d="M18.54 24.74c-0.22 0.2-0.16 0.86 0.060 0.86 0.12 0 0.2-0.22 0.2-0.5 0-0.52-0.040-0.58-0.26-0.36z"></path>
<path d="M16.4 25.6c0 0.22 0.1 0.4 0.2 0.4 0.12 0 0.2-0.18 0.2-0.4s-0.080-0.4-0.2-0.4c-0.1 0-0.2 0.18-0.2 0.4z"></path>
<path d="M15 25.9c0 0.28 0.040 0.5 0.080 0.5s0.12-0.22 0.16-0.5c0.060-0.28 0.020-0.5-0.060-0.5-0.1 0-0.18 0.22-0.18 0.5z"></path>
<path d="M12.94 25.74c-0.22 0.2-0.16 0.86 0.060 0.86 0.12 0 0.2-0.22 0.2-0.5 0-0.52-0.040-0.58-0.26-0.36z"></path>
<path d="M18.64 26.4c0 0.28 0.040 0.38 0.1 0.24 0.040-0.12 0.040-0.36 0-0.5-0.060-0.12-0.1-0.020-0.1 0.26z"></path>
<path d="M16.6 26.92c0 0.28 0.080 0.46 0.18 0.4s0.14-0.3 0.080-0.52c-0.14-0.56-0.26-0.5-0.26 0.12z"></path>
<path d="M14.8 27.1c0 0.28 0.1 0.5 0.2 0.5 0.12 0 0.2-0.22 0.2-0.5s-0.080-0.5-0.2-0.5c-0.1 0-0.2 0.22-0.2 0.5z"></path>
<path d="M12.94 26.94c-0.22 0.2-0.16 0.86 0.060 0.86 0.12 0 0.2-0.22 0.2-0.5 0-0.52-0.040-0.58-0.26-0.36z"></path>
<path d="M18.6 27.7c0 0.3 0.080 0.48 0.2 0.4 0.12-0.060 0.2-0.24 0.2-0.4s-0.080-0.34-0.2-0.4c-0.12-0.080-0.2 0.1-0.2 0.4z"></path>
<path d="M16.6 27.98c0 0.22 0.1 0.46 0.2 0.52 0.12 0.080 0.2-0.1 0.2-0.38s-0.080-0.52-0.2-0.52c-0.1 0-0.2 0.18-0.2 0.38z"></path>
<path d="M14.72 28.16c-0.080 0.26-0.1 0.52-0.040 0.58 0.2 0.22 0.36-0.080 0.28-0.58l-0.080-0.46-0.16 0.46z"></path>
<path d="M12.8 28.6c0 0.22 0.1 0.4 0.2 0.4 0.12 0 0.2-0.18 0.2-0.4s-0.080-0.4-0.2-0.4c-0.1 0-0.2 0.18-0.2 0.4z"></path>
<path d="M18.6 28.92c0 0.28 0.080 0.46 0.2 0.38 0.12-0.060 0.2-0.3 0.2-0.52 0-0.2-0.080-0.38-0.2-0.38-0.1 0-0.2 0.24-0.2 0.52z"></path>
<path d="M16.8 29.040c0 0.18 0.1 0.4 0.22 0.46 0.34 0.22 0.4 0 0.080-0.42-0.26-0.34-0.28-0.34-0.3-0.040z"></path>
<path d="M14.4 29.5c-0.16 0.18-0.16 0.3-0.040 0.3 0.24 0 0.52-0.38 0.38-0.52-0.040-0.040-0.2 0.040-0.34 0.22z"></path>
<path d="M13.28 29.7c0.22 0.16 0.44 0.24 0.5 0.18 0.12-0.12-0.38-0.48-0.68-0.48-0.1 0.020-0.020 0.14 0.18 0.3z"></path>
<path d="M17.6 29.8c0 0.26 0.4 0.26 0.8 0 0.24-0.16 0.18-0.2-0.24-0.2-0.32 0-0.56 0.080-0.56 0.2z"></path>
</svg>
