<!-- Generated by IcoMoon.io -->
<svg version="1.1" xmlns="http://www.w3.org/2000/svg" width="32" height="32" viewBox="0 0 32 32">
<title>Killed</title>
<path d="M0.313-2.125h-0.063c0 0.063-0.063 0.063-0.063 0.063-0.063 0-0.125 0-0.125-0.125 0-0.063 0.063-0.063 0.125-0.063 0 0 0.063 0 0.063 0.063h0.063c0-0.125-0.063-0.125-0.125-0.125-0.125 0-0.188 0.063-0.188 0.125 0 0.125 0.063 0.188 0.188 0.188 0.063 0 0.125-0.063 0.125-0.125zM0.188-2.188v-0.063c0 0-0.063 0-0.063 0s0 0-0.063 0.063v-0.063h-0.063v0.25h0.063v-0.125c0-0.063 0.063-0.063 0.063-0.063s0 0 0.063 0zM0.25-2.125c0-0.063-0.063-0.125-0.125-0.125s-0.125 0.063-0.125 0.125c0 0.063 0.063 0.125 0.125 0.125s0.063 0 0.125-0.063h-0.063c0 0-0.063 0-0.063 0-0.063 0-0.063 0-0.063-0.063h0.188zM0.188-2.125h-0.125c0-0.063 0-0.063 0.063-0.063 0 0 0.063 0 0.063 0.063zM0.25-2v0c-0.063 0-0.063 0-0.063-0.063v-0.125c0 0 0-0.063-0.063-0.063s-0.125 0.063-0.125 0.063h0.063c0 0 0 0 0.063 0 0 0 0 0 0 0 0 0.063 0 0.063 0 0.063h-0.063c0 0-0.063 0-0.063 0.063s0.063 0.063 0.063 0.063 0.063 0 0.063 0 0.063 0 0.063 0zM0.125-2.125c0 0.063 0 0.063 0 0.063-0.063 0-0.063 0-0.063 0s0-0.063 0.063-0.063v0c0 0 0 0 0 0zM0.125-2v-0.063c0 0 0 0 0 0s0 0 0 0v-0.25h-0.063v0.063h-0.063v0.063h0.063v0.125c0 0.063 0 0.063 0.063 0.063 0 0 0 0 0 0zM0.25-2v-0.313h-0.063v0.125c0-0.063-0.063-0.063-0.063-0.063-0.063 0-0.125 0.063-0.125 0.125s0.063 0.125 0.125 0.125c0 0 0.063 0 0.063 0v0zM0.188-2.125c0 0.063-0.063 0.063-0.063 0.063s-0.063 0-0.063-0.063c0-0.063 0.063-0.063 0.063-0.063 0.063 0 0.063 0 0.063 0.063zM0.25-2.125c0-0.063-0.063-0.125-0.125-0.125 0 0 0 0-0.063 0.063v-0.125h-0.063v0.313h0.063c0.063 0 0.063 0 0.063 0 0.063 0 0.125-0.063 0.125-0.125zM0.188-2.125c0 0.063 0 0.063-0.063 0.063 0 0-0.063 0-0.063-0.063s0.063-0.063 0.063-0.063 0.063 0 0.063 0.063zM0.25-2.25h-0.063l-0.063 0.188-0.063-0.188h-0.063l0.063 0.25c0 0.063 0 0.063 0 0.063s0 0 0 0v0.063c0 0 0 0 0 0 0.063 0 0.063-0.063 0.063-0.063zM0.313-2v-0.188h-0.125v0.063h0.063c0 0.063-0.063 0.063-0.063 0.063-0.063 0-0.125-0.063-0.125-0.125s0.063-0.063 0.125-0.063c0 0 0.063 0 0.063 0.063h0.063c0-0.125-0.063-0.125-0.125-0.125-0.125 0-0.188 0.063-0.188 0.125 0 0.125 0.063 0.188 0.188 0.188 0 0 0.063 0 0.063-0.063v0.063zM0.25-2v-0.188c0 0-0.063-0.063-0.063-0.063-0.063 0-0.063 0-0.125 0.063v-0.063h-0.063v0.25h0.063v-0.125c0-0.063 0.063-0.063 0.063-0.063 0.063 0 0.063 0 0.063 0.063v0.125zM0.313-2l-0.125-0.188 0.125-0.125h-0.063l-0.125 0.125v-0.125h-0.063v0.313h0.063v-0.125l0.125 0.125zM0.25-2v-0.188c0 0-0.063-0.063-0.063-0.063-0.063 0-0.063 0-0.125 0.063v-0.125h-0.063v0.313h0.063v-0.125c0-0.063 0.063-0.063 0.063-0.063 0.063 0 0.063 0 0.063 0.063v0.125zM0.25-2.125c0-0.063-0.063-0.125-0.125-0.125s-0.125 0.063-0.125 0.125c0 0.063 0.063 0.125 0.125 0.125s0.125-0.063 0.125-0.125zM0.188-2.125c0 0.063 0 0.063-0.063 0.063 0 0-0.063 0-0.063-0.063s0.063-0.063 0.063-0.063 0.063 0 0.063 0.063zM0.25-2v-0.063h-0.125v-0.25h-0.063v0.313zM0.125-2.188v-0.063c0 0 0 0 0 0s0 0 0 0v-0.063c0 0 0 0 0 0-0.063 0-0.063 0-0.063 0.063v0h-0.063v0.063h0.063v0.188h0.063v-0.188zM0.375-2v-0.188c0 0-0.063-0.063-0.063-0.063-0.063 0-0.063 0-0.125 0.063 0-0.063 0-0.063-0.063-0.063 0 0 0 0-0.063 0.063v-0.063h-0.063v0.25h0.063v-0.125c0-0.063 0.063-0.063 0.063-0.063s0.063 0 0.063 0v0.188h0.063v-0.125c0-0.063 0-0.063 0-0.063 0.063 0 0.063 0 0.063 0v0.188zM0.313-2v-0.313h-0.063v0.188l-0.125-0.188h-0.125v0.313h0.125v-0.25l0.125 0.25zM0.25-2v-0.25h-0.063v0.125c0 0.063-0.063 0.063-0.063 0.063s-0.063 0-0.063 0v-0.188h-0.063v0.188c0 0.063 0.063 0.063 0.125 0.063 0 0 0.063 0 0.063-0.063v0.063zM0.25-2.25c0-0.063 0-0.063-0.063-0.063h-0.125v0.313h0.063v-0.125h0.063c0.063 0 0.063 0 0.063-0.125zM0.188-2.188c0 0 0 0 0 0h-0.063v-0.063h0.063c0 0 0 0 0 0.063zM0.063-1.938v-0.313h-0.063v0.25c0 0.063 0 0.063 0 0.063s0 0 0 0v0c0 0.063 0 0.063 0.063 0.063 0 0 0-0.063 0-0.063zM0.063-2.25v-0.063h-0.063v0.063zM0.25-2.063h-0.063c0 0-0.063 0-0.063 0s-0.063 0-0.063-0.063c0-0.063 0-0.063 0.063-0.063 0 0 0.063 0 0.063 0.063h0.063c0-0.063-0.063-0.125-0.125-0.125s-0.125 0.063-0.125 0.125c0 0.063 0.063 0.125 0.125 0.125s0.125-0.063 0.125-0.063zM5.438 4.75l0.375 0.188c0.375-0.188 0.625-0.5 0.813-0.875-0.188-0.063-0.375-0.125-0.5-0.188-0.938-0.438-1.563-1-1.5-1.313 0.063 0.313 0.75 0.75 1.688 1 0.688 0.188 1.313 0.188 1.625 0.125 0.188-0.063 0.313-0.125 0.313-0.25 0.125-0.313-0.625-0.813-1.625-1.125-0.063 0-0.063 0-0.125 0-0.25-0.438-0.625-0.75-1.125-0.938-1.063-0.25-2.125 0.313-2.438 1.375-0.25 0.875 0.125 1.813 0.938 2.25l0.813 0.188zM8.938 8.875l-3.25-1.625c-0.125 0.125-0.25 0.25-0.438 0.313l-4.25 1.438c0 0 0 0 0 0 0.063 0.875 0.188 1.75 0.438 2.75 0 0.063 0 0.125 0 0.188 0 0 1.063 3.813-0.938 8.125-0.25 0.5 0 1.188 0.563 1.438 0.125 0.063 0.25 0.125 0.438 0.125 0.438 0 0.813-0.25 1-0.625 1.438-3.188 1.5-6.125 1.375-7.938 0 0.063 0.063 0.063 0.125 0.063l-0.125 0.188c0.125 0.063 2.813 1.375 1.375 6.938-0.188 0.563 0.188 1.188 0.75 1.313 0.125 0 0.188 0.063 0.313 0.063 0.438 0 0.875-0.375 1-0.813 1.5-5.75-0.625-8.188-1.875-9.063-0.5-1.625-0.25-2.563 0.25-3.625l1.063 1.125c0.125 0.125 0.313 0.188 0.5 0.188 0.063 0 0.125 0 0.125 0l2.438-0.563-0.75-0.313zM3.563 6.25l1.125-0.375c0.063 0 0.188-0.063 0.25-0.063 0.438 0 0.75 0.25 0.875 0.625 0 0.125 0.063 0.188 0.063 0.313l0.125 0.063-0.125 0.313 3 1.5 0.125-0.313 1.375 0.688 0.313-0.688 5.188 2.563 0.313-0.625-10.75-5.25-0.75 0.438-3.813-1.063-0.625 1.938zM8.188 6.75l2.313 1.125-0.063 0.125-2.313-1.125zM0 8.188c0 0 0 0.063 0 0.063s0 0 0 0 0 0.063 0 0.063c0 0 0 0 0 0 0 0.063 0 0.063 0 0.063 0.063 0 0.063 0 0.063 0s0 0 0 0c0 0.063 0 0.063 0 0.125 0 0 0 0 0 0 0.063 0.063 0.063 0.063 0.063 0.063s0 0 0 0c0.063 0.063 0.063 0.063 0.063 0.125 0 0 0 0 0.063 0 0 0 0 0 0.063 0.063 0 0 0 0 0 0s0 0 0.063 0c0 0 0 0 0 0 0 0.063 0 0.063 0 0.063 0.063 0 0.063 0 0.063 0 0.063 0 0.063 0 0.063 0s0.063 0.063 0.063 0.063c0 0 0 0 0.063 0 0 0 0.063 0 0.063 0s0 0 0 0c0.063 0 0.063 0 0.063 0 0.063 0 0.063 0 0.063 0s0 0 0.063 0c0-0.063 0-0.063 0.063-0.063l4.25-1.438c0.375-0.125 0.563-0.5 0.438-0.875s-0.5-0.563-0.875-0.438l-3.938 1.313v-0.188l2.188-0.75-2.125 0.063-0.75 1.313c-0.063 0-0.063 0-0.063 0 0 0.063 0 0.063 0 0.063s0 0 0 0c0 0.063 0 0.063 0 0.063s0 0-0.063 0c0 0.063 0 0.063 0 0.063s0 0 0 0c0 0.063 0 0.063 0 0.063s0 0 0 0.063c0 0 0 0 0 0s0 0 0 0.063c0 0 0 0 0 0zM30.625 18.375c-0.313-0.438-0.688 0.125-1.063-0.063-0.063 0-0.063 0-0.125 0 0.438-0.188 0.688-0.813 0.75-1.125 0.125 0.125 0.188 0.313 0.313 0.438 0.813 1.063 0.875 2.063 0.875 2.063 0.063 0.188 0.188 0.313 0.313 0.313 0 0 0 0 0.063 0 0.125-0.063 0.25-0.188 0.25-0.375 0-0.063-0.125-1.125-1-2.375-0.563-0.75-1.25-1.313-2-1.625l-0.75 0.375 0.25-0.5c-0.063-0.063-0.188-0.063-0.25-0.063-1.375-0.188-2.5 0.375-3.063 0.688-0.063-0.125-0.063-0.188-0.125-0.313 0.375-0.063 0.688-0.063 0.688-0.063s-0.25-0.5-0.813-0.563c0.313-0.25 0.625-0.438 0.625-0.438s-0.688-0.375-1.25 0.125l-0.063-0.063c0 0-0.625-0.063-0.875 0.125s-0.438 0.563-0.813 0.438c-0.375-0.125-0.438-0.188-0.625-0.125-0.125 0.063-0.063 1.063 0.25 1.375 0.375 0.313 1.125-0.063 1.25 0.125 0.063 0.125 0.063 0.688-0.063 1.375 0.25 0 0.438-0.063 0.688-0.125l-1.688 2.938c-0.063 0.188 0 0.375 0.125 0.5 0.063 0.063 0.188 0.063 0.25 0.063 0.125 0 0.188 0 0.313-0.125l2.125-2.438c0 0 0.063 0 0.063 0.063v0c0.25 0.063 0.5 0.125 0.75 0.125 0.438 0 1.188-0.813 2.25-0.938-0.563 0.438-1.125 1.063-0.938 1.688 0.188 0.5 0.75 0.438 1.25 0.25v-0.563l0.25 0.438c0.313-0.125 0.563-0.313 0.625-0.375 0.125-0.063-0.188 0.875-0.25 1.438-0.063 0.375 0.125 0.5 0.25 0.5 0.688 0.125 1.438-2.75 1.188-3.188zM23.75 15.563c-0.063 0.125-0.125 0.188-0.25 0.125-0.125 0-0.188-0.125-0.125-0.25 0.063-0.063 0.125-0.125 0.25-0.125 0.125 0.063 0.125 0.188 0.125 0.25zM29.25 14.688c-0.188-0.063-0.313-0.063-0.5 0-0.063 0-0.125 0.063-0.063 0.125 0 0.063 0.063 0.063 0.125 0.063 0.125-0.063 0.25-0.063 0.375-0.063 0.125 0.063 0.188 0.25 0.188 0.25 0.063 0.063 0.063 0.063 0.125 0.063 0 0 0 0 0 0 0.063 0 0.063-0.063 0.063-0.125 0 0-0.063-0.25-0.313-0.313zM29.813 14.875c0 0 0 0 0 0 0.063-0.063 0.063-0.063 0.063-0.125 0 0-0.125-0.375-0.5-0.5-0.25-0.063-0.5-0.063-0.75 0.063-0.063 0-0.063 0.063-0.063 0.125s0.063 0.063 0.125 0.063c0.25-0.125 0.438-0.125 0.625-0.063 0.25 0.063 0.375 0.375 0.375 0.375 0.063 0.063 0.063 0.063 0.125 0.063zM22.875 17.75c-0.063 0-0.125 0-0.125 0.063 0 0-0.125 0.25 0 0.5 0.063 0.125 0.188 0.25 0.438 0.313 0 0 0 0 0 0 0.063 0 0.063-0.063 0.063-0.063 0.063-0.063 0-0.125-0.063-0.125-0.125-0.063-0.25-0.125-0.25-0.25-0.125-0.125-0.063-0.313 0-0.313 0-0.063-0.063-0.125-0.063-0.125zM22.438 17.75c-0.063 0-0.125 0-0.125 0.063 0 0-0.125 0.375 0.063 0.688 0.125 0.25 0.313 0.375 0.625 0.438 0 0 0 0 0 0 0.063 0 0.125 0 0.125-0.063 0 0 0-0.063-0.063-0.063-0.25-0.063-0.438-0.188-0.5-0.375-0.188-0.25-0.063-0.563-0.063-0.563 0-0.063 0-0.125-0.063-0.125z"></path>
</svg>
