<!-- Generated by IcoMoon.io -->
<svg version="1.1" xmlns="http://www.w3.org/2000/svg" width="32" height="32" viewBox="0 0 32 32">
<title>Kiln</title>
<path d="M16 0c-8.813 0-16 7.188-16 16s7.188 16 16 16c8.813 0 16-7.188 16-16s-7.188-16-16-16zM16 29.5c-7.438 0-13.5-6.063-13.5-13.5s6.063-13.5 13.5-13.5c7.438 0 13.5 6.063 13.5 13.5s-6.063 13.5-13.5 13.5zM14.438 8c0 0 5.938 4 5.25 9.5 0 0 2-0.5 1.5-3.813 0 0 2.875 2.813 2.813 5.313-0.063 2.063-2.625 5-7.438 5 0 0 4.375-3.875-1.375-8.813 0 0-5.313 5.25-1.813 8.813 0 0-7.063-1.813-5-6.313s6.625-4.875 6.063-9.688z"></path>
</svg>
