<?xml version="1.0" encoding="UTF-8"?>
<svg width="700pt" height="700pt" version="1.1" viewBox="0 0 700 700" xmlns="http://www.w3.org/2000/svg" xmlns:xlink="http://www.w3.org/1999/xlink">
 <defs>
  <symbol id="x" overflow="visible">
   <path d="m18.766-1.125c-0.96875 0.5-1.9805 0.875-3.0312 1.125-1.043 0.25781-2.1367 0.39062-3.2812 0.39062-3.3984 0-6.0898-0.94531-8.0781-2.8438-1.9922-1.9062-2.9844-4.4844-2.9844-7.7344 0-3.2578 0.99219-5.8359 2.9844-7.7344 1.9883-1.9062 4.6797-2.8594 8.0781-2.8594 1.1445 0 2.2383 0.13281 3.2812 0.39062 1.0508 0.25 2.0625 0.625 3.0312 1.125v4.2188c-0.98047-0.65625-1.9453-1.1406-2.8906-1.4531-0.94922-0.3125-1.9492-0.46875-3-0.46875-1.875 0-3.3516 0.60547-4.4219 1.8125-1.0742 1.1992-1.6094 2.8555-1.6094 4.9688 0 2.1055 0.53516 3.7617 1.6094 4.9688 1.0703 1.1992 2.5469 1.7969 4.4219 1.7969 1.0508 0 2.0508-0.14844 3-0.45312 0.94531-0.3125 1.9102-0.80078 2.8906-1.4688z"/>
  </symbol>
  <symbol id="c" overflow="visible">
   <path d="m13.734-11.141c-0.4375-0.19531-0.87109-0.34375-1.2969-0.4375-0.41797-0.10156-0.83984-0.15625-1.2656-0.15625-1.2617 0-2.2305 0.40625-2.9062 1.2188-0.67969 0.80469-1.0156 1.9531-1.0156 3.4531v7.0625h-4.8906v-15.312h4.8906v2.5156c0.625-1 1.3438-1.7266 2.1562-2.1875 0.82031-0.46875 1.8008-0.70312 2.9375-0.70312 0.16406 0 0.34375 0.011719 0.53125 0.03125 0.19531 0.011719 0.47656 0.039062 0.84375 0.078125z"/>
  </symbol>
  <symbol id="b" overflow="visible">
   <path d="m17.641-7.7031v1.4062h-11.453c0.125 1.1484 0.53906 2.0078 1.25 2.5781 0.70703 0.57422 1.7031 0.85938 2.9844 0.85938 1.0312 0 2.082-0.14844 3.1562-0.45312 1.082-0.3125 2.1914-0.77344 3.3281-1.3906v3.7656c-1.1562 0.4375-2.3125 0.76562-3.4688 0.98438-1.1562 0.22656-2.3125 0.34375-3.4688 0.34375-2.7734 0-4.9297-0.70312-6.4688-2.1094-1.5312-1.4062-2.2969-3.3789-2.2969-5.9219 0-2.5 0.75391-4.4609 2.2656-5.8906 1.5078-1.4375 3.582-2.1562 6.2188-2.1562 2.4062 0 4.332 0.73047 5.7812 2.1875 1.4453 1.4492 2.1719 3.3828 2.1719 5.7969zm-5.0312-1.625c0-0.92578-0.27344-1.6719-0.8125-2.2344-0.54297-0.57031-1.25-0.85938-2.125-0.85938-0.94922 0-1.7188 0.26562-2.3125 0.79688s-0.96484 1.2969-1.1094 2.2969z"/>
  </symbol>
  <symbol id="g" overflow="visible">
   <path d="m9.2188-6.8906c-1.0234 0-1.793 0.17188-2.3125 0.51562-0.51172 0.34375-0.76562 0.85547-0.76562 1.5312 0 0.625 0.20703 1.1172 0.625 1.4688 0.41406 0.34375 0.98828 0.51562 1.7188 0.51562 0.92578 0 1.7031-0.32812 2.3281-0.98438 0.63281-0.66406 0.95312-1.4922 0.95312-2.4844v-0.5625zm7.4688-1.8438v8.7344h-4.9219v-2.2656c-0.65625 0.92969-1.3984 1.6055-2.2188 2.0312-0.82422 0.41406-1.8242 0.625-3 0.625-1.5859 0-2.8711-0.45703-3.8594-1.375-0.99219-0.92578-1.4844-2.1289-1.4844-3.6094 0-1.7891 0.61328-3.1016 1.8438-3.9375 1.2383-0.84375 3.1797-1.2656 5.8281-1.2656h2.8906v-0.39062c0-0.76953-0.30859-1.332-0.92188-1.6875-0.61719-0.36328-1.5703-0.54688-2.8594-0.54688-1.0547 0-2.0312 0.10547-2.9375 0.3125-0.89844 0.21094-1.7305 0.52344-2.5 0.9375v-3.7344c1.0391-0.25 2.0859-0.44141 3.1406-0.57812 1.0625-0.13281 2.125-0.20312 3.1875-0.20312 2.7578 0 4.75 0.54688 5.9688 1.6406 1.2266 1.0859 1.8438 2.8555 1.8438 5.3125z"/>
  </symbol>
  <symbol id="d" overflow="visible">
   <path d="m7.7031-19.656v4.3438h5.0469v3.5h-5.0469v6.5c0 0.71094 0.14062 1.1875 0.42188 1.4375s0.83594 0.375 1.6719 0.375h2.5156v3.5h-4.1875c-1.9375 0-3.3125-0.39844-4.125-1.2031-0.80469-0.8125-1.2031-2.1797-1.2031-4.1094v-6.5h-2.4219v-3.5h2.4219v-4.3438z"/>
  </symbol>
  <symbol id="l" overflow="visible">
   <path d="m12.766-13.078v-8.2031h4.9219v21.281h-4.9219v-2.2188c-0.66797 0.90625-1.4062 1.5703-2.2188 1.9844s-1.7578 0.625-2.8281 0.625c-1.8867 0-3.4336-0.75-4.6406-2.25-1.2109-1.5-1.8125-3.4258-1.8125-5.7812 0-2.3633 0.60156-4.2969 1.8125-5.7969 1.207-1.5 2.7539-2.25 4.6406-2.25 1.0625 0 2 0.21484 2.8125 0.64062 0.82031 0.42969 1.5664 1.0859 2.2344 1.9688zm-3.2188 9.9219c1.0391 0 1.8359-0.37891 2.3906-1.1406 0.55078-0.76953 0.82812-1.8828 0.82812-3.3438 0-1.457-0.27734-2.5664-0.82812-3.3281-0.55469-0.76953-1.3516-1.1562-2.3906-1.1562-1.043 0-1.8398 0.38672-2.3906 1.1562-0.55469 0.76172-0.82812 1.8711-0.82812 3.3281 0 1.4609 0.27344 2.5742 0.82812 3.3438 0.55078 0.76172 1.3477 1.1406 2.3906 1.1406z"/>
  </symbol>
  <symbol id="k" overflow="visible">
   <path d="m10.5-3.1562c1.0508 0 1.8516-0.37891 2.4062-1.1406 0.55078-0.76953 0.82812-1.8828 0.82812-3.3438 0-1.457-0.27734-2.5664-0.82812-3.3281-0.55469-0.76953-1.3555-1.1562-2.4062-1.1562-1.0547 0-1.8594 0.38672-2.4219 1.1562-0.55469 0.77344-0.82812 1.8828-0.82812 3.3281 0 1.4492 0.27344 2.5586 0.82812 3.3281 0.5625 0.77344 1.3672 1.1562 2.4219 1.1562zm-3.25-9.9219c0.67578-0.88281 1.4219-1.5391 2.2344-1.9688 0.82031-0.42578 1.7656-0.64062 2.8281-0.64062 1.8945 0 3.4453 0.75 4.6562 2.25 1.207 1.5 1.8125 3.4336 1.8125 5.7969 0 2.3555-0.60547 4.2812-1.8125 5.7812-1.2109 1.5-2.7617 2.25-4.6562 2.25-1.0625 0-2.0078-0.21094-2.8281-0.625-0.8125-0.42578-1.5586-1.0859-2.2344-1.9844v2.2188h-4.8906v-21.281h4.8906z"/>
  </symbol>
  <symbol id="j" overflow="visible">
   <path d="m0.34375-15.312h4.8906l4.125 10.391 3.5-10.391h4.8906l-6.4375 16.766c-0.64844 1.6953-1.4023 2.8828-2.2656 3.5625-0.86719 0.6875-2 1.0312-3.4062 1.0312h-2.8438v-3.2188h1.5312c0.83203 0 1.4375-0.13672 1.8125-0.40625 0.38281-0.26172 0.67969-0.73047 0.89062-1.4062l0.14062-0.42188z"/>
  </symbol>
  <symbol id="i" overflow="visible">
   <path d="m2.5781-20.406h6.6875l4.6562 10.922 4.6719-10.922h6.6875v20.406h-4.9844v-14.938l-4.7031 11.016h-3.3281l-4.7031-11.016v14.938h-4.9844z"/>
  </symbol>
  <symbol id="f" overflow="visible">
   <path d="m2.1875-5.9688v-9.3438h4.9219v1.5312c0 0.83594-0.007813 1.875-0.015625 3.125-0.011719 1.25-0.015625 2.0859-0.015625 2.5 0 1.2422 0.03125 2.1328 0.09375 2.6719 0.070313 0.54297 0.17969 0.93359 0.32812 1.1719 0.20703 0.32422 0.47266 0.57422 0.79688 0.75 0.32031 0.16797 0.69141 0.25 1.1094 0.25 1.0195 0 1.8203-0.39062 2.4062-1.1719 0.58203-0.78125 0.875-1.8672 0.875-3.2656v-7.5625h4.8906v15.312h-4.8906v-2.2188c-0.74219 0.89844-1.5234 1.5586-2.3438 1.9844-0.82422 0.41406-1.7344 0.625-2.7344 0.625-1.7617 0-3.1055-0.53906-4.0312-1.625-0.92969-1.082-1.3906-2.6602-1.3906-4.7344z"/>
  </symbol>
  <symbol id="e" overflow="visible">
   <path d="m2.3594-15.312h4.8906v15.312h-4.8906zm0-5.9688h4.8906v4h-4.8906z"/>
  </symbol>
  <symbol id="w" overflow="visible">
   <path d="m1.5938-15.312h13.359v3.4219l-8.0625 8.3906h8.0625v3.5h-13.688v-3.4219l8.0625-8.3906h-7.7344z"/>
  </symbol>
  <symbol id="a" overflow="visible">
   <path d="m9.6406-12.188c-1.0859 0-1.9141 0.39062-2.4844 1.1719-0.57422 0.78125-0.85938 1.9062-0.85938 3.375s0.28516 2.5938 0.85938 3.375c0.57031 0.77344 1.3984 1.1562 2.4844 1.1562 1.0625 0 1.875-0.38281 2.4375-1.1562 0.57031-0.78125 0.85938-1.9062 0.85938-3.375s-0.28906-2.5938-0.85938-3.375c-0.5625-0.78125-1.375-1.1719-2.4375-1.1719zm0-3.5c2.6328 0 4.6914 0.71484 6.1719 2.1406 1.4766 1.418 2.2188 3.3867 2.2188 5.9062 0 2.5117-0.74219 4.4805-2.2188 5.9062-1.4805 1.418-3.5391 2.125-6.1719 2.125-2.6484 0-4.7148-0.70703-6.2031-2.125-1.4922-1.4258-2.2344-3.3945-2.2344-5.9062 0-2.5195 0.74219-4.4883 2.2344-5.9062 1.4883-1.4258 3.5547-2.1406 6.2031-2.1406z"/>
  </symbol>
  <symbol id="v" overflow="visible">
   <path d="m2.5781-20.406h14.203v3.9688h-8.9531v3.7969h8.4219v3.9844h-8.4219v8.6562h-5.25z"/>
  </symbol>
  <symbol id="u" overflow="visible">
   <path d="m14.312-14.828v3.7188c-1.043-0.4375-2.0547-0.76562-3.0312-0.98438-0.98047-0.21875-1.9023-0.32812-2.7656-0.32812-0.92969 0-1.6211 0.11719-2.0781 0.34375-0.44922 0.23047-0.67188 0.58984-0.67188 1.0781 0 0.38672 0.17188 0.68359 0.51562 0.89062 0.34375 0.21094 0.95703 0.36719 1.8438 0.46875l0.85938 0.125c2.5078 0.32422 4.1953 0.85156 5.0625 1.5781 0.86328 0.73047 1.2969 1.8711 1.2969 3.4219 0 1.6367-0.60547 2.8672-1.8125 3.6875-1.1992 0.8125-2.9922 1.2188-5.375 1.2188-1.0234 0-2.0742-0.078125-3.1562-0.23438-1.0742-0.15625-2.1797-0.39453-3.3125-0.71875v-3.7188c0.96875 0.48047 1.9609 0.83984 2.9844 1.0781 1.0312 0.23047 2.0781 0.34375 3.1406 0.34375 0.95703 0 1.6758-0.12891 2.1562-0.39062 0.47656-0.26953 0.71875-0.66406 0.71875-1.1875 0-0.4375-0.16797-0.75781-0.5-0.96875-0.33594-0.21875-0.99609-0.38281-1.9844-0.5l-0.85938-0.10938c-2.1797-0.26953-3.7031-0.77344-4.5781-1.5156-0.875-0.73828-1.3125-1.8594-1.3125-3.3594 0-1.625 0.55078-2.8281 1.6562-3.6094 1.1133-0.78906 2.8203-1.1875 5.125-1.1875 0.89453 0 1.8359 0.074219 2.8281 0.21875 1 0.13672 2.082 0.35156 3.25 0.64062z"/>
  </symbol>
  <symbol id="h" overflow="visible">
   <path d="m2.3594-21.281h4.8906v21.281h-4.8906z"/>
  </symbol>
  <symbol id="t" overflow="visible">
   <path d="m12.422-21.281v3.2188h-2.7031c-0.6875 0-1.1719 0.125-1.4531 0.375-0.27344 0.25-0.40625 0.6875-0.40625 1.3125v1.0625h4.1875v3.5h-4.1875v11.812h-4.8906v-11.812h-2.4375v-3.5h2.4375v-1.0625c0-1.6641 0.46094-2.8984 1.3906-3.7031 0.92578-0.80078 2.3672-1.2031 4.3281-1.2031z"/>
  </symbol>
  <symbol id="s" overflow="visible">
   <path d="m16.547-12.766c0.61328-0.94531 1.3477-1.6719 2.2031-2.1719 0.85156-0.5 1.7891-0.75 2.8125-0.75 1.7578 0 3.0977 0.54688 4.0156 1.6406 0.92578 1.0859 1.3906 2.6562 1.3906 4.7188v9.3281h-4.9219v-7.9844-0.35938c0.007813-0.13281 0.015625-0.32031 0.015625-0.5625 0-1.082-0.16406-1.8633-0.48438-2.3438-0.3125-0.48828-0.82422-0.73438-1.5312-0.73438-0.92969 0-1.6484 0.38672-2.1562 1.1562-0.51172 0.76172-0.77344 1.8672-0.78125 3.3125v7.5156h-4.9219v-7.9844c0-1.6953-0.14844-2.7852-0.4375-3.2656-0.29297-0.48828-0.8125-0.73438-1.5625-0.73438-0.9375 0-1.6641 0.38672-2.1719 1.1562-0.51172 0.76172-0.76562 1.8594-0.76562 3.2969v7.5312h-4.9219v-15.312h4.9219v2.2344c0.60156-0.86328 1.2891-1.5156 2.0625-1.9531 0.78125-0.4375 1.6406-0.65625 2.5781-0.65625 1.0625 0 2 0.25781 2.8125 0.76562 0.8125 0.51172 1.4258 1.2305 1.8438 2.1562z"/>
  </symbol>
  <symbol id="r" overflow="visible">
   <path d="m17.75-9.3281v9.3281h-4.9219v-7.1094c0-1.3438-0.03125-2.2656-0.09375-2.7656s-0.16797-0.86719-0.3125-1.1094c-0.1875-0.3125-0.44922-0.55469-0.78125-0.73438-0.32422-0.17578-0.69531-0.26562-1.1094-0.26562-1.0234 0-1.8242 0.39844-2.4062 1.1875-0.58594 0.78125-0.875 1.8711-0.875 3.2656v7.5312h-4.8906v-21.281h4.8906v8.2031c0.73828-0.88281 1.5195-1.5391 2.3438-1.9688 0.83203-0.42578 1.75-0.64062 2.75-0.64062 1.7695 0 3.1133 0.54688 4.0312 1.6406 0.91406 1.0859 1.375 2.6562 1.375 4.7188z"/>
  </symbol>
  <symbol id="q" overflow="visible">
   <path d="m2.5781-20.406h5.875l7.4219 14v-14h4.9844v20.406h-5.875l-7.4219-14v14h-4.9844z"/>
  </symbol>
  <symbol id="p" overflow="visible">
   <path d="m17.75-9.3281v9.3281h-4.9219v-7.1406c0-1.3203-0.03125-2.2344-0.09375-2.7344s-0.16797-0.86719-0.3125-1.1094c-0.1875-0.3125-0.44922-0.55469-0.78125-0.73438-0.32422-0.17578-0.69531-0.26562-1.1094-0.26562-1.0234 0-1.8242 0.39844-2.4062 1.1875-0.58594 0.78125-0.875 1.8711-0.875 3.2656v7.5312h-4.8906v-15.312h4.8906v2.2344c0.73828-0.88281 1.5195-1.5391 2.3438-1.9688 0.83203-0.42578 1.75-0.64062 2.75-0.64062 1.7695 0 3.1133 0.54688 4.0312 1.6406 0.91406 1.0859 1.375 2.6562 1.375 4.7188z"/>
  </symbol>
  <symbol id="o" overflow="visible">
   <path d="m2.5781-20.406h8.7344c2.5938 0 4.582 0.57812 5.9688 1.7344 1.3945 1.1484 2.0938 2.7891 2.0938 4.9219 0 2.1367-0.69922 3.7812-2.0938 4.9375-1.3867 1.1562-3.375 1.7344-5.9688 1.7344h-3.4844v7.0781h-5.25zm5.25 3.8125v5.7031h2.9219c1.0195 0 1.8047-0.25 2.3594-0.75 0.5625-0.5 0.84375-1.2031 0.84375-2.1094 0-0.91406-0.28125-1.6172-0.84375-2.1094-0.55469-0.48828-1.3398-0.73438-2.3594-0.73438z"/>
  </symbol>
  <symbol id="n" overflow="visible">
   <path d="m2.3594-15.312h4.8906v15.031c0 2.0508-0.49609 3.6172-1.4844 4.7031-0.98047 1.082-2.4062 1.625-4.2812 1.625h-2.4219v-3.2188h0.85938c0.92578 0 1.5625-0.21094 1.9062-0.625 0.35156-0.41797 0.53125-1.2461 0.53125-2.4844zm0-5.9688h4.8906v4h-4.8906z"/>
  </symbol>
  <symbol id="m" overflow="visible">
   <path d="m14.719-14.828v3.9844c-0.65625-0.45703-1.3242-0.79688-2-1.0156-0.66797-0.21875-1.3594-0.32812-2.0781-0.32812-1.3672 0-2.4336 0.40234-3.2031 1.2031-0.76172 0.79297-1.1406 1.9062-1.1406 3.3438 0 1.4297 0.37891 2.543 1.1406 3.3438 0.76953 0.79297 1.8359 1.1875 3.2031 1.1875 0.75781 0 1.4844-0.10938 2.1719-0.32812 0.6875-0.22656 1.3203-0.56641 1.9062-1.0156v4c-0.76172 0.28125-1.5391 0.48828-2.3281 0.625-0.78125 0.14453-1.5742 0.21875-2.375 0.21875-2.7617 0-4.9219-0.70703-6.4844-2.125-1.5547-1.4141-2.3281-3.3828-2.3281-5.9062 0-2.5312 0.77344-4.5039 2.3281-5.9219 1.5625-1.4141 3.7227-2.125 6.4844-2.125 0.80078 0 1.5938 0.074219 2.375 0.21875 0.78125 0.13672 1.5547 0.35156 2.3281 0.64062z"/>
  </symbol>
 </defs>
 <g>
  <path d="m200.43 194.03h16.09c3.1133 0 6.3516 1.9805 7.1836 4.4141 0.83594 2.4258 1.9883 10.203-0.21094 12.402l-11.375 11.375c-2.1992 2.207-2.3672 5.957-0.375 8.3555l13.379 13.383c1.1211 0.93359 2.5352 1.3945 3.9531 1.3945 1.6133 0 3.2266-0.59375 4.4023-1.7695l11.375-11.375c1.5586-1.5508 3.8398-2.4531 5.8594-2.4531 0.83594 0 1.625 0.15625 2.2969 0.48047 2.2773 1.1133 8.668 5.8281 8.668 8.9414v16.09c0 3.1133 2.5273 6.0078 5.6055 6.4297 0 0 4.3359 0.59375 9.4922 0.59375s9.4922-0.59375 9.4922-0.59375c3.0859-0.42578 5.6055-3.3203 5.6055-6.4297v-16.09c0-3.1133 1.9805-6.3438 4.4141-7.1836 1.3906-0.47656 4.5195-1.0586 7.3633-1.0586 2.1328 0 4.1055 0.32422 5.0469 1.2695l11.375 11.375c1.1719 1.1719 2.7891 1.7695 4.4023 1.7695 1.418 0 2.832-0.46094 3.9531-1.3945l7.668-7.6602c1.4727-2.5469 3.5039-4.6914 5.9922-6.2266 0.14062-0.089844 0.25391-0.21094 0.39844-0.29688-0.027343-0.11719-0.015625-0.23438-0.050781-0.35156-0.46875-2-0.51562-4.0664-0.28125-6.1094-0.23047-0.37109-0.41016-0.77344-0.72266-1.0859l-11.375-11.375c-2.1992-2.1992-3.0898-5.8672-1.9727-8.1523 1.1133-2.2773 5.8281-8.668 8.9414-8.668h16.094c3.1211 0 6.0078-2.5273 6.4297-5.6055 0 0 0.58984-4.3359 0.58984-9.4922 0-0.57813-0.011719-1.1406-0.023437-1.6914-2.2969-3.6836-3.4102-7.8789-3.3164-12.086-1.082-0.78906-2.3477-1.3203-3.6953-1.3203h-16.09c-3.1133 0-6.3516-1.9805-7.1836-4.4141-0.83594-2.4297-1.9883-10.215 0.21094-12.414l11.375-11.367c0.68359-0.68359 1.0977-1.5273 1.3828-2.4258-2.6328-2.8633-4.5078-6.3711-5.3438-10.266l-9.0508-9.0508c-1.1211-0.93359-2.5352-1.3945-3.9531-1.3945-1.6133 0-3.2305 0.59375-4.4023 1.7695l-11.375 11.367c-1.5586 1.5586-3.8398 2.457-5.8594 2.457-0.83594 0-1.625-0.15625-2.2969-0.48047-2.2773-1.1133-8.6758-5.8281-8.6758-8.9414v-16.09c0-3.1133-2.5195-6.0078-5.6055-6.4336 0 0-4.3359-0.59375-9.4922-0.59375-5.1523 0-9.4922 0.59375-9.4922 0.59375-3.0859 0.42578-5.6055 3.3203-5.6055 6.4336v16.09c0 3.1133-1.9805 6.3438-4.4141 7.1836-1.3906 0.47656-4.5195 1.0586-7.3594 1.0586-2.1328 0-4.1055-0.32422-5.0508-1.2695l-11.375-11.367c-1.1719-1.1719-2.7891-1.7695-4.4023-1.7695-1.418 0-2.832 0.46094-3.9531 1.3906l-13.379 13.383c-2 2.3906-1.832 6.1484 0.375 8.3555l11.367 11.367c2.207 2.207 3.0898 5.875 1.9766 8.1523-1.1211 2.2773-5.8281 8.6758-8.9492 8.6758h-16.082c-3.1133 0-6.0078 2.5195-6.4336 5.6055 0 0-0.59375 4.3359-0.59375 9.4922s0.59375 9.4922 0.59375 9.4922c0.45312 3.0859 3.3516 5.6055 6.4648 5.6055zm76.34-45.617c16.852 0 30.52 13.664 30.52 30.52 0 16.852-13.668 30.52-30.52 30.52-16.855 0-30.52-13.664-30.52-30.52 0-16.855 13.672-30.52 30.52-30.52z"/>
  <path d="m419.87 256.91h8.0742c1.5664 0 3.0234-1.2695 3.2383-2.8164 0 0 0.29688-2.1797 0.29688-4.7695 0-2.5859-0.29688-4.7656-0.29688-4.7656-0.21094-1.5508-1.668-2.8164-3.2383-2.8164h-8.0742c-1.5625 0-3.1875-0.99609-3.6172-2.2188-0.41406-1.2227-1.0039-5.1367 0.11719-6.2383l5.7188-5.7109c1.0977-1.1094 1.1875-2.9961 0.17969-4.1992l-6.7148-6.7266c-0.57031-0.46484-1.2812-0.69922-1.9805-0.69922-0.81641 0-1.6289 0.29688-2.2188 0.89063l-5.7109 5.7188c-0.78906 0.77734-1.9375 1.2305-2.9414 1.2305-0.42188 0-0.81641-0.078125-1.1523-0.24219-1.1484-0.55859-4.3555-2.9297-4.3555-4.4922v-8.0859c0-1.5625-1.2695-3.0195-2.8164-3.2305 0 0-2.1836-0.30078-4.7773-0.30078s-4.7773 0.30078-4.7773 0.30078c-1.5469 0.21094-2.8164 1.668-2.8164 3.2305v8.0859c0 1.5625-1.0039 3.1875-2.2188 3.6133-0.69922 0.24219-2.2695 0.53125-3.6953 0.53125-1.0703 0-2.0664-0.16797-2.5352-0.63672l-5.7188-5.7188c-0.58203-0.58984-1.3906-0.88672-2.2109-0.88672-0.71094 0-1.4297 0.23047-1.9805 0.69531l-6.7266 6.7266c-0.99609 1.1992-0.91797 3.0859 0.18359 4.1992l5.7188 5.7109c1.0977 1.1094 1.5469 2.9531 0.99219 4.0938-0.55469 1.1406-2.918 4.3555-4.4922 4.3555h-8.0938c-1.5625 0-3.0195 1.2656-3.2383 2.8164 0 0-0.29688 2.1836-0.29688 4.7695 0 2.5938 0.29688 4.7695 0.29688 4.7695 0.21875 1.5508 1.6758 2.8164 3.2383 2.8164h8.0859c1.5625 0 3.1797 0.99609 3.6133 2.2188 0.41406 1.2148 0.99609 5.1289-0.11328 6.2344l-5.7188 5.7188c-1.0938 1.1094-1.1797 2.9961-0.18359 4.1992l6.7266 6.7266c0.56641 0.46875 1.2812 0.69922 1.9805 0.69922 0.81641 0 1.625-0.29688 2.2188-0.89062l5.7188-5.7188c0.78516-0.77734 1.9258-1.2305 2.9336-1.2305 0.42578 0 0.81641 0.078125 1.1602 0.24609 1.1484 0.55859 4.3516 2.9297 4.3516 4.4922v8.082c0 1.5586 1.2695 3.0195 2.8164 3.2305 0 0 2.1836 0.30078 4.7773 0.30078s4.7773-0.30078 4.7773-0.30078c1.5469-0.21094 2.8164-1.6758 2.8164-3.2305v-8.082c0-1.5625 0.99609-3.1914 2.2188-3.6133 0.69922-0.24219 2.2734-0.53125 3.6953-0.53125 1.0703 0 2.0664 0.16406 2.5352 0.63672l5.7188 5.7188c0.58203 0.58984 1.4062 0.89062 2.2188 0.89062 0.71094 0 1.4219-0.23047 1.9805-0.69922l6.7188-6.7188c1.0039-1.2031 0.91797-3.0898-0.18359-4.1992l-5.7188-5.7109c-1.1016-1.1094-1.5469-2.9453-0.99609-4.0938 0.55078-1.1602 2.9141-4.375 4.4922-4.375zm-30.277 7.75c-8.4766 0-15.332-6.8672-15.332-15.34 0-8.4688 6.8594-15.332 15.332-15.332 8.4688 0 15.32 6.8672 15.32 15.332 0.015626 8.4688-6.8555 15.34-15.32 15.34z"/>
  <path d="m359.09 126.28h19.461c3.7617 0 7.6875 2.4023 8.6953 5.3438 1.0195 2.9297 2.4141 12.348-0.26172 15.008l-13.746 13.766c-2.6719 2.6641-2.8672 7.207-0.46094 10.102l16.191 16.195c1.3555 1.125 3.0703 1.6875 4.7812 1.6875 1.9609 0 3.9023-0.71875 5.3242-2.1406l13.758-13.758c1.8828-1.8828 4.6484-2.9688 7.0898-2.9688 1.0117 0 1.9727 0.18359 2.7773 0.58203 2.7539 1.3477 10.488 7.0547 10.488 10.82v19.465c0 3.7617 3.0508 7.2695 6.793 7.7773 0 0 5.2461 0.72266 11.48 0.72266 6.2383 0 11.492-0.72266 11.492-0.72266 3.7344-0.50781 6.7891-4.0156 6.7891-7.7773v-19.465c0-3.7617 2.4023-7.6836 5.332-8.6914 1.6797-0.57812 5.4805-1.2812 8.9141-1.2812 2.582 0 4.9688 0.39844 6.1055 1.5352l13.758 13.758c1.4219 1.418 3.3828 2.1406 5.3242 2.1406 1.7188 0 3.4258-0.55859 4.7812-1.6875l16.195-16.191c2.4141-2.8945 2.2188-7.4414-0.45312-10.109l-13.758-13.766c-2.6719-2.6602-3.7422-7.0938-2.3867-9.8633 1.3438-2.7539 7.0547-10.496 10.82-10.496h19.473c3.7734 0 7.2734-3.0508 7.7891-6.7812 0 0 0.71875-5.2461 0.71875-11.484s-0.71875-11.484-0.71875-11.484c-0.51562-3.7344-4.0156-6.7891-7.7891-6.7891h-19.465c-3.7695 0-7.6836-2.4023-8.7031-5.3359-1.0078-2.9414-2.4062-12.359 0.26172-15.02l13.758-13.758c2.6719-2.6719 2.8672-7.2109 0.45312-10.109l-16.195-16.195c-1.3438-1.125-3.0625-1.6875-4.7812-1.6875-1.9531 0-3.9023 0.72266-5.3242 2.1445l-13.758 13.754c-1.8828 1.8867-4.6484 2.9727-7.0859 2.9727-1.0117 0-1.9766-0.19141-2.7773-0.58203-2.7695-1.3438-10.504-7.0469-10.504-10.816v-19.449c0-3.7617-3.0508-7.2695-6.7891-7.7852 0 0-5.2539-0.72266-11.492-0.72266-6.2344 0-11.48 0.72266-11.48 0.72266-3.7422 0.51562-6.793 4.0195-6.793 7.7852l0.003906 19.469c0 3.7695-2.4023 7.6758-5.3359 8.6953-1.6758 0.58203-5.4766 1.2812-8.9023 1.2812-2.582 0-4.9727-0.39062-6.1133-1.5391l-13.758-13.758c-1.4219-1.418-3.3828-2.1406-5.3242-2.1406-1.7188 0-3.4219 0.55469-4.7812 1.6797l-16.184 16.191c-2.4258 2.8945-2.2188 7.4414 0.44922 10.109l13.758 13.758c2.6719 2.6641 3.7422 7.1055 2.3984 9.8633-1.3594 2.7539-7.0664 10.496-10.832 10.496h-19.465c-3.7734 0-7.2695 3.0508-7.7891 6.7812 0 0-0.72266 5.2461-0.72266 11.484s0.72266 11.48 0.72266 11.48c0.51562 3.7305 4.0156 6.7852 7.793 6.7852zm92.355-55.195c20.391 0 36.934 16.531 36.934 36.922 0 20.391-16.543 36.922-36.934 36.922-20.391 0-36.926-16.531-36.926-36.922 0-20.391 16.551-36.922 36.926-36.922z"/>
  <path d="m557.89 285.88-42.738-53.66c-0.29297-0.35156-0.61719-0.66016-0.94531-0.96875-0.11719-0.11328-0.20703-0.24609-0.33984-0.35156l-30.402-25.898c-1.457 6.4844-5.8359 12.066-11.711 15.098l21.207 18.07-23.34 19.879-117.15 99.82-116.68-99.406h-0.003907l-31.18-26.566-1.1641-0.99219c-1.8555-1.5781-4.2227-2.3477-6.6523-2.2344-0.15234 0.003907-0.30078-0.015624-0.46094 0-0.042969 0.003907-0.089843 0.023438-0.12891 0.027344-0.125 0.011719-0.23438 0.050782-0.35938 0.074219-0.33203 0.050781-0.65625 0.11328-0.96875 0.19531-0.29297 0.074218-0.57031 0.16406-0.84375 0.26172-0.32031 0.11719-0.61719 0.24219-0.91797 0.38672-0.26953 0.125-0.51953 0.26953-0.77734 0.42188-0.28125 0.16797-0.54297 0.35156-0.80078 0.54297-0.24219 0.18359-0.46875 0.37109-0.69922 0.57812-0.003907 0.003906-0.011719 0.011718-0.023438 0.015625-0.23047 0.21094-0.44141 0.4375-0.64844 0.67188-0.11719 0.13281-0.26172 0.24219-0.375 0.37891l-42.738 53.664c-3.2031 4.0273-2.6445 9.8789 1.2773 13.211l39.387 33.555v78.422c0 2.7891 1.2266 5.4531 3.3555 7.2617l155.22 132.24c0.14453 0.11719 0.3125 0.21875 0.46484 0.33594 0.21875 0.15625 0.4375 0.32422 0.66016 0.46484 0.28516 0.17969 0.58203 0.33984 0.88672 0.48047 0.23047 0.11328 0.46094 0.23047 0.69531 0.33203 0.34766 0.12891 0.69922 0.23047 1.0586 0.33203 0.21094 0.054688 0.42578 0.11719 0.63672 0.16406 0.58984 0.11719 1.1875 0.18359 1.7852 0.18359 0.59766 0 1.1914-0.078126 1.7852-0.18359 0.21875-0.035156 0.42188-0.11719 0.62891-0.16406 0.36328-0.10156 0.72266-0.19141 1.0625-0.33203 0.24219-0.10156 0.46094-0.20703 0.6875-0.32422 0.30078-0.14453 0.59375-0.30859 0.88672-0.48828 0.22266-0.14062 0.4375-0.30859 0.64844-0.46484 0.14453-0.11719 0.32422-0.20703 0.46875-0.33594l155.22-132.24c2.1328-1.8086 3.3594-4.4727 3.3594-7.2617l-0.007813-78.43 39.387-33.555c3.9297-3.332 4.4844-9.1758 1.2812-13.211zm-390.16 4.668 30.84-38.719 140.68 119.86-30.844 38.723zm175.18 232.09-136.12-115.98 0.003907-57.754 96.738 82.426c1.7344 1.4844 3.9297 2.2734 6.1875 2.2734 0.30078 0 0.60938-0.011719 0.91797-0.039063 2.5703-0.25391 4.9375-1.5352 6.5469-3.5547l25.738-32.316zm155.22-115.98-136.12 115.98 0.011719-124.94 25.73 32.312c1.6016 2.0117 3.9688 3.3047 6.5469 3.5547 0.30859 0.035157 0.60938 0.042969 0.91406 0.042969 2.2578 0 4.457-0.80469 6.1836-2.2734l96.738-82.426zm-101.61 3.7461-30.844-38.723 140.69-119.86 30.844 38.723z"/>
  <use x="70" y="644" xlink:href="#x"/>
  <use x="90.550781" y="644" xlink:href="#c"/>
  <use x="104.359375" y="644" xlink:href="#b"/>
  <use x="123.347656" y="644" xlink:href="#g"/>
  <use x="142.242188" y="644" xlink:href="#d"/>
  <use x="155.628906" y="644" xlink:href="#b"/>
  <use x="174.617188" y="644" xlink:href="#l"/>
  <use x="204.410156" y="644" xlink:href="#k"/>
  <use x="224.453125" y="644" xlink:href="#j"/>
  <use x="252.453125" y="644" xlink:href="#i"/>
  <use x="280.3125" y="644" xlink:href="#g"/>
  <use x="299.210938" y="644" xlink:href="#f"/>
  <use x="319.140625" y="644" xlink:href="#c"/>
  <use x="332.953125" y="644" xlink:href="#e"/>
  <use x="342.546875" y="644" xlink:href="#w"/>
  <use x="358.84375" y="644" xlink:href="#e"/>
  <use x="368.445312" y="644" xlink:href="#a"/>
  <use x="397.429688" y="644" xlink:href="#v"/>
  <use x="416.554688" y="644" xlink:href="#f"/>
  <use x="436.488281" y="644" xlink:href="#u"/>
  <use x="453.15625" y="644" xlink:href="#e"/>
  <use x="462.75" y="644" xlink:href="#h"/>
  <use x="472.351562" y="644" xlink:href="#h"/>
  <use x="481.945312" y="644" xlink:href="#a"/>
  <use x="70" y="672" xlink:href="#t"/>
  <use x="82.183594" y="672" xlink:href="#c"/>
  <use x="95.992188" y="672" xlink:href="#a"/>
  <use x="115.226562" y="672" xlink:href="#s"/>
  <use x="154.152344" y="672" xlink:href="#d"/>
  <use x="167.535156" y="672" xlink:href="#r"/>
  <use x="187.46875" y="672" xlink:href="#b"/>
  <use x="216.207031" y="672" xlink:href="#q"/>
  <use x="239.640625" y="672" xlink:href="#a"/>
  <use x="258.878906" y="672" xlink:href="#f"/>
  <use x="278.8125" y="672" xlink:href="#p"/>
  <use x="308.492188" y="672" xlink:href="#o"/>
  <use x="329.015625" y="672" xlink:href="#c"/>
  <use x="342.820312" y="672" xlink:href="#a"/>
  <use x="362.058594" y="672" xlink:href="#n"/>
  <use x="371.65625" y="672" xlink:href="#b"/>
  <use x="390.648438" y="672" xlink:href="#m"/>
  <use x="407.242188" y="672" xlink:href="#d"/>
 </g>
</svg>
