<!-- Generated by IcoMoon.io -->
<svg version="1.1" xmlns="http://www.w3.org/2000/svg" width="32" height="32" viewBox="0 0 32 32">
<title>Knife</title>
<path d="M22.563 14.75c0.625 0 0.625-0.938 0-0.938-0.563 0-0.625 0.938 0 0.938zM19.188 10.375c-0.25 0-0.438 0.25-0.625 0.438-0.313 0.313-0.563 0.563-0.875 0.875-0.688 0.688-1.375 1.375-2.125 2.125-0.188 0.188-0.375 0.375-0.563 0.563-0.25 0.25-0.313 0.625-0.375 0.875-0.125 0.25-0.25 0.5-0.438 0.625-0.313 0.25-0.688 0.313-1 0.563-0.5 0.438-0.5 1.25-1.188 1.5-0.375 0.188-0.75 0.375-1 0.688-0.188 0.313-0.25 0.688-0.5 0.938-0.25 0.313-0.563 0.313-0.875 0.5s-0.625 0.5-0.75 0.875c-0.188 0.313-0.25 0.625-0.563 0.813-0.188 0.125-0.375 0.125-0.563 0.188-0.25 0.125-0.5 0.188-0.688 0.375-1.125 1.063-2.25 2.25-3.375 3.375-1.063 1.063-2.188 2.125-3.313 3.25 0 0.063 0 0.063-0.063 0.063-0.25 0.25-0.125 0.688 0.25 0.813 1.5 0.438 3 0.625 4.563 0.5 1.688-0.125 3.313-0.625 4.75-1.438 1.5-0.813 2.688-2 3.875-3.188 1.375-1.375 2.75-2.75 4.125-4.125 1.188-1.188 2.438-2.438 3.625-3.625 0.25-0.25 0.5-0.438 0.563-0.75 0.313-0.875 0.563-1.688 0.875-2.563 0-0.063 0.063-0.125 0.063-0.25 0.188-0.563-0.688-0.813-0.875-0.25-0.25 0.75-0.5 1.5-0.75 2.25-0.063 0.188-0.125 0.375-0.188 0.563 0 0-0.063 0.063-0.063 0.125s0.125-0.188 0.125-0.188c-0.063 0-0.188 0.125-0.25 0.188-1.063 1.063-2.125 2.125-3.188 3.25-1.375 1.375-2.813 2.813-4.25 4.188-0.875 0.938-1.813 1.938-2.813 2.688-2.625 2-6.063 2.688-9.25 1.938-0.25-0.063-0.5-0.125-0.75-0.25 0.125 0.313 0.188 0.563 0.25 0.813 0.938-0.938 1.875-1.875 2.75-2.813 1.25-1.25 2.5-2.5 3.75-3.75 0.125-0.063 0.25-0.125 0.313-0.25-0.063 0.063-0.313 0.125-0.125 0.063 0.125 0 0.25-0.063 0.375-0.125 0.25-0.063 0.5-0.125 0.688-0.25 0.375-0.25 0.625-0.563 0.813-0.938 0.125-0.313 0.25-0.563 0.5-0.75 0.375-0.188 0.688-0.25 1-0.563 0.25-0.25 0.375-0.563 0.5-0.875 0.188-0.313 0.438-0.5 0.75-0.625 0.375-0.125 0.688-0.375 0.938-0.688 0.188-0.313 0.25-0.688 0.5-0.938s0.563-0.313 0.875-0.5c0.563-0.313 0.75-0.875 1-1.5 0-0.063 0.125-0.25 0.063-0.313 0 0-0.188 0.25-0.063 0.188 0.063 0 0.125-0.125 0.125-0.188 1.25-1.188 2.438-2.375 3.625-3.563 0.063-0.063 0.063-0.063 0.125-0.125-0.125 0.063-0.25 0.125-0.375 0.125 0.625 0 0.625-0.938 0.063-0.938zM18.688 10.875c0 0.25 0.25 0.438 0.5 0.438-0.125 0-0.25-0.063-0.375-0.125 1.188 1.125 2.313 2.313 3.438 3.438 0.438 0.438 1.063-0.25 0.625-0.688-0.563-0.563-1.188-1.188-1.75-1.813-0.438-0.375-0.813-0.75-1.188-1.125-0.188-0.25-0.5-0.625-0.75-0.625 0.125 0.188 0.313 0.313 0.438 0.5 0-0.625-0.938-0.625-0.938 0zM21.438 9.25c2-2 4-4 6-6 0.625-0.625 1.563-0.875 2.375-0.438 1.125 0.625 1.375 2.125 0.5 3.063-1 1-1.938 1.938-2.938 2.938-1.063 1.063-2.125 2.125-3.188 3.188-0.438 0.438 0.25 1.063 0.688 0.688 2-2.063 4.063-4.063 6.063-6.125 1-1 1.125-2.625 0.25-3.813-1-1.188-2.75-1.5-4-0.563-0.375 0.313-0.688 0.688-1.063 1.063-0.625 0.625-1.313 1.313-1.938 1.938-1.125 1.125-2.25 2.25-3.438 3.438-0.375 0.375 0.25 1.063 0.688 0.625zM25.188 14.938c-0.375 0.313-0.688 0.625-1 0.938 0.188 0 0.438 0 0.688 0-1.063-1-2.063-2-3.063-3-1.063-1.125-2.188-2.188-3.25-3.313-0.438-0.375-0.375-0.938 0-1.313 0.313-0.313 0.625-0.625 0.938-0.938-0.25 0-0.438 0-0.688 0 2 2 4 3.938 5.938 5.938 0.125 0.125 0.25 0.25 0.375 0.375 0.375 0.375 0.375 0.938 0.063 1.313-0.438 0.438 0.25 1.063 0.625 0.625 0.75-0.813 0.688-1.938-0.125-2.688-0.375-0.438-0.813-0.875-1.25-1.313-1.313-1.313-2.625-2.625-3.938-3.938-0.313-0.313-0.688-0.625-1-1-0.188-0.125-0.5-0.125-0.688 0-0.25 0.313-0.563 0.625-0.875 0.938-0.5 0.5-0.75 1.125-0.563 1.813 0.188 0.625 0.75 1.125 1.188 1.563 1.438 1.438 2.938 2.938 4.375 4.375 0.438 0.438 0.813 0.813 1.25 1.25 0.188 0.188 0.5 0.188 0.688 0 0.313-0.313 0.625-0.625 0.938-1 0.438-0.438-0.25-1.063-0.625-0.625z"></path>
</svg>
