<!-- Generated by IcoMoon.io -->
<svg version="1.1" xmlns="http://www.w3.org/2000/svg" width="32" height="32" viewBox="0 0 32 32">
<title>Kudu</title>
<path d="M24.5 0.438c-0.063 0.063 0.125 0.375 0.563 0.813 0.813 0.875 0.813 0.938-0.063 1.375-0.5 0.25-2.063 1.625-2.438 2.188-0.25 0.5-0.375 0.688-0.5 0.938-0.063 0.125-0.125 0.313-0.188 0.375-0.188 0.375-0.438 1.625-0.438 2.188 0 0.625 0.25 1.875 0.563 2.625l0.188 0.5-0.313 0.188c-0.125 0.125-0.375 0.25-0.5 0.25-0.313 0.125-0.938 0.438-1.25 0.688-0.625 0.5-1.938 1.875-2.375 2.563-0.125 0.188-0.313 0.5-0.5 0.75-0.375 0.563-0.563 0.5-1.188-0.188-1.375-1.438-2.125-2.188-2.5-2.438-0.375-0.313-1.813-1.063-2-1.063-0.063 0-0.188-0.063-0.313-0.125-0.188-0.063-0.438-0.188-0.563-0.25-0.25-0.063-0.25-0.125-0.188-0.375 0-0.188 0.063-0.5 0.125-0.75 0.063-0.313 0.125-0.813 0.188-1.188 0.125-0.563 0.125-0.75-0.063-1.375-0.188-0.813-0.5-1.5-1.063-2.313-0.313-0.563-1.25-1.563-1.375-1.563 0 0-0.125-0.125-0.313-0.188-0.125-0.125-0.5-0.313-0.875-0.375-1.188-0.375-1.625-0.625-1.688-0.813s0-0.313 0.563-1.313c0.188-0.438 0.25-0.563 0.125-0.625-0.25-0.313-1.938 2-1.875 2.563 0.063 0.25 0.125 0.313 1.188 0.875 1.563 0.813 2.125 1.188 2.625 1.75s0.75 1.25 0.875 2.313c0.063 0.875 0 2.063-0.25 2.375-0.063 0.125-0.125 0.25-0.125 0.375 0 0.063-0.063 0.313-0.188 0.5-0.313 0.625-0.5 1.063-0.5 1.188 0 0.063 0.125 0.313 0.313 0.563 0.125 0.25 0.313 0.5 0.313 0.563s-0.125 0.25-0.313 0.375c-0.375 0.375-0.5 1-0.375 1.438 0.063 0.25 0.188 0.5 0.25 0.563 0.063 0.125 0.125 0.375 0.188 0.625 0.125 0.813 0.625 1.5 1.438 2 0.313 0.188 0.625 0.25 1.188 0.313 0.813 0.125 0.813 0.125 1.188 0.5 0.25 0.313 0.563 0.5 0.938 0.688 0.25 0.063 0.5 0.188 0.563 0.25 0.063 0 0 0.25-0.063 0.5-0.063 0.188-0.188 0.563-0.25 0.75-0.563 2.563-0.625 2.813-0.625 3.125 0 0.375-0.375 2.563-0.438 2.688-0.063 0.063-0.25 0.063-0.5 0.063-1.25-0.188-1.375-0.188-1.875 0.063-0.313 0.125-0.813 0.438-1.125 0.625-0.313 0.25-0.563 0.438-0.625 0.438s-0.188 0.063-0.25 0.188c-0.125 0.063-0.25 0.188-0.375 0.25s-1 0.625-1.938 1.313l-1.813 1.188h-0.938c-0.563 0 3.188 0.063 8.313 0.063h9.313l0.063-1.875c0-1.063 0.125-2.875 0.188-4.063 0.125-2.375 0.125-2.625-0.313-3.813-0.188-0.438-0.313-1-0.375-1.25-0.063-0.5 0-0.5 0.25-0.75 0.188-0.125 0.438-0.25 0.563-0.313 0.125 0 0.375-0.25 0.625-0.563 0.5-0.5 0.688-0.625 1.563-0.75 1.375-0.125 2.438-1.75 2.438-3.75 0-0.813 0-0.875-0.313-1.313-0.375-0.5-0.438-0.688-0.188-1.125 0.125-0.188 0.188-0.438 0.188-0.5 0-0.125-0.375-0.688-0.875-1.313-0.5-0.688-0.938-1.25-1-1.375-0.125-0.125-0.25-0.375-0.313-0.563-0.125-0.375-0.125-0.5 0-1 0.688-2.625 1.313-3.375 3.375-4.313 0.25-0.125 0.5-0.188 0.563-0.188s0.188-0.125 0.25-0.25c0.188-0.313 0.063-0.875-0.25-1.125-0.875-0.688-1.313-1-1.75-1.25s-0.563-0.25-0.563-0.125zM21.25 14.688c0 0.063-0.063 0.188-0.125 0.188 0 0.063-0.063 0.188-0.125 0.375-0.063 0.125-0.125 0.375-0.188 0.5s-0.125 0.313-0.125 0.438c0 0.063-0.125 0.25-0.25 0.438-0.188 0.188-0.313 0.25-0.5 0.25-0.25 0-0.25-0.063-0.25-0.375 0.063-0.438 0.25-0.813 0.75-1.438 0.25-0.375 0.438-0.5 0.563-0.5s0.25 0.063 0.25 0.125zM12.063 14.813c0.875 0.438 1.438 1.188 1.625 2 0.063 0.188 0 0.313-0.063 0.313-0.25 0.125-0.5-0.188-0.813-0.813-0.188-0.313-0.438-0.75-0.563-0.938-0.188-0.125-0.313-0.313-0.313-0.375 0 0-0.063-0.063-0.188-0.125-0.125 0-0.188-0.125-0.125-0.125 0.063-0.125 0.063-0.125 0.438 0.063z"></path>
</svg>
