<!-- Generated by IcoMoon.io -->
<svg version="1.1" xmlns="http://www.w3.org/2000/svg" width="32" height="32" viewBox="0 0 32 32">
<title>Laid-ambush</title>
<path d="M9.938 23.813l1.375-2.5c-1.063-0.75-1.875-1.688-2.438-2.813-0.563-1.188-0.875-2.375-0.875-3.625 0-1.438 0.375-2.813 1.063-4.063-2.688 1.438-4.938 3.5-6.75 6.313 1.938 3.063 4.5 5.313 7.625 6.688zM16.875 10.313c0-0.25-0.125-0.438-0.25-0.625-0.188-0.188-0.375-0.25-0.625-0.25-1.5 0-2.75 0.5-3.813 1.563s-1.625 2.375-1.625 3.875c0 0.25 0.063 0.438 0.25 0.563 0.188 0.188 0.375 0.25 0.625 0.25s0.438-0.063 0.625-0.25c0.125-0.125 0.25-0.313 0.25-0.563 0-1.063 0.313-1.938 1.063-2.625 0.75-0.75 1.625-1.125 2.625-1.125 0.25 0 0.438-0.063 0.625-0.25 0.125-0.125 0.25-0.375 0.25-0.563zM23.313 6.875c0 0.063 0 0.125 0 0.188-1.25 2.188-3.125 5.563-5.625 10.063s-4.375 7.875-5.625 10.125l-0.875 1.625c-0.125 0.188-0.313 0.25-0.5 0.25-0.125 0-0.938-0.375-2.375-1.25-0.188-0.125-0.313-0.25-0.313-0.5 0-0.125 0.25-0.625 0.813-1.563-1.75-0.75-3.313-1.75-4.75-3.063s-2.688-2.75-3.688-4.375c-0.25-0.375-0.375-0.75-0.375-1.25 0-0.438 0.125-0.875 0.375-1.188 1.813-2.813 4.063-5.063 6.75-6.625 2.75-1.625 5.688-2.438 8.875-2.438 1.063 0 2.125 0.063 3.188 0.313l1-1.75c0.125-0.188 0.25-0.313 0.5-0.313 0.063 0 0.188 0.063 0.313 0.125s0.313 0.188 0.563 0.25c0.188 0.125 0.375 0.25 0.563 0.375 0.188 0.063 0.375 0.188 0.563 0.313s0.313 0.188 0.375 0.188c0.188 0.125 0.25 0.313 0.25 0.5zM24 14.875c0 1.625-0.5 3.125-1.438 4.5s-2.188 2.375-3.688 2.938l5-8.938c0.063 0.5 0.125 1 0.125 1.5zM32 17.125c0 0.438-0.125 0.875-0.375 1.25-0.438 0.75-1.125 1.625-1.938 2.563-1.75 2.063-3.875 3.688-6.188 4.813-2.375 1.125-4.875 1.688-7.5 1.688l1.313-2.375c2.563-0.188 4.875-1 7-2.438 2.188-1.438 3.938-3.25 5.375-5.5-1.313-2.125-3-3.875-5-5.25l1.125-2c1.125 0.75 2.188 1.688 3.25 2.75s1.875 2.125 2.563 3.313c0.25 0.375 0.375 0.813 0.375 1.188z"></path>
</svg>
