<!-- Generated by IcoMoon.io -->
<svg version="1.1" xmlns="http://www.w3.org/2000/svg" width="32" height="32" viewBox="0 0 32 32">
<title>Leaves</title>
<path d="M12.875 4.563c-2.813-2.75-8.25-3.063-12.125-3.063-0.438 0-0.75 0.313-0.75 0.688 0 3.875 0.313 9.375 3.125 12.125 1.188 1.188 3 1.75 4.75 1.75 2 0 3.875-0.625 5-1.75 2.063-2.063 2.438-7.25 0-9.75zM11.813 13.313c-1.5 1.563-5.875 1.813-7.688 0-2.25-2.25-2.625-6.875-2.688-10.375 3.563 0.063 8.125 0.438 10.375 2.688 1.875 1.813 1.563 6.125 0 7.688zM31.25 4.375c-3.875 0-9.313 0.313-12.125 3.063-2.438 2.5-2.063 7.688 0 9.75 1.125 1.125 3 1.75 5 1.75 1.75 0 3.563-0.563 4.75-1.75 2.813-2.75 3.125-8.25 3.125-12.125 0-0.375-0.313-0.688-0.75-0.688zM27.875 16.188c-1.813 1.813-6.188 1.563-7.688 0-1.563-1.563-1.875-5.875 0-7.688 2.25-2.25 6.813-2.688 10.375-2.688-0.063 3.5-0.438 8.125-2.688 10.375zM26 10.625c-0.125-0.375-0.625-0.5-1-0.313-5.563 2.625-8.313 7.188-9.563 11.875-1.5-10-6-13-7.875-14.313-0.25-0.188-0.438-0.25-0.5-0.375-0.313-0.313-0.75-0.313-1.063 0-0.25 0.25-0.25 0.75 0 1 0.188 0.188 0.438 0.375 0.75 0.563 2.125 1.438 7.75 5.313 7.75 20.75 0 0.375 0.375 0.688 0.75 0.688 0.438 0 0.75-0.313 0.75-0.688 0-6.25 1.625-14.438 9.625-18.188 0 0 0.125-0.063 0.125-0.063 0.375-0.188 0.438-0.563 0.25-0.938z"></path>
</svg>
