<!-- Generated by IcoMoon.io -->
<svg version="1.1" xmlns="http://www.w3.org/2000/svg" width="26" height="32" viewBox="0 0 26 32">
<title>Lemur-aye-aye</title>
<path d="M23.627 19.084c-0.090-0.277-0.381-0.954-0.41-1.23-0.047-0.448-0.317-1.004-0.592-1.269-0.126-0.123 0.273-0.819 0-0.827-0.456-0.013-1.241 0.704-2.096 0.774-0.502 0.041-1.093 0.182-1.503-0.319s-2.459-2.141-4.509-2.811c-2.050-0.67-3.508 0.534-3.963 0.443-0.456-0.091-1.231-1.553-1.594-2.915-0.364-1.367-0.136-5.876-0.273-7.197s-0.633-2.897-2.688-3.28c-1.789-0.333-3.764 1.627-4.054 2.323-0.398 0.956 0.035 1.738 0.683 1.503 1.002-0.363 1.683-2.664 3.22-1.659 0.893 0.584 1.009 2.984 0.945 3.959-0.079 1.213-0.264 3.427 0.829 6.018 0.681 1.614 1.433 2.444 1.842 2.921-0.325 0.604-0.478 1.023-0.682 1.638s0.223 1.674 0.086 2.22c-0.136 0.546-1.864 1.018-2.065 1.328-0.289 0.448-0.706 1.401-0.682 2.388 0.007 0.295 0.357 0.975 0.819 0.887 0.235-0.045 0.262-0.151 0.318-0.345 0.080-0.274-0.107-0.617-0.175-1.026-0.068-0.41 0.17-0.752 0.398-0.951s1.101-0.019 1.676-0.079c0.575-0.059 1.459-0.236 2.162-0.912 0.061 0.387-0.723 1.709-0.733 2.036s0.872 1.445 1.060 1.544c0.188 0.099 0.784 0.284 1.021 0.198 0.092-0.034 0.123-0.169 0.039-0.226-0.116-0.079-0.159-0.079-0.148-0.141 0.013-0.070 0.079-0.069 0.213-0.059s0.262 0.139 0.352 0.168c0.089 0.030 0.182 0.029 0.231-0.069s-0.133-0.258-0.073-0.228c0.023 0.012 0.044 0.032 0.066 0.054 0.036 0.037 0.073 0.080 0.122 0.105 0.080 0.039 0.289-0.116 0.021-0.302-0.103-0.071-0.205-0.176-0.296-0.199-0.182-0.046-0.638-0.046-1.002-0.091s-0.456-0.319-0.365-0.455 0.82-0.592 1.23-1.048c0.41-0.455 0.989-1.476 1.093-2.368 0.396 0.198 1.166 0.339 1.829 0.426-0.911 1.093-0.946 3.742-0.674 3.878s0.757 0.296 0.985 0.205 0.112-0.495 0-0.638c-0.107-0.136-0.319 0-0.501-0.136s1.4-2.195 1.736-2.922c0.222 0.053 0.205 0.057 0.615 0.057 0.005 0.379 0.018 1.317 0.245 1.773s2.277 2.095 2.733 2.414c0.455 0.318 1.64 0.182 1.64 0s-0.091-0.365-0.41-0.547c-0.319-0.183-0.683 0.182-0.911 0s-1.139-2.004-1.366-2.369c-0.228-0.365-0.070-1.41-0.046-1.731 0.022-0.283 0.241-0.61 0.195-1.030 0.176-0.068 0.498-0.196 0.558 0.023 0.034 0.125 0.366 0.42 0.546 0.442 0.4 0.049 0.453-0.464 0.66-0.435 0.381 0.051 0.681 0.279 1 0.325 0.32 0.045 0.679-0.114 0.641-0.235zM4.119 2.478c-0.019 0.114-0.203 0.124-0.211 0.061-0.024-0.186-0.336-0.817-0.436-1.167-0.028-0.097 0.27-0.307 0.331-0.228 0.288 0.374 0.351 1.126 0.317 1.334zM4.713 2.213c-0.020 0.073-0.274 0.17-0.278 0.111-0.012-0.183 0.029-0.898-0.105-1.425-0.012-0.047 0.444-0.302 0.547-0.196 0.153 0.157-0.096 1.266-0.163 1.51zM5.423 2.212c-0.036 0.017-0.335-0.019-0.293-0.080 0.379-0.537 0.619-0.893 0.494-1.573-0.019-0.103 1.176 0.25 1.16 0.325-0.153 0.729-0.937 1.123-1.362 1.327zM6.24 2.775c-0.078-0.011-0.419-0.337-0.328-0.365 0.312-0.095 1.113-0.461 1.556-1.171 0.035-0.056 0.553 0.692 0.536 0.766-0.080 0.346-1.219 0.846-1.764 0.769zM6.785 4.059c-0.085-0.017-0.288-0.606-0.163-0.609 0.677-0.016 1.31-0.14 1.772-0.427 0.093-0.058 0.208 0.581 0.128 0.663-0.374 0.38-1.19 0.48-1.737 0.373zM6.882 4.733c0.451 0.301 1.286 0.374 1.718 0.001 0.035-0.031 0.031 0.623-0.050 0.68-0.38 0.269-0.999 0.299-1.599-0.008-0.060-0.031-0.153-0.729-0.069-0.674zM8.55 7.111c-0.495 0.232-1.261 0.061-1.583-0.327-0.048-0.057 0.013-0.655 0.053-0.614 0.271 0.28 0.86 0.789 1.53 0.328 0.054-0.038 0.11 0.561 0 0.613zM6.91 7.889c0.26 0.38 1.23 0.566 1.639 0.058 0.035-0.044 0.142 0.533 0.010 0.633-0.354 0.269-1.15 0.269-1.649 0.019-0.067-0.034-0.060-0.797 0-0.71zM7.006 9.357c0.617 0.529 1.486 0.003 1.605-0.236s0.058 0.759 0 0.819c-0.236 0.242-0.869 0.595-1.433 0.319-0.104-0.051-0.243-0.962-0.173-0.902zM7.563 11.909c-0.099-0.007-0.346-0.987-0.209-0.93 0.537 0.227 0.923 0.127 1.299-0.323 0.087-0.104 0.245 0.289 0.187 0.447-0.075 0.203-0.576 0.856-1.276 0.806zM8.082 13.233c-0.108-0.025-0.453-0.778-0.301-0.741 0.972 0.242 1.083-0.44 1.272-0.648 0.062-0.069 0.23 0.328 0.23 0.498s-0.756 0.995-1.201 0.89zM9.669 13.028c-0.111 0.532-0.618 1.088-0.818 1.348-0.043 0.056-0.477-0.699-0.411-0.716 0.532-0.137 0.892-0.501 1.074-0.986 0-0 0.167 0.292 0.155 0.354zM22.611 18.082c0.092 0.040 0.080 0.112 0.095 0.174-0.056 0.048-0.129 0.067-0.179 0.050-0.063-0.020-0.102-0.114-0.099-0.166 0.039-0.043 0.12-0.085 0.183-0.058zM22.737 18.999c-0.313 0.069-0.717-0.193-0.887-0.102-0.068 0.036-0.25 0.459-0.512 0.421-0.113-0.017-0.352-0.146-0.535-0.478-0.182-0.33-0.019-0.631-0.023-0.765-0.003-0.134-0.216-0.679-0.034-1.088 0.12-0.27 0.364-0.486 0.512-0.558 0.101-0.048 1.3-0.728 1.353-0.571 0.035 0.102-0.125 0.492-0.125 0.632-0.136-0.046-0.386-0.117-0.352 0.111s0.034 0.318-0.012 0.455c-0.046 0.136-0.22 0.306-0.216 0.51s0.309 0.144 0.406 0.232c-0.324 0.277-0.111 0.952 0.401 0.907 0.19-0.017 0.307-0.102 0.273-0.558-0.014-0.179-0.159-0.398-0.284-0.443 0.045-0.062 0.306-0.354 0.318-0.307 0.062 0.24 0.091 0.41 0.114 0.558s0.131 0.392 0.17 0.569c-0.068 0.113-0.381 0.436-0.568 0.477zM21.747 16.522c-0.029-0.027-0.249 0.134-0.431 0.282s-0.285 0.367-0.306 0.56c-0.022 0.194 0.084 0.425 0.128 0.477 0.037 0.045 0.205 0.15 0.371 0.069 0.12-0.058 0.205-0.168 0.191-0.408-0.003-0.055-0.033-0.188-0.001-0.455 0.021-0.175 0.076-0.501 0.050-0.525z"></path>
</svg>
