<!-- Generated by IcoMoon.io -->
<svg version="1.1" xmlns="http://www.w3.org/2000/svg" width="32" height="32" viewBox="0 0 32 32">
<title>Leopard</title>
<path d="M5.188 0c-0.25 0-0.313 0.063-0.5 0.125s-0.375 0.125-0.563 0.188c-0.438 0.188-0.938 0.5-1.438 0.875-1 0.688-2.063 1.813-2.063 3.313 0 1.313 0.625 2.563 1.25 3.563 0.5 0.75 0.875 1.25 1.063 1.438-0.438 1.438-0.813 2.875-1.188 4.313-0.5 2.188-0.938 4.125-0.938 5.438 0 0.125 0.063 0.188 0.063 0.313 4.938 9.563 14.938 12.438 14.938 12.438 0.125 0 0.25 0 0.375 0 0 0 8.625-2.75 13.938-10.813 0.063-0.125 0.188-0.313 0.25-0.438 0.063-0.063 0.063-0.063 0.063-0.063 0.25-0.375 0.438-0.75 0.625-1.125 0.063-0.063 0.125-0.188 0.125-0.313 0-1.313-0.438-3.25-0.938-5.438-0.375-1.438-0.75-2.875-1.188-4.313 0.188-0.188 0.563-0.688 1.063-1.438 0.625-1 1.25-2.25 1.25-3.563 0-1.5-1.063-2.625-2.063-3.313-0.438-0.375-0.938-0.625-1.438-0.875-0.188-0.063-0.375-0.125-0.563-0.188s-0.25-0.125-0.5-0.125c-1.188 0-2.313 0.625-3.188 1.188-0.5 0.313-0.938 0.625-1.375 1-1.125-0.313-2.375-0.563-3.438-0.813-0.563-0.125-1.125-0.25-1.688-0.313-0.5-0.125-0.813-0.188-1.125-0.188s-0.625 0.063-1.125 0.188c-0.563 0.063-1.125 0.188-1.688 0.313-1.063 0.25-2.313 0.5-3.438 0.813-0.25-0.25-0.688-0.563-1.375-1-0.875-0.563-2-1.188-3.188-1.188zM5.188 1.25c0.688 0 1.75 0.5 2.563 1 0.125 0.125 0.313 0.25 0.438 0.313-2.25 0.813-3.938 2.625-4.625 4.938-0.063 0.125-0.125 0.313-0.188 0.5-0.125-0.188-0.25-0.375-0.375-0.625-0.563-0.875-1.063-2-1.063-2.875s0.688-1.688 1.5-2.313c0.375-0.25 0.75-0.5 1.188-0.688 0.188-0.063 0.375-0.125 0.438-0.188 0.063 0 0.063 0 0.125-0.063zM26.75 1.25c0.063 0.063 0.125 0.063 0.188 0.063 0.063 0.063 0.25 0.125 0.438 0.188 0.438 0.188 0.813 0.438 1.188 0.688 0.813 0.625 1.5 1.438 1.5 2.313s-0.5 2-1.063 2.875c-0.125 0.25-0.25 0.438-0.375 0.625-0.063-0.188-0.125-0.375-0.188-0.5v0c-0.75-2.313-2.438-4.125-4.625-4.938 0.125-0.063 0.313-0.188 0.438-0.313 0.813-0.5 1.875-0.938 2.5-1zM16 2.188c0.063 0 0.438 0.063 0.875 0.125 0.5 0.063 1.063 0.188 1.688 0.313 0.063 0 0.25 0.063 0.375 0.063-0.125 0.125-0.188 0.313-0.25 0.5-0.188 0.563 0 1.125 0.375 1.563s0.875 0.75 1.5 0.938c0.625 0.188 1.25 0.188 1.75 0.063 0.563-0.188 1.063-0.5 1.25-1.063 0.063-0.313 0.063-0.563 0-0.813 0.438 0.188 0.875 0.438 1.313 0.75-0.063 0-0.125 0.063-0.188 0.063-0.438 0.375-0.563 0.875-0.5 1.313 0.063 0.5 0.25 0.938 0.563 1.313 0.313 0.438 0.75 0.75 1.188 0.875s0.938 0.125 1.313-0.188c0.188 0.5 0.313 1.063 0.5 1.625-1.188-0.125-2.625-0.875-5.563-0.875-0.875 0-1.5 0.625-2 1.25-0.438 0.688-0.813 1.375-0.813 2.125 0 0.625 0.188 1.563 0.375 2.5 0.125 0.938 0.313 1.75 0.313 1.75 0 0.125 0.063 0.25 0.188 0.375 0 0 0.625 0.563 1.25 1.375 0.625 0.75 1.188 1.75 1.188 2.438l-1.5 3.125c-0.125 0.313 0 0.688 0.313 0.813s0.688 0 0.813-0.25l1.625-3.313c0.063-0.063 0.063-0.188 0.063-0.25 0-1.313-0.75-2.438-1.5-3.375-0.625-0.813-1.125-1.25-1.25-1.375-0.063-0.5-0.188-1-0.25-1.5-0.063-0.375-0.125-0.688-0.188-1.063 0.625 0 1.563-0.063 2.438-0.563 0 0 0 0 0 0 0.688-0.375 1.313-1.063 1.75-1.625 0.188-0.313 0.375-0.563 0.5-0.75 0.938 0.25 1.688 0.5 2.625 0.5v0c0.125 0.313 0.188 0.625 0.313 0.938-0.063 0-0.063 0-0.063 0-0.125 0-0.313 0.063-0.438 0.063-0.5 0.188-0.875 0.563-1.063 1.063-0.125 0.5-0.188 1.063-0.063 1.563 0.188 0.563 0.438 1 0.813 1.313 0.375 0.375 0.938 0.563 1.438 0.375 0.125 0 0.25-0.063 0.375-0.125 0.063 0.313 0.125 0.625 0.188 0.938-0.188-0.063-0.375-0.063-0.563-0.063-0.313 0-0.625 0.125-0.938 0.25-0.563 0.25-1.063 0.75-1.375 1.438-0.375 0.625-0.563 1.313-0.5 1.938s0.313 1.25 0.938 1.625c0.125 0.063 0.25 0.125 0.438 0.125-4.813 5.938-11.188 8.125-11.625 8.313-0.5-0.188-7-2.25-11.75-8.313 0.25 0 0.438-0.063 0.625-0.188 0.563-0.313 0.813-0.938 0.875-1.563 0.063-0.688-0.125-1.375-0.5-2-0.313-0.625-0.813-1.125-1.375-1.375-0.375-0.188-0.75-0.313-1.125-0.313-0.125 0.063-0.25 0.063-0.375 0.125 0.063-0.313 0.125-0.625 0.188-0.875 0.125 0.063 0.25 0.125 0.375 0.125 0.563 0.188 1.063-0.063 1.438-0.375s0.625-0.813 0.813-1.313c0.125-0.563 0.125-1.125-0.063-1.563-0.125-0.5-0.5-0.938-1.063-1.063-0.125-0.063-0.25-0.063-0.375-0.063-0.063 0-0.063 0.063-0.125 0.063 0.125-0.375 0.188-0.75 0.313-1.063 0.938 0 1.688-0.25 2.625-0.5 0.125 0.188 0.313 0.5 0.563 0.75 0.438 0.563 1 1.25 1.688 1.625 0.813 0.5 1.75 0.625 2.375 0.625-0.063 0.313-0.125 0.625-0.188 1-0.063 0.5-0.188 1-0.25 1.5-0.125 0.125-0.625 0.563-1.25 1.375-0.75 0.938-1.5 2.063-1.5 3.375 0 0.063 0 0.188 0.063 0.25l1.813 3.563c0.063 0.188 0.313 0.313 0.5 0.375 0.25 0 0.5-0.125 0.625-0.313s0.125-0.438 0-0.688l-1.688-3.313c0.063-0.688 0.563-1.688 1.188-2.438 0.625-0.813 1.25-1.375 1.25-1.375 0.125-0.125 0.188-0.25 0.188-0.375 0 0 0.188-0.813 0.375-1.75 0.125-0.938 0.313-1.875 0.313-2.5 0-0.75-0.375-1.438-0.813-2.125-0.5-0.625-1.125-1.25-2-1.25-2.938 0-4.313 0.688-5.5 0.875 0.188-0.563 0.313-1.125 0.5-1.625 0.375 0.25 0.875 0.25 1.25 0.125 0.438-0.125 0.875-0.438 1.188-0.813 0.313-0.438 0.5-0.875 0.563-1.375 0.063-0.438-0.063-0.938-0.5-1.313 0 0-0.063-0.063-0.125-0.063 0.438-0.313 0.875-0.5 1.313-0.688-0.063 0.25-0.063 0.5 0 0.75 0.188 0.625 0.75 0.938 1.25 1.125 0.563 0.125 1.188 0.125 1.75-0.063 0.625-0.188 1.125-0.563 1.5-0.938 0.375-0.438 0.625-1.063 0.438-1.625-0.063-0.125-0.125-0.313-0.25-0.438 0.125 0 0.25-0.063 0.313-0.063 0.625-0.125 1.188-0.25 1.688-0.313 0.438-0.063 0.813-0.125 0.875-0.125zM11.313 3.25c0.188-0.063 0.313 0 0.438 0 0.313 0.125 0.375 0.188 0.375 0.25 0.063 0.063 0 0.188-0.125 0.375-0.188 0.188-0.5 0.438-0.938 0.563-0.375 0.125-0.813 0.125-1.063 0.063s-0.313-0.188-0.313-0.25c0-0.063 0-0.188 0.125-0.375 0.188-0.188 0.5-0.438 0.938-0.563 0.188-0.063 0.375-0.063 0.563-0.063zM20.438 3.25c0.25 0 0.563 0 0.875 0.063 0.375 0.125 0.688 0.375 0.875 0.563 0.188 0.25 0.188 0.375 0.125 0.375 0 0.063-0.063 0.188-0.313 0.25s-0.625 0.063-1.063-0.063c-0.375-0.125-0.688-0.313-0.875-0.5s-0.188-0.375-0.188-0.438c0.063-0.063 0.125-0.125 0.375-0.188 0.063 0 0.125-0.063 0.188-0.063zM16 3.813c-0.5 0-0.938 0.188-1.25 0.438-0.375 0.25-0.688 0.688-0.688 1.188s0.313 0.938 0.688 1.188c0.313 0.313 0.75 0.438 1.25 0.438s0.938-0.125 1.25-0.438c0.375-0.25 0.688-0.688 0.688-1.188s-0.313-0.938-0.688-1.188c-0.313-0.25-0.75-0.438-1.25-0.438zM16 5.125c0.25 0 0.438 0.063 0.5 0.125 0.125 0.125 0.125 0.125 0.125 0.188s0 0.063-0.125 0.188c-0.063 0.063-0.25 0.125-0.5 0.125s-0.438-0.063-0.5-0.125c-0.125-0.125-0.125-0.125-0.125-0.188s0-0.063 0.125-0.188c0.063-0.063 0.25-0.125 0.5-0.125zM6.438 5.625c0 0 0 0 0 0s0.063 0.063 0.063 0.188c-0.063 0.188-0.125 0.438-0.313 0.688s-0.438 0.375-0.563 0.375c-0.188 0.063-0.188 0.063-0.188 0.063s-0.063 0-0.063-0.188c0.063-0.188 0.125-0.438 0.313-0.688 0.188-0.188 0.438-0.375 0.563-0.375 0.125-0.063 0.125-0.063 0.188-0.063zM25.5 5.688c0 0 0-0.063 0.188 0 0.125 0.063 0.375 0.188 0.563 0.438s0.313 0.5 0.313 0.625c0 0.188 0 0.25 0 0.25s-0.063 0-0.25-0.063c-0.125 0-0.375-0.188-0.563-0.438-0.188-0.188-0.25-0.438-0.313-0.625 0-0.188 0.063-0.188 0.063-0.188zM16 8.938c-0.375 0-0.625 0.313-0.625 0.688 0 0.313 0.25 0.625 0.625 0.625s0.625-0.313 0.625-0.625c0-0.375-0.25-0.688-0.625-0.688zM9.75 10.063c0.188 0 0.625 0.25 0.938 0.688 0.375 0.5 0.563 1.125 0.563 1.375v0c-0.5 0-1.313-0.063-1.813-0.375-0.438-0.25-1-0.813-1.375-1.375-0.063-0.063-0.125-0.125-0.188-0.188 0.563-0.125 1.125-0.125 1.875-0.125zM22.188 10.063c0.75 0 1.375 0.063 1.938 0.125-0.063 0.063-0.125 0.125-0.188 0.25-0.375 0.5-0.938 1.063-1.313 1.313h-0.063c-0.563 0.313-1.375 0.375-1.875 0.375v0c0-0.25 0.188-0.875 0.563-1.375 0.313-0.438 0.75-0.688 0.938-0.688zM28.25 13.188c0.063 0 0.188 0 0.313 0.125s0.313 0.375 0.375 0.688c0.125 0.313 0.063 0.625 0 0.813s-0.125 0.25-0.188 0.25c-0.063 0-0.125 0-0.25-0.125-0.188-0.125-0.313-0.375-0.438-0.688-0.063-0.313 0-0.625 0.063-0.813s0.125-0.25 0.125-0.25zM3.625 13.25c0.063 0 0.063 0 0.125 0s0.125 0.063 0.188 0.25c0.063 0.188 0.063 0.438 0 0.75-0.063 0.375-0.25 0.625-0.375 0.75-0.188 0.125-0.25 0.125-0.313 0.125-0.063-0.063-0.125-0.063-0.188-0.25s-0.063-0.5 0-0.813c0.063-0.313 0.25-0.563 0.375-0.688 0.125-0.063 0.188-0.125 0.188-0.125zM2.75 18.25c0.063 0 0.125 0 0.188 0s0.188 0.063 0.313 0.125c0.313 0.188 0.688 0.438 0.938 0.875 0.25 0.5 0.313 0.938 0.313 1.25 0 0.375-0.125 0.5-0.25 0.563s-0.375 0.125-0.625-0.063c-0.313-0.125-0.688-0.438-0.875-0.875-0.25-0.438-0.375-0.938-0.375-1.25 0.063-0.313 0.188-0.5 0.313-0.625 0 0 0.063 0 0.063 0zM29.125 18.25c0.063 0 0.188 0 0.25 0.063 0.125 0.063 0.25 0.25 0.25 0.563s-0.063 0.75-0.313 1.125c-0.063 0.188-0.188 0.313-0.313 0.5-0.188 0.25-0.375 0.438-0.625 0.5-0.25 0.188-0.5 0.188-0.625 0.125-0.125-0.125-0.188-0.25-0.25-0.625 0-0.313 0.063-0.75 0.313-1.188s0.625-0.75 0.938-0.938c0.125-0.063 0.25-0.125 0.375-0.125zM14.063 19.813c-0.625 0-0.938 0.375-1.25 0.625s-0.5 0.5-0.5 0.5c-0.188 0.188-0.25 0.438-0.188 0.688 0.125 0.188 0.313 0.375 0.563 0.438 0.188 0 0.438-0.063 0.563-0.25 0 0 0.188-0.25 0.438-0.438 0.188-0.125 0.438-0.25 0.438-0.25-0.063 0 0.063 0 0.25 0.063s0.375 0.188 0.563 0.25c0.375 0.25 0.75 0.438 0.75 0.438 0.188 0.125 0.438 0.125 0.625 0 0 0 0.375-0.188 0.75-0.438 0.188-0.063 0.375-0.188 0.563-0.25s0.313-0.063 0.25-0.063c0 0 0.25 0.125 0.438 0.25 0.25 0.188 0.438 0.438 0.438 0.438 0.125 0.188 0.375 0.313 0.563 0.25 0.25-0.063 0.438-0.25 0.563-0.438 0.063-0.25 0-0.5-0.188-0.688 0 0-0.188-0.25-0.5-0.5s-0.625-0.625-1.25-0.625c-0.313 0-0.5 0.125-0.75 0.188-0.25 0.125-0.5 0.188-0.688 0.313-0.313 0.125-0.375 0.188-0.5 0.25-0.125-0.063-0.188-0.125-0.5-0.25-0.188-0.125-0.438-0.188-0.688-0.313-0.25-0.063-0.438-0.188-0.75-0.188zM15.875 23.813c-0.313 0.063-0.5 0.313-0.5 0.625 0 0.375-0.125 0.563-0.438 0.75s-0.813 0.313-1.313 0.438c-1 0.125-2.125 0.063-2.125 0.063-0.313-0.063-0.625 0.188-0.688 0.563 0 0.313 0.25 0.688 0.563 0.688 0 0 1.188 0.125 2.438-0.063 0.625-0.063 1.25-0.25 1.813-0.625 0.188-0.125 0.25-0.25 0.375-0.438 0.125 0.125 0.25 0.313 0.375 0.438 0.563 0.313 1.188 0.5 1.813 0.563 1.188 0.25 2.438 0.125 2.438 0.125 0.313 0 0.563-0.313 0.563-0.688s-0.313-0.625-0.688-0.563c0 0-1.063 0.063-2.125-0.125-0.5-0.063-1-0.25-1.313-0.438s-0.438-0.313-0.438-0.688c0-0.188-0.063-0.375-0.188-0.5-0.188-0.125-0.375-0.125-0.563-0.125z"></path>
</svg>
