<!-- Generated by IcoMoon.io -->
<svg version="1.1" xmlns="http://www.w3.org/2000/svg" width="32" height="32" viewBox="0 0 32 32">
<title>Lion</title>
<path d="M25.25 12.125c0 0 0.625-2.563 0-3.688-0.688-1.125-4.625-2.938-4.625-2.938s1.813-4.063-3.938-4.375c3.188 1.688 2.188 3.625 2.188 3.625l-3.75 1.25c0 0-1.5-4-9-4.5 4.188 0.25 7.75 0.438 9.5 3.375 0.938-0.313 1.313-0.625 2.313-0.813-0.25-2.313-3.25-3.25-4.375-3.5s-7.5-1.188-9.5 0.313c-0.938 0.438-3.875 4.5-3.875 6.563 0 2.125-0.188 18-0.188 19.25s1.563 5.25 2.563 5.25c1 0 12.375 0 15 0 1.563 0-11.813-15.438-5.188-19.563-3.563 6.063 4.063 13.438 5.375 14.5 1.25 1.063 5.625 1.563 6.188 1.438s2.313-3.625 2.313-4.063c0-0.375-3.688-2.563-4-2.938s-3.438 0.313-3.438-1.063c0-1.438 3-2.125 4.125-1.75 1.188 0.375 4.063 2.938 4.75 3s4.188-4.313 4.313-5.375c0.125-1.063-6.75-4-6.75-4zM10.313 11.125c-0.25 0.125-0.5 0.313-0.813 0.5-0.25 0.25-0.563 0.563-0.813 0.875-0.188 0.375-0.438 0.75-0.563 1.25-0.125 0.438-0.125 0.938-0.063 1.438 0.063 0.563 0.188 1.063 0.375 1.625s0.375 1.188 0.563 1.75c0.188 0.563 0.25 1.25 0.375 1.875s0.188 1.188 0.25 1.813c0.063 0.563 0.063 1.125 0.063 1.688 0 0.5 0 1-0.063 1.5-0.063 0.938-0.188 1.688-0.25 2.25-0.125 0.5-0.188 0.813-0.188 0.813s0-0.313-0.063-0.875c0-0.5-0.063-1.25-0.125-2.188-0.125-0.938-0.188-2-0.375-3.125-0.125-0.563-0.188-1.125-0.313-1.688-0.188-0.563-0.188-1.125-0.438-1.75-0.125-0.563-0.313-1.125-0.5-1.75s-0.313-1.25-0.313-1.875c0-0.625 0.063-1.25 0.25-1.813s0.563-1 0.875-1.375c0.75-0.688 1.5-1 2-1.188 0.563-0.125 0.875-0.125 0.875-0.125s-0.313 0.063-0.75 0.375zM8.938 8.375c-0.625 0.25-1.438 0.688-2.063 1.188-0.313 0.313-0.625 0.625-0.813 0.938-0.125 0.188-0.188 0.375-0.25 0.563s-0.063 0.313-0.125 0.625c-0.063 0.5-0.125 1-0.188 1.5-0.125 0.5-0.25 1-0.375 1.438-0.25 0.938-0.625 1.75-0.938 2.438-0.375 0.688-0.75 1.25-1 1.625-0.188 0.125-0.313 0.25-0.438 0.313s-0.125 0.063-0.125 0.063 0 0 0.125-0.125c0.063-0.063 0.125-0.188 0.25-0.375 0.125-0.438 0.313-1 0.563-1.75 0.188-0.688 0.375-1.5 0.563-2.438 0.125-0.438 0.188-0.875 0.25-1.375s0.125-0.938 0.188-1.438c0-0.188 0.063-0.563 0.125-0.875 0.188-0.25 0.25-0.563 0.438-0.75 0.313-0.5 0.75-0.875 1.125-1.188 0.438-0.25 0.875-0.5 1.313-0.625 0.438-0.188 0.813-0.313 1.188-0.375 1.5-0.375 2.563-0.313 2.563-0.313s-1 0.313-2.375 0.938z"></path>
</svg>
