<!-- Generated by IcoMoon.io -->
<svg version="1.1" xmlns="http://www.w3.org/2000/svg" width="32" height="32" viewBox="0 0 32 32">
<title>Lizard</title>
<path d="M8.375 22.688c0.063 0 0.125 0 0.125 0 2.625-0.063 5.063-1.313 7.75-4.063 0.063-0.063 0.375-0.188 0.813-0.313 1.438 1 2.188 1.688 2.313 1.938-0.063 0.063-0.25 0.125-0.438 0.188-0.75 0.188-1.938 0.5-2.5 1.313-0.25 0.313-0.313 0.563-0.188 0.813 0.125 0.375 0.5 0.563 1 0.688l0.25 1.313c0 0.125 0.125 0.25 0.25 0.25 0 0 0 0 0.063-0.063 0.125 0 0.188-0.125 0.188-0.25l-0.25-1.063c0.188 0 0.313 0.063 0.5 0.125 0.25 0.063 0.438 0.188 0.625 0.188l1.438 1.625c0.063 0 0.125 0.063 0.188 0.063s0.125-0.063 0.188-0.125c0.063-0.063 0.063-0.188 0-0.313l-1.188-1.25 1.813 0.75c0.063 0.063 0.063 0.063 0.125 0.063s0.188-0.063 0.188-0.188c0.063-0.125 0-0.25-0.125-0.313l-1.813-0.75c0-0.063 0-0.063 0-0.063 0.375 0.063 1.313 0.188 1.938 0.25 0.063 0 0.063 0 0.063 0 0.125 0 0.188-0.063 0.25-0.188 0-0.125-0.063-0.25-0.25-0.25-0.25-0.063-1.563-0.25-2-0.313 0 0-0.063-0.063-0.063-0.063l0.5-0.063c0.125-0.063 0.25-0.188 0.25-0.313-0.063-0.125-0.188-0.188-0.313-0.188l-1.063 0.188c0-0.063 0-0.063-0.063-0.063-0.125-0.063-0.25-0.125-0.375-0.188 0.25-0.063 0.688-0.125 0.938-0.188 1.063-0.25 2.5-0.688 2.438-1.625-0.063-0.5-1.313-1.75-2.25-2.625 1.125-0.438 2.063-0.938 2.813-1.563 0.5-0.438 0.875-0.875 1.25-1.438 0.188 0.375 0.5 0.625 0.75 0.688 0.438 0.125 1.188 0.25 1.875 0.375 0.563 0.625 0.813 1 0.875 1 0 0.063 0.063 0.125 0.125 0.125s0.125-0.063 0.188-0.125c0.125-0.063 0.125-0.188 0-0.313 0-0.063-0.188-0.25-0.438-0.563 0 0 0.063 0 0.063 0 0.25 0 0.438 0.063 0.563 0.063 0.063 0 0.063 0 0.125 0s0.125 0 0.188-0.063l1.563 0.563c0 0 0.063 0.063 0.063 0.063 0.125 0 0.25-0.125 0.25-0.25s-0.063-0.188-0.188-0.25l-1.313-0.5c0-0.063 0.063-0.063 0.063-0.125l1.938 0.063c0.063 0 0.063 0 0.188-0.063 0.063 0 0.063-0.063 0.063-0.125 0-0.188-0.063-0.25-0.188-0.25l-1.938-0.125c0-0.063 0 0 0-0.063l1.563-0.563c0.063 0 0.188-0.125 0.125-0.25 0-0.188-0.125-0.25-0.313-0.188l-1.688 0.625c-0.125-0.063-0.188-0.125-0.313-0.125l1.188-0.813c0.125-0.063 0.125-0.25 0.063-0.313-0.063-0.125-0.188-0.188-0.313-0.063l-1.625 1.063c-0.875-0.188-1.438-0.25-1.688-0.313s-0.25-0.688-0.188-1.188c0-0.5 0-1-0.188-1.25-0.063-0.125-0.188-0.188-0.313-0.313 0.125-0.5 0.313-1 0.688-1.375 0 0 0.125 0.063 0.188 0.063 0.313 0.125 0.875 0.313 1.5-0.25 0.25-0.188 0.438-0.5 0.625-0.875 0 0 0 0 0 0s0 0 0 0 0 0 0 0c0.313-0.625 0.563-1.5 0.563-2.313 0 0 0 0 0 0s0 0 0 0c0.063-0.438 0.063-1.25-0.313-1.625-0.313-0.313-0.938-0.313-1.438-0.25-0.813 0.063-1.688 0.313-2.313 0.688-0.375 0.188-0.625 0.438-0.875 0.688-0.5 0.563-0.313 1.063-0.188 1.375 0 0.063 0.063 0.25 0.063 0.25-0.375 0.375-0.75 0.625-1.313 0.813 0-0.063-0.063-0.125-0.125-0.125-0.313-0.25-0.813-0.188-1.313-0.188s-1.125 0.063-1.125-0.188c-0.063-0.25-0.188-0.875-0.313-1.688l1.063-1.625c0.063-0.125 0.063-0.25-0.063-0.375-0.125-0.063-0.25 0-0.313 0.063l-0.813 1.25c0-0.125-0.063-0.25-0.125-0.313l0.625-1.75c0.063-0.125-0.063-0.25-0.188-0.313-0.125 0-0.25 0.063-0.313 0.188l-0.5 1.563c-0.063 0-0.063 0-0.063 0l-0.125-1.938c0-0.125-0.125-0.25-0.25-0.25s-0.25 0.125-0.25 0.25l0.125 2c-0.063 0-0.125 0-0.125 0.063l-0.5-1.375c-0.063-0.063-0.188-0.188-0.313-0.125-0.125 0-0.188 0.188-0.188 0.313l0.563 1.563c0 0.063-0.063 0.188 0 0.25 0 0.188 0.063 0.375 0.063 0.625 0 0 0 0.063 0 0.063-0.25-0.25-0.563-0.438-0.563-0.438-0.125-0.125-0.25-0.125-0.375 0-0.063 0.063-0.063 0.188 0 0.313 0.063 0.063 0.375 0.313 1.063 0.813 0.063 0.688 0.188 1.5 0.313 1.875 0.063 0.25 0.313 0.5 0.563 0.688-0.5 0.313-0.938 0.75-1.375 1.25-0.438 0.563-0.938 1.5-1.5 2.875-0.875-0.938-2.188-2.25-2.625-2.313-1-0.063-1.438 1.375-1.625 2.5-0.063 0.188-0.188 0.625-0.25 0.875-0.063-0.125-0.125-0.25-0.188-0.375 0 0 0-0.063 0-0.063l0.125-1.063c0.063-0.125-0.063-0.25-0.188-0.25-0.125-0.063-0.25 0.063-0.25 0.188l-0.125 0.5c0 0 0 0-0.063-0.063-0.063-0.438-0.25-1.688-0.25-2-0.063-0.125-0.125-0.25-0.313-0.188-0.125 0-0.188 0.125-0.188 0.25 0.063 0.625 0.188 1.563 0.25 1.938 0 0.063 0 0.063 0 0.063l-0.813-1.875c-0.063-0.125-0.188-0.188-0.25-0.125-0.188 0-0.25 0.188-0.188 0.313l0.75 1.813-1.25-1.188c-0.125-0.063-0.25-0.063-0.375 0.063-0.063 0.063-0.063 0.25 0.063 0.313l1.563 1.438c0 0.188 0.125 0.438 0.188 0.688 0.063 0.125 0.125 0.25 0.188 0.438l-1.125-0.188c-0.125-0.063-0.25 0.063-0.25 0.188-0.063 0.125 0.063 0.25 0.188 0.25l1.313 0.25c0.188 0.5 0.375 0.938 0.688 1.063 0.063 0 0.188 0 0.25 0 0.188 0 0.375-0.063 0.625-0.25 0.75-0.563 1.063-1.688 1.313-2.5 0-0.125 0.063-0.313 0.125-0.438 0.313 0.125 0.875 0.875 1.875 2.188 0 0.063-0.063 0.063-0.063 0.063v0.063c-0.313 0.938-1 2.313-2.938 3.563-2.125 1.438-4.125 1.125-5.063 0.875-1.813-0.563-4.125-3.188-4.75-6.313-0.125-0.625-0.188-0.75-0.375-0.813-0.063 0-0.188 0-0.25 0.125-0.25 0.25 0.063 2.625 0.75 4.25 0.938 2.375 3.313 4.875 6.25 4.875zM6.563 21c1.063 0.313 3.188 0.625 5.5-0.875 2.125-1.375 2.813-2.875 3.125-3.813l0.063-0.063c0-0.063 0-0.125 0-0.188l0.125-0.313c0.125-0.375 0.375-1 0.563-1.625 0.563-1.5 1.125-2.563 1.563-3.125 0.5-0.625 1.063-1.063 1.813-1.375v-0.063c0.5-0.188 1.063-0.313 1.563-0.438 0.438-0.125 0.813-0.188 1.25-0.375 0.625-0.188 1.125-0.5 1.563-0.938 0.25-0.25 0.125-0.563 0.063-0.75-0.125-0.313-0.188-0.563 0.125-0.938 0.125-0.188 0.313-0.313 0.5-0.438 0.063 0 0.063 0.063 0.125 0.063 0.25 0.25 0.563 0.375 0.938 0.375s0.75-0.125 1.063-0.438c0.25-0.25 0.375-0.5 0.438-0.813 0.5 0 0.75 0.063 0.875 0.188 0.063 0.063 0.188 0.438 0.188 1.063-0.25 0.063-0.5 0.188-0.688 0.375-0.313 0.313-0.438 0.625-0.438 1-0.063 0.375 0.063 0.75 0.375 1 0 0.063 0.063 0.063 0.063 0.125-0.125 0.188-0.25 0.375-0.438 0.5-0.375 0.375-0.688 0.25-1 0.188-0.188-0.063-0.438-0.188-0.625 0-0.5 0.5-0.688 1.125-0.875 1.75-0.063 0.25-0.125 0.5-0.188 0.688-0.125 0.688-0.25 1.375-0.563 2.063-0.313 0.75-0.813 1.375-1.438 1.875-0.75 0.688-1.813 1.188-3.063 1.563-0.625 0.188-1.188 0.375-1.688 0.5-0.125 0-0.313 0.063-0.438 0.125-0.625 0.125-0.938 0.25-1.063 0.375-2.625 2.688-4.938 3.875-7.438 3.938-2.625 0.063-5-2.25-5.938-4.563-0.188-0.5-0.375-1-0.5-1.5 1 2.313 2.813 4.375 4.5 4.875zM25.5 5.188c0 0 0 0 0 0 0 0.063 0 0.063 0 0.063s0 0.063 0 0.063c0 0 0.063 0 0.063 0s0 0.063 0 0.063c0.063 0 0.063 0 0.063 0s0.063 0 0.063 0c0 0 0 0 0.063 0 0 0 0 0 0 0 0.063 0 0.063 0 0.063 0s0 0 0.063 0c0 0 0-0.063 0-0.063 0.063 0 0.063-0.063 0.063-0.125s0-0.063 0-0.063 0-0.063 0-0.063c0 0 0 0 0 0 0.125-0.063 0.313-0.125 0.5-0.125-0.063 0.125-0.188 0.313-0.313 0.438-0.375 0.375-0.938 0.375-1.313 0.063 0 0 0 0 0 0 0.25-0.125 0.438-0.188 0.688-0.25zM27.875 7.063c-0.063 0-0.125 0-0.188 0.063s-0.063 0.125-0.063 0.188c0 0.063 0 0.125 0.063 0.188 0 0 0 0 0.063 0 0 0 0 0 0 0s0 0 0 0c-0.063 0.25-0.125 0.438-0.188 0.688-0.188-0.188-0.25-0.438-0.25-0.625 0.063-0.25 0.125-0.5 0.313-0.688 0.125-0.125 0.188-0.188 0.313-0.25 0 0.188-0.063 0.313-0.063 0.438zM21.438 20.25c0.063 0.438-0.688 0.813-2.063 1.125-1.125 0.25-1.438 0.375-1.438 0.625-0.063 0.25 0.188 0.438 0.375 0.5s0.313 0.125 0.438 0.188c0.5 0.25 0.5 0.25 0.5 0.375-0.063 0.188-0.125 0.25-0.25 0.25 0 0 0 0 0 0-0.125 0-0.25-0.063-0.625-0.188-0.188-0.125-0.375-0.188-0.625-0.25-0.438-0.125-1-0.25-1.063-0.5-0.063-0.063 0.063-0.25 0.125-0.375 0.5-0.625 1.563-0.938 2.25-1.125 0.375-0.125 0.563-0.188 0.688-0.25s0.188-0.188 0.188-0.313c0-0.375-0.625-0.938-2.25-2.125 0.125-0.063 0.25-0.063 0.375-0.125 0.063 0 0.125 0 0.25-0.063 0 0 0.063 0 0.125 0 0.125-0.063 0.25-0.063 0.313-0.125 0.063 0 0.063 0 0.125 0 0.063-0.063 0.188-0.063 0.25-0.125 1.313 1.188 2.313 2.25 2.313 2.5zM25.438 14.313c0.313 0 1.125 0.188 2.313 0.375 0.313 0.063 0.313 0.188 0.313 0.25s0 0.063 0 0.063 0 0 0 0.063c0 0 0 0 0 0 0 0.125-0.063 0.25-0.125 0.313-0.063 0-0.063 0-0.063 0s0 0 0 0c-0.188 0-0.375-0.063-0.625-0.063-0.188-0.063-0.438-0.063-0.688-0.125 0 0 0 0 0 0-0.688-0.063-1.5-0.188-1.938-0.313-0.125-0.063-0.438-0.375-0.625-0.75 0-0.063 0.063-0.125 0.063-0.125 0.313-0.75 0.5-1.5 0.625-2.125 0-0.063 0.063-0.188 0.063-0.25 0 0 0.063 0 0.063 0.063 0.125 0.125 0.063 0.563 0.063 0.938-0.063 0.75-0.063 1.563 0.563 1.688zM18.438 8.625c-0.125-0.375-0.25-1.188-0.375-1.875 0 0 0 0 0 0 0-0.25-0.063-0.5-0.063-0.688-0.063-0.25-0.063-0.5-0.125-0.625 0 0 0 0 0.063 0 0 0 0-0.063 0-0.063 0.063-0.063 0.188-0.125 0.313-0.188 0 0 0 0 0 0s0 0 0 0c0.063 0 0.063 0 0.063 0s0 0 0 0c0.063 0 0.25 0 0.313 0.375 0.188 1.125 0.313 1.938 0.375 2.25 0.125 0.688 0.938 0.625 1.688 0.625 0.313-0.063 0.688-0.063 0.875 0-0.25 0.063-0.5 0.125-0.813 0.188-0.5 0.188-1.063 0.313-1.625 0.563h-0.063c0 0-0.063 0-0.063 0-0.313-0.188-0.563-0.375-0.563-0.563zM12.875 13.313c-0.125 0-0.188 0.063-0.313 0.125-0.063 0.125-0.125 0.313-0.25 0.688-0.188 0.75-0.5 1.813-1.125 2.25-0.125 0.063-0.25 0.188-0.375 0.125-0.25-0.063-0.375-0.625-0.5-1.063-0.063-0.188-0.125-0.438-0.188-0.625-0.125-0.313-0.25-0.5-0.25-0.625 0 0 0 0 0 0 0-0.125 0.125-0.125 0.25-0.188s0.188-0.063 0.375 0.438c0.063 0.125 0.125 0.313 0.188 0.438 0.125 0.188 0.25 0.438 0.5 0.438 0.25-0.063 0.375-0.375 0.625-1.5 0.313-1.375 0.688-2.125 1.125-2.063 0.25 0.063 1.375 1.063 2.5 2.313-0.188 0.5-0.313 1-0.438 1.375-1.188-1.563-1.75-2.125-2.125-2.125z"></path>
</svg>
