<!-- Generated by IcoMoon.io -->
<svg version="1.1" xmlns="http://www.w3.org/2000/svg" width="32" height="32" viewBox="0 0 32 32">
<title>Logging</title>
<path d="M12.313 13.813l-4.438 0.063-1.938-2.875 2.25 2h1v-2.813c0-1-0.813-1.813-1.75-1.813h-3.188c-1.125 0-1.875 1.063-1.75 1.875v9.063l0.563 4.625-2.5 6.063c-0.313 0.75 0.063 1.563 0.75 1.875 0.75 0.313 1.625-0.063 1.938-0.75l2.625-6.438c0.125-0.25 0.125-0.5 0.125-0.75-0.125-0.688-0.375-2.938-0.5-3.625h1.125c0.188 1 0.313 2.063 0.438 3.125l-1.438 6.813c-0.188 0.813 0.313 1.563 1.125 1.688 0.75 0.188 1.563-0.313 1.688-1.063l1.5-7.063c0.063-0.188 0.063-0.375 0-0.5-0.25-2.125-0.188-1.875-0.313-2.5-0.813-0.063-1.563-0.625-1.938-1.438-0.25-0.75-0.188-1.5 0.125-2.125-0.063 0-0.563 0.063-0.563 0.063-1.063 0-1.75-0.75-1.875-1.125l-1.375-3.438 2.188 3.125c0.25 0.313 0.625 0.563 1.063 0.563 0.75-0.063 4.313-0.063 5.063-0.125 0.75 0 1.25-0.563 1.25-1.25 0-0.75-0.563-1.25-1.25-1.25zM5.875 2.313c-1.5 0-2.625 1.188-2.625 2.625 0 1.5 1.125 2.688 2.625 2.688 1.438 0 2.625-1.188 2.625-2.688 0-1.438-1.188-2.625-2.625-2.625zM24.688 12.25c-0.313-0.75-1.188-1.125-1.938-0.813l-5.313 2.25-0.25-0.625c-0.188-0.375-0.688-0.563-1.125-0.438l-0.375 0.188c-0.5-1.125-1.813-1.625-3-1.125-0.563 0.25-1 0.688-1.25 1.25h1.188c0.125-0.125 0.313-0.25 0.438-0.313 0.688-0.25 1.375 0 1.688 0.625l-0.875 0.313c0.375 0.438 0.563 0.938 0.563 1.5 0 1.125-0.938 2.125-2.125 2.125-0.438 0-2.813 0.063-3.313 0.063-0.5 0.438-0.688 1.125-0.375 1.75 0.313 0.75 1.188 1.125 1.938 0.813l1.375-0.625 0.25 0.625c0.188 0.375 0.688 0.625 1.063 0.438l5.125-2.125c0.438-0.188 0.625-0.688 0.438-1.063l-0.25-0.625 5.313-2.25c0.75-0.313 1.125-1.188 0.813-1.938zM31.563 0.75c0-0.438-0.313-0.75-0.75-0.75h-14.188c-0.25 0-0.438 0.125-0.563 0.375-0.188 0.188-0.188 0.438-0.063 0.688 0.313 0.5 0.75 1.063 1.438 1.5 0 0 0 0 0 0.063 0 1.438 1.188 2.625 2.688 2.563 0.375 1.313 1.75 2.125 3.125 1.75l1.625 1.625c0.375 0.375 0.563 0.875 0.563 1.375v0.813c0 0.125 0.125 0.25 0.25 0.25l1.5 0.313c0.063 0 0.188 0.063 0.25 0.125 0 0.125 0 0.25-0.063 0.313l-1.75 2.688c-0.125 0.125-0.188 0.313-0.188 0.5v16.313c0 0.438 0.375 0.75 0.75 0.75h3.25c0.375 0 0.688-0.313 0.688-0.75v-21.313c0-0.5 0.25-1 0.563-1.375l0.625-0.625c0.188-0.125 0.25-0.313 0.25-0.5zM29.188 7.938c-0.375 0.375-0.875 0.563-1.375 0.563s-1-0.188-1.375-0.563l-1.875-1.813c0.125-0.188 0.25-0.375 0.375-0.563 0.5 0.75 1.375 1.25 2.375 1.25s1.938-0.563 2.438-1.438c0.25 0.438 0.563 0.813 0.938 1.063z"></path>
</svg>
