<!-- Generated by IcoMoon.io -->
<svg version="1.1" xmlns="http://www.w3.org/2000/svg" width="32" height="32" viewBox="0 0 32 32">
<title>Logs</title>
<path d="M3.438 23.688c0.313-0.188 0.375-0.5 0.25-0.75-0.188-0.25-0.5-0.938-0.5-2.125s0.313-1.875 0.5-2.125c0.125-0.313 0.063-0.625-0.25-0.75-0.25-0.125-0.563-0.063-0.688 0.188-0.188 0.313-0.625 1.25-0.625 2.688s0.438 2.313 0.625 2.625c0.063 0.188 0.313 0.313 0.438 0.313s0.25 0 0.25-0.063zM8.563 20.813c0-1.188 0.313-1.875 0.438-2.125 0.125-0.313 0.063-0.625-0.188-0.75s-0.625-0.063-0.75 0.188c-0.188 0.313-0.625 1.25-0.625 2.688s0.438 2.313 0.625 2.625c0.125 0.188 0.313 0.313 0.5 0.313 0.063 0 0.188 0 0.25-0.063 0.25-0.188 0.375-0.5 0.188-0.75-0.125-0.25-0.438-0.938-0.438-2.125zM20.813 17.625h-3.188c-0.375 0-0.563 0.188-0.563 0.5s0.188 0.563 0.563 0.563h3.188c0.313 0 0.5-0.25 0.5-0.563s-0.188-0.5-0.5-0.5zM31.438 17.813c-0.313-0.813-0.688-1.438-1.188-1.813 1.063-0.875 1.75-2.688 1.75-4.813 0-1-0.125-1.938-0.438-2.688 0-0.125-0.063-0.25-0.125-0.313-0.563-1.438-1.5-2.313-2.625-2.313h-22.938c-1.75 0-3.188 2.313-3.188 5.313 0 1.875 0.563 3.563 1.375 4.5-0.25-0.125-0.563-0.25-0.875-0.25-1.813 0-3.188 2.375-3.188 5.375s1.375 5.313 3.188 5.313h25.625c1.813 0 3.188-2.313 3.188-5.313 0-1-0.125-1.938-0.438-2.75 0-0.125-0.063-0.188-0.125-0.25zM28.813 6.938c0.438 0 0.938 0.375 1.375 1.063h-15.25c-0.313 0-0.563 0.188-0.563 0.563 0 0.313 0.25 0.5 0.563 0.5h15.688c0.125 0.5 0.25 1 0.313 1.625h-4.813c-0.313 0-0.5 0.188-0.5 0.5s0.188 0.563 0.5 0.563h4.813c-0.188 2.188-1.188 3.688-2.125 3.688h-21c0.25-0.25 0.5-0.625 0.625-1.063h4.875c0.313 0 0.563-0.188 0.563-0.5s-0.25-0.563-0.563-0.563h-4.5c0.063-0.25 0.125-0.5 0.125-0.75 0 0 0 0 0.063 0 0-0.063 0-0.125 0-0.188s0-0.125 0-0.125 0-0.125 0-0.188c0 0 0.063-0.063 0.063-0.125s0-0.063 0-0.125 0-0.125 0-0.188c0-0.063 0-0.063 0-0.125 0-0.125 0-0.188 0-0.313 0-0.063 0-0.188 0-0.313 0 0 0-0.063 0-0.125s0-0.063 0-0.125c-0.063-0.563-0.125-1.063-0.25-1.563h4c0.313 0 0.5-0.188 0.5-0.5 0-0.375-0.188-0.563-0.5-0.563h-4.375c-0.125-0.375-0.375-0.75-0.625-1.063zM8.563 25.063c-0.063 0-0.063 0-0.125 0 0 0 0 0 0 0-0.625-0.063-1.25-0.75-1.625-1.813 0 0 0 0 0 0-0.25-0.688-0.438-1.5-0.438-2.438 0-2.5 1.125-4.25 2.188-4.25 1 0 2.125 1.75 2.125 4.25s-1.125 4.25-2.125 4.25zM5.875 16.563h0.688c-0.25 0.313-0.5 0.75-0.688 1.25-0.25-0.625-0.563-1.063-0.875-1.5 0.25 0.125 0.563 0.25 0.875 0.25zM5.875 6.938c1 0 2.125 1.75 2.125 4.25s-1.125 4.25-2.125 4.25c-1 0-2.125-1.75-2.125-4.25s1.125-4.25 2.125-4.25zM1.063 20.813c0-2.5 1.125-4.25 2.125-4.25s2.125 1.75 2.125 4.25c0 2.438-1 4.125-2 4.25 0 0 0 0 0 0-0.063 0-0.063 0-0.125 0-1 0-2.125-1.75-2.125-4.25zM5.438 24.625c0.125-0.188 0.25-0.375 0.375-0.625h0.125c0.188 0.375 0.375 0.75 0.625 1.063h-1.375c0.063-0.125 0.188-0.313 0.25-0.438zM28.813 25.063h-18.313c0.25-0.313 0.438-0.688 0.625-1.063h4.875c0.313 0 0.563-0.188 0.563-0.563 0-0.313-0.25-0.5-0.563-0.5h-4.5c0.188-0.625 0.313-1.375 0.313-2.125s-0.125-1.5-0.313-2.125h3.938c0.375 0 0.563-0.25 0.563-0.563s-0.188-0.5-0.563-0.5h-4.313c-0.188-0.438-0.375-0.813-0.625-1.063h18.313c0.438 0 0.938 0.375 1.375 1.063h-7.25c-0.313 0-0.563 0.188-0.563 0.5s0.25 0.563 0.563 0.563h7.688c0.125 0.438 0.25 1 0.313 1.563h-4.813c-0.313 0-0.5 0.25-0.5 0.563s0.188 0.5 0.5 0.5h4.813c-0.188 2.25-1.188 3.75-2.125 3.75zM24 20.813c0-0.313-0.188-0.563-0.563-0.563h-1.563c-0.313 0-0.563 0.25-0.563 0.563s0.25 0.5 0.563 0.5h1.563c0.375 0 0.563-0.188 0.563-0.5zM19.188 20.813c0-0.313-0.188-0.563-0.5-0.563h-5.375c-0.313 0-0.5 0.25-0.5 0.563s0.188 0.5 0.5 0.5h5.375c0.313 0 0.5-0.188 0.5-0.5zM28.25 22.938h-4.25c-0.313 0-0.563 0.188-0.563 0.5 0 0.375 0.25 0.563 0.563 0.563h4.25c0.313 0 0.563-0.188 0.563-0.563 0-0.313-0.25-0.5-0.563-0.5zM20.25 22.938h-1.063c-0.313 0-0.5 0.188-0.5 0.5 0 0.375 0.188 0.563 0.5 0.563h1.063c0.313 0 0.563-0.188 0.563-0.563 0-0.313-0.25-0.5-0.563-0.5zM5.875 14.125c0.125 0 0.188-0.063 0.25-0.063 0.25-0.125 0.375-0.438 0.25-0.75-0.188-0.25-0.5-0.938-0.5-2.125s0.313-1.875 0.5-2.125c0.125-0.25 0-0.563-0.25-0.75-0.25-0.125-0.563-0.063-0.75 0.25-0.125 0.313-0.563 1.188-0.563 2.625s0.438 2.375 0.563 2.688c0.125 0.125 0.313 0.25 0.5 0.25zM18.125 11.75h1.625c0.313 0 0.5-0.25 0.5-0.563s-0.188-0.5-0.5-0.5h-1.625c-0.313 0-0.5 0.188-0.5 0.5s0.188 0.563 0.5 0.563zM10.125 11.188c0 0.313 0.25 0.563 0.563 0.563h5.313c0.313 0 0.563-0.25 0.563-0.563s-0.25-0.5-0.563-0.5h-5.313c-0.313 0-0.563 0.188-0.563 0.5zM21.875 11.75h1.563c0.375 0 0.563-0.25 0.563-0.563s-0.188-0.5-0.563-0.5h-1.563c-0.313 0-0.563 0.188-0.563 0.5s0.25 0.563 0.563 0.563zM24.563 14.375h4.25c0.313 0 0.5-0.188 0.5-0.5s-0.188-0.563-0.5-0.563h-4.25c-0.375 0-0.563 0.25-0.563 0.563s0.188 0.5 0.563 0.5zM21.875 13.313h-5.313c-0.375 0-0.563 0.25-0.563 0.563s0.188 0.5 0.563 0.5h5.313c0.313 0 0.5-0.188 0.5-0.5s-0.188-0.563-0.5-0.563z"></path>
</svg>
