<!-- Generated by IcoMoon.io -->
<svg version="1.1" xmlns="http://www.w3.org/2000/svg" width="32" height="32" viewBox="0 0 32 32">
<title>Linx</title>
<path d="M25.313 19.25l1-2-0.375-4.313 1.125-1.875-0.563-3.688 0.375-3.188h-0.625l-1.625 2.563-1.563-0.688-1.313 0.688-1.875-2.563h-0.688l0.75 3.188-0.375 1.625-2.188 1.063-3.25 3.188-3.563 1.125-6 7.875 0.688 7.813h12.375l0.5-0.938-0.5-0.938-3.875-2.25 3.188 1.5 0.063-0.063 2.188-3.563v-4.313l0.875 10.688 1.063 1.813h3.688l-0.25-1.313-0.938-0.938h-1.063l-0.25-2.813 0.563-3.188 1.25-2.25-0.75 2.188-0.625 3.188v2.563h0.938l1.25 1.313 0.313 1.25h1l-0.313-1.625-1.313-0.938-0.625-2.563 0.625-2.875zM12.375 25.125c0.625-0.688 1-1.625 1-2.688 0-2.188-1.625-3.938-3.688-3.938 0 0-0.063 0-0.125 0 0.313 0 0.563-0.063 0.875-0.063 2 0 3.688 1.625 3.688 3.625 0 1.313-0.688 2.438-1.75 3.063zM24.438 8.625l1 0.313-1.125 0.563zM20.875 8.938l0.938-0.313 0.125 0.875zM23.125 11.813l-0.563 0.313-1.313-0.688 1.313 0.5 0.5-0.188v-0.688l-0.625-0.5h1.375l-0.75 0.5v0.688l0.5 0.188 1.375-0.5-1.25 0.688zM19.625 5.125l-0.75-3.188 0.5 1.25-0.25-2.25 0.75 4.188zM26.5 5.125l0.75-3.188-0.5 1.25 0.25-2.25-0.75 4.188z"></path>
</svg>
