<!-- Generated by IcoMoon.io -->
<svg version="1.1" xmlns="http://www.w3.org/2000/svg" width="26" height="32" viewBox="0 0 26 32">
<title>Machete</title>
<path d="M16.729 11.037l-6.784 5.124-0.502-0.502 5.137-5.137c1.577-1.578 3.015-3.292 4.302-5.115 0.409 2.112-0.413 4.316-2.152 5.63zM10.038 18.706l-1.822-1.821 0.85-0.85 1.822 1.821-0.85 0.85zM8.81 19.931l-1.821-1.822 0.849-0.848 1.821 1.822-0.849 0.848zM7.584 21.158l-1.821-1.822 0.849-0.849 1.821 1.822-0.849 0.849zM6.779 21.964c-0.314 0.313-0.821 0.311-1.131 0l-0.69-0.69c-0.151-0.151-0.234-0.352-0.234-0.566s0.083-0.414 0.234-0.567l0.428-0.428 1.821 1.822-0.428 0.429zM17.861 12.536l-6.573 4.967-0.962-0.962 6.723-5.079c2.038-1.541 2.925-4.204 2.234-6.657 0.315-0.463 0.63-0.926 0.923-1.403 1.444 3.209 0.499 6.985-2.345 9.134z"></path>
</svg>
