<!-- Generated by IcoMoon.io -->
<svg version="1.1" xmlns="http://www.w3.org/2000/svg" width="31" height="32" viewBox="0 0 31 32">
<title>machine-gun</title>
<path d="M28.324 1.514c-0.173 0.108-0.497 0.238-0.692 0.303-0.216 0.065-0.346 0.238-0.281 0.389 0.108 0.368-8.368 7.805-8.973 7.849-0.238 0.022-0.887 0.476-1.427 0.995-0.562 0.541-1.168 0.951-1.449 0.951-0.303 0-0.476 0.13-0.454 0.368 0.022 0.216-1.297 1.535-3.222 3.243-4.108 3.611-4.043 3.546-4.043 4.043 0 0.238 0.238 0.713 0.541 1.081l0.562 0.649-2.724 2.4c-1.492 1.341-2.703 2.486-2.703 2.595 0 0.259 3.719 3.676 4 3.676 0.108 0 0.627-0.368 1.103-0.822 0.649-0.584 1.211-1.47 2.054-3.287 0.713-1.535 1.47-2.832 2.011-3.395l0.865-0.908-0.519-1.124-0.519-1.103 0.519-0.389 0.541-0.411 0.432 0.735c0.238 0.411 0.843 1.47 1.362 2.378 0.497 0.887 1.038 1.622 1.189 1.622 0.13 0 0.843-0.541 1.557-1.189 1.297-1.189 1.297-1.189 0.843-1.557-0.259-0.216-0.735-0.908-1.081-1.514l-0.627-1.146 1.168-1.168 1.059 0.995c1.124 1.059 2.443 1.968 3.243 2.205 0.67 0.216 2.422-1.168 2.422-1.924 0-0.67-2.335-3.178-4.022-4.346-0.951-0.649-1.124-0.865-0.908-1.059 1.189-0.886 7.308-6.465 7.308-6.659 0-0.13-0.259-0.454-0.584-0.735l-0.605-0.476 1.6-1.492c1.016-0.93 1.557-1.557 1.449-1.73-0.173-0.303-0.541-0.324-0.995-0.043zM25.946 5.73c0.151 0.195 0.238 0.368 0.195 0.411-0.043 0.022-1.405 1.232-3.027 2.681-2.659 2.357-3.005 2.595-3.351 2.313-0.368-0.259-0.324-0.346 0.778-1.319 0.649-0.584 2.011-1.816 3.027-2.724s1.903-1.665 1.968-1.687c0.087 0 0.259 0.151 0.411 0.324zM18.941 11.697c0.411 0.454 0.411 0.454-0.151 0.908-0.713 0.584-3.524 3.092-5.276 4.692-0.735 0.649-1.859 1.665-2.551 2.249-1.211 1.016-1.254 1.038-1.665 0.67-0.238-0.216-0.432-0.454-0.432-0.562 0-0.195 9.254-8.411 9.492-8.411 0.087 0 0.346 0.195 0.584 0.454zM22.53 17.859c0.908 0.605 0.995 0.713 0.692 0.973-0.476 0.389-1.47-0.173-3.351-1.924-1.73-1.6-2.076-2.097-1.708-2.53 0.195-0.216 0.541 0.022 1.795 1.276 0.865 0.843 2.011 1.838 2.573 2.205zM22.724 16.346c0.519 0.519 0.843 0.951 0.713 0.951-0.303 0-2.811-2.162-3.265-2.811-0.324-0.476-0.259-0.454 0.627 0.195 0.541 0.389 1.405 1.124 1.924 1.665zM17.47 16.389c-0.195 0.216-0.324 0.195-0.627-0.087-0.389-0.346-0.389-0.389-0.043-0.627 0.303-0.238 0.411-0.216 0.627 0.086 0.195 0.238 0.195 0.432 0.043 0.627zM15.827 17.881c0.303 0.346 0.865 1.168 1.254 1.859l0.692 1.254-0.476 0.519c-0.281 0.303-0.562 0.476-0.649 0.432-0.087-0.065-0.67-0.995-1.297-2.097-1.059-1.859-1.103-2.011-0.735-2.27 0.519-0.389 0.584-0.368 1.211 0.303zM12.086 20.908c0.259 0.541 0.216 0.649-0.389 1.189-0.389 0.368-1.168 1.686-1.968 3.351-0.713 1.514-1.514 2.919-1.773 3.135-0.454 0.346-0.519 0.303-1.838-0.843-0.757-0.67-1.341-1.276-1.319-1.362 0.087-0.238 6.703-6.054 6.876-6.054 0.086 0 0.259 0.259 0.411 0.584z"></path>
</svg>
