<svg xmlns:dc="http://purl.org/dc/elements/1.1/" xmlns:cc="http://creativecommons.org/ns#" xmlns:rdf="http://www.w3.org/1999/02/22-rdf-syntax-ns#" xmlns:svg="http://www.w3.org/2000/svg" xmlns="http://www.w3.org/2000/svg" xmlns:sodipodi="http://sodipodi.sourceforge.net/DTD/sodipodi-0.dtd" xmlns:inkscape="http://www.inkscape.org/namespaces/inkscape" version="1.1" x="0px" y="0px" viewBox="0 0 100 125"><g transform="translate(0,-952.36218)"><path style="color:#000000;enable-background:accumulate;" d="m 50,959.3622 c -1.7173,3.43464 -3.4346,6.56536 0,10 1.7173,-3.43464 3.4347,-6.56536 0,-10 z m 9,0 c -3.6435,1.21399 -6.0002,1.14268 -6,6 3.6434,-1.21399 6.0001,-1.14268 6,-6 z m -18,2 c -2e-4,4.85732 3.3565,5.78601 7,7 2e-4,-4.85732 -3.3566,-5.78601 -7,-7 z m 18,3 c -3.6435,1.21399 -7.0002,2.14268 -7,7 3.6434,-1.21399 7.0001,-2.14268 7,-7 z m -18,2 c -2e-4,4.85732 3.3565,5.78601 7,7 2e-4,-4.85732 -3.3566,-5.78601 -7,-7 z m 8.96875,4.125 c -1.6507,0 -1.65625,8.77593 -1.65625,15.28125 0,15.30005 -1.8737,14.36785 -3.3125,17.00005 0,0 -3.0391,-1.1836 -4.9375,-5.09383 -1.6508,-3.39997 -0.005,-10.18747 -1.65625,-10.18747 -1.6508,0 -1.6508,8.50627 0,11.90627 1.6508,3.40003 5.60125,6.96693 6.59375,8.49993 2.04292,3.156 2.18501,11.4885 2,17.4063 -7.54135,2.4248 -12.2082,5.8178 -16,11.4687 -2.10267,0.07 -6.61044,0.8229 -9.71875,8.5938 4.16931,-4.1694 6.0989,-6.1068 8.5,-6.6875 -1.16096,1.9698 -2.25458,4.1862 -3.34375,6.6875 1.93988,-2.4249 3.74183,-4.7003 5.5625,-6.8125 1.58098,0.4821 3.16893,3.6505 4.75,6.8125 0,-4.2028 -1.15182,-7.2652 -3.4375,-8.25 3.83786,-4.2353 7.90632,-7.6973 13.625,-9.9688 -0.0679,1.4825 -0.0993,2.1252 -0.15625,2.9063 -1.49952,0.2816 -3.45936,1.0771 -5.34375,3.2812 -1.80302,0.032 -4.6875,0.4243 -4.6875,5.1563 1.11666,-2.2334 2.22709,-3.0081 3.34375,-3.2813 -0.57045,0.9261 -1.11368,2.003 -1.625,3.2813 1.39143,-1.3915 2.50813,-2.5133 3.5,-3.4375 1.69605,0.083 3.3977,3.4828 5.09375,6.875 0,-4.2236 -1.16044,-7.3122 -3.46875,-8.2813 1.2291,-0.9825 2.2752,-1.5793 3.4375,-1.8437 1.92102,0.8018 6.25,6.6875 6.25,6.6875 0,-1.4982 -2.46907,-5.4841 -3.40625,-6.7813 2.74813,0.371 4.63034,2.2241 9.1875,6.7813 -0.51132,-1.2783 -1.05455,-2.3552 -1.625,-3.2813 1.11666,0.2732 2.22709,1.0479 3.34375,3.2813 0,-4.732 -2.88448,-5.1248 -4.6875,-5.1563 -2.43494,-2.8481 -5.00528,-3.3242 -6.53125,-3.4062 0.027,-0.9057 0.002,-2.0122 -0.0312,-3.1875 6.27961,2.259 10.6181,5.8842 14.6875,10.375 -2.28568,0.9848 -3.4375,4.0472 -3.4375,8.25 1.58107,-3.162 3.16902,-6.3304 4.75,-6.8125 1.82067,2.1122 3.62262,4.3876 5.5625,6.8125 -1.08917,-2.5013 -2.18279,-4.7177 -3.34375,-6.6875 2.4011,0.5807 4.33069,2.5181 8.5,6.6875 -3.10831,-7.7709 -7.61608,-8.5236 -9.71875,-8.5938 -3.96455,-5.9083 -8.90005,-9.3674 -17.0625,-11.8125 -0.2191,-5.6575 -0.64469,-12.5086 0.5,-13.6875 1.1947,-1.2304 7.14715,-2.8411 9.90625,-6.7812 3.2686,-4.66753 3.3125,-11.75007 3.3125,-13.59375 0,-0.91869 -1.55275,7.10662 -4.96875,11.87505 -2.905,4.0552 -8.25,3.4 -8.25,0 0.9649,-10.68598 1.6508,-32.2813 0,-32.2813 z m -19.125,0.9375 c 0.2296,3.83363 0.46445,7.68034 5.15625,8.9375 -0.2296,-3.83362 -0.46455,-7.68034 -5.15625,-8.9375 z M 53,973.3622 c 2.873,2.54823 5.7934,5.42873 10,3 -3.40644,-2.77074 -6.26692,-5.11959 -10,-3 z m -12.34375,2.03125 c -2.5485,2.87311 -5.08495,5.76221 -2.65625,9.96875 2.5485,-2.87311 5.08485,-5.76221 2.65625,-9.96875 z M 20,976.3622 c 1.2571,4.69184 5.1664,4.7704 9,5 -1.2571,-4.69184 -5.1664,-4.77039 -9,-5 z m 49.15625,0.0625 c -3.2052,2.11562 -6.41355,4.24573 -5.15625,8.9375 3.2052,-2.11562 6.41355,-4.24573 5.15625,-8.9375 z m -39.4375,2.625 c -2e-4,4.85732 3.63775,6.09851 7.28125,7.3125 1e-4,-4.85732 -3.63785,-6.0985 -7.28125,-7.3125 z M 80,980.3622 c -3.8335,0.22959 -6.7429,0.30814 -8,5 3.8336,-0.22959 6.7429,-0.30814 8,-5 z m -22.15625,0.0625 c -1.2572,4.69177 1.95105,6.82188 5.15625,8.9375 1.2572,-4.69177 -1.95105,-6.82188 -5.15625,-8.9375 z m -10.5625,0.625 c -3.6435,1.214 -7.28145,2.45513 -7.28125,7.3125 3.6435,-1.21401 7.28145,-2.45513 7.28125,-7.3125 z m 24,1 c -3.6435,1.21399 -7.28145,2.45518 -7.28125,7.3125 3.6435,-1.21399 7.28145,-2.45518 7.28125,-7.3125 z m -50.21875,0.62495 c 2.4286,4.20664 6.1752,3.45789 9.9375,2.6875 -2.57971,-3.88232 -6.27089,-3.43664 -9.9375,-2.6875 z m 33.65625,3.375 c -2e-4,4.8573 3.63775,6.09855 7.28125,7.3125 1e-4,-4.8573 -3.63785,-6.09854 -7.28125,-7.3125 z M 26.6875,988.3622 c 3.4347,3.43472 6.8778,1.71789 10.3125,0 -3.33655,-3.11132 -6.97047,-1.67014 -10.3125,0 z m 46.3125,-2 c -3.6435,1.21396 -8.0002,2.1427 -8,7 3.6435,-1.21395 8.0002,-2.1427 8,-7 z m -4,7 c 3.7623,0.77043 7.5089,1.51907 9.9375,-2.6875 -3.96222,-1.03392 -8.09868,-0.38377 -9.9375,2.6875 z m -49,1.99997 c 4.2065,2.4288 7.1269,-0.4517 10,-2.99997 -3.78038,-2.2497 -7.45925,0.74224 -10,2.99997 z m 8.0625,2.125 c 4.6919,1.2573 6.8217,-1.92 8.9375,-5.12497 -4.06747,-1.16901 -7.14618,2.41923 -8.9375,5.12497 z M 64,995.36217 c 2.8731,2.5485 5.7309,5.08503 9.9375,2.6563 -3.4023,-2.7572 -6.29108,-4.72644 -9.9375,-2.6563 z" fill="#000000" stroke="none" marker="none" visibility="visible" display="inline" overflow="visible"/></g><text x="0" y="115" fill="#000000" font-size="5px" font-weight="bold" font-family="'Helvetica Neue', Helvetica, Arial-Unicode, Arial, Sans-serif">Created by zidney</text><text x="0" y="120" fill="#000000" font-size="5px" font-weight="bold" font-family="'Helvetica Neue', Helvetica, Arial-Unicode, Arial, Sans-serif">from the Noun Project</text></svg>