<?xml version="1.0" standalone="no"?>
<!DOCTYPE svg PUBLIC "-//W3C//DTD SVG 20010904//EN"
 "http://www.w3.org/TR/2001/REC-SVG-20010904/DTD/svg10.dtd">
<svg version="1.0" xmlns="http://www.w3.org/2000/svg"
 width="900.000000pt" height="800.000000pt" viewBox="0 0 900.000000 800.000000"
 preserveAspectRatio="xMidYMid meet">

<g transform="translate(0.000000,800.000000) scale(0.100000,-0.100000)"
fill="#000000" stroke="none">
<path d="M2255 6874 c-1227 -614 -2234 -1119 -2238 -1124 -5 -4 1002 -513
2238 -1131 l2246 -1123 2245 1122 c1235 617 2243 1126 2240 1130 -8 13 -4471
2242 -4487 2241 -8 0 -1017 -502 -2244 -1115z m3748 -375 l1502 -752 -1503
-751 -1502 -751 -1502 751 -1503 751 1500 751 c825 413 1501 751 1503 751 1 1
678 -337 1505 -750z"/>
<path d="M453 4287 c-244 -122 -443 -224 -443 -227 0 -3 1010 -510 2245 -1128
l2245 -1122 2245 1122 c1235 618 2245 1125 2245 1128 0 3 -200 105 -445 228
l-445 222 -1800 -900 -1800 -900 -1800 900 c-990 495 -1801 900 -1802 899 -2
0 -202 -100 -445 -222z"/>
<path d="M453 2597 c-244 -122 -443 -224 -443 -227 0 -3 1011 -510 2246 -1127
l2245 -1123 2244 1123 c1235 617 2245 1125 2245 1129 0 3 -201 106 -446 229
l-447 222 -1793 -896 c-987 -494 -1798 -897 -1804 -897 -5 0 -816 403 -1800
895 -984 492 -1793 895 -1797 895 -5 0 -207 -100 -450 -223z"/>
</g>
</svg>
