<!-- Generated by IcoMoon.io -->
<svg version="1.1" xmlns="http://www.w3.org/2000/svg" width="32" height="32" viewBox="0 0 32 32">
<title>Mapped1</title>
<path d="M29.438 2.563c0 0 0 0 0 0 0-0.5-0.375-0.875-0.875-0.875v0c0 0 0 0 0 0s0 0 0 0h-15.875l-10.125 10.063v17.688c0 0 0 0 0 0 0 0.5 0.375 0.875 0.875 0.875h25.125c0.438 0 0.75-0.25 0.875-0.688v0-0.125c0 0 0 0 0-0.063 0 0 0 0 0 0zM21.625 4.875h4.625v7.813l-5.813-5.75zM12.688 12.625v0c0.438 0 0.875-0.375 0.875-0.875 0 0 0 0 0 0v-6.875h6.25l-8.688 15-5.375-5.313v-1.938zM5.75 27.125v-10.313l4.5 4.5-3.313 5.813zM8.75 27.125l10.875-18.75 6.625 6.625v12.125zM19.875 14.563c-2.125 0-3.875 1.75-3.875 3.875 0 0.875 0.25 1.625 0.75 2.25l2.5 4.313c0 0.063 0 0.063 0.063 0.063v0.063c0.125 0.125 0.313 0.25 0.563 0.25 0.188 0 0.375-0.063 0.5-0.25v0h0.063c0-0.063 0.063-0.125 0.063-0.188l2.438-4.188c0.5-0.688 0.75-1.438 0.75-2.313 0-2.125-1.688-3.875-3.813-3.875zM19.813 20.375c-1.063 0-1.875-0.813-1.875-1.875s0.813-1.938 1.875-1.938c1.063 0 1.875 0.875 1.875 1.938s-0.813 1.875-1.875 1.875z"></path>
</svg>
