<!-- Generated by IcoMoon.io -->
<svg version="1.1" xmlns="http://www.w3.org/2000/svg" width="32" height="32" viewBox="0 0 32 32">
<title>Material</title>
<path d="M9.625 31.188c-0.125 0-0.25-0.063-0.313-0.188l-2.5-3.125c0-0.063-0.063-0.188-0.063-0.25v-22.75c0-0.25 0.188-0.438 0.438-0.438h4.875c0.25 0 0.438 0.188 0.438 0.438v22.75c0 0.063 0 0.188-0.063 0.25l-2.438 3.125c-0.125 0.125-0.25 0.188-0.375 0.188zM7.625 27.438l2 2.563 2-2.563v-22.125h-4v22.125zM12.063 5.313h-4.875c-0.25 0-0.438-0.25-0.438-0.438 0-0.25 0.188-0.438 0.438-0.438h4.688l1.938-2.688h-8.375l0.875 1.125c0.125 0.188 0.063 0.5-0.125 0.625s-0.438 0.125-0.625-0.063l-1.375-1.875c-0.063-0.125-0.063-0.313 0-0.5 0.063-0.125 0.188-0.188 0.375-0.188h10.125c0.188 0 0.313 0.063 0.375 0.188 0.125 0.188 0.063 0.375 0 0.5l-2.625 3.563c-0.125 0.063-0.25 0.188-0.375 0.188zM19.938 18.063c-0.25 0-0.438-0.25-0.438-0.438v-12.625l-2.563-3.438c-0.063-0.125-0.125-0.313 0-0.5 0.063-0.125 0.188-0.188 0.375-0.188h10.125c0.188 0 0.313 0.063 0.375 0.188 0.063 0.188 0.063 0.375 0 0.5l-2.625 3.563c-0.188 0.188-0.438 0.188-0.625 0.063s-0.25-0.375-0.125-0.625l2.125-2.813h-8.375l2.125 2.813c0 0.125 0.063 0.188 0.063 0.313v12.75c0 0.188-0.188 0.438-0.438 0.438zM19.938 20.188c-0.063 0-0.063 0-0.063-0.063-0.063 0-0.063 0-0.125 0 0 0-0.063 0-0.063-0.063 0 0-0.063 0-0.063 0 0-0.063-0.063-0.063-0.063-0.125 0 0 0 0-0.063-0.063 0 0 0-0.063 0-0.063 0-0.063 0-0.063 0-0.063 0-0.063 0-0.063 0-0.125 0 0 0-0.063 0-0.063 0.063-0.063 0.063-0.063 0.063-0.063 0-0.063 0.063-0.063 0.063-0.063 0-0.063 0.063-0.063 0.063-0.063 0-0.063 0.063-0.063 0.063-0.063 0.063 0 0.063 0 0.125 0 0 0 0.063 0 0.125 0s0.063 0 0.125 0c0 0 0 0 0.063 0.063 0 0 0 0 0.063 0.063 0 0 0 0 0.063 0.063 0 0 0 0 0 0.063 0.063 0 0.063 0.063 0.063 0.063 0 0.063 0 0.063 0 0.125 0 0 0 0 0 0.063 0 0 0 0.063-0.063 0.063 0 0.063 0 0.063 0 0.063-0.063 0.063-0.063 0.063-0.063 0.125-0.063 0.063-0.188 0.125-0.313 0.125zM22.375 31.188c-0.125 0-0.25-0.063-0.375-0.188l-2.438-3.125c-0.063-0.063-0.063-0.188-0.063-0.25v-6c0-0.25 0.188-0.438 0.438-0.438s0.438 0.188 0.438 0.438v5.813l2 2.563 2-2.563v-19.813c0-0.25 0.188-0.438 0.438-0.438s0.438 0.188 0.438 0.438v20c0 0.063 0 0.188-0.063 0.25l-2.5 3.125c-0.063 0.125-0.188 0.188-0.313 0.188zM6.313 9.188c-0.188 0-0.375-0.188-0.438-0.375-0.063-0.25 0.125-0.438 0.313-0.5l6.688-1.438c0.25-0.063 0.438 0.063 0.5 0.313s-0.063 0.438-0.313 0.5l-6.688 1.438c0 0-0.063 0.063-0.063 0.063zM6.313 12.375c-0.188 0-0.375-0.125-0.438-0.313-0.063-0.25 0.125-0.5 0.313-0.563l6.688-1.438c0.25-0.063 0.438 0.125 0.5 0.375 0.063 0.188-0.063 0.438-0.313 0.5l-6.688 1.438c0 0-0.063 0-0.063 0zM6.313 15.625c-0.188 0-0.375-0.125-0.438-0.375-0.063-0.188 0.125-0.438 0.313-0.5l6.688-1.438c0.25-0.063 0.438 0.063 0.5 0.313s-0.063 0.5-0.313 0.563l-6.688 1.438c0 0-0.063 0-0.063 0zM6.313 18.875c-0.188 0-0.375-0.188-0.438-0.375-0.063-0.25 0.125-0.5 0.313-0.5l6.688-1.5c0.25 0 0.438 0.125 0.5 0.375s-0.063 0.438-0.313 0.5l-6.688 1.438c0 0-0.063 0.063-0.063 0.063zM6.313 22.063c-0.188 0-0.375-0.125-0.438-0.313-0.063-0.25 0.125-0.5 0.313-0.563l6.688-1.438c0.25-0.063 0.438 0.125 0.5 0.375 0.063 0.188-0.063 0.438-0.313 0.5l-6.688 1.438c0 0-0.063 0-0.063 0zM6.313 25.313c-0.188 0-0.375-0.125-0.438-0.375-0.063-0.188 0.125-0.438 0.313-0.5l6.688-1.438c0.25-0.063 0.438 0.063 0.5 0.313s-0.063 0.5-0.313 0.5l-6.688 1.5c0 0-0.063 0-0.063 0z"></path>
</svg>
