<?xml version="1.0" standalone="no"?>
<!DOCTYPE svg PUBLIC "-//W3C//DTD SVG 20010904//EN"
 "http://www.w3.org/TR/2001/REC-SVG-20010904/DTD/svg10.dtd">
<svg version="1.0" xmlns="http://www.w3.org/2000/svg"
 width="730.000000pt" height="666.000000pt" viewBox="0 0 730.000000 666.000000"
 preserveAspectRatio="xMidYMid meet">

<g transform="translate(0.000000,666.000000) scale(0.100000,-0.100000)"
fill="#000000" stroke="none">
<path d="M3575 6209 c-404 -38 -842 -229 -1186 -518 -321 -268 -545 -629 -649
-1041 -51 -203 -65 -322 -64 -565 1 -237 19 -400 70 -615 210 -893 839 -1741
1717 -2319 133 -87 188 -105 306 -99 106 5 141 20 309 131 198 132 372 275
562 466 324 324 536 622 735 1034 413 853 455 1767 113 2451 -117 233 -284
446 -476 607 -427 357 -917 517 -1437 468z m445 -313 c164 -36 335 -106 477
-199 106 -68 310 -235 401 -328 248 -254 397 -569 459 -969 26 -170 26 -715
-1 -885 -40 -264 -123 -523 -233 -735 -115 -220 -187 -320 -364 -505 -68 -72
-164 -177 -213 -233 -169 -195 -407 -403 -626 -549 -182 -121 -167 -121 -342
-4 -205 137 -386 288 -584 485 -191 191 -327 353 -460 551 -434 644 -606 1347
-479 1960 59 285 179 531 369 754 96 114 215 215 373 319 331 218 532 309 768
348 103 17 353 11 455 -10z"/>
<path d="M3694 5653 c-49 -75 -59 -110 -59 -204 0 -101 4 -111 97 -234 66 -89
98 -154 98 -202 0 -36 -33 -92 -84 -145 -25 -26 -46 -54 -46 -62 0 -20 35 -56
55 -56 50 0 123 72 163 158 20 45 23 65 20 125 -5 87 -37 158 -110 244 -70 82
-82 109 -82 176 1 46 8 72 34 123 28 53 32 69 24 92 -7 21 -16 28 -44 30 -32
2 -38 -2 -66 -45z"/>
<path d="M4176 5378 c-38 -34 -64 -91 -75 -159 -16 -97 6 -172 73 -247 109
-123 116 -222 23 -296 -61 -49 -47 -116 24 -116 14 0 42 20 75 53 118 123 110
258 -27 425 -46 56 -53 70 -57 118 -4 46 0 63 27 115 38 74 38 82 5 108 -33
26 -37 26 -68 -1z"/>
<path d="M3264 5348 c-44 -20 -94 -136 -94 -220 0 -68 23 -126 75 -188 112
-134 122 -214 34 -297 -48 -46 -55 -67 -35 -98 27 -41 67 -33 124 24 66 66 86
120 80 209 -6 79 -35 141 -104 222 -72 84 -79 140 -29 235 14 25 25 57 25 69
0 37 -40 60 -76 44z"/>
<path d="M3728 4432 c-62 -54 -173 -130 -268 -182 -235 -132 -331 -214 -372
-320 -32 -84 -34 -146 -8 -208 70 -162 320 -253 691 -253 441 0 715 126 713
327 0 105 -80 201 -185 223 -30 7 -130 11 -230 10 -159 -1 -181 0 -211 18 -55
32 -63 60 -44 163 24 131 22 201 -7 228 -30 29 -40 28 -79 -6z m-37 -269 c-2
-65 1 -87 17 -119 27 -52 54 -79 105 -106 40 -22 53 -23 252 -23 194 0 213 -2
245 -21 19 -11 41 -31 48 -45 16 -31 9 -95 -15 -121 -103 -115 -477 -179 -786
-133 -209 31 -337 92 -371 175 -13 34 -14 45 -1 85 28 94 82 147 251 247 49
29 105 62 125 72 19 10 53 31 75 46 21 16 44 27 49 26 6 -2 9 -35 6 -83z"/>
<path d="M3300 3825 c-31 -33 -20 -69 35 -107 67 -46 147 -50 160 -8 10 33 -3
57 -43 76 -20 9 -53 28 -72 41 -44 29 -51 29 -80 -2z"/>
<path d="M2917 3669 c-82 -93 -124 -208 -108 -295 31 -167 185 -284 471 -358
191 -50 621 -63 845 -26 148 24 278 61 370 105 72 34 189 131 200 164 12 38
32 29 85 -40 57 -76 99 -166 100 -215 1 -151 -177 -297 -455 -373 -180 -50
-381 -73 -640 -73 -274 -1 -484 23 -670 76 -114 33 -133 40 -195 71 -175 89
-259 195 -248 315 6 56 47 144 95 199 52 61 41 111 -24 111 -29 0 -39 -8 -81
-61 -132 -170 -139 -356 -17 -505 101 -123 325 -227 600 -278 185 -34 275 -41
530 -41 264 0 351 7 550 46 132 26 162 35 280 82 244 97 374 233 383 400 7
108 -27 204 -108 306 -46 59 -84 81 -102 63 -29 -29 -38 -13 -38 64 0 67 -4
86 -34 148 -37 76 -116 166 -146 166 -25 0 -50 -27 -50 -54 0 -13 16 -44 35
-70 45 -58 85 -142 85 -179 0 -42 -37 -112 -81 -151 -126 -114 -425 -186 -772
-186 -154 0 -331 16 -442 41 -141 31 -286 95 -357 157 -28 26 -58 98 -58 142
0 48 30 117 75 169 48 57 56 88 27 114 -32 29 -58 20 -105 -34z"/>
<path d="M3060 3391 c-5 -11 -10 -28 -10 -39 0 -27 71 -89 134 -118 58 -26
196 -64 238 -64 33 0 58 24 58 55 0 35 -23 52 -88 65 -84 16 -190 59 -227 91
-39 35 -89 39 -105 10z"/>
<path d="M2778 2973 c-28 -33 -29 -43 -9 -77 64 -103 262 -189 552 -241 108
-19 144 -19 163 1 17 17 21 51 7 72 -8 13 -86 32 -186 47 -45 6 -140 29 -220
53 -70 22 -144 63 -198 111 -62 54 -85 61 -109 34z"/>
<path d="M1270 2609 c-30 -5 -87 -25 -126 -44 -89 -44 -185 -142 -230 -235
-17 -36 -165 -501 -329 -1035 -164 -533 -300 -976 -302 -982 -4 -10 682 -13
3412 -13 3177 0 3417 1 3411 17 -4 9 -157 455 -340 992 -183 537 -343 997
-356 1021 -88 176 -237 274 -436 287 l-94 6 -90 -188 c-49 -103 -90 -189 -90
-191 0 -2 69 -4 153 -4 171 0 183 -4 216 -69 18 -34 511 -1467 511 -1484 0 -4
-1303 -7 -2896 -7 -2753 0 -2895 1 -2890 18 39 133 405 1321 427 1389 24 72
38 99 65 123 l35 30 205 0 c192 0 206 1 199 18 -9 25 -175 335 -187 350 -12
14 -180 15 -268 1z"/>
</g>
</svg>
