<svg xmlns="http://www.w3.org/2000/svg" viewBox="0 0 100 125" x="0px" y="0px"><path d="M17.58,64.82c1.64,.63,3.77,.86,6,.86,4.13,0,8.57-.8,10.75-1.34,3.35-.84,14.59-.9,14.59-.9-2.75,0-12.8-3.89-12.8-3.89,0,0-4.31-1.32-2.34-5.38s14.3-5.74,14.3-5.74c-2.37-1.55-5.33-2.13-8.27-2.13-3.88,0-7.75,1.01-10.27,2.13-4.43,1.97-5.96,10.56-5.96,10.56,0,0-1.36,.83-3.08,.83-.51,0-1.06-.07-1.61-.27-.57-.2-1.15-.28-1.7-.28-1.75,0-3.2,.77-3.2,.77l-3.99,3.4s.3-.04,.85-.04c1.19,0,3.55,.19,6.73,1.42Z"/><path d="M69.7,67.81c-2.37-1.55-5.33-2.13-8.27-2.13-3.88,0-7.75,1.01-10.27,2.13-4.43,1.97-5.96,10.56-5.96,10.56,0,0-1.36,.83-3.08,.83-.51,0-1.06-.07-1.61-.27-.57-.2-1.15-.28-1.7-.28-1.75,0-3.2,.77-3.2,.77l-3.99,3.4s.3-.04,.85-.04c1.19,0,3.55,.19,6.73,1.42,1.64,.63,3.77,.86,6,.86,4.13,0,8.57-.8,10.75-1.34,3.35-.84,14.59-.9,14.59-.9-2.75,0-12.8-3.89-12.8-3.89,0,0-4.31-1.32-2.34-5.38,1.96-4.07,14.3-5.74,14.3-5.74Z"/><path d="M74.86,46.04c1.96-4.07,14.3-5.74,14.3-5.74-2.37-1.55-5.33-2.13-8.27-2.13-3.88,0-7.75,1.01-10.27,2.13-4.43,1.97-5.96,10.56-5.96,10.56,0,0-1.36,.83-3.08,.83-.51,0-1.06-.07-1.61-.27-.57-.2-1.15-.28-1.7-.28-1.75,0-3.2,.77-3.2,.77l-3.99,3.4s.3-.04,.85-.04c1.19,0,3.55,.19,6.73,1.42,1.64,.63,3.77,.86,6,.86,4.13,0,8.57-.8,10.75-1.34,3.35-.84,14.59-.9,14.59-.9-2.75,0-12.8-3.89-12.8-3.89,0,0-4.31-1.32-2.34-5.38Z"/><path d="M25.61,19.51c-.24-.34-.71-.41-1.05-.17l-2.88,2.06v-3.54c0-.41-.34-.75-.75-.75s-.75,.34-.75,.75v3.54l-2.87-2.06c-.34-.24-.81-.16-1.05,.17-.24,.34-.16,.81,.17,1.05l3.21,2.31-3.21,2.31c-.34,.24-.41,.71-.17,1.05,.15,.2,.38,.31,.61,.31,.15,0,.3-.05,.44-.14l2.87-2.06v3.54c0,.41,.34,.75,.75,.75s.75-.34,.75-.75v-3.54l2.88,2.06c.13,.09,.29,.14,.44,.14,.23,0,.46-.11,.61-.31,.24-.34,.16-.81-.17-1.05l-3.21-2.31,3.21-2.31c.34-.24,.41-.71,.17-1.05Z"/><path d="M84.67,16.59c-.24-.34-.71-.41-1.05-.17l-2.88,2.06v-3.54c0-.41-.34-.75-.75-.75s-.75,.34-.75,.75v3.54l-2.88-2.06c-.34-.24-.8-.16-1.05,.17-.24,.34-.16,.81,.17,1.05l3.21,2.31-3.21,2.31c-.34,.24-.41,.71-.17,1.05,.15,.2,.38,.31,.61,.31,.15,0,.3-.05,.44-.14l2.88-2.06v3.54c0,.41,.34,.75,.75,.75s.75-.34,.75-.75v-3.54l2.88,2.06c.13,.1,.29,.14,.44,.14,.23,0,.46-.11,.61-.31,.24-.34,.16-.81-.17-1.05l-3.21-2.31,3.21-2.31c.34-.24,.41-.71,.17-1.05Z"/><path d="M66.96,24.51c-.24-.34-.71-.41-1.05-.17l-2.87,2.06v-3.54c0-.41-.34-.75-.75-.75s-.75,.34-.75,.75v3.54l-2.88-2.06c-.34-.24-.81-.17-1.05,.17s-.16,.81,.17,1.05l3.21,2.31-3.21,2.31c-.34,.24-.41,.71-.17,1.05,.15,.2,.38,.31,.61,.31,.15,0,.3-.05,.44-.14l2.88-2.06v3.54c0,.41,.34,.75,.75,.75s.75-.34,.75-.75v-3.54l2.87,2.06c.13,.09,.29,.14,.44,.14,.23,0,.46-.11,.61-.31,.24-.34,.16-.81-.17-1.05l-3.21-2.31,3.21-2.31c.34-.24,.41-.71,.17-1.05Z"/><path d="M45.61,29.51c-.24-.34-.71-.41-1.05-.17l-2.88,2.06v-3.54c0-.41-.34-.75-.75-.75s-.75,.34-.75,.75v3.54l-2.87-2.06c-.34-.24-.81-.16-1.05,.17-.24,.34-.16,.81,.17,1.05l3.21,2.31-3.21,2.31c-.34,.24-.41,.71-.17,1.05,.15,.2,.38,.31,.61,.31,.15,0,.3-.05,.44-.14l2.87-2.06v3.54c0,.41,.34,.75,.75,.75s.75-.34,.75-.75v-3.54l2.88,2.06c.13,.09,.29,.14,.44,.14,.23,0,.46-.11,.61-.31,.24-.34,.16-.81-.17-1.05l-3.21-2.31,3.21-2.31c.34-.24,.41-.71,.17-1.05Z"/><text x="0" y="115" fill="#000000" font-size="5px" font-weight="bold" font-family="'Helvetica Neue', Helvetica, Arial-Unicode, Arial, Sans-serif">Created by Lars Meiertoberens</text><text x="0" y="120" fill="#000000" font-size="5px" font-weight="bold" font-family="'Helvetica Neue', Helvetica, Arial-Unicode, Arial, Sans-serif">from the Noun Project</text></svg>