<!-- Generated by IcoMoon.io -->
<svg version="1.1" xmlns="http://www.w3.org/2000/svg" width="32" height="32" viewBox="0 0 32 32">
<title>Mining</title>
<path d="M25.375 0h-18.75c-3.625 0-6.625 3-6.625 6.625v18.75c0 3.625 3 6.625 6.625 6.625h18.75c3.625 0 6.625-3 6.625-6.625v-18.75c0-3.625-3-6.625-6.625-6.625zM30.813 25.375c0 3-2.438 5.438-5.438 5.438h-18.75c-3 0-5.438-2.438-5.438-5.438v-18.75c0-3 2.438-5.438 5.438-5.438h18.75c3 0 5.438 2.438 5.438 5.438zM16.688 12.063c0.375 0.813 0.625 1.688 0.875 2.625 0 0.063 0 0.063 0.063 0.125 0 0 0.063 0 0.063 0s0.063 0 0.063 0l2.438-0.75c0 0 0.063-0.063 0.063-0.125 0 0 0-0.063 0-0.125l-0.125-0.313c-0.688-1.688-1.75-3.375-3.25-5.188-0.688-0.813-1.5-1.625-2.375-2.438-0.75-0.75-1.438-1.313-2.125-1.875-0.063-0.063-0.125 0-0.188 0.063-0.125 0.125-0.375 0.375-0.375 0.375-0.063 0.063-0.063 0.188 0 0.25 0 0 0.063 0.063 0.063 0.063 0.125 0.063 0.188 0.188 0.25 0.25 0.125 0.125 0.25 0.313 0.375 0.438 0.375 0.438 0.688 0.813 1 1.25 0.688 0.938 1.313 1.813 1.875 2.75 0.063 0.063 0.063 0.125 0.125 0.188l-8.5 5.563c-0.438 0.313-0.563 0.875-0.313 1.313 0.188 0.313 0.5 0.438 0.813 0.438 0.188 0 0.375-0.063 0.5-0.125l8.375-5.5c0.125 0.25 0.25 0.5 0.313 0.75zM17.5 20.75l-3.875 2.313-4.938 4.813h15.813v-15.688l-3.5 2zM12.188 19.5l-1.813-0.625-0.188 0.875 0.438 1.375 1.375-0.438zM9.75 23.438l1.313 0.625 0.75-0.5-0.25-1.688-1.625 0.25zM15.063 17.938l-0.938 0.188-0.125 0.75 0.813 0.375 0.438-0.313zM16.25 17.563l-0.25 1 0.5 0.438 1.125-0.5-0.438-1.063zM14.25 20.125l-0.063 0.375 0.438 0.25 0.25-0.188-0.125-0.563zM12.688 20.875l0.375 0.438 0.375-0.125v-0.5l-0.313-0.125z"></path>
</svg>
