<!-- Generated by IcoMoon.io -->
<svg version="1.1" xmlns="http://www.w3.org/2000/svg" width="32" height="32" viewBox="0 0 32 32">
<title>Mongoose</title>
<path d="M31.875 12.875c-0.438-0.375-2.438-2.375-3.688-2.375-0.688 0-1.563 0.313-2.375 0.625-0.563 0.25-1.188 0.5-1.5 0.5h-2.688c-0.438-0.125-2.313-0.563-5.063-0.563-2.313 0-4.438 1.438-6.563 2.875-1.688 1.188-3.438 2.313-5.125 2.688-3.688 0.688-4.688 1.688-4.75 1.813-0.125 0.125-0.188 0.375-0.063 0.563 0.063 0.188 0.25 0.313 0.438 0.313h5.375c1.313 0 2.563-0.5 3.563-1.313l2-1.75 0.063 0.188-1.375 1.438c-0.125 0.063-0.188 0.188-0.188 0.313v2.188c0 0.625 0.5 1.125 1.188 1.125h0.438c0.313 0 0.563-0.25 0.563-0.5 0-0.313-0.25-0.563-0.563-0.563h-0.438c-0.063 0-0.125 0-0.125-0.063v-1.188c0.625-0.125 1.875-0.5 3.125-1.563l-0.313 1.625c0 0.125 0 0.25 0.125 0.375l0.875 1.313c0.188 0.313 0.625 0.563 1.063 0.563h0.313c0.313 0 0.563-0.25 0.563-0.5 0-0.313-0.25-0.563-0.563-0.563h-0.313c-0.125 0-0.188 0-0.25-0.063l-0.313-0.563 1.875-2.313c1.375-0.063 2.75-0.188 3.688-0.313-0.125 0.75-0.375 1.375-0.375 1.375 0 0.063-0.063 0.125-0.063 0.188v1.688c0 0.563 0.5 1.063 1.063 1.063h0.563c0.313 0 0.563-0.25 0.563-0.5 0-0.313-0.25-0.563-0.563-0.563h-0.563v-1.438c0.5-0.438 1.188-1.063 1.813-1.625l1.75 1.875 0.25 1.25c0.125 0.563 0.625 1 1.188 1h0.563c0.313 0 0.5-0.25 0.5-0.5 0-0.313-0.188-0.563-0.5-0.563h-0.563c-0.063 0-0.125-0.063-0.125-0.125l-1-4.75c0.188-0.125 0.25-0.188 0.313-0.25 0.563-0.438 2-1 3-1h1.688c0.063 0 0.188 0 0.25-0.063l1.063-0.563c0.188-0.063 0.25-0.188 0.313-0.375 0-0.188-0.063-0.313-0.125-0.438zM15 18.5l0.188-0.938c0.188 0 0.438 0 0.625 0zM24.125 16.688c0.125-0.125 0.25-0.25 0.375-0.375l0.188 1zM30.25 13.25h-1.563c-1.188 0-2.813 0.625-3.625 1.25-0.375 0.313-1.938 1.688-3.125 2.688 0.063-0.188 0.063-0.375 0.125-0.563 0-0.188-0.063-0.375-0.188-0.438-0.125-0.125-0.313-0.188-0.438-0.125-1.25 0.25-3.875 0.438-6.188 0.438 0.25-0.25 0.438-0.5 0.625-0.75s0.125-0.563-0.125-0.75c-0.25-0.125-0.563-0.063-0.75 0.125-0.813 1.188-1.813 2.063-3 2.625-0.25 0.125-0.438 0.188-0.563 0.25l1.063-1.063c0.125-0.188 0.188-0.438 0.063-0.625l-0.5-1.125c-0.063-0.125-0.25-0.188-0.375-0.25-0.188 0-0.313 0-0.438 0.125l-2.5 2.125c-0.813 0.688-1.813 1.063-2.875 1.063h-3.313c0.625-0.188 1.438-0.438 2.5-0.625 1.875-0.375 3.75-1.625 5.5-2.813 2.063-1.375 4-2.688 6-2.688 2.875 0 4.813 0.5 4.813 0.5 0.063 0 0.125 0 0.125 0h2.813c0.5 0 1.125-0.25 1.875-0.5 0.188-0.063 0.313-0.125 0.5-0.188 0.063 0.375 0.375 0.75 0.75 0.938 0.063 0 0.188 0.063 0.25 0.063 0.188 0 0.375-0.125 0.438-0.313 0.125-0.313 0-0.625-0.25-0.688-0.063-0.063-0.125-0.125-0.125-0.188-0.063-0.063 0-0.125 0.063-0.188 0.125 0 0.25 0 0.375 0 0.438 0 1.5 0.75 2.375 1.563z"></path>
</svg>
