<!-- Generated by IcoMoon.io -->
<svg version="1.1" xmlns="http://www.w3.org/2000/svg" width="26" height="32" viewBox="0 0 26 32">
<title>Monkey</title>
<path d="M16.591 19.235l0.748 1.143 0.664-0.843-0.411-0.832-0.077-1.344-0.235-0.469-0.484-0.014-1.744-1.422-1.084-3.782 1.816-2.101 0.851-2.472 1.615-0.933 1.46 1.214-0.425 4.529 1.157 2.55 2.037 1.143 1.776-0.618-1.553 0.059-1.583-1.1-0.879-1.979 0.423-5.010-2.199-2.008-2.738 1.448-0.85 2.55-1.29 1.436-2.11-0.704-2.638 0.587-2.491 1.524-0.88-0.108-0.899-1.055-1.39-0.237-1.219 0.774 0.019 0.362 0.264 0.235-0.098 0.371-0.561 0.391 0.014 0.279-0.254 0.102 0.283 0.513 0.63 0.337 1.51 0.205 2.012 0.479-0.215 1.622-2.13 3.479-1.133-0.157-0.909 1.173 0.303 0.098 0.879-0.43 1.212 0.43 4.084-6.195 2.257 0.117 2.101-0.704 1.211 2.189 2.853 1.798zM9.365 14.823h0.806l1.978-0.586-1.656 2.14 1.187 2.989-0.205 0.806-0.879 0.366h-1.861l0.923-0.806 1.055-0.029-1.803-3.181zM8.208 14.779v5.321l-0.572 0.439h-1.949l0.806-0.85 0.967-0.015-0.588-3.192 1.13-1.703z"></path>
</svg>
