<svg xmlns="http://www.w3.org/2000/svg" viewBox="0 0 100 125" x="0px" y="0px"><path d="M87.26,63.29c-.06-1.35,.54-3.73,.97-5.47l.2-.8c1.04-3.67,1.02-7.12-.03-9.91-.61-1.78-1.39-3.23-2.13-4.64-.74-1.4-1.44-2.72-1.89-4.15-.53-2.01-.29-4.68,.7-7.73,.47-1.16,.09-2.44-.97-3.21-1.27-.92-3.01-.83-4.16,.23-4.5,4.29-6.24,9.95-4.68,15.1,.46,1.65,1.27,3.43,1.99,5,.36,.79,.71,1.55,.98,2.23,.55,1.36,.49,2.78-.22,4.67-.21,.63-.44,1.25-.66,1.86-.08,.23-.16,.46-.24,.68-1.13-.56-2.3-1.06-3.47-1.49,1.14-4.62-1.86-7.85-4.56-10.73-.87-.93-1.77-1.9-2.53-2.89-.71-1.38-.13-3.12,1.93-5.79,.89-1.02,.84-2.47-.12-3.42-.95-.94-2.54-1.15-3.77-.5-1.07,.57-1.97,1.15-2.78,1.81-4.44,3.38-5.76,8.52-3.24,12.43,.86,1.48,2.19,3,3.36,4.35,.52,.6,1.02,1.17,1.44,1.7,.37,.46,.54,.8,.43,1.28-2.81,.14-4.38,1.05-6.02,2.01-.99,.58-2.07,1.21-3.63,1.76,.19-1.25,.57-2.77,.86-3.9l.19-.74c.76-2.64,1.35-6.58-.08-10.32-.63-1.8-1.4-3.23-2.13-4.61-.71-1.33-1.38-2.59-1.84-4-.51-1.85-.27-4.52,.68-7.54,.5-1.25,.09-2.61-1.02-3.42-1.23-.9-2.88-.82-4.02,.21-4.54,4.2-6.34,10.12-4.7,15.4,.47,1.69,1.31,3.53,2.05,5.16,.34,.74,.65,1.43,.9,2.04,.52,1.26,.46,2.54-.21,4.32-.2,.58-.41,1.17-.62,1.75-.74,2.06-1.51,4.2-1.85,6.56-.02,.18-.03,.35-.05,.53-.75,0-1.54-.02-2.38-.04l.11-.31c1.16-2.88,1.12-5.74-.1-7.99-.66-1.33-1.44-2.37-2.19-3.37-.69-.92-1.34-1.78-1.75-2.67-.42-1.08-.18-2.77,.66-4.67,.51-.93,.34-2.05-.43-2.81-1.06-1.05-2.98-1.22-4.3-.38-4.73,3.1-6.63,7.75-4.87,11.77,.5,1.27,1.36,2.6,2.12,3.78,.33,.51,.64,.99,.89,1.42,.33,.56,.4,1.11-.23,2.3-.2,.41-.4,.82-.61,1.23-.34,.67-.68,1.35-.99,2.05-1.16,.19-2.26,.42-3.29,.7l.09-.3c1.07-3.33,1.05-6.46-.04-9-.62-1.59-1.4-2.89-2.16-4.14-.73-1.22-1.43-2.37-1.86-3.6-.51-1.69-.27-3.97,.69-6.59,.47-1.05,.18-2.24-.75-2.99-1.05-.85-2.93-1.09-4.27,0-4.52,3.81-6.33,9.06-4.74,13.67,.47,1.48,1.28,3.07,2.01,4.46,.36,.69,.7,1.36,.97,1.96,.51,1.12,.45,2.25-.23,3.85-.21,.56-.43,1.1-.65,1.63-.7,1.7-1.42,3.46-1.8,5.66-.16,1.1-.16,2.22-.04,3.32-3.06,3.75-3.83,7.24-3.85,7.32-.1,.51,.03,1.05,.36,1.46,.33,.41,.83,.64,1.36,.64H90c.48,0,.95-.2,1.28-.55,.33-.35,.5-.83,.47-1.31-.22-3.4-1.56-6.59-3.62-9.43-.61-1.2-.86-2-.87-2.88Zm-6.03-31.95c-.58,2.38-.92,5.27-.21,7.94,.56,1.82,1.37,3.35,2.16,4.83,.72,1.35,1.39,2.62,1.93,4.19,1.02,2.7,.54,5.72-.06,7.83l-.21,.84c-.36,1.44-.78,3.12-.98,4.62-1.14-.98-2.37-1.88-3.65-2.7,.14-.41,.29-.82,.44-1.24,.23-.63,.46-1.27,.66-1.87,1.01-2.68,1.06-4.96,.18-7.15-.29-.72-.66-1.53-1.04-2.38-.69-1.52-1.41-3.09-1.81-4.52-1.05-3.45-.08-7.25,2.6-10.39Zm-19.67,13.41c-1.74-2.71-.19-5.76,2.21-7.69-.98,1.93-1.58,4.36-.21,6.79,.04,.07,.08,.13,.12,.19,.88,1.18,1.88,2.25,2.84,3.28,2.68,2.87,4.29,4.77,3.77,7.32-1-.24-1.99-.43-2.97-.56,.12-1.1-.15-2.34-1.22-3.65-.43-.55-.97-1.16-1.53-1.8-1.07-1.23-2.28-2.62-3.02-3.88Zm-13.51-17.69c-.61,2.42-.99,5.39-.25,8.04,.57,1.77,1.35,3.23,2.1,4.64,.71,1.33,1.37,2.58,1.94,4.17,.86,2.25,.86,5.14-.02,8.21l-.2,.79c-.45,1.8-1,3.97-1.08,5.65-1.31,.22-2.86,.38-4.71,.47,.28-1.96,.96-3.84,1.67-5.83,.22-.6,.43-1.21,.62-1.76,.6-1.61,1.28-4.07,.15-6.83-.26-.65-.6-1.39-.96-2.18-.69-1.51-1.47-3.21-1.88-4.69-1.09-3.52-.06-7.58,2.61-10.69Zm-17.77,20.23c-1.11-2.55,.42-5.02,2.46-6.71-.49,1.7-.69,3.67,.04,5.51,.61,1.32,1.4,2.38,2.17,3.41,.69,.92,1.34,1.78,1.89,2.88,.95,1.76,.51,3.73-.07,5.15l-.2,.55c-.1,.29-.2,.57-.3,.85-1.39-.04-2.71-.02-3.97,.05v-.03c.23-.43,.45-.87,.63-1.24,.4-.76,1.62-3.06,.14-5.62-.27-.47-.61-1-.98-1.57-.67-1.04-1.43-2.22-1.83-3.23Zm-12.53-10.07c-.55,2.09-.83,4.59-.12,6.93,.57,1.64,1.39,3,2.18,4.32,.71,1.18,1.38,2.3,1.92,3.67,.97,2.28,.51,4.85-.07,6.67l-.21,.74c-.18,.61-.36,1.28-.54,1.95-1.99,.87-3.68,1.9-5.11,2.99,.34-1.44,.86-2.74,1.41-4.1,.23-.56,.46-1.13,.66-1.65,1.04-2.43,1.09-4.6,.17-6.61-.29-.64-.66-1.36-1.05-2.12-.66-1.27-1.4-2.71-1.79-3.95-1.01-2.92-.05-6.15,2.55-8.85Zm-5.3,36.75c1.8-4.05,7.63-12.38,24.83-11.5,14.95,.76,19.18-1.72,22.28-3.54,1.85-1.08,3.07-1.8,6.52-1.47,8.27,.8,19.95,7.35,21.92,16.51H12.45Z"/><text x="0" y="115" fill="#000000" font-size="5px" font-weight="bold" font-family="'Helvetica Neue', Helvetica, Arial-Unicode, Arial, Sans-serif">Created by Lars Meiertoberens</text><text x="0" y="120" fill="#000000" font-size="5px" font-weight="bold" font-family="'Helvetica Neue', Helvetica, Arial-Unicode, Arial, Sans-serif">from the Noun Project</text></svg>