<!-- Generated by IcoMoon.io -->
<svg version="1.1" xmlns="http://www.w3.org/2000/svg" width="32" height="32" viewBox="0 0 32 32">
<title>Motorbike</title>
<path d="M36.5 16.5c0.188 1.25 0 2.438-0.375 3.563s-1 2.063-1.75 2.875c-0.813 0.813-1.75 1.438-2.875 1.938-1.063 0.438-2.25 0.625-3.5 0.563-1.875-0.188-3.563-0.875-5-2.25-1.375-1.375-2.188-3-2.375-4.875-0.125-1.375 0-2.625 0.5-3.813 0.438-1.188 1.188-2.188 2.125-3l-1.313-1.938c-1.125 0.938-2 2.125-2.688 3.5-0.625 1.313-0.938 2.813-0.938 4.313 0 0.313-0.125 0.625-0.375 0.875-0.188 0.188-0.5 0.313-0.813 0.313h-5.813c-0.25 1.938-1.125 3.563-2.625 4.875s-3.25 2-5.25 2c-2.188 0-4.125-0.813-5.688-2.375s-2.313-3.438-2.313-5.625c0-2.188 0.75-4.125 2.313-5.688s3.5-2.313 5.688-2.313c0.875 0 1.813 0.125 2.688 0.5l0.438-0.813c-1.438-1.313-3.25-2-5.438-2h-1.125c-0.313 0-0.563-0.125-0.813-0.313-0.188-0.25-0.313-0.5-0.313-0.813s0.125-0.563 0.313-0.813c0.25-0.188 0.5-0.313 0.813-0.313h2.313c0.875 0 1.75 0.063 2.563 0.25 0.813 0.125 1.5 0.375 2.063 0.688 0.625 0.25 1.063 0.5 1.313 0.688s0.563 0.375 0.875 0.625h11.188l-1.5-2.25h-3.938c-0.375 0-0.688-0.125-0.875-0.438-0.25-0.25-0.313-0.563-0.25-0.938 0-0.25 0.188-0.5 0.375-0.688 0.25-0.125 0.5-0.25 0.813-0.25h4.5c0.375 0 0.688 0.188 0.938 0.5l1.25 1.875 2.063-2c0.188-0.25 0.5-0.375 0.813-0.375h1.813c0.313 0 0.563 0.125 0.75 0.375 0.25 0.188 0.375 0.438 0.375 0.75v2.313c0 0.313-0.125 0.563-0.375 0.813-0.188 0.188-0.438 0.313-0.75 0.313h-3.25l2.063 3.063c1.563-0.75 3.188-0.938 4.938-0.625 1.688 0.313 3.125 1.125 4.375 2.438 1.188 1.25 1.875 2.75 2.063 4.5zM3.438 23.125c1.375 0 2.563-0.438 3.625-1.25 1.063-0.875 1.688-2 2-3.313h-5.625c-0.438 0-0.75-0.188-1-0.563-0.188-0.375-0.188-0.75 0-1.125l2.625-4.938c-0.563-0.125-1.125-0.25-1.625-0.25-1.563 0-2.938 0.563-4.063 1.688s-1.688 2.5-1.688 4.063c0 1.563 0.563 2.938 1.688 4 1.125 1.125 2.5 1.688 4.063 1.688zM28.563 23.125c1.563 0 2.938-0.563 4.063-1.688 1.125-1.063 1.688-2.438 1.688-4s-0.563-2.938-1.688-4.063c-1.125-1.125-2.5-1.688-4.063-1.688-0.688 0-1.438 0.188-2.125 0.438l3.063 4.688c0.188 0.25 0.25 0.563 0.188 0.875s-0.188 0.5-0.5 0.688c-0.125 0.125-0.375 0.188-0.625 0.188-0.438 0-0.75-0.188-0.938-0.5l-3.125-4.625c-1.063 1.125-1.625 2.438-1.625 4s0.563 2.938 1.688 4c1.063 1.125 2.438 1.688 4 1.688z"></path>
</svg>
