<!-- Generated by IcoMoon.io -->
<svg version="1.1" xmlns="http://www.w3.org/2000/svg" width="32" height="32" viewBox="0 0 32 32">
<title>muzzleloader</title>
<path d="M3.764 1.945c-0.345 0.327-0.036 1.018 0.873 2.036 0.545 0.618 1.036 1.109 1.109 1.091 0.055 0 0.836 0.818 1.745 1.818 0.891 1.018 1.727 1.836 1.855 1.836 0.273 0 0.873 0.618 0.745 0.764-0.055 0.055 0.782 0.945 1.855 1.982 1.091 1.036 1.964 1.927 1.964 1.982 0 0.073 1.473 1.655 3.273 3.527s3.255 3.455 3.236 3.527c-0.018 0.073-0.055 0.255-0.109 0.4-0.036 0.145-0.036 0.218 0 0.145 0.145-0.236 0.545-0.164 0.8 0.145 0.164 0.218 0.182 0.364 0.036 0.6-0.164 0.255-0.127 0.309 0.2 0.309 0.364-0.018 0.818 1 3.436 7.618 0.036 0.091 0.618-0.309 1.291-0.909 1.018-0.909 1.2-1.145 1.109-1.509-0.073-0.309-0.036-0.4 0.109-0.291 0.145 0.073 0.164 0.055 0.091-0.091-0.073-0.109-0.2-0.164-0.291-0.109-0.073 0.055-0.2-0.036-0.255-0.2-0.073-0.182-0.036-0.236 0.127-0.145 0.291 0.182-0.436-0.673-1.855-2.164-0.655-0.673-1.327-1.218-1.491-1.218-0.345 0-0.6-0.473-0.982-1.909-0.345-1.255-0.364-2.018-0.073-2.382 0.145-0.164 0.145-0.255 0.018-0.255-0.109 0-0.236 0.073-0.291 0.145-0.145 0.255-1.2 0.018-1.2-0.255 0-0.127-0.109-0.2-0.236-0.164-0.127 0.055-3.582-3.273-7.909-7.6-4.218-4.236-7.673-7.655-7.673-7.6s3.455 3.564 7.673 7.782c4.236 4.236 7.6 7.691 7.509 7.691-0.291 0-16.673-16.455-16.527-16.6 0.073-0.073 0.091-0.127 0.036-0.127-0.036 0-0.145 0.055-0.2 0.127zM19.927 18.636c0.073 0.182 0.273 0.218 0.636 0.145 0.4-0.073 0.527-0.036 0.527 0.182 0 0.145 0.036 0.382 0.091 0.527 0.055 0.127 0.018 0.364-0.091 0.509-0.145 0.218-0.327 0.109-1.091-0.636-0.945-0.945-1.236-1.545-0.527-1.182 0.2 0.109 0.418 0.327 0.455 0.455zM22.182 21.218v0.673l-1.109-1.073 0.418-0.109c0.236-0.073 0.473-0.127 0.564-0.145 0.073-0.018 0.127 0.291 0.127 0.655z"></path>
<path d="M21.109 17.564c0 0.2 0.055 0.255 0.109 0.109 0.055-0.127 0.036-0.291-0.018-0.345-0.055-0.073-0.109 0.036-0.091 0.236z"></path>
</svg>
