<!-- Generated by IcoMoon.io -->
<svg version="1.1" xmlns="http://www.w3.org/2000/svg" width="32" height="32" viewBox="0 0 32 32">
<title>Nest</title>
<path d="M12 10.5h-1.125l-0.625 1 0.625 1h1.125l0.563-1zM12 7.5h-1.125l-0.625 1 0.625 1h1.125l0.563-1zM10.875 16.5l-0.625 1 0.625 1h1.125l0.563-1-0.563-1zM20.063 21h-1.438l-0.688 1.25c-0.125 0.125-0.25 0.25-0.438 0.25h-1.438l-0.75 1.25c-0.063 0.125-0.25 0.25-0.438 0.25h-1.688c-0.188 0-0.375-0.125-0.438-0.25l-0.75-1.25h-0.5v5c0 0.25 0.25 0.5 0.5 0.5s0.5-0.25 0.5-0.5v-1c0-0.813 0.688-1.5 1.5-1.5s1.5 0.688 1.5 1.5c0 0.25 0.25 0.5 0.5 0.5s0.5-0.25 0.5-0.5v-2.5c0-0.813 0.688-1.5 1.5-1.5s1.5 0.688 1.5 1.5v0.5c0 0.25 0.25 0.5 0.5 0.5s0.5-0.25 0.5-0.5v-3.75c-0.063 0.188-0.25 0.25-0.438 0.25zM7.375 17.5l-0.563-1h-1.188l-0.563 1 0.563 1h1.188zM13.438 17h1.188l0.563-1-0.563-1h-1.188l-0.563 1zM13.438 11h1.188l0.563-1-0.563-1h-1.188l-0.563 1zM12 13.5h-1.125l-0.625 1 0.625 1h1.125l0.563-1zM14.625 8l0.563-1-0.563-1h-1.188l-0.563 1 0.563 1zM13.438 14h1.188l0.563-1-0.563-1h-1.188l-0.563 1zM12.563 20.5l-0.563-1h-1.125l-0.625 1 0.625 1h1.125zM6.5 19.5v3.5c0 0.25 0.25 0.5 0.5 0.5s0.5-0.25 0.5-0.5v-2.313l-0.688-1.188zM8.25 18l-0.563 1 0.563 1h1.188l0.563-1-0.563-1zM5.625 15.5h1.188l0.563-1-0.563-1h-1.188l-0.563 1zM6.813 12.5l0.563-1-0.563-1h-1.188l-0.563 1 0.563 1zM8.25 9l-0.563 1 0.563 1h1.188l0.563-1-0.563-1zM8.25 15l-0.563 1 0.563 1h1.188l0.563-1-0.563-1zM8.25 12l-0.563 1 0.563 1h1.188l0.563-1-0.563-1zM13.438 20h1.188l0.563-1-0.563-1h-1.188l-0.563 1zM18.625 20h1.188l0.563-1-0.563-1h-1.188l-0.563 1zM21.25 13.5l-0.563 1 0.563 1h1.125l0.625-1-0.625-1zM25.813 4.375l0.438-0.375-2-2h-1.563l2.75 2.813zM21.25 16.5l-0.563 1 0.563 1h1.125l0.625-1-0.625-1zM21.25 10.5l-0.563 1 0.563 1h1.125l0.625-1-0.625-1zM14.5 0h-12.5v1h11.5v4h1v-4h15.5v-1zM27.313 4.375l-0.438 0.375 0.438 0.375c0.563 0.563 1.438 0.563 2.063 0l0.375-0.375-0.375-0.375c-0.563-0.563-1.5-0.563-2.063 0zM26.188 5.438l-0.375 0.438c0 0 0 0 0 0-0.563 0.563-0.563 1.5 0 2.063l0.375 0.375 0.375-0.375c0.563-0.625 0.563-1.5 0-2.125zM18.625 14h1.188l0.563-1-0.563-1h-1.188l-0.563 1zM16.063 18.5h1.125l0.563-1-0.563-1h-1.125l-0.563 1zM18.625 17h1.188l0.563-1-0.563-1h-1.188l-0.563 1zM16.063 15.5h1.125l0.563-1-0.563-1h-1.125l-0.563 1zM16.063 12.5h1.125l0.563-1-0.563-1h-1.125l-0.563 1zM17.188 9.5l0.563-1-0.563-1h-1.125l-0.563 1 0.563 1zM19.813 11l0.563-1-0.563-1h-1.188l-0.563 1 0.563 1zM13.438 23h1.188l0.563-1-0.563-1h-1.188l-0.563 1zM16.063 21.5h1.125l0.563-1-0.563-1h-1.125l-0.563 1z"></path>
</svg>
