<!-- Generated by IcoMoon.io -->
<svg version="1.1" xmlns="http://www.w3.org/2000/svg" width="32" height="32" viewBox="0 0 32 32">
<title>Nilgai</title>
<path d="M22.625 5.5c-0.063 0.063-0.063 0.438-0.125 0.75v0.688l-0.188-0.125c-0.25-0.125-0.5-0.125-0.75-0.125-0.125 0.063-0.188 0.063-0.188 0.25 0.063 0.125 0.063 0.188 0.125 0.188 0-0.063 0 0.063 0 0.188 0 0.063 0.063 0.188 0.125 0.188 0 0 0.063 0.063 0.063 0.125s0 0.188 0.063 0.188c0 0 0.063 0.125 0.125 0.25 0 0.063 0.125 0.25 0.25 0.375s0.25 0.313 0.25 0.313c0 0.063 0.063 0.125 0.063 0.125 0.063 0 0.063 0.063 0.063 0.188s0 0.188-0.063 0.188c0 0-0.063 0.063-0.063 0.125 0 0.125-0.75 0.75-0.813 0.75-0.063-0.063-0.063 0-0.063 0.063 0 0-0.063 0.188-0.25 0.25-0.125 0.125-0.313 0.25-0.313 0.25-0.063 0.063-0.25 0.188-0.375 0.375-0.188 0.125-0.375 0.25-0.438 0.25s-0.063 0.063-0.063 0.063c0 0.125-0.5 0.25-0.813 0.188-0.188 0-0.375 0-0.375 0.063s-0.375 0.063-0.875 0.063c-0.5 0-0.875 0.063-0.938 0.063 0 0.063-0.25 0.063-0.563 0.063-0.25 0-0.5 0.063-0.563 0.063 0 0.063-0.125 0.125-0.313 0.125-0.125 0.063-0.25 0.063-0.25 0.125s-0.563 0.25-0.75 0.313c-0.125 0-0.188 0-0.188 0.063 0.063 0-0.063 0.063-0.125 0.063-0.125 0-0.25 0-0.25 0.063s-0.813 0.188-1.563 0.188c-0.375 0-0.625 0-0.625 0.063 0 0-0.188 0-0.438 0-0.313 0-0.5 0.063-0.563 0.125 0 0-0.188 0.063-0.375 0.063-0.25 0-0.313-0.063-0.313-0.125 0-0.125-0.063-0.125-0.188-0.125-0.188 0-0.25 0.125-0.063 0.188l0.188 0.125h-0.188c-0.063 0.063-0.5 0.063-0.938 0.125-0.438 0-0.75 0.063-0.75 0.063 0 0.063-0.25 0.125-0.5 0.125s-0.688 0.063-0.938 0.125c-0.25 0-0.625 0.063-0.75 0.063-0.188 0-0.313 0.063-0.25 0.063 0 0.063-0.063 0.063-0.25 0.063-0.125 0-0.313 0.063-0.375 0.063-0.125 0.063-0.625 0.188-0.75 0.188 0 0-0.063 0-0.063 0.063 0 0-0.063 0.063-0.125 0.063s-0.125 0-0.125 0.063c0 0-0.063 0.063-0.063 0.063-0.063 0-0.188 0.063-0.375 0.188-0.188 0.063-0.313 0.125-0.375 0.125 0 0 0 0 0 0.063s0 0.125 0 0.125c-0.063 0-0.125 0.125-0.25 0.25-0.063 0.125-0.125 0.25-0.188 0.25 0 0-0.063 0.063-0.063 0.125s0 0.125 0 0.125c-0.188 0-0.313 1.125-0.313 2.688 0 0.938-0.063 1.625-0.063 1.625-0.063 0-0.063 0-0.063 0.063 0 0.25-0.063 0.813-0.125 0.813 0-0.063-0.063 0-0.063 0 0.063 0.125-0.063 0.5-0.125 0.5s-0.063 0.063-0.063 0.125-0.063 0.125-0.125 0.063c-0.063-0.063-0.063-0.063-0.063 0.063 0.063 0.125-0.563 0.813-0.688 0.75 0-0.063 0 0 0 0.063 0 0.125 0 0.188-0.063 0.188s-0.063 0-0.063 0.063c0.063 0 0.063 0.063 0 0.063-0.063 0.063-0.563 0.813-0.563 0.938 0 0.063-0.063 0.063-0.063 0 0 0-0.125 0.125-0.125 0.313-0.188 0.5-0.188 0.563 0 0.563 0.063 0.063 0.125 0 0.063 0 0-0.063 0.188-0.125 0.688-0.125 0.875 0 0.875 0 0.938-0.063s0.125-0.063 0.188-0.063c0.063 0 0.25-0.125 0.375-0.188 0.125-0.125 0.25-0.25 0.25-0.25 0.063 0 0.188-0.063 0.25-0.188 0.313-0.25 0.625-0.438 0.688-0.375 0.063 0 0.063-0.063 0.063-0.063-0.063-0.063-0.063-0.125 0-0.125 0 0 0.188-0.125 0.375-0.313 0.5-0.438 0.5-0.438 0.625-0.375 0.063 0 0.063 0 0.063-0.063-0.063-0.063 0-0.125 0.125-0.125 0.063-0.063 0.188-0.125 0.188-0.125 0-0.063 0.125-0.063 0.188-0.125 0.125 0 0.25 0 0.25-0.063 0.188-0.125 0.188 0 0.188 0.313-0.063 0.188-0.125 0.688-0.125 1.125s-0.063 0.813-0.063 0.75c-0.063 0-0.063 0-0.063 0.063s0.125 0.125 0.5 0.125h0.5l0.563-0.5c0.313-0.313 0.563-0.563 0.625-0.5 0.063 0 0.063 0 0-0.063-0.063-0.125 0.188-0.5 0.313-0.5 0.063 0.063 0.063 0 0.063-0.063s0-0.188 0.063-0.188c0.063-0.063 0.125-0.125 0.125-0.188s0.063-0.125 0.125-0.25c0.125-0.063 0.25-0.25 0.438-0.375 0.188-0.313 0.25-0.313 0.625-0.313 0.25 0 0.5 0.063 0.5 0.063 0.063 0.063 0.188 0.125 0.25 0.125 0.125 0 0.188 0 0.188 0.063 0 0 0.063 0.063 0.125 0.063s0.188 0 0.188 0.063c0 0.063 0.125 0.063 0.313 0.125 0.125 0 0.313 0.063 0.313 0.125 0 0 0.313 0.063 0.75 0.063 0.438-0.063 0.813-0.063 0.813-0.063 0-0.063 2-0.188 3.75-0.188h0.438l-0.063 0.313c-0.063 0.313-0.063 2.5 0 2.688 0.063 0.125 0.188 0.125 0.813 0.188 0.438 0 0.813 0 0.875 0s0.063-0.188 0.063-0.313c0-0.125 0.063-0.25 0.063-0.188 0.063 0 0.063-0.188 0.125-0.5 0-0.25 0.063-0.563 0.125-0.625 0-0.063 0.063-0.188 0.063-0.313s0-0.25 0.063-0.25c0.063-0.063 0.438 0.313 0.375 0.438 0 0.063 0 0.063 0.063 0.063 0.063-0.063 0.188 0.063 0.313 0.188 0.188 0.125 0.375 0.25 0.5 0.375 0.375 0.188 0.688 0.5 1 0.875 0.125 0.188 0.188 0.188 0.438 0.188 0.188 0 0.375 0 0.375-0.063s0.125-0.063 0.313-0.063c0.25 0 0.313 0 0.313-0.125 0-0.063 0-0.063-0.063-0.063s-0.063-0.188-0.063-0.375c0-0.125-0.063-0.313-0.063-0.313-0.063 0-0.125-0.125-0.125-0.25 0-0.188-0.063-0.313-0.125-0.313 0 0-0.063-0.063-0.063-0.063 0-0.063 0-0.125-0.063-0.125 0 0-0.25-0.313-0.438-0.625-0.25-0.375-0.5-0.688-0.563-0.75-0.188-0.188-0.188-0.25 0.125-0.563 0.438-0.438 0.563-0.625 0.563-0.688s0.063-0.063 0.063-0.063 0.125-0.188 0.188-0.313c0.125-0.188 0.188-0.313 0.188-0.313 0.063 0 0.063 0 0.063-0.063 0-0.125 0.25-0.625 0.5-1.125 0.063-0.125 0.063-0.25 0.063-0.313s0.063-0.125 0.125-0.125c0 0 0.063 0 0.063-0.063s0.063-0.188 0.063-0.313c0.063-0.125 0.125-0.25 0.125-0.313s0.063-0.125 0.063-0.125c0.063 0 0.063-0.063 0.063-0.188 0-0.063 0.063-0.125 0.063-0.063 0.063 0 0.125-0.125 0.125-0.313 0.063-0.188 0.125-0.375 0.188-0.438 0-0.063 0.125-0.125 0.125-0.188 0.063-0.125 0.125-0.125 0.125-0.063 0.063 0.063 0.125 0.125 0.125 0.125 0.125 0 0.125-0.125 0.125-0.438 0-0.25 0.063-0.375 0.063-0.313 0.063 0 0.063 0 0.063-0.063 0-0.188 0.125-1.25 0.188-1.25 0 0 0.063-0.188 0.063-0.313 0-0.188 0-0.375 0.063-0.375 0 0 0.063-0.188 0.125-0.5 0-0.313 0.063-0.563 0.063-0.563 0.063-0.063 0.063-0.25 0.063-0.5s0.063-0.5 0.125-0.5c0 0 0.063-0.063 0.063-0.125 0-0.125 0-0.25 0.063-0.313s0.125-0.188 0.125-0.313c0-0.063 0.063-0.125 0.063-0.125 0.063 0 0.063-0.313 0.063-0.75s0.063-0.75 0.063-0.75c0.063 0 0.063-0.063 0.063-0.125 0-0.125 0.375-0.375 0.563-0.375 0.063 0 0.125-0.063 0.188-0.125s0.125-0.063 0.188-0.063c0.063 0 0.063 0 0.063-0.063-0.063-0.125 0-0.125 0.063-0.125 0.063 0.063 0.125 0.063 0.063 0 0-0.063 0-0.125 0.063-0.25 0.188-0.188 0.188-0.625 0-0.688-0.063 0-0.25 0-0.5 0-0.188 0.063-0.375 0.063-0.438 0.063 0 0 0-0.188 0-0.438 0-0.313 0-0.5-0.063-0.5s-0.063-0.188-0.063-0.375c0-0.188-0.063-0.313-0.125-0.313s-0.125 0.125-0.125 0.375c0 0.188 0 0.375-0.063 0.375 0 0-0.063 0.125-0.063 0.25s0 0.25-0.063 0.188c0 0-0.063 0.125-0.125 0.313 0 0.125-0.063 0.313-0.125 0.313 0 0-0.063 0.063-0.063 0.125 0 0.125-0.063 0.125-0.688 0.063-0.813 0-1-0.063-1-0.188 0 0-0.063-0.125-0.125-0.188 0 0-0.063-0.125-0.063-0.25 0-0.063-0.063-0.125-0.063-0.125-0.063 0.063-0.125-0.188-0.188-0.938-0.063-0.375-0.125-0.438-0.188-0.438s-0.188 0.063-0.188 0.063z"></path>
</svg>
