<!-- Generated by IcoMoon.io -->
<svg version="1.1" xmlns="http://www.w3.org/2000/svg" width="32" height="32" viewBox="0 0 32 32">
<title>No-tracking</title>
<path d="M16 8.688c1.813 0 3.313 1.5 3.313 3.313 0 1-0.438 1.875-1.063 2.438l4.813 4.875c1.313-2.5 2.25-5.063 2.25-7.313 0-5.188-4.125-9.313-9.313-9.313-2.625 0-5 1.063-6.75 2.875l4.313 4.25c0.563-0.75 1.438-1.125 2.438-1.125zM21.813 21.438l-6.188-6.125-0.125-0.188-11.125-11.125-1.688 1.688 4.25 4.25c-0.188 0.688-0.25 1.375-0.25 2.063 0 7 9.313 17.313 9.313 17.313s2.25-2.438 4.5-5.75l4.5 4.438 1.688-1.688z"></path>
</svg>
