<?xml version="1.0" standalone="no"?>
<!DOCTYPE svg PUBLIC "-//W3C//DTD SVG 20010904//EN"
 "http://www.w3.org/TR/2001/REC-SVG-20010904/DTD/svg10.dtd">
<svg version="1.0" xmlns="http://www.w3.org/2000/svg"
 width="960.000000pt" height="970.000000pt" viewBox="0 0 960.000000 970.000000"
 preserveAspectRatio="xMidYMid meet">

<g transform="translate(0.000000,970.000000) scale(0.100000,-0.100000)"
fill="#000000" stroke="none">
<path d="M4445 9479 c-735 -61 -1394 -266 -2015 -629 -1000 -584 -1767 -1563
-2091 -2670 -202 -690 -242 -1412 -118 -2120 165 -937 615 -1797 1297 -2476
596 -594 1347 -1015 2164 -1213 1174 -284 2399 -103 3448 509 1000 584 1767
1563 2091 2670 202 690 242 1412 118 2120 -165 937 -615 1797 -1297 2476 -357
356 -765 648 -1217 869 -545 267 -1106 418 -1724 465 -156 12 -510 11 -656 -1z
m570 -1199 c709 -53 1353 -305 1918 -753 133 -105 420 -393 531 -532 411 -519
650 -1103 728 -1780 18 -164 16 -559 -6 -735 -68 -562 -261 -1082 -573 -1539
-301 -441 -710 -815 -1177 -1074 -976 -542 -2186 -566 -3187 -62 -355 178
-609 363 -895 649 -182 183 -300 324 -418 501 -323 483 -500 971 -568 1560
-18 164 -16 559 6 735 68 562 261 1082 573 1539 301 441 710 815 1177 1074
567 315 1244 464 1891 417z"/>
</g>
</svg>
