<!-- Generated by IcoMoon.io -->
<svg version="1.1" xmlns="http://www.w3.org/2000/svg" width="32" height="32" viewBox="0 0 32 32">
<title>On-safari</title>
<path d="M20.813 10.688c-0.875 0-1.625 0.688-1.625 1.563v0.563h1.063v-0.563c0-0.25 0.25-0.5 0.563-0.5s0.5 0.25 0.5 0.5v0.563h1.063v-0.563c0-0.875-0.688-1.563-1.563-1.563zM26.125 10.688c-0.875 0-1.563 0.688-1.563 1.563v0.563h1.063v-0.563c0-0.25 0.188-0.5 0.5-0.5s0.563 0.25 0.563 0.5v0.563h1.063v-0.563c0-0.875-0.75-1.563-1.625-1.563zM21.313 13.875v1.063c0 1.188 1 2.125 2.125 2.125 1.188 0 2.188-0.938 2.188-2.125v-1.063zM23.438 16c-0.563 0-1.063-0.5-1.063-1.063h2.188c0 0.563-0.5 1.063-1.125 1.063zM31.438 18.688h-5.313v-0.063c1.938-0.875 3.313-2.688 3.625-4.75h0.625c0.938 0 1.625-0.75 1.625-1.625s-0.688-1.563-1.625-1.563h-0.5v-1.625c0-2.438-1.5-4.563-3.75-5.438v-0.938c0-1.5-1.188-2.688-2.688-2.688-1.438 0-2.625 1.188-2.625 2.688v0.938c-2.25 0.875-3.75 3-3.75 5.438v1.625h-0.5c-0.938 0-1.625 0.688-1.625 1.563s0.688 1.625 1.625 1.625h0.625c0.313 2.063 1.688 3.875 3.625 4.75v0.063h-9.25l-1.938-4.375v-3.125c0-0.313-0.25-0.5-0.563-0.5h-1.625v-10.688h-1.875c-0.625 0-1.25 0.25-1.688 0.688-0.25 0.25-0.563 0.375-0.875 0.375h-3v6.375h3c0.625 0 1.188-0.188 1.625-0.688 0.25-0.188 0.563-0.375 0.938-0.375h0.813v4.313h-0.5c-0.313 0-0.563 0.188-0.563 0.5v3.188c0 0.063 0.063 0.188 0.063 0.25l2.688 6.625c0.375 1 1.375 1.688 2.438 1.688h4.438v8.5c0 0.313 0.25 0.563 0.5 0.563h16c0.313 0 0.563-0.25 0.563-0.563v-12.25c0-0.313-0.25-0.5-0.563-0.5zM29.875 11.75h0.5c0.313 0 0.563 0.25 0.563 0.5 0 0.313-0.25 0.563-0.563 0.563h-0.5zM17.063 12.813h-0.5c-0.313 0-0.563-0.25-0.563-0.563 0-0.25 0.25-0.5 0.563-0.5h0.5zM21.875 2.688c0-0.875 0.688-1.625 1.563-1.625 0.938 0 1.625 0.75 1.625 1.625v0.5h-3.188zM22.938 4.25h1.063c2.438 0 4.5 1.875 4.75 4.313h-0.5c-0.875 0-1.563-0.75-1.563-1.625 0-0.313-0.25-0.563-0.563-0.563h-1.063c-0.313 0-0.5 0.25-0.5 0.563 0 0.875-0.75 1.625-1.625 1.625h-4.75c0.25-2.438 2.313-4.313 4.75-4.313zM18.125 12.813v-3.188h4.813c1.25 0 2.375-0.938 2.625-2.188h0.063c0.313 1.25 1.375 2.188 2.625 2.188h0.563v3.188c0 2.938-2.375 5.313-5.375 5.313-2.938 0-5.313-2.375-5.313-5.313zM25.063 19.75c0 0.875-0.688 1.563-1.625 1.563-0.875 0-1.563-0.688-1.563-1.563zM20.813 19.75c0 1.438 1.188 2.625 2.625 2.625 1.5 0 2.688-1.188 2.688-2.625h1.25l-2.625 4.813h-2.563l-2.625-4.813zM24.563 25.625v3.188h-2.188v-3.188zM5.563 5.313c-0.625 0-1.25 0.25-1.688 0.688-0.25 0.25-0.563 0.375-0.875 0.375h-1.938v-4.25h1.938c0.625 0 1.188-0.25 1.625-0.688 0.25-0.25 0.563-0.375 0.938-0.375h0.813v4.25zM6.375 11.75h2.188v2.125h-2.188zM12.813 21.875h-2.313c-0.625 0-1.25-0.375-1.5-1l-2.375-5.938h2.125l1.938 4.5c0.125 0.188 0.313 0.313 0.5 0.313h1.625zM30.938 30.938h-14.938v-8.563c0-0.25-0.25-0.5-0.563-0.5h-1.563v-2.125h4.5l2.938 5.438v4.125c0 0.313 0.25 0.563 0.563 0.563h3.188c0.313 0 0.563-0.25 0.563-0.563v-4.125l2.938-5.438h2.375z"></path>
</svg>
