<!-- Generated by IcoMoon.io -->
<svg version="1.1" xmlns="http://www.w3.org/2000/svg" width="32" height="32" viewBox="0 0 32 32">
<title>Searched1</title>
<path d="M29.688 17.125c-1.813-2.813-4.063-4.875-6.75-6.313 0.688 1.25 1.063 2.625 1.063 4.063 0 2.188-0.813 4.063-2.375 5.625s-3.438 2.375-5.625 2.375c-2.188 0-4.063-0.813-5.625-2.375s-2.375-3.438-2.375-5.625c0-1.438 0.375-2.813 1.063-4.063-2.688 1.438-4.938 3.5-6.75 6.313 1.563 2.438 3.563 4.375 5.938 5.875 2.375 1.438 4.938 2.125 7.75 2.125s5.375-0.688 7.75-2.125c2.375-1.5 4.375-3.438 5.938-5.875zM16.875 10.313c0-0.25-0.125-0.438-0.25-0.625-0.188-0.188-0.375-0.25-0.625-0.25-1.5 0-2.75 0.5-3.813 1.563s-1.625 2.375-1.625 3.875c0 0.25 0.063 0.438 0.25 0.563 0.188 0.188 0.375 0.25 0.625 0.25s0.438-0.063 0.625-0.25c0.125-0.125 0.25-0.313 0.25-0.563 0-1.063 0.313-1.938 1.063-2.625 0.75-0.75 1.625-1.125 2.625-1.125 0.25 0 0.438-0.063 0.625-0.25 0.125-0.125 0.25-0.375 0.25-0.563zM32 17.125c0 0.438-0.125 0.813-0.375 1.25-1.625 2.75-3.875 4.938-6.688 6.563-2.813 1.688-5.813 2.5-8.938 2.5s-6.125-0.813-8.938-2.5c-2.813-1.625-5.063-3.813-6.688-6.563-0.25-0.438-0.375-0.813-0.375-1.25 0-0.375 0.125-0.813 0.375-1.188 1.625-2.75 3.875-4.938 6.688-6.625 2.813-1.625 5.813-2.438 8.938-2.438s6.125 0.813 8.938 2.438c2.813 1.688 5.063 3.875 6.688 6.625 0.25 0.375 0.375 0.813 0.375 1.188z"></path>
</svg>
