<!-- Generated by IcoMoon.io -->
<svg version="1.1" xmlns="http://www.w3.org/2000/svg" width="26" height="32" viewBox="0 0 26 32">
<title>Orangutan</title>
<path d="M20.013 11.962c-0.048-0.059-0.122-0.097-0.203-0.097-0.001 0-0.001 0-0.002 0h0c-0 0-0 0-0 0-0.153 0-0.277 0.123-0.279 0.276v0c0.005 0.152 0.11 0.278 0.251 0.316l0.002 0.001c0.018 0.004 0.039 0.007 0.061 0.007 0.155 0 0.28-0.125 0.28-0.28 0-0.090-0.043-0.171-0.109-0.222l-0.001-0.001zM20.082 12.093c0 0.014 0.003 0.031 0.003 0.048-0.005-0.029-0.012-0.055-0.021-0.080l0.001 0.003c0.006 0.009 0.012 0.020 0.017 0.029zM19.293 12.278c-0.050-0.050-0.12-0.081-0.197-0.081s-0.146 0.031-0.197 0.081v0c-0.049 0.051-0.079 0.12-0.079 0.197s0.030 0.146 0.079 0.197l-0-0c0.031 0.040 0.060 0.097 0.094 0.142 0.051 0.049 0.12 0.080 0.197 0.080s0.146-0.031 0.197-0.080l-0 0c0.049-0.051 0.079-0.12 0.079-0.197s-0.030-0.146-0.079-0.197l0 0c-0.034-0.042-0.060-0.1-0.094-0.142zM18.86 15.036c-0.082 0.053-0.135 0.144-0.135 0.248 0 0.022 0.002 0.044 0.007 0.065l-0-0.002c-0.005 0.020-0.007 0.042-0.007 0.065 0 0.103 0.054 0.193 0.135 0.244l0.001 0.001c0.040 0.023 0.088 0.037 0.139 0.037 0.102 0 0.192-0.054 0.242-0.135l0.001-0.001c0.044-0.058 0.070-0.131 0.070-0.211s-0.026-0.153-0.071-0.212l0.001 0.001c-0.052-0.081-0.141-0.135-0.244-0.135-0.051 0-0.098 0.013-0.14 0.036l0.001-0.001zM18.566 15.56c-0.011-0.356-0.567-0.359-0.555 0 0 0 0 0 0 0.001 0 0.222 0.084 0.424 0.223 0.576l-0.001-0.001c0.242 0.268 0.635-0.125 0.393-0.39-0.037-0.048-0.060-0.109-0.060-0.176 0-0.003 0-0.007 0-0.010v0.001zM15.54 18.791c0.003 0.024 0.004 0.052 0.004 0.081 0 0.182-0.060 0.351-0.162 0.486l0.001-0.002c-0.242 0.262 0.151 0.655 0.393 0.393 0.2-0.234 0.322-0.541 0.322-0.876 0-0.029-0.001-0.057-0.003-0.085l0 0.004c0-0.154-0.124-0.278-0.278-0.278s-0.278 0.125-0.278 0.278v0zM14.64 18.791c-0.008 0.216-0.057 0.418-0.138 0.603l0.004-0.011c-0.006 0.022-0.010 0.047-0.010 0.072 0 0.127 0.085 0.234 0.202 0.267l0.002 0c0.022 0.006 0.047 0.010 0.072 0.010 0.127 0 0.235-0.085 0.269-0.201l0.001-0.002c0.090-0.218 0.146-0.47 0.154-0.735l0-0.003c-0.006-0.149-0.128-0.268-0.278-0.268s-0.272 0.118-0.278 0.267l-0 0.001zM14.604 9.774c-0.031-0.020-0.091-0.045-0.109-0.060-0.051-0.048-0.12-0.078-0.197-0.078s-0.145 0.030-0.197 0.078l0-0c-0.083 0.063-0.139 0.16-0.145 0.27l-0 0.001c0.001 0.038 0.006 0.074 0.015 0.109l-0.001-0.003c0.004 0.153 0.13 0.276 0.284 0.276 0 0 0.001 0 0.001 0h-0c0.003 0 0.006 0.003 0.009 0.006 0.053 0.030 0.116 0.048 0.183 0.048 0.087 0 0.167-0.030 0.231-0.080l-0.001 0.001c0.082-0.050 0.137-0.14 0.137-0.242 0-0.051-0.014-0.099-0.037-0.141l0.001 0.001c-0.048-0.072-0.106-0.133-0.172-0.184l-0.002-0.001zM13.866 18.83c-0.080 0.095-0.129 0.219-0.129 0.355 0 0.012 0 0.023 0.001 0.035l-0-0.002c0.006 0.149 0.128 0.267 0.278 0.267s0.272-0.118 0.278-0.267l0-0.001v-0.051c0.028-0.041 0.044-0.092 0.044-0.147 0-0.074-0.030-0.141-0.078-0.189v0c-0.051-0.049-0.12-0.080-0.197-0.080s-0.146 0.030-0.197 0.080l0-0zM14.538 8.634c-0.66-0.077-1.245 0.539-1.228 1.182 0.008 0.356 0.564 0.356 0.555 0-0.011-0.37 0.379-0.775 0.76-0.59 0.27 0.131 0.382 0.541 0.45 0.803 0.037 0.113 0.141 0.194 0.265 0.194 0.153 0 0.278-0.124 0.278-0.278 0-0.022-0.002-0.043-0.007-0.063l0 0.002c-0.145-0.556-0.441-1.174-1.073-1.251zM13.92 2.971c0.15-0.004 0.27-0.127 0.27-0.278s-0.12-0.274-0.27-0.278h-0c-0.004 0-0.009 0-0.014 0-0.195 0-0.372-0.077-0.502-0.203l0 0c-0.26-0.251-0.652 0.142-0.393 0.39 0.234 0.227 0.554 0.368 0.906 0.368 0.001 0 0.002 0 0.003 0h-0zM13.35 8.207c-0.285 0-0.285 0.556 0 0.556 0.57 0 0.57-0.556 0-0.556zM14.113 7.35c-0.238-0.346-0.412-0.755-0.493-1.197l-0.003-0.019c-0.049-0.353-0.584-0.202-0.536 0.148 0.096 0.511 0.288 0.964 0.558 1.36l-0.008-0.012c0.188 0.305 0.669 0.026 0.481-0.279zM12.122 19.124v0.285c0.007 0.148 0.129 0.265 0.278 0.265s0.271-0.117 0.278-0.264l0-0.001v-0.285c-0.004-0.15-0.127-0.27-0.278-0.27s-0.274 0.12-0.278 0.27v0zM12.635 7.962c-0.101-0.089-0.191-0.184-0.273-0.286l-0.003-0.004c-0.248-0.259-0.64 0.137-0.393 0.393 0.119 0.138 0.246 0.261 0.385 0.371l0.006 0.004c0.040 0.024 0.088 0.038 0.14 0.038 0.102 0 0.19-0.055 0.238-0.137l0.001-0.001c0.023-0.040 0.036-0.087 0.036-0.137 0-0.101-0.054-0.19-0.134-0.24l-0.001-0.001zM12.991 12.933c0.024 0.008 0.052 0.013 0.081 0.013 0.144 0 0.26-0.116 0.26-0.26 0-0.012-0.001-0.023-0.002-0.034l0 0.001c0.041 0.032 0.093 0.052 0.15 0.052 0.004 0 0.008-0 0.013-0l-0.001 0c0.295-0.004 0.554-0.15 0.713-0.373l0.002-0.003c0.024-0.040 0.038-0.088 0.038-0.14 0-0.153-0.124-0.277-0.277-0.277-0.101 0-0.19 0.055-0.239 0.136l-0.001 0.001c-0.057 0.062-0.138 0.1-0.229 0.1-0.003 0-0.005-0-0.008-0h0c-0.149 0.004-0.269 0.126-0.269 0.276 0 0.007 0 0.014 0.001 0.021l-0-0.001c-0.024-0.021-0.052-0.038-0.084-0.048l-0.002-0c-0.107-0.030-0.199-0.066-0.286-0.11l0.010 0.004c0.030-0.043 0.047-0.096 0.047-0.154 0-0.151-0.122-0.273-0.272-0.274h-0c-0.010-0.001-0.021-0.001-0.032-0.001-0.111 0-0.214 0.032-0.301 0.088l0.002-0.001c-0.082 0.053-0.136 0.143-0.136 0.247 0 0.024 0.003 0.047 0.008 0.069l-0-0.002c0.086 0.403 0.464 0.554 0.812 0.671zM12.591 12.42c-0.002 0.002-0.003 0.005-0.003 0.008 0 0 0 0.001 0 0.001v-0c-0.003-0.003-0.007-0.005-0.011-0.005l-0-0c0.001 0 0.002 0 0.003 0 0.005 0 0.009-0.001 0.013-0.004l-0 0zM12.194 7.136c0.154-0.433 0.421-0.78 0.39-1.262-0.023-0.356-0.578-0.356-0.555 0 0.026 0.41-0.236 0.74-0.371 1.114-0.12 0.339 0.416 0.481 0.536 0.148zM11.92 19.503c-0.006-0.149-0.128-0.267-0.278-0.267s-0.272 0.119-0.278 0.267l-0 0.001c0.001 0.3 0.057 0.587 0.156 0.852l-0.006-0.017c0.037 0.118 0.145 0.202 0.273 0.202 0.024 0 0.048-0.003 0.071-0.009l-0.002 0c0.118-0.034 0.204-0.141 0.204-0.268 0-0.026-0.004-0.052-0.010-0.076l0 0.002c-0.081-0.204-0.129-0.439-0.131-0.686v-0.001zM16.054 15.891c-1.812-0.969-3.413-0.222-5.316-0.037-0.353 0.034-0.356 0.589 0 0.555 0.265-0.026 0.524-0.065 0.783-0.111 0.004 0.011 0.010 0.020 0.017 0.029l-0-0c0.835 0.86 2.368 0.855 3.453 0.596 0.348-0.086 0.2-0.621-0.148-0.536-0.775 0.185-1.895 0.242-2.62-0.22 1.2-0.231 2.356-0.436 3.552 0.205 0.315 0.169 0.594-0.31 0.278-0.481zM10.974 17.605c-0.083 0.125-0.157 0.256-0.237 0.379-0.2 0.302 0.282 0.581 0.479 0.282 0.083-0.126 0.154-0.257 0.236-0.379 0.199-0.302-0.282-0.578-0.478-0.282zM11.652 9.643c-0.070-0.037-0.153-0.058-0.242-0.058-0.014 0-0.028 0.001-0.042 0.002l0.002-0c-0.046 0-0.088 0.005-0.131 0.005-0.014 0.003-0.085 0-0.1 0 0.003 0.003 0.003 0.003 0.006 0.003-0.020-0.005-0.043-0.008-0.067-0.008-0.127 0-0.234 0.083-0.272 0.197l-0.001 0.002c-0.114 0.037-0.195 0.141-0.195 0.265 0 0.12 0.077 0.223 0.184 0.262l0.002 0.001c0.056 0.109 0.166 0.183 0.293 0.188l0.001 0c0.106-0.002 0.204-0.040 0.281-0.101l-0.001 0.001c0.048 0.041 0.111 0.066 0.179 0.066 0.124 0 0.23-0.082 0.265-0.195l0.001-0.002c0.062-0.225 0.073-0.498-0.163-0.627zM10.908 10.876c-0.14-0.041-0.259-0.115-0.353-0.213l-0-0c-0.256-0.248-0.65 0.142-0.393 0.393 0.161 0.164 0.362 0.288 0.588 0.354l0.010 0.002c0.020 0.005 0.043 0.008 0.067 0.008 0.154 0 0.278-0.124 0.278-0.278 0-0.124-0.082-0.23-0.194-0.265l-0.002-0.001zM10.407 3.133c0.093 0.047 0.203 0.075 0.32 0.075 0.215 0 0.407-0.093 0.54-0.242l0.001-0.001c0.104 0.092 0.241 0.149 0.391 0.149 0.136 0 0.262-0.046 0.362-0.124l-0.001 0.001c0.030-0.023 0.054-0.050 0.073-0.081l0.001-0.001c0.123 0.096 0.28 0.155 0.45 0.157h0c0.356 0.011 0.356-0.544 0-0.556-0.007 0.001-0.014 0.002-0.022 0.002-0.047 0-0.089-0.020-0.118-0.053l-0-0c-0.046-0.085-0.135-0.142-0.237-0.142-0.086 0-0.163 0.041-0.213 0.104l-0 0.001c-0.024-0.010-0.052-0.015-0.081-0.015-0.051 0-0.099 0.018-0.136 0.047l0-0c-0.134 0.1-0.154 0.097-0.208-0.071-0.036-0.116-0.142-0.198-0.268-0.198s-0.232 0.083-0.267 0.196l-0.001 0.002c-0.046 0.128-0.154 0.3-0.305 0.214-0.313-0.174-0.592 0.365-0.281 0.538zM10.404 17.369c-0.098 0.207-0.193 0.378-0.297 0.543l0.013-0.021c-0.197 0.302 0.285 0.581 0.479 0.282 0.092-0.144 0.187-0.316 0.271-0.493l0.013-0.031c0.162-0.319-0.32-0.601-0.479-0.279zM9.931 19.74v0.57c0 0.57 0.57 0.57 0.57 0v-0.57c0-0.286-0.57-0.286-0.57 0zM11.034 8.763c-0.689 0.083-1.248 0.607-1.627 1.151-0.205 0.293 0.276 0.57 0.479 0.28 0.504-0.718 1.598-1.387 2.057-0.256 0.134 0.328 0.672 0.185 0.536-0.148-0.257-0.633-0.715-1.112-1.444-1.027zM10.114 2.931c-0.001-0.115-0.050-0.218-0.128-0.29l-0-0c-0.242-0.251-0.613 0.108-0.41 0.364 0.083 0.277 0.547 0.255 0.538-0.074zM9.886 19.357c0.151-0.322-0.327-0.604-0.479-0.28-0.347 0.744-0.040 1.456 0.256 2.16 0.137 0.325 0.675 0.182 0.536-0.145-0.219-0.521-0.576-1.171-0.314-1.735zM8.846 10.671v0.188c0.006 0.149 0.128 0.267 0.278 0.267s0.272-0.118 0.278-0.267l0-0.001v-0.188c-0.006-0.149-0.128-0.267-0.278-0.267s-0.272 0.118-0.278 0.267l-0 0.001zM8.718 3.769c0.022 0.006 0.047 0.010 0.073 0.010 0.127 0 0.235-0.085 0.269-0.201l0.001-0.002c0.006-0.031 0-0.043 0.023-0.068 0.234-0.268-0.157-0.664-0.393-0.393-0.080 0.085-0.138 0.191-0.164 0.309l-0.001 0.004c-0.005 0.020-0.008 0.043-0.008 0.067 0 0.128 0.084 0.237 0.2 0.274l0.002 0.001zM7.376 13.472v0.048c0.007 0.148 0.129 0.265 0.278 0.265s0.271-0.117 0.278-0.264l0-0.001v-0.048c-0.004-0.15-0.127-0.27-0.278-0.27s-0.274 0.12-0.278 0.27v0zM7.37 5.498c0.040 0.022 0.087 0.036 0.138 0.036 0.102 0 0.191-0.054 0.242-0.134l0.001-0.001c0.043-0.060 0.054-0.134 0.097-0.191 0.023-0.040 0.037-0.088 0.037-0.139 0-0.102-0.055-0.191-0.136-0.239l-0.001-0.001c-0.040-0.023-0.088-0.036-0.139-0.036-0.102 0-0.192 0.054-0.242 0.135l-0.001 0.001c-0.043 0.057-0.051 0.131-0.094 0.188-0.024 0.040-0.038 0.089-0.038 0.141 0 0.102 0.054 0.191 0.136 0.24l0.001 0.001zM6.9 16.463v0.333c0.006 0.149 0.128 0.267 0.278 0.267s0.272-0.118 0.278-0.267l0-0.001v-0.333c-0.006-0.149-0.128-0.267-0.278-0.267s-0.272 0.118-0.278 0.267l-0 0.001zM7.208 13.546c0.059-0.194 0.131-0.361 0.218-0.518l-0.007 0.014c0.16-0.319-0.322-0.6-0.481-0.28-0.1 0.181-0.19 0.391-0.259 0.611l-0.007 0.024c-0.006 0.022-0.010 0.048-0.010 0.074 0 0.154 0.124 0.278 0.278 0.278 0.127 0 0.234-0.085 0.267-0.202l0-0.002zM6.706 6.205c0.092-0.179 0.204-0.333 0.337-0.468l-0 0c0.248-0.256-0.142-0.649-0.393-0.39-0.165 0.166-0.307 0.356-0.418 0.565l-0.006 0.013c-0.165 0.316 0.316 0.598 0.481 0.279zM6.268 15.933c-0.102 0.116-0.167 0.268-0.174 0.435l-0 0.001c0 0 0 0.001 0 0.002 0 0.152 0.123 0.275 0.275 0.275 0.001 0 0.001 0 0.002 0h-0c0.152-0.004 0.274-0.125 0.28-0.276l0-0.001c0.001-0.016 0.005-0.030 0.011-0.043l-0 0.001c0.052-0.051 0.085-0.121 0.085-0.2 0-0.154-0.124-0.278-0.278-0.278-0.078 0-0.149 0.032-0.2 0.085l-0 0zM19.452 7.922c-0.512-1.233-1.352-2.139-2.253-3.116-0.578-0.632-1.134-1.291-1.752-1.88-0.464-0.445-0.687-1.023-1.202-1.419-0.866-0.658-2.458-0.783-3.493-0.669-1.205 0.131-2.24 0.837-3.111 1.632-0.949 0.866-1.96 2.006-2.533 3.162-0.242 0.497-0.39 1.080-0.404 1.695l-0 0.005c-0.029 0.869-0.55 1.601-0.598 2.496-0.054 0.963-0.168 2.122-0.037 3.091 0.054 0.382 0.271 0.493 0.507 0.445-0.002 0.003-0.003 0.007-0.003 0.011 0 0.001 0 0.002 0 0.003v-0c-0.001 0.007-0.001 0.016-0.001 0.024 0 0.084 0.046 0.158 0.114 0.198l0.001 0.001c-0.079 0.346-0.125 0.744-0.125 1.153 0 0.193 0.010 0.383 0.030 0.571l-0.002-0.023c0.21 1.798 2.142 3.348 3.681 4.015h0.009c-0.009 0.28-0.011 0.556 0.003 0.829 0.071 1.55 1.142 2.784 1.43 4.276 0.011 0.079 0.061 0.144 0.13 0.176l0.001 0.001c0.038 0.119 0.147 0.203 0.276 0.203 0.124 0 0.229-0.078 0.27-0.187l0.001-0.002c0.055-0.151 0.099-0.328 0.124-0.511l0.002-0.014c0.257 0.247 0.549 0.459 0.868 0.63l0.021 0.010c0.040 0.023 0.088 0.037 0.14 0.037 0.127 0 0.235-0.084 0.27-0.2l0.001-0.002c0.058-0.298 0.092-0.642 0.092-0.992 0-0.141-0.005-0.281-0.016-0.419l0.001 0.018c-0.011-0.4 0.228-0.78 0.419-1.157 0.032 0.013 0.070 0.021 0.109 0.021 0.089 0 0.169-0.039 0.224-0.1l0-0c0.234-0.268 0.465-0.51 0.684-0.795 0.068 0.342 0.142 0.632 0.396 0.809 0.035 0.024 0.076 0.045 0.119 0.061l0.004 0.001c-0.151 0.547-0.353 1.086-0.145 1.647 0.035 0.117 0.142 0.201 0.269 0.201 0.1 0 0.188-0.052 0.237-0.131l0.001-0.001c0.188-0.348 0.345-0.704 0.539-1.049 0.13-0.2 0.275-0.374 0.438-0.529l0.001-0.001c0.22 0.41 0.142 0.974 0.077 1.538-0.041 0.115-0.065 0.249-0.065 0.387 0 0.063 0.005 0.126 0.015 0.186l-0.001-0.007v0.046h0.014c0.025 0.125 0.134 0.219 0.265 0.219s0.24-0.093 0.265-0.217l0-0.002h0.012c0.048-0.108 0.097-0.222 0.145-0.333 0.042 0.029 0.094 0.047 0.151 0.047 0.075 0 0.143-0.031 0.191-0.081l0-0c0.812-0.846 0.883-1.926 0.789-3.046-0.008-0.163-0.012-0.354-0.012-0.546 0-0.513 0.031-1.019 0.092-1.516l-0.006 0.060c0.005-0.054 0.007-0.118 0.007-0.182 0-0.035-0.001-0.069-0.002-0.104l0 0.005c1.735-0.35 2.932-1.592 3.854-3.051 0.915-1.444 0.746-3.148 0.202-4.698-0.402-1.132-0.989-2.107-1.734-2.937l0.007 0.008zM4.943 12.597c-0.031-0.018-0.069-0.028-0.109-0.028-0.073 0-0.137 0.034-0.178 0.088l-0 0.001c-0.24 0.293-0.077-0.185-0.071-0.462 0.004-0.248 0.026-0.487 0.064-0.721l-0.004 0.029c0.091-0.547 0.022-1.122 0.017-1.675-0.009-0.687 0.328-1.142 0.553-1.744 0.188-0.498 0.060-1.14 0.2-1.669 0.18-0.69 0.584-1.2 1.014-1.747 0.621-0.812 1.291-1.528 2.024-2.174l0.016-0.014c0.807-0.7 1.869-1.127 3.030-1.127 0.046 0 0.092 0.001 0.138 0.002l-0.007-0c0.601 0.014 1.18 0.22 1.746 0.385 0.664 0.194 0.946 0.644 1.308 1.188 0.541 0.815 1.456 1.541 2.122 2.27 0.481 0.5 0.941 1.033 1.371 1.591l0.033 0.045c-0.72-0.615-1.253-1.376-2.011-1.963-0.699-0.538-1.479-0.57-2.305-0.751-1.644-0.365-3.108-0.86-4.62 0.242-0.749 0.544-1.419 1.504-1.98 2.236-0.562 0.762-1.020 1.645-1.329 2.594l-0.018 0.066c-0.347 1.011-0.604 2.054-0.923 3.074-0.029 0.088-0.055 0.177-0.080 0.265zM16.025 16.728c0.217 0.555 0.461 1.065 0.541 1.655-0.006 0.031-0.011 0.063-0.017 0.097-0.006 0.020-0.009 0.044-0.009 0.068 0 0.057 0.018 0.11 0.050 0.152l-0-0.001c-0.009 0.465-0.191 0.952-0.194 1.422-0.006 1.017 0.302 1.994-0.154 2.88-0.052-0.072-0.136-0.119-0.23-0.119-0.053 0-0.102 0.015-0.145 0.040l0.001-0.001h-0.003c0.011-0.535-0.071-1.057-0.467-1.43-0.050-0.049-0.12-0.080-0.196-0.080-0.102 0-0.191 0.054-0.24 0.135l-0.001 0.001c-0.182 0.294-0.456 0.541-0.67 0.818 0.11-0.307 0.194-0.665 0.235-1.035l0.002-0.021c0.012-0.331-0.444-0.356-0.544-0.074 0.006 0.023 0.008 0.043 0.014 0.063-0.001 0-0.003 0-0.004 0-0.008 0-0.015-0.001-0.022-0.003l0.001 0c0 0.020-0.003 0.037-0.003 0.054-0.006-0.014-0.008-0.026-0.014-0.043-0.037-0.111-0.068-0.222-0.097-0.336-0.052-0.221-0.112-0.409-0.184-0.59l0.010 0.029c-0.046-0.101-0.146-0.17-0.262-0.17-0.088 0-0.166 0.039-0.219 0.101l-0 0c-0.242 0.356-0.501 0.667-0.786 0.951l-0 0c-0.003-0.004-0.007-0.008-0.011-0.011l-0-0c-0.049-0.041-0.113-0.065-0.183-0.065-0.136 0-0.25 0.093-0.281 0.22l-0 0.002c-0.145 0.453-0.424 0.846-0.57 1.3-0.125 0.396-0.043 0.852-0.051 1.288-0.308-0.216-0.573-0.482-0.86-0.729-0.051-0.047-0.12-0.076-0.195-0.076-0.122 0-0.226 0.076-0.268 0.182l-0.001 0.002c-0.242-0.667-0.581-1.296-0.858-1.963-0.564-1.345-0.265-2.829-0.043-4.213 0.108-0.692 0.214-1.649 0.436-2.575 0.087 0.066 0.197 0.106 0.316 0.106 0.007 0 0.014-0 0.021-0l-0.001 0c0.302 0.436 0.909 0.456 1.433 0.496 0.225 0.020 2.285-0.536 2.285-0.604 0.311 0.413 1.088 0.407 1.43 0.068 0.116 0.067 0.253 0.109 0.4 0.117l0.002 0c0.231-0.083 0.415-0.25 0.516-0.465l0.002-0.005c0.059-0.085 0.121-0.159 0.188-0.228l-0 0c0.396 0.515 0.43 1.148 0.45 1.829 0.008 0.26 0.026 0.51 0.042 0.76-0.017-0.048-0.037-0.097-0.057-0.143-0.126-0.334-0.664-0.189-0.536 0.145zM9.943 13.386c0.4-0.914 1.014-1.629 2.014-1.755 0.035 0.023 0.078 0.037 0.124 0.037 0.066 0 0.125-0.029 0.167-0.074l0-0c0.077-0.028 0.137-0.088 0.165-0.163l0.001-0.002c0.746-0.65 1.68 0.065 2.245 0.672 0.142 0.154 1.305 1.578 0.994 1.627-0.119 0.032-0.205 0.139-0.205 0.266 0 0.001 0 0.001 0 0.002v-0c-0.043 0.379-0.177 0.211-0.342 0.14-0.040-0.023-0.088-0.037-0.139-0.037-0.076 0-0.146 0.030-0.197 0.079l0-0c-0.55 0.55-0.906-0.419-1.37-0.137-0.45 0.273-2.769 1.268-3.105 0.353-0.037-0.118-0.145-0.202-0.272-0.202-0.024 0-0.047 0.003-0.069 0.008l0.002-0c-0.131 0.026-0.006-0.587 0.009-0.655 0.003-0.014 0.004-0.031 0.004-0.048 0-0.041-0.009-0.079-0.025-0.114l0.001 0.002zM20.848 14.6c-0.53 1.573-2.065 2.997-3.672 3.419 0.083-0.855-0.026-1.715-0.065-2.578-0.034-0.769-0.242-1.427-0.809-1.934-0.097-0.513-0.59-1.020-0.892-1.385-0.182-0.22-0.37-0.418-0.569-0.603l-0.004-0.004c0.005 0 0.012 0 0.018 0 0.309 0 0.579-0.167 0.726-0.415l0.002-0.004c0.174-0.316-0.308-0.595-0.478-0.282-0.050 0.090-0.144 0.15-0.252 0.15-0.011 0-0.021-0.001-0.031-0.002l0.001 0c-0.148 0.001-0.268 0.122-0.268 0.27 0 0.015 0.001 0.030 0.004 0.045l-0-0.002c-0.795-0.635-1.78-1.006-2.578-0.197-0.912 0.121-1.684 0.634-2.153 1.361l-0.007 0.012c-0.267 0.387-0.458 0.848-0.541 1.345l-0.003 0.020c-0.1 0.59-0.504 1.097-0.578 1.684-0.131 1.045-0.313 2.14-0.39 3.222-1.572-0.752-3.162-2.22-3.205-4.042-0.037-1.513 0.758-3.214 1.182-4.649 0.538-1.817 1.441-3.062 2.632-4.504 0.581-0.7 1.2-0.989 2.037-1.282 0.863-0.305 1.954 0.196 2.792 0.41 0.855 0.217 1.564 0.228 2.305 0.798 0.587 0.456 0.96 1.128 1.504 1.63 0.441 0.402 0.96 0.687 1.385 1.125 0.542 0.589 1.004 1.264 1.363 1.999l0.022 0.050c0.673 1.322 1.003 2.911 0.525 4.344z"></path>
</svg>
