<!-- Generated by IcoMoon.io -->
<svg version="1.1" xmlns="http://www.w3.org/2000/svg" width="32" height="32" viewBox="0 0 32 32">
<title>Oryx</title>
<path d="M9.25 0.313c-0.25 0.688-1 3.063-1.25 4.313-0.25 0.813-0.5 2.813-0.75 5.125-0.25 2.125-0.438 4.063-0.5 4.313-0.063 0.313 0 0.563 0.063 0.563 0.125 0.063 0.125 0.188 0.063 0.313 0 0.125 0.188 0.375 0.438 0.688 0.438 0.375 0.5 0.5 0.375 1-0.063 0.313-0.188 0.625-0.438 0.813-0.313 0.25-0.375 0.438-0.375 1.188-0.063 1.063-0.375 1.5-0.563 0.75-0.063-0.688-0.313-0.625-0.313 0 0 0.375-0.5 2.688-0.875 3.813-0.063 0.25 0 0.188 0.375-0.125 0.625-0.5 1.188-0.75 1.875-0.75 1.063 0 1.438 0.438 1.438 1.625 0.063 0.313 0.063 0.75 0.125 0.938 0.125 0.313 0.125 0.313 0.375-0.125 0.188-0.25 0.375-0.75 0.438-1.125 0.125-0.375 0.375-0.875 0.563-1.125s0.438-0.813 0.563-1.188c0.188-0.688 0.375-2.438 0.188-2.438 0 0-0.188 0.125-0.375 0.25s-0.313 0.5-0.438 1.188c-0.188 1-0.5 1.625-0.813 1.625-0.25 0-0.375-0.625-0.313-2.5l0.063-1.688-0.375-0.313c-0.25-0.188-0.5-0.313-0.625-0.313-0.5 0 0.063-0.688 0.938-1.125 0.25-0.125 0.625-0.375 0.938-0.625 0.375-0.25 0.563-0.313 1.063-0.313 0.313 0.063 0.75 0 0.875-0.063s0.688-0.938 1.25-1.875c2.625-4.563 6.438-10.5 8.313-12.938 0.125-0.125-0.063-0.188-0.625-0.188h-0.813l-0.688 0.875c-2 2.375-6.438 8.813-8.188 11.875l-0.75 1.25h-1.813l0.063-0.938c0.063-0.563 0.125-2.188 0.188-3.688 0.25-3.938 0.375-5.438 0.75-7.438 0.188-0.938 0.375-1.75 0.375-1.813s-0.188-0.125-0.375-0.125c-0.188 0-0.375 0.125-0.438 0.313zM16.5 12.313c-0.188 0.063-0.625 0.125-0.938 0.125-1.188 0-1.813 0.563-2.063 1.75-0.063 0.188-0.25 0.5-0.375 0.688-0.313 0.375-0.375 0.375-0.813 0.313-0.375-0.063-0.438 0-0.375 0.25 0.063 0.125 0.125 0.5 0.125 0.813v0.563l0.125-0.438c0.125-0.625 0.25-0.75 0.875-0.813 0.375-0.125 0.5-0.188 0.625-0.438 0.063-0.188 0.188-0.625 0.25-0.938 0.25-0.813 0.688-1.125 1.813-1.188l0.875-0.063-0.063 1c-0.188 1.5-0.438 1.813-1.625 1.875-0.563 0-0.75 0-0.75 0.188 0 0.063-0.188 0.5-0.375 0.938-0.5 0.875-0.313 0.938 0.25 0.125 0.5-0.688 0.813-0.813 1.563-0.688 0.938 0.125 1.5-0.625 1.75-2.438 0.188-1 0.063-1.688-0.25-1.688-0.125-0.063-0.375 0-0.625 0.063zM1.125 12.75c-0.313 0.125-0.313 0.188-0.25 0.625 0.313 1.563 1 3 1.75 3.313 0.375 0.188 0.5 0.188 1.438 0 0.5-0.125 1.063-0.188 1.25-0.125 0.125 0.063 0.188 0 0.125-0.063-0.125-0.25-0.813-0.313-1.5-0.188-0.438 0.125-0.688 0.125-0.875 0-0.375-0.188-1.563-1.938-1.688-2.438-0.063-0.5 0.063-0.625 0.938-0.625 1.063 0 1.563 0.188 2.313 0.875 0.438 0.375 0.75 0.563 0.813 0.563 0.063-0.063-0.125-0.375-0.313-0.813-0.5-0.938-1.063-1.188-2.563-1.25-0.688-0.063-1.25 0-1.438 0.125zM14.813 13.625c-0.5 0.188-0.75 0.375-0.75 0.625 0 0.125 0.188 0.375 0.375 0.688 0.625 0.625 1 0.563 1.438-0.125 0.188-0.313 0.313-0.75 0.313-0.938 0-0.313-0.063-0.375-0.5-0.375-0.25 0-0.688 0.063-0.875 0.125zM2.438 13.938c0 0.563 0.5 2.063 0.75 2.188 0.438 0.125 0.875 0.063 1.25-0.313 0.75-0.75 0.375-1.563-0.813-1.875-1.25-0.313-1.188-0.313-1.188 0zM13.938 17.5c-0.188 0.25-0.5 0.438-0.563 0.5-0.125 0-0.125 0.063-0.063 0.125 1.125 0.563 1.375 1 1.813 2.625 0.375 1.563 0.563 1.813 0.625 0.875 0.063-0.875 0.375-1.875 0.688-2.188 0.375-0.313 1.063-0.188 2.75 0.438 0.75 0.25 1.563 0.563 1.875 0.688 0.313 0.063 0.938 0.5 1.438 0.938 1.438 1.25 1.438 1.25 5.188 0.813 1.375-0.125 2.875-0.25 3.375-0.313l0.938-0.063v-0.438c0-0.375-0.063-0.438-0.313-0.438-2 0.313-6.25 0.75-6.813 0.688-1.063-0.063-1.75-0.438-3.063-1.563-2-1.688-2.25-1.813-4.813-2.25-0.813-0.188-1.813-0.375-2.063-0.563l-0.563-0.188zM12.313 18.563c0 0.313-1.125 3.688-1.563 4.688-0.188 0.375-0.563 1-0.813 1.313-1.063 1.313-1.063 1.25-0.313 3.313 0.313 0.938 0.813 2.25 1.063 2.938l0.5 1.188h1.25l-0.375-1.125c-0.25-0.625-0.5-1.438-0.688-1.813-0.125-0.375-0.375-1.188-0.563-1.75-0.313-1.25-0.25-1.75 0.438-2.75 0.313-0.438 0.5-1 0.75-2.188 0.313-1.563 0.563-4.063 0.375-4.063 0 0-0.063 0.125-0.063 0.25zM6.375 24.875c-0.5 0.313-0.688 0.313-0.875 0.188-0.375-0.25-0.375-0.125 0.063 0.625l0.375 0.563-0.438-0.063c-0.313-0.063-0.375 0-0.25 0.125 0.438 0.563 1.75 0.75 2.5 0.375 0.375-0.188 1.063-1 0.875-1 0 0-0.313 0.125-0.688 0.25-0.688 0.313-1.625 0.375-1.625 0.125 0-0.125 0.188-0.438 0.5-0.625 0.5-0.438 0.75-1 0.375-0.938-0.063 0-0.438 0.188-0.813 0.375zM24.125 27.063c0.125 1.313 0.125 4.375 0 4.688-0.063 0.188 0 0.25 0.625 0.25 0.5 0 0.688-0.063 0.75-0.25 0.125-0.375-0.25-2.375-0.688-3.813-0.625-1.875-0.75-2-0.688-0.875z"></path>
</svg>
