<!-- Generated by IcoMoon.io -->
<svg version="1.1" xmlns="http://www.w3.org/2000/svg" width="32" height="32" viewBox="0 0 32 32">
<title>Ostrich</title>
<path d="M7.125 1.438c-0.063 0-0.188 0.125-0.188 0.125 0 0.063-0.625 0.563-0.875 0.625-0.063 0.063-0.25 0.125-0.375 0.188-0.313 0.063-0.563 0.125-0.563 0.188s-0.063 0 1.313 0.375c0.875 0.188 1.063 0.25 1.188 0.375 0 0 0.188 0.25 0.313 0.5 0.188 0.438 0.188 0.5 0.313 1.125 0.125 0.563 0.125 0.75 0.125 1.375 0 1.063 0 1-0.813 3.375-0.063 0.25-0.125 0.563-0.188 0.688-0.125 0.875 0.063 2.625 0.375 3.313 0.125 0.188 0.375 0.5 0.5 0.625 0.438 0.438 1.188 0.938 1.688 1.063 0.125 0.063 0.188 0.125 0.25 0.125 0 0.063 0.063 0.063 0.063 0.063 0.125-0.063 0.5 0.125 0.875 0.375l0.438 0.25 0.313 0.438c0.75 1.188 1.313 1.75 1.938 2.063 0.125 0.063 0.188 0.063 0.438 0.063s1.188 0.125 1.25 0.188c0.063 0 0.063 0.125 0.125 0.25 0.063 0.313 0.313 0.625 0.5 0.875 0.313 0.313 0.5 0.813 0.563 1.438 0.063 0.375 0.25 0.813 0.563 1.188 0.188 0.25 0.5 0.938 0.5 1.063s-0.188 0.438-0.625 1.313c-0.313 0.625-0.688 1.25-0.75 1.438-0.125 0.188-0.25 0.375-0.563 0.688-0.25 0.188-0.438 0.438-0.5 0.438 0 0-0.063 0.063-0.063 0.125l-0.063 0.125 0.063 0.5c0.188 0.75 0.25 1.188 0.25 1.375 0 0.125 0 0.188-0.125 0.25-0.125 0.125-0.25 0.313-0.188 0.375 0 0.125 0.063 0.125 0.5 0.125 0.313 0 0.563-0.063 0.625-0.063s0.313-0.063 0.625-0.063c0.438 0 0.563 0 0.813-0.063 0.438-0.188 0.813-0.375 0.938-0.563 0-0.063 0.063-0.125 0.125-0.125 0 0 0.125-0.063 0.188-0.125 0.125-0.125 0.125-0.125 0.125-0.313s-0.063-0.313-0.125-0.438-0.125-0.125-0.188-3.813v-1.188l0.563-0.813c0.313-0.5 0.625-0.938 0.688-1 0.063-0.188 0.125-0.25 0.125-0.688 0.063-0.375 0.063-0.5 0-0.5 0-0.063 0-0.063 0-0.125 0 0-0.063-0.125-0.125-0.188-0.125-0.125-0.125-0.188-0.125-0.313 0.063-0.125 0.125-0.188 0.25-0.188 0.25 0 0.438-0.188 0.688-0.625 0.063-0.25 0.188-0.313 0.25-0.375 0.125-0.063 0.188-0.188 0.25-0.25 0.063-0.125 0.125-0.125 0.188-0.125 0.063-0.063 0.125-0.063 0.188-0.063 0-0.063 0-0.25 0.063-0.5 0.063-0.313 0.125-0.5 0.125-0.563 0.063-0.063 0.125-0.188 0.125-0.188 0-0.063 0-0.063 0.063-0.063s0.063 0 0.063-0.375v-0.375l0.188-0.25c0.125-0.313 0.125-0.313 0.188-0.75l0.063-0.5 0.188-0.375c0.125-0.25 0.25-0.375 0.438-0.5 0.313-0.25 0.438-0.313 0.563-0.313 0.063 0 0.188 0 0.188-0.063 0.063 0 0.25-0.063 0.375-0.125 0.375-0.063 0.375-0.063 0.625-0.313 0.125-0.188 0.313-0.313 0.438-0.375 0.25-0.188 0.313-0.25 0.188-0.75-0.063-0.25-0.063-0.5-0.125-0.563 0-0.125 0-0.125 0.125-0.125 0.375 0 0.563 0.25 0.563 0.625 0 0.188 0 0.25 0.063 0.25s0.063 0.063 0.063 0.063c0 0.125 0.25 0.063 0.313-0.063 0.063-0.063 0.063-0.25 0.063-0.5 0-0.375 0-0.375 0.063-0.375 0.188 0.063 0.25 0.063 0.313-0.063 0.063-0.188 0.063-0.688 0-0.75 0 0 0-0.063 0-0.125s-0.063-0.188-0.125-0.438c-0.063-0.188-0.188-0.438-0.188-0.563-0.125-0.375-0.313-0.813-0.375-0.938-0.063 0-0.125-0.125-0.125-0.188-0.063-0.125-0.313-0.188-0.75-0.313-0.188 0-0.25-0.063-0.25-0.063 0-0.063 0.063-0.125 0.063-0.125 0-0.063 0.063-0.125 0.063-0.188s-0.063-0.063-0.125-0.125c-0.188-0.125-0.313-0.125-0.625-0.125s-0.313 0-0.563 0.125c-0.25 0.188-0.25 0.188-0.5 0.688-0.125 0.25-0.313 0.563-0.375 0.688-0.125 0.125-0.188 0.188-0.188 0.25 0 0-0.125 0.188-0.313 0.375l-0.375 0.313h-0.688l-0.375-0.125c-1.688-0.875-3.5-1.063-5.813-0.625-0.375 0.063-0.688 0.125-0.875 0.188s-0.5 0.188-0.688 0.188c-1.125 0.375-2.125 1.063-2.688 1.938-0.438 0.563-0.625 1.063-0.75 1.75-0.125 0.438-0.188 0.688-0.25 0.75-0.063 0-0.313 0-0.375-0.063 0-0.063-0.125-0.063-0.25-0.125h-0.188l-0.375-0.563-0.313-0.625v-0.75c-0.063-0.375-0.063-1.125-0.063-1.563v-0.75l0.063-0.313c0.063-0.188 0.125-0.375 0.125-0.438s0.063-0.25 0.188-0.375c0.063-0.188 0.188-0.375 0.188-0.438s0-0.125 0-0.188c0.063 0 0.125-0.375 0.25-0.813 0.125-0.688 0.125-0.75 0.125-1.313s0-0.688-0.063-0.875c-0.063-0.188-0.25-0.938-0.438-1.688s-0.375-1.438-0.438-1.5c-0.063-0.125-0.063-0.125-0.625-0.188-0.625-0.063-0.625-0.063-0.875 0.063zM18.313 20.875l0.25 0.313v0.188c0 0.125 0 0.313-0.063 0.375 0 0.063-0.063 0.125-0.063 0.188 0 0 0-0.063 0-0.188 0-0.25-0.063-0.25-0.25-0.688-0.25-0.375-0.313-0.438-0.188-0.438 0 0 0.125 0.125 0.313 0.25zM17.875 26.125c0 0.375 0 1.188 0 1.75-0.063 1.188-0.063 1.188-0.25 1.375s-0.313 0.25-0.563 0.25c-0.125 0-0.313 0.063-0.375 0.063-0.313 0.125-0.375 0.063-0.375-0.188 0-0.313 0.063-0.563 0.25-1 0.125-0.25 0.188-0.563 0.25-0.688 0-0.125 0.063-0.25 0.125-0.313 0.063-0.125 0.438-0.938 0.75-1.688 0.125-0.188 0.188-0.313 0.188-0.313s0 0.313 0 0.75z"></path>
</svg>
