<!-- Generated by IcoMoon.io -->
<svg version="1.1" xmlns="http://www.w3.org/2000/svg" width="32" height="32" viewBox="0 0 32 32">
<title>Other-animal</title>
<path d="M22.625 0c-0.188 0.063-0.313 0.063-0.313 0.063 0 0.063 0 0.063-0.063 0.063s-0.063 0-0.063-0.063c0 0-0.063 0-0.125 0s-0.125 0-0.125 0c0 0.063-0.063 0.063-0.125 0.063s-0.125 0-0.125 0c0 0.063 0 0.063-0.063 0.063s-0.125 0-0.125 0.063c0 0-0.063 0-0.125 0 0 0-0.063 0.063-0.063 0.063s0 0.063-0.063 0.063c-0.063 0-0.063 0-0.063 0 0 0.063-0.063 0.063-0.063 0.063-0.063 0-0.125 0.063-0.188 0.063-0.063 0.125-0.063 0.188-0.063 0.313 0 0.063-0.063 0.188-0.063 0.188s-0.063 0-0.063 0.063c0 0.063 0 0.063 0 0.063s-0.063 0-0.063-0.063c0 0 0 0 0 0-0.063 0-0.063 0.063-0.063 0.125 0 0.125 0 0.188-0.063 0.188 0 0 0 0.125 0 0.25 0 0.188 0 0.313 0 0.313 0.063 0 0.063 0.25 0.063 0.688 0 0.5 0 0.75 0.063 0.75s0 0.125-0.063 0.25c-0.063 0.063-0.063 0.125-0.063 0.313s-0.063 0.313-0.063 0.313c0 0-0.063 0.063-0.063 0.125 0 0.125 0 0.188 0 0.188-0.063 0-0.063 0.125-0.063 0.25s0 0.25 0 0.25c-0.063 0-0.063 0.063-0.063 0.188 0 0.063 0 0.188-0.063 0.188 0 0 0 0.063 0 0.188 0 0.188-0.063 0.25-0.063 0.25s-0.063 0.125-0.063 0.313c0 0.125 0 0.25 0 0.25-0.063 0-0.063 0.125-0.063 0.25s0 0.188 0 0.188c-0.063 0-0.063 0.063 0 0.063 0 0.063 0 0.5 0 0.5-0.063 0-0.063 0.125-0.063 0.313 0 0.125 0 0.25-0.063 0.25 0 0 0 0.313 0 0.938 0 0.563 0 0.938-0.063 0.938 0 0 0 0.125 0 0.313s-0.063 0.313-0.063 0.313c0 0-0.063 0.125-0.063 0.25 0 0.188 0 0.313 0 0.313-0.063 0-0.063 0.188-0.063 0.625s0 0.688-0.063 0.688c0 0 0 0.125 0 0.375s0 0.375-0.063 0.375c0 0 0 0.063 0 0.188 0 0.063 0 0.125 0 0.125 0.063 0 0.063 0.063 0.063 0.125s0 0.125-0.063 0.125c0 0 0 0.063 0 0.125s-0.063 0.125-0.063 0.125c0 0-0.063 0.125-0.063 0.375s0 0.375 0 0.375c-0.063 0-0.063 0.125-0.063 0.313 0 0.125 0 0.25 0.063 0.25 0 0 0 0.063 0 0.125s0 0.125 0 0.125c-0.063 0-0.063 0.063-0.063 0.125 0 0.125 0 0.188-0.063 0.188 0 0 0 0.125 0 0.313 0 0.25 0 0.375-0.063 0.375 0 0 0 0.188 0 0.438s-0.063 0.438-0.063 0.438c0 0-0.063 0.063-0.063 0.188s0 0.25 0 0.25c-0.063 0-0.063 0.063-0.063 0.063 0 0.063 0 0.125-0.063 0.125 0 0 0 0 0 0.063s0 0.125-0.063 0.125c0 0 0 0.063 0 0.188 0 0.063-0.063 0.125-0.063 0.125s-0.063 0.125-0.063 0.313c0 0.125 0 0.25 0 0.25-0.063 0-0.063 0.063-0.063 0.063 0 0.063 0 0.125 0.063 0.125 0 0 0 0.063 0 0.125s0 0.188 0 0.188c-0.063 0-0.063 0-0.063 0.063s0 0.125-0.063 0.125c0 0 0 0.125 0 0.25s0 0.25-0.063 0.25c0 0 0 0.063 0 0.188 0 0.188-0.063 0.25-0.063 0.25s-0.063 0.125-0.063 0.313c0 0.125 0 0.25 0 0.25-0.063 0.063-0.063 0.063 0 0.063 0.063 0.063 0 0.188-0.063 0.313-0.063 0.063-0.125 0.188-0.063 0.188s0.063 0.125 0 0.125c0 0.063 0 0.063 0 0.063 0.063 0.063 0.063 0.313 0 0.375 0 0-0.063 0.125 0 0.25 0 0.125 0 0.188-0.063 0.188 0 0 0 0 0 0.063s-0.063 0.063-0.063 0.063c0 0-0.063 0.063-0.063 0.125s0.063 0.125 0.063 0.125c0 0 0.063 0.063 0.063 0.125s-0.063 0.125-0.063 0.125c0 0-0.063 0.063-0.063 0.063 0 0.063 0 0.125 0 0.125-0.063 0.063-0.063 0.063-0.063 0.125s0 0.063 0.063 0.063c0 0 0 0.063 0 0.063 0 0.063 0 0.125 0 0.125-0.063 0-0.063 0-0.063 0.063s0 0.063-0.063 0.063c0 0 0 0.063 0 0.063 0 0.063 0 0.125 0 0.125 0.063 0 0.063 0 0.063 0.063s0 0.125 0 0.125c-0.063 0-0.125 0.313-0.125 0.438 0 0-0.063 0.063-0.063 0.063-0.063 0-0.063 0.063 0 0.063s0.063 0.25 0 0.25c0 0-0.063 0.063-0.063 0.188s0 0.188 0 0.188c-0.063 0-0.063 0.063-0.063 0.125 0 0.125 0 0.188-0.063 0.25-0.063 0-0.063 0.063-0.063 0.188 0 0.063-0.063 0.125-0.063 0.125s-0.063 0.063-0.063 0.125c0 0 0 0.063-0.063 0.063s-0.125 0.188-0.125 0.313c0 0.063-0.063 0.063-0.063 0.063s-0.063 0-0.063 0.063c0 0.063-0.125 0.25-0.25 0.25 0 0-0.063 0.063-0.063 0.063 0 0.063 0 0.125-0.063 0.063-0.063 0-0.063 0-0.063 0.063s-0.188 0.188-0.25 0.188c-0.063 0-0.063 0.063-0.063 0.125 0 0-0.063 0.063-0.125 0.063s-0.125 0.063-0.25 0.125c-0.063 0.125-0.125 0.188-0.188 0.188s-0.125 0.063-0.125 0.125c0 0.063-0.063 0.063-0.125 0.063 0 0-0.063 0.063-0.063 0.063s0 0.063-0.063 0.063c-0.063 0-0.063 0-0.063 0 0 0.063-0.063 0.063-0.063 0.063-0.063 0-0.125 0.063-0.125 0.063-0.063 0.063-0.125 0.063-0.125 0.063-0.063 0-0.125 0.063-0.125 0.063 0 0.063 0 0.063-0.063 0 0-0.063-0.063-0.063-0.125 0.063 0 0-0.125 0.063-0.188 0.063s-0.125 0.063-0.188 0.063c-0.063 0.063-0.063 0.063-0.125 0.063 0-0.063-0.063-0.063-0.063 0 0 0-0.063 0-0.125 0s-0.125 0.063-0.125 0.063c0 0-0.063 0.063-0.25 0.063-0.125 0-0.188 0-0.188 0 0 0.063-0.125 0.063-0.188 0.063-0.125 0-0.188 0-0.188 0.063 0 0-0.063 0-0.125 0 0 0-0.063 0-0.063 0.063 0 0-0.063 0-0.188 0s-0.188 0.063-0.188 0.063c0 0-0.125 0.063-0.25 0.063s-0.25 0-0.25 0c0 0.063-0.063 0.063-0.125 0.063s-0.063 0-0.063 0.063c0 0-0.188 0-0.313 0-0.188 0-0.313 0-0.313 0.063 0 0-0.125 0-0.313 0-0.125 0-0.25 0.063-0.25 0.063s-0.125 0.063-0.313 0.063c-0.125 0-0.25 0-0.25 0 0 0.063-0.188 0.063-0.438 0.063-0.313 0-0.5 0-0.5 0.063 0 0-0.063 0-0.125 0-0.125 0-0.188 0-0.188 0.063 0 0-0.125 0-0.313 0s-0.313 0.063-0.313 0.063c0 0.063-0.25 0.063-0.688 0.063-0.5 0-0.688 0-0.688 0 0 0.063-0.125 0.063-0.25 0.063-0.063 0-0.188 0-0.188 0.063 0 0-0.375 0-0.375-0.063 0 0 0 0-0.063 0-0.063 0.063-0.125 0.063-0.125 0.063-0.063 0-0.125 0-0.125 0.063s-0.125 0.063-0.188 0c0-0.063 0-0.063 0 0-0.063 0-0.125 0-0.375 0s-0.375 0.063-0.375 0.063c0 0.063-0.313 0.063-0.313 0s-0.063 0-0.125 0.063c-0.063 0.063-0.125 0.125-0.125 0.313s0.063 0.25 0.063 0.313c0.063 0.063 0.375 0.063 2 0.063 1.25 0 1.938 0 1.938-0.063 0 0 0.25 0 0.75 0 0.438 0 0.75-0.063 0.75-0.063s0.25-0.063 0.688-0.063c0.438 0 0.688 0 0.688 0 0-0.063 0.188-0.063 0.375-0.063s0.375 0 0.375 0c0-0.063 0.125-0.063 0.25-0.063 0.188 0 0.313 0 0.313-0.063 0 0 0.063 0 0.125 0s0.125 0 0.125 0c0 0.063 0.063 0.063 0.125 0.063s0.125 0 0.125-0.063c0 0 0.063 0 0.063 0 0.063 0 0.063-0.063 0.063-0.063s0.188-0.063 0.375-0.063c0.188 0 0.375 0 0.375 0 0-0.063 0.063-0.063 0.188-0.063s0.188 0 0.188 0c0-0.063 0.063-0.063 0.125-0.063s0.125 0 0.125-0.063c0 0 0 0 0.063 0s0.063-0.063 0.063-0.063c0 0 0.063-0.063 0.063-0.063 0.063 0 0.125 0 0.125 0 0-0.063 0-0.063 0.063-0.063s0.063 0 0.063 0c0-0.063 0.063-0.063 0.063-0.063 0.063 0 0.125 0 0.125-0.063 0 0 0 0 0.125 0 0.063 0 0.125-0.063 0.125-0.125 0.063 0 0.063-0.063 0.125-0.063s0.063 0 0.063 0c0-0.063 0.063-0.063 0.063-0.063 0.063 0 0.125 0 0.125-0.063 0 0 0 0 0.063 0 0.125 0 0.313-0.125 0.313-0.125 0-0.063 0-0.063 0.063-0.063s0.063 0 0.063 0c0-0.063 0.063-0.063 0.063-0.063 0.063 0 0.125-0.063 0.188-0.125s0.125-0.125 0.188-0.125c0 0 0.063 0 0.063-0.063 0.063-0.063 0.125-0.063 0.188-0.063 0 0 0.125-0.063 0.25-0.188 0.063-0.063 0.188-0.125 0.25-0.125 0 0 0.125-0.063 0.188-0.125s0.125-0.125 0.125-0.125c0 0 0.125-0.063 0.25-0.188 0.063-0.125 0.188-0.188 0.25-0.188 0 0 0.063-0.063 0.063-0.063 0-0.063 0-0.125 0.063-0.125 0.063-0.063 0.063-0.125 0.063-0.125s0.063-0.125 0.125-0.188c0.063-0.063 0.125-0.125 0.125-0.188s0.063-0.125 0.063-0.125 0.125-0.125 0.125-0.188c0-0.063 0-0.125 0-0.125 0.063 0 0.063-0.063 0.063-0.125s0-0.125 0-0.125c0.063-0.063 0.063-0.063 0.063-0.125s0-0.125 0.063-0.125c0-0.063 0.063-0.125 0-0.125 0-0.063 0-0.063 0.063-0.063 0 0 0.063 0 0.063-0.063s0-0.125 0.063-0.125c0-0.063 0.063-0.063 0.063-0.125s0-0.063 0.063-0.063c0 0 0-0.063 0-0.188 0-0.063 0.063-0.125 0.063-0.125 0.063-0.063 0.063-0.063 0-0.063-0.063-0.063-0.063-0.25 0-0.25 0 0 0.063-0.063 0.063-0.125s-0.063-0.125-0.063-0.125c0 0-0.063-0.063-0.063-0.188s0.063-0.188 0.063-0.188c0 0 0.063-0.063 0.063-0.063 0-0.063 0-0.125 0-0.125 0.063 0 0.063-0.063 0.063-0.125s0-0.063 0-0.063c0.063 0 0.063-0.125 0.063-0.25s0-0.25 0.063-0.25c0 0 0-0.063 0-0.063-0.063 0-0.063-0.313 0-0.313 0 0 0-0.063 0-0.125s0.063-0.125 0.063-0.125c0 0 0.063-0.063 0.063-0.188 0-0.25 0-0.375 0.188-0.375 0.063 0 0.063 0.063 0.063 0.125 0 0 0.063 0.063 0.063 0.063 0.063 0 0.063 0.125 0 0.188-0.063 0-0.063 0 0 0 0 0.063 0.063 0.063 0.063 0.125s0 0.063 0 0.063c0.063 0 0.063 0.063 0.063 0.125s0 0.125 0.063 0.125c0 0 0 0.125 0 0.375s0 0.375 0.063 0.375c0 0 0 0.063 0 0.188 0 0.063 0.063 0.125 0.063 0.125s0.063 0.063 0.063 0.125c0 0.063-0.063 0.125-0.063 0.125s-0.063 0.125-0.063 0.25c0 0.188 0 0.313 0 0.313-0.063 0-0.063 0.125-0.063 0.25 0 0.188 0 0.313 0 0.313-0.063 0-0.063 0.063-0.063 0.125s0 0.188-0.063 0.188c0 0 0 0.25 0 0.688 0 0.5 0 0.688-0.063 0.688s-0.063 0.063 0 0.125c0 0.063 0.063 0.125 0.063 0.188s0 0.063 0 0.063c0.063 0 0.063 0.063 0.063 0.125 0 0 0 0.063 0.063 0.063 0 0 0 0.063 0 0.188s0.063 0.188 0.063 0.188c0 0 0 0.063 0 0.125s0.063 0.125 0.063 0.125c0 0 0.063 0.063 0.063 0.125 0 0.125 0 0.188 0 0.188 0.063 0 0.063 0.063 0.063 0.125s0 0.063 0.063 0.063c0 0 0 0.125 0 0.188s0.063 0.125 0.063 0.125c0 0 0 0.063 0 0.125 0 0 0.063 0.063 0.063 0.063s0.063 0.063 0.063 0.063c0 0.063 0 0.063 0 0.063 0.063 0 0.063 0.125 0.063 0.188s0 0.125 0.063 0.125c0 0 0 0.063 0 0.125 0 0 0.063 0.063 0.063 0.063s0 0.063 0 0.125c0 0.063 0.063 0.125 0.063 0.125s0.063 0.063 0.063 0.25c0 0.25 0 0.25 0.063 0.313s0.188 0.125 0.25 0.125c0 0 0.063 0 0.063 0.063 0 0 0.063 0 0.188 0s0.188 0 0.188 0.063c0 0 0.063 0 0.063 0 0.063 0 0.125 0.063 0.125 0.063s0.125 0.063 0.313 0.063c0.188 0 0.313-0.063 0.313-0.063s0.125-0.063 0.313-0.063c0.25 0 0.313 0 0.313-0.063 0 0 0-0.063 0-0.125 0.063-0.063 0.063-0.063 0-0.063 0-0.063 0-0.125 0-0.375 0-0.188-0.063-0.313-0.063-0.313-0.063 0-0.063-0.188 0-0.25s0.875-0.063 0.938 0c0 0.063 0 0.063 0 0 0.063 0 0.125-0.063 0.25-0.063s0.25 0 0.25 0c0-0.063 0.125-0.063 0.188 0 0 0 0 0 0.063 0 0 0 0-0.063-0.063-0.063 0 0-0.063-0.063 0-0.063 0 0 0.063-0.063 0.063-0.063 0-0.063 0-0.125 0-0.125 0.125 0 0.063-0.188 0-0.25s-0.063-0.125-0.063-0.125-0.063-0.063-0.063-0.063-0.125-0.063-0.188-0.125c-0.063-0.063-0.125-0.125-0.25-0.125-0.063 0-0.125 0-0.125 0 0-0.063-0.125-0.063-0.313-0.063h-0.313l-0.188-0.188c-0.125-0.125-0.25-0.25-0.25-0.313 0 0 0-0.063-0.063-0.063-0.063-0.063-0.063-0.125-0.063-0.125 0-0.063 0-0.125-0.063-0.125 0 0 0 0 0-0.063s-0.063-0.063-0.125-0.063c-0.063 0-0.063 0-0.063-0.125 0-0.063 0-0.125-0.063-0.125s-0.063 0-0.063-0.063-0.063-0.063-0.063-0.063c0 0-0.063-0.063-0.063-0.188 0-0.063 0-0.125 0-0.188-0.063 0-0.063-0.063-0.063-0.063 0-0.063 0-0.125 0-0.125-0.063 0-0.063-0.063-0.063-0.125s-0.063-0.125-0.063-0.125c-0.125-0.063-0.125-0.125-0.063-0.125 0.063-0.063 0.063-0.063 0-0.063 0 0-0.063-0.063-0.063-0.125 0 0 0-0.063 0-0.063-0.063-0.063-0.063-0.063 0-0.063 0 0 0-0.063 0-0.063 0-0.063 0.063-0.125 0.125-0.188s0.125-0.125 0.125-0.125c0-0.063 0.063-0.125 0.125-0.188s0.125-0.125 0.125-0.125c0-0.063 0.063-0.125 0.125-0.188s0.125-0.125 0.125-0.188c0 0 0-0.063 0-0.063 0.063 0 0.063 0 0.063-0.063s0-0.063 0.063-0.063c0 0 0-0.063 0-0.063 0-0.063 0-0.125 0.063-0.125 0 0 0-0.063 0-0.125 0-0.125 0.063-0.188 0.063-0.188s0.063 0 0.063-0.063c0-0.063 0-0.063 0.063-0.063 0 0 0.063-0.063 0.125-0.063 0-0.063 0-0.063 0-0.125-0.063 0-0.063 0 0-0.063 0 0 0-0.063 0-0.063 0-0.063 0.063-0.063 0.063-0.063s0.063-0.063 0.063-0.063c0-0.125 0.063-0.188 0.125-0.188s0.063-0.063 0.063-0.063 0.063-0.125 0.063-0.125c0 0 0.063 0 0.063-0.063s0-0.063 0-0.063c0.063 0 0.063-0.063 0.063-0.125s0-0.125 0-0.125c0.063 0 0.063 0 0.063-0.063s0.063-0.063 0.063-0.125c0.063 0 0.125-0.063 0.125-0.125s0-0.063 0-0.063c0.063-0.063 0.063-0.063 0-0.063 0-0.063-0.063-0.063 0-0.063 0-0.063 0.063-0.125 0.063-0.188s0-0.063 0-0.063c0.063 0 0.063-0.063 0.063-0.125s0-0.125 0.063-0.125c0 0 0-0.063 0-0.188 0-0.063 0.063-0.188 0.063-0.188 0.063-0.063 0.063-0.063 0-0.063-0.063-0.063-0.063-0.375 0-0.375 0 0 0.063-0.063 0.063-0.25 0-0.125 0-0.25 0-0.25 0.063 0 0.063-0.188 0.063-0.5s0-0.563-0.063-0.563c-0.063 0-0.063-0.188 0-0.188 0.063-0.063 0.063-0.063 0-0.125 0-0.063 0-0.125 0-0.25 0-0.063-0.063-0.125-0.063-0.125s-0.063-0.063-0.063-0.125c0-0.125 0-0.25-0.063-0.25s-0.25-0.188-0.25-0.313c0-0.063 0.063-0.125 0.063-0.125s0.063-0.063 0.063-0.125c0 0-0.063-0.063-0.063-0.063-0.063 0-0.063-0.125 0-0.188 0.063 0 0.063 0 0 0 0-0.063-0.063-0.125-0.063-0.188s0-0.063 0-0.063c-0.063 0-0.063-0.063-0.063-0.125s0-0.125 0.063-0.125c0 0 0-0.063 0-0.063 0-0.063 0.063-0.125 0.125-0.125 0 0 0.063 0 0.063-0.063 0-0.125 0.125-0.313 0.25-0.313 0.063 0 0.375-0.313 0.375-0.375s0-0.063 0-0.063c0.063 0 0.063-0.063 0.063-0.125 0 0 0-0.063 0.063-0.063 0 0 0 0 0-0.063s0.063-0.063 0.063-0.063c0 0 0.063-0.063 0.063-0.125 0 0 0-0.063 0-0.063 0.063 0 0.063-0.063 0.063-0.125s0-0.125 0-0.125c0.063 0 0.063-0.063 0.063-0.125s0-0.188 0.063-0.188c0 0 0 0 0-0.063s0.063-0.125 0.063-0.188c0.063 0 0.063 0 0 0-0.063-0.063-0.063-0.313 0.063-0.375 0.063-0.063 0.063-0.125 0.063-0.313s0-0.313 0-0.313c0.063 0 0.063-0.188 0.063-0.5 0-0.375 0-0.563-0.063-0.563 0 0 0-0.063 0-0.188 0-0.063 0-0.125-0.063-0.125 0 0 0-0.063 0-0.063 0-0.063-0.063-0.125-0.063-0.125s-0.063 0-0.063-0.063c0 0 0-0.063-0.063-0.125-0.063 0-0.063-0.063-0.063-0.125s0-0.125-0.063-0.125c0 0 0-0.063 0-0.063 0-0.063 0-0.125 0-0.125 0.063 0 0.063-0.125 0.063-0.25 0-0.188 0-0.313-0.063-0.313 0 0 0-0.125 0-0.188s0-0.125 0-0.125c0.063 0 0.063-0.375 0.063-1-0.063-1.188-0.063-1.688-0.125-1.688 0 0-0.063-0.063-0.063-0.188s0-0.188 0-0.188c-0.063 0-0.063-0.063-0.063-0.188 0-0.063 0-0.125-0.063-0.125 0 0 0-0.125 0-0.188 0-0.125 0-0.188-0.063-0.188 0 0 0-0.063 0-0.125s-0.063-0.125-0.125-0.188c-0.063-0.063-0.125-0.188-0.125-0.188 0-0.063 0-0.063-0.063-0.063 0 0 0-0.125 0-0.188 0-0.125-0.063-0.188-0.063-0.188s-0.063-0.063-0.063-0.063c0-0.063 0-0.125-0.063-0.125-0.063-0.063-0.063-0.125-0.063-0.125 0-0.063 0-0.125-0.063-0.125 0 0 0-0.063 0-0.188 0-0.063-0.063-0.188-0.063-0.188s-0.063 0-0.063-0.063c0-0.063 0-0.063 0-0.063-0.063 0-0.063-0.063-0.063-0.063 0-0.063 0-0.125-0.063-0.125-0.063-0.063-0.063-0.125-0.063-0.563 0-0.313 0-0.5 0-0.5 0.063 0 0.063-0.063 0.063-0.188 0-0.063 0-0.125 0-0.125 0.063 0 0.063-0.063 0.063-0.125 0 0 0-0.063 0.063-0.063 0 0 0 0 0-0.063s0.063-0.063 0.063-0.063c0 0 0.063-0.063 0.063-0.063 0-0.063 0.063-0.188 0.125-0.188s0.063-0.063 0.125-0.063c0-0.063 0.063-0.063 0.125-0.063 0 0 0.063-0.063 0.125-0.125 0 0 0.063-0.063 0.125-0.063s0.125 0 0.125-0.063c0 0 0.063 0 0.063 0 0.063 0 0.125-0.063 0.125-0.063s0 0 0.063 0c0.125 0 0.125-0.063 0.125-0.063s0.063-0.063 0.125-0.063c0.063 0 0.125 0 0.125 0 0-0.063 0.063-0.063 0.063-0.063 0.063 0 0.125-0.063 0.125-0.063 0.063-0.063 0.125-0.063 0.125-0.063 0.063 0 0.063-0.063 0.063-0.063s0.063-0.063 0.125-0.063c0.063 0 0.125 0 0.125 0 0-0.063 0.063-0.063 0.125-0.063 0.125-0.063 0.25-0.188 0.25-0.25s0.063-0.125 0.125-0.188c0 0 0.063-0.063 0.063-0.125 0 0 0-0.063 0-0.063 0.063 0 0.063 0 0.063-0.063s0-0.063 0.063-0.063c0 0 0-0.063 0-0.125s0.063-0.125 0.063-0.125c0 0 0.063-0.063 0.063-0.188 0-0.188-0.063-0.313-0.188-0.313-0.063 0-0.063 0-0.063 0 0-0.063-0.125-0.063-0.25-0.063s-0.25 0-0.25-0.063c0 0 0 0-0.063 0s-0.063 0-0.063-0.063c0 0-0.063 0-0.125 0s-0.125-0.063-0.125-0.063c0 0-0.063-0.063-0.125-0.063s-0.125 0-0.125 0c0-0.063 0-0.063-0.063-0.063s-0.375-0.313-0.375-0.375c0-0.063-0.188-0.25-0.25-0.25s-0.063 0-0.063-0.063c0 0-0.125 0-0.313 0-0.25 0-0.313 0-0.313-0.063-0.063-0.063-1.125-0.063-1.75-0.063z"></path>
</svg>
