<?xml version="1.0" encoding="UTF-8"?>
<svg width="700pt" height="700pt" version="1.1" viewBox="0 0 700 700" xmlns="http://www.w3.org/2000/svg" xmlns:xlink="http://www.w3.org/1999/xlink">
 <defs>
  <symbol id="u" overflow="visible">
   <path d="m18.766-1.125c-0.96875 0.5-1.9805 0.875-3.0312 1.125-1.043 0.25781-2.1367 0.39062-3.2812 0.39062-3.3984 0-6.0898-0.94531-8.0781-2.8438-1.9922-1.9062-2.9844-4.4844-2.9844-7.7344 0-3.2578 0.99219-5.8359 2.9844-7.7344 1.9883-1.9062 4.6797-2.8594 8.0781-2.8594 1.1445 0 2.2383 0.13281 3.2812 0.39062 1.0508 0.25 2.0625 0.625 3.0312 1.125v4.2188c-0.98047-0.65625-1.9453-1.1406-2.8906-1.4531-0.94922-0.3125-1.9492-0.46875-3-0.46875-1.875 0-3.3516 0.60547-4.4219 1.8125-1.0742 1.1992-1.6094 2.8555-1.6094 4.9688 0 2.1055 0.53516 3.7617 1.6094 4.9688 1.0703 1.1992 2.5469 1.7969 4.4219 1.7969 1.0508 0 2.0508-0.14844 3-0.45312 0.94531-0.3125 1.9102-0.80078 2.8906-1.4688z"/>
  </symbol>
  <symbol id="c" overflow="visible">
   <path d="m13.734-11.141c-0.4375-0.19531-0.87109-0.34375-1.2969-0.4375-0.41797-0.10156-0.83984-0.15625-1.2656-0.15625-1.2617 0-2.2305 0.40625-2.9062 1.2188-0.67969 0.80469-1.0156 1.9531-1.0156 3.4531v7.0625h-4.8906v-15.312h4.8906v2.5156c0.625-1 1.3438-1.7266 2.1562-2.1875 0.82031-0.46875 1.8008-0.70312 2.9375-0.70312 0.16406 0 0.34375 0.011719 0.53125 0.03125 0.19531 0.011719 0.47656 0.039062 0.84375 0.078125z"/>
  </symbol>
  <symbol id="a" overflow="visible">
   <path d="m17.641-7.7031v1.4062h-11.453c0.125 1.1484 0.53906 2.0078 1.25 2.5781 0.70703 0.57422 1.7031 0.85938 2.9844 0.85938 1.0312 0 2.082-0.14844 3.1562-0.45312 1.082-0.3125 2.1914-0.77344 3.3281-1.3906v3.7656c-1.1562 0.4375-2.3125 0.76562-3.4688 0.98438-1.1562 0.22656-2.3125 0.34375-3.4688 0.34375-2.7734 0-4.9297-0.70312-6.4688-2.1094-1.5312-1.4062-2.2969-3.3789-2.2969-5.9219 0-2.5 0.75391-4.4609 2.2656-5.8906 1.5078-1.4375 3.582-2.1562 6.2188-2.1562 2.4062 0 4.332 0.73047 5.7812 2.1875 1.4453 1.4492 2.1719 3.3828 2.1719 5.7969zm-5.0312-1.625c0-0.92578-0.27344-1.6719-0.8125-2.2344-0.54297-0.57031-1.25-0.85938-2.125-0.85938-0.94922 0-1.7188 0.26562-2.3125 0.79688s-0.96484 1.2969-1.1094 2.2969z"/>
  </symbol>
  <symbol id="j" overflow="visible">
   <path d="m9.2188-6.8906c-1.0234 0-1.793 0.17188-2.3125 0.51562-0.51172 0.34375-0.76562 0.85547-0.76562 1.5312 0 0.625 0.20703 1.1172 0.625 1.4688 0.41406 0.34375 0.98828 0.51562 1.7188 0.51562 0.92578 0 1.7031-0.32812 2.3281-0.98438 0.63281-0.66406 0.95312-1.4922 0.95312-2.4844v-0.5625zm7.4688-1.8438v8.7344h-4.9219v-2.2656c-0.65625 0.92969-1.3984 1.6055-2.2188 2.0312-0.82422 0.41406-1.8242 0.625-3 0.625-1.5859 0-2.8711-0.45703-3.8594-1.375-0.99219-0.92578-1.4844-2.1289-1.4844-3.6094 0-1.7891 0.61328-3.1016 1.8438-3.9375 1.2383-0.84375 3.1797-1.2656 5.8281-1.2656h2.8906v-0.39062c0-0.76953-0.30859-1.332-0.92188-1.6875-0.61719-0.36328-1.5703-0.54688-2.8594-0.54688-1.0547 0-2.0312 0.10547-2.9375 0.3125-0.89844 0.21094-1.7305 0.52344-2.5 0.9375v-3.7344c1.0391-0.25 2.0859-0.44141 3.1406-0.57812 1.0625-0.13281 2.125-0.20312 3.1875-0.20312 2.7578 0 4.75 0.54688 5.9688 1.6406 1.2266 1.0859 1.8438 2.8555 1.8438 5.3125z"/>
  </symbol>
  <symbol id="b" overflow="visible">
   <path d="m7.7031-19.656v4.3438h5.0469v3.5h-5.0469v6.5c0 0.71094 0.14062 1.1875 0.42188 1.4375s0.83594 0.375 1.6719 0.375h2.5156v3.5h-4.1875c-1.9375 0-3.3125-0.39844-4.125-1.2031-0.80469-0.8125-1.2031-2.1797-1.2031-4.1094v-6.5h-2.4219v-3.5h2.4219v-4.3438z"/>
  </symbol>
  <symbol id="i" overflow="visible">
   <path d="m12.766-13.078v-8.2031h4.9219v21.281h-4.9219v-2.2188c-0.66797 0.90625-1.4062 1.5703-2.2188 1.9844s-1.7578 0.625-2.8281 0.625c-1.8867 0-3.4336-0.75-4.6406-2.25-1.2109-1.5-1.8125-3.4258-1.8125-5.7812 0-2.3633 0.60156-4.2969 1.8125-5.7969 1.207-1.5 2.7539-2.25 4.6406-2.25 1.0625 0 2 0.21484 2.8125 0.64062 0.82031 0.42969 1.5664 1.0859 2.2344 1.9688zm-3.2188 9.9219c1.0391 0 1.8359-0.37891 2.3906-1.1406 0.55078-0.76953 0.82812-1.8828 0.82812-3.3438 0-1.457-0.27734-2.5664-0.82812-3.3281-0.55469-0.76953-1.3516-1.1562-2.3906-1.1562-1.043 0-1.8398 0.38672-2.3906 1.1562-0.55469 0.76172-0.82812 1.8711-0.82812 3.3281 0 1.4609 0.27344 2.5742 0.82812 3.3438 0.55078 0.76172 1.3477 1.1406 2.3906 1.1406z"/>
  </symbol>
  <symbol id="h" overflow="visible">
   <path d="m10.5-3.1562c1.0508 0 1.8516-0.37891 2.4062-1.1406 0.55078-0.76953 0.82812-1.8828 0.82812-3.3438 0-1.457-0.27734-2.5664-0.82812-3.3281-0.55469-0.76953-1.3555-1.1562-2.4062-1.1562-1.0547 0-1.8594 0.38672-2.4219 1.1562-0.55469 0.77344-0.82812 1.8828-0.82812 3.3281 0 1.4492 0.27344 2.5586 0.82812 3.3281 0.5625 0.77344 1.3672 1.1562 2.4219 1.1562zm-3.25-9.9219c0.67578-0.88281 1.4219-1.5391 2.2344-1.9688 0.82031-0.42578 1.7656-0.64062 2.8281-0.64062 1.8945 0 3.4453 0.75 4.6562 2.25 1.207 1.5 1.8125 3.4336 1.8125 5.7969 0 2.3555-0.60547 4.2812-1.8125 5.7812-1.2109 1.5-2.7617 2.25-4.6562 2.25-1.0625 0-2.0078-0.21094-2.8281-0.625-0.8125-0.42578-1.5586-1.0859-2.2344-1.9844v2.2188h-4.8906v-21.281h4.8906z"/>
  </symbol>
  <symbol id="g" overflow="visible">
   <path d="m0.34375-15.312h4.8906l4.125 10.391 3.5-10.391h4.8906l-6.4375 16.766c-0.64844 1.6953-1.4023 2.8828-2.2656 3.5625-0.86719 0.6875-2 1.0312-3.4062 1.0312h-2.8438v-3.2188h1.5312c0.83203 0 1.4375-0.13672 1.8125-0.40625 0.38281-0.26172 0.67969-0.73047 0.89062-1.4062l0.14062-0.42188z"/>
  </symbol>
  <symbol id="f" overflow="visible">
   <path d="m2.5781-20.406h5.25v7.4375l7.5938-7.4375h6.1094l-9.8281 9.6562 10.844 10.75h-6.5938l-8.125-8.0469v8.0469h-5.25z"/>
  </symbol>
  <symbol id="t" overflow="visible">
   <path d="m0.42188-15.312h4.8906l3.8281 10.578 3.7969-10.578h4.9062l-6.0312 15.312h-5.375z"/>
  </symbol>
  <symbol id="s" overflow="visible">
   <path d="m2.3594-15.312h4.8906v15.312h-4.8906zm0-5.9688h4.8906v4h-4.8906z"/>
  </symbol>
  <symbol id="e" overflow="visible">
   <path d="m17.75-9.3281v9.3281h-4.9219v-7.1406c0-1.3203-0.03125-2.2344-0.09375-2.7344s-0.16797-0.86719-0.3125-1.1094c-0.1875-0.3125-0.44922-0.55469-0.78125-0.73438-0.32422-0.17578-0.69531-0.26562-1.1094-0.26562-1.0234 0-1.8242 0.39844-2.4062 1.1875-0.58594 0.78125-0.875 1.8711-0.875 3.2656v7.5312h-4.8906v-15.312h4.8906v2.2344c0.73828-0.88281 1.5195-1.5391 2.3438-1.9688 0.83203-0.42578 1.75-0.64062 2.75-0.64062 1.7695 0 3.1133 0.54688 4.0312 1.6406 0.91406 1.0859 1.375 2.6562 1.375 4.7188z"/>
  </symbol>
  <symbol id="r" overflow="visible">
   <path d="m12.422-21.281v3.2188h-2.7031c-0.6875 0-1.1719 0.125-1.4531 0.375-0.27344 0.25-0.40625 0.6875-0.40625 1.3125v1.0625h4.1875v3.5h-4.1875v11.812h-4.8906v-11.812h-2.4375v-3.5h2.4375v-1.0625c0-1.6641 0.46094-2.8984 1.3906-3.7031 0.92578-0.80078 2.3672-1.2031 4.3281-1.2031z"/>
  </symbol>
  <symbol id="d" overflow="visible">
   <path d="m9.6406-12.188c-1.0859 0-1.9141 0.39062-2.4844 1.1719-0.57422 0.78125-0.85938 1.9062-0.85938 3.375s0.28516 2.5938 0.85938 3.375c0.57031 0.77344 1.3984 1.1562 2.4844 1.1562 1.0625 0 1.875-0.38281 2.4375-1.1562 0.57031-0.78125 0.85938-1.9062 0.85938-3.375s-0.28906-2.5938-0.85938-3.375c-0.5625-0.78125-1.375-1.1719-2.4375-1.1719zm0-3.5c2.6328 0 4.6914 0.71484 6.1719 2.1406 1.4766 1.418 2.2188 3.3867 2.2188 5.9062 0 2.5117-0.74219 4.4805-2.2188 5.9062-1.4805 1.418-3.5391 2.125-6.1719 2.125-2.6484 0-4.7148-0.70703-6.2031-2.125-1.4922-1.4258-2.2344-3.3945-2.2344-5.9062 0-2.5195 0.74219-4.4883 2.2344-5.9062 1.4883-1.4258 3.5547-2.1406 6.2031-2.1406z"/>
  </symbol>
  <symbol id="q" overflow="visible">
   <path d="m16.547-12.766c0.61328-0.94531 1.3477-1.6719 2.2031-2.1719 0.85156-0.5 1.7891-0.75 2.8125-0.75 1.7578 0 3.0977 0.54688 4.0156 1.6406 0.92578 1.0859 1.3906 2.6562 1.3906 4.7188v9.3281h-4.9219v-7.9844-0.35938c0.007813-0.13281 0.015625-0.32031 0.015625-0.5625 0-1.082-0.16406-1.8633-0.48438-2.3438-0.3125-0.48828-0.82422-0.73438-1.5312-0.73438-0.92969 0-1.6484 0.38672-2.1562 1.1562-0.51172 0.76172-0.77344 1.8672-0.78125 3.3125v7.5156h-4.9219v-7.9844c0-1.6953-0.14844-2.7852-0.4375-3.2656-0.29297-0.48828-0.8125-0.73438-1.5625-0.73438-0.9375 0-1.6641 0.38672-2.1719 1.1562-0.51172 0.76172-0.76562 1.8594-0.76562 3.2969v7.5312h-4.9219v-15.312h4.9219v2.2344c0.60156-0.86328 1.2891-1.5156 2.0625-1.9531 0.78125-0.4375 1.6406-0.65625 2.5781-0.65625 1.0625 0 2 0.25781 2.8125 0.76562 0.8125 0.51172 1.4258 1.2305 1.8438 2.1562z"/>
  </symbol>
  <symbol id="p" overflow="visible">
   <path d="m17.75-9.3281v9.3281h-4.9219v-7.1094c0-1.3438-0.03125-2.2656-0.09375-2.7656s-0.16797-0.86719-0.3125-1.1094c-0.1875-0.3125-0.44922-0.55469-0.78125-0.73438-0.32422-0.17578-0.69531-0.26562-1.1094-0.26562-1.0234 0-1.8242 0.39844-2.4062 1.1875-0.58594 0.78125-0.875 1.8711-0.875 3.2656v7.5312h-4.8906v-21.281h4.8906v8.2031c0.73828-0.88281 1.5195-1.5391 2.3438-1.9688 0.83203-0.42578 1.75-0.64062 2.75-0.64062 1.7695 0 3.1133 0.54688 4.0312 1.6406 0.91406 1.0859 1.375 2.6562 1.375 4.7188z"/>
  </symbol>
  <symbol id="o" overflow="visible">
   <path d="m2.5781-20.406h5.875l7.4219 14v-14h4.9844v20.406h-5.875l-7.4219-14v14h-4.9844z"/>
  </symbol>
  <symbol id="n" overflow="visible">
   <path d="m2.1875-5.9688v-9.3438h4.9219v1.5312c0 0.83594-0.007813 1.875-0.015625 3.125-0.011719 1.25-0.015625 2.0859-0.015625 2.5 0 1.2422 0.03125 2.1328 0.09375 2.6719 0.070313 0.54297 0.17969 0.93359 0.32812 1.1719 0.20703 0.32422 0.47266 0.57422 0.79688 0.75 0.32031 0.16797 0.69141 0.25 1.1094 0.25 1.0195 0 1.8203-0.39062 2.4062-1.1719 0.58203-0.78125 0.875-1.8672 0.875-3.2656v-7.5625h4.8906v15.312h-4.8906v-2.2188c-0.74219 0.89844-1.5234 1.5586-2.3438 1.9844-0.82422 0.41406-1.7344 0.625-2.7344 0.625-1.7617 0-3.1055-0.53906-4.0312-1.625-0.92969-1.082-1.3906-2.6602-1.3906-4.7344z"/>
  </symbol>
  <symbol id="m" overflow="visible">
   <path d="m2.5781-20.406h8.7344c2.5938 0 4.582 0.57812 5.9688 1.7344 1.3945 1.1484 2.0938 2.7891 2.0938 4.9219 0 2.1367-0.69922 3.7812-2.0938 4.9375-1.3867 1.1562-3.375 1.7344-5.9688 1.7344h-3.4844v7.0781h-5.25zm5.25 3.8125v5.7031h2.9219c1.0195 0 1.8047-0.25 2.3594-0.75 0.5625-0.5 0.84375-1.2031 0.84375-2.1094 0-0.91406-0.28125-1.6172-0.84375-2.1094-0.55469-0.48828-1.3398-0.73438-2.3594-0.73438z"/>
  </symbol>
  <symbol id="l" overflow="visible">
   <path d="m2.3594-15.312h4.8906v15.031c0 2.0508-0.49609 3.6172-1.4844 4.7031-0.98047 1.082-2.4062 1.625-4.2812 1.625h-2.4219v-3.2188h0.85938c0.92578 0 1.5625-0.21094 1.9062-0.625 0.35156-0.41797 0.53125-1.2461 0.53125-2.4844zm0-5.9688h4.8906v4h-4.8906z"/>
  </symbol>
  <symbol id="k" overflow="visible">
   <path d="m14.719-14.828v3.9844c-0.65625-0.45703-1.3242-0.79688-2-1.0156-0.66797-0.21875-1.3594-0.32812-2.0781-0.32812-1.3672 0-2.4336 0.40234-3.2031 1.2031-0.76172 0.79297-1.1406 1.9062-1.1406 3.3438 0 1.4297 0.37891 2.543 1.1406 3.3438 0.76953 0.79297 1.8359 1.1875 3.2031 1.1875 0.75781 0 1.4844-0.10938 2.1719-0.32812 0.6875-0.22656 1.3203-0.56641 1.9062-1.0156v4c-0.76172 0.28125-1.5391 0.48828-2.3281 0.625-0.78125 0.14453-1.5742 0.21875-2.375 0.21875-2.7617 0-4.9219-0.70703-6.4844-2.125-1.5547-1.4141-2.3281-3.3828-2.3281-5.9062 0-2.5312 0.77344-4.5039 2.3281-5.9219 1.5625-1.4141 3.7227-2.125 6.4844-2.125 0.80078 0 1.5938 0.074219 2.375 0.21875 0.78125 0.13672 1.5547 0.35156 2.3281 0.64062z"/>
  </symbol>
 </defs>
 <g>
  <path d="m463.52 67.223c-13.109-12.414-31.977-17.137-49.531-12.207-1.3906 0.41406-2.2188 1.8711-1.7969 3.2656 0.34766 1.3828 1.7969 2.2188 3.1875 1.8047 15.746-4.3672 32.602-0.20703 44.465 10.891 0.55859-0.69531 1.1797-1.3906 1.8711-2.082 0.62109-0.62891 1.1758-1.1836 1.8047-1.6719zm-72.219 28.164c-1.043 0.96875-1.043 2.7031 0 3.6797 0.97266 1.043 2.6445 1.043 3.6719 0 14.09-14.012 35.32-16.855 52.859-8.6055 0.48828-1.6641 1.1797-3.2578 2.0898-4.8555-19.496-9.0195-43.016-5.8281-58.621 9.7812zm167.95 75.059c11.16 11.793 15.262 28.648 10.887 44.398-0.41406 1.3906 0.42188 2.8438 1.7969 3.1914 0.28125 0.074219 0.48828 0.14062 0.69922 0.14062 1.1758 0 2.2188-0.76172 2.5664-1.9414 4.9297-17.551 0.28125-36.281-12.215-49.465-0.48047 0.55859-1.043 1.1758-1.5898 1.7344-0.6875 0.69531-1.3828 1.3828-2.1445 1.9414zm-28.094 64.793c-1.043 1.043-1.043 2.7031 0 3.6797 0.48828 0.55469 1.1758 0.83594 1.875 0.83594 0.62109 0 1.3164-0.28125 1.7969-0.83594 15.605-15.605 18.801-39.055 9.7812-58.555-1.5234 0.82812-3.125 1.5234-4.7891 2.082 8.1914 17.555 5.3516 38.777-8.6641 52.793zm-266.18 35.938c0.76172-0.42188 1.5273-0.83594 2.3633-1.25 3.3984-11.727 9.7773-22.824 19.078-32.188 23.445-23.379 53.207-45.512 81.027-63.891-1.3906-2.082-2.7773-4.168-4.4414-6.0352l-1.3906-1.7344c-1.9414-2.2891-4.0273-4.7891-5.8242-7.4258-34.828 23.238-71.805 50.914-101.01 80.125-19.012 18.938-28.371 43.562-28.441 68.125 13.039-16.516 25.664-28.234 38.637-35.727zm334.71-139.57c-4.3672-3.7461-9.9844-8.1875-15.527-9.918h-0.082031c0.20703 2.3594 0.28125 4.6484 0.20703 7.0781-0.20703 6.3828-1.457 12.695-3.6055 18.727 1.0469 0.14062 2.0117 0.20703 3.0508 0.20703 1.5273 0 2.9844-0.13281 4.4453-0.34766 2.7656-0.34766 5.6094-0.90234 8.1133-2.2891 4.6523-2.5 8.2539-9.3633 3.3984-13.457zm-245.14 231.08c5.1289-8.8828 10.473-21.926 11.441-32.262 0.83594-8.0547-3.8125-26.078-14.914-26.078h-0.20703c-11.859 0.27344-20.957 14.707-26.359 23.309-12.426 19.488-24.848 39.336-31.02 61.809-1.043 3.8867-1.8633 8.1875 0 11.867 1.9492 3.8789 6.5234 5.8984 10.832 5.8984 0.6875 0 1.3086 0 2.0039-0.13281 4.7891-0.69922 8.9492-3.5391 12.77-6.5234 13.449-10.422 26.91-23.113 35.453-37.887zm6.6445-23.176c-0.96875 1.7344-3.1133 2.3594-4.8438 1.3828-1.7422-0.96875-2.3633-3.1797-1.3203-4.918 0.96875-1.7344 3.125-2.2891 4.8555-1.3203 1.7305 0.97266 2.3555 3.1953 1.3086 4.8555zm-1.3086-14.496c1.7344 0.97266 2.2891 3.1211 1.3086 4.8477-0.96875 1.7344-3.1133 2.3594-4.8438 1.3906-1.7422-1.0352-2.3633-3.1875-1.3906-4.9219 1.0352-1.7305 3.1875-2.293 4.9258-1.3164zm-10.754-6.1719c0.96875-1.668 3.1914-2.2891 4.9297-1.3164 1.7344 0.96875 2.2891 3.1914 1.3086 4.9297-0.96875 1.7344-3.1914 2.2891-4.9219 1.3164-1.6641-0.97656-2.2891-3.1992-1.3164-4.9297zm-9.3672-1.1797c0.97266-1.7344 3.125-2.3594 4.8555-1.3828 1.7344 1.043 2.3594 3.1875 1.3906 4.9219-1.043 1.7344-3.1914 2.3594-4.9219 1.3164-1.7383-0.97266-2.3594-3.125-1.3242-4.8555zm-7.0039 9.7812c-1.7344-0.96875-2.2891-3.1914-1.3086-4.9297 0.96875-1.6641 3.1797-2.2852 4.8477-1.3164 1.7344 0.97266 2.3594 3.1914 1.3906 4.9336-0.97656 1.7344-3.2031 2.2852-4.9297 1.3125zm3.8125 5.0625c2.6367-4.6406 7.8398-6.7305 11.52-4.5742 3.7461 2.1523 4.6484 7.6289 1.9414 12.273-2.6367 4.6406-7.8398 6.7305-11.52 4.5742-3.7461-2.0742-4.6406-7.625-1.9414-12.273zm58.621-198.96c5.6211 3.6797 10.473 8.5352 14.359 14.152 13.73-8.0469 25.105-14.223 32.316-18.105-2.2188-6.5859-3.3281-13.664-3.0508-20.949 0-0.14062 0.074219-0.28125 0.074219-0.48047-11.93 6.582-26.98 15.258-43.699 25.383zm-12.762 80.195c-0.21094 2.1445-0.48828 4.3672 0.28125 6.3828 1.1094 3.2578 4.7148 5.1367 8.1797 5.1367 0.6875 0 1.3906-0.074218 2.0781-0.20703 4.0898-0.90234 7.3594-3.8867 9.9219-7.1445 3.6055-4.6484 6.1055-9.9922 7.9727-15.535 4.8555-14.57 4.9297-30.941-1.5898-44.816-5.1367-11.027-14.707-20.184-26.156-24.348-2.3594-0.83594-5.1367-1.25-7.9727-1.25-7.6992 0-16.094 3.1914-18.25 10.613-2.4297 8.0469 4.7227 15.398 10.129 21.852 11.316 13.59 17 31.699 15.406 49.316zm119.04-167.81h2.1523c1.668 0 3.332 0.074219 4.9297 0.21094l-0.003906-0.070313c-1.7422-5.5508-6.1797-11.172-9.9258-15.539-1.3203-1.668-3.0586-2.2891-4.7891-2.2891-3.3984 0-7.0039 2.6367-8.668 5.6914-1.3164 2.4961-1.9492 5.3438-2.2852 8.1211-0.34766 2.4258-0.34766 4.9883-0.074219 7.4883 6.0352-2.1562 12.277-3.4062 18.664-3.6133zm-269.16 306.97-23.582 45.16c-2.0117 3.8867-3.9609 7.3516-5.8281 10.473-1.875 3.1289-3.7461 5.6211-6.1055 8.3984-4.582 5.4023-10.891 10.613-18.176 15.809-14.504 10.406-33.164 20.539-48.637 36.148-15.188 15.32-26.02 33.988-31.703 53.621-0.90234 3.125 0.41406 6.5898 3.3281 8.3281 3.4648 1.9375 7.8438 0.75781 9.8516-2.7109l0.074219-0.13281c8.9492-15.676 21.637-28.582 36.141-37.527 14.219-8.8086 31.355-13.531 50.5-21.094 9.5703-3.8789 19.773-8.5234 29.766-15.527 4.9961-3.3984 10.051-7.5703 14.285-11.73 4.3008-4.2344 8.1133-8.3906 11.586-12.348l26.426-30.387c-10.605-4.9961-20.535-11.727-29.137-20.328-7.832-7.9141-14.07-16.715-18.789-26.152zm230.18-85.672c-1.9414-1.6016-4.0273-3.0508-6.1055-4.4414-18.387 27.816-40.516 57.652-63.891 81.031-9.3672 9.3633-20.461 15.676-32.188 19.074-0.41406 0.83594-0.83594 1.6641-1.25 2.3594-7.4922 12.977-19.219 25.602-35.723 38.633 24.551 0 49.172-9.4297 68.188-28.438 29.203-29.211 56.816-66.18 80.051-101.01-2.6328-1.7344-5.0586-3.8203-7.4219-5.8281zm-233.57 69.504c1.5898 0.83594 3.3281 1.1133 5.0625 1.1133 2.2891 0 4.582-0.55859 6.7969-1.1133 22.473-6.1719 42.312-18.586 61.812-31 8.6055-5.4141 23.094-14.5 23.309-26.363 0.21094-10.477-15.469-15.266-24.215-15.266-0.62109 0-1.25 0.066406-1.8633 0.14062-10.336 0.96875-23.379 6.3125-32.188 11.445-14.852 8.5352-27.473 21.992-37.945 35.453-2.9844 3.8203-5.8359 7.9727-6.5234 12.836-0.70312 4.7734 1.3125 10.531 5.7539 12.754zm78.809-37.945c-1.7344 0.96875-3.9609 0.41406-4.9297-1.3164-0.96875-1.7422-0.34766-3.8789 1.3203-4.9219 1.7344-0.97266 3.9492-0.34766 4.9219 1.3828 0.96484 1.7383 0.34375 3.8945-1.3125 4.8555zm4.8477-8.2539c-1.6641 0.97266-3.8789 0.34766-4.8477-1.3828-0.97266-1.7344-0.42188-3.8867 1.3164-4.8555 1.7344-1.0469 3.9609-0.41016 4.9219 1.3203s0.34766 3.8828-1.3906 4.918zm-4.7812-15.68c1.7344-0.96875 3.9492-0.34766 4.9219 1.3203 0.96875 1.7344 0.34766 3.9492-1.3203 4.9219-1.7344 0.96875-3.9609 0.41406-4.9219-1.3203-0.96484-1.7344-0.34375-3.9531 1.3203-4.9219zm-7.4258-5.8242c1.7344-0.96875 3.8867-0.41406 4.8555 1.3164 1.0352 1.7344 0.41406 3.9531-1.3203 4.9219-1.7344 0.97266-3.8789 0.34766-4.9219-1.3828-0.96875-1.668-0.34766-3.8867 1.3867-4.8555zm-9.6445 0c1.7344-1.043 3.8867-0.41406 4.8672 1.3164 1.0352 1.7344 0.41406 3.8867-1.3203 4.9219-1.7344 0.97266-3.8789 0.34766-4.9219-1.3828-0.98828-1.7344-0.35938-3.8867 1.375-4.8555zm-0.69141 11.16c4.6484-2.6992 10.203-1.8047 12.281 1.9531 2.1445 3.7422 0.066407 8.875-4.582 11.586-4.6484 2.625-10.203 1.7344-12.281-1.9492-2.1445-3.7383-0.066406-8.9453 4.582-11.59zm-3.6016 63.551c-4.6484-4.6406-8.5352-9.8516-11.727-15.32-10.191 5.4102-21.09 10.199-32.535 13.324-2.2188 0.62109-5.2031 1.3086-8.1797 1.3086-0.21094 0-0.41406-0.066406-0.62109-0.066406 4.7891 11.781 11.934 22.82 21.438 32.391 9.6484 9.5742 20.676 16.723 32.535 21.504-0.14062-3.0469 0.41406-6.0273 1.1797-8.8047 3.125-11.453 7.9062-22.27 13.316-32.543-5.4883-3.1875-10.695-7.0664-15.406-11.793zm186.32-122.79c-7.4141-3.4648-15.605-5.0625-23.793-5.0625-7.1406 0-14.293 1.1797-21.016 3.4727-5.5508 1.8711-10.961 4.3672-15.539 7.9805-3.3281 2.5664-6.3047 5.8281-7.2109 9.918-0.82812 4.0195 0.97266 8.9492 4.9297 10.266 0.96875 0.34766 2.0039 0.48047 3.0508 0.48047 1.1094 0 2.2852-0.13281 3.332-0.20703 1.9414-0.20703 3.8789-0.28125 5.8281-0.28125 15.742 0 31.414 5.6172 43.488 15.68 5.5508 4.6484 11.793 10.613 18.598 10.613 1.0352 0 2.1523-0.14062 3.2578-0.48828 10.129-2.9844 12.414-17.617 9.3633-26.152-4.1094-11.516-13.332-21.086-24.289-26.219zm27.887-32.605c-3.8789 7.2188-10.062 18.594-18.105 32.328 5.6211 3.8789 10.398 8.7422 14.086 14.285 10.191-16.715 18.801-31.77 25.391-43.637-0.82812 0-1.668 0.14063-2.5664 0.14063-6.5234 0.003906-12.906-1.1055-18.805-3.1172zm63.547-98.574-23.734-23.727c-9.9844-9.918-23.234-14.918-36.832-14.918h-1.9414c-13.523 0.48828-27.195 5.8984-38.152 16.094 0.42188 0.34766 0.76562 0.69531 1.1094 1.043 9.7812 9.7773 15.191 22.824 15.191 36.766 0 0.69531-0.27344 1.3906-0.76562 1.8711-0.55469 0.48828-1.2422 0.76562-1.9375 0.76562-0.69531 0-1.3164-0.20703-1.875-0.76562-0.62109-0.62109-0.90234-1.5234-0.69922-2.3594-0.12891-12.348-4.9883-23.863-13.66-32.602-0.34766-0.34766-0.6875-0.69531-1.043-0.96875-4.2344 4.5078-7.4922 9.4375-9.918 14.633 5.75 2.5664 11.16 6.3125 15.875 11.031 2.8516 2.8438 5.4805 6.1055 7.9141 9.918 0.82422 1.25 0.49219 2.8438-0.76562 3.6719-0.41016 0.28125-0.96875 0.41406-1.457 0.41406-0.82812 0-1.668-0.41406-2.1562-1.2422-2.2773-3.4727-4.6484-6.4531-7.2734-9.0234-4.2383-4.2266-9.0938-7.5586-14.23-9.9219-7.5586 19.707-3.8789 42.113 11.094 57.098l23.734 23.723c9.9844 9.9922 23.234 14.98 36.766 14.98 6.8711 0 13.805-1.2422 20.391-3.8125-2.2852-5.1367-5.6172-9.9922-9.918-14.293-2.6367-2.6367-5.6172-4.9961-9.0898-7.2109-1.2539-0.83594-1.5977-2.4297-0.82812-3.6719 0.82812-1.1797 2.4297-1.5273 3.6719-0.76172 3.8203 2.4258 7.0781 5.0625 9.918 7.9062 4.7891 4.7891 8.4688 10.199 11.031 15.953 5.2031-2.4258 10.129-5.7578 14.637-9.918-0.28125-0.34766-0.62109-0.76562-0.97266-1.1133-8.7422-8.7422-20.395-13.598-32.809-13.664-0.82812 0.066407-1.5977-0.14062-2.1562-0.69531-1.0352-1.043-1.1016-2.7031-0.066407-3.6719 0.48828-0.55469 1.2539-0.90625 1.9414-0.90625 13.945 0 26.98 5.4102 36.766 15.191 0.34766 0.34766 0.76562 0.76562 1.043 1.1758 10.199-10.961 15.605-24.625 16.094-38.219 0.5-14.281-4.4883-28.301-14.895-38.77zm-73.672-4.7891c3.2578-3.2578 8.5977-3.2578 11.859 0 3.2578 3.332 3.2578 8.6055 0 11.859-3.2656 3.332-8.6016 3.332-11.859 0-3.2656-3.2578-3.2656-8.5273 0-11.859zm26.078 53.137c-4.0273 0.21094-13.875 0.55469-19.562-1.1758-2.4297 4.7148-1.668 10.684 2.2852 14.633 2.5039 2.4961 5.9688 3.8203 9.5039 3.7461 1.1133 0 2.0117 0.76172 2.082 1.8711 0 1.043-0.82422 1.9414-1.8711 2.0117h-0.69531c-4.4414 0-8.668-1.7344-11.789-4.8555-4.5117-4.5078-5.7578-10.961-4.0273-16.648-1.5977 0.48828-3.2578 0.82812-4.9297 0.82812-4.2344 0-8.4688-1.5977-11.727-4.8555-3.2578-3.2656-5.0586-7.8398-4.8555-12.414 0.066406-1.1133 0.97266-1.9414 2.0781-1.875 1.0469 0 1.875 0.90625 1.875 2.0117-0.20703 3.5391 1.1797 7.0039 3.6797 9.5039 3.9492 3.9609 9.918 4.7227 14.637 2.2891-1.7344-5.6914-1.3945-15.539-1.1133-19.562 0-1.043 0.97266-1.7344 1.9414-1.5273 6.0352 1.5273 11.453 6.8711 13.391 9.0156 0.48828 0.55469 1.0469 1.1094 1.5977 1.5977 2.1523 1.9414 7.4922 7.3516 9.0156 13.391 0.22266 0.98047-0.46875 1.9492-1.5156 2.0156zm28.652 1.5977c-3.3281 3.2656-8.5977 3.2656-11.859 0-3.2578-3.2578-3.2578-8.5273 0-11.859 3.2656-3.2656 8.5352-3.2656 11.859 0 3.2578 3.3242 3.2578 8.6016 0 11.859z"/>
  <use x="70" y="644" xlink:href="#u"/>
  <use x="90.550781" y="644" xlink:href="#c"/>
  <use x="104.359375" y="644" xlink:href="#a"/>
  <use x="123.347656" y="644" xlink:href="#j"/>
  <use x="142.242188" y="644" xlink:href="#b"/>
  <use x="155.628906" y="644" xlink:href="#a"/>
  <use x="174.617188" y="644" xlink:href="#i"/>
  <use x="204.410156" y="644" xlink:href="#h"/>
  <use x="224.453125" y="644" xlink:href="#g"/>
  <use x="252.453125" y="644" xlink:href="#f"/>
  <use x="274.148438" y="644" xlink:href="#a"/>
  <use x="293.140625" y="644" xlink:href="#t"/>
  <use x="311.390625" y="644" xlink:href="#s"/>
  <use x="320.988281" y="644" xlink:href="#e"/>
  <use x="70" y="672" xlink:href="#r"/>
  <use x="82.183594" y="672" xlink:href="#c"/>
  <use x="95.992188" y="672" xlink:href="#d"/>
  <use x="115.226562" y="672" xlink:href="#q"/>
  <use x="154.152344" y="672" xlink:href="#b"/>
  <use x="167.535156" y="672" xlink:href="#p"/>
  <use x="187.46875" y="672" xlink:href="#a"/>
  <use x="216.207031" y="672" xlink:href="#o"/>
  <use x="239.640625" y="672" xlink:href="#d"/>
  <use x="258.878906" y="672" xlink:href="#n"/>
  <use x="278.8125" y="672" xlink:href="#e"/>
  <use x="308.492188" y="672" xlink:href="#m"/>
  <use x="329.015625" y="672" xlink:href="#c"/>
  <use x="342.820312" y="672" xlink:href="#d"/>
  <use x="362.058594" y="672" xlink:href="#l"/>
  <use x="371.65625" y="672" xlink:href="#a"/>
  <use x="390.648438" y="672" xlink:href="#k"/>
  <use x="407.242188" y="672" xlink:href="#b"/>
 </g>
</svg>
