<?xml version="1.0" encoding="UTF-8"?>
<svg width="700pt" height="700pt" version="1.1" viewBox="0 0 700 700" xmlns="http://www.w3.org/2000/svg" xmlns:xlink="http://www.w3.org/1999/xlink">
 <defs>
  <symbol id="i" overflow="visible">
   <path d="m18.766-1.125c-0.96875 0.5-1.9805 0.875-3.0312 1.125-1.043 0.25781-2.1367 0.39062-3.2812 0.39062-3.3984 0-6.0898-0.94531-8.0781-2.8438-1.9922-1.9062-2.9844-4.4844-2.9844-7.7344 0-3.2578 0.99219-5.8359 2.9844-7.7344 1.9883-1.9062 4.6797-2.8594 8.0781-2.8594 1.1445 0 2.2383 0.13281 3.2812 0.39062 1.0508 0.25 2.0625 0.625 3.0312 1.125v4.2188c-0.98047-0.65625-1.9453-1.1406-2.8906-1.4531-0.94922-0.3125-1.9492-0.46875-3-0.46875-1.875 0-3.3516 0.60547-4.4219 1.8125-1.0742 1.1992-1.6094 2.8555-1.6094 4.9688 0 2.1055 0.53516 3.7617 1.6094 4.9688 1.0703 1.1992 2.5469 1.7969 4.4219 1.7969 1.0508 0 2.0508-0.14844 3-0.45312 0.94531-0.3125 1.9102-0.80078 2.8906-1.4688z"/>
  </symbol>
  <symbol id="b" overflow="visible">
   <path d="m13.734-11.141c-0.4375-0.19531-0.87109-0.34375-1.2969-0.4375-0.41797-0.10156-0.83984-0.15625-1.2656-0.15625-1.2617 0-2.2305 0.40625-2.9062 1.2188-0.67969 0.80469-1.0156 1.9531-1.0156 3.4531v7.0625h-4.8906v-15.312h4.8906v2.5156c0.625-1 1.3438-1.7266 2.1562-2.1875 0.82031-0.46875 1.8008-0.70312 2.9375-0.70312 0.16406 0 0.34375 0.011719 0.53125 0.03125 0.19531 0.011719 0.47656 0.039062 0.84375 0.078125z"/>
  </symbol>
  <symbol id="a" overflow="visible">
   <path d="m17.641-7.7031v1.4062h-11.453c0.125 1.1484 0.53906 2.0078 1.25 2.5781 0.70703 0.57422 1.7031 0.85938 2.9844 0.85938 1.0312 0 2.082-0.14844 3.1562-0.45312 1.082-0.3125 2.1914-0.77344 3.3281-1.3906v3.7656c-1.1562 0.4375-2.3125 0.76562-3.4688 0.98438-1.1562 0.22656-2.3125 0.34375-3.4688 0.34375-2.7734 0-4.9297-0.70312-6.4688-2.1094-1.5312-1.4062-2.2969-3.3789-2.2969-5.9219 0-2.5 0.75391-4.4609 2.2656-5.8906 1.5078-1.4375 3.582-2.1562 6.2188-2.1562 2.4062 0 4.332 0.73047 5.7812 2.1875 1.4453 1.4492 2.1719 3.3828 2.1719 5.7969zm-5.0312-1.625c0-0.92578-0.27344-1.6719-0.8125-2.2344-0.54297-0.57031-1.25-0.85938-2.125-0.85938-0.94922 0-1.7188 0.26562-2.3125 0.79688s-0.96484 1.2969-1.1094 2.2969z"/>
  </symbol>
  <symbol id="l" overflow="visible">
   <path d="m9.2188-6.8906c-1.0234 0-1.793 0.17188-2.3125 0.51562-0.51172 0.34375-0.76562 0.85547-0.76562 1.5312 0 0.625 0.20703 1.1172 0.625 1.4688 0.41406 0.34375 0.98828 0.51562 1.7188 0.51562 0.92578 0 1.7031-0.32812 2.3281-0.98438 0.63281-0.66406 0.95312-1.4922 0.95312-2.4844v-0.5625zm7.4688-1.8438v8.7344h-4.9219v-2.2656c-0.65625 0.92969-1.3984 1.6055-2.2188 2.0312-0.82422 0.41406-1.8242 0.625-3 0.625-1.5859 0-2.8711-0.45703-3.8594-1.375-0.99219-0.92578-1.4844-2.1289-1.4844-3.6094 0-1.7891 0.61328-3.1016 1.8438-3.9375 1.2383-0.84375 3.1797-1.2656 5.8281-1.2656h2.8906v-0.39062c0-0.76953-0.30859-1.332-0.92188-1.6875-0.61719-0.36328-1.5703-0.54688-2.8594-0.54688-1.0547 0-2.0312 0.10547-2.9375 0.3125-0.89844 0.21094-1.7305 0.52344-2.5 0.9375v-3.7344c1.0391-0.25 2.0859-0.44141 3.1406-0.57812 1.0625-0.13281 2.125-0.20312 3.1875-0.20312 2.7578 0 4.75 0.54688 5.9688 1.6406 1.2266 1.0859 1.8438 2.8555 1.8438 5.3125z"/>
  </symbol>
  <symbol id="c" overflow="visible">
   <path d="m7.7031-19.656v4.3438h5.0469v3.5h-5.0469v6.5c0 0.71094 0.14062 1.1875 0.42188 1.4375s0.83594 0.375 1.6719 0.375h2.5156v3.5h-4.1875c-1.9375 0-3.3125-0.39844-4.125-1.2031-0.80469-0.8125-1.2031-2.1797-1.2031-4.1094v-6.5h-2.4219v-3.5h2.4219v-4.3438z"/>
  </symbol>
  <symbol id="k" overflow="visible">
   <path d="m12.766-13.078v-8.2031h4.9219v21.281h-4.9219v-2.2188c-0.66797 0.90625-1.4062 1.5703-2.2188 1.9844s-1.7578 0.625-2.8281 0.625c-1.8867 0-3.4336-0.75-4.6406-2.25-1.2109-1.5-1.8125-3.4258-1.8125-5.7812 0-2.3633 0.60156-4.2969 1.8125-5.7969 1.207-1.5 2.7539-2.25 4.6406-2.25 1.0625 0 2 0.21484 2.8125 0.64062 0.82031 0.42969 1.5664 1.0859 2.2344 1.9688zm-3.2188 9.9219c1.0391 0 1.8359-0.37891 2.3906-1.1406 0.55078-0.76953 0.82812-1.8828 0.82812-3.3438 0-1.457-0.27734-2.5664-0.82812-3.3281-0.55469-0.76953-1.3516-1.1562-2.3906-1.1562-1.043 0-1.8398 0.38672-2.3906 1.1562-0.55469 0.76172-0.82812 1.8711-0.82812 3.3281 0 1.4609 0.27344 2.5742 0.82812 3.3438 0.55078 0.76172 1.3477 1.1406 2.3906 1.1406z"/>
  </symbol>
  <symbol id="j" overflow="visible">
   <path d="m10.5-3.1562c1.0508 0 1.8516-0.37891 2.4062-1.1406 0.55078-0.76953 0.82812-1.8828 0.82812-3.3438 0-1.457-0.27734-2.5664-0.82812-3.3281-0.55469-0.76953-1.3555-1.1562-2.4062-1.1562-1.0547 0-1.8594 0.38672-2.4219 1.1562-0.55469 0.77344-0.82812 1.8828-0.82812 3.3281 0 1.4492 0.27344 2.5586 0.82812 3.3281 0.5625 0.77344 1.3672 1.1562 2.4219 1.1562zm-3.25-9.9219c0.67578-0.88281 1.4219-1.5391 2.2344-1.9688 0.82031-0.42578 1.7656-0.64062 2.8281-0.64062 1.8945 0 3.4453 0.75 4.6562 2.25 1.207 1.5 1.8125 3.4336 1.8125 5.7969 0 2.3555-0.60547 4.2812-1.8125 5.7812-1.2109 1.5-2.7617 2.25-4.6562 2.25-1.0625 0-2.0078-0.21094-2.8281-0.625-0.8125-0.42578-1.5586-1.0859-2.2344-1.9844v2.2188h-4.8906v-21.281h4.8906z"/>
  </symbol>
  <symbol id="f" overflow="visible">
   <path d="m0.34375-15.312h4.8906l4.125 10.391 3.5-10.391h4.8906l-6.4375 16.766c-0.64844 1.6953-1.4023 2.8828-2.2656 3.5625-0.86719 0.6875-2 1.0312-3.4062 1.0312h-2.8438v-3.2188h1.5312c0.83203 0 1.4375-0.13672 1.8125-0.40625 0.38281-0.26172 0.67969-0.73047 0.89062-1.4062l0.14062-0.42188z"/>
  </symbol>
  <symbol id="e" overflow="visible">
   <path d="m17.75-9.3281v9.3281h-4.9219v-7.1094c0-1.3438-0.03125-2.2656-0.09375-2.7656s-0.16797-0.86719-0.3125-1.1094c-0.1875-0.3125-0.44922-0.55469-0.78125-0.73438-0.32422-0.17578-0.69531-0.26562-1.1094-0.26562-1.0234 0-1.8242 0.39844-2.4062 1.1875-0.58594 0.78125-0.875 1.8711-0.875 3.2656v7.5312h-4.8906v-21.281h4.8906v8.2031c0.73828-0.88281 1.5195-1.5391 2.3438-1.9688 0.83203-0.42578 1.75-0.64062 2.75-0.64062 1.7695 0 3.1133 0.54688 4.0312 1.6406 0.91406 1.0859 1.375 2.6562 1.375 4.7188z"/>
  </symbol>
  <symbol id="u" overflow="visible">
   <path d="m2.3594-15.312h4.8906v15.312h-4.8906zm0-5.9688h4.8906v4h-4.8906z"/>
  </symbol>
  <symbol id="h" overflow="visible">
   <path d="m14.312-14.828v3.7188c-1.043-0.4375-2.0547-0.76562-3.0312-0.98438-0.98047-0.21875-1.9023-0.32812-2.7656-0.32812-0.92969 0-1.6211 0.11719-2.0781 0.34375-0.44922 0.23047-0.67188 0.58984-0.67188 1.0781 0 0.38672 0.17188 0.68359 0.51562 0.89062 0.34375 0.21094 0.95703 0.36719 1.8438 0.46875l0.85938 0.125c2.5078 0.32422 4.1953 0.85156 5.0625 1.5781 0.86328 0.73047 1.2969 1.8711 1.2969 3.4219 0 1.6367-0.60547 2.8672-1.8125 3.6875-1.1992 0.8125-2.9922 1.2188-5.375 1.2188-1.0234 0-2.0742-0.078125-3.1562-0.23438-1.0742-0.15625-2.1797-0.39453-3.3125-0.71875v-3.7188c0.96875 0.48047 1.9609 0.83984 2.9844 1.0781 1.0312 0.23047 2.0781 0.34375 3.1406 0.34375 0.95703 0 1.6758-0.12891 2.1562-0.39062 0.47656-0.26953 0.71875-0.66406 0.71875-1.1875 0-0.4375-0.16797-0.75781-0.5-0.96875-0.33594-0.21875-0.99609-0.38281-1.9844-0.5l-0.85938-0.10938c-2.1797-0.26953-3.7031-0.77344-4.5781-1.5156-0.875-0.73828-1.3125-1.8594-1.3125-3.3594 0-1.625 0.55078-2.8281 1.6562-3.6094 1.1133-0.78906 2.8203-1.1875 5.125-1.1875 0.89453 0 1.8359 0.074219 2.8281 0.21875 1 0.13672 2.082 0.35156 3.25 0.64062z"/>
  </symbol>
  <symbol id="g" overflow="visible">
   <path d="m2.5781-20.406h8.7344c2.5938 0 4.582 0.57812 5.9688 1.7344 1.3945 1.1484 2.0938 2.7891 2.0938 4.9219 0 2.1367-0.69922 3.7812-2.0938 4.9375-1.3867 1.1562-3.375 1.7344-5.9688 1.7344h-3.4844v7.0781h-5.25zm5.25 3.8125v5.7031h2.9219c1.0195 0 1.8047-0.25 2.3594-0.75 0.5625-0.5 0.84375-1.2031 0.84375-2.1094 0-0.91406-0.28125-1.6172-0.84375-2.1094-0.55469-0.48828-1.3398-0.73438-2.3594-0.73438z"/>
  </symbol>
  <symbol id="t" overflow="visible">
   <path d="m2.3594-21.281h4.8906v21.281h-4.8906z"/>
  </symbol>
  <symbol id="s" overflow="visible">
   <path d="m12.422-21.281v3.2188h-2.7031c-0.6875 0-1.1719 0.125-1.4531 0.375-0.27344 0.25-0.40625 0.6875-0.40625 1.3125v1.0625h4.1875v3.5h-4.1875v11.812h-4.8906v-11.812h-2.4375v-3.5h2.4375v-1.0625c0-1.6641 0.46094-2.8984 1.3906-3.7031 0.92578-0.80078 2.3672-1.2031 4.3281-1.2031z"/>
  </symbol>
  <symbol id="d" overflow="visible">
   <path d="m9.6406-12.188c-1.0859 0-1.9141 0.39062-2.4844 1.1719-0.57422 0.78125-0.85938 1.9062-0.85938 3.375s0.28516 2.5938 0.85938 3.375c0.57031 0.77344 1.3984 1.1562 2.4844 1.1562 1.0625 0 1.875-0.38281 2.4375-1.1562 0.57031-0.78125 0.85938-1.9062 0.85938-3.375s-0.28906-2.5938-0.85938-3.375c-0.5625-0.78125-1.375-1.1719-2.4375-1.1719zm0-3.5c2.6328 0 4.6914 0.71484 6.1719 2.1406 1.4766 1.418 2.2188 3.3867 2.2188 5.9062 0 2.5117-0.74219 4.4805-2.2188 5.9062-1.4805 1.418-3.5391 2.125-6.1719 2.125-2.6484 0-4.7148-0.70703-6.2031-2.125-1.4922-1.4258-2.2344-3.3945-2.2344-5.9062 0-2.5195 0.74219-4.4883 2.2344-5.9062 1.4883-1.4258 3.5547-2.1406 6.2031-2.1406z"/>
  </symbol>
  <symbol id="r" overflow="visible">
   <path d="m16.547-12.766c0.61328-0.94531 1.3477-1.6719 2.2031-2.1719 0.85156-0.5 1.7891-0.75 2.8125-0.75 1.7578 0 3.0977 0.54688 4.0156 1.6406 0.92578 1.0859 1.3906 2.6562 1.3906 4.7188v9.3281h-4.9219v-7.9844-0.35938c0.007813-0.13281 0.015625-0.32031 0.015625-0.5625 0-1.082-0.16406-1.8633-0.48438-2.3438-0.3125-0.48828-0.82422-0.73438-1.5312-0.73438-0.92969 0-1.6484 0.38672-2.1562 1.1562-0.51172 0.76172-0.77344 1.8672-0.78125 3.3125v7.5156h-4.9219v-7.9844c0-1.6953-0.14844-2.7852-0.4375-3.2656-0.29297-0.48828-0.8125-0.73438-1.5625-0.73438-0.9375 0-1.6641 0.38672-2.1719 1.1562-0.51172 0.76172-0.76562 1.8594-0.76562 3.2969v7.5312h-4.9219v-15.312h4.9219v2.2344c0.60156-0.86328 1.2891-1.5156 2.0625-1.9531 0.78125-0.4375 1.6406-0.65625 2.5781-0.65625 1.0625 0 2 0.25781 2.8125 0.76562 0.8125 0.51172 1.4258 1.2305 1.8438 2.1562z"/>
  </symbol>
  <symbol id="q" overflow="visible">
   <path d="m2.5781-20.406h5.875l7.4219 14v-14h4.9844v20.406h-5.875l-7.4219-14v14h-4.9844z"/>
  </symbol>
  <symbol id="p" overflow="visible">
   <path d="m2.1875-5.9688v-9.3438h4.9219v1.5312c0 0.83594-0.007813 1.875-0.015625 3.125-0.011719 1.25-0.015625 2.0859-0.015625 2.5 0 1.2422 0.03125 2.1328 0.09375 2.6719 0.070313 0.54297 0.17969 0.93359 0.32812 1.1719 0.20703 0.32422 0.47266 0.57422 0.79688 0.75 0.32031 0.16797 0.69141 0.25 1.1094 0.25 1.0195 0 1.8203-0.39062 2.4062-1.1719 0.58203-0.78125 0.875-1.8672 0.875-3.2656v-7.5625h4.8906v15.312h-4.8906v-2.2188c-0.74219 0.89844-1.5234 1.5586-2.3438 1.9844-0.82422 0.41406-1.7344 0.625-2.7344 0.625-1.7617 0-3.1055-0.53906-4.0312-1.625-0.92969-1.082-1.3906-2.6602-1.3906-4.7344z"/>
  </symbol>
  <symbol id="o" overflow="visible">
   <path d="m17.75-9.3281v9.3281h-4.9219v-7.1406c0-1.3203-0.03125-2.2344-0.09375-2.7344s-0.16797-0.86719-0.3125-1.1094c-0.1875-0.3125-0.44922-0.55469-0.78125-0.73438-0.32422-0.17578-0.69531-0.26562-1.1094-0.26562-1.0234 0-1.8242 0.39844-2.4062 1.1875-0.58594 0.78125-0.875 1.8711-0.875 3.2656v7.5312h-4.8906v-15.312h4.8906v2.2344c0.73828-0.88281 1.5195-1.5391 2.3438-1.9688 0.83203-0.42578 1.75-0.64062 2.75-0.64062 1.7695 0 3.1133 0.54688 4.0312 1.6406 0.91406 1.0859 1.375 2.6562 1.375 4.7188z"/>
  </symbol>
  <symbol id="n" overflow="visible">
   <path d="m2.3594-15.312h4.8906v15.031c0 2.0508-0.49609 3.6172-1.4844 4.7031-0.98047 1.082-2.4062 1.625-4.2812 1.625h-2.4219v-3.2188h0.85938c0.92578 0 1.5625-0.21094 1.9062-0.625 0.35156-0.41797 0.53125-1.2461 0.53125-2.4844zm0-5.9688h4.8906v4h-4.8906z"/>
  </symbol>
  <symbol id="m" overflow="visible">
   <path d="m14.719-14.828v3.9844c-0.65625-0.45703-1.3242-0.79688-2-1.0156-0.66797-0.21875-1.3594-0.32812-2.0781-0.32812-1.3672 0-2.4336 0.40234-3.2031 1.2031-0.76172 0.79297-1.1406 1.9062-1.1406 3.3438 0 1.4297 0.37891 2.543 1.1406 3.3438 0.76953 0.79297 1.8359 1.1875 3.2031 1.1875 0.75781 0 1.4844-0.10938 2.1719-0.32812 0.6875-0.22656 1.3203-0.56641 1.9062-1.0156v4c-0.76172 0.28125-1.5391 0.48828-2.3281 0.625-0.78125 0.14453-1.5742 0.21875-2.375 0.21875-2.7617 0-4.9219-0.70703-6.4844-2.125-1.5547-1.4141-2.3281-3.3828-2.3281-5.9062 0-2.5312 0.77344-4.5039 2.3281-5.9219 1.5625-1.4141 3.7227-2.125 6.4844-2.125 0.80078 0 1.5938 0.074219 2.375 0.21875 0.78125 0.13672 1.5547 0.35156 2.3281 0.64062z"/>
  </symbol>
 </defs>
 <g>
  <path d="m513.27 116.02c-0.035156 0-0.078125 0-0.11328 0.003907-2.8789 0.26953-8.6133 2.8555-8.9727 4.832-0.054688 0.32422 0.21094 0.875 0.72266 1.4844 1.9102 2.2773 6.5859 4.7305 8.7344 4.9219 4.082-2.043 5.2188-3.3203 7.3203-7.8125-2.4453-0.24609-4.1719-1.4336-5.4766-2.3242-0.85938-0.58984-1.6133-1.1055-2.2148-1.1055z"/>
  <path d="m522.7 117.1c-2.6641 0.26953-4.3008-0.84375-5.8633-1.9141-1.2305-0.85156-2.4258-1.6562-3.8867-1.5195-0.80078 0.074219-1.9336 0.33594-3.168 0.74609 2.1016-1.6016 4.4844-3.1602 6.5234-4.3398l-1.1992-2.0547c-2.1992 1.2695-13.098 7.8008-13.262 12.531-0.13281 1.0352 0.27344 2.1562 1.2539 3.3164 2.2969 2.7617 7.957 5.7891 10.812 5.7891h0.26953l0.25391-0.125c5.3867-2.6602 6.6211-4.418 9.4805-10.77l0.83984-1.875z"/>
  <path d="m570.85 96.633c-0.66797-0.19141-1.5977-0.66016-2.5664-1.1523-1.1328-1.5234-3.6172-2.1016-4.5938-2.0117-1.2266 0.11719-4.0547 0.99219-4.5859 3.3438-0.75781 0.53125-1.3828 0.98047-1.707 1.1484 0.23047 0.21094 0.71094 0.62109 1.3164 1.1094 1.0234 2.2188 3.4883 3.375 5.3984 3.332 1.9531-0.042969 4.4414-2.4805 4.9609-4.082 0.62109-0.89844 1.2422-1.0938 1.7773-1.6875z"/>
  <path d="m564.02 102.79c-1.9805 0-4.5312-1.1914-5.6289-3.4727-0.58203-0.46875-1.043-0.86328-1.2656-1.0703l-0.44141-0.38672 0.53125-0.25781c0.29297-0.14062 0.85547-0.54688 1.5273-1.0312 0.6875-2.5352 3.7617-3.3828 4.9062-3.4961 0.074218-0.003906 0.15625-0.011719 0.25781-0.011719 1.25 0 3.4883 0.65625 4.6328 2.1055 0.94141 0.46875 1.8125 0.91406 2.418 1.0859l0.60938 0.17969-0.42969 0.46875c-0.23438 0.25781-0.48047 0.44922-0.72266 0.62891-0.33594 0.26172-0.65625 0.50391-0.99219 0.96875-0.58203 1.6875-3.1289 4.2461-5.3047 4.2969l-0.097657 0.003907z"/>
  <path d="m620.88 111.04-1.1992-3.8008c0.26953-0.90625 0.50781-1.8945 0.67578-2.9219l1.6758 1.7344-1.2109-4.3555 0.92969 1.0703-1.6055-5.3711c-0.054687-0.26953-0.14062-0.53906-0.22266-0.80078l0.71094 0.39844-2.2109-3.9102-0.035156 0.035156c-1.1211-1.875-2.5273-3.3867-3.9609-4.3047-0.25781-1.8828 0.23047-5.8203-0.92578-7.2188-0.11328-0.12891-0.23047-0.25391-0.375-0.375-0.011719-0.003906-0.011719-0.011718-0.023438-0.023437-1.6875-1.3945-5.6523-2.1055-7.5156-2.6367-3.3555-0.96484-11.469-0.67578-14.93-1.125-2.5859-0.33594-6.1758-0.95312-9.8125-1.3945l0.023438-0.015625-3.9531-4.1992 1.3984 3.9414c-1.3086-0.11719-2.6094-0.20703-3.8398-0.22266l-3.6289-3.5273 1.3398 3.5781c-0.42969 0.027344-0.86328 0.066406-1.2773 0.11719l-16.449-8.5156 13.324 9.1953c-13.816 3.4609-35.527 12.047-51.805 22.199-38.148 23.777-28.582 45.504-34.805 62.211-4.7812 12.859-6.7031 40.668-12.602 54.555-60.602 2.8555-123.25 3.4219-171.84 48.305-60.289 55.691-60.898 95.652-54.348 139.68-3.3086 6.6484-49.699 8.6445-65.957 6.3125-26.797-3.8477-48.52-10.164-51.301-11.117-3.8125-1.3164-33.449-2.582-36.746-2.582-2.375 0-8.5859-2.1992-9.4922 0-0.35156 0.85156 1.8477 2.1406 2.6367 2.6328 31.457 7.8633 43.438 14.84 55.363 18.457 18.859 5.7188 45.215 10.707 52.629 12.629 7.0898 1.8359 63.074 15.309 71.254 20.586 4.5977 2.9688 12.66 12.656 17.684 15.055 6.0586 2.8828 21.836 2.918 26.621 7.6172 1.6055 1.5859 2.6719 15.863 11.117 17.801 7.6758 1.7539 28.5 4.1289 36.34-5.1406 1.5625-1.8633-0.98047-11.574 0.86328-13.164 2.6367-2.2383 24.801-14.293 27.715-15.035 2.3281-0.60547 17.691 4.75 22.551 0.042969 1.4336-1.3984 2.1445-8.4492 0.48047-11.219-2.1797-3.6172-11.156-4.9336-13.523-9.1406-2.6836-4.75 2.25-10.406 1.3086-13.473 11.867-8.1758 30.863-23.902 37.574-28.711 4.582-3.2695 14.918-9.9609 20.48-10.863 18.82-3.0781 52.781 18.918 60.066 25.246 4.8398 4.2109 9.5664 9.3359 13.043 15.652 8.2617 6.9062 21.633 9.2383 31.898 28.5 2.1797 2.832 6.5859 7.3203 8.7422 6.6016 1.2539-0.41016 0.81641-2.6953 1.7305-6.3828 4.2656 1.6875 8.0195 6.9141 11.469 8.5 2.0898 0.95703 8.25 3.5117 9.4922 1.5781 0.80078-1.2109 0.90625-5.2969-0.32422-8.1875 2.1406 0.84375 3.4844 2.4375 4.2188 1.5859 2.7031-3.1523-14.746-26.18-15.812-28.469-1.332-2.8398 4.3242-1.2266 2.4297-3.7227-2.4648-3.2539-24.039-16.906-27.781-20.586-0.20312-0.20312-0.36328-0.37891-0.44922-0.52734-1.7578-2.7148-3.4375-24.277-2.6758-35.281 2.6758 12.852 15.062 23.672 15.281 30.055 2.6641 3.7227 13.41 13.742 16.352 15.812 0.96875-0.26953 1.5977-2.7891 2.5859-2.9336 4.4297 2.8789 9.0781 12.137 14.816 15.59 1.7578-0.89453 1.7734-3.8867 2.1797-6.1719 3.625 2.3086 5.0195 7.9258 8.2617 7.6055 1.4766-0.15234 0.81641-5.8906 2.0391-7.5312 2.2617 1.1992 3.543 6.1836 4.9297 5.5664 2.8125-1.2812 3.0117-9.043 2.6328-12.129-0.29688-2.3398-1.4609-5.375-2.1602-8.3594 2.0508 0.066407 3.3672 2.3086 4.2617 0.98438 1.6914-2.9453-6.8867-14.637-10.863-18.117-5.2422-3.3438-24.395-7.5273-27.82-15.977-2.3633-5.8125 2.0234-33.988 2.1016-35.887 0.80078-18.473 11.09-27.445 14.789-50.43 1.5391-6.9961 2.9062-18.453 4.2266-28.746-1.8555-26.125 1.0469-46.184-1.4102-59.641-1.0117-5.6016-2.4922-17.176-5.2695-22.148-2.0898-3.7422-8.9883-24.289-7.4609-27.355 1.6562-3.3555 4.8594-5.2695 7.4609-7.9688 0.93359-0.96875 3.6406-3.7617 6.7383-6.9766l-2.168 29.445 4.7109-32.082c0.11719-0.11719 0.22266-0.24609 0.35156-0.37109l0.55469 28.062 1.7461-30.469c0.16797-0.17188 0.33594-0.34766 0.50781-0.51953l2.5859 21.648-0.47656-23.879c0.38672-0.40234 0.75781-0.79688 1.0977-1.1641l2.918 17.27-0.91406-19.414c0.53906-0.58984 0.96875-1.0625 1.2383-1.3828 0.10156-0.10547 0.18359-0.21875 0.28516-0.33594l5.7969 9.9297-4.2734-11.988c0.15234-0.21094 0.29688-0.42188 0.44141-0.63672l2.8711 6.875-1.3398-9.1719c0.011719-0.039062 0.042969-0.078125 0.066407-0.11719l1.2773 6.2422 0.4375-9.0781c0.078126-0.125 0.14063-0.25391 0.20703-0.35938 0.011718-0.035156 0.035156-0.074219 0.042968-0.10156l2.9609 5.6836-1.7812-8.1992c0.035156-0.074218 0.054688-0.14453 0.089844-0.22266zm-0.26953-9.5547v-0.042969l0.035156 0.027344zm-42.223 42.027c-1.293 4.6914 2.4453 14.402 4.3516 18.883 2.0039 4.6914 8.7344 26.039 10.199 37.953 1.8555 14.93 8.2617 73.824-45.965 144.04-5.293 10.875-5.3633 57.992-7.1562 60.742-2.8008 4.2969-11.984 3.7422-16.996 2.6484-5.1641-1.1328-40.527-23.301-51.238-26.195-6.5-1.7461-36.496-6.7188-49.824-3.375-32.715 8.2266-52.617 24.426-63.605 42.312-6.5977 10.734-17.539 34.965-27.875 37.883-29.16 8.2305-58.133-8.3398-67.188-16.918-5.9922-5.6719-21.566-39.227-18.426-79.219 2.1445-27.328 22.133-58.566 35.637-74.047 27.895-31.969 59.367-59.152 145.43-64.254 5.4141-0.32031 37.004-1.3555 38.594-1.3555 0.76562 0-5.6953 53.82 33.113 85.898-23.277-36.82-23.277-88.492-23.277-88.492s8.3281-49.414 10.711-54.621c0.89062-1.9492 3.3828-10.305 3.9102-13.539 0.53125-3.2383-0.32422-24.633 10.176-35.391 13.73-14.055 52.77-32.898 71.898-37.379 5.6406-1.3203 15.934 2.1172 21.723 2.5039 1.2422 0.085938 2.9531 0.078125 4.8164 0.11328-0.23438 2.9609 0.042968 7.4883-0.44141 10.375 0.29297 0.76562 1.5625 2.1211 2.3633 2.2773 1.25 0.23438 4.1484-2.4805 6.3398-2.5742 0.53906-0.015624 2.1328-1.6055 1.3438-3.2383 1.3281 1.3906-0.59766 3.207-0.066406 4.0469 0.98438 1.5352 3.8516 0.89453 4.3789 0.71875 0.69922-0.23047 1.3906-1.0078 1.9609-1.9141 0.12891 0.3125 0.27344 0.60938 0.38672 0.92969 2.375 3.1211 3.5938 10.102 1.8555 14.605-4.7734 12.281-25.039 21.172-37.133 36.578z"/>
  <use x="70" y="644" xlink:href="#i"/>
  <use x="90.550781" y="644" xlink:href="#b"/>
  <use x="104.359375" y="644" xlink:href="#a"/>
  <use x="123.347656" y="644" xlink:href="#l"/>
  <use x="142.242188" y="644" xlink:href="#c"/>
  <use x="155.628906" y="644" xlink:href="#a"/>
  <use x="174.617188" y="644" xlink:href="#k"/>
  <use x="204.410156" y="644" xlink:href="#j"/>
  <use x="224.453125" y="644" xlink:href="#f"/>
  <use x="252.453125" y="644" xlink:href="#i"/>
  <use x="273" y="644" xlink:href="#e"/>
  <use x="292.933594" y="644" xlink:href="#b"/>
  <use x="306.742188" y="644" xlink:href="#u"/>
  <use x="316.339844" y="644" xlink:href="#h"/>
  <use x="333.007812" y="644" xlink:href="#c"/>
  <use x="346.390625" y="644" xlink:href="#f"/>
  <use x="374.390625" y="644" xlink:href="#g"/>
  <use x="394.914062" y="644" xlink:href="#b"/>
  <use x="408.71875" y="644" xlink:href="#a"/>
  <use x="427.710938" y="644" xlink:href="#h"/>
  <use x="444.375" y="644" xlink:href="#t"/>
  <use x="453.976562" y="644" xlink:href="#a"/>
  <use x="472.964844" y="644" xlink:href="#b"/>
  <use x="70" y="672" xlink:href="#s"/>
  <use x="82.183594" y="672" xlink:href="#b"/>
  <use x="95.992188" y="672" xlink:href="#d"/>
  <use x="115.226562" y="672" xlink:href="#r"/>
  <use x="154.152344" y="672" xlink:href="#c"/>
  <use x="167.535156" y="672" xlink:href="#e"/>
  <use x="187.46875" y="672" xlink:href="#a"/>
  <use x="216.207031" y="672" xlink:href="#q"/>
  <use x="239.640625" y="672" xlink:href="#d"/>
  <use x="258.878906" y="672" xlink:href="#p"/>
  <use x="278.8125" y="672" xlink:href="#o"/>
  <use x="308.492188" y="672" xlink:href="#g"/>
  <use x="329.015625" y="672" xlink:href="#b"/>
  <use x="342.820312" y="672" xlink:href="#d"/>
  <use x="362.058594" y="672" xlink:href="#n"/>
  <use x="371.65625" y="672" xlink:href="#a"/>
  <use x="390.648438" y="672" xlink:href="#m"/>
  <use x="407.242188" y="672" xlink:href="#c"/>
 </g>
</svg>
