<!-- Generated by IcoMoon.io -->
<svg version="1.1" xmlns="http://www.w3.org/2000/svg" width="32" height="32" viewBox="0 0 32 32">
<title>Owl</title>
<path d="M0.125-0.063h-0.063c0 0.063 0 0.063 0 0.063s-0.063-0.063-0.063-0.063c0 0 0.063-0.063 0.063-0.063s0 0.063 0 0.063h0.063c0-0.063-0.063-0.063-0.063-0.063-0.063 0-0.063 0.063-0.063 0.063 0 0.063 0 0.063 0.063 0.063 0 0 0.063 0 0.063-0.063zM0.063-0.063v0c0 0 0 0 0 0s0 0 0 0v0h-0.063v0.063h0.063v-0.063c0 0 0 0 0 0s0 0 0 0zM0.063-0.063c0 0 0 0 0 0-0.063 0-0.063 0-0.063 0 0 0.063 0 0.063 0.063 0.063 0 0 0 0 0 0v0c0 0 0 0 0 0s-0.063 0-0.063-0.063h0.063zM0.063-0.063h-0.063c0 0 0.063 0 0.063 0s0 0 0 0zM0.063 0v0c0 0 0 0 0 0v-0.063c0 0 0 0 0 0-0.063 0-0.063 0-0.063 0v0c0 0 0.063 0 0.063 0s0 0 0 0 0 0 0 0h-0.063c0 0 0 0 0 0.063 0 0 0 0 0 0 0.063 0 0.063 0 0.063 0s0 0 0 0zM0.063-0.063c0 0.063 0 0.063 0 0.063-0.063 0-0.063 0-0.063 0 0-0.063 0-0.063 0.063-0.063v0c0 0 0 0 0 0zM0.063 0v0c0 0 0 0 0 0s0 0 0 0v-0.125h-0.063v0.125c0 0 0 0 0.063 0 0 0 0 0 0 0zM0.063 0v-0.063c0 0 0 0 0 0-0.063 0-0.063 0-0.063 0 0 0.063 0 0.063 0.063 0.063 0 0 0 0 0 0v0zM0.063-0.063c0 0.063 0 0.063 0 0.063s-0.063 0-0.063-0.063c0 0 0.063 0 0.063 0s0 0 0 0zM0.063-0.063c0 0 0 0 0 0s0 0-0.063 0v-0.063 0.125c0.063 0 0.063 0 0.063 0s0 0 0-0.063zM0.063-0.063c0 0.063 0 0.063 0 0.063s-0.063 0-0.063-0.063c0 0 0.063 0 0.063 0s0 0 0 0zM0.063-0.063v0 0.063c0 0-0.063 0-0.063 0s0 0 0 0v0.063c0 0 0 0 0 0 0.063 0 0.063 0 0.063-0.063zM0.125 0v-0.125h-0.125v0.125h0.063l0.063-0.063v0.063zM0.063 0v-0.063h-0.063v0.063zM0.063-0.063v-0.063h-0.063v0.063zM0.063 0v0c0-0.063 0-0.063 0-0.063v0c-0.063 0-0.063 0-0.063 0s0.063 0 0.063 0c0 0 0 0 0 0v0c0 0 0 0 0 0-0.063 0-0.063 0-0.063 0s0 0 0 0l0.063 0.063c0 0 0 0 0 0s0 0 0 0-0.063 0-0.063 0v0c0 0 0 0 0.063 0 0 0 0 0 0 0zM0.063 0v-0.063c0 0 0 0 0 0s0 0 0 0v-0.063h-0.063v0.125h0.063v-0.063c0 0 0 0 0 0s0 0 0 0v0.063zM0.063 0v-0.063h-0.063v-0.063 0.125l0.063-0.063v0.063zM0.063-0.063v0 0 0c0 0 0-0.063 0-0.063s0 0 0 0v0c0 0 0 0 0 0-0.063 0-0.063 0-0.063 0.063v0 0 0 0 0.063h0.063v-0.063zM0.063-0.063c0 0 0 0 0 0-0.063 0-0.063 0-0.063 0 0 0.063 0 0.063 0.063 0.063 0 0 0 0 0-0.063zM0.063-0.063c0 0.063 0 0.063 0 0.063s-0.063 0-0.063-0.063c0 0 0.063 0 0.063 0s0 0 0 0zM0.125 0v-0.063c0 0 0 0 0 0-0.063 0-0.063 0-0.063 0s0 0 0 0 0 0-0.063 0v0 0 0c0 0 0.063 0 0.063 0s0 0 0 0v0c0 0 0 0 0 0 0.063 0 0.063 0 0.063 0v0.063zM0.125 0v-0.125h-0.125v0.125h0.063zM0.063 0v-0.063c0 0.063 0 0.063 0 0.063s-0.063 0-0.063-0.063v0 0 0.063c0 0 0 0 0.063 0 0 0 0 0 0 0v0zM0.063 0v-0.063c0 0 0 0 0 0s0 0 0 0v0h-0.063v0.063h0.063v-0.063c0 0 0 0 0 0s0 0 0 0v0.063zM0.125-0.063c0-0.063-0.063-0.063-0.063-0.063h-0.063v0.125h0.063v-0.063c0 0 0.063 0 0.063 0zM0.063-0.063c0 0 0 0 0 0v0 0 0c0 0 0 0 0 0zM0.063 0v-0.063h-0.063v0.063c0 0 0 0 0 0s0 0 0 0v0.063c0 0 0 0 0 0s0.063-0.063 0.063-0.063zM0.063-0.063v-0.063h-0.063v0.063zM0.063 0v0c0 0 0 0 0 0s-0.063 0-0.063-0.063c0 0 0 0 0.063 0 0 0 0 0 0 0v0c0 0 0 0 0 0-0.063 0-0.063 0-0.063 0 0 0.063 0 0.063 0.063 0.063 0 0 0 0 0 0zM23.938 21.125c0-0.125 0-0.313-0.063-0.438 0-0.125 0-0.313-0.063-0.438-0.063-0.188-0.125-0.375-0.188-0.563-0.063-0.125-0.125-0.25-0.188-0.375s-0.125-0.25-0.188-0.375c-0.063-0.125-0.063-0.25-0.125-0.375-0.063-0.063-0.063-0.063 0-0.125 0 0 0.063 0 0.063 0 0.125 0.063 0.313 0.063 0.438 0.063 0.063 0 0.063-0.063 0.063-0.063 0-0.125 0-0.25 0-0.313s-0.063-0.125-0.063-0.188c-0.125-0.063-0.188-0.25-0.25-0.375 0-0.125 0-0.188-0.063-0.25 0-0.125-0.063-0.25-0.125-0.375-0.125-0.438-0.25-0.875-0.313-1.313-0.063-0.063-0.063-0.188-0.125-0.313-0.063-0.063-0.063-0.125-0.125-0.188 0-0.125 0-0.188-0.063-0.25 0 0 0-0.063 0-0.063 0.063-0.063 0.063-0.063 0-0.125 0-0.063 0-0.125-0.063-0.188 0 0 0-0.063 0-0.063 0.125-0.063 0.063-0.188 0.063-0.25-0.063-0.188-0.063-0.438-0.125-0.625 0-0.063 0-0.063 0.063-0.125 0.063 0 0-0.063 0-0.063-0.063-0.188-0.125-0.375-0.25-0.5 0-0.063 0-0.125 0.063-0.188 0 0 0 0 0-0.063-0.063-0.063-0.063-0.188-0.125-0.25-0.063-0.188-0.125-0.313-0.125-0.438-0.063-0.125-0.125-0.313-0.188-0.438s-0.125-0.25-0.188-0.313c0-0.063-0.063-0.125-0.063-0.188 0 0 0.063 0 0.125 0 0.063 0.063 0.125 0.125 0.125 0.188 0.063 0 0.063 0 0.125 0s0.063 0 0.063-0.063c-0.063-0.063-0.125-0.188-0.125-0.313-0.125-0.25-0.25-0.5-0.313-0.688-0.125-0.188-0.125-0.375-0.25-0.5-0.063-0.125-0.125-0.313-0.188-0.438-0.063-0.063-0.125-0.188-0.125-0.25-0.063-0.125-0.125-0.25-0.25-0.375-0.188-0.25-0.375-0.563-0.625-0.813s-0.5-0.5-0.813-0.688c-0.188-0.188-0.438-0.313-0.625-0.438-0.125-0.063-0.188-0.125-0.313-0.188s-0.188-0.063-0.313-0.125c0 0 0 0 0 0-0.25-0.125-0.438-0.25-0.563-0.563 0 0 0.063-0.688 0.063-1 0.063-0.5-0.063-1-0.25-1.5-0.125-0.313-0.188-0.688-0.125-1 0-0.063 0-0.125 0-0.25 0 0 0 0 0 0 0-0.188 0-0.438 0-0.688 0 0 0-0.063 0-0.063 0-0.188 0-0.25-0.188-0.125-0.5 0.25-1 0.5-1.5 0.688-0.125 0.063-0.25 0.125-0.375 0.125-0.125 0.063-0.188 0.063-0.313 0.063h-2.063c-0.125 0-0.25-0.063-0.375-0.125-0.188-0.063-0.313-0.125-0.438-0.188-0.313-0.125-0.625-0.25-1-0.438-0.125-0.063-0.313-0.125-0.438-0.188-0.188-0.125-0.188-0.125-0.188 0.125 0 0 0 0 0 0.063 0 0.375 0 0.813 0 1.188 0 0.125 0 0.25-0.063 0.375 0 0 0 0 0 0-0.188 0.5-0.313 1-0.375 1.5 0 0.5 0 0.938 0.188 1.375 0.063 0 0.125 0.188 0.125 0.313 0 0.375 0.125 0.75 0.188 1.188 0 0.125 0 0.25 0.063 0.438 0 0 0 0 0 0 0 0.125 0 0.25 0 0.438 0.063 0.25 0.125 0.5 0.25 0.75 0.063 0.188 0.125 0.313 0.188 0.5 0.125 0.188 0.188 0.375 0.25 0.563 0 0.063 0.063 0.125 0.063 0.188 0.063 0.063 0.125 0.125 0.125 0.25 0 0.25 0.063 0.438 0.125 0.625 0.125 0.375 0.313 0.75 0.5 1.063 0.063 0.125 0.125 0.125 0.188 0.25s0.188 0.188 0.25 0.313c0.063 0.063 0.188 0.125 0.313 0.25 0.063 0.063 0.125 0.125 0.188 0.188 0.063 0 0.188 0.063 0.25 0.125 0.063 0.125 0.188 0.25 0.313 0.438 0.063 0.125 0.188 0.25 0.313 0.375s0.25 0.125 0.375 0.188c0.063 0 0.125 0 0.125 0.063 0.063 0.063 0.125 0.125 0.125 0.188 0.188 0.188 0.375 0.313 0.625 0.375 0.125 0.063 0.125 0.063 0.125 0.188 0 0 0 0 0 0 0 0.188 0 0.375 0.063 0.563 0 0 0 0.063-0.063 0.063-0.063 0.063-0.125 0.125-0.188 0.188-0.063 0-0.063 0.063-0.125 0.063-0.125 0.063-0.313 0.188-0.438 0.188-0.063 0-0.063 0-0.063 0.063-0.063 0-0.125 0-0.188 0.063-0.25 0.063-0.438 0.188-0.688 0.313-0.063 0-0.125 0-0.188 0.125-0.063 0.063-0.063 0.188-0.125 0.25 0 0.063 0.063 0.063 0.063 0.125-0.125 0.063-0.25 0.125-0.375 0.188 0 0 0 0 0 0-0.188 0.25-0.125 0.5-0.125 0.75 0 0.375 0 0.688 0.063 1s0.063 0.563 0.063 0.813c-0.063 0.188-0.063 0.438-0.063 0.625 0 0.75 0.125 1.563-0.063 2.313 0 0 0 0 0 0-0.063 0.625-0.063 1.188-0.125 1.75 0 0.688 1.563 0.438 2 0.438 0.875 0 1.75 0 2.625 0 0.375 0 0.813 0.063 0.75-0.438-0.063-0.25-0.063-0.5-0.063-0.75-0.063-0.5-0.063-1.063-0.188-1.563-0.188-0.75-0.188-1.438 0-2.188 0.063-0.125 0.063-0.25 0-0.375 0-0.25 0-0.438 0-0.625 0.063-0.438 0.063-0.875 0.125-1.25 0-0.313-0.063-0.438-0.375-0.625 0 0-0.063-0.063-0.063-0.063s0 0 0 0c-0.063-0.063-0.063-0.063-0.125-0.063 0 0 0 0 0 0 0.063-0.063 0-0.063-0.063-0.063s-0.188 0-0.25-0.063c0 0 0 0 0 0 0-0.125 0-0.188 0-0.313 0.063 0 0.188 0 0.25-0.063 0.125 0 0.188 0 0.313 0.063 0 0.063 0 0.063 0.063 0.063 0.125 0.125 0.25 0.188 0.438 0.25s0.313 0.125 0.5 0.125c0.063 0 0.125 0 0.188 0.063 0 0 0.063 0.063 0.063 0.063 0.063 0 0.125 0 0.125 0.063 0.188 0.125 0.375 0.25 0.5 0.438 0.063 0.063 0.125 0.125 0.25 0.125 0 0 0 0 0 0.063 0.125 0.125 0.313 0.313 0.5 0.375 0.063 0.063 0.063 0.063 0.125 0.063s0.063 0 0.063-0.063 0.063-0.063 0.063-0.063 0.063 0 0.063 0c0.063 0.063 0.063 0.063 0.125 0.125 0.063 0 0.063 0.063 0.125 0.063 0 0.063 0.063 0.125 0.125 0.125s0.063-0.063 0.125-0.063c0.063 0.063 0 0.125 0.063 0.125 0 0 0 0.063 0 0.063 0.063 0 0.063 0.063 0.125 0.063 0.125 0.25 0.313 0.375 0.438 0.563 0.188 0.25 0.438 0.438 0.625 0.688 0.125 0.125 0.313 0.25 0.438 0.375 0 0 0.063 0.063 0.063 0.063 0.063 0 0.188 0.063 0.25 0.125 0.188 0.063 0.313 0.188 0.438 0.313 0.125 0.063 0.188 0.188 0.25 0.313 0.063 0.063 0.125 0.125 0.188 0.188 0 0 0 0.063 0 0 0.063 0 0.063 0 0.063 0zM21.375 12.75c0.125-0.063 0.188-0.125 0.25-0.188s0.063-0.063 0-0.063c-0.063-0.063-0.125-0.188-0.25-0.188 0 0 0-0.063 0-0.063 0-0.063 0-0.063 0-0.063 0.063 0 0.063 0 0.063 0 0.063 0.125 0.188 0.188 0.313 0.25 0 0.063 0.063 0.125 0 0.188-0.125 0.125-0.313 0.188-0.5 0.188 0 0-0.063 0-0.063 0-0.125 0-0.25-0.063-0.438-0.063 0 0 0 0-0.063-0.063-0.125 0-0.25-0.063-0.375-0.063-0.063 0.063-0.063 0.188-0.125 0.25-0.125 0.063-0.313 0.063-0.438-0.063 0 0 0 0-0.063 0 0 0.125-0.063 0.188-0.125 0.25s-0.125 0.063-0.188 0.063-0.25-0.063-0.375-0.125c0 0 0 0-0.063 0.063-0.125 0.125-0.313 0.125-0.438 0-0.063-0.063-0.25 0.063-0.313 0.125-0.125 0-0.25 0.063-0.375 0.063-0.25 0-0.5-0.063-0.75-0.188s-0.5-0.313-0.75-0.438c0 0-0.063-0.063-0.063-0.063 0.063-0.063 0.063-0.063 0.063-0.063 0.063 0 0.063 0 0.063 0.063 0.063 0.125 0.188 0.125 0.313 0.188s0.188 0.188 0.313 0.25c0.188 0.063 0.438 0.125 0.625 0.125 0.188 0.063 0.438 0 0.625-0.063 0.063 0 0.063-0.063 0.125-0.063 0.063-0.063 0.063-0.063 0.125 0s0.125 0.063 0.188 0.063c0.063 0 0.125-0.063 0.188-0.125 0.063 0 0.125-0.063 0.188 0s0.313 0.125 0.438 0.063c0.063 0 0.188-0.188 0.125-0.25 0-0.063 0.063-0.063 0.063-0.125 0.063 0 0.063 0.063 0.063 0.063 0.063 0.125 0.25 0.188 0.375 0.125 0.063 0 0.125-0.125 0.125-0.188s0-0.063 0-0.063c0-0.063 0-0.063 0-0.063 0.063 0 0.063 0 0.063 0 0.25 0.125 0.438 0.188 0.688 0.25 0.125 0 0.25 0 0.375 0zM18.625 10.813c0.063-0.063 0.125-0.25 0.125-0.313s0-0.063 0.063-0.063c0.063-0.063 0.063 0 0.063 0 0.063 0.125 0.188 0.188 0.313 0.125 0.063 0 0.188-0.125 0.188-0.188s0-0.063 0-0.063c-0.063-0.063 0-0.063 0-0.063 0.063 0 0.063 0 0.063 0 0.25 0.125 0.438 0.188 0.688 0.25 0.125 0 0.25 0 0.375 0 0.125-0.063 0.188-0.125 0.25-0.188 0.063 0 0-0.063 0-0.063-0.063-0.063-0.125-0.188-0.25-0.188 0 0-0.063-0.063-0.063-0.063s0.063-0.063 0.063-0.063c0.063 0 0.063 0 0.063 0.063 0.063 0.063 0.188 0.125 0.25 0.188s0.063 0.125 0.063 0.188c-0.188 0.125-0.313 0.188-0.5 0.188 0 0-0.063 0-0.063 0-0.125 0.063-0.313 0-0.438-0.063 0 0-0.063 0-0.063-0.063-0.125 0-0.25-0.063-0.375 0-0.063 0-0.063 0.125-0.125 0.188-0.125 0.063-0.313 0.063-0.438-0.063 0 0 0 0-0.063 0.063 0 0.063-0.063 0.125-0.125 0.188s-0.125 0.063-0.188 0.063-0.25-0.063-0.375-0.125c0 0 0 0.063-0.063 0.063-0.125 0.125-0.313 0.125-0.438 0-0.125-0.063-0.25 0.063-0.313 0.125-0.125 0-0.25 0.063-0.375 0.063-0.25 0-0.5-0.063-0.75-0.125-0.25-0.125-0.5-0.375-0.75-0.5 0 0-0.063-0.063-0.063-0.063 0-0.063 0.063-0.063 0.063-0.063 0.063 0 0.063 0.063 0.063 0.063 0.063 0.125 0.188 0.125 0.313 0.188 0.063 0.063 0.188 0.188 0.313 0.25 0.188 0.125 0.438 0.188 0.625 0.188s0.375-0.063 0.625-0.125c0 0 0.063-0.063 0.125-0.063 0.063-0.063 0.063-0.063 0.125 0s0.125 0.063 0.188 0.063c0.063 0 0.125-0.063 0.188-0.125 0.063 0 0.125 0 0.188 0 0.063 0.063 0.313 0.125 0.438 0.125zM13.5 5.25c0.125-0.063 0.125-0.188 0.25-0.25 0.063-0.063 0.125 0.063 0.125 0.125 0.063 0.063 0.125 0.188 0.125 0.313-0.063 0.125-0.125 0.313-0.125 0.438 0 0.063-0.063 0.063-0.063 0.125 0 0 0 0.063 0 0.125s0 0.063-0.063 0.063-0.063-0.063-0.063-0.063c0-0.125-0.063-0.25-0.063-0.375-0.063-0.063-0.063-0.188-0.125-0.313 0 0 0-0.063 0-0.125-0.063 0 0-0.063 0-0.063zM15.625 2.813c0.5 0 0.938 0.25 1.125 0.875 0.188 0.75 0.125 1.5-0.375 2.188-0.25 0.438-0.688 0.688-1.125 0.75 0 0 0 0-0.063 0.063 0.063-0.063 0.063-0.063 0.063-0.063 0.5-0.188 0.875-0.438 1.188-0.875 0.25-0.438 0.375-0.938 0.313-1.438 0-0.25-0.063-0.5-0.188-0.75-0.188-0.438-0.5-0.625-0.938-0.625 0 0 0-0.063-0.063-0.063 0 0 0 0 0 0 0-0.063 0.063-0.063 0.063-0.063zM15.25 4.5c0.063 0 0.063 0 0.125 0s0.125-0.063 0.188-0.125c0-0.125 0-0.25-0.063-0.313 0-0.063 0-0.125-0.125-0.125 0 0-0.063-0.063-0.063-0.063 0-0.063 0.063-0.063 0.063-0.063 0.125-0.063 0.188 0 0.188 0.063s0.063 0.063 0.063 0.125c0.125 0.125 0.125 0.375 0.063 0.563-0.125 0.125-0.25 0.188-0.438 0.188-0.25 0-0.438-0.188-0.5-0.438-0.063-0.125 0-0.313 0.125-0.438 0.063-0.063 0.063-0.063 0.125-0.125 0.063 0 0.125 0 0.125 0.063s0 0.063-0.063 0.063c-0.125 0.063-0.188 0.25-0.188 0.375 0 0.063 0.063 0.063 0.063 0.125 0.063 0.125 0.188 0.188 0.313 0.125zM12.5 3.25c0.063 0 0.063-0.063 0.125-0.063 0 0.063 0.063 0.063 0.125 0.125 0.125 0.063 0.25 0.125 0.375 0.25 0.125 0.063 0.25 0.188 0.313 0.313 0.063 0.063 0.063 0.125 0.125 0.188 0.063 0.125 0.063 0.188 0.125 0.25 0.063 0 0.063 0.063 0.063 0.063 0.063 0 0.063-0.063 0.125-0.063 0.063-0.063 0.125-0.125 0.125-0.25 0.063-0.063 0.063-0.125 0.125-0.188 0.125-0.125 0.188-0.25 0.313-0.313 0.125-0.125 0.313-0.188 0.438-0.25 0.063-0.063 0.125-0.125 0.188-0.188 0 0 0 0.063 0 0.063 0.063 0 0.063 0 0.063 0s0 0 0 0.063c-0.063 0.063-0.125 0.125-0.188 0.125-0.063 0.063-0.125 0.063-0.188 0.125-0.188 0.125-0.313 0.25-0.5 0.375-0.125 0.125-0.188 0.313-0.25 0.438-0.063 0.063-0.125 0.375-0.25 0.313-0.063 0-0.063-0.125-0.063-0.125-0.063-0.125-0.063-0.188-0.125-0.25-0.063-0.125-0.188-0.25-0.25-0.375-0.125-0.125-0.313-0.25-0.438-0.375-0.063-0.063-0.188-0.063-0.25-0.125 0-0.063-0.063-0.063-0.125-0.125 0 0 0 0 0 0zM12.25 3.875c-0.188 0.063-0.25 0.25-0.188 0.375 0 0.063 0.063 0.188 0.25 0.188 0 0 0.063 0.063 0.125 0.063 0.313 0 0.375-0.313 0.25-0.563 0 0 0-0.063 0.063-0.063s0.063 0 0.125 0.063c0 0.063 0 0.188 0 0.25 0 0.125 0 0.25-0.125 0.375-0.063 0.063-0.188 0.125-0.313 0.125s-0.188 0-0.25-0.063c-0.125 0-0.125-0.063-0.188-0.125-0.188-0.188-0.125-0.625 0.063-0.75 0.063 0 0.125-0.063 0.188 0 0 0.063 0 0.063 0 0.125zM10.813 3.625c0.188-0.563 0.625-0.875 1.125-0.813 0.063 0 0.188 0 0.25 0.063 0 0-0.063 0-0.063 0.063-0.063-0.063-0.125-0.063-0.125-0.063-0.5 0-0.813 0.188-1 0.625-0.125 0.25-0.188 0.5-0.188 0.75-0.063 0.5 0.063 1 0.313 1.438 0.313 0.438 0.688 0.688 1.188 0.875 0 0 0.063 0 0.063 0.063 0 0-0.063 0-0.063 0-0.438-0.125-0.875-0.375-1.125-0.813-0.5-0.625-0.563-1.375-0.375-2.188zM23.063 18.313c-0.063 0.063-0.063 0.063-0.125 0-0.063 0-0.125-0.063-0.188-0.063-0.125-0.125-0.25-0.125-0.375-0.188-0.188-0.125-0.438-0.25-0.625-0.313-0.25-0.125-0.5-0.25-0.688-0.375-0.438-0.188-0.813-0.375-1.188-0.625-0.25-0.125-0.5-0.25-0.75-0.438-0.125-0.063-0.313-0.188-0.5-0.25-0.125-0.063-0.25-0.188-0.375-0.25-0.063-0.063-0.125-0.125-0.25-0.125-0.125-0.125-0.188-0.25-0.25-0.313-0.063-0.125-0.188-0.25-0.313-0.375-0.063-0.063-0.25-0.125-0.313-0.188-0.188-0.063-0.313-0.125-0.5-0.25-0.125-0.125-0.25-0.313-0.438-0.438-0.125-0.125-0.25-0.188-0.375-0.313s-0.313-0.25-0.438-0.375c-0.125-0.063-0.188-0.125-0.313-0.188-0.25-0.188-0.25-0.313-0.25-0.563 0-0.125 0-0.188-0.063-0.25-0.125-0.125-0.25-0.25-0.438-0.438 0 0 0-0.063-0.063-0.125-0.063-0.25-0.188-0.5-0.25-0.75-0.188-0.313-0.313-0.625-0.438-0.938-0.063-0.063 0-0.188 0-0.25 0-0.313-0.063-0.625-0.063-0.938 0-0.063 0-0.188 0-0.313 0 0 0-0.063 0.063-0.063 0.063-0.125 0.188-0.25 0.25-0.375 0-0.125 0.063-0.125 0.125-0.125s0.063 0.063 0 0.063-0.125 0.25-0.188 0.313c-0.063 0.125-0.125 0.25-0.125 0.313 0 0.188 0 0.313 0.063 0.438 0 0.125-0.063 0.25 0 0.375v0.375c0.063 0.25 0.188 0.438 0.313 0.688 0.063 0.188 0.125 0.375 0.25 0.563 0.063 0.125 0.063 0.25 0.125 0.313 0.063 0.125 0.063 0.188 0.125 0.25 0.063 0.125 0.188 0.25 0.25 0.313s0.125 0.125 0.125 0.188c0 0.063 0.063 0.125 0.125 0.125s0.063 0.063 0.063 0.125c0 0.063-0.063 0.188 0 0.25 0 0.125 0.063 0.188 0.125 0.313 0.125 0.063 0.188 0.063 0.313 0.188 0.063 0.063 0.125 0.125 0.188 0.188 0.063 0 0.125 0.063 0.125 0.063 0.063 0.125 0.188 0.188 0.313 0.25 0.125 0.125 0.25 0.188 0.313 0.313 0.125 0.125 0.25 0.188 0.375 0.313s0.313 0.313 0.5 0.375c0.188 0.063 0.375 0.063 0.5 0.25 0 0.063 0.063 0.125 0.063 0.188 0.125 0.188 0.375 0.375 0.563 0.5 0.25 0.188 0.5 0.313 0.688 0.438 0.25 0.188 0.5 0.313 0.75 0.438 0.188 0.125 0.375 0.25 0.563 0.375 0.25 0.125 0.438 0.25 0.688 0.375 0.375 0.188 0.75 0.375 1.125 0.563 0.188 0.063 0.438 0.188 0.625 0.25 0.063 0 0.063 0.063 0.125 0 0.063 0 0.063 0.063 0.063 0.063s0 0.063 0 0.063z"></path>
</svg>
