<!-- Generated by IcoMoon.io -->
<svg version="1.1" xmlns="http://www.w3.org/2000/svg" width="32" height="32" viewBox="0 0 32 32">
<title>Pangolin</title>
<path d="M0.188-0.063v0c0 0-0.063 0-0.063 0-0.063 0-0.063 0-0.063-0.063s0-0.063 0.063-0.063c0 0 0.063 0 0.063 0.063v0c0-0.063 0-0.125-0.063-0.125s-0.125 0.063-0.125 0.125c0 0.063 0.063 0.125 0.125 0.125s0.063 0 0.063-0.063zM0.125-0.125v-0.063c0 0 0 0 0 0-0.063 0-0.063 0.063-0.063 0.063v-0.063h-0.063v0.188h0.063v-0.063c0-0.063 0-0.063 0.063-0.063 0 0 0 0 0 0zM0.188-0.063c0-0.063-0.063-0.125-0.125-0.125 0 0-0.063 0.063-0.063 0.125s0.063 0.063 0.063 0.063 0.063 0 0.125-0.063h-0.063c0 0 0 0.063-0.063 0.063 0 0 0-0.063 0-0.063h0.125zM0.125-0.125h-0.063c0 0 0 0 0 0 0.063 0 0.063 0 0.063 0zM0.188 0v0c-0.063 0-0.063 0-0.063 0v-0.125c0 0 0-0.063-0.063-0.063 0 0-0.063 0.063-0.063 0.063h0.063c0 0 0 0 0 0 0.063 0 0.063 0 0.063 0s0 0-0.063 0v0c-0.063 0.063-0.063 0.063-0.063 0.063 0 0.063 0.063 0.063 0.063 0.063s0.063 0 0.063 0c0 0 0 0 0 0zM0.125-0.063c0 0 0 0-0.063 0 0 0 0 0 0 0s0 0 0 0v0c0.063 0 0.063 0 0.063 0zM0.063 0v0c0 0 0 0 0 0s0-0.063 0-0.063v-0.125h-0.063v0.125c0 0.063 0.063 0.063 0.063 0.063s0 0 0 0zM0.188 0v-0.25h-0.063v0.125c0-0.063 0-0.063-0.063-0.063 0 0-0.063 0.063-0.063 0.125 0 0 0.063 0.063 0.063 0.063 0.063 0 0.063 0 0.063 0v0zM0.125-0.063c0 0 0 0-0.063 0 0 0 0 0 0 0 0-0.063 0-0.063 0-0.063 0.063 0 0.063 0 0.063 0.063zM0.188-0.063c0-0.063-0.063-0.125-0.063-0.125-0.063 0-0.063 0-0.063 0.063v-0.125h-0.063v0.25h0.063c0 0 0 0 0.063 0 0 0 0.063 0 0.063-0.063zM0.125-0.063c0 0 0 0 0 0-0.063 0-0.063 0-0.063 0 0-0.063 0-0.063 0.063-0.063 0 0 0 0 0 0.063zM0.188-0.188h-0.063l-0.063 0.125v-0.125h-0.063l0.063 0.188c0 0 0 0.063 0 0.063s0 0-0.063 0v0c0.063 0 0.063 0 0.063 0s0 0 0.063-0.063zM0.188-0.063c0-0.063-0.063-0.125-0.125-0.125 0 0-0.063 0.063-0.063 0.125s0.063 0.063 0.063 0.063 0.125 0 0.125-0.063zM0.125-0.063c0 0 0 0-0.063 0 0 0 0 0 0 0 0-0.063 0-0.063 0-0.063 0.063 0 0.063 0 0.063 0.063zM0.188-0.063c0-0.063 0-0.063-0.063-0.063v0c-0.063 0-0.063 0-0.063-0.063 0 0 0 0 0.063 0 0 0 0 0 0 0.063h0.063c0-0.063-0.063-0.125-0.063-0.125-0.063 0-0.125 0.063-0.125 0.063 0 0.063 0.063 0.063 0.063 0.063l0.063 0.063c0 0 0 0 0 0s0 0 0 0c-0.063 0-0.063 0-0.063 0h-0.063c0 0.063 0.063 0.063 0.125 0.063s0.063 0 0.063-0.063zM0.188 0v-0.125c0 0-0.063-0.063-0.063-0.063-0.063 0-0.063 0-0.063 0.063v-0.063h-0.063v0.188h0.063v-0.125c0 0 0 0 0.063 0 0 0 0 0 0 0v0.125zM0.125-0.125v-0.063h-0.063c0 0 0 0 0 0s0 0 0.063 0v-0.063c-0.063 0-0.063 0-0.063 0s-0.063 0.063-0.063 0.063v0 0 0.188h0.063v-0.125zM0.25 0v-0.125c0 0 0-0.063-0.063-0.063 0 0 0 0-0.063 0.063 0-0.063 0-0.063 0-0.063-0.063 0-0.063 0-0.063 0.063v-0.063h-0.063v0.188h0.063v-0.125c0 0 0 0 0 0 0.063 0 0.063 0 0.063 0v0.125h0.063v-0.125c0 0 0 0 0 0s0 0 0 0v0.125zM0.188 0v-0.125c0 0-0.063-0.063-0.063-0.063-0.063 0-0.063 0-0.063 0.063v-0.125h-0.063v0.25h0.063v-0.125c0 0 0 0 0.063 0 0 0 0 0 0 0v0.125zM0.188 0v-0.25h-0.063v0.188l-0.063-0.188h-0.063v0.25h0.063v-0.125l0.063 0.125zM0.188 0v-0.188h-0.063v0.125c0 0 0 0-0.063 0 0 0 0 0 0 0v-0.125h-0.063v0.125c0 0.063 0.063 0.063 0.063 0.063 0.063 0 0.063 0 0.063 0v0zM0.188-0.125c0-0.063 0-0.125-0.063-0.125h-0.125v0.25h0.063v-0.063h0.063c0.063 0 0.063-0.063 0.063-0.063zM0.125-0.125c0 0 0 0 0 0h-0.063v-0.063h0.063c0 0 0 0 0 0.063zM0.063 0v-0.188h-0.063v0.188c0 0 0 0.063 0 0.063s0 0 0 0v0c0 0 0 0 0 0 0.063 0 0.063 0 0.063-0.063zM0.063-0.188v-0.063h-0.063v0.063zM0.188-0.063h-0.063c0 0 0 0-0.063 0 0 0 0 0 0 0 0-0.063 0-0.063 0-0.063 0.063 0 0.063 0 0.063 0h0.063c0 0-0.063-0.063-0.125-0.063 0 0-0.063 0.063-0.063 0.125s0.063 0.063 0.063 0.063 0.063 0 0.125-0.063zM7.5 11.625c0 0.125-0.125 0.25-0.313 0.25-0.125 0-0.25-0.125-0.25-0.25 0-0.188 0.125-0.313 0.25-0.313 0.188 0 0.313 0.125 0.313 0.313zM11.063 11.313c-1.563-0.188-2.375 0.438-4.313 1.938-1.688 1.25-2 0.25-1.938-0.188 0.063-0.625 1.5-3.563 2.938-5.375 1.688 0.438 3 1.875 3.313 3.625zM7.688 11.625c0-0.25-0.25-0.5-0.5-0.5s-0.438 0.25-0.438 0.5c0 0.25 0.188 0.438 0.438 0.438s0.5-0.188 0.5-0.438zM6.75 14.563v0.875l1.25 1.375-0.625 0.438 2.063 1.688-0.75 0.5 2.625 1.188-0.688 0.625 2.938 0.5-0.438 0.625 3-0.313-0.25 0.75 3.25-1.125-0.125 0.813 2.938-2.063 0.063 0.813 2.063-3 0.5 0.875 0.875-3.563 0.688 0.5-0.125-3.5 0.813 0.313-1.313-3.125h0.875l-2.063-2.563 0.938-0.125-2.875-2 0.875-0.5-3.375-0.875 0.563-0.75-3 0.063v-0.875l-2.313 0.875-0.125-0.75-1.813 1.313-0.438-0.688-1.375 1.625-0.375-0.563-1.188 1.813-0.563-0.5-1.063 1.813c1.938 0.625 3.375 2.313 3.625 4.375 0 0-1.375 1.938 0.688 3.563-0.063-0.188-0.375-3.313 2.875-3.563 1.625-0.125 2.938 1.313 2.938 3 0 0.438-0.125 0.938-0.313 1.375-1 1.813-3.938 1.875-4.938 1.813-2.75 0-6.313-3.125-6.313-3.125z"></path>
</svg>
