<svg version="1.1" id="Layer_1" xmlns="http://www.w3.org/2000/svg" xmlns:xlink="http://www.w3.org/1999/xlink" x="0px" y="0px"
	 width="100%" viewBox="0 0 1622 3341" enable-background="new 0 0 1622 3341" xml:space="preserve">
<path fill="#FFFFFF" opacity="1.000000" stroke="none" 
	d="
M1624.000000,1128.000000 
	C1624.000000,1867.333374 1624.000000,2605.666748 1624.000000,3344.000000 
	C1083.333374,3344.000000 542.666687,3344.000000 2.000000,3344.000000 
	C2.000000,2230.000000 2.000000,1116.000000 2.000000,2.000000 
	C542.666687,2.000000 1083.333374,2.000000 1624.000000,2.000000 
	C1624.000000,377.000000 1624.000000,752.000000 1624.000000,1128.000000 
M193.665085,373.860687 
	C193.660309,374.193726 193.651367,374.526794 193.651367,374.859833 
	C193.645737,1324.518799 193.640625,2274.177979 193.635574,3223.836914 
	C193.635559,3226.379883 193.635574,3228.923096 193.635574,3231.525879 
	C350.110352,3231.525879 505.573669,3231.525879 661.694580,3231.525879 
	C661.694580,3227.345703 661.694580,3223.739746 661.694580,3220.133545 
	C661.694580,2274.474365 661.694885,1328.815308 661.681946,383.156128 
	C661.681885,379.496552 661.490295,375.836975 661.104919,370.470795 
	C657.802979,370.260956 654.501160,369.868256 651.199158,369.867584 
	C502.010712,369.837250 352.822266,369.840393 203.633820,369.848694 
	C200.975113,369.848816 198.304031,369.837311 195.666763,370.106323 
	C195.038773,370.170410 194.523926,371.343628 193.665085,373.860687 
M1048.944702,3061.657959 
	C1046.585449,3070.455078 1044.226196,3079.251953 1041.866821,3088.049072 
	C1039.538940,3085.445557 1038.611206,3083.005859 1037.931519,3080.499023 
	C1033.146851,3062.853516 1028.427979,3045.190186 1023.658020,3027.540771 
	C1020.859741,3017.187012 1019.908630,3016.459229 1009.433960,3016.247559 
	C996.888611,3015.994385 995.730103,3016.879883 992.559875,3029.195312 
	C992.311279,3030.161133 992.174194,3031.156006 991.927612,3032.122559 
	C987.177795,3050.737793 982.419434,3069.351074 977.190430,3089.812988 
	C975.655396,3085.969238 974.624207,3083.958740 974.036560,3081.826172 
	C968.738647,3062.599121 963.459412,3043.366211 958.330750,3024.093750 
	C957.418396,3020.665283 956.439514,3017.443604 952.475281,3016.965576 
	C944.988586,3016.062988 937.404236,3014.938477 929.513611,3019.040283 
	C930.377258,3023.201172 930.925171,3027.090576 932.002869,3030.827393 
	C938.634888,3053.822021 945.415344,3076.773926 952.090271,3099.756348 
	C958.620544,3122.240723 958.591125,3122.249023 982.296631,3120.482422 
	C982.960815,3120.433105 983.624451,3120.349609 984.289246,3120.339355 
	C988.862854,3120.269043 991.737732,3118.351807 992.672058,3113.551758 
	C993.559326,3108.993408 994.958130,3104.534912 996.127991,3100.031494 
	C999.572998,3086.770752 1003.015930,3073.509766 1007.066040,3057.914062 
	C1008.607727,3062.044434 1009.412781,3063.794922 1009.921021,3065.627441 
	C1014.096497,3080.681885 1018.163940,3095.766846 1022.374390,3110.811279 
	C1024.740479,3119.265625 1025.449951,3119.885986 1033.880249,3120.377441 
	C1038.857910,3120.667725 1043.873535,3120.690918 1048.854126,3120.454834 
	C1057.094116,3120.064453 1057.750244,3119.595703 1060.053467,3111.840088 
	C1068.286011,3084.118896 1076.446533,3056.375977 1084.497681,3028.601562 
	C1085.454590,3025.300537 1085.569580,3021.755859 1086.257202,3017.085693 
	C1079.317139,3016.801025 1073.749634,3016.490723 1068.178101,3016.367188 
	C1062.746216,3016.246826 1059.784302,3018.950684 1058.520630,3024.331055 
	C1055.708862,3036.303223 1052.519043,3048.187012 1048.944702,3061.657959 
M787.001465,542.998535 
	C778.094604,542.998535 769.187744,542.998535 760.805298,542.998535 
	C760.020874,541.459839 759.484924,540.894958 759.478516,540.324158 
	C759.347717,528.664856 759.262756,517.005005 759.198364,505.345062 
	C759.096313,486.873535 758.609497,486.416016 740.069519,487.754120 
	C738.740601,487.850006 737.404480,487.916290 736.088928,488.112091 
	C732.704346,488.615845 730.629944,490.392761 730.593994,494.028625 
	C730.574219,496.027588 730.557556,498.026672 730.557434,500.025696 
	C730.555359,538.345947 730.555542,576.666138 730.557129,614.986389 
	C730.557190,616.985657 730.625305,618.986267 730.570618,620.983826 
	C730.470764,624.630615 732.456055,626.696838 735.801636,627.141357 
	C743.352112,628.144470 750.971191,629.206665 759.378296,624.757080 
	C759.378296,606.059387 759.378296,586.934753 759.378296,567.993408 
	C777.159851,567.993408 793.648254,567.993408 811.069092,567.993408 
	C811.069092,587.464783 811.069092,606.338318 811.069092,626.457886 
	C817.401306,626.984985 822.909058,627.885437 828.402405,627.804504 
	C838.450867,627.656494 839.538818,626.300415 839.544983,615.944275 
	C839.568359,576.957642 839.554626,537.970947 839.554138,498.984314 
	C839.554138,497.651459 839.491638,496.315826 839.555664,494.986206 
	C839.778076,490.367279 837.290100,488.314880 832.982361,487.982574 
	C830.989807,487.828888 828.993408,487.683655 826.996338,487.636292 
	C811.185730,487.261353 810.878662,487.567535 810.877258,503.347809 
	C810.876099,516.247498 810.877014,529.147217 810.877014,542.998657 
	C802.819885,542.998657 795.911499,542.998657 787.001465,542.998535 
M918.436218,547.671448 
	C916.431519,559.152771 916.982178,570.152954 923.896912,578.069641 
	C920.750977,585.700256 917.405212,591.824158 915.739258,598.375244 
	C913.787415,606.050476 918.222778,612.103027 924.083374,616.653259 
	C922.850037,617.965027 922.431580,618.492554 921.932861,618.928223 
	C913.197937,626.559204 908.750183,635.927124 912.243652,647.413818 
	C915.584717,658.399292 925.113098,662.664124 935.234253,663.989502 
	C946.698669,665.490723 958.448181,666.032776 969.984558,665.390625 
	C979.622131,664.854065 988.809509,661.222351 996.381165,654.639526 
	C1005.607971,646.617676 1008.407471,636.271667 1005.758118,624.793640 
	C1003.357605,614.393616 995.607056,608.552612 985.589478,606.162292 
	C979.818481,604.785339 973.776001,604.417297 967.828003,603.944153 
	C960.862854,603.390076 953.778809,603.791199 946.907349,602.732666 
	C938.071899,601.371521 936.863953,596.450012 942.965393,589.142517 
	C978.280029,599.684875 1001.182373,580.533691 995.267395,544.893860 
	C998.783875,544.545715 1002.280579,544.199524 1005.793152,543.851746 
	C1008.796204,536.965820 1009.183105,530.753479 1005.620544,524.800415 
	C988.616882,523.858459 972.046875,522.198792 955.479858,522.229431 
	C938.603760,522.260620 925.076660,529.005737 918.436218,547.671448 
M884.322388,260.915619 
	C884.322388,219.021576 884.322388,177.127548 884.322388,135.220032 
	C874.732239,132.414383 866.471680,131.877335 857.646118,135.745468 
	C857.646118,141.651062 857.646484,147.281784 857.646057,152.912491 
	C857.645630,158.911285 857.882263,164.922348 857.573059,170.905197 
	C857.296570,176.255539 858.930481,181.855942 856.490784,186.916458 
	C850.768860,183.803421 845.820435,180.138794 840.267639,178.268265 
	C821.876099,172.072830 802.120911,181.306198 794.169617,199.765442 
	C786.358765,217.898849 786.269592,236.704498 791.236816,255.549774 
	C800.032532,288.919525 834.813904,290.413177 852.205933,276.281494 
	C854.913757,274.081329 857.776428,272.071655 861.025513,269.629608 
	C861.615356,274.232513 862.061035,277.710236 862.570068,281.682800 
	C869.869873,281.682800 876.606689,281.682800 884.322388,281.682800 
	C884.322388,274.759064 884.322388,268.817871 884.322388,260.915619 
M1025.921387,493.291931 
	C1025.921387,537.202576 1025.921387,581.113220 1025.921387,625.385681 
	C1035.198730,628.987488 1043.714478,628.820312 1053.023071,625.548401 
	C1053.023071,621.795166 1053.021606,618.499878 1053.023315,615.204651 
	C1053.031128,599.221619 1053.000610,583.238403 1053.062744,567.255554 
	C1053.100464,557.520569 1061.907959,547.299866 1071.496826,545.688721 
	C1079.849365,544.285217 1085.860718,547.538452 1088.516113,555.791077 
	C1089.808472,559.807861 1090.154175,564.259338 1090.204224,568.522522 
	C1090.392090,584.503357 1090.260376,600.487854 1090.301147,616.470764 
	C1090.308594,619.407288 1090.560913,622.343140 1090.765747,626.661438 
	C1097.068237,627.063843 1102.916504,627.891113 1108.730835,627.697205 
	C1116.565918,627.435974 1117.577393,626.080872 1117.607788,617.908081 
	C1117.674805,599.927368 1117.760132,581.944580 1117.535889,563.966370 
	C1117.465576,558.338440 1116.993408,552.591187 1115.722290,547.127258 
	C1112.683716,534.066589 1104.862549,525.012268 1091.340820,522.371704 
	C1080.905762,520.333862 1070.773560,521.762878 1061.758057,528.054138 
	C1059.462158,529.656433 1057.160156,531.249939 1053.783569,533.595825 
	C1053.595947,529.572693 1053.397705,527.032776 1053.372559,524.491150 
	C1053.247681,511.838593 1053.158936,499.185638 1053.079102,486.532715 
	C1053.057739,483.137817 1053.240601,479.245819 1048.941040,478.585449 
	C1041.461670,477.436707 1033.833862,476.387543 1025.921387,480.472656 
	C1025.921387,484.147644 1025.921387,487.764374 1025.921387,493.291931 
M202.029663,191.000366 
	C202.029663,215.961533 202.029602,240.922684 202.029678,265.883850 
	C202.029739,283.273651 202.342957,283.568970 219.908340,282.588776 
	C221.236679,282.514648 222.558624,282.302979 223.887039,282.256897 
	C228.394592,282.100616 230.414780,279.897858 230.274673,275.300262 
	C230.092316,269.315521 230.256927,263.320374 230.261719,257.329712 
	C230.267761,249.778793 230.263199,242.227875 230.263199,234.926559 
	C241.003174,233.910980 250.684189,233.763641 260.047028,231.962372 
	C285.447998,227.075607 298.104797,209.217056 297.210938,183.038025 
	C296.436584,160.358658 281.004395,146.110291 256.080811,143.872925 
	C254.093002,143.694473 252.096664,143.531143 250.102859,143.512360 
	C238.123474,143.399445 226.141724,143.162064 214.164612,143.299942 
	C204.279099,143.413773 202.165451,145.752655 202.058655,156.052246 
	C201.944794,167.033997 202.030869,178.017792 202.029663,191.000366 
M820.508118,3096.194824 
	C826.437561,3110.225830 837.128784,3118.905273 851.918640,3121.079346 
	C861.332092,3122.463135 871.343445,3122.631836 880.688049,3121.025879 
	C899.016479,3117.876465 910.975037,3106.407959 916.040161,3088.411865 
	C920.099304,3073.990234 919.966370,3059.323730 915.801147,3045.000488 
	C910.979980,3028.421631 899.572266,3018.308838 882.449036,3016.044189 
	C873.667236,3014.883057 864.462280,3014.772461 855.706970,3016.012451 
	C838.093750,3018.505859 825.975525,3028.785156 820.069885,3045.653320 
	C814.375488,3061.917969 814.778809,3078.354736 820.508118,3096.194824 
M642.173462,279.487091 
	C656.819763,272.338623 664.660156,259.988770 667.399902,244.529831 
	C669.492371,232.723511 669.373718,220.708969 666.218811,208.930466 
	C661.415344,190.997131 649.857544,180.246872 631.494202,177.920242 
	C623.052185,176.850647 614.217163,176.758667 605.811096,177.967072 
	C587.859802,180.547592 575.674805,190.929138 569.761047,208.246216 
	C564.663391,223.173523 564.659424,238.310532 568.892822,253.364517 
	C573.192505,268.654602 583.090149,278.648621 598.709167,282.384247 
	C612.914001,285.781647 627.005249,285.571106 642.173462,279.487091 
M1442.739380,195.886353 
	C1443.823486,192.407776 1445.121582,188.977753 1445.925659,185.435593 
	C1446.596558,182.479279 1445.382568,179.754028 1442.179810,179.526505 
	C1435.963013,179.084869 1429.569946,178.416870 1423.500854,179.397186 
	C1417.881592,180.304840 1418.885864,186.734528 1417.069214,190.772415 
	C1416.393921,192.273392 1416.100830,193.943420 1415.595337,195.524139 
	C1410.185913,212.441696 1404.768677,229.356735 1398.682495,248.369080 
	C1396.661987,243.454865 1395.321899,240.549713 1394.256958,237.546982 
	C1388.597656,221.589798 1383.024170,205.602188 1377.386963,189.637085 
	C1373.495361,178.615540 1372.822144,178.172867 1360.950806,178.226990 
	C1359.620361,178.233063 1358.285889,178.204575 1356.959961,178.291565 
	C1346.833252,178.955795 1345.094116,181.280075 1348.590454,190.735489 
	C1357.340698,214.400162 1366.299072,237.988144 1375.231079,261.585327 
	C1378.031006,268.982330 1381.012451,276.310730 1384.167236,284.321411 
	C1380.792480,295.345551 1374.281982,306.253815 1371.634644,318.945007 
	C1378.775146,321.507355 1384.942505,321.230286 1391.266479,320.864807 
	C1398.234131,320.462097 1401.736206,317.311523 1403.953369,310.614777 
	C1416.473999,272.796570 1429.427734,235.121765 1442.739380,195.886353 
M321.258148,228.066284 
	C308.645447,237.050308 304.467285,248.155746 308.197937,262.780151 
	C311.235748,274.688629 322.222198,282.735840 336.540924,284.220306 
	C349.517334,285.565552 360.772797,281.869751 370.666046,273.287384 
	C373.467834,282.476440 373.706970,282.745758 382.963013,282.660767 
	C386.509308,282.628235 390.050507,282.042389 393.836548,281.685822 
	C393.836548,254.861679 394.569519,228.934906 393.532990,203.079071 
	C393.000031,189.783630 383.307617,181.170853 369.754120,178.267578 
	C354.030487,174.899429 338.601044,176.203720 323.670959,182.174881 
	C311.596863,187.003815 309.491913,193.124725 315.732758,206.856979 
	C319.184601,205.583786 322.841492,204.492630 326.276917,202.918167 
	C335.541565,198.672089 345.100220,196.296692 355.336853,197.742233 
	C362.724335,198.785431 366.695129,202.572586 367.694489,209.918411 
	C368.127869,213.103851 367.767212,216.397324 367.767212,220.164948 
	C352.263428,221.451477 336.688202,220.181183 321.258148,228.066284 
M1022.065063,203.069748 
	C1022.065063,224.063736 1022.064941,245.057709 1022.065063,266.051697 
	C1022.065186,283.372864 1022.562378,283.829285 1040.036865,282.553223 
	C1040.369263,282.528961 1040.701782,282.507294 1041.033447,282.475555 
	C1048.830322,281.728760 1049.328247,281.331177 1049.372437,273.309875 
	C1049.469604,255.648743 1049.325928,237.986069 1049.461304,220.325424 
	C1049.537842,210.340027 1062.795532,198.938217 1072.591919,200.284058 
	C1077.895752,201.012695 1082.270630,203.627670 1083.947876,208.824371 
	C1085.352661,213.176514 1086.272583,217.864853 1086.368652,222.426224 
	C1086.670532,236.749130 1086.483398,251.082382 1086.484131,265.411621 
	C1086.485107,283.210052 1087.759399,284.324951 1105.963257,282.447235 
	C1113.357666,281.684509 1113.740967,281.452911 1113.775146,273.906281 
	C1113.862671,254.578964 1113.863281,235.250229 1113.706543,215.923630 
	C1113.674316,211.957916 1112.956543,207.973373 1112.295166,204.041199 
	C1108.499756,181.477463 1089.249268,174.245697 1072.618896,177.097366 
	C1062.342896,178.859421 1054.550537,184.871475 1046.658691,191.795013 
	C1046.195312,190.280807 1045.804077,189.467178 1045.708862,188.620255 
	C1044.654541,179.240936 1043.928467,178.313583 1034.980225,178.340195 
	C1030.857544,178.352448 1026.737671,179.374100 1022.065063,180.013519 
	C1022.065063,187.841568 1022.065063,194.470413 1022.065063,203.069748 
M960.236572,176.600662 
	C955.920593,176.768204 951.568481,176.636780 947.294922,177.154495 
	C927.693604,179.529037 915.075928,190.554398 909.265076,209.168442 
	C904.370300,224.848434 904.641602,240.684341 909.714050,256.340576 
	C913.671692,268.556183 921.766846,277.082153 933.947815,281.007233 
	C952.363037,286.941162 970.781128,285.357544 988.843262,279.214203 
	C991.316528,278.372986 994.300415,275.773285 994.922424,273.424805 
	C996.235779,268.466278 996.985901,263.030426 993.304749,257.505219 
	C989.653442,258.504700 986.159729,259.256378 982.808105,260.417969 
	C973.849731,263.522827 964.648315,264.687378 955.254333,263.849182 
	C940.614807,262.542908 933.044556,252.875778 935.005493,237.670822 
	C940.879211,237.670822 946.841797,237.675583 952.804382,237.669830 
	C965.133972,237.657944 977.466187,237.786362 989.792236,237.569000 
	C996.865906,237.444244 999.561035,235.294708 999.959961,229.247482 
	C1001.380005,207.721024 995.586121,180.867355 960.236572,176.600662 
M805.876343,3099.079346 
	C802.482239,3098.265625 799.103333,3096.833252 795.691345,3096.749756 
	C783.835327,3096.459717 771.967834,3096.637939 759.139038,3096.637939 
	C759.139038,3058.029297 759.139038,3020.561523 759.139038,2983.283447 
	C751.300476,2979.604492 744.108093,2979.953125 736.802185,2981.042725 
	C732.505493,2981.683594 730.335632,2983.750244 730.512329,2988.322510 
	C730.717773,2993.638428 730.555664,2998.968262 730.555664,3004.292236 
	C730.555725,3038.231934 730.519470,3072.171875 730.576721,3106.111572 
	C730.597534,3118.463135 732.233215,3120.085205 744.202393,3120.120117 
	C760.173889,3120.166748 776.145691,3120.131836 792.117371,3120.132080 
	C796.366699,3120.132080 800.615967,3120.132080 804.703430,3120.132080 
	C807.777039,3113.133545 807.726135,3106.957764 805.876343,3099.079346 
M421.708496,201.152023 
	C422.563080,203.354675 424.119995,205.545441 424.157501,207.761902 
	C424.388275,221.400711 424.137451,235.047501 424.350952,248.686874 
	C424.428497,253.641174 424.978119,258.654938 425.947601,263.514862 
	C428.123016,274.419495 434.921844,281.091156 445.810608,283.274506 
	C449.362885,283.986786 453.076904,284.154144 456.714600,284.134460 
	C474.917847,284.035797 478.998260,278.919006 475.435669,260.904114 
	C475.385773,260.651825 475.010345,260.463959 474.094299,259.570648 
	C471.474243,260.111084 468.328918,260.924652 465.132782,261.386261 
	C457.480347,262.491455 452.377563,259.185822 452.126160,251.416672 
	C451.591125,234.882034 451.962677,218.318054 451.962677,201.001663 
	C456.598633,201.001663 460.534729,201.045547 464.469543,200.993423 
	C476.154266,200.838638 476.729309,200.218964 476.387146,188.452988 
	C476.358154,187.455536 476.278107,186.458466 476.281006,185.461395 
	C476.294464,180.867462 473.922760,178.869202 469.434418,178.927643 
	C463.843872,179.000443 458.251617,178.945114 452.195435,178.945114 
	C452.002533,175.685257 451.745483,173.102005 451.713501,170.515991 
	C451.494141,152.787277 450.106812,151.563675 432.187317,153.497589 
	C431.856506,153.533279 431.525696,153.590973 431.194275,153.595963 
	C426.280548,153.670059 423.996155,155.961090 424.218109,161.062714 
	C424.470428,166.862396 424.276428,172.681473 424.276428,178.290161 
	C418.657135,178.889450 414.486725,179.334213 410.597931,179.748947 
	C408.009308,187.242645 407.998413,193.619797 410.938873,200.440689 
	C414.045532,200.641846 416.977753,200.831711 421.708496,201.152023 
M1338.285767,270.873688 
	C1338.059082,267.335083 1337.832275,263.796478 1337.547485,259.351990 
	C1333.381348,260.168182 1330.253296,260.913116 1327.084106,261.375702 
	C1319.348633,262.504730 1314.299805,259.315369 1314.043457,251.534561 
	C1313.499023,235.006180 1313.877319,218.447418 1313.877319,201.008545 
	C1318.437500,201.008545 1322.358032,201.055023 1326.277222,200.999802 
	C1337.937622,200.835541 1338.651123,200.141907 1338.234741,188.482254 
	C1338.133301,185.642609 1337.440186,182.824081 1336.893555,179.152267 
	C1328.910645,179.152267 1321.732056,179.152267 1314.087280,179.152267 
	C1313.873291,175.614319 1313.619019,173.035233 1313.576904,170.452698 
	C1313.288818,152.804153 1311.815430,151.518631 1293.943604,153.505814 
	C1293.282227,153.579346 1292.622559,153.679260 1291.959229,153.721191 
	C1287.908447,153.977081 1286.063354,156.081970 1286.144531,160.177994 
	C1286.261963,166.117630 1286.174561,172.061310 1286.174561,178.263672 
	C1281.244385,178.747437 1277.054199,179.158600 1272.688843,179.586945 
	C1269.659058,186.730576 1269.636475,193.339844 1272.722778,200.247787 
	C1277.159668,200.743866 1281.343506,201.211670 1286.163940,201.750626 
	C1286.163940,217.380585 1286.027344,232.650162 1286.238770,247.914902 
	C1286.312012,253.197006 1286.857544,258.544128 1287.874268,263.726776 
	C1290.024414,274.687744 1296.953491,281.679230 1307.879883,283.188660 
	C1314.976074,284.168915 1322.394897,283.356079 1329.614990,282.724823 
	C1335.397705,282.219238 1338.447021,278.553162 1338.285767,270.873688 
M1140.745239,189.975021 
	C1129.676025,208.723862 1134.759399,226.006027 1154.199951,235.571732 
	C1156.881836,236.891327 1159.669434,237.997147 1162.417603,239.179901 
	C1166.385010,240.887283 1170.477661,242.348953 1174.302246,244.329880 
	C1178.664429,246.589172 1181.866333,249.905670 1181.032349,255.414703 
	C1180.276489,260.408417 1176.862305,263.257690 1170.389771,264.283630 
	C1162.579346,265.521667 1155.161133,264.055115 1148.031372,260.792786 
	C1144.491211,259.172913 1140.924194,257.611572 1137.407104,256.040619 
	C1131.967285,267.029602 1133.520264,276.281189 1141.722656,279.645264 
	C1158.158569,286.386017 1174.892334,286.876831 1191.113647,279.046631 
	C1204.238037,272.711243 1210.108521,258.890228 1206.880371,244.650833 
	C1204.613159,234.650314 1198.072754,228.415436 1189.254517,224.308624 
	C1182.329956,221.083710 1175.029785,218.658798 1168.136475,215.374817 
	C1162.036011,212.468521 1159.711914,208.155441 1160.864014,203.724304 
	C1162.040405,199.199677 1166.187500,195.708298 1172.438721,196.160828 
	C1179.272827,196.655533 1186.013794,198.630432 1192.752808,200.149216 
	C1195.412231,200.748581 1197.956665,201.858322 1202.055664,203.243179 
	C1202.055664,197.205704 1202.027954,192.959763 1202.063843,188.714340 
	C1202.096558,184.844559 1199.901978,182.601608 1196.642212,181.113495 
	C1179.524414,173.299225 1152.780396,175.127594 1140.745239,189.975021 
M689.902710,212.999985 
	C689.902710,227.294876 689.902161,241.589783 689.902954,255.884674 
	C689.903320,262.533447 689.968445,269.183044 689.882263,275.830688 
	C689.837708,279.271942 690.889709,281.780884 694.666931,282.092224 
	C701.851807,282.684418 709.100830,283.718903 716.254333,280.471893 
	C716.254333,231.811600 716.254333,183.439362 716.254333,134.865234 
	C707.334534,131.710632 699.075867,131.482376 689.902710,135.320267 
	C689.902710,160.598785 689.902710,185.799377 689.902710,212.999985 
M496.229187,182.249359 
	C496.147339,210.506699 496.049316,238.763992 495.989899,267.021362 
	C495.955902,283.193848 496.307007,283.492401 512.853210,282.620270 
	C513.185242,282.602753 513.517456,282.587708 513.849060,282.563934 
	C522.713379,281.929657 523.166626,281.519958 523.204712,272.396576 
	C523.272644,256.104675 523.032410,239.808777 523.314819,223.521362 
	C523.537781,210.665405 536.966675,200.368195 549.242188,203.090988 
	C551.364807,203.561829 553.592346,203.559647 556.999939,203.897873 
	C557.216309,196.877029 557.539673,190.661163 557.554443,184.444550 
	C557.564819,180.097824 554.901245,178.303421 550.784302,177.267136 
	C541.297546,174.879196 533.856567,178.233582 527.266785,184.607773 
	C525.097351,186.706192 523.093384,188.975616 520.286316,191.933304 
	C518.574219,179.022995 516.793823,177.452820 505.510925,178.353638 
	C502.626556,178.583923 499.824738,179.848129 496.229187,182.249359 
M867.850952,578.999939 
	C867.850952,594.555359 867.850952,610.110840 867.850952,625.699341 
	C877.439392,628.597229 885.757263,628.954590 894.284851,625.664856 
	C894.512390,623.265442 894.856079,621.314392 894.858459,619.362976 
	C894.893738,590.728149 894.884705,562.093323 894.881226,533.458496 
	C894.881042,532.127319 895.318970,530.490784 894.710876,529.528564 
	C893.446960,527.528320 891.816772,524.607056 889.985229,524.321533 
	C882.843994,523.208191 875.511230,522.430542 867.850952,526.172546 
	C867.850952,543.125366 867.850952,560.062683 867.850952,578.999939 
M1242.793701,282.635651 
	C1246.375488,282.301788 1249.957397,281.967926 1254.911377,281.506134 
	C1254.964844,247.430634 1254.944824,214.035812 1254.927856,180.782944 
	C1245.091553,177.479904 1236.822632,177.063889 1228.616211,180.819580 
	C1228.616211,214.483337 1228.616211,247.601562 1228.616211,281.485687 
	C1233.172974,281.910828 1237.067139,282.274109 1242.793701,282.635651 
M877.939270,481.566742 
	C873.009583,481.761871 868.435181,483.039276 866.900208,488.273102 
	C865.205566,494.051361 864.090454,500.620087 868.358582,505.377441 
	C873.826965,511.472809 881.596741,510.416229 888.753174,508.671295 
	C894.637878,507.236420 896.437195,504.055603 896.809814,496.652405 
	C897.354919,485.825836 894.263977,482.299438 883.461182,481.486725 
	C882.144653,481.387665 880.814331,481.473083 877.939270,481.566742 
M1253.963623,160.991928 
	C1258.032471,154.166641 1258.919922,146.500198 1254.123901,140.484192 
	C1249.054199,134.124619 1240.999390,135.658524 1233.739258,137.230438 
	C1233.095703,137.369781 1232.323730,137.474136 1231.881348,137.885178 
	C1230.234741,139.415222 1228.150024,140.798004 1227.215088,142.716309 
	C1221.524292,154.394714 1227.551880,164.408875 1240.355713,164.303650 
	C1244.508545,164.269531 1248.649658,162.804276 1253.963623,160.991928 
z"/>
<path fill="#060705" opacity="1.000000" stroke="none" 
	d="
M661.388184,372.177399 
	C661.490295,375.836975 661.681885,379.496552 661.681946,383.156128 
	C661.694885,1328.815308 661.694580,2274.474365 661.694580,3220.133545 
	C661.694580,3223.739746 661.694580,3227.345703 661.694580,3231.525879 
	C505.573669,3231.525879 350.110352,3231.525879 193.635574,3231.525879 
	C193.635574,3228.923096 193.635559,3226.379883 193.635574,3223.836914 
	C193.640625,2274.177979 193.645737,1324.518799 193.651367,374.859833 
	C193.651367,374.526794 193.660309,374.193726 194.745789,372.817810 
	C348.357452,371.750458 500.888397,371.723511 653.419373,371.721283 
	C656.075623,371.721252 658.731934,372.018738 661.388184,372.177399 
M571.000000,1098.167969 
	C448.806702,1098.167969 326.613434,1098.167969 204.327728,1098.167969 
	C204.327728,1215.035278 204.327728,1330.805786 204.327728,1446.499268 
	C221.524429,1448.536743 644.197388,1447.778687 651.156738,1445.781128 
	C651.156738,1330.241089 651.156738,1214.708862 651.156738,1098.167969 
	C624.792175,1098.167969 598.896118,1098.167969 571.000000,1098.167969 
M203.709244,613.000000 
	C203.709244,651.532043 203.709244,690.064087 203.709244,728.411072 
	C217.899582,730.474548 643.947815,729.890442 650.959106,727.972412 
	C652.934570,709.770569 652.053528,387.746521 650.008545,380.808105 
	C501.548401,380.808105 353.088257,380.808105 203.709122,380.808105 
	C203.709122,457.902679 203.709122,534.451355 203.709244,613.000000 
M389.000000,3222.031250 
	C476.227051,3222.031250 563.454102,3222.031250 650.535828,3222.031250 
	C652.571594,3208.174805 652.016235,2880.834717 650.062195,2873.843750 
	C501.592468,2873.843750 353.096924,2873.843750 204.418884,2873.843750 
	C204.418884,2990.120850 204.418884,3105.847656 204.418884,3222.031250 
	C265.752289,3222.031250 326.376129,3222.031250 389.000000,3222.031250 
M651.638306,1901.000000 
	C651.638306,1870.826538 651.638306,1840.653076 651.638306,1810.505859 
	C501.681458,1810.505859 353.181671,1810.505859 204.241425,1810.505859 
	C204.241425,1926.360352 204.241425,2041.758667 204.241425,2157.348389 
	C353.486176,2157.348389 502.204926,2157.348389 651.638123,2157.348389 
	C651.638123,2072.140625 651.638123,1987.570312 651.638306,1901.000000 
M203.709534,1009.000000 
	C203.709534,1035.183350 203.709534,1061.366699 203.709534,1087.412109 
	C226.374680,1089.495850 643.854858,1088.606567 650.971680,1086.623657 
	C650.971680,971.108521 650.971680,855.639160 650.971680,739.971802 
	C501.799042,739.971802 353.290680,739.971802 203.709488,739.971802 
	C203.709488,829.268616 203.709488,918.134277 203.709534,1009.000000 
M309.000000,2168.043213 
	C274.120972,2168.043213 239.241943,2168.043213 204.309937,2168.043213 
	C204.309937,2282.869141 204.309937,2396.642090 204.309937,2510.357910 
	C228.629715,2512.546631 643.737122,2511.488770 651.126953,2509.238770 
	C651.126953,2395.811279 651.126953,2282.347168 651.126953,2168.043213 
	C537.409241,2168.043213 424.204620,2168.043213 309.000000,2168.043213 
M227.022766,1457.344482 
	C219.493744,1457.344482 211.964706,1457.344482 204.182953,1457.344482 
	C204.182953,1572.144897 204.182953,1685.610718 204.182953,1799.436279 
	C353.373047,1799.436279 502.097961,1799.436279 651.105103,1799.436279 
	C651.105103,1685.375122 651.105103,1571.912598 651.105103,1457.344116 
	C510.056305,1457.344116 369.535156,1457.344116 227.022766,1457.344482 
M293.000244,2521.216797 
	C263.487946,2521.216797 233.975616,2521.216797 204.626892,2521.216797 
	C202.499405,2539.659180 203.282730,2855.651123 205.254349,2862.333008 
	C353.788025,2862.333008 502.252045,2862.333008 651.111572,2862.333008 
	C651.111572,2748.539795 651.111572,2635.413818 651.111572,2521.216309 
	C532.058655,2521.216309 413.529449,2521.216309 293.000244,2521.216797 
z"/>
<path fill="#070606" opacity="1.000000" stroke="none" 
	d="
M1049.213867,3060.882324 
	C1052.519043,3048.187012 1055.708862,3036.303223 1058.520630,3024.331055 
	C1059.784302,3018.950684 1062.746216,3016.246826 1068.178101,3016.367188 
	C1073.749634,3016.490723 1079.317139,3016.801025 1086.257202,3017.085693 
	C1085.569580,3021.755859 1085.454590,3025.300537 1084.497681,3028.601562 
	C1076.446533,3056.375977 1068.286011,3084.118896 1060.053467,3111.840088 
	C1057.750244,3119.595703 1057.094116,3120.064453 1048.854126,3120.454834 
	C1043.873535,3120.690918 1038.857910,3120.667725 1033.880249,3120.377441 
	C1025.449951,3119.885986 1024.740479,3119.265625 1022.374390,3110.811279 
	C1018.163940,3095.766846 1014.096497,3080.681885 1009.921021,3065.627441 
	C1009.412781,3063.794922 1008.607727,3062.044434 1007.066040,3057.914062 
	C1003.015930,3073.509766 999.572998,3086.770752 996.127991,3100.031494 
	C994.958130,3104.534912 993.559326,3108.993408 992.672058,3113.551758 
	C991.737732,3118.351807 988.862854,3120.269043 984.289246,3120.339355 
	C983.624451,3120.349609 982.960815,3120.433105 982.296631,3120.482422 
	C958.591125,3122.249023 958.620544,3122.240723 952.090271,3099.756348 
	C945.415344,3076.773926 938.634888,3053.822021 932.002869,3030.827393 
	C930.925171,3027.090576 930.377258,3023.201172 929.513611,3019.040283 
	C937.404236,3014.938477 944.988586,3016.062988 952.475281,3016.965576 
	C956.439514,3017.443604 957.418396,3020.665283 958.330750,3024.093750 
	C963.459412,3043.366211 968.738647,3062.599121 974.036560,3081.826172 
	C974.624207,3083.958740 975.655396,3085.969238 977.190430,3089.812988 
	C982.419434,3069.351074 987.177795,3050.737793 991.927612,3032.122559 
	C992.174194,3031.156006 992.311279,3030.161133 992.559875,3029.195312 
	C995.730103,3016.879883 996.888611,3015.994385 1009.433960,3016.247559 
	C1019.908630,3016.459229 1020.859741,3017.187012 1023.658020,3027.540771 
	C1028.427979,3045.190186 1033.146851,3062.853516 1037.931519,3080.499023 
	C1038.611206,3083.005859 1039.538940,3085.445557 1041.866821,3088.049072 
	C1044.226196,3079.251953 1046.585449,3070.455078 1049.213867,3060.882324 
z"/>
<path fill="#0C0D0D" opacity="1.000000" stroke="none" 
	d="
M788.002319,542.998596 
	C795.911499,542.998657 802.819885,542.998657 810.877014,542.998657 
	C810.877014,529.147217 810.876099,516.247498 810.877258,503.347809 
	C810.878662,487.567535 811.185730,487.261353 826.996338,487.636292 
	C828.993408,487.683655 830.989807,487.828888 832.982361,487.982574 
	C837.290100,488.314880 839.778076,490.367279 839.555664,494.986206 
	C839.491638,496.315826 839.554138,497.651459 839.554138,498.984314 
	C839.554626,537.970947 839.568359,576.957642 839.544983,615.944275 
	C839.538818,626.300415 838.450867,627.656494 828.402405,627.804504 
	C822.909058,627.885437 817.401306,626.984985 811.069092,626.457886 
	C811.069092,606.338318 811.069092,587.464783 811.069092,567.993408 
	C793.648254,567.993408 777.159851,567.993408 759.378296,567.993408 
	C759.378296,586.934753 759.378296,606.059387 759.378296,624.757080 
	C750.971191,629.206665 743.352112,628.144470 735.801636,627.141357 
	C732.456055,626.696838 730.470764,624.630615 730.570618,620.983826 
	C730.625305,618.986267 730.557190,616.985657 730.557129,614.986389 
	C730.555542,576.666138 730.555359,538.345947 730.557434,500.025696 
	C730.557556,498.026672 730.574219,496.027588 730.593994,494.028625 
	C730.629944,490.392761 732.704346,488.615845 736.088928,488.112091 
	C737.404480,487.916290 738.740601,487.850006 740.069519,487.754120 
	C758.609497,486.416016 759.096313,486.873535 759.198364,505.345062 
	C759.262756,517.005005 759.347717,528.664856 759.478516,540.324158 
	C759.484924,540.894958 760.020874,541.459839 760.805298,542.998535 
	C769.187744,542.998535 778.094604,542.998535 788.002319,542.998596 
z"/>
<path fill="#070606" opacity="1.000000" stroke="none" 
	d="
M918.699036,546.942688 
	C925.076660,529.005737 938.603760,522.260620 955.479858,522.229431 
	C972.046875,522.198792 988.616882,523.858459 1005.620544,524.800415 
	C1009.183105,530.753479 1008.796204,536.965820 1005.793152,543.851746 
	C1002.280579,544.199524 998.783875,544.545715 995.267395,544.893860 
	C1001.182373,580.533691 978.280029,599.684875 942.965393,589.142517 
	C936.863953,596.450012 938.071899,601.371521 946.907349,602.732666 
	C953.778809,603.791199 960.862854,603.390076 967.828003,603.944153 
	C973.776001,604.417297 979.818481,604.785339 985.589478,606.162292 
	C995.607056,608.552612 1003.357605,614.393616 1005.758118,624.793640 
	C1008.407471,636.271667 1005.607971,646.617676 996.381165,654.639526 
	C988.809509,661.222351 979.622131,664.854065 969.984558,665.390625 
	C958.448181,666.032776 946.698669,665.490723 935.234253,663.989502 
	C925.113098,662.664124 915.584717,658.399292 912.243652,647.413818 
	C908.750183,635.927124 913.197937,626.559204 921.932861,618.928223 
	C922.431580,618.492554 922.850037,617.965027 924.083374,616.653259 
	C918.222778,612.103027 913.787415,606.050476 915.739258,598.375244 
	C917.405212,591.824158 920.750977,585.700256 923.896912,578.069641 
	C916.982178,570.152954 916.431519,559.152771 918.699036,546.942688 
M974.693115,625.610474 
	C965.861511,624.661194 957.045654,623.238037 948.192261,622.942627 
	C942.992249,622.769165 937.804871,629.711060 937.457703,635.531921 
	C937.123474,641.134399 939.278992,644.066223 945.758057,646.184998 
	C954.259033,648.964966 962.856689,648.835693 971.098877,645.462036 
	C979.783264,641.907227 981.466309,634.737976 974.693115,625.610474 
M949.481995,571.727356 
	C952.739441,572.166992 956.047913,573.204468 959.244446,572.931458 
	C967.977600,572.185608 973.507568,565.584656 973.459717,556.706726 
	C973.413879,548.196106 968.273987,542.228577 959.870056,540.928772 
	C952.707703,539.820984 945.962219,542.961914 942.992371,548.787415 
	C939.198914,556.228699 941.075256,564.359436 949.481995,571.727356 
z"/>
<path fill="#050404" opacity="1.000000" stroke="none" 
	d="
M884.322388,261.896118 
	C884.322388,268.817871 884.322388,274.759064 884.322388,281.682800 
	C876.606689,281.682800 869.869873,281.682800 862.570068,281.682800 
	C862.061035,277.710236 861.615356,274.232513 861.025513,269.629608 
	C857.776428,272.071655 854.913757,274.081329 852.205933,276.281494 
	C834.813904,290.413177 800.032532,288.919525 791.236816,255.549774 
	C786.269592,236.704498 786.358765,217.898849 794.169617,199.765442 
	C802.120911,181.306198 821.876099,172.072830 840.267639,178.268265 
	C845.820435,180.138794 850.768860,183.803421 856.490784,186.916458 
	C858.930481,181.855942 857.296570,176.255539 857.573059,170.905197 
	C857.882263,164.922348 857.645630,158.911285 857.646057,152.912491 
	C857.646484,147.281784 857.646118,141.651062 857.646118,135.745468 
	C866.471680,131.877335 874.732239,132.414383 884.322388,135.220032 
	C884.322388,177.127548 884.322388,219.021576 884.322388,261.896118 
M854.072021,250.485260 
	C855.280029,247.205582 857.161377,244.001572 857.540405,240.628738 
	C858.129517,235.386429 857.024963,229.924332 857.834473,224.742294 
	C859.597717,213.455612 852.661316,207.500366 844.747864,202.371353 
	C836.042908,196.729294 825.621887,199.200073 820.846313,208.379105 
	C813.343384,222.800598 813.646301,237.912872 820.299927,252.488922 
	C824.507507,261.706421 833.969727,264.396454 843.025146,259.631927 
	C846.743103,257.675751 849.740723,254.350784 854.072021,250.485260 
z"/>
<path fill="#070707" opacity="1.000000" stroke="none" 
	d="
M1025.921387,492.336517 
	C1025.921387,487.764374 1025.921387,484.147644 1025.921387,480.472656 
	C1033.833862,476.387543 1041.461670,477.436707 1048.941040,478.585449 
	C1053.240601,479.245819 1053.057739,483.137817 1053.079102,486.532715 
	C1053.158936,499.185638 1053.247681,511.838593 1053.372559,524.491150 
	C1053.397705,527.032776 1053.595947,529.572693 1053.783569,533.595825 
	C1057.160156,531.249939 1059.462158,529.656433 1061.758057,528.054138 
	C1070.773560,521.762878 1080.905762,520.333862 1091.340820,522.371704 
	C1104.862549,525.012268 1112.683716,534.066589 1115.722290,547.127258 
	C1116.993408,552.591187 1117.465576,558.338440 1117.535889,563.966370 
	C1117.760132,581.944580 1117.674805,599.927368 1117.607788,617.908081 
	C1117.577393,626.080872 1116.565918,627.435974 1108.730835,627.697205 
	C1102.916504,627.891113 1097.068237,627.063843 1090.765747,626.661438 
	C1090.560913,622.343140 1090.308594,619.407288 1090.301147,616.470764 
	C1090.260376,600.487854 1090.392090,584.503357 1090.204224,568.522522 
	C1090.154175,564.259338 1089.808472,559.807861 1088.516113,555.791077 
	C1085.860718,547.538452 1079.849365,544.285217 1071.496826,545.688721 
	C1061.907959,547.299866 1053.100464,557.520569 1053.062744,567.255554 
	C1053.000610,583.238403 1053.031128,599.221619 1053.023315,615.204651 
	C1053.021606,618.499878 1053.023071,621.795166 1053.023071,625.548401 
	C1043.714478,628.820312 1035.198730,628.987488 1025.921387,625.385681 
	C1025.921387,581.113220 1025.921387,537.202576 1025.921387,492.336517 
z"/>
<path fill="#050505" opacity="1.000000" stroke="none" 
	d="
M202.029663,190.000534 
	C202.030869,178.017792 201.944794,167.033997 202.058655,156.052246 
	C202.165451,145.752655 204.279099,143.413773 214.164612,143.299942 
	C226.141724,143.162064 238.123474,143.399445 250.102859,143.512360 
	C252.096664,143.531143 254.093002,143.694473 256.080811,143.872925 
	C281.004395,146.110291 296.436584,160.358658 297.210938,183.038025 
	C298.104797,209.217056 285.447998,227.075607 260.047028,231.962372 
	C250.684189,233.763641 241.003174,233.910980 230.263199,234.926559 
	C230.263199,242.227875 230.267761,249.778793 230.261719,257.329712 
	C230.256927,263.320374 230.092316,269.315521 230.274673,275.300262 
	C230.414780,279.897858 228.394592,282.100616 223.887039,282.256897 
	C222.558624,282.302979 221.236679,282.514648 219.908340,282.588776 
	C202.342957,283.568970 202.029739,283.273651 202.029678,265.883850 
	C202.029602,240.922684 202.029663,215.961533 202.029663,190.000534 
M261.967987,170.983047 
	C252.614609,162.744202 241.615570,165.379257 230.892120,165.387268 
	C230.892120,181.378830 230.892120,196.472260 230.892120,212.014099 
	C236.102539,212.014099 240.722992,212.197617 245.324295,211.978638 
	C257.645905,211.392212 265.039062,205.001617 267.261444,192.966873 
	C268.637390,185.515823 267.634247,178.437866 261.967987,170.983047 
z"/>
<path fill="#070606" opacity="1.000000" stroke="none" 
	d="
M820.270020,3095.453613 
	C814.778809,3078.354736 814.375488,3061.917969 820.069885,3045.653320 
	C825.975525,3028.785156 838.093750,3018.505859 855.706970,3016.012451 
	C864.462280,3014.772461 873.667236,3014.883057 882.449036,3016.044189 
	C899.572266,3018.308838 910.979980,3028.421631 915.801147,3045.000488 
	C919.966370,3059.323730 920.099304,3073.990234 916.040161,3088.411865 
	C910.975037,3106.407959 899.016479,3117.876465 880.688049,3121.025879 
	C871.343445,3122.631836 861.332092,3122.463135 851.918640,3121.079346 
	C837.128784,3118.905273 826.437561,3110.225830 820.270020,3095.453613 
M889.680298,3054.548828 
	C889.493896,3053.910645 889.345093,3053.258789 889.115540,3052.636475 
	C884.497192,3040.122803 878.119934,3035.480957 866.328308,3036.037842 
	C855.422913,3036.552490 848.598511,3042.846191 845.507141,3055.364014 
	C842.974365,3065.619873 843.457886,3075.885498 846.432800,3085.908936 
	C849.401001,3095.909912 856.906372,3100.988770 867.392822,3100.910889 
	C879.446350,3100.821289 887.924866,3093.920898 889.673462,3081.080078 
	C890.780762,3072.948486 889.923523,3064.549561 889.680298,3054.548828 
z"/>
<path fill="#070606" opacity="1.000000" stroke="none" 
	d="
M641.465210,279.767151 
	C627.005249,285.571106 612.914001,285.781647 598.709167,282.384247 
	C583.090149,278.648621 573.192505,268.654602 568.892822,253.364517 
	C564.659424,238.310532 564.663391,223.173523 569.761047,208.246216 
	C575.674805,190.929138 587.859802,180.547592 605.811096,177.967072 
	C614.217163,176.758667 623.052185,176.850647 631.494202,177.920242 
	C649.857544,180.246872 661.415344,190.997131 666.218811,208.930466 
	C669.373718,220.708969 669.492371,232.723511 667.399902,244.529831 
	C664.660156,259.988770 656.819763,272.338623 641.465210,279.767151 
M632.047729,202.779785 
	C617.176453,193.771927 602.131775,197.724838 596.778320,212.598816 
	C592.360352,224.873581 592.647034,237.529495 597.074280,249.791672 
	C600.231018,258.534576 607.078125,262.711151 616.357910,262.886688 
	C625.420898,263.058136 633.364014,260.112610 636.662537,251.363739 
	C642.749084,235.219803 643.717346,218.997192 632.047729,202.779785 
z"/>
<path fill="#070707" opacity="1.000000" stroke="none" 
	d="
M1442.486572,196.642227 
	C1429.427734,235.121765 1416.473999,272.796570 1403.953369,310.614777 
	C1401.736206,317.311523 1398.234131,320.462097 1391.266479,320.864807 
	C1384.942505,321.230286 1378.775146,321.507355 1371.634644,318.945007 
	C1374.281982,306.253815 1380.792480,295.345551 1384.167236,284.321411 
	C1381.012451,276.310730 1378.031006,268.982330 1375.231079,261.585327 
	C1366.299072,237.988144 1357.340698,214.400162 1348.590454,190.735489 
	C1345.094116,181.280075 1346.833252,178.955795 1356.959961,178.291565 
	C1358.285889,178.204575 1359.620361,178.233063 1360.950806,178.226990 
	C1372.822144,178.172867 1373.495361,178.615540 1377.386963,189.637085 
	C1383.024170,205.602188 1388.597656,221.589798 1394.256958,237.546982 
	C1395.321899,240.549713 1396.661987,243.454865 1398.682495,248.369080 
	C1404.768677,229.356735 1410.185913,212.441696 1415.595337,195.524139 
	C1416.100830,193.943420 1416.393921,192.273392 1417.069214,190.772415 
	C1418.885864,186.734528 1417.881592,180.304840 1423.500854,179.397186 
	C1429.569946,178.416870 1435.963013,179.084869 1442.179810,179.526505 
	C1445.382568,179.754028 1446.596558,182.479279 1445.925659,185.435593 
	C1445.121582,188.977753 1443.823486,192.407776 1442.486572,196.642227 
z"/>
<path fill="#070505" opacity="1.000000" stroke="none" 
	d="
M321.926025,227.740982 
	C336.688202,220.181183 352.263428,221.451477 367.767212,220.164948 
	C367.767212,216.397324 368.127869,213.103851 367.694489,209.918411 
	C366.695129,202.572586 362.724335,198.785431 355.336853,197.742233 
	C345.100220,196.296692 335.541565,198.672089 326.276917,202.918167 
	C322.841492,204.492630 319.184601,205.583786 315.732758,206.856979 
	C309.491913,193.124725 311.596863,187.003815 323.670959,182.174881 
	C338.601044,176.203720 354.030487,174.899429 369.754120,178.267578 
	C383.307617,181.170853 393.000031,189.783630 393.532990,203.079071 
	C394.569519,228.934906 393.836548,254.861679 393.836548,281.685822 
	C390.050507,282.042389 386.509308,282.628235 382.963013,282.660767 
	C373.706970,282.745758 373.467834,282.476440 370.666046,273.287384 
	C360.772797,281.869751 349.517334,285.565552 336.540924,284.220306 
	C322.222198,282.735840 311.235748,274.688629 308.197937,262.780151 
	C304.467285,248.155746 308.645447,237.050308 321.926025,227.740982 
M354.789185,264.206055 
	C368.389526,256.927490 370.007416,255.287247 366.858154,238.015533 
	C358.412689,237.924652 349.809387,236.945419 341.626617,240.456665 
	C335.794067,242.959412 333.240692,247.640976 333.787506,253.999161 
	C334.314423,260.126160 337.881378,264.136414 344.506531,265.136169 
	C347.344238,265.564392 350.358093,264.825470 354.789185,264.206055 
z"/>
<path fill="#090808" opacity="1.000000" stroke="none" 
	d="
M1022.065063,202.084503 
	C1022.065063,194.470413 1022.065063,187.841568 1022.065063,180.013519 
	C1026.737671,179.374100 1030.857544,178.352448 1034.980225,178.340195 
	C1043.928467,178.313583 1044.654541,179.240936 1045.708862,188.620255 
	C1045.804077,189.467178 1046.195312,190.280807 1046.658691,191.795013 
	C1054.550537,184.871475 1062.342896,178.859421 1072.618896,177.097366 
	C1089.249268,174.245697 1108.499756,181.477463 1112.295166,204.041199 
	C1112.956543,207.973373 1113.674316,211.957916 1113.706543,215.923630 
	C1113.863281,235.250229 1113.862671,254.578964 1113.775146,273.906281 
	C1113.740967,281.452911 1113.357666,281.684509 1105.963257,282.447235 
	C1087.759399,284.324951 1086.485107,283.210052 1086.484131,265.411621 
	C1086.483398,251.082382 1086.670532,236.749130 1086.368652,222.426224 
	C1086.272583,217.864853 1085.352661,213.176514 1083.947876,208.824371 
	C1082.270630,203.627670 1077.895752,201.012695 1072.591919,200.284058 
	C1062.795532,198.938217 1049.537842,210.340027 1049.461304,220.325424 
	C1049.325928,237.986069 1049.469604,255.648743 1049.372437,273.309875 
	C1049.328247,281.331177 1048.830322,281.728760 1041.033447,282.475555 
	C1040.701782,282.507294 1040.369263,282.528961 1040.036865,282.553223 
	C1022.562378,283.829285 1022.065186,283.372864 1022.065063,266.051697 
	C1022.064941,245.057709 1022.065063,224.063736 1022.065063,202.084503 
z"/>
<path fill="#080707" opacity="1.000000" stroke="none" 
	d="
M961.095337,176.722794 
	C995.586121,180.867355 1001.380005,207.721024 999.959961,229.247482 
	C999.561035,235.294708 996.865906,237.444244 989.792236,237.569000 
	C977.466187,237.786362 965.133972,237.657944 952.804382,237.669830 
	C946.841797,237.675583 940.879211,237.670822 935.005493,237.670822 
	C933.044556,252.875778 940.614807,262.542908 955.254333,263.849182 
	C964.648315,264.687378 973.849731,263.522827 982.808105,260.417969 
	C986.159729,259.256378 989.653442,258.504700 993.304749,257.505219 
	C996.985901,263.030426 996.235779,268.466278 994.922424,273.424805 
	C994.300415,275.773285 991.316528,278.372986 988.843262,279.214203 
	C970.781128,285.357544 952.363037,286.941162 933.947815,281.007233 
	C921.766846,277.082153 913.671692,268.556183 909.714050,256.340576 
	C904.641602,240.684341 904.370300,224.848434 909.265076,209.168442 
	C915.075928,190.554398 927.693604,179.529037 947.294922,177.154495 
	C951.568481,176.636780 955.920593,176.768204 961.095337,176.722794 
M943.336914,220.060822 
	C953.460205,220.060822 963.583435,220.060822 973.701172,220.060822 
	C973.090942,202.696808 966.840576,195.551849 953.744263,195.896225 
	C941.387451,196.221161 934.080200,205.195831 934.606140,220.060730 
	C936.869629,220.060730 939.157166,220.060730 943.336914,220.060822 
z"/>
<path fill="#0D0C0C" opacity="1.000000" stroke="none" 
	d="
M806.114319,3099.876953 
	C807.726135,3106.957764 807.777039,3113.133545 804.703430,3120.132080 
	C800.615967,3120.132080 796.366699,3120.132080 792.117371,3120.132080 
	C776.145691,3120.131836 760.173889,3120.166748 744.202393,3120.120117 
	C732.233215,3120.085205 730.597534,3118.463135 730.576721,3106.111572 
	C730.519470,3072.171875 730.555725,3038.231934 730.555664,3004.292236 
	C730.555664,2998.968262 730.717773,2993.638428 730.512329,2988.322510 
	C730.335632,2983.750244 732.505493,2981.683594 736.802185,2981.042725 
	C744.108093,2979.953125 751.300476,2979.604492 759.139038,2983.283447 
	C759.139038,3020.561523 759.139038,3058.029297 759.139038,3096.637939 
	C771.967834,3096.637939 783.835327,3096.459717 795.691345,3096.749756 
	C799.103333,3096.833252 802.482239,3098.265625 806.114319,3099.876953 
z"/>
<path fill="#080808" opacity="1.000000" stroke="none" 
	d="
M420.809235,201.086792 
	C416.977753,200.831711 414.045532,200.641846 410.938873,200.440689 
	C407.998413,193.619797 408.009308,187.242645 410.597931,179.748947 
	C414.486725,179.334213 418.657135,178.889450 424.276428,178.290161 
	C424.276428,172.681473 424.470428,166.862396 424.218109,161.062714 
	C423.996155,155.961090 426.280548,153.670059 431.194275,153.595963 
	C431.525696,153.590973 431.856506,153.533279 432.187317,153.497589 
	C450.106812,151.563675 451.494141,152.787277 451.713501,170.515991 
	C451.745483,173.102005 452.002533,175.685257 452.195435,178.945114 
	C458.251617,178.945114 463.843872,179.000443 469.434418,178.927643 
	C473.922760,178.869202 476.294464,180.867462 476.281006,185.461395 
	C476.278107,186.458466 476.358154,187.455536 476.387146,188.452988 
	C476.729309,200.218964 476.154266,200.838638 464.469543,200.993423 
	C460.534729,201.045547 456.598633,201.001663 451.962677,201.001663 
	C451.962677,218.318054 451.591125,234.882034 452.126160,251.416672 
	C452.377563,259.185822 457.480347,262.491455 465.132782,261.386261 
	C468.328918,260.924652 471.474243,260.111084 474.094299,259.570648 
	C475.010345,260.463959 475.385773,260.651825 475.435669,260.904114 
	C478.998260,278.919006 474.917847,284.035797 456.714600,284.134460 
	C453.076904,284.154144 449.362885,283.986786 445.810608,283.274506 
	C434.921844,281.091156 428.123016,274.419495 425.947601,263.514862 
	C424.978119,258.654938 424.428497,253.641174 424.350952,248.686874 
	C424.137451,235.047501 424.388275,221.400711 424.157501,207.761902 
	C424.119995,205.545441 422.563080,203.354675 420.809235,201.086792 
z"/>
<path fill="#080808" opacity="1.000000" stroke="none" 
	d="
M1338.267090,271.710846 
	C1338.447021,278.553162 1335.397705,282.219238 1329.614990,282.724823 
	C1322.394897,283.356079 1314.976074,284.168915 1307.879883,283.188660 
	C1296.953491,281.679230 1290.024414,274.687744 1287.874268,263.726776 
	C1286.857544,258.544128 1286.312012,253.197006 1286.238770,247.914902 
	C1286.027344,232.650162 1286.163940,217.380585 1286.163940,201.750626 
	C1281.343506,201.211670 1277.159668,200.743866 1272.722778,200.247787 
	C1269.636475,193.339844 1269.659058,186.730576 1272.688843,179.586945 
	C1277.054199,179.158600 1281.244385,178.747437 1286.174561,178.263672 
	C1286.174561,172.061310 1286.261963,166.117630 1286.144531,160.177994 
	C1286.063354,156.081970 1287.908447,153.977081 1291.959229,153.721191 
	C1292.622559,153.679260 1293.282227,153.579346 1293.943604,153.505814 
	C1311.815430,151.518631 1313.288818,152.804153 1313.576904,170.452698 
	C1313.619019,173.035233 1313.873291,175.614319 1314.087280,179.152267 
	C1321.732056,179.152267 1328.910645,179.152267 1336.893555,179.152267 
	C1337.440186,182.824081 1338.133301,185.642609 1338.234741,188.482254 
	C1338.651123,200.141907 1337.937622,200.835541 1326.277222,200.999802 
	C1322.358032,201.055023 1318.437500,201.008545 1313.877319,201.008545 
	C1313.877319,218.447418 1313.499023,235.006180 1314.043457,251.534561 
	C1314.299805,259.315369 1319.348633,262.504730 1327.084106,261.375702 
	C1330.253296,260.913116 1333.381348,260.168182 1337.547485,259.351990 
	C1337.832275,263.796478 1338.059082,267.335083 1338.267090,271.710846 
z"/>
<path fill="#080606" opacity="1.000000" stroke="none" 
	d="
M1141.232910,189.429626 
	C1152.780396,175.127594 1179.524414,173.299225 1196.642212,181.113495 
	C1199.901978,182.601608 1202.096558,184.844559 1202.063843,188.714340 
	C1202.027954,192.959763 1202.055664,197.205704 1202.055664,203.243179 
	C1197.956665,201.858322 1195.412231,200.748581 1192.752808,200.149216 
	C1186.013794,198.630432 1179.272827,196.655533 1172.438721,196.160828 
	C1166.187500,195.708298 1162.040405,199.199677 1160.864014,203.724304 
	C1159.711914,208.155441 1162.036011,212.468521 1168.136475,215.374817 
	C1175.029785,218.658798 1182.329956,221.083710 1189.254517,224.308624 
	C1198.072754,228.415436 1204.613159,234.650314 1206.880371,244.650833 
	C1210.108521,258.890228 1204.238037,272.711243 1191.113647,279.046631 
	C1174.892334,286.876831 1158.158569,286.386017 1141.722656,279.645264 
	C1133.520264,276.281189 1131.967285,267.029602 1137.407104,256.040619 
	C1140.924194,257.611572 1144.491211,259.172913 1148.031372,260.792786 
	C1155.161133,264.055115 1162.579346,265.521667 1170.389771,264.283630 
	C1176.862305,263.257690 1180.276489,260.408417 1181.032349,255.414703 
	C1181.866333,249.905670 1178.664429,246.589172 1174.302246,244.329880 
	C1170.477661,242.348953 1166.385010,240.887283 1162.417603,239.179901 
	C1159.669434,237.997147 1156.881836,236.891327 1154.199951,235.571732 
	C1134.759399,226.006027 1129.676025,208.723862 1141.232910,189.429626 
z"/>
<path fill="#030303" opacity="1.000000" stroke="none" 
	d="
M689.902710,211.999969 
	C689.902710,185.799377 689.902710,160.598785 689.902710,135.320267 
	C699.075867,131.482376 707.334534,131.710632 716.254333,134.865234 
	C716.254333,183.439362 716.254333,231.811600 716.254333,280.471893 
	C709.100830,283.718903 701.851807,282.684418 694.666931,282.092224 
	C690.889709,281.780884 689.837708,279.271942 689.882263,275.830688 
	C689.968445,269.183044 689.903320,262.533447 689.902954,255.884674 
	C689.902161,241.589783 689.902710,227.294876 689.902710,211.999969 
z"/>
<path fill="#0A0909" opacity="1.000000" stroke="none" 
	d="
M496.607086,181.443329 
	C499.824738,179.848129 502.626556,178.583923 505.510925,178.353638 
	C516.793823,177.452820 518.574219,179.022995 520.286316,191.933304 
	C523.093384,188.975616 525.097351,186.706192 527.266785,184.607773 
	C533.856567,178.233582 541.297546,174.879196 550.784302,177.267136 
	C554.901245,178.303421 557.564819,180.097824 557.554443,184.444550 
	C557.539673,190.661163 557.216309,196.877029 556.999939,203.897873 
	C553.592346,203.559647 551.364807,203.561829 549.242188,203.090988 
	C536.966675,200.368195 523.537781,210.665405 523.314819,223.521362 
	C523.032410,239.808777 523.272644,256.104675 523.204712,272.396576 
	C523.166626,281.519958 522.713379,281.929657 513.849060,282.563934 
	C513.517456,282.587708 513.185242,282.602753 512.853210,282.620270 
	C496.307007,283.492401 495.955902,283.193848 495.989899,267.021362 
	C496.049316,238.763992 496.147339,210.506699 496.607086,181.443329 
z"/>
<path fill="#030303" opacity="1.000000" stroke="none" 
	d="
M867.850952,578.000000 
	C867.850952,560.062683 867.850952,543.125366 867.850952,526.172546 
	C875.511230,522.430542 882.843994,523.208191 889.985229,524.321533 
	C891.816772,524.607056 893.446960,527.528320 894.710876,529.528564 
	C895.318970,530.490784 894.881042,532.127319 894.881226,533.458496 
	C894.884705,562.093323 894.893738,590.728149 894.858459,619.362976 
	C894.856079,621.314392 894.512390,623.265442 894.284851,625.664856 
	C885.757263,628.954590 877.439392,628.597229 867.850952,625.699341 
	C867.850952,610.110840 867.850952,594.555359 867.850952,578.000000 
z"/>
<path fill="#030202" opacity="1.000000" stroke="none" 
	d="
M1241.877441,282.636536 
	C1237.067139,282.274109 1233.172974,281.910828 1228.616211,281.485687 
	C1228.616211,247.601562 1228.616211,214.483337 1228.616211,180.819580 
	C1236.822632,177.063889 1245.091553,177.479904 1254.927856,180.782944 
	C1254.944824,214.035812 1254.964844,247.430634 1254.911377,281.506134 
	C1249.957397,281.967926 1246.375488,282.301788 1241.877441,282.636536 
z"/>
<path fill="#403737" opacity="1.000000" stroke="none" 
	d="
M661.246582,371.324097 
	C658.731934,372.018738 656.075623,371.721252 653.419373,371.721283 
	C500.888397,371.723511 348.357452,371.750458 194.891754,371.890808 
	C194.523926,371.343628 195.038773,370.170410 195.666763,370.106323 
	C198.304031,369.837311 200.975113,369.848816 203.633820,369.848694 
	C352.822266,369.840393 502.010712,369.837250 651.199158,369.867584 
	C654.501160,369.868256 657.802979,370.260956 661.246582,371.324097 
z"/>
<path fill="#080808" opacity="1.000000" stroke="none" 
	d="
M878.714844,481.519867 
	C880.814331,481.473083 882.144653,481.387665 883.461182,481.486725 
	C894.263977,482.299438 897.354919,485.825836 896.809814,496.652405 
	C896.437195,504.055603 894.637878,507.236420 888.753174,508.671295 
	C881.596741,510.416229 873.826965,511.472809 868.358582,505.377441 
	C864.090454,500.620087 865.205566,494.051361 866.900208,488.273102 
	C868.435181,483.039276 873.009583,481.761871 878.714844,481.519867 
z"/>
<path fill="#0A0707" opacity="1.000000" stroke="none" 
	d="
M1253.379883,161.492767 
	C1248.649658,162.804276 1244.508545,164.269531 1240.355713,164.303650 
	C1227.551880,164.408875 1221.524292,154.394714 1227.215088,142.716309 
	C1228.150024,140.798004 1230.234741,139.415222 1231.881348,137.885178 
	C1232.323730,137.474136 1233.095703,137.369781 1233.739258,137.230438 
	C1240.999390,135.658524 1249.054199,134.124619 1254.123901,140.484192 
	C1258.919922,146.500198 1258.032471,154.166641 1253.379883,161.492767 
z"/>
<path fill="#FEFE00" opacity="1.000000" stroke="none" 
	d="
M572.000000,1098.167969 
	C598.896118,1098.167969 624.792175,1098.167969 651.156738,1098.167969 
	C651.156738,1214.708862 651.156738,1330.241089 651.156738,1445.781128 
	C644.197388,1447.778687 221.524429,1448.536743 204.327728,1446.499268 
	C204.327728,1330.805786 204.327728,1215.035278 204.327728,1098.167969 
	C326.613434,1098.167969 448.806702,1098.167969 572.000000,1098.167969 
z"/>
<path fill="#FD9219" opacity="1.000000" stroke="none" 
	d="
M203.709183,612.000000 
	C203.709122,534.451355 203.709122,457.902679 203.709122,380.808105 
	C353.088257,380.808105 501.548401,380.808105 650.008911,380.804504 
	C652.053528,387.746521 652.934570,709.770569 650.959106,727.972412 
	C643.947815,729.890442 217.899582,730.474548 203.709244,728.411072 
	C203.709244,690.064087 203.709244,651.532043 203.709183,612.000000 
z"/>
<path fill="#A09EF1" opacity="1.000000" stroke="none" 
	d="
M388.000000,3222.031250 
	C326.376129,3222.031250 265.752289,3222.031250 204.418884,3222.031250 
	C204.418884,3105.847656 204.418884,2990.120850 204.418884,2873.843750 
	C353.096924,2873.843750 501.592468,2873.843750 650.062195,2873.843750 
	C652.016235,2880.834717 652.571594,3208.174805 650.535828,3222.031250 
	C563.454102,3222.031250 476.227051,3222.031250 388.000000,3222.031250 
z"/>
<path fill="#54F996" opacity="1.000000" stroke="none" 
	d="
M651.638184,1902.000000 
	C651.638123,1987.570312 651.638123,2072.140625 651.638123,2157.348389 
	C502.204926,2157.348389 353.486176,2157.348389 204.241425,2157.348389 
	C204.241425,2041.758667 204.241425,1926.360352 204.241425,1810.505859 
	C353.181671,1810.505859 501.681458,1810.505859 651.638306,1810.505859 
	C651.638306,1840.653076 651.638306,1870.826538 651.638184,1902.000000 
z"/>
<path fill="#FDC323" opacity="1.000000" stroke="none" 
	d="
M203.709503,1008.000000 
	C203.709488,918.134277 203.709488,829.268616 203.709488,739.971802 
	C353.290680,739.971802 501.799042,739.971802 650.971680,739.971802 
	C650.971680,855.639160 650.971680,971.108521 650.971680,1086.623657 
	C643.854858,1088.606567 226.374680,1089.495850 203.709534,1087.412109 
	C203.709534,1061.366699 203.709534,1035.183350 203.709503,1008.000000 
z"/>
<path fill="#65EDF5" opacity="1.000000" stroke="none" 
	d="
M310.000000,2168.043213 
	C424.204620,2168.043213 537.409241,2168.043213 651.126953,2168.043213 
	C651.126953,2282.347168 651.126953,2395.811279 651.126953,2509.238770 
	C643.737122,2511.488770 228.629715,2512.546631 204.309937,2510.357910 
	C204.309937,2396.642090 204.309937,2282.869141 204.309937,2168.043213 
	C239.241943,2168.043213 274.120972,2168.043213 310.000000,2168.043213 
z"/>
<path fill="#99FB39" opacity="1.000000" stroke="none" 
	d="
M228.018372,1457.344238 
	C369.535156,1457.344116 510.056305,1457.344116 651.105103,1457.344116 
	C651.105103,1571.912598 651.105103,1685.375122 651.105103,1799.436279 
	C502.097961,1799.436279 353.373047,1799.436279 204.182953,1799.436279 
	C204.182953,1685.610718 204.182953,1572.144897 204.182953,1457.344482 
	C211.964706,1457.344482 219.493744,1457.344482 228.018372,1457.344238 
z"/>
<path fill="#78B9F2" opacity="1.000000" stroke="none" 
	d="
M294.000244,2521.216553 
	C413.529449,2521.216309 532.058655,2521.216309 651.111572,2521.216309 
	C651.111572,2635.413818 651.111572,2748.539795 651.111572,2862.333008 
	C502.252045,2862.333008 353.788025,2862.333008 205.254349,2862.333008 
	C203.282730,2855.651123 202.499405,2539.659180 204.626892,2521.216797 
	C233.975616,2521.216797 263.487946,2521.216797 294.000244,2521.216553 
z"/>
<path fill="#F5F5F5" opacity="1.000000" stroke="none" 
	d="
M975.389404,626.011230 
	C981.466309,634.737976 979.783264,641.907227 971.098877,645.462036 
	C962.856689,648.835693 954.259033,648.964966 945.758057,646.184998 
	C939.278992,644.066223 937.123474,641.134399 937.457703,635.531921 
	C937.804871,629.711060 942.992249,622.769165 948.192261,622.942627 
	C957.045654,623.238037 965.861511,624.661194 975.389404,626.011230 
z"/>
<path fill="#F5F6F6" opacity="1.000000" stroke="none" 
	d="
M948.796875,571.349426 
	C941.075256,564.359436 939.198914,556.228699 942.992371,548.787415 
	C945.962219,542.961914 952.707703,539.820984 959.870056,540.928772 
	C968.273987,542.228577 973.413879,548.196106 973.459717,556.706726 
	C973.507568,565.584656 967.977600,572.185608 959.244446,572.931458 
	C956.047913,573.204468 952.739441,572.166992 948.796875,571.349426 
z"/>
<path fill="#F9F9F9" opacity="1.000000" stroke="none" 
	d="
M853.568970,251.066864 
	C849.740723,254.350784 846.743103,257.675751 843.025146,259.631927 
	C833.969727,264.396454 824.507507,261.706421 820.299927,252.488922 
	C813.646301,237.912872 813.343384,222.800598 820.846313,208.379105 
	C825.621887,199.200073 836.042908,196.729294 844.747864,202.371353 
	C852.661316,207.500366 859.597717,213.455612 857.834473,224.742294 
	C857.024963,229.924332 858.129517,235.386429 857.540405,240.628738 
	C857.161377,244.001572 855.280029,247.205582 853.568970,251.066864 
z"/>
<path fill="#F8F8F8" opacity="1.000000" stroke="none" 
	d="
M262.475128,171.576416 
	C267.634247,178.437866 268.637390,185.515823 267.261444,192.966873 
	C265.039062,205.001617 257.645905,211.392212 245.324295,211.978638 
	C240.722992,212.197617 236.102539,212.014099 230.892120,212.014099 
	C230.892120,196.472260 230.892120,181.378830 230.892120,165.387268 
	C241.615570,165.379257 252.614609,162.744202 262.475128,171.576416 
z"/>
<path fill="#FAFBFB" opacity="1.000000" stroke="none" 
	d="
M889.813843,3055.409668 
	C889.923523,3064.549561 890.780762,3072.948486 889.673462,3081.080078 
	C887.924866,3093.920898 879.446350,3100.821289 867.392822,3100.910889 
	C856.906372,3100.988770 849.401001,3095.909912 846.432800,3085.908936 
	C843.457886,3075.885498 842.974365,3065.619873 845.507141,3055.364014 
	C848.598511,3042.846191 855.422913,3036.552490 866.328308,3036.037842 
	C878.119934,3035.480957 884.497192,3040.122803 889.115540,3052.636475 
	C889.345093,3053.258789 889.493896,3053.910645 889.813843,3055.409668 
z"/>
<path fill="#FAFBFB" opacity="1.000000" stroke="none" 
	d="
M632.607544,203.320023 
	C643.717346,218.997192 642.749084,235.219803 636.662537,251.363739 
	C633.364014,260.112610 625.420898,263.058136 616.357910,262.886688 
	C607.078125,262.711151 600.231018,258.534576 597.074280,249.791672 
	C592.647034,237.529495 592.360352,224.873581 596.778320,212.598816 
	C602.131775,197.724838 617.176453,193.771927 632.607544,203.320023 
z"/>
<path fill="#F5F6F6" opacity="1.000000" stroke="none" 
	d="
M354.040527,264.411438 
	C350.358093,264.825470 347.344238,265.564392 344.506531,265.136169 
	C337.881378,264.136414 334.314423,260.126160 333.787506,253.999161 
	C333.240692,247.640976 335.794067,242.959412 341.626617,240.456665 
	C349.809387,236.945419 358.412689,237.924652 366.858154,238.015533 
	C370.007416,255.287247 368.389526,256.927490 354.040527,264.411438 
z"/>
<path fill="#F5F8F8" opacity="1.000000" stroke="none" 
	d="
M942.390808,220.060776 
	C939.157166,220.060730 936.869629,220.060730 934.606140,220.060730 
	C934.080200,205.195831 941.387451,196.221161 953.744263,195.896225 
	C966.840576,195.551849 973.090942,202.696808 973.701172,220.060822 
	C963.583435,220.060822 953.460205,220.060822 942.390808,220.060776 
z"/>
</svg>