<!-- Generated by IcoMoon.io -->
<svg version="1.1" xmlns="http://www.w3.org/2000/svg" width="32" height="32" viewBox="0 0 32 32">
<title>paw-marks</title>
<path d="M3.938 23.563c0 0-0.063 0-0.063 0-0.188 0.063-0.375 0.563-0.188 1.188s0.625 0.938 0.875 0.813c0.188-0.063 0.375-0.563 0.125-1.125v0c-0.188-0.563-0.563-0.875-0.75-0.875M4.5 26.688c-0.75 0-1.5-0.625-1.813-1.625-0.375-1.125 0-2.25 0.875-2.5 0.813-0.313 1.813 0.375 2.188 1.5s0 2.25-0.875 2.563c-0.125 0-0.25 0.063-0.375 0.063M1.375 26.75c0 0 0 0-0.063 0-0.188 0.063-0.375 0.563-0.125 1.188 0.188 0.625 0.625 0.938 0.813 0.875s0.375-0.563 0.188-1.188c-0.188-0.563-0.563-0.875-0.813-0.875M1.938 29.875c-0.75 0-1.5-0.625-1.813-1.625-0.375-1.125 0-2.188 0.875-2.5 0.875-0.25 1.813 0.375 2.188 1.5 0.375 1.188 0 2.25-0.875 2.563-0.125 0.063-0.25 0.063-0.375 0.063M8.875 23.563c-0.25 0-0.625 0.313-0.813 0.875v0c-0.188 0.563 0 1.063 0.188 1.125 0.25 0.125 0.625-0.188 0.875-0.813 0.188-0.625 0-1.125-0.188-1.188 0 0-0.063 0-0.063 0M8.313 26.688c-0.125 0-0.25-0.063-0.375-0.063-0.875-0.313-1.25-1.438-0.875-2.563s1.375-1.813 2.188-1.5c0.875 0.25 1.25 1.375 0.875 2.5-0.313 1-1.063 1.625-1.813 1.625M10.625 27.625c-0.188 0.625 0 1.125 0.188 1.188s0.625-0.25 0.813-0.875c0.25-0.625 0.063-1.125-0.125-1.188-0.25-0.063-0.688 0.25-0.875 0.875M10.875 29.875c-0.125 0-0.25 0-0.375-0.063-0.875-0.313-1.25-1.375-0.875-2.563v0c0.375-1.125 1.313-1.75 2.188-1.5 0.875 0.313 1.25 1.375 0.875 2.5-0.375 1-1.063 1.625-1.813 1.625M6.375 27.75c0 0-0.063 0-0.063 0.063l-2 3c-0.063 0-0.063 0 0 0.063 0 0.063 0.063 0.063 0.063 0.063h4.063c0.063 0 0.063 0 0.125-0.063 0 0 0-0.063-0.063-0.063l-2-3c0-0.063-0.063-0.063-0.125-0.063M8.438 32h-4.063c-0.438 0-0.813-0.25-1.063-0.625-0.188-0.375-0.125-0.813 0.063-1.188l2-3c0.25-0.313 0.625-0.5 1-0.5 0.438 0 0.813 0.188 1 0.5l2.063 3.063c0.188 0.313 0.25 0.75 0.063 1.125-0.25 0.375-0.625 0.625-1.063 0.625M23.125 12.375c0 0-0.063 0-0.063 0-0.188 0.063-0.375 0.563-0.188 1.188 0.25 0.625 0.625 0.875 0.875 0.813 0.188-0.063 0.375-0.563 0.188-1.188v0c-0.188-0.563-0.563-0.813-0.813-0.813M23.688 15.438c-0.75 0-1.5-0.625-1.813-1.563-0.375-1.125 0-2.25 0.875-2.5 0.813-0.313 1.813 0.375 2.188 1.5s0 2.25-0.875 2.5c-0.125 0.063-0.25 0.063-0.375 0.063M20.625 15.563c-0.063 0-0.063 0-0.125 0-0.188 0.063-0.375 0.563-0.125 1.188 0.188 0.625 0.625 0.938 0.813 0.813 0.188-0.063 0.375-0.563 0.188-1.125s-0.563-0.875-0.75-0.875M21.125 18.688c-0.75 0-1.438-0.625-1.75-1.625-0.375-1.125 0-2.25 0.813-2.5 0.875-0.313 1.813 0.375 2.188 1.5s0 2.25-0.813 2.563c-0.188 0-0.313 0.063-0.438 0.063M28.063 12.375c-0.188 0-0.563 0.25-0.75 0.813v0c-0.25 0.625-0.063 1.125 0.125 1.188 0.25 0.063 0.688-0.188 0.875-0.813s0-1.125-0.188-1.188c0 0-0.063 0-0.063 0M27.5 15.438c-0.125 0-0.25 0-0.375-0.063-0.875-0.25-1.25-1.375-0.875-2.5s1.375-1.813 2.188-1.5c0.875 0.25 1.25 1.375 0.875 2.5-0.313 0.938-1.063 1.563-1.813 1.563M29.813 16.438c-0.188 0.563 0 1.063 0.188 1.125 0.188 0.125 0.625-0.188 0.875-0.813 0.188-0.625 0-1.125-0.188-1.188-0.25-0.063-0.625 0.25-0.875 0.875M30.063 18.688c-0.125 0-0.25-0.063-0.375-0.063-0.875-0.313-1.25-1.438-0.875-2.563v0c0.375-1.125 1.313-1.813 2.188-1.5 0.875 0.25 1.25 1.375 0.875 2.5-0.313 1-1.063 1.625-1.813 1.625M25.625 16.563c-0.063 0-0.125 0-0.125 0l-2 3.063c0 0-0.063 0 0 0.063 0 0.063 0.063 0.063 0.063 0.063h4.125c0 0 0 0 0.063-0.063 0-0.063 0-0.063 0-0.063l-2.063-3.063c0 0-0.063 0-0.063 0M27.688 20.813h-4.125c-0.438 0-0.813-0.25-1-0.625-0.25-0.375-0.188-0.813 0.063-1.188l2-3c0.188-0.313 0.563-0.563 1-0.563 0.375 0 0.75 0.25 1 0.563l2 3c0.25 0.375 0.25 0.813 0.063 1.188s-0.625 0.625-1 0.625M3.938 1.125c0 0-0.063 0.063-0.063 0.063-0.188 0.063-0.375 0.563-0.188 1.188 0.188 0.563 0.625 0.875 0.875 0.813 0.188-0.063 0.375-0.563 0.125-1.188v0c-0.188-0.563-0.563-0.875-0.75-0.875M4.5 4.25c-0.75 0-1.5-0.625-1.813-1.563-0.375-1.125 0-2.25 0.875-2.563 0.813-0.25 1.813 0.438 2.188 1.563s0 2.25-0.875 2.5c-0.125 0.063-0.25 0.063-0.375 0.063M1.375 4.375c0 0 0 0-0.063 0-0.188 0.063-0.375 0.563-0.125 1.188 0.188 0.625 0.625 0.875 0.813 0.813s0.375-0.563 0.188-1.188c-0.188-0.563-0.563-0.813-0.813-0.813M1.938 7.438c-0.75 0-1.5-0.625-1.813-1.563-0.375-1.125 0-2.25 0.875-2.5 0.875-0.313 1.813 0.375 2.188 1.5s0 2.25-0.875 2.5c-0.125 0.063-0.25 0.063-0.375 0.063M8.875 1.125c-0.25 0-0.625 0.313-0.813 0.875v0c-0.188 0.625 0 1.125 0.188 1.188 0.25 0.063 0.625-0.25 0.875-0.813 0.188-0.625 0-1.125-0.188-1.188 0 0-0.063-0.063-0.063-0.063M8.313 4.25c-0.125 0-0.25 0-0.375-0.063-0.875-0.25-1.25-1.375-0.875-2.5s1.375-1.813 2.188-1.563c0.875 0.313 1.25 1.438 0.875 2.563-0.313 0.938-1.063 1.563-1.813 1.563M10.625 5.188c-0.188 0.625 0 1.125 0.188 1.188s0.625-0.188 0.813-0.813c0.25-0.625 0.063-1.125-0.125-1.188-0.25-0.063-0.688 0.188-0.875 0.813M10.875 7.438c-0.125 0-0.25 0-0.375-0.063-0.875-0.25-1.25-1.375-0.875-2.5v0c0.375-1.125 1.313-1.813 2.188-1.5 0.875 0.25 1.25 1.375 0.875 2.5-0.375 0.938-1.063 1.563-1.813 1.563M6.375 5.313c0 0-0.063 0.063-0.063 0.063l-2 3c-0.063 0.063-0.063 0.063 0 0.125 0 0.063 0.063 0.063 0.063 0.063h4.063c0.063 0 0.063 0 0.125-0.063 0-0.063 0-0.063-0.063-0.063l-2-3.063c0 0-0.063-0.063-0.125-0.063M8.438 9.625h-4.063c-0.438 0-0.813-0.25-1.063-0.625-0.188-0.375-0.125-0.813 0.063-1.188l2-3c0.25-0.375 0.625-0.563 1-0.563 0.438 0 0.813 0.188 1 0.563l2.063 3c0.188 0.375 0.25 0.813 0.063 1.188-0.25 0.375-0.625 0.625-1.063 0.625"></path>
</svg>
