<!-- Generated by IcoMoon.io -->
<svg version="1.1" xmlns="http://www.w3.org/2000/svg" width="26" height="32" viewBox="0 0 26 32">
<title>Pelican</title>
<path d="M10.342 4.247c0 0.334-0.135 0.604-0.302 0.604s-0.302-0.271-0.302-0.604c0-0.334 0.135-0.604 0.302-0.604s0.302 0.271 0.302 0.604zM11.405 4.362c0 0.334-0.135 0.604-0.302 0.604s-0.302-0.271-0.302-0.604c0-0.334 0.135-0.604 0.302-0.604s0.302 0.271 0.302 0.604zM24.814 19.382c-0.827-3.037-2.499-5.609-4.746-7.527l-0.021-0.017c-0.102-0.074-2.56-1.853-4.221-2.138-0.287-0.049-0.576-0.090-0.858-0.131-1.449-0.202-2.335-0.379-2.419-1.091-0.072-0.596 0.223-1.039 0.512-1.469 0.229-0.285 0.394-0.631 0.469-1.009l0.002-0.015c0.008-0.085 0.013-0.184 0.013-0.284 0-0.788-0.287-1.51-0.761-2.065l0.004 0.004c-0.501-0.53-1.21-0.86-1.995-0.86-0.039 0-0.078 0.001-0.117 0.002l0.006-0c-0.855 0-1.864 0.279-3.003 0.832l-6.513 0.225c-0.137 0.005-0.246 0.118-0.246 0.256 0 0.063 0.022 0.12 0.060 0.164l-0-0c0.154 0.184 3.761 4.498 5.788 4.787 0.219 0.033 0.471 0.053 0.729 0.054h0.001c0.029 0.001 0.063 0.001 0.097 0.001 0.739 0 1.423-0.236 1.981-0.636l-0.010 0.007c-0.059 0.865 0.023 2.463 0.957 4.608 0.722 1.651 1.51 3.098 3.149 4.285-0.002 0.010-0.002 0.022-0.002 0.033s0.001 0.023 0.002 0.035l-0-0.001c0.015 0.095 0.328 2.143 0.538 3.049l-2.647 0.881c-0.104 0.034-0.179 0.13-0.179 0.244 0 0.098 0.055 0.183 0.136 0.226l0.001 0.001c0.422 0.23 0.92 0.449 1.437 0.627l0.071 0.021h0.041c0.292 0 1.114-0.353 2.45-1.052 0.082-0.044 0.137-0.129 0.137-0.227 0-0.010-0.001-0.020-0.002-0.030l0 0.001c0-0.020-0.202-1.823-0.212-2.79 0.141 0.064 0.284 0.125 0.433 0.189 0.067 0.428 0.335 2.143 0.512 2.952l-2.627 0.886c-0.102 0.035-0.174 0.13-0.174 0.242 0 0.099 0.057 0.185 0.139 0.228l0.001 0.001c0.423 0.231 0.922 0.451 1.44 0.629l0.070 0.021h0.041c0.289 0 1.114-0.353 2.45-1.052 0.082-0.044 0.137-0.129 0.137-0.227 0-0.010-0.001-0.020-0.002-0.030l0 0.001c0-0.023-0.241-2.168-0.212-3.034 1.511 0.445 3.326 0.817 5.185 1.043l0.168 0.017h0.036c0 0 0.001 0 0.001 0 0.141 0 0.256-0.115 0.256-0.256 0-0.103-0.061-0.192-0.148-0.232l-0.002-0.001-0.666-0.438c0.595 0.186 1.296 0.332 2.018 0.41l0.050 0.004h0.026c0.141-0 0.255-0.115 0.255-0.256 0-0.038-0.008-0.074-0.023-0.107l0.001 0.002zM7.68 4.114c0.067 0.033 0.192 0.1 0.358 0.195-0.768-0.015-1.981-0.051-3.277-0.092zM9.7 7.68c-0.519 0.564-1.261 0.916-2.086 0.916-0.042 0-0.083-0.001-0.125-0.003l0.006 0c-0.233-0.001-0.461-0.018-0.684-0.052l0.026 0.003c-1.37-0.207-3.727-2.657-4.844-3.907l3.139 0.105c1.684 0.051 2.647 0.082 3.2 0.082 0.205 0 0.353 0 0.463 0 0.543 0.41 1.103 0.963 1.252 1.587 0.020 0.089 0.031 0.192 0.031 0.297 0 0.359-0.133 0.686-0.353 0.936l0.001-0.002zM13.117 21.99c-0.312-0.1-0.576-0.211-0.829-0.342l0.030 0.014 2.273-0.768c0.102-0.035 0.174-0.131 0.174-0.242 0-0.025-0.004-0.049-0.010-0.072l0 0.002c-0.148-0.512-0.404-2.094-0.512-2.834q0.33 0.205 0.707 0.397c-0.020 0.768 0.138 2.383 0.195 2.921-0.873 0.438-1.856 0.899-2.028 0.911zM15.316 23.037c-0.312-0.1-0.576-0.211-0.829-0.342l0.030 0.014 2.273-0.768c0.102-0.035 0.174-0.131 0.174-0.242 0-0.025-0.004-0.049-0.010-0.072l0 0.002c-0.148-0.512-0.404-2.094-0.512-2.834 0.228 0.084 0.466 0.166 0.714 0.256-0.051 0.699 0.128 2.496 0.187 3.072-0.565 0.314-1.234 0.618-1.928 0.87l-0.1 0.032zM21.911 17.582c0.527 0.489 1.236 1.080 1.766 1.513-1.134-0.253-2.108-0.559-3.046-0.937l0.13 0.046c-0.027-0.011-0.058-0.017-0.091-0.017-0.141 0-0.256 0.115-0.256 0.256 0 0.087 0.044 0.165 0.111 0.211l0.001 0.001 1.421 0.932c-2.975-0.448-5.056-1.044-6.572-1.792-0.033-0.030-0.075-0.052-0.121-0.061l-0.002-0c-2.458-1.236-3.387-2.865-4.26-4.864-1.239-2.844-0.896-4.677-0.835-4.951 0.272-0.327 0.437-0.752 0.437-1.215 0-0.15-0.017-0.296-0.050-0.436l0.003 0.013c-0.187-0.788-0.868-1.452-1.498-1.92v0c-0.21-0.157-0.451-0.317-0.7-0.464l-0.037-0.020c1.869-0.814 3.295-0.768 4.096 0.1 0.39 0.462 0.627 1.064 0.627 1.722 0 0.081-0.004 0.16-0.011 0.239l0.001-0.010c-0.072 0.308-0.208 0.577-0.392 0.805l0.003-0.004c-0.305 0.458-0.681 1.024-0.589 1.812 0.138 1.155 1.459 1.341 2.857 1.536 0.276 0.038 0.561 0.079 0.842 0.128 1.549 0.256 3.983 2.030 3.991 2.048 1.976 1.715 3.483 3.919 4.337 6.426l0.031 0.104c-0.532-0.433-1.28-1.062-1.848-1.577-0.046-0.042-0.107-0.068-0.174-0.068-0.142 0-0.256 0.115-0.256 0.256 0 0.074 0.032 0.141 0.082 0.188l0 0z"></path>
</svg>
