<?xml version="1.0" standalone="no"?>
<!DOCTYPE svg PUBLIC "-//W3C//DTD SVG 20010904//EN"
 "http://www.w3.org/TR/2001/REC-SVG-20010904/DTD/svg10.dtd">
<svg version="1.0" xmlns="http://www.w3.org/2000/svg"
 width="1512.000000pt" height="1488.000000pt" viewBox="0 0 1512.000000 1488.000000"
 preserveAspectRatio="xMidYMid meet">

<g transform="translate(0.000000,1488.000000) scale(0.100000,-0.100000)"
fill="#000000" stroke="none">
<path d="M12885 14861 c-49 -22 -899 -891 -929 -949 -27 -52 -25 -135 3 -191
14 -26 120 -144 262 -290 131 -135 239 -249 239 -253 0 -3 -230 -243 -511
-532 l-511 -526 -574 0 c-598 0 -648 -3 -701 -43 -16 -12 -436 -440 -933 -952
-497 -511 -907 -931 -911 -933 -3 -2 -100 94 -215 213 l-209 216 -590 -537
c-325 -296 -591 -541 -593 -545 -2 -4 105 -119 238 -255 132 -136 239 -251
238 -255 -2 -4 -675 -699 -1496 -1543 l-1493 -1536 -587 0 c-354 0 -601 -4
-622 -10 -20 -5 -49 -20 -66 -32 -47 -36 -1056 -1076 -1085 -1119 -36 -52 -43
-111 -23 -178 14 -49 34 -73 194 -240 98 -102 210 -217 249 -256 39 -38 71
-73 71 -78 0 -5 -109 -121 -242 -259 -134 -137 -249 -262 -257 -276 -37 -70
-32 -170 12 -229 45 -61 2010 -2074 2041 -2090 42 -23 131 -22 179 2 26 12
409 399 1164 1175 l1125 1157 187 -191 c103 -105 584 -599 1069 -1097 484
-499 895 -917 912 -929 20 -14 51 -24 88 -26 106 -9 89 -24 793 701 385 395
647 674 656 694 21 50 18 134 -6 184 -22 43 -631 679 -694 724 -76 54 -181 39
-263 -39 l-54 -51 -218 224 c-120 123 -239 247 -264 275 l-47 50 345 355 c189
195 355 372 367 394 22 40 22 42 22 525 0 458 -1 487 -19 520 -11 19 -81 100
-158 179 -76 80 -138 149 -138 153 0 8 1127 1170 1140 1176 8 3 215 -206 215
-218 0 -5 -42 -55 -94 -110 -126 -136 -145 -203 -90 -312 10 -20 442 -473 959
-1005 986 -1015 995 -1023 1079 -1023 84 0 117 28 465 387 181 187 336 353
345 369 26 48 21 150 -9 201 -14 23 -450 479 -970 1014 -685 704 -956 977
-985 990 -96 44 -172 15 -303 -114 l-92 -92 -112 112 -112 112 147 150 c84 85
155 165 165 187 16 36 17 100 20 766 l3 728 2154 2216 c2084 2143 2156 2218
2171 2269 17 59 12 109 -16 164 -27 55 -668 711 -715 732 -38 17 -81 19 -705
19 -623 0 -668 -2 -705 -19z m564 -672 c-140 -144 -351 -361 -471 -483 l-216
-221 -62 60 c-34 33 -107 108 -162 167 l-100 108 307 315 308 315 325 0 324 0
-253 -261z m925 5 l159 -166 -85 -86 c-47 -48 -955 -982 -2019 -2077 -1063
-1094 -1936 -1991 -1940 -1993 -11 -5 -314 318 -313 332 1 13 4023 4156 4034
4156 3 0 77 -75 164 -166z m-3364 -2509 c0 -7 -1130 -1169 -1140 -1173 -11 -4
-322 318 -317 331 2 6 185 199 408 428 l404 418 323 0 c177 1 322 -1 322 -4z
m-1596 -1320 l158 -166 -173 -177 c-96 -98 -772 -793 -1503 -1545 -731 -752
-1332 -1367 -1336 -1367 -12 0 -322 320 -318 329 5 14 2998 3091 3007 3091 4
0 78 -74 165 -165z m-1500 -372 l108 -111 -263 -271 c-145 -149 -267 -271
-270 -271 -4 0 -55 50 -113 111 l-106 111 91 96 c172 183 434 450 439 448 3 0
54 -51 114 -113z m2366 -1173 l0 -655 -1531 -1575 c-1158 -1191 -1537 -1586
-1552 -1619 -22 -51 -20 -137 6 -187 8 -16 358 -382 777 -812 418 -431 760
-787 758 -791 -4 -12 -718 -745 -728 -749 -5 -2 -349 347 -765 775 -416 428
-773 788 -795 801 -49 29 -122 31 -182 4 -35 -15 -276 -258 -1168 -1176
l-1125 -1156 -81 82 c-355 360 -1584 1632 -1582 1638 2 4 260 271 573 593
l570 586 162 -162 c90 -89 163 -164 163 -167 0 -4 -198 -210 -440 -459 -242
-249 -440 -456 -440 -460 0 -3 65 -71 145 -151 l145 -145 82 82 c46 46 1548
1590 3338 3432 l3255 3350 207 -212 207 -212 1 -655z m-4176 -1855 l158 -165
-157 -165 c-86 -91 -160 -165 -164 -165 -6 0 -164 159 -275 277 l-49 52 158
165 c87 91 161 166 164 166 3 0 77 -74 165 -165z m5221 -266 c231 -238 442
-456 469 -486 l48 -53 -157 -166 c-87 -90 -161 -163 -165 -162 -4 2 -189 190
-410 418 -222 228 -432 445 -468 482 l-65 67 159 165 c87 91 161 166 164 166
3 0 194 -194 425 -431z m-5840 -374 l157 -165 -157 -162 c-86 -90 -160 -164
-164 -166 -5 -1 -79 72 -166 163 l-158 166 49 52 c110 117 269 277 275 277 4
0 77 -74 164 -165z m3345 -1014 l0 -339 -307 -317 -308 -317 -266 273 -267
273 162 169 161 168 134 -137 133 -137 149 149 148 149 -133 140 -134 140 162
167 161 166 103 -105 102 -104 0 -338z m-3968 379 c84 -88 153 -164 153 -169
0 -6 -72 -82 -160 -171 l-159 -160 -156 161 c-85 89 -157 166 -159 171 -3 10
307 328 320 328 4 0 76 -72 161 -160z m7445 -2 l161 -163 -162 -168 -162 -168
-159 161 c-88 89 -160 165 -160 171 0 11 303 329 313 329 4 0 80 -73 169 -162z
m-8688 -335 c-91 -93 -329 -337 -529 -543 -200 -206 -385 -397 -411 -424 l-47
-49 -158 163 c-88 89 -159 167 -159 172 0 6 182 198 405 428 l405 418 330 1
330 1 -166 -167z m752 -435 l30 -37 -161 -165 -162 -165 -156 161 c-87 88
-159 164 -160 170 -2 5 67 82 155 172 l158 163 133 -131 c73 -72 147 -148 163
-168z m5035 -1988 c87 -89 159 -165 159 -170 0 -9 -921 -962 -935 -968 -9 -3
-320 316 -320 329 0 6 929 969 935 969 1 0 73 -72 161 -160z"/>
<path d="M8960 13152 c-8 -3 -19 -11 -25 -18 -5 -6 -27 -17 -47 -24 -21 -6
-38 -16 -38 -21 0 -5 -7 -9 -15 -9 -9 0 -18 -7 -21 -15 -4 -8 -12 -15 -20 -15
-7 0 -18 -9 -24 -20 -6 -11 -16 -20 -23 -20 -7 0 -21 -13 -30 -30 -10 -16 -24
-30 -30 -30 -7 0 -23 -18 -37 -40 -14 -22 -30 -40 -35 -40 -6 0 -25 -20 -43
-45 -17 -25 -36 -45 -41 -45 -6 0 -24 -21 -42 -47 -18 -27 -46 -62 -63 -79
-17 -18 -53 -57 -81 -88 -63 -72 -304 -316 -311 -316 -3 0 -25 -20 -50 -45
-24 -25 -47 -45 -50 -45 -12 0 -133 -93 -138 -107 -3 -7 -12 -13 -21 -13 -8 0
-15 -4 -15 -9 0 -5 -12 -14 -27 -20 -16 -6 -48 -23 -73 -37 -63 -36 -180 -79
-210 -77 -61 4 -108 11 -119 17 -6 4 -16 4 -21 1 -6 -4 -17 -1 -25 5 -8 6 -24
13 -37 15 -13 2 -37 6 -55 9 -30 5 -32 3 -38 -35 -8 -45 3 -156 15 -164 4 -3
13 -27 20 -54 6 -27 18 -52 26 -55 8 -3 14 -11 14 -19 0 -7 6 -19 13 -26 6 -6
12 -15 13 -19 3 -23 26 -63 39 -69 9 -3 14 -12 11 -19 -3 -8 7 -21 24 -31 17
-9 30 -24 30 -33 0 -22 59 -57 98 -58 17 0 32 2 32 6 4 86 12 188 17 195 3 5
7 28 8 51 5 98 40 144 150 197 28 13 54 30 58 36 4 7 15 13 22 13 8 0 15 5 15
10 0 6 7 10 15 10 9 0 18 7 21 15 4 8 12 15 20 15 7 0 17 6 21 13 4 6 21 19
36 26 15 8 43 30 62 48 19 18 38 33 43 33 6 0 12 7 16 15 3 8 10 15 15 15 6 0
42 32 81 70 39 39 75 70 79 70 5 0 17 12 27 28 9 15 45 55 78 89 98 98 141
146 160 176 10 15 23 27 30 27 6 0 24 20 39 45 16 25 34 45 40 45 7 0 27 23
46 50 18 28 39 50 45 50 6 0 24 20 39 45 16 25 34 45 41 45 6 0 22 18 36 40
14 22 30 40 37 40 6 0 20 14 30 30 9 17 21 30 26 30 4 0 33 19 64 41 47 35 64
42 102 42 25 0 54 -4 65 -8 10 -4 21 -4 25 2 3 5 14 12 24 16 10 4 17 17 17
31 0 14 4 27 9 31 6 3 4 17 -5 33 -13 26 -17 27 -92 28 -42 0 -84 -2 -92 -4z"/>
<path d="M6862 11959 c-13 -5 -27 -7 -32 -4 -4 3 -24 -2 -43 -10 -19 -8 -37
-12 -40 -9 -8 8 -206 -62 -274 -96 -32 -16 -64 -30 -70 -30 -7 0 -13 -4 -13
-8 0 -4 -17 -14 -37 -21 -21 -8 -49 -22 -62 -32 -13 -11 -30 -19 -37 -19 -8 0
-14 -4 -14 -10 0 -5 -6 -10 -13 -10 -7 0 -31 -13 -53 -30 -21 -16 -45 -30 -51
-30 -7 0 -13 -5 -13 -11 0 -5 -14 -15 -30 -21 -17 -5 -35 -19 -41 -29 -5 -10
-16 -19 -23 -19 -8 0 -16 -7 -20 -15 -3 -8 -12 -15 -21 -15 -8 0 -15 -4 -15
-10 0 -5 -5 -10 -10 -10 -6 0 -27 -16 -47 -35 -20 -19 -40 -35 -44 -35 -11 0
-192 -180 -213 -212 -10 -16 -23 -28 -30 -28 -6 0 -22 -18 -36 -40 -14 -22
-28 -40 -32 -40 -4 0 -59 -52 -122 -115 -64 -63 -118 -115 -121 -115 -3 0 -22
-18 -44 -40 -21 -22 -41 -40 -45 -40 -3 0 -26 -20 -50 -45 -25 -25 -47 -45
-50 -45 -3 0 -16 -10 -29 -22 -46 -44 -100 -88 -107 -88 -4 0 -23 -16 -43 -35
-20 -19 -40 -35 -45 -35 -6 0 -12 -7 -16 -15 -3 -8 -12 -15 -21 -15 -8 0 -15
-4 -15 -10 0 -5 -6 -10 -14 -10 -8 0 -16 -7 -20 -15 -3 -8 -12 -15 -21 -15 -8
0 -15 -4 -15 -10 0 -5 -7 -10 -15 -10 -9 0 -18 -7 -21 -15 -4 -8 -12 -15 -19
-15 -6 0 -24 -11 -39 -25 -15 -14 -29 -25 -32 -25 -2 0 -32 -20 -66 -45 -34
-25 -68 -45 -75 -45 -7 0 -13 -4 -13 -10 0 -5 -7 -10 -15 -10 -9 0 -18 -6 -21
-14 -3 -8 -19 -18 -35 -21 -16 -4 -29 -11 -29 -16 0 -5 -7 -9 -15 -9 -8 0 -15
-4 -15 -9 0 -5 -28 -24 -62 -41 -146 -74 -209 -108 -220 -117 -7 -6 -24 -14
-38 -18 -14 -4 -36 -16 -49 -26 -12 -10 -38 -21 -57 -25 -18 -3 -38 -12 -44
-19 -7 -8 -35 -21 -63 -31 -29 -9 -59 -22 -67 -30 -8 -7 -49 -24 -90 -37 -41
-14 -133 -46 -205 -72 -167 -60 -248 -85 -253 -80 -2 2 -32 -6 -66 -19 -33
-12 -68 -21 -78 -19 -9 2 -33 -3 -53 -11 -20 -9 -41 -14 -46 -11 -4 3 -25 -1
-45 -10 -20 -8 -40 -13 -44 -10 -5 3 -19 1 -33 -4 -13 -5 -53 -12 -88 -16 -35
-4 -77 -9 -94 -11 -16 -3 -51 -7 -77 -9 -27 -3 -72 -7 -101 -10 -133 -13 -590
-7 -615 9 -6 3 -26 4 -46 2 -19 -3 -38 -1 -42 5 -3 5 -14 7 -24 4 -10 -3 -21
-1 -25 5 -4 6 -15 8 -25 5 -10 -3 -21 -1 -25 5 -4 6 -15 8 -25 5 -10 -3 -21
-1 -25 5 -4 6 -15 8 -25 5 -10 -3 -21 -1 -25 5 -3 6 -10 8 -15 5 -5 -3 -28 0
-52 6 -24 6 -53 12 -65 13 -12 1 -29 8 -37 15 -9 7 -22 11 -29 8 -7 -3 -21 1
-30 8 -10 7 -26 11 -36 8 -9 -2 -23 2 -30 11 -7 8 -19 12 -27 9 -8 -3 -25 2
-39 11 -14 9 -31 16 -38 14 -6 -1 -21 3 -33 9 -11 7 -33 10 -50 8 -16 -1 -34
1 -40 6 -7 6 -21 6 -35 1 -13 -5 -29 -7 -36 -5 -21 8 -159 -65 -173 -92 -7
-14 -19 -25 -27 -25 -7 0 -13 -7 -13 -16 0 -9 -9 -29 -21 -45 -11 -16 -18 -33
-14 -38 3 -5 1 -12 -3 -15 -13 -8 -8 -115 6 -149 7 -16 12 -34 12 -42 0 -7 7
-15 15 -19 8 -3 15 -12 15 -21 0 -8 18 -26 39 -41 22 -14 38 -31 36 -37 -5
-15 270 -203 289 -199 8 1 54 -25 101 -58 48 -34 93 -59 100 -56 7 2 34 -11
61 -30 26 -19 54 -32 62 -29 7 3 28 -6 46 -20 18 -14 42 -25 52 -25 11 0 36
-11 57 -25 20 -14 42 -23 47 -20 6 4 22 -2 38 -13 15 -11 32 -17 39 -15 6 2
23 -3 38 -13 14 -9 28 -14 32 -10 4 3 17 -1 30 -9 13 -9 28 -13 33 -10 6 4 22
-2 38 -13 15 -11 33 -17 40 -15 7 3 18 0 25 -5 7 -6 34 -12 60 -15 26 -3 54
-10 62 -17 8 -6 19 -9 25 -5 6 4 17 1 25 -5 8 -6 19 -9 25 -5 6 4 17 1 25 -5
8 -6 19 -9 24 -5 6 3 21 0 33 -6 13 -7 32 -13 43 -14 45 -5 132 -16 165 -21
37 -6 99 -13 163 -18 20 -2 40 -5 45 -6 26 -9 363 -13 507 -6 169 8 363 23
415 31 14 3 42 6 62 9 20 2 42 7 48 11 6 4 37 9 68 11 31 3 70 10 85 16 15 6
30 8 33 5 3 -3 18 -1 32 4 14 5 37 11 51 13 26 4 88 18 166 38 22 6 50 12 61
13 12 2 56 15 99 29 42 14 80 24 85 21 4 -2 36 6 71 20 35 13 145 51 244 86
99 34 187 68 195 75 8 7 51 24 94 39 44 14 87 32 95 39 9 7 41 21 71 31 30 9
60 23 66 31 6 7 31 18 56 24 26 7 49 17 51 24 3 7 23 18 46 26 23 7 41 16 41
20 0 4 17 12 39 18 21 7 44 19 51 27 7 8 21 15 32 15 10 0 21 6 24 14 3 8 19
18 35 21 16 4 29 10 29 15 0 4 12 13 28 19 33 14 85 43 92 53 3 3 17 9 32 13
15 4 29 13 32 21 3 8 11 14 19 14 7 0 36 16 63 35 27 19 55 35 61 35 7 0 13 5
13 10 0 6 5 10 10 10 6 0 29 14 52 30 22 16 47 30 55 30 7 0 16 7 19 15 4 8
12 15 20 15 8 0 14 5 14 10 0 6 7 10 15 10 9 0 18 7 21 15 4 8 10 15 15 15 5
0 81 52 168 115 88 63 164 115 170 115 6 0 11 5 11 10 0 6 8 14 17 17 9 4 36
26 59 50 24 24 45 43 48 43 3 0 24 18 46 40 22 22 45 40 49 40 5 0 20 18 35
40 14 22 31 40 36 40 5 0 22 18 36 40 15 22 32 40 38 40 6 0 35 36 65 80 30
44 59 80 65 80 13 1 96 120 96 138 0 8 27 53 60 100 33 48 60 93 60 100 0 7
11 30 25 50 14 20 25 43 25 50 0 7 8 25 17 39 10 15 18 31 18 37 1 6 7 25 14
41 7 17 17 39 21 50 4 11 13 34 20 50 8 17 14 35 15 40 1 10 19 53 35 85 4 9
11 35 15 58 4 23 10 44 14 47 4 2 7 14 6 27 -1 15 -8 23 -21 23 -10 0 -25 4
-31 8 -7 5 -18 5 -23 2 -14 -9 -100 46 -100 64 0 7 -11 22 -25 33 -14 11 -25
26 -25 33 0 8 -9 19 -20 25 -11 6 -20 17 -20 24 0 8 -7 19 -15 26 -8 7 -12 16
-9 21 3 5 -2 12 -10 15 -9 3 -16 15 -16 25 0 10 -5 19 -10 19 -6 0 -10 6 -9
13 2 11 -6 36 -28 87 -4 8 -7 24 -8 35 0 11 -4 25 -7 30 -6 9 -17 91 -22 159
-1 11 2 27 7 34 20 26 -12 37 -111 38 -53 1 -108 -2 -120 -7z m-1359 -1238
c16 -16 16 -92 0 -116 -7 -11 -13 -27 -13 -37 0 -15 -82 -108 -95 -108 -3 0
-21 -15 -40 -33 -19 -18 -47 -40 -62 -48 -15 -7 -31 -19 -35 -25 -10 -16 -245
-184 -256 -184 -6 0 -12 -7 -16 -15 -3 -8 -12 -15 -21 -15 -8 0 -15 -4 -15
-10 0 -5 -7 -10 -15 -10 -9 0 -18 -7 -21 -15 -4 -8 -12 -15 -20 -15 -8 0 -14
-4 -14 -9 0 -5 -12 -14 -27 -20 -37 -14 -66 -33 -76 -48 -4 -7 -15 -13 -24
-13 -8 0 -32 -13 -53 -30 -21 -16 -45 -30 -54 -30 -9 0 -19 -6 -22 -14 -3 -8
-17 -17 -32 -21 -15 -4 -29 -10 -32 -14 -6 -9 -36 -25 -137 -75 -39 -20 -74
-40 -77 -45 -3 -5 -18 -12 -33 -16 -16 -3 -35 -12 -43 -19 -8 -7 -31 -19 -50
-26 -19 -8 -37 -17 -40 -20 -3 -4 -32 -17 -65 -29 -33 -12 -65 -27 -71 -32
-11 -9 -203 -80 -324 -119 -30 -10 -113 -39 -185 -65 -71 -26 -146 -48 -166
-51 -20 -2 -55 -11 -78 -20 -23 -9 -44 -14 -47 -11 -4 3 -18 1 -33 -5 -14 -6
-37 -12 -51 -13 -14 -2 -52 -9 -85 -15 -33 -7 -71 -14 -85 -15 -14 -2 -43 -7
-65 -10 -38 -7 -53 -9 -127 -20 -138 -19 -694 -24 -763 -5 -5 1 -23 2 -40 2
-16 -1 -37 2 -45 5 -18 7 -58 12 -128 17 -29 2 -59 9 -66 15 -7 6 -20 9 -27 6
-8 -2 -23 2 -33 10 -16 12 -18 19 -8 39 8 18 18 23 41 22 16 -1 33 -4 36 -8 4
-4 24 -5 45 -2 21 2 41 1 44 -4 3 -5 23 -7 45 -5 22 1 42 0 44 -5 5 -7 437 -6
522 3 28 2 75 7 105 9 30 3 71 8 90 11 19 3 58 8 85 9 28 2 63 9 78 15 16 6
33 9 38 6 5 -3 18 -1 29 5 11 6 35 12 53 14 66 8 143 25 180 41 21 8 41 14 46
11 4 -3 57 12 118 34 62 21 114 36 116 34 6 -7 160 46 177 60 8 7 65 30 125
51 61 21 117 44 125 51 8 7 40 20 70 29 30 10 60 24 66 31 6 8 15 14 19 14 13
0 154 70 159 79 3 5 22 12 41 15 19 4 35 11 35 16 0 4 28 23 63 40 90 46 122
64 125 73 2 4 10 7 17 7 7 0 15 7 19 15 3 8 12 15 19 15 8 0 33 14 55 30 23
17 46 30 51 30 5 0 58 36 119 80 61 44 115 80 120 80 6 0 12 7 16 15 3 8 12
15 21 15 8 0 15 5 15 10 0 6 7 10 15 10 9 0 18 7 21 15 4 8 12 15 19 15 7 0
15 7 19 15 3 8 12 15 21 15 8 0 15 5 15 10 0 6 5 10 10 10 6 0 27 16 47 35 20
19 42 35 50 35 7 0 13 5 13 10 0 6 8 14 17 17 9 4 33 24 54 45 20 21 41 38 47
38 5 0 12 7 16 15 3 8 10 15 15 15 6 0 29 19 52 41 64 63 177 95 212 60z"/>
</g>
</svg>
