<!-- Generated by IcoMoon.io -->
<svg version="1.1" xmlns="http://www.w3.org/2000/svg" width="32" height="32" viewBox="0 0 32 32">
<title>Handgun</title>
<path d="M27.25 5.313l-2.125 2.125 0.813 2.75 2.688 0.375-1.375-1.188 2.063-1.75-2.438-0.313zM21.938 5.75l-2.438 0.75 0.375 1.188-9.813 2.875c-0.625 0.188-1.25 0.625-1.563 1.188-1.188-0.75-2.875-1-4.625-0.438l0.75 2.438c1.438-0.438 2.5-0.063 2.75 0.438-0.125 0.25-0.25 0.438-0.375 0.625-0.188 0.313 0 0.688 0.313 0.75 3.563 0.625 5 2.75 5 2.75 0.688 1.75 2.063 2.938 4.625 2.25 1.875-0.625 2.875-2.75 2.625-4.75l-0.75-2.5 6.188-1.75-1.438-4.938-1.25 0.375zM15.313 10.375l0.375 1.25-3.688 1.063-0.375-1.25zM16.063 12.813l0.313 1.25-3.688 1.063-0.375-1.188zM17.125 15.563c0.313 0 0.563 0.125 0.625 0.438 0.188 0.75 0.125 2.125-1.313 2.688-1.625 0.563-2.5-0.438-2.688-1.375-0.188-0.688 1.688-1.25 1.875-1.313 0.688-0.25 1.188-0.375 1.5-0.438zM6.438 16.563c-1.75 0.188-3.75 5.75-3.313 11.125 0.375 1.188 1.188 1.875 2.313 1.5l3.125-0.875c0.875-0.25 2.5-1.188 1.188-5.625-0.75-2.688 2.25-2.25 1.688-3.625-0.563-1.25-3.063-2.688-5-2.5zM7.063 18.688c0.75 0 1.375 0.563 1.375 1.313s-0.625 1.313-1.375 1.313c-0.688 0-1.313-0.563-1.313-1.313s0.625-1.313 1.313-1.313z"></path>
</svg>
