<!-- Generated by IcoMoon.io -->
<svg version="1.1" xmlns="http://www.w3.org/2000/svg" width="32" height="32" viewBox="0 0 32 32">
<title>Planks</title>
<path d="M15.745 3.764c-0.436 0.691-2.8 4.382-5.273 8.236l-4.473 7v4.364c0 3.164 0.055 4.436 0.218 4.6 0.327 0.327 11.291 0.309 11.564-0.018 0.091-0.109 2.055-3.818 4.345-8.218l4.145-8 0.055-4.182c0.036-2.291 0-4.364-0.055-4.582l-0.091-0.418h-9.636l-0.8 1.218zM18.182 3.345c0 0.055-0.455 0.745-1.018 1.545-1.418 2.073-3.891 6.182-3.891 6.491 0 0.145 0.145 0.255 0.327 0.255 0.2 0 0.655-0.6 1.291-1.691 0.545-0.909 1.727-2.8 2.636-4.182l1.636-2.491h0.873c0.473 0 0.873 0.073 0.873 0.182 0 0.727-3.4 7.273-5.491 10.564-0.855 1.364-0.964 1.8-0.418 1.8 0.491 0 4.927-7.891 6.364-11.327 0.491-1.164 0.545-1.218 1.127-1.218 0.327 0 0.6 0.036 0.6 0.091s-0.291 0.673-0.655 1.382c-0.6 1.218-0.691 1.8-0.255 1.8 0.091 0 0.545-0.745 1-1.636 0.8-1.6 0.836-1.636 1.473-1.636h0.636l-1.636 3.127c-0.891 1.727-2.691 5.182-4 7.691l-2.364 4.545-0.818 0.055c-0.455 0.036-0.836 0-0.836-0.055s0.473-0.909 1.055-1.873c1.455-2.436 3.855-6.836 3.855-7.091 0-0.127-0.145-0.218-0.309-0.218-0.236 0-0.873 0.982-2.145 3.291-1 1.818-2.2 3.891-2.673 4.636l-0.855 1.345h-1.291c-0.691 0-1.273-0.073-1.273-0.164s0.618-1.364 1.364-2.818c1.418-2.745 1.582-3.273 1.055-3.164-0.2 0.036-0.891 1.182-1.855 3.109l-1.545 3.036h-1.527l1.273-2.091c0.691-1.145 1.218-2.164 1.145-2.273-0.273-0.436-0.655-0.073-1.673 1.673-1.527 2.6-1.655 2.727-2.436 2.655l-0.673-0.055 4.927-7.691c4.855-7.582 4.927-7.673 5.527-7.673 0.327 0 0.6 0.036 0.6 0.073zM21.655 13.2c-3.273 6.345-3.836 7.327-3.836 6.745 0-0.964 7.509-15.527 7.6-14.709 0.036 0.382-0.927 2.436-3.764 7.964zM21.655 16.091c-3.055 5.945-3.836 7.327-3.836 6.836 0-0.909 7.527-15.564 7.6-14.8 0.036 0.382-0.927 2.436-3.764 7.964zM21.691 18.909c-3.036 5.909-3.8 7.255-3.836 6.818-0.036-0.418 0.891-2.364 3.727-7.909 3.073-6 3.8-7.255 3.836-6.818s-0.836 2.273-3.727 7.909zM17.055 20.491l-0.055 1.055h-10.182l-0.055-1.055-0.055-1.036h10.4l-0.055 1.036zM17.091 23.455v1.091l-5.127-0.036-5.145-0.055-0.055-1.055-0.055-1.036h10.382v1.091zM17.055 26.309l-0.055 1.055h-10.182l-0.055-1.055-0.055-1.036h10.4l-0.055 1.036z"></path>
<path d="M16.945 8.036c-0.582 0.927-1.182 1.873-1.291 2.109-0.218 0.418-0.145 0.764 0.164 0.764 0.182 0 2.909-4.091 2.909-4.382 0-0.091-0.164-0.164-0.345-0.164-0.236 0-0.691 0.527-1.436 1.673z"></path>
</svg>
