<!-- Generated by IcoMoon.io -->
<svg version="1.1" xmlns="http://www.w3.org/2000/svg" width="32" height="32" viewBox="0 0 32 32">
<title>Point-of-Interest</title>
<path d="M14.188-0.563c-0.625 0.313-0.75 0.625-2 4.188l-0.5 1.5 0.563 0.438c1.625 1.313 5.875 1.313 7.5 0l0.563-0.438-0.5-1.5c-1.313-3.625-1.375-3.875-2.063-4.188-0.813-0.438-2.813-0.438-3.563 0zM9.375 11.625c-0.5 1.375-0.938 2.75-0.938 3 0 0.625 1.25 1.75 2.563 2.25 0.688 0.25 2.063 0.563 3.063 0.688 3.313 0.5 7.25-0.313 8.813-1.813 0.375-0.375 0.688-0.875 0.688-1.188 0-0.375-1.688-5.188-1.875-5.438-0.063 0-0.375 0.25-0.75 0.625-0.875 0.875-2.625 1.375-4.938 1.375s-4.063-0.5-4.938-1.375c-0.375-0.375-0.688-0.625-0.688-0.625-0.063 0-0.5 1.125-1 2.5zM4.313 17.813c-1.813 0.75-3.563 1.563-3.813 1.813-0.563 0.563-0.625 1.5-0.125 2 0.25 0.188 3.375 1.938 6.938 3.875l6.563 3.5h4.25l6.563-3.5c3.563-1.938 6.688-3.688 6.938-3.875 0.5-0.5 0.438-1.438-0.125-2-0.625-0.563-7.125-3.25-7.25-2.938 0 0.125 0.125 0.625 0.313 1.188 0.313 0.875 0.313 1 0.063 1.625-0.5 0.875-2.563 1.938-4.625 2.375-2.938 0.625-8 0.375-10.125-0.563-2.313-1-3-2-2.438-3.5 0.188-0.5 0.313-1 0.313-1.125-0.063-0.125-1.563 0.375-3.438 1.125z"></path>
</svg>
