<!-- Generated by IcoMoon.io -->
<svg version="1.1" xmlns="http://www.w3.org/2000/svg" width="32" height="32" viewBox="0 0 32 32">
<title>Poison</title>
<path d="M27.938 23.125c-0.75-0.688-1.875-0.75-2.625-0.063l-2.875-2.875c0.813-1.188 1.25-2.625 1.25-4.188s-0.438-3-1.25-4.188l2.875-2.875c0.75 0.688 1.875 0.688 2.563-0.063 0.75-0.75 0.75-1.938 0.063-2.625-0.438-0.438-1.063-0.625-1.625-0.563 0.125-0.563-0.063-1.188-0.5-1.625-0.75-0.75-1.938-0.75-2.688 0-0.688 0.75-0.75 1.875-0.063 2.625l-2.875 2.875c-1.188-0.813-2.625-1.25-4.188-1.25s-3 0.438-4.188 1.25l-2.875-2.875c0.688-0.75 0.688-1.875-0.063-2.563-0.75-0.75-1.938-0.75-2.625-0.063-0.438 0.438-0.625 1.063-0.563 1.625-0.563-0.125-1.188 0.063-1.625 0.5-0.75 0.75-0.75 1.938 0 2.688 0.75 0.688 1.875 0.75 2.625 0.063l2.875 2.875c-0.813 1.188-1.25 2.625-1.25 4.188s0.438 3 1.25 4.188l-2.875 2.875c-0.75-0.688-1.875-0.688-2.563 0.063-0.75 0.75-0.75 1.938-0.063 2.625 0.438 0.438 1.063 0.625 1.625 0.563-0.125 0.563 0.063 1.188 0.5 1.625 0.75 0.75 1.938 0.75 2.688 0 0.688-0.75 0.75-1.875 0.063-2.625l2.75-2.75v1.875c1.188 0.938 2.688 1.5 4.313 1.5s3.125-0.563 4.313-1.5v-1.875l2.75 2.75c-0.688 0.75-0.688 1.875 0.063 2.563 0.75 0.75 1.938 0.75 2.625 0.063 0.438-0.438 0.625-1.063 0.563-1.625 0.563 0.125 1.188-0.063 1.625-0.5 0.75-0.75 0.75-1.938 0-2.688zM13.875 18.875c-0.813 0-1.438-0.688-1.438-1.438 0-0.813 0.625-1.5 1.438-1.5s1.5 0.688 1.5 1.5c0 0.75-0.688 1.438-1.5 1.438zM18.125 18.875c-0.813 0-1.5-0.625-1.5-1.438s0.688-1.5 1.5-1.5c0.813 0 1.438 0.688 1.438 1.5s-0.625 1.438-1.438 1.438z"></path>
</svg>
