<!-- Generated by IcoMoon.io -->
<svg version="1.1" xmlns="http://www.w3.org/2000/svg" width="32" height="32" viewBox="0 0 32 32">
<title>Polluting</title>
<path d="M0.375-0.125h-0.063c0 0.063-0.063 0.063-0.063 0.063-0.125 0-0.125-0.063-0.125-0.125 0-0.125 0-0.188 0.125-0.188 0 0 0.063 0.063 0.063 0.125h0.063c0-0.125-0.063-0.188-0.125-0.188-0.125 0-0.25 0.063-0.25 0.25 0 0.125 0.125 0.188 0.188 0.188 0.125 0 0.188-0.063 0.188-0.125zM0.188-0.25v-0.063c0 0 0 0 0 0s-0.063 0-0.063 0.063v-0.063h-0.063v0.313h0.063v-0.188c0 0 0-0.063 0.063-0.063 0 0 0 0 0 0zM0.313-0.125c0-0.125-0.063-0.188-0.125-0.188-0.125 0-0.188 0.063-0.188 0.188 0 0.063 0.063 0.125 0.188 0.125 0.063 0 0.125 0 0.125-0.063h-0.063c-0.063 0-0.063 0-0.063 0-0.063 0-0.063 0-0.063-0.063h0.188zM0.25-0.188h-0.125c0-0.063 0-0.063 0.063-0.063 0 0 0 0 0.063 0.063zM0.313 0v0c0 0 0-0.063 0-0.063v-0.188c0-0.063-0.063-0.063-0.125-0.063-0.125 0-0.188 0-0.188 0.125h0.125c0-0.063 0-0.063 0.063-0.063 0 0 0 0 0 0 0 0.063 0 0.063-0.063 0.063v0c-0.063 0-0.125 0.063-0.125 0.125s0.063 0.063 0.125 0.063c0 0 0.063 0 0.063-0.063 0 0.063 0 0.063 0 0.063zM0.188-0.125c0 0.063 0 0.063-0.063 0.063 0 0 0 0 0-0.063 0 0 0 0 0 0h0.063c0 0 0 0 0 0zM0.188 0v-0.063c0 0 0 0 0 0-0.063 0-0.063 0-0.063 0v-0.188h0.063v-0.063h-0.063v-0.063h-0.063v0.063h-0.063v0.063h0.063v0.188c0 0.063 0 0.063 0.063 0.063 0 0 0.063 0 0.063 0zM0.313 0v-0.438h-0.063v0.188c-0.063-0.063-0.063-0.063-0.125-0.063s-0.125 0.063-0.125 0.125c0 0.125 0.063 0.188 0.125 0.188s0.063 0 0.125-0.063v0.063zM0.25-0.125c0 0-0.063 0.063-0.063 0.063-0.063 0-0.063-0.063-0.063-0.125 0 0 0-0.063 0.063-0.063 0 0 0.063 0.063 0.063 0.125zM0.313-0.125c0-0.125 0-0.188-0.125-0.188 0 0-0.063 0-0.063 0.063v-0.188h-0.063v0.438h0.063v-0.063c0 0.063 0.063 0.063 0.063 0.063 0.063 0 0.125-0.063 0.125-0.125zM0.25-0.188c0 0.063 0 0.125-0.063 0.125s-0.063-0.063-0.063-0.125c0 0 0-0.063 0.063-0.063s0.063 0.063 0.063 0.063zM0.313-0.313h-0.063l-0.063 0.25-0.063-0.25h-0.125l0.125 0.313c0 0.063 0 0.063-0.063 0.063 0 0 0 0 0 0v0.063c0 0 0 0 0 0 0.063 0 0.125 0 0.125-0.063zM0.438 0v-0.25h-0.188v0.125h0.063c0 0 0 0.063-0.063 0.063s-0.125-0.063-0.125-0.125c0-0.125 0.063-0.188 0.125-0.188 0 0 0.063 0.063 0.063 0.063h0.125c-0.063-0.063-0.125-0.125-0.188-0.125-0.125 0-0.25 0.063-0.25 0.25 0 0.125 0.125 0.188 0.25 0.188 0 0 0.063 0 0.125-0.063v0.063zM0.313 0v-0.188c0-0.063-0.063-0.125-0.125-0.125 0 0-0.063 0-0.063 0.063v-0.063h-0.063v0.313h0.063v-0.188c0-0.063 0-0.063 0.063-0.063 0 0 0.063 0 0.063 0.063v0.188zM0.438 0l-0.188-0.25 0.125-0.188h-0.063l-0.188 0.188v-0.188h-0.063v0.438h0.063v-0.125l0.063-0.063 0.125 0.188zM0.313 0v-0.188c0-0.125-0.063-0.125-0.125-0.125 0 0-0.063 0-0.063 0.063v-0.188h-0.063v0.438h0.063v-0.188c0-0.063 0-0.063 0.063-0.063 0 0 0.063 0 0.063 0.063v0.188zM0.313-0.125c0-0.125-0.063-0.188-0.125-0.188-0.125 0-0.188 0.063-0.188 0.125 0 0.125 0.063 0.188 0.188 0.188 0.063 0 0.125-0.063 0.125-0.125zM0.25-0.125c0 0 0 0.063-0.063 0.063s-0.063-0.063-0.063-0.125c0 0 0-0.063 0.063-0.063s0.063 0.063 0.063 0.125zM0.313 0v-0.063h-0.188v-0.375h-0.063v0.438zM0.188-0.25v-0.063h-0.063c0-0.063 0-0.063 0-0.063 0.063 0 0.063 0 0.063 0v-0.063c0 0-0.063 0-0.063 0-0.063 0-0.063 0.063-0.063 0.063v0.063h-0.063v0.063h0.063v0.25h0.063v-0.25zM0.5 0v-0.25c0-0.063-0.063-0.063-0.125-0.063s-0.063 0-0.063 0.063c-0.063-0.063-0.063-0.063-0.125-0.063 0 0-0.063 0-0.063 0.063v-0.063h-0.063v0.313h0.063v-0.188c0-0.063 0-0.063 0.063-0.063 0 0 0 0 0 0.063v0.188h0.125v-0.188c0-0.063 0-0.063 0.063-0.063 0 0 0 0 0 0.063v0.188zM0.375 0v-0.438h-0.063v0.313l-0.188-0.313h-0.063v0.438h0.063v-0.313l0.188 0.313zM0.313 0v-0.313h-0.063v0.188c0 0.063-0.063 0.063-0.063 0.063-0.063 0-0.063 0-0.063-0.063v-0.188h-0.063v0.188c0 0.063 0 0.125 0.063 0.125s0.063 0 0.125-0.063v0.063zM0.375-0.313c0-0.063-0.063-0.125-0.125-0.125h-0.188v0.438h0.063v-0.125h0.125c0.063 0 0.125-0.063 0.125-0.188zM0.25-0.313c0 0.063 0 0.063-0.063 0.063h-0.063v-0.125h0.063c0.063 0 0.063 0.063 0.063 0.063zM0.125 0.063v-0.375h-0.063v0.375c0 0 0 0-0.063 0 0 0 0 0 0 0v0.063c0 0 0.063 0 0.063 0 0.063 0 0.063 0 0.063-0.063zM0.125-0.375v-0.063h-0.063v0.063zM0.313-0.125h-0.063c-0.063 0.063-0.063 0.063-0.063 0.063-0.063 0-0.063-0.063-0.063-0.063 0-0.063 0-0.125 0.063-0.125 0 0 0 0 0.063 0.063h0.063c0-0.063-0.063-0.125-0.125-0.125-0.125 0-0.188 0.063-0.188 0.188 0 0.063 0.063 0.125 0.188 0.125 0.063 0 0.125-0.063 0.125-0.125zM20.438 18.438c1.188 1.25 1.625 5.063-3.813 6.125-0.813 0.125 0 0.875 4.563 0.875 6 0 7-1 5.188-1.25-0.625-0.063-4-0.375-3.813-1.5 0.563-3.25-0.688-4.375-2-4.625l-0.063 0.25c0 0.063-0.063 0.063-0.063 0.125zM15.063 0.313c-1.313-0.688-2.875-0.125-3.5 1.188-0.625 1.25-0.125 2.813 1.188 3.438 1.25 0.688 2.813 0.125 3.5-1.125 0.625-1.313 0.125-2.875-1.188-3.5zM11.438 6.063v0h0.063c0 0 0.063 0 0.063 0 0.563 0.188 0.938 0.75 0.875 1.313-0.063 0.313-0.188 0.5-0.375 0.688-0.063 0.063-0.125 0.125-0.188 0.125l0.313 0.125c0 0 0.063 0 0.063 0 0.125-0.125 0.375-0.188 0.625-0.125 0.063 0 0.125 0.063 0.125 0.063 0.063 0.063 0.063 0.063 0.063 0.063 0.125 0.063 0.25 0.25 0.25 0.438l2.813 1c0.188-0.125 0.438-0.188 0.625-0.125 0.063 0.063 0.125 0.063 0.188 0.125 0.125 0.063 0.25 0.25 0.25 0.438l1.438 0.5c0-0.5-0.375-0.875-0.813-0.938-1.813-0.188-2.875-1.063-3.625-1.875-0.375-0.438-0.563-0.875-0.75-1.125-0.063-0.188-0.125-0.313-0.125-0.375-0.063-0.063-0.063-0.063-0.063-0.063 0-0.063 0-0.063 0-0.063-0.063-0.188-0.25-0.375-0.438-0.5-0.063-0.063-0.188-0.188-0.313-0.25-0.688-0.375-1.813-0.313-2.688 0.438 0 0 0.063 0 0.063 0 0.75 0 1.375 0.063 1.563 0.125zM10.438 8.25c-0.188 0-0.375 0-0.563 0-0.313 0-0.563 0.063-0.813 0.063-0.063 0.063-0.125 0.063-0.188 0.063 0 0.125 0.063 0.313 0.188 0.5s0.375 0.5 0.688 0.938l0.438-1.188c0.063-0.125 0.125-0.25 0.25-0.375zM7.25 25c1.5-1.375 2.5-2.75 3.125-4.063 0.438-0.875 0.688-1.688 0.813-2.5 0.188 0.375 0.375 0.688 0.563 1.063 0.438 0.875 0.688 1.813 0.688 2.75 0 0.5-0.063 0.938-0.25 1.438-0.188 0.813 0.25 1.625 1 1.813 0.125 0.063 0.25 0.063 0.438 0.063 0.625 0 1.188-0.375 1.375-1v0c0.25-0.813 0.313-1.563 0.313-2.313 0-1.5-0.375-2.875-0.938-4.063-0.188-0.313-0.313-0.625-0.5-0.875-0.063-0.063-0.063-0.063-0.125-0.063-0.125-0.125-0.25-0.313-0.25-0.438l-2.813-1.063c-0.188 0.188-0.438 0.25-0.625 0.125-0.063 0-0.125-0.063-0.188-0.063-0.063-0.063-0.125-0.188-0.188-0.25s-0.063-0.125-0.063-0.188l-0.75-0.25c-0.063-0.063-0.188-0.125-0.25-0.188-0.375-0.25-0.5-0.75-0.313-1.125l0.563-1.625c-0.063 0-0.125-0.063-0.188-0.125 0 0 0 0 0 0-0.563-0.563-0.938-1.063-1.25-1.5-0.188 0.688-0.313 1.438-0.438 2.313-0.063 0.938 0.25 1.563 0.688 1.938 0.063 0.125 0.125 0.25 0.25 0.438 0.188 0.5 0.438 1.188 0.438 2 0 0.688-0.125 1.5-0.625 2.438-0.438 0.938-1.188 2-2.438 3.125-0.625 0.563-0.688 1.5-0.125 2.063 0.563 0.625 1.438 0.625 2.063 0.125zM14.563 15.625c1.188 0.438 2.438-0.188 2.875-1.375s-0.125-2.438-1.313-2.875c-1.188-0.438-2.438 0.125-2.875 1.313s0.125 2.5 1.313 2.938zM14.625 15.375c0-0.063 0-0.063-0.063-0.063l0.563-1.375c0 0.063 0 0.063 0.063 0.063 0.188 0.063 0.375 0 0.5-0.125l1 1.063c-0.563 0.5-1.313 0.688-2.063 0.438zM15.938 11.563c0.063 0 0.063 0.063 0.125 0.063 0.688 0.25 1.188 0.875 1.25 1.625l-1.438 0.188c0-0.188-0.125-0.375-0.375-0.438 0 0 0 0 0 0zM15.438 13.188c0.188 0.063 0.25 0.25 0.188 0.438-0.063 0.125-0.25 0.25-0.375 0.188-0.188-0.063-0.25-0.25-0.188-0.438s0.25-0.25 0.375-0.188zM13.5 12.813c0.125-0.375 0.375-0.688 0.625-0.938l0.875 1.188c-0.063 0.063-0.125 0.125-0.125 0.25-0.063 0.063-0.063 0.188-0.063 0.25l-1.438 0.313c-0.063-0.313-0.063-0.688 0.125-1.063zM11.063 8.375v0l-0.063-0.063c-0.063 0-0.125 0-0.25 0-0.125 0.063-0.25 0.25-0.313 0.438l-0.5 1.25c0.125 0.125 0.25 0.313 0.438 0.438 0.438 0.5 0.438 1.188 0 1.688-0.25 0.188-0.5 0.313-0.813 0.313 0 0-0.063 0-0.063 0-0.125 0-0.25-0.063-0.438-0.125l-0.563 1.563c-0.125 0.438 0.063 0.875 0.5 1l0.813 0.313c0 0.188 0.063 0.313 0.188 0.375 0 0.063 0.063 0.063 0.125 0.125 0.188 0.063 0.375 0 0.5-0.188l2.75 1 0.313 0.125c0 0.188 0.125 0.438 0.313 0.5s0.438 0 0.5-0.188l3.125 1.125c-0.063 0.188 0.063 0.438 0.25 0.5s0.438 0 0.563-0.188l0.813 0.313c0.438 0.125 0.875-0.063 1-0.438 0 0 0 0 0 0l0.063-0.188 1.875-5c0.125-0.375-0.063-0.813-0.5-1l-0.813-0.313c0-0.188-0.125-0.375-0.313-0.438-0.188-0.125-0.375 0-0.5 0.125l-1.438-0.5-1.625-0.625c0-0.188-0.125-0.375-0.313-0.438-0.188-0.125-0.438 0-0.5 0.125l-3.125-1.125c0.063-0.125 0-0.313-0.125-0.375-0.063-0.063-0.063-0.063-0.125-0.063-0.188-0.063-0.313-0.063-0.438 0.063-0.063 0-0.063 0.063-0.063 0.063l-0.75-0.25c-0.063 0.063-0.188 0.063-0.25 0.063s-0.188 0-0.25 0zM16.25 11c0.375 0.125 0.625 0.313 0.875 0.563 0.75 0.688 1.063 1.813 0.688 2.813-0.5 1.375-2 2.063-3.375 1.563s-2.063-2-1.563-3.375c0.375-0.938 1.188-1.563 2.125-1.688 0.438-0.063 0.875 0 1.25 0.125zM8.938 12c0.063 0.063 0.125 0.063 0.25 0.125s0.25 0.063 0.375 0.063c0.188 0 0.438-0.063 0.625-0.25 0.375-0.375 0.375-0.938 0-1.313-0.125-0.125-0.25-0.25-0.313-0.375-0.063-0.063-0.125-0.125-0.188-0.188-0.375-0.438-0.625-0.75-0.813-1.063-0.25-0.375-0.25-0.688-0.25-0.75 0 0 0 0 0 0s0 0 0 0 0.188-0.125 0.438-0.125c0.25-0.063 0.563-0.125 0.813-0.125 0.313 0 0.625 0.063 0.875 0.063 0 0 0 0 0 0 0.125 0 0.25 0.063 0.313 0.063 0 0 0.063 0 0.063 0s0 0 0 0c0.188 0 0.313 0 0.5-0.063 0.125 0 0.25-0.125 0.313-0.188 0.125-0.125 0.25-0.313 0.25-0.5 0.125-0.5-0.25-1-0.688-1.063-0.063 0-0.063 0-0.063 0v0c0 0-0.688-0.125-1.563-0.125-0.063 0-0.188 0-0.313 0-0.5 0-1 0.063-1.5 0.25-0.313 0.125-0.625 0.375-0.875 0.688-0.313 0.25-0.438 0.75-0.438 1.125 0 0.625 0.188 1.125 0.563 1.688 0.063 0.125 0.125 0.188 0.188 0.313 0.313 0.5 0.75 1.063 1.375 1.688 0.063 0 0.063 0 0.063 0.063z"></path>
</svg>
