<!-- Generated by IcoMoon.io -->
<svg version="1.1" xmlns="http://www.w3.org/2000/svg" width="32" height="32" viewBox="0 0 32 32">
<title>Pollution</title>
<path d="M26.563 15.313l-10.25-10.25c-0.313-0.313-0.813-0.313-1.125 0l-1.688 1.688-3.625-3.625c-0.25-0.313-0.688-0.5-1.125-0.5-0.875 0-1.563 0.75-1.563 1.625 0 0.438 0.188 0.875 0.5 1.125l3.563 3.625-8.75 8.688c-0.313 0.313-0.313 0.875 0 1.188l10.313 10.25c0.313 0.313 0.813 0.313 1.125 0l12.625-12.688c0.313-0.313 0.313-0.813 0-1.125zM20.313 18.25h-13.813l9.25-9.25 6.938 6.875zM29.125 23.625l-1.875-3.313c0-0.063-0.063-0.063-0.063-0.063-0.063-0.188-0.25-0.25-0.438-0.25-0.125 0-0.313 0.063-0.375 0.188l-0.063 0.063c0 0 0 0.063-0.063 0.063l-1.875 3.25c-0.313 0.5-0.563 1.125-0.563 1.75 0 1.625 1.313 3 2.938 3s2.938-1.375 2.938-3c0-0.625-0.188-1.25-0.563-1.688z"></path>
</svg>
