<?xml version="1.0" encoding="UTF-8"?>
<svg width="700pt" height="700pt" version="1.1" viewBox="0 0 700 700" xmlns="http://www.w3.org/2000/svg" xmlns:xlink="http://www.w3.org/1999/xlink">
 <defs>
  <symbol id="w" overflow="visible">
   <path d="m18.766-1.125c-0.96875 0.5-1.9805 0.875-3.0312 1.125-1.043 0.25781-2.1367 0.39062-3.2812 0.39062-3.3984 0-6.0898-0.94531-8.0781-2.8438-1.9922-1.9062-2.9844-4.4844-2.9844-7.7344 0-3.2578 0.99219-5.8359 2.9844-7.7344 1.9883-1.9062 4.6797-2.8594 8.0781-2.8594 1.1445 0 2.2383 0.13281 3.2812 0.39062 1.0508 0.25 2.0625 0.625 3.0312 1.125v4.2188c-0.98047-0.65625-1.9453-1.1406-2.8906-1.4531-0.94922-0.3125-1.9492-0.46875-3-0.46875-1.875 0-3.3516 0.60547-4.4219 1.8125-1.0742 1.1992-1.6094 2.8555-1.6094 4.9688 0 2.1055 0.53516 3.7617 1.6094 4.9688 1.0703 1.1992 2.5469 1.7969 4.4219 1.7969 1.0508 0 2.0508-0.14844 3-0.45312 0.94531-0.3125 1.9102-0.80078 2.8906-1.4688z"/>
  </symbol>
  <symbol id="c" overflow="visible">
   <path d="m13.734-11.141c-0.4375-0.19531-0.87109-0.34375-1.2969-0.4375-0.41797-0.10156-0.83984-0.15625-1.2656-0.15625-1.2617 0-2.2305 0.40625-2.9062 1.2188-0.67969 0.80469-1.0156 1.9531-1.0156 3.4531v7.0625h-4.8906v-15.312h4.8906v2.5156c0.625-1 1.3438-1.7266 2.1562-2.1875 0.82031-0.46875 1.8008-0.70312 2.9375-0.70312 0.16406 0 0.34375 0.011719 0.53125 0.03125 0.19531 0.011719 0.47656 0.039062 0.84375 0.078125z"/>
  </symbol>
  <symbol id="b" overflow="visible">
   <path d="m17.641-7.7031v1.4062h-11.453c0.125 1.1484 0.53906 2.0078 1.25 2.5781 0.70703 0.57422 1.7031 0.85938 2.9844 0.85938 1.0312 0 2.082-0.14844 3.1562-0.45312 1.082-0.3125 2.1914-0.77344 3.3281-1.3906v3.7656c-1.1562 0.4375-2.3125 0.76562-3.4688 0.98438-1.1562 0.22656-2.3125 0.34375-3.4688 0.34375-2.7734 0-4.9297-0.70312-6.4688-2.1094-1.5312-1.4062-2.2969-3.3789-2.2969-5.9219 0-2.5 0.75391-4.4609 2.2656-5.8906 1.5078-1.4375 3.582-2.1562 6.2188-2.1562 2.4062 0 4.332 0.73047 5.7812 2.1875 1.4453 1.4492 2.1719 3.3828 2.1719 5.7969zm-5.0312-1.625c0-0.92578-0.27344-1.6719-0.8125-2.2344-0.54297-0.57031-1.25-0.85938-2.125-0.85938-0.94922 0-1.7188 0.26562-2.3125 0.79688s-0.96484 1.2969-1.1094 2.2969z"/>
  </symbol>
  <symbol id="e" overflow="visible">
   <path d="m9.2188-6.8906c-1.0234 0-1.793 0.17188-2.3125 0.51562-0.51172 0.34375-0.76562 0.85547-0.76562 1.5312 0 0.625 0.20703 1.1172 0.625 1.4688 0.41406 0.34375 0.98828 0.51562 1.7188 0.51562 0.92578 0 1.7031-0.32812 2.3281-0.98438 0.63281-0.66406 0.95312-1.4922 0.95312-2.4844v-0.5625zm7.4688-1.8438v8.7344h-4.9219v-2.2656c-0.65625 0.92969-1.3984 1.6055-2.2188 2.0312-0.82422 0.41406-1.8242 0.625-3 0.625-1.5859 0-2.8711-0.45703-3.8594-1.375-0.99219-0.92578-1.4844-2.1289-1.4844-3.6094 0-1.7891 0.61328-3.1016 1.8438-3.9375 1.2383-0.84375 3.1797-1.2656 5.8281-1.2656h2.8906v-0.39062c0-0.76953-0.30859-1.332-0.92188-1.6875-0.61719-0.36328-1.5703-0.54688-2.8594-0.54688-1.0547 0-2.0312 0.10547-2.9375 0.3125-0.89844 0.21094-1.7305 0.52344-2.5 0.9375v-3.7344c1.0391-0.25 2.0859-0.44141 3.1406-0.57812 1.0625-0.13281 2.125-0.20312 3.1875-0.20312 2.7578 0 4.75 0.54688 5.9688 1.6406 1.2266 1.0859 1.8438 2.8555 1.8438 5.3125z"/>
  </symbol>
  <symbol id="a" overflow="visible">
   <path d="m7.7031-19.656v4.3438h5.0469v3.5h-5.0469v6.5c0 0.71094 0.14062 1.1875 0.42188 1.4375s0.83594 0.375 1.6719 0.375h2.5156v3.5h-4.1875c-1.9375 0-3.3125-0.39844-4.125-1.2031-0.80469-0.8125-1.2031-2.1797-1.2031-4.1094v-6.5h-2.4219v-3.5h2.4219v-4.3438z"/>
  </symbol>
  <symbol id="l" overflow="visible">
   <path d="m12.766-13.078v-8.2031h4.9219v21.281h-4.9219v-2.2188c-0.66797 0.90625-1.4062 1.5703-2.2188 1.9844s-1.7578 0.625-2.8281 0.625c-1.8867 0-3.4336-0.75-4.6406-2.25-1.2109-1.5-1.8125-3.4258-1.8125-5.7812 0-2.3633 0.60156-4.2969 1.8125-5.7969 1.207-1.5 2.7539-2.25 4.6406-2.25 1.0625 0 2 0.21484 2.8125 0.64062 0.82031 0.42969 1.5664 1.0859 2.2344 1.9688zm-3.2188 9.9219c1.0391 0 1.8359-0.37891 2.3906-1.1406 0.55078-0.76953 0.82812-1.8828 0.82812-3.3438 0-1.457-0.27734-2.5664-0.82812-3.3281-0.55469-0.76953-1.3516-1.1562-2.3906-1.1562-1.043 0-1.8398 0.38672-2.3906 1.1562-0.55469 0.76172-0.82812 1.8711-0.82812 3.3281 0 1.4609 0.27344 2.5742 0.82812 3.3438 0.55078 0.76172 1.3477 1.1406 2.3906 1.1406z"/>
  </symbol>
  <symbol id="k" overflow="visible">
   <path d="m10.5-3.1562c1.0508 0 1.8516-0.37891 2.4062-1.1406 0.55078-0.76953 0.82812-1.8828 0.82812-3.3438 0-1.457-0.27734-2.5664-0.82812-3.3281-0.55469-0.76953-1.3555-1.1562-2.4062-1.1562-1.0547 0-1.8594 0.38672-2.4219 1.1562-0.55469 0.77344-0.82812 1.8828-0.82812 3.3281 0 1.4492 0.27344 2.5586 0.82812 3.3281 0.5625 0.77344 1.3672 1.1562 2.4219 1.1562zm-3.25-9.9219c0.67578-0.88281 1.4219-1.5391 2.2344-1.9688 0.82031-0.42578 1.7656-0.64062 2.8281-0.64062 1.8945 0 3.4453 0.75 4.6562 2.25 1.207 1.5 1.8125 3.4336 1.8125 5.7969 0 2.3555-0.60547 4.2812-1.8125 5.7812-1.2109 1.5-2.7617 2.25-4.6562 2.25-1.0625 0-2.0078-0.21094-2.8281-0.625-0.8125-0.42578-1.5586-1.0859-2.2344-1.9844v2.2188h-4.8906v-21.281h4.8906z"/>
  </symbol>
  <symbol id="j" overflow="visible">
   <path d="m0.34375-15.312h4.8906l4.125 10.391 3.5-10.391h4.8906l-6.4375 16.766c-0.64844 1.6953-1.4023 2.8828-2.2656 3.5625-0.86719 0.6875-2 1.0312-3.4062 1.0312h-2.8438v-3.2188h1.5312c0.83203 0 1.4375-0.13672 1.8125-0.40625 0.38281-0.26172 0.67969-0.73047 0.89062-1.4062l0.14062-0.42188z"/>
  </symbol>
  <symbol id="i" overflow="visible">
   <path d="m10.047-11.359c1.1016 0 1.8945-0.20312 2.375-0.60938 0.47656-0.41406 0.71875-1.0938 0.71875-2.0312 0-0.92578-0.24219-1.5859-0.71875-1.9844-0.48047-0.40625-1.2734-0.60938-2.375-0.60938h-2.2188v5.2344zm-2.2188 3.6406v7.7188h-5.25v-20.406h8.0312c2.6875 0 4.6562 0.45312 5.9062 1.3594 1.2578 0.89844 1.8906 2.3203 1.8906 4.2656 0 1.3555-0.32812 2.4648-0.98438 3.3281-0.64844 0.86719-1.625 1.5-2.9375 1.9062 0.71875 0.16797 1.3594 0.54297 1.9219 1.125 0.57031 0.57422 1.1484 1.4492 1.7344 2.625l2.8594 5.7969h-5.6094l-2.4844-5.0781c-0.5-1.0195-1.0117-1.7109-1.5312-2.0781-0.51172-0.375-1.1953-0.5625-2.0469-0.5625z"/>
  </symbol>
  <symbol id="h" overflow="visible">
   <path d="m2.1875-5.9688v-9.3438h4.9219v1.5312c0 0.83594-0.007813 1.875-0.015625 3.125-0.011719 1.25-0.015625 2.0859-0.015625 2.5 0 1.2422 0.03125 2.1328 0.09375 2.6719 0.070313 0.54297 0.17969 0.93359 0.32812 1.1719 0.20703 0.32422 0.47266 0.57422 0.79688 0.75 0.32031 0.16797 0.69141 0.25 1.1094 0.25 1.0195 0 1.8203-0.39062 2.4062-1.1719 0.58203-0.78125 0.875-1.8672 0.875-3.2656v-7.5625h4.8906v15.312h-4.8906v-2.2188c-0.74219 0.89844-1.5234 1.5586-2.3438 1.9844-0.82422 0.41406-1.7344 0.625-2.7344 0.625-1.7617 0-3.1055-0.53906-4.0312-1.625-0.92969-1.082-1.3906-2.6602-1.3906-4.7344z"/>
  </symbol>
  <symbol id="g" overflow="visible">
   <path d="m16.547-12.766c0.61328-0.94531 1.3477-1.6719 2.2031-2.1719 0.85156-0.5 1.7891-0.75 2.8125-0.75 1.7578 0 3.0977 0.54688 4.0156 1.6406 0.92578 1.0859 1.3906 2.6562 1.3906 4.7188v9.3281h-4.9219v-7.9844-0.35938c0.007813-0.13281 0.015625-0.32031 0.015625-0.5625 0-1.082-0.16406-1.8633-0.48438-2.3438-0.3125-0.48828-0.82422-0.73438-1.5312-0.73438-0.92969 0-1.6484 0.38672-2.1562 1.1562-0.51172 0.76172-0.77344 1.8672-0.78125 3.3125v7.5156h-4.9219v-7.9844c0-1.6953-0.14844-2.7852-0.4375-3.2656-0.29297-0.48828-0.8125-0.73438-1.5625-0.73438-0.9375 0-1.6641 0.38672-2.1719 1.1562-0.51172 0.76172-0.76562 1.8594-0.76562 3.2969v7.5312h-4.9219v-15.312h4.9219v2.2344c0.60156-0.86328 1.2891-1.5156 2.0625-1.9531 0.78125-0.4375 1.6406-0.65625 2.5781-0.65625 1.0625 0 2 0.25781 2.8125 0.76562 0.8125 0.51172 1.4258 1.2305 1.8438 2.1562z"/>
  </symbol>
  <symbol id="v" overflow="visible">
   <path d="m1.5781-20.406h17.156v3.1719l-10.953 13.25h11.266v3.9844h-17.781v-3.1875l10.938-13.25h-10.625z"/>
  </symbol>
  <symbol id="u" overflow="visible">
   <path d="m2.3594-15.312h4.8906v15.312h-4.8906zm0-5.9688h4.8906v4h-4.8906z"/>
  </symbol>
  <symbol id="f" overflow="visible">
   <path d="m2.3594-15.312h4.8906v15.031c0 2.0508-0.49609 3.6172-1.4844 4.7031-0.98047 1.082-2.4062 1.625-4.2812 1.625h-2.4219v-3.2188h0.85938c0.92578 0 1.5625-0.21094 1.9062-0.625 0.35156-0.41797 0.53125-1.2461 0.53125-2.4844zm0-5.9688h4.8906v4h-4.8906z"/>
  </symbol>
  <symbol id="t" overflow="visible">
   <path d="m2.3594-21.281h4.8906v21.281h-4.8906z"/>
  </symbol>
  <symbol id="s" overflow="visible">
   <path d="m14.312-14.828v3.7188c-1.043-0.4375-2.0547-0.76562-3.0312-0.98438-0.98047-0.21875-1.9023-0.32812-2.7656-0.32812-0.92969 0-1.6211 0.11719-2.0781 0.34375-0.44922 0.23047-0.67188 0.58984-0.67188 1.0781 0 0.38672 0.17188 0.68359 0.51562 0.89062 0.34375 0.21094 0.95703 0.36719 1.8438 0.46875l0.85938 0.125c2.5078 0.32422 4.1953 0.85156 5.0625 1.5781 0.86328 0.73047 1.2969 1.8711 1.2969 3.4219 0 1.6367-0.60547 2.8672-1.8125 3.6875-1.1992 0.8125-2.9922 1.2188-5.375 1.2188-1.0234 0-2.0742-0.078125-3.1562-0.23438-1.0742-0.15625-2.1797-0.39453-3.3125-0.71875v-3.7188c0.96875 0.48047 1.9609 0.83984 2.9844 1.0781 1.0312 0.23047 2.0781 0.34375 3.1406 0.34375 0.95703 0 1.6758-0.12891 2.1562-0.39062 0.47656-0.26953 0.71875-0.66406 0.71875-1.1875 0-0.4375-0.16797-0.75781-0.5-0.96875-0.33594-0.21875-0.99609-0.38281-1.9844-0.5l-0.85938-0.10938c-2.1797-0.26953-3.7031-0.77344-4.5781-1.5156-0.875-0.73828-1.3125-1.8594-1.3125-3.3594 0-1.625 0.55078-2.8281 1.6562-3.6094 1.1133-0.78906 2.8203-1.1875 5.125-1.1875 0.89453 0 1.8359 0.074219 2.8281 0.21875 1 0.13672 2.082 0.35156 3.25 0.64062z"/>
  </symbol>
  <symbol id="r" overflow="visible">
   <path d="m12.422-21.281v3.2188h-2.7031c-0.6875 0-1.1719 0.125-1.4531 0.375-0.27344 0.25-0.40625 0.6875-0.40625 1.3125v1.0625h4.1875v3.5h-4.1875v11.812h-4.8906v-11.812h-2.4375v-3.5h2.4375v-1.0625c0-1.6641 0.46094-2.8984 1.3906-3.7031 0.92578-0.80078 2.3672-1.2031 4.3281-1.2031z"/>
  </symbol>
  <symbol id="d" overflow="visible">
   <path d="m9.6406-12.188c-1.0859 0-1.9141 0.39062-2.4844 1.1719-0.57422 0.78125-0.85938 1.9062-0.85938 3.375s0.28516 2.5938 0.85938 3.375c0.57031 0.77344 1.3984 1.1562 2.4844 1.1562 1.0625 0 1.875-0.38281 2.4375-1.1562 0.57031-0.78125 0.85938-1.9062 0.85938-3.375s-0.28906-2.5938-0.85938-3.375c-0.5625-0.78125-1.375-1.1719-2.4375-1.1719zm0-3.5c2.6328 0 4.6914 0.71484 6.1719 2.1406 1.4766 1.418 2.2188 3.3867 2.2188 5.9062 0 2.5117-0.74219 4.4805-2.2188 5.9062-1.4805 1.418-3.5391 2.125-6.1719 2.125-2.6484 0-4.7148-0.70703-6.2031-2.125-1.4922-1.4258-2.2344-3.3945-2.2344-5.9062 0-2.5195 0.74219-4.4883 2.2344-5.9062 1.4883-1.4258 3.5547-2.1406 6.2031-2.1406z"/>
  </symbol>
  <symbol id="q" overflow="visible">
   <path d="m17.75-9.3281v9.3281h-4.9219v-7.1094c0-1.3438-0.03125-2.2656-0.09375-2.7656s-0.16797-0.86719-0.3125-1.1094c-0.1875-0.3125-0.44922-0.55469-0.78125-0.73438-0.32422-0.17578-0.69531-0.26562-1.1094-0.26562-1.0234 0-1.8242 0.39844-2.4062 1.1875-0.58594 0.78125-0.875 1.8711-0.875 3.2656v7.5312h-4.8906v-21.281h4.8906v8.2031c0.73828-0.88281 1.5195-1.5391 2.3438-1.9688 0.83203-0.42578 1.75-0.64062 2.75-0.64062 1.7695 0 3.1133 0.54688 4.0312 1.6406 0.91406 1.0859 1.375 2.6562 1.375 4.7188z"/>
  </symbol>
  <symbol id="p" overflow="visible">
   <path d="m2.5781-20.406h5.875l7.4219 14v-14h4.9844v20.406h-5.875l-7.4219-14v14h-4.9844z"/>
  </symbol>
  <symbol id="o" overflow="visible">
   <path d="m17.75-9.3281v9.3281h-4.9219v-7.1406c0-1.3203-0.03125-2.2344-0.09375-2.7344s-0.16797-0.86719-0.3125-1.1094c-0.1875-0.3125-0.44922-0.55469-0.78125-0.73438-0.32422-0.17578-0.69531-0.26562-1.1094-0.26562-1.0234 0-1.8242 0.39844-2.4062 1.1875-0.58594 0.78125-0.875 1.8711-0.875 3.2656v7.5312h-4.8906v-15.312h4.8906v2.2344c0.73828-0.88281 1.5195-1.5391 2.3438-1.9688 0.83203-0.42578 1.75-0.64062 2.75-0.64062 1.7695 0 3.1133 0.54688 4.0312 1.6406 0.91406 1.0859 1.375 2.6562 1.375 4.7188z"/>
  </symbol>
  <symbol id="n" overflow="visible">
   <path d="m2.5781-20.406h8.7344c2.5938 0 4.582 0.57812 5.9688 1.7344 1.3945 1.1484 2.0938 2.7891 2.0938 4.9219 0 2.1367-0.69922 3.7812-2.0938 4.9375-1.3867 1.1562-3.375 1.7344-5.9688 1.7344h-3.4844v7.0781h-5.25zm5.25 3.8125v5.7031h2.9219c1.0195 0 1.8047-0.25 2.3594-0.75 0.5625-0.5 0.84375-1.2031 0.84375-2.1094 0-0.91406-0.28125-1.6172-0.84375-2.1094-0.55469-0.48828-1.3398-0.73438-2.3594-0.73438z"/>
  </symbol>
  <symbol id="m" overflow="visible">
   <path d="m14.719-14.828v3.9844c-0.65625-0.45703-1.3242-0.79688-2-1.0156-0.66797-0.21875-1.3594-0.32812-2.0781-0.32812-1.3672 0-2.4336 0.40234-3.2031 1.2031-0.76172 0.79297-1.1406 1.9062-1.1406 3.3438 0 1.4297 0.37891 2.543 1.1406 3.3438 0.76953 0.79297 1.8359 1.1875 3.2031 1.1875 0.75781 0 1.4844-0.10938 2.1719-0.32812 0.6875-0.22656 1.3203-0.56641 1.9062-1.0156v4c-0.76172 0.28125-1.5391 0.48828-2.3281 0.625-0.78125 0.14453-1.5742 0.21875-2.375 0.21875-2.7617 0-4.9219-0.70703-6.4844-2.125-1.5547-1.4141-2.3281-3.3828-2.3281-5.9062 0-2.5312 0.77344-4.5039 2.3281-5.9219 1.5625-1.4141 3.7227-2.125 6.4844-2.125 0.80078 0 1.5938 0.074219 2.375 0.21875 0.78125 0.13672 1.5547 0.35156 2.3281 0.64062z"/>
  </symbol>
 </defs>
 <g>
  <path d="m593.21 266.83 4.3867-3.4766c-25.996 0.15234-18.555-26.219-49.09-42.992-23.465-12.898-49.734-16.406-58.805-16.863-6.5469-0.32422-13.957-0.99609-18.73-2.1953-15.293-14.23-34.625-20.883-62.805-22.172-14.629-0.6875-25.996 1.5273-36.973 3.6523-11.137 2.1562-21.84 4.207-35.836 3.4609-0.86719-0.20313-1.8477-0.38672-2.9688-0.54688-12.719-1.5234-19.777-17.672-32.172-23.016-12.395-5.3438-21.133-16.613-29.629-24.539-6.2344-5.7852-10.617-11.508-10.426-19.902-1.5781 1.5781-2.7266 4.2188-3.2656 7.3086l-4.7422-8.8359s-0.38672 5.7852-0.66797 10.148c-6.9219-3.3828-13.629-6.4805-16.883-8.8086-3.1367-2.2461-9.4258-4.5859-16.414-6.3945-6.5703-6.5352-14.168-10.137-14.168-10.137l1.8125 5.7695c-4.8086-2.7109-10.059-6.082-13.77-6.9766 0.54297 0.90234 2.0391 4.8203 3.543 8.1875-0.22266 0.003906-0.46484 0-0.68359 0.011719-10.008 0.51953-17.504 3.7539-25.531 3.4609-7.7227-0.82422-16.039-2.9727-22.113-9.0625 0.65625 2.9453 1.1523 5.6523 2 8.2695l-6.6211 0.375 3.8086 4.1211c-0.65625 0.40234-1.2305 0.78906-1.7461 1.1641-6.7812-2.8828-13.836-4.8711-21.09-4.5234-0.875 0.039063-1.7148 0.35156-2.3984 0.89453-6.4844 5.1172-1.0625 12.691 3.457 18.855-2.957 2.0547-6.957 5.7305-9.25 11.402 3.6562-1.5781 6.2266-0.89453 8.4062 0.21875l-1.9766 3.3438 3.2969 1.5898c-1.3945 2.0664-2.6133 4.9961-2.543 9.3242 0.0625 6.3516-5.9023 20.027-9.1055 27.371l-0.97266 2.2344c-3.1484 7.2812-4.9453 11.91-6.1992 15.988-1.5586 5.0352-0.023437 11.977 3.7344 16.883 2.9727 3.8789 7.0547 6.1484 11.648 6.5078 2.793 2.1914 7.2031 2.8008 11.559-0.10547l1.6758-1.1016c5.0391-3.3164 9.1055-5.9883 9.5664-13.055 0.85156-0.81641 1.8828-1.7852 3-2.8438 5.8867-5.5508 10.449-9.9414 12.773-13.133 6.6602-1.5195 12.645-5.4766 16.273-10.848 0.55469-0.81641 1.0938-1.793 1.6133-2.8398 2.0664-0.87891 4.8984-0.42969 6.0586 0.78906 2.5469 2.6953 18.48 25.027 21.953 43.348 1.293 5.0391 1.4883 10.707 1.6914 16.703 0.38672 11.367 0.92969 24.148 9.7148 34.441-2.0625 2.8789-5.4336 6.2031-9.8633 9.625-6.0664 4.6875-10.734 8.0547-16.168 11.961l-3.0508 2.1992c-5.7617 4.1602-9.5859 12.66-9.3086 20.664 0.32422 9.1836 6.9648 29.652 18.867 47.008l-1.1914 2.2109c-4.8672 9.0234-13.668 25.344-18.059 32.48-10.652 3.6797-18.512 12.941-20.227 24.012-0.035156 0.21094-0.050781 0.42578-0.050781 0.64453 0.003906 4.1758 0.003906 4.1758 19.312 4.2578l15.133 0.066406h0.015626c1.1484 0 2.2383-0.46484 3.0352-1.293s1.2148-1.9531 1.1641-3.1016c-0.22266-4.7539 2.9531-9.1836 6.3164-13.875 1.1875-1.6641 2.375-3.3203 3.4258-5 1.4102-2.2383 4.0273-6.7773 6.6484-11.316 1.7148-2.9688 3.3945-5.875 4.75-8.1641 1.9414 1.3047 3.9375 2.5195 6.0078 3.5352 5.375 2.6328 15.055 5.6797 18.949 6.4453 1.0312 0.20703 2.1953 0.35938 3.375 0.35938 2.2188 0 4.4922-0.54297 6.082-2.2773 1.4609-1.5977 1.9141-3.832 1.1992-6.2617-0.62109-1.8594-6.1445-18.316-8.832-23.156-0.42578-0.76172-1.082-1.3711-1.8711-1.7461-5.0586-2.3984-8.9766-1.4766-11.844-0.81641-1.0742 0.25391-1.7852 0.38672-2.3398 0.44141 11.816-22.359 27.781-60.066 29.605-64.391 0.035157-0.089844 0.023438-0.17188 0.050782-0.26172 0.46094-0.24219 0.90625-0.47656 1.3398-0.71094 5.6562 1.3945 11.637 1.8711 17.742 1.8711 5.7305 0 11.555-0.39844 17.281-0.79687 6.1484-0.42188 12.512-0.88672 18.66-0.80469 20.906 0.17969 55.027 0.47656 77.621-8.25-0.089844 0.78516-0.15234 1.6055-0.26953 2.3281-2.7617 17.504-10.465 41.094-17.922 54.867-8.6016 15.934-21.875 37.66-33.707 51.648-11.465 3.1523-21.219 15.004-21.219 26.141 0 2.3203 1.875 4.1953 4.1953 4.1992l30.773 0.066406h0.011718c1.2266 0 2.3906-0.53906 3.1875-1.4688 0.80078-0.93359 1.1523-2.1719 0.96484-3.3828-0.55859-3.5352 3.0195-8.2227 5.8906-11.988 1.3594-1.7812 2.6484-3.4727 3.2695-4.6367l2.7422-3.6562c8.4688-11.301 30.945-41.312 35.254-45.109 5.8984-5.2148 7.3633-8.5742 8.4375-14.133 1.2695-6.5469 4.6328-19.266 12.859-30.891 2.2383-3.1641 5.8867-6.6875 10.047-10.238 1.9922 1.9648 4.4727 4.5234 7.2578 7.4023 5.168 5.3594 11.027 11.43 16.375 16.363 3.7734 3.4766 7.4609 6.3633 11.02 9.1562 5.543 4.3398 10.332 8.0938 13.559 12.66 5.5898 7.918 5.5898 29.043 5.5898 35.98 0 9.168-1.125 10.965-3.9805 11.781-12.348 4.0664-21.656 16.16-21.656 28.141 0 2.2969 1.8438 4.168 4.1367 4.1992 1.4102 0.023437 9.9805 0.14062 16.879 0.14062 3.7227 0 6.9609-0.039062 8.3047-0.14062 3.543 0 5.6719-1.4062 6.832-2.5859 2.7617-2.8047 2.6953-6.7148 2.6602-9.3242 0-0.42578 0.050782-0.66016 0.035157-0.71875 0.15625-0.066406 0.63281-0.21875 1.668-0.21875 4.0039 0 7.0781-1.2031 9.1406-3.5859 3.1523-3.6328 2.9102-8.8438 2.2461-13.457-0.875-6.0859-2.2344-47.656-2.0781-55.074l0.09375-2.582c0.23438-5.5781 0.44141-10.398-6.1445-15.371-12.621-9.5547-21.762-25.219-21.762-31.113 0-7.4023 1.5195-11.434 3.4492-16.535 1.1211-2.9688 2.3984-6.332 3.3945-10.629 2.2969-9.8906 6.8477-29.652-6.793-52.199 4.3359-0.42578 8.3438 0.39844 12.086 8.7812 3.7812 8.4609 16.297 32.316 36.691 45.785 5.6094 3.7109 15.758 7.6836 26.762 12.332 7.4531 4.0977 13.016 14.453 14.758 23.141 1.625-3.5273 3.0391-8.7969 3.3203-14.156 3.8359 3.5039 6.4531 7.5156 7.7383 10.344 0.30078-1.9492 0.65625-4.1758 0.98438-6.1836 9.5039 5.8125 17.129 12.562 19.617 20.68 6.1055-21.73-3.9883-49.215-14.875-53.773zm-386.87 127.82c-2.5547 4.4258-5.1016 8.8477-6.4805 11.039-0.96875 1.5391-2.0625 3.0586-3.1484 4.5742-1.668 2.3281-3.3984 4.8086-4.8398 7.4766l-11.559-4.6914c0.8125-0.33984 1.5391-0.77734 2.4258-1.0312 0.98047-0.28125 1.8203-0.90234 2.375-1.7578 4.0586-6.3008 13.227-23.258 18.57-33.168 2.4961 3 5.1758 5.8008 8.0195 8.3477-1.457 2.4453-3.4023 5.8086-5.3633 9.2109zm16.113-32.875c-2.4297-3.1484-4.5078-6.8984-6.2656-10.785 0.44922-0.88672 0.91406-1.7734 1.4219-2.7539 3.9297-7.4922 9.6641-18.582 10.062-32.008 6.0859-2.2383 13.113-5.1562 19.629-8.1211-5.5742 12.934-16.215 37.094-24.848 53.668zm-10.277-21.328c-1.6289-5.0781-2.6875-9.5156-3.2148-11.934-0.39844-1.8555-1.3398-6.1953 9.5664-9.2383 0.18359-0.050781 0.39844-0.11719 0.58984-0.17188-0.85938 8.2227-3.957 15.426-6.9414 21.344zm272.56-70.246c-0.875 3.7461-1.9883 6.7031-3.0742 9.5664-2.0508 5.4336-3.9922 10.562-3.9922 19.504 0 9.8516 11.961 27.871 25.094 37.812 3.0703 2.3203 3.0234 3.3555 2.8125 8.3086-0.039063 0.85547-0.078126 1.7695-0.10156 2.7617-0.14062 6.7539 1.1602 49.438 2.168 56.449 0.64844 4.5703 0.20703 6.1992-0.28125 6.7656-0.375 0.42969-1.3945 0.68359-2.793 0.68359-4.5742 0-7.7891 1.8477-9.2305 5.0664-3.1523-1.9492-7.5156-4.6797-10.574-6.6133 1.1016-0.59766 2.2305-1.1367 3.4062-1.5234 9.918-2.8242 9.918-13.047 9.918-19.812 0-14.309-0.8125-31.871-7.1289-40.824-3.9297-5.5703-9.4258-9.8789-15.238-14.426-3.4258-2.6875-6.9766-5.4727-10.504-8.7266-5.168-4.7656-10.938-10.742-16.023-16.012-2.5078-2.6055-4.7812-4.9453-6.7305-6.8945 4.1953-3.2383 8.5078-6.3633 12.285-9.0938 2.9219-2.1172 5.6289-4.0703 7.8906-5.7891 1.8438-1.3984 2.207-4.0391 0.80078-5.8789-1.3984-1.8555-4.0391-2.2109-5.8867-0.80469-2.2188 1.6875-4.8594 3.6016-7.7266 5.668-10.953 7.918-24.586 17.773-30.84 26.605-9.1328 12.914-12.848 26.938-14.246 34.156-0.69922 3.6328-1.2031 5.4102-5.75 9.4375-4.3438 3.8359-20.07 24.551-36.41 46.363l-3.0312 4.0938c-0.63672 1.1211-1.7578 2.5938-2.9453 4.1445-1.6797 2.207-3.4883 4.6719-4.957 7.3125l-11.781-7.0391c0.91797-0.37109 1.8477-0.67578 2.7891-0.875 0.90234-0.18359 1.7188-0.66797 2.3242-1.3672 15.719-18.176 31.23-46.055 35.609-54.164 7.8359-14.492 15.934-39.234 18.828-57.551 0.92578-5.8906 0.97266-13.195 1.0234-20.266 0.023437-3.8906 0.050781-7.6758 0.23047-10.988 0.125-2.3203-1.6523-4.2969-3.9648-4.4258-2.2852-0.054687-4.3008 1.6523-4.4258 3.9648-0.18359 3.4336-0.21094 7.3594-0.24219 11.395-0.015625 2.4453-0.050781 4.8984-0.10547 7.3086-20.621 9.7109-56.59 9.4062-78.102 9.2188-6.4805-0.11719-12.996 0.38672-19.305 0.82422-8.332 0.56641-16.309 1.0547-23.727 0.45312 7.6211-5.6719 12.84-11.66 14.914-17.281 4.1211-11.188 0.25391-24.832-9.1914-32.445-1.8047-1.457-4.4453-1.1641-5.9062 0.63281-1.457 1.8047-1.1719 4.4453 0.63281 5.9062 6.6211 5.3359 9.4453 15.223 6.5781 23-1.9414 5.2734-8.7969 11.895-18.336 17.703-9.3359 5.707-32.375 15.652-43.242 18.68-16.117 4.5078-16.645 13.906-15.52 19.105 2.625 12.141 8.9531 33.926 22.18 43.68 3.0586 1.8086 5.8516 1.8047 8.1758 1.4297l-3.1914 11.188c-24.988-12.324-39.898-52.879-40.297-64.121-0.17969-5.1953 2.3281-11.031 5.8359-13.562l3.0352-2.1953c5.5117-3.9648 10.254-7.375 16.398-12.129 6.625-5.1133 11.16-9.957 13.484-14.398 0.80469-1.5469 0.55859-3.3594-0.48047-4.625-0.19531-0.54297-0.48828-1.0547-0.91406-1.4961-7.9258-8.2148-8.2891-19.027-8.6797-30.48-0.21094-6.1836-0.42969-12.578-1.8945-18.238-3.8242-20.234-20.715-43.781-24.051-47.305-2.3984-2.5273-5.9961-3.8242-9.6367-3.875 0.39062-3.5508 0.24219-7.6953-0.89453-12.551-0.52734-2.2578-2.7812-3.6719-5.0469-3.1289-2.2578 0.52734-3.6562 2.7891-3.1289 5.0469 1.6914 7.2188 1.0117 13.156-2.0117 17.633-3.9883 5.8984-10.594 7.3203-12.523 7.6172-1.3711 0.20703-2.5547 1.082-3.1523 2.3359-1.0039 2.0898-8.5469 9.1992-12.176 12.617-1.793 1.6914-3.3672 3.168-4.3867 4.207-0.80078 0.8125-1.2422 1.9102-1.2148 3.0469 0.085937 3.7344-0.5 4.2383-5.8203 7.7344l-1.7266 1.1406c-0.92969 0.62109-1.5625 0.59766-1.6641 0.54297-0.81641-1.1758-2.1797-1.8945-3.6133-1.8086-2.6836 0.125-4.8672-0.99609-6.6016-3.2578-2.4414-3.1875-2.9531-7.4414-2.3789-9.2891 1.1641-3.7617 2.8711-8.1523 5.8906-15.141l0.96484-2.2109c5-11.469 9.8789-23.297 9.8047-30.84-0.0625-3.6562 1.2266-4.8945 2.7109-6.3242 0.62891-0.59766 1.1641-1.1484 1.5781-1.6875 1.0859-1.4336 1.3594-3.332 1.8047-8.0078 0.11328-1.1641 0.19531-2.2344 0.30859-2.8516 0.42578-1.1602 0.32422-2.4531-0.30078-3.543-1.6367-2.832-3.5859-5.4883-5.4727-8.0586-1.4688-2-3.5-4.7656-4.4414-6.6211 7.8672 0.54297 15.977 4.3047 23.645 8.3789 0.81641 0.44141 1.7656 0.58984 2.6641 0.4375 23.703-3.9805 33.902-4.5078 73.238 12.137 15.367 6.5 26.652 14.727 37.359 22.836 0.25781 2.4297 0.58203 5.0898 1.0547 7.7734l-0.054687-0.09375c0.63672 6.2344 1.2773 20.344 5.9766 24.797-0.23438-2.0117 0.875-7.2617 3.6914-7.4766 0.93359 2.6992 3.4258 7.6953 7.3711 9.5078-0.89062-1.9102-1.2695-6.8672 1.6523-6.2344l-0.33984-0.16797c11.312 3.5938 27.828 7.4414 37.348 5.8906 4.8945-0.42969 10.395-1.9805 14.352-3.8984 14.969 0.76172 26.449-1.4453 37.613-3.6133 10.977-2.1211 21.34-4.1055 34.988-3.5117 33.242 1.5234 52.258 10.406 67.84 31.691 15.938 21.75 11.512 40.77 9.1367 50.984zm-342.82-111.36c-2.3359 0-4.2344 1.8984-4.2344 4.2344 0 2.3359 1.8945 4.2344 4.2344 4.2344 2.3359 0 4.2266-1.8984 4.2266-4.2344 0-2.3359-1.8906-4.2344-4.2266-4.2344z"/>
  <use x="70" y="644" xlink:href="#w"/>
  <use x="90.550781" y="644" xlink:href="#c"/>
  <use x="104.359375" y="644" xlink:href="#b"/>
  <use x="123.347656" y="644" xlink:href="#e"/>
  <use x="142.242188" y="644" xlink:href="#a"/>
  <use x="155.628906" y="644" xlink:href="#b"/>
  <use x="174.617188" y="644" xlink:href="#l"/>
  <use x="204.410156" y="644" xlink:href="#k"/>
  <use x="224.453125" y="644" xlink:href="#j"/>
  <use x="252.453125" y="644" xlink:href="#i"/>
  <use x="274.011719" y="644" xlink:href="#h"/>
  <use x="293.945312" y="644" xlink:href="#a"/>
  <use x="307.328125" y="644" xlink:href="#g"/>
  <use x="336.507812" y="644" xlink:href="#b"/>
  <use x="355.496094" y="644" xlink:href="#c"/>
  <use x="379.054688" y="644" xlink:href="#v"/>
  <use x="399.355469" y="644" xlink:href="#u"/>
  <use x="408.953125" y="644" xlink:href="#f"/>
  <use x="418.550781" y="644" xlink:href="#t"/>
  <use x="428.148438" y="644" xlink:href="#s"/>
  <use x="444.8125" y="644" xlink:href="#a"/>
  <use x="458.199219" y="644" xlink:href="#c"/>
  <use x="472.007812" y="644" xlink:href="#e"/>
  <use x="70" y="672" xlink:href="#r"/>
  <use x="82.183594" y="672" xlink:href="#c"/>
  <use x="95.992188" y="672" xlink:href="#d"/>
  <use x="115.226562" y="672" xlink:href="#g"/>
  <use x="154.152344" y="672" xlink:href="#a"/>
  <use x="167.535156" y="672" xlink:href="#q"/>
  <use x="187.46875" y="672" xlink:href="#b"/>
  <use x="216.207031" y="672" xlink:href="#p"/>
  <use x="239.640625" y="672" xlink:href="#d"/>
  <use x="258.878906" y="672" xlink:href="#h"/>
  <use x="278.8125" y="672" xlink:href="#o"/>
  <use x="308.492188" y="672" xlink:href="#n"/>
  <use x="329.015625" y="672" xlink:href="#c"/>
  <use x="342.820312" y="672" xlink:href="#d"/>
  <use x="362.058594" y="672" xlink:href="#f"/>
  <use x="371.65625" y="672" xlink:href="#b"/>
  <use x="390.648438" y="672" xlink:href="#m"/>
  <use x="407.242188" y="672" xlink:href="#a"/>
 </g>
</svg>
