<!-- Generated by IcoMoon.io -->
<svg version="1.1" xmlns="http://www.w3.org/2000/svg" width="32" height="32" viewBox="0 0 32 32">
<title>Porcupine</title>
<path d="M25.313 21.75l0.875 1.813 1.625 0.875 1 1.25 1.938-0.625 0.313-4.313-2.375-7.063-2.438-3.25-8.063-2.688 5.688 3.063-6.625-2.188 7.625 3.375-5.875-1.625 6.75 3.063-4.875-1.25 5.563 2.25-4.063-0.75 3.75 1.938-2.438-0.125 2.063 1.938-1.625 0.438 2.438 1.875-1.938 0.375zM19.438 11.25l-3.813-2.563-5.438-2.313 4.938 2.75 2.688 2.125-4.938-2.438-6-1.563 5.938 2.188 4 2.375-6.188-2.313-5.813-1.188 5.688 1.75 5 2.125-6.25-1.25-6.313-0.5 5.813 1.125 5.688 1.563-5.813-0.75-7.25 0.188 12.5 1.438h-12.5l11.563 1-12.563 0.813h12.188l-11.938 1.313 12.063-0.375-10.5 2.75 10.688-1.25-10.438 3.813 11.063-2.438-11 4.5 11.563-3.563-9.625 5.125 9.938-4.188-6.563 5.125 7.375-4.125-6.813 4.75 8.875-4.875 2.5-0.063 2.063 1.438 0.625 1.938 1.688 0.375-0.125-0.688-0.625-0.313 0.75 0.188 0.188 0.688h0.438v-0.188l-0.125-0.5-0.313-0.25 0.375 0.188 0.25 0.563h0.375l0.125-0.438-0.25-0.375-1.313-0.563-1.688-3.313 2.875 0.875-0.938-2.063 1.688-0.313-2.438-1.813 1.688-0.438-2.25-2.125 1.75 0.063-3.938-2.188 2.938 0.563-4.375-1.875 3 0.375zM18.125 22.625h1.5l0.688 0.5-0.188 1.188 1.375-0.188 0.563 0.313-0.25 0.375-0.625-0.188-0.188 0.063h0.188l0.625 0.188 0.125 0.313-0.25 0.125-0.125-0.125h-0.625l-0.125 0.125 0.188-0.063 0.5 0.063 0.25 0.438-0.188 0.125h-2.5zM14.938 24.063l0.125 0.375 0.938 0.063 0.25 0.375-0.25-0.125-0.75-0.125 0.75 0.25 0.188 0.375h-1.188l-0.313-0.375-1.438 0.125zM13.063 25.188h1.5l0.625 0.625-1.25-0.125 0.813 0.25 0.125 0.375-1.25-0.25 0.938 0.313-0.375 0.313-2.875-0.5zM28.688 21.938l0.563 0.813-0.188 0.563-0.5-0.375zM27.188 20.5c0.375-0.188 0.875 0 1.25 0.375-0.063-0.063-0.063-0.188-0.125-0.25-0.25-0.5-0.875-0.75-1.375-0.438-0.438 0.25-0.625 0.875-0.375 1.375 0.063 0.125 0.188 0.188 0.25 0.313-0.188-0.563-0.063-1.125 0.375-1.375z"></path>
</svg>
