<svg xmlns:dc="http://purl.org/dc/elements/1.1/" xmlns:cc="http://creativecommons.org/ns#" xmlns:rdf="http://www.w3.org/1999/02/22-rdf-syntax-ns#" xmlns:svg="http://www.w3.org/2000/svg" xmlns="http://www.w3.org/2000/svg" xmlns:sodipodi="http://sodipodi.sourceforge.net/DTD/sodipodi-0.dtd" xmlns:inkscape="http://www.inkscape.org/namespaces/inkscape" viewBox="0 0 12.7 15.875" version="1.1" x="0px" y="0px"><g transform="translate(0,-284.29998)"><path style="" d="m 6.8695999,288.2358 a 0.10879433,0.10879433 0 0 0 -0.011272,0 0.10879433,0.10879433 0 0 0 -0.09883,0.11778 0.3811198,0.3811198 0 0 1 -0.055811,0.23142 1.6900658,1.6900658 0 0 0 -0.4285336,0.54682 0.22939381,0.22939381 0 0 1 -0.1761374,0.12646 8.7491511,8.7491511 0 0 0 -1.3619383,0.28826 4.8841775,4.8841775 0 0 0 -1.4909677,0.33896 6.1096898,6.1096898 0 0 0 -1.075725,1.03886 0.22939381,0.22939381 0 0 1 -0.3154166,0.0394 1.4755887,1.4755887 0 0 1 -0.4986845,-0.65896 0.77861986,0.77861986 0 0 0 -0.5048449,-0.49203 0.10879433,0.10879433 0 0 0 -0.12646027,0.15871 h -0.004194 a 1.3656216,1.3656216 0 0 1 0.18481445,0.62774 4.4369145,4.4369145 0 0 0 0.18381832,0.59801 0.5112173,0.5112173 0 0 1 0.012845,0.33177 4.1301485,4.1301485 0 0 0 -0.14182222,0.66921 1.2149552,1.2149552 0 0 1 -0.39372032,0.66869 0.10879433,0.10879433 0 0 0 0.0501752,0.18893 0.45970797,0.45970797 0 0 0 0.34558992,-0.0707 3.5282309,3.5282309 0 0 0 0.78848922,-1.0061 0.22939381,0.22939381 0 0 1 0.2042921,-0.12287 3.0331578,3.0331578 0 0 0 1.1033816,-0.20482 0.5112173,0.5112173 0 0 1 0.2683086,-0.0276 6.1575525,6.1575525 0 0 0 1.748502,0.0394 0.79304078,0.79304078 0 0 1 0.3758156,0.0456 7.0492802,7.0492802 0 0 0 4.2670643,0.22886 0.9682112,0.9682112 0 0 0 -0.024642,0.36559 0.165159,0.165159 0 0 0 0.2662377,0.10955 1.2945262,1.2945262 0 0 0 0.4418509,-0.66355 8.297658,8.297658 0 0 1 1.117721,-0.4429 0.5112173,0.5112173 0 0 1 0.106511,-0.021 0.72471706,0.72471706 0 0 0 0.50841,-0.27958 0.165159,0.165159 0 0 0 0.01022,-0.1925 1.9047617,1.9047617 0 0 0 -0.954901,-0.74036 6.2217641,6.2217641 0 0 0 -3.2922141,-1.02455 0.22939381,0.22939381 0 0 1 -0.2129954,-0.15768 0.9584148,0.9584148 0 0 0 -0.8043492,-0.65435 0.10879433,0.10879433 0 0 0 -0.010748,0 z m -0.00655,0.10239 a 0.85355554,0.85355554 0 0 1 0.716818,0.58268 0.33425306,0.33425306 0 0 0 0.3108028,0.2304 6.1169049,6.1169049 0 0 1 3.2476493,1.01428 1.7999024,1.7999024 0 0 1 0.914451,0.7035 0.06029974,0.06029974 0 0 1 0,0.0702 0.61985779,0.61985779 0 0 1 -0.435192,0.23911 0.61607657,0.61607657 0 0 0 -0.129029,0.0262 8.4025173,8.4025173 0 0 0 -1.056274,0.41218 1.2945262,1.2945262 0 0 0 0.01127,-0.0727 0.05258204,0.05258204 0 0 0 -0.104439,-0.0123 1.1896669,1.1896669 0 0 1 -0.4423757,0.79667 0.06029974,0.06029974 0 0 1 -0.097283,-0.0399 0.86335193,0.86335193 0 0 1 0.2698297,-0.73729 0.05247409,0.05247409 0 0 0 -0.071174,-0.0768 0.9682112,0.9682112 0 0 0 -0.2370606,0.34202 6.9444209,6.9444209 0 0 1 -1.9655869,0.23911 1.5492655,1.5492655 0 0 0 0.6584375,-1.37628 0.61607657,0.61607657 0 0 0 -0.4326493,-0.54632 3.8789694,3.8789694 0 0 0 -2.6506587,0.13108 3.1543148,3.1543148 0 0 0 -1.5109433,1.31587 6.0526933,6.0526933 0 0 1 -0.5104811,-0.0625 0.61607657,0.61607657 0 0 0 -0.3230714,0.0333 2.9282985,2.9282985 0 0 1 -1.065475,0.19764 0.33425306,0.33425306 0 0 0 -0.2974857,0.1787 3.4233716,3.4233716 0 0 1 -0.75931219,0.97178 0.3548487,0.3548487 0 0 1 -0.26162387,0.0512 1.3198144,1.3198144 0 0 0 0.42853356,-0.73063 4.0252892,4.0252892 0 0 1 0.1387551,-0.65639 0.61607657,0.61607657 0 0 0 -0.014942,-0.39939 4.3320552,4.3320552 0 0 1 -0.1776578,-0.57497 1.4704809,1.4704809 0 0 0 -0.20020254,-0.66868 0.67376059,0.67376059 0 0 0 -0.0170396,-0.006 h 0.0138938 a 1.4704809,1.4704809 0 0 1 0.003146,0.006 0.67376059,0.67376059 0 0 1 0.42958214,0.42444 1.580448,1.580448 0 0 0 0.5355425,0.70762 0.33425306,0.33425306 0 0 0 0.4592836,-0.0584 6.0048305,6.0048305 0 0 1 1.0465479,-1.01224 4.779318,4.779318 0 0 1 1.4566524,-0.32718 8.6442918,8.6442918 0 0 1 1.3573246,-0.28826 0.33425306,0.33425306 0 0 0 0.2570362,-0.18382 1.5852065,1.5852065 0 0 1 0.4142204,-0.52275 0.48597904,0.48597904 0 0 0 0.080375,-0.31078 z m 0.010224,1.72905 a 3.7741098,3.7741098 0 0 1 1.1151521,0.16846 0.5112173,0.5112173 0 0 1 0.3589332,0.45312 1.4444063,1.4444063 0 0 1 -0.7414074,1.36296 6.9444209,6.9444209 0 0 1 -2.1176591,-0.44083 0.89790005,0.89790005 0 0 0 -0.4254664,-0.0517 6.0526933,6.0526933 0 0 1 -1.0911131,0.0328 3.0494555,3.0494555 0 0 1 1.4351825,-1.22829 3.7741098,3.7741098 0 0 1 1.4663782,-0.29647 z" fill="#000000" stroke="none"/><path style="" d="m 11.013981,290.69055 a 0.09645706,0.09645706 0 1 0 -0.192809,0 0.09645706,0.09645706 0 1 0 0.192809,0 z" fill="#000000" stroke="none"/></g><text x="0" y="27.7" fill="#000000" font-size="5px" font-weight="bold" font-family="'Helvetica Neue', Helvetica, Arial-Unicode, Arial, Sans-serif">Created by Phạm Thanh Lộc</text><text x="0" y="32.7" fill="#000000" font-size="5px" font-weight="bold" font-family="'Helvetica Neue', Helvetica, Arial-Unicode, Arial, Sans-serif">from the Noun Project</text></svg>