<!-- Generated by IcoMoon.io -->
<svg version="1.1" xmlns="http://www.w3.org/2000/svg" width="32" height="32" viewBox="0 0 32 32">
<title>preyed</title>
<path d="M0.688-2.25h-0.125c-0.063 0.063-0.063 0.125-0.188 0.125s-0.188-0.063-0.188-0.25c0-0.125 0.063-0.25 0.188-0.25 0.063 0 0.125 0.063 0.188 0.125h0.125c0-0.125-0.125-0.25-0.313-0.25s-0.313 0.125-0.313 0.375c0 0.25 0.125 0.375 0.313 0.375s0.313-0.063 0.313-0.25zM0.375-2.438v-0.125c0 0 0 0 0 0-0.063 0-0.125 0.063-0.188 0.125v-0.125h-0.125v0.563h0.125v-0.313c0-0.063 0.063-0.125 0.125-0.125 0 0 0.063 0 0.063 0zM0.5-2.25c0-0.188-0.063-0.313-0.25-0.313-0.125 0-0.25 0.125-0.25 0.313s0.125 0.25 0.25 0.25c0.125 0 0.25-0.063 0.25-0.125h-0.125c0 0-0.063 0-0.125 0s-0.063 0-0.063-0.125h0.313zM0.375-2.313h-0.188c0-0.063 0-0.125 0.063-0.125s0.125 0.063 0.125 0.125zM0.5-2v0c0-0.063 0-0.063 0-0.063v-0.313c0-0.125-0.063-0.188-0.25-0.188-0.125 0-0.188 0.063-0.188 0.188h0.125c0-0.063 0-0.063 0.063-0.063s0.125 0 0.125 0.063c0 0.063-0.063 0.063-0.125 0.063h-0.063c-0.125 0-0.188 0.063-0.188 0.188 0 0.063 0.125 0.125 0.188 0.125s0.125 0 0.188-0.063c0 0 0 0.063 0 0.063zM0.375-2.25c0 0.125-0.063 0.125-0.125 0.125s-0.063 0-0.063-0.063c0 0 0 0 0.063-0.063h0.063c0 0 0 0 0.063 0zM0.313-2v-0.125c0 0-0.063 0-0.063 0s0 0 0 0v-0.313h0.063v-0.063h-0.063v-0.188h-0.188v0.188h-0.063v0.063h0.063v0.313c0 0.063 0.063 0.125 0.188 0.125 0 0 0 0 0.063 0zM0.563-2v-0.75h-0.188v0.25c0 0-0.063-0.063-0.125-0.063-0.125 0-0.25 0.125-0.25 0.313 0 0.125 0.125 0.25 0.25 0.25 0.063 0 0.125 0 0.125-0.063v0.063zM0.375-2.25c0 0.063 0 0.125-0.063 0.125-0.125 0-0.125-0.063-0.125-0.125 0-0.125 0-0.188 0.125-0.188 0.063 0 0.063 0.063 0.063 0.188zM0.563-2.25c0-0.188-0.063-0.313-0.188-0.313-0.063 0-0.125 0.063-0.188 0.063v-0.25h-0.125v0.75h0.125v-0.063c0.063 0.063 0.063 0.063 0.188 0.063s0.188-0.125 0.188-0.25zM0.438-2.25c0 0.063-0.063 0.125-0.125 0.125s-0.125-0.063-0.125-0.125c0-0.125 0.063-0.188 0.125-0.188s0.125 0.063 0.125 0.188zM0.563-2.563h-0.188l-0.063 0.438-0.125-0.438h-0.188l0.188 0.563c0 0.063 0 0.125-0.063 0.125 0 0 0 0-0.063 0v0.063c0.063 0 0.063 0.063 0.063 0.063 0.125 0 0.125-0.063 0.188-0.125zM0.688-2.375c0-0.125-0.063-0.188-0.125-0.25 0-0.063-0.063-0.125-0.188-0.125h-0.313v0.75h0.313c0.125 0 0.188 0 0.188-0.063 0.063-0.063 0.125-0.188 0.125-0.313zM0.563-2.375c0 0.188-0.063 0.25-0.188 0.25h-0.125v-0.5h0.125c0.125 0 0.188 0.125 0.188 0.25zM0.188-2v-0.75h-0.125v0.75zM0.75-2.563h-0.125l-0.063 0.375-0.125-0.375h-0.125l-0.063 0.375-0.125-0.375h-0.125l0.188 0.563h0.125l0.063-0.375 0.063 0.375h0.188zM0.688-2v-0.75h-0.188v0.313h-0.313v-0.313h-0.125v0.75h0.125v-0.313h0.313v0.313zM0.563-2.25c0-0.188-0.063-0.313-0.25-0.313s-0.25 0.125-0.25 0.313c0 0.188 0.063 0.25 0.25 0.25 0.125 0 0.25-0.063 0.25-0.25zM0.438-2.25c0 0.063-0.063 0.125-0.125 0.125s-0.125-0.063-0.125-0.125c0-0.125 0.063-0.188 0.125-0.188s0.125 0.063 0.125 0.188zM0.5-2.188v0c0-0.063 0-0.063-0.063-0.125l-0.188-0.063c-0.063 0-0.063 0-0.063 0 0-0.063 0.063-0.063 0.063-0.063 0.063 0 0.125 0 0.125 0.063h0.125c0-0.125-0.063-0.188-0.25-0.188-0.125 0-0.188 0.063-0.188 0.188 0 0.063 0 0.125 0.125 0.125l0.125 0.063c0.063 0 0.063 0 0.063 0.063 0 0-0.063 0-0.125 0s-0.063 0-0.063-0.063h-0.188c0.063 0.125 0.125 0.188 0.313 0.188 0.125 0 0.188-0.063 0.188-0.188zM0.188-2v-0.563h-0.125v0.563zM0.188-2.625v-0.125h-0.125v0.125zM0.563-2v-0.375c0-0.125-0.063-0.188-0.188-0.188-0.063 0-0.125 0.063-0.188 0.125v-0.125h-0.125v0.563h0.125v-0.313c0-0.063 0.063-0.125 0.125-0.125s0.125 0.063 0.125 0.125v0.313zM0.313-2.438v-0.063h-0.063v-0.063c0-0.063 0-0.063 0-0.063s0.063 0 0.063 0v-0.125c0 0-0.063 0-0.063 0-0.125 0-0.188 0.063-0.188 0.125v0.125h-0.063v0.063h0.063v0.438h0.188v-0.438zM0.813-2v-0.375c0-0.125-0.063-0.188-0.188-0.188-0.063 0-0.063 0.063-0.125 0.063s-0.063-0.063-0.125-0.063c-0.063 0-0.125 0.063-0.188 0.063v-0.063h-0.125v0.563h0.125v-0.313c0-0.063 0.063-0.125 0.125-0.125 0 0 0.063 0.063 0.063 0.063v0.375h0.125v-0.313c0-0.063 0.063-0.125 0.125-0.125 0 0 0.063 0.063 0.063 0.063v0.375zM0.563-2v-0.375c0-0.125-0.125-0.188-0.188-0.188s-0.125 0.063-0.188 0.125v-0.313h-0.125v0.75h0.125v-0.313c0-0.063 0.063-0.125 0.125-0.125s0.063 0.063 0.063 0.125v0.313zM0.688-2v-0.75h-0.188v0.5l-0.25-0.5h-0.188v0.75h0.125v-0.5l0.313 0.5zM0.563-2v-0.563h-0.188v0.375c0 0.063 0 0.063-0.063 0.063s-0.125 0-0.125-0.063v-0.375h-0.125v0.375c0 0.125 0.063 0.188 0.188 0.188 0.063 0 0.125 0 0.125-0.063v0.063zM0.625-2.5c0-0.125-0.063-0.25-0.25-0.25h-0.313v0.75h0.188v-0.25h0.188c0.125 0 0.188-0.125 0.188-0.25zM0.5-2.5c0 0.063-0.063 0.125-0.125 0.125h-0.125v-0.25h0.125c0.063 0 0.125 0.063 0.125 0.125zM0.188-1.875v-0.688h-0.125v0.625c0 0.063 0 0.063-0.063 0.063 0 0 0 0 0 0v0.063c0.063 0 0.063 0 0.063 0 0.125 0 0.125 0 0.125-0.063zM0.188-2.625v-0.125h-0.125v0.125zM0.5-2.188h-0.125c0 0.063-0.063 0.063-0.063 0.063-0.125 0-0.125-0.063-0.125-0.125 0-0.125 0-0.188 0.125-0.188 0.063 0 0.063 0 0.063 0.125h0.125c0-0.188-0.063-0.25-0.188-0.25-0.188 0-0.25 0.125-0.25 0.313s0.063 0.25 0.25 0.25c0.125 0 0.188-0.063 0.188-0.188zM12.813 7.688v-4.5c-0.688 0.063-1.375 0.438-1.813 1l-0.563-0.125-0.875-0.188-1.813-0.375-1-0.25c-0.063 0-0.125 0-0.188 0-0.375 0-0.75 0.063-1.063 0.188-0.125 0.063-0.313 0.125-0.438 0.188-0.688 0.375-1.188 1.063-1.438 1.813 0.313 1 1.063 1.813 2.063 2.063 0.5-0.5 0.813-1.188 0.813-1.938 0-0.063 0-0.063 0-0.125-0.063-0.25-0.063-0.5-0.125-0.688 0.125 0.188 0.25 0.438 0.313 0.688s0.125 0.5 0.125 0.813c0 0.5-0.125 1-0.375 1.375 0 0 0.063 0 0.063 0l1.375-0.313 1.688-0.313 0.938-0.25 0.438-0.063c0.5 0.5 1.125 0.875 1.875 1zM5 5.875c-0.25 0-0.5-0.188-0.5-0.438s0.25-0.5 0.5-0.5c0.25 0 0.438 0.25 0.438 0.5s-0.188 0.438-0.438 0.438zM27.938 10.75c-0.063-0.313-0.188-0.563-0.5-0.75-0.188-0.063-0.313-0.125-0.438-0.125h-0.063c-0.125 0-0.188 0-0.313 0s-0.313 0-0.438 0h-0.25c-0.125 0-0.25 0.063-0.375 0.063-0.563 0.063-1.125 0.125-1.688 0.188l-0.313 0.063c-0.125-0.188-0.188-0.313-0.313-0.5 0-0.063-0.063-0.188-0.125-0.313-0.438-0.688-0.875-1.313-1.375-1.813 0-0.063-0.063-0.063-0.063-0.125-0.063-0.063-0.063-0.063-0.125-0.125s-0.188-0.125-0.25-0.25l-0.063-0.125c-0.063-0.063-0.188-0.125-0.25-0.25 0.25 0.063 0.5 0.188 0.75 0.313 0.438 0.25 0.75 0.563 1.063 0.75 0.313 0.25 0.688 0.25 0.938 0 0.125-0.125 0.188-0.313 0.125-0.5 0-0.125-0.063-0.313-0.25-0.438-0.688-0.563-1.375-1-2.063-1.25s-1.313-0.313-1.938-0.25c-0.125 0-0.25 0-0.375 0.063-0.063 0-0.063 0-0.063 0-0.25-0.125-0.438-0.25-0.563-0.25v-0.063c-0.125 0-0.188-0.063-0.25-0.063-0.875-0.375-1.875-0.563-2.813-0.5-0.625 0.063-1.188 0.188-1.75 0.375-0.063 0-0.063 0.063-0.063 0.063 1.125 1.5 2.125 3.063 1.875 5.125-1.438-1.188-3-1.688-4.875-1.313 0 0-0.063 0-0.125 0.063 0.125 0.188 0.188 0.375 0.25 0.563 0.125 0.875 0.438 1.688 0.875 2.438 0.063 0.125 0.125 0.188 0.188 0.313 0.5 0.688 1.125 1.313 1.875 1.75 0.063 0.063 0.125 0.125 0.25 0.125v0.063c0.125 0 0.25 0.125 0.563 0.25 0 0 0 0 0 0.063 0.063 0.125 0.125 0.25 0.188 0.375 0.313 0.5 0.75 1 1.375 1.438 0 0 0 0 0 0 0.625 0.438 1.375 0.75 2.25 0.938 0.375 0.063 0.688-0.125 0.75-0.5s-0.125-0.688-0.5-0.75c-0.438-0.125-0.938-0.313-1.438-0.563-0.188-0.063-0.375-0.188-0.5-0.313 0.063 0 0.188 0.063 0.313 0.063h0.125c0.125 0.063 0.188 0.063 0.313 0.063 0 0 0.063 0 0.063 0 0.125 0.063 0.188 0.063 0.313 0.063 0.688 0.063 1.438 0.063 2.25 0 0.313 0 0.625 0 0.938-0.063l0.188 0.313c0.188 0.438 0.5 0.938 0.75 1.438 0.063 0.125 0.125 0.25 0.188 0.313l0.125 0.25c0.125 0.25 0.313 0.438 0.438 0.563l0.063 0.063c0.063 0.125 0.188 0.188 0.375 0.25 0.063 0.063 0.25 0.125 0.375 0.125 0.188 0 0.313 0 0.5-0.063 0.375-0.188 0.625-0.625 0.563-1.063v-0.25c-0.063-0.188-0.063-0.375-0.063-0.625 0-0.063 0-0.188 0-0.313 0-0.063 0-0.125 0-0.188 0-0.25 0.063-0.563 0.125-0.75s0.063-0.313 0.125-0.438c0.063-0.188 0.125-0.438 0.25-0.563l0.063-0.125c0.125-0.188 0.188-0.375 0.313-0.563 0.125-0.125 0.188-0.25 0.313-0.375 0.125-0.188 0.313-0.375 0.5-0.5 0.063-0.063 0.125-0.125 0.188-0.188 0.125-0.063 0.188-0.125 0.313-0.188s0.313-0.188 0.5-0.313l0.188-0.125c0.375-0.25 0.563-0.625 0.5-1.063zM18.313 8.25c-0.438 0.188-1 0-1.188-0.5s0.063-1.063 0.563-1.25c0.438-0.188 1 0.063 1.188 0.563 0.188 0.438-0.063 1-0.563 1.188z"></path>
</svg>
