<!-- Generated by IcoMoon.io -->
<svg version="1.1" xmlns="http://www.w3.org/2000/svg" width="32" height="32" viewBox="0 0 32 32">
<title>Protected</title>
<path d="M26 14c-0.563 0-1 0.438-1 1v7c0 0.313-0.125 7-9 7-8.813 0-9-6.688-9-7v-19h18v2c0 0.563 0.438 1 1 1s1-0.438 1-1v-3c0-0.563-0.438-1-1-1h-20c-0.563 0-1 0.438-1 1v20c0 0.063 0.125 9 11 9s11-8.938 11-9v-7c0-0.563-0.438-1-1-1zM27.438 7.938c-0.375-0.375-1-0.438-1.375-0.063l-10 9.375-4.625-4.313c-0.438-0.375-1.063-0.375-1.438 0.063-0.375 0.375-0.375 1 0.063 1.375l5.313 5c0.188 0.188 0.438 0.25 0.688 0.25s0.5-0.063 0.688-0.25l10.688-10c0.375-0.375 0.375-1 0-1.438z"></path>
</svg>
