<svg xmlns="http://www.w3.org/2000/svg" xmlns:xlink="http://www.w3.org/1999/xlink" version="1.1" x="0px" y="0px" viewBox="0 0 100 125" style="enable-background:new 0 0 100 100;" xml:space="preserve"><g><path d="M89.9938049,55.9281502C89.9941635,55.9173737,90,55.9083824,90,55.8974838   c0-0.0108948-0.0058365-0.019886-0.0061951-0.0306664v-6.6866531c0-2.6996002-2.1903534-4.8956757-4.8823318-4.8956757h-7.2327576   v-1.6944542c0-1.9669418-1.5944138-3.5670738-3.5537338-3.5670738h-3.6018524l-0.9717941-7.2884903   c-0.2391434-1.7911587-1.7816315-3.141674-3.5885086-3.141674H53.4698944l3.7995415-10.132906h2.1674347   c0.1420746,1.4847908,1.3816566,2.6538677,2.9030685,2.6538677h9.5850792c1.616333,0,2.9311142-1.3147869,2.9311142-2.931118   v-1.3967209c0-1.6158543-1.3147812-2.9306412-2.9311142-2.9306412h-9.5850792   c-1.5213547,0-2.7609329,1.1690769-2.9030685,2.6533928h-2.8434067c-0.4068222,0-0.770771,0.2524757-0.913681,0.6330967   l-4.294075,11.4510288h-2.777607l-4.294075-11.4510288c-0.1429138-0.380621-0.5068626-0.6330967-0.913681-0.6330967h-2.8434067   c-0.1421356-1.4843159-1.3817177-2.6533928-2.9030685-2.6533928h-9.5855579c-1.6163292,0-2.9311161,1.3147869-2.9311161,2.9306412   v1.3967209c0,1.6163311,1.3147869,2.931118,2.9311161,2.931118h9.5855579c1.5214119,0,2.7609901-1.1690769,2.9030685-2.6538677   h2.1674347l3.7995415,10.132906h-12.693409c-1.807354,0-3.3498459,1.3509922-3.5880318,3.141674l-0.9717999,7.2884903h-3.5889854   c-1.9669399,0-3.5670738,1.600132-3.5670738,3.5670738v1.6944542h-7.2189398C12.1960745,44.2844887,10,46.4805641,10,49.1801643   V81.249527c0,2.6991196,2.1960745,4.895195,4.8956747,4.895195h15.1795912c2.6991253,0,4.8952007-2.1960754,4.8952007-4.895195   V70.9728088c0.1530342,0.0145874,0.3006477,0.0451965,0.4582672,0.0451965h29.1358643   c0.1585083,0,0.3050537-0.029892,0.4582672-0.0444183V81.249527c0,2.6991196,2.1960754,4.895195,4.8956757,4.895195h15.1929321   c2.6919785,0,4.8823318-2.1960754,4.8823318-4.895195v-6.6866608C89.9941635,74.5520935,90,74.5430984,90,74.5322037   s-0.0058365-0.0198898-0.0061951-0.0306702V55.9281502z M26.3457508,43.9748459   c0-0.5387764,0.4368324-0.9756088,0.9756088-0.9756088h4.5493526c0.5387764,0,0.9756088,0.4368324,0.9756088,0.9756088v4.5488777   c0,0.5387764-0.4368324,0.9756088-0.9756088,0.9756088h-4.5493526c-0.5387764,0-0.9756088-0.4368324-0.9756088-0.9756088   V43.9748459z M33.0192451,81.249527c0,1.6234741-1.3205032,2.9439774-2.9439793,2.9439774H14.8956747   c-1.623476,0-2.9444551-1.3205032-2.9444551-2.9439774v-5.7417145h7.1379566c0.5387764,0,0.9756107-0.4368362,0.9756107-0.9756088   c0-0.5387802-0.4368343-0.9756088-0.9756107-0.9756088h-7.1379566V56.8730927h7.1379566   c0.5387764,0,0.9756107-0.4368324,0.9756107-0.9756088s-0.4368343-0.9756088-0.9756107-0.9756088h-7.1379566v-5.7417107   c0-1.6234779,1.3209791-2.9444542,2.9444551-2.9444542h7.2189398v3.851944c0,1.966938,1.6001339,3.56707,3.5670738,3.56707   h1.4448357v4.1806412c0,0.1190948,0.0219135,0.237709,0.0643101,0.3487053l3.7190361,9.7122688   c0.1083755,0.2911835,0.2505722,0.564621,0.4118233,0.8256149c0.0547237,0.0887222,0.120285,0.1675644,0.1804867,0.2522354   c0.1159954,0.1627426,0.2363396,0.3204193,0.371748,0.4670868c0.0862827,0.0938416,0.1775665,0.1794128,0.2708778,0.2658768   c0.1285591,0.1187897,0.2621841,0.2296066,0.4035454,0.333931c0.1081963,0.0800323,0.2157974,0.1571426,0.3304825,0.2275925   c0.0485916,0.0299454,0.0906906,0.0684738,0.1404114,0.0967026V81.249527z M53.5870819,56.6096611H41.9883766   c-0.5387764,0-0.9756088-0.4368324-0.9756088-0.9756088s0.4368324-0.9756126,0.9756088-0.9756126h11.5987053   c0.5387764,0,0.9756088,0.4368362,0.9756088,0.9756126S54.1258583,56.6096611,53.5870819,56.6096611z M58.0054321,56.6096611   h-0.4368362c-0.5387764,0-0.9756088-0.4368324-0.9756088-0.9756088s0.4368324-0.9756126,0.9756088-0.9756126h0.4368362   c0.5387764,0,0.9756088,0.4368362,0.9756088,0.9756126S58.5442085,56.6096611,58.0054321,56.6096611z M59.1430054,50.7807732   H40.8507996c-0.5387764,0-0.9756088-0.4368324-0.9756088-0.9756088s0.4368324-0.9756088,0.9756088-0.9756088h18.2922058   c0.5387764,0,0.9756126,0.4368324,0.9756126,0.9756088S59.6817818,50.7807732,59.1430054,50.7807732z M60.2801056,44.9523621   H39.7136993c-0.5387764,0-0.9756088-0.4368324-0.9756088-0.9756088s0.4368324-0.9756088,0.9756088-0.9756088h20.5664063   c0.5387764,0,0.9756126,0.4368324,0.9756126,0.9756088S60.818882,44.9523621,60.2801056,44.9523621z M67.1474838,43.9748459   c0-0.5387764,0.4368362-0.9756088,0.9756088-0.9756088h4.5493546c0.5387726,0,0.9756088,0.4368324,0.9756088,0.9756088v4.5488777   c0,0.5387764-0.4368362,0.9756088-0.9756088,0.9756088h-4.5493546c-0.5387726,0-0.9756088-0.4368324-0.9756088-0.9756088   V43.9748459z M88.0425873,54.921875h-7.1298599c-0.5387726,0-0.9756088,0.4368324-0.9756088,0.9756088   s0.4368362,0.9756088,0.9756088,0.9756088h7.1298599v16.6835022h-7.1298599c-0.5387726,0-0.9756088,0.4368286-0.9756088,0.9756088   c0,0.5387726,0.4368362,0.9756088,0.9756088,0.9756088h7.1298599v5.7417145c0,1.6234741-1.3147888,2.9439774-2.9311142,2.9439774   H69.918541c-1.6234741,0-2.944458-1.3205032-2.944458-2.9439774V70.3672791   c0.0519867-0.0294113,0.0963516-0.069664,0.1470795-0.1009293c0.0961685-0.0593033,0.1859665-0.1245728,0.2774887-0.1904297   c0.1622086-0.1165924,0.315834-0.2414017,0.4621429-0.3771057c0.0827713-0.0768127,0.1637497-0.1528549,0.2409821-0.2353287   c0.144043-0.1536865,0.273262-0.3188095,0.3964005-0.4907837c0.0573425-0.0800323,0.119751-0.1545792,0.1722717-0.2382431   c0.1643448-0.2618256,0.3102951-0.5364532,0.4230194-0.8295441l3.7223663-9.7208443   c0.0423965-0.1109962,0.0643082-0.2296104,0.0643082-0.3487053v-4.1806412h1.4448395   c1.9593201,0,3.5537338-1.600132,3.5537338-3.56707v-3.851944h7.2327576c1.6163254,0,2.9311142,1.3209763,2.9311142,2.9444542   V54.921875z"/></g><text x="0" y="115" fill="#000000" font-size="5px" font-weight="bold" font-family="'Helvetica Neue', Helvetica, Arial-Unicode, Arial, Sans-serif">Created by Millenials</text><text x="0" y="120" fill="#000000" font-size="5px" font-weight="bold" font-family="'Helvetica Neue', Helvetica, Arial-Unicode, Arial, Sans-serif">from the Noun Project</text></svg>