<svg xmlns="http://www.w3.org/2000/svg" xmlns:xlink="http://www.w3.org/1999/xlink" xmlns:serif="http://www.serif.com/" viewBox="0 0 32 40" version="1.1" xml:space="preserve" style="" x="0px" y="0px" fill-rule="evenodd" clip-rule="evenodd" stroke-linejoin="round" stroke-miterlimit="2"><g transform="matrix(1,0,0,1,-74,-644)"><g transform="matrix(1,0,0,1,72.4324,646.277)"><path d="M2.957,13.525C2.785,13.412 2.731,13.353 2.731,13.353C2.731,13.353 3.167,13.062 3.321,12.653L2.749,12.416C2.749,12.416 3.549,12.225 3.612,12.107C3.676,11.989 3.403,11.293 3.308,11.136C3.308,11.136 2.228,8.479 3.404,8.237C4.11,8.091 5.475,8.783 5.475,8.783C5.475,8.783 6.859,7.923 7.932,8.196C7.932,8.196 9.358,7.54 10.544,7.085C11.731,6.629 16.507,4.592 20.72,5.153C24.932,5.715 28.638,9.978 29.12,13.765C29.602,17.552 28.764,18.404 28.764,18.404C28.764,18.404 29.233,23.661 29.047,24.544C28.861,25.427 26.568,25.458 26.568,25.458C26.568,25.458 26.553,24.497 27.203,24.064C27.854,23.63 27.637,20.485 26.073,19.045C24.508,17.604 21.937,16.489 19.83,16.984C17.723,17.48 17.01,16.998 17.01,16.998C17.01,16.998 14.715,26.111 14.364,26.628C14.013,27.145 11.325,26.872 11.325,26.872C11.325,26.872 11.378,25.913 12.336,25.434C13.295,24.955 14.173,19.271 13.508,17.794C12.842,16.316 9.541,17.141 9.035,16.289C9.035,16.289 8.564,16.819 7.998,17.268C8.054,16.814 7.946,16.49 7.764,16.267C7.466,15.9 6.945,15.794 6.508,15.86C6.201,15.906 5.941,16.038 5.813,16.196C5.813,16.196 5.813,16.196 5.813,16.196C5.652,16.395 5.593,16.699 5.593,17.014C5.46,16.785 5.348,16.537 5.254,16.302C5.277,16.293 5.298,16.28 5.317,16.264C6.135,15.533 6.56,14.792 6.535,14.145C6.517,13.687 6.285,13.263 5.792,12.908C5.377,12.609 4.911,12.578 4.468,12.683C3.853,12.827 3.285,13.239 3.001,13.475C2.983,13.489 2.968,13.506 2.957,13.525ZM20.48,17.091C20.595,17.648 20.756,18.384 20.964,19.224C21.429,21.106 19.276,22.134 19.606,22.988C19.936,23.841 18.694,25.258 18.694,25.258L16.463,25.122C16.424,24.617 16.889,23.996 17.937,22.891C18.985,21.785 19.043,20.543 18.771,19.418C18.631,18.834 18.313,18.042 18.039,17.415C18.49,17.425 19.092,17.372 19.878,17.187C20.074,17.141 20.275,17.109 20.48,17.091ZM10.052,16.914C10.23,16.937 10.422,16.954 10.62,16.969C11.17,17.012 11.775,17.046 12.292,17.18C12.752,17.299 13.143,17.492 13.318,17.879C13.318,17.879 13.318,17.879 13.318,17.879C13.369,17.994 13.411,18.136 13.443,18.299C12.92,18.912 12.117,19.195 12.117,19.195C11.049,20.184 12.349,21.406 12.505,21.775C12.66,22.144 12.427,22.532 12.427,22.532C12.806,22.918 12.955,23.324 12.968,23.685C12.958,23.722 12.947,23.759 12.937,23.795C12.852,24.098 12.76,24.371 12.664,24.6C12.56,24.72 12.441,24.799 12.33,24.821C11.845,24.918 10.545,23.288 9.652,20.844C9.101,19.333 9.594,17.837 10.052,16.914ZM5.825,17.36C5.776,16.986 5.781,16.567 5.975,16.327C6.344,15.871 8.123,15.81 7.755,17.451C7.485,17.642 7.206,17.798 6.955,17.859C6.488,17.972 6.117,17.732 5.825,17.36ZM6.553,17.225C6.553,17.225 6.55,17.117 6.514,17.009C6.478,16.901 6.407,16.793 6.273,16.793C6.003,16.793 6.553,17.225 6.553,17.225ZM7.006,17.223C7.006,17.223 7.009,17.115 7.045,17.007C7.082,16.899 7.152,16.791 7.286,16.791C7.556,16.791 7.006,17.223 7.006,17.223ZM10.344,12.597C10.311,12.544 10.255,12.508 10.193,12.501C10.193,12.501 9.238,12.386 8.427,12.58C7.823,12.724 7.309,13.044 7.212,13.636C7.121,14.193 7.308,14.744 7.573,15.203C7.954,15.863 8.489,16.327 8.489,16.327C8.57,16.397 8.69,16.395 8.768,16.322C8.768,16.322 9.636,15.51 10.152,14.577C10.526,13.902 10.701,13.166 10.344,12.597ZM10.168,12.707C10.168,12.707 7.625,12.4 7.417,13.67C7.21,14.94 8.626,16.17 8.626,16.17C8.626,16.17 10.966,13.98 10.168,12.707ZM3.133,13.635C3.581,13.265 4.766,12.426 5.67,13.077C6.747,13.852 6.444,14.979 5.178,16.108C4.879,15.32 4.575,14.349 3.776,13.971C3.497,13.839 3.288,13.726 3.133,13.635ZM11.829,11.978C11.73,12.029 11.619,12.081 11.501,12.128C11.213,12.244 10.884,12.334 10.589,12.305C10.396,12.285 10.494,12.456 10.494,12.456C10.494,12.456 10.496,12.461 10.501,12.468C10.541,12.532 10.76,12.865 11.08,13.075C11.248,13.186 11.441,13.263 11.652,13.259C11.579,13.333 11.49,13.417 11.395,13.498C11.227,13.639 11.036,13.772 10.861,13.814C10.811,13.826 10.779,13.873 10.785,13.923C10.786,13.935 10.79,13.947 10.795,13.957L10.798,13.963C10.814,13.993 10.9,14.147 11.04,14.27C11.123,14.344 11.224,14.406 11.34,14.43C10.909,14.8 10.087,15.489 9.727,15.691C9.679,15.718 9.661,15.779 9.688,15.827C9.715,15.875 9.776,15.892 9.824,15.865C10.334,15.581 11.751,14.34 11.751,14.34C11.79,14.305 11.796,14.247 11.766,14.205C11.735,14.164 11.678,14.152 11.633,14.179C11.443,14.292 11.284,14.219 11.172,14.12C11.115,14.07 11.069,14.013 11.036,13.966C11.2,13.898 11.371,13.779 11.523,13.651C11.772,13.442 11.992,13.178 12.049,13.133C12.128,13.071 12.045,12.858 11.899,13.003C11.633,13.118 11.389,13.039 11.19,12.908C11.01,12.789 10.865,12.627 10.774,12.509C11.042,12.496 11.323,12.416 11.576,12.314C11.995,12.145 12.334,11.921 12.398,11.878C12.405,11.873 12.409,11.87 12.409,11.87C12.409,11.87 12.515,11.813 12.461,11.724C12.408,11.638 12.313,11.696 12.317,11.694C11.834,11.877 11.397,11.735 11.08,11.55C10.789,11.381 10.598,11.173 10.562,11.133C10.525,11.092 10.448,11.09 10.417,11.117C10.375,11.152 10.369,11.216 10.405,11.258C10.405,11.258 11.007,11.96 11.829,11.978ZM8.32,9.04C8.32,9.04 8.734,8.576 9.239,8.252C9.557,8.047 9.912,7.893 10.216,7.977C10.316,8.004 10.393,8.087 10.457,8.201C10.532,8.333 10.587,8.507 10.629,8.703C10.831,9.66 10.704,11.125 10.704,11.125C10.699,11.18 10.74,11.229 10.795,11.234C10.85,11.238 10.898,11.198 10.903,11.143C10.903,11.143 11.032,9.641 10.824,8.662C10.768,8.398 10.687,8.17 10.576,8.014C10.491,7.896 10.389,7.817 10.269,7.784C9.916,7.687 9.5,7.846 9.131,8.083C8.603,8.422 8.171,8.907 8.171,8.907C8.134,8.949 8.138,9.012 8.179,9.049C8.22,9.085 8.283,9.082 8.32,9.04ZM8.209,9.561C8.209,9.561 9.167,8.667 9.818,8.432C10.469,8.197 10.333,10.547 10.297,10.836C10.261,11.125 9.493,10.782 9.493,10.104C9.493,9.426 8.806,9.543 8.978,9.941C9.149,10.339 8.173,10.013 8.209,9.561ZM3.635,10.802C3.635,10.802 3.188,9.57 3.227,8.879C3.266,8.188 5.374,9.234 5.626,9.381C5.878,9.527 5.261,10.1 4.637,9.834C4.014,9.568 3.853,10.246 4.286,10.244C4.719,10.242 4.037,11.012 3.635,10.802Z"/></g></g><text x="0" y="47" fill="#000000" font-size="5px" font-weight="bold" font-family="'Helvetica Neue', Helvetica, Arial-Unicode, Arial, Sans-serif">Created by icon trip</text><text x="0" y="52" fill="#000000" font-size="5px" font-weight="bold" font-family="'Helvetica Neue', Helvetica, Arial-Unicode, Arial, Sans-serif">from the Noun Project</text></svg>
