<!-- Generated by IcoMoon.io -->
<svg version="1.1" xmlns="http://www.w3.org/2000/svg" width="32" height="32" viewBox="0 0 32 32">
<title>Raiding</title>
<path d="M26 10.688c-1.313 0-2.688 1.313-5.313 1.313-2.688 0-4-1.313-5.375-1.313-0.625 0-1.313 0.625-1.313 1.313v9.313c0 3 1.313 6.688 6.688 6.688 5.313 0 6.625-3.688 6.625-6.688v-9.313c0-0.688-0.688-1.313-1.313-1.313zM16 17c0-0.938 0.75-1.688 1.688-1.688 0.875 0 1.625 0.75 1.625 1.688s-0.75 1.688-1.625 1.688c-0.938 0-1.688-0.75-1.688-1.688zM20.688 25.313c-3.375 0-4-2.625-4-2.625h8c0 0-0.688 2.625-4 2.625zM23.688 18.688c-0.938 0-1.688-0.75-1.688-1.688s0.75-1.688 1.688-1.688c0.875 0 1.625 0.75 1.625 1.688s-0.75 1.688-1.625 1.688zM16.688 9.313c1.313 0.688 1.313 0.688 1.313 0.688v-4.688c0-0.625-0.688-1.313-1.313-1.313-1.375 0-2.688 1.313-5.375 1.313-2.625 0-4-1.313-5.313-1.313-0.625 0-1.313 0.688-1.313 1.313v9.375c0 2.938 1.313 6.625 6.625 6.625 0.5 0 0.938 0 1.375-0.063v-3.938h-5.375c0 0 0.688-2.625 4-2.625 0.688 0 0.938 0.063 1.375 0.25v-2.938c0-1.25 0.438-2.25 1.313-2.688 1.313-0.625 1.875-0.375 2.688 0zM8.313 12c-0.875 0-1.625-0.75-1.625-1.688 0-0.875 0.75-1.625 1.625-1.625 0.938 0 1.688 0.75 1.688 1.625 0 0.938-0.75 1.688-1.688 1.688z"></path>
</svg>
