<!-- Generated by IcoMoon.io -->
<svg version="1.1" xmlns="http://www.w3.org/2000/svg" width="32" height="32" viewBox="0 0 32 32">
<title>Rebuilt</title>
<path d="M7.899 2.916v0.709l-3.544 0.122-0.061 13.003-0.040 13.023h23.494l-0.041-13.023-0.061-13.003-3.544-0.122v-0.709c0-0.911-0.486-0.83-0.567 0.081l-0.061 0.648h-4.415l-0.061-0.668c-0.041-0.405-0.162-0.648-0.365-0.648s-0.324 0.243-0.365 0.648l-0.061 0.668h-4.415l-0.061-0.668c-0.040-0.405-0.162-0.648-0.365-0.648s-0.324 0.243-0.365 0.648l-0.061 0.668h-4.415l-0.061-0.648c-0.081-0.911-0.567-0.992-0.567-0.081zM7.899 4.78c0 0.182-0.263 0.587-0.608 0.891-0.729 0.689-0.79 1.499-0.162 2.167 0.81 0.871 2.208 0.425 2.511-0.79 0.101-0.446 0-0.689-0.506-1.195-0.344-0.344-0.628-0.79-0.628-1.013 0-0.365 0.162-0.385 2.228-0.385 2.127 0 2.228 0.020 2.228 0.425 0 0.243-0.223 0.608-0.506 0.83-1.053 0.81-0.425 2.592 0.911 2.592s1.965-1.782 0.911-2.592c-0.284-0.223-0.506-0.587-0.506-0.83 0-0.405 0.101-0.425 2.228-0.425s2.228 0.020 2.228 0.425c0 0.243-0.223 0.608-0.506 0.83-1.053 0.81-0.425 2.592 0.911 2.592s1.965-1.782 0.911-2.592c-0.284-0.223-0.506-0.587-0.506-0.83 0-0.405 0.101-0.425 2.228-0.425 2.066 0 2.228 0.020 2.228 0.385 0 0.223-0.284 0.668-0.628 1.013-0.506 0.506-0.608 0.749-0.506 1.195 0.284 1.195 1.62 1.64 2.491 0.81 0.668-0.628 0.608-1.478-0.142-2.187-1.033-0.972-0.851-1.215 0.911-1.215h1.519v24.709h-8.911v-8.203l0.952-0.709c1.458-1.094 2.167-2.37 2.248-4.152 0.061-1.154 0-1.661-0.365-2.491-0.506-1.154-1.985-2.673-2.633-2.673-0.385 0-0.405 0.122-0.405 2.835v2.835h-4.051v-2.835c0-2.694-0.020-2.835-0.405-2.835-0.223 0-0.79 0.344-1.256 0.749-2.714 2.471-2.309 6.866 0.81 8.81l0.648 0.405-0.040 4.071-0.061 4.091-4.395 0.061-4.415 0.041v-24.709h1.519c1.256 0 1.519 0.061 1.519 0.324zM8.871 6.704c0.081 0.628-0.405 1.073-0.952 0.891-0.952-0.304-0.628-1.6 0.365-1.478 0.405 0.040 0.547 0.182 0.587 0.587zM13.934 6.319c0.365 0.365 0.284 0.932-0.142 1.175-0.506 0.263-0.972 0.081-1.134-0.425-0.243-0.77 0.709-1.316 1.276-0.749zM19.241 6.38c0.284 0.344 0.101 1.033-0.324 1.195-0.446 0.162-1.094-0.223-1.094-0.648 0-0.77 0.932-1.134 1.418-0.547zM24.506 6.38c0.547 0.648-0.466 1.661-1.114 1.114-0.304-0.263-0.405-1.033-0.162-1.276s1.013-0.142 1.276 0.162zM13.266 16.749c0.101 0.446 0.182 0.466 2.714 0.466 2.187 0 2.633-0.061 2.734-0.324 0.061-0.182 0.122-1.377 0.122-2.673l0.020-2.37 0.77 0.851c2.086 2.309 1.377 5.914-1.438 7.372l-0.77 0.385v8.709h-3.038v-8.709l-0.79-0.486c-2.673-1.701-3.24-4.942-1.256-7.251l0.729-0.851 0.040 2.208c0.040 1.235 0.101 2.43 0.162 2.673z"></path>
</svg>
