<?xml version="1.0" standalone="no"?>
<!DOCTYPE svg PUBLIC "-//W3C//DTD SVG 20010904//EN"
 "http://www.w3.org/TR/2001/REC-SVG-20010904/DTD/svg10.dtd">
<svg version="1.0" xmlns="http://www.w3.org/2000/svg"
 width="500.000000pt" height="500.000000pt" viewBox="0 0 500.000000 500.000000"
 preserveAspectRatio="xMidYMid meet">
<metadata>
Created by potrace 1.16, written by Peter Selinger 2001-2019
</metadata>
<g transform="translate(0.000000,500.000000) scale(0.100000,-0.100000)"
fill="#000000" stroke="none">
<path d="M1658 3796 c-26 -7 -55 -19 -65 -26 -84 -64 -123 -134 -123 -220 1
-189 203 -310 371 -222 55 29 122 103 117 129 -2 8 -25 23 -53 32 -72 26 -129
57 -170 92 -45 40 -39 48 10 14 89 -59 309 -95 388 -62 24 10 37 23 37 35 0
37 -84 90 -176 113 -30 7 -63 24 -84 44 -73 69 -167 95 -252 71z"/>
<path d="M1262 3299 c-57 -28 -94 -75 -148 -186 -47 -95 -55 -134 -36 -170 6
-11 132 -105 279 -209 147 -104 301 -212 342 -241 87 -63 118 -67 162 -24 31
31 37 64 18 103 -7 17 -481 363 -601 439 -13 8 22 79 39 79 17 0 16 -5 -3 -36
-9 -13 -15 -26 -13 -28 19 -16 443 -311 447 -311 3 0 22 63 42 140 27 100 41
139 51 137 8 -1 193 -62 411 -135 316 -105 398 -136 398 -149 0 -9 5 -41 11
-70 10 -49 20 -61 113 -153 67 -66 125 -134 168 -200 66 -100 224 -392 216
-400 -2 -2 -208 127 -458 288 -250 161 -548 353 -662 426 l-207 133 -22 -21
c-18 -16 -20 -23 -10 -35 7 -8 27 -16 44 -18 20 -2 32 -9 32 -18 1 -27 16 -41
36 -35 15 5 167 -88 593 -362 641 -411 562 -347 685 -559 37 -62 62 -94 80
-101 19 -7 32 -24 46 -63 30 -80 85 -137 152 -156 88 -26 143 -14 418 86 74
27 105 54 105 93 0 27 2 29 28 23 23 -5 25 -4 12 6 -9 7 -14 22 -13 33 3 18 2
18 -8 -2 -10 -19 -17 -21 -58 -16 -43 5 -50 2 -91 -32 -88 -73 -246 -134 -313
-120 -54 12 -111 51 -135 94 -31 54 -83 211 -71 211 5 0 12 -13 15 -29 4 -17
13 -32 21 -36 12 -4 14 0 9 17 -3 13 -6 30 -6 39 0 9 -18 28 -40 43 -22 14
-40 31 -40 37 0 19 -107 237 -161 326 -117 197 -217 320 -321 396 -103 75
-137 162 -79 204 38 29 45 68 20 120 l-21 43 50 94 c46 87 51 106 31 106 -10
0 -83 -117 -103 -164 -8 -20 -17 -36 -19 -36 -2 0 -197 66 -433 146 -387 131
-875 274 -936 274 -13 0 -42 -10 -66 -21z"/>
<path d="M1126 2738 c-15 -57 -37 -136 -48 -176 l-21 -74 53 -226 c29 -125 60
-258 67 -297 l15 -70 -116 -259 c-125 -279 -134 -312 -96 -373 24 -41 67 -63
121 -63 58 0 102 30 129 88 56 116 243 540 251 566 9 29 6 42 -55 305 -15 62
-25 115 -23 118 5 4 316 -381 322 -400 3 -7 21 -138 40 -292 20 -154 38 -290
41 -301 3 -12 21 -36 39 -54 64 -62 170 -50 216 23 18 27 20 43 15 112 -6 97
-72 603 -81 628 -4 9 -79 106 -166 215 -123 152 -157 202 -152 217 3 11 6 26
7 33 1 11 -507 380 -525 382 -3 0 -18 -46 -33 -102z"/>
</g>
</svg>
