<?xml version="1.0" encoding="UTF-8"?>
<svg width="700pt" height="700pt" version="1.1" viewBox="0 0 700 700" xmlns="http://www.w3.org/2000/svg">
 <path d="m618.33 207.67-263.66-77h-9.332l-263.67 77c-7 2.332-11.668 9.332-11.668 16.332s4.668 11.668 11.668 14l98 28v79.332c0 42 88.668 63 172.67 63 81.668 0 170.33-18.668 172.67-60.668v-79.332l21-7v123.67c-2.332 2.332-2.332 4.668-2.332 9.332v23.332c0 9.332 7 16.332 16.332 16.332l-0.003906 0.003906c9.332 0 16.332-7 16.332-16.332v-23.332c0-4.668-2.332-7-2.332-9.332v-133l46.668-14c7-2.332 11.668-7 11.668-14-2.3359-7.0039-7.0039-14.004-14.004-16.336zm-268.33-46.668 212.33 63-212.33 63-212.33-63zm142.33 184.33c-2.332 9.3359-49 32.668-142.33 32.668s-140-23.332-142.33-32.668v-70l137.67 42h4.668 4.668l137.67-42z"/>
</svg>
