<svg xmlns="http://www.w3.org/2000/svg" xmlns:xlink="http://www.w3.org/1999/xlink" version="1.2" baseProfile="tiny" x="0px" y="0px" viewBox="0 0 100 125" xml:space="preserve"><g><path d="M91.1538086,33.9667969L64.1904297,8.2104492   c-7.9541016-7.6054688-20.4165039-7.6064453-28.3706055-0.0009766l-5.0714722,4.8445435   c-0.1697388-3.1390991-2.7766113-5.6404419-5.9573364-5.6404419h-8.1577148c-3.2900391,0-5.9663086,2.6762695-5.9663086,5.9663086   v18.8569946l-1.8134766,1.7323608c-4.03125,3.859375-6.34375,9.2695313-6.34375,14.8422852L2.5,82.6289063   c0,8.1967773,6.668457,14.8652344,14.8652344,14.8652344h8.0117188c5.1806641,0,9.3950195-4.2143555,9.3950195-9.3950195   V60.4111328c0-1.5678711,1.2753906-2.84375,2.8432617-2.84375H62.394043c1.5678711,0,2.84375,1.2758789,2.84375,2.84375v27.6879883   c0,5.1806641,4.2143555,9.3950195,9.3950195,9.3950195h7.9916992c8.1967773,0,14.8652344-6.668457,14.8652344-14.8642578   L97.5,48.8134766V48.8125C97.5,43.2387695,95.1875,37.8286133,91.1538086,33.9667969z M24.7573242,13.3798828v5.3970947   l-8.1020508,7.739563l-0.0219727-13.1029663L24.7573242,13.3798828z M91.4897461,82.6289063   c0,4.8881836-3.9770508,8.8652344-8.8652344,8.8652344h-7.9916992c-1.8720703,0-3.3950195-1.5229492-3.3950195-3.3950195   V60.4111328c0-4.8764648-3.9672852-8.84375-8.84375-8.84375H37.6152344c-4.8759766,0-8.8432617,3.9672852-8.8432617,8.84375   v27.6879883c0,1.8720703-1.5229492,3.3950195-3.3950195,3.3950195h-8.0117188C12.4770508,91.4941406,8.5,87.5170898,8.5,82.6298828   L8.5097656,48.8125c0-3.9453125,1.6376953-7.7758789,4.4921875-10.5083008L39.965332,12.5473633   c5.6298828-5.3828125,14.449707-5.3828125,20.0795898,0.0009766l26.9619141,25.7548828   C89.8623047,41.0366211,91.5,44.8666992,91.5,48.8115234L91.4897461,82.6289063z"/></g><text x="0" y="115" fill="#000000" font-size="5px" font-weight="bold" font-family="'Helvetica Neue', Helvetica, Arial-Unicode, Arial, Sans-serif">Created by sahara junadir</text><text x="0" y="120" fill="#000000" font-size="5px" font-weight="bold" font-family="'Helvetica Neue', Helvetica, Arial-Unicode, Arial, Sans-serif">from the Noun Project</text></svg>