<!-- Generated by IcoMoon.io -->
<svg version="1.1" xmlns="http://www.w3.org/2000/svg" width="26" height="32" viewBox="0 0 26 32">
<title>Resting</title>
<path d="M13.403 2.187c-0.262-0.622-0.866-1.050-1.57-1.050-0.001 0-0.002 0-0.003 0h-6.145c-0.566 0-1.024 0.458-1.024 1.024s0.458 1.024 1.024 1.024v0h5.311l-6.074 6.075c-0.308 0.308-0.499 0.734-0.499 1.204 0 0.94 0.762 1.702 1.702 1.702 0 0 0 0 0 0h6.257c0.566 0 1.024-0.458 1.024-1.024s-0.458-1.024-1.024-1.024v0h-5.423l6.075-6.074c0.308-0.308 0.498-0.733 0.498-1.202 0-0.236-0.048-0.46-0.135-0.664l0.004 0.011z"></path>
<path d="M12.211 16.768c-0.226-0.537-0.748-0.908-1.356-0.908-0.001 0-0.002 0-0.002 0h-4.040c-0.566 0-1.024 0.458-1.024 1.024s0.458 1.024 1.024 1.024h2.714l-3.462 3.732c-0.267 0.266-0.431 0.634-0.431 1.040 0 0.812 0.658 1.469 1.469 1.469 0 0 0 0 0 0h4.113c0.566 0 1.024-0.458 1.024-1.024s-0.458-1.024-1.024-1.024v0h-2.787l3.463-3.732c0.267-0.266 0.431-0.633 0.431-1.039 0-0.203-0.041-0.397-0.116-0.573l0.004 0.010z"></path>
<path d="M20.57 15.861h-2.668l3.344-3.189c0.266-0.266 0.431-0.634 0.431-1.040 0-0.812-0.658-1.47-1.47-1.47h-4.040c-0.566 0-1.024 0.458-1.024 1.024s0.458 1.024 1.024 1.024v0h2.596l-3.345 3.189c-0.266 0.266-0.431 0.634-0.431 1.040 0 0.812 0.658 1.469 1.469 1.469 0 0 0 0 0 0h4.113c0.566 0 1.024-0.458 1.024-1.024s-0.458-1.024-1.024-1.024v0z"></path>
</svg>
