<!-- Generated by IcoMoon.io -->
<svg version="1.1" xmlns="http://www.w3.org/2000/svg" width="26" height="32" viewBox="0 0 26 32">
<title>Rhino-white</title>
<path d="M24.058 12.505l-0.146-0.132-1.521 1.084-1.146 0.167 0.278-0.396 0.264-0.695-0.111-0.132-1.369 0.271-0.472-0.611-0.417-1.188 0.431-0.146 0.056-0.049 0.459-0.834-0.125-0.146-1.125 0.389-0.57-0.681-2.112-1.396-0.139-0.028-2.008-0.458-0.076-0.021-0.132 0.042-1.132 0.327-6.106-0.229-0.076 0.028-3.223 1.049-1.362 1.737-0.007 0.042-0.347 1.897-0.278 0.556 0.215 1.153 0.459-0.75-0.188-0.903 0.313-0.32 0.236 2.195 0.327 3.772h1.917v-0.584l-0.521-0.486 1.035-2.515 0.806-0.611 1.16 1.105 4.773-0.584 0.5 3.682h1.91v-0.584l-0.514-0.479 1.598-2.932 1.591-0.083 1.223 1.41 1.737 0.924 1.445-1.014 0.056-0.042 1.32-0.966 1.118-1.834zM1.862 13.554l-0.104-0.57 0.125-0.257 0.125 0.591-0.146 0.236zM21.543 12.63l-0.181 0.493-0.326 0.465-0.577-0.743 1.084-0.215zM19.744 10.539l-0.396 0.132-0.368 0.125-0.535 0.181 0.139-0.361 0.056-0.146 1.417-0.493-0.313 0.563zM16.284 8.184l-0.063 1.758-0.076 2.258-1.771-4.453 1.91 0.438zM14.151 7.725l1.938 4.863-3.974 0.361 0.931-4.898 1.105-0.327zM3.654 8.892l3.078-1-0.653 5.683-3.668-3.091 1.244-1.591zM2.077 12.116l0.167-0.917 0.076 0.674-0.243 0.243zM5.030 14.763l-0.959 2.327 0.556 0.521v0.292h-1.528l-0.292-3.39 1.431 0.854 0.792-0.604zM4.217 15.117l-1.438-0.854-0.382-3.522 3.599 3.029-1.778 1.348zM7.385 14.804l-1.118-1.063 0.674-5.884 5.898 0.222-0.945 4.967v0.014l0.16 1.16-4.668 0.584zM14.276 17.611v0.292h-1.528l-0.639-4.745 3.946-0.354-2.334 4.279 0.556 0.528zM16.215 12.922l0.104-0.195 0.007-0.014v-0.042l0.083-2.438 0.069-1.938 1.91 1.264 0.514 0.604-0.368 0.132h-0.007l-0.042 0.014-1.348 3.515-1.452 0.076 0.528-0.98zM20.105 16.124l-1.577-0.834-1.202-1.382 0.139-0.361 0.882-2.334 0.875-0.292 0.424 1.209 0.542 0.702 0.736 0.945 0.014 0.021 0.438 1.424-1.271 0.903zM21.557 15.103l-0.063-0.201-0.326-1.063 1.285-0.188 0.042-0.021 1.139-0.806-0.834 1.369-1.244 0.91z"></path>
</svg>
