<!-- Generated by IcoMoon.io -->
<svg version="1.1" xmlns="http://www.w3.org/2000/svg" width="26" height="32" viewBox="0 0 26 32">
<title>Rhino-black</title>
<path d="M5.932 17.279c-0.198-0.082-0.409-0.128-0.623-0.144 0.041 0.091 0.092 0.175 0.158 0.247 0.074 0.080 0.174 0.154 0.279 0.233 0.113 0.085 0.234 0.176 0.341 0.287 0.082-0.069 0.16-0.155 0.166-0.262 0.010-0.172-0.162-0.295-0.321-0.361zM14.707 17.359c-0.102-0.093-0.147-0.23-0.163-0.365-0.061-0.454 0.128-0.902 0.262-1.341 0.005-0.018 0.009-0.036 0.015-0.053-0.050-0.153-0.102-0.299-0.161-0.437-0.128-0.295-0.283-0.575-0.462-0.836-0.014-0.020-0.049-0.074-0.074-0.091-0.004-0.003-0.022-0.013-0.086-0.024-0.058-0.010-0.116-0.015-0.179-0.015-0.252 0-0.513 0.082-0.785 0.181 0.004 0.005 0.010 0.007 0.014 0.011 0.195 0.205 0.24 0.512 0.218 0.794-0.019 0.282-0.096 0.557-0.105 0.841-0.010 0.24 0.032 0.483 0.122 0.71 0.067 0.166 0.16 0.336 0.147 0.515-0.016 0.218-0.183 0.4-0.198 0.614-0.016 0.179 0.083 0.362 0.243 0.445 0.125 0.068 0.272 0.074 0.416 0.064 0.265-0.019 0.531-0.087 0.774-0.198 0.112-0.051 0.227-0.115 0.301-0.218s0.102-0.246 0.035-0.355c-0.074-0.115-0.23-0.151-0.333-0.243zM24.157 10.389c-0.343 0.378-0.73 0.717-1.156 0.998-0.099 0.067-0.201 0.134-0.32 0.173-0.124 0.041-0.265 0.048-0.4 0.054-0.017 0-0.034 0.002-0.051 0.002-0.008 0-0.017-0-0.026-0.002 0.080-0.333 0.138-0.902 0.055-1.107-0.275 0.211-0.615 0.334-0.958 0.334-0.021 0-0.042-0-0.063-0.001-0.083-0.003-0.173-0.013-0.24-0.064-0.077-0.058-0.112-0.153-0.147-0.237-0.141-0.316-0.361-0.589-0.643-0.784-0.061-0.041-0.122-0.080-0.157-0.144-0.038-0.077-0.029-0.17-0.016-0.253 0.029-0.179 0.055-0.358 0.080-0.538 0.006-0.048 0.016-0.099 0.055-0.128 0.051-0.045 0.128-0.035 0.195-0.048 0.333-0.064 0.253-0.918 0.198-1.171-0.221 0.006-0.563 0.099-0.736 0.24-0.077 0.061-0.15 0.137-0.243 0.179-0.063 0.029-0.131 0.040-0.201 0.040-0.062 0-0.125-0.008-0.186-0.021-0.253-0.051-0.493-0.166-0.695-0.329-0.115-0.095-0.255-0.213-0.389-0.213-0.037 0-0.075 0.009-0.11 0.031-0.032 0.019-0.061 0.045-0.096 0.054-0.007 0.002-0.015 0.003-0.021 0.003-0.031 0-0.062-0.015-0.094-0.028-0.262-0.141-0.489-0.39-0.791-0.406-0.012-0.001-0.023-0.001-0.034-0.001-0.194 0-0.367 0.1-0.545 0.196-0.471-0.179-1.008-0.305-1.52-0.305-0.33 0-0.65 0.052-0.935 0.177-0.16 0.067-0.307 0.163-0.464 0.224-0.282 0.109-0.589 0.122-0.89 0.131-0.313 0.012-0.627 0.023-0.94 0.023-0.373 0-0.746-0.016-1.114-0.064-0.48-0.067-0.979-0.173-1.443-0.317-0.261-0.083-0.536-0.132-0.811-0.132-0.127 0-0.254 0.011-0.38 0.032-0.412 0.080-0.768 0.327-1.19 0.394-0.146 0.022-0.293 0.030-0.441 0.030-0.386 0-0.777-0.055-1.16-0.055-0.224 0-0.447 0.019-0.664 0.079-0.602 0.163-1.088 0.63-1.392 1.174-0.070 0.125-0.131 0.249-0.186 0.381-0.384 0.272-0.746 0.682-0.842 0.915-0.266 0.637-0.023 1.379-0.154 2.057-0.035 0.189-0.099 0.368-0.163 0.547-0.077 0.218-0.157 0.439-0.317 0.605-0.048 0.055-0.106 0.102-0.128 0.17-0.045 0.141 0.080 0.272 0.192 0.361 0.256-0.326 0.435-0.713 0.515-1.12 0.064-0.32 0.070-0.653 0.211-0.944 0.054-0.115 0.128-0.218 0.211-0.314-0.045 0.79 0.061 1.587 0.525 2.208 0.073 0.099 0.16 0.208 0.153 0.333-0.006 0.080-0.051 0.15-0.096 0.218-0.198 0.317-0.368 0.646-0.502 0.989-0.045 0.115-0.080 0.262 0.006 0.352 0.051 0.054 0.131 0.067 0.195 0.102 0.275 0.137 0.24 0.528 0.301 0.829 0.138 0.646 0.883 1.072 0.899 1.731 0.003 0.134-0.023 0.278 0.032 0.4 0.087 0.189 0.33 0.24 0.534 0.252 0.055 0.003 0.11 0.004 0.165 0.004 0.48 0 0.963-0.1 1.399-0.295-0.131-0.358-0.544-0.515-0.8-0.794-0.361-0.397-0.387-0.982-0.397-1.517-0.007-0.535-0.004-1.107 0.304-1.546 0.15-0.214 0.362-0.374 0.538-0.57 0.323-0.355 0.525-0.813 0.573-1.293 0.163 0.102 0.316 0.211 0.467 0.329 0.272 0.221 0.518 0.474 0.79 0.691 0.701 0.557 1.584 0.858 2.477 0.922 0.127 0.009 0.255 0.014 0.382 0.014 0.763 0 1.526-0.16 2.242-0.42 0.041-0.016 0.086-0.032 0.128-0.048 0.367-0.139 0.743-0.286 1.124-0.286 0.078 0 0.155 0.006 0.233 0.020 0.073 0.013 0.15 0.032 0.215 0.077s0.112 0.109 0.157 0.176c0.192 0.279 0.355 0.576 0.49 0.887 0.083 0.196 0.154 0.393 0.215 0.595 0.16 0.553 0.24 1.158 0.592 1.616 0.051 0.058 0.102 0.119 0.125 0.196 0.077 0.291-0.365 0.621-0.163 0.841 0.051 0.058 0.128 0.080 0.202 0.099 0.285 0.071 0.581 0.106 0.876 0.106 0.399 0 0.799-0.064 1.178-0.189-0.026-0.304-0.413-0.397-0.666-0.557-0.384-0.24-0.522-0.726-0.589-1.171-0.157-1.037-0.093-2.103 0.179-3.114 0.115-0.051 0.23-0.109 0.342-0.169 0.16-0.010 0.317-0.080 0.429-0.189 0.038-0.038 0.070-0.080 0.115-0.102 0.102-0.051 0.237-0.006 0.339-0.061 0.105-0.061 0.131-0.215 0.24-0.279 0.033-0.020 0.067-0.029 0.101-0.029 0.127 0 0.259 0.121 0.35 0.235 0.342 0.439 0.688 0.912 1.193 1.158 0.695 0.339 1.568 0.189 2.243 0.563 0.275-0.384 0.486-0.803 0.509-1.27 0.004-0.077 0.004-0.157 0.038-0.228 0.035-0.077 0.109-0.124 0.179-0.176 0.602-0.429 1.043-1.082 1.222-1.802 0.074-0.297 0.105-0.605 0.115-0.912-0.053 0.065-0.108 0.129-0.162 0.193zM20.736 11.693c-0.088 0-0.16-0.072-0.16-0.16s0.072-0.16 0.16-0.16c0.089 0 0.16 0.072 0.16 0.16s-0.071 0.16-0.16 0.16z"></path>
</svg>
