<svg width="96" height="96" xmlns="http://www.w3.org/2000/svg" xmlns:xlink="http://www.w3.org/1999/xlink" xml:space="preserve" overflow="hidden"><defs><clipPath id="clip0"><rect x="0" y="0" width="96" height="96"/></clipPath></defs><g clip-path="url(#clip0)"><path d="M92.13 32.09C92.1963 31.8139 92.0261 31.5363 91.75 31.47 91.4739 31.4037 91.1963 31.5739 91.13 31.85 87.95 38.7 85.33 41.35 80.81 43.23L81.7 38.29C81.7466 38.0178 81.5637 37.7594 81.2915 37.7128 81.0961 37.6793 80.8993 37.7645 80.79 37.93 79.9157 39.0297 78.6654 39.767 77.28 40L73.43 35.93C74.0199 35.7756 74.5604 35.4726 75 35.05 76.455 33.6554 76.5042 31.3454 75.11 29.89L71.22 33.61 69.35 31.61C66.5764 28.6794 62.6599 27.1084 58.63 27.31L47.63 29.13C43.1968 29.8674 38.6903 30.0622 34.21 29.71L24.92 29C23.7512 28.9973 22.583 29.054 21.42 29.17 11.67 29.65 4.71 36.7 4.71 45.23L4.71 48.84 8 47.36 8 65.08C8 66.7369 9.34315 68.08 11 68.08 12.6569 68.08 14 66.7369 14 65.08L14 58.15C15.4763 58.015 16.8741 57.4244 18 56.46L18 65.08C18 66.7369 19.3431 68.08 21 68.08 22.6569 68.08 24 66.7369 24 65.08L24 57.76C22.3772 56.9337 20.834 55.9596 19.39 54.85 19.7548 54.2754 20.0375 53.6528 20.23 53 27.5545 58.62 37.0404 60.5967 46 58.37L46 65.08C46 66.7369 47.3431 68.08 49 68.08 50.6569 68.08 52 66.7369 52 65.08L52 56.08 56 54.42 56 65.08C56 66.7369 57.3431 68.08 59 68.08 60.6569 68.08 62 66.7369 62 65.08L62 51.89 63.89 51.11 69 49 69.59 49.51C72.0033 51.6237 75.1019 52.7892 78.31 52.79L79.71 52.79C81.1564 52.7932 82.5111 52.0822 83.33 50.89 83.4539 50.6937 83.5515 50.4818 83.62 50.26 83.8291 49.7392 83.9572 49.1895 84 48.63 84.0022 48.2732 83.9619 47.9173 83.88 47.57 88.6038 43.7327 91.5785 38.151 92.13 32.09Z"/></g></svg>