<svg width="210" height="210" xmlns="http://www.w3.org/2000/svg" xmlns:xlink="http://www.w3.org/1999/xlink" xml:space="preserve" overflow="hidden"><defs><clipPath id="clip0"><rect x="406" y="137" width="210" height="210"/></clipPath></defs><g clip-path="url(#clip0)" transform="translate(-406 -137)"><path d="M608.755 207.481C608.847 206.492 608.288 205.556 607.372 205.169 606.297 204.752 605.082 205.242 604.597 206.289 598.478 219.469 593.366 225.552 584.5 229.75 584.489 229.755 584.476 229.75 584.471 229.739 584.469 229.735 584.469 229.731 584.469 229.726L586.033 221.042C586.218 220.025 585.662 219.02 584.703 218.635 583.744 218.247 582.643 218.579 582.059 219.434 580.659 221.118 578.787 222.345 576.684 222.956L570.472 216.38C571.64 215.584 572.632 214.555 573.385 213.359 573.922 212.524 574.321 211.608 574.569 210.647 575.498 207.177 574.534 203.474 572.031 200.897 571.187 200.077 569.845 200.072 568.995 200.886L562.074 207.499 558.25 203.463C552.087 196.941 543.225 193.682 534.306 194.658L534.069 194.682 509.994 198.688C500.47 200.265 490.79 200.684 481.165 199.937L460.65 198.346C458.059 198.34 455.468 198.465 452.889 198.723 430.865 199.816 414.258 215.846 414.258 236.035L414.258 243.851C414.244 244.433 414.452 245 414.84 245.434 415.479 246.123 416.486 246.326 417.342 245.94L422.975 243.396C422.986 243.391 422.999 243.396 423.004 243.407 423.005 243.41 423.006 243.412 423.006 243.415L423.006 274.795 421.595 280.439C421.301 281.529 421.427 282.689 421.947 283.692 422.709 285.115 424.193 286.003 425.808 286.002L437.522 286.002C438.828 286.026 440.082 285.493 440.972 284.536 441.937 283.457 442.304 281.969 441.949 280.566L440.506 274.795 440.506 264.328C445.337 263.727 449.713 261.175 452.616 257.267 463.905 264.887 477.218 268.952 490.838 268.937 497.431 268.949 503.99 267.98 510.298 266.062L512.693 265.067 512.693 274.797 511.282 280.441C510.991 281.531 511.117 282.692 511.637 283.694 512.396 285.119 513.881 286.007 515.495 286.004L527.209 286.004C528.516 286.028 529.772 285.495 530.661 284.538 531.626 283.459 531.992 281.971 531.637 280.568L530.193 274.797 530.193 257.789 538.943 254.16 538.943 275.064 539.009 275.598 540.509 281.594C540.513 281.604 540.508 281.615 540.497 281.619 540.495 281.62 540.492 281.62 540.49 281.62L535.264 281.62C534.2 281.601 533.27 282.332 533.037 283.37 532.795 284.554 533.559 285.709 534.743 285.951 534.888 285.98 535.035 285.995 535.183 285.995L540.334 285.995C541.641 286.02 542.897 285.487 543.786 284.529 544.751 283.45 545.117 281.962 544.762 280.559L543.318 274.788 543.318 252.345 556.662 246.81 556.924 247.04C562.59 252.009 569.868 254.748 577.404 254.749L580.514 254.749C584.393 254.749 588.023 252.84 590.22 249.643 590.652 249 590.964 248.284 591.139 247.53L592.014 243.999 592.078 243.485C592.089 242.553 591.986 241.623 591.771 240.716 601.485 232.226 607.566 220.328 608.755 207.481ZM587.827 238.367C587.083 239.039 586.863 240.118 587.282 241.029 587.565 241.723 587.708 242.466 587.705 243.216L586.893 246.476C586.842 246.72 586.748 246.953 586.615 247.165 585.235 249.174 582.953 250.375 580.514 250.374L577.452 250.374C570.961 250.376 564.69 248.022 559.803 243.75L558.523 242.628C557.897 242.079 557.013 241.934 556.244 242.254L540.365 248.838C540.312 248.858 540.262 248.878 540.21 248.902L527.166 254.307C526.352 254.646 525.822 255.44 525.82 256.322L525.82 275.064 525.886 275.598 527.384 281.594C527.388 281.604 527.383 281.615 527.372 281.619 527.37 281.62 527.367 281.62 527.365 281.62L515.524 281.62C515.512 281.62 515.502 281.611 515.501 281.599 515.501 281.597 515.502 281.595 515.502 281.594L517.003 275.591 517.068 275.057 517.068 261.779C517.057 261.492 517.001 261.209 516.902 260.939 516.439 259.824 515.158 259.295 514.043 259.758L508.812 261.95C490.445 267.382 470.608 264.274 454.781 253.487 455.675 251.351 456.141 249.061 456.155 246.747 456.188 245.66 455.44 244.705 454.377 244.476 453.19 244.252 452.045 245.032 451.82 246.219 451.795 246.353 451.782 246.49 451.782 246.627 451.774 254.049 445.771 260.07 438.349 260.102 437.131 260.088 436.133 261.065 436.12 262.282 436.12 262.284 436.12 262.287 436.12 262.289L436.12 275.066 436.185 275.596 437.697 281.594C437.699 281.606 437.692 281.617 437.68 281.62 437.678 281.62 437.677 281.62 437.675 281.62L425.834 281.62C425.823 281.621 425.814 281.612 425.813 281.601 425.813 281.599 425.814 281.596 425.814 281.594L427.315 275.591 427.381 275.057 427.381 239.957C427.381 239.893 427.348 239.83 427.341 239.767 427.248 238.649 426.317 237.787 425.195 237.78 424.852 237.786 424.515 237.875 424.213 238.038L418.663 240.537C418.652 240.541 418.639 240.536 418.635 240.525 418.633 240.523 418.633 240.52 418.633 240.517L418.633 236.024C418.633 218.209 433.453 204.047 453.219 203.073 455.573 202.833 458.073 202.71 460.48 202.704L480.823 204.288C490.8 205.064 500.833 204.629 510.705 202.992L534.667 199.02C542.807 198.65 550.705 201.844 556.299 207.77L558.924 210.542 557.191 212.224C556.33 213.031 556.235 214.365 556.973 215.286 557.753 216.209 559.133 216.324 560.055 215.544 560.094 215.511 560.132 215.477 560.168 215.442L563.5 212.182 563.5 212.182 570.098 205.88C570.103 205.87 570.114 205.866 570.124 205.871 570.128 205.873 570.13 205.876 570.133 205.88 570.979 208.069 570.425 210.552 568.728 212.173 568.042 212.818 567.207 213.282 566.298 213.525 565.834 213.636 565.415 213.888 565.101 214.247 564.383 215.099 564.42 216.355 565.187 217.163L574.438 226.95C574.991 227.535 575.821 227.769 576.599 227.558 578.003 227.185 579.363 226.663 580.657 226.003 580.678 226.003 580.692 226.003 580.687 226.027L579.742 231.277C579.618 231.961 579.827 232.664 580.304 233.169L581.385 234.311C582.012 234.969 582.979 235.174 583.82 234.827 590.144 232.442 595.695 228.371 599.869 223.054 599.946 222.96 599.963 222.969 599.909 223.076 596.926 228.917 592.82 234.113 587.827 238.367Z" stroke="#000000" stroke-width="6"/><path d="M453.631 274.795 453.631 266.397C453.65 265.333 452.919 264.403 451.881 264.17 450.697 263.929 449.542 264.692 449.3 265.876 449.271 266.02 449.256 266.167 449.256 266.314L449.256 275.064 449.321 275.598 450.822 281.594C450.824 281.606 450.817 281.617 450.805 281.62 450.803 281.62 450.802 281.62 450.8 281.62L445.576 281.62C444.512 281.601 443.582 282.332 443.349 283.37 443.108 284.554 443.872 285.709 445.055 285.951 445.2 285.98 445.347 285.995 445.495 285.995L450.647 285.995C451.953 286.019 453.207 285.486 454.097 284.529 455.062 283.451 455.429 281.963 455.074 280.559Z" stroke="#000000" stroke-width="6"/><path d="M567.378 225.845C567.378 227.658 565.909 229.127 564.097 229.127 562.285 229.127 560.816 227.658 560.816 225.845 560.816 224.033 562.285 222.564 564.097 222.564 565.909 222.564 567.378 224.033 567.378 225.845Z" stroke="#000000" stroke-width="6"/></g></svg>