<!-- Generated by IcoMoon.io -->
<svg version="1.1" xmlns="http://www.w3.org/2000/svg" width="32" height="32" viewBox="0 0 32 32">
<title>Rhino</title>
<path d="M30.5 15.375c-0.563 0.313-1.875 0.688-2.25 0.688-0.375 0.063-0.5-0.125-0.5-0.125s-0.125-0.25 0.125-0.5c0.125-0.188 0.125-0.375 0.125-0.375s-0.063-0.125-0.375-0.188c-0.313-0.063-0.875 0.188-0.875 0.188s-0.563-0.563-0.75-0.938c-0.188-0.375-0.25-0.75-0.313-1-0.125-0.25-0.125-0.875-0.25-1.125-0.063-0.25-0.063-0.375-0.063-0.5 0-0.063 0.375 0 0.563-0.063 0.188 0 0.563-0.75 0.75-1.188 0.125-0.438 0-0.563 0-0.563-0.125 0-0.875 0.438-1.313 0.625-0.313 0.188-0.625 0.313-0.813 0.438 0-0.25-0.188-0.688-0.5-0.813-0.188-0.063-0.563-0.25-0.875-0.375-0.063-0.063-0.063-0.125-0.188-0.25-0.125-0.188-0.438-0.313-0.625-0.375s-0.25-0.25-0.438-0.313c-0.125-0.063-0.313 0-0.375 0-0.125 0-0.313-0.063-0.5-0.063-0.125-0.063-0.375 0.188-0.688 0.313-0.313 0.063-1 0.063-1.313 0.063-0.375-0.063-1.188-0.125-1.625-0.063-0.438 0-0.875 0.188-1.625 0.438-0.813 0.25-2.063 0.188-2.813 0.125s-3.5-0.625-3.813-0.688c-0.313-0.063-0.563-0.063-1.313 0.125-0.688 0.188-2.313 0.375-3.188 0.375-0.875 0.063-1.313 0.313-2.063 0.875 0 0-0.75 0.75-0.875 0.875-0.063 0.188-0.563 0.563-0.875 0.875s-0.625 1.313-0.625 1.688c-0.063 0.313-0.125 2.063-0.188 2.438-0.125 0.375-0.125 1.188 0 1.5 0.063 0.375 0.313 0.25 0.313 0s-0.125-0.688-0.125-0.813c0-0.063 0.125-0.688 0.125-0.75 0-0.188 0.063-0.563 0.125-0.375 0 0.063 0 0.438 0.125 0.625 0.125 0.25 0.563 1.25 0.563 1.438-0.063 0.188 0.063 0.688-0.125 1.063-0.25 0.438-0.313 0.875-0.375 0.875 0 0.063-0.188 0.188-0.188 0.5 0 0.25 0.188 0.375 0.375 0.688 0.188 0.25 0.438 0.625 0.5 0.813 0 0.188 0 0.875-0.188 1.125-0.125 0.188-0.313 0.688 0 0.75h2.438c0.313 0 0.063-0.375-0.063-0.688-0.063-0.125-0.438-0.313-0.5-0.313s-0.313-1.375-0.313-1.563c0.063-0.125 0.25-0.75 0.313-0.938 0-0.063 0.063-0.313 0.125-0.5 0 0 0.063 0.063 0.063 0.063 0.063 0.25 0.063 0.625 0.063 1 0 0.313 0.25 0.563 0.438 0.625 0.25 0.125 0.688 0.938 0.938 1.25s-0.063 0.438-0.188 0.688c-0.125 0.25 0.063 0.375 0.375 0.375s2.563 0 2.563 0c0-0.125-0.375-0.688-0.438-0.75s-0.375-0.125-0.438-0.188c-0.063-0.063-0.563-1.063-0.688-1.313-0.188-0.313-0.188-0.5-0.188-0.625-0.063-0.125-0.188-0.625-0.313-0.938-0.063-0.25-0.125-1-0.125-1.188s0.125-0.5 0.375-0.625c0.188-0.188 0.25-0.625 0.313-0.938l0.125 0.063c0 0 1.188 1.375 1.25 1.438 0.125 0.063 2 0.875 2.813 0.938 0.875 0.125 2 0.063 3.063-0.063s2.063-0.313 2.063-0.313c0.063 0.063 0.25 0.563 0.188 0.75-0.125 0.188-0.313 0.563-0.313 0.75 0 0.125-0.125 1 0 1.25 0.125 0.313 0.063 0.438 0 0.688-0.188 0.25-0.375 0.875-0.313 1l3.313 0.063h1.563c0-0.25-0.375-0.75-0.688-0.813-0.188 0-0.125-0.625-0.25-0.813-0.125-0.125-0.125-0.438-0.125-0.625 0-0.125 0.125-0.75 0.188-1.063s0.188-0.375 0.313-0.688c0.188-0.25 0.5-0.938 0.5-1.125 0.063-0.188 0.125-0.313 0.25-0.313 0.063-0.063 0.313-0.188 0.438-0.188 0.063 0 0.438 0.063 0.563 0 0.063-0.063 0.125-0.313 0.25-0.375s0.375-0.125 0.375-0.125c0 0 0.313 0.313 0.438 0.313s0.25-0.125 0.313-0.25c0.063-0.063 0.25-0.5 0.25-0.5s0 0 0.125 0.313c0.063 0.313 0.5 0.75 0.625 0.813 0.125 0.125 1.25 1 1.5 1.188 0.25 0.25 0.438 0.5 0.625 0.563 0.125 0.063 0.188 0 0.188 0s0.375 0.313 0.563 0.313c0.25 0.063 0.375 0 0.813-0.125 0.375-0.063 0.625-0.375 0.75-0.563 0.188-0.188 0.375-0.813 0.375-0.938 0.063-0.188 0.5-0.313 0.563-0.438 0.125-0.063 0.688-0.375 0.813-0.5s0.188-0.375 0.188-0.375c0 0 0.375-0.313 0.625-0.563s0.938-1.063 1.188-1.375c0.188-0.25 0.5-0.813 0.563-0.875-0.125 0.188-0.938 0.813-1.5 1.063zM17.063 20.875c0 0 0.063 0.75 0.125 0.875 0.125 0.125 0.125 0.125 0.125 0.25 0 0.063-0.25 0.375-0.375 0.563-0.063 0-0.063 0-0.125 0s-0.25-0.563-0.25-0.75c0-0.125 0.438-0.813 0.5-0.938zM31.938 14.375c0.063 0 0.063 0 0 0 0.063-0.063 0.063 0 0 0z"></path>
</svg>
