<!-- Generated by IcoMoon.io -->
<svg version="1.1" xmlns="http://www.w3.org/2000/svg" width="32" height="32" viewBox="0 0 32 32">
<title>River</title>
<path d="M17.813 2.375c-0.688 0.063-1.813 0.375-2.25 0.563-0.188 0.125-0.75 0.25-1.188 0.313-0.375 0-0.875 0.125-1.063 0.125-0.188 0.063-0.563 0.125-0.938 0.25-0.563 0.125-0.875 0.188-1.188 0.313-0.5 0.188-0.75 0.313-0.875 0.438-0.063 0.125-0.063 0.188 0.063 0.25 0.063 0.063 0.25 0.125 0.375 0.188 0.063 0 0.313 0.063 0.438 0.125 0.188 0 0.563 0.125 0.938 0.188 0.875 0.188 1.75 0.5 1.875 0.625 0.063 0.125 0.063 0.188-0.063 0.313-0.25 0.25-1.063 0.438-3 0.625-0.625 0.063-1.313 0.188-1.563 0.25-0.25 0-0.563 0.063-0.75 0.063-0.125 0-0.375 0-0.563 0.063s-0.688 0.125-1.125 0.188c-1.75 0.313-2.938 0.625-3.75 1.125-0.188 0.063-0.438 0.188-0.5 0.25-0.375 0.188-1.063 0.75-1.5 1.25s-1 1.5-1 1.813c0 0.063-0.063 0.188-0.125 0.25s-0.063 1.063 0 1.438c0.063 0.125 0.125 0.375 0.188 0.563 0.313 1.063 1.25 2.25 2.563 3.375 0.313 0.25 0.625 0.5 0.688 0.563 0.5 0.375 1.75 1.25 2.813 2 0.25 0.125 0.438 0.313 0.5 0.313 0 0 0.25 0.188 0.5 0.375 1.938 1.438 4.563 4.25 5.375 5.75 0.063 0.188 0.188 0.188 9.313 0.188 5.063 0 9.313 0 9.375 0 0.25-0.125-1.313-2.125-2.875-3.625-1.813-1.875-3.875-3.438-6.188-4.75-0.438-0.25-3.063-1.563-3.375-1.688-0.125-0.063-0.313-0.125-0.438-0.188-0.188-0.063-0.438-0.188-0.563-0.188-0.188-0.063-0.375-0.188-0.5-0.188-0.375-0.188-0.5-0.25-1.125-0.438-0.313-0.125-0.688-0.25-0.75-0.313-0.063 0-0.188-0.063-0.25-0.063s-0.188 0-0.25-0.063c-0.063-0.063-0.438-0.188-0.813-0.313-0.313-0.063-0.688-0.188-0.75-0.25-0.188-0.063-2.25-0.688-3.313-1.063-1.375-0.375-2-0.563-2.125-0.625s-0.313-0.188-1.125-0.5c-0.625-0.25-1.688-0.938-1.938-1.25-0.625-0.875 0.125-1.5 2.375-2 0.313-0.063 2.063-0.438 3-0.563 0.25-0.063 0.75-0.125 1.125-0.188 0.375 0 1.125-0.125 1.563-0.188 0.5-0.063 1.063-0.125 1.25-0.125 0.563 0 1.688-0.438 2.188-0.813 0.688-0.625 0.563-1.25-0.438-1.75-0.625-0.25-0.75-0.375-0.875-0.625-0.063-0.188 0.063-0.5 0.375-0.688 0.313-0.125 1.188-0.313 1.938-0.438 0.813-0.125 1-0.188 1.375-0.5 0.25-0.313 0.313-0.625 0.188-0.75-0.188-0.063-0.813-0.063-1.25 0z"></path>
</svg>
