<?xml version="1.0" standalone="no"?>
<!DOCTYPE svg PUBLIC "-//W3C//DTD SVG 20010904//EN"
 "http://www.w3.org/TR/2001/REC-SVG-20010904/DTD/svg10.dtd">
<svg version="1.0" xmlns="http://www.w3.org/2000/svg"
 width="500.000000pt" height="500.000000pt" viewBox="0 0 500.000000 500.000000"
 preserveAspectRatio="xMidYMid meet">
<metadata>
Created by potrace 1.16, written by Peter Selinger 2001-2019
</metadata>
<g transform="translate(0.000000,500.000000) scale(0.100000,-0.100000)"
fill="#000000" stroke="none">
<path d="M1685 3719 c-16 -4 -47 -22 -68 -40 -159 -131 -67 -389 138 -389 122
0 216 96 218 221 1 146 -143 251 -288 208z"/>
<path d="M3149 3703 c-75 -39 -112 -93 -117 -176 -6 -100 41 -182 126 -218 89
-38 186 -16 253 57 79 89 75 209 -11 295 -75 75 -158 89 -251 42z"/>
<path d="M1372 3228 c-26 -12 -55 -37 -70 -61 -27 -40 -27 -41 -27 -233 l0
-192 30 -38 c17 -20 46 -45 65 -55 33 -18 82 -19 1130 -19 1227 0 1131 -6
1194 73 l31 39 3 183 c3 170 2 186 -18 224 -11 23 -39 53 -62 68 l-42 28
-1095 2 -1096 2 -43 -21z m418 -164 c0 -3 -57 -61 -127 -129 -123 -119 -130
-124 -170 -125 l-43 0 0 130 0 130 170 0 c94 0 170 -3 170 -6z m755 -124
l-130 -130 -200 0 -200 0 130 130 130 130 200 0 200 0 -130 -130z m880 0
l-130 -130 -200 0 -200 0 130 130 130 130 200 0 200 0 -130 -130z"/>
<path d="M1580 2483 c-6 -32 -18 -87 -26 -123 -17 -73 -166 -771 -185 -867
-19 -92 -18 -93 160 -93 103 0 152 4 163 13 9 6 21 37 28 67 6 30 20 93 30
140 10 47 57 267 105 489 48 222 89 410 92 417 4 12 -27 14 -175 14 l-181 0
-11 -57z"/>
<path d="M3071 2458 c11 -46 55 -252 99 -458 114 -534 125 -581 141 -591 8 -5
81 -8 163 -6 181 3 177 -1 154 119 -24 119 -185 870 -204 951 l-16 67 -177 0
-178 0 18 -82z"/>
<path d="M1956 2173 c-10 -36 -46 -213 -46 -228 0 -13 70 -15 594 -15 l594 0
-24 113 c-14 61 -27 120 -30 130 -5 16 -40 17 -544 17 -504 0 -539 -1 -544
-17z"/>
</g>
</svg>
