<?xml version="1.0" encoding="utf-8"?>
<!-- Svg Vector Icons : http://www.onlinewebfonts.com/icon -->
<!DOCTYPE svg PUBLIC "-//W3C//DTD SVG 1.1//EN" "http://www.w3.org/Graphics/SVG/1.1/DTD/svg11.dtd">
<svg version="1.1" xmlns="http://www.w3.org/2000/svg" xmlns:xlink="http://www.w3.org/1999/xlink" x="0px" y="0px" viewBox="0 0 256 256" enable-background="new 0 0 256 256" xml:space="preserve">
<metadata> Svg Vector Icons : http://www.onlinewebfonts.com/icon </metadata>
<g><g><g><path fill="#000000" d="M53.5,22.2c-5.9,0.9-11.7,4.5-15.2,9.2c-6.9,9.4-6.1,22.1,2,30.4l2.2,2.3l-12.7,0.1c-12.2,0.1-12.8,0.2-14.7,1.2c-2.3,1.2-4,3.4-4.7,5.9C10,72.6,9.9,79.7,10,96c0.1,22.1,0.2,22.9,1.1,24.7c0.5,1,1.8,2.4,2.9,3.2c1.9,1.3,2.1,1.4,8.4,1.5l6.4,0.2l0.1,53l0.1,53l1.3,1.2l1.2,1.3h13.8c12.9,0,13.8,0,14.8-0.9c1.6-1.5,1.9-3.7,1.9-15.6v-11.4h66h65.9v11.4c0,11.9,0.3,14.2,1.9,15.6c0.9,0.8,1.8,0.9,14.8,0.9h13.8l1.2-1.3l1.3-1.2l0.1-53l0.1-53l6.4-0.2c6.3-0.1,6.5-0.2,8.4-1.5c1.1-0.8,2.4-2.2,2.9-3.2c0.9-1.8,1-2.5,1.1-24.7c0.1-16.2,0-23.4-0.4-24.7c-0.7-2.5-2.4-4.7-4.7-5.9c-1.8-1-2.5-1-14.7-1.2l-12.7-0.1l2.2-2.3c4.5-4.6,6.6-9.9,6.6-16.4c0-13.3-10.1-23.4-23.4-23.4c-6.5,0-11.9,2.2-16.6,6.8c-9.1,9.1-9.1,24,0,33.2l2.1,2.1H128H71.6l2.1-2.1c7.4-7.4,9-19.1,3.8-28.2C72.9,25.5,62.9,20.7,53.5,22.2z M62.2,32.4c3.1,1.2,6.4,4.2,7.8,7.2c1.5,3.2,1.4,8.8-0.1,11.8c-1.5,2.9-3.9,5.3-6.7,6.7c-3,1.6-8.6,1.6-11.8,0.1c-3-1.4-6.1-4.7-7.2-7.8C39.8,39.1,50.8,28.1,62.2,32.4z M204,32.4c9.2,3.5,11.9,15.7,4.9,22.8c-3,3.1-5.6,4.2-10.1,4.2c-4.2,0-7-1.1-9.9-4c-2.9-2.9-4-5.6-4-9.9c0-4.5,1.1-7.1,4.2-10.1C193,31.5,198.7,30.4,204,32.4z M37.1,74.3c-0.4,1.1-17.2,29-17.5,29.1c-0.5,0-0.5-28.8,0-29.2C20,73.7,37.2,73.8,37.1,74.3z M69.7,75.1c-0.4,0.7-6,10.2-12.6,21.1L45.2,116l-10.9,0.1c-6,0-10.9,0-10.9-0.2c0-0.1,5.7-9.7,12.5-21.2l12.6-20.9h11h11L69.7,75.1z M103,74.9c-0.4,0.6-6.1,10.1-12.8,21.2l-12.1,20.2H67H56l0.6-1.1c0.4-0.6,6.1-10.1,12.8-21.2l12.1-20.2h11.1h11L103,74.9z M136.3,74.1c0,0.1-5.7,9.7-12.5,21.2l-12.6,20.9h-11c-10.6,0-10.9,0-10.5-0.9c0.6-1,23.3-39,24.3-40.5c0.6-1,0.8-1,11.5-1C131.4,73.8,136.3,74,136.3,74.1z M168.9,75.1c-0.4,0.7-6,10.2-12.6,21.1L144.3,116l-10.9,0.1c-6,0-10.9,0-10.9-0.2c0-0.1,5.7-9.7,12.5-21.2l12.6-20.9h11h11L168.9,75.1z M202.2,74.9c-0.4,0.6-6.1,10.1-12.8,21.2l-12.1,20.2h-11h-11L168,95.1l12.7-21.2h11.1h11L202.2,74.9z M235.5,74.1c0,0.1-5.7,9.7-12.5,21.2l-12.6,20.9h-11c-10.6,0-10.9,0-10.5-0.9c0.6-1,23.3-39,24.3-40.5c0.6-1,0.8-1,11.5-1C230.6,73.8,235.5,74,235.5,74.1z M236.7,103.7l-0.1,12.4l-7.5,0.1c-4.9,0.1-7.5,0-7.4-0.4c0.4-1.2,14.5-24.4,14.8-24.4C236.7,91.4,236.8,96.9,236.7,103.7z M193.9,151.5v26.1H128H62.1v-26.1v-26H128h65.9V151.5z M52.4,175.5v49.6l-7-0.1l-7.1-0.1l-0.1-49.5l-0.1-49.4h7.1h7.1V175.5L52.4,175.5z M217.8,175.4l-0.1,49.5l-7,0.1l-7.1,0.1v-49.6v-49.6h7.1h7.1L217.8,175.4z M193.9,191.9v4.6H128H62.1v-4.6v-4.6H128h65.9V191.9z"/></g></g></g>
</svg>