<!-- Generated by IcoMoon.io -->
<svg version="1.1" xmlns="http://www.w3.org/2000/svg" width="32" height="32" viewBox="0 0 32 32">
<title>Road</title>
<path d="M18.688 15.813v-0.125l-0.438-5.688c0-0.125-0.063-0.313-0.188-0.375-0.125-0.125-0.25-0.188-0.375-0.188h-3.375c-0.125 0-0.25 0.063-0.375 0.188-0.125 0.063-0.188 0.25-0.188 0.375l-0.438 5.688v0.125c0 0.125 0 0.25 0.125 0.313 0.125 0.125 0.25 0.188 0.375 0.188h4.375c0.125 0 0.25-0.063 0.375-0.188 0.125-0.063 0.125-0.188 0.125-0.313zM32.25 24.125c0 0.875-0.25 1.313-0.813 1.313h-12.563c0.125 0 0.25-0.063 0.375-0.188s0.125-0.25 0.125-0.375l-0.313-4.563c-0.063-0.188-0.125-0.313-0.25-0.438-0.063-0.125-0.25-0.188-0.375-0.188h-4.875c-0.125 0-0.313 0.063-0.375 0.188-0.125 0.125-0.188 0.25-0.25 0.438l-0.313 4.563c0 0.125 0 0.25 0.125 0.375s0.25 0.188 0.375 0.188h-12.563c-0.563 0-0.813-0.438-0.813-1.313 0-0.625 0.125-1.313 0.438-2.063l7.5-18.625c0.063-0.25 0.25-0.438 0.438-0.625s0.438-0.25 0.688-0.25h6.063c-0.188 0-0.313 0.063-0.438 0.188s-0.188 0.25-0.188 0.375l-0.25 3.438c0 0.188 0 0.313 0.125 0.438 0.125 0.063 0.25 0.125 0.375 0.125h3c0.125 0 0.25-0.063 0.375-0.125 0.125-0.125 0.125-0.25 0.125-0.438l-0.25-3.438c0-0.125-0.063-0.25-0.188-0.375s-0.25-0.188-0.438-0.188h6.063c0.25 0 0.5 0.063 0.688 0.25s0.375 0.375 0.438 0.625l7.5 18.625c0.313 0.75 0.438 1.438 0.438 2.063z"></path>
</svg>
