<!-- Generated by IcoMoon.io -->
<svg version="1.1" xmlns="http://www.w3.org/2000/svg" width="32" height="32" viewBox="0 0 32 32">
<title>roadkill</title>
<path d="M0.875-2.313h-0.188c0 0.125-0.063 0.188-0.188 0.188-0.188 0-0.25-0.125-0.25-0.313 0-0.25 0.063-0.375 0.25-0.375 0.125 0 0.188 0.063 0.188 0.188h0.188c0-0.188-0.188-0.313-0.375-0.313-0.25 0-0.438 0.188-0.438 0.5 0 0.25 0.188 0.438 0.438 0.438 0.188 0 0.375-0.125 0.375-0.313zM0.5-2.5v-0.188c-0.063 0-0.063 0-0.063 0-0.063 0-0.125 0.063-0.188 0.125v-0.125h-0.188v0.688h0.188v-0.375c0-0.125 0.063-0.125 0.188-0.125 0 0 0 0 0.063 0zM0.688-2.313c0-0.25-0.125-0.375-0.313-0.375-0.25 0-0.375 0.125-0.375 0.375 0 0.188 0.125 0.313 0.375 0.313 0.125 0 0.25-0.063 0.313-0.188h-0.188c0 0.063-0.063 0.063-0.125 0.063-0.125 0-0.188-0.063-0.188-0.188h0.5zM0.5-2.438h-0.313c0.063-0.063 0.063-0.125 0.188-0.125 0.063 0 0.125 0.063 0.125 0.125zM0.688-2v0c-0.063-0.063-0.063-0.063-0.063-0.125v-0.375c0-0.125-0.063-0.188-0.25-0.188s-0.313 0.063-0.313 0.25h0.188c0-0.125 0-0.125 0.125-0.125 0.063 0 0.063 0 0.063 0.063s-0.063 0.063-0.125 0.063l-0.063 0.063c-0.125 0-0.188 0.063-0.188 0.188s0.063 0.188 0.188 0.188c0.063 0 0.125 0 0.188-0.063 0 0 0 0.063 0.063 0.063zM0.438-2.313c0 0.125-0.063 0.188-0.125 0.188s-0.125-0.063-0.125-0.063c0-0.063 0.063-0.063 0.125-0.125h0.063c0.063 0 0.063 0 0.063 0zM0.375-2v-0.125c0 0 0 0 0 0-0.063 0-0.063 0-0.063-0.063v-0.375h0.063v-0.125h-0.063v-0.188h-0.188v0.188h-0.125v0.125h0.125v0.438c0 0.063 0.063 0.125 0.188 0.125 0 0 0.063 0 0.063 0zM0.688-2v-0.938h-0.188v0.313c0-0.063-0.063-0.063-0.188-0.063s-0.25 0.125-0.25 0.313c0 0.25 0.063 0.375 0.25 0.375 0.125 0 0.188 0 0.188-0.063v0.063zM0.5-2.313c0 0.125-0.063 0.188-0.125 0.188-0.125 0-0.188-0.063-0.188-0.25 0-0.125 0.063-0.188 0.188-0.188 0.063 0 0.125 0.063 0.125 0.25zM0.75-2.313c0-0.25-0.125-0.375-0.313-0.375-0.063 0-0.125 0-0.188 0.063v-0.313h-0.188v0.938h0.188v-0.063c0.063 0.063 0.125 0.063 0.188 0.063 0.188 0 0.313-0.125 0.313-0.313zM0.563-2.375c0 0.125-0.063 0.25-0.125 0.25-0.125 0-0.188-0.063-0.188-0.25 0-0.125 0.063-0.188 0.188-0.188 0.063 0 0.125 0.063 0.125 0.188zM0.688-2.688h-0.188l-0.125 0.5-0.188-0.5h-0.188l0.25 0.688v0.063c0 0.063 0 0.063-0.063 0.063s-0.063 0-0.063 0v0.125c0 0 0 0 0.063 0 0.125 0 0.188 0 0.188-0.125zM0.938-2.438c0-0.313-0.188-0.5-0.438-0.5s-0.438 0.188-0.438 0.5c0 0.25 0.188 0.438 0.438 0.438s0.438-0.188 0.438-0.438zM0.75-2.438c0 0.188-0.125 0.313-0.25 0.313s-0.25-0.125-0.25-0.313c0-0.188 0.125-0.375 0.25-0.375 0.188 0 0.25 0.125 0.25 0.375zM0.25-2v-0.938h-0.188v0.938zM0.25-2v-0.688h-0.188v0.688zM0.25-2.75v-0.188h-0.188v0.188zM0.688-2.688h-0.188l-0.125 0.5-0.188-0.5h-0.188l0.25 0.688h0.188zM0.938-2v-0.5h-0.375v0.188h0.188c0 0.063-0.125 0.188-0.25 0.188s-0.25-0.125-0.25-0.375c0-0.188 0.125-0.313 0.25-0.313s0.188 0.063 0.25 0.188h0.188c-0.063-0.188-0.188-0.313-0.438-0.313s-0.438 0.188-0.438 0.5c0 0.25 0.188 0.438 0.438 0.438 0.125 0 0.188 0 0.25-0.125l0.063 0.125zM0.688-2v-0.688h-0.188v0.438c0 0.063-0.063 0.125-0.125 0.125s-0.125-0.063-0.125-0.125v-0.438h-0.188v0.438c0 0.188 0.125 0.25 0.25 0.25 0.063 0 0.125 0 0.188-0.063v0.063zM0.688-2v-0.438c0-0.188-0.063-0.25-0.25-0.25-0.063 0-0.125 0-0.188 0.125v-0.125h-0.188v0.688h0.188v-0.438c0-0.063 0.063-0.125 0.125-0.125 0.125 0 0.125 0.063 0.125 0.125v0.438zM0.375-2.563v-0.125h-0.063v-0.063c0-0.063 0-0.063 0-0.063 0.063 0 0.063 0 0.063 0v-0.125c0 0-0.063 0-0.063 0-0.125 0-0.188 0.063-0.188 0.188v0.063h-0.125v0.125h0.125v0.563h0.188v-0.563zM0.75-2.313c0-0.25-0.125-0.375-0.375-0.375-0.188 0-0.313 0.125-0.313 0.313 0 0.25 0.125 0.375 0.313 0.375 0.25 0 0.375-0.125 0.375-0.313zM0.563-2.313c0 0.125-0.063 0.188-0.188 0.188-0.063 0-0.125-0.063-0.125-0.25 0-0.125 0.063-0.188 0.125-0.188 0.125 0 0.188 0.063 0.188 0.25zM1.063-2v-0.5c0-0.125-0.063-0.188-0.25-0.188-0.063 0-0.125 0-0.188 0.063 0-0.063-0.125-0.063-0.188-0.063s-0.125 0-0.188 0.063v-0.063h-0.188v0.688h0.188v-0.438c0-0.063 0.063-0.125 0.125-0.125s0.125 0.063 0.125 0.125v0.438h0.125v-0.438c0-0.063 0.063-0.125 0.125-0.125s0.125 0.063 0.125 0.125v0.438zM0.688-2v-0.438c0-0.188-0.063-0.25-0.25-0.25-0.063 0-0.125 0-0.188 0.125v-0.375h-0.188v0.938h0.188v-0.438c0-0.063 0.063-0.125 0.125-0.125s0.125 0.063 0.125 0.125v0.438zM0.875-2v-0.938h-0.25v0.625l-0.313-0.625h-0.25v0.938h0.188v-0.625l0.375 0.625zM0.813-2.625c0-0.188-0.125-0.313-0.313-0.313h-0.375v0.938h0.188v-0.313h0.188c0.188 0 0.313-0.125 0.313-0.313zM0.625-2.625c0 0.063-0.063 0.125-0.125 0.125h-0.188v-0.25h0.188c0.063 0 0.125 0 0.125 0.125zM0.25-1.875v-0.813h-0.188v0.75c0 0.063 0 0.063 0 0.063-0.063 0-0.063 0-0.063 0v0.125c0.063 0 0.063 0 0.125 0 0.125 0 0.125 0 0.125-0.125zM0.25-2.75v-0.188h-0.188v0.188zM0.688-2.25h-0.188c0 0.063-0.063 0.125-0.125 0.125-0.125 0-0.125-0.063-0.125-0.188s0-0.25 0.125-0.25c0.063 0 0.125 0.063 0.125 0.125h0.188c-0.063-0.188-0.125-0.25-0.313-0.25s-0.313 0.125-0.313 0.375c0 0.188 0.125 0.313 0.313 0.313s0.25-0.063 0.313-0.25zM26.688 8.938c-0.188 0-0.313-0.063-0.375-0.125l-0.438 0.25-0.25-0.438c-0.063 0.063-0.188 0.125-0.25 0.188-0.063-0.063-0.063-0.188-0.125-0.25-0.063-0.313-0.188-0.563-0.25-0.875-0.375-1.438-0.75-2.813-1.188-4.313-0.125-0.438-0.5-0.875-1-1.063-1.625-0.563-3.813-0.938-6.063-1.25 0 0 0 0 0 0v0c0 0 0 0 0 0-2.25-0.25-4.438-0.438-6.188-0.25-0.5 0.063-1 0.375-1.188 0.813-0.813 1.313-1.5 2.563-2.25 3.875-0.125 0.25-0.25 0.5-0.438 0.75-0.063 0.063-0.125 0.125-0.188 0.25-0.188-0.188-0.188-0.375-0.188-0.625 0.75-0.5 0.563-1.563-0.5-1.688-0.813-0.063-1.313 0.125-1.563 0.5-0.063 0.063-0.063 0.125-0.063 0.25 0 0.5 0.438 0.813 1 0.938 0.25 0.063 0.313 0.063 0.438 0.313 0.125 0.313 0.25 0.813 0.375 1.125-0.188 0.313-0.25 0.563-0.313 0.875-0.313 0.563-0.625 0.938-0.938 1.438-0.438 0.563-0.625 1.125-0.75 1.813-0.125 0.813-0.188 1.688-0.188 2.688 0 0 0.063 1.25 0.625 2.438-0.063 1.188 0 2.375 0.188 3.5 0 0.375 0.188 0.688 0.563 0.813h1.188c0.375 0 0.625 0.063 0.875-0.188 0.5-0.375 0.375-1.125 0.375-1.688v-0.625l6.875 0.813 0.25 0.063c0.25 0 0.5-0.125 0.625-0.375v0l6.313 1.188c0.438 0.5 1.125 0.813 1.938 0.813 1.75 0 3.375-1.375 3.688-3.125 0.125-1-0.188-1.938-0.875-2.5 0.063-0.313 0.125-0.688 0.125-1 0.063-0.75 0-1.313-0.25-2-0.188-0.5-0.438-1-0.5-1.563 0-0.313-0.063-0.625-0.125-0.875 0.063-0.125 0.188-0.313 0.25-0.438 0.063 0.063 0.188 0.125 0.25 0.188 0.25 0.125 0.188 0.188 0.188 0.438 0 0.625 0.188 1.063 0.688 1.188 0.125 0.063 0.188 0.063 0.25 0 0.375-0.125 0.688-0.563 0.813-1.375 0.188-1.063-0.813-1.5-1.438-0.875zM22.125 3.25c0.5 0.125 0.563 0.25 0.688 0.688 0.438 1.188 0.75 2.313 1.063 3.5 0.063 0.188 0 0.438-0.125 0.563-0.125 0.188-0.375 0.25-0.563 0.25-1.25-0.188-3.125-0.438-5.188-0.688l1.063-1.25 0.688 0.875-0.375-0.938 3.688 0.813-3.375-1.25 0.5-3.063c0.625 0.125 1.25 0.313 1.938 0.5zM8.313 5.5c0.563-1.125 1.125-2.063 1.875-3.125 0.25-0.438 0.375-0.5 0.875-0.5 1.813-0.063 3.563 0.063 5.563 0.313v0c1.188 0.125 2.25 0.313 3.313 0.5l-1.188 2.813-0.625-0.438 0.063-0.313-0.563-0.063-0.125-0.125 0.063-0.938-0.813 0.438-1.5-1.125 1.125 1.25-0.813 0.188 1.063 0.125 1.188 1.313-2.188 1.063 3.063-0.625-0.875 1.313c-3.313-0.438-7-0.875-9-1.125-0.25 0-0.438-0.125-0.5-0.313-0.125-0.188-0.125-0.438 0-0.625zM6.5 13.563c-0.063 0.375-0.375 0.625-0.688 0.563-0.375-0.063-0.563-0.375-0.563-0.688 0.063-0.313 0.375-0.563 0.688-0.563 0.313 0.063 0.563 0.375 0.563 0.688zM7.25 11.813c-0.813-0.063-1.438-0.813-1.313-1.625s0.875-1.438 1.688-1.313c0.813 0.125 1.375 0.875 1.25 1.688-0.063 0.813-0.813 1.375-1.625 1.25zM21.063 18c-0.813 0.313-1.625 0.375-2.563 0.375-0.25 0-0.313 0-0.563 0l-2.688-0.563c0 0-0.063 0.125-0.125 0.313-0.063 0.125-0.438 0.25-0.563 0.25-2.25-0.313-4.625-0.938-6.063-1.938-0.875-0.563-1.063-1.125-0.625-1.75 0.313-0.5 0.688-1 1.063-1.438 0.375-0.5 1-0.75 1.813-0.75 1.5 0.125 3 0.25 4.563 0.438v0c0.75 0.125 1.75 0.563 2.313 1 0.125 0.063-0.063-1 0.063-0.938 0.625 0.063 1.25 0.188 1.875 0.313 0.813 0.188 1.313 0.563 1.563 1.125s0.75 1.438 0.938 2c0.25 0.75-0.063 1.188-1 1.563zM22.063 12.375l1.063-0.375-0.938-0.188c0.25-0.625 0.875-1 1.563-0.938 0.813 0.125 1.375 0.875 1.25 1.688 0 0.063 0 0.188-0.063 0.313l-1.313-0.25-0.5 1.125c-0.625-0.188-1.063-0.75-1.063-1.375zM23.688 15.688c0.063-0.313 0.313-0.563 0.688-0.5 0.313 0.063 0.563 0.375 0.5 0.688 0 0.313-0.313 0.563-0.688 0.5-0.313 0-0.563-0.313-0.5-0.688zM25.938 17.75c-0.188 0.813-0.813 1.5-1.625 1.688 0.813-0.688 1.375-1.688 1.625-2.188 0 0.125 0 0.313 0 0.5z"></path>
</svg>
