<!-- Generated by IcoMoon.io -->
<svg version="1.1" xmlns="http://www.w3.org/2000/svg" width="32" height="32" viewBox="0 0 32 32">
<title>Rodent</title>
<path d="M0.875-0.313h-0.188c0 0.125-0.063 0.188-0.188 0.188-0.188 0-0.25-0.125-0.25-0.313 0-0.25 0.063-0.375 0.25-0.375 0.125 0 0.188 0.063 0.188 0.188h0.188c0-0.188-0.188-0.313-0.375-0.313-0.25 0-0.438 0.188-0.438 0.5 0 0.25 0.188 0.438 0.438 0.438 0.188 0 0.375-0.125 0.375-0.313zM0.5-0.5v-0.188c-0.063 0-0.063 0-0.063 0-0.063 0-0.125 0.063-0.188 0.125v-0.125h-0.188v0.688h0.188v-0.375c0-0.125 0.063-0.125 0.188-0.125 0 0 0 0 0.063 0zM0.688-0.313c0-0.25-0.125-0.375-0.313-0.375-0.25 0-0.375 0.125-0.375 0.375 0 0.188 0.125 0.313 0.375 0.313 0.125 0 0.25-0.063 0.313-0.188h-0.188c0 0.063-0.063 0.063-0.125 0.063-0.125 0-0.188-0.063-0.188-0.188h0.5zM0.5-0.438h-0.313c0.063-0.063 0.063-0.125 0.188-0.125 0.063 0 0.125 0.063 0.125 0.125zM0.688 0v0c-0.063-0.063-0.063-0.063-0.063-0.125v-0.375c0-0.125-0.063-0.188-0.25-0.188s-0.313 0.063-0.313 0.25h0.188c0-0.125 0-0.125 0.125-0.125 0.063 0 0.063 0 0.063 0.063s-0.063 0.063-0.125 0.063l-0.063 0.063c-0.125 0-0.188 0.063-0.188 0.188s0.063 0.188 0.188 0.188c0.063 0 0.125 0 0.188-0.063 0 0 0 0.063 0.063 0.063zM0.438-0.313c0 0.125-0.063 0.188-0.125 0.188s-0.125-0.063-0.125-0.063c0-0.063 0.063-0.063 0.125-0.125h0.063c0.063 0 0.063 0 0.063 0zM0.375 0v-0.125c0 0 0 0 0 0-0.063 0-0.063 0-0.063-0.063v-0.375h0.063v-0.125h-0.063v-0.188h-0.188v0.188h-0.125v0.125h0.125v0.438c0 0.063 0.063 0.125 0.188 0.125 0 0 0.063 0 0.063 0zM0.688 0v-0.938h-0.188v0.313c0-0.063-0.063-0.063-0.188-0.063s-0.25 0.125-0.25 0.313c0 0.25 0.063 0.375 0.25 0.375 0.125 0 0.188 0 0.188-0.063v0.063zM0.5-0.313c0 0.125-0.063 0.188-0.125 0.188-0.125 0-0.188-0.063-0.188-0.25 0-0.125 0.063-0.188 0.188-0.188 0.063 0 0.125 0.063 0.125 0.25zM0.75-0.313c0-0.25-0.125-0.375-0.313-0.375-0.063 0-0.125 0-0.188 0.063v-0.313h-0.188v0.938h0.188v-0.063c0.063 0.063 0.125 0.063 0.188 0.063 0.188 0 0.313-0.125 0.313-0.313zM0.563-0.375c0 0.125-0.063 0.25-0.125 0.25-0.125 0-0.188-0.063-0.188-0.25 0-0.125 0.063-0.188 0.188-0.188 0.063 0 0.125 0.063 0.125 0.188zM0.688-0.688h-0.188l-0.125 0.5-0.188-0.5h-0.188l0.25 0.688v0.063c0 0.063 0 0.063-0.063 0.063s-0.063 0-0.063 0v0.125c0 0 0 0 0.063 0 0.125 0 0.188 0 0.188-0.125zM0.875 0l-0.313-0.938h-0.188l-0.313 0.938h0.188l0.063-0.188h0.313l0.063 0.188zM0.563-0.375h-0.188l0.063-0.313zM0.688 0v-0.438c0-0.188-0.063-0.25-0.25-0.25-0.063 0-0.125 0-0.188 0.125v-0.125h-0.188v0.688h0.188v-0.438c0-0.063 0.063-0.125 0.125-0.125 0.125 0 0.125 0.063 0.125 0.125v0.438zM0.688 0v-0.438c0-0.188-0.063-0.25-0.25-0.25-0.063 0-0.125 0-0.188 0.125v-0.375h-0.188v0.938h0.188v-0.438c0-0.063 0.063-0.125 0.125-0.125s0.125 0.063 0.125 0.125v0.438zM0.75-0.313c0-0.25-0.125-0.375-0.375-0.375-0.188 0-0.313 0.125-0.313 0.313 0 0.25 0.125 0.375 0.313 0.375 0.25 0 0.375-0.125 0.375-0.313zM0.563-0.313c0 0.125-0.063 0.188-0.188 0.188-0.063 0-0.125-0.063-0.125-0.25 0-0.125 0.063-0.188 0.125-0.188 0.125 0 0.188 0.063 0.188 0.25zM0.75 0v-0.188h-0.438v-0.75h-0.188v0.938zM0.688 0v-0.688h-0.188v0.438c0 0.063-0.063 0.125-0.125 0.125s-0.125-0.063-0.125-0.125v-0.438h-0.188v0.438c0 0.188 0.125 0.25 0.25 0.25 0.063 0 0.125 0 0.188-0.063v0.063zM0.688 0l-0.25-0.375 0.25-0.313h-0.25l-0.063 0.188-0.125-0.188h-0.25l0.25 0.313-0.25 0.375h0.25l0.125-0.188 0.125 0.188zM0.375-0.563v-0.125h-0.063v-0.063c0-0.063 0-0.063 0-0.063 0.063 0 0.063 0 0.063 0v-0.125c0 0-0.063 0-0.063 0-0.125 0-0.188 0.063-0.188 0.188v0.063h-0.125v0.125h0.125v0.563h0.188v-0.563zM1.063 0v-0.5c0-0.125-0.063-0.188-0.25-0.188-0.063 0-0.125 0-0.188 0.063 0-0.063-0.125-0.063-0.188-0.063s-0.125 0-0.188 0.063v-0.063h-0.188v0.688h0.188v-0.438c0-0.063 0.063-0.125 0.125-0.125s0.125 0.063 0.125 0.125v0.438h0.125v-0.438c0-0.063 0.063-0.125 0.125-0.125s0.125 0.063 0.125 0.125v0.438zM0.875 0v-0.938h-0.25v0.625l-0.313-0.625h-0.25v0.938h0.188v-0.625l0.375 0.625zM0.813-0.625c0-0.188-0.125-0.313-0.313-0.313h-0.375v0.938h0.188v-0.313h0.188c0.188 0 0.313-0.125 0.313-0.313zM0.625-0.625c0 0.063-0.063 0.125-0.125 0.125h-0.188v-0.25h0.188c0.063 0 0.125 0 0.125 0.125zM0.25 0.125v-0.813h-0.188v0.75c0 0.063 0 0.063 0 0.063-0.063 0-0.063 0-0.063 0v0.125c0.063 0 0.063 0 0.125 0 0.125 0 0.125 0 0.125-0.125zM0.25-0.75v-0.188h-0.188v0.188zM0.688-0.25h-0.188c0 0.063-0.063 0.125-0.125 0.125-0.125 0-0.125-0.063-0.125-0.188s0-0.25 0.125-0.25c0.063 0 0.125 0.063 0.125 0.125h0.188c-0.063-0.188-0.125-0.25-0.313-0.25s-0.313 0.125-0.313 0.375c0 0.188 0.125 0.313 0.313 0.313s0.25-0.063 0.313-0.25zM12.563 10.813c-0.875 0-1.563 0.688-1.563 1.563 0 0.125 0.063 0.25 0.25 0.25 0.125 0 0.25-0.125 0.25-0.25 0-0.563 0.438-1.063 1.063-1.063 0.563 0 1 0.5 1 1.063 0 0.125 0.125 0.25 0.25 0.25 0.188 0 0.25-0.125 0.25-0.25 0-0.875-0.688-1.563-1.5-1.563zM19.438 11.313c0.625 0 1.063 0.5 1.063 1.063 0 0.125 0.125 0.25 0.25 0.25 0.188 0 0.25-0.125 0.25-0.25 0-0.875-0.688-1.563-1.563-1.563-0.813 0-1.5 0.688-1.5 1.563 0 0.125 0.063 0.25 0.25 0.25 0.125 0 0.25-0.125 0.25-0.25 0-0.563 0.438-1.063 1-1.063zM26.063 21.438v0 0zM27.5 17.25v0c0-0.063 0-0.188 0-0.313v0c0-0.063 0-0.125-0.063-0.188v0c0 0 0 0 0 0s0 0 0 0v0c0-0.063 0-0.125 0-0.188v0c0-0.125-0.063-0.188-0.063-0.313v0c0-0.063 0-0.063-0.063-0.125v0c0-0.063 0-0.063 0-0.063v0c0-0.063 0-0.188-0.063-0.25 0 0 0 0 0 0 0-0.125-0.063-0.188-0.063-0.25-0.063-0.125-0.125-0.188-0.125-0.313v0c-0.063-0.063-0.063-0.125-0.125-0.188v-0.125c-0.313-0.563-0.625-1.125-1-1.625-0.125-0.188-0.25-0.438-0.313-0.625-0.125-0.375-0.188-0.688-0.188-1l-0.125-0.875c-0.125-1-0.375-2.063-0.813-3 1.063-0.938 1.563-2.438 1.125-3.875-0.375-1.375-1.563-2.438-3.063-2.625-1.438-0.188-2.875 0.438-3.625 1.688-0.938-0.25-1.875-0.438-2.813-0.438h-0.25c-0.938 0-1.875 0.188-2.813 0.438-0.75-1.25-2.188-1.875-3.625-1.688-1.5 0.188-2.688 1.25-3.063 2.625-0.438 1.438 0.063 2.938 1.125 3.875-0.438 0.938-0.688 2-0.813 3l-0.125 0.875c0 0.313-0.063 0.688-0.188 1s-0.313 0.625-0.5 0.938c-0.313 0.438-0.563 0.875-0.813 1.375v0 0.063c-0.063 0.063-0.063 0.125-0.125 0.188v0c0 0.125-0.063 0.188-0.125 0.313 0 0.063-0.063 0.125-0.063 0.25v0 0 0c-0.063 0.125-0.063 0.313-0.125 0.438 0 0.125-0.063 0.188-0.063 0.313v0c0 0.063 0 0.125 0 0.188v0c0 0 0 0 0 0s0 0 0 0v0c-0.063 0.063-0.063 0.125-0.063 0.188v0 0.063c0 0.063 0 0.188 0 0.25v0 0 0c0 0.125 0 0.188 0 0.313s0 0.188 0 0.313v0c0 0.063 0 0.188 0 0.25v0 0.063c0 0.063 0 0.125 0.063 0.25v0c0 0.125 0 0.25 0.063 0.375 0 0.125 0.063 0.313 0.125 0.438v0 0.063c0 0.125 0.063 0.188 0.063 0.25v0c0.125 0.313 0.25 0.625 0.438 0.875v0 0 0c0 0.063 0.063 0.125 0.063 0.188v0c0.063 0.063 0.125 0.188 0.188 0.25v0 0 0 0c0.063 0.063 0.125 0.125 0.125 0.188v0h0.063v0.063c0.313 0.438 0.75 0.875 1.25 1.188v0c0.063 0.063 0.125 0.125 0.188 0.188 0.75 0.5 1.563 0.813 2.5 0.875v0l0.063 0.063c0.063 0 0.125 0 0.25 0s0.25 0 0.438 0c0.125 0 0.188 0 0.313 0 0.063 0 0.188 0 0.25 0h0.063c0.063 0 0.125-0.063 0.188-0.063s0.125 0 0.25 0v0c0.063 0 0.125-0.063 0.188-0.063v0 0 0c0.5-0.125 1-0.313 1.438-0.5 0.188-0.125 0.375-0.188 0.5-0.313v1.563c0 0.125 0.125 0.25 0.25 0.25h4.375c0.125 0 0.25-0.125 0.25-0.25v-1.563c0.063 0 0.063 0.063 0.125 0.063v0c0 0 0 0 0 0.063v0c0.063 0 0.063 0 0.125 0v0.063c0.063 0 0.125 0.063 0.25 0.125v0 0 0c0.063 0 0.188 0.063 0.313 0.125v0c0.125 0.063 0.25 0.125 0.375 0.125v0.063c0.063 0 0.188 0.063 0.25 0.063v0c0.063 0 0.125 0.063 0.25 0.063v0c0.063 0 0.125 0.063 0.25 0.063v0 0 0 0c0.063 0 0.125 0.063 0.188 0.063v0c0.125 0 0.188 0 0.25 0s0.125 0.063 0.188 0.063h0.063c0.063 0 0.188 0 0.25 0 0.125 0 0.188 0 0.313 0 0.188 0 0.313 0 0.438 0h0.125c0 0 0.063 0 0.125 0l0.063-0.063h0.063c0.125 0 0.188 0 0.313 0 0.063-0.063 0.125-0.063 0.188-0.063v0c0.063 0 0.125-0.063 0.188-0.063v0c0.188-0.063 0.375-0.063 0.5-0.125v0h0.063c0.063-0.063 0.125-0.063 0.188-0.125v0c0.063 0 0.125-0.063 0.188-0.063v0c0.063-0.063 0.188-0.063 0.25-0.125v0 0 0 0c0.063-0.063 0.125-0.063 0.188-0.125 0.125-0.063 0.25-0.125 0.375-0.188 0.063-0.063 0.125-0.125 0.188-0.188 0.125-0.063 0.25-0.125 0.375-0.25 0.063-0.063 0.188-0.188 0.313-0.25v0 0 0 0c0.125-0.125 0.25-0.25 0.313-0.375 0.125-0.125 0.188-0.25 0.25-0.313v0-0.063h0.063c0-0.063 0.063-0.125 0.125-0.188v0 0 0 0c0.063-0.063 0.125-0.188 0.188-0.25v0c0-0.063 0.063-0.125 0.063-0.188v0h0.063c0.063-0.125 0.125-0.25 0.188-0.375 0 0 0-0.063 0-0.063 0.063-0.125 0.125-0.25 0.188-0.438v0c0-0.063 0.063-0.125 0.063-0.25v-0.063c0.063-0.125 0.125-0.313 0.125-0.438v0c0-0.063 0-0.063 0.063-0.125 0-0.063 0-0.125 0-0.188v-0.063c0-0.063 0.063-0.125 0.063-0.125v0c0-0.063 0-0.063 0-0.125v-0.063c0-0.063 0-0.188 0-0.25v0c0-0.125 0-0.188 0-0.313s0-0.188 0-0.313zM23.5 6.25c-0.75-1-1.75-1.875-2.875-2.5 0.688-0.813 1.875-0.875 2.688-0.188s0.875 1.875 0.188 2.688zM22.063 1.813c1.313 0 2.5 0.813 3 2 0.5 1.25 0.125 2.688-0.813 3.563-0.125-0.25-0.313-0.5-0.438-0.688 0.625-0.625 0.813-1.563 0.563-2.438-0.313-0.875-1-1.5-1.875-1.625-0.875-0.188-1.813 0.188-2.313 0.875-0.25-0.125-0.5-0.25-0.75-0.313 0.563-0.875 1.563-1.375 2.625-1.375zM6.75 5c0-1.375 0.875-2.625 2.25-3.063 1.313-0.438 2.813 0.063 3.563 1.25-0.25 0.063-0.5 0.188-0.75 0.313-0.5-0.688-1.438-1.063-2.313-0.875-0.875 0.125-1.563 0.75-1.875 1.625-0.25 0.875-0.063 1.813 0.563 2.438-0.125 0.188-0.313 0.438-0.438 0.688-0.625-0.625-1-1.5-1-2.375zM8.5 6.25c-0.688-0.813-0.625-2 0.188-2.688s2-0.625 2.688 0.188c-1.125 0.625-2.125 1.5-2.875 2.5zM14.063 22.125h0.063c0.313-0.25 0.563-0.5 0.75-0.813 0.375-0.375 0.625-0.875 0.875-1.375v3.875h-1.688zM16.25 23.813v-3.875c0.25 0.5 0.5 1 0.875 1.375 0.188 0.313 0.438 0.563 0.75 0.813v0c0 0 0 0 0.063 0v1.688zM26.063 20.563c-0.063 0.125-0.063 0.188-0.125 0.188v0.063c-0.063 0.063-0.125 0.188-0.25 0.25v0c-0.063 0.125-0.188 0.25-0.313 0.375v0c-0.063 0.063-0.188 0.125-0.25 0.25v0c-0.125 0.063-0.25 0.188-0.375 0.25v0c-0.063 0-0.125 0.063-0.125 0.125v0c-0.125 0.063-0.25 0.125-0.375 0.188v0c-0.063 0.063-0.125 0.063-0.188 0.125v0c-0.063 0-0.125 0.063-0.188 0.063v0c-0.063 0.063-0.125 0.063-0.188 0.063v0c-0.063 0.063-0.125 0.063-0.188 0.125v0c-0.188 0.063-0.375 0.125-0.5 0.125-0.063 0.063-0.125 0.063-0.125 0.063h-0.063c-0.063 0-0.125 0-0.188 0.063v0c-0.063 0-0.188 0-0.25 0v0h-0.125c-0.063 0.063-0.063 0.063-0.125 0.063h-0.063c-0.188 0-0.313 0-0.438 0-0.063 0-0.188 0-0.25 0-0.125 0-0.188 0-0.313 0-0.063-0.063-0.125-0.063-0.188-0.063v0c-0.063 0-0.125 0-0.188 0v0c-0.063-0.063-0.188-0.063-0.25-0.063v0c-0.063 0-0.125-0.063-0.188-0.063h-0.063c0 0-0.063 0-0.125-0.063-0.125 0-0.188-0.063-0.25-0.063-0.125-0.063-0.25-0.063-0.313-0.125h-0.063c-0.063-0.063-0.188-0.125-0.313-0.188v0c-0.063 0-0.125-0.063-0.188-0.125-0.063 0-0.063 0-0.063 0h-0.063c-0.063-0.125-0.188-0.188-0.313-0.25v0c-0.063-0.063-0.125-0.125-0.188-0.125v0c-0.063-0.063-0.063-0.063-0.125-0.125-0.25-0.188-0.5-0.438-0.688-0.688v0c-0.813-0.938-1.188-2.125-1.25-3.313l1.25-1.25c0.063-0.063 0.063-0.25 0-0.375-0.125-0.063-0.313-0.063-0.375 0l-1.125 1.125-1.125-1.125c-0.063-0.063-0.125-0.063-0.25-0.063-0.063 0.063-0.125 0.125-0.188 0.188 0 0.125 0 0.188 0.063 0.25l1.25 1.25c-0.063 1.188-0.438 2.375-1.25 3.313v0c-0.188 0.25-0.438 0.5-0.688 0.688-0.063 0.063-0.125 0.063-0.125 0.125-0.25 0.188-0.563 0.375-0.813 0.5v0c-0.438 0.25-0.875 0.375-1.313 0.5v0c-0.063 0-0.188 0-0.25 0.063v0c-0.063 0-0.125 0-0.188 0v0c-0.063 0-0.125 0-0.188 0.063-0.125 0-0.188 0-0.313 0-0.063 0-0.188 0-0.25 0-0.125 0-0.25 0-0.438 0v0c-0.063 0-0.125 0-0.188-0.063v0h-0.063c-0.813-0.063-1.625-0.375-2.313-0.813 0-0.063-0.063-0.125-0.125-0.125-0.438-0.313-0.875-0.688-1.188-1.125v-0.063c-0.063 0-0.063-0.063-0.125-0.188v0c-0.063-0.063-0.125-0.125-0.188-0.188v0c0-0.063-0.063-0.125-0.063-0.188v0c-0.125-0.25-0.25-0.5-0.375-0.75 0-0.125-0.063-0.188-0.063-0.25v0-0.063c-0.063-0.125-0.125-0.313-0.125-0.438v0c-0.063-0.125-0.063-0.188-0.063-0.313v0c0-0.063 0-0.188-0.063-0.25v0-0.063c0-0.063 0-0.125 0-0.25v0c0-0.063 0-0.188 0-0.25s0-0.188 0-0.25v0c0-0.125 0-0.188 0-0.313v0c0-0.063 0.063-0.125 0.063-0.188v0c0-0.063 0-0.125 0-0.125v-0.063c0-0.063 0.063-0.125 0.063-0.25v0c0-0.125 0.063-0.25 0.125-0.438v0c0-0.063 0.063-0.125 0.063-0.25 0.063-0.063 0.063-0.125 0.125-0.188 0-0.125 0.063-0.188 0.063-0.25l0.063-0.063c0.25-0.563 0.563-1.063 0.938-1.563 0.188-0.25 0.313-0.5 0.375-0.813 0.125-0.313 0.188-0.688 0.25-1.125v0l0.063-0.813c0.125-1 0.438-2.063 0.875-3 0.188-0.375 0.438-0.75 0.688-1.063v0c0.813-1.188 1.875-2.125 3.125-2.75v0c1.25-0.625 2.563-1 4-1h0.25c1.438 0 2.75 0.375 4 1v0c1.25 0.625 2.313 1.563 3.125 2.75v0c0.875 1.188 1.438 2.625 1.563 4.063l0.063 0.813c0.063 0.438 0.125 0.75 0.25 1.125s0.313 0.75 0.563 1.063c0.313 0.438 0.563 0.875 0.75 1.313v0 0l0.063 0.063c0 0.063 0.063 0.125 0.063 0.25 0.063 0.063 0.063 0.125 0.125 0.188 0 0.125 0.063 0.188 0.063 0.25v0c0 0 0 0 0 0.063 0.063 0.063 0.063 0.125 0.063 0.188v0.063c0.063 0 0.063 0.063 0.063 0.125v0c0 0.125 0.063 0.188 0.063 0.25v0.063c0 0 0 0.063 0 0.125v0c0 0.063 0.063 0.125 0.063 0.188v0c0 0.125 0 0.188 0 0.313v0c0 0.063 0 0.188 0 0.25s0 0.188 0 0.25v0c0 0.125 0 0.188 0 0.25v0.063c0 0.063 0 0.063-0.063 0.125v0c0 0.063 0 0.063 0 0.063v0.063c0 0.125 0 0.188-0.063 0.25v0 0.063c0 0.125-0.063 0.313-0.063 0.438l-0.063 0.063c0 0.063-0.063 0.125-0.063 0.25-0.063 0.125-0.125 0.25-0.188 0.375 0 0 0 0 0 0-0.063 0.125-0.125 0.25-0.188 0.375v0 0c0 0.063-0.063 0.125-0.063 0.188v0c-0.063 0.063-0.125 0.125-0.188 0.188zM4.625 18.813v0 0zM4.625 16.25v0zM13.063 22.813v0 0zM25.063 22.313v0 0zM24.5 22.688v0 0zM22.75 23.375v0 0zM24.875 22.5v0 0zM25.438 22.063v0 0zM13.25 19.063c-0.125-0.063-0.313 0-0.313 0.125-0.563 1.313-1.875 2.125-3.25 2-1.438-0.125-2.563-1.125-2.875-2.5s0.313-2.75 1.5-3.5c0.125-0.063 0.188-0.188 0.125-0.313s-0.25-0.188-0.375-0.125c-1.375 0.813-2.125 2.5-1.75 4.063s1.688 2.75 3.313 2.875c1.625 0.125 3.125-0.813 3.75-2.313 0.063-0.125 0-0.25-0.125-0.313zM23.938 14.75c-0.063 0-0.188 0-0.25 0-0.125 0.063-0.125 0.125-0.125 0.25 0 0.063 0 0.188 0.125 0.188v0c1.188 0.75 1.813 2.125 1.5 3.5s-1.438 2.375-2.875 2.5c-1.375 0.125-2.688-0.688-3.25-2 0-0.063-0.063-0.125-0.188-0.125-0.063-0.063-0.188 0-0.25 0.063s-0.063 0.188 0 0.25c0.625 1.5 2.125 2.438 3.75 2.313s2.938-1.313 3.313-2.875c0.375-1.563-0.375-3.25-1.75-4.063zM9.938 20c1.125 0 2-0.875 2-2 0-0.063-0.063-0.188-0.125-0.25-0.125 0-0.188 0-0.25 0-0.125 0.063-0.125 0.188-0.125 0.25 0 0.813-0.688 1.5-1.5 1.5-0.125 0-0.25 0.063-0.25 0.25 0 0.125 0.125 0.25 0.25 0.25zM20.063 18c0 0.125 0.125 0.25 0.25 0.25 0.188 0 0.25-0.125 0.25-0.25 0-0.813 0.688-1.5 1.5-1.5s1.5 0.688 1.5 1.5c0 0.125 0.063 0.25 0.25 0.25 0.125 0 0.25-0.125 0.25-0.25 0-1.125-0.875-2-2-2s-2 0.875-2 2zM14.875 21.313v0zM17.125 21.313v0z"></path>
</svg>
