<!-- Generated by IcoMoon.io -->
<svg version="1.1" xmlns="http://www.w3.org/2000/svg" width="32" height="32" viewBox="0 0 32 32">
<title>Roe-deer</title>
<path d="M13 2.563c0.063 0.688 0.063 2.063-0.063 2.125 0 0.063-0.125-0.063-0.25-0.313s-0.25-0.375-0.25-0.375c-0.063 0-0.063-0.063 0-0.125 0-0.063 0-0.063-0.063 0 0 0-0.063 0.063-0.063 0.125s0 0.25-0.063 0.438c0 0.125 0 0.438 0.063 0.688 0.063 0.313 0 0.438-0.125 0.938s-0.125 0.563-0.313 0.5c-0.063 0-0.188 0-0.188 0.063 0 0 0 0.063 0 0 0.125-0.063 0.25 0.313 0.25 0.5 0 0.125-0.125 0.125-0.313 0.125-0.188 0.063-0.25 0-0.313-0.188-0.063-0.063-0.063-0.313-0.063-0.5 0-0.313 0-0.375-0.188-0.5s-0.375-0.375-0.438-0.688c0-0.188-0.188-0.438-0.188-0.313 0 0.063 0.063 0.125 0.125 0.188 0 0.063 0.063 0.063 0 0.063-0.188 0-0.25-0.438-0.313-1.313-0.063-0.5-0.125-1-0.125-1.063-0.063-0.313-0.125-0.188-0.25 0.375 0 0.313-0.125 0.813-0.125 1.125-0.125 0.5-0.063 0.688 0.125 1.188 0 0.063 0 0.063-0.063 0-0.063 0-0.063 0-0.063 0 0.063 0.063 0.125 0.063 0.125 0.063 0.063 0 0.25 0.125 0.25 0.188s-0.063 0.063-0.125 0-0.125-0.063-0.063 0c0.063 0.125 0.125 0.125 0.188 0.125 0 0 0.188 0.188 0.313 0.438 0.25 0.438 0.313 0.625 0.313 0.875 0 0.188-0.063 0.375-0.063 0.375-0.125 0-0.563-0.563-0.563-0.625 0.063 0 0 0 0 0-0.125 0.063-0.375-0.188-0.313-0.313 0-0.063 0-0.125-0.063 0-0.063 0.063-0.125 0-0.25-0.125-0.188-0.125-0.188-0.188-0.063-0.125 0.25 0.125 0.188 0.063 0-0.063-0.125-0.063-0.188-0.125-0.188-0.063 0.063 0.125 0 0.125-0.188 0-0.25-0.125-1.188-0.313-1.188-0.25-0.125 0.75-0.125 0.813 0 1.25 0.125 0.188 0.188 0.438 0.25 0.5s0.063 0.063 0.063 0.125c-0.063 0-0.125-0.063-0.188-0.25-0.125-0.125-0.188-0.25-0.188-0.188s0.188 0.438 0.375 0.563c0.063 0.063 0.125 0.125 0.125 0.063-0.188-0.313 0.625 0.188 0.875 0.563 0.125 0.125 0.313 0.313 0.5 0.375 0.188 0.125 0.313 0.188 0.313 0.25s-0.063 0-0.125-0.063v0c0.063 0.125 0.125 0.188 0.188 0.125s0.188 0.25 0.313 0.938c0.063 0.375 0.188 0.813 0.25 0.938 0.063 0.063 0.125 0.188 0.063 0.25 0 0-0.063-0.125-0.125-0.25s-0.125-0.25-0.188-0.25c0 0.063 0.25 0.563 0.313 0.563 0.125 0 0.438 0.375 0.438 0.5 0 0.063 0.063 0.125 0.063 0.125 0.063 0.063 0.063 0 0-0.063-0.063-0.125 0-0.125 0.125 0s0.375 0.813 0.313 0.938c0 0.063 0 0.063 0.063 0.063 0 0 0.063 0 0.125 0.063 0 0.063 0 0.063-0.063 0.063-0.063-0.063-0.063 0 0 0.063 0.125 0.188 0.25 0.25 0.125 0.063 0 0 0-0.063 0.063 0 0.063 0 0.125 0.063 0.125 0.063-0.063 0.063 0.063 0.188 0.25 0.313v0c-0.375-0.375-0.188-0.313 0.25 0.063 0.375 0.313 0.375 0.313 0.875-0.313 0.188-0.25 0.438-0.5 0.688-0.563 0.313-0.188 1.063-0.375 1.75-0.5 0.375 0 0.875 0.125 0.813 0.25 0 0.063 0.063 0.125 0.125 0.188 0.125 0.063 0.188 0.125 0.188 0.063s-0.063-0.125-0.125-0.125c-0.063 0-0.125-0.063-0.063-0.063 0-0.063 0.125 0 0.188 0.125 0.25 0.188 0.813 1.313 0.813 1.563 0 0.063-0.188 0.25-0.438 0.375-0.25 0.188-0.563 0.438-0.688 0.563-0.375 0.313-0.563 0.313-0.75 0-0.125-0.188-0.125-0.188-0.625-0.063-0.125 0-0.188 0-0.125-0.063 0 0 0.063-0.063 0.188-0.063 0.063 0 0.125 0 0.125-0.063s-0.188-0.063-0.375 0.125c-0.125 0.063-0.125 0.063-0.063 0.063 0.188 0 0 0.125-0.438 0.313-0.188 0.063-0.5 0.125-0.625 0.125-0.188 0-0.25-0.063-0.375-0.313-0.188-0.375-0.25-0.438-0.125-0.375 0.063 0.063 0.063 0.063 0.063 0-0.125-0.125-0.25-0.063-0.313 0.125 0 0.188 0.188 0.688 0.313 0.625 0.063-0.063 0.125 0 0.188 0.125s0.063 0.813 0.063 2.5c0 1.688 0.063 2.375 0.125 2.5 0.125 0.313 0.063 1.125-0.063 1.438-0.125 0.25-0.125 0.625-0.188 3.125 0 1.5-0.063 3.063-0.063 3.375-0.063 0.5-0.063 0.625 0.063 0.813 0.188 0.313 0.5 0.438 0.625 0.313 0.063-0.063 0.125-0.125 0.063-0.125 0 0 0-0.063 0.063-0.125 0.125-0.125 0.125-0.188 0-0.563-0.188-0.813-0.063-4.813 0.188-5.5 0.063-0.25 0.125-0.688 0.125-1.625 0.063-1.188 0.063-1.375 0.25-1.938 0.125-0.313 0.25-0.813 0.25-1.063 0.188-0.75 0.188-0.75 0.375-0.063 0.063 0.313 0.188 0.813 0.25 1.063 0 0.25 0.188 0.813 0.313 1.25s0.25 1.125 0.375 1.563c0.063 0.438 0.25 1.188 0.375 1.688 0.313 1.063 0.313 1.313 0.25 3.188-0.063 0.563-0.063 1.125 0 1.313 0.063 0.25 0.063 0.25 0.25 0.25h0.125l-0.125 0.063c-0.25 0.188-0.188 0.25 0.25 0.25l0.438-0.063v-0.625c0-0.375-0.063-0.938-0.125-1.25-0.125-0.688-0.188-2.25-0.125-2.063 0.063 0.125 0.313 0.625 0.563 1.25 0.313 0.563 0.563 1.313 0.688 1.625 0.25 1.063 0.313 1.125 0.875 0.688 0.375-0.313 0.375-0.5-0.125-1.313s-0.688-1.313-0.875-2.063c-0.125-0.375-0.375-1.063-0.563-1.5-0.563-1.188-0.5-1.438 0.188-3.188 0.125-0.313 0.25-0.625 0.25-0.75 0.063-0.25 0.375 1.188 0.375 1.563 0 0.75 0.188 1.688 0.438 2.125 0.188 0.5 0.25 0.75 0 0.375-0.063-0.125-0.125-0.25-0.125-0.25s0 0.125 0.063 0.25c0.125 0.125 0.188 0.188 0.25 0.188s0.25 0.313 0.438 0.875c0.438 1.063 0.938 2.375 0.938 2.625 0 0.125 0.063 0.188 0.063 0.25 0.063 0 0.063 0 0.063-0.063-0.063 0 0-0.125 0.125-0.25 0.313-0.313 0.313-0.563-0.125-1.438s-0.813-1.813-0.938-2.5c-0.063-0.313-0.125-1.188-0.125-1.938-0.063-0.75-0.125-1.563-0.125-1.813-0.125-0.5-0.125-1.75 0-3 0.063-0.875 0.063-0.875 0.313-1.25s0.313-0.5 0.5-1.625c0.125-1.063 0.125-1.063 0.25-1.063 0.063 0 0.063 0 0 0.063 0 0.063 0 0.063 0.063 0s0.125-0.125 0.125-0.188c0-0.063 0 0-0.063 0-0.063 0.125-0.063 0.125-0.063-0.063 0-0.125 0-0.125-0.063-0.063s-0.063-0.063-0.125-0.313c0-0.25-0.063-0.5-0.125-0.563 0-0.063-0.063-0.125 0-0.125 0-0.063 0.063 0 0.063 0.125 0.063 0.063 0.063 0.125 0.063 0 0.063-0.063-0.063-0.188-0.188-0.188-0.063 0-0.438-0.625-0.563-1-0.188-0.438-0.5-0.938-0.813-1.188-0.125-0.063-0.563-0.313-0.938-0.438-0.75-0.313-1.688-0.438-2.25-0.313-0.375 0.063-1.063 0.313-1.125 0.375s-0.125 0.063-0.125 0.063-0.063 0 0.063-0.063c0.063-0.063 0.063-0.125 0.063-0.125-0.063 0-0.188 0.125-0.313 0.25-0.313 0.313-0.438 0.375-0.563 0.188-0.125-0.063-0.188-0.063-0.188 0s0.25 0.188 0.313 0.188c0.063 0 0.188-0.063 0.313-0.188s0.25-0.188 0.188-0.125c0 0.125-0.438 0.375-0.563 0.375s-0.375-0.313-0.313-0.438c0 0 0-0.063-0.063 0s-0.313-0.5-0.375-0.813c0-0.5 0.438-1.313 0.625-1.063 0.063 0.063 0.063 0.063 0 0 0-0.125 0.313-0.5 0.438-0.438 0.125 0 0.125 0 0.063-0.063-0.125-0.063-0.125-0.188 0-0.813 0.188-0.938 0.25-1.438 0.125-1.563-0.063-0.063-0.063-0.063 0 0.063s0.063 0.125-0.063 0.125c-0.063-0.063-0.125-0.125-0.125-0.125 0-0.125-0.25-0.188-0.313-0.125s0 0.063 0.125 0.063c0.188-0.063 0.188-0.063-0.063 0.063s-0.313 0.125-0.25 0.063 0-0.063-0.063-0.063c-0.125 0.063-0.125 0.063-0.063 0.125 0.063 0 0 0.125-0.125 0.25-0.125 0.063-0.25 0.125-0.25 0.125-0.063 0-0.188 0.063-0.313 0.25-0.125 0.125-0.188 0.188-0.125 0.125 0.063 0 0.125-0.063 0.125 0 0 0.125-0.188 0.25-0.25 0.188-0.063 0-0.125 0-0.125 0.063 0 0 0.063 0.063 0.125 0 0 0 0.063 0 0 0.063 0 0.063-0.063 0.313-0.125 0.5-0.063 0.438-0.125 0.5-0.375 0.438-0.125-0.063-0.125-0.063-0.063-0.625 0-0.688 0.25-1.563 0.375-1.625 0.063-0.063 0.063 0 0.063 0.063-0.188 0.438-0.125 0.438 0.063 0.063 0.063-0.125 0.063-0.25 0-0.188s-0.063 0 0.125-0.438c0.188-0.313 0.188-0.438 0.25-1.188 0-0.563-0.063-0.813-0.125-0.938s-0.063-0.125-0.063-0.063-0.063 0.063-0.188-0.063l-0.188-0.188z"></path>
</svg>
