<?xml version="1.0" standalone="no"?>
<!DOCTYPE svg PUBLIC "-//W3C//DTD SVG 20010904//EN"
 "http://www.w3.org/TR/2001/REC-SVG-20010904/DTD/svg10.dtd">
<svg version="1.0" xmlns="http://www.w3.org/2000/svg"
 width="100.000000pt" height="100.000000pt" viewBox="0 0 100.000000 100.000000"
 preserveAspectRatio="xMidYMid meet">

<g transform="translate(0.000000,100.000000) scale(0.100000,-0.100000)"
fill="#000000" stroke="none">
<path d="M241 856 c-8 -10 -9 -16 -1 -21 5 -3 13 1 16 10 9 22 -1 29 -15 11z"/>
<path d="M410 841 c0 -16 31 -41 51 -41 27 0 24 13 -10 33 -33 19 -41 21 -41
8z"/>
<path d="M606 797 c-15 -19 -26 -39 -26 -45 0 -13 39 26 58 57 20 33 -4 24
-32 -12z"/>
<path d="M774 805 c3 -8 1 -15 -3 -15 -5 0 -11 -6 -14 -13 -4 -10 3 -13 24
-12 33 2 66 25 36 25 -9 0 -17 4 -17 9 0 5 -7 12 -16 15 -12 4 -15 2 -10 -9z"/>
<path d="M463 769 c-4 -54 -39 -167 -59 -192 -30 -36 -38 -21 -30 61 l5 67
-14 -64 c-8 -35 -12 -68 -9 -73 10 -17 14 -58 5 -58 -5 0 -14 15 -22 33 -7 17
-21 45 -32 60 -11 17 -17 38 -14 53 2 14 2 22 -1 19 -3 -2 -11 0 -18 6 -17 14
-1 -37 33 -102 29 -58 29 -62 1 -55 -19 5 -18 3 3 -7 48 -22 118 -127 86 -127
-7 0 -6 -4 3 -10 13 -7 16 -35 18 -154 2 -141 1 -146 -21 -158 -16 -9 -74 -12
-209 -11 l-188 1 0 -29 0 -29 500 0 c493 0 500 0 500 20 0 17 -7 20 -42 22
-24 1 -65 3 -93 5 -27 1 -96 4 -152 7 -59 3 -114 1 -129 -4 -23 -9 -30 -6 -60
26 -35 36 -36 40 -38 154 -1 54 0 55 37 75 21 11 43 29 48 40 10 19 10 19 -8
-1 -23 -26 -63 -38 -63 -18 0 8 6 14 13 14 8 0 28 18 46 40 17 22 28 40 24 40
-4 0 -17 -14 -28 -31 -11 -17 -30 -35 -42 -40 -13 -4 -23 -16 -23 -24 0 -9 -5
-13 -10 -10 -7 4 -7 12 0 25 13 24 13 33 0 25 -6 -4 -10 18 -10 58 0 62 1 66
35 91 19 15 35 35 34 44 0 15 -1 15 -7 1 -7 -17 -65 -69 -77 -69 -3 0 -3 6 1
12 5 7 -5 2 -21 -10 -24 -19 -31 -21 -43 -9 -11 12 -11 19 1 48 8 19 21 41 29
49 8 8 20 40 27 70 6 30 16 72 20 93 5 20 5 39 2 42 -4 2 -8 -5 -8 -16z m-12
-296 c7 -35 4 -83 -4 -83 -6 0 -7 3 -4 6 4 4 -2 19 -13 34 -14 20 -16 30 -8
38 14 14 27 16 29 5z m76 -419 c-3 -3 -12 -4 -19 -1 -8 3 -5 6 6 6 11 1 17 -2
13 -5z m-57 -14 c0 -5 -5 -10 -11 -10 -5 0 -7 5 -4 10 3 6 8 10 11 10 2 0 4
-4 4 -10z"/>
<path d="M522 770 c0 -14 2 -19 5 -12 2 6 2 18 0 25 -3 6 -5 1 -5 -13z"/>
<path d="M381 724 c0 -11 3 -14 6 -6 3 7 2 16 -1 19 -3 4 -6 -2 -5 -13z"/>
<path d="M510 731 c0 -6 4 -13 10 -16 6 -3 7 1 4 9 -7 18 -14 21 -14 7z"/>
<path d="M160 712 c0 -4 6 -16 13 -26 11 -15 18 -16 32 -9 17 10 15 12 -13 27
-18 9 -32 13 -32 8z"/>
<path d="M550 695 c0 -8 -4 -15 -8 -15 -9 0 -32 -58 -32 -81 0 -8 -10 -25 -21
-39 -17 -20 -20 -21 -14 -5 11 32 14 65 5 65 -12 0 -20 -28 -20 -68 l1 -37 29
35 c17 19 30 44 30 56 0 12 3 24 8 26 12 5 42 78 32 78 -6 0 -10 -7 -10 -15z"/>
<path d="M666 674 c-34 -35 -33 -46 4 -28 18 9 30 23 30 35 0 25 -2 24 -34 -7z"/>
<path d="M120 603 c1 -4 6 -18 14 -31 10 -19 15 -21 23 -10 8 10 5 17 -13 31
-13 10 -24 14 -24 10z"/>
<path d="M665 570 c-3 -5 -1 -10 4 -10 6 0 11 5 11 10 0 6 -2 10 -4 10 -3 0
-8 -4 -11 -10z"/>
<path d="M767 546 c-4 -9 2 -21 16 -31 29 -20 36 0 10 27 -18 17 -21 18 -26 4z"/>
<path d="M535 492 c-11 -8 -47 -103 -42 -109 2 -2 12 18 22 44 10 27 22 54 28
61 11 13 7 16 -8 4z"/>
<path d="M280 462 c0 -12 7 -25 15 -29 24 -9 25 0 5 27 l-20 25 0 -23z"/>
<path d="M602 451 c-11 -7 -11 -9 1 -14 9 -3 18 1 21 9 6 16 -2 18 -22 5z"/>
<path d="M720 440 c-6 -11 -8 -20 -6 -20 3 0 10 9 16 20 6 11 8 20 6 20 -3 0
-10 -9 -16 -20z"/>
<path d="M644 399 c-17 -5 -37 -16 -44 -24 -11 -14 -9 -14 16 0 16 8 34 15 41
15 6 0 15 5 18 10 3 6 5 10 3 9 -2 0 -17 -5 -34 -10z"/>
<path d="M190 345 c16 -19 39 -19 64 0 18 14 16 15 -28 15 -42 0 -47 -2 -36
-15z"/>
<path d="M642 113 c-35 -17 -42 -33 -14 -33 19 0 59 36 51 44 -2 3 -19 -2 -37
-11z"/>
</g>
</svg>
