<?xml version="1.0" standalone="no"?>
<!DOCTYPE svg PUBLIC "-//W3C//DTD SVG 20010904//EN"
 "http://www.w3.org/TR/2001/REC-SVG-20010904/DTD/svg10.dtd">
<svg version="1.0" xmlns="http://www.w3.org/2000/svg"
 width="500.000000pt" height="500.000000pt" viewBox="0 0 500.000000 500.000000"
 preserveAspectRatio="xMidYMid meet">
<metadata>
Created by potrace 1.16, written by Peter Selinger 2001-2019
</metadata>
<g transform="translate(0.000000,500.000000) scale(0.100000,-0.100000)"
fill="#000000" stroke="none">
<path d="M2542 3637 c-27 -30 -66 -86 -86 -126 -39 -76 -58 -91 -122 -91 -41
0 -59 -24 -106 -149 -31 -80 -36 -86 -103 -136 -38 -29 -97 -80 -130 -114 -54
-55 -63 -61 -100 -61 -55 0 -76 -24 -118 -131 l-33 -84 -83 -5 c-66 -5 -86
-10 -97 -25 -11 -15 -14 -104 -14 -492 l0 -473 -46 0 c-70 0 -129 -19 -170
-54 -31 -27 -37 -39 -42 -85 -3 -39 -1 -55 9 -62 8 -5 517 -9 1155 -9 1275 0
1172 -6 1159 72 -14 79 -97 138 -197 138 l-38 0 0 554 0 555 -22 26 c-17 18
-36 27 -73 31 -238 25 -243 28 -294 123 -36 67 -53 81 -105 81 -67 0 -66 2
-66 -151 l0 -139 -55 0 -55 0 0 375 c0 404 0 405 -53 463 -32 35 -59 28 -115
-31z m-324 -1012 c20 -9 47 -26 60 -38 49 -45 52 -62 52 -287 l0 -210 -172 2
-173 3 0 205 0 205 27 46 c19 32 41 53 70 68 51 25 86 26 136 6z m858 -101
c31 -21 48 -60 48 -107 0 -23 -1 -86 -2 -139 l-2 -98 -114 0 c-100 0 -114 2
-118 18 -2 9 -3 74 -3 144 l0 127 34 35 c19 19 43 37 55 39 29 6 77 -3 102
-19z"/>
</g>
</svg>
