<!-- Generated by IcoMoon.io -->
<svg version="1.1" xmlns="http://www.w3.org/2000/svg" width="26" height="32" viewBox="0 0 26 32">
<title>Running</title>
<path d="M3.951 10.646c-0.197-0.048-0.367-0.066-0.532 0.032-0.276 0.162-0.537 0.361-0.884 0.342-0.068-0.004-0.136-0.001-0.204-0.008-0.152-0.015-0.301-0.042-0.344-0.224-0.032-0.138 0.068-0.378 0.203-0.451 0.356-0.193 0.699-0.395 1.144-0.357 0.385 0.033 0.778-0.024 1.167-0.042 0.181-0.009 0.353-0.006 0.496 0.144 0.036 0.038 0.149 0.021 0.219 0.002 0.094-0.025 0.188-0.066 0.269-0.12 0.197-0.13 0.337-0.039 0.497 0.084 0.204 0.157 0.427 0.29 0.649 0.422 0.123 0.073 0.21 0.022 0.319-0.080 0.21-0.196 0.451-0.36 0.69-0.523 0.232-0.158 0.489-0.257 0.775-0.286 0.145-0.014 0.181-0.134 0.060-0.212-0.21-0.135-0.432-0.306-0.665-0.336-0.329-0.042-0.677 0.002-1.008 0.061-0.604 0.108-1.208 0.265-1.818 0.14-0.413-0.084-0.825-0.229-1.202-0.417-0.9-0.448-1.78-0.936-2.665-1.413-0.118-0.063-0.226-0.152-0.321-0.246-0.049-0.048-0.059-0.136-0.086-0.206 0.080-0.017 0.17-0.066 0.237-0.044 0.234 0.077 0.468 0.162 0.686 0.273 0.823 0.423 1.624 0.893 2.465 1.275 0.633 0.287 1.311 0.416 2.021 0.196 0.422-0.131 0.863-0.222 1.302-0.267 0.571-0.059 1.083 0.175 1.593 0.411 0.326 0.151 0.684 0.248 1.038 0.322 0.61 0.128 1.221 0.233 1.809 0.456 0.649 0.247 1.262 0.557 1.878 0.874 0.392 0.202 0.846 0.265 1.296 0.274 0.266 0.005 0.532 0.017 0.798 0.027 0.439 0.017 0.856-0.079 1.265-0.232 0.172-0.065 0.354-0.121 0.536-0.141 0.505-0.055 0.964-0.261 1.44-0.414 0.233-0.075 0.472-0.138 0.713-0.184 0.212-0.041 0.43-0.052 0.645-0.076 0.254-0.028 0.41-0.215 0.585-0.367 0.092-0.079 0.151-0.107 0.204 0.029 0.046 0.118 0.125 0.088 0.212 0.044 0.2-0.099 0.196-0.096 0.249 0.117 0.011 0.044 0.061 0.088 0.104 0.114 0.267 0.163 0.543 0.314 0.806 0.484 0.1 0.065 0.181 0.167 0.257 0.262 0.229 0.282 0.45 0.57 0.676 0.854 0.069 0.087 0.149 0.167 0.211 0.259 0.032 0.047 0.065 0.123 0.048 0.17-0.068 0.195-0.152 0.384-0.234 0.574-0.036 0.084-0.1 0.16-0.119 0.247-0.098 0.45-0.45 0.509-0.794 0.318-0.458-0.255-0.919-0.44-1.462-0.465-0.396-0.018-0.774 0.024-1.149 0.108-0.109 0.024-0.203 0.16-0.282 0.261-0.075 0.096-0.102 0.233-0.186 0.317-0.18 0.181-0.137 0.364-0.075 0.576 0.072 0.247 0.116 0.504 0.149 0.759 0.023 0.176 0.055 0.323 0.246 0.393 0.381 0.14 0.756 0.298 1.139 0.434 0.424 0.151 0.854 0.287 1.282 0.428 0.516 0.169 1.026 0.355 1.577 0.391 0.414 0.027 0.717 0.282 0.991 0.565 0.035 0.037 0.027 0.163-0.009 0.211-0.065 0.085-0.159 0.157-0.255 0.207-0.356 0.184-0.725 0.264-1.11 0.084-0.050-0.024-0.108-0.044-0.143-0.083-0.228-0.251-0.509-0.229-0.805-0.18-0.074 0.012-0.164-0.040-0.239-0.078s-0.135-0.117-0.213-0.138c-0.492-0.137-0.997-0.172-1.506-0.159-0.135 0.003-0.148 0.080-0.087 0.191 0.115 0.21 0.223 0.424 0.336 0.636 0.114 0.215 0.259 0.364 0.525 0.418 0.296 0.061 0.584 0.054 0.881 0.056 0.326 0.001 0.65 0.091 0.893 0.345 0.13 0.136 0.121 0.228-0.037 0.329-0.223 0.142-0.452 0.267-0.735 0.245-0.109-0.008-0.22 0.034-0.331 0.035-0.103 0.001-0.21-0.010-0.308-0.040-0.187-0.057-0.366-0.142-0.554-0.191-0.073-0.019-0.168 0.015-0.243 0.047-0.21 0.091-0.26 0.065-0.404-0.103-0.663-0.772-1.236-1.629-2.040-2.272-0.278-0.222-0.589-0.357-0.983-0.345-0.354 0.011-0.712-0.118-1.070-0.181-0.212-0.037-0.426-0.065-0.639-0.1-0.584-0.095-1.168-0.194-1.752-0.288-0.335-0.054-0.681-0.065-1.002-0.162-0.327-0.099-0.653-0.244-0.936-0.435-0.49-0.33-0.941-0.716-1.417-1.066-0.12-0.088-0.271-0.142-0.414-0.192-0.436-0.152-0.891-0.261-1.31-0.45-0.53-0.24-1.053-0.327-1.613-0.157-0.678 0.205-1.185-0.051-1.612-0.572-0.278-0.339-0.583-0.656-0.883-0.977-0.147-0.158-0.215-0.145-0.359 0.022-0.085 0.098-0.174 0.193-0.267 0.283-0.222 0.218-0.498 0.259-0.791 0.217-0.185-0.026-0.27-0.167-0.199-0.338 0.034-0.083 0.093-0.161 0.158-0.225 0.172-0.17 0.352-0.331 0.56-0.523z"></path>
</svg>
