<!-- Generated by IcoMoon.io -->
<svg version="1.1" xmlns="http://www.w3.org/2000/svg" width="32" height="32" viewBox="0 0 32 32">
<title>Sable</title>
<path d="M18.875 1.813c-0.063 0-0.25 0.063-0.438 0.063-0.938 0.063-1.938 0.25-2.438 0.375-0.313 0.063-0.75 0.188-0.938 0.25-0.75 0.188-2.063 0.75-2.625 1.063-0.75 0.5-2.063 1.625-2.688 2.375-0.563 0.625-1.688 2.563-1.688 2.813 0 0.063-0.063 0.25-0.125 0.438-0.125 0.125-0.25 0.438-0.25 0.625-0.063 0.25-0.188 0.5-0.25 0.625s-0.125 0.5-0.188 0.875c-0.063 0.375-0.188 0.813-0.188 0.938-0.188 0.313-0.313 2.25-0.313 3.25 0 0.75-0.063 0.938-0.25 1.313-0.063 0.25-0.25 0.813-0.313 1.313-0.125 0.438-0.313 1-0.375 1.25-0.125 0.188-0.188 0.375-0.188 0.375 0 0.125-0.75 1.125-1.188 1.625-0.188 0.313-0.75 0.875-1.188 1.313-1.063 1.125-1.375 1.5-1.313 1.688 0.125 0.438 1.625 1.125 2.25 1.125 0.313 0 0.438-0.063 1-0.5 0.125-0.125 0.25-0.188 0.313-0.188 0 0 0.188-0.063 0.313-0.188 0.688-0.438 1.938-0.813 3.438-1.125 1.375-0.25 2.125-0.563 2.688-1.188 0.188-0.25 0.438-0.375 0.625-0.25s-0.125 0.688-0.625 1.188c-0.625 0.563-0.875 0.813-1.25 0.875-0.125 0.063-0.313 0.188-0.313 0.188-0.063 0.063-0.125 0.063-0.25 0.063-0.438 0-0.563 0.188-0.25 0.5 0.063 0.063 0.25 0.313 0.313 0.5 0.25 0.438 0.688 1.813 0.688 2.063 0 0.125 0.063 0.375 0.125 0.5 0.063 0.188 0.188 0.625 0.25 0.938 0.125 0.313 0.188 0.625 0.25 0.688s0.25 0.5 0.438 0.875c0.188 0.375 0.375 0.75 0.438 0.813 0.063 0.125 0.125 0.313 0.188 0.438l0.125 0.313h2.438v-0.313c0.063-0.563 0.813-2 1.188-2.313 0.125-0.188 0.25-0.375 0.25-0.438s-0.188-0.313-0.438-0.5c-0.563-0.438-1.313-1.5-1.75-2.313-0.375-0.75-0.688-1.875-0.688-2.5 0-0.563 0.25-1.438 0.563-1.75 0.25-0.375 0.5-0.5 1.313-0.438 0.625 0.063 1.063 0.313 3 1.688 0.313 0.25 0.563 0.375 0.625 0.375 0 0 0.125 0.063 0.25 0.188 0.625 0.5 2.75 1.563 3.5 1.813 0.188 0.063 0.438 0.188 0.625 0.25 0.125 0.125 0.313 0.188 0.438 0.188 0.063 0 0.375 0.063 0.625 0.125 0.5 0.188 1.125 0.313 2.688 0.563 0.5 0.063 1.25 0.125 2.375 0.063 0.875 0 1.813 0 2 0h0.313v-1.063h-2.063c-2 0-2.063 0-2.938-0.188-0.875-0.25-1.688-0.625-1.813-0.875-0.063-0.188 0.375-0.25 1.063-0.125 1 0.188 2.375 0.25 3.25 0.063 0.438-0.125 0.688-0.188 0.688-0.25 0.063-0.063-0.125-0.25-0.375-0.375-0.188-0.125-0.5-0.313-0.625-0.375-0.438-0.313-1.75-0.938-2.438-1.188-0.875-0.313-2.063-0.563-2.875-0.625-0.438-0.063-0.875-0.125-0.938-0.125-0.125-0.188 0-0.5 0.313-0.625 0.313-0.188 0.375-0.313 0-0.5-1.25-0.688-1.688-0.875-2.438-1.063-0.125-0.063-0.688-0.125-1.313-0.188-1 0-1.063-0.063-1.063-0.188-0.063-0.125 0.063-0.25 0.313-0.375 0.188-0.125 0.375-0.25 0.375-0.375 0 0-0.188-0.125-0.375-0.188-0.625-0.188-1.5-0.5-1.688-0.625-0.25-0.125-1.938-0.5-2.625-0.563-1.25-0.125-1.313-0.125-1.75 0.313-0.625 0.625-1.125 0.875-1.25 0.688-0.063-0.125 0.438-1 0.625-1.25 0.125-0.063 0.25-0.438 0.438-0.813 0.188-0.625 0.25-0.875 0.25-1.75 0.063-0.875 0.063-1-0.063-1.125-0.125-0.063-0.188-0.063-0.5 0.063-0.125 0.125-0.5 0.25-0.75 0.375-0.563 0.25-1.625 1.313-1.813 1.688-0.063 0.25-0.188 0.313-0.375 0.375-0.188 0-0.313 0-0.375-0.063-0.125-0.188-0.188-1.375-0.125-2.688 0-1.063 0.063-1.438 0.25-2.125 0.313-1.125 0.75-2.188 1.125-2.75 0.125-0.188 0.188-0.313 0.188-0.313 0-0.125 0.938-1.313 1.438-1.75 0.563-0.563 1.563-1.25 2.063-1.5 0.125-0.063 0.313-0.125 0.375-0.188 0.5-0.313 1.75-0.75 3.063-1.063 1.063-0.25 1.188-0.25 3-0.25 2.063 0 2.75 0.125 4.5 0.625 0.813 0.25 2.688 1.063 2.938 1.25 0.125 0.125 0.375 0.125 0.375 0 0 0-0.063-0.125-0.25-0.188-0.125-0.063-0.188-0.188-0.188-0.188 0-0.063-0.125-0.125-0.25-0.188-0.188-0.125-0.5-0.25-0.75-0.438-0.25-0.125-0.5-0.313-0.625-0.375-0.125 0-0.375-0.125-0.5-0.188-0.563-0.25-1.188-0.5-1.625-0.625-0.188-0.063-0.563-0.188-0.813-0.25s-0.813-0.125-1.188-0.188c-0.438-0.063-1-0.125-1.313-0.188-0.5-0.063-1.625-0.063-1.688 0zM8.063 17.625c0.125 0.063 0.188 0.125 0.188 0.313v0.313h0.375c0.438 0 0.5 0.063 0.313 0.313-0.125 0.25-0.188 0.313-0.625 0.313-0.25 0-0.375-0.063-0.75-0.313-0.375-0.375-0.438-0.5-0.25-0.75 0.125-0.188 0.188-0.25 0.563-0.313 0 0 0.125 0.063 0.188 0.125zM6.813 18.5c0.25 0.125 0.375 0.563 0.438 1.375s0.063 0.875-0.188 1.313c-0.125 0.313-0.25 0.563-0.25 0.625s-0.063 0.125-0.188 0.188c-0.125 0.063-0.125 0.188-0.125 0.188 0.063 0.063 0.125 0 0.188-0.063 0.063-0.125 0.188-0.188 0.25-0.188 0.188 0 0.813-0.875 1.188-1.688 0.188-0.313 0.313-0.563 0.375-0.625 0.188-0.063 0.625 0.313 0.875 0.75 0.313 0.5 0.375 1.25 0.188 1.688-0.313 0.625-0.813 0.938-1.563 1.188-0.813 0.25-2.063 0.813-2.875 1.375-0.25 0.188-0.438 0.063-0.375-0.188s-0.125-0.375-0.313-0.188c-0.313 0.25-0.688 0.375-1 0.313-0.688-0.125-0.813-0.625-0.25-1.125 0.875-0.688 2.438-2.875 2.938-3.813 0.063-0.25 0.25-0.625 0.25-0.813 0.125-0.313 0.188-0.375 0.438-0.313zM17.875 4.125c-0.25 0-0.625 0.063-0.875 0.125-0.188 0.063-0.563 0.188-0.813 0.25-0.563 0.125-1.313 0.438-2 0.875-0.313 0.188-0.563 0.313-0.625 0.313-0.125 0-2.063 2-2.313 2.375-0.688 1.188-1.125 2.375-1.25 3.063-0.063 0.563 0.125 0.688 0.25 0.188 0.375-0.938 1.375-2.563 2.25-3.5 0.625-0.688 2.25-2 2.5-2 0 0 0.125-0.063 0.25-0.125 0.313-0.188 0.875-0.438 1.813-0.688 0.688-0.25 0.813-0.25 2.438-0.25 1.563 0 1.688 0 2.563 0.25 0.5 0.125 1.063 0.25 1.25 0.375 0.313 0.188 0.938 0.25 0.938 0.188 0-0.125-0.75-0.5-1.5-0.813-0.313-0.125-1.25-0.375-2-0.625-0.375-0.063-2.313-0.125-2.875 0zM19.625 27.938c-0.125 0.063-0.375 0.25-0.5 0.375-0.625 0.5-0.938 0.75-1.188 1.063-0.625 0.625-1.375 1.75-1.5 2.313l-0.125 0.313h1.563l0.063-0.375c0.063-0.688 1.063-2.688 1.563-3.063 0.063-0.063 0.25-0.25 0.375-0.438 0.188-0.313 0.188-0.375 0.063-0.375-0.063 0-0.25 0.063-0.313 0.188z"></path>
</svg>
