<!-- Generated by IcoMoon.io -->
<svg version="1.1" xmlns="http://www.w3.org/2000/svg" width="26" height="32" viewBox="0 0 26 32">
<title>Salamander</title>
<path d="M25.288 12.099c-0.43 0.128-0.794 0.384-1.142 0.635-0.138 0.097-0.271 0.195-0.41 0.282-0.051-0.046-0.113-0.092-0.174-0.123l0.020-0.056c0.097-0.292 0.195-0.594 0.353-0.845 0.072-0.113 0.056-0.271-0.051-0.348-0.113-0.087-0.276-0.056-0.353 0.061-0.195 0.307-0.307 0.645-0.415 0.973l-0.036 0.102c-0.036 0-0.891 0.835-0.891 0.855l-1.167 0.64c-0.154 0.087-0.333 0.097-0.502 0.036-0.123-0.046-0.66-2.043-0.937-3.108 0.087-0.369 0.123-0.707 0.113-1.019-0.010-0.261 0.087-0.517 0.266-0.701l0.010-0.010c0.205-0.21 0.492-0.302 0.778-0.266 0.553 0.067 1.193-0.113 1.92-0.64 1.623-1.178 2.299-3.072 1.5-4.229s-2.76-1.147-4.388 0.031c-0.824 0.599-1.203 1.234-1.27 1.869-0.051 0.512-0.364 0.968-0.86 1.178-0.184 0.077-0.384 0.108-0.579 0.102-0.092-0.005-0.184 0-0.282 0.010l-1.249-2.15c-0.159-0.338-0.113-0.732 0.113-1.029l0.932-1.213c0.020 0 0.251-0.123 0.302-0.148 0.026-0.015 0.451-0.159 0.461-0.169 0.261 0.010 0.527 0 0.788-0.036 0.041-0.005 0.082-0.010 0.123-0.020 0.169-0.026 0.333-0.051 0.476-0.031 0.128 0.020 0.256-0.056 0.287-0.184 0.036-0.143-0.056-0.287-0.2-0.312-0.225-0.041-0.44-0.005-0.645 0.026-0.041 0.005-0.077 0.010-0.118 0.015-0.164 0.026-0.328 0.036-0.497 0.036 0.026-0.174 0-0.358-0.067-0.522 0.241-0.2 0.461-0.42 0.671-0.635 0.174-0.174 0.353-0.358 0.543-0.527 0.102-0.092 0.118-0.251 0.026-0.353-0.087-0.108-0.241-0.118-0.348-0.026-0.205 0.179-0.389 0.369-0.568 0.548-0.21 0.215-0.415 0.42-0.635 0.604-0.118-0.087-0.251-0.143-0.389-0.169 0.051-0.338 0.041-0.681-0.020-1.019-0.020-0.118-0.123-0.215-0.241-0.215-0.159 0-0.271 0.148-0.241 0.302 0.061 0.323 0.061 0.66 0 0.988-0.067 0.026-0.169 0.333-0.2 0.451-0.061 0.246-0.353 0.691-0.343 0.727l-0.932 1.219c-1.050 1.162-0.21 3.482 0.251 4.511-0.707 0.486-1.469 1.249-2.294 2.355-0.548 0.737-1.014 1.485-1.398 2.212-1.428-0.471-3.43-1.014-4.214-0.625l-2.575 0.983c0.072-0.215 0.154-0.425 0.246-0.63 0.020-0.041 0.036-0.087 0.056-0.128 0.143-0.323 0.312-0.681 0.307-1.080 0-0.138-0.108-0.266-0.241-0.266-0.143-0.005-0.256 0.118-0.251 0.261 0.005 0.287-0.123 0.573-0.261 0.876-0.015 0.031-0.026 0.061-0.041 0.092 0.159-0.696 0.338-1.475 0.159-2.248-0.026-0.118-0.128-0.21-0.251-0.205-0.159 0.005-0.266 0.159-0.23 0.312 0.154 0.671-0.015 1.408-0.164 2.058l-0.056 0.251c-0.026-0.133-0.061-0.271-0.113-0.404-0.082-0.225-0.205-0.425-0.323-0.62-0.072-0.118-0.215-0.164-0.333-0.097-0.123 0.072-0.164 0.23-0.087 0.353 0.108 0.174 0.215 0.358 0.287 0.543 0.061 0.164 0.092 0.348 0.128 0.538 0 0 0.061 0.399 0.051 0.404 0.020 0.087-0.031 0.968-0.051 1.316 0 0.026-0.005 0.061-0.005 0.097-0.005 0.108 0.051 0.21 0.148 0.261 0.005 0.005 0.010 0.005 0.015 0.010 0.077 0.036 0.164 0.031 0.236-0.010s0.138-0.082 0.179-0.102c0.287-0.154 0.558-0.389 0.87-0.486 0.005-0.010 2.662-1.050 2.662-1.050 0.236-0.087 1.828 0.876 2.99 1.618-0.118 0.364-0.21 0.712-0.271 1.039-0.456 2.406-1.684 4.593-3.564 6.103-0.307 0.246-0.62 0.471-0.937 0.676-1.044 0.671-2.14 1.167-3.169 1.608-0.691 0.292-1.649 0.681-2.468 1.014-0.087 0.036-0.138 0.128-0.123 0.225 0 0 0 0 0 0.005 0.020 0.108 0.123 0.179 0.23 0.164 1.172-0.22 2.36-0.451 3.405-0.696 1.121-0.261 2.422-0.589 3.61-1.172 1.731-0.85 3.231-2.14 4.342-3.692 0.476-0.666 1.106-1.203 1.833-1.546 0.471-0.22 0.968-0.532 1.469-0.911 0.952 0.077 2.816 0.241 2.826 0.389 0 0 0.077 1.956 0.082 2.381 0.005 0.302-0.087 0.599-0.082 0.901 0.005 0.358 0.092 0.671 0.502 0.553 0.415-0.118 0.753-0.471 1.157-0.65 0-0.005 0-0.010 0-0.015l0.236-0.056c0.174-0.046 0.358-0.087 0.532-0.097 0.195-0.010 0.389 0.015 0.599 0.046 0.148 0.020 0.287-0.097 0.276-0.261-0.005-0.123-0.108-0.225-0.225-0.241-0.22-0.031-0.445-0.061-0.681-0.046-0.138 0.010-0.276 0.036-0.404 0.061l0.2-0.159c0.512-0.404 1.096-0.865 1.751-0.998 0.128-0.026 0.225-0.148 0.21-0.282-0.020-0.143-0.154-0.241-0.292-0.215-0.763 0.148-1.388 0.635-1.94 1.075 0.020-0.026 0.046-0.051 0.067-0.077 0.21-0.251 0.41-0.492 0.671-0.599 0.092-0.041 0.159-0.133 0.154-0.241-0.010-0.189-0.189-0.292-0.343-0.225-0.364 0.159-0.625 0.466-0.855 0.737-0.031 0.036-0.061 0.072-0.092 0.108-0.108 0.123-0.215 0.246-0.328 0.358l-0.138-2.125c-0.056-0.983-1.096-1.644-2.007-2.043 0.374-0.41 0.742-0.855 1.096-1.331 0.266-0.358 0.497-0.701 0.701-1.024 0.451 0.671 0.916 1.352 0.998 1.434 0.169 0.174 0.374 0.307 0.604 0.394 0.445 0.169 0.937 0.133 1.357-0.097l0.85-0.466c0.020-0.015 0.041-0.031 0.067-0.046 0.077-0.041 0.148-0.082 0.225-0.113 0 0 1.239-0.343 1.265-0.389 0.323-0.020 0.645 0.026 0.947 0.138 0.123 0.046 0.266-0.005 0.323-0.128 0.056-0.133-0.005-0.287-0.138-0.338-0.323-0.128-0.666-0.184-1.009-0.179-0.005-0.092-0.020-0.179-0.046-0.266 0.143-0.092 0.282-0.189 0.42-0.287 0.333-0.236 0.645-0.456 0.998-0.563 0.113-0.036 0.189-0.138 0.179-0.261 0-0.2-0.159-0.302-0.302-0.256z"></path>
</svg>
