<!-- Generated by IcoMoon.io -->
<svg version="1.1" xmlns="http://www.w3.org/2000/svg" width="32" height="32" viewBox="0 0 32 32">
<title>Sambar-deer</title>
<path d="M24.375 5.313c0 0.063 0 0.938 0 1.938-0.063 1.563-0.063 1.875-0.25 2.188-0.063 0.188-0.188 0.313-0.188 0.313-0.125 0-0.375-0.5-0.313-0.563s0-0.063 0-0.063-0.125-0.125-0.125-0.188c0-0.125 0-0.188-0.063-0.188-0.063 0.063-0.063 0-0.063-0.125 0-0.063-0.063-0.125-0.125-0.125 0 0-0.063-0.063-0.063-0.125s-0.063-0.313-0.188-0.5c-0.125-0.188-0.188-0.438-0.188-0.5 0-0.125-0.313-0.375-0.375-0.25-0.063 0.063 0.063 1.688 0.125 1.813 0.063 0 0.063 0.125 0.063 0.25 0 0.063 0.063 0.188 0.125 0.188 0 0 0.063 0.063 0.063 0.125 0 0.125 0 0.188 0.063 0.188s0.063 0.125 0.125 0.25c0.063 0.125 0.063 0.25 0.125 0.25s0.063 0 0.063 0.125c0 0.063 0.063 0.063 0.063 0.063 0.063-0.063 0.125 0 0.125 0.063s0.063 0.125 0.063 0.125c0.125 0.063 0.125 0.063 0 0.125 0 0-0.063 0.125-0.063 0.188s-0.063 0.063-0.125 0.063c0 0-0.063 0.063-0.063 0.125 0 0.125-0.438 1-0.5 1 0 0-0.063 0.125-0.063 0.188s0 0.125-0.063 0.125c-0.063 0-0.063 0.063-0.063 0.125 0 0.25-0.438 0.875-0.563 0.813-0.063 0-0.063 0-0.063 0.063 0.063 0.063-0.313 0.563-0.563 0.813-0.438 0.375-0.438 0.375-0.313 0 0.063-0.125 0.125-0.25 0.125-0.25 0.063 0 0.063-0.125 0.063-0.313 0-0.125 0.063-0.25 0.125-0.313 0.125-0.125 0-0.375-0.188-0.313-0.125 0.063-0.313 0.375-0.313 0.563 0 0.063-0.063 0.125-0.063 0.125-0.063 0-0.125 0.063-0.125 0.188s0 0.188-0.063 0.188c-0.063-0.063-0.063 0-0.063 0.063 0 0.25-0.25 0.813-0.375 0.813 0 0-0.063 0.063-0.063 0.125s0 0.125-0.063 0.125c-0.063 0-0.063 0.063-0.063 0.125 0 0.125-0.438 0.625-0.563 0.563-0.063 0-0.063 0-0.063 0.125 0.063 0.063 0.063 0.125-0.063 0.063-0.063-0.063-0.125 0-0.063 0 0.063 0.125-0.375 0.563-0.5 0.563-0.063-0.063-0.125 0-0.063 0.063 0 0.125-0.688 0.75-1 0.875-0.125 0.063-0.25 0.188-0.313 0.25 0 0.063-0.188 0.125-0.75 0.125-0.438 0-0.625-0.063-0.563-0.063 0.063-0.063 0.063-0.125 0.063-0.25-0.063-0.125-0.063-0.125-0.188 0s-0.188 0.188-0.125 0.25c0 0 0 0.063-0.063 0.063s-0.063-0.063-0.063-0.063-0.125-0.125-0.188-0.125c-0.125-0.063-0.25-0.125-0.375-0.25-0.125-0.063-0.188-0.125-0.25-0.125s-0.063-0.063 0-0.125c0.063-0.063 0-0.125-0.125-0.063-0.125 0-0.188 0-0.188-0.063 0.063 0 0-0.063-0.125-0.125-0.125 0-0.188-0.063-0.188-0.125s-0.063-0.063-0.125-0.063c0 0-0.188-0.125-0.375-0.313-0.125-0.125-0.313-0.25-0.313-0.25-0.125 0-1.125-1-1.125-1.125 0-0.063-0.063-0.063-0.063-0.063-0.063 0.063-0.125 0-0.125-0.125 0-0.063 0-0.125-0.063-0.125s-0.063-0.063-0.063-0.125c0-0.063-0.063-0.125-0.063-0.125-0.063 0-0.125-0.125-0.125-0.313-0.063-0.188-0.125-0.313-0.188-0.313 0 0-0.063-0.125-0.063-0.25s0-0.25-0.063-0.25c-0.063 0-0.063-0.125-0.063-0.313s-0.063-0.313-0.125-0.313c0 0-0.063-0.25-0.063-0.563 0-0.25 0.063-0.5 0.063-0.5 0.063 0 0.125-0.063 0.125-0.125s0-0.125 0.063-0.125c0.063 0 0.313-0.438 0.313-0.563 0-0.063 0.063-0.125 0.063-0.125 0.063 0 0.125-0.125 0.125-0.25s0-0.25 0.063-0.25c0.063 0 0.063-0.188 0.063-0.438s0.063-0.375 0.125-0.25c0 0.063 0.063-0.063 0.063-0.5 0-0.313 0-0.688 0.063-0.813 0-0.125 0-0.25-0.063-0.25-0.125 0-0.313 0.25-0.313 0.438 0 0.063-0.063 0.125-0.063 0.125-0.063-0.063-0.125 0.063-0.125 0.188-0.063 0.125-0.125 0.313-0.25 0.438-0.063 0.125-0.125 0.313-0.125 0.313 0 0.063-0.063 0.125-0.125 0.125 0 0-0.063 0.063-0.063 0.125s0 0.125-0.063 0.125c-0.063 0-0.063 0.063-0.063 0.125 0 0.125-0.063 0.188-0.125 0.313-0.063 0.063-0.125 0.125-0.125 0.125 0 0.125-0.25 0.313-0.313 0.25-0.063 0-0.125 0-0.063 0.063s-0.125 0.375-0.25 0.375c-0.063 0-0.125-0.063-0.125-0.125s0-0.125-0.063-0.125c-0.063 0-0.063-0.063-0.063-0.125s-0.063-0.063-0.125-0.063c0 0-0.063-0.188-0.125-0.375 0-0.125-0.063-0.313-0.125-0.313 0 0-0.063-0.125-0.063-0.375 0-0.188 0-0.313-0.063-0.313-0.063 0.063-0.063-0.313-0.063-1.063s-0.063-1.188-0.125-1.188c0 0-0.063-0.188-0.063-0.375 0-0.25 0-0.375-0.063-0.375-0.188 0-0.5 0.313-0.5 0.5 0 0.063 0 0.125-0.063 0.125-0.063-0.063-0.063 0.063-0.063 0.25s-0.063 0.375-0.063 0.375c-0.125 0-0.125 0.5-0.125 1.875 0 1.313 0 1.375 0.125 1.375 0 0 0.063 0.125 0.063 0.188 0 0.125 0 0.188 0.063 0.188 0.063-0.063 0.063 0 0.063 0.125-0.063 0.125 0 0.188 0.063 0.188 0.063-0.063 0.125 0 0.125 0 0 0.063 0.125 0.25 0.25 0.375 0.188 0.188 0.313 0.313 0.313 0.375s0 0.063 0.063 0.063 0.063 0.063 0.063 0.188c0 0.063 0.063 0.188 0.125 0.25 0.063 0.125 0.125 0.25 0.125 0.313s0.063 0.125 0.063 0.125c0.063 0 0.125 0.063 0.125 0.125s0 0.125 0.063 0.125c0.063 0 0.063 0.063 0.063 0.188 0 0.063 0.063 0.125 0.063 0.188 0.125 0 0.375 0.5 0.375 0.625 0 0.063 0 0.125 0.063 0.125s0.063 0.063 0.063 0.125c0 0.063 0.063 0.125 0.063 0.125 0.063 0 0.125 0.188 0.25 0.375 0.063 0.188 0.188 0.375 0.188 0.375 0.063 0 0.063 0 0.063 0.125 0 0.063 0.063 0.063 0.063 0.063 0.063-0.063 0.125 0 0.125 0.063s0.063 0.188 0.188 0.313c0.125 0.125 0.188 0.313 0.188 0.375-0.063 0.125 0 0.125 0.063 0.125 0.125-0.063 0.125-0.063 0.063 0.063 0 0.063 0 0.125 0.063 0.063 0 0 0.188 0.063 0.25 0.188 0.125 0.125 0.375 0.375 0.563 0.563l0.313 0.375h-0.313c-0.188 0-0.25-0.063-0.25-0.125 0.063 0-0.188-0.063-0.563-0.063-0.438 0-0.625 0.063-0.625 0.063 0.063 0.063 0 0.125-0.125 0.125-0.063 0-0.188 0.063-0.188 0.188-0.063 0.313 0 1.438 0.125 1.438 0.063 0.063 0.063 0.125 0.063 0.188 0 0.125 0.063 0.188 0.063 0.188 0.063 0 0.125 0.063 0.125 0.125s0 0.125 0.063 0.125c0.063 0 0.063 0 0.063 0.063 0 0.188 0.438 0.563 0.625 0.563 0.063 0 0.125 0 0.125 0.063s0.375 0.063 0.938 0.063h0.875v1.188c0 0.688 0 1.125-0.063 1.125s-0.063 0.125-0.063 0.188 0 0.188 0.063 0.063 0.063 0 0.063 0.375c0 0.25 0.063 0.563 0.063 0.563 0.063 0 0.125 0.125 0.125 0.313 0.125 0.313 0.125 0.313 0.25 0.625 0.063 0.188 0.125 0.313 0.063 0.375 0 0.063 0 0.063 0.063 0.063 0.125-0.063 0.5 0.313 0.438 0.375s0 0.063 0 0c0.125-0.063 0.313 0.188 0.25 0.313 0 0 0 0.063 0.063 0 0.125 0 0.188 0.063 0.313 0.125 0.063 0.125 0.125 0.188 0.125 0.125 0 0 0.063 0 0.125 0.063 0.125 0.063 0.125 0.188 0.125 0.25-0.063 0.063-0.063 0.063 0 0 0.125-0.063 0.438 0.25 0.438 0.375 0 0.063 0.188 0.063 0.438 0.063s0.438 0 0.375-0.063c0-0.063 0.063-0.063 0.25-0.063s0.375-0.063 0.375-0.125c0 0 0.125-0.063 0.25-0.063 0.188 0 0.313 0 0.313-0.063 0 0 0.188-0.125 0.5-0.188 0.25-0.125 0.5-0.188 0.5-0.25-0.063 0 0-0.063 0.063-0.063s0.125 0 0.125-0.063c0-0.063 0.063-0.063 0.125-0.063 0.125 0 0.188 0 0.125-0.063-0.063-0.125 0-0.125 0.063-0.063 0.125 0 0.125 0 0.125-0.063s0.063-0.188 0.125-0.313c0.125-0.125 0.25-0.25 0.25-0.313s0-0.063 0.063-0.063 0.063-0.063 0.063-0.125c0-0.063 0.063-0.125 0.125-0.125 0 0.063 0.063 0 0.063-0.063 0-0.125 0-0.188 0.063-0.188s0.063-0.063 0.063-0.125 0.063-0.25 0.125-0.375c0.063-0.125 0.125-0.313 0.125-0.375s0.063-0.063 0.063-0.063 0.125-0.125 0.125-0.25c0-0.063 0-0.188 0.063-0.188s0.063-0.063 0.063-0.188c0-0.063 0.063-0.188 0.125-0.25 0-0.063 0.063-0.313 0.063-0.625 0-0.5 0-0.563-0.25-0.75-0.813-0.75-1.063-0.938-1.25-1.125l-0.25-0.188 0.25-0.188c0.125-0.125 0.313-0.188 0.313-0.188 0.063 0 0.125-0.063 0.25-0.188 0.063-0.063 0.125-0.125 0.188-0.125s0.125-0.063 0.125-0.063c0-0.063 0.063-0.188 0.188-0.313 0.188-0.188 0.25-0.313 0.25-0.375s0.063-0.125 0.125-0.188c0.063 0 0.063-0.313 0.125-0.75 0-0.625 0-0.688-0.125-0.875-0.125-0.125-0.25-0.188-0.563-0.188-0.25 0-0.438 0.063-0.375 0.063 0 0.063-0.063 0.125-0.25 0.125-0.125 0-0.313 0-0.313 0.063s-0.063 0.063-0.125 0.063c-0.063 0-0.063 0-0.063-0.063s0-0.063 0.063-0.063 0.188-0.125 0.375-0.313c0.125-0.125 0.313-0.25 0.375-0.25 0.063 0.063 0.125 0 0.063-0.063 0 0 0.063-0.188 0.25-0.375 0.625-0.688 0.688-0.813 0.688-0.938 0 0 0.063-0.063 0.063-0.063 0.063 0 0.125-0.063 0.125-0.125s0-0.125 0.063-0.125c0.063 0 0.063-0.063 0.063-0.125s0.063-0.125 0.125-0.125c0 0 0.063-0.063 0.063-0.125s0.188-0.313 0.5-0.625c0.25-0.25 0.438-0.5 0.438-0.563 0 0 0.063-0.063 0.125 0 0.063 0 0.125-0.063 0.063-0.188 0-0.125 0-0.188 0.063-0.125 0.063 0 0.063 0 0.063-0.125 0-0.063 0.063-0.188 0.063-0.188 0.063 0 0.125-0.125 0.125-0.313 0.063-0.25 0.125-0.375 0.188-0.375 0 0 0.063-0.063 0.063-0.188 0-0.063 0-0.125 0.063-0.125s0.063-0.063 0.063-0.188c0-0.063 0.063-0.125 0.063-0.125 0.063 0 0.125-0.125 0.125-0.313 0.063-0.125 0.125-0.25 0.125-0.25 0.063 0 0.125-0.125 0.125-0.188s0-0.188 0.063-0.188c0.063-0.063 0.063-0.188 0.063-0.313s0.063-0.188 0.125-0.188c0 0.063 0.063-0.125 0.063-0.375s0-0.438 0.063-0.438c0.063 0.063 0.188-1.438 0.188-2.438 0-0.688-0.125-1.188-0.188-1.125-0.063 0-0.063-0.063-0.063-0.188 0-0.188-0.063-0.25-0.063-0.25-0.063 0.063-0.125 0-0.125-0.063 0-0.125-0.25-0.188-0.25 0z"></path>
</svg>
