<!-- Generated by IcoMoon.io -->
<svg version="1.1" xmlns="http://www.w3.org/2000/svg" width="32" height="32" viewBox="0 0 32 32">
<title>Scared-away</title>
<path d="M15.25-1.875c-0.063 0.188 0 0.188 0.563 0.25 0.375 0.063 1.875 0.5 2.438 0.688 0.125 0.063 0.313 0.188 0.438 0.313l0.188 0.188h-0.688c-0.688 0-0.813 0-2.875 0.313-3.25 0.5-5 1.75-5.625 3.938-0.188 0.563-0.25 1.875-0.125 1.938 0.063 0 0.25 0 0.375 0l0.313-0.063 0.063-0.688c0-1.5 0.75-2.688 2.063-3.438 0.438-0.313 1.625-0.688 2.438-0.875 0.688-0.125 2.813-0.313 3.688-0.313h0.625l-0.25 0.438c-0.125 0.313-0.438 0.625-0.625 0.813-0.313 0.25-1.375 1.188-1.75 1.5l-0.188 0.125 0.188 0.25c0.188 0.313 0.25 0.375 0.625 0.125 0.5-0.375 1.938-1.688 2.125-1.938 0.313-0.438 0.688-1.25 0.75-1.563 0.063-0.5-0.125-0.75-0.688-1.188-0.5-0.438-0.75-0.5-1.625-0.75-0.563-0.188-2.375-0.188-2.438-0.063zM21.5 4c-0.188 0.063-0.375 0.188-0.563 0.25-0.125 0.125-1.813 1.688-3.688 3.563-1.813 1.875-3.375 3.438-3.438 3.438 0 0-0.063-0.063-0.063-0.188-0.125-0.25-0.625-0.813-0.938-0.938-1-0.563-2.25-0.063-2.75 1-0.125 0.25-0.563 0.938-1 1.563-1.625 2.563-2.875 4.875-3.188 5.938-0.188 0.625-0.25 2.25-0.125 3 0.188 1.188 0.75 2.375 1.563 3.438 0.938 1.188 2.25 2.375 3.313 2.938l0.563 0.25h4.313l0.5-0.25c0.313-0.125 0.688-0.313 0.875-0.5 0.563-0.375 6.938-6.75 7.125-7.125s0.188-1 0-1.438c-0.313-0.688-1.188-1.125-1.813-1-0.125 0-0.25 0-0.25-0.063 0 0 0.188-0.25 0.438-0.5 0.813-0.75 0.938-1.5 0.5-2.313-0.313-0.625-0.813-0.938-1.5-0.938-0.25 0-0.5 0-0.5 0 0-0.063 0.125-0.188 0.25-0.313 0.875-0.813 0.75-2.188-0.188-2.813-0.25-0.188-0.438-0.188-0.938-0.25h-0.563l2-2.063c2-2 2.063-2.063 2.188-2.5 0.25-1.063-0.438-2.063-1.563-2.188-0.188 0-0.438 0-0.563 0zM22.375 4.75c0.563 0.25 0.813 1 0.563 1.438-0.063 0.125-1.875 2-4.063 4.188-3.188 3.188-4 4.063-4 4.25 0 0.25 0.25 0.5 0.563 0.5 0.188 0 0.5-0.25 2.063-1.813 2.063-2.063 2.188-2.125 2.875-1.875 0.563 0.188 0.875 0.875 0.688 1.438-0.063 0.125-0.938 1.063-1.938 2.063-1.938 2-2 2.063-1.688 2.438 0.125 0.125 0.25 0.188 0.438 0.188s0.438-0.188 1.563-1.313c0.75-0.75 1.375-1.375 1.5-1.438 0.625-0.313 1.563 0.313 1.563 1 0 0.25-0.063 0.438-0.125 0.563 0 0.125-0.813 0.875-1.688 1.813-1.313 1.313-1.563 1.625-1.563 1.813 0 0.125 0 0.25 0.063 0.313 0.125 0.188 0.438 0.313 0.625 0.25 0.063-0.063 0.563-0.5 1.125-1 1-1 1.188-1.125 1.625-1 0.75 0.125 1.188 1 0.875 1.625-0.063 0.125-1.625 1.688-3.438 3.438-3.5 3.5-3.688 3.688-5 4.125-0.813 0.313-2.063 0.375-2.938 0.125-1.5-0.375-3-1.563-4.313-3.25-0.813-1.125-1.313-2.375-1.5-3.75-0.063-0.688 0.125-1.813 0.375-2.563 0.438-1.125 1.563-3.125 3.063-5.375 0.375-0.563 0.75-1.188 0.813-1.313 0.188-0.5 0.438-0.813 0.75-0.938 0.75-0.375 1.5-0.125 1.875 0.625 0.313 0.563 0.313 0.625-1.375 2.375-0.813 0.875-1.5 1.688-1.5 1.75 0 0.125 0.125 0.188 0.25 0.25 0.25 0.125 0.25 0.125 0.438-0.125 1.813-1.813 3.688-3.938 3.688-4.063 0-0.188 6.438-6.625 6.75-6.75 0.313-0.188 0.688-0.188 1 0z"></path>
</svg>
