<!-- Generated by IcoMoon.io -->
<svg version="1.1" xmlns="http://www.w3.org/2000/svg" width="32" height="32" viewBox="0 0 32 32">
<title>Scared-people</title>
<path d="M31 29.063c-0.125-0.063-0.375-0.063-0.438 0.125-0.875 1.188-1.875 1.375-2.5 1.313 1-4.125-3.813-5.563-3.813-5.563s0 0 0 0l-0.5-0.375-0.75-1.188c-0.063-0.25-0.125-0.625-0.188-0.625s-0.25 0.188-0.375 0.438c0-0.188-0.063-0.313-0.125-0.313s-0.25 0.25-0.375 0.438h-0.625l-0.375 0.25-0.75 0.375-0.063 0.125 0.125 0.813 0.25 0.188 0.438 0.188 0.875 1.625 1.25-0.688c-0.5 0.5-0.875 1.063-0.938 1.5 0 0 0 0.063 0 0.125 0 0.938-0.063 3.688 0.438 3.688 0.313 0.063 0.5-1.25 0.625-2.25 0.688 0.563 1.563 1.063 2.063 1.375 0.438-0.063 1-0.063 0.938-0.125-0.188-0.188-1.438-0.875-0.875-1.75 0.125-0.25 0.375-0.25 0.625-0.188-0.125 0.063-0.25 0.125-0.375 0.25-0.5 0.813 0.75 1.563 0.875 1.688s-0.875 0.125-1.313 0.313c-0.188 0.125-0.25 0.375-0.188 0.5 0.063 0.188 0.875 0.25 1.625 0.25 0.688 0 1.313-0.063 1.375-0.188 0 0 0-0.125 0-0.188 0.063 0 0.188 0 0.25 0 0.813 0 1.938-0.25 2.875-1.625 0.125-0.188 0.063-0.375-0.063-0.5zM21.313 24.125c-0.125 0.063-0.25 0.063-0.313 0-0.125-0.063-0.125-0.188-0.063-0.25 0.063-0.125 0.25-0.125 0.313-0.063s0.125 0.188 0.063 0.313zM11.5 11.25h0.313l0.813 1.75-7.188 1.438c-0.563 0.063-0.938 0.625-0.813 1.188 0.125 0.5 0.563 0.875 1.063 0.875 0.063 0 0.125 0 0.188-0.063l8.438-1.625c0.313-0.063 0.563-0.25 0.688-0.5 0.188-0.313 0.188-0.625 0.063-0.938l-1.063-2.375-0.563-1.25c-0.125-0.188-0.188-0.375-0.375-0.438-0.188-0.188-0.5-0.25-0.813-0.25l-5 0.75c-0.063 0-0.125 0.063-0.188 0.063s-0.125 0.063-0.188 0.063l-3.125 1.063 0.938-3.563c0.125-0.563-0.188-1.125-0.75-1.25-0.563-0.188-1.125 0.188-1.313 0.75l-1.375 5.375c-0.125 0.375 0 0.813 0.313 1.063 0.188 0.188 0.438 0.25 0.688 0.25 0.125 0 0.25 0 0.313-0.063l4.063-1.313 0.25 1.563 5.313-1zM8.875 9.188c1.563-0.25 2.688-1.75 2.438-3.375s-1.75-2.688-3.313-2.5c-1.625 0.25-2.75 1.75-2.5 3.375s1.75 2.75 3.375 2.5zM8.75 7.188c0.25-0.563 0.688-0.875 1.125-0.688 0.375 0.188 0.5 0.75 0.25 1.25-0.25 0.563-0.75 0.875-1.125 0.688-0.375-0.125-0.5-0.688-0.25-1.25zM14.75 19.25c0-0.063 0-0.063 0-0.063 0-0.063 0-0.063 0-0.125 0.063-0.063 0.063-0.188 0-0.25l-0.5-3.688-7 1.375 0.188 1.125-2.313 0.063c-0.625 0-1.188 0.375-1.438 1l-2.75 6.813c-0.313 0.813 0.125 1.688 0.938 2 0.188 0.125 0.375 0.125 0.563 0.125 0.625 0 1.188-0.375 1.438-1l2.313-5.813h2.188l-1.438 1c-0.563 0.375-0.813 1.125-0.625 1.813l2.563 7.313c0.188 0.625 0.813 1.063 1.438 1.063 0.188 0 0.375 0 0.563-0.063 0.813-0.313 1.25-1.188 0.938-2l-2.125-6.25 4.438-3.063c0.438-0.313 0.688-0.875 0.625-1.375zM14.125 1.688l-1.688 0.5 0.188-2c0-0.063-0.063-0.125-0.125-0.188-0.063 0-0.188 0-0.188 0.063l-1.375 1.5-0.625-1.375c0-0.063-0.063-0.125-0.188-0.125-0.063 0.063-0.125 0.063-0.125 0.188l-0.375 1.188-1.25-1.188c-0.063-0.063-0.125-0.063-0.25 0-0.063 0-0.063 0.125-0.063 0.188l0.313 1.813c0 0.125 0.125 0.188 0.25 0.125 0.063 0 0.188-0.125 0.125-0.188l-0.188-1.188 1 0.938c0.063 0.063 0.125 0.063 0.188 0.063s0.125-0.063 0.125-0.125l0.313-1 0.563 1.125c0 0.063 0.063 0.125 0.125 0.125s0.125 0 0.188-0.063l1.125-1.313-0.125 1.688c0 0.063 0 0.125 0.063 0.125 0.063 0.063 0.125 0.063 0.188 0.063l1.438-0.375-0.938 1.313c-0.063 0.063-0.063 0.125-0.063 0.188 0.063 0.063 0.125 0.125 0.188 0.125l1.375 0.25-1.625 0.813c-0.063 0.063-0.125 0.125-0.125 0.188s0 0.125 0.063 0.125l0.688 0.813-1-0.063c-0.125-0.063-0.188 0.063-0.25 0.125 0 0.125 0.125 0.25 0.188 0.25l1.5 0.125c0 0 0 0 0.063 0s0.125-0.063 0.125-0.125c0.063-0.063 0.063-0.188 0-0.25l-0.875-0.938 1.938-1c0.063 0 0.125-0.125 0.063-0.188 0-0.063-0.063-0.125-0.125-0.188l-1.625-0.25 1.063-1.563c0-0.063 0-0.125 0-0.25-0.063-0.063-0.125-0.063-0.25-0.063zM4.75 2.875c-0.5-1.063-2.375-1.5-2.563-0.5-0.125 0.938 0.938 0.25 2.563 0.5zM6.063 2.563c0.375-0.875-0.438-2.188-1.063-1.75-0.688 0.438 0.313 0.688 1.063 1.75zM4.938 4.625c-0.5-0.688-1.813-0.75-1.813-0.063s0.625 0.063 1.813 0.063z"></path>
</svg>
