<!-- Generated by IcoMoon.io -->
<svg version="1.1" xmlns="http://www.w3.org/2000/svg" width="32" height="32" viewBox="0 0 32 32">
<title>scent-marks</title>
<path d="M16.688 25.563v0c0.063 0 0.063 0 0.125 0 0.938-0.063 1.875-0.25 2.688-0.688 1.063-0.5 3-0.188 3.688-0.063 0.063 0.063 2.563 0.563 4.313-0.75 0.875-0.5 1.5-1.25 1.813-2.125 0.375-1.063 0.188-2.188-0.5-3.438-0.125-0.125-0.25-0.25-0.438-0.25s-0.375 0.125-0.438 0.25c-0.063 0.188-0.125 0.375 0 0.5 0.563 1 0.688 1.875 0.438 2.625-0.25 0.625-0.688 1.188-1.313 1.563h-0.125c-1.375 1.125-3.563 0.688-3.563 0.688-0.125 0-2.75-0.625-4.313 0.125-0.688 0.313-1.5 0.5-2.25 0.563-2.313-0.313-3.75-1.125-4.313-2.438-0.688-1.75 0.375-4.063 1-4.875 0.188-0.188 0.563-0.625 1-1.188 1.625-1.813 4.5-5.188 6-7.688 1.938-3.063 5.625-7.5 5.625-7.563 0.188-0.188 0.188-0.5-0.063-0.688-0.188-0.188-0.5-0.188-0.688 0.063-0.188 0.188-3.75 4.5-5.688 7.688-1.5 2.438-4.375 5.75-5.938 7.563-0.438 0.563-0.813 1-1 1.188-0.625 0.813-2.125 3.5-1.125 5.875 0.688 1.688 2.375 2.688 5.063 3.063zM4.75 30.875c0.188 0.125 0.5 0.125 0.688-0.063l4.625-5.688c0.188-0.188 0.125-0.5-0.063-0.688s-0.5-0.125-0.688 0.063l-4.625 5.625c-0.188 0.25-0.188 0.563 0.063 0.75zM2.625 19.813l5.625 0.875c0 0 0.063 0 0.063 0 0.25 0 0.5-0.188 0.5-0.438s-0.188-0.5-0.438-0.563l-5.563-0.875c-0.313 0-0.563 0.188-0.563 0.438-0.063 0.25 0.125 0.5 0.375 0.563zM21.063 26.563v0c0.25 0 0.438 0.188 0.438 0.438v4.25c0 0.25-0.188 0.5-0.438 0.5h-0.063c-0.25 0-0.438-0.25-0.438-0.5v-4.25c0-0.25 0.188-0.438 0.5-0.438zM26.5 27.063c-0.188 0.125-0.25 0.438-0.125 0.688l2.5 4c0.125 0.188 0.438 0.25 0.688 0.125 0.188-0.125 0.313-0.438 0.125-0.688l-2.5-3.938c-0.125-0.25-0.438-0.313-0.688-0.188zM14.125 27.688l-1.25 3.625c-0.063 0.188-0.063 0.375 0.063 0.5s0.313 0.188 0.5 0.188c0.188-0.063 0.313-0.188 0.375-0.313l1.25-3.688c0.063-0.125 0-0.313-0.125-0.438-0.125-0.188-0.313-0.25-0.438-0.188-0.188 0-0.375 0.125-0.375 0.313z"></path>
</svg>
