<!-- Generated by IcoMoon.io -->
<svg version="1.1" xmlns="http://www.w3.org/2000/svg" width="32" height="32" viewBox="0 0 32 32">
<title>Scooter</title>
<path d="M4.063 22.313c0.625 1.688 2.188 2.75 3.938 2.75 1.75 0.063 3.313-1.125 3.938-2.75 0.125-0.188-0.063-0.5-0.313-0.563s-0.5 0.125-0.563 0.313c-0.5 1.25-1.75 2.063-3.063 2.063-1.313 0.063-2.563-0.813-3-2.063-0.125-0.188-0.313-0.375-0.563-0.313s-0.438 0.375-0.375 0.563zM31.125 17.313c0-0.188-0.125-0.313-0.125-0.438-0.125-0.25-0.188-0.438-0.313-0.625-0.313-0.75-0.625-1.5-0.938-2.188-0.75-1.813-1.5-3.688-2.313-5.5-0.25-0.688-0.563-1.375-0.875-2.063-0.063-0.25-0.438-0.25-0.625-0.125-0.25 0.125-0.25 0.375-0.188 0.625 1.25 2.875 2.438 5.75 3.688 8.625 0.25 0.625 0.5 1.25 0.813 1.875 0-0.063-0.063-0.125-0.063-0.188 0 0.563 0.938 0.563 0.938 0zM22.438 6.75c0.063 0.375 0.188 0.75 0.313 1.063 0.25 0.688 0.438 1.375 0.688 2.063 0.313 1 0.688 2 1 3 0.125-0.188 0.25-0.375 0.313-0.563-1.875 0.5-3.438 1.625-4.625 3.188-1.25 1.75-1.75 4.063-1.5 6.188 0.125-0.188 0.313-0.313 0.438-0.5-0.438 0-0.875 0-1.375 0 0.188 0.188 0.313 0.313 0.5 0.5 0.063-0.75 0.125-1.5 0.063-2.25 0-0.563-0.938-0.563-0.938 0 0.063 0.75 0 1.5-0.063 2.25-0.063 0.25 0.188 0.438 0.438 0.438 0.5 0 0.938 0 1.375 0 0.25 0 0.5-0.188 0.5-0.438-0.188-1.938 0.188-3.938 1.313-5.563 0.938-1.438 2.5-2.438 4.125-2.875 0.25-0.063 0.438-0.375 0.375-0.625-0.375-0.938-0.688-1.938-1-2.875-0.25-0.688-0.438-1.375-0.688-2-0.063-0.25-0.125-0.5-0.188-0.688-0.063-0.125-0.125-0.188-0.125-0.313 0-0.563-0.938-0.625-0.938 0zM30.125 19.375c0.813 1.75 0 3.875-1.813 4.563s-3.813-0.438-4.313-2.25c-0.125-0.563-1.063-0.375-0.875 0.25 0.625 2.313 3.125 3.688 5.438 2.875 1.063-0.313 1.938-1.125 2.438-2.125 0.563-1.188 0.5-2.563-0.063-3.75-0.313-0.563-1.125-0.063-0.813 0.438zM6.5 15.25c-2.125 0.688-3.875 2.063-5.125 3.938-0.563 0.875-1.063 1.875-1.25 2.875-0.125 0.313 0.125 0.625 0.438 0.625 2.875 0 5.75 0 8.688 0 1.875 0 3.813 0 5.688 0 0.188 0 0.375-0.125 0.438-0.375 0.313-0.875 0.375-1.938 0.25-2.875-0.063-0.875-0.313-1.688-0.75-2.375-0.563-0.875-1.438-1.438-2.375-1.813-0.563-0.188-0.813 0.688-0.25 0.938 0.75 0.25 1.438 0.75 1.875 1.438 0.375 0.625 0.563 1.313 0.625 2 0 0.313 0 0.625 0 0.938-0.063 0.313-0.063 0.5-0.125 0.75 0 0.25-0.063 0.5-0.125 0.75 0.125-0.063 0.313-0.188 0.438-0.313-2.938 0-5.938 0-8.875 0-1.813 0-3.688 0-5.5 0 0.125 0.188 0.313 0.375 0.438 0.563 0.188-0.875 0.563-1.625 1.125-2.5 1.063-1.688 2.688-3.063 4.625-3.625 0.563-0.188 0.313-1.125-0.25-0.938zM28.063 20.188c0.438 0.625 0.25 1.5-0.5 1.75-0.563 0.188-1.5-0.188-1.5-0.875 0-0.625-0.938-0.625-0.938 0 0 1.313 1.438 2.125 2.625 1.813 1.375-0.313 1.938-2.063 1.125-3.188-0.313-0.5-1.125 0-0.813 0.5zM10.688 16.938c-0.75 0-1.438 0-2.188 0-0.438 0-0.875 0-1.25 0-0.438 0-0.875 0.063-1.125 0.438-0.438 0.688 0 1.563 0.813 1.563 0.313 0 0.563 0 0.875 0 0.875 0 1.75 0 2.688 0 0.375 0 0.75-0.063 1-0.438 0.438-0.688-0.063-1.5-0.813-1.563-0.625-0.063-0.625 0.875 0 0.938 0.125 0 0.063 0.125 0 0.125-0.125 0-0.25 0-0.313 0-0.438 0-0.875 0-1.313 0-0.688 0-1.375 0-2.125 0-0.063 0-0.063-0.125 0.063-0.125 0.063 0 0.188 0 0.25 0 0.438 0 0.875 0 1.313 0 0.688 0 1.438 0 2.125 0 0.563 0 0.563-0.938 0-0.938zM10.688 19.063c-0.75 0-1.438 0-2.188 0-0.438 0-0.875 0-1.25 0-0.438 0-0.875 0.063-1.125 0.438-0.438 0.688 0 1.563 0.813 1.563 0.313 0 0.563 0 0.875 0 0.875 0 1.75 0 2.688 0 0.375 0 0.75-0.063 1-0.438 0.438-0.688-0.063-1.5-0.813-1.563-0.625-0.063-0.625 0.875 0 0.938 0.125 0 0.063 0.125 0 0.125-0.125 0-0.25 0-0.313 0-0.438 0-0.875 0-1.313 0-0.688 0-1.375 0-2.125 0-0.063 0-0.063-0.125 0.063-0.125 0.063 0 0.188 0 0.25 0 0.438 0 0.875 0 1.313 0 0.688 0 1.438 0 2.125 0 0.563 0 0.563-0.938 0-0.938zM27 3.188c-0.813-0.563-1.875-0.063-2.688 0.25-0.438 0.125-0.938 0.25-1.375 0.375-0.313 0.125-0.688 0.188-0.938 0.375-1.125 0.875-0.625 3.063 0.938 3.063 0.813 0 1.625 0 2.375 0 0.313 0 0.563 0 0.813 0 0.688 0 1.313-0.5 1.5-1.188 0.125-0.375 0.063-0.875 0.063-1.313 0-0.563-0.125-1.063-0.625-1.5-0.188-0.125-0.438-0.188-0.625 0s-0.188 0.5 0 0.688c0.375 0.313 0.313 0.813 0.313 1.25s0.063 0.938-0.438 1.063c-0.25 0.063-0.563 0.063-0.813 0.063-0.5 0-1 0-1.5 0-0.313 0-0.688 0-1.063 0-0.5 0-0.625-0.438-0.625-0.875s0.313-0.563 0.625-0.625c0.438-0.125 0.875-0.25 1.25-0.375 0.438-0.125 0.875-0.313 1.375-0.438 0.313-0.063 0.625-0.188 0.938 0 0.5 0.375 1-0.438 0.5-0.813zM31.125 17.313c0-0.313-0.313-0.563-0.438-0.75-0.25-0.188-0.5-0.438-0.75-0.625-0.563-0.375-1.125-0.625-1.813-0.813-1.25-0.313-2.563-0.125-3.75 0.5s-2 1.688-2.5 2.938c-0.438 1.25-0.313 2.625 0.25 3.875 0.063 0.188 0.313 0.313 0.5 0.188 1.063-0.375 2.063-0.75 3.125-1.125 0.188-0.125 0.313-0.25 0.313-0.5-0.125 0.188-0.25 0.313-0.313 0.5 1.938-0.75 3.875-1.5 5.813-2.25 0.25-0.063 0.438-0.313 0.313-0.563-0.188-0.625-0.438-1.125-0.813-1.625-0.188-0.25-0.438-0.313-0.688-0.188-0.188 0.125-0.313 0.438-0.125 0.625 0.313 0.438 0.563 0.938 0.75 1.438 0.125-0.188 0.188-0.375 0.313-0.563-1.938 0.688-3.875 1.438-5.875 2.188-0.188 0.063-0.313 0.25-0.313 0.438 0.125-0.125 0.25-0.25 0.313-0.438-1 0.438-2 0.813-3.063 1.188 0.188 0.063 0.375 0.125 0.563 0.188-0.875-1.938-0.063-4.313 1.75-5.438 1.875-1.125 4.25-0.563 5.625 1.125-0.063-0.125-0.125-0.25-0.125-0.375 0 0.625 0.938 0.625 0.938 0.063zM14.875 13.875c-0.063 0.75-0.625 1.375-1.375 1.375-0.125 0-0.25 0-0.375 0-0.813 0-1.563 0-2.375 0-1.688 0-3.313 0-5 0-0.313 0-0.625-0.063-0.875-0.25-0.625-0.375-0.688-1.188-0.375-1.75 0.375-0.75 1.125-0.688 1.813-0.688 1.875 0 3.688 0 5.563 0 0.5 0 1 0 1.5 0 0.813 0 1.438 0.5 1.5 1.313 0 0.625 0.938 0.625 0.938 0-0.063-1.25-1.063-2.25-2.375-2.25-0.563 0-1.188 0-1.75 0-1.875 0-3.688 0-5.5 0-0.188 0-0.375 0-0.5 0-0.688 0-1.313 0.313-1.75 0.813-1.125 1.25-0.438 3.25 1.188 3.688 0.5 0.125 1.063 0.063 1.563 0.063 0.938 0 1.875 0 2.813 0 1.188 0 2.313 0 3.5 0 0.25 0 0.563 0 0.875-0.063 1.125-0.125 1.875-1.125 1.938-2.25 0-0.563-0.938-0.563-0.938 0zM17.813 19c-0.875 0-1.75 0-2.625 0-0.625 0-0.625 0.938 0 0.938 0.875 0 1.75 0 2.625 0 0.563 0 0.563-0.938 0-0.938z"></path>
</svg>
