<!-- Generated by IcoMoon.io -->
<svg version="1.1" xmlns="http://www.w3.org/2000/svg" width="32" height="32" viewBox="0 0 32 32">
<title>Scorpion</title>
<path d="M0.938-2.313h-0.188c-0.063 0.125-0.125 0.188-0.25 0.188s-0.25-0.125-0.25-0.375c0-0.188 0.125-0.313 0.25-0.313s0.188 0.063 0.25 0.188h0.188c-0.063-0.25-0.188-0.375-0.438-0.375s-0.438 0.188-0.438 0.5c0 0.313 0.188 0.5 0.438 0.5s0.375-0.125 0.438-0.313zM0.5-2.563v-0.188c0 0 0 0 0 0-0.125 0-0.188 0.063-0.25 0.188v-0.188h-0.188v0.75h0.188v-0.375c0-0.125 0.063-0.188 0.188-0.188 0 0 0 0 0.063 0zM0.688-2.313c0-0.25-0.125-0.438-0.313-0.438s-0.375 0.188-0.375 0.375c0 0.25 0.125 0.375 0.375 0.375 0.125 0 0.25-0.063 0.313-0.188h-0.188c0 0.063-0.063 0.063-0.125 0.063-0.125 0-0.125-0.063-0.188-0.188h0.5zM0.5-2.438h-0.25c0-0.125 0-0.125 0.125-0.125 0.063 0 0.125 0 0.125 0.125zM0.688-2v0c0-0.063 0-0.063 0-0.125v-0.375c0-0.188-0.125-0.25-0.313-0.25s-0.313 0.125-0.313 0.25h0.188c0-0.063 0-0.063 0.125-0.063 0.063 0 0.125 0 0.125 0.063s-0.063 0.063-0.188 0.063h-0.063c-0.125 0.063-0.188 0.125-0.188 0.25s0.063 0.188 0.188 0.188c0.063 0 0.188 0 0.25-0.063 0 0 0 0.063 0 0.063zM0.5-2.313c0 0.125-0.063 0.188-0.188 0.188-0.063 0-0.063-0.063-0.063-0.063 0-0.063 0-0.125 0.063-0.125h0.063c0.063 0 0.063 0 0.125 0zM0.375-2v-0.125c0 0 0 0 0 0-0.063 0-0.063 0-0.063-0.063v-0.375h0.063v-0.125h-0.063v-0.188h-0.188v0.188h-0.125v0.125h0.125v0.438c0 0.063 0.063 0.125 0.188 0.125 0 0 0.063 0 0.063 0zM0.75-2v-1h-0.188v0.375c-0.063-0.063-0.125-0.125-0.25-0.125s-0.25 0.188-0.25 0.375c0 0.25 0.063 0.375 0.25 0.375 0.125 0 0.188 0 0.25-0.063v0.063zM0.563-2.375c0 0.125-0.063 0.25-0.188 0.25-0.063 0-0.125-0.125-0.125-0.25s0.063-0.188 0.125-0.188c0.125 0 0.188 0.063 0.188 0.188zM0.75-2.375c0-0.188-0.125-0.375-0.313-0.375-0.063 0-0.125 0.063-0.188 0.125v-0.375h-0.188v1h0.188v-0.063c0.063 0.063 0.125 0.063 0.188 0.063 0.188 0 0.313-0.125 0.313-0.375zM0.563-2.375c0 0.125-0.063 0.25-0.125 0.25-0.125 0-0.188-0.125-0.188-0.25s0.063-0.188 0.188-0.188c0.063 0 0.125 0.063 0.125 0.188zM0.688-2.75h-0.188l-0.125 0.563-0.188-0.563h-0.188l0.25 0.75v0.063c0 0.063 0 0.063-0.063 0.063s-0.063 0-0.063 0v0.188c0 0 0.063 0 0.063 0 0.125 0 0.188-0.063 0.25-0.188zM0.25-2v-0.75h-0.188v0.75zM0.25-2.813v-0.188h-0.188v0.188zM0.688-2.25h-0.188c0 0.063-0.063 0.125-0.125 0.125s-0.125-0.063-0.125-0.25c0-0.125 0-0.188 0.125-0.188 0.063 0 0.125 0 0.125 0.125h0.188c0-0.188-0.125-0.313-0.313-0.313s-0.313 0.125-0.313 0.375c0 0.25 0.125 0.375 0.313 0.375s0.313-0.125 0.313-0.25zM0.75-2.375c0-0.25-0.125-0.375-0.375-0.375-0.188 0-0.313 0.125-0.313 0.375s0.125 0.375 0.313 0.375c0.25 0 0.375-0.125 0.375-0.375zM0.563-2.375c0 0.125-0.063 0.25-0.188 0.25-0.063 0-0.125-0.125-0.125-0.25s0.063-0.188 0.125-0.188c0.125 0 0.188 0.063 0.188 0.188zM0.75-2v-0.5c0-0.125-0.125-0.25-0.25-0.25s-0.188 0.063-0.25 0.125v-0.125h-0.188v0.75h0.188v-0.438c0-0.063 0.063-0.125 0.188-0.125 0.063 0 0.125 0.063 0.125 0.125v0.438zM0.688-2.188v-0.063c0-0.063-0.063-0.125-0.125-0.125l-0.25-0.063c-0.063-0.063-0.063-0.063-0.063-0.063 0-0.063 0.063-0.063 0.125-0.063s0.125 0 0.125 0.063h0.188c0-0.125-0.125-0.25-0.313-0.25s-0.313 0.125-0.313 0.25c0 0.125 0 0.125 0.188 0.188l0.188 0.063c0.063 0 0.063 0.063 0.063 0.063 0 0.063-0.063 0.063-0.125 0.063s-0.125 0-0.125-0.125h-0.188c0 0.188 0.125 0.25 0.313 0.25s0.313-0.063 0.313-0.188zM1.125-2v-0.5c0-0.125-0.125-0.25-0.25-0.25s-0.188 0.063-0.188 0.125c-0.063-0.063-0.125-0.125-0.25-0.125-0.063 0-0.125 0.063-0.188 0.125v-0.125h-0.188v0.75h0.188v-0.438c0-0.063 0.063-0.125 0.125-0.125s0.125 0 0.125 0.063v0.5h0.188v-0.438c0-0.063 0.063-0.125 0.125-0.125s0.125 0 0.125 0.063v0.5zM0.313-2v-0.188h-0.25v0.188zM0.438-2.563v-0.125h-0.125v-0.063c0-0.063 0-0.063 0.063-0.063 0 0 0 0 0.063 0v-0.125c-0.063-0.063-0.125-0.063-0.125-0.063-0.125 0-0.188 0.063-0.188 0.188v0.125h-0.125v0.125h0.125v0.563h0.188v-0.563zM0.75-2v-0.5c0-0.125-0.125-0.25-0.25-0.25s-0.188 0.063-0.25 0.125v-0.375h-0.188v1h0.188v-0.438c0-0.063 0.063-0.125 0.188-0.125 0.063 0 0.125 0 0.125 0.125v0.438zM0.875-2v-1h-0.188v0.688l-0.375-0.688h-0.25v1h0.25v-0.688l0.375 0.688zM0.75-2v-0.75h-0.188v0.438c0 0.125-0.063 0.188-0.188 0.188-0.063 0-0.125-0.063-0.125-0.125v-0.5h-0.188v0.5c0 0.188 0.125 0.25 0.25 0.25s0.188 0 0.25-0.125v0.125zM0.875-2.688c0-0.188-0.125-0.313-0.375-0.313h-0.375v1h0.188v-0.375h0.25c0.188 0 0.313-0.125 0.313-0.313zM0.625-2.688c0 0.125 0 0.188-0.125 0.188h-0.188v-0.313h0.188c0.125 0 0.125 0.063 0.125 0.125zM0.25-1.875v-0.875h-0.125v0.813c0 0.063-0.063 0.063-0.063 0.063-0.063 0-0.063 0-0.063 0v0.188c0.063 0 0.063 0 0.125 0 0.125 0 0.125-0.063 0.125-0.188zM0.25-2.813v-0.188h-0.125v0.188zM24.25 6.438c-1 0-1.813 0.375-2.375 0.938-1.75-0.25-3.625 0.25-5.25 1.563-1.563-0.563-3.625-0.688-5-0.75-3.5 0-5-2.625-5.875-4.938-0.063-2.875 2.813-3.938 3.875-4.125 2.313-0.375 5.375 0.563 6.5 2.875-0.5 0.938-0.438 2.688-0.063 3.375 0.188 0.25 0.5 0.375 0.75 0.25s0.375-0.5 0.188-0.75c-0.188-0.375-0.25-1.188-0.125-1.75 0.438 0.875 0.75 2.5 0.438 3.125-0.125 0.25-0.063 0.625 0.25 0.75 0.063 0 0.125 0.063 0.188 0.063 0.25 0 0.438-0.125 0.5-0.313 0.625-1.188 0-3.875-1-4.875 0-0.063 0-0.063-0.063-0.125-1.313-3-5-4.125-7.75-3.688-2.75 0.5-5.188 2.75-5.188 5.188v0c0 0 0 0.25 0 0.25 0 2.5 0.938 4.5 2.313 6.125-1.25-0.063-2.438 0.313-3.313 1.375-0.188 0.188-0.125 0.563 0.125 0.75 0.063 0.063 0.25 0.125 0.375 0.125s0.313-0.063 0.375-0.25c0.688-0.813 1.813-1 2.75-0.938-1.438 0.438-3 1.375-3.625 4-0.063 0.25 0.063 0.563 0.375 0.625 0.063 0 0.063 0 0.125 0 0.25 0 0.438-0.125 0.5-0.375 0.563-2.313 2-3 3.375-3.313-1.688 1.188-3.188 3.313-2.938 6.125 0 0.313 0.25 0.5 0.5 0.5 0.063 0 0.063 0 0.063 0 0.313 0 0.5-0.313 0.5-0.563-0.25-3 1.875-5.125 3.563-5.813 0 0 0 0.063 0 0.063-1.563 1.125-2.938 3.313-2.438 7.5 0 0.25 0.25 0.438 0.5 0.438 0 0 0.063 0 0.063 0 0.313 0 0.5-0.313 0.5-0.563-0.438-3.25 0.438-5.625 2.438-6.813 0 0 0.063 0 0.063 0 0 0.188 0.063 0.375 0.063 0.5-0.75 0.625-1.5 1.75-1.563 3.063 0 0.938 0.375 2.313 2.125 3.563-0.063 0.875 0.188 1.75 0.75 2.375 1 1.188 2.875 1.625 4.25 1.625 0 0 0 0 0 0 0.313 0 0.563-0.25 0.563-0.563 0-0.25-0.188-0.5-0.5-0.563s-1-0.75-1.625-1.438c1.313 0.125 2.5 0.688 2.875 1.063 0.188 0.125 0.5 0.125 0.688 0s0.25-0.375 0.188-0.625c-0.75-1.875-2.75-3.188-4.813-3.188-0.625 0-1.25 0.125-1.813 0.438-1.063-0.813-1.625-1.688-1.625-2.688 0.063-0.875 0.563-1.688 1.125-2.188 0.813 0.688 2.125 0.875 3.063 0.813 0.563 2.125 2.313 3.313 4.875 3.313 1.25 0 2.625-0.313 3.625-0.875 0.25-0.125 0.313-0.375 0.25-0.625s-0.313-0.438-0.563-0.375c-1.813 0.25-3.313-0.813-3.563-1.5-0.063-0.188 0-0.25 0-0.313 0.25-0.188 0.813-0.438 1.75-0.438 1.313 0 2.688 0.5 3.75 1.313 0.188 0.125 0.438 0.125 0.625 0 0.188-0.188 0.25-0.438 0.188-0.625-1.188-3.25-4.563-4.313-6.375-4.25-0.25-0.313-0.625-0.625-1.063-0.875 1.313-0.875 2.688-1.188 4.063-1 0.625 1.813 2.938 3.25 4.188 3.25 0.125 0 0.25 0 0.313-0.063 0.25 0 0.375-0.188 0.438-0.438 0.063-0.188-0.063-0.438-0.313-0.563-0.5-0.25-0.813-0.563-1.063-0.875 0.875 0.313 2.063 0.875 2.75 1.313 0.125 0.125 0.375 0.125 0.563 0s0.313-0.375 0.25-0.563c-0.813-3-3-4.063-4.625-4.063z"></path>
</svg>
