<!-- Generated by IcoMoon.io -->
<svg version="1.1" xmlns="http://www.w3.org/2000/svg" width="32" height="32" viewBox="0 0 32 32">
<title>scratch-marks</title>
<path d="M2.813 28.375c-0.063 0.188 0 0.438 0.125 0.563s0.375 0.188 0.563 0.125c1.625-0.625 5.75-2.75 13.563-10.063 8.25-7.75 10.688-12.875 11.438-14.813 0.063-0.188 0-0.375-0.125-0.5-0.188-0.188-0.375-0.188-0.563-0.125-1.688 0.625-5.75 2.688-13.563 10.063-8.25 7.75-10.75 12.813-11.438 14.75zM1.813 17.375c1.063-0.438 3.688-1.75 8.625-6.375 5.188-4.938 6.75-8.125 7.188-9.375 0.063-0.063 0-0.25-0.063-0.313-0.125-0.063-0.25-0.125-0.375-0.063-1 0.375-3.625 1.688-8.563 6.375-5.188 4.875-6.75 8.063-7.188 9.313-0.063 0.125 0 0.25 0.063 0.313 0.063 0.125 0.25 0.125 0.313 0.125zM14.375 30.375c-0.063 0.063 0 0.25 0.063 0.313 0.125 0.063 0.25 0.125 0.375 0.063 1-0.375 3.625-1.688 8.563-6.375 5.188-4.875 6.75-8.063 7.188-9.313 0.063-0.125 0-0.25-0.063-0.313-0.063-0.125-0.25-0.125-0.313-0.125-1.063 0.438-3.688 1.75-8.625 6.375-5.188 4.938-6.75 8.125-7.188 9.375z"></path>
</svg>
