<?xml version="1.0" encoding="UTF-8"?>
<svg width="700pt" height="700pt" version="1.1" viewBox="0 0 700 700" xmlns="http://www.w3.org/2000/svg" xmlns:xlink="http://www.w3.org/1999/xlink">
 <defs>
  <symbol id="y" overflow="visible">
   <path d="m18.766-1.125c-0.96875 0.5-1.9805 0.875-3.0312 1.125-1.043 0.25781-2.1367 0.39062-3.2812 0.39062-3.3984 0-6.0898-0.94531-8.0781-2.8438-1.9922-1.9062-2.9844-4.4844-2.9844-7.7344 0-3.2578 0.99219-5.8359 2.9844-7.7344 1.9883-1.9062 4.6797-2.8594 8.0781-2.8594 1.1445 0 2.2383 0.13281 3.2812 0.39062 1.0508 0.25 2.0625 0.625 3.0312 1.125v4.2188c-0.98047-0.65625-1.9453-1.1406-2.8906-1.4531-0.94922-0.3125-1.9492-0.46875-3-0.46875-1.875 0-3.3516 0.60547-4.4219 1.8125-1.0742 1.1992-1.6094 2.8555-1.6094 4.9688 0 2.1055 0.53516 3.7617 1.6094 4.9688 1.0703 1.1992 2.5469 1.7969 4.4219 1.7969 1.0508 0 2.0508-0.14844 3-0.45312 0.94531-0.3125 1.9102-0.80078 2.8906-1.4688z"/>
  </symbol>
  <symbol id="d" overflow="visible">
   <path d="m13.734-11.141c-0.4375-0.19531-0.87109-0.34375-1.2969-0.4375-0.41797-0.10156-0.83984-0.15625-1.2656-0.15625-1.2617 0-2.2305 0.40625-2.9062 1.2188-0.67969 0.80469-1.0156 1.9531-1.0156 3.4531v7.0625h-4.8906v-15.312h4.8906v2.5156c0.625-1 1.3438-1.7266 2.1562-2.1875 0.82031-0.46875 1.8008-0.70312 2.9375-0.70312 0.16406 0 0.34375 0.011719 0.53125 0.03125 0.19531 0.011719 0.47656 0.039062 0.84375 0.078125z"/>
  </symbol>
  <symbol id="a" overflow="visible">
   <path d="m17.641-7.7031v1.4062h-11.453c0.125 1.1484 0.53906 2.0078 1.25 2.5781 0.70703 0.57422 1.7031 0.85938 2.9844 0.85938 1.0312 0 2.082-0.14844 3.1562-0.45312 1.082-0.3125 2.1914-0.77344 3.3281-1.3906v3.7656c-1.1562 0.4375-2.3125 0.76562-3.4688 0.98438-1.1562 0.22656-2.3125 0.34375-3.4688 0.34375-2.7734 0-4.9297-0.70312-6.4688-2.1094-1.5312-1.4062-2.2969-3.3789-2.2969-5.9219 0-2.5 0.75391-4.4609 2.2656-5.8906 1.5078-1.4375 3.582-2.1562 6.2188-2.1562 2.4062 0 4.332 0.73047 5.7812 2.1875 1.4453 1.4492 2.1719 3.3828 2.1719 5.7969zm-5.0312-1.625c0-0.92578-0.27344-1.6719-0.8125-2.2344-0.54297-0.57031-1.25-0.85938-2.125-0.85938-0.94922 0-1.7188 0.26562-2.3125 0.79688s-0.96484 1.2969-1.1094 2.2969z"/>
  </symbol>
  <symbol id="e" overflow="visible">
   <path d="m9.2188-6.8906c-1.0234 0-1.793 0.17188-2.3125 0.51562-0.51172 0.34375-0.76562 0.85547-0.76562 1.5312 0 0.625 0.20703 1.1172 0.625 1.4688 0.41406 0.34375 0.98828 0.51562 1.7188 0.51562 0.92578 0 1.7031-0.32812 2.3281-0.98438 0.63281-0.66406 0.95312-1.4922 0.95312-2.4844v-0.5625zm7.4688-1.8438v8.7344h-4.9219v-2.2656c-0.65625 0.92969-1.3984 1.6055-2.2188 2.0312-0.82422 0.41406-1.8242 0.625-3 0.625-1.5859 0-2.8711-0.45703-3.8594-1.375-0.99219-0.92578-1.4844-2.1289-1.4844-3.6094 0-1.7891 0.61328-3.1016 1.8438-3.9375 1.2383-0.84375 3.1797-1.2656 5.8281-1.2656h2.8906v-0.39062c0-0.76953-0.30859-1.332-0.92188-1.6875-0.61719-0.36328-1.5703-0.54688-2.8594-0.54688-1.0547 0-2.0312 0.10547-2.9375 0.3125-0.89844 0.21094-1.7305 0.52344-2.5 0.9375v-3.7344c1.0391-0.25 2.0859-0.44141 3.1406-0.57812 1.0625-0.13281 2.125-0.20312 3.1875-0.20312 2.7578 0 4.75 0.54688 5.9688 1.6406 1.2266 1.0859 1.8438 2.8555 1.8438 5.3125z"/>
  </symbol>
  <symbol id="c" overflow="visible">
   <path d="m7.7031-19.656v4.3438h5.0469v3.5h-5.0469v6.5c0 0.71094 0.14062 1.1875 0.42188 1.4375s0.83594 0.375 1.6719 0.375h2.5156v3.5h-4.1875c-1.9375 0-3.3125-0.39844-4.125-1.2031-0.80469-0.8125-1.2031-2.1797-1.2031-4.1094v-6.5h-2.4219v-3.5h2.4219v-4.3438z"/>
  </symbol>
  <symbol id="l" overflow="visible">
   <path d="m12.766-13.078v-8.2031h4.9219v21.281h-4.9219v-2.2188c-0.66797 0.90625-1.4062 1.5703-2.2188 1.9844s-1.7578 0.625-2.8281 0.625c-1.8867 0-3.4336-0.75-4.6406-2.25-1.2109-1.5-1.8125-3.4258-1.8125-5.7812 0-2.3633 0.60156-4.2969 1.8125-5.7969 1.207-1.5 2.7539-2.25 4.6406-2.25 1.0625 0 2 0.21484 2.8125 0.64062 0.82031 0.42969 1.5664 1.0859 2.2344 1.9688zm-3.2188 9.9219c1.0391 0 1.8359-0.37891 2.3906-1.1406 0.55078-0.76953 0.82812-1.8828 0.82812-3.3438 0-1.457-0.27734-2.5664-0.82812-3.3281-0.55469-0.76953-1.3516-1.1562-2.3906-1.1562-1.043 0-1.8398 0.38672-2.3906 1.1562-0.55469 0.76172-0.82812 1.8711-0.82812 3.3281 0 1.4609 0.27344 2.5742 0.82812 3.3438 0.55078 0.76172 1.3477 1.1406 2.3906 1.1406z"/>
  </symbol>
  <symbol id="k" overflow="visible">
   <path d="m10.5-3.1562c1.0508 0 1.8516-0.37891 2.4062-1.1406 0.55078-0.76953 0.82812-1.8828 0.82812-3.3438 0-1.457-0.27734-2.5664-0.82812-3.3281-0.55469-0.76953-1.3555-1.1562-2.4062-1.1562-1.0547 0-1.8594 0.38672-2.4219 1.1562-0.55469 0.77344-0.82812 1.8828-0.82812 3.3281 0 1.4492 0.27344 2.5586 0.82812 3.3281 0.5625 0.77344 1.3672 1.1562 2.4219 1.1562zm-3.25-9.9219c0.67578-0.88281 1.4219-1.5391 2.2344-1.9688 0.82031-0.42578 1.7656-0.64062 2.8281-0.64062 1.8945 0 3.4453 0.75 4.6562 2.25 1.207 1.5 1.8125 3.4336 1.8125 5.7969 0 2.3555-0.60547 4.2812-1.8125 5.7812-1.2109 1.5-2.7617 2.25-4.6562 2.25-1.0625 0-2.0078-0.21094-2.8281-0.625-0.8125-0.42578-1.5586-1.0859-2.2344-1.9844v2.2188h-4.8906v-21.281h4.8906z"/>
  </symbol>
  <symbol id="j" overflow="visible">
   <path d="m0.34375-15.312h4.8906l4.125 10.391 3.5-10.391h4.8906l-6.4375 16.766c-0.64844 1.6953-1.4023 2.8828-2.2656 3.5625-0.86719 0.6875-2 1.0312-3.4062 1.0312h-2.8438v-3.2188h1.5312c0.83203 0 1.4375-0.13672 1.8125-0.40625 0.38281-0.26172 0.67969-0.73047 0.89062-1.4062l0.14062-0.42188z"/>
  </symbol>
  <symbol id="i" overflow="visible">
   <path d="m2.5781-20.406h6.6875l4.6562 10.922 4.6719-10.922h6.6875v20.406h-4.9844v-14.938l-4.7031 11.016h-3.3281l-4.7031-11.016v14.938h-4.9844z"/>
  </symbol>
  <symbol id="x" overflow="visible">
   <path d="m6.2188-7.8281-5.5156-7.4844h5.1719l3.1406 4.5312 3.1719-4.5312h5.1719l-5.5156 7.4531 5.7969 7.8594h-5.1875l-3.4375-4.8438-3.4062 4.8438h-5.1875z"/>
  </symbol>
  <symbol id="h" overflow="visible">
   <path d="m2.3594-15.312h4.8906v15.312h-4.8906zm0-5.9688h4.8906v4h-4.8906z"/>
  </symbol>
  <symbol id="g" overflow="visible">
   <path d="m16.547-12.766c0.61328-0.94531 1.3477-1.6719 2.2031-2.1719 0.85156-0.5 1.7891-0.75 2.8125-0.75 1.7578 0 3.0977 0.54688 4.0156 1.6406 0.92578 1.0859 1.3906 2.6562 1.3906 4.7188v9.3281h-4.9219v-7.9844-0.35938c0.007813-0.13281 0.015625-0.32031 0.015625-0.5625 0-1.082-0.16406-1.8633-0.48438-2.3438-0.3125-0.48828-0.82422-0.73438-1.5312-0.73438-0.92969 0-1.6484 0.38672-2.1562 1.1562-0.51172 0.76172-0.77344 1.8672-0.78125 3.3125v7.5156h-4.9219v-7.9844c0-1.6953-0.14844-2.7852-0.4375-3.2656-0.29297-0.48828-0.8125-0.73438-1.5625-0.73438-0.9375 0-1.6641 0.38672-2.1719 1.1562-0.51172 0.76172-0.76562 1.8594-0.76562 3.2969v7.5312h-4.9219v-15.312h4.9219v2.2344c0.60156-0.86328 1.2891-1.5156 2.0625-1.9531 0.78125-0.4375 1.6406-0.65625 2.5781-0.65625 1.0625 0 2 0.25781 2.8125 0.76562 0.8125 0.51172 1.4258 1.2305 1.8438 2.1562z"/>
  </symbol>
  <symbol id="w" overflow="visible">
   <path d="m2.5781-20.406h5.25v7.4375l7.5938-7.4375h6.1094l-9.8281 9.6562 10.844 10.75h-6.5938l-8.125-8.0469v8.0469h-5.25z"/>
  </symbol>
  <symbol id="f" overflow="visible">
   <path d="m2.1875-5.9688v-9.3438h4.9219v1.5312c0 0.83594-0.007813 1.875-0.015625 3.125-0.011719 1.25-0.015625 2.0859-0.015625 2.5 0 1.2422 0.03125 2.1328 0.09375 2.6719 0.070313 0.54297 0.17969 0.93359 0.32812 1.1719 0.20703 0.32422 0.47266 0.57422 0.79688 0.75 0.32031 0.16797 0.69141 0.25 1.1094 0.25 1.0195 0 1.8203-0.39062 2.4062-1.1719 0.58203-0.78125 0.875-1.8672 0.875-3.2656v-7.5625h4.8906v15.312h-4.8906v-2.2188c-0.74219 0.89844-1.5234 1.5586-2.3438 1.9844-0.82422 0.41406-1.7344 0.625-2.7344 0.625-1.7617 0-3.1055-0.53906-4.0312-1.625-0.92969-1.082-1.3906-2.6602-1.3906-4.7344z"/>
  </symbol>
  <symbol id="v" overflow="visible">
   <path d="m2.3594-21.281h4.8906v21.281h-4.8906z"/>
  </symbol>
  <symbol id="u" overflow="visible">
   <path d="m2.3594-21.281h4.8906v11.594l5.625-5.625h5.6875l-7.4688 7.0312 8.0625 8.2812h-5.9375l-5.9688-6.3906v6.3906h-4.8906z"/>
  </symbol>
  <symbol id="b" overflow="visible">
   <path d="m9.6406-12.188c-1.0859 0-1.9141 0.39062-2.4844 1.1719-0.57422 0.78125-0.85938 1.9062-0.85938 3.375s0.28516 2.5938 0.85938 3.375c0.57031 0.77344 1.3984 1.1562 2.4844 1.1562 1.0625 0 1.875-0.38281 2.4375-1.1562 0.57031-0.78125 0.85938-1.9062 0.85938-3.375s-0.28906-2.5938-0.85938-3.375c-0.5625-0.78125-1.375-1.1719-2.4375-1.1719zm0-3.5c2.6328 0 4.6914 0.71484 6.1719 2.1406 1.4766 1.418 2.2188 3.3867 2.2188 5.9062 0 2.5117-0.74219 4.4805-2.2188 5.9062-1.4805 1.418-3.5391 2.125-6.1719 2.125-2.6484 0-4.7148-0.70703-6.2031-2.125-1.4922-1.4258-2.2344-3.3945-2.2344-5.9062 0-2.5195 0.74219-4.4883 2.2344-5.9062 1.4883-1.4258 3.5547-2.1406 6.2031-2.1406z"/>
  </symbol>
  <symbol id="t" overflow="visible">
   <path d="m0.42188-15.312h4.8906l3.8281 10.578 3.7969-10.578h4.9062l-6.0312 15.312h-5.375z"/>
  </symbol>
  <symbol id="s" overflow="visible">
   <path d="m12.422-21.281v3.2188h-2.7031c-0.6875 0-1.1719 0.125-1.4531 0.375-0.27344 0.25-0.40625 0.6875-0.40625 1.3125v1.0625h4.1875v3.5h-4.1875v11.812h-4.8906v-11.812h-2.4375v-3.5h2.4375v-1.0625c0-1.6641 0.46094-2.8984 1.3906-3.7031 0.92578-0.80078 2.3672-1.2031 4.3281-1.2031z"/>
  </symbol>
  <symbol id="r" overflow="visible">
   <path d="m17.75-9.3281v9.3281h-4.9219v-7.1094c0-1.3438-0.03125-2.2656-0.09375-2.7656s-0.16797-0.86719-0.3125-1.1094c-0.1875-0.3125-0.44922-0.55469-0.78125-0.73438-0.32422-0.17578-0.69531-0.26562-1.1094-0.26562-1.0234 0-1.8242 0.39844-2.4062 1.1875-0.58594 0.78125-0.875 1.8711-0.875 3.2656v7.5312h-4.8906v-21.281h4.8906v8.2031c0.73828-0.88281 1.5195-1.5391 2.3438-1.9688 0.83203-0.42578 1.75-0.64062 2.75-0.64062 1.7695 0 3.1133 0.54688 4.0312 1.6406 0.91406 1.0859 1.375 2.6562 1.375 4.7188z"/>
  </symbol>
  <symbol id="q" overflow="visible">
   <path d="m2.5781-20.406h5.875l7.4219 14v-14h4.9844v20.406h-5.875l-7.4219-14v14h-4.9844z"/>
  </symbol>
  <symbol id="p" overflow="visible">
   <path d="m17.75-9.3281v9.3281h-4.9219v-7.1406c0-1.3203-0.03125-2.2344-0.09375-2.7344s-0.16797-0.86719-0.3125-1.1094c-0.1875-0.3125-0.44922-0.55469-0.78125-0.73438-0.32422-0.17578-0.69531-0.26562-1.1094-0.26562-1.0234 0-1.8242 0.39844-2.4062 1.1875-0.58594 0.78125-0.875 1.8711-0.875 3.2656v7.5312h-4.8906v-15.312h4.8906v2.2344c0.73828-0.88281 1.5195-1.5391 2.3438-1.9688 0.83203-0.42578 1.75-0.64062 2.75-0.64062 1.7695 0 3.1133 0.54688 4.0312 1.6406 0.91406 1.0859 1.375 2.6562 1.375 4.7188z"/>
  </symbol>
  <symbol id="o" overflow="visible">
   <path d="m2.5781-20.406h8.7344c2.5938 0 4.582 0.57812 5.9688 1.7344 1.3945 1.1484 2.0938 2.7891 2.0938 4.9219 0 2.1367-0.69922 3.7812-2.0938 4.9375-1.3867 1.1562-3.375 1.7344-5.9688 1.7344h-3.4844v7.0781h-5.25zm5.25 3.8125v5.7031h2.9219c1.0195 0 1.8047-0.25 2.3594-0.75 0.5625-0.5 0.84375-1.2031 0.84375-2.1094 0-0.91406-0.28125-1.6172-0.84375-2.1094-0.55469-0.48828-1.3398-0.73438-2.3594-0.73438z"/>
  </symbol>
  <symbol id="n" overflow="visible">
   <path d="m2.3594-15.312h4.8906v15.031c0 2.0508-0.49609 3.6172-1.4844 4.7031-0.98047 1.082-2.4062 1.625-4.2812 1.625h-2.4219v-3.2188h0.85938c0.92578 0 1.5625-0.21094 1.9062-0.625 0.35156-0.41797 0.53125-1.2461 0.53125-2.4844zm0-5.9688h4.8906v4h-4.8906z"/>
  </symbol>
  <symbol id="m" overflow="visible">
   <path d="m14.719-14.828v3.9844c-0.65625-0.45703-1.3242-0.79688-2-1.0156-0.66797-0.21875-1.3594-0.32812-2.0781-0.32812-1.3672 0-2.4336 0.40234-3.2031 1.2031-0.76172 0.79297-1.1406 1.9062-1.1406 3.3438 0 1.4297 0.37891 2.543 1.1406 3.3438 0.76953 0.79297 1.8359 1.1875 3.2031 1.1875 0.75781 0 1.4844-0.10938 2.1719-0.32812 0.6875-0.22656 1.3203-0.56641 1.9062-1.0156v4c-0.76172 0.28125-1.5391 0.48828-2.3281 0.625-0.78125 0.14453-1.5742 0.21875-2.375 0.21875-2.7617 0-4.9219-0.70703-6.4844-2.125-1.5547-1.4141-2.3281-3.3828-2.3281-5.9062 0-2.5312 0.77344-4.5039 2.3281-5.9219 1.5625-1.4141 3.7227-2.125 6.4844-2.125 0.80078 0 1.5938 0.074219 2.375 0.21875 0.78125 0.13672 1.5547 0.35156 2.3281 0.64062z"/>
  </symbol>
 </defs>
 <g>
  <path d="m535.7 312.6c6.3242-4.543 14.984-10.758 14.984-23.309 0-4.6367-3.7617-8.3984-8.3984-8.3984s-8.3984 3.7617-8.3984 8.3984c0 3.5938-2.1914 5.5-7.9805 9.6602-6.3281 4.543-14.992 10.758-14.992 23.312 0 5.8242 1.9727 11.055 5.8594 15.535 1.6641 1.9141 4.0039 2.9023 6.3555 2.9023 1.9492 0 3.9023-0.67188 5.4922-2.0508 3.5039-3.0391 3.8789-8.3438 0.84375-11.848-1.2656-1.457-1.7539-2.7266-1.7539-4.5352 0.003907-3.5977 2.1914-5.5117 7.9883-9.668z"/>
  <path d="m525.89 411.51c5.7969 4.1602 7.9844 6.0703 7.9844 9.6758 0 1.8711-0.53125 3.1914-1.8945 4.7109-3.1016 3.4492-2.8125 8.7578 0.63672 11.859 1.6016 1.4375 3.6133 2.1523 5.6055 2.1523 2.3008 0 4.5977-0.94141 6.2539-2.7891 4.1055-4.5703 6.1875-9.9336 6.1875-15.934 0-12.555-8.6641-18.781-14.984-23.324-5.7969-4.1602-7.9844-6.0703-7.9844-9.6758 0-3.5938 2.1914-5.5039 7.9844-9.6641 6.3242-4.543 14.984-10.758 14.984-23.312 0-4.9844-1.4375-9.5352-4.2852-13.535-2.6953-3.7852-7.9336-4.6641-11.715-1.9805-3.7812 2.6875-4.6641 7.9336-1.9805 11.715 0.82422 1.1602 1.1758 2.2969 1.1758 3.8008 0 3.5938-2.1914 5.5039-7.9844 9.6641-6.3242 4.543-14.984 10.758-14.984 23.312 0.003907 12.555 8.6797 18.781 15 23.324z"/>
  <path d="m560.58 471.65 0.89062-20.352c0.11719-2.8164-1.1758-5.5039-3.457-7.1641-2.2695-1.6523-5.2461-2.0508-7.8789-1.0703l-19.078 7.1328-19.086-7.1328c-2.6562-0.98438-5.6016-0.58203-7.8789 1.0703-2.2773 1.6523-3.5781 4.3438-3.457 7.1641l0.89062 20.352-12.68 15.949c-1.7539 2.207-2.2852 5.1445-1.418 7.8242 0.86719 2.6758 3.0312 4.7422 5.7461 5.4922l19.629 5.4492 11.246 16.984c1.5586 2.3516 4.1875 3.7617 7.0039 3.7617 2.8164 0 5.4492-1.4102 7.0039-3.7617l11.246-16.984 19.629-5.4492c2.7148-0.75781 4.8789-2.8164 5.7461-5.4922 0.86719-2.6836 0.33984-5.6211-1.418-7.8242zm-18.793 19.363c-1.9531 0.54297-3.6406 1.7656-4.7656 3.457l-5.9688 9.0234-5.9688-9.0234c-1.1211-1.6914-2.8125-2.918-4.7656-3.457l-10.426-2.8945 6.7383-8.4727c1.2656-1.5859 1.9102-3.5742 1.8203-5.5938l-0.47656-10.809 10.141 3.793c1.9023 0.71094 3.9922 0.71094 5.8867 0l10.137-3.793-0.47656 10.809c-0.089843 2.0234 0.55859 4.0078 1.8203 5.5938l6.7383 8.4727z"/>
  <path d="m156.93 300.71h0.011718c4.6328 0 8.3945-3.7539 8.3984-8.3906 0.003906-1.8086 2.1914-3.3984 7.4023-6.5117 6.2031-3.6953 15.59-9.2852 15.605-20.914 0.011719-10.73-8.1094-16.191-11.172-18.238-3.8477-2.5938-9.0664-1.5664-11.652 2.2891-2.5859 3.8516-1.5625 9.0664 2.2891 11.652 3.7344 2.5078 3.7344 3.5742 3.7344 4.2734-0.003906 1.8047-2.1914 3.3945-7.4023 6.5078-6.2031 3.6953-15.59 9.2852-15.605 20.922-0.003907 4.6367 3.75 8.4062 8.3906 8.4102z"/>
  <path d="m164.24 216.45c-6.2031 3.7031-15.59 9.2891-15.605 20.922-0.003907 4.6367 3.7461 8.4062 8.3906 8.4102h0.011718c4.6328 0 8.3945-3.7539 8.3984-8.3906 0.003906-1.8086 2.1914-3.3984 7.4023-6.5078 6.2031-3.7031 15.59-9.2891 15.605-20.922 0.015626-11.633-9.3398-17.254-15.535-20.973-5.2148-3.1367-7.3906-4.7305-7.3867-6.5508 0-0.54297 0-1.2227 1.4883-2.5547 3.4453-3.1094 3.7227-8.418 0.62109-11.867-3.1211-3.4453-8.418-3.7109-11.867-0.62109-4.6641 4.207-7.0352 9.2578-7.043 15.023-0.015625 11.633 9.3398 17.254 15.535 20.973 5.2148 3.1367 7.3906 4.7383 7.3867 6.5508-0.003906 1.8164-2.1836 3.4062-7.4023 6.5078z"/>
  <path d="m177.49 165.98c0.75781 0.20703 1.5117 0.30859 2.2578 0.30859 3.6719 0 7.0508-2.4297 8.0859-6.1484 0.46094-1.6562 0.69531-3.3984 0.69531-5.1641 0.011719-3.3984-0.82422-6.6094-2.4805-9.5273-2.2969-4.0391-7.4375-5.4531-11.453-3.1602-4.0391 2.2891-5.4531 7.4141-3.1602 11.453 0.17969 0.3125 0.29688 0.63281 0.29688 1.2148 0 0.26172-0.027344 0.48047-0.085937 0.67578-1.2344 4.4688 1.3711 9.0977 5.8438 10.348z"/>
  <path d="m149.87 135.28 19.078-7.1289 19.078 7.1289c0.95703 0.35156 1.9531 0.53125 2.9414 0.53125 1.7539 0 3.4844-0.54688 4.9375-1.6016 2.2773-1.6562 3.5781-4.3438 3.457-7.1641l-0.88672-20.352 12.68-15.949c1.7539-2.207 2.2852-5.1445 1.418-7.8242-0.86719-2.6758-3.0312-4.7422-5.7461-5.4922l-19.629-5.4492-11.242-16.984c-3.1211-4.7031-10.891-4.7031-14.012 0l-11.246 16.984-19.629 5.4492c-2.7148 0.75781-4.8789 2.8164-5.7461 5.4922-0.86719 2.6836-0.33984 5.6211 1.418 7.8242l12.684 15.949-0.89062 20.352c-0.11719 2.8164 1.1758 5.5039 3.457 7.1641 2.2773 1.6562 5.2344 2.0586 7.8789 1.0703zm8.3438-47.945c1.9531-0.54297 3.6406-1.7656 4.7656-3.457l5.9688-9.0234 5.9688 9.0234c1.1211 1.6914 2.8125 2.918 4.7656 3.457l10.426 2.8945-6.7383 8.4727c-1.2656 1.5859-1.9102 3.5742-1.8203 5.5938l0.47656 10.812-10.141-3.793c-0.95312-0.35156-1.9492-0.53125-2.9414-0.53125-0.99219 0-1.9883 0.17188-2.9414 0.53125l-10.137 3.793 0.47656-10.812c0.089844-2.0234-0.55859-4.0078-1.8203-5.5938l-6.7383-8.4727z"/>
  <path d="m574.16 32.098-127.77 15.277c-7.4414 0.89062-13.586 5.8477-16.031 12.93-2.4531 7.0898-0.68359 14.777 4.6133 20.074l5.8203 5.8203-148.17 148.16c-0.10547 0.10156-0.20703 0.20312-0.30859 0.30859l-57.121 57.121c-11.949 11.949-11.949 31.395 0 43.344l16.016 16.016c-2.3008 4.5703-6.5352 8.707-12.152 11.715-6.6016 3.5234-14.348 5.2695-21.051 6.5195-4.5586 0.84375-7.5703 5.2344-6.7188 9.793 0.75 4.043 4.2852 6.8672 8.25 6.8672 0.50781 0 1.0312-0.042969 1.5469-0.14062 7.9648-1.4844 17.27-3.6172 25.895-8.2227 6.8594-3.6719 12.461-8.6406 16.43-14.336l19.953 19.953-130.44 130.44c-3.2812 3.2812-3.2812 8.5977 0 11.879 1.6406 1.6406 3.793 2.457 5.9414 2.457 2.1523 0 4.3008-0.81641 5.9414-2.457l130.44-130.45 3.543 3.543c5.9766 5.9766 13.828 8.9648 21.672 8.9648s15.695-2.9844 21.672-8.9648l205.59-205.59 5.8203 5.8203c3.7227 3.7227 8.625 5.707 13.664 5.707 2.1406 0 4.3008-0.35156 6.4102-1.0859 7.0859-2.4531 12.035-8.5898 12.93-16.039l15.277-127.76c0.91406-7.6289-1.6797-15.121-7.1133-20.551-5.4297-5.4375-12.906-8.0469-20.547-7.125zm1.9961 16.684c2.4648-0.28516 4.9102 0.54688 6.668 2.3086 1.7578 1.7656 2.6055 4.1992 2.3086 6.6758l-2.9453 24.652c-3.1523-1.5859-7.043-1.1602-9.6758 1.4609-3.2812 3.2812-3.2812 8.5977-0.003906 11.883l7.2227 7.2188-4.1445 34.664-79.316-79.316 34.668-4.1445 24.078 24.086c1.6406 1.6406 3.793 2.457 5.9414 2.457 2.1523 0 4.3008-0.81641 5.9414-2.457 3.2812-3.2812 3.2812-8.5977 0-11.879l-14.742-14.742zm-172.44 243.36c-4.6367 0-8.3984 3.7617-8.3984 8.3984v18.984c0 0.6875 0.10547 1.3477 0.26172 1.9883l-46.227 46.227-0.003906-166c0-0.10547-0.027344-0.20703-0.035157-0.3125l46-46v114.31c0 4.6367 3.7617 8.3984 8.3984 8.3984s8.3984-3.7617 8.3984-8.3984l0.003906-131.1 25.73-25.73v166.35l-25.73 25.73v-4.4336c0-4.6406-3.7617-8.4023-8.3984-8.4023zm-93.051 94.695-3.8359-3.8359-0.015626-74.066c0-4.6406-3.7617-8.3984-8.3984-8.3984-4.6406 0-8.3984 3.7617-8.3984 8.3984l0.011718 57.266-42.945-42.945c-5.3984-5.4023-5.3984-14.184 0-19.59l42.926-42.926 0.003906 20.195c0 4.6406 3.7617 8.3984 8.3984 8.3984 4.6406 0 8.3984-3.7617 8.3984-8.3984l-0.011718-36.992 25.75-25.75v166.01c0 0.10547 0.027343 0.20703 0.035156 0.3125l-2.3281 2.3281c-5.4062 5.4023-14.191 5.4023-19.59-0.003906zm257.45-199.14c-0.58203 0.20312-1.707 0.37891-2.6992-0.61719l-17.008-17.008c-0.015624-0.015625-0.039062-0.039062-0.054687-0.054687l-58.422-58.422c-3.2812-3.2812-8.5977-3.2812-11.879 0s-3.2812 8.5977 0 11.879l13.43 13.43v18.969c0 4.6367 3.7617 8.3984 8.3984 8.3984s8.3984-3.7617 8.3984-8.3984v-2.168l25.754 25.754v3.6016l-25.754 25.754 0.003906-21.207c0-4.6367-3.7617-8.3984-8.3984-8.3984s-8.3984 3.7617-8.3984 8.3984v37.633c0 0.11719 0.027343 0.22266 0.035156 0.33594l-36.875 36.875-0.003906-162.39 4.5703 4.5703c3.2812 3.2812 8.5977 3.2812 11.879 0 3.2812-3.2773 3.2812-8.5977 0-11.879l-24.246-24.246c-1.0078-1.0078-0.81641-2.1289-0.61719-2.6992 0.19531-0.58203 0.74609-1.5742 2.1562-1.7461l26.668-3.1875 98 98-3.1875 26.66c-0.17578 1.418-1.168 1.9609-1.75 2.1641z"/>
  <path d="m202.79 380.36c-0.99219-4.5352-5.5117-7.4297-10-6.4062-4.625 1.0117-8.7344 2.1211-12.57 3.3828-12.062 3.9883-22.391 10.586-32.492 20.754-3.2695 3.293-3.2461 8.6055 0.042969 11.879 1.6367 1.625 3.7812 2.4414 5.918 2.4414 2.1602 0 4.3164-0.82422 5.957-2.4805 8.1641-8.2266 16.379-13.508 25.828-16.633 3.2812-1.0742 6.8555-2.0391 10.91-2.9297 4.5352-1.0039 7.4023-5.4844 6.4062-10.008z"/>
  <path d="m145.29 356.71v9.5938c0 4.6367 3.7617 8.3984 8.3984 8.3984 4.6367 0 8.3984-3.7617 8.3984-8.3984v-9.5938c0-4.6367-3.7617-8.3984-8.3984-8.3984-4.6328-0.003906-8.3984 3.7617-8.3984 8.3984z"/>
  <path d="m162.09 451.29v-9.5938c0-4.6367-3.7617-8.3984-8.3984-8.3984s-8.3984 3.7617-8.3984 8.3984v9.5938c0 4.6367 3.7617 8.3984 8.3984 8.3984s8.3984-3.7617 8.3984-8.3984z"/>
  <path d="m121.09 424.71-6.7812 6.7891c-3.2773 3.2812-3.2773 8.6016 0.003906 11.883 1.6406 1.6367 3.793 2.4531 5.9414 2.4531 2.1523 0 4.3047-0.81641 5.9453-2.457l6.7812-6.7891c3.2773-3.2812 3.2773-8.6016-0.003907-11.883-3.2852-3.2734-8.6055-3.2773-11.887 0.003906z"/>
  <path d="m121.09 383.29c1.6406 1.6406 3.793 2.457 5.9414 2.457 2.1523 0 4.3008-0.81641 5.9414-2.457 3.2812-3.2812 3.2812-8.5977 0-11.879l-6.7812-6.7812c-3.2812-3.2812-8.5977-3.2812-11.879 0s-3.2812 8.5977 0 11.879z"/>
  <path d="m174.4 424.71c-3.2812 3.2812-3.2812 8.5977 0 11.879l6.7891 6.7891c1.6406 1.6406 3.793 2.457 5.9414 2.457 2.1523 0 4.3008-0.81641 5.9414-2.457 3.2812-3.2812 3.2812-8.5977 0-11.879l-6.7891-6.7891c-3.2891-3.2812-8.6016-3.2812-11.883 0z"/>
  <path d="m124.39 404.01c0-4.6367-3.7617-8.3984-8.3984-8.3984l-9.5977-0.003906c-4.6367 0-8.3984 3.7617-8.3984 8.3984 0 4.6367 3.7617 8.3984 8.3984 8.3984h9.5938c4.6367 0.003906 8.4023-3.7578 8.4023-8.3945z"/>
  <use x="70" y="644" xlink:href="#y"/>
  <use x="90.550781" y="644" xlink:href="#d"/>
  <use x="104.359375" y="644" xlink:href="#a"/>
  <use x="123.347656" y="644" xlink:href="#e"/>
  <use x="142.242188" y="644" xlink:href="#c"/>
  <use x="155.628906" y="644" xlink:href="#a"/>
  <use x="174.617188" y="644" xlink:href="#l"/>
  <use x="204.410156" y="644" xlink:href="#k"/>
  <use x="224.453125" y="644" xlink:href="#j"/>
  <use x="252.453125" y="644" xlink:href="#i"/>
  <use x="280.3125" y="644" xlink:href="#e"/>
  <use x="299.210938" y="644" xlink:href="#x"/>
  <use x="317.269531" y="644" xlink:href="#h"/>
  <use x="326.867188" y="644" xlink:href="#g"/>
  <use x="365.789062" y="644" xlink:href="#w"/>
  <use x="387.488281" y="644" xlink:href="#f"/>
  <use x="407.421875" y="644" xlink:href="#v"/>
  <use x="417.019531" y="644" xlink:href="#h"/>
  <use x="426.617188" y="644" xlink:href="#u"/>
  <use x="445.238281" y="644" xlink:href="#b"/>
  <use x="464.476562" y="644" xlink:href="#t"/>
  <use x="70" y="672" xlink:href="#s"/>
  <use x="82.183594" y="672" xlink:href="#d"/>
  <use x="95.992188" y="672" xlink:href="#b"/>
  <use x="115.226562" y="672" xlink:href="#g"/>
  <use x="154.152344" y="672" xlink:href="#c"/>
  <use x="167.535156" y="672" xlink:href="#r"/>
  <use x="187.46875" y="672" xlink:href="#a"/>
  <use x="216.207031" y="672" xlink:href="#q"/>
  <use x="239.640625" y="672" xlink:href="#b"/>
  <use x="258.878906" y="672" xlink:href="#f"/>
  <use x="278.8125" y="672" xlink:href="#p"/>
  <use x="308.492188" y="672" xlink:href="#o"/>
  <use x="329.015625" y="672" xlink:href="#d"/>
  <use x="342.820312" y="672" xlink:href="#b"/>
  <use x="362.058594" y="672" xlink:href="#n"/>
  <use x="371.65625" y="672" xlink:href="#a"/>
  <use x="390.648438" y="672" xlink:href="#m"/>
  <use x="407.242188" y="672" xlink:href="#c"/>
 </g>
</svg>
