<?xml version="1.0" standalone="no"?>
<!DOCTYPE svg PUBLIC "-//W3C//DTD SVG 20010904//EN"
 "http://www.w3.org/TR/2001/REC-SVG-20010904/DTD/svg10.dtd">
<svg version="1.0" xmlns="http://www.w3.org/2000/svg"
 width="738.000000pt" height="738.000000pt" viewBox="0 0 738.000000 738.000000"
 preserveAspectRatio="xMidYMid meet">

<g transform="translate(0.000000,738.000000) scale(0.100000,-0.100000)"
fill="#000000" stroke="none">
<path d="M1859 6665 c-30 -16 -59 -57 -64 -88 -2 -12 -8 -49 -14 -82 -6 -33
-13 -76 -16 -95 -3 -19 -8 -49 -11 -66 -7 -37 16 -87 49 -108 12 -8 40 -18 62
-21 35 -6 44 -3 76 25 35 29 42 46 55 125 2 11 6 34 9 50 3 17 8 41 10 55 15
78 15 121 0 150 -29 57 -105 84 -156 55z"/>
<path d="M1336 6545 c-71 -25 -100 -77 -76 -140 16 -43 111 -185 123 -185 6 0
8 -2 5 -5 -12 -12 66 -85 97 -91 43 -8 100 18 123 56 27 44 18 113 -21 152 -7
7 -37 48 -66 91 -82 122 -117 145 -185 122z"/>
<path d="M2343 6370 c-13 -5 -23 -6 -23 -2 0 4 -4 2 -8 -3 -4 -6 -45 -38 -92
-70 -113 -79 -136 -102 -149 -150 -19 -70 31 -135 105 -135 35 0 94 18 94 29
0 5 39 34 87 66 48 32 97 70 108 84 56 71 20 175 -66 186 -19 3 -44 0 -56 -5z"/>
<path d="M1045 6082 c-45 -15 -85 -62 -85 -99 0 -38 21 -89 43 -105 26 -18
192 -56 282 -64 49 -4 66 -1 93 15 54 35 68 107 32 166 -24 39 -37 44 -163 65
-40 7 -79 14 -87 15 -58 10 -98 12 -115 7z"/>
<path d="M1747 5953 c-11 -3 -32 -19 -47 -36 -28 -31 -29 -34 -24 -117 3 -47
7 -108 9 -136 3 -64 -26 -180 -67 -264 -17 -36 -32 -67 -33 -70 -3 -9 -26 -65
-40 -95 -45 -99 -57 -252 -26 -357 20 -71 68 -168 83 -168 4 0 8 -4 8 -10 0
-5 10 -22 22 -37 41 -50 200 -203 212 -203 6 0 27 -13 46 -29 31 -26 33 -31
20 -47 -8 -11 -70 -85 -138 -166 -135 -160 -147 -187 -115 -246 18 -33 1588
-1355 1629 -1372 11 -4 40 -4 65 2 42 11 56 25 369 399 179 214 335 403 348
420 26 38 29 99 6 137 -14 24 -1494 1271 -1576 1329 -42 29 -91 38 -127 23
-17 -7 -81 -74 -158 -166 -70 -84 -133 -154 -139 -154 -6 0 -21 11 -34 25 -13
14 -28 25 -33 25 -14 0 -120 91 -158 136 -19 21 -37 41 -41 42 -5 2 -8 10 -8
18 0 8 -4 14 -8 14 -18 0 -53 97 -56 153 -3 68 17 133 84 271 59 124 90 239
97 368 6 110 -9 241 -31 270 -31 41 -82 56 -139 41z m752 -1375 c62 -52 69
-62 51 -73 -6 -4 -8 -10 -5 -15 3 -5 1 -11 -4 -14 -5 -3 -20 -27 -34 -53 -13
-27 -34 -64 -45 -83 -12 -19 -39 -71 -62 -115 -23 -44 -50 -96 -61 -115 -12
-19 -31 -53 -42 -75 -12 -22 -28 -48 -36 -57 -8 -10 -10 -18 -6 -18 4 0 1 -8
-7 -17 -8 -10 -26 -42 -39 -70 -13 -29 -26 -53 -29 -53 -10 0 -245 203 -245
212 0 10 487 597 497 597 3 1 33 -22 67 -51z m364 -303 c96 -80 110 -102 82
-125 -8 -7 -13 -16 -10 -20 3 -5 1 -11 -4 -15 -5 -3 -22 -31 -37 -63 -15 -31
-42 -79 -59 -107 -17 -27 -43 -75 -59 -105 -46 -91 -127 -237 -163 -295 -7
-11 -16 -28 -19 -37 -3 -10 -10 -18 -15 -18 -5 0 -55 39 -112 87 -101 86 -110
100 -83 133 6 8 21 33 33 55 11 22 30 56 41 75 12 19 33 60 48 90 15 30 34 63
42 73 8 9 11 17 7 17 -4 0 -1 8 7 18 9 9 28 41 43 70 15 29 31 55 36 58 5 3 7
9 4 14 -3 5 -1 11 4 14 5 3 28 44 51 91 29 57 47 82 55 77 7 -4 55 -43 108
-87z m414 -349 c51 -43 91 -81 90 -85 -2 -3 -11 -23 -21 -43 -9 -20 -21 -40
-26 -43 -6 -4 -8 -10 -5 -15 3 -5 1 -11 -5 -15 -5 -3 -17 -23 -27 -43 -9 -20
-35 -68 -58 -107 -22 -38 -49 -86 -58 -105 -10 -19 -30 -56 -45 -82 -15 -26
-40 -70 -56 -99 -47 -87 -51 -93 -63 -109 -6 -8 -12 -18 -12 -22 -1 -5 -3 -9
-5 -10 -5 -4 -216 174 -216 183 0 6 71 134 100 179 5 8 19 34 30 57 11 23 25
45 30 48 6 4 8 10 5 15 -3 5 -1 11 4 14 5 3 20 27 34 53 13 27 34 64 45 83 12
19 40 72 64 118 75 145 68 135 86 120 10 -8 59 -49 109 -92z m404 -337 c65
-56 119 -105 119 -111 0 -7 -425 -523 -481 -582 -17 -18 -19 -17 -82 36 -62
53 -64 57 -52 79 7 13 32 60 55 104 22 44 50 96 61 115 12 19 31 53 42 75 12
22 28 48 36 58 8 9 10 17 6 17 -4 0 -2 8 6 18 8 9 21 31 29 47 8 17 33 62 55
100 23 39 49 87 58 108 10 20 20 37 23 37 3 0 59 -45 125 -101z"/>
<path d="M2204 5861 c-33 -20 -46 -35 -52 -61 -17 -72 31 -143 103 -154 53 -8
148 -25 182 -32 76 -16 154 8 168 50 18 54 16 92 -7 125 -26 38 -66 55 -153
66 -33 3 -62 8 -65 10 -4 2 -38 7 -76 10 -58 5 -74 3 -100 -14z"/>
<path d="M5430 3699 c-60 -69 -208 -154 -289 -165 -28 -4 -54 -11 -57 -15 -7
-12 -271 -11 -294 1 -11 6 -46 13 -78 16 -56 6 -60 5 -90 -24 -43 -42 -42 -78
2 -127 32 -34 41 -38 114 -49 44 -6 84 -14 88 -19 10 -10 248 -9 259 1 6 5 42
14 80 21 86 14 153 44 260 112 37 24 128 120 148 156 13 22 0 58 -34 92 -39
40 -75 40 -109 0z"/>
<path d="M6115 3578 c-11 -5 -40 -34 -65 -64 -25 -29 -53 -56 -64 -60 -21 -7
-136 14 -150 27 -17 15 -36 10 -72 -17 -30 -24 -34 -31 -34 -75 0 -26 4 -50 9
-54 5 -3 12 -20 16 -38 4 -17 16 -51 28 -75 20 -41 20 -44 4 -75 -9 -18 -21
-43 -27 -57 -6 -14 -17 -36 -25 -50 -15 -26 -19 -70 -9 -106 11 -42 81 -55
170 -33 55 14 68 6 144 -84 58 -69 75 -77 115 -51 41 27 59 66 70 153 l10 84
55 29 c85 46 98 56 125 97 34 50 24 75 -50 133 -100 76 -116 94 -110 121 4 13
-1 41 -9 62 -9 21 -16 52 -16 69 0 37 -7 49 -37 65 -26 13 -51 13 -78 -1z
m-35 -308 c0 -10 12 -30 26 -43 30 -28 28 -45 -16 -96 -26 -30 -31 -33 -46
-20 -9 8 -31 19 -48 24 -23 8 -30 16 -28 30 2 11 5 35 5 54 1 19 9 37 17 41 8
4 24 12 35 18 32 17 55 14 55 -8z"/>
<path d="M4203 3065 c-37 -16 -53 -42 -53 -84 0 -56 154 -187 325 -277 17 -8
48 -26 70 -40 52 -31 101 -54 117 -54 7 0 22 -7 32 -15 11 -8 27 -15 37 -15 9
0 22 -6 28 -14 6 -7 30 -17 53 -20 23 -4 56 -14 74 -22 18 -9 59 -22 91 -29
32 -7 89 -20 128 -29 38 -9 87 -16 107 -16 20 0 40 -4 43 -10 4 -6 93 -10 234
-10 l228 0 27 25 c51 47 26 136 -46 164 -18 7 -39 6 -65 -1 -23 -6 -70 -8
-118 -3 -44 3 -125 10 -180 15 -103 8 -244 32 -280 48 -11 5 -47 16 -80 24
-66 17 -110 32 -170 58 -22 10 -53 21 -70 25 -16 3 -35 11 -41 16 -19 16 -105
59 -117 59 -7 0 -38 18 -70 40 -31 22 -61 40 -66 40 -5 0 -14 7 -21 15 -16 19
-169 125 -180 125 -3 -1 -19 -7 -37 -15z"/>
<path d="M3793 2599 c-53 -34 -56 -114 -7 -160 14 -13 33 -37 41 -54 9 -16 29
-46 45 -65 48 -58 98 -129 98 -141 0 -6 16 -38 35 -70 19 -33 35 -62 35 -65 0
-3 12 -31 26 -62 61 -134 73 -169 88 -247 6 -33 14 -65 18 -71 4 -6 11 -45 14
-85 4 -41 13 -89 20 -108 20 -47 19 -321 0 -359 -20 -40 -30 -230 -14 -262 16
-30 63 -45 100 -31 49 19 69 78 75 231 4 83 11 145 19 162 18 35 17 106 -1
138 -9 15 -15 56 -15 105 -2 117 -31 280 -58 332 -7 12 -12 34 -12 50 -1 15
-9 46 -20 68 -11 22 -19 48 -20 58 0 11 -7 31 -15 45 -7 15 -34 70 -59 122
-52 108 -99 194 -127 229 -11 13 -19 29 -19 36 0 7 -7 15 -15 19 -8 3 -15 11
-15 17 0 26 -133 172 -165 182 -12 4 -33 -2 -52 -14z"/>
<path d="M4756 2361 c-3 -4 -19 -11 -35 -14 -46 -9 -101 -53 -139 -110 -32
-49 -35 -57 -36 -137 -1 -68 3 -91 19 -115 110 -172 212 -197 368 -91 15 10
39 41 53 70 36 69 38 179 6 247 -24 52 -96 129 -121 129 -10 0 -26 7 -37 15
-21 16 -70 20 -78 6z m61 -213 c25 -23 29 -51 13 -92 -12 -33 -54 -35 -87 -4
-29 27 -29 65 -1 95 27 29 45 29 75 1z"/>
<path d="M3359 2158 c-38 -42 -43 -65 -33 -146 17 -127 10 -439 -11 -471 -4
-7 -13 -36 -19 -65 -18 -77 -75 -172 -148 -246 -103 -104 -118 -140 -80 -186
40 -48 102 -42 165 17 23 21 45 39 48 39 4 0 19 19 35 43 16 23 32 44 35 47
14 12 68 123 99 203 35 92 43 167 43 407 -1 292 -5 321 -49 360 -19 16 -39 30
-45 30 -6 0 -24 -15 -40 -32z"/>
<path d="M5835 2126 c-116 -61 -166 -159 -146 -284 12 -78 78 -182 115 -182 8
0 19 -7 26 -15 9 -11 33 -15 90 -15 57 0 81 4 90 15 7 8 18 15 26 15 21 0 70
51 95 100 20 38 24 59 23 135 -1 86 -2 93 -36 142 -49 73 -98 105 -173 110
-51 4 -68 1 -110 -21z m126 -186 c14 -8 19 -21 19 -50 0 -89 -102 -98 -116 -9
-10 57 41 88 97 59z"/>
<path d="M5087 1665 c-20 -14 -37 -31 -37 -38 0 -7 -9 -29 -20 -50 -11 -20
-20 -43 -20 -50 0 -7 -13 -26 -30 -42 -24 -23 -41 -29 -87 -33 -36 -3 -69 -12
-88 -25 -40 -28 -45 -36 -45 -76 0 -34 24 -70 102 -155 22 -23 28 -37 23 -56
-3 -14 -10 -60 -15 -103 -12 -92 -2 -122 55 -151 33 -18 38 -19 63 -4 124 73
157 79 211 37 13 -11 29 -19 36 -19 7 0 18 -7 25 -15 22 -26 83 -19 114 14 26
27 27 34 24 92 -3 35 -11 78 -18 95 -17 39 -8 71 28 109 62 66 102 123 102
147 0 17 -15 40 -41 67 -36 36 -47 41 -88 42 -82 2 -93 9 -128 79 -18 36 -33
70 -33 77 0 11 -78 83 -89 83 -4 0 -23 -11 -44 -25z m84 -353 c40 -42 42 -49
23 -97 -14 -38 -21 -45 -43 -45 -15 0 -32 -5 -38 -11 -16 -16 -33 -2 -33 25 0
13 -7 29 -15 36 -8 7 -15 26 -15 42 0 23 6 31 29 39 16 6 32 17 35 25 8 21 28
17 57 -14z"/>
<path d="M3769 1393 c-5 -16 -12 -33 -14 -40 -2 -7 -17 -15 -32 -19 -30 -7
-63 -31 -63 -47 0 -5 14 -25 30 -44 21 -23 30 -44 30 -67 0 -43 18 -50 60 -25
28 17 34 18 49 6 50 -43 83 -26 74 38 -4 35 -1 49 16 71 25 32 27 69 5 78 -9
3 -29 6 -45 6 -25 0 -33 6 -45 35 -18 44 -50 48 -65 8z"/>
<path d="M5975 1257 c-9 -23 -26 -39 -54 -52 -62 -28 -68 -39 -37 -76 20 -24
26 -41 26 -79 0 -52 12 -69 34 -50 31 25 72 28 114 10 22 -10 43 -16 46 -12
10 9 7 57 -5 69 -12 12 1 44 33 80 30 32 16 63 -27 63 -35 0 -39 3 -76 53 -27
35 -37 34 -54 -6z"/>
</g>
</svg>
