<!-- Generated by IcoMoon.io -->
<svg version="1.1" xmlns="http://www.w3.org/2000/svg" width="32" height="32" viewBox="0 0 32 32">
<title>Searched</title>
<path d="M16 6c-5.125 0-9.125 3.063-14 8 4.188 4.25 7.75 8 14 8s10.813-4.75 14-7.938c-3.25-3.625-7.813-8.063-14-8.063zM16 19.688c-3.063 0-5.625-2.563-5.625-5.688s2.563-5.688 5.625-5.688c3.063 0 5.625 2.563 5.625 5.688s-2.563 5.688-5.625 5.688zM16 12c0-0.5 0.188-0.938 0.5-1.313-0.188 0-0.313 0-0.5 0-1.813 0-3.25 1.5-3.25 3.313s1.438 3.313 3.25 3.313c1.813 0 3.25-1.5 3.25-3.313 0-0.125 0-0.313 0-0.438-0.375 0.25-0.75 0.438-1.25 0.438-1.125 0-2-0.875-2-2z"></path>
</svg>
