<!-- Generated by IcoMoon.io -->
<svg version="1.1" xmlns="http://www.w3.org/2000/svg" width="32" height="32" viewBox="0 0 32 32">
<title>Secretary-bird</title>
<path d="M19.563 1.188c0 0 0.063 0.25 0.188 0.5 0.188 0.563 0.25 0.5-0.188 0.5-0.813 0-1 0.313-0.313 0.5 0.25 0 0.438 0.125 0.5 0.125 0 0.063-0.25 0.25-0.625 0.375-0.375 0.188-0.688 0.313-0.688 0.438 0 0.063 0.125 0.063 0.25 0 0.063-0.063 0.5-0.125 0.875-0.125l0.688-0.063-0.563 0.313c-0.5 0.375-1 0.938-0.813 0.938 0.125 0 0.438-0.125 0.813-0.313 0.75-0.313 0.938-0.313 0.438 0.063-0.375 0.25-0.625 0.688-0.5 0.813 0 0.063 0.313-0.125 0.688-0.375 0.625-0.5 0.75-0.5 0.313 0.063-0.25 0.438-0.188 0.438 0.25 0.063 0.438-0.313 0.625-0.25 0.375 0.188-0.063 0.125-0.063 0.313-0.063 0.313 0.188 0.125 0.125 1.125-0.125 1.75-0.188 0.313-0.313 0.438-1.813 0.938-1.5 0.563-3.25 1.5-4.313 2.313-0.75 0.563-2.75 2.563-2.75 2.75 0 0.063-0.438 0.563-0.938 1.125-1.063 1.188-1.688 1.938-1.688 2.125 0 0.063 0.125 0.125 0.25 0.125s0.25 0 0.25 0.063c0 0.063-0.438 0.625-1 1.25-0.563 0.563-1.063 1.188-1.125 1.313-0.063 0.188-0.063 0.188 0.125 0.125s0.313 0 0.313 0.063c0 0.125 0.063 0.125 0.188 0.063 0.313-0.063 0.313 0 0.063 0.438-0.125 0.188-0.625 0.938-1.063 1.688-0.438 0.688-1.125 1.75-1.5 2.313-0.625 0.938-0.688 1-0.375 1 0.188 0.063 0.375 0.188 0.5 0.313 0.125 0.188 0.188 0.188 0.25 0.125 0.063-0.125 0.188-0.125 0.25-0.125 0.125 0.063 0.25 0 0.25-0.125 0.063-0.125 0.625-1.063 1.25-2.125 0.563-1 1.25-2.188 1.438-2.563 0.25-0.375 0.438-0.625 0.5-0.563 0.188 0.063 0.938-0.813 1.938-2.063 0.313-0.375 0.563-0.688 0.625-0.75 0-0.063 0.188-0.063 0.313 0.063 0.188 0.063 0.313 0.063 0.5 0 0.188-0.125 0.313-0.125 0.563 0.063s0.375 0.188 0.625 0c0.188-0.125 0.313-0.125 0.5-0.063 0.25 0.125 0.313 0.063 0.5-0.125l0.25-0.313 0.188 0.875c0.125 0.438 0.375 1.125 0.563 1.438l0.313 0.625 0.063 3.688c0 2 0 3.625-0.063 3.625s-0.25-0.063-0.438-0.188c-0.313-0.125-0.375-0.125-0.625 0.063-0.125 0.063-0.188 0.313-0.188 0.438 0 0.188 0.063 0.188 0.313 0.125 0.625-0.125 1.125 0.063 1.5 0.625s0.438 0.625 0.625 0.375c0.188-0.25 0.188-0.25-0.063-0.563-0.125-0.125-0.188-0.25-0.125-0.25 0.188 0 1.188 0.625 1.188 0.75s0.063 0.125 0.188 0c0.313-0.25 0.188-0.563-0.188-0.75-0.5-0.125-0.5-0.25 0.063-0.188 0.375 0.063 0.375 0 0.438-0.25 0-0.25 0.188-0.375 0.438-0.5 0.75-0.375 0.25-0.75-0.5-0.5-0.25 0.125-0.25 0.125-0.063-0.125 0.5-0.563 0.125-0.75-0.563-0.25s-0.75 0.563-0.625 0.125c0-0.188 0.125-1.375 0.25-2.625 0.375-4.125 0.375-4.313 1.375-6 0.75-1.25 1.063-1.625 1.75-2.188 0.438-0.313 1.125-0.813 1.563-1.063 0.438-0.188 0.813-0.438 0.813-0.5 0-0.125 0.125-0.375 0.313-0.563 0.125-0.188 0.25-0.438 0.25-0.563 0-0.063 0.125-0.25 0.188-0.25 0.25-0.125 0.438-2.688 0.313-3.188-0.063-0.188-0.063-0.5 0-0.625 0-0.125-0.063-0.375-0.25-0.688-0.438-0.688-0.75-2.688-0.563-3.188 0.125-0.313 1.813-0.625 1.938-0.375 0.063 0.125 0.125 0.125 0.188-0.063 0.25-0.563-0.375-1.188-1.313-1.188-0.25 0-0.438-0.063-0.625-0.313-0.25-0.25-0.313-0.313-1.563-0.313-1.5 0-1.813-0.063-2.75-0.688-0.563-0.375-0.688-0.438-0.688-0.313zM18.375 19.063c0.125 0.125 0.125 0.188-0.313 4.563-0.125 1.375-0.25 2.563-0.25 2.688 0 0.188 0 0.188-0.125 0-0.063-0.063-0.125-1.75-0.125-3.688 0-3.125 0-3.563 0.188-4l0.25-0.5 0.063 0.438c0.063 0.188 0.188 0.438 0.313 0.5z"></path>
</svg>
