<!-- Generated by IcoMoon.io -->
<svg version="1.1" xmlns="http://www.w3.org/2000/svg" width="32" height="32" viewBox="0 0 32 32">
<title>Secure-wastebin</title>
<path d="M0.938-2.313h-0.188c-0.063 0.125-0.125 0.188-0.25 0.188s-0.25-0.125-0.25-0.375c0-0.188 0.125-0.313 0.25-0.313s0.188 0.063 0.25 0.188h0.188c-0.063-0.25-0.188-0.375-0.438-0.375s-0.438 0.188-0.438 0.5c0 0.313 0.188 0.5 0.438 0.5s0.375-0.125 0.438-0.313zM0.5-2.563v-0.188c0 0 0 0 0 0-0.125 0-0.188 0.063-0.25 0.188v-0.188h-0.188v0.75h0.188v-0.375c0-0.125 0.063-0.188 0.188-0.188 0 0 0 0 0.063 0zM0.688-2.313c0-0.25-0.125-0.438-0.313-0.438s-0.375 0.188-0.375 0.375c0 0.25 0.125 0.375 0.375 0.375 0.125 0 0.25-0.063 0.313-0.188h-0.188c0 0.063-0.063 0.063-0.125 0.063-0.125 0-0.125-0.063-0.188-0.188h0.5zM0.5-2.438h-0.25c0-0.125 0-0.125 0.125-0.125 0.063 0 0.125 0 0.125 0.125zM0.688-2v0c0-0.063 0-0.063 0-0.125v-0.375c0-0.188-0.125-0.25-0.313-0.25s-0.313 0.125-0.313 0.25h0.188c0-0.063 0-0.063 0.125-0.063 0.063 0 0.125 0 0.125 0.063s-0.063 0.063-0.188 0.063h-0.063c-0.125 0.063-0.188 0.125-0.188 0.25s0.063 0.188 0.188 0.188c0.063 0 0.188 0 0.25-0.063 0 0 0 0.063 0 0.063zM0.5-2.313c0 0.125-0.063 0.188-0.188 0.188-0.063 0-0.063-0.063-0.063-0.063 0-0.063 0-0.125 0.063-0.125h0.063c0.063 0 0.063 0 0.125 0zM0.375-2v-0.125c0 0 0 0 0 0-0.063 0-0.063 0-0.063-0.063v-0.375h0.063v-0.125h-0.063v-0.188h-0.188v0.188h-0.125v0.125h0.125v0.438c0 0.063 0.063 0.125 0.188 0.125 0 0 0.063 0 0.063 0zM0.75-2v-1h-0.188v0.375c-0.063-0.063-0.125-0.125-0.25-0.125s-0.25 0.188-0.25 0.375c0 0.25 0.063 0.375 0.25 0.375 0.125 0 0.188 0 0.25-0.063v0.063zM0.563-2.375c0 0.125-0.063 0.25-0.188 0.25-0.063 0-0.125-0.125-0.125-0.25s0.063-0.188 0.125-0.188c0.125 0 0.188 0.063 0.188 0.188zM0.75-2.375c0-0.188-0.125-0.375-0.313-0.375-0.063 0-0.125 0.063-0.188 0.125v-0.375h-0.188v1h0.188v-0.063c0.063 0.063 0.125 0.063 0.188 0.063 0.188 0 0.313-0.125 0.313-0.375zM0.563-2.375c0 0.125-0.063 0.25-0.125 0.25-0.125 0-0.188-0.125-0.188-0.25s0.063-0.188 0.188-0.188c0.063 0 0.125 0.063 0.125 0.188zM0.688-2.75h-0.188l-0.125 0.563-0.188-0.563h-0.188l0.25 0.75v0.063c0 0.063 0 0.063-0.063 0.063s-0.063 0-0.063 0v0.188c0 0 0.063 0 0.063 0 0.125 0 0.188-0.063 0.25-0.188zM0.25-2v-0.75h-0.188v0.75zM0.25-2.813v-0.188h-0.188v0.188zM0.688-2.25h-0.188c0 0.063-0.063 0.125-0.125 0.125s-0.125-0.063-0.125-0.25c0-0.125 0-0.188 0.125-0.188 0.063 0 0.125 0 0.125 0.125h0.188c0-0.188-0.125-0.313-0.313-0.313s-0.313 0.125-0.313 0.375c0 0.25 0.125 0.375 0.313 0.375s0.313-0.125 0.313-0.25zM0.75-2.375c0-0.25-0.125-0.375-0.375-0.375-0.188 0-0.313 0.125-0.313 0.375s0.125 0.375 0.313 0.375c0.25 0 0.375-0.125 0.375-0.375zM0.563-2.375c0 0.125-0.063 0.25-0.188 0.25-0.063 0-0.125-0.125-0.125-0.25s0.063-0.188 0.125-0.188c0.125 0 0.188 0.063 0.188 0.188zM0.75-2v-0.5c0-0.125-0.125-0.25-0.25-0.25s-0.188 0.063-0.25 0.125v-0.125h-0.188v0.75h0.188v-0.438c0-0.063 0.063-0.125 0.188-0.125 0.063 0 0.125 0.063 0.125 0.125v0.438zM0.688-2.188v-0.063c0-0.063-0.063-0.125-0.125-0.125l-0.25-0.063c-0.063-0.063-0.063-0.063-0.063-0.063 0-0.063 0.063-0.063 0.125-0.063s0.125 0 0.125 0.063h0.188c0-0.125-0.125-0.25-0.313-0.25s-0.313 0.125-0.313 0.25c0 0.125 0 0.125 0.188 0.188l0.188 0.063c0.063 0 0.063 0.063 0.063 0.063 0 0.063-0.063 0.063-0.125 0.063s-0.125 0-0.125-0.125h-0.188c0 0.188 0.125 0.25 0.313 0.25s0.313-0.063 0.313-0.188zM1.125-2v-0.5c0-0.125-0.125-0.25-0.25-0.25s-0.188 0.063-0.188 0.125c-0.063-0.063-0.125-0.125-0.25-0.125-0.063 0-0.125 0.063-0.188 0.125v-0.125h-0.188v0.75h0.188v-0.438c0-0.063 0.063-0.125 0.125-0.125s0.125 0 0.125 0.063v0.5h0.188v-0.438c0-0.063 0.063-0.125 0.125-0.125s0.125 0 0.125 0.063v0.5zM0.313-2v-0.188h-0.25v0.188zM0.438-2.563v-0.125h-0.125v-0.063c0-0.063 0-0.063 0.063-0.063 0 0 0 0 0.063 0v-0.125c-0.063-0.063-0.125-0.063-0.125-0.063-0.125 0-0.188 0.063-0.188 0.188v0.125h-0.125v0.125h0.125v0.563h0.188v-0.563zM0.75-2v-0.5c0-0.125-0.125-0.25-0.25-0.25s-0.188 0.063-0.25 0.125v-0.375h-0.188v1h0.188v-0.438c0-0.063 0.063-0.125 0.188-0.125 0.063 0 0.125 0 0.125 0.125v0.438zM0.875-2v-1h-0.188v0.688l-0.375-0.688h-0.25v1h0.25v-0.688l0.375 0.688zM0.75-2v-0.75h-0.188v0.438c0 0.125-0.063 0.188-0.188 0.188-0.063 0-0.125-0.063-0.125-0.125v-0.5h-0.188v0.5c0 0.188 0.125 0.25 0.25 0.25s0.188 0 0.25-0.125v0.125zM0.875-2.688c0-0.188-0.125-0.313-0.375-0.313h-0.375v1h0.188v-0.375h0.25c0.188 0 0.313-0.125 0.313-0.313zM0.625-2.688c0 0.125 0 0.188-0.125 0.188h-0.188v-0.313h0.188c0.125 0 0.125 0.063 0.125 0.125zM0.25-1.875v-0.875h-0.125v0.813c0 0.063-0.063 0.063-0.063 0.063-0.063 0-0.063 0-0.063 0v0.188c0.063 0 0.063 0 0.125 0 0.125 0 0.125-0.063 0.125-0.188zM0.25-2.813v-0.188h-0.125v0.188zM13.875 5.438h4.25v1.125h-4.25zM12.813 18.25h6.375v-10.625h-6.375zM17.063 9.75c0-0.313 0.25-0.563 0.563-0.563 0.25 0 0.5 0.25 0.5 0.563v6.375c0 0.313-0.25 0.563-0.5 0.563-0.313 0-0.563-0.25-0.563-0.563zM13.875 9.75c0-0.313 0.25-0.563 0.5-0.563 0.313 0 0.563 0.25 0.563 0.563v6.375c0 0.313-0.25 0.563-0.563 0.563-0.25 0-0.5-0.25-0.5-0.563zM26.5 1.375c-0.125-0.125-0.25-0.188-0.375-0.188-5.188 0.313-7.5-0.875-9.75-3.063-0.188-0.188-0.563-0.188-0.75 0-2.25 2.188-4.563 3.375-9.75 3.063-0.125 0-0.25 0.063-0.375 0.188-0.125 0.063-0.188 0.188-0.188 0.375v11.188c0 5.875 4.813 10.688 10.688 10.688s10.688-4.813 10.688-10.688v-11.188c0-0.188-0.063-0.313-0.188-0.375zM21.313 7.625h-1.063v11.188c0 0.25-0.25 0.5-0.5 0.5h-7.5c-0.25 0-0.5-0.25-0.5-0.5v-11.188h-1.063c-0.313 0-0.563-0.25-0.563-0.563s0.25-0.5 0.563-0.5h2.125v-1.625c0-0.313 0.25-0.563 0.5-0.563h5.375c0.25 0 0.5 0.25 0.5 0.563v1.625h2.125c0.313 0 0.563 0.188 0.563 0.5s-0.25 0.563-0.563 0.563z"></path>
</svg>
