<!-- Generated by IcoMoon.io -->
<svg version="1.1" xmlns="http://www.w3.org/2000/svg" width="32" height="32" viewBox="0 0 32 32">
<title>Secure-door</title>
<path d="M1.313-2.5h-0.313c0 0.188-0.125 0.313-0.313 0.313s-0.313-0.188-0.313-0.5c0-0.313 0.125-0.438 0.375-0.438 0.125 0 0.25 0.063 0.25 0.188h0.313c-0.063-0.313-0.313-0.438-0.625-0.438-0.375 0-0.625 0.25-0.625 0.688s0.25 0.688 0.625 0.688c0.375 0 0.563-0.125 0.625-0.5zM0.688-2.75v-0.313c0 0 0 0 0 0-0.125 0-0.25 0.125-0.313 0.25v-0.188h-0.25v1h0.25v-0.563c0-0.125 0.063-0.188 0.25-0.188 0 0 0.063 0 0.063 0zM1-2.5c0-0.313-0.188-0.563-0.5-0.563-0.25 0-0.438 0.25-0.438 0.563s0.188 0.5 0.438 0.5c0.25 0 0.438-0.063 0.5-0.313h-0.313c0 0.125-0.063 0.125-0.188 0.125s-0.188-0.063-0.188-0.25h0.688zM0.688-2.625h-0.375c0-0.125 0.063-0.188 0.188-0.188s0.188 0.063 0.188 0.188zM1-2v-0.063c-0.063 0-0.063-0.063-0.063-0.125v-0.563c0-0.188-0.125-0.313-0.438-0.313-0.25 0-0.438 0.125-0.438 0.375h0.25c0-0.125 0.063-0.125 0.188-0.125s0.188 0 0.188 0.063c0 0.125-0.125 0.125-0.25 0.125l-0.063 0.063c-0.25 0-0.313 0.125-0.313 0.313s0.125 0.25 0.313 0.25c0.125 0 0.188-0.063 0.313-0.125 0 0.063 0 0.125 0 0.125zM0.688-2.438c0 0.125-0.125 0.25-0.25 0.25-0.063 0-0.125-0.063-0.125-0.125s0.063-0.125 0.125-0.125h0.125c0.063 0 0.063 0 0.125-0.063zM0.563-2v-0.188c0 0-0.063 0-0.063 0-0.063 0-0.063 0-0.063-0.125v-0.5h0.125v-0.188h-0.125v-0.25h-0.25v0.25h-0.188v0.188h0.188v0.563c0 0.188 0.063 0.25 0.25 0.25 0.063 0 0.063 0 0.125 0zM1-2v-1.375h-0.25v0.5c-0.063-0.125-0.125-0.188-0.25-0.188-0.25 0-0.438 0.25-0.438 0.563 0 0.25 0.125 0.5 0.438 0.5 0.125 0 0.188 0 0.25-0.125v0.125zM0.75-2.5c0 0.188-0.063 0.313-0.188 0.313s-0.25-0.125-0.25-0.313c0-0.188 0.125-0.313 0.25-0.313s0.188 0.125 0.188 0.313zM1.063-2.5c0-0.313-0.125-0.563-0.438-0.563-0.125 0-0.188 0.063-0.25 0.188v-0.5h-0.25v1.375h0.25v-0.125c0.063 0.125 0.125 0.125 0.25 0.125 0.25 0 0.438-0.188 0.438-0.5zM0.813-2.5c0 0.188-0.063 0.313-0.188 0.313-0.188 0-0.25-0.125-0.25-0.313s0.063-0.313 0.25-0.313c0.125 0 0.188 0.125 0.188 0.313zM1-3h-0.25l-0.188 0.75-0.25-0.75h-0.313l0.375 1.063c0 0.063-0.063 0.188-0.125 0.188s-0.063-0.063-0.063-0.063v0.188c0 0.063 0.063 0.063 0.063 0.063 0.188 0 0.25-0.063 0.375-0.25zM1.313-2l-0.438-1.375h-0.313l-0.5 1.375h0.25l0.125-0.25h0.5l0.125 0.25zM0.875-2.5h-0.375l0.188-0.563zM1-2v-0.688c0-0.188-0.125-0.375-0.313-0.375-0.125 0-0.25 0.063-0.313 0.188v-0.125h-0.25v1h0.25v-0.625c0-0.125 0.063-0.188 0.25-0.188 0.063 0 0.125 0.063 0.125 0.188v0.625zM0.375-1.813v-1.188h-0.25v1.125c0 0.063 0 0.063-0.063 0.063 0 0-0.063 0-0.063 0v0.188c0.063 0.063 0.125 0.063 0.188 0.063 0.125 0 0.188-0.125 0.188-0.25zM0.375-3.125v-0.25h-0.25v0.25zM1-2.313v0c0-0.125-0.063-0.188-0.25-0.25l-0.313-0.063c-0.063-0.063-0.063-0.063-0.063-0.125s0.063-0.063 0.125-0.063 0.188 0 0.188 0.125h0.25c0-0.188-0.125-0.375-0.438-0.375-0.25 0-0.438 0.188-0.438 0.375 0 0.125 0.063 0.188 0.25 0.25l0.313 0.063c0.063 0.063 0.063 0.063 0.063 0.125s-0.063 0.063-0.188 0.063c-0.125 0-0.188 0-0.188-0.125h-0.25c0 0.188 0.188 0.313 0.5 0.313 0.25 0 0.438-0.125 0.438-0.313zM1.375-2l-0.625-0.813 0.563-0.563h-0.375l-0.5 0.625v-0.625h-0.313v1.375h0.313v-0.438l0.125-0.188 0.438 0.625zM0.375-2v-1h-0.25v1zM0.375-3.125v-0.25h-0.25v0.25zM1.563-2v-0.75c0-0.188-0.125-0.313-0.313-0.313-0.125 0-0.25 0.063-0.313 0.188-0.063-0.125-0.188-0.188-0.313-0.188-0.063 0-0.188 0.063-0.25 0.188v-0.125h-0.25v1h0.25v-0.625c0-0.125 0.063-0.188 0.188-0.188 0.063 0 0.125 0.063 0.125 0.125v0.688h0.25v-0.625c0-0.125 0.125-0.188 0.188-0.188 0.125 0 0.188 0.063 0.188 0.125v0.688zM0.563-2.813v-0.188h-0.125v-0.125c0 0 0-0.063 0.063-0.063 0 0 0.063 0 0.063 0v-0.188c0 0-0.125 0-0.125 0-0.188 0-0.25 0.063-0.25 0.25v0.125h-0.188v0.188h0.188v0.813h0.25v-0.813zM1.063-2.5c0-0.375-0.188-0.563-0.5-0.563s-0.5 0.25-0.5 0.563c0 0.313 0.188 0.5 0.5 0.5s0.5-0.188 0.5-0.5zM0.813-2.5c0 0.188-0.125 0.313-0.25 0.313s-0.25-0.125-0.25-0.313c0-0.188 0.125-0.313 0.25-0.313s0.25 0.125 0.25 0.313zM1-2v-0.688c0-0.25-0.125-0.375-0.313-0.375-0.125 0-0.25 0.063-0.313 0.188v-0.5h-0.25v1.375h0.25v-0.625c0-0.125 0.125-0.188 0.188-0.188 0.125 0 0.188 0.063 0.188 0.188v0.625zM1.25-2v-1.375h-0.313v0.938l-0.5-0.938h-0.313v1.375h0.313v-0.938l0.5 0.938zM1-2v-1h-0.25v0.563c0 0.125-0.063 0.25-0.188 0.25s-0.188-0.063-0.188-0.188v-0.625h-0.25v0.688c0 0.188 0.125 0.313 0.313 0.313 0.125 0 0.25-0.063 0.313-0.125v0.125zM1.188-2.938c0-0.313-0.125-0.438-0.438-0.438h-0.625v1.375h0.313v-0.5h0.313c0.25 0 0.438-0.188 0.438-0.438zM0.938-2.938c0 0.125-0.125 0.188-0.25 0.188h-0.25v-0.375h0.25c0.125 0 0.25 0.063 0.25 0.188zM1-2.375h-0.25c-0.063 0.125-0.125 0.188-0.188 0.188-0.125 0-0.25-0.125-0.25-0.313s0.063-0.313 0.25-0.313c0.063 0 0.125 0.063 0.188 0.188h0.25c-0.063-0.25-0.188-0.438-0.438-0.438-0.313 0-0.5 0.188-0.5 0.563 0 0.313 0.188 0.5 0.5 0.5 0.25 0 0.375-0.125 0.438-0.375zM20.5 7.438c-2.5 0-3.938-3.25-4.125-6.375 0-0.375 0.25-0.75 0.625-0.813 0.938-0.125 2.313-1.125 2.938-1.938 0.25-0.438 0.875-0.438 1.188 0 0.625 0.813 2 1.813 2.875 1.938 0.375 0.063 0.688 0.438 0.688 0.813-0.188 3.125-1.75 6.375-4.188 6.375zM20.5 5.875c1.188 0 2.313-2.125 2.625-4.313-0.938-0.313-1.875-0.938-2.625-1.688-0.688 0.75-1.625 1.375-2.563 1.688 0.25 2.25 1.313 4.313 2.563 4.313zM20.875 8.875v13.25c0 0.813-0.625 1.5-1.5 1.5h-10.5c-0.875 0-1.563-0.688-1.563-1.5v-20.375c0-0.813 0.688-1.5 1.563-1.5h6.125c-0.125 0.313-0.125 0.563-0.125 0.875 0.25 4.25 2.313 7.813 5.625 7.813 0.125 0 0.25 0 0.375-0.063zM10.563 14.938c0.5 0 0.938-0.438 0.938-0.938s-0.438-0.938-0.938-0.938c-0.563 0-0.938 0.438-0.938 0.938s0.375 0.938 0.938 0.938z"></path>
</svg>
