<!-- Generated by IcoMoon.io -->
<svg version="1.1" xmlns="http://www.w3.org/2000/svg" width="32" height="32" viewBox="0 0 32 32">
<title>Seed</title>
<path d="M11.75 15.313c0.125 0 0.313 0 0.438 0 1.063-0.125 1.938-0.75 2.688-1.875 1.875 3.375 2.5 6 2.5 6.063 0.063 0.25 0.313 0.5 0.625 0.5v0c0.313 0 0.563-0.188 0.688-0.438 0.438-1.313 1.125-2.563 1.938-3.75 0.75 1.5 1.75 2 2.5 2.125 0.188 0.063 0.375 0.063 0.563 0.063 1.063 0 2.188-0.563 3.125-1.563 1.75-1.813 2.438-6.813 1.25-9.375-0.188-0.313-0.563-0.5-0.875-0.313-0.063 0-0.125 0.063-0.125 0.063-1.25 0.875-2.313 1.188-3.5 1.5-0.938 0.25-2 0.5-3 1.188-1.188 0.75-1.875 1.875-1.875 3 0 0.625 0.188 1.438 1 2.25-0.563 0.875-1.125 1.75-1.563 2.625-0.625-1.75-1.438-3.5-2.375-5.125 1.563-0.75 2.5-1.813 2.813-3.125 0.438-1.938-0.75-3.688-1.5-4.625-1.25-1.438-3-1.875-4.875-2.313-1.688-0.438-3.438-0.813-4.813-2-0.188-0.188-0.375-0.188-0.563-0.188-0.188 0.063-0.375 0.188-0.438 0.375-1.875 3.438-0.938 10.125 1.125 12.5 1.313 1.625 2.875 2.438 4.25 2.438zM21.25 10.625c0.875-0.563 1.75-0.813 2.688-1.063s2-0.5 3.188-1.188c0.625 2.375-0.125 5.938-1.25 7.188-0.625 0.625-1.625 1.25-2.5 1.063-0.938-0.188-1.5-1.188-1.875-1.938 0 0 0-0.063 0-0.063 0.75-0.875 1.688-1.688 2.813-2.25 0.313-0.125 0.438-0.563 0.313-0.875-0.188-0.313-0.563-0.438-0.938-0.313 0 0 0 0 0 0-1.25 0.625-2.313 1.563-3.125 2.563-0.313-0.375-0.563-0.75-0.563-1.25 0-0.625 0.5-1.375 1.25-1.875zM7.188 1.688c1.5 1.063 3.188 1.438 4.688 1.813 1.688 0.375 3.188 0.75 4.188 1.875 1 1.188 1.438 2.438 1.188 3.5-0.188 0.875-0.938 1.625-2.188 2.25-1.438-2.313-3.25-4.438-5.25-6.25-0.313-0.25-0.688-0.25-0.938 0s-0.25 0.688 0 0.938c0 0 0 0 0.063 0 2.25 2.063 3.938 4.25 5.188 6.313-0.563 1.125-1.25 1.75-2.063 1.875-1.063 0.125-2.375-0.625-3.563-1.938-1.625-1.938-2.438-7.188-1.313-10.375zM31.938 24.688c-0.063-0.063-0.125-0.125-0.125-0.125l-0.188-0.188c-1.313-1.313-2.063-2.063-3.813-1.563l-5.813 1.625c0 0 0-0.063 0-0.125 0-1.125-0.75-2.313-2.125-2.313-1.063 0-1.75 0-2.375 0-0.938 0-1.625 0-2.563 0l-0.125-0.125c-0.75-0.688-1.938-1.875-4.813-1.875h-3.313v-0.688c0-0.313-0.313-0.625-0.688-0.625h-5.313c-0.375 0-0.688 0.313-0.688 0.625v10c0 0.375 0.313 0.688 0.688 0.688h5.313c0.375 0 0.688-0.313 0.688-0.688v-0.313c1.188 0.438 2.313 0.813 3.25 1.125 3.375 1.188 5.313 1.875 7.125 1.875 2.188 0 4.25-1.063 8.688-3.375 1.563-0.813 3.5-1.813 5.875-3 0.313-0.188 0.438-0.563 0.313-0.938zM5.375 28.688h-4v-8.688h4zM25.125 27.438c-7.563 4-7.563 4-14.75 1.438-1.063-0.375-2.313-0.813-3.688-1.25v-6.313h3.25c2.375 0 3.313 0.938 3.875 1.5 0.188 0.125 0.313 0.25 0.438 0.375 0.125 0.063 0.25 0.125 0.375 0.125 1.125 0 1.813 0 2.813 0 0.625 0 1.375 0 2.438 0 0.75 0 0.813 0.938 0.813 1 0 0.25-0.063 0.5-0.25 0.75-0.125 0.188-0.375 0.25-0.563 0.25h-7.188c-0.313 0-0.625 0.25-0.688 0.563-0.063 0.438 0.25 0.75 0.688 0.75h7.125c0.625 0.063 1.188-0.188 1.563-0.688 0.063 0 0.063 0 0.125 0l6.688-1.813c0.813-0.25 1.125-0.188 2 0.688-2 1-3.688 1.875-5.063 2.625z"></path>
</svg>
