<?xml version="1.0" standalone="no"?>
<!DOCTYPE svg PUBLIC "-//W3C//DTD SVG 20010904//EN"
 "http://www.w3.org/TR/2001/REC-SVG-20010904/DTD/svg10.dtd">
<svg version="1.0" xmlns="http://www.w3.org/2000/svg"
 width="512.000000pt" height="512.000000pt" viewBox="0 0 512.000000 512.000000"
 preserveAspectRatio="xMidYMid meet">

<g transform="translate(0.000000,512.000000) scale(0.100000,-0.100000)"
fill="#000000" stroke="none">
<path d="M907 4496 c-63 -23 -258 -220 -388 -393 -145 -192 -281 -442 -364
-667 -48 -130 -108 -370 -131 -521 -26 -168 -26 -542 0 -710 23 -150 83 -390
131 -521 87 -239 248 -524 406 -722 85 -107 283 -308 324 -330 66 -34 156 -10
196 54 20 33 25 97 10 136 -5 13 -60 75 -123 138 -363 367 -580 809 -649 1320
-17 123 -17 438 0 560 70 514 286 952 649 1320 63 63 118 125 123 138 14 38
10 102 -8 134 -35 59 -112 87 -176 64z"/>
<path d="M4129 4447 c-63 -42 -86 -125 -53 -190 9 -18 65 -81 123 -142 325
-337 535 -778 602 -1265 20 -139 17 -459 -5 -600 -74 -491 -281 -907 -627
-1266 -114 -117 -134 -154 -120 -217 22 -93 115 -142 206 -107 35 13 128 103
234 225 330 381 529 819 608 1332 26 169 23 546 -5 728 -43 273 -114 498 -237
750 -83 171 -134 253 -252 412 -92 123 -280 326 -324 349 -43 22 -110 18 -150
-9z"/>
<path d="M1337 4060 c-41 -13 -165 -128 -258 -239 -485 -578 -596 -1337 -300
-2042 80 -190 219 -395 386 -567 130 -135 159 -155 220 -155 86 0 145 59 145
146 0 63 -16 92 -87 154 -230 200 -425 546 -495 881 -20 93 -23 136 -23 327 0
190 4 234 23 322 75 341 229 620 477 863 42 41 83 87 91 102 57 108 -61 245
-179 208z"/>
<path d="M3744 4019 c-41 -12 -91 -69 -99 -113 -12 -59 11 -102 112 -210 205
-218 339 -470 409 -771 27 -114 29 -132 28 -350 0 -200 -3 -243 -22 -329 -71
-317 -217 -592 -438 -825 -104 -110 -114 -125 -114 -178 0 -57 30 -104 83
-131 87 -45 144 -16 296 152 579 640 669 1579 222 2320 -102 169 -296 396
-366 427 -44 20 -64 22 -111 8z"/>
<path d="M1778 3606 c-80 -29 -226 -181 -329 -346 -301 -477 -251 -1122 120
-1543 94 -105 198 -194 243 -205 96 -24 188 46 188 143 0 52 -12 69 -125 180
-156 153 -240 295 -291 490 -22 83 -26 123 -27 235 -1 75 5 162 12 195 46 219
158 419 315 562 67 61 86 94 86 146 0 105 -97 177 -192 143z"/>
<path d="M3220 3584 c-54 -34 -83 -111 -66 -177 3 -14 48 -67 99 -118 149
-149 233 -294 283 -484 23 -86 27 -120 27 -245 0 -125 -4 -159 -27 -245 -50
-190 -134 -335 -283 -484 -51 -51 -96 -104 -99 -118 -4 -13 -4 -45 -1 -71 4
-38 12 -53 46 -84 36 -34 46 -38 93 -38 67 0 96 17 195 118 184 186 308 421
360 682 23 117 23 364 0 482 -37 187 -112 363 -219 512 -68 96 -198 234 -251
266 -39 24 -121 26 -157 4z"/>
<path d="M2392 3200 c-115 -30 -205 -84 -297 -175 -130 -129 -195 -284 -195
-465 0 -109 21 -194 72 -299 52 -110 167 -228 275 -284 139 -73 328 -97 468
-62 184 47 354 182 433 345 23 47 49 112 57 145 19 76 19 234 0 310 -60 235
-249 426 -481 485 -100 26 -233 26 -332 0z"/>
</g>
</svg>
