<!-- Generated by IcoMoon.io -->
<svg version="1.1" xmlns="http://www.w3.org/2000/svg" width="32" height="32" viewBox="0 0 32 32">
<title>Serval</title>
<path d="M30.813 3.188c-0.063 0.063-0.25 0.188-0.438 0.313-0.5 0.5-1.125 1-1.125 1-0.063 0-0.063-0.063-0.125-0.188-0.063-0.375-0.375-0.938-0.563-1-0.313-0.125-0.625-0.063-1 0.313-0.188 0.25-0.313 0.375-0.5 1.125-0.188 0.625-0.25 1-0.25 1.188 0.063 0.188 0 0.313-0.375 0.75-0.438 0.563-0.563 0.938-0.625 1.438-0.125 1-0.313 1.25-1 1.375-0.438 0.125-0.625 0.25-1.25 0.75-0.25 0.188-0.625 0.438-0.875 0.563-0.25 0.188-0.375 0.25-0.313 0.25s0.25-0.063 0.375-0.125c0.188 0 0.375-0.063 0.5-0.125 0.313-0.188 0.813-0.625 0.813-0.75s0.563-0.375 0.938-0.438c0.188-0.063 0.188-0.063 0.188 0.063-0.063 0.063-0.125 0.063-0.25 0.063-0.063 0-0.125 0-0.188 0.125-0.125 0.125-0.063 0.188 0.188 0.188 0.063 0 0.188-0.063 0.25-0.188s0.188-0.313 0.313-0.438c0.063-0.063 0.188-0.25 0.25-0.375l0.063-0.188-0.063 0.25c-0.063 0.438 0 1.063 0.25 1.688 0.063 0.313 0.188 0.688 0.188 0.75 0.063 0.188 0.125 0.313 0.25 0.25 0.188-0.125 0-1-0.313-1.313-0.188-0.188-0.313-1.563-0.125-2.063 0.063-0.125 0.188-0.5 0.25-0.875 0.125-0.313 0.25-0.625 0.313-0.75l0.188-0.125-0.125 0.188c-0.125 0.25-0.25 0.75-0.188 0.625 0.063 0 0.188-0.188 0.313-0.438s0.25-0.438 0.25-0.438c0.063 0 0.25 0.625 0.188 0.688 0 0 0.063 0.063 0.125 0.188s0.125 0.25 0.063 0.375c0 0.125 0 0.125 0.188 0.125 0.125-0.063 0.188 0 0.25 0.125 0.125 0.125 0.188 0.125 0.313 0.125 0.125-0.063 0.125-0.188 0-0.188-0.188 0-0.563-0.375-0.625-0.625-0.125-0.25-0.125-0.938 0-1.125 0.063-0.063 0.125-0.25 0.125-0.438 0.063-0.375 0.063-0.375 0.125-0.188 0.063 0.063 0.125 0.125 0.188 0.125 0-0.063 0.063 0 0.125 0.063 0.063 0.188 0.188 0.188 0.125 0 0-0.125 0-0.125 0.125-0.125s0.25 0.063 0.313 0.063c0.063 0.063 0.063 0.063 0.125-0.063s0.125-0.125 0.25-0.063c0.063 0.063 0.188 0.063 0.313 0 0.188 0 0.25 0 0.188 0.125 0 0.063 0 0.125 0.125 0.188 0.188 0.125 0.25 0 0.063-0.25-0.125-0.125-0.063-0.125 0.125-0.063 0.375 0.125 0.875 0.563 0.75 0.688-0.063 0.063-0.063 0.125-0.063 0.188 0 0.125 0 0.125 0.063 0 0.125-0.125 0.125-0.125 0.125 0 0.063 0.063 0 0.125-0.063 0.188-0.063 0.188-0.125 0.313 0 0.313 0.063 0 0.063-0.063 0-0.063 0-0.063 0-0.125 0.063-0.125s0.063 0 0.063 0.125-0.063 0.188-0.125 0.125c-0.063 0-0.125 0.063-0.125 0.125s0 0.063 0.125 0.063c0.125-0.063 0.125-0.063 0.125 0-0.063 0.063-0.125 0.063-0.188 0.063-0.125 0-0.125 0.188 0 0.375 0.063 0.125 0.063 0.125 0 0.188s-0.188 0.063-0.25 0.063c-0.25-0.063-0.25 0.063-0.125 0.313 0.125 0.188 0.125 0.25 0.063 0.313-0.188 0.125-0.563 0.125-0.813-0.063-0.188-0.063-0.313-0.125-0.313-0.125-0.188 0 0 0.125 0.313 0.25 0.25 0.125 0.188 0.125-0.438 0-0.188-0.063-0.313-0.125-0.25-0.188 0-0.125-0.125-0.125-0.188 0-0.125 0.125 0 0.25 0.188 0.25 0.125-0.063 0.313 0 0.375 0.063 0.188 0.063 0.188 0.125 0.188 0.438 0 0.375-0.125 1.188-0.375 2-0.063 0.313-0.125 0.438-0.188 0.438-0.125-0.063-0.188 0.063-0.125 0.25 0.125 0.125 0.063 0.188-0.063 0.563-0.313 0.813-0.688 1.688-0.813 1.813-0.063 0-0.125 0.188-0.188 0.313-0.063 0.375-0.25 0.813-0.313 0.813-0.188 0-0.25 0.188-0.25 0.438 0 0.188-0.125 0.438-0.25 0.688-0.188 0.25-0.375 0.688-0.438 1-0.188 0.5-0.188 0.5-0.25 0.25 0-0.188-0.125-0.313-0.25-0.375-0.063 0-0.188 0.188-0.25 0.438-0.063 0.313 0 0.438 0.25 0.438 0.125 0 0.125 0 0.125 0.063s-0.063 0.125-0.063 0.188c0 0-0.063 0.063-0.125 0.063-0.125 0.063-0.313 0.563-0.25 0.75 0.063 0.063 0 0.313-0.063 0.563s-0.188 0.625-0.25 0.875c-0.063 0.25-0.188 0.5-0.25 0.625s-0.125 0.25-0.063 0.313c0 0.063-0.063 0.125-0.125 0.188s-0.063 0.125-0.063 0.25c0.063 0.063 0.063 0.313 0 0.5-0.125 0.938-0.125 1.125-0.063 2 0.125 1 0.188 1.375 0.313 1.563 0.063 0.188 0.063 0.188-0.25 0.438-0.125 0.063-0.125 0.063 0.125 0.063 0.313 0 0.5 0.125 0.375 0.375-0.125 0.125-0.313 0.188-0.313 0.063 0-0.188-0.188-0.313-0.375-0.313-0.125 0-0.125 0 0.063 0.125 0.125 0.125 0.188 0.125 0.063 0.25s-0.438 0.063-0.625-0.125c-0.063-0.063-0.125-0.438-0.25-0.938-0.125-1-0.188-1.5 0-1.563 0.063 0 0.188-0.438 0.125-0.5s-0.063-0.063-0.125 0c-0.125 0.063-0.125 0-0.125-0.625 0-0.563 0-0.688 0.125-0.75 0.188-0.125 0.188-0.625 0.063-0.75-0.125-0.063-0.125-0.313-0.125-2.063 0.063-1.875 0.063-2.063 0.188-2.188 0.125-0.188 0.125-0.25 0-0.375s-0.125-0.25 0-0.125c0 0.063 0.125 0.063 0.188 0.063 0.125 0 0.125 0 0.063-0.188-0.063-0.313-0.125-0.438-0.25-0.313-0.188 0.125-0.125 0 0.063-0.188 0.063-0.063 0.188-0.125 0.313-0.125 0.188 0 0.25-0.125 0.125-0.375l-0.063-0.188-0.125 0.125c-0.188 0.25-0.25 0.188-0.188-0.125 0.125-0.375 0.063-0.375-0.125-0.063-0.125 0.313-0.125 0.438-0.25 1.188 0 0.25 0 0.25-0.438 0.375-0.375 0.125-0.5 0.188-0.625 0.125s-0.313-0.063-0.375-0.063c-0.188 0.063-0.188 0.063-0.188-0.125 0.063-0.188-0.063-0.25-0.313-0.063-0.188 0.125-0.188 0.25 0.063 0.25h0.188l-0.188 0.125c-0.125 0.125-0.25 0.188-0.75 0.25-0.375 0.063-0.438 0.063-0.25 0.063 0.25 0 1.438-0.188 2.125-0.313 0.188 0 0.188 0 0.25 0.25 0.125 0.375 0.25 1.625 0.25 2.375 0 0.625-0.125 2.563-0.188 3.938-0.063 0.5-0.063 0.813 0 0.938 0 0.063 0.063 0.438 0.063 0.875 0 0.75 0.063 0.938 0.375 1.063 0.125 0 0.188 0.063 0.25 0.125 0.25 0.25 1.188 0.25 1.688 0.063 0.188-0.063 0.188-0.063 0.188-0.375 0-0.25 0-0.313-0.188-0.438-0.563-0.25-0.625-0.375-0.688-1.125-0.125-0.875 0-2.625 0.25-3.625 0.375-1.5 1.438-4.375 2.375-6.375 1.063-2.188 1.688-4.063 1.875-5.563 0.125-0.875 0.125-0.813 0.563-0.813 0.313 0 0.438-0.063 0.563-0.188 0.188-0.188 0.25-0.188 0.25-0.688 0-0.25 0-0.5 0-0.563 0.063-0.063 0.063-0.25 0.063-0.375 0-0.188 0.063-0.313 0.063-0.313 0.063 0 0-0.188-0.063-0.313-0.063-0.188-0.063-0.313-0.063-0.375 0 0 0.063-0.375 0.063-0.813 0.063-0.563 0.125-0.875 0.25-1.313 0.188-0.563 0.188-0.563 0.063-0.75s-0.125-0.188-0.313-0.125zM28.563 3.438c0.25 0.188 0.375 0.5 0.25 0.625-0.063 0-0.125 0-0.188 0-0.125-0.063-0.125-0.063-0.125 0.063s0 0.125-0.125 0c-0.063-0.063-0.063-0.063-0.063-0.063 0 0.063-0.063 0.125-0.125 0.125-0.125 0-0.125-0.125-0.125-0.375 0.063-0.438-0.438-0.063-0.688 0.563-0.063 0.125-0.063 0.125 0.063 0.063 0.25-0.125 0.25-0.063 0.063 0.125-0.063 0.125-0.125 0.25-0.125 0.375s0 0.125-0.063 0.125c-0.125-0.063-0.188 0.188-0.188 0.625 0.063 0.188 0.063 0.375 0.125 0.5 0 0.063 0 0.188 0.063 0.25 0.063 0.313-0.125 0.125-0.25-0.188-0.188-0.375-0.188-0.563 0.125-1.438 0.188-0.625 0.313-0.875 0.5-1.125 0.438-0.438 0.625-0.5 0.875-0.25zM31 3.75c-0.063 0.375-0.313 1.313-0.375 1.438-0.063 0.063-0.063 0-0.063-0.063 0.063-0.063 0-0.125-0.063-0.125-0.125 0-0.188 0-0.25-0.063s-0.063-0.063 0-0.063c0.063 0.063 0.063 0.063 0.063 0 0 0 0.063-0.063 0.063-0.125 0 0-0.063-0.125-0.125-0.188-0.125-0.063-0.188-0.063-0.125-0.063 0 0.063 0 0.063-0.063 0.125-0.063 0-0.125 0.188-0.125 0.5l-0.063 0.438v-0.5c0.063-0.75 0.25-1.125 0.5-1.125 0.125 0 0.25 0 0.188 0 0-0.063 0-0.125 0.063-0.188 0.063-0.125 0.063-0.125-0.125 0s-0.188 0 0-0.188c0.188-0.188 0.438-0.25 0.5-0.25 0 0.063 0 0.25 0 0.438zM23.5 25.125c-0.063 0.5-0.063 0.625 0 0.688 0.125 0.063 0.313 1.063 0.25 1.188 0 0-0.125-0.063-0.188-0.188-0.188-0.125-0.188-0.188-0.25-1.125-0.063-1.25-0.063-1.5 0.125-1.625 0.063-0.063 0.063-0.125 0-0.313-0.125-0.313-0.125-1 0-1.125 0 0 0.063-0.688 0-1.625 0-0.938 0.063-1.625 0.063-1.688 0.063-0.063 0.063 5.25 0 5.813zM11.188 10.813c-0.125 0.063 0.063 0.063 0.625 0.125 0.813 0 1.188 0.125 1 0.25-0.063 0-0.063 0.063 0 0.188 0.25 0.25 0.75 0.25 1 0.063 0.125-0.063 0.125-0.063 0-0.125-0.125-0.125 0-0.188 0.25-0.063 0.125 0 0.438 0.063 0.625 0.063s0.563 0.063 0.875 0.125c0.5 0.188 0.813 0.188 2.438 0.125 0.625 0 0.938 0 1 0.063s0.375 0.063 0.375-0.063c0-0.063 0.813-0.188 1-0.188 0.313 0.063 0.625 0.125 0.688 0.063s0.25-0.063 0.438-0.063c0.25-0.063 0.438-0.125 0.563-0.188l0.188-0.125-0.313 0.063c-0.813 0.125-2.063 0.188-2.563 0.125-0.313 0-0.563 0-0.563 0.063 0 0-0.438 0.063-1.063 0.063-0.813 0.063-1.25 0.063-1.875-0.063-0.5 0-1.188-0.125-1.563-0.125-0.375-0.063-0.813-0.125-1-0.188-0.375-0.063-1.688-0.25-1.813-0.25-0.063 0-0.188 0.063-0.313 0.063zM10.438 11c-0.188 0.063-0.563 0.125-0.75 0.25-1.125 0.313-1.438 0.375-1.5 0.375-0.125-0.063-0.438 0.063-0.938 0.5-0.188 0.188-0.375 0.375-0.375 0.375 0 0.125-0.125 0.313-0.25 0.563-0.25 0.25-0.188 0.438 0.063 0.375 0.063 0 0.125 0 0.188 0 0 0 0.063-0.063 0.063-0.125s-0.063-0.063-0.188-0.063c-0.063 0.063-0.125 0-0.125-0.063 0-0.125 0.063-0.188 0.125-0.188 0-0.063 0.063-0.063 0 0.063s0.063 0.125 0.125 0c0.125-0.063 0.125-0.063 0.125 0.063 0.063 0.125 0.125 0.188 0.188 0.188s0.063 0 0.063 0.063c-0.063 0.125-0.063 0.188-0.125 0.25 0 0.063 0.063 0.063 0.125 0.063s0.063-0.063 0.063-0.125 0.063-0.125 0.063-0.063c0 0 0.063 0.063 0.125 0 0.063 0 0.125 0 0.125 0.063 0 0-0.063 0.063-0.125 0.125-0.063 0-0.125 0.063-0.063 0.188 0 0.25 0.188 0.313 0.438 0.125 0.125-0.125 0.125-0.125 0.063-0.25-0.125-0.063-0.125-0.125-0.125-0.125 0.375-0.313 0.438-0.313 0.625-0.125 0.125 0.125 0.125 0.125 0.125 0.063-0.063-0.063-0.063-0.188-0.063-0.25 0-0.125-0.125-0.188-0.438-0.313l-0.375-0.125-0.25 0.188-0.188 0.188v-0.188c-0.063-0.125-0.063-0.25 0-0.313 0.063-0.188 0.5-0.438 0.938-0.438 0.313 0 0.375 0 0.375-0.125 0.063-0.125 0-0.25 0-0.313-0.063-0.188 0.063-0.313 0.25-0.25 0.063 0 0.313-0.063 0.5-0.125 0.313-0.188 0.313-0.188 0.438-0.063 0.063 0.188 0.063 0.188 0.125 0.063s0.125-0.188 0.063-0.188c0-0.125 0.063-0.063 0.25 0 0.25 0.125 0.25 0.125 0.5 0 0.125-0.063 0.25-0.438 0.125-0.438-0.063 0-0.25 0.063-0.375 0.125zM23.813 11.063c-0.063 0.063-0.063 0.25 0 0.688 0 0.5 0 0.563-0.188 0.875-0.125 0.188-0.188 0.375-0.188 0.438 0 0.188 0.313 0.063 0.563-0.188 0.313-0.313 0.313-0.313 0.375-0.938 0-0.5 0-0.688-0.063-0.813-0.125-0.188-0.375-0.25-0.5-0.063zM22.75 11.563c-0.188 0.188-0.375 0.438-0.375 0.5-0.063 0.125-0.125 0.125-0.688 0.125-0.438-0.063-0.688 0-0.75 0.063 0 0 0 0.063 0.125 0.125s0.25 0.125 0.313 0.188c0.063 0 0.313 0.063 0.5 0.063 0.375 0 0.375 0 0.813-0.438 0.375-0.438 0.5-0.625 0.438-0.875 0-0.125-0.063-0.063-0.375 0.25zM5.938 14c-1.063 1.625-2.063 2.688-2.625 2.938-0.813 0.375-1.313 0.375-2.5 0.063-0.75-0.25-0.813-0.188-0.813 0.125 0 0.375 0.125 0.5 0.688 0.75 1.188 0.625 2.188 0.625 3.375 0 1-0.438 1.75-1.25 2.313-2.25l0.25-0.5v0.563c-0.063 0.563-0.438 2.063-0.688 2.625-0.438 0.938-1 1.563-2.125 2.25-0.688 0.5-0.813 0.625-0.75 0.875 0 0.063 0 0.125-0.063 0.125-0.063-0.063-0.125 0.625-0.25 1.438 0 0.25-0.063 0.875-0.125 1.375-0.125 1-0.063 1.938 0.063 2.063 0.063 0.063 0.125 0.125 0.125 0.188 0 0.188 0.25 0.375 0.563 0.375 0.125 0 0.313 0 0.375 0 0.125 0.063 0.25 0 0.375-0.125 0.313-0.313 0.313-0.688 0-1l-0.25-0.25 0.063-0.625c0-0.375 0.125-0.938 0.188-1.25 0.188-0.938 0.375-1.125 1.625-1.688 2.125-1 3.063-1.563 4.063-2.5l0.438-0.438 0.188 0.25c0.125 0.125 0.375 0.438 0.5 0.75 0.313 0.688 0.375 1.188 0.125 2.188-0.063 0.438-0.188 0.875-0.188 1 0 0.375 0.75 1.563 0.875 1.375 0-0.063 0 0 0 0.063-0.063 0.188 0.313 0.688 1.688 2.5l0.438 0.5h0.688c0.563-0.063 0.75-0.063 0.875-0.188 0.25-0.188 0.313-0.438 0.188-0.625s-0.563-0.438-0.875-0.438c-0.25 0-0.5-0.25-1.125-1.25-1.063-1.625-1.063-1.75-0.063-3.688 0.938-1.938 1.313-2.938 1.313-3.625 0-0.188 0-0.438 0.063-0.438s0.188 0 0.375 0.063c0.5 0.125 1.313 0.313 1.625 0.313 0.188 0 0.125-0.063-0.188-0.125-0.375-0.063-0.5-0.125-0.688-0.313-0.25-0.25-0.625-0.375-0.625-0.125 0 0.125 0 0.125-0.313 0-0.25-0.063-0.438-0.5-0.375-1.063 0-0.125 0-0.125 0.063 0 0.125 0.188 0.438 0 0.438-0.25 0-0.125 0-0.188-0.125-0.188-0.063 0-0.188 0.063-0.25 0.125-0.063 0.125-0.063 0.125-0.125 0.063-0.188-0.188-0.25-0.125-0.188 0.313 0.063 0.375 0 0.438-0.125 0.5-0.188 0.125-0.188 0.313 0.063 0.5 0.188 0.188 0.25 0.25 0.188 0.438 0 0.188 0 0.438 0 0.563 0 0.188-0.063 0.313-0.25 0.5-0.188 0.25-0.25 0.375-0.063 0.375 0 0 0.063 0 0.063 0 0 0.188-1.25 2.875-1.375 2.875 0 0-0.125 0.125-0.25 0.25-0.125 0.25-0.125 0.313-0.063 0.375s0.063 0.063-0.063 0.313c-0.063 0.25-0.125 0.375-0.063 0.688 0 0.25 0.063 0.438 0.125 0.5 0 0 0.188 0.313 0.438 0.625 0.375 0.688 0.688 1.063 1.125 1.563 0.188 0.25 0.313 0.25 0.5 0.25 0.438 0 0.75 0.25 0.75 0.5 0 0.125 0 0.188-0.063 0.188 0 0-0.125-0.063-0.25-0.25-0.125-0.125-0.25-0.188-0.375-0.188-0.188 0-0.188 0 0.063 0.063 0.25 0.125 0.313 0.375 0.188 0.5s-0.125 0.125-0.375-0.125c-0.063-0.125-0.188-0.25-0.25-0.25 0 0 0 0.063 0.063 0.188 0.125 0.125 0.125 0.188 0.063 0.25-0.063 0.125-0.25 0.125-0.438 0-0.063-0.063-0.125-0.063-0.188-0.063s-0.125-0.063-0.125-0.125c-0.063-0.063-0.125-0.188-0.125-0.25-0.063 0-0.125-0.125-0.188-0.188-0.063-0.125-0.188-0.25-0.25-0.313s-0.063-0.125-0.063-0.125c0.063-0.063 0-0.063 0-0.063-0.063 0.063-0.125 0-0.125-0.125 0-0.063-0.063-0.125-0.125-0.125 0 0-0.063-0.063-0.125-0.125 0-0.125-0.063-0.188-0.063-0.125-0.063 0-0.063-0.063-0.063-0.125s-0.063-0.125-0.063-0.125c-0.063 0-0.063 0.063-0.063 0.125 0.063 0.063 0.063 0.063 0 0.063 0 0-0.063-0.125-0.063-0.188 0-0.188-0.375-0.688-0.438-0.688-0.063 0.063-0.313-0.5-0.25-0.563s0-0.063 0-0.063-0.125 0.063-0.125 0.125c-0.063 0.063-0.063 0.063-0.125-0.125 0-0.125-0.125-0.313-0.188-0.438-0.125-0.063-0.125-0.188-0.125-0.188 0.25-0.188 0.438-0.25 0.5-0.188 0 0.063 0 0.063 0.063 0 0-0.063 0-0.063 0-0.063-0.063 0-0.125-0.063-0.125-0.188 0-0.188-0.063-0.313-0.25-0.313-0.125 0-0.125-0.125 0.063-0.5 0.063-0.188 0.063-0.188-0.125-0.375l-0.188-0.188 0.188-0.438c0.188-0.5 0.188-0.75 0-0.938-0.25-0.188-0.563-0.813-0.5-1 0.063-0.063 0.063-0.188-0.125-0.375-0.125-0.125-0.25-0.25-0.313-0.25s-0.25-0.125-0.438-0.375l-0.313-0.375 0.125-0.063c0.25-0.063 0.25-0.25 0.063-0.438-0.313-0.25-0.5-0.188-0.5 0.063l-0.063 0.188-0.438-0.313c-0.375-0.313-0.438-0.375-0.25-0.438 0.125-0.063 0.125-0.25-0.063-0.375-0.125-0.125-0.375-0.188-0.5-0.063s-0.125 0.125-0.25-0.063c-0.188-0.188-0.75-1.313-0.75-1.563-0.063-0.125-0.063-0.188 0-0.25 0.125-0.063 0.063-0.25 0-0.25-0.125 0-0.125-0.063-0.125-0.375 0-0.25 0-0.438-0.063-0.438 0 0-0.125 0.188-0.188 0.375-0.125 0.625-0.438 1.188-0.563 1.188s-0.5-0.375-0.5-0.5c0-0.063 0.063-0.188 0.125-0.313 0.125-0.125 0.188-0.188 0.313-0.125 0.125 0 0.25-0.063 0.375-0.063l0.125-0.125-0.125-0.125c-0.125-0.063-0.188-0.125-0.25-0.188-0.125 0-0.125-0.063 0-0.25 0.25-0.438 0.063-0.188-0.313 0.375zM5.625 15.375c0.125 0 0.188 0.063 0.25 0.188 0 0.125 0.063 0.188 0.125 0.188 0.188 0 0.188 0.063 0.063 0.25-0.375 0.375-0.438 0.375-0.688 0.25-0.25-0.063-0.438-0.313-0.438-0.5 0-0.125 0.313-0.5 0.438-0.438 0.063 0 0.125 0.063 0.25 0.063zM7.063 16.375c0.063 0 0.063 0.125 0.063 0.313 0 0.375 0.125 0.625 0.313 0.563 0.063-0.063 0.125-0.125 0.063-0.25 0-0.063-0.063-0.25-0.063-0.313-0.063-0.313 0.125-0.188 0.625 0.25 0.25 0.313 0.375 0.5 0.375 0.563-0.063 0-0.188 0-0.25-0.063-0.25-0.188-0.313-0.125-0.188 0.188 0.063 0.188 0.125 0.313 0.25 0.375 0.188 0.063 0.188 0 0.375-0.125l0.125-0.188 0.438 0.313c0.375 0.375 0.375 0.375 0.375 0.688-0.063 0.188 0 0.25 0.063 0.375 0.125 0.125 0.125 0.125 0.063 0.313-0.063 0.063-0.188 0.188-0.375 0.313-0.125 0.125-0.25 0.188-0.313 0.125-0.188-0.125-0.313 0-0.313 0.25s-0.5 0.75-0.625 0.625c-0.063-0.063-0.25-0.125-0.438-0.188-0.25-0.063-0.313-0.063-0.375 0.063-0.125 0.125-0.125 0.188 0 0.25 0.063 0.063 0.188 0.125 0.25 0.188 0.188 0 0.125 0.063-0.375 0.313-0.813 0.438-1.5 0.688-1.563 0.625s-0.188 0-0.313 0.125c-0.125 0.125-0.313 0.188-0.313 0.188-0.063 0-0.188 0.063-0.313 0.188s-0.25 0.125-0.25 0.125c-0.063-0.063-0.125-0.063-0.188-0.063-0.063 0.063-0.125 0.313 0 0.313 0.063 0 0 0.125-0.063 0.313-0.063 0.125-0.063 0.313-0.063 0.375 0 0.125-0.063 0.25-0.125 0.25s-0.063 0.063-0.063 0.063c0.125 0.063-0.063 1.75-0.188 1.875-0.063 0.063 0 0.063 0.063 0.063 0.125 0 0.438 0.438 0.438 0.563s-0.063 0.25-0.188 0.375c-0.188 0.188-0.313 0.188-0.25-0.063 0.063-0.063 0.063-0.188 0.063-0.25 0-0.125-0.188-0.375-0.25-0.313 0 0 0 0.063 0.063 0.125 0.125 0.125 0.063 0.375-0.063 0.5-0.188 0.188-0.25 0.188-0.438 0l-0.188-0.188 0.125-0.063c0.063-0.063 0.188-0.188 0.188-0.313s0-0.125-0.125 0.063c-0.188 0.25-0.313 0.188-0.25-0.125 0-0.188 0-0.313-0.063-0.313-0.063-0.063-0.063-0.625 0.125-1.313 0-0.063-0.063-0.125-0.063-0.188-0.063-0.063-0.063-0.063 0-0.063 0.125 0 0.125 0 0.063-0.125 0 0 0-0.125 0-0.25 0.125-0.25 0.125-0.313 0.063-0.25-0.188 0.125-0.125 0.063 0-0.125 0.125-0.125 0.125-0.438 0-0.438-0.063 0 0-0.063 0.063-0.125 0.063-0.125 0.125-0.188 0.188-0.188 0 0.063 0.063 0 0.125-0.063s0.063-0.063-0.063-0.063-0.125-0.188 0-0.375c0-0.063 0-0.125 0-0.188-0.063 0 0.063-0.375 0.25-0.625 0.063-0.063 0.188-0.125 0.313-0.188s0.313-0.188 0.438-0.313l0.25-0.188h-0.188c-0.125 0-0.188 0.063-0.25 0.125 0 0.063-0.063 0.125-0.188 0.125-0.063 0-0.125 0.063-0.125 0.125s-0.063 0.125-0.188 0.188-0.188 0.125-0.188 0c0-0.063 0-0.125 0.063-0.188 0.063-0.188 0.875-0.625 1-0.625s0.188-0.063 0.125-0.125c0-0.063 0.063-0.188 0.188-0.313 0.188-0.188 0.25-0.188 0.313-0.125 0.063 0.125 0.25 0.125 0.688-0.063 0.125 0 0.125 0 0.125 0.188 0 0.125 0.063 0.25 0.125 0.313 0.125 0.063 0.125 0.125 0 0.25-0.188 0.188-0.188 0.375 0.063 0.5 0.188 0.125 0.25 0.125 0.313 0.063 0.188-0.125 0.188-0.438 0.063-0.563s-0.125-0.125 0-0.25c0.25-0.188 0-0.75-0.375-0.688-0.125 0-0.313-0.063-0.375-0.125-0.125 0-0.25-0.063-0.375 0-0.063 0-0.063-0.063 0.125-0.313 0.188-0.188 0.313-0.313 0.438-0.313 0.188 0 0.5-0.375 0.5-0.5-0.063 0-0.125-0.063-0.188-0.063-0.125 0.063-0.125 0-0.125-0.063 0.375-0.875 0.5-1.188 0.625-2.063l0.063-0.25 0.063 0.188c0.063 0.125 0.188 0.25 0.188 0.25zM5.25 16.5c0.125 0 0.25 0.063 0.25 0.063 0.125 0.188-0.625 0.75-0.813 0.75-0.125 0-0.625-0.438-0.625-0.563 0 0 0.063-0.125 0.188-0.25 0.125-0.25 0.125-0.25 0.438-0.188 0.125 0.063 0.375 0.125 0.563 0.188zM11.063 16.063c-0.063 0.188 0.063 0.625 0.25 0.688 0.188 0.125 0.438 0.125 0.563-0.063 0.125-0.125 0.125-0.188 0.063-0.375-0.188-0.438-0.688-0.563-0.875-0.25z"></path>
</svg>
