<!-- Generated by IcoMoon.io -->
<svg version="1.1" xmlns="http://www.w3.org/2000/svg" width="32" height="32" viewBox="0 0 32 32">
<title>Sheep</title>
<path d="M0.75-2.25h-0.188c0 0.063-0.063 0.125-0.188 0.125s-0.188-0.063-0.188-0.25c0-0.188 0.125-0.25 0.25-0.25 0.063 0 0.125 0 0.125 0.125h0.188c-0.063-0.188-0.188-0.313-0.375-0.313s-0.313 0.188-0.313 0.438c0 0.25 0.125 0.375 0.313 0.375s0.375-0.063 0.375-0.25zM0.375-2.438v-0.125c0 0 0 0 0 0-0.063 0-0.125 0-0.188 0.125v-0.125h-0.125v0.563h0.125v-0.313c0-0.063 0.063-0.125 0.188-0.125 0 0 0 0 0 0zM0.563-2.25c0-0.188-0.125-0.313-0.25-0.313-0.188 0-0.313 0.063-0.313 0.313 0 0.125 0.125 0.25 0.313 0.25 0.125 0 0.188-0.063 0.25-0.188h-0.125c-0.063 0.063-0.063 0.063-0.125 0.063s-0.125 0-0.125-0.125h0.375zM0.375-2.375h-0.188c0-0.063 0.063-0.125 0.125-0.125s0.063 0.063 0.063 0.125zM0.563-2v0c0-0.063-0.063-0.063-0.063-0.063v-0.375c0-0.063-0.063-0.125-0.188-0.125-0.188 0-0.25 0.063-0.25 0.188h0.125c0-0.063 0.063-0.063 0.125-0.063s0.063 0 0.063 0c0 0.063-0.063 0.063-0.125 0.125h-0.063c-0.125 0-0.188 0.063-0.188 0.188 0 0.063 0.125 0.125 0.188 0.125s0.125 0 0.188-0.063c0 0 0 0.063 0 0.063zM0.375-2.25c0 0.063-0.063 0.125-0.125 0.125s-0.063 0-0.063-0.063c0 0 0-0.063 0.063-0.063h0.063c0.063 0 0.063 0 0.063 0zM0.313-2v-0.125c0 0 0 0 0 0-0.063 0-0.063 0-0.063-0.063v-0.25h0.063v-0.125h-0.063v-0.188h-0.188v0.188h-0.063v0.125h0.063v0.313c0 0.063 0.063 0.125 0.188 0.125 0 0 0.063 0 0.063 0zM0.563-2v-0.75h-0.125v0.25c-0.063-0.063-0.063-0.063-0.188-0.063s-0.188 0.125-0.188 0.25c0 0.188 0.063 0.313 0.188 0.313s0.125 0 0.188-0.063v0.063zM0.438-2.313c0 0.125-0.063 0.188-0.125 0.188s-0.125-0.063-0.125-0.188c0-0.063 0.063-0.125 0.125-0.125s0.125 0.063 0.125 0.125zM0.625-2.25c0-0.188-0.125-0.313-0.25-0.313-0.063 0-0.125 0-0.188 0.063v-0.25h-0.125v0.75h0.125v-0.063c0.063 0.063 0.125 0.063 0.188 0.063 0.125 0 0.25-0.125 0.25-0.25zM0.438-2.313c0 0.125 0 0.188-0.125 0.188-0.063 0-0.125-0.063-0.125-0.188 0-0.063 0.063-0.125 0.125-0.125 0.125 0 0.125 0.063 0.125 0.125zM0.563-2.563h-0.125l-0.125 0.375-0.125-0.375h-0.188l0.25 0.563c0 0.063-0.063 0.125-0.125 0.125 0 0 0 0-0.063 0v0.125c0.063 0 0.063 0 0.063 0 0.125 0 0.188-0.063 0.188-0.125zM0.688-2.25c0-0.125-0.063-0.188-0.188-0.188h-0.125c-0.125-0.063-0.188-0.063-0.188-0.125s0.063-0.125 0.125-0.125c0.125 0 0.188 0.063 0.188 0.125h0.125c0-0.125-0.063-0.25-0.313-0.25-0.188 0-0.25 0.125-0.25 0.25s0.063 0.188 0.188 0.25h0.125c0.125 0 0.125 0.063 0.125 0.125s-0.063 0.063-0.125 0.063-0.188-0.063-0.188-0.125h-0.125c0 0.188 0.125 0.25 0.313 0.25s0.313-0.063 0.313-0.25zM0.875-2v-0.438c0-0.063-0.063-0.125-0.188-0.125-0.063 0-0.125 0-0.188 0.063 0-0.063-0.063-0.063-0.125-0.063s-0.125 0-0.188 0.063v-0.063h-0.125v0.563h0.125v-0.375c0-0.063 0.063-0.063 0.125-0.063s0.063 0 0.063 0.063v0.375h0.188v-0.375c0-0.063 0-0.063 0.063-0.063s0.125 0 0.125 0.063v0.375zM0.625-2.313c0-0.188-0.125-0.25-0.313-0.25s-0.25 0.063-0.25 0.25c0 0.188 0.063 0.313 0.25 0.313s0.313-0.125 0.313-0.313zM0.438-2.313c0 0.125-0.063 0.188-0.125 0.188s-0.125-0.063-0.125-0.188c0-0.063 0.063-0.125 0.125-0.125s0.125 0.063 0.125 0.125zM0.25-2v-0.75h-0.188v0.75zM0.563-2v-0.375c0-0.125-0.063-0.188-0.188-0.188-0.063 0-0.125 0-0.188 0.063v-0.063h-0.125v0.563h0.125v-0.375c0-0.063 0.063-0.063 0.125-0.063s0.125 0 0.125 0.063v0.375zM0.313-2.438v-0.125h-0.063v-0.063c0 0 0-0.063 0.063-0.063 0 0 0 0 0 0v-0.063c0 0-0.063 0-0.063 0-0.125 0-0.125 0-0.125 0.125v0.063h-0.125v0.125h0.125v0.438h0.125v-0.438zM0.563-2v-0.375c0-0.125-0.063-0.188-0.188-0.188-0.063 0-0.125 0-0.125 0.063v-0.25h-0.188v0.75h0.188v-0.375c0-0.063 0-0.063 0.063-0.063s0.125 0 0.125 0.063v0.375zM0.688-2v-0.75h-0.125v0.5l-0.313-0.5h-0.188v0.75h0.188v-0.563l0.313 0.563zM0.563-2v-0.563h-0.125v0.313c0 0.063-0.063 0.125-0.125 0.125s-0.125 0-0.125-0.125v-0.313h-0.125v0.375c0 0.125 0.063 0.188 0.188 0.188 0.063 0 0.125 0 0.188-0.063v0.063zM0.688-2.563c0-0.125-0.125-0.188-0.25-0.188h-0.375v0.75h0.188v-0.25h0.188c0.125 0 0.25-0.125 0.25-0.313zM0.5-2.5c0 0.063 0 0.063-0.125 0.063h-0.125v-0.188h0.125c0.125 0 0.125 0 0.125 0.125zM0.25-1.875v-0.688h-0.188v0.625c0 0.063 0 0.063 0 0.063-0.063 0-0.063 0-0.063 0v0.125c0.063 0 0.063 0 0.063 0 0.125 0 0.188-0.063 0.188-0.125zM0.25-2.625v-0.188h-0.188v0.188zM0.563-2.188h-0.125c-0.063 0.063-0.063 0.063-0.125 0.063s-0.125-0.063-0.125-0.188c0-0.063 0-0.125 0.125-0.125 0.063 0 0.063 0 0.125 0.063h0.125c0-0.125-0.125-0.188-0.25-0.188-0.188 0-0.25 0.063-0.25 0.25s0.063 0.313 0.25 0.313c0.125 0 0.25-0.063 0.25-0.188zM24.813 6.625c0 0 0-0.063 0-0.063l-1.5-1.375-0.438 0.938c-0.063 0.125-0.188 0.188-0.313 0.188-0.063 0-0.125-0.063-0.188-0.063-0.125-0.063-0.188-0.313-0.125-0.438l0.688-1.375v-0.688c-0.625 0.125-1.125 0.5-1.438 1.063-0.375 0.625-1.063 1-1.813 0.875-3.313-0.5-6.625-0.438-9.875 0.25l-1.688 0.25c-0.438 0.125-0.938 0.375-1.188 0.813 0 0.063 0 0.063 0 0.063-0.063 0.188-0.125 0.375-0.125 0.563 0 0.125 0 0.25 0 0.375 0 0.438 0 0.875 0 1.313 0 0.563 0.125 1.188 0.313 1.75 0.438 1.25 0.313 2.625-0.313 3.813l-0.063 0.063v3.063h0.563v-1.688c0-0.25 0.063-0.5 0.25-0.75l1.188-1.625c0.313-0.563 0.563-1.125 0.688-1.75l0.063-0.5c0-0.188 0.188-0.313 0.375-0.313 0.188 0.063 0.313 0.188 0.25 0.438l-0.063 0.438c0 0.375-0.125 0.688-0.25 1l0.688 0.125c1.625 0.25 2.313 0.25 4.25 0 0.875-0.125 1.813-0.188 2.688-0.188l-0.438-0.875c-0.063-0.188 0-0.375 0.125-0.5 0.188-0.063 0.438 0 0.5 0.125l0.875 1.625c0.063 0.063 0.063 0.125 0.063 0.188v4.125h0.563v-2.625c0-0.375 0.125-0.688 0.313-1.063l0.375-0.5c0.375-0.688 1-1.188 1.688-1.5l1.188-0.5c0.938-0.375 1.625-1.25 1.813-2.25l0.313-2zM24.625 4.125c-0.313-0.25-0.625-0.438-1-0.438v0.813c0 0 0 0.063 0.063 0.063l1.563 1.5c0.188 0.125 0.25 0.313 0.25 0.563v0.438h0.813c0 0 0.063 0 0.063 0s0.063 0 0.063 0c0.375-0.5 0.313-1.188-0.125-1.563zM6.125 7.313c0 0.125 0 0.188 0 0.25 0 0.125 0 0.25 0 0.438 0 0.125 0 0.375 0 0.563h-0.688c-0.063 0-0.125-0.063-0.125-0.125 0-0.5 0.313-0.938 0.813-1.125z"></path>
</svg>
