<!-- Generated by IcoMoon.io -->
<svg version="1.1" xmlns="http://www.w3.org/2000/svg" width="32" height="32" viewBox="0 0 32 32">
<title>Shielded</title>
<path d="M27.438 27.063l-11.438-19.75-11.438 19.75-2.75-1.563 14.188-24.563 14.188 24.563zM16 26.438c-2.688 0-4.875-2.188-4.875-4.813 0-2.688 2.188-4.875 4.875-4.875s4.875 2.188 4.875 4.875c0 2.625-2.188 4.813-4.875 4.813zM16 19.938c-0.938 0-1.625 0.75-1.625 1.688 0 0.875 0.688 1.625 1.625 1.625s1.625-0.75 1.625-1.625c0-0.938-0.688-1.688-1.625-1.688z"></path>
</svg>
