<!-- Generated by IcoMoon.io -->
<svg version="1.1" xmlns="http://www.w3.org/2000/svg" width="32" height="32" viewBox="0 0 32 32">
<title>shot-death</title>
<path d="M27.5 10.438l-5.688-2.125c-0.063 0-0.063 0-0.125 0h-9.938c-0.188 0-0.375 0.125-0.375 0.375v4.25c0 0.188 0.188 0.375 0.375 0.375h9.938c0.063 0 0.063 0 0.125-0.063l5.688-2.125c0.125-0.063 0.25-0.188 0.25-0.313 0-0.188-0.125-0.313-0.25-0.375zM12.813 12.563h-0.75v-3.563h0.75zM21.313 12.563h-7.813v-3.563h7.813zM22.063 12.438v-3.25l4.313 1.625zM6.75 7.625h7.813c0.188 0 0.375-0.188 0.375-0.375s-0.188-0.375-0.375-0.375h-7.813c-0.188 0-0.375 0.188-0.375 0.375s0.188 0.375 0.375 0.375zM14.563 14h-7.813c-0.188 0-0.375 0.188-0.375 0.375s0.188 0.313 0.375 0.313h7.813c0.188 0 0.375-0.125 0.375-0.313s-0.188-0.375-0.375-0.375zM10.688 10.813c0-0.188-0.188-0.375-0.375-0.375h-5.688c-0.188 0-0.375 0.188-0.375 0.375s0.188 0.375 0.375 0.375l5.688-0.063c0.188 0 0.375-0.125 0.375-0.313z"></path>
</svg>
