<!-- Generated by IcoMoon.io -->
<svg version="1.1" xmlns="http://www.w3.org/2000/svg" width="32" height="32" viewBox="0 0 32 32">
<title>Skin</title>
<path d="M29.063 25.625c-1.813-2.063-2.938-4.75-3-7.563-0.125-2.75 0.75-5.5 2.438-7.75l0.375-0.5c0.125-0.188 0.188-0.5 0.063-0.75l-2.188-4.125c-0.125-0.188-0.375-0.375-0.625-0.375h-1.25c-1.938 0-3.688-1.125-4.438-2.875l-0.563-1.25c-0.063-0.25-0.313-0.438-0.625-0.438h-6.5c-0.313 0-0.563 0.188-0.625 0.438l-0.563 1.25c-0.75 1.75-2.5 2.875-4.438 2.875h-1.25c-0.25 0-0.5 0.188-0.625 0.375l-2.188 4.125c-0.125 0.25-0.063 0.563 0.063 0.75l0.375 0.5c1.688 2.25 2.563 5 2.438 7.75-0.063 2.813-1.125 5.5-3 7.563-0.188 0.25-0.188 0.563-0.063 0.813l2.063 3.688c0.125 0.25 0.438 0.375 0.75 0.313l0.813-0.188c3.188-0.688 6.375-0.063 9.125 1.625 0.125 0.063 0.25 0.125 0.375 0.125s0.25-0.063 0.375-0.125c2.75-1.688 5.938-2.313 9.125-1.625l0.813 0.188c0.313 0.063 0.625-0.063 0.75-0.313l2.063-3.688c0.125-0.25 0.125-0.563-0.063-0.813zM26.125 29l-0.313-0.063c-3.375-0.75-6.875-0.188-9.813 1.563-2.125-1.25-4.438-1.875-6.875-1.875-0.938 0-1.938 0.125-2.938 0.313l-0.313 0.063-1.563-2.813c1.813-2.313 2.875-5.125 3-8.063 0.125-3.125-0.875-6.188-2.688-8.625l-0.125-0.188 1.75-3.375h0.875c2.5 0 4.75-1.438 5.688-3.75l0.375-0.813h5.625l0.375 0.813c0.938 2.313 3.188 3.75 5.688 3.75h0.875l1.75 3.375-0.125 0.188c-1.813 2.438-2.813 5.5-2.688 8.625 0.125 2.938 1.188 5.75 3 8.063zM26.188 9.563c0.125-0.188 0.125-0.438 0-0.688l-0.813-1.625c-0.125-0.188-0.375-0.375-0.625-0.375-2.75 0-5.25-1.688-6.375-4.188-0.125-0.188-0.375-0.375-0.625-0.375h-3.5c-0.25 0-0.5 0.188-0.625 0.375-1.125 2.5-3.625 4.188-6.375 4.188-0.25 0-0.5 0.188-0.625 0.375l-0.813 1.625c-0.125 0.25-0.125 0.5 0 0.688 1.688 2.563 2.563 5.563 2.438 8.625-0.063 2.75-1 5.438-2.563 7.688-0.188 0.25-0.188 0.5-0.063 0.75l0.5 0.875c0.125 0.25 0.438 0.375 0.688 0.375 0.75-0.125 1.563-0.188 2.313-0.188 2.25 0 4.563 0.563 6.563 1.563 0.125 0.063 0.188 0.063 0.313 0.063s0.188 0 0.313-0.063c2-1 4.313-1.563 6.563-1.563 0.75 0 1.563 0.063 2.313 0.188 0.25 0 0.563-0.125 0.688-0.375l0.5-0.875c0.125-0.25 0.125-0.5-0.063-0.75-1.563-2.25-2.5-4.938-2.563-7.688-0.125-3.063 0.75-6.063 2.438-8.625zM24.875 26.438c-0.625-0.063-1.313-0.125-2-0.125-2.375 0-4.75 0.563-6.875 1.563-2.125-1-4.5-1.563-6.875-1.563-0.688 0-1.375 0.063-2 0.125l-0.063-0.125c1.563-2.438 2.438-5.188 2.563-8.125 0.125-3.125-0.75-6.313-2.438-9l0.5-0.938c1.438-0.125 2.875-0.563 4.125-1.375 1.188-0.813 2.188-1.875 2.875-3.188h2.625c0.688 1.313 1.688 2.375 2.875 3.188 1.25 0.813 2.688 1.25 4.125 1.375l0.5 0.938c-1.688 2.688-2.563 5.875-2.438 9 0.125 2.938 1 5.688 2.563 8.125zM16 5.75c0.188 0 0.375-0.063 0.5-0.188s0.188-0.313 0.188-0.5c0-0.188-0.063-0.313-0.188-0.438-0.125-0.188-0.313-0.25-0.5-0.25s-0.375 0.063-0.5 0.25c-0.125 0.125-0.188 0.25-0.188 0.438s0.063 0.375 0.188 0.5c0.125 0.125 0.313 0.188 0.5 0.188zM19.688 13.438h-7.375c-0.375 0-0.688 0.313-0.688 0.688s0.313 0.688 0.688 0.688h7.375c0.375 0 0.688-0.313 0.688-0.688s-0.313-0.688-0.688-0.688zM19.688 15.813h-7.375c-0.375 0-0.688 0.313-0.688 0.688s0.313 0.688 0.688 0.688h7.375c0.375 0 0.688-0.313 0.688-0.688s-0.313-0.688-0.688-0.688zM19.688 18.125h-7.375c-0.375 0-0.688 0.313-0.688 0.688s0.313 0.688 0.688 0.688h7.375c0.375 0 0.688-0.313 0.688-0.688s-0.313-0.688-0.688-0.688z"></path>
</svg>
