<svg xmlns="http://www.w3.org/2000/svg" version="1.1" viewBox="-5.0 -10.0 110.0 135.0">
 <path d="m28.125 30.672c0.96875-1.082 1.625-2.418 1.8516-3.8711 0.78516-5.1016 4.3555-9.0898 9.0391-10.559-3.5625-9.4688-12.688-16.242-23.391-16.242 0 0 12.5 7.8125 12.5 25z"/>
 <path d="m60.988 16.246c4.6797 1.4688 8.25 5.457 9.0391 10.559 0.22266 1.4531 0.87891 2.7891 1.8516 3.8711v-5.6719c-0.003906-17.191 12.496-25.004 12.496-25.004-10.703 0-19.828 6.7734-23.387 16.246z"/>
 <path d="m71.188 34.301-0.5625-0.46875c-1.9844-1.6641-3.2969-3.9922-3.6875-6.5547-0.75391-4.9062-4.9766-8.5312-9.9414-8.5312h-13.992c-4.9648 0-9.1875 3.6211-9.9414 8.5312-0.39453 2.5586-1.7031 4.8906-3.6875 6.5547l-0.5625 0.46875c-2.418 2.0273-3.8125 5.0195-3.8125 8.1758v9.3555c0 2.8281 1.125 5.543 3.125 7.543s3.125 4.7148 3.125 7.543v11.82c0 3.5195 1.7578 6.8047 4.6875 8.7578l0.78906 0.52344c2.4375 1.625 3.8984 4.3594 3.8984 7.2891 0 2.5898 2.0977 4.6875 4.6875 4.6875h9.375c2.5898 0 4.6875-2.0977 4.6875-4.6875 0-2.9297 1.4648-5.6641 3.8984-7.2891l0.78906-0.52344c2.9297-1.9531 4.6875-5.2383 4.6875-8.7578v-11.82c0-2.8281 1.125-5.543 3.125-7.543s3.125-4.7148 3.125-7.543v-9.3555c0-3.1562-1.3945-6.1484-3.8125-8.1758zm-33.688 14.137c0 2.5898-2.0977 4.6875-4.6875 4.6875s-4.6875-2.0977-4.6875-4.6875v-4.6875c0-1.7266 1.3984-3.125 3.125-3.125 3.4531 0 6.25 2.7969 6.25 6.25zm10.938 37.5c0 0.86328-0.69922 1.5625-1.5625 1.5625s-1.5625-0.69922-1.5625-1.5625v-12.5c0-0.86328 0.69922-1.5625 1.5625-1.5625s1.5625 0.69922 1.5625 1.5625zm6.25 0c0 0.86328-0.69922 1.5625-1.5625 1.5625s-1.5625-0.69922-1.5625-1.5625v-12.5c0-0.86328 0.69922-1.5625 1.5625-1.5625s1.5625 0.69922 1.5625 1.5625zm17.188-37.5c0 2.5898-2.0977 4.6875-4.6875 4.6875s-4.6875-2.0977-4.6875-4.6875v-1.5625c0-3.4531 2.7969-6.25 6.25-6.25 1.7266 0 3.125 1.3984 3.125 3.125z"/>
<text x="0.0" y="117.5" font-size="5.0" font-weight="bold" font-family="Arbeit Regular, Helvetica, Arial-Unicode, Arial, Sans-serif" fill="#000000">Created by Berkah Icon</text><text x="0.0" y="122.5" font-size="5.0" font-weight="bold" font-family="Arbeit Regular, Helvetica, Arial-Unicode, Arial, Sans-serif" fill="#000000">from Noun Project</text></svg>