<!-- Generated by IcoMoon.io -->
<svg version="1.1" xmlns="http://www.w3.org/2000/svg" width="32" height="32" viewBox="0 0 32 32">
<title>Slingshot</title>
<path d="M19.5 3.5c0 0.25-0.25 0.438-0.5 0.438s-0.438-0.188-0.438-0.438c0-0.313 0.188-0.5 0.438-0.5s0.5 0.188 0.5 0.5zM29 3c0 0.25-0.188 0.438-0.438 0.438s-0.5-0.188-0.5-0.438c0-0.313 0.25-0.5 0.5-0.5s0.438 0.188 0.438 0.5zM31.063 7.563l-0.5-0.063 0.063-1.063 0.375-0.063c0.313 0 0.438-0.25 0.438-0.5s-0.25-0.438-0.5-0.438l-0.25 0.063 0.313-5c0-0.25-0.188-0.5-0.438-0.5h-3.625c-0.25 0-0.5 0.188-0.5 0.5l0.063 2.938c0 0 0 0 0 0-1.188 1.25-3 3.063-5.125 5.125l-0.063-1.5h0.063c0.313 0 0.5-0.25 0.438-0.5 0-0.25-0.25-0.438-0.5-0.438h-0.063l-0.063-1.063 0.438-0.125c0.25-0.063 0.438-0.313 0.375-0.563-0.125-0.25-0.375-0.438-0.625-0.375l-0.25 0.063-0.125-3.125c0-0.25-0.25-0.438-0.5-0.438h-3.5c-0.25 0-0.5 0.25-0.438 0.5l0.125 2.125c-2.813 1.438-7.313 4-10.625 6.938-0.063-0.063-0.125-0.063-0.188 0l-3.5 1c-0.125 0-0.25 0.063-0.313 0.188-1.438 2.063-1.875 3.938-1.313 5.625 0.563 1.813 2.188 2.75 3.063 3.063 1.438 0.563 2.813 0.75 4 0.75 1.25 0 2.313-0.25 3.125-0.5 1.75-0.5 2.813-1.25 2.813-1.313 0.125-0.063 0.188-0.125 0.188-0.25l0.938-3.25c1.125-0.875 2.25-1.813 3.5-2.813l2.688 6.063 1 4.938-0.625 7.938c0 0.25 0.188 0.5 0.5 0.5h3.063c0.25 0 0.5-0.188 0.5-0.438l0.5-7c0-0.063 0-0.063 0-0.125l-1-5.375 3.375-6.125c0.125-0.188 0.063-0.5-0.188-0.625-0.188-0.125-0.5-0.063-0.625 0.188l-3.438 6.25c-0.063 0.125-0.063 0.25-0.063 0.313l1 5.5-0.5 6.5h-2.125l0.563-7.5c0-0.063 0-0.125 0-0.125l-1-5c-0.063-0.063-0.063-0.063-0.063-0.125l-3.938-8.938-0.125-2.063 2.5-0.188 0.063 1.875c0 0.063 0 0.125 0.063 0.125l2.5 6.563c0.063 0.125 0.188 0.25 0.375 0.25 0.188 0.063 0.375-0.063 0.438-0.25l3.625-7c0.063-0.063 0.063-0.125 0.063-0.188v-0.313l2.125 0.188-0.063 0.5-1.063 1.875c-0.125 0.25 0 0.5 0.188 0.625 0.25 0.125 0.5 0.063 0.625-0.188l1.125-2c0.063-0.063 0.063-0.125 0.063-0.188l0.063-0.563 0.438 0.063c0 0 0 0 0.063 0 0.188 0 0.438-0.188 0.438-0.438s-0.188-0.5-0.438-0.5zM20.063 1.438l0.125 2.875-2.5 0.688-0.188-3.563zM5.5 11.875v0.813l-0.5-0.313c0.188-0.125 0.375-0.313 0.5-0.5zM4.75 11.313c-0.188 0.25-0.375 0.438-0.563 0.625l-0.5-0.313zM3.438 18.75c-0.688-0.375-1.5-1.125-1.813-2.188-0.438-1.25-0.125-2.75 1-4.438l2.563 1.5c-0.688 0.75-1.813 2.438-1.75 5.125zM5.625 19.5c3.375-1.188 4.813-2.938 5.438-4l1.813 2.875c-0.938 0.563-3.688 1.875-7.25 1.125zM11.938 15.125l1.438 0.188c-0.313 0.25-0.625 0.438-0.938 0.625zM13.313 17.375l-0.375-0.625c0.25-0.125 0.5-0.313 0.688-0.5zM17.938 11.625c-1.25 1.063-2.375 2.063-3.5 2.875l-3.375-0.438c-0.25-0.063-0.438 0.063-0.5 0.313 0 0-0.938 3.063-6.188 4.563-0.063-1.375 0.188-2.563 0.813-3.688 0.5-0.938 1.063-1.375 1.063-1.375 0.125-0.125 0.188-0.25 0.188-0.375v-2.563c3.063-2.75 7.438-5.25 10.313-6.813l0.063 1.125-0.438 0.125c-0.25 0.063-0.438 0.313-0.375 0.563 0.063 0.188 0.25 0.375 0.438 0.375 0.063 0 0.125-0.063 0.125-0.063l0.25-0.063 0.063 0.25-0.375 0.063c-0.313 0-0.5 0.25-0.438 0.5 0 0.25 0.188 0.438 0.438 0.438 0 0 0 0 0.063 0l0.375-0.063 0.125 2.125c0 0.063 0 0.125 0 0.188zM17.813 6.375l-0.063-0.438 2.5-0.625 0.063 0.875zM23.5 14.375l-1.875-4.813c1.938-1.813 3.625-3.5 4.875-4.813v1.188l-0.438 0.063c-0.313 0.063-0.5 0.25-0.438 0.563 0 0.188 0.25 0.375 0.438 0.375 0.063 0 0.063 0 0.063 0l0.438-0.063v0.25h-0.438c-0.25-0.063-0.438 0.125-0.5 0.375 0 0.313 0.188 0.5 0.438 0.563h0.5v0.313zM29.625 7.438l-2.125-0.188v-0.438l2.188-0.25zM29.75 5.563l-2.313 0.313-0.063-4.938h2.688z"></path>
</svg>
