<svg xmlns="http://www.w3.org/2000/svg" xmlns:xlink="http://www.w3.org/1999/xlink" version="1.1" x="0px" y="0px" viewBox="0 0 60 75" style="enable-background:new 0 0 60 60;" xml:space="preserve"><path d="M35.85,5.2c-3.94,0.79-7.47,3.8-9.2,7.86c-0.17,0.39-0.32,0.79-0.48,1.2c-0.7,1.81-1.37,3.52-2.81,4.04  c-0.28,0.1-0.62,0.17-0.98,0.24c-0.51,0.1-1.06,0.22-1.58,0.46l-1.85-2.42c-0.61-0.8-1.49-1.32-2.49-1.45  c-0.99-0.14-1.99,0.13-2.79,0.74c-1.65,1.26-1.97,3.63-0.71,5.28l2.96,3.89c0.01,0.01,0.02,0.03,0.03,0.04c0,0,0.01,0,0.01,0.01  l8.73,11.45V54c0,0.55,0.45,1,1,1h5.53c0.55,0,1-0.45,1-1V36.54l8.73-11.45c0,0,0.01,0,0.01-0.01c0.01-0.01,0.02-0.03,0.03-0.04  l2.8-3.68c1.7-0.94,2.99-2.56,3.62-4.6c0.71-2.27,0.51-4.71-0.55-6.69C44.87,6.37,40.24,4.32,35.85,5.2z M14.88,17.46  c0.38-0.29,0.84-0.41,1.31-0.35c0.47,0.06,0.88,0.3,1.17,0.68l1.93,2.53l-2.52,2.52l-2.22-2.91C13.95,19.16,14.1,18.05,14.88,17.46z   M30.42,35.59c-0.13,0.17-0.2,0.39-0.2,0.61V53h-3.53V36.2c0-0.22-0.07-0.43-0.2-0.61l-8.49-11.14l2.52-2.52l7.14,9.37  c0.19,0.25,0.48,0.39,0.8,0.39s0.61-0.15,0.8-0.39l7.14-9.37l2.52,2.52L30.42,35.59z M42.35,19.94l-2.22,2.91l-2.52-2.52l1.93-2.53  c0.29-0.38,0.7-0.62,1.17-0.68c0.47-0.06,0.93,0.06,1.31,0.35c0.38,0.29,0.62,0.7,0.68,1.17C42.75,19.1,42.63,19.56,42.35,19.94z   M45.49,16.17c-0.21,0.68-0.53,1.27-0.91,1.81c-0.2-0.83-0.66-1.57-1.36-2.1c-0.8-0.61-1.79-0.87-2.79-0.74  c-1,0.13-1.88,0.65-2.49,1.45l-9.5,12.47l-6.39-8.39c0.21-0.06,0.44-0.1,0.69-0.15c0.42-0.08,0.86-0.16,1.29-0.32  c2.29-0.84,3.19-3.15,3.99-5.2c0.15-0.39,0.3-0.77,0.46-1.14c1.48-3.46,4.45-6.02,7.75-6.68c3.49-0.7,7.3,0.95,8.85,3.85  C45.88,12.5,46.03,14.43,45.49,16.17z"/><text x="0" y="75" fill="#000000" font-size="5px" font-weight="bold" font-family="'Helvetica Neue', Helvetica, Arial-Unicode, Arial, Sans-serif">Created by Vectorstall</text><text x="0" y="80" fill="#000000" font-size="5px" font-weight="bold" font-family="'Helvetica Neue', Helvetica, Arial-Unicode, Arial, Sans-serif">from the Noun Project</text></svg>