<!-- Generated by IcoMoon.io -->
<svg version="1.1" xmlns="http://www.w3.org/2000/svg" width="26" height="32" viewBox="0 0 26 32">
<title>Sloth</title>
<path d="M4.864 5.35l-4.352 0.435v4.173l2.176-0.23c0.205-0.589 1.050-2.765 2.176-4.378zM10.291 8.934c0.179-0.768 0.717-2.97 1.741-4.301l-3.942 0.384c0.282 1.562 0.077 3.328-0.077 4.147l2.278-0.23zM15.898 4.25c0.589 1.126 0.41 3.507 0.358 4.070l8.832-0.922v-4.070l-9.19 0.922zM22.758 10.394c-1.408-1.050-3.251-1.28-4.864-0.614-0.768 0.307-1.485 0.794-1.869 1.587 0 0-0.077 1.485 0 2.714 0.077-0.154 0.205-0.384 0.384-0.64 0.589 0.256 1.741 0.768 2.381 0.819 0.87 0.051 0.589-0.589 0.486-0.87s-0.922-0.87-1.51-0.589c-0.282 0.128-0.614 0.128-0.896 0.077 0.768-0.896 2.048-1.741 3.712-0.717 2.509 1.536 2.304 3.072 1.664 4.173-0.179-0.256-0.333-0.614-0.333-0.973 0.026-0.666-0.87-1.203-1.178-1.178-0.307 0-1.024 0-0.614 0.794 0.307 0.589 1.254 1.485 1.741 1.92-0.026 0.026-0.051 0.077-0.077 0.102-0.896 1.101-3.328 0.051-4.198-0.538-0.64-0.435-1.152-0.819-1.408-1.408 0 0.051 0.026 0.128 0.051 0.179 0 0-0.973-1.997-0.666-4.378 0.077-0.691 0.154-1.587 0.179-2.458h0.026c0.256-2.637-0.102-3.738-0.333-4.147-0.026-0.051-0.077-0.102-0.128-0.154 0.128-0.205 0.205-0.563-0.051-0.922l-0.41 0.563c-0.154-0.077-0.307-0.154-0.486-0.205 0.256-0.307 0.589-0.538 0.589-0.538-0.589-0.179-0.973 0.23-1.152 0.486-0.563 0.077-0.922 0.538-1.203 1.075h-0.026c-0.102 0.205-1.28 2.406-1.664 4.301v0c-0.026 0.077-0.026 0.154-0.051 0.23 0 0.051-0.026 0.128-0.026 0.179v0c-0.256 1.254-0.358 2.816-0.077 4.608l0.23 1.126c0 0-0.768-1.229-0.845-3.302 0 0-1.587-0.307-1.971-0.077s-0.128 2.304 0.077 3.686c0 0-0.794-1.562-0.896-4.454-0.026-0.461 0.026-1.024 0.102-1.613h0.026l-0.026-0.026c0.358-2.458 0.282-3.661 0.205-4.147-0.026-0.051-0.026-0.077-0.051-0.128 0.128-0.23 0.282-0.666 0.026-0.87l-0.307 0.512c-0.102-0.051-0.205-0.128-0.333-0.154 0.23-0.307 0.486-0.614 0.486-0.614h-0.41c-0.282 0.128-0.589 0.41-0.794 0.64-0.256 0.154-0.538 0.461-0.845 0.87h-0.051c-0.41 0.717-1.408 2.534-2.15 4.378h0.026c-0.486 1.434-0.845 3.046-0.87 4.634-0.154 4.89 2.739 8.371 7.27 8.294 2.995-0.051 5.581-0.307 7.578-1.331l-0.282 0.768c1.741-0.794 2.867-3.021 2.867-3.021s0.717-0.026 1.587-0.384c-0.205 0.461-0.691 0.87-0.691 0.87 1.357-0.358 2.125-1.408 2.483-2.074 0.256-0.282 0.512-0.614 0.717-1.024 0.563-1.050 1.434-4.122-1.152-6.042zM18.176 13.158c0.128 0 0.23 0.102 0.23 0.23s-0.102 0.23-0.23 0.23c-0.128 0-0.23-0.102-0.23-0.23s0.102-0.23 0.23-0.23zM21.12 15.411c-0.128 0-0.23-0.102-0.23-0.23s0.102-0.23 0.23-0.23 0.23 0.102 0.23 0.23c0 0.128-0.102 0.23-0.23 0.23zM17.664 15.283c0 0-0.256 0.589 0.666 1.152s1.408 0.077 1.408 0.077c-0.41-0.026-0.819-0.256-1.408-0.64-0.589-0.358-0.666-0.589-0.666-0.589zM19.507 15.437c0-0.512-0.154-0.666-0.154-0.666s-0.205 0-0.486 0.128c-0.077 0.026-0.384 0.154-0.307 0.333 0.128 0.154 0.947 0.717 0.947 0.205z"></path>
</svg>
