<!-- Generated by IcoMoon.io -->
<svg version="1.1" xmlns="http://www.w3.org/2000/svg" width="32" height="32" viewBox="0 0 32 32">
<title>Sloth-bear</title>
<path d="M12 2.375c0 0.125-0.063 0.188-0.188 0.188s-0.125 0.063-0.125 0.625v0.625l0.25 0.063c0.375 0 0.563 0.188 0.438 0.438-0.063 0.063-0.188 0.125-0.313 0.125-0.063 0.063-0.188 0.125-0.25 0.188 0 0.125-0.188 0.25-0.313 0.313s-0.25 0.188-0.25 0.25c0 0.125-0.188 0.25-0.313 0.063 0-0.063-0.063 0.125 0 0.375 0.063 0.375 0 0.438-0.125 0.563s-0.188 0.25-0.188 0.688c0 0.5 0 0.563-0.188 0.75-0.063 0.125-0.188 0.25-0.188 0.375-0.063 0.188 0.313 0.75 0.563 0.875 0.125 0.063 0.125 0.125 0.125 0.25s0 0.125 0.125 0.125c0.125-0.063 0.313 0.125 0.25 0.313 0 0.063 0 0.063 0.125 0.063 0.125-0.063 0.438 0.188 0.375 0.313-0.063 0 0 0.063 0.125 0.063 0.063 0.063 0.188 0.125 0.188 0.25 0.063 0.063 0.125 0.188 0.313 0.188 0.25 0.063 0.313 0.125 0.375 0.25 0 0.188 0.063 0.188 0.438 0.188 0.313 0.063 0.375 0.063 0.375 0.188 0 0.188 0.063 0.188 1.375 0.188h1.375v-0.125c0-0.188 0-0.188 0.563-0.25 0.5 0 0.563-0.063 0.563-0.188s0.063-0.188 0.313-0.188c0.188 0 0.25-0.063 0.25-0.188 0-0.063 0.125-0.188 0.313-0.25 0.125 0 0.25-0.125 0.313-0.25 0-0.063 0.063-0.188 0.188-0.188 0.063 0 0.188-0.125 0.25-0.25 0.063-0.063 0.125-0.188 0.25-0.188 0.063 0 0.125-0.063 0.188-0.25 0-0.188 0.063-0.25 0.188-0.188 0.188 0.063 0.188 0 0.188-1.188 0-1.125 0-1.25-0.188-1.188-0.125 0.063-0.25-0.125-0.25-0.563 0-0.25 0-0.25-0.125-0.25-0.125 0.063-0.25-0.25-0.25-0.563 0-0.125-0.063-0.188-0.125-0.188s-0.25-0.125-0.313-0.188c-0.125-0.125-0.25-0.25-0.375-0.25-0.063 0-0.188 0-0.188-0.125-0.063-0.188 0.125-0.438 0.313-0.438 0.125 0 0.25 0 0.313-0.063 0-0.125 0.125-0.125 0.188-0.125 0.188 0 0.188-0.063 0.188-0.438 0-0.313-0.063-0.375-0.188-0.438s-0.188-0.125-0.188-0.313v-0.25h-0.5c-0.563-0.063-0.563 0-0.563 0.125l0.063 0.188-2.438 0.063c-2.438 0-2.625 0-2.438-0.313 0.063-0.063-0.063-0.063-0.375-0.063-0.5-0.063-0.5 0-0.5 0.188zM15.25 4.563c0.063 0 0.125 0.125 0.125 0.188 0 0.125 0.063 0.188 0.313 0.125 0.188 0 0.313 0 0.313 0.125 0.063 0.438 0 1.813-0.063 1.875 0 0.063-1.063 0.063-1.125 0 0 0 0-0.125 0-0.313-0.063-0.125-0.063-0.188-0.188-0.188-0.188 0.063-0.25-0.188-0.25-0.875 0-0.5 0.063-0.625 0.188-0.75 0.313-0.25 0.5-0.313 0.688-0.188zM19.188 10.438c0 0.438-0.125 0.688-0.313 0.563-0.063 0-0.063 0.063-0.063 0.125-0.063 0.313-0.063 0.375-0.125 0.438s-0.125 0.125-0.188 0.125c-0.063-0.063-0.125 0-0.188 0.125 0 0.188-0.25 0.25-0.75 0.25-0.313 0-0.313 0-0.188 0.125 0.125 0.063 0.125 0.125 0.063 0.188-0.125 0.063-2.125 0.125-3 0.063-0.813-0.063-0.875-0.063-0.813-0.188s0-0.188-0.375-0.188c-0.438 0-0.688-0.125-0.625-0.25 0-0.063-0.063-0.125-0.25-0.125-0.25-0.063-0.313-0.063-0.313-0.188s-0.063-0.188-0.25-0.25c-0.125 0-0.188-0.063-0.188-0.188s-0.063-0.188-0.125-0.125c-0.125 0.063-0.313-0.125-0.313-0.313 0-0.125-0.063-0.125-0.188-0.125-0.25 0-0.313 0.125-0.375 0.688-0.063 0.375-0.25 0.75-0.375 0.688-0.063 0-0.125 0-0.125 0.063-0.063 0.188-0.063 3.125 0 3.875 0.063 0.5 0.063 0.563 0.313 0.625 0.188 0.125 0.188 0.188 0.188 0.5 0 0.188 0.063 0.438 0.125 0.563s0.125 0.313 0.188 0.375c0 0.125 0.125 0.125 0.5 0.125 0.438 0 0.5 0 0.5-0.125s0.375-0.625 0.5-0.625c0 0 0 0.375 0.063 0.813 0 0.688 0 0.75-0.188 0.813-0.063 0-0.125 0.063-0.188 0.188 0 0.125-0.125 0.125-0.5 0.125-0.25 0-0.438 0.063-0.5 0.125-0.125 0.188-0.188 1.125-0.25 3.375 0 1.25-0.063 2.25-0.125 2.313 0 0.125-0.063 0.125-0.188 0.063-0.063-0.125-0.063 0.125-0.063 1.625 0 1.813-0.063 2.125-0.313 1.813-0.125-0.125-0.125-0.125-0.125 0.25s0 0.375 0.313 0.375c0.188 0.063 0.375 0.063 0.5 0.063s0.313 0.125 0.438 0.188c0.313 0.25 0.75 0.438 0.938 0.438 0.063 0 0.188 0 0.25-0.063 0.063-0.125 0.063-0.125 0-0.125 0 0 0-0.063 0.063-0.125s0.125-0.063 0.188 0c0.063 0.125 0-1.063-0.063-1.563-0.063-0.25 0-0.438 0.125-0.75 0.125-0.188 0.25-0.375 0.313-0.375 0 0 0.125-0.125 0.25-0.188 0.125-0.125 0.25-0.25 0.313-0.25s0.125 0 0.188-0.125c0-0.063 0.125-0.063 0.313-0.063 0.25 0 0.313-0.063 0.375-0.25s0.125-0.25 0.375-0.313 0.813 0 0.875 0.188c0.063 0.125 0.188 0.188 0.313 0.25s0.313 0.188 0.313 0.25c0 0.063 0.125 0.063 0.188 0.063 0.25 0 0.813 0.5 1 0.813 0.125 0.25 0.125 0.375 0.125 0.625-0.125 0.563-0.125 1.125-0.125 0.938 0.063-0.063 0.125-0.125 0.188-0.125 0.125 0.063 0.125 0.188 0.188 0.438 0 0.313 0.063 0.375 0.188 0.375s0.188 0.063 0.125 0.25c0 0.063 0.188 0.063 0.375 0.063 1.063-0.188 1.125-0.188 1.375-0.125 0.188 0 0.188 0 0.25-0.625 0-0.625 0-0.688-0.125-0.688s-0.188-0.063-0.25-0.125c0-0.063 0-1 0-2 0-1.813 0-1.938-0.188-1.938-0.188-0.063-0.25-0.625-0.25-3.438v-2.438h-1.063l-0.063-0.313c-0.063-0.438 0-0.563 0.188-0.563 0.063 0 0.188-0.063 0.188-0.188 0-0.063 0.063-0.188 0.188-0.188s0.188-0.063 0.188-0.188c0-0.125 0.063-0.125 0.313-0.125 0.313 0 0.375-0.063 0.375-0.188s0.063-0.188 0.25-0.188l0.25-0.063v-0.5c0-0.625 0.063-0.813 0.25-0.75 0.125 0.063 0.188-0.063 0.188-0.938 0-0.813-0.063-1-0.125-1-0.188 0-0.313-0.313-0.313-1.125 0-0.625 0-0.688-0.125-0.625-0.25 0.063-0.313-0.188-0.438-0.75-0.125-0.5-0.125-0.563-0.313-0.563-0.25-0.063-0.25-0.063-0.25 0.313z"></path>
</svg>
