<!-- Generated by IcoMoon.io -->
<svg version="1.1" xmlns="http://www.w3.org/2000/svg" width="32" height="32" viewBox="0 0 32 32">
<title>Smoke</title>
<path d="M9.381 8.294c-0.797 2.074 0.159 4.386 2.313 5.423-0.638 1.754-0.080 3.748 1.515 4.865 2.552 9.969 4.466 8.773 6.141 0.239 1.515-0.957 2.313-2.552 2.074-4.227 4.705-1.116 5.024-6.939 0.558-8.534-0.877-1.675-2.871-2.712-5.024-2.472-2.074-8.454-15.711 0.080-7.576 4.705z"></path>
<path d="M7.096 26.781c-0.014 0.007-0.028 0.012-0.044 0.016s-0.030 0.006-0.046 0.006c-0.048 0-0.086-0.014-0.115-0.041s-0.042-0.064-0.042-0.11c0-0.047 0.014-0.083 0.042-0.11s0.067-0.041 0.115-0.041c0.016 0 0.032 0.002 0.046 0.006s0.030 0.009 0.044 0.016v0.060c-0.014-0.009-0.028-0.016-0.041-0.021s-0.027-0.006-0.042-0.006c-0.027 0-0.048 0.009-0.064 0.026s-0.023 0.041-0.023 0.071 0.008 0.054 0.023 0.071c0.016 0.017 0.037 0.026 0.064 0.026 0.015 0 0.029-0.002 0.042-0.006s0.027-0.012 0.041-0.021z"></path>
<path d="M7.317 26.638c-0.006-0.003-0.013-0.005-0.019-0.006s-0.012-0.002-0.018-0.002c-0.018 0-0.032 0.006-0.042 0.017s-0.014 0.028-0.014 0.049v0.101h-0.069v-0.218h0.069v0.036c0.009-0.014 0.019-0.025 0.031-0.031s0.026-0.010 0.042-0.010c0.002 0 0.005 0 0.007 0.001s0.007 0.001 0.012 0.001z"></path>
<path d="M7.569 26.687v0.019h-0.163c0.002 0.017 0.008 0.029 0.018 0.037s0.024 0.012 0.043 0.012c0.014 0 0.029-0.002 0.044-0.006s0.032-0.011 0.048-0.020v0.054c-0.017 0.007-0.033 0.011-0.050 0.014s-0.032 0.005-0.049 0.005c-0.040 0-0.070-0.010-0.092-0.030s-0.033-0.048-0.033-0.084c0-0.036 0.011-0.064 0.032-0.084s0.051-0.031 0.089-0.031c0.034 0 0.062 0.011 0.082 0.031s0.031 0.048 0.031 0.083zM7.497 26.663c0-0.013-0.004-0.024-0.011-0.032s-0.018-0.012-0.030-0.012c-0.014 0-0.025 0.004-0.034 0.011s-0.013 0.019-0.015 0.033z"></path>
<path d="M7.72 26.698c-0.015 0-0.026 0.003-0.034 0.007s-0.011 0.012-0.011 0.022c0 0.009 0.003 0.016 0.009 0.021s0.014 0.007 0.025 0.007c0.013 0 0.024-0.004 0.033-0.014s0.014-0.021 0.014-0.036v-0.008zM7.826 26.672v0.124h-0.071v-0.032c-0.009 0.013-0.020 0.023-0.031 0.029s-0.026 0.009-0.042 0.009c-0.023 0-0.041-0.006-0.056-0.019s-0.021-0.031-0.021-0.052c0-0.025 0.009-0.044 0.026-0.056s0.045-0.018 0.083-0.018h0.041v-0.006c0-0.011-0.004-0.019-0.013-0.024s-0.022-0.008-0.041-0.008c-0.015 0-0.029 0.002-0.041 0.005s-0.025 0.007-0.036 0.013v-0.053c0.015-0.004 0.029-0.007 0.044-0.009s0.030-0.003 0.046-0.003c0.039 0 0.067 0.008 0.085 0.024s0.026 0.041 0.026 0.076z"></path>
<path d="M7.967 26.516v0.062h0.072v0.050h-0.072v0.092c0 0.010 0.002 0.017 0.006 0.021s0.012 0.005 0.024 0.005h0.036v0.050h-0.059c-0.028 0-0.047-0.006-0.059-0.017s-0.017-0.031-0.017-0.059v-0.092h-0.035v-0.050h0.035v-0.062z"></path>
<path d="M8.299 26.687v0.019h-0.163c0.002 0.017 0.008 0.029 0.018 0.037s0.024 0.012 0.043 0.012c0.014 0 0.029-0.002 0.044-0.006s0.032-0.011 0.048-0.020v0.054c-0.017 0.007-0.033 0.011-0.050 0.014s-0.033 0.005-0.049 0.005c-0.040 0-0.070-0.010-0.092-0.030s-0.033-0.048-0.033-0.084c0-0.036 0.011-0.064 0.032-0.084s0.051-0.031 0.089-0.031c0.034 0 0.062 0.011 0.082 0.031s0.031 0.048 0.031 0.083zM8.227 26.663c0-0.013-0.004-0.024-0.011-0.032s-0.018-0.012-0.030-0.012c-0.014 0-0.025 0.004-0.034 0.011s-0.013 0.019-0.015 0.033z"></path>
<path d="M8.5 26.611v-0.117h0.071v0.303h-0.071v-0.031c-0.010 0.013-0.020 0.023-0.031 0.029s-0.025 0.009-0.040 0.009c-0.027 0-0.049-0.011-0.066-0.032s-0.026-0.049-0.026-0.082c0-0.034 0.009-0.061 0.026-0.083s0.040-0.032 0.066-0.032c0.015 0 0.029 0.003 0.040 0.009s0.022 0.016 0.031 0.029zM8.454 26.751c0.015 0 0.027-0.005 0.034-0.016s0.011-0.027 0.011-0.047c0-0.021-0.004-0.037-0.011-0.048s-0.019-0.016-0.034-0.016c-0.015 0-0.026 0.006-0.034 0.016s-0.011 0.027-0.011 0.048c0 0.021 0.004 0.036 0.011 0.047s0.019 0.016 0.034 0.016z"></path>
<path d="M8.892 26.751c0.015 0 0.027-0.005 0.034-0.016s0.012-0.027 0.012-0.047c0-0.021-0.004-0.037-0.012-0.048s-0.019-0.016-0.034-0.016c-0.015 0-0.026 0.006-0.034 0.016s-0.012 0.027-0.012 0.048c0 0.021 0.004 0.036 0.012 0.047s0.019 0.016 0.034 0.016zM8.846 26.611c0.010-0.013 0.021-0.022 0.032-0.029s0.025-0.009 0.040-0.009c0.027 0 0.049 0.011 0.066 0.032s0.026 0.049 0.026 0.083c0 0.033-0.009 0.061-0.026 0.082s-0.039 0.032-0.066 0.032c-0.015 0-0.028-0.003-0.040-0.009s-0.022-0.016-0.032-0.029v0.031h-0.069v-0.303h0.069z"></path>
<path d="M9.033 26.578h0.069l0.059 0.148 0.050-0.148h0.070l-0.092 0.239c-0.009 0.024-0.020 0.041-0.032 0.051s-0.029 0.014-0.049 0.014h-0.040v-0.046h0.021c0.012 0 0.020-0.002 0.026-0.006s0.010-0.010 0.013-0.020l0.002-0.006z"></path>
<path d="M9.461 26.578h0.069v0.218h-0.069zM9.461 26.493h0.069v0.057h-0.069z"></path>
<path d="M9.817 26.663v0.133h-0.070v-0.101c0-0.019-0.001-0.032-0.001-0.039s-0.002-0.012-0.004-0.016c-0.003-0.004-0.007-0.008-0.011-0.010s-0.010-0.004-0.016-0.004c-0.015 0-0.026 0.006-0.035 0.017s-0.012 0.026-0.012 0.046v0.107h-0.069v-0.218h0.069v0.032c0.010-0.013 0.022-0.022 0.034-0.029s0.025-0.009 0.039-0.009c0.025 0 0.044 0.008 0.057 0.024s0.020 0.038 0.020 0.067z"></path>
<path d="M10.029 26.611v-0.117h0.071v0.303h-0.071v-0.031c-0.010 0.013-0.020 0.023-0.031 0.029s-0.025 0.009-0.040 0.009c-0.027 0-0.049-0.011-0.066-0.032s-0.026-0.049-0.026-0.082c0-0.034 0.009-0.061 0.026-0.083s0.040-0.032 0.066-0.032c0.015 0 0.029 0.003 0.040 0.009s0.022 0.016 0.031 0.029zM9.983 26.751c0.015 0 0.027-0.005 0.034-0.016s0.011-0.027 0.011-0.047c0-0.021-0.004-0.037-0.011-0.048s-0.019-0.016-0.034-0.016c-0.015 0-0.026 0.006-0.034 0.016s-0.011 0.027-0.011 0.048c0 0.021 0.004 0.036 0.011 0.047s0.019 0.016 0.034 0.016z"></path>
<path d="M10.329 26.638c-0.006-0.003-0.012-0.005-0.019-0.006s-0.012-0.002-0.018-0.002c-0.018 0-0.032 0.006-0.042 0.017s-0.014 0.028-0.014 0.049v0.101h-0.069v-0.218h0.069v0.036c0.009-0.014 0.019-0.025 0.031-0.031s0.026-0.010 0.042-0.010c0.002 0 0.005 0 0.007 0.001s0.007 0.001 0.012 0.001z"></path>
<path d="M10.461 26.698c-0.015 0-0.026 0.003-0.034 0.007s-0.011 0.012-0.011 0.022c0 0.009 0.003 0.016 0.009 0.021s0.014 0.007 0.025 0.007c0.013 0 0.024-0.004 0.033-0.014s0.014-0.021 0.014-0.036v-0.008zM10.568 26.672v0.124h-0.071v-0.032c-0.009 0.013-0.020 0.023-0.031 0.029s-0.026 0.009-0.042 0.009c-0.023 0-0.041-0.006-0.056-0.019s-0.021-0.031-0.021-0.052c0-0.025 0.009-0.044 0.026-0.056s0.045-0.018 0.083-0.018h0.041v-0.006c0-0.011-0.004-0.019-0.013-0.024s-0.022-0.008-0.041-0.008c-0.015 0-0.029 0.002-0.041 0.005s-0.025 0.007-0.036 0.013v-0.053c0.015-0.004 0.029-0.007 0.044-0.009s0.030-0.003 0.046-0.003c0.039 0 0.067 0.008 0.085 0.024s0.026 0.041 0.026 0.076z"></path>
<path d="M10.869 26.698c-0.015 0-0.026 0.003-0.034 0.007s-0.011 0.012-0.011 0.022c0 0.009 0.003 0.016 0.009 0.021s0.014 0.007 0.025 0.007c0.013 0 0.024-0.004 0.033-0.014s0.014-0.021 0.014-0.036v-0.008zM10.975 26.672v0.124h-0.071v-0.032c-0.009 0.013-0.020 0.023-0.031 0.029s-0.026 0.009-0.042 0.009c-0.023 0-0.041-0.006-0.056-0.019s-0.021-0.031-0.021-0.052c0-0.025 0.009-0.044 0.026-0.056s0.045-0.018 0.083-0.018h0.041v-0.006c0-0.011-0.004-0.019-0.013-0.024s-0.022-0.008-0.041-0.008c-0.015 0-0.029 0.002-0.041 0.005s-0.025 0.007-0.036 0.013v-0.053c0.015-0.004 0.029-0.007 0.044-0.009s0.030-0.003 0.046-0.003c0.039 0 0.067 0.008 0.085 0.024s0.026 0.041 0.026 0.076z"></path>
<path d="M11.259 26.663v0.133h-0.070v-0.101c0-0.019-0.001-0.032-0.001-0.039s-0.002-0.012-0.004-0.016c-0.003-0.004-0.007-0.008-0.011-0.010s-0.010-0.004-0.016-0.004c-0.015 0-0.026 0.006-0.035 0.017s-0.012 0.026-0.012 0.046v0.107h-0.069v-0.218h0.069v0.032c0.010-0.013 0.022-0.022 0.034-0.029s0.025-0.009 0.039-0.009c0.025 0 0.044 0.008 0.057 0.024s0.020 0.038 0.020 0.067z"></path>
<path d="M11.324 26.578h0.069v0.218h-0.069zM11.324 26.493h0.069v0.057h-0.069z"></path>
<path d="M11.631 26.585v0.053c-0.015-0.006-0.029-0.011-0.043-0.014s-0.027-0.005-0.039-0.005c-0.013 0-0.023 0.002-0.030 0.005s-0.009 0.009-0.009 0.016c0 0.005 0.002 0.010 0.007 0.013s0.014 0.005 0.026 0.006l0.012 0.001c0.036 0.005 0.060 0.012 0.072 0.023s0.019 0.026 0.019 0.049c0 0.023-0.009 0.041-0.026 0.053s-0.043 0.017-0.077 0.017c-0.014 0-0.029-0.001-0.044-0.004s-0.031-0.006-0.047-0.010v-0.053c0.014 0.007 0.028 0.012 0.042 0.015s0.030 0.005 0.045 0.005c0.013 0 0.023-0.002 0.030-0.006s0.011-0.009 0.011-0.016c0-0.006-0.002-0.011-0.007-0.014s-0.014-0.006-0.029-0.008l-0.012-0.001c-0.031-0.004-0.053-0.011-0.065-0.021s-0.019-0.026-0.019-0.048c0-0.023 0.008-0.040 0.024-0.051s0.040-0.017 0.073-0.017c0.013 0 0.026 0.001 0.040 0.004s0.030 0.005 0.046 0.009z"></path>
<path d="M7.006 26.892v0.046h-0.039c-0.010 0-0.017 0.002-0.021 0.006s-0.006 0.010-0.006 0.019v0.015h0.059v0.050h-0.059v0.168h-0.070v-0.168h-0.034v-0.050h0.034v-0.015c0-0.024 0.007-0.041 0.020-0.053s0.034-0.017 0.061-0.017z"></path>
<path d="M7.198 27.036c-0.006-0.003-0.013-0.005-0.019-0.006s-0.012-0.002-0.018-0.002c-0.018 0-0.032 0.006-0.042 0.017s-0.014 0.028-0.014 0.049v0.101h-0.069v-0.218h0.069v0.036c0.009-0.014 0.019-0.025 0.031-0.031s0.026-0.010 0.042-0.010c0.002 0 0.005 0 0.007 0.001s0.007 0.001 0.012 0.001z"></path>
<path d="M7.336 27.021c-0.015 0-0.027 0.006-0.035 0.017s-0.012 0.027-0.012 0.048c0 0.021 0.004 0.037 0.012 0.048s0.020 0.016 0.035 0.016c0.015 0 0.027-0.005 0.035-0.016s0.012-0.027 0.012-0.048c0-0.021-0.004-0.037-0.012-0.048s-0.020-0.017-0.035-0.017zM7.336 26.971c0.037 0 0.067 0.010 0.088 0.031s0.031 0.048 0.031 0.084c0 0.036-0.011 0.064-0.031 0.084s-0.050 0.030-0.088 0.030c-0.038 0-0.067-0.010-0.089-0.030s-0.031-0.049-0.031-0.084c0-0.036 0.010-0.064 0.031-0.084s0.051-0.031 0.089-0.031z"></path>
<path d="M7.708 27.014c0.009-0.014 0.019-0.024 0.031-0.031s0.026-0.011 0.041-0.011c0.025 0 0.044 0.008 0.056 0.024s0.020 0.038 0.020 0.067v0.133h-0.070v-0.119c0-0.002 0.001-0.004 0.001-0.008 0-0.016-0.003-0.027-0.007-0.034s-0.012-0.011-0.022-0.011c-0.013 0-0.023 0.006-0.031 0.016s-0.011 0.027-0.011 0.047v0.107h-0.070v-0.114c0-0.024-0.002-0.040-0.006-0.046s-0.012-0.011-0.022-0.011c-0.013 0-0.024 0.006-0.031 0.016s-0.011 0.027-0.011 0.047v0.107h-0.070v-0.218h0.070v0.032c0.009-0.012 0.018-0.022 0.029-0.028s0.024-0.010 0.037-0.010c0.015 0 0.029 0.004 0.040 0.011s0.020 0.017 0.026 0.031z"></path>
<path d="M8.136 26.915v0.062h0.072v0.050h-0.072v0.092c0 0.010 0.002 0.017 0.006 0.021s0.012 0.005 0.024 0.005h0.036v0.050h-0.059c-0.028 0-0.047-0.006-0.059-0.017s-0.017-0.031-0.017-0.059v-0.092h-0.035v-0.050h0.035v-0.062z"></path>
<path d="M8.471 27.062v0.133h-0.070v-0.101c0-0.019-0.001-0.032-0.001-0.039s-0.002-0.012-0.004-0.016c-0.003-0.004-0.007-0.008-0.011-0.010s-0.010-0.004-0.016-0.004c-0.015 0-0.026 0.006-0.035 0.017s-0.012 0.026-0.012 0.046v0.107h-0.069v-0.303h0.069v0.117c0.010-0.013 0.022-0.022 0.034-0.029s0.025-0.009 0.039-0.009c0.025 0 0.044 0.008 0.057 0.024s0.020 0.038 0.020 0.067z"></path>
<path d="M8.752 27.086v0.019h-0.163c0.002 0.017 0.008 0.029 0.018 0.037s0.024 0.012 0.043 0.012c0.014 0 0.029-0.002 0.044-0.006s0.032-0.011 0.048-0.020v0.054c-0.017 0.007-0.033 0.011-0.050 0.014s-0.033 0.005-0.049 0.005c-0.040 0-0.070-0.010-0.092-0.030s-0.033-0.048-0.033-0.084c0-0.036 0.011-0.064 0.032-0.084s0.051-0.031 0.089-0.031c0.034 0 0.062 0.011 0.082 0.031s0.031 0.048 0.031 0.083zM8.681 27.062c0-0.013-0.004-0.024-0.011-0.032s-0.018-0.012-0.030-0.012c-0.014 0-0.025 0.004-0.034 0.011s-0.013 0.019-0.015 0.033z"></path>
<path d="M8.947 26.904h0.084l0.106 0.199v-0.199h0.071v0.291h-0.084l-0.106-0.199v0.199h-0.071z"></path>
<path d="M9.382 27.021c-0.015 0-0.027 0.006-0.035 0.017s-0.012 0.027-0.012 0.048c0 0.021 0.004 0.037 0.012 0.048s0.020 0.016 0.035 0.016c0.015 0 0.027-0.005 0.035-0.016s0.012-0.027 0.012-0.048c0-0.021-0.004-0.037-0.012-0.048s-0.020-0.017-0.035-0.017zM9.382 26.971c0.037 0 0.067 0.010 0.088 0.031s0.031 0.048 0.031 0.084c0 0.036-0.011 0.064-0.031 0.084s-0.050 0.030-0.088 0.030c-0.038 0-0.067-0.010-0.089-0.030s-0.031-0.049-0.031-0.084c0-0.036 0.010-0.064 0.031-0.084s0.051-0.031 0.089-0.031z"></path>
<path d="M9.55 27.11v-0.133h0.070v0.021c0 0.012-0 0.027-0.001 0.045v0.036c0 0.017 0 0.030 0.001 0.038s0.002 0.013 0.005 0.016c0.003 0.005 0.006 0.008 0.011 0.011s0.010 0.004 0.016 0.004c0.015 0 0.026-0.005 0.034-0.016s0.013-0.027 0.013-0.046v-0.108h0.069v0.218h-0.069v-0.031c-0.011 0.013-0.022 0.023-0.034 0.029s-0.025 0.009-0.039 0.009c-0.025 0-0.045-0.008-0.058-0.023s-0.019-0.038-0.019-0.068z"></path>
<path d="M10.055 27.062v0.133h-0.070v-0.101c0-0.019-0.001-0.032-0.001-0.039s-0.002-0.012-0.004-0.016c-0.003-0.004-0.007-0.008-0.011-0.010s-0.010-0.004-0.016-0.004c-0.015 0-0.026 0.006-0.035 0.017s-0.012 0.026-0.012 0.046v0.107h-0.069v-0.218h0.069v0.032c0.010-0.013 0.022-0.022 0.034-0.029s0.025-0.009 0.039-0.009c0.025 0 0.044 0.008 0.057 0.024s0.020 0.038 0.020 0.067z"></path>
<path d="M10.261 26.904h0.124c0.037 0 0.065 0.008 0.085 0.025s0.030 0.040 0.030 0.070c0 0.031-0.010 0.054-0.030 0.071s-0.048 0.024-0.085 0.024h-0.049v0.101h-0.075zM10.336 26.959v0.081h0.041c0.015 0 0.026-0.004 0.034-0.011s0.012-0.017 0.012-0.030-0.004-0.023-0.012-0.030c-0.008-0.007-0.019-0.011-0.034-0.011z"></path>
<path d="M10.713 27.036c-0.006-0.003-0.012-0.005-0.019-0.006s-0.012-0.002-0.018-0.002c-0.018 0-0.032 0.006-0.042 0.017s-0.014 0.028-0.014 0.049v0.101h-0.069v-0.218h0.069v0.036c0.009-0.014 0.019-0.025 0.031-0.031s0.026-0.010 0.042-0.010c0.002 0 0.005 0 0.007 0.001s0.007 0.001 0.012 0.001z"></path>
<path d="M10.851 27.021c-0.015 0-0.027 0.006-0.035 0.017s-0.012 0.027-0.012 0.048c0 0.021 0.004 0.037 0.012 0.048s0.020 0.016 0.035 0.016c0.015 0 0.027-0.005 0.035-0.016s0.012-0.027 0.012-0.048c0-0.021-0.004-0.037-0.012-0.048s-0.020-0.017-0.035-0.017zM10.851 26.971c0.037 0 0.067 0.010 0.088 0.031s0.031 0.048 0.031 0.084c0 0.036-0.011 0.064-0.031 0.084s-0.050 0.030-0.088 0.030c-0.038 0-0.067-0.010-0.089-0.030s-0.031-0.049-0.031-0.084c0-0.036 0.010-0.064 0.031-0.084s0.051-0.031 0.089-0.031z"></path>
<path d="M11.021 26.977h0.069v0.214c0 0.029-0.007 0.051-0.021 0.066s-0.034 0.023-0.061 0.023h-0.035v-0.046h0.012c0.013 0 0.022-0.003 0.027-0.009s0.008-0.017 0.008-0.034zM11.021 26.892h0.069v0.057h-0.069z"></path>
<path d="M11.375 27.086v0.019h-0.163c0.002 0.017 0.008 0.029 0.018 0.037s0.024 0.012 0.043 0.012c0.014 0 0.029-0.002 0.044-0.006s0.032-0.011 0.048-0.020v0.054c-0.017 0.007-0.033 0.011-0.050 0.014s-0.033 0.005-0.049 0.005c-0.040 0-0.070-0.010-0.092-0.030s-0.033-0.048-0.033-0.084c0-0.036 0.011-0.064 0.032-0.084s0.051-0.031 0.089-0.031c0.034 0 0.062 0.011 0.082 0.031s0.031 0.048 0.031 0.083zM11.304 27.062c0-0.013-0.004-0.024-0.011-0.032s-0.018-0.012-0.030-0.012c-0.014 0-0.025 0.004-0.034 0.011s-0.013 0.019-0.015 0.033z"></path>
<path d="M11.604 26.984v0.057c-0.009-0.007-0.019-0.011-0.029-0.014s-0.019-0.005-0.029-0.005c-0.020 0-0.035 0.006-0.046 0.017s-0.016 0.027-0.016 0.048c0 0.020 0.005 0.036 0.016 0.047s0.026 0.017 0.046 0.017c0.011 0 0.021-0.001 0.031-0.004s0.019-0.008 0.027-0.015v0.057c-0.011 0.004-0.021 0.007-0.033 0.009s-0.023 0.004-0.034 0.004c-0.040 0-0.071-0.010-0.093-0.030s-0.033-0.049-0.033-0.084c0-0.036 0.011-0.064 0.033-0.084s0.053-0.031 0.093-0.031c0.011 0 0.023 0.001 0.034 0.004s0.022 0.005 0.033 0.009z"></path>
<path d="M11.741 26.915v0.062h0.072v0.050h-0.072v0.092c0 0.010 0.002 0.017 0.006 0.021s0.012 0.005 0.024 0.005h0.036v0.050h-0.059c-0.028 0-0.047-0.006-0.059-0.017s-0.017-0.031-0.017-0.059v-0.092h-0.035v-0.050h0.035v-0.062z"></path>
</svg>
