<!-- Generated by IcoMoon.io -->
<svg version="1.1" xmlns="http://www.w3.org/2000/svg" width="32" height="32" viewBox="0 0 32 32">
<title>Snare</title>
<path d="M16.125 26.875c-2.313 0-4.375-0.75-6-2.063l-0.875 0.938c1.813 1.5 4.25 2.438 6.875 2.438s5.063-0.938 6.938-2.5l-0.938-0.938c-1.563 1.313-3.688 2.125-6 2.125zM29.875 30.063l-5.188-6.188c1.125-1.563 1.813-3.438 1.813-5.438v-2.438l-1.375-0.188v2.625c0 1.688-0.5 3.188-1.375 4.5l-0.063-0.063c-0.25-0.25-0.625-0.25-0.875 0s-0.313 0.625-0.063 0.875l6.188 7.188c0.125 0.125 0.313 0.188 0.5 0.188 0.125 0 0.313-0.063 0.438-0.188 0.25-0.25 0.25-0.625 0-0.875zM9.563 22.875c-0.25-0.25-0.625-0.25-0.875 0l-0.188 0.188c-0.938-1.313-1.438-2.938-1.438-4.625 0-4.625 4.063-8.438 9.063-8.438 0.625 0 1.438 0.063 2.313 0.188l0.375 0.875c0.063 0.25 0.313 0.375 0.563 0.375 0.063 0 0.188 0 0.25 0 0.188-0.125 0.375-0.313 0.375-0.5l0.063 0.188c0.125 0.25 0.375 0.438 0.625 0.438 0.063 0 0.125-0.063 0.25-0.063 0.188-0.063 0.313-0.25 0.375-0.438l0.063 0.25c0.063 0.125 0.188 0.25 0.25 0.313v0.25c-0.25 1.313 0.625 2.563 1.938 2.813l2.938 0.438c0.125 0.063 0.25 0.063 0.375 0.063 1.188 0 2.188-0.875 2.375-2v-0.063c0.125-0.625-0.063-1.313-0.438-1.813-0.063-0.125-0.188-0.25-0.313-0.375l-3.375 0.563v2.125l-1.375-0.25c-0.563-0.063-1-0.625-0.875-1.25l0.188-1.125 4.25-0.813c0.625-0.063 1.188-0.438 1.5-0.938 0.375-0.5 0.563-1.188 0.438-1.813v-0.063c-0.125-0.625-0.5-1.188-1-1.563-0.25-0.125-0.563-0.25-0.813-0.313v1.375c0 0 0.063 0 0.063 0 0.25 0.188 0.438 0.438 0.5 0.75v0.063c0.063 0.25 0 0.563-0.188 0.813s-0.438 0.375-0.688 0.438l-0.625 0.125v-4.063c0-0.75 0-1.563 0.375-2.125 0.438-0.625 1.188-0.938 2.438-0.938 0.313 0 0.625-0.25 0.625-0.625 0-0.313-0.313-0.625-0.625-0.625-1.688 0-2.875 0.5-3.5 1.5-0.563 0.875-0.688 1.875-0.688 2.813v0.625l-1.563 0.313c-1.25 0.188-2.125 1.375-2 2.625-0.125-0.125-0.375-0.188-0.563-0.063-0.188 0.063-0.375 0.188-0.375 0.375l-0.125-0.25c-0.125-0.313-0.5-0.438-0.813-0.313-0.25 0.063-0.375 0.25-0.438 0.438l-0.063-0.188c-0.125-0.313-0.5-0.5-0.813-0.375-0.25 0.125-0.438 0.375-0.438 0.625-0.688-0.063-1.313-0.063-1.813-0.063-5.688 0-10.375 4.313-10.375 9.688 0 2.063 0.688 4 1.875 5.563l-5.125 6.063c-0.25 0.25-0.25 0.625 0 0.875 0.125 0.125 0.313 0.188 0.438 0.188 0.188 0 0.375-0.063 0.5-0.188l6.188-7.188c0.25-0.25 0.188-0.625-0.063-0.875zM26.5 11.5l0.625 0.125c0.25 0.063 0.5 0.188 0.688 0.438s0.25 0.563 0.188 0.813v0.063c-0.125 0.625-0.688 1-1.313 0.938v0l-0.188-0.063zM23.75 7.188l1.375-0.25v2.313l-2.063 0.375-0.188-1.188c-0.125-0.563 0.313-1.188 0.875-1.25z"></path>
</svg>
