<svg xmlns:dc="http://purl.org/dc/elements/1.1/" xmlns:cc="http://creativecommons.org/ns#" xmlns:rdf="http://www.w3.org/1999/02/22-rdf-syntax-ns#" xmlns:svg="http://www.w3.org/2000/svg" xmlns="http://www.w3.org/2000/svg" xmlns:sodipodi="http://sodipodi.sourceforge.net/DTD/sodipodi-0.dtd" xmlns:inkscape="http://www.inkscape.org/namespaces/inkscape" version="1.1" x="0px" y="0px" viewBox="0 0 100 125"><g transform="translate(0,-952.36218)"><path style="text-indent:0;text-transform:none;direction:ltr;block-progression:tb;baseline-shift:baseline;color:#000000;enable-background:accumulate;" d="m 211.22269,887.93961 a 0.99986467,0.99986467 0 0 0 -0.78106,0.99976 l 0,6.93587 -5.71741,-6.90462 a 0.99986467,0.99986467 0 1 0 -1.53089,1.28095 l 7.2483,8.74794 0,10.06013 -10.68499,0 -2.03077,-3.56166 a 0.99986467,0.99986467 0 0 0 -0.90604,-0.49989 0.99986467,0.99986467 0 0 0 -0.84355,1.49965 l 2.15575,3.74912 -5.1238,8.87291 -8.7167,-5.03006 -3.96781,-10.65375 a 0.99986467,0.99986467 0 0 0 -0.90604,-0.65609 0.99986467,0.99986467 0 0 0 -0.96852,1.34343 l 3.12426,8.40427 -5.99858,-3.46793 a 1.0075472,1.0075472 0 0 0 -0.99977,1.74959 l 6.02983,3.46793 -8.84167,1.46841 a 1.0118953,1.0118953 0 0 0 0.31243,1.99952 l 11.24735,-1.9058 8.68546,5.03007 -5.31125,9.24782 -4.34273,0 a 0.99986467,0.99986467 0 1 0 0,1.99953 l 4.56143,0 5.09255,8.87292 -8.68546,5.0301 -11.24735,-1.8746 a 0.99986467,0.99986467 0 1 0 -0.31243,1.9683 l 8.84167,1.4684 -6.02983,3.4679 a 1.0075515,1.0075515 0 1 0 0.99977,1.7496 l 5.99858,-3.4679 -3.12426,8.4042 a 0.99986467,0.99986467 0 1 0 1.87456,0.6874 l 3.96781,-10.6538 8.7167,-5.03 5.24877,9.0603 -2.28072,3.9054 a 1.0075472,1.0075472 0 0 0 1.74959,0.9997 l 2.24947,-3.9053 10.46629,0 0,10.0601 -7.2483,8.7792 a 0.99988416,0.99988416 0 1 0 1.53089,1.2497 l 5.71741,-6.9046 0,6.9359 a 0.99986467,0.99986467 0 1 0 1.99953,0 l 0,-6.9359 5.7174,6.9046 a 0.99988416,0.99988416 0 1 0 1.53089,-1.2497 l -7.24829,-8.7792 0,-10.0601 10.27883,0 2.24947,3.9053 a 0.99986467,0.99986467 0 1 0 1.71834,-0.9997 l -2.15574,-3.7491 5.34249,-9.2166 8.7167,5.03 3.96782,10.6538 a 0.99986467,0.99986467 0 1 0 1.87456,-0.6874 l -3.12427,-8.4042 5.99859,3.4679 a 1.0075515,1.0075515 0 0 0 0.99977,-1.7496 l -5.99859,-3.4679 8.84167,-1.4684 a 0.99986467,0.99986467 0 1 0 -0.34367,-1.9683 l -11.21611,1.8746 -8.7167,-5.0301 5.12379,-8.87292 4.31149,0 a 0.99986467,0.99986467 0 1 0 0,-1.99953 l -4.09279,0 -5.34249,-9.24782 8.7167,-5.03007 11.21611,1.9058 a 1.0144242,1.0144242 0 0 0 0.34367,-1.99952 l -8.84167,-1.46841 5.99859,-3.46793 a 1.0075472,1.0075472 0 0 0 -0.99977,-1.74959 l -5.99859,3.46793 3.12427,-8.40427 a 0.99986467,0.99986467 0 0 0 -0.8748,-1.34343 0.99986467,0.99986467 0 0 0 -0.99976,0.65609 l -3.96782,10.65375 -8.7167,5.03006 -5.21752,-9.02912 2.03077,-3.59291 a 0.99986467,0.99986467 0 0 0 -0.84355,-1.49965 0.99986467,0.99986467 0 0 0 -0.87479,0.49989 l -2.06202,3.56166 -10.46628,0 0,-10.06013 7.24829,-8.74794 a 0.99986467,0.99986467 0 1 0 -1.53089,-1.28095 l -5.7174,6.90462 0,-6.93587 a 0.99986467,0.99986467 0 0 0 -0.99977,-0.99976 0.99986467,0.99986467 0 0 0 -0.2187,0 z m -11.02865,23.11956 10.24759,0 0,18.15198 -15.68381,-9.06037 5.06131,-8.81043 a 0.99988166,0.99988166 0 0 0 0.37491,-0.28118 z m 12.24712,0 10.46628,0 5.24877,9.06037 -15.71505,9.09161 0,-18.15198 z m -18.6831,10.80995 15.6838,9.06037 -15.6838,9.06034 -5.24877,-9.06034 5.24877,-9.06037 z m 35.39791,0 5.21753,9.06037 -5.21753,9.06034 -15.71505,-9.06034 15.71505,-9.06037 z m -18.71434,10.77872 0,18.15199 -10.46629,0 -5.21752,-9.0916 15.68381,-9.06039 z m 1.99953,0 15.71505,9.09159 -5.24877,9.0604 -10.46628,0 0,-18.15199 z" fill="#000000" fill-opacity="1" fill-rule="evenodd" stroke="none" marker="none" visibility="visible" display="inline" overflow="visible"/><path style="text-indent:0;text-transform:none;direction:ltr;block-progression:tb;baseline-shift:baseline;color:#000000;enable-background:accumulate;" d="m 49.783211,958.36238 a 1.9991254,1.9991254 0 0 0 -1.7492,2.03036 l 0,4.15442 -3.9357,-4.77915 a 2.0077458,2.0077458 0 0 0 -3.0925,2.56137 l 7.0282,8.46503 0,8.71492 -9.121,0 -1.7493,-3.06116 a 1.9991254,1.9991254 0 0 0 -1.8429,-1.03079 1.9991254,1.9991254 0 0 0 -1.6242,3.02991 l 1.8741,3.24857 -4.3418,7.4967 -7.5279,-4.34184 -3.8421,-10.30796 a 1.9991254,1.9991254 0 0 0 -1.8429,-1.34316 1.9991254,1.9991254 0 0 0 -1.9054,2.71756 l 2.1552,5.80994 -3.5922,-2.09283 a 2.0011326,2.0011326 0 1 0 -1.9991,3.46722 l 3.5922,2.09283 -6.0911,0.99956 a 2.0104418,2.0104418 0 1 0 0.656,3.96701 l 10.8702,-1.84294 7.528,4.34184 -4.5293,7.87151 -3.7483,0 a 1.99915,1.99915 0 1 0 0,3.9983 l 3.9045,0 4.3731,7.5279 -7.528,4.3418 -10.8702,-1.8117 a 1.9991254,1.9991254 0 1 0 -0.656,3.9358 l 6.0911,1.0308 -3.5922,2.0616 a 2.0011326,2.0011326 0 1 0 1.9991,3.4672 l 3.5922,-2.0616 -2.1552,5.7787 a 2.0016201,2.0016201 0 1 0 3.7483,1.4057 l 3.8421,-10.3392 7.5279,-4.3419 4.4668,7.6841 -1.9991,3.436 a 2.001111,2.001111 0 1 0 3.4671,1.9992 l 1.968,-3.436 8.9023,0 0,8.7149 -7.0282,8.4962 a 1.9991254,1.9991254 0 1 0 3.0925,2.5302 l 3.9357,-4.7479 0,4.1544 a 1.9991254,1.9991254 0 1 0 3.9982,0 l 0,-4.1544 3.9359,4.7479 a 1.9991254,1.9991254 0 1 0 3.061,-2.5302 l -6.9969,-8.4962 0,-8.7149 8.6838,0 1.9678,3.436 a 2.001142,2.001142 0 1 0 3.4672,-1.9992 l -1.8742,-3.2485 4.5293,-7.8716 7.528,4.3419 3.8733,10.3392 a 1.9991254,1.9991254 0 1 0 3.7171,-1.4057 l -2.1554,-5.7787 3.5922,2.0616 a 2.0011326,2.0011326 0 0 0 1.9991,-3.4672 l -3.5922,-2.0616 6.1223,-1.0308 a 1.9991254,1.9991254 0 1 0 -0.6871,-3.9358 l -10.8702,1.8117 -7.528,-4.3418 4.3731,-7.5279 3.7171,0 a 1.99915,1.99915 0 0 0 0,-3.9983 l -3.5609,0 -4.5293,-7.87151 7.528,-4.34184 10.8702,1.84294 a 2.0130372,2.0130372 0 1 0 0.6871,-3.96701 l -6.1223,-0.99956 3.5922,-2.09283 a 2.0011326,2.0011326 0 0 0 -1.9991,-3.46722 l -3.5922,2.09283 2.1554,-5.80994 a 1.9991254,1.9991254 0 0 0 -1.7493,-2.71756 1.9991254,1.9991254 0 0 0 -1.9678,1.34316 l -3.8733,10.30796 -7.528,4.34184 -4.4355,-7.68411 1.7804,-3.06116 a 1.9991254,1.9991254 0 0 0 -1.718,-3.02991 1.9991254,1.9991254 0 0 0 -1.7492,1.03079 l -1.7805,3.06116 -8.8711,0 0,-8.71492 6.9969,-8.46503 a 1.9991254,1.9991254 0 1 0 -3.061,-2.56137 l -3.9359,4.77915 0,-4.15442 a 1.9991254,1.9991254 0 0 0 -2.0303,-2.03036 1.9991254,1.9991254 0 0 0 -0.2187,0 z m -10.5891,25.14519 8.8399,0 0,15.39951 -13.3379,-7.7154 4.4044,-7.65288 a 1.9991254,1.9991254 0 0 0 0.0936,-0.0312 z m 12.8381,0 8.8711,0 4.4356,7.71535 -13.3067,7.68416 0,-15.39951 z m -19.3352,11.15134 13.3378,7.71539 -13.3378,7.6841 -4.4355,-7.6841 4.4355,-7.71539 z m 34.6411,0.0312 4.4667,7.68409 -4.4667,7.6842 -13.3068,-7.6842 13.3068,-7.68409 z m -19.3041,11.12009 0,15.3995 -8.9023,0 -4.4356,-7.6841 13.3379,-7.7154 z m 3.9982,0 13.3067,7.6842 -4.4356,7.7153 -8.8711,0 0,-15.3995 z" fill="#000000" fill-opacity="1" fill-rule="evenodd" stroke="none" marker="none" visibility="visible" display="inline" overflow="visible"/></g><text x="0" y="115" fill="#000000" font-size="5px" font-weight="bold" font-family="'Helvetica Neue', Helvetica, Arial-Unicode, Arial, Sans-serif">Created by alerma</text><text x="0" y="120" fill="#000000" font-size="5px" font-weight="bold" font-family="'Helvetica Neue', Helvetica, Arial-Unicode, Arial, Sans-serif">from the Noun Project</text></svg>