<!-- Generated by IcoMoon.io -->
<svg version="1.1" xmlns="http://www.w3.org/2000/svg" width="32" height="32" viewBox="0 0 32 32">
<title>sound</title>
<path d="M6.375 16c-0.438 0-0.75-0.375-0.75-0.813v-4.813c0-0.438 0.313-0.75 0.75-0.75s0.813 0.313 0.813 0.75v4.813c0 0.438-0.375 0.813-0.813 0.813zM9.625 18.375c-0.438 0-0.813-0.313-0.813-0.75v-9.625c0-0.438 0.375-0.813 0.813-0.813s0.75 0.375 0.75 0.813v9.625c0 0.438-0.313 0.75-0.75 0.75zM12.813 16c-0.438 0-0.813-0.375-0.813-0.813v-4.813c0-0.438 0.375-0.75 0.813-0.75s0.813 0.313 0.813 0.75v4.813c0 0.438-0.375 0.813-0.813 0.813zM16 19.188c-0.438 0-0.813-0.375-0.813-0.813v-11.188c0-0.438 0.375-0.813 0.813-0.813s0.813 0.375 0.813 0.813v11.188c0 0.438-0.375 0.813-0.813 0.813zM19.188 21.625c-0.438 0-0.813-0.375-0.813-0.813v-16c0-0.438 0.375-0.813 0.813-0.813s0.813 0.375 0.813 0.813v16c0 0.438-0.375 0.813-0.813 0.813zM22.375 18.375c-0.438 0-0.75-0.313-0.75-0.75v-9.625c0-0.438 0.313-0.813 0.75-0.813s0.813 0.375 0.813 0.813v9.625c0 0.438-0.375 0.75-0.813 0.75zM25.625 15.188c-0.438 0-0.813-0.375-0.813-0.813v-3.188c0-0.438 0.375-0.813 0.813-0.813s0.75 0.375 0.75 0.813v3.188c0 0.438-0.313 0.813-0.75 0.813z"></path>
</svg>
