<!-- Generated by IcoMoon.io -->
<svg version="1.1" xmlns="http://www.w3.org/2000/svg" width="32" height="32" viewBox="0 0 32 32">
<title>Spade</title>
<path d="M31.688 5.313l-5-5c-0.438-0.438-1.125-0.438-1.563 0l-1.938 1.938c-1.438 1.438-1.688 3.563-0.875 5.313l-12.75 12.75-2.438-2.375c-0.25-0.25-0.688-0.25-1 0l-3.938 4c-1.813 1.75-2.563 4.313-2 6.75l0.375 2.063c0.125 0.313 0.375 0.563 0.688 0.688l2.063 0.375c2.438 0.563 5-0.188 6.75-2l4-3.938c0.25-0.313 0.25-0.75 0-1l-2.375-2.438 12.75-12.75c1.688 0.813 3.875 0.563 5.313-0.875l1.938-1.938c0.438-0.438 0.438-1.125 0-1.563zM28.188 7.188c-0.938 0.938-2.438 0.938-3.375 0s-0.938-2.438 0-3.375l1.063-1.125 3.438 3.438z"></path>
</svg>
