<?xml version="1.0" standalone="no"?>
<!DOCTYPE svg PUBLIC "-//W3C//DTD SVG 20010904//EN"
 "http://www.w3.org/TR/2001/REC-SVG-20010904/DTD/svg10.dtd">
<svg version="1.0" xmlns="http://www.w3.org/2000/svg"
 width="500.000000pt" height="500.000000pt" viewBox="0 0 500.000000 500.000000"
 preserveAspectRatio="xMidYMid meet">
<metadata>
Created by potrace 1.16, written by Peter Selinger 2001-2019
</metadata>
<g transform="translate(0.000000,500.000000) scale(0.100000,-0.100000)"
fill="#000000" stroke="none">
<path d="M1964 2875 c-176 -20 -404 -78 -404 -105 0 -20 22 -20 80 0 339 114
896 104 1209 -22 l54 -22 -119 -22 c-299 -56 -497 -161 -564 -299 -19 -38 -25
-44 -64 -49 -24 -4 -52 -13 -62 -21 -36 -26 10 -28 121 -6 170 34 295 44 560
45 390 1 667 -41 933 -140 51 -19 97 -32 103 -29 51 32 -255 132 -531 174
-273 41 -708 46 -935 11 -96 -16 -98 -15 -81 19 23 44 106 112 180 149 333
165 887 187 1274 50 54 -19 88 -26 94 -20 6 6 1 16 -14 26 -31 22 -192 71
-297 91 -120 22 -341 36 -443 29 -59 -5 -92 -3 -101 5 -8 6 -46 24 -86 40
-224 93 -585 131 -907 96z"/>
<path d="M1845 2541 c-3 -5 4 -47 14 -93 29 -124 50 -254 59 -362 4 -53 7 -96
6 -96 -1 0 -17 26 -34 58 -44 77 -93 135 -149 177 -50 36 -142 85 -160 85 -23
0 -9 -32 40 -92 99 -123 136 -237 141 -433 l3 -119 -43 -8 c-97 -16 -156 -90
-150 -185 l3 -48 530 0 530 0 3 34 c10 106 -71 201 -170 201 l-31 0 6 123 c9
172 48 298 144 459 15 26 24 50 20 55 -5 4 -37 -7 -72 -26 -77 -40 -180 -144
-218 -221 -15 -30 -28 -52 -28 -49 -1 2 -4 65 -8 139 -5 111 -9 135 -22 138
-19 3 -90 -119 -121 -208 l-22 -65 -16 70 c-40 170 -115 340 -191 428 -41 47
-53 55 -64 38z m140 -235 c68 -147 125 -425 125 -606 l0 -40 -64 0 -64 0 -6
123 c-16 298 -30 422 -71 637 l-7 35 27 -39 c15 -21 42 -71 60 -110z m-264
-113 c133 -114 199 -254 223 -475 l6 -58 -75 0 -75 0 0 114 c0 174 -33 299
-109 412 -17 24 -27 44 -22 44 4 0 27 -17 52 -37z m769 -55 c-53 -111 -78
-215 -86 -359 l-7 -119 -65 0 -65 0 6 83 c13 173 71 312 171 413 35 35 69 64
75 64 5 0 -8 -37 -29 -82z m-244 -178 c-3 -91 -8 -195 -12 -232 l-6 -68 -38 0
-37 0 -7 61 c-17 169 -4 270 52 393 l36 79 9 -34 c5 -19 6 -108 3 -199z m284
-353 c35 -18 70 -74 70 -113 l0 -34 -495 0 -495 0 0 39 c0 43 35 96 74 111 36
15 817 12 846 -3z"/>
<path d="M2511 1915 c3 -15 23 -22 104 -36 245 -42 467 -124 605 -225 65 -47
145 -133 170 -182 26 -50 38 -59 47 -36 17 45 -96 183 -216 263 -158 107 -415
195 -660 227 -48 6 -53 5 -50 -11z"/>
</g>
</svg>
