<!-- Generated by IcoMoon.io -->
<svg version="1.1" xmlns="http://www.w3.org/2000/svg" width="34" height="32" viewBox="0 0 34 32">
<title>Speared</title>
<path d="M7.389 5.116c-0.232 0.295-0.253 0.253 0.842 3.979l0.421 1.432h1.979l8.211 8.211c4.505 4.505 8.358 8.211 8.526 8.211 0.421 0 1.895-1.495 1.895-1.895 0-0.189-3.684-4.021-8.211-8.526-8.168-8.147-8.211-8.211-8.211-9.074 0-0.484-0.126-0.968-0.253-1.095-0.147-0.105-1.179-0.463-2.274-0.758-1.095-0.316-2.147-0.611-2.337-0.674-0.189-0.042-0.442 0.042-0.589 0.189zM11.789 8.253v1.221h-2.442l-0.442-1.663-0.421-1.642 1.642 0.421 1.663 0.442v1.221zM27.726 25.411c-0.337 0.358-0.737 0-7.916-7.179-7.074-7.074-7.537-7.579-7.2-7.916 0.316-0.337 0.8 0.084 7.916 7.179 7.2 7.179 7.558 7.579 7.2 7.916z"></path>
</svg>
