<!-- Generated by IcoMoon.io -->
<svg version="1.1" xmlns="http://www.w3.org/2000/svg" width="32" height="32" viewBox="0 0 32 32">
<title>Spoonbill</title>
<path d="M0.875-0.313h-0.188c0 0.125-0.063 0.188-0.188 0.188-0.188 0-0.25-0.125-0.25-0.313 0-0.25 0.063-0.375 0.25-0.375 0.125 0 0.188 0.063 0.188 0.188h0.188c0-0.188-0.188-0.313-0.375-0.313-0.25 0-0.438 0.188-0.438 0.5 0 0.25 0.188 0.438 0.438 0.438 0.188 0 0.375-0.125 0.375-0.313zM0.5-0.5v-0.188c-0.063 0-0.063 0-0.063 0-0.063 0-0.125 0.063-0.188 0.125v-0.125h-0.188v0.688h0.188v-0.375c0-0.125 0.063-0.125 0.188-0.125 0 0 0 0 0.063 0zM0.688-0.313c0-0.25-0.125-0.375-0.313-0.375-0.25 0-0.375 0.125-0.375 0.375 0 0.188 0.125 0.313 0.375 0.313 0.125 0 0.25-0.063 0.313-0.188h-0.188c0 0.063-0.063 0.063-0.125 0.063-0.125 0-0.188-0.063-0.188-0.188h0.5zM0.5-0.438h-0.313c0.063-0.063 0.063-0.125 0.188-0.125 0.063 0 0.125 0.063 0.125 0.125zM0.688 0v0c-0.063-0.063-0.063-0.063-0.063-0.125v-0.375c0-0.125-0.063-0.188-0.25-0.188s-0.313 0.063-0.313 0.25h0.188c0-0.125 0-0.125 0.125-0.125 0.063 0 0.063 0 0.063 0.063s-0.063 0.063-0.125 0.063l-0.063 0.063c-0.125 0-0.188 0.063-0.188 0.188s0.063 0.188 0.188 0.188c0.063 0 0.125 0 0.188-0.063 0 0 0 0.063 0.063 0.063zM0.438-0.313c0 0.125-0.063 0.188-0.125 0.188s-0.125-0.063-0.125-0.063c0-0.063 0.063-0.063 0.125-0.125h0.063c0.063 0 0.063 0 0.063 0zM0.375 0v-0.125c0 0 0 0 0 0-0.063 0-0.063 0-0.063-0.063v-0.375h0.063v-0.125h-0.063v-0.188h-0.188v0.188h-0.125v0.125h0.125v0.438c0 0.063 0.063 0.125 0.188 0.125 0 0 0.063 0 0.063 0zM0.688 0v-0.938h-0.188v0.313c0-0.063-0.063-0.063-0.188-0.063s-0.25 0.125-0.25 0.313c0 0.25 0.063 0.375 0.25 0.375 0.125 0 0.188 0 0.188-0.063v0.063zM0.5-0.313c0 0.125-0.063 0.188-0.125 0.188-0.125 0-0.188-0.063-0.188-0.25 0-0.125 0.063-0.188 0.188-0.188 0.063 0 0.125 0.063 0.125 0.25zM0.75-0.313c0-0.25-0.125-0.375-0.313-0.375-0.063 0-0.125 0-0.188 0.063v-0.313h-0.188v0.938h0.188v-0.063c0.063 0.063 0.125 0.063 0.188 0.063 0.188 0 0.313-0.125 0.313-0.313zM0.563-0.375c0 0.125-0.063 0.25-0.125 0.25-0.125 0-0.188-0.063-0.188-0.25 0-0.125 0.063-0.188 0.188-0.188 0.063 0 0.125 0.063 0.125 0.188zM0.688-0.688h-0.188l-0.125 0.5-0.188-0.5h-0.188l0.25 0.688v0.063c0 0.063 0 0.063-0.063 0.063s-0.063 0-0.063 0v0.125c0 0 0 0 0.063 0 0.125 0 0.188 0 0.188-0.125zM0.875 0l-0.313-0.938h-0.188l-0.313 0.938h0.188l0.063-0.188h0.313l0.063 0.188zM0.563-0.375h-0.188l0.063-0.313zM0.688 0v-0.438c0-0.188-0.063-0.25-0.25-0.25-0.063 0-0.125 0-0.188 0.125v-0.375h-0.188v0.938h0.188v-0.438c0-0.063 0.063-0.125 0.125-0.125s0.125 0.063 0.125 0.125v0.438zM0.688 0v-0.688h-0.188v0.438c0 0.063-0.063 0.125-0.125 0.125s-0.125-0.063-0.125-0.125v-0.438h-0.188v0.438c0 0.188 0.125 0.25 0.25 0.25 0.063 0 0.125 0 0.188-0.063v0.063zM0.75 0v-0.188h-0.438v-0.75h-0.188v0.938zM0.688-0.25h-0.188c0 0.063-0.063 0.125-0.125 0.125-0.125 0-0.125-0.063-0.125-0.188s0-0.25 0.125-0.25c0.063 0 0.125 0.063 0.125 0.125h0.188c-0.063-0.188-0.125-0.25-0.313-0.25s-0.313 0.125-0.313 0.375c0 0.188 0.125 0.313 0.313 0.313s0.25-0.063 0.313-0.25zM0.75-0.313c0-0.25-0.125-0.375-0.375-0.375-0.188 0-0.313 0.125-0.313 0.313 0 0.25 0.125 0.375 0.313 0.375 0.25 0 0.375-0.125 0.375-0.313zM0.563-0.313c0 0.125-0.063 0.188-0.188 0.188-0.063 0-0.125-0.063-0.125-0.25 0-0.125 0.063-0.188 0.125-0.188 0.125 0 0.188 0.063 0.188 0.25zM0.625-0.75l-0.125-0.188h-0.188l-0.125 0.188h0.125l0.063-0.125 0.125 0.125zM0.375-0.563v-0.125h-0.063v-0.063c0-0.063 0-0.063 0-0.063 0.063 0 0.063 0 0.063 0v-0.125c0 0-0.063 0-0.063 0-0.125 0-0.188 0.063-0.188 0.188v0.063h-0.125v0.125h0.125v0.563h0.188v-0.563zM0.75-0.313c0-0.25-0.125-0.375-0.375-0.375-0.188 0-0.313 0.125-0.313 0.313 0 0.25 0.125 0.375 0.313 0.375 0.25 0 0.375-0.125 0.375-0.313zM0.563-0.313c0 0.125-0.063 0.188-0.188 0.188-0.063 0-0.125-0.063-0.125-0.25 0-0.125 0.063-0.188 0.125-0.188 0.125 0 0.188 0.063 0.188 0.25zM1.063 0v-0.5c0-0.125-0.063-0.188-0.25-0.188-0.063 0-0.125 0-0.188 0.063 0-0.063-0.125-0.063-0.188-0.063s-0.125 0-0.188 0.063v-0.063h-0.188v0.688h0.188v-0.438c0-0.063 0.063-0.125 0.125-0.125s0.125 0.063 0.125 0.125v0.438h0.125v-0.438c0-0.063 0.063-0.125 0.125-0.125s0.125 0.063 0.125 0.125v0.438zM0.875 0v-0.938h-0.25v0.625l-0.313-0.625h-0.25v0.938h0.188v-0.625l0.375 0.625zM0.688 0v-0.438c0-0.188-0.063-0.25-0.25-0.25-0.063 0-0.125 0-0.188 0.125v-0.125h-0.188v0.688h0.188v-0.438c0-0.063 0.063-0.125 0.125-0.125 0.125 0 0.125 0.063 0.125 0.125v0.438zM0.813-0.625c0-0.188-0.125-0.313-0.313-0.313h-0.375v0.938h0.188v-0.313h0.188c0.188 0 0.313-0.125 0.313-0.313zM0.625-0.625c0 0.063-0.063 0.125-0.125 0.125h-0.188v-0.25h0.188c0.063 0 0.125 0 0.125 0.125zM0.25 0.125v-0.813h-0.188v0.75c0 0.063 0 0.063 0 0.063-0.063 0-0.063 0-0.063 0v0.125c0.063 0 0.063 0 0.125 0 0.125 0 0.125 0 0.125-0.125zM0.25-0.75v-0.188h-0.188v0.188zM21.125 6.813c-2.063-1.5-4.563-1.75-8.125-1.063-0.563 0.125-0.938 0.125-1.125 0-0.125-0.188 0.063-0.563 0.125-0.688l0.313-1.375c0.313-0.938 0.25-1.563 0-2.063-0.25-0.438-0.813-0.688-1.625-0.875-0.688-0.125-1.313 0.125-1.813 0.688-0.375 0.438-0.563 1-0.5 1.563l-3.875 3.813 4.75-2.813c0.375 0 0.75-0.125 1-0.25-2.063 3.313-1.5 4.563-1.375 4.75 0.313 2.625 5 3.375 5.25 3.375 0.75 0.125 1.875 0.75 2.813 1.438 0 0.5 0 1.25 0.188 2 0.313 1.188 0.25 2.563-0.688 6 0 0-0.188 1.563-2.938 1.625 0.5 0.188 1.438 0.063 2.125 0.063 0 0 0.063 0.563-1.063 1.125 0 0 1 0.188 1.813-1.188 0 0 1 0.375 1.688 0.25 0 0-0.625-0.125-1.188-0.75 0 0 0.563-3.563 0.813-4.938 0 0 0.5-0.313 0.188-1.625 0 0-0.313-1.375-0.625-2.375 0.75 0.563 1.313 1.063 1.375 1.063 0.25 0.188 0.438 0.25 0.625 0.313 0 0.438 0.063 1 0.125 1.5 0.313 1.188 0.25 2.563-0.688 6 0 0-0.188 1.563-2.875 1.563 0.438 0.25 1.438 0.125 2.125 0.125 0 0 0 0.563-1.125 1.125 0 0 1 0.188 1.875-1.188 0 0 0.938 0.375 1.688 0.25 0 0-0.625-0.125-1.25-0.75 0 0 0.563-3.563 0.875-4.938 0 0 0.438-0.313 0.188-1.688 0 0-0.25-1.063-0.563-2 0.188 0 0.25-0.125 0.25-0.125l1.125-1c0.313-0.063 0.563-0.125 0.813-0.25 0.563 0.25 1.25 0.5 2 0.813 0 0 2.25 1 3.188 2.063-0.063 0.063-1.563-7-5.875-9.563zM20.938 13.625l-1.25 1c0 0 0 0.125-0.125 0.125-0.125-0.375-0.25-0.688-0.313-0.938 0 0-0.063 0.375-0.063 0.875-0.125-0.063-0.313-0.125-0.5-0.25 0-0.063-0.688-0.625-1.563-1.25-0.063-0.188-0.125-0.313-0.188-0.438 0 0 0 0.125 0 0.313-0.938-0.625-2-1.25-2.813-1.375-0.063 0-4.75-0.75-5.063-3.25v-0.063c0 0-0.75-1.25 1.563-4.813l0.25-0.438-0.375 0.25c0 0-0.563 0.438-1.125 0.438 0-0.25-0.125-0.938-0.813-0.875-0.063-0.5 0.125-1 0.5-1.375 0.375-0.5 1-0.688 1.625-0.563 0.75 0.125 1.188 0.375 1.438 0.75 0.25 0.438 0.25 1.063 0 1.875l-0.313 1.375c-0.063 0.125-0.313 0.563-0.063 0.875 0.125 0.25 0.563 0.25 1.25 0.063 2.25-0.438 4.063-0.438 5.563-0.063-1.063-0.188-2.313 0-3.125 1.188 0 0 4.688-3 8.375 4.813 0 0-4.75 1.438-8.375-2.813 0 0 0.375 2 6 4.438-0.188 0.063-0.313 0.063-0.5 0.125zM10.313 2.375c0 0.188-0.188 0.313-0.375 0.313s-0.313-0.125-0.313-0.313c0-0.188 0.125-0.375 0.313-0.375s0.375 0.188 0.375 0.375z"></path>
</svg>
