<!-- Generated by IcoMoon.io -->
<svg version="1.1" xmlns="http://www.w3.org/2000/svg" width="32" height="32" viewBox="0 0 32 32">
<title>Spotted-deer</title>
<path d="M29.688 1.25c-0.25 0.063-1.063 0.5-1.625 0.875-0.563 0.313-1 0.938-1.25 1.563-0.313 0.75-0.5 1.063-0.625 0.938 0 0-0.25-0.063-0.5-0.188-1.313-0.375-2.813 0-3.625 0.875l-0.188 0.188-0.188-0.25c-0.063-0.063-0.25-0.375-0.375-0.625-0.313-0.563-0.5-0.813-0.813-1.125-0.375-0.313-0.625-0.5-1.125-0.688-0.563-0.25-1.125-0.375-1.688-0.375-0.438 0-0.5 0.063-0.75 0.125-0.5 0.25-0.625 0.688-0.375 1.5 0.25 0.688 0.75 1.563 1.063 1.938 0.438 0.375 0.75 0.563 1.625 0.875 0.5 0.188 0.563 0.25 0.938 0.625 0.375 0.313 0.5 0.375 0.75 0.438 0.188 0.063 0.313 0.125 0.375 0.125s0.125 0.063 0.188 0.313c0.063 0.25 0.125 0.5 0.188 0.563 0.063 0.125 0.063 0.313 0.063 0.438s0.063 0.063 0.063-0.188c0-0.313 0-0.375-0.063-0.625-0.063-0.125-0.125-0.313-0.125-0.625 0-0.375 0-0.438 0.125-0.688 0.188-0.25 0.438-0.375 0.813-0.375 0.438-0.063 0.75 0 1.25 0.25 0.625 0.25 1.063 0.688 1.25 1.25 0.188 0.688 0.313 1 0.438 1.188 0.25 0.25 1.125 0.75 1.375 0.75 0 0 0.063 0.063 0.063 0.125 0 0.125 0.25 0.313 0.688 0.438 0.188 0.125 0.438 0.25 0.5 0.313 0.125 0.125 0.25 0.188 0.313 0.188s0.25 0.313 0.188 0.438c0 0.063-0.063 0.063-0.063 0.125 0 0.125-0.625 0.438-0.813 0.438-0.063 0-0.125 0.063-0.125 0.063-0.063 0.063-1.125 0.063-1.313-0.063-0.188-0.063-0.313 0-0.125 0.063 0.375 0.188 0.688 0.25 1.125 0.25 0.688-0.063 1.188-0.188 1.563-0.5 0.125-0.125 0.313-0.25 0.375-0.25 0.125 0 0.188 0.25 0.063 0.25 0 0.063 0 0.063 0 0.063 0 0.125-0.063 0.125-0.188 0.313-0.063 0.063-0.188 0.188-0.25 0.188-0.063 0.063-0.125 0.063-0.125 0.063 0.063 0.063 0.313-0.063 0.5-0.25s0.375-0.5 0.375-0.625c0-0.063 0-0.063 0.063-0.063 0 0 0.063-0.063 0.125-0.063 0.063-0.125 0.063-0.688 0-1 0-0.125-0.063-0.375-0.063-0.5-0.063-0.313-0.063-0.375-0.188-0.5-0.313-0.25-0.625-0.688-0.625-0.75 0 0 0-0.063-0.063-0.063-0.125 0-0.125-0.063-0.063-0.063 0-0.063 0.063 0 0.063 0 0 0.063 0 0 0-0.063s0.063-0.25 0.125-0.438c0.063-0.188 0.125-0.313 0.188-0.313 0.125 0 0.125-0.125 0-0.063-0.063 0-0.063-0.063 0.063-0.063 0.188-0.063 0.313-0.313 0.313-0.438 0-0.063 0-0.063-0.125 0.063-0.188 0.188-0.313 0.188-0.188 0.063 0.063-0.063 0.063-0.25 0.063-0.375v-0.188l-0.063 0.125c0 0.063-0.125 0.188-0.125 0.25l-0.125 0.125v-0.125c0.125-0.25 0.063-0.375-0.125-0.375s-0.313 0.125-0.438 0.375c-0.188 0.313-0.125 0.438 0 0.188 0.063-0.188 0.188-0.25 0.25-0.313 0.188-0.063 0.313 0 0.25 0.063 0 0-0.063 0.063-0.063 0-0.125-0.063-0.438 0.313-0.5 0.688-0.063 0.125-0.063 0.125-0.125 0s-0.063-0.75 0-1c0.063-0.188 0.125-0.313 0.25-0.438 0.063-0.125 0.188-0.25 0.188-0.25s-0.188-0.125-0.375-0.188c-0.188-0.125-0.375-0.25-0.375-0.25s0.188-0.125 0.438-0.25c0.5-0.25 1.188-0.75 1.438-1.063 0.5-0.563 0.75-1.25 0.75-2.188 0.063-1.188-0.125-1.5-0.875-1.25zM30.25 1.438c0.063 0.063 0.063 0.188 0.063 0.75 0.063 0.75-0.063 1.188-0.313 1.75-0.125 0.313-0.875 1.063-1.375 1.375-0.188 0.125-0.438 0.25-0.563 0.375-0.313 0.188-0.313 0.188-0.375 0.063-0.063-0.063 0.125-0.188 0.563-0.375 0.125-0.063 0.188-0.125 0.188-0.125-0.125 0-0.063-0.063 0.188-0.188 0.313-0.125 0.5-0.313 0.313-0.25-0.063 0-0.125 0.063-0.125 0.063s-0.063 0.063-0.125 0.063c-0.125 0-0.125 0 0.063-0.125 0.438-0.25 0.563-0.375 0.5-0.375-0.125 0-0.125 0 0.063-0.25 0.125-0.063 0.188-0.188 0.188-0.25s0.063-0.063 0.063-0.063c0.125 0 0.063-0.063-0.063-0.125 0 0-0.063 0.063-0.063 0.063 0 0.125-0.188 0.25-0.188 0.188-0.063 0-0.063 0-0.063 0.063s0 0.063-0.063 0.063-0.063 0.063-0.063 0.063-0.063 0.063-0.063 0-0.125-0.063-0.125 0c0 0.063 0 0.063-0.063 0.063s-0.063 0 0-0.188c0.063-0.063 0.063-0.063 0.125-0.063 0 0 0 0 0-0.063 0 0 0 0-0.125 0-0.063 0-0.063 0-0.063-0.063 0-0.188 0.063-0.313 0.188-0.5 0-0.125 0.063-0.25 0.063-0.313-0.063-0.063 0-0.188 0.188-0.5 0.063-0.063 0.063-0.188-0.063-0.188-0.063 0.063-0.063 0.063 0 0s0.125-0.125 0.125-0.063c0 0 0.063 0 0.063-0.063s0-0.063 0.063 0 0.125 0.063 0.125 0.063c0.063-0.063 0-0.063 0-0.063-0.063-0.063-0.063-0.063 0-0.063 0-0.063 0-0.063-0.063-0.063-0.125 0-0.438 0.188-0.625 0.313-0.125 0.125-0.125 0.25 0 0.125 0.125-0.063 0.125-0.063 0.063 0 0 0.063-0.063 0.125-0.125 0.125-0.188 0.125-0.188 0.25-0.063 0.188s0.188 0.063 0.125 0.125c-0.063 0.063-0.063 0.063-0.063 0 0.063-0.063 0.063-0.063 0-0.063s-0.188 0.188-0.313 0.5c-0.063 0.188-0.125 0.438-0.188 0.563-0.125 0.313-0.125 0.375 0 0.188 0.188-0.188 0.125-0.063-0.063 0.188-0.25 0.375-0.25 0.375-0.25 0.438 0.063 0 0.063 0 0.125-0.063 0.125-0.063 0.063 0-0.125 0.25-0.125 0.125-0.25 0.25-0.25 0.313 0.063 0 0 0.063-0.125 0.125-0.125 0.125-0.125 0.125-0.188 0-0.063 0-0.125-0.063-0.125-0.063-0.063 0 0-0.125 0.063-0.313 0.125-0.188 0.188-0.625 0.313-0.938 0.188-0.75 0.313-1.125 0.438-1.125 0 0.063 0 0 0 0-0.063-0.125 0.375-0.75 0.813-1.063 0.563-0.438 1.188-0.625 1.375-0.5zM28.125 2.25c0 0-0.063 0.063-0.063 0.125 0 0 0 0.063 0 0-0.063 0-0.063 0.063-0.125 0.125 0 0.063-0.063 0.125-0.063 0.188-0.063 0.063-0.125 0.063-0.125 0.125 0 0.125-0.063 0.313-0.125 0.375 0 0.063-0.063 0.125-0.063 0.188s-0.063 0.188-0.125 0.25c-0.063 0.063-0.125 0.125-0.125 0.125s0 0.063-0.063 0.125-0.188 0.188-0.188 0.063c0 0 0 0 0 0.063 0 0.125 0 0.125-0.063 0.125 0 0-0.125 0.063-0.188 0.188-0.063 0.063-0.125 0.125-0.125 0.063 0 0 0-0.063 0.063-0.125 0.063 0 0.063-0.063 0.063-0.125 0 0 0-0.063 0.063-0.063 0-0.063 0-0.125 0-0.125s0-0.063 0-0.063c0.063 0 0.125-0.188 0.188-0.313 0-0.125 0.063-0.25 0.125-0.25 0 0 0.063-0.063 0.125-0.188s0.063-0.188 0.125-0.188c0.063 0.063 0.125 0 0.125-0.063-0.063 0 0-0.063 0.063-0.063s0.063 0 0-0.125c0-0.063 0-0.063 0-0.125 0.063 0 0.063 0 0.063 0 0 0.125 0 0.125 0.063 0.063s0.125-0.125 0.063-0.125c0 0 0.063-0.063 0.188-0.188 0.063-0.063 0.188-0.125 0.188-0.125 0 0.063 0 0.063-0.063 0.063zM29.188 2.563c0 0-0.063 0-0.125 0 0-0.063 0-0.063 0.063-0.063s0.063 0 0.063 0.063zM18.688 2.813c0.375 0.125 0.563 0.188 0.5 0.25 0 0 0 0 0.063 0 0.125-0.063 0.688 0.313 0.938 0.563 0.188 0.25 0.5 0.688 0.75 1.25 0.125 0.313 0.25 0.5 0.25 0.563 0 0 0.125 0.125 0.188 0.25s0.188 0.188 0.188 0.188c0.063-0.063 0.063 0 0.063 0s-0.125 0.375-0.125 0.375c0 0-0.063 0-0.188-0.063-0.063-0.063-0.313-0.188-0.563-0.375-0.375-0.25-0.75-0.563-0.688-0.563s-0.25-0.625-0.438-0.813c-0.063-0.063-0.188-0.125-0.25-0.188-0.188-0.063-0.188-0.125-0.188 0 0 0.063 0.063 0.125 0.188 0.125 0.188 0.125 0.25 0.188 0.25 0.313-0.063 0.063 0 0.125 0 0.063 0.063-0.063 0.063-0.063 0.125 0 0.063 0.125 0.063 0.188-0.063 0.125-0.063 0-0.063 0-0.063 0 0.063 0.063 0.125 0.063 0.188 0.063s0.063 0.063 0.063 0.125c0 0 0 0.063 0.063 0.125 0.063 0 0.063 0.063 0 0.063 0 0-0.063 0-0.125 0 0-0.063-0.063-0.125-0.125-0.125s-0.125-0.063-0.125-0.063c0-0.063-0.25-0.125-0.438-0.063s-0.438 0-0.625-0.188c-0.063-0.063-0.125-0.125-0.188-0.125 0 0-0.125-0.063-0.188-0.125-0.125-0.063-0.125-0.125-0.125-0.25 0.063-0.063 0.063-0.063 0 0-0.063 0-0.125 0-0.188-0.125-0.125-0.063-0.125-0.125-0.125-0.125 0-0.063-0.063-0.063-0.063-0.063-0.063 0.063-0.063 0-0.063-0.063s0-0.063-0.063 0-0.125 0-0.063-0.063-0.125-0.375-0.188-0.313c0 0 0 0 0-0.063 0-0.125-0.063-0.125-0.063-0.063-0.063 0.063-0.063 0-0.063-0.125s0-0.188-0.063-0.188c0 0 0 0.125 0 0.188 0 0.125 0 0.25 0 0.25 0.063 0 0.063 0.063 0.063 0.125 0 0 0 0.063 0.063 0.125 0 0 0 0 0-0.063s0-0.063 0-0.063c0.063 0 0.063 0.063 0.063 0.125 0 0 0.063 0.188 0.125 0.313 0.125 0.25 0.188 0.313 0.188 0.25 0.063-0.063 0.125 0 0.125 0 0 0.25 0.813 1.063 1.188 1.25 0.625 0.25 0.563 0.25 0.563 0.125-0.063-0.063 0-0.063 0.063-0.063 0 0.063 0.25 0.125 0.5 0.125 0.438 0.125 0.688 0.188 1 0.313 0.25 0.125 0.5 0.313 0.438 0.313-0.063 0.063-1.875 0-2.188-0.125-0.5-0.125-0.813-0.313-1.25-0.688-0.188-0.25-0.375-0.438-0.438-0.438 0-0.063-0.125-0.25-0.25-0.375-0.313-0.438-0.625-1-0.625-1.375-0.063-0.25-0.063-0.25 0.125-0.438 0.125-0.125 0.25-0.188 0.375-0.25 0.188-0.063 1.188 0 1.5 0.063zM25.313 4.5c0.063 0 0.313 0.063 0.5 0.125 0.25 0.125 0.438 0.125 0.5 0.125 0.188 0 0.813 0.438 0.875 0.625 0 0.063 0.063 0.125 0.125 0.188 0.125 0 0.188 0.125 0.313 0.25 0 0.063 0.063 0.125 0.063 0.125 0-0.063 0.063 0 0.063 0.125 0 0.063 0 0.125 0.063 0.188 0.125 0.063 0.125 0.438 0 0.438 0 0 0-0.063 0-0.125s0-0.125 0-0.125c-0.063 0-0.063-0.063-0.063-0.125s0-0.125-0.063-0.125c-0.063 0-0.063 0 0 0.063 0.063 0.25 0.063 0.625 0 0.625s-0.125 0-0.125 0.063c-0.063 0.125-0.125 0.125-0.188-0.063 0-0.063-0.063-0.125-0.125-0.188-0.063 0-0.063 0 0 0.125 0.188 0.188 0 0.25-0.563 0.25-0.125 0-0.375 0-0.563-0.125-0.313-0.125-0.438-0.125-0.625-0.313s-0.375-0.313-0.625-0.313c-0.125 0-0.25 0-0.25 0.063 0 0-0.063 0.063-0.125 0.063s-0.063 0 0 0 0.125 0.063 0.125 0.125c0 0.063 0 0.063 0 0.063 0-0.063 0.063-0.063 0.063-0.063 0.063 0 0.313 0.25 0.313 0.313 0 0 0 0.125 0 0.125 0.063 0.063 0.063 0.125 0 0.125s-0.188-0.125-0.188-0.25c-0.063-0.063-0.063-0.125-0.375-0.125-0.125 0-0.313 0-0.375 0 0-0.063-0.125-0.063-0.125-0.063-0.063 0-0.25-0.063-0.313-0.063-0.188-0.063-0.25-0.063-0.313 0s-0.125 0.063-0.188 0c-0.063-0.063 0-0.188 0.188-0.125 0.063 0 0.063 0 0.063 0 0-0.063-0.188-0.125-0.188-0.063-0.063 0.063-0.313 0-0.438-0.125 0 0-0.063 0-0.063 0-0.063 0-0.063 0-0.063-0.063s0-0.125-0.063-0.125c0 0-0.063 0.063-0.063 0.125s0 0.125-0.063 0.125c0 0 0-0.063 0-0.125s-0.063-0.188-0.063-0.188c-0.063-0.063-0.063-0.125-0.063-0.188s0-0.063 0-0.063c-0.063 0.063-0.125-0.313-0.063-0.375s0.063-0.063 0.063-0.125c0 0 0.063-0.063 0.125-0.125s0.063-0.063 0.063-0.063 0.063-0.063 0.188-0.188c0.063-0.063 0.188-0.125 0.25-0.063 0 0 0 0 0-0.063 0 0 0-0.063 0.063 0 0 0 0.063 0 0.125-0.063s0.5-0.188 0.625-0.188c0.063 0 0.063-0.063 0.063-0.063 0-0.063 1.25-0.063 1.5 0zM29.125 4.5c0 0-0.063 0.063-0.063 0-0.063 0-0.063 0 0 0s0.063 0 0.063 0zM19.688 5.313c-0.063 0-0.5-0.188-0.5-0.25 0 0 0.125 0 0.25 0.063s0.25 0.188 0.25 0.188zM27.875 6.063c0.063 0.125 0 0.125-0.063 0-0.063-0.063-0.063-0.063 0-0.063 0 0 0.063 0 0.063 0.063zM23.063 6.563c0 0.063-0.063 0.063-0.125 0.063 0-0.063 0-0.063 0.063-0.063s0.063 0 0.063 0zM24.625 7c0.063 0 0.063 0 0.063 0.063s-0.188 0-0.188-0.063c-0.063-0.063 0-0.063 0.125 0zM26.75 7.313c0.063 0.125-0.063 0.063-0.063-0.063-0.063-0.063 0-0.063 0-0.063 0.063 0 0.063 0.063 0.063 0.125zM28.938 7.25c0 0 0 0-0.063 0s-0.063-0.063 0-0.063c0 0 0.063 0 0.063 0.063zM27.625 7.313c0 0 0 0.063 0 0.125-0.063 0.125-0.25 0.125-0.188 0 0 0 0-0.063 0-0.125s0.125-0.063 0.188 0zM27.188 7.5c0 0 0 0.063 0 0.063-0.063 0.063-0.063 0.063-0.125 0 0 0-0.063-0.063-0.063-0.125 0 0 0.125 0 0.188 0.063zM28.875 8.188c0 0.063 0 0.125-0.063 0.125s-0.063-0.188 0-0.25c0.063-0.063 0.063 0 0.063 0.125zM28.5 8.625c0 0-0.063-0.063 0-0.188 0-0.188 0-0.188 0 0 0.063 0.063 0.063 0.125 0 0.188zM28.875 8.563c-0.125 0.25-0.188 0.313-0.188 0.25-0.063 0 0-0.063 0-0.125 0.063 0 0.125-0.125 0.125-0.188 0.063-0.125 0.063-0.125 0.063-0.125s0 0.125 0 0.188zM28 8.813c0 0.063 0 0.063-0.063 0.063 0 0-0.063 0-0.063-0.063-0.063-0.063-0.063-0.063 0-0.063s0.125 0 0.125 0.063zM27.438 8.938c0 0.125-0.063 0.125-0.125 0 0-0.125 0-0.188 0.063-0.125 0 0 0.063 0.063 0.063 0.125zM28.375 9c0 0.063 0.063 0.125 0 0.125 0 0.063-0.188-0.125-0.188-0.188 0-0.125 0.063-0.063 0.188 0.063zM27.688 9.5c-0.063 0.063-0.125-0.063-0.125-0.125 0-0.125 0.063-0.188 0.125-0.063 0 0.125 0 0.188 0 0.188zM28.063 9.313c0.063 0.125 0.063 0.125-0.125 0.125-0.125 0-0.125 0-0.125-0.125 0.063-0.125 0.125-0.125 0.25 0zM27.25 9.5c0 0.063 0 0.188-0.063 0.125s-0.063-0.188 0-0.188c0 0 0 0 0.063 0.063zM28.438 9.5c0.125 0.125 0.125 0.25 0 0.25s-0.25-0.25-0.188-0.313c0.063-0.063 0.063-0.063 0.188 0.063zM27.563 9.563c0 0.063-0.125 0-0.125-0.063 0 0 0.063 0 0.063 0 0.063 0.063 0.063 0.063 0.063 0.063zM28.75 9.5c0.063 0 0 0.25-0.063 0.313-0.063 0-0.063-0.063-0.063-0.188s0.063-0.25 0.125-0.125zM29.125 9.75c0 0.188-0.125 0.188-0.188-0.063 0-0.188 0-0.188-0.063-0.125 0 0 0 0.063 0 0s0.063-0.125 0.125-0.063c0.063 0.063 0.125 0.125 0.125 0.25zM27.875 9.563c0 0 0 0-0.063 0s-0.063-0.063 0-0.063c0 0 0.063 0 0.063 0.063zM27.313 9.75c-0.063 0.063-0.063 0.063 0-0.125 0-0.063 0-0.063 0.063 0 0 0.063 0 0.125-0.063 0.125zM27.063 9.938c0 0 0-0.063 0.063-0.125 0-0.063 0.063-0.063 0.063-0.063 0 0.063 0 0.125-0.063 0.188-0.063 0.125-0.25 0.063-0.25-0.125v-0.125l0.063 0.125c0.063 0.063 0.125 0.125 0.125 0.125zM28.063 9.75c0 0 0 0.063 0 0.125 0 0-0.063 0.063-0.063 0.063-0.063 0-0.125-0.125-0.063-0.188 0-0.063 0.125-0.063 0.125 0zM28.25 9.75c0 0-0.063 0.063-0.063 0.063-0.063 0-0.063-0.063-0.063-0.063 0-0.063 0-0.063 0.063-0.063 0 0 0.063 0 0.063 0.063zM29.313 9.813c0-0.063 0-0.063 0-0.063 0.063 0.063-0.063 0.188-0.188 0.313-0.375 0.188-1.438 0.313-2 0.25-0.125 0-0.125 0-0.125-0.063 0-0.125 0.063-0.188 0.063-0.125s0.063 0.125 0.188 0.125c0.125 0 0.188-0.063 0.188-0.063 0-0.063 0-0.125 0-0.125 0.063 0 0.063 0.063 0.063 0.125-0.063 0 0 0.063 0.25 0.063 0.313 0 0.875-0.125 0.688-0.125-0.063 0-0.125 0-0.125-0.063s0.063-0.125 0.063-0.125c0 0 0.063 0.063 0.063 0.063 0 0.063 0.188 0.188 0.25 0.125 0 0 0-0.063-0.125-0.063-0.125-0.063-0.125-0.125 0-0.188 0.063 0 0.063 0 0 0.063s0 0.063 0.25 0c0.063-0.063 0.063-0.063 0.063 0s0 0.063 0 0c-0.063 0-0.063 0-0.063 0.063s0.063 0.063 0.188 0c0.125-0.063 0.188-0.125 0.188-0.188s0-0.063 0.063 0c0 0.063 0.063 0.063 0.063 0zM27.625 9.875c0 0.188 0 0.25-0.125 0.188-0.063-0.125-0.063-0.25 0.063-0.25 0.063 0 0.063 0 0.063 0.063zM28.25 10c0 0.125-0.125 0.188-0.125 0.063-0.063-0.125-0.063-0.188 0.063-0.188 0 0.063 0.063 0.063 0.063 0.125zM27.313 10.063c0 0 0 0-0.063 0 0 0-0.063 0-0.063 0 0-0.063 0.063-0.063 0.063-0.063s0 0 0.063 0.063zM28 10.188c-0.063 0-0.188 0-0.188 0-0.063 0-0.063-0.063 0.063-0.063s0.188 0.063 0.125 0.063zM29.5 10.438c-0.063 0.063-0.063 0.063 0-0.063 0-0.063 0.063-0.063 0.063-0.063s0 0.063-0.063 0.125zM29.313 10.563c0 0-0.063 0.063-0.063 0.063-0.063 0-0.063-0.063-0.063-0.063 0.063 0 0.063-0.063 0.063-0.063s0.063 0.063 0.063 0.063zM29.813 11.188c0 0.313-0.063 0.438-0.125 0.5-0.125 0.063-0.313 0.063-0.375-0.063-0.125-0.063-0.125-0.375-0.063-0.5 0.063-0.063 0.063-0.063 0.063-0.125 0 0 0 0 0 0s0.063-0.063 0.125-0.125c0.063-0.125 0.125-0.125 0.125-0.125 0.063 0 0.063 0 0.063-0.063-0.063 0 0-0.063 0-0.125 0.063-0.063 0.063-0.063 0.125 0.063 0 0.063 0.063 0.313 0.063 0.563zM28.375 11.25c0 0-0.063 0-0.063 0-0.125 0-0.125-0.063-0.063-0.063s0.063 0 0.125 0.063zM29.188 11.563c0 0 0 0 0 0s-0.063 0-0.063 0c0-0.063 0-0.063 0-0.063 0.063 0 0.063 0 0.063 0.063zM28.75 11.875c0 0.125 0 0.125 0-0.063s0-0.188 0-0.125c0.063 0.063 0.063 0.125 0 0.188zM29.063 11.938c0 0.063-0.063 0.063-0.063 0.063-0.063 0-0.063 0 0-0.063 0 0 0 0 0.063 0 0 0 0 0 0 0zM29.938 1.813c0 0 0 0-0.125 0s-0.5 0.125-0.5 0.188c0 0.063 0.063 0.063 0.313-0.063 0.25-0.063 0.25-0.063 0.313 0 0.063 0.125 0.063 0.063 0.063-0.063 0-0.063 0-0.125 0-0.125s-0.063 0-0.063 0.063zM30 2.375c0 0.063 0.063 0.063 0.063 0.063 0-0.063 0-0.125 0-0.125 0-0.063-0.063 0-0.063 0.063zM29.313 2.438c0 0.063 0 0.063 0 0.063 0.063 0 0.063 0 0.063-0.063s0-0.063-0.063-0.063c0 0 0 0 0 0.063zM29.313 2.688c0 0.063-0.063 0.125-0.063 0.063-0.063 0-0.063 0-0.063 0.063s0 0.063 0.063 0.125c0 0 0.063 0 0.063-0.063 0 0 0-0.063 0.063-0.125s0.063-0.125 0.063-0.125c0 0-0.063 0-0.125 0.063zM29.938 2.688c0 0 0 0.063-0.063 0.188-0.063 0.063-0.063 0.125-0.063 0.125 0.063 0 0.25-0.313 0.25-0.375 0 0 0 0-0.063 0 0 0-0.063 0-0.063 0.063zM29.625 2.875c-0.063 0.063 0 0.125 0 0.188 0.063 0 0.125 0 0.125 0s0-0.063-0.063-0.063c-0.063 0-0.063 0 0-0.125 0.063-0.063 0.063-0.125 0.063-0.125-0.063 0-0.063 0.063-0.125 0.125zM29.438 2.875c0 0.063-0.063 0.125 0 0.125 0 0 0.063-0.063 0.063-0.125 0.063-0.063 0.063-0.063 0.063-0.063-0.063 0-0.063 0-0.125 0.063zM29.625 3.25c-0.063 0.063-0.063 0.125 0 0.125 0 0 0 0 0-0.063 0.063-0.063 0.063-0.125 0.063-0.125-0.063 0-0.063 0-0.063 0.063zM29.25 3.5c0 0.063 0 0.063 0.063 0.063 0-0.063 0-0.063 0-0.063-0.063-0.125-0.063-0.063-0.063 0zM29.625 3.5c0 0.063 0 0.063 0.063 0.063 0 0 0 0 0-0.063 0 0 0 0-0.063 0 0 0 0 0 0 0zM29.438 3.625c0 0.063 0.063 0.063 0.125 0.063s0.063-0.063 0-0.063-0.125-0.063-0.125 0zM29 3.813c0 0 0 0.063 0.063 0 0 0 0.063 0 0.063 0 0-0.063-0.063-0.063-0.063-0.063-0.063 0-0.063 0.063-0.063 0.063zM29.25 3.875c0 0 0 0.063 0.063 0.063 0 0 0-0.063 0-0.063 0-0.063 0-0.063 0-0.063-0.063 0-0.063 0-0.063 0.063zM27.25 3.438c0 0 0.063 0 0.063 0 0.063 0 0.063 0 0.063 0 0-0.063-0.063-0.063-0.063-0.063-0.063 0-0.063 0-0.063 0.063zM17.188 3c0 0 0.125 0 0.375 0 0.188 0 0.313 0 0.25 0-0.188-0.063-0.563-0.063-0.625 0zM18.188 3.25c0.063 0.063 0.188 0.125 0.188 0.188 0.125 0.125 0.125 0.063 0.063-0.063s-0.125-0.188-0.313-0.188c-0.125 0-0.063 0 0.063 0.063zM18.438 3.25c0 0.063 0.063 0.125 0.188 0.125 0.063 0 0.188 0.063 0.25 0.125s0.125 0.063 0.125 0.063c0 0-0.313-0.25-0.438-0.313-0.063 0-0.125 0-0.125 0zM18.188 3.438c0.063 0.063 0.125 0.125 0.125 0.125 0.063-0.063-0.125-0.25-0.188-0.25s-0.063 0.063 0.063 0.125zM18.5 3.625c0.125 0.063 0.25 0.063 0.25 0s-0.063-0.063-0.188-0.063c-0.063 0-0.063 0-0.063 0.063zM18.375 3.688c0 0.063 0 0.063-0.063 0.063s-0.063 0 0 0.063 0.063 0.063 0 0.188c-0.188 0.063-0.125 0.125 0 0.063s0.125-0.125 0.125-0.188c-0.063-0.063 0-0.125 0-0.125 0.063 0 0.063 0 0-0.063 0-0.063-0.063-0.063-0.063-0.063s0 0 0 0.063zM17.563 3.75c-0.063 0.063-0.063 0.063 0.063 0.063 0.063-0.063 0.063-0.063 0.063 0-0.063 0.063 0 0.125 0 0.063 0.125 0 0.125-0.063 0-0.125-0.063-0.063-0.063-0.063-0.125 0zM18.688 3.75c0 0 0.125 0.063 0.125 0.125 0.125 0.063 0.25 0.125 0.25 0 0 0-0.063-0.063-0.125-0.063s-0.125 0-0.125-0.063c0 0-0.063-0.063-0.125 0-0.063 0-0.063 0 0 0zM17.813 3.938c-0.063 0.063-0.063 0.125 0.063 0.063 0 0 0.063-0.063 0.063-0.063 0-0.125-0.063-0.063-0.125 0zM18.063 3.938c0 0 0 0 0.063 0 0 0 0 0 0 0 0-0.063-0.063-0.063-0.063-0.063s0 0 0 0.063zM18.875 4.063c0 0 0 0.063 0.063 0.063s0.063-0.063 0.063-0.063 0-0.063-0.063-0.063-0.063 0-0.063 0.063zM17.875 4.125c0 0 0 0 0.063 0s0.063 0 0.063 0c-0.063-0.063-0.063-0.063-0.063-0.063s-0.063 0-0.063 0.063zM19.188 4.438c0 0.063 0.188 0.125 0.188 0.063 0 0 0 0-0.063-0.063-0.063 0-0.125-0.063-0.125 0zM18.563 4.625c0 0.063 0.063 0.063 0.125 0.063s0.125 0 0.125 0c0-0.063-0.063-0.063-0.125-0.063s-0.125 0-0.125 0zM22.313 5.625c0 0.063 0 0.063 0.063 0.063s0.125 0.125 0.063 0.25c0 0.063 0 0 0.063-0.063s0.063-0.125-0.063-0.188c-0.063-0.063-0.125-0.063-0.125-0.063zM22.625 5.938c0 0.063 0.063 0.125 0.125 0.188 0.063 0.125 0.063 0.125 0.063 0 0.063-0.063 0-0.063-0.063-0.063 0 0-0.063-0.063-0.063-0.125-0.063-0.063-0.063-0.063-0.063 0zM22.938 6.125c0 0.063 0 0.125 0.063 0.125 0.063 0.063 0.063 0.063 0-0.063 0-0.125-0.063-0.125-0.063-0.063zM23.188 6.25c0.063 0 1.25 0.063 1.313 0 0 0-0.25 0-0.5 0-0.313 0-0.688-0.063-0.75-0.063-0.188 0-0.188 0-0.063 0.063zM27.313 6.438c-0.188 0.063-0.313 0.063-0.688 0.063-0.438 0-0.5 0.063-0.5 0.188 0 0 0.25 0.063 0.313 0 0 0-0.063 0-0.125-0.063-0.125 0 0 0 0.313 0 0.375 0 0.563 0 0.688-0.063s0.125-0.063 0.188 0c0 0 0 0.063 0 0.125 0 0 0 0.063 0 0.063 0.063 0.063 0.063 0 0.063-0.125 0-0.063 0-0.188 0-0.188-0.063 0-0.063 0 0-0.063 0-0.063-0.063-0.063-0.25 0.063zM23.625 6.438c0 0 0.063 0 0.063 0 0.063-0.063 0.063-0.063 0-0.063s-0.063 0-0.063 0.063zM23.938 6.5c0 0.063 0.063 0.063 0.063 0 0.125 0 0.125-0.063 0.063-0.063s-0.063 0.063-0.125 0.063zM25.75 6.563c0 0 0 0 0.063 0 0.125 0 0.188-0.125 0.063-0.125-0.063 0-0.125 0.063-0.125 0.125zM26.563 6.688c0 0.063-0.063 0.125-0.125 0.125s-0.063 0 0 0c0.063 0.063 0.063 0.063 0 0.063-0.063 0.063-0.063 0.063 0 0.063 0.125 0 0.188-0.063 0.125-0.188 0-0.063 0-0.063 0-0.063zM26.75 6.688c0.063 0 0.125 0 0.125 0s0 0-0.063 0-0.063 0-0.063 0zM27 6.75c0 0 0 0.063 0 0.063 0 0.063 0 0.063 0 0 0.063 0 0.063-0.063 0.063-0.063 0-0.063-0.063 0-0.063 0zM26.875 6.875c0 0.063 0 0.125 0.063 0.125s0.063 0 0-0.125-0.125-0.063-0.063 0zM27.063 6.875c-0.063 0.063 0 0.063 0 0.125 0 0 0.063-0.063 0.063-0.063 0-0.125-0.063-0.125-0.063-0.063zM22.563 7.438c-0.125 0.063-0.25 0.063-0.25 0.063-0.125-0.063-0.125 0.063 0 0.188l0.125 0.125h-0.125c-0.063-0.063-0.188-0.063-0.25-0.125-0.125-0.063-0.188-0.063-0.125 0.063 0.063 0.063 0.063 0.125 0.063 0.188-0.063 0-0.063 0 0 0 0 0 0.125 0 0.188 0.063l0.063 0.063h-0.125c-0.063-0.063-0.188-0.063-0.25-0.063-0.125-0.063-0.125-0.063-0.063 0.063 0.063 0.063 0.125 0.125 0.25 0.188l0.188 0.063h-0.188c-0.125 0-0.188 0-0.188 0 0 0.063 0.188 0.188 0.25 0.188h0.125l-0.125 0.063c-0.063 0-0.125 0.063-0.125 0.063-0.063 0.063 0.125 0.125 0.25 0.125 0.063 0 0.125 0.063 0.188 0.25 0.375 0.875 1.313 1.188 2.063 0.625 0.063-0.063 0.188-0.125 0.25-0.125s0.063 0 0.063-0.188c0.063-0.25-0.063-0.625-0.313-0.938-0.25-0.375-0.5-0.563-0.938-0.688-0.313-0.125-0.5-0.25-0.438-0.313 0-0.063 0.063-0.063 0.063 0 0 0 0.188 0.125 0.375 0.125 0.25 0.125 0.563 0.25 0.625 0.375 0 0.063 0.063 0.063 0.063 0.063 0.063-0.125-0.438-0.438-0.813-0.563-0.438-0.125-0.688-0.125-0.875 0.063zM23.063 7.563c-0.063 0.063-0.375-0.063-0.438-0.125 0-0.063 0-0.063 0.063-0.063 0.188 0.063 0.25 0.125 0.25 0.063 0-0.125 0.063-0.125 0.063 0 0.063 0.063 0.063 0.125 0.063 0.125zM22.625 7.563c0.063 0.125 0 0.125-0.188 0.063 0-0.063-0.063-0.063 0-0.063 0 0 0.063 0 0.063 0 0-0.125 0.063-0.063 0.125 0zM23.688 8.188c0.063 0.063 0.063 0.125-0.063 0.188-0.125 0.125-0.25 0.063-0.25-0.125 0 0 0-0.125 0-0.125 0.063-0.063 0.25 0 0.313 0.063zM24.25 8.375c0.188 0.188 0.313 0.375 0.25 0.438 0 0-0.063-0.063-0.125-0.125-0.063-0.188-0.125-0.313-0.125-0.188 0 0 0.063 0.125 0.125 0.313 0.125 0.188 0.125 0.25 0.125 0.125 0.063-0.063 0.063 0 0.063 0.125-0.063 0.25-0.188 0.5-0.313 0.438-0.063 0-0.063 0.063-0.063 0.063 0.063 0.063-0.25 0.125-0.5 0.125-0.188 0-0.688-0.188-0.75-0.25 0-0.063 0-0.063 0.063 0 0.25 0.125 0.75-0.063 1-0.375 0.125-0.188 0.188-0.688 0.063-0.813-0.125-0.25 0-0.125 0.188 0.125zM22.688 8.5c0 0.188 0.063 0.25 0.063 0.25 0.125 0 0.125 0.125 0 0.188 0 0 0 0.063 0.063 0.063s0.188 0 0.313 0c0.25 0.063 0.313 0 0.438-0.125 0.063-0.063 0.125-0.188 0.125-0.188 0-0.125 0.125-0.125 0.188-0.063 0 0.063 0.063 0.063 0.063 0.063 0.063 0 0.063 0 0.063 0.125s-0.063 0.25-0.188 0.313c-0.125 0.125-0.188 0.188-0.25 0.188s-0.063 0-0.188 0.063c-0.25 0.063-0.563-0.063-0.688-0.25s-0.188-0.5-0.188-0.625c0.063-0.063 0.063-0.125 0.063-0.188 0 0 0 0 0 0 0.063 0 0.063 0 0.063 0 0.063-0.063 0.063-0.063 0.063 0.188zM24 8.5c-0.063 0.063-0.063 0.063-0.125 0.063 0 0 0-0.063 0.063-0.063 0-0.063 0-0.125 0-0.125-0.063-0.063-0.063-0.063 0-0.063 0.063 0.063 0.063 0.125 0.063 0.188zM23.813 8.5c0 0 0 0.063 0 0.063-0.063 0-0.063-0.063-0.063-0.063 0-0.063 0-0.063 0-0.063s0.063 0 0.063 0.063zM21.875 10.063c0 0.063 0 0.125 0 0.063 0 0 0-0.063 0-0.125 0 0 0 0 0 0.063zM22 10.5c0 0.063 0 0.063 0.063 0 0 0 0-0.063 0-0.063-0.063 0-0.063 0-0.063 0.063zM22.625 11.375c0 0 0 0.188 0.063 0.375 0 0.188 0.063 0.938 0.063 1.688 0.063 1.25 0.063 1.375 0 1.625-0.063 0.125-0.125 0.375-0.125 0.5-0.188 1-1.125 2-2 2.063-0.313 0.063-0.438 0-1.438-0.375-2.313-0.938-5.125-1.563-7.188-1.563-0.563 0-1.688 0.125-2.125 0.188-1.375 0.313-2.875 0.938-3.75 1.688-0.625 0.5-1.25 1.25-1.625 2-0.188 0.25-0.25 0.313-0.438 0.375-0.375 0.125-0.938 0.5-1.25 0.875-0.188 0.25-0.313 0.438-0.625 1.063-0.563 1.063-0.563 1.125-0.75 1.313-0.125 0.125-0.313 0.25-0.75 0.375-0.25 0.063 0.25 0.438 0.75 0.563 0.375 0.063 0.813 0 1.25-0.25 0.125-0.063 0.25-0.063 0.313-0.063 0.125 0 0.438-0.188 0.563-0.438 0.188-0.188 0.188-0.313 0.063-0.188-0.063 0.063-0.125 0.125-0.188 0.125 0 0 0 0.063 0 0.063 0 0.063 0 0.063 0 0.063s-0.063 0-0.125 0.063c-0.125 0.125-0.25 0.188-0.375 0.125 0 0-0.063 0-0.063 0.063-0.063 0.063-0.5 0.25-0.625 0.25-0.125 0.063-0.063 0 0.063-0.063 0.188-0.063 0.313-0.188 0.438-0.25 0.063-0.063 0.188-0.125 0.188-0.125 0.063 0.063 0.313-0.125 0.563-0.375 0.313-0.313 0.438-0.688 0.5-1.25 0-0.438 0.063-0.563 0.125-0.313 0.063 0.313 0.375 0.813 0.75 1.188l0.313 0.375-0.25 0.375c-0.25 0.438-0.813 0.938-1.438 1.375-0.688 0.438-0.875 0.688-0.75 1.125 0.063 0.313 0.25 0.563 0.688 0.813 0.313 0.25 1.125 0.625 1.375 0.688 0.125 0 0.125 0 0.063-0.188-0.063-0.438 0.188-0.813 0.688-1.063 0.25-0.125 1.313-0.625 1.375-0.625 0 0 0 0.125 0 0.313 0.063 0.375 0.063 0.438 0.625 0.75 0.438 0.313 0.938 0.5 1.438 0.563 0.563 0.063 2.188 0.188 3.063 0.125 0.563 0 0.563 0 0.313 0-0.125-0.063-0.375-0.063-0.438-0.125-0.125 0-0.25 0-0.313 0-0.313 0.063-1.5 0-1.938-0.125-0.063-0.063-0.25-0.063-0.313-0.063-0.125 0-0.125 0-0.063-0.063 0.125 0 0.125 0 0 0s-0.75-0.375-0.75-0.438c0 0-0.063 0-0.125 0 0 0-0.063-0.063-0.063-0.063 0-0.063-0.063-0.125-0.125-0.188s-0.125-0.188-0.125-0.313c0-0.188 0.063-0.688 0.188-0.688 0.125-0.125 0.438 0 0.563 0.188 0.313 0.313 0.313 0.313 0.5 0.438 0.063 0.063 0.125 0.125 0.188 0.125 0-0.063 0.063 0 0.063 0 0 0.063 0 0.063 0.063 0.063 0 0 0.063-0.063 0.063-0.25s0-0.375 0-0.438c0.063-0.063 0.125-0.25 0.188-0.375 0.063-0.188 0.188-0.313 0.563-0.563 0.125-0.125 0.25-0.125 0.25-0.063s0.063 0.063 0.063 0.063c0-0.063 0.063 0 0.063 0.125 0 0.063 0.063 0.25 0.25 0.5 0.188 0.375 0.25 0.438 0.063 0.313v0c0 0.063 0.125 0.125 0.125 0.125 0.063-0.063 0.125 0.063 0.063 0.063 0 0 0 0 0.063 0 0 0 0.063 0 0.125 0.063 0.063 0 0.063 0 0 0s0 0.063 0.188 0.188c0.313 0.188 0.938 0.25 1.625 0.188h0.438l-0.688-0.063c-0.75-0.063-1.125-0.125-1.438-0.375-0.375-0.25-0.625-0.75-0.625-1.125 0-0.188 0-0.125 0.188-0.063s0.813 0.25 1.813 0.438c1.188 0.188 3.438 0.25 3.438 0 0 0-0.063 0-0.063 0-0.25 0.125-1.813 0.125-2.688 0-0.75-0.063-2.125-0.375-2.375-0.5-0.063-0.063-0.25-0.063-0.375-0.063-0.188 0-0.813-0.25-0.813-0.313s0.125-0.125 0.25-0.188c0.313-0.25 0.563-0.438 0.938-0.813 0.188-0.188 0.375-0.313 0.438-0.375 0.125 0 0.25-0.063 0.313-0.063 0.25-0.125 1.188-0.188 2-0.125 0.875 0.063 1.188 0.125 2 0.375 0.375 0.125 0.688 0.188 0.875 0.188l0.25 0.063-0.125 0.188c-0.063 0.125-0.125 0.313-0.188 0.438-0.188 0.25-0.375 0.813-0.313 1 0 0.063 0 0.188-0.063 0.188 0 0.063 0 0.063 0 0.063 0.063 0 0.125 0.063 0.188 0.188 0 0.063 0.125 0.25 0.188 0.313l0.063 0.125 0.625 0.063c1 0 1.563 0.188 2.125 0.813 0.125 0.125 0.188 0.125 0.375 0.125 0.125 0 0.375-0.063 0.438-0.063 0.188-0.063 0.125-0.063-0.188 0-0.313 0-0.563-0.063-0.5-0.125 0.125-0.125 3.75-0.375 4.063-0.25 0.188 0 0.75 0.438 0.625 0.438 0 0-0.063 0-0.063 0-0.063-0.063-0.125-0.063-0.188-0.063s-0.063 0.063 0.063 0.063 0.188 0.125 0.313 0.125c0.188 0.125 0.125 0.063-0.063-0.25s-0.25-0.313-0.875-0.563c-1.25-0.563-2.125-1.313-2.5-2.25-0.125-0.313-0.188-1.063-0.125-1.438 0.125-1.25 0.438-2.125 1.375-3.375 0.5-0.625 0.563-0.75 0.75-1.313s0.313-1.188 0.313-2.125c0-0.438 0.063-0.813 0.063-0.813s0-0.063 0-0.063c-0.063 0-0.063-0.188-0.125-0.438 0-0.375-0.063-0.875-0.25-1.688-0.063-0.313-0.063-0.375 0.063-0.313 0 0 0.5 0.125 1.063 0.25 1.25 0.313 1.5 0.438 1.875 0.688 0.125 0.063 0.125 0.125 0.125 0.25 0 0.063 0 0.125 0 0.125 0.063 0 0.063 0.063 0.063 0.188s0.063 0.5 0.063 0.813c0.063 0.375 0.063 0.688 0.063 0.688s0 0.063 0 0.125c0.063 0 0.125 0.313 0.125 0.563 0.125 0.563 0.188 0.813 0.125 0.313 0-0.188-0.063-0.438-0.063-0.625s-0.063-0.5-0.063-0.688c-0.063-0.313-0.188-1.813-0.188-1.938 0-0.063-0.063-0.063-0.063-0.063-0.063 0-0.313-0.125-0.625-0.188-0.25-0.125-0.75-0.25-1-0.313-1.125-0.25-1.688-0.5-2-0.75-0.125-0.063-0.188-0.125-0.188-0.125zM23.438 15.188c0 0 0 0 0-0.063s0-0.125 0-0.063 0 0.063 0 0.125zM23.25 15.313c0 0.063 0 0.063-0.063 0.063 0 0 0-0.063 0-0.063 0-0.063 0-0.063 0.063 0zM10.625 16.125c0.25 0.125 0.438 0.313 0.438 0.5 0 0.125-0.063 0.25-0.125 0.313-0.188 0.188-0.5 0.313-1.063 0.313-0.5 0-0.813-0.125-1-0.313-0.313-0.313-0.063-0.75 0.5-0.875 0.313-0.063 1 0 1.25 0.063zM13.438 16.188c0.063 0.063 0.125 0.125 0.125 0.188s-0.063 0.125-0.125 0.188c-0.188 0.188-0.688 0.188-0.813-0.063-0.25-0.313 0.5-0.625 0.813-0.313zM16.5 16.813c0.5 0.313 0.313 0.875-0.375 1-0.563 0.063-1-0.313-0.938-0.688 0.063-0.188 0.25-0.375 0.438-0.438 0.25-0.063 0.688 0 0.875 0.125zM12.563 17.125c0.5 0.313 0.25 0.938-0.375 1-0.563 0.063-1-0.25-0.938-0.688 0.063-0.188 0.25-0.313 0.438-0.375 0.25-0.125 0.688-0.063 0.875 0.063zM14.563 17.125c0.5 0.313 0.313 0.938-0.375 1-0.563 0.063-1-0.25-0.875-0.688 0-0.188 0.188-0.313 0.438-0.375 0.188-0.125 0.625-0.063 0.813 0.063zM7.563 17.063c0.25 0.125 0.25 0.375 0.063 0.5-0.188 0.188-0.563 0.063-0.563-0.188 0-0.125 0-0.188 0.125-0.313 0.125-0.063 0.25-0.063 0.375 0zM18.438 17.375c0.25 0.125 0.375 0.375 0.375 0.563 0 0.313-0.313 0.563-0.688 0.563-0.188 0-0.438-0.125-0.563-0.25-0.313-0.563 0.313-1.125 0.875-0.875zM9.188 17.75c0.188 0.063 0.313 0.188 0.438 0.313s0.125 0.188 0.125 0.313c-0.063 0.5-0.75 0.75-1.438 0.563-0.375-0.125-0.438-0.188-0.563-0.375s-0.125-0.375 0.063-0.563c0.25-0.25 0.875-0.375 1.375-0.25zM10.188 17.875c-0.063 0-0.063 0-0.125 0 0 0 0 0 0.063 0s0.063 0 0.063 0zM10.5 18c0.063 0 0.125 0.063 0.063 0.063s-0.125-0.063-0.188-0.063-0.125-0.125-0.125-0.125c0.063 0 0.188 0.063 0.25 0.125zM11.125 18.313c0.125 0.063 0.188 0.188 0.188 0.188 0 0.125 0 0.125 0 0-0.063-0.063-0.125-0.125-0.25-0.063 0 0 0 0 0-0.063 0 0-0.063-0.063-0.125-0.125-0.125-0.063-0.188-0.125-0.125-0.125s0.188 0.063 0.313 0.188zM13.25 18.313c0 0.125-0.125 0.188-0.313 0.125-0.125-0.063-0.125-0.188-0.063-0.25 0-0.063 0.125-0.063 0.188-0.063 0.125 0.063 0.188 0.063 0.188 0.188zM14.625 18.5c0.188 0.125 0.313 0.5 0.188 0.75s-0.375 0.375-0.75 0.375c-0.375 0-0.625-0.125-0.75-0.375-0.188-0.375 0.125-0.688 0.688-0.75 0.438-0.063 0.5-0.063 0.625 0zM16.813 18.625c0.375 0.25 0.375 0.625 0 0.875-0.25 0.188-0.813 0.188-1.063 0-0.125-0.063-0.188-0.063-0.188-0.063 0 0.063 0 0 0-0.063s-0.063-0.188-0.063-0.25c0-0.188 0.063-0.438 0.313-0.563 0.188-0.125 0.75-0.125 1 0.063zM10.75 18.688c0.375 0.25 0.063 0.688-0.438 0.563s-0.375-0.688 0.125-0.688c0.125 0 0.25 0.063 0.313 0.125zM11.688 18.813c-0.063 0.063-0.125 0-0.125-0.125v0c0.063 0.063 0.125 0.125 0.125 0.125zM11.75 19c0 0.063 0 0.063 0 0s0-0.063 0-0.063 0 0.063 0 0.063zM12.063 19.438c0 0.063 0.063 0.188 0.125 0.25 0 0.125 0.063 0.25 0.063 0.313 0 0-0.063 0-0.063-0.063 0 0 0-0.063 0-0.063-0.063 0-0.063-0.063-0.063-0.063 0-0.063-0.063-0.25-0.188-0.375-0.063-0.188-0.125-0.375-0.125-0.375 0-0.063 0.25 0.375 0.25 0.375zM11.063 20.063c0.188 0.125 0.25 0.25 0.25 0.438 0 0.563-0.938 0.813-1.438 0.313-0.25-0.25-0.125-0.688 0.375-0.813 0.188-0.125 0.625-0.063 0.813 0.063zM12.375 20.625c0 0.438-0.063 0.313-0.063-0.188-0.063-0.188 0-0.313 0-0.25s0 0.25 0.063 0.438zM19.938 20.75c-0.063 0-0.125 0.063-0.125 0.063s0-0.063 0-0.063c0.063 0 0.125-0.063 0.125-0.063 0.063 0 0 0.063 0 0.063zM16.063 20.938c0 0.063-0.063 0.063-0.063 0s0.063-0.125 0.063-0.063c0 0 0 0.063 0 0.063zM17.5 21.063c0 0.063 0 0.063-0.063 0-0.063 0-0.063-0.063-0.063-0.063 0-0.063 0.063-0.063 0.125 0.063zM3.5 21.313c0 0 0 0 0-0.063s0-0.125 0-0.063 0 0.063 0 0.125zM12.313 21.375c-0.063 0.063-0.063 0-0.063-0.063s0-0.063 0.063-0.063c0 0.063 0 0.125 0 0.125zM3.75 21.438c-0.063 0.063-0.063 0.063-0.063 0.063s0-0.063 0-0.063c0.063-0.063 0.063-0.063 0.063 0zM7.438 21.688c-0.063 0-0.063 0-0.063-0.063s0-0.063 0.063-0.063c0 0.063 0 0.063 0 0.125zM18.375 21.688c-0.063 0.125-0.125 0.188-0.125 0.125 0 0 0.125-0.188 0.188-0.188 0 0 0 0.063-0.063 0.063zM12.125 21.938c-0.063 0-0.063 0-0.063-0.063 0.063-0.063 0.063-0.125 0.063-0.125 0-0.063 0 0 0 0 0.063 0.063 0 0.125 0 0.188zM18.188 22c0 0 0 0.063-0.063 0.063 0 0 0-0.063 0-0.063 0-0.063 0.063-0.125 0.063-0.125s0 0.063 0 0.125zM3.313 22c0 0 0 0.063 0 0.063-0.063 0-0.063-0.063-0.063-0.063s0-0.063 0-0.063c0 0 0.063 0.063 0.063 0.063zM3.625 22.125c-0.063 0-0.063 0-0.063-0.063s0-0.063 0.063-0.063c0 0.063 0 0.063 0 0.125zM12.063 22.063c0 0 0 0.063-0.063 0.063 0 0-0.063 0-0.063-0.063 0 0 0.063-0.063 0.063-0.063 0.063 0 0.063 0 0.063 0.063zM18 22.25c-0.125 0.063-0.125 0.063-0.063-0.063 0.063-0.063 0.063-0.063 0.125-0.063 0 0-0.063 0.063-0.063 0.125zM11.938 22.313c-0.063 0.063-0.125 0.063-0.188 0.063 0 0 0 0 0.063-0.063 0.188-0.063 0.188-0.063 0.125 0zM12.313 22.375c0 0-0.063 0-0.063 0-0.063 0 0 0 0 0 0.063-0.063 0.125 0 0.063 0zM3.5 22.688c0 0.125-0.125 0.063-0.125-0.063s0-0.125 0.063-0.063c0 0 0.063 0.063 0.063 0.125zM11.75 22.563c0 0-0.063 0-0.063 0-0.063 0-0.063 0-0.063 0 0.063-0.063 0.063-0.063 0.125-0.063 0 0 0 0 0 0.063zM16.375 22.75c0 0-0.063 0-0.063 0-0.063 0-0.063 0 0 0s0.125 0 0.063 0zM2.313 23.563c0 0.063-0.063 0.063 0 0.063 0 0.063 0 0.063-0.063 0.063 0 0 0 0 0-0.063 0 0 0.063-0.125 0.125-0.063 0 0 0 0-0.063 0zM20.125 23.625c0 0-0.063 0-0.125 0 0 0 0 0 0.063 0s0.125 0 0.063 0zM20.438 23.625c0.063 0.063 0.063 0.063 0 0.063 0 0-0.125 0-0.125-0.063-0.063 0-0.063 0-0.063 0 0.063 0 0.125 0 0.188 0zM21.125 23.75c0 0.063-0.063 0.063-0.125 0 0 0 0 0 0.063 0s0.063 0 0.063 0zM21.25 23.813c0 0.063 0 0.063-0.063 0.063 0 0-0.063 0 0-0.063 0 0 0 0 0 0s0.063 0 0.063 0zM1.5 24c0 0-0.125 0-0.188 0-0.125-0.063-0.125-0.063 0.063-0.063 0.125 0 0.125 0 0.125 0.063zM10.438 24.375c0 0-0.063 0-0.188 0-0.313 0-0.375-0.063-0.063-0.063 0.125 0 0.25 0 0.25 0.063zM10.125 24.625c0 0-0.063 0-0.125 0-0.063-0.063-0.063-0.063 0.063-0.063 0.063 0 0.063 0 0.063 0.063zM19.063 24.75c0 0.063 0 0.063-0.063 0s-0.063-0.188 0-0.125c0.063 0 0.063 0.063 0.063 0.125zM9.188 24.875c0 0-0.063 0.188-0.063 0.313 0 0.063-0.063 0.188-0.063 0.188-0.063 0-0.063-0.125 0.063-0.375 0-0.125 0.063-0.25 0.125-0.188 0 0 0 0-0.063 0.063zM20.25 25.375c0 0 0 0.063 0 0.063-0.063 0-0.063-0.063-0.063-0.063s0-0.063 0-0.063c0 0 0.063 0.063 0.063 0.063zM7.938 25.5c-0.188 0.125-0.188 0.125-0.188 0.063s0.063-0.063 0.063-0.063 0.125-0.063 0.125-0.063c0-0.063 0-0.063 0.063-0.063s0.063 0.063-0.063 0.125zM7.625 25.938c0 0.188 0 0.188-0.063 0.188s-0.063 0-0.063-0.063c0.063-0.063 0.063-0.125 0.063-0.188s0-0.125 0.063-0.125c0 0 0 0.125 0 0.188zM9.563 25.875c-0.063 0-0.063 0.063-0.063 0s0.063-0.125 0.125-0.063c0 0-0.063 0-0.063 0.063zM7.625 26.25c0 0 0 0.063-0.063 0.063 0 0-0.063-0.063-0.063-0.063s0-0.063 0.063-0.063c0 0 0.063 0.063 0.063 0.063zM7.938 26.563c0 0.063 0 0.063-0.063 0.063-0.063 0.063-0.125 0.063-0.063 0 0.063-0.125 0.063-0.125 0.125-0.063zM8.688 26.938c0 0 0 0.063-0.063 0.063 0 0-0.063-0.063-0.063-0.063 0-0.063 0-0.063 0-0.063 0.063 0 0.063 0 0.125 0.063zM8.938 26.938c0 0-0.063 0.063-0.063 0.063-0.063 0-0.063-0.063-0.063-0.063 0-0.063 0-0.063 0.063-0.063 0 0.063 0.063 0.063 0.063 0.063zM28.625 12.875c-0.063 0-0.188 0.063-0.313 0.063-0.25 0.063-0.25 0.063-0.063 0.063 0.25 0 0.563-0.188 0.438-0.188-0.063 0-0.063 0.063-0.063 0.063zM27.375 13c0.063 0 0.125 0 0.125 0 0.063 0 0 0-0.063 0s-0.125 0-0.063 0zM27.813 13.063c0 0 0.125 0 0.188 0 0 0 0 0-0.125 0s-0.125 0-0.063 0zM26.813 17.063c0 0.125 0.063 0.188 0.063 0.125s0-0.125 0-0.188c0-0.063-0.063-0.063-0.063 0.063zM26.875 17.875c0 0.313 0 0.438 0.063 0.25 0-0.125 0-0.375 0-0.563-0.063-0.125-0.063 0-0.063 0.313zM26.563 21c0 0.063 0 0.063 0 0.063 0-0.063 0-0.125 0-0.125 0-0.063 0 0 0 0.063zM26.313 21.563c0 0.063 0 0.125 0 0.188 0 0 0 0 0.063-0.063 0-0.063 0-0.125 0-0.125 0-0.063 0 0-0.063 0zM26.188 21.875c0 0 0.063 0 0.063 0s0.063 0 0 0c0-0.063 0-0.063 0-0.063-0.063 0-0.063 0-0.063 0.063zM4.188 22.25c-0.063 0.063-0.063 0.25-0.125 0.313 0 0.063-0.063 0.125-0.063 0.188-0.063 0.063-0.313 0.5-0.313 0.563s0.188-0.063 0.313-0.375c0.188-0.25 0.313-0.688 0.25-0.813-0.063-0.063-0.063-0.063-0.063 0.125zM25.813 22.563c0 0 0 0 0.063 0 0 0 0.063 0 0.063 0 0-0.063-0.063-0.063-0.063-0.063s0 0-0.063 0.063zM25.75 22.688c-0.063 0.125-0.063 0.188 0 0.063 0.063-0.063 0.063-0.063 0.063-0.125 0 0-0.063 0.063-0.063 0.063zM25.438 23.313c-0.063 0.063-0.063 0.063 0 0.063 0 0 0 0 0 0 0 0.063 0 0.063 0.125 0l0.188-0.063h-0.125c-0.063-0.063-0.188 0-0.188 0zM24.938 23.813c-0.375 0.5-0.313 0.5-0.938 0.438-0.688-0.063-1.375-0.25-1.813-0.375-0.438-0.188-0.75-0.188-0.75-0.125 0 0 0.063 0.063 0.125 0.063s0.438 0.125 0.875 0.25c0.375 0.063 1 0.188 1.313 0.25 0.375 0 0.75 0.063 0.813 0.125 0.125 0 0.25 0 0.313 0s0.063 0-0.063-0.063c-0.063-0.063-0.125-0.063-0.063-0.125 0 0 0.125-0.125 0.188-0.25s0.125-0.25 0.125-0.25c0.125-0.063 0.188-0.188 0.188-0.188-0.063 0-0.125 0.125-0.313 0.25zM25.375 23.75c0 0 0 0.063 0.063 0 0-0.063 0-0.063 0-0.063-0.063-0.063-0.063 0-0.063 0.063zM25.25 24.563c0.375 0.125 0.438 0.188 0.563 0.5 0.063 0.125 0.125 0.188 0.188 0.188s0.063 0 0.125 0c0 0-0.063-0.063-0.125-0.063-0.063-0.063-0.063-0.063 0-0.125 0.063 0 0.125 0 0.063 0 0-0.063-0.063-0.063-0.063-0.063-0.063 0.063-0.063 0 0 0 0-0.063 0-0.125-0.125-0.125-0.063 0-0.125-0.063-0.188-0.125-0.125-0.125-0.313-0.25-0.5-0.25-0.188-0.063-0.188-0.063 0.063 0.063zM10.5 24.75c0 0 0.125 0.063 0.125 0 0.063 0 0-0.063-0.063-0.063s-0.063 0-0.063 0.063zM26.125 24.938c0 0.063 0 0.063 0.063 0 0 0 0.063 0 0.063 0.063 0 0 0.125 0.063 0.188 0.063 0.125 0 0.125 0 0.125 0.063 0 0.125 0.25 0.313 0.313 0.313 0 0-0.063-0.125-0.125-0.25-0.125-0.125-0.188-0.188-0.375-0.25-0.25-0.063-0.25-0.063-0.25 0zM10.125 25c0 0 0 0 0 0 0.125 0 0.125-0.063 0.063-0.063 0 0-0.063 0-0.063 0.063zM15.813 25.313c-0.25 0.063-0.75 0.5-0.688 0.563 0 0 0.125 0 0.313-0.063 0.313-0.063 1.063-0.125 1.313-0.188 0.188 0 0.125-0.063-0.188-0.25-0.25-0.188-0.438-0.25-0.75-0.063zM28.438 25.688c0 0.313 0 0.438-0.063 0.438 0 0-0.063 0.063 0 0.125 0 0 0 0.063-0.125 0.063 0 0.063-0.063 0.063-0.063 0.063 0 0.188-1.063 0.313-1.563 0.25-0.25 0-0.313 0-0.313-0.125 0-0.063-0.063-0.188-0.063-0.25 0-0.125-0.063-0.25-0.063-0.375s-0.063-0.188-0.063-0.188c0 0 0 0.125 0.063 0.313 0 0.125 0.063 0.375 0.063 0.5 0 0.188 0 0.188 0.25 0.25 0.125 0 0.438 0 0.75 0 0.688-0.063 1-0.188 1.188-0.5 0.125-0.125 0.125-0.188 0.125-0.5-0.063-0.5-0.125-0.563-0.125-0.063zM9.938 25.688c0 0.063 0 0.063 0.063 0.063 0-0.063 0-0.125 0-0.125-0.063 0-0.063 0-0.063 0.063zM10.125 26.25c0 0 0 0.063 0.063 0.063 0 0 0-0.063 0-0.063 0-0.063 0-0.125-0.063-0.125 0 0 0 0.063 0 0.125zM21 26.313c0.063 0.063 0.125 0 0.125 0s0 0-0.063 0-0.063 0-0.063 0zM21.875 26.375c0.063 0 1.5 0.063 1.563 0 0 0-0.313 0-0.75 0-0.375 0-0.75-0.063-0.813-0.063s-0.063 0 0 0.063zM24.125 26.313c0.188 0.063 0.125 0.125-0.063 0.125-0.375-0.125-0.438-0.125-0.438-0.063s0.063 0.063 0.125 0.063 0.25 0 0.313 0.063c0.125 0 0.125 0 0.188 0 0.063-0.125 0-0.188-0.125-0.188-0.063 0-0.063 0 0 0zM20.188 26.438c0.063 0 0.125 0 0.125 0 0.063 0 0-0.063-0.063-0.063s-0.063 0.063-0.063 0.063zM21 26.438c-0.063 0 0.063 0 0.313 0s0.438 0 0.438 0c0.063-0.063-0.563-0.063-0.75 0zM10.688 26.813c0 0.063 0.125 0.125 0.25 0.125 0 0 0-0.063-0.063-0.063-0.125-0.125-0.188-0.125-0.188-0.063zM26.188 27.063c0 0.063 0.063 0.063 0.063 0.063 0-0.063 0-0.125 0-0.188 0 0-0.063 0-0.063 0.125zM11.125 27.063c0 0 0 0 0.063 0 0 0.063 0.063 0.063 0 0 0-0.063-0.063-0.063-0.063 0zM20.375 27.063c0 0.063 0.125 0.125 0.188 0.125s0-0.125-0.125-0.125c-0.063 0-0.063 0-0.063 0zM11.313 27.125c0 0 0.063 0.063 0.125 0.063 0.125 0 0.125 0 0.125 0-0.125-0.063-0.313-0.125-0.25-0.063zM26.188 27.313c-0.063 0.125-0.188 0.313-0.313 0.313 0 0-0.063 0.063-0.063 0.063 0 0.063-0.188 0.063-0.688 0.063-0.438 0-0.563 0.063-0.5 0.063 0 0 0.313 0.063 0.625 0.063 0.438 0 0.563 0 0.688-0.125 0.188-0.063 0.313-0.313 0.25-0.5 0-0.063 0-0.063 0 0.063zM16.125 27.375c0.063 0.063 0.063 0.063 0.125 0.063 0 0 0 0-0.063-0.063 0 0-0.063-0.063-0.063-0.063s0 0.063 0 0.063zM16.688 27.375c-0.125 0-0.188 0-0.25 0 0 0 0 0 0 0.063s0 0.063-0.063 0.063c-0.125 0-0.313 0.25-0.313 0.375s0.25 0.438 0.375 0.438c0.25 0.125 0.313-0.188 0.188-0.563-0.063-0.125-0.125-0.188-0.125-0.25 0 0 0.063 0 0.125-0.063 0.188-0.063 0.563 0 0.688 0.125 0.375 0.313 0.375 0.313 0.375 0.25 0.063-0.063 0.063-0.063 0.063 0-0.063 0.125-0.063 0.125 0 0.063s0.063-0.188-0.063-0.188c0 0.063-0.063 0-0.063 0-0.188-0.25-0.688-0.375-0.938-0.313zM21 27.375c0.063 0 0.25 0 0.375 0 0.063 0 0 0-0.188 0-0.25 0-0.313 0-0.188 0zM21.75 27.438c0 0 0.063 0 0.125 0 0 0 0 0-0.063 0-0.125 0-0.125 0-0.063 0zM22.188 27.5c0.063 0 0.063 0 0.063 0 0.063 0 0-0.063-0.063-0.063 0 0-0.063 0.063 0 0.063zM22.563 27.563c0.063 0 0.063 0 0.125 0 0-0.063-0.063-0.063-0.063-0.063-0.063 0-0.063 0-0.063 0.063zM23.375 27.563c0.063 0 0.125 0 0.125 0 0-0.063 0-0.063-0.063-0.063s-0.063 0-0.063 0.063zM18.375 27.625c-0.25 0.063-0.5 0.188-0.5 0.25 0 0.188 0.125 0.563 0.25 0.813 0.375 0.75 1.188 1.188 2.25 1.25 0.813 0.063 1-0.063 0.813-0.375 0-0.063-0.063-0.125-0.063-0.125 0-0.063 0.188-0.063 0.313-0.125 0.313-0.063 0.438-0.188 0.438-0.313 0-0.063-0.188-0.313-0.688-0.875-0.25-0.25-0.438-0.438-0.5-0.5 0-0.063-0.063-0.063-0.063-0.063-0.063 0.063 0 0.063 0.063 0.125 0.125 0.063 0.125 0.063-0.313 0-0.5-0.125-1.688-0.125-2-0.063zM23.188 27.688c0.063 0 0.063 0 0.125 0 0 0-0.063-0.063-0.063-0.063-0.063 0-0.063 0.063-0.063 0.063zM14.75 28.125c-0.313 0.063-0.688 0.25-0.938 0.438-0.125 0.125-0.25 0.188-0.25 0.188-0.063 0-0.063 0-0.063 0.063 0 0-0.125 0.188-0.188 0.313-0.125 0.188-0.25 0.375-0.25 0.438s0.063 0.188 0.188 0.25c0.438 0.313 2 0.938 2.563 1 0.188 0 0.25 0 0.313-0.063l0.063-0.125 0.125 0.125c0.313 0.188 0.5 0 0.5-0.563 0-0.75-0.313-1.563-0.688-1.938l-0.188-0.188h-0.5c-0.313 0-0.563 0-0.688 0.063zM6.438 28.188c0.125 0.063 0.188 0.063 0.188 0.063 0.063 0 0 0-0.063-0.063-0.063 0-0.125-0.063-0.188-0.063 0 0 0 0.063 0.063 0.063zM7.188 28.5c0.063 0.063 0.125 0.063 0.125 0.063 0.063 0 0.063 0 0-0.063-0.125-0.063-0.188-0.063-0.125 0zM7.563 28.688c0.063 0 0.125 0 0.125 0 0.063 0 0 0 0 0-0.063-0.063-0.125-0.063-0.125-0.063-0.063 0 0 0 0 0.063zM7.75 28.75c0 0 0.063 0 0.188 0.063 0.063 0 0.125 0 0.125 0-0.063-0.063-0.313-0.125-0.313-0.063zM8.75 29.063c0 0.063 0.063 0 0.063 0s0 0-0.063 0-0.063 0 0 0zM8.938 29.125c0 0 0.063 0 0.063 0s0 0-0.063 0-0.063 0 0 0zM9.125 29.25c0.063 0 0.063 0.063 0.125 0.063 0 0 0-0.063-0.063-0.063 0-0.063-0.063-0.063-0.063-0.063-0.063 0-0.063 0 0 0.063zM9.5 29.375c0 0.063 0 0.063 0.063 0.063 0 0 0 0 0-0.063 0 0 0-0.063-0.063-0.063 0 0 0 0.063 0 0.063zM11.438 29.438c0 0 0.063 0 0.125 0s0.125-0.063 0-0.063c-0.063 0-0.063 0-0.125 0.063zM12.313 29.438c0.063 0 0.188 0 0.25 0s0-0.063-0.125-0.063c-0.125 0-0.188 0.063-0.125 0.063zM11 29.5c-0.313 0.25-0.375 0.5-0.063 0.688 0.375 0.313 0.688-0.063 0.5-0.625-0.063-0.188-0.188-0.188-0.438-0.063zM10.25 29.813c0 0 0 0 0.063 0.063s0.063 0.063 0.063 0c-0.063-0.125-0.125-0.125-0.125-0.063z"></path>
</svg>
