<!-- Generated by IcoMoon.io -->
<svg version="1.1" xmlns="http://www.w3.org/2000/svg" width="32" height="32" viewBox="0 0 32 32">
<title>Squirrel</title>
<path d="M29.688 19.438l-2.625-0.5-1.563 0.688-1.5-1.25 4.313-0.5 1.125-0.75-0.438-0.25 0.625 0.188 0.75-0.438-0.438-0.813-0.938-3.563-1.938-1.563-1.25-1.5-0.563-1.5-1.125-0.375-0.625 1.875-1.313-1.188-0.625 1.25 0.313 1.813-3.313 2.375-2.938 0.063-6 3.625-0.063 7.813 1.375 5.188-2-4.688v-8.563l6.438-4 3.188-4.875-3.563-4.563-6-1.875-7.063 4.188v4.375l3.063 0.625 3.188-1.563-3.75 5.188-2.063 8.063 3.063 6.063 5.75 2.563 0.375 0.625h9.75l-1.375-1.188-2.688-0.563 1.813-3.125-1.125-2.188-3.563-1.875 3.875 1.25 1.438 3.063-1.563 2.438 2.625-2.313 0.063 0.313-2.25 2.25 1.938 0.625 1.25 1.313h1l-1.313-1.313-2.25-0.938 2.25-2.25-0.188-0.438 0.063-0.063 1.75-3.313-1.625-1-1.625-2.563 1.938 2.25 2.813 1.313 2.75-1.938 1.438-0.188 1.688 1.188 0.188-1.25zM26.063 13.5l0.875 0.875h-1.188l-0.875-0.688z"></path>
</svg>
