<?xml version="1.0" encoding="UTF-8"?>
<svg width="700pt" height="700pt" version="1.1" viewBox="0 0 700 700" xmlns="http://www.w3.org/2000/svg" xmlns:xlink="http://www.w3.org/1999/xlink">
 <defs>
  <symbol id="z" overflow="visible">
   <path d="m18.766-1.125c-0.96875 0.5-1.9805 0.875-3.0312 1.125-1.043 0.25781-2.1367 0.39062-3.2812 0.39062-3.3984 0-6.0898-0.94531-8.0781-2.8438-1.9922-1.9062-2.9844-4.4844-2.9844-7.7344 0-3.2578 0.99219-5.8359 2.9844-7.7344 1.9883-1.9062 4.6797-2.8594 8.0781-2.8594 1.1445 0 2.2383 0.13281 3.2812 0.39062 1.0508 0.25 2.0625 0.625 3.0312 1.125v4.2188c-0.98047-0.65625-1.9453-1.1406-2.8906-1.4531-0.94922-0.3125-1.9492-0.46875-3-0.46875-1.875 0-3.3516 0.60547-4.4219 1.8125-1.0742 1.1992-1.6094 2.8555-1.6094 4.9688 0 2.1055 0.53516 3.7617 1.6094 4.9688 1.0703 1.1992 2.5469 1.7969 4.4219 1.7969 1.0508 0 2.0508-0.14844 3-0.45312 0.94531-0.3125 1.9102-0.80078 2.8906-1.4688z"/>
  </symbol>
  <symbol id="c" overflow="visible">
   <path d="m13.734-11.141c-0.4375-0.19531-0.87109-0.34375-1.2969-0.4375-0.41797-0.10156-0.83984-0.15625-1.2656-0.15625-1.2617 0-2.2305 0.40625-2.9062 1.2188-0.67969 0.80469-1.0156 1.9531-1.0156 3.4531v7.0625h-4.8906v-15.312h4.8906v2.5156c0.625-1 1.3438-1.7266 2.1562-2.1875 0.82031-0.46875 1.8008-0.70312 2.9375-0.70312 0.16406 0 0.34375 0.011719 0.53125 0.03125 0.19531 0.011719 0.47656 0.039062 0.84375 0.078125z"/>
  </symbol>
  <symbol id="a" overflow="visible">
   <path d="m17.641-7.7031v1.4062h-11.453c0.125 1.1484 0.53906 2.0078 1.25 2.5781 0.70703 0.57422 1.7031 0.85938 2.9844 0.85938 1.0312 0 2.082-0.14844 3.1562-0.45312 1.082-0.3125 2.1914-0.77344 3.3281-1.3906v3.7656c-1.1562 0.4375-2.3125 0.76562-3.4688 0.98438-1.1562 0.22656-2.3125 0.34375-3.4688 0.34375-2.7734 0-4.9297-0.70312-6.4688-2.1094-1.5312-1.4062-2.2969-3.3789-2.2969-5.9219 0-2.5 0.75391-4.4609 2.2656-5.8906 1.5078-1.4375 3.582-2.1562 6.2188-2.1562 2.4062 0 4.332 0.73047 5.7812 2.1875 1.4453 1.4492 2.1719 3.3828 2.1719 5.7969zm-5.0312-1.625c0-0.92578-0.27344-1.6719-0.8125-2.2344-0.54297-0.57031-1.25-0.85938-2.125-0.85938-0.94922 0-1.7188 0.26562-2.3125 0.79688s-0.96484 1.2969-1.1094 2.2969z"/>
  </symbol>
  <symbol id="k" overflow="visible">
   <path d="m9.2188-6.8906c-1.0234 0-1.793 0.17188-2.3125 0.51562-0.51172 0.34375-0.76562 0.85547-0.76562 1.5312 0 0.625 0.20703 1.1172 0.625 1.4688 0.41406 0.34375 0.98828 0.51562 1.7188 0.51562 0.92578 0 1.7031-0.32812 2.3281-0.98438 0.63281-0.66406 0.95312-1.4922 0.95312-2.4844v-0.5625zm7.4688-1.8438v8.7344h-4.9219v-2.2656c-0.65625 0.92969-1.3984 1.6055-2.2188 2.0312-0.82422 0.41406-1.8242 0.625-3 0.625-1.5859 0-2.8711-0.45703-3.8594-1.375-0.99219-0.92578-1.4844-2.1289-1.4844-3.6094 0-1.7891 0.61328-3.1016 1.8438-3.9375 1.2383-0.84375 3.1797-1.2656 5.8281-1.2656h2.8906v-0.39062c0-0.76953-0.30859-1.332-0.92188-1.6875-0.61719-0.36328-1.5703-0.54688-2.8594-0.54688-1.0547 0-2.0312 0.10547-2.9375 0.3125-0.89844 0.21094-1.7305 0.52344-2.5 0.9375v-3.7344c1.0391-0.25 2.0859-0.44141 3.1406-0.57812 1.0625-0.13281 2.125-0.20312 3.1875-0.20312 2.7578 0 4.75 0.54688 5.9688 1.6406 1.2266 1.0859 1.8438 2.8555 1.8438 5.3125z"/>
  </symbol>
  <symbol id="b" overflow="visible">
   <path d="m7.7031-19.656v4.3438h5.0469v3.5h-5.0469v6.5c0 0.71094 0.14062 1.1875 0.42188 1.4375s0.83594 0.375 1.6719 0.375h2.5156v3.5h-4.1875c-1.9375 0-3.3125-0.39844-4.125-1.2031-0.80469-0.8125-1.2031-2.1797-1.2031-4.1094v-6.5h-2.4219v-3.5h2.4219v-4.3438z"/>
  </symbol>
  <symbol id="j" overflow="visible">
   <path d="m12.766-13.078v-8.2031h4.9219v21.281h-4.9219v-2.2188c-0.66797 0.90625-1.4062 1.5703-2.2188 1.9844s-1.7578 0.625-2.8281 0.625c-1.8867 0-3.4336-0.75-4.6406-2.25-1.2109-1.5-1.8125-3.4258-1.8125-5.7812 0-2.3633 0.60156-4.2969 1.8125-5.7969 1.207-1.5 2.7539-2.25 4.6406-2.25 1.0625 0 2 0.21484 2.8125 0.64062 0.82031 0.42969 1.5664 1.0859 2.2344 1.9688zm-3.2188 9.9219c1.0391 0 1.8359-0.37891 2.3906-1.1406 0.55078-0.76953 0.82812-1.8828 0.82812-3.3438 0-1.457-0.27734-2.5664-0.82812-3.3281-0.55469-0.76953-1.3516-1.1562-2.3906-1.1562-1.043 0-1.8398 0.38672-2.3906 1.1562-0.55469 0.76172-0.82812 1.8711-0.82812 3.3281 0 1.4609 0.27344 2.5742 0.82812 3.3438 0.55078 0.76172 1.3477 1.1406 2.3906 1.1406z"/>
  </symbol>
  <symbol id="i" overflow="visible">
   <path d="m10.5-3.1562c1.0508 0 1.8516-0.37891 2.4062-1.1406 0.55078-0.76953 0.82812-1.8828 0.82812-3.3438 0-1.457-0.27734-2.5664-0.82812-3.3281-0.55469-0.76953-1.3555-1.1562-2.4062-1.1562-1.0547 0-1.8594 0.38672-2.4219 1.1562-0.55469 0.77344-0.82812 1.8828-0.82812 3.3281 0 1.4492 0.27344 2.5586 0.82812 3.3281 0.5625 0.77344 1.3672 1.1562 2.4219 1.1562zm-3.25-9.9219c0.67578-0.88281 1.4219-1.5391 2.2344-1.9688 0.82031-0.42578 1.7656-0.64062 2.8281-0.64062 1.8945 0 3.4453 0.75 4.6562 2.25 1.207 1.5 1.8125 3.4336 1.8125 5.7969 0 2.3555-0.60547 4.2812-1.8125 5.7812-1.2109 1.5-2.7617 2.25-4.6562 2.25-1.0625 0-2.0078-0.21094-2.8281-0.625-0.8125-0.42578-1.5586-1.0859-2.2344-1.9844v2.2188h-4.8906v-21.281h4.8906z"/>
  </symbol>
  <symbol id="h" overflow="visible">
   <path d="m0.34375-15.312h4.8906l4.125 10.391 3.5-10.391h4.8906l-6.4375 16.766c-0.64844 1.6953-1.4023 2.8828-2.2656 3.5625-0.86719 0.6875-2 1.0312-3.4062 1.0312h-2.8438v-3.2188h1.5312c0.83203 0 1.4375-0.13672 1.8125-0.40625 0.38281-0.26172 0.67969-0.73047 0.89062-1.4062l0.14062-0.42188z"/>
  </symbol>
  <symbol id="g" overflow="visible">
   <path d="m0.14062-20.406h18.812v3.9688h-6.7656v16.438h-5.2656v-16.438h-6.7812z"/>
  </symbol>
  <symbol id="f" overflow="visible">
   <path d="m10.047-11.359c1.1016 0 1.8945-0.20312 2.375-0.60938 0.47656-0.41406 0.71875-1.0938 0.71875-2.0312 0-0.92578-0.24219-1.5859-0.71875-1.9844-0.48047-0.40625-1.2734-0.60938-2.375-0.60938h-2.2188v5.2344zm-2.2188 3.6406v7.7188h-5.25v-20.406h8.0312c2.6875 0 4.6562 0.45312 5.9062 1.3594 1.2578 0.89844 1.8906 2.3203 1.8906 4.2656 0 1.3555-0.32812 2.4648-0.98438 3.3281-0.64844 0.86719-1.625 1.5-2.9375 1.9062 0.71875 0.16797 1.3594 0.54297 1.9219 1.125 0.57031 0.57422 1.1484 1.4492 1.7344 2.625l2.8594 5.7969h-5.6094l-2.4844-5.0781c-0.5-1.0195-1.0117-1.7109-1.5312-2.0781-0.51172-0.375-1.1953-0.5625-2.0469-0.5625z"/>
  </symbol>
  <symbol id="y" overflow="visible">
   <path d="m14.953-3.7188h-8.2188l-1.3125 3.7188h-5.2812l7.5625-20.406h6.2656l7.5625 20.406h-5.2812zm-6.9062-3.7812h5.5781l-2.7812-8.125z"/>
  </symbol>
  <symbol id="x" overflow="visible">
   <path d="m0.14062-20.406h5.2812l5.4219 15.062 5.4062-15.062h5.2812l-7.5625 20.406h-6.2656z"/>
  </symbol>
  <symbol id="e" overflow="visible">
   <path d="m2.5781-20.406h5.25v20.406h-5.25z"/>
  </symbol>
  <symbol id="w" overflow="visible">
   <path d="m16.781-19.766v4.3125c-1.125-0.5-2.2266-0.875-3.2969-1.125-1.0625-0.25781-2.0703-0.39062-3.0156-0.39062-1.25 0-2.1797 0.17969-2.7812 0.53125-0.60547 0.34375-0.90625 0.88281-0.90625 1.6094 0 0.54297 0.20312 0.96875 0.60938 1.2812 0.40625 0.30469 1.1406 0.5625 2.2031 0.78125l2.25 0.45312c2.2695 0.44922 3.8789 1.1406 4.8281 2.0781 0.95703 0.92969 1.4375 2.2461 1.4375 3.9531 0 2.25-0.66797 3.9297-2 5.0312-1.3359 1.0938-3.3711 1.6406-6.1094 1.6406-1.3047 0-2.6055-0.125-3.9062-0.375-1.3047-0.23828-2.6055-0.59766-3.9062-1.0781v-4.4531c1.3008 0.69922 2.5625 1.2266 3.7812 1.5781 1.2188 0.34375 2.3906 0.51562 3.5156 0.51562 1.1562 0 2.0352-0.1875 2.6406-0.5625 0.61328-0.38281 0.92188-0.9375 0.92188-1.6562 0-0.63281-0.21094-1.125-0.625-1.4688-0.41797-0.34375-1.2461-0.65625-2.4844-0.9375l-2.0312-0.4375c-2.043-0.4375-3.5391-1.1328-4.4844-2.0938-0.9375-0.95703-1.4062-2.25-1.4062-3.875 0-2.0312 0.65625-3.5938 1.9688-4.6875s3.1953-1.6406 5.6562-1.6406c1.125 0 2.2734 0.085938 3.4531 0.25 1.1875 0.16797 2.4141 0.42188 3.6875 0.76562z"/>
  </symbol>
  <symbol id="v" overflow="visible">
   <path d="m10.75-12.516c0.82031 0 1.4453-0.17969 1.875-0.54688 0.4375-0.36328 0.65625-0.89844 0.65625-1.6094 0-0.69531-0.21875-1.2266-0.65625-1.5938-0.42969-0.375-1.0547-0.5625-1.875-0.5625h-2.9219v4.3125zm0.17188 8.9375c1.0625 0 1.8594-0.22266 2.3906-0.67188 0.53125-0.44531 0.79688-1.125 0.79688-2.0312 0-0.88281-0.26562-1.5469-0.79688-1.9844-0.52344-0.4375-1.3203-0.65625-2.3906-0.65625h-3.0938v5.3438zm4.8906-7.3438c1.1328 0.32422 2.0078 0.92969 2.625 1.8125 0.625 0.88672 0.9375 1.9688 0.9375 3.25 0 1.9688-0.66797 3.4375-2 4.4062-1.3359 0.96875-3.3555 1.4531-6.0625 1.4531h-8.7344v-20.406h7.8906c2.832 0 4.8828 0.42969 6.1562 1.2812 1.2812 0.85547 1.9219 2.2266 1.9219 4.1094 0 1-0.23438 1.8516-0.70312 2.5469-0.46875 0.6875-1.1484 1.2031-2.0312 1.5469z"/>
  </symbol>
  <symbol id="u" overflow="visible">
   <path d="m7.8281-16.438v12.453h1.8906c2.1562 0 3.8008-0.53125 4.9375-1.5938 1.1328-1.0625 1.7031-2.6133 1.7031-4.6562 0-2.0195-0.57031-3.5547-1.7031-4.6094-1.125-1.0625-2.7734-1.5938-4.9375-1.5938zm-5.25-3.9688h5.5469c3.0938 0 5.3984 0.21875 6.9219 0.65625 1.5195 0.4375 2.8203 1.1875 3.9062 2.25 0.95703 0.91797 1.6641 1.9805 2.125 3.1875 0.46875 1.1992 0.70312 2.5586 0.70312 4.0781 0 1.543-0.23438 2.918-0.70312 4.125-0.46094 1.2109-1.168 2.2773-2.125 3.2031-1.0938 1.0547-2.4062 1.8047-3.9375 2.25-1.5312 0.4375-3.8281 0.65625-6.8906 0.65625h-5.5469z"/>
  </symbol>
  <symbol id="t" overflow="visible">
   <path d="m12.422-21.281v3.2188h-2.7031c-0.6875 0-1.1719 0.125-1.4531 0.375-0.27344 0.25-0.40625 0.6875-0.40625 1.3125v1.0625h4.1875v3.5h-4.1875v11.812h-4.8906v-11.812h-2.4375v-3.5h2.4375v-1.0625c0-1.6641 0.46094-2.8984 1.3906-3.7031 0.92578-0.80078 2.3672-1.2031 4.3281-1.2031z"/>
  </symbol>
  <symbol id="d" overflow="visible">
   <path d="m9.6406-12.188c-1.0859 0-1.9141 0.39062-2.4844 1.1719-0.57422 0.78125-0.85938 1.9062-0.85938 3.375s0.28516 2.5938 0.85938 3.375c0.57031 0.77344 1.3984 1.1562 2.4844 1.1562 1.0625 0 1.875-0.38281 2.4375-1.1562 0.57031-0.78125 0.85938-1.9062 0.85938-3.375s-0.28906-2.5938-0.85938-3.375c-0.5625-0.78125-1.375-1.1719-2.4375-1.1719zm0-3.5c2.6328 0 4.6914 0.71484 6.1719 2.1406 1.4766 1.418 2.2188 3.3867 2.2188 5.9062 0 2.5117-0.74219 4.4805-2.2188 5.9062-1.4805 1.418-3.5391 2.125-6.1719 2.125-2.6484 0-4.7148-0.70703-6.2031-2.125-1.4922-1.4258-2.2344-3.3945-2.2344-5.9062 0-2.5195 0.74219-4.4883 2.2344-5.9062 1.4883-1.4258 3.5547-2.1406 6.2031-2.1406z"/>
  </symbol>
  <symbol id="s" overflow="visible">
   <path d="m16.547-12.766c0.61328-0.94531 1.3477-1.6719 2.2031-2.1719 0.85156-0.5 1.7891-0.75 2.8125-0.75 1.7578 0 3.0977 0.54688 4.0156 1.6406 0.92578 1.0859 1.3906 2.6562 1.3906 4.7188v9.3281h-4.9219v-7.9844-0.35938c0.007813-0.13281 0.015625-0.32031 0.015625-0.5625 0-1.082-0.16406-1.8633-0.48438-2.3438-0.3125-0.48828-0.82422-0.73438-1.5312-0.73438-0.92969 0-1.6484 0.38672-2.1562 1.1562-0.51172 0.76172-0.77344 1.8672-0.78125 3.3125v7.5156h-4.9219v-7.9844c0-1.6953-0.14844-2.7852-0.4375-3.2656-0.29297-0.48828-0.8125-0.73438-1.5625-0.73438-0.9375 0-1.6641 0.38672-2.1719 1.1562-0.51172 0.76172-0.76562 1.8594-0.76562 3.2969v7.5312h-4.9219v-15.312h4.9219v2.2344c0.60156-0.86328 1.2891-1.5156 2.0625-1.9531 0.78125-0.4375 1.6406-0.65625 2.5781-0.65625 1.0625 0 2 0.25781 2.8125 0.76562 0.8125 0.51172 1.4258 1.2305 1.8438 2.1562z"/>
  </symbol>
  <symbol id="r" overflow="visible">
   <path d="m17.75-9.3281v9.3281h-4.9219v-7.1094c0-1.3438-0.03125-2.2656-0.09375-2.7656s-0.16797-0.86719-0.3125-1.1094c-0.1875-0.3125-0.44922-0.55469-0.78125-0.73438-0.32422-0.17578-0.69531-0.26562-1.1094-0.26562-1.0234 0-1.8242 0.39844-2.4062 1.1875-0.58594 0.78125-0.875 1.8711-0.875 3.2656v7.5312h-4.8906v-21.281h4.8906v8.2031c0.73828-0.88281 1.5195-1.5391 2.3438-1.9688 0.83203-0.42578 1.75-0.64062 2.75-0.64062 1.7695 0 3.1133 0.54688 4.0312 1.6406 0.91406 1.0859 1.375 2.6562 1.375 4.7188z"/>
  </symbol>
  <symbol id="q" overflow="visible">
   <path d="m2.5781-20.406h5.875l7.4219 14v-14h4.9844v20.406h-5.875l-7.4219-14v14h-4.9844z"/>
  </symbol>
  <symbol id="p" overflow="visible">
   <path d="m2.1875-5.9688v-9.3438h4.9219v1.5312c0 0.83594-0.007813 1.875-0.015625 3.125-0.011719 1.25-0.015625 2.0859-0.015625 2.5 0 1.2422 0.03125 2.1328 0.09375 2.6719 0.070313 0.54297 0.17969 0.93359 0.32812 1.1719 0.20703 0.32422 0.47266 0.57422 0.79688 0.75 0.32031 0.16797 0.69141 0.25 1.1094 0.25 1.0195 0 1.8203-0.39062 2.4062-1.1719 0.58203-0.78125 0.875-1.8672 0.875-3.2656v-7.5625h4.8906v15.312h-4.8906v-2.2188c-0.74219 0.89844-1.5234 1.5586-2.3438 1.9844-0.82422 0.41406-1.7344 0.625-2.7344 0.625-1.7617 0-3.1055-0.53906-4.0312-1.625-0.92969-1.082-1.3906-2.6602-1.3906-4.7344z"/>
  </symbol>
  <symbol id="o" overflow="visible">
   <path d="m17.75-9.3281v9.3281h-4.9219v-7.1406c0-1.3203-0.03125-2.2344-0.09375-2.7344s-0.16797-0.86719-0.3125-1.1094c-0.1875-0.3125-0.44922-0.55469-0.78125-0.73438-0.32422-0.17578-0.69531-0.26562-1.1094-0.26562-1.0234 0-1.8242 0.39844-2.4062 1.1875-0.58594 0.78125-0.875 1.8711-0.875 3.2656v7.5312h-4.8906v-15.312h4.8906v2.2344c0.73828-0.88281 1.5195-1.5391 2.3438-1.9688 0.83203-0.42578 1.75-0.64062 2.75-0.64062 1.7695 0 3.1133 0.54688 4.0312 1.6406 0.91406 1.0859 1.375 2.6562 1.375 4.7188z"/>
  </symbol>
  <symbol id="n" overflow="visible">
   <path d="m2.5781-20.406h8.7344c2.5938 0 4.582 0.57812 5.9688 1.7344 1.3945 1.1484 2.0938 2.7891 2.0938 4.9219 0 2.1367-0.69922 3.7812-2.0938 4.9375-1.3867 1.1562-3.375 1.7344-5.9688 1.7344h-3.4844v7.0781h-5.25zm5.25 3.8125v5.7031h2.9219c1.0195 0 1.8047-0.25 2.3594-0.75 0.5625-0.5 0.84375-1.2031 0.84375-2.1094 0-0.91406-0.28125-1.6172-0.84375-2.1094-0.55469-0.48828-1.3398-0.73438-2.3594-0.73438z"/>
  </symbol>
  <symbol id="m" overflow="visible">
   <path d="m2.3594-15.312h4.8906v15.031c0 2.0508-0.49609 3.6172-1.4844 4.7031-0.98047 1.082-2.4062 1.625-4.2812 1.625h-2.4219v-3.2188h0.85938c0.92578 0 1.5625-0.21094 1.9062-0.625 0.35156-0.41797 0.53125-1.2461 0.53125-2.4844zm0-5.9688h4.8906v4h-4.8906z"/>
  </symbol>
  <symbol id="l" overflow="visible">
   <path d="m14.719-14.828v3.9844c-0.65625-0.45703-1.3242-0.79688-2-1.0156-0.66797-0.21875-1.3594-0.32812-2.0781-0.32812-1.3672 0-2.4336 0.40234-3.2031 1.2031-0.76172 0.79297-1.1406 1.9062-1.1406 3.3438 0 1.4297 0.37891 2.543 1.1406 3.3438 0.76953 0.79297 1.8359 1.1875 3.2031 1.1875 0.75781 0 1.4844-0.10938 2.1719-0.32812 0.6875-0.22656 1.3203-0.56641 1.9062-1.0156v4c-0.76172 0.28125-1.5391 0.48828-2.3281 0.625-0.78125 0.14453-1.5742 0.21875-2.375 0.21875-2.7617 0-4.9219-0.70703-6.4844-2.125-1.5547-1.4141-2.3281-3.3828-2.3281-5.9062 0-2.5312 0.77344-4.5039 2.3281-5.9219 1.5625-1.4141 3.7227-2.125 6.4844-2.125 0.80078 0 1.5938 0.074219 2.375 0.21875 0.78125 0.13672 1.5547 0.35156 2.3281 0.64062z"/>
  </symbol>
 </defs>
 <g>
  <path d="m520.16 280.89c-1.3555-2.75-2.6367-5.1562-4.0898-7.4492-0.015624-0.73828-0.65625-1.6641-1.3008-2.1836 0.11719-0.81641-0.44141-0.86719-0.37109-1.6367-0.3125-0.18359-0.66797-0.3125-0.78906-0.71094-0.089844-0.48047-0.32422-0.79688-0.35938-1.332-1.0039-0.74609-1.3008-2.7422-2.4258-3.7812-1.125-3.0586-2.8125-4.5469-3.8125-7.7578-0.77734 0-0.98047-1.2422-1.1602-2.3398 0.24219-0.26172 0.875-0.15625 1.3398-0.21094-0.011718-2.7227 0-3.8984-1.0078-5.4883-1.0977-0.28516-2.2227-0.35938-3.4492-0.14062-1.2812-0.8125-0.51953-3.0469-1.5352-3.9766 0.64844-0.41016 0.73438-1.3398 0.94531-2.1406-0.76172-1.0469-2.3125-1.1797-3.6523-1.3281-5.4648-0.59766-11.227-0.21875-16.645-0.41406-9.9609-0.37109-19.906-0.66016-29.68-0.41016-1.0078 0.027344-2.1406 0.035156-3.1484 0-7.0508-0.24219-14.152-0.40234-21.438-0.48828-8.0703-0.10156-16.184-1.0547-23.996-0.67187-3.4883-0.77344-8.0859-0.23438-11.105-0.53125-1.8359-0.17188-3.168-0.42578-4.4844 0.0625-5.9141-0.82813-12.691-0.17969-18.582-0.17188-1.7344 0-3.5352-0.78516-4.9297 0.37891-0.16797-0.70703-0.20312-0.37109-0.61719-0.42188-1.6367-0.19531-3.793 0.19141-5.8242 0.27344-3.2578 0.13281-5.8672 0.33594-9.1172 0.42969-0.33594 0.035156 0.21094 0.37109 0.035157 0.75-2.6562-1.4219-5.4531 0.15234-8.5625-0.5-2.3008-5.8281-4.3281-11.492-6.5117-17.516-0.67578-1.8711-1.5273-3.5742-2.3516-5.4258-0.76172-1.7188-1.1641-3.4258-2.0391-5.1445-0.82812-1.6289-1.668-3.332-2.0391-5.1406-0.21094-0.29688-0.80469-0.16797-0.92578-0.55469-0.10156-0.88672-0.75781-1.2812-0.40234-2.2305-0.85547-0.64844-0.69922-1.707-1.1719-2.6445-0.81641-1.5977-2.1836-3.0195-2.7734-4.8086-0.11328-0.33594 0.039062-0.84375-0.054688-1.1914-0.44922-1.5898-1.4727-3.2656-2.1719-4.8438-0.71875-1.6055-1.4766-3.2578-2.457-4.5312-0.81641-4-3.5742-7.4375-3.2461-11.676 6.8672-4.5742 12.605-10.176 19.219-14.98 0.29688-0.84375-0.34766-2.9102-0.011718-3.4375 0.61719-0.99609 3.2422-1.6172 4.8281-2.4766 1.5352-0.82812 2.8789-2.6328 2.4883-4.4648-0.26172-1.2227-1.25-1.125-1.7734-2.6094-1.7852-0.37109-1.9805 0.66016-3.5273 1.3672-0.47656 0.22266-1.0312 0.17188-1.332 0.35938-0.46875 0.29688-0.64844 0.87891-1.1484 1.1016-1.2539 0.56641-3.5781 0.73438-5.2031 0.83984-5.4492 0.35938-12.348 0.71875-17.449 1.5664 0.375-4.8047 0.63672-8.6445 1.1797-13.082 2.2617-1.6406 5.6172-2.6953 8.8359-3.2656 0.59375-0.10547 1.1875 0.054688 1.793-0.085937 0.54688-0.12891 1.0625-0.58203 1.6133-0.67578 0.93359-0.16406 2.0781-0.15234 3.1367-0.29688 4.0664-0.54687 8.2383-0.95312 11.172-1.2773 1.2539-0.14062 2.6445 0.074219 3.8906-0.035157 5.0352-0.42969 10.141-1.9414 14.301-1.5664 0.75-0.50781 2.2227-0.35938 2.9531-0.88672 1.9492 0.53125 3.7109-0.60938 5.6562-0.86719 2.1289-0.27344 4.2344-0.16406 6.2617-0.59375 0.40234 2.9062 3.7695 2.3359 5.1523 1.2617 0.38672-0.59766 0.32031-1.6172 0.80078-2.1328 0.54688-0.027344 1.0938-0.054687 1.6406-0.078125 1.7969-1.6758 4.3164-0.85547 6.5234-1.3555 1.2227-0.27344 2.082-0.98437 3.2539-1.0547 0.5-0.027344 0.99609 0.15625 1.4961 0.085937 1.7305-0.26953 2.8711-1.7852 4.5586-1.8633 0.55859-0.53906 1.1211-1.082 1.7266-1.5781-0.09375-2.0898 1.8711-3.2773 2.918-4.7812 0.23047-2.2578 0.78516-5.4805 2.0312-7.7344 0.62891-1.1367 0.50781-2.4453 0.86328-3.9375 0.17969-0.78906 0.83984-1.4336 1.0938-2.1445 0.30078-0.83984 0.19141-1.8086 0.47656-2.5703 0.35938-0.91797 1.1328-1.5625 1.5352-2.4688 0.25781-0.58203 0.25391-1.4297 0.50391-2.1172 0.23437-0.66797 0.73828-1.2148 0.95703-1.8438 0.42969-1.2148 0.59375-2.7422 1.0117-3.9414 0.33594-0.96484 1.1133-1.8477 0.76172-3.0352 1.8359-2.8438 2.0547-6.7031 1.8945-10.723-0.40234-0.39062-1.0742-0.49219-1.6797-0.66797-1.3047 2.1016-2.2344 4.5469-4.2109 6.0352-0.63281 1.8086-1.0195 3.8398-1.9922 5.3359-0.69531 0.53125-1.4492-0.41016-2.0938 0.10156-0.83594 0.51953-0.88672 1.7578-1.6875 2.3242 0.23047 0.46484 0.054687 0.5 0.050781 1.0469-4.5195 9.3281-9.6211 18.137-14.766 26.902-1.3086 0.20312-2.4531 0.42578-3.5742 0.46484-0.35937-3.3438-0.074218-5.5039-0.21875-7.9297-0.64844-0.0625-1.3984-0.66797-1.5508-1.125-0.64844-1.9727-0.26172-4.7773-0.28516-5.9766-0.015625-1.1367-0.63672-2.043-0.73828-3.1133-0.0625-0.63281 0.17969-1.3281 0.20312-1.9609 0.21875-5.0352 0.44922-10.254 0.94531-15.023-1.4062-0.93359-3.2891-2.6055-5.332-1.8477-0.58203 1.4766-0.60938 3.4492-1.5781 4.5703-1.9531 11.039-4.7422 22.203-7.5938 32.855-10.387 1.5508-26.324 2.8125-38.762 3.7695 0.86328-1.6562 2.582-2.4688 3.8711-3.625 1.8477-1.6641 3.5273-3.543 5.4609-5.0508 1.5391-1.1992 3.1797-2.5195 4.9102-3.8242 1.2539-0.94531 2.4883-1.8867 3.6055-3.0117 0.003907-0.62109-0.22266-0.57812-0.050781-1.0469 1.0938-0.60938 2.1914-1.5117 3.4766-2.5586 0.96484-0.78516 2.8906-1.8984 3.1602-2.8438 0.46484-1.625-1.082-5.0977-2.4883-5.125-1.0977-0.023437-3.2422 2.1797-4.5039 3.0508-4.793 3.3438-8.3906 5.5703-13.512 8.8711-6.9961 4.5078-13.305 8.3086-20.551 12.051-5.3984-7.9023-9.6367-16.258-13.074-26.492-0.80078 0.035157-1.0703 0.011719-2.2461-0.042969-1.125-3.375-3.1641-5.7383-4.4648-8.9258-1.1094 0.054688-1.2812-1.5195-2.4766-1.6797-0.89453-0.12891-2.4531 0.50781-2.6445 1.1719-0.22266 0.77344 1.0195 2.6758 1.5273 3.9688 1.8984 4.7422 4.1953 9.5312 5.4102 13.074-1.5117 1.6797 0.47656 4.832 1.3789 6.9727 1.7578 4.1992 3.3555 7.2539 5.0195 11.148 1.7578 4.1211 3.5273 7.4609 4.2852 11.48-0.59766-0.023438-0.81641 0.30859-1.4883 0.22266-0.37109 0.70703-0.58203 1.5664-0.94141 2.2891 0.42969 1.707-0.24219 3.0352-0.53125 4.6641-0.59375 3.3984-1.1797 6.2383-1.9531 9.3789-0.46875 1.9375-0.71094 4.0312-1.8438 5.4805-4.0703-0.35156-8.293 0.42188-11.809 0.40234-2.4414-5.7617-4.4023-11.375-7.0898-17.039-0.62109 0-0.99219-0.26953-1.3789-0.53125-0.69922-9.9844 4.9297-16.438 4.3281-25.816-1.5195-1.2812 0.33984-3.7578-0.70703-5.5039 1.0938-2.9922 1.9414-7.0508 1.3047-10.395-0.99219-0.63672-0.72266-2.6602-2.3633-2.5859-1.4609 4.5586-3.7812 10.594-5.5312 16.141-0.26172 0.28516-0.57031 0.53125-0.71094 0.92969-1.9648 5.6953-3.8398 11.473-6.0859 16.91-2.7383-0.35938-5.2422-0.11328-7.6602-0.38672-2.918-0.33594-5.6328-1.3945-8.7461-1.3906-0.69531-0.375-1.5234-0.74609-2.5664-0.47656-1.0195-0.6875-1.0078-1.5078-1.6367-2.918-0.83984-1.8828-1.9023-4.2461-2.832-6.1562-0.71875-1.4727-1.2812-3.1992-2.0234-4.8477-0.54297-1.2148-1.3594-2.3867-1.8125-3.5039-0.875-2.168-1.1367-4.5977-2.2578-6.6367-0.13281-0.066407-0.20312-0.09375-0.24219-0.089844 0.039063 0.078125 0.066407 0.16797 0.10156 0.24609-0.10547-0.17188-0.13281-0.24219-0.10156-0.24609-1.2148-3.0078-2.3984-6.5117-3.3945-10.371-0.078125-0.4375-0.87891-0.078125-1.0625-0.39844-0.40234-1.3398-0.77734-2.7031-1.3789-3.832-2.1289-0.26172-3.6406 1.1328-5.1523 1.8867 0.23438 3.4336 1.5117 6.7891 2.1211 10.086 1.4766 7.9297 2.9688 15.664 3.1797 23.066-5.0469-1.457-10.785-2.1523-15.164-3.9297-1.2383-2.9219-3.2812-5.4414-4.5625-8.0234-0.57812-1.1484-1.082-2.4961-1.668-3.668-0.78516-1.5586-2.0703-2.8789-2.7617-4.5117-1.5-3.5898-3.5742-6.1562-5.3711-9.1836-0.15234-0.25781-0.15625-0.58203-0.33984-0.88672-0.14062-0.23438-0.32031-0.46484-0.48047-0.72266-0.63281-0.99609-0.76562-1.7539-1.1719-2.6445-0.45312-1.0078-1.3984-2.0781-2.0898-3.0469-0.75781-1.0703-1.4375-2.1094-2.1016-3.1992-1.3672-2.25-2.1562-4.6797-3.9023-6.5586-0.35938-2.1094-1.6289-3.2305-2.4766-4.8281-0.73828 0.089844-0.09375 1.4375-1.1367 1.2539-1.8594-2.832-3.4258-5.9766-5.4922-8.5781-0.94141-0.13281-2.1602 0.70703-2.7891 1.3281-0.21094 1.3203 0.050781 2.2188-0.28125 3.4609 1.9375 4.9375 5.0234 8.625 6.7812 13.758 0.30078 0.24219 0.46094 0.64844 0.78906 0.86328 3.293 8.25 6.2734 15.934 10.086 23.488 0.015625 0.30078 0.027343 0.59766 0.042969 0.90234 1.6562 3.3281 3.7227 6.2422 4.2109 10.137 1.0117 1.7148 2.4688 2.9453 3.0898 5.0977 0.42969 0.15625 0.71094 0.47656 0.93359 0.85547 5.4102 1.5742 10.527 2.1328 15.574 3.1602 3.6172 0.73828 6.3945 2.5938 9.5703 2.8516 2.7109 1.5078 6.0742 2.2695 9.2891 3.3047 2.5195 0.81641 5.3242 1.0977 7.4648 2.6445 1.7148-0.35156 4.25 0.79688 6.2109 1.5078 4.207 0.77344 9.4531 2.4414 13.508 3.8594-0.18359 7.4805 2.168 13.719 3.0352 19.926-1.043-0.089843-1.2539 0.57813-2.0664 0.69922-3.8242-0.73828-7.4648-3.6523-12.02-3.9297-2.0273-1.2109-4.5117-1.9922-7.1523-2.3633-0.65625-0.089843-1.2148 0.10547-1.7969-0.0625-1.9648-0.57812-3.0352-2.4883-5.2266-2.75-1.4297 0.73438-3.5273 2.0273-3.1133 3.8906 0.24609 1.0938 1.4336 1.0234 2.1836 1.8438 0.28516 3.0234 3.332 3.3711 3.2891 6.2891 3.0469 1.3477 4.1172 4.2383 6.1641 6.8984 1.418 1.8438 3.0508 3.5547 3.7109 5.668 1.5859 1.418 2.4141 5.4414 5.5312 3.0352 1.9531 0.87891 4.1211 1.3984 6.1133 2.5586-0.66016 5.3867-0.42969 10.754-0.73828 16.211-0.17187 2.9805-0.82422 6.0742-0.62891 9.0117 0.054688 0.82813 0.55469 1.5586 0.55859 2.375 0.011719 1.6367-0.44141 3.668-0.64453 5.4219-0.24219 2.0234-0.53906 4.0898-0.76172 6.1758-0.21094 2.0039-0.375 4.0938-0.60938 6.0195-0.29688 2.4648-0.83984 4.8594-1.0078 7.2344-0.17969 2.4961-0.13281 5.4883-0.54687 7.5156-0.18359 0.90234-0.15234 2.082-0.30078 3.1523-1.1602 8.2109-0.20312 16.43-2.9297 23.801 0.34766 0.3125-0.11719 0.61719 0.0625 1.1992-0.44922 1.0547-1.3477 4.3008-0.98047 4.6875-1.1523 0.33203 0.11328 2.8672-1.0547 3.1875-0.53906-0.55859-0.875-1.3398-1.5781-1.7188-1.8086 0.76562-5.7227 1.1914-5.5273 3.3984 0.035156 0.34766 0.91406 1.6641 1.3047 2.1914 0.57031 0.78516 1.6914 2.2305 2.7227 3.7695 0.95312 1.4297 2.3633 2.8555 2.7344 4.0664 0.58984 1.9023-0.25391 2.9453 1.3984 4.2852 0.83984-0.11719 1.0625-0.13281 1.7969 0.0625 1.9922 2.9453 3.6406 6.2656 6.2422 8.5469 0.09375 0.37891 0.51563 1.8477 0.64844 1.1641-0.17188-0.015625-0.16797-0.22266-0.16797-0.44141 1.3711 2.3906 3.2773 5.2188 5.1445 7.5469-0.027343-0.20703 0.003907-0.57031 0.13281-0.30078 0.95312 2.0703 3.6953 6.4336 5.9258 8.1016 1.6016 3.6133 4.5117 7.0742 6.6406 10.625-0.011719 0.48047 0.29297 0.61719 0.20312 1.1875-0.33984 0.30859-1.1641 0.16797-1.1602 0.80469 0.3125 0.63672 0.5 1.5625 0.25781 2.3867 0.74609 0.69922 0.21875 1.8477 0.875 2.6562-0.32422 11.031 0.19141 20.094 0.3125 28.891 0.042969 3.6836 0.10156 8.9102 0.56641 12.105-0.83594 8.1719-0.29688 16.445-0.33203 24.875-0.003907 1.3398-0.35938 2.7109-0.41016 4.0664-0.25391 6.7578 0.29297 13.844 0.66797 20.637-0.96875 3.5273-0.039062 7.1523 0.042969 10.484 0.027343 1.0117-0.35156 1.9883-0.30859 3.0078 0.28125 5.6602 1.1016 13.312 0.90625 19.281-0.085937 0.50781 0.60938 0.15234 0.48047 0.72266-0.70703 5.7188 0.20703 13.344 0.60938 19.441-0.10547 0.58203 0.66797 0.21094 0.48828 0.875 0.30078 5.7891 0.64453 10.617-0.023438 15.43 0.5 0.96875 0.46484 2.5273 0.77344 3.707 0.10547 0.58984-0.53906-0.13281-0.42188 0.62109 1.2539 0.19531 0.6875 1.5977 1.875 1.8555 0.50781 0.11328 1.2422-0.3125 1.7812-0.37891 1.6367-0.20703 3.4844-0.3125 4.5977-0.96484 0.67578 0.30078 1.1719 0.8125 1.8477 1.1094 0.67578-0.42578 1.2383-0.55469 2.2305-0.40234 1.1992-0.58203 2.1914-1.3398 3.0391-2.2344-0.035157-3.8789 0.73828-8.0977 0.62109-12.164-0.035156-1.2812-0.57812-2.5586 0.14453-3.3047-0.34766-1.6797-0.13281-3.9648-0.11328-5.5312 0.039063-2.0938-0.42969-4.2383-0.45312-6.418-0.023438-4.0039-0.035157-8.6172-0.25781-11.973-0.22266-3.3594-0.4375-7.4531-0.35156-10.762 0.085938-3.125-0.87891-6.2812-0.88672-9.2461 0-0.76562 0.37109-1.5078 0.33984-2.2578-0.0625-1.3984-0.78906-3.3164-0.078126-4.9453-0.3125-0.38672-0.20703-1.2422-0.53125-1.6172 0.83984-2.9453-0.29297-6.1641-0.27344-9.1211 0-0.46875 0.34766-0.86719 0.38672-1.3672 0.054687-0.96875-0.32422-2.1211-0.29688-3.1367 0.015625-0.78516 0.14062-1.5508 0.33984-2.2578-0.64844-1.4727-0.28125-3.6562 0.050782-5.3984-0.94141-3.332-0.042969-8.2031 0.011718-12.434 0.074219-5.0781-0.57031-10.137 0.042969-14.98 0.16797-1.3281 0.54297-2.6211 0.55859-4.0781 0.015625-1.5078 0.16406-2.4062 0.28125-3.457 0.39062-3.3477 0.089844-5.9922 0.80078-8.5742 0.30078 1.293 0.60938 2.582 0.92969 3.8516 1.2109 1.0859 4.0703 0.61719 6.3164 0.60547 6.1094-0.042969 10.613-0.46875 15.539-0.73438 2.0039-0.10547 3.8867-0.82422 5.2422-0.10156-0.11719-0.72266 0.92578-0.39844 1.4727-0.51563 0.61719 5.3867 1.3945 12.074 1.4336 17.754 0.011719 2.3672 0.39844 5.1016 0.050781 7.6367 0.73828 3.5039 0.39062 8.6445 0.77734 13.289 0.44141 1.3477 0.0625 3.2773 0.23438 4.9336 0.074219 0.71875 0.50781 1.3477 0.53906 1.9258 0.023438 0.39844-0.22266 0.98047-0.23437 1.3594-0.023438 1.1328 0.38672 2.1406 0.46094 3.2695 0.035156 0.59375-0.30859 1.2422-0.21875 1.8047 1.0312 6.2812 0.83984 12.84 0.45312 19.152-0.078125 1.2266 0.22266 2.4961 0.17188 3.7344-0.023437 0.67187-0.33984 1.3008-0.35156 1.9648-0.16797 6.9492 1.2656 14.027 1.1211 20.621-0.10547 4.5234 0.58203 10.316 0.42578 15.551-0.066407 2.25-0.39063 4.5469-0.42578 6.7578-0.050781 2.4531 0.29297 5.0391 0.035156 7.1914-0.10156 0.78516-0.95312 1.9609-0.77344 2.7266 0.33984 1.4609 2.4805 0.95312 3.9609 1.4688-0.0625 0.60937-0.19141 1.0547 0.22266 1.4883 1.2031 0.68359 3.4102 0.23047 4.4336-1.2617 1.7188 1.1914 4.5312 0.11328 6.2734-0.44141 2.2734-6.9336 1.0586-14.539 0.91406-22.062-0.16406-8.2031 0.13281-16.547 0.49219-24.586 0.29688-6.5508 0.42578-11.809 0.35156-17.992-0.035156-2.9219-0.78516-7.9961-0.22266-11.219-0.48828-1.0742-0.37891-2.5703-0.18359-3.8867-0.79687-3.1992-0.4375-6.625-0.46484-10.012-0.015625-1.6172-0.035157-3.3594-0.09375-5.0859-0.078125-2.582 0.30859-5.2461 0.375-7.9531 0.050781-1.7539-0.30859-3.5234-0.24219-5.2344 0.30078-7.8164 0.54297-15.562 0.51562-23.984 3.6523-0.56641 8.5898-0.64844 12.414-0.4375 2.4922-0.41016 6.4453-0.57031 8.3906 0.0625 1.2812-0.73438 2.832-0.10156 3.8867-0.035157 1.3438 0.078126 2.6836-0.35156 4.0391-0.33984 2.1445 0.023437 4.4648 0.5 6.6094 0.4375 1.0703-0.027344 2.1094-0.46484 3.125-0.44922 0.25781 0 0.51953 0.37109 0.77344 0.41016 0.39062 0.074219 3.2969-0.015625 3.4375-0.003906 0.78906 0.042969 1.5977-0.27344 2.3906-0.26172 4.1094 0.011719 8.6523-0.28125 12.266-0.28125 1.3398 0 2.7734-0.10156 4.0391-0.039062 1.293 0.0625 2.3281 0.53906 3.6172 0.42578 1.3086-0.11328 1.9336-0.023438 2.8516 0.015625 8.8477 0.37891 15.152 0.3125 22.332 0.44922 3.2031 0.066406 6.4102-0.042969 8.7031 0.34766 0.26172 2.1172 0.0625 4.4531-0.003906 6.2891-0.20312 5.5625 0.4375 11.316 0.37109 17.504-0.085938 8.5195 0.003906 17.812 0.035156 26.207 0.011719 5.0352-0.035156 10.719 0.41016 15.102-0.28516 4.2969-0.29688 8.5508-0.125 13.188 0.50781 14 2.832 28.477-0.15625 41.344 0.16797 0.66797 0.91406 0.56641 1.0859 0.84375-0.19141 2.4922 0.76172 4.6406 0.16406 6.7305-0.17969 0.64453-0.95312 1.0547-1.1133 1.7031-0.26172 1.0078 0.32422 2.2852 0.15234 3.2891 0.99609 1.1133 2.0547 0.28516 3.4844 0.73438-0.33203 1.0039-0.41016 2.1211 0.14453 3.1406 2.2852 0.64844 5.7383-0.33203 6.9258-2.2695 0.58203 0.22266 1.1797 0.82422 1.5352 0.82422 1.3906-0.64844 3.7461-1.1523 4.8398-2.1719 1.3555-1.2695 0.38672-3.7461 0.33203-5.7188-0.18359-6.332-0.82422-14.438-2.2773-19.953 0.64453-3.3984-0.24219-6.9492-0.054688-10.633 0.085938-1.4961 0.80078-2.9844 0.83594-4.5312 0.13281-4.6328-0.97266-10.645-0.89062-15.836 0.015625-0.79688 0.44922-1.5195 0.34766-2.2578-0.26953-1.875-0.375-3.9297-0.27344-5.8281 0.23047-4.3633-0.42969-8.1406 0.039062-11.984 0.11719-0.96484 0.53125-1.8867 0.60938-2.8789 0.23047-2.9727-0.078125-5.957 0.63672-8.7188-0.17188-7.9414-0.81641-15.637-0.76172-22.578 0.003906-0.99609 0.34766-2.1172 0.30078-3.1523-0.3125-5.9805-1.5391-12.008-1.1641-18.363 7.0859-0.15625 13.602 0.50781 19.965 1.0078 1.0938 3.0391 0.50781 6.2148 0.59375 9.4062 0.41406 15.871 0.96484 32.523 1.3672 48.312 0.16406 6.418-1.0547 13.164-0.88672 19.359 0.027344 1.1719 0.35156 2-0.16406 2.8555 0.71094 0.96484 0.078125 2.0625-0.015625 2.9961-0.44141 4.8008-0.16406 9.6602-0.066407 14.531 0.11328 5.4375 0.09375 11.016 0.19141 16.766 0.066406 3.9219 0.72266 8.0703-0.023438 12.281 0.44141 1.6953 1.0703 2.7383 2.0039 4.3945-0.28516 0.92578-0.20313 2.8125 1.0469 3.2461 1.6289-1.1133 2.418 1.043 3.8008 1.1719 1.3984 0.12891 4.1367-1.457 4.0703-2.5938-0.050781-0.91797-0.64453-0.69922-1.2617-1.2812 0.75-0.375 1.9727-0.44141 2.8047-0.87891 2.2461-1.1797 1.9492-2.4648 1.5625-5.0195 1.0117-0.46875 2.0156-0.78516 2.6055-1.9219-0.11328-9.4805-0.64453-19.027-1.3164-28.102 0.40234-0.54688 0.375-0.85156 0.37891-1.3672 0.0625-4.5977-0.62109-9.7148-0.69531-14.797-0.085937-5.7344 0.20703-11.574-0.48047-16.598 0.73438-1.9805 0.050782-3.832 0.039063-5.6992-0.003906-0.56641 0.33594-1.0938 0.37109-1.6641 0.035156-0.54297-0.25781-1.0703-0.23047-1.6367 0.089844-1.7734 0.42578-3.4258 0.52734-4.8203 0.12891-1.9648 0.003906-3.9414 0.015625-5.9883 0.003906-2.0703 0.39844-4.0469 0.60547-6.1641 0.41016-4.1484-0.15234-8.3281 0.17187-12.293 0.14453-1.8242 0.4375-3.5156 0.66016-4.9727 0.29688-1.8633 0.32031-4.1328 0.46484-6.1641 0.25781-3.707-0.13281-8.9219 0.16797-12.293 0.49219-0.078125 0.97266-0.15625 1.1758-0.5 0.42578-0.74609 0.30859-1.1367 0.33984-2.2695-0.48828-1.0938-1.1797-2.0273-1.3477-3.2266-0.15625-1.1641 0.36328-2.4531 0.42188-3.7695 0.035156-0.59375-0.35938-1.25-0.37891-1.9336-0.089844-2.3281 1.3906-3.4062-0.37109-4.6211-0.10156-14.074-1.0547-27.043-1.1328-40.086-0.011718-1.9258 0.19141-3.8516-0.11328-5.5391-0.13281-0.77344-0.57812-1.0703-0.6875-1.9141-0.39844-2.918-0.042969-6.4062 0.46484-9.3086 1.3281 2.3125 3.9766 1.7344 5.543 0.039062 0.26172-1.8438-0.77734-3.125-1.2773-4.7266 1.1133 0.20703 1.3711-0.42969 2.6758-0.42578 0.70703 2 1.5742 3.8242 3.0781 4.9453 0.87891 0.44922 2.7266-0.11719 3.707-0.77344 1.1523-1.9609-0.71875-3.5-1.3008-5.332 1.1719-0.60547 2.0312-1.4883 2.8906-2.3867 1.0859 1.5898 0.40234 4.9492 2.3672 5.8867 1.5664-0.15234 2.6836-0.71875 3.5273-1.5195 0.17578-3.3672-1.0273-5.793-2.3164-8.4023zm-148.84-165.39c-0.33984-0.050782-0.10156-0.73438-0.20312-1.0352 0.69531-0.03125 0.0625 0.66797 0.20312 1.0352zm-90.664 85.129c0.49219 0.0625 0.23438 0.55469 0.19141 0.89062-0.40625 0.011719-0.38672-0.6875-0.19141-0.89062zm-0.5 14.996c-0.30859-0.15234-0.22266-1.1484-0.0625-1.3438 0.31641 0.15625 0.23047 1.1484 0.0625 1.3438zm0.16406-3c-0.52734-0.054688-0.27344-0.85547-0.20312-1.1875 0.60547 0.125 0.007812 0.60938 0.20312 1.1875zm0.44531-9.6094c-0.72266-0.023438 0-0.73438-0.20703-1.1875 0.65234 0.17969 0.46484 0.73828 0.20703 1.1875zm20.102 156.92c-0.10547-0.48047 0.066406-0.69922 0.10156-1.0547 0.60938-0.10156 0.42969 0.68359 0.64844 1.0234-0.46094 0.125-0.28516 0.11328-0.75 0.03125zm4.4883-67.004c0.51953 0 0.30859 0.8125 0.50391 1.1758-0.37891-0.26953-0.76172-0.64062-0.50391-1.1758zm173.84 56.391c1.082 0.46094 1.7969 0.34766 2.4531 1.2266-0.66016 1.0234-3.4258-0.015625-2.4531-1.2266zm2.3086 7.6797c-0.29688-0.26953-0.375 0-0.75 0.035156-0.039062-0.55859-0.18359-0.41406-0.042969-0.89453 0.91406-0.20312 0.72266 0.58984 1.3555 0.089843 0.085938 0.48828-0.61328 0.28516-0.5625 0.76953zm0.58203-0.33203c0.11328-0.33984 1.5508-0.72266 1.5195 0.23047-0.74219-0.10547-0.79297-0.046875-1.5195-0.23047zm5.3242 33.594c-0.14453-0.078124-0.24609-0.40234-0.3125-0.12891 0.039062 0.64844-0.25391 0.035156-0.15625-0.29297-0.3125-1.3047-0.45312-2.8242-0.19141-4.043-0.87891-4.9102-0.53125-10.297-0.4375-15.707 0.0625-0.36328 0.33203-0.55859 0.56641-0.77344-0.125-0.8125-0.11328-2.2695-0.003906-3.2969 0.14453 0 0.30078-0.015625 0.44922-0.015625 0.50781 7.2773 0.13672 17.859 0.085938 24.258z" fill-rule="evenodd"/>
  <use x="70" y="644" xlink:href="#z"/>
  <use x="90.550781" y="644" xlink:href="#c"/>
  <use x="104.359375" y="644" xlink:href="#a"/>
  <use x="123.347656" y="644" xlink:href="#k"/>
  <use x="142.242188" y="644" xlink:href="#b"/>
  <use x="155.628906" y="644" xlink:href="#a"/>
  <use x="174.617188" y="644" xlink:href="#j"/>
  <use x="204.410156" y="644" xlink:href="#i"/>
  <use x="224.453125" y="644" xlink:href="#h"/>
  <use x="252.453125" y="644" xlink:href="#g"/>
  <use x="271.550781" y="644" xlink:href="#f"/>
  <use x="293.109375" y="644" xlink:href="#y"/>
  <use x="314.78125" y="644" xlink:href="#x"/>
  <use x="336.453125" y="644" xlink:href="#e"/>
  <use x="346.867188" y="644" xlink:href="#w"/>
  <use x="376.78125" y="644" xlink:href="#v"/>
  <use x="398.125" y="644" xlink:href="#e"/>
  <use x="408.542969" y="644" xlink:href="#f"/>
  <use x="430.101562" y="644" xlink:href="#u"/>
  <use x="70" y="672" xlink:href="#t"/>
  <use x="82.183594" y="672" xlink:href="#c"/>
  <use x="95.992188" y="672" xlink:href="#d"/>
  <use x="115.226562" y="672" xlink:href="#s"/>
  <use x="154.152344" y="672" xlink:href="#b"/>
  <use x="167.535156" y="672" xlink:href="#r"/>
  <use x="187.46875" y="672" xlink:href="#a"/>
  <use x="216.207031" y="672" xlink:href="#q"/>
  <use x="239.640625" y="672" xlink:href="#d"/>
  <use x="258.878906" y="672" xlink:href="#p"/>
  <use x="278.8125" y="672" xlink:href="#o"/>
  <use x="308.492188" y="672" xlink:href="#n"/>
  <use x="329.015625" y="672" xlink:href="#c"/>
  <use x="342.820312" y="672" xlink:href="#d"/>
  <use x="362.058594" y="672" xlink:href="#m"/>
  <use x="371.65625" y="672" xlink:href="#a"/>
  <use x="390.648438" y="672" xlink:href="#l"/>
  <use x="407.242188" y="672" xlink:href="#b"/>
 </g>
</svg>
