<?xml version="1.0" encoding="UTF-8"?>
<svg width="700pt" height="700pt" version="1.1" viewBox="0 0 700 700" xmlns="http://www.w3.org/2000/svg" xmlns:xlink="http://www.w3.org/1999/xlink">
 <defs>
  <symbol id="u" overflow="visible">
   <path d="m18.094-1.0781c-0.9375 0.48047-1.9141 0.83984-2.9219 1.0781-1.0117 0.25-2.0625 0.375-3.1562 0.375-3.2812 0-5.8828-0.91016-7.7969-2.7344-1.918-1.832-2.875-4.3203-2.875-7.4688 0-3.1445 0.95703-5.6328 2.875-7.4688 1.9141-1.832 4.5156-2.75 7.7969-2.75 1.0938 0 2.1445 0.125 3.1562 0.375 1.0078 0.25 1.9844 0.61719 2.9219 1.0938v4.0781c-0.94922-0.64453-1.8828-1.1133-2.7969-1.4062-0.90625-0.30078-1.8672-0.45312-2.875-0.45312-1.8125 0-3.2422 0.58594-4.2812 1.75-1.0312 1.1562-1.5469 2.75-1.5469 4.7812s0.51562 3.6328 1.5469 4.7969c1.0391 1.1562 2.4688 1.7344 4.2812 1.7344 1.0078 0 1.9688-0.14453 2.875-0.4375 0.91406-0.30078 1.8477-0.77344 2.7969-1.4219z"/>
  </symbol>
  <symbol id="e" overflow="visible">
   <path d="m13.234-10.75c-0.41797-0.1875-0.82812-0.32812-1.2344-0.42188s-0.82031-0.14062-1.2344-0.14062c-1.2109 0-2.1406 0.39062-2.7969 1.1719-0.65625 0.77344-0.98438 1.8867-0.98438 3.3438v6.7969h-4.7188v-14.766h4.7188v2.4219c0.60156-0.96875 1.2969-1.6719 2.0781-2.1094 0.78906-0.44531 1.7383-0.67188 2.8438-0.67188 0.15625 0 0.32812 0.011719 0.51562 0.03125 0.1875 0.011719 0.45312 0.039062 0.79688 0.078125z"/>
  </symbol>
  <symbol id="b" overflow="visible">
   <path d="m17-7.4219v1.3438h-11.031c0.11328 1.1055 0.51562 1.9375 1.2031 2.5 0.6875 0.55469 1.6445 0.82812 2.875 0.82812 0.98828 0 2.0039-0.14453 3.0469-0.4375 1.0391-0.30078 2.1133-0.75 3.2188-1.3438v3.6406c-1.1172 0.41797-2.2344 0.73047-3.3594 0.9375-1.1172 0.21875-2.2305 0.32812-3.3438 0.32812-2.668 0-4.7461-0.67578-6.2344-2.0312-1.4805-1.3516-2.2188-3.2578-2.2188-5.7188 0-2.4062 0.72656-4.2969 2.1875-5.6719 1.457-1.3828 3.457-2.0781 6-2.0781 2.3203 0 4.1758 0.70312 5.5625 2.1094 1.3945 1.3984 2.0938 3.2617 2.0938 5.5938zm-4.8438-1.5625c0-0.90625-0.26172-1.6289-0.78125-2.1719-0.52344-0.55078-1.2031-0.82812-2.0469-0.82812-0.91797 0-1.6641 0.26172-2.2344 0.78125-0.57422 0.51172-0.92969 1.25-1.0625 2.2188z"/>
  </symbol>
  <symbol id="d" overflow="visible">
   <path d="m8.8906-6.6406c-0.99219 0-1.7344 0.16797-2.2344 0.5-0.49219 0.33594-0.73438 0.82422-0.73438 1.4688 0 0.60547 0.19531 1.0781 0.59375 1.4219 0.40625 0.33594 0.96094 0.5 1.6719 0.5 0.88281 0 1.6289-0.31641 2.2344-0.95312 0.61328-0.64453 0.92188-1.4453 0.92188-2.4062v-0.53125zm7.2031-1.7812v8.4219h-4.75v-2.1875c-0.63672 0.89844-1.3516 1.5469-2.1406 1.9531-0.79297 0.40625-1.7578 0.60938-2.8906 0.60938-1.5312 0-2.7773-0.44141-3.7344-1.3281-0.94922-0.89453-1.4219-2.0547-1.4219-3.4844 0-1.7266 0.59375-2.9922 1.7812-3.7969 1.1953-0.8125 3.0703-1.2188 5.625-1.2188h2.7812v-0.375c0-0.73828-0.29688-1.2812-0.89062-1.625-0.58594-0.35156-1.5-0.53125-2.75-0.53125-1.0117 0-1.9531 0.10547-2.8281 0.3125-0.86719 0.19922-1.6719 0.5-2.4219 0.90625v-3.6094c1.0078-0.23828 2.0234-0.42188 3.0469-0.54688 1.0195-0.13281 2.0391-0.20312 3.0625-0.20312 2.6562 0 4.5703 0.52734 5.75 1.5781 1.1875 1.0547 1.7812 2.7617 1.7812 5.125z"/>
  </symbol>
  <symbol id="c" overflow="visible">
   <path d="m7.4219-18.953v4.1875h4.8594v3.375h-4.8594v6.2656c0 0.6875 0.13281 1.1523 0.40625 1.3906 0.26953 0.24219 0.8125 0.35938 1.625 0.35938h2.4219v3.375h-4.0469c-1.8672 0-3.1875-0.38281-3.9688-1.1562-0.77344-0.78125-1.1562-2.1016-1.1562-3.9688v-6.2656h-2.3438v-3.375h2.3438v-4.1875z"/>
  </symbol>
  <symbol id="k" overflow="visible">
   <path d="m12.312-12.609v-7.9062h4.75v20.516h-4.75v-2.1406c-0.64844 0.875-1.3672 1.5156-2.1562 1.9219-0.78125 0.39453-1.6836 0.59375-2.7031 0.59375-1.8242 0-3.3203-0.71875-4.4844-2.1562-1.168-1.4453-1.75-3.3125-1.75-5.5938 0-2.2695 0.58203-4.1289 1.75-5.5781 1.1641-1.4453 2.6602-2.1719 4.4844-2.1719 1.0195 0 1.9219 0.21094 2.7031 0.625 0.78906 0.40625 1.5078 1.0391 2.1562 1.8906zm-3.1094 9.5625c1.0078 0 1.7812-0.36719 2.3125-1.1094 0.53125-0.73828 0.79688-1.8125 0.79688-3.2188s-0.26562-2.4727-0.79688-3.2031c-0.53125-0.73828-1.3047-1.1094-2.3125-1.1094-1 0-1.7656 0.37109-2.2969 1.1094-0.53125 0.73047-0.79688 1.7969-0.79688 3.2031s0.26562 2.4805 0.79688 3.2188c0.53125 0.74219 1.2969 1.1094 2.2969 1.1094z"/>
  </symbol>
  <symbol id="j" overflow="visible">
   <path d="m10.125-3.0469c1.0078 0 1.7812-0.36719 2.3125-1.1094 0.53125-0.73828 0.79688-1.8125 0.79688-3.2188s-0.26562-2.4727-0.79688-3.2031c-0.53125-0.73828-1.3047-1.1094-2.3125-1.1094-1.0117 0-1.7891 0.37109-2.3281 1.1094-0.54297 0.74219-0.8125 1.8086-0.8125 3.2031 0 1.3984 0.26953 2.4688 0.8125 3.2188 0.53906 0.74219 1.3164 1.1094 2.3281 1.1094zm-3.1406-9.5625c0.65625-0.85156 1.3789-1.4844 2.1719-1.8906 0.78906-0.41406 1.6953-0.625 2.7188-0.625 1.8203 0 3.3164 0.72656 4.4844 2.1719 1.1641 1.4492 1.75 3.3086 1.75 5.5781 0 2.2812-0.58594 4.1484-1.75 5.5938-1.168 1.4375-2.6641 2.1562-4.4844 2.1562-1.0234 0-1.9297-0.20312-2.7188-0.60938-0.79297-0.40625-1.5156-1.0391-2.1719-1.9062v2.1406h-4.7188v-20.516h4.7188z"/>
  </symbol>
  <symbol id="g" overflow="visible">
   <path d="m0.32812-14.766h4.7188l3.9688 10.016 3.375-10.016h4.7188l-6.2031 16.156c-0.625 1.6445-1.3555 2.7969-2.1875 3.4531-0.83594 0.65625-1.9297 0.98438-3.2812 0.98438h-2.7344v-3.0938h1.4688c0.80078 0 1.3828-0.13281 1.75-0.39062 0.36328-0.25 0.64844-0.71094 0.85938-1.375l0.125-0.40625z"/>
  </symbol>
  <symbol id="i" overflow="visible">
   <path d="m20.172-1.4688c-1.2734 0.61719-2.5898 1.0781-3.9531 1.3906-1.3555 0.30078-2.7578 0.45312-4.2031 0.45312-3.2812 0-5.8828-0.91016-7.7969-2.7344-1.918-1.832-2.875-4.3203-2.875-7.4688 0-3.1641 0.97266-5.6602 2.9219-7.4844 1.957-1.8203 4.6289-2.7344 8.0156-2.7344 1.3125 0 2.5664 0.125 3.7656 0.375 1.1953 0.25 2.332 0.61719 3.4062 1.0938v4.0781c-1.1055-0.625-2.1992-1.0859-3.2812-1.3906-1.0859-0.3125-2.1719-0.46875-3.2656-0.46875-2.0234 0-3.5781 0.57031-4.6719 1.7031-1.0938 1.125-1.6406 2.7344-1.6406 4.8281 0 2.0859 0.52344 3.6953 1.5781 4.8281 1.0508 1.1367 2.5508 1.7031 4.5 1.7031 0.51953 0 1.0039-0.03125 1.4531-0.09375 0.45703-0.070313 0.86719-0.17578 1.2344-0.3125v-3.8281h-3.0938v-3.3906h7.9062z"/>
  </symbol>
  <symbol id="f" overflow="visible">
   <path d="m17.109-8.9844v8.9844h-4.75v-6.875c0-1.2812-0.03125-2.1602-0.09375-2.6406-0.054687-0.48828-0.14844-0.84766-0.28125-1.0781-0.1875-0.30078-0.4375-0.53516-0.75-0.70312-0.3125-0.17578-0.67188-0.26562-1.0781-0.26562-0.99219 0-1.7656 0.38281-2.3281 1.1406-0.5625 0.76172-0.84375 1.8125-0.84375 3.1562v7.2656h-4.7188v-14.766h4.7188v2.1562c0.71875-0.85156 1.4727-1.4844 2.2656-1.8906 0.80078-0.41406 1.6875-0.625 2.6562-0.625 1.707 0 3 0.52734 3.875 1.5781 0.88281 1.043 1.3281 2.5625 1.3281 4.5625z"/>
  </symbol>
  <symbol id="t" overflow="visible">
   <path d="m2.4844-19.688h5.0625v7.1875l7.3281-7.1875h5.8906l-9.4844 9.3281 10.453 10.359h-6.3438l-7.8438-7.75v7.75h-5.0625z"/>
  </symbol>
  <symbol id="h" overflow="visible">
   <path d="m17.109-8.9844v8.9844h-4.75v-6.8594c0-1.2891-0.03125-2.1758-0.09375-2.6562-0.054687-0.48828-0.14844-0.84766-0.28125-1.0781-0.1875-0.30078-0.4375-0.53516-0.75-0.70312-0.3125-0.17578-0.67188-0.26562-1.0781-0.26562-0.99219 0-1.7656 0.38281-2.3281 1.1406-0.5625 0.76172-0.84375 1.8125-0.84375 3.1562v7.2656h-4.7188v-20.516h4.7188v7.9062c0.71875-0.85156 1.4727-1.4844 2.2656-1.8906 0.80078-0.41406 1.6875-0.625 2.6562-0.625 1.707 0 3 0.52734 3.875 1.5781 0.88281 1.043 1.3281 2.5625 1.3281 4.5625z"/>
  </symbol>
  <symbol id="a" overflow="visible">
   <path d="m9.2969-11.75c-1.0547 0-1.8555 0.375-2.4062 1.125-0.54297 0.75-0.8125 1.8359-0.8125 3.25 0 1.418 0.26953 2.5 0.8125 3.25 0.55078 0.75 1.3516 1.125 2.4062 1.125 1.0312 0 1.8164-0.375 2.3594-1.125 0.53906-0.75 0.8125-1.832 0.8125-3.25 0-1.4141-0.27344-2.5-0.8125-3.25-0.54297-0.75-1.3281-1.125-2.3594-1.125zm0-3.375c2.5391 0 4.5234 0.6875 5.9531 2.0625 1.4258 1.3672 2.1406 3.2617 2.1406 5.6875 0 2.4297-0.71484 4.3281-2.1406 5.7031-1.4297 1.3672-3.4141 2.0469-5.9531 2.0469-2.5547 0-4.5469-0.67969-5.9844-2.0469-1.4375-1.375-2.1562-3.2734-2.1562-5.7031 0-2.4258 0.71875-4.3203 2.1562-5.6875 1.4375-1.375 3.4297-2.0625 5.9844-2.0625z"/>
  </symbol>
  <symbol id="s" overflow="visible">
   <path d="m2.4844-19.688h5.0625v15.844h8.9219v3.8438h-13.984z"/>
  </symbol>
  <symbol id="r" overflow="visible">
   <path d="m11.984-20.516v3.0938h-2.6094c-0.66797 0-1.1367 0.125-1.4062 0.375-0.26172 0.24219-0.39062 0.65625-0.39062 1.25v1.0312h4.0312v3.375h-4.0312v11.391h-4.7188v-11.391h-2.3438v-3.375h2.3438v-1.0312c0-1.6016 0.44531-2.7891 1.3438-3.5625 0.89453-0.76953 2.2852-1.1562 4.1719-1.1562z"/>
  </symbol>
  <symbol id="q" overflow="visible">
   <path d="m15.953-12.312c0.59375-0.91406 1.3008-1.6133 2.125-2.0938 0.82031-0.47656 1.7266-0.71875 2.7188-0.71875 1.6875 0 2.9727 0.52734 3.8594 1.5781 0.89453 1.043 1.3438 2.5625 1.3438 4.5625v8.9844h-4.75v-7.7031c0.007812-0.11328 0.015625-0.22656 0.015625-0.34375 0.007813-0.125 0.015625-0.30078 0.015625-0.53125 0-1.0508-0.15625-1.8125-0.46875-2.2812-0.30469-0.46875-0.79688-0.70312-1.4844-0.70312-0.89844 0-1.5898 0.37109-2.0781 1.1094-0.49219 0.74219-0.74219 1.8086-0.75 3.2031v7.25h-4.75v-7.7031c0-1.6328-0.14062-2.6875-0.42188-3.1562s-0.78125-0.70312-1.5-0.70312c-0.90625 0-1.6094 0.375-2.1094 1.125-0.49219 0.74219-0.73438 1.7969-0.73438 3.1719v7.2656h-4.75v-14.766h4.75v2.1562c0.58203-0.83203 1.25-1.457 2-1.875 0.75-0.42578 1.5781-0.64062 2.4844-0.64062 1.0195 0 1.9219 0.25 2.7031 0.75 0.78125 0.49219 1.375 1.1797 1.7812 2.0625z"/>
  </symbol>
  <symbol id="p" overflow="visible">
   <path d="m2.4844-19.688h5.6562l7.1719 13.5v-13.5h4.8125v19.688h-5.6719l-7.1562-13.5v13.5h-4.8125z"/>
  </symbol>
  <symbol id="o" overflow="visible">
   <path d="m2.1094-5.75v-9.0156h4.75v1.4688c0 0.80469-0.007813 1.8086-0.015625 3.0156-0.011719 1.2109-0.015625 2.0156-0.015625 2.4219 0 1.1875 0.03125 2.043 0.09375 2.5625 0.0625 0.52344 0.16406 0.90234 0.3125 1.1406 0.19531 0.3125 0.45312 0.55469 0.76562 0.71875 0.3125 0.16797 0.67188 0.25 1.0781 0.25 0.97656 0 1.75-0.375 2.3125-1.125 0.5625-0.75781 0.84375-1.8125 0.84375-3.1562v-7.2969h4.7188v14.766h-4.7188v-2.1406c-0.71094 0.86719-1.4648 1.5-2.2656 1.9062-0.79297 0.40625-1.668 0.60938-2.625 0.60938-1.7109 0-3.0117-0.51953-3.9062-1.5625-0.88672-1.0391-1.3281-2.5625-1.3281-4.5625z"/>
  </symbol>
  <symbol id="n" overflow="visible">
   <path d="m2.4844-19.688h8.4219c2.5 0 4.4219 0.55859 5.7656 1.6719 1.3438 1.1172 2.0156 2.6992 2.0156 4.75 0 2.0625-0.67188 3.6523-2.0156 4.7656-1.3438 1.1172-3.2656 1.6719-5.7656 1.6719h-3.3594v6.8281h-5.0625zm5.0625 3.6875v5.5h2.8125c0.98828 0 1.75-0.23828 2.2812-0.71875 0.53906-0.47656 0.8125-1.1602 0.8125-2.0469 0-0.875-0.27344-1.5469-0.8125-2.0156-0.53125-0.47656-1.293-0.71875-2.2812-0.71875z"/>
  </symbol>
  <symbol id="m" overflow="visible">
   <path d="m2.2656-14.766h4.7188v14.5c0 1.9766-0.47656 3.4883-1.4219 4.5312-0.94922 1.0391-2.3242 1.5625-4.125 1.5625h-2.3281v-3.0938h0.8125c0.89453 0 1.5078-0.20312 1.8438-0.60938 0.33203-0.40625 0.5-1.2031 0.5-2.3906zm0-5.75h4.7188v3.8438h-4.7188z"/>
  </symbol>
  <symbol id="l" overflow="visible">
   <path d="m14.203-14.297v3.8438c-0.64844-0.4375-1.293-0.75781-1.9375-0.96875-0.64844-0.21875-1.3203-0.32812-2.0156-0.32812-1.3125 0-2.3398 0.38672-3.0781 1.1562-0.73047 0.77344-1.0938 1.8438-1.0938 3.2188 0 1.3867 0.36328 2.4648 1.0938 3.2344 0.73828 0.76172 1.7656 1.1406 3.0781 1.1406 0.73828 0 1.4414-0.10938 2.1094-0.32812 0.66406-0.21875 1.2812-0.53906 1.8438-0.96875v3.8594c-0.74219 0.27344-1.4922 0.47266-2.25 0.60938-0.76172 0.13281-1.5273 0.20312-2.2969 0.20312-2.6562 0-4.7422-0.67969-6.25-2.0469-1.5-1.3633-2.25-3.2656-2.25-5.7031 0-2.4258 0.75-4.3203 2.25-5.6875 1.5078-1.375 3.5938-2.0625 6.25-2.0625 0.78125 0 1.5469 0.070312 2.2969 0.20312 0.75 0.13672 1.5 0.34375 2.25 0.625z"/>
  </symbol>
 </defs>
 <g>
  <path d="m47.234 202.97c2.1484 19.594 14.965 41.809-3.4883 58.117s-5.0156 50.324-5.0156 50.324 36.02 16.477 62.738 7.0195c26.719-9.4492 31.02-61.648 41.879-63.664 9.207-1.707 33.703 12.578 60.742 34.125l6.6836 185.66c0.44922 12.43 10.211 22.512 22.621 23.367 0.5625 0.039063 1.125 0.058594 1.6836 0.058594 11.715 0 21.875-8.4258 23.918-20.121l24.344-139.3c3.3906 1.7266 6.7773 2.9492 10.098 3.4492 17.887 2.7148 57.254-24.895 106.16-50.367-1.3789-15.824-6.6523-51.398-26.953-91.836 12.195 14.258 37.422 45.988 44.262 83.141 8.1602-3.9297 16.539-7.6836 25.074-11.18-3.3984-18.352-10.25-43.691-24.105-71.289 10.191 11.918 29.496 36.059 39.562 65.352 7.4531-2.6562 15-5.0234 22.621-7.0703-4-16.297-10.473-35.953-21-56.934 8.793 10.281 24.367 29.68 34.949 53.613 9.3789-1.9336 18.824-3.2383 28.293-3.8242l82.02 218.05c4.0352 10.73 14.25 17.504 25.262 17.504 2.207 0 4.4492-0.27734 6.6797-0.84375 13.34-3.4023 21.98-16.293 20.066-29.922l-40.918-291.42c0.82031 0.5625 1.6523 1.1055 2.4531 1.6953 35.91 26.309 50.125 75.09 42.23 145-1.1719 10.375 6.293 19.73 16.66 20.902 0.71875 0.082031 1.4375 0.11719 2.1445 0.11719 9.4883 0 17.664-7.1289 18.762-16.785 9.5273-84.355-9.8086-144.82-57.457-179.73-90.793-66.465-258.09-15.812-330.41 11.078-8.6797-1.6914-17.309-3.9492-25.84-7.043-6.9492 8.9648-17.254 21.855-31.434 36.316 3.0547-25.895 3.1211-43.32 3.1211-43.32-58.914 10.438-134.34 1.6641-158.5-1.6602-29.277-37.164-75.828-19.762-75.828-19.762s17.523 13.883 33.477 33.926c-33.688-0.33594-54.785 28.359-54.785 28.359s24.164 2.2031 49.648 11.125c-1.8828 6.1719-3 12.383-2.4141 17.777zm43.66 16.879c-5.0234 4.4375-12.684 3.9648-17.125-1.0547-4.4375-5.0234-3.9648-12.684 1.0547-17.125 5.0234-4.4375 12.684-3.9648 17.125 1.0547 4.4375 5.0195 3.9688 12.688-1.0547 17.125z"/>
  <use y="578.988281" xlink:href="#u"/>
  <use x="19.816406" y="578.988281" xlink:href="#e"/>
  <use x="33.132812" y="578.988281" xlink:href="#b"/>
  <use x="51.445312" y="578.988281" xlink:href="#d"/>
  <use x="69.664062" y="578.988281" xlink:href="#c"/>
  <use x="82.570313" y="578.988281" xlink:href="#b"/>
  <use x="100.882812" y="578.988281" xlink:href="#k"/>
  <use x="129.613281" y="578.988281" xlink:href="#j"/>
  <use x="148.941406" y="578.988281" xlink:href="#g"/>
  <use x="175.941406" y="578.988281" xlink:href="#i"/>
  <use x="198.105469" y="578.988281" xlink:href="#d"/>
  <use x="216.324219" y="578.988281" xlink:href="#f"/>
  <use x="244.945312" y="578.988281" xlink:href="#t"/>
  <use x="265.871094" y="578.988281" xlink:href="#h"/>
  <use x="285.09375" y="578.988281" xlink:href="#a"/>
  <use x="303.640625" y="578.988281" xlink:href="#a"/>
  <use x="322.191406" y="578.988281" xlink:href="#f"/>
  <use x="350.816406" y="578.988281" xlink:href="#s"/>
  <use x="368.019531" y="578.988281" xlink:href="#d"/>
  <use x="386.242188" y="578.988281" xlink:href="#g"/>
  <use y="605.988281" xlink:href="#r"/>
  <use x="11.746094" y="605.988281" xlink:href="#e"/>
  <use x="25.0625" y="605.988281" xlink:href="#a"/>
  <use x="43.613281" y="605.988281" xlink:href="#q"/>
  <use x="81.148438" y="605.988281" xlink:href="#c"/>
  <use x="94.054688" y="605.988281" xlink:href="#h"/>
  <use x="113.277344" y="605.988281" xlink:href="#b"/>
  <use x="140.992188" y="605.988281" xlink:href="#p"/>
  <use x="163.585938" y="605.988281" xlink:href="#a"/>
  <use x="182.136719" y="605.988281" xlink:href="#o"/>
  <use x="201.359375" y="605.988281" xlink:href="#f"/>
  <use x="229.984375" y="605.988281" xlink:href="#n"/>
  <use x="249.773438" y="605.988281" xlink:href="#e"/>
  <use x="263.089844" y="605.988281" xlink:href="#a"/>
  <use x="281.636719" y="605.988281" xlink:href="#m"/>
  <use x="290.894531" y="605.988281" xlink:href="#b"/>
  <use x="309.207031" y="605.988281" xlink:href="#l"/>
  <use x="325.210938" y="605.988281" xlink:href="#c"/>
 </g>
</svg>
