<!-- Generated by IcoMoon.io -->
<svg version="1.1" xmlns="http://www.w3.org/2000/svg" width="32" height="32" viewBox="0 0 32 32">
<title>starvation</title>
<path d="M0.115 16.699c0.052 0.452 0.436 0.786 0.881 0.786 0.034 0 0.068-0.002 0.103-0.006 0.487-0.056 0.836-0.496 0.78-0.983-0.378-3.28 0.283-5.572 1.966-6.811 0.038-0.028 0.077-0.054 0.116-0.081l-0.723 5.24 1.272 0.612-1.387 0.217-1.052 7.617c-0.089 0.64 0.319 1.244 0.945 1.402 0.104 0.026 0.208 0.039 0.311 0.039 0.518 0 0.998-0.319 1.187-0.824l3.708-9.927c1.622 0.389 3.889 1.196 5.901 1.864l0.527-1.846 0.568 2.201c1.438 0.454 2.628 0.766 3.164 0.684 0.368-0.057 0.811-0.214 1.259-0.416l1.079 7.745c0.079 0.566 0.564 0.983 1.129 0.983 0.020 0 0.040-0.001 0.060-0.002 0.591-0.031 1.061-0.509 1.081-1.101l0.394-11.695c0.358 0.293 0.746 0.569 1.169 0.817 0.534-1.947 1.261-3.573 1.738-3.777s2.005 1.721 3.295 1.393c1.29-0.328 2.681-2.857 2.371-3.222s-0.467-0.366-1.613-0.522c-1.146-0.156-1.225-1.357-1.652-2.178-0.118-0.226-0.323-0.439-0.558-0.631 0.762-1.013 1.648-1.729 1.648-1.729s-1.572-0.57-2.879 0.321c0.1-1.199 0.422-2.198 0.422-2.198s-2.279 0.537-2.446 2.762c-0.812 0.761-3.245 2.987-4.97 4.007 0 0 0.584 1.764 2.037 3.519-0.011 0.003-0.022 0.006-0.032 0.009-1.159-1.015-1.935-1.973-2.396-2.565-0.4 0.146-0.805 0.253-1.213 0.334-1.876-0.693-5.112-1.721-8.35-1.978l-0.122 1.344-0.948-1.399c-2.259-0.051-4.446 0.338-6.092 1.55-2.234 1.644-3.134 4.485-2.678 8.444zM27.58 5.578c0.312 0.042 0.53 0.329 0.488 0.641s-0.329 0.53-0.641 0.488c-0.312-0.042-0.53-0.329-0.488-0.641s0.329-0.53 0.641-0.488z"></path>
<path d="M0.849 28.948c-0.044 0.023-0.090 0.040-0.137 0.051s-0.096 0.017-0.148 0.017c-0.154 0-0.276-0.043-0.366-0.129s-0.135-0.203-0.135-0.351c0-0.148 0.045-0.264 0.135-0.35s0.212-0.129 0.366-0.129c0.051 0 0.101 0.006 0.148 0.017s0.093 0.029 0.137 0.051v0.191c-0.044-0.030-0.088-0.052-0.131-0.066s-0.088-0.021-0.136-0.021c-0.085 0-0.152 0.027-0.201 0.082s-0.073 0.129-0.073 0.225 0.024 0.171 0.073 0.225c0.049 0.054 0.116 0.081 0.201 0.081 0.047 0 0.093-0.007 0.136-0.021s0.086-0.036 0.131-0.066z"></path>
<path d="M1.552 28.495c-0.020-0.009-0.039-0.016-0.058-0.020s-0.038-0.007-0.058-0.007c-0.057 0-0.101 0.018-0.132 0.055s-0.046 0.089-0.046 0.157v0.319h-0.221v-0.694h0.221v0.114c0.029-0.046 0.061-0.079 0.098-0.099s0.082-0.031 0.134-0.031c0.007 0 0.015 0 0.024 0.001s0.022 0.002 0.038 0.004z"></path>
<path d="M2.354 28.651v0.063h-0.518c0.005 0.052 0.024 0.092 0.056 0.118s0.077 0.039 0.135 0.039c0.047 0 0.094-0.007 0.144-0.021s0.099-0.035 0.151-0.063v0.171c-0.053 0.020-0.105 0.035-0.157 0.045s-0.105 0.015-0.157 0.015c-0.126 0-0.223-0.032-0.293-0.096s-0.104-0.153-0.104-0.268c0-0.113 0.034-0.202 0.102-0.267s0.163-0.097 0.282-0.097c0.109 0 0.196 0.033 0.261 0.099s0.099 0.153 0.099 0.263zM2.126 28.577c0-0.042-0.013-0.076-0.037-0.101s-0.056-0.039-0.096-0.039c-0.043 0-0.078 0.012-0.105 0.036s-0.043 0.059-0.050 0.104z"></path>
<path d="M2.832 28.687c-0.046 0-0.081 0.008-0.104 0.024s-0.035 0.039-0.035 0.069c0 0.028 0.009 0.050 0.028 0.066s0.045 0.024 0.079 0.024c0.042 0 0.077-0.015 0.105-0.045s0.043-0.067 0.043-0.112v-0.026zM3.171 28.603v0.396h-0.224v-0.103c-0.030 0.043-0.063 0.073-0.1 0.092s-0.083 0.029-0.136 0.029c-0.072 0-0.13-0.021-0.175-0.063s-0.067-0.096-0.067-0.163c0-0.081 0.028-0.141 0.084-0.179s0.144-0.057 0.264-0.057h0.131v-0.018c0-0.035-0.014-0.060-0.041-0.076s-0.071-0.025-0.129-0.025c-0.048 0-0.092 0.005-0.133 0.014s-0.078 0.024-0.114 0.043v-0.169c0.047-0.011 0.095-0.020 0.143-0.026s0.096-0.009 0.144-0.009c0.125 0 0.215 0.025 0.271 0.074s0.084 0.129 0.084 0.24z"></path>
<path d="M3.619 28.109v0.196h0.229v0.159h-0.229v0.294c0 0.032 0.006 0.054 0.019 0.065s0.038 0.017 0.076 0.017h0.114v0.159h-0.19c-0.088 0-0.15-0.018-0.186-0.054s-0.054-0.099-0.054-0.186v-0.294h-0.111v-0.159h0.111v-0.196z"></path>
<path d="M4.675 28.651v0.063h-0.518c0.005 0.052 0.024 0.092 0.056 0.118s0.077 0.039 0.135 0.039c0.047 0 0.094-0.007 0.144-0.021s0.099-0.035 0.151-0.063v0.171c-0.053 0.020-0.105 0.035-0.157 0.045s-0.105 0.015-0.157 0.015c-0.126 0-0.223-0.032-0.293-0.096s-0.104-0.153-0.104-0.268c0-0.113 0.034-0.202 0.102-0.267s0.162-0.097 0.282-0.097c0.109 0 0.196 0.033 0.261 0.099s0.099 0.153 0.099 0.263zM4.447 28.577c0-0.042-0.013-0.076-0.037-0.101s-0.056-0.039-0.096-0.039c-0.043 0-0.078 0.012-0.105 0.036s-0.043 0.059-0.050 0.104z"></path>
<path d="M5.314 28.407v-0.371h0.224v0.964h-0.224v-0.1c-0.031 0.041-0.064 0.070-0.101 0.089s-0.079 0.029-0.127 0.029c-0.086 0-0.156-0.034-0.211-0.101s-0.082-0.155-0.082-0.262c0-0.107 0.027-0.194 0.082-0.262s0.125-0.102 0.211-0.102c0.048 0 0.090 0.010 0.126 0.029s0.071 0.049 0.101 0.089zM5.169 28.856c0.048 0 0.084-0.017 0.109-0.052s0.037-0.085 0.037-0.151c0-0.066-0.013-0.117-0.037-0.151s-0.061-0.052-0.109-0.052c-0.047 0-0.083 0.017-0.109 0.052s-0.037 0.085-0.037 0.151c0 0.066 0.012 0.116 0.037 0.151s0.061 0.052 0.109 0.052z"></path>
<path d="M6.561 28.856c0.047 0 0.083-0.017 0.108-0.052s0.038-0.085 0.038-0.151c0-0.066-0.013-0.117-0.038-0.151s-0.061-0.052-0.108-0.052c-0.048 0-0.084 0.018-0.11 0.053s-0.038 0.085-0.038 0.151c0 0.065 0.013 0.116 0.038 0.151s0.062 0.052 0.11 0.052zM6.413 28.407c0.030-0.040 0.064-0.070 0.101-0.089s0.080-0.029 0.129-0.029c0.085 0 0.155 0.034 0.21 0.102s0.083 0.155 0.083 0.262c0 0.107-0.028 0.194-0.083 0.262s-0.125 0.101-0.21 0.101c-0.049 0-0.091-0.010-0.129-0.029s-0.071-0.049-0.101-0.089v0.1h-0.221v-0.964h0.221z"></path>
<path d="M7.008 28.306h0.221l0.186 0.471 0.159-0.471h0.221l-0.291 0.759c-0.030 0.077-0.064 0.131-0.103 0.161s-0.091 0.046-0.154 0.046h-0.128v-0.146h0.069c0.037 0 0.065-0.006 0.082-0.018s0.030-0.033 0.039-0.064l0.006-0.019z"></path>
<path d="M9.207 28.931c-0.060 0.029-0.121 0.050-0.185 0.065s-0.13 0.021-0.198 0.021c-0.154 0-0.276-0.043-0.366-0.129s-0.135-0.203-0.135-0.351c0-0.149 0.046-0.266 0.137-0.351s0.217-0.128 0.377-0.128c0.061 0 0.12 0.006 0.176 0.017s0.11 0.029 0.159 0.051v0.191c-0.051-0.029-0.103-0.051-0.154-0.066s-0.102-0.022-0.154-0.022c-0.095 0-0.168 0.027-0.219 0.080s-0.077 0.129-0.077 0.227c0 0.098 0.025 0.174 0.074 0.227s0.12 0.079 0.211 0.079c0.025 0 0.047-0.001 0.069-0.004s0.041-0.008 0.058-0.015v-0.179h-0.146v-0.159h0.371z"></path>
<path d="M9.718 28.687c-0.046 0-0.081 0.008-0.104 0.024s-0.035 0.039-0.035 0.069c0 0.028 0.009 0.050 0.028 0.066s0.045 0.024 0.079 0.024c0.042 0 0.077-0.015 0.105-0.045s0.043-0.067 0.043-0.112v-0.026zM10.056 28.603v0.396h-0.224v-0.103c-0.030 0.043-0.063 0.073-0.1 0.092s-0.082 0.029-0.136 0.029c-0.072 0-0.13-0.021-0.175-0.063s-0.067-0.096-0.067-0.163c0-0.081 0.028-0.141 0.084-0.179s0.144-0.057 0.264-0.057h0.131v-0.018c0-0.035-0.014-0.060-0.041-0.076s-0.071-0.025-0.129-0.025c-0.048 0-0.092 0.005-0.133 0.014s-0.078 0.024-0.114 0.043v-0.169c0.047-0.011 0.095-0.020 0.143-0.026s0.096-0.009 0.144-0.009c0.125 0 0.215 0.025 0.271 0.074s0.084 0.129 0.084 0.24z"></path>
<path d="M10.96 28.577v0.422h-0.223v-0.323c0-0.060-0.001-0.101-0.004-0.124s-0.007-0.040-0.014-0.051c-0.009-0.014-0.021-0.025-0.036-0.034s-0.032-0.012-0.051-0.012c-0.046 0-0.083 0.018-0.109 0.054s-0.039 0.085-0.039 0.148v0.341h-0.221v-0.694h0.221v0.101c0.034-0.040 0.069-0.070 0.106-0.089s0.079-0.029 0.125-0.029c0.080 0 0.141 0.025 0.182 0.074s0.062 0.121 0.062 0.214z"></path>
<path d="M11.616 28.075h0.239v0.337l0.344-0.337h0.276l-0.445 0.438 0.491 0.486h-0.299l-0.367-0.364v0.364h-0.239z"></path>
<path d="M13.286 28.577v0.422h-0.223v-0.322c0-0.060-0.001-0.102-0.004-0.124s-0.007-0.040-0.014-0.051c-0.009-0.014-0.021-0.025-0.036-0.034s-0.032-0.012-0.051-0.012c-0.046 0-0.083 0.018-0.109 0.054s-0.039 0.085-0.039 0.148v0.341h-0.221v-0.964h0.221v0.371c0.034-0.040 0.069-0.070 0.106-0.089s0.079-0.029 0.125-0.029c0.080 0 0.141 0.025 0.182 0.074s0.062 0.121 0.062 0.214z"></path>
<path d="M13.821 28.448c-0.049 0-0.086 0.018-0.112 0.053s-0.039 0.086-0.039 0.153c0 0.066 0.013 0.117 0.039 0.152s0.063 0.053 0.112 0.053c0.048 0 0.085-0.017 0.111-0.053s0.039-0.086 0.039-0.152c0-0.067-0.013-0.117-0.039-0.153s-0.063-0.053-0.111-0.053zM13.821 28.289c0.119 0 0.212 0.032 0.279 0.096s0.101 0.154 0.101 0.268c0 0.114-0.034 0.203-0.101 0.267s-0.16 0.096-0.279 0.096c-0.12 0-0.213-0.032-0.281-0.096s-0.101-0.153-0.101-0.267c0-0.114 0.034-0.204 0.101-0.268s0.161-0.096 0.281-0.096z"></path>
<path d="M14.692 28.448c-0.049 0-0.086 0.018-0.112 0.053s-0.039 0.086-0.039 0.153c0 0.066 0.013 0.117 0.039 0.152s0.063 0.053 0.112 0.053c0.048 0 0.085-0.017 0.111-0.053s0.039-0.086 0.039-0.152c0-0.067-0.013-0.117-0.039-0.153s-0.063-0.053-0.111-0.053zM14.692 28.289c0.119 0 0.212 0.032 0.279 0.096s0.101 0.154 0.101 0.268c0 0.114-0.034 0.203-0.101 0.267s-0.16 0.096-0.279 0.096c-0.12 0-0.213-0.032-0.281-0.096s-0.101-0.153-0.101-0.267c0-0.114 0.034-0.204 0.101-0.268s0.161-0.096 0.281-0.096z"></path>
<path d="M15.93 28.577v0.422h-0.223v-0.323c0-0.060-0.001-0.101-0.004-0.124s-0.007-0.040-0.014-0.051c-0.009-0.014-0.021-0.025-0.036-0.034s-0.032-0.012-0.051-0.012c-0.046 0-0.083 0.018-0.109 0.054s-0.039 0.085-0.039 0.148v0.341h-0.221v-0.694h0.221v0.101c0.034-0.040 0.069-0.070 0.106-0.089s0.079-0.029 0.125-0.029c0.080 0 0.141 0.025 0.182 0.074s0.062 0.121 0.062 0.214z"></path>
<path d="M16.587 28.075h0.239v0.744h0.419v0.18h-0.657z"></path>
<path d="M17.695 28.687c-0.046 0-0.081 0.008-0.104 0.024s-0.035 0.039-0.035 0.069c0 0.028 0.009 0.050 0.028 0.066s0.045 0.024 0.079 0.024c0.042 0 0.077-0.015 0.105-0.045s0.043-0.067 0.043-0.112v-0.026zM18.034 28.603v0.396h-0.224v-0.103c-0.030 0.043-0.063 0.073-0.1 0.092s-0.082 0.029-0.136 0.029c-0.072 0-0.13-0.021-0.175-0.063s-0.067-0.096-0.067-0.163c0-0.081 0.028-0.141 0.084-0.179s0.144-0.057 0.264-0.057h0.131v-0.018c0-0.035-0.014-0.060-0.041-0.076s-0.071-0.025-0.129-0.025c-0.048 0-0.092 0.005-0.133 0.014s-0.078 0.024-0.114 0.043v-0.169c0.047-0.011 0.095-0.020 0.143-0.026s0.096-0.009 0.144-0.009c0.125 0 0.215 0.025 0.271 0.074s0.084 0.129 0.084 0.24z"></path>
<path d="M18.149 28.306h0.221l0.186 0.471 0.159-0.471h0.221l-0.291 0.759c-0.030 0.077-0.064 0.131-0.103 0.161s-0.091 0.046-0.154 0.046h-0.128v-0.146h0.069c0.038 0 0.065-0.006 0.082-0.018s0.030-0.033 0.039-0.064l0.006-0.019z"></path>
<path d="M0.563 29.303v0.146h-0.123c-0.031 0-0.053 0.006-0.066 0.017s-0.019 0.031-0.019 0.059v0.048h0.19v0.159h-0.19v0.535h-0.221v-0.535h-0.11v-0.159h0.11v-0.048c0-0.076 0.021-0.132 0.063-0.168s0.108-0.054 0.196-0.054z"></path>
<path d="M1.173 29.762c-0.020-0.009-0.039-0.016-0.058-0.020s-0.038-0.007-0.058-0.007c-0.057 0-0.101 0.018-0.132 0.055s-0.046 0.089-0.046 0.157v0.319h-0.221v-0.694h0.221v0.114c0.029-0.046 0.061-0.079 0.098-0.099s0.082-0.031 0.134-0.031c0.007 0 0.015 0 0.024 0.001s0.022 0.002 0.038 0.004z"></path>
<path d="M1.613 29.715c-0.049 0-0.086 0.018-0.112 0.053s-0.039 0.086-0.039 0.153c0 0.066 0.013 0.117 0.039 0.152s0.063 0.053 0.112 0.053c0.048 0 0.085-0.017 0.111-0.053s0.039-0.086 0.039-0.152c0-0.067-0.013-0.117-0.039-0.153s-0.063-0.053-0.111-0.053zM1.613 29.557c0.119 0 0.212 0.032 0.279 0.096s0.101 0.154 0.101 0.268c0 0.114-0.034 0.203-0.101 0.267s-0.16 0.096-0.279 0.096c-0.12 0-0.213-0.032-0.281-0.096s-0.101-0.153-0.101-0.267c0-0.114 0.034-0.204 0.101-0.268s0.161-0.096 0.281-0.096z"></path>
<path d="M2.797 29.689c0.028-0.043 0.061-0.076 0.1-0.099s0.081-0.034 0.127-0.034c0.079 0 0.14 0.025 0.181 0.074s0.063 0.121 0.063 0.214v0.422h-0.223v-0.361c0-0.005 0.001-0.011 0.001-0.016s0.001-0.014 0.001-0.025c0-0.049-0.007-0.084-0.022-0.106s-0.038-0.034-0.069-0.034c-0.042 0-0.075 0.017-0.098 0.052s-0.035 0.085-0.036 0.15v0.341h-0.223v-0.361c0-0.077-0.007-0.126-0.020-0.148s-0.036-0.034-0.070-0.034c-0.043 0-0.076 0.017-0.099 0.052s-0.034 0.085-0.034 0.149v0.341h-0.223v-0.694h0.223v0.101c0.027-0.039 0.059-0.068 0.094-0.088s0.074-0.030 0.116-0.030c0.048 0 0.090 0.012 0.127 0.035s0.064 0.055 0.084 0.097z"></path>
<path d="M4.158 29.377v0.196h0.229v0.159h-0.229v0.294c0 0.032 0.006 0.054 0.019 0.065s0.038 0.017 0.076 0.017h0.114v0.159h-0.19c-0.088 0-0.15-0.018-0.186-0.054s-0.054-0.099-0.054-0.186v-0.294h-0.111v-0.159h0.111v-0.196z"></path>
<path d="M5.219 29.845v0.422h-0.223v-0.322c0-0.060-0.001-0.102-0.004-0.124s-0.007-0.040-0.014-0.051c-0.009-0.014-0.021-0.025-0.036-0.034s-0.032-0.012-0.051-0.012c-0.046 0-0.083 0.018-0.109 0.054s-0.039 0.085-0.039 0.148v0.341h-0.221v-0.964h0.221v0.371c0.034-0.040 0.069-0.070 0.106-0.089s0.079-0.029 0.125-0.029c0.080 0 0.141 0.025 0.182 0.074s0.062 0.121 0.062 0.214z"></path>
<path d="M6.117 29.918v0.063h-0.518c0.005 0.052 0.024 0.092 0.056 0.118s0.077 0.039 0.135 0.039c0.047 0 0.094-0.007 0.144-0.021s0.099-0.035 0.151-0.063v0.171c-0.053 0.020-0.105 0.035-0.157 0.045s-0.105 0.015-0.157 0.015c-0.126 0-0.223-0.032-0.293-0.096s-0.104-0.153-0.104-0.268c0-0.113 0.034-0.202 0.102-0.267s0.162-0.097 0.282-0.097c0.109 0 0.196 0.033 0.261 0.099s0.099 0.153 0.099 0.263zM5.889 29.845c0-0.042-0.013-0.076-0.037-0.101s-0.056-0.039-0.096-0.039c-0.043 0-0.078 0.012-0.105 0.036s-0.043 0.059-0.050 0.104z"></path>
<path d="M6.736 29.343h0.266l0.336 0.634v-0.634h0.226v0.924h-0.266l-0.336-0.634v0.634h-0.226z"></path>
<path d="M8.117 29.715c-0.049 0-0.086 0.018-0.112 0.053s-0.039 0.086-0.039 0.153c0 0.066 0.013 0.117 0.039 0.152s0.063 0.053 0.112 0.053c0.048 0 0.085-0.017 0.111-0.053s0.039-0.086 0.039-0.152c0-0.067-0.013-0.117-0.039-0.153s-0.063-0.053-0.111-0.053zM8.117 29.557c0.119 0 0.212 0.032 0.279 0.096s0.101 0.154 0.101 0.268c0 0.114-0.034 0.203-0.101 0.267s-0.16 0.096-0.279 0.096c-0.12 0-0.213-0.032-0.281-0.096s-0.101-0.153-0.101-0.267c0-0.114 0.034-0.204 0.101-0.268s0.161-0.096 0.281-0.096z"></path>
<path d="M8.65 29.997v-0.424h0.223v0.069c0 0.038-0 0.085-0.001 0.142s-0.001 0.094-0.001 0.113 0.001 0.096 0.004 0.121c0.003 0.025 0.008 0.043 0.015 0.054 0.009 0.014 0.021 0.026 0.035 0.034s0.032 0.011 0.051 0.011c0.046 0 0.082-0.017 0.109-0.053s0.040-0.085 0.040-0.148v-0.343h0.222v0.694h-0.222v-0.1c-0.033 0.041-0.069 0.070-0.106 0.089s-0.078 0.029-0.123 0.029c-0.080 0-0.141-0.024-0.183-0.074s-0.063-0.12-0.063-0.214z"></path>
<path d="M10.257 29.845v0.422h-0.223v-0.323c0-0.060-0.001-0.101-0.004-0.124s-0.007-0.040-0.014-0.051c-0.009-0.014-0.021-0.025-0.036-0.034s-0.032-0.012-0.051-0.012c-0.046 0-0.083 0.018-0.109 0.054s-0.039 0.085-0.039 0.148v0.341h-0.221v-0.694h0.221v0.101c0.034-0.040 0.069-0.070 0.106-0.089s0.079-0.029 0.125-0.029c0.080 0 0.141 0.025 0.182 0.074s0.062 0.121 0.062 0.214z"></path>
<path d="M10.914 29.343h0.396c0.117 0 0.208 0.026 0.271 0.079s0.094 0.126 0.094 0.223c0 0.097-0.031 0.172-0.094 0.224s-0.153 0.078-0.271 0.078h-0.157v0.321h-0.239zM11.152 29.515v0.258h0.131c0.046 0 0.082-0.011 0.107-0.034s0.038-0.054 0.038-0.096-0.013-0.073-0.038-0.095c-0.025-0.022-0.061-0.034-0.107-0.034z"></path>
<path d="M12.348 29.762c-0.020-0.009-0.039-0.016-0.058-0.020s-0.038-0.007-0.058-0.007c-0.057 0-0.101 0.018-0.132 0.055s-0.046 0.089-0.046 0.157v0.319h-0.221v-0.694h0.221v0.114c0.029-0.046 0.061-0.079 0.098-0.099s0.082-0.031 0.134-0.031c0.007 0 0.015 0 0.024 0.001s0.022 0.002 0.038 0.004z"></path>
<path d="M12.788 29.715c-0.049 0-0.086 0.018-0.112 0.053s-0.039 0.086-0.039 0.153c0 0.066 0.013 0.117 0.039 0.152s0.063 0.053 0.112 0.053c0.048 0 0.085-0.017 0.111-0.053s0.039-0.086 0.039-0.152c0-0.067-0.013-0.117-0.039-0.153s-0.063-0.053-0.111-0.053zM12.788 29.557c0.119 0 0.212 0.032 0.279 0.096s0.101 0.154 0.101 0.268c0 0.114-0.034 0.203-0.101 0.267s-0.16 0.096-0.279 0.096c-0.12 0-0.213-0.032-0.281-0.096s-0.101-0.153-0.101-0.267c0-0.114 0.034-0.204 0.101-0.268s0.161-0.096 0.281-0.096z"></path>
<path d="M13.329 29.573h0.221v0.681c0 0.093-0.023 0.164-0.067 0.212s-0.109 0.074-0.194 0.074h-0.109v-0.146h0.039c0.042 0 0.071-0.010 0.086-0.029s0.024-0.056 0.024-0.111zM13.329 29.303h0.221v0.181h-0.221z"></path>
<path d="M14.456 29.918v0.063h-0.518c0.005 0.052 0.024 0.092 0.056 0.118s0.077 0.039 0.135 0.039c0.047 0 0.094-0.007 0.144-0.021s0.099-0.035 0.151-0.063v0.171c-0.053 0.020-0.105 0.035-0.157 0.045s-0.105 0.015-0.157 0.015c-0.126 0-0.223-0.032-0.293-0.096s-0.104-0.153-0.104-0.268c0-0.113 0.034-0.202 0.102-0.267s0.162-0.097 0.282-0.097c0.109 0 0.196 0.033 0.261 0.099s0.099 0.153 0.099 0.263zM14.228 29.845c0-0.042-0.012-0.076-0.037-0.101s-0.056-0.039-0.096-0.039c-0.043 0-0.078 0.012-0.105 0.036s-0.043 0.059-0.050 0.104z"></path>
<path d="M15.183 29.595v0.181c-0.030-0.021-0.060-0.036-0.091-0.046s-0.061-0.015-0.094-0.015c-0.062 0-0.11 0.018-0.144 0.054s-0.051 0.086-0.051 0.151c0 0.065 0.017 0.115 0.051 0.151s0.082 0.054 0.144 0.054c0.035 0 0.068-0.005 0.099-0.015s0.060-0.026 0.086-0.046v0.181c-0.034 0.013-0.069 0.022-0.105 0.029s-0.072 0.010-0.108 0.010c-0.125 0-0.223-0.032-0.294-0.096s-0.106-0.154-0.106-0.268c0-0.115 0.035-0.204 0.106-0.268s0.169-0.096 0.294-0.096c0.037 0 0.072 0.003 0.108 0.010s0.070 0.016 0.105 0.029z"></path>
<path d="M15.617 29.377v0.196h0.229v0.159h-0.229v0.294c0 0.032 0.006 0.054 0.019 0.065s0.038 0.017 0.076 0.017h0.114v0.159h-0.19c-0.088 0-0.15-0.018-0.186-0.054s-0.054-0.099-0.054-0.186v-0.294h-0.111v-0.159h0.111v-0.196z"></path>
</svg>
