<?xml version="1.0" encoding="UTF-8"?>
<svg width="700pt" height="700pt" version="1.1" viewBox="0 0 700 700" xmlns="http://www.w3.org/2000/svg">
 <g>
  <path d="m246.63 81.199c0 25.668 21 46.668 46.664 46.668 25.668 0 46.668-21 46.668-46.668 0-25.664-21-46.664-46.668-46.664-25.664 0-46.664 21-46.664 46.664z"/>
  <path d="m353.96 349.54 13.301 58.332c5.6016 24.734 29.867 40.367 54.602 35.465l95.898-19.133c12.602-2.5664 20.766-14.934 18.199-27.531v-0.93359c-2.5664-12.602-14.934-20.77-27.531-18.199l-91.469 18.664-37.332-189 42 16.336v56c0 12.832 10.5 23.332 23.332 23.332 12.836 0 23.336-10.5 23.336-23.332v-55.301c0-18.902-11.203-35.699-28.469-43.168l-92.867-39.199c-7-2.332-11.664-2.332-18.664-2.332-16.336 0-30.336 9.332-39.668 23.332l-23.336 37.332c-15.633 27.535-45.031 48.535-80.5 54.367-11.43 1.8672-19.832 11.434-19.832 22.867 0 14.234 12.602 25.434 26.602 23.332 40.598-6.5312 76.766-27.301 101.73-56.23l14.004 70-34.535 32.898c-9.332 8.8672-14.469 21-14.469 33.832v131.6c0 12.832 10.5 23.332 23.336 23.332 12.832 0 23.332-10.5 23.332-23.332v-116.67z"/>
  <path d="m173.73 230.8c-6.2891 1.3984-10.254 7.6328-8.8555 13.922 1.3984 6.2891 7.6289 10.254 13.918 8.8555l11.391-2.5312c6.2891-1.3984 10.254-7.6289 8.8555-13.918-1.3984-6.293-7.6289-10.258-13.918-8.8594z"/>
  <path d="m186.67 303.33c-25.773 0-46.668 20.895-46.668 46.668v23.332c0 12.887 10.445 23.336 23.332 23.336h46.668c12.887 0 23.332-10.449 23.332-23.336v-23.332c0-25.773-20.891-46.668-46.664-46.668z"/>
 </g>
</svg>
