<?xml version="1.0" encoding="UTF-8"?>
<svg width="700pt" height="700pt" version="1.1" viewBox="0 0 700 700" xmlns="http://www.w3.org/2000/svg" xmlns:xlink="http://www.w3.org/1999/xlink">
 <defs>
  <symbol id="u" overflow="visible">
   <path d="m18.766-1.125c-0.96875 0.5-1.9805 0.875-3.0312 1.125-1.043 0.25781-2.1367 0.39062-3.2812 0.39062-3.3984 0-6.0898-0.94531-8.0781-2.8438-1.9922-1.9062-2.9844-4.4844-2.9844-7.7344 0-3.2578 0.99219-5.8359 2.9844-7.7344 1.9883-1.9062 4.6797-2.8594 8.0781-2.8594 1.1445 0 2.2383 0.13281 3.2812 0.39062 1.0508 0.25 2.0625 0.625 3.0312 1.125v4.2188c-0.98047-0.65625-1.9453-1.1406-2.8906-1.4531-0.94922-0.3125-1.9492-0.46875-3-0.46875-1.875 0-3.3516 0.60547-4.4219 1.8125-1.0742 1.1992-1.6094 2.8555-1.6094 4.9688 0 2.1055 0.53516 3.7617 1.6094 4.9688 1.0703 1.1992 2.5469 1.7969 4.4219 1.7969 1.0508 0 2.0508-0.14844 3-0.45312 0.94531-0.3125 1.9102-0.80078 2.8906-1.4688z"/>
  </symbol>
  <symbol id="c" overflow="visible">
   <path d="m13.734-11.141c-0.4375-0.19531-0.87109-0.34375-1.2969-0.4375-0.41797-0.10156-0.83984-0.15625-1.2656-0.15625-1.2617 0-2.2305 0.40625-2.9062 1.2188-0.67969 0.80469-1.0156 1.9531-1.0156 3.4531v7.0625h-4.8906v-15.312h4.8906v2.5156c0.625-1 1.3438-1.7266 2.1562-2.1875 0.82031-0.46875 1.8008-0.70312 2.9375-0.70312 0.16406 0 0.34375 0.011719 0.53125 0.03125 0.19531 0.011719 0.47656 0.039062 0.84375 0.078125z"/>
  </symbol>
  <symbol id="a" overflow="visible">
   <path d="m17.641-7.7031v1.4062h-11.453c0.125 1.1484 0.53906 2.0078 1.25 2.5781 0.70703 0.57422 1.7031 0.85938 2.9844 0.85938 1.0312 0 2.082-0.14844 3.1562-0.45312 1.082-0.3125 2.1914-0.77344 3.3281-1.3906v3.7656c-1.1562 0.4375-2.3125 0.76562-3.4688 0.98438-1.1562 0.22656-2.3125 0.34375-3.4688 0.34375-2.7734 0-4.9297-0.70312-6.4688-2.1094-1.5312-1.4062-2.2969-3.3789-2.2969-5.9219 0-2.5 0.75391-4.4609 2.2656-5.8906 1.5078-1.4375 3.582-2.1562 6.2188-2.1562 2.4062 0 4.332 0.73047 5.7812 2.1875 1.4453 1.4492 2.1719 3.3828 2.1719 5.7969zm-5.0312-1.625c0-0.92578-0.27344-1.6719-0.8125-2.2344-0.54297-0.57031-1.25-0.85938-2.125-0.85938-0.94922 0-1.7188 0.26562-2.3125 0.79688s-0.96484 1.2969-1.1094 2.2969z"/>
  </symbol>
  <symbol id="b" overflow="visible">
   <path d="m9.2188-6.8906c-1.0234 0-1.793 0.17188-2.3125 0.51562-0.51172 0.34375-0.76562 0.85547-0.76562 1.5312 0 0.625 0.20703 1.1172 0.625 1.4688 0.41406 0.34375 0.98828 0.51562 1.7188 0.51562 0.92578 0 1.7031-0.32812 2.3281-0.98438 0.63281-0.66406 0.95312-1.4922 0.95312-2.4844v-0.5625zm7.4688-1.8438v8.7344h-4.9219v-2.2656c-0.65625 0.92969-1.3984 1.6055-2.2188 2.0312-0.82422 0.41406-1.8242 0.625-3 0.625-1.5859 0-2.8711-0.45703-3.8594-1.375-0.99219-0.92578-1.4844-2.1289-1.4844-3.6094 0-1.7891 0.61328-3.1016 1.8438-3.9375 1.2383-0.84375 3.1797-1.2656 5.8281-1.2656h2.8906v-0.39062c0-0.76953-0.30859-1.332-0.92188-1.6875-0.61719-0.36328-1.5703-0.54688-2.8594-0.54688-1.0547 0-2.0312 0.10547-2.9375 0.3125-0.89844 0.21094-1.7305 0.52344-2.5 0.9375v-3.7344c1.0391-0.25 2.0859-0.44141 3.1406-0.57812 1.0625-0.13281 2.125-0.20312 3.1875-0.20312 2.7578 0 4.75 0.54688 5.9688 1.6406 1.2266 1.0859 1.8438 2.8555 1.8438 5.3125z"/>
  </symbol>
  <symbol id="d" overflow="visible">
   <path d="m7.7031-19.656v4.3438h5.0469v3.5h-5.0469v6.5c0 0.71094 0.14062 1.1875 0.42188 1.4375s0.83594 0.375 1.6719 0.375h2.5156v3.5h-4.1875c-1.9375 0-3.3125-0.39844-4.125-1.2031-0.80469-0.8125-1.2031-2.1797-1.2031-4.1094v-6.5h-2.4219v-3.5h2.4219v-4.3438z"/>
  </symbol>
  <symbol id="l" overflow="visible">
   <path d="m12.766-13.078v-8.2031h4.9219v21.281h-4.9219v-2.2188c-0.66797 0.90625-1.4062 1.5703-2.2188 1.9844s-1.7578 0.625-2.8281 0.625c-1.8867 0-3.4336-0.75-4.6406-2.25-1.2109-1.5-1.8125-3.4258-1.8125-5.7812 0-2.3633 0.60156-4.2969 1.8125-5.7969 1.207-1.5 2.7539-2.25 4.6406-2.25 1.0625 0 2 0.21484 2.8125 0.64062 0.82031 0.42969 1.5664 1.0859 2.2344 1.9688zm-3.2188 9.9219c1.0391 0 1.8359-0.37891 2.3906-1.1406 0.55078-0.76953 0.82812-1.8828 0.82812-3.3438 0-1.457-0.27734-2.5664-0.82812-3.3281-0.55469-0.76953-1.3516-1.1562-2.3906-1.1562-1.043 0-1.8398 0.38672-2.3906 1.1562-0.55469 0.76172-0.82812 1.8711-0.82812 3.3281 0 1.4609 0.27344 2.5742 0.82812 3.3438 0.55078 0.76172 1.3477 1.1406 2.3906 1.1406z"/>
  </symbol>
  <symbol id="k" overflow="visible">
   <path d="m10.5-3.1562c1.0508 0 1.8516-0.37891 2.4062-1.1406 0.55078-0.76953 0.82812-1.8828 0.82812-3.3438 0-1.457-0.27734-2.5664-0.82812-3.3281-0.55469-0.76953-1.3555-1.1562-2.4062-1.1562-1.0547 0-1.8594 0.38672-2.4219 1.1562-0.55469 0.77344-0.82812 1.8828-0.82812 3.3281 0 1.4492 0.27344 2.5586 0.82812 3.3281 0.5625 0.77344 1.3672 1.1562 2.4219 1.1562zm-3.25-9.9219c0.67578-0.88281 1.4219-1.5391 2.2344-1.9688 0.82031-0.42578 1.7656-0.64062 2.8281-0.64062 1.8945 0 3.4453 0.75 4.6562 2.25 1.207 1.5 1.8125 3.4336 1.8125 5.7969 0 2.3555-0.60547 4.2812-1.8125 5.7812-1.2109 1.5-2.7617 2.25-4.6562 2.25-1.0625 0-2.0078-0.21094-2.8281-0.625-0.8125-0.42578-1.5586-1.0859-2.2344-1.9844v2.2188h-4.8906v-21.281h4.8906z"/>
  </symbol>
  <symbol id="j" overflow="visible">
   <path d="m0.34375-15.312h4.8906l4.125 10.391 3.5-10.391h4.8906l-6.4375 16.766c-0.64844 1.6953-1.4023 2.8828-2.2656 3.5625-0.86719 0.6875-2 1.0312-3.4062 1.0312h-2.8438v-3.2188h1.5312c0.83203 0 1.4375-0.13672 1.8125-0.40625 0.38281-0.26172 0.67969-0.73047 0.89062-1.4062l0.14062-0.42188z"/>
  </symbol>
  <symbol id="g" overflow="visible">
   <path d="m2.5781-20.406h8.7344c2.5938 0 4.582 0.57812 5.9688 1.7344 1.3945 1.1484 2.0938 2.7891 2.0938 4.9219 0 2.1367-0.69922 3.7812-2.0938 4.9375-1.3867 1.1562-3.375 1.7344-5.9688 1.7344h-3.4844v7.0781h-5.25zm5.25 3.8125v5.7031h2.9219c1.0195 0 1.8047-0.25 2.3594-0.75 0.5625-0.5 0.84375-1.2031 0.84375-2.1094 0-0.91406-0.28125-1.6172-0.84375-2.1094-0.55469-0.48828-1.3398-0.73438-2.3594-0.73438z"/>
  </symbol>
  <symbol id="t" overflow="visible">
   <path d="m2.3594-21.281h4.8906v21.281h-4.8906z"/>
  </symbol>
  <symbol id="s" overflow="visible">
   <path d="m2.3594-15.312h4.8906v15.312h-4.8906zm0-5.9688h4.8906v4h-4.8906z"/>
  </symbol>
  <symbol id="f" overflow="visible">
   <path d="m17.75-9.3281v9.3281h-4.9219v-7.1406c0-1.3203-0.03125-2.2344-0.09375-2.7344s-0.16797-0.86719-0.3125-1.1094c-0.1875-0.3125-0.44922-0.55469-0.78125-0.73438-0.32422-0.17578-0.69531-0.26562-1.1094-0.26562-1.0234 0-1.8242 0.39844-2.4062 1.1875-0.58594 0.78125-0.875 1.8711-0.875 3.2656v7.5312h-4.8906v-15.312h4.8906v2.2344c0.73828-0.88281 1.5195-1.5391 2.3438-1.9688 0.83203-0.42578 1.75-0.64062 2.75-0.64062 1.7695 0 3.1133 0.54688 4.0312 1.6406 0.91406 1.0859 1.375 2.6562 1.375 4.7188z"/>
  </symbol>
  <symbol id="r" overflow="visible">
   <path d="m2.5781-20.406h5.25v7.4375l7.5938-7.4375h6.1094l-9.8281 9.6562 10.844 10.75h-6.5938l-8.125-8.0469v8.0469h-5.25z"/>
  </symbol>
  <symbol id="i" overflow="visible">
   <path d="m17.75-9.3281v9.3281h-4.9219v-7.1094c0-1.3438-0.03125-2.2656-0.09375-2.7656s-0.16797-0.86719-0.3125-1.1094c-0.1875-0.3125-0.44922-0.55469-0.78125-0.73438-0.32422-0.17578-0.69531-0.26562-1.1094-0.26562-1.0234 0-1.8242 0.39844-2.4062 1.1875-0.58594 0.78125-0.875 1.8711-0.875 3.2656v7.5312h-4.8906v-21.281h4.8906v8.2031c0.73828-0.88281 1.5195-1.5391 2.3438-1.9688 0.83203-0.42578 1.75-0.64062 2.75-0.64062 1.7695 0 3.1133 0.54688 4.0312 1.6406 0.91406 1.0859 1.375 2.6562 1.375 4.7188z"/>
  </symbol>
  <symbol id="h" overflow="visible">
   <path d="m16.547-12.766c0.61328-0.94531 1.3477-1.6719 2.2031-2.1719 0.85156-0.5 1.7891-0.75 2.8125-0.75 1.7578 0 3.0977 0.54688 4.0156 1.6406 0.92578 1.0859 1.3906 2.6562 1.3906 4.7188v9.3281h-4.9219v-7.9844-0.35938c0.007813-0.13281 0.015625-0.32031 0.015625-0.5625 0-1.082-0.16406-1.8633-0.48438-2.3438-0.3125-0.48828-0.82422-0.73438-1.5312-0.73438-0.92969 0-1.6484 0.38672-2.1562 1.1562-0.51172 0.76172-0.77344 1.8672-0.78125 3.3125v7.5156h-4.9219v-7.9844c0-1.6953-0.14844-2.7852-0.4375-3.2656-0.29297-0.48828-0.8125-0.73438-1.5625-0.73438-0.9375 0-1.6641 0.38672-2.1719 1.1562-0.51172 0.76172-0.76562 1.8594-0.76562 3.2969v7.5312h-4.9219v-15.312h4.9219v2.2344c0.60156-0.86328 1.2891-1.5156 2.0625-1.9531 0.78125-0.4375 1.6406-0.65625 2.5781-0.65625 1.0625 0 2 0.25781 2.8125 0.76562 0.8125 0.51172 1.4258 1.2305 1.8438 2.1562z"/>
  </symbol>
  <symbol id="q" overflow="visible">
   <path d="m12.422-21.281v3.2188h-2.7031c-0.6875 0-1.1719 0.125-1.4531 0.375-0.27344 0.25-0.40625 0.6875-0.40625 1.3125v1.0625h4.1875v3.5h-4.1875v11.812h-4.8906v-11.812h-2.4375v-3.5h2.4375v-1.0625c0-1.6641 0.46094-2.8984 1.3906-3.7031 0.92578-0.80078 2.3672-1.2031 4.3281-1.2031z"/>
  </symbol>
  <symbol id="e" overflow="visible">
   <path d="m9.6406-12.188c-1.0859 0-1.9141 0.39062-2.4844 1.1719-0.57422 0.78125-0.85938 1.9062-0.85938 3.375s0.28516 2.5938 0.85938 3.375c0.57031 0.77344 1.3984 1.1562 2.4844 1.1562 1.0625 0 1.875-0.38281 2.4375-1.1562 0.57031-0.78125 0.85938-1.9062 0.85938-3.375s-0.28906-2.5938-0.85938-3.375c-0.5625-0.78125-1.375-1.1719-2.4375-1.1719zm0-3.5c2.6328 0 4.6914 0.71484 6.1719 2.1406 1.4766 1.418 2.2188 3.3867 2.2188 5.9062 0 2.5117-0.74219 4.4805-2.2188 5.9062-1.4805 1.418-3.5391 2.125-6.1719 2.125-2.6484 0-4.7148-0.70703-6.2031-2.125-1.4922-1.4258-2.2344-3.3945-2.2344-5.9062 0-2.5195 0.74219-4.4883 2.2344-5.9062 1.4883-1.4258 3.5547-2.1406 6.2031-2.1406z"/>
  </symbol>
  <symbol id="p" overflow="visible">
   <path d="m2.5781-20.406h5.875l7.4219 14v-14h4.9844v20.406h-5.875l-7.4219-14v14h-4.9844z"/>
  </symbol>
  <symbol id="o" overflow="visible">
   <path d="m2.1875-5.9688v-9.3438h4.9219v1.5312c0 0.83594-0.007813 1.875-0.015625 3.125-0.011719 1.25-0.015625 2.0859-0.015625 2.5 0 1.2422 0.03125 2.1328 0.09375 2.6719 0.070313 0.54297 0.17969 0.93359 0.32812 1.1719 0.20703 0.32422 0.47266 0.57422 0.79688 0.75 0.32031 0.16797 0.69141 0.25 1.1094 0.25 1.0195 0 1.8203-0.39062 2.4062-1.1719 0.58203-0.78125 0.875-1.8672 0.875-3.2656v-7.5625h4.8906v15.312h-4.8906v-2.2188c-0.74219 0.89844-1.5234 1.5586-2.3438 1.9844-0.82422 0.41406-1.7344 0.625-2.7344 0.625-1.7617 0-3.1055-0.53906-4.0312-1.625-0.92969-1.082-1.3906-2.6602-1.3906-4.7344z"/>
  </symbol>
  <symbol id="n" overflow="visible">
   <path d="m2.3594-15.312h4.8906v15.031c0 2.0508-0.49609 3.6172-1.4844 4.7031-0.98047 1.082-2.4062 1.625-4.2812 1.625h-2.4219v-3.2188h0.85938c0.92578 0 1.5625-0.21094 1.9062-0.625 0.35156-0.41797 0.53125-1.2461 0.53125-2.4844zm0-5.9688h4.8906v4h-4.8906z"/>
  </symbol>
  <symbol id="m" overflow="visible">
   <path d="m14.719-14.828v3.9844c-0.65625-0.45703-1.3242-0.79688-2-1.0156-0.66797-0.21875-1.3594-0.32812-2.0781-0.32812-1.3672 0-2.4336 0.40234-3.2031 1.2031-0.76172 0.79297-1.1406 1.9062-1.1406 3.3438 0 1.4297 0.37891 2.543 1.1406 3.3438 0.76953 0.79297 1.8359 1.1875 3.2031 1.1875 0.75781 0 1.4844-0.10938 2.1719-0.32812 0.6875-0.22656 1.3203-0.56641 1.9062-1.0156v4c-0.76172 0.28125-1.5391 0.48828-2.3281 0.625-0.78125 0.14453-1.5742 0.21875-2.375 0.21875-2.7617 0-4.9219-0.70703-6.4844-2.125-1.5547-1.4141-2.3281-3.3828-2.3281-5.9062 0-2.5312 0.77344-4.5039 2.3281-5.9219 1.5625-1.4141 3.7227-2.125 6.4844-2.125 0.80078 0 1.5938 0.074219 2.375 0.21875 0.78125 0.13672 1.5547 0.35156 2.3281 0.64062z"/>
  </symbol>
 </defs>
 <g>
  <path d="m509.19 244.37c-5.125 0-9.2969-4.1719-9.2969-9.2969s4.1719-9.2969 9.2969-9.2969 9.2969 4.1719 9.2969 9.2969-4.1719 9.2969-9.2969 9.2969zm0-11.199c-1.0547 0-1.9023 0.85156-1.9023 1.9023 0 1.0547 0.85156 1.9023 1.9023 1.9023 1.0547 0 1.9023-0.85156 1.9023-1.9023s-0.85547-1.9023-1.9023-1.9023z"/>
  <path d="m151.52 423.28c-2.418 0-5.2656-0.55859-7.8867-2.5039-4.6602-3.457-6.6406-9.8438-5.8906-18.984 1.707-20.938 21.477-61.488 22.316-63.207 0.67578-1.3828 1.8867-2.4258 3.3594-2.8828 4.1953-1.3086 20.395-13.535 18.703-28.094-2.3398-20.125 12.062-34.789 12.68-35.402 2.1914-2.1914 5.7305-2.1914 7.918 0 2.1836 2.1836 2.1914 5.7188 0.011719 7.9062-0.24219 0.24609-11.176 11.637-9.4883 26.203 2.25 19.375-14.738 34.59-24.031 39.082-3.8789 8.1719-18.969 40.828-20.312 57.309-0.59766 7.3594 1.1992 8.9219 1.4062 9.0781 0.19531 0.14453 0.46484 0.23047 0.75 0.26953l14.633-41.242c0.53906-1.5117 1.6914-2.7148 3.1758-3.3203l56.195-22.727c2.8789-1.1523 6.1328 0.23047 7.293 3.0898 1.1602 2.8672-0.23047 6.1328-3.0898 7.293l-53.859 21.777-14.895 41.988c-0.54297 1.5234-1.7188 2.7422-3.2266 3.3359-0.42969 0.16797-2.7695 1.0312-5.7617 1.0312z"/>
  <path d="m378.68 430.44h-25.465c-3.0898 0-5.6016-2.5078-5.6016-5.6016 0-11.711 11.895-72.156 13.25-79.012 0.59766-3.0352 3.5664-5.0234 6.5859-4.4062 3.0352 0.59766 5.0078 3.543 4.4062 6.5781-3.1484 15.875-10.629 55.176-12.57 71.23h13.691c-0.09375-0.25391-0.21094-0.46875-0.34766-0.63672-0.39844-0.48047-1.3945-0.58203-2.1602-0.58203-1.9609 0-3.7734-1.0234-4.7891-2.6953-1.0117-1.6758-1.082-3.7578-0.17188-5.4922l39.207-75.219c1.4297-2.7422 4.793-3.8125 7.5547-2.375 2.7422 1.4297 3.8086 4.8086 2.3789 7.5547l-36.098 69.25c1.1914 0.78516 2.0938 1.6758 2.7734 2.5039 4.5234 5.5547 3.0352 13.547 2.8516 14.441-0.55078 2.5977-2.8359 4.4609-5.4961 4.4609z"/>
  <path d="m280.1 439.59h-20.535c-1.6953 0-3.3047-0.77344-4.3672-2.1016l-38.613-48.172c-1.4219-1.7734-1.6289-4.2344-0.52734-6.2227 14.438-25.996 0.66016-43.719 0.51953-43.898-33.879-38.543-22.211-79.664-19.102-88.547-1.8047-8.9141-9.6602-51.367-4.3047-89.898 5.9414-42.773 1.5859-71.062-1.3164-77.402-1.0977-2.6875-4.0781-11.184-0.33203-16.871 1.8125-2.7617 4.8203-4.3164 8.4727-4.4023 9.9961 0 16.742 12.402 18.289 15.539 2.0664 3.4961 12.902 25.352 5.7773 89.062-3.2773 29.344 1.8594 42.016 6.7422 47.48 3.6133 4.0391 7.8008 4.8828 10.672 4.8828 1.1914 0 1.9609-0.15234 1.9648-0.15625 0.5-0.10156 1.0859-0.15625 1.5898-0.11719l155.99 10.719c0.73828 0.050781 1.4609 0.24609 2.1211 0.57812 4.8477 2.4297 10.656 3.7109 16.801 3.7109 8.832 0 17.035-2.7109 21.398-7.0781 9.0039-9.0039 35.504-22.773 41.496-25.84l17.809-19.285c1.5586-1.6953 4.0156-2.25 6.1562-1.418 2.1523 0.83984 3.5625 2.9102 3.5625 5.2148v22.398c11.906 4.6406 17.281 14.559 17.527 15.031 2.8633 6.0156 6.2812 12.105 7.4375 13.262 3.2812 2.918 6.6602 8.9023 7.3008 10.074 0.89453 1.6289 0.92578 3.6016 0.078126 5.2539l-6.2031 12.078c-1.2266 3.875-5.5508 9.4297-15.395 9.4297-1.3594 0-2.8711-0.10547-4.543-0.35938-9.207-1.3398-15.656 5.3047-15.719 5.3633-18.16 16.543-12.18 56.527-12.113 56.93 5.7188 37.953 39.328 67.188 46.434 72.984l7.2227 0.33203c5.2148 0.46484 7.9336 3.0117 9.3398 5.0625 3.8008 5.5391 1.9531 12.988 1.5391 14.426-0.6875 2.4062-2.8906 4.0664-5.3867 4.0664h-23.414c-1.3438 0-2.6484-0.48047-3.6641-1.3672l-103.78-89.801c-29.953 11.434-71.641 13.887-101.86 13.887-13.621 0-24.457-0.49219-30.246-0.82812-1.8984 5.1953-6.2891 13.484-16.207 21.066-15.391 11.766-11.676 22.293-11.512 22.742 2.0312 5.7578 8.3594 17.891 14.465 17.891h0.023437c6.8945 0 10.293 2.793 12.023 5.1406 4.4023 5.957 2.0234 14.273 1.7344 15.203-0.71875 2.3477-2.8906 3.957-5.3477 3.957zm-17.848-11.199h12.859c-0.066406-0.55859-0.20312-1.0234-0.41016-1.3047-0.27344-0.37109-1.2227-0.59375-2.4688-0.59375h-0.003906c-16.273 0-24.613-22.598-25.508-25.172-0.19141-0.42969-7.3594-18.305 15.199-35.555 11.711-8.9531 13.238-18.414 13.301-18.809 0.42969-2.9062 3.0234-5.0742 5.9883-4.8203 0.14062 0.011719 14.254 1.0977 33.969 1.0977 30.301 0 72.379-2.4883 100.79-14.324 1.9609-0.82422 4.2188-0.46094 5.8203 0.93359l104.78 90.66h16.238c-0.066406-0.47656-0.17188-0.82812-0.32422-0.97266 0 0-0.20312-0.14453-0.84375-0.20312l-8.7812-0.39062c-1.1367-0.050781-2.2227-0.44922-3.1289-1.1328-1.8359-1.3906-45.023-34.57-52.062-81.262-0.29297-1.8477-6.9766-46.305 15.32-66.59 0.015624-0.050781 10.18-10.742 25.246-8.4766 1.0547 0.15625 2.0117 0.23438 2.8711 0.23438 3.9922 0 4.6875-1.5586 4.7539-1.7344 0.10547-0.49219 0.19141-0.64844 0.42188-1.1016l5.0508-9.8398c-1.1641-1.8477-2.5469-3.8086-3.4766-4.6328-3.2695-2.9062-8.0547-12.555-9.9609-16.57-0.0625-0.085937-4.5469-8.0977-14.449-10.512-2.5039-0.60937-4.2734-2.8633-4.2734-5.4414l-0.003906-12.184-8.7695 9.4961c-0.45312 0.49219-0.99219 0.90234-1.5859 1.1992-8.6055 4.3438-32.484 17.168-39.543 24.219-6.4844 6.4844-17.445 10.359-29.316 10.359-7.4414 0-14.594-1.5195-20.766-4.3906l-154.23-10.586c-0.78516 0.11719-1.9883 0.25391-3.4766 0.25391-4.2227 0-12.312-1.1211-19.023-8.6172-9.3242-10.422-12.527-29.328-9.5273-56.191 6.9648-62.332-4.2227-82-4.3359-82.191-0.085937-0.13281-0.20703-0.35938-0.27344-0.5-2.0312-4.1875-5.5-8.4375-7.4414-9.3125 0.039062 1.3984 0.54688 3.7109 1.2617 5.4922 4 8.7422 8.2305 39.375 2.1211 83.371-5.6172 40.438 4.3906 87.137 4.4922 87.602 0.24219 1.1094 0.14062 2.2695-0.29297 3.3203-0.67188 1.6562-16.199 41.363 16.688 78.785 0.90234 1.1133 17.512 22.473 2.4531 53.16z"/>
  <use x="70" y="644" xlink:href="#u"/>
  <use x="90.550781" y="644" xlink:href="#c"/>
  <use x="104.359375" y="644" xlink:href="#a"/>
  <use x="123.347656" y="644" xlink:href="#b"/>
  <use x="142.242188" y="644" xlink:href="#d"/>
  <use x="155.628906" y="644" xlink:href="#a"/>
  <use x="174.617188" y="644" xlink:href="#l"/>
  <use x="204.410156" y="644" xlink:href="#k"/>
  <use x="224.453125" y="644" xlink:href="#j"/>
  <use x="252.453125" y="644" xlink:href="#g"/>
  <use x="272.972656" y="644" xlink:href="#a"/>
  <use x="291.960938" y="644" xlink:href="#t"/>
  <use x="301.5625" y="644" xlink:href="#s"/>
  <use x="311.15625" y="644" xlink:href="#f"/>
  <use x="340.839844" y="644" xlink:href="#r"/>
  <use x="362.539062" y="644" xlink:href="#b"/>
  <use x="381.429688" y="644" xlink:href="#i"/>
  <use x="401.367188" y="644" xlink:href="#c"/>
  <use x="415.171875" y="644" xlink:href="#b"/>
  <use x="434.070312" y="644" xlink:href="#h"/>
  <use x="463.242187" y="644" xlink:href="#b"/>
  <use x="482.140625" y="644" xlink:href="#f"/>
  <use x="70" y="672" xlink:href="#q"/>
  <use x="82.183594" y="672" xlink:href="#c"/>
  <use x="95.992188" y="672" xlink:href="#e"/>
  <use x="115.226562" y="672" xlink:href="#h"/>
  <use x="154.152344" y="672" xlink:href="#d"/>
  <use x="167.535156" y="672" xlink:href="#i"/>
  <use x="187.46875" y="672" xlink:href="#a"/>
  <use x="216.207031" y="672" xlink:href="#p"/>
  <use x="239.640625" y="672" xlink:href="#e"/>
  <use x="258.878906" y="672" xlink:href="#o"/>
  <use x="278.8125" y="672" xlink:href="#f"/>
  <use x="308.492188" y="672" xlink:href="#g"/>
  <use x="329.015625" y="672" xlink:href="#c"/>
  <use x="342.820312" y="672" xlink:href="#e"/>
  <use x="362.058594" y="672" xlink:href="#n"/>
  <use x="371.65625" y="672" xlink:href="#a"/>
  <use x="390.648438" y="672" xlink:href="#m"/>
  <use x="407.242188" y="672" xlink:href="#d"/>
 </g>
</svg>
