<!-- Generated by IcoMoon.io -->
<svg version="1.1" xmlns="http://www.w3.org/2000/svg" width="32" height="32" viewBox="0 0 32 32">
<title>Sugercane</title>
<path d="M24.125 20.563c-0.25-0.25-0.688-0.313-1.063-0.188-2.313 1.063-3.75 1.813-4.25 2.313-0.438 0.438-0.75 1.063-0.813 1.688 0 0.375 0.063 0.813 0.188 1.125l-1.438 1.5v-5.188l2.5-2.563c0.25 0.125 0.563 0.25 0.938 0.25 0.625 0 1.313-0.313 1.875-0.875 0.5-0.438 1.25-1.875 2.313-4.188 0.125-0.375 0.063-0.813-0.25-1.125-0.25-0.25-0.688-0.313-1.063-0.188-2.313 1.063-3.75 1.813-4.25 2.313-0.438 0.438-0.75 1.063-0.813 1.688 0 0.375 0.063 0.813 0.188 1.125l-1.438 1.5v-5.125l2.5-2.5c0.25 0.125 0.563 0.188 0.938 0.188 0.625 0 1.313-0.25 1.875-0.813 0.5-0.5 1.25-1.875 2.313-4.25 0.125-0.375 0.063-0.75-0.25-1.063-0.25-0.313-0.688-0.375-1.063-0.188-2.313 1-3.75 1.813-4.25 2.25-0.438 0.5-0.75 1.063-0.813 1.688 0 0.438 0.063 0.813 0.188 1.188l-1.438 1.438v-4.875c0.875-0.375 1.563-1.313 1.563-2.438 0-0.688-0.5-2.25-1.438-4.625-0.125-0.375-0.5-0.625-0.875-0.625s-0.75 0.25-0.875 0.625c-0.938 2.375-1.438 3.938-1.438 4.625 0 1.125 0.688 2.063 1.563 2.438v4.875l-1.438-1.438c0.125-0.375 0.188-0.75 0.188-1.188-0.063-0.625-0.375-1.188-0.813-1.688-0.5-0.438-1.938-1.25-4.25-2.25-0.375-0.188-0.813-0.125-1.063 0.188-0.313 0.313-0.375 0.688-0.25 1.063 1.063 2.375 1.813 3.75 2.313 4.25 0.563 0.563 1.25 0.813 1.875 0.813 0.375 0 0.688-0.063 0.938-0.188l2.5 2.5v5.125l-1.438-1.5c0.125-0.313 0.188-0.75 0.188-1.125-0.063-0.625-0.375-1.25-0.813-1.688-0.5-0.5-1.938-1.25-4.25-2.313-0.375-0.125-0.813-0.063-1.063 0.188-0.313 0.313-0.375 0.75-0.25 1.125 1.063 2.313 1.813 3.75 2.313 4.188 0.563 0.563 1.25 0.875 1.875 0.875 0.375 0 0.688-0.125 0.938-0.25l2.5 2.563v5.188l-1.438-1.5c0.125-0.313 0.188-0.75 0.188-1.125-0.063-0.625-0.375-1.25-0.813-1.688-0.5-0.5-1.938-1.25-4.25-2.313-0.375-0.125-0.813-0.063-1.063 0.188-0.313 0.313-0.375 0.75-0.25 1.125 1.063 2.313 1.813 3.75 2.313 4.188 0.438 0.5 1.063 0.813 1.688 0.813 0.063 0.063 0.125 0.063 0.188 0.063 0.375 0 0.688-0.063 0.938-0.25l2.5 2.563v1.5h-3.938c-0.375 0-0.688 0.313-0.688 0.688 0 0.438 0.313 0.75 0.688 0.75h7.125c0.438 0 0.75-0.313 0.75-0.75 0-0.375-0.313-0.688-0.75-0.688h-1.688v-1.5l2.5-2.563c0.25 0.188 0.563 0.25 0.938 0.25 0.063 0 0.125 0 0.188-0.063 0.625 0 1.25-0.313 1.688-0.813 0.5-0.438 1.25-1.875 2.313-4.188 0.125-0.375 0.063-0.813-0.25-1.125zM19.438 17.25c0.063-0.313 0.188-0.563 0.438-0.813 0 0 0 0 0 0 0.188-0.188 1-0.688 2.625-1.438-0.75 1.625-1.25 2.438-1.438 2.625-0.438 0.438-1.063 0.5-1.438 0.188-0.188-0.188-0.188-0.438-0.188-0.563zM19.438 10.063c0.063-0.25 0.188-0.563 0.438-0.75 0 0 0 0 0 0 0.188-0.25 1-0.688 2.625-1.438-0.75 1.625-1.25 2.375-1.438 2.625-0.438 0.438-1.063 0.5-1.438 0.188-0.188-0.188-0.188-0.438-0.188-0.625zM12.375 10.688c-0.375 0.313-1 0.25-1.438-0.188-0.188-0.25-0.688-1-1.438-2.625 1.625 0.75 2.438 1.188 2.625 1.438 0 0 0 0 0 0 0.25 0.188 0.375 0.5 0.438 0.75 0 0.188 0 0.438-0.188 0.625zM12.375 17.813c-0.375 0.313-1 0.25-1.438-0.188-0.188-0.188-0.688-1-1.438-2.625 1.625 0.75 2.438 1.25 2.625 1.438 0 0 0 0 0 0 0.25 0.25 0.375 0.5 0.438 0.813 0 0.125 0 0.375-0.188 0.563zM12.375 25.063c0 0 0 0 0 0s0 0 0 0c-0.25 0.188-0.5 0.25-0.625 0.188-0.25 0-0.563-0.125-0.813-0.375-0.188-0.188-0.688-1-1.438-2.625 1.625 0.75 2.438 1.25 2.625 1.438 0 0 0 0 0 0 0.25 0.25 0.375 0.5 0.438 0.813 0 0.125 0 0.375-0.188 0.563zM16 6.375c-0.438 0-0.813-0.563-0.813-1.125 0-0.313 0.188-1.188 0.813-2.875 0.625 1.688 0.813 2.563 0.813 2.875 0 0.563-0.375 1.125-0.813 1.125zM21.063 24.875c-0.25 0.25-0.563 0.375-0.813 0.375-0.125 0.063-0.375 0-0.625-0.188-0.188-0.188-0.188-0.438-0.188-0.563 0.063-0.313 0.188-0.563 0.438-0.813 0 0 0 0 0 0 0.188-0.188 1-0.688 2.625-1.438-0.75 1.625-1.25 2.438-1.438 2.625zM20.688 30.563h-0.25c-0.375 0-0.75 0.313-0.75 0.688 0 0.438 0.375 0.75 0.75 0.75h0.25c0.375 0 0.688-0.313 0.688-0.75 0-0.375-0.313-0.688-0.688-0.688z"></path>
</svg>
