<svg xmlns="http://www.w3.org/2000/svg" version="1.1" viewBox="-5.0 -10.0 110.0 135.0">
 <path d="m48.012 48.504c4.7031 3.7148 11.531 2.9062 15.246-1.8008 3.7148-4.7031 2.9062-11.531-1.8008-15.246-4.7031-3.7148-11.531-2.9062-15.246 1.8008-3.707 4.7031-2.9062 11.531 1.8008 15.238z"/>
 <path d="m10.992 56.613 14.18-8.3242 12.172 7.7266-11.148 10.449c2.0625 0.24219 4.4688 0.40625 7.5 0.40625 7.7422 0 11.508-0.98828 15.496-2.0352 3.2812-0.86328 6.6719-1.7383 12.07-2.0859h33.113c2.4414 0 4.4219-1.9844 4.4219-4.4219 0-2.4414-1.9844-4.4219-4.4219-4.4219h-44.09l-22.723-14.246c-1.3555-0.86328-3.082-0.89062-4.4688-0.074218l-16.434 9.6445c-2.043 1.2031-2.7266 3.8281-1.5273 5.8672 1.1953 2.043 3.8281 2.7188 5.8672 1.5273z"/>
 <path d="m98.93 68.727c-8.0156 0-11.914-1.0234-16.035-2.1094-4.0781-1.0703-8.2891-2.1758-16.582-2.1758s-12.504 1.1055-16.582 2.1758c-4.1289 1.082-8.0234 2.1094-16.035 2.1094-8.0156 0-11.914-1.0234-16.035-2.1094-4.0781-1.0703-8.2891-2.1758-16.582-2.1758-0.58984 0-1.0703 0.48047-1.0703 1.0703 0 0.58984 0.48047 1.0703 1.0703 1.0703 8.0156 0 11.914 1.0234 16.035 2.1094 4.0781 1.0703 8.2891 2.1758 16.582 2.1758 8.293 0 12.504-1.1055 16.582-2.1758 4.1289-1.082 8.0234-2.1094 16.035-2.1094 8.0156 0 11.914 1.0234 16.035 2.1094 4.0781 1.0703 8.2891 2.1758 16.582 2.1758 0.58984 0 1.0703-0.48047 1.0703-1.0703s-0.48047-1.0703-1.0703-1.0703z"/>
<text x="0.0" y="117.5" font-size="5.0" font-weight="bold" font-family="Arbeit Regular, Helvetica, Arial-Unicode, Arial, Sans-serif" fill="#000000">Created by &#49457;&#53468; &#52572;</text><text x="0.0" y="122.5" font-size="5.0" font-weight="bold" font-family="Arbeit Regular, Helvetica, Arial-Unicode, Arial, Sans-serif" fill="#000000">from Noun Project</text></svg>