<svg xmlns="http://www.w3.org/2000/svg" version="1.1" viewBox="-5.0 -10.0 110.0 135.0">
 <path d="m89.906 26.113c-0.003906-0.34766-0.011719-0.69531-0.03125-1.0469-0.019531-0.34766-0.050781-0.69922-0.085938-1.0469-0.039062-0.34766-0.085937-0.69531-0.14062-1.0391-0.10938-0.68359-0.25781-1.3672-0.43359-2.0391-0.17969-0.67188-0.39062-1.3359-0.63672-1.9844-0.24219-0.64062-0.51172-1.2734-0.8125-1.8906-0.30078-0.61719-0.63281-1.2188-0.99219-1.8008-0.71875-1.168-1.5469-2.2656-2.4766-3.2656-0.46875-0.50781-0.96484-0.98828-1.4844-1.4453-0.51953-0.45703-1.0625-0.88281-1.625-1.2812-0.57422-0.40625-1.168-0.77734-1.7852-1.1133-0.61719-0.33984-1.25-0.64062-1.8984-0.90625-0.66406-0.26953-1.3398-0.5-2.0312-0.6875-0.30078-0.082031-0.60547-0.15625-0.91016-0.21875-0.19141-0.039062-0.38281-0.074218-0.57422-0.10938-0.74219-0.12109-1.4922-0.17969-2.2422-0.17188-0.35547 0.003906-0.71484 0.019532-1.0703 0.050782-0.33984 0.03125-0.68359 0.070312-1.0234 0.125-0.64062 0.10547-1.2734 0.24609-1.8984 0.41406-0.57031 0.15625-1.1367 0.33984-1.6953 0.53906-0.51172 0.18359-1.0195 0.37891-1.5234 0.58594-0.51562 0.20703-1.0273 0.42188-1.543 0.63281-0.75781 0.30859-1.5039 0.63281-2.25 0.96484-0.83594 0.375-1.668 0.75781-2.5 1.1445-0.67969 0.3125-1.3633 0.625-2.0469 0.92969-0.32812 0.14453-0.66016 0.28906-0.99219 0.42969-0.16406 0.070313-0.32812 0.14063-0.49219 0.20703-0.14063 0.058594-0.27734 0.11328-0.41406 0.16797-0.65625 0.26172-1.3359 0.46875-2.0312 0.60938-0.32031 0.0625-0.64453 0.11328-0.96875 0.14453-0.31641 0.03125-0.63281 0.046875-0.94922 0.046875s-0.63281-0.015625-0.94531-0.046875c-0.32422-0.03125-0.64844-0.082031-0.96875-0.14453-0.69531-0.13672-1.3711-0.34766-2.0312-0.60938-0.14062-0.054687-0.27734-0.11328-0.41406-0.16797-0.16406-0.070313-0.32812-0.13672-0.49219-0.20703-0.33203-0.14062-0.66406-0.28516-0.99219-0.42969-0.68359-0.30469-1.3672-0.61719-2.0469-0.92969-0.83203-0.38281-1.6641-0.76953-2.5-1.1445-0.74609-0.33203-1.4961-0.65625-2.25-0.96484-0.51562-0.21094-1.0273-0.42578-1.543-0.63281-0.50391-0.20312-1.0117-0.40234-1.5234-0.58594-0.57031-0.19922-1.1367-0.37891-1.707-0.53906-0.625-0.17188-1.2578-0.3125-1.8984-0.41016-0.33984-0.054688-0.67969-0.09375-1.0234-0.125-0.35547-0.03125-0.71094-0.046875-1.0703-0.050782-0.75-0.007812-1.5 0.050782-2.2422 0.17188-0.19141 0.03125-0.38281 0.066406-0.57422 0.10547-0.30469 0.0625-0.60938 0.14062-0.91016 0.21875-0.69141 0.1875-1.3711 0.41797-2.0312 0.6875-1.3008 0.52734-2.5391 1.2109-3.6836 2.0195-1.1289 0.79297-2.168 1.7109-3.1094 2.7266-0.92969 1.0039-1.7617 2.1016-2.4766 3.2656-0.71875 1.168-1.3242 2.4062-1.8086 3.6914-0.48828 1.3008-0.84766 2.6523-1.0703 4.0234-0.11328 0.69141-0.1875 1.3867-0.23047 2.0859-0.019532 0.34766-0.03125 0.69531-0.03125 1.0469v0.32812 0.32812c0 0.22266 0.003906 0.44922 0.007812 0.67188 0.023438 0.84766 0.078125 1.6992 0.17188 2.543 0.09375 0.84766 0.21875 1.6875 0.38281 2.5195 0.078124 0.39453 0.16016 0.78516 0.25391 1.1797 0.09375 0.39062 0.19531 0.77734 0.30078 1.1641 0.10547 0.37891 0.21875 0.75 0.33984 1.125 0.12109 0.37109 0.24609 0.74219 0.37891 1.1133 0.50781 1.4102 1.1133 2.7852 1.7812 4.125 1.0039 2.0117 1.9062 4.0742 2.6953 6.1836 0.77344 2.0742 1.4375 4.1914 1.9844 6.3359 0.54688 2.1523 0.98047 4.3281 1.2969 6.5234 0.32422 2.2344 0.52734 4.4883 0.62109 6.7461 0.035157 0.875 0.09375 1.75 0.17578 2.625 0.082032 0.875 0.1875 1.7422 0.3125 2.6133 0.12891 0.87109 0.28125 1.7422 0.46094 2.6055s0.38281 1.7227 0.60938 2.5781c0.23047 0.85938 0.48438 1.7109 0.76953 2.5547 0.28125 0.84375 0.58984 1.6797 0.92188 2.5039 0.33984 0.83203 0.70312 1.6562 1.0938 2.4688 0.19531 0.40625 0.39453 0.80859 0.60547 1.207 0.20703 0.39844 0.42188 0.79297 0.64453 1.1836 0.13672 0.24219 0.27344 0.48047 0.41797 0.71484 0.14453 0.23437 0.29688 0.46484 0.45312 0.69531s0.31641 0.45312 0.48047 0.67578c0.16406 0.22266 0.33594 0.4375 0.50781 0.65234 0.32422 0.40234 0.66406 0.79297 1.0156 1.1719 0.35156 0.37891 0.71875 0.74609 1.0977 1.1016 0.082031 0.078126 0.16797 0.15625 0.25391 0.23047 0.085937 0.078125 0.17188 0.14844 0.26172 0.22266 0.085938 0.070312 0.17578 0.14062 0.26953 0.21094 0.089844 0.066406 0.18359 0.13281 0.27734 0.19531 0.097656 0.070312 0.20312 0.13672 0.30469 0.19531 0.10156 0.0625 0.20703 0.125 0.3125 0.17969 0.22656 0.125 0.46094 0.23437 0.70312 0.33203 0.54688 0.21875 1.1289 0.35938 1.7188 0.40625 0.33984 0.027343 0.68359 0.023437 1.0273-0.011719 0.33594-0.035156 0.67188-0.10156 0.99609-0.19531 0.32031-0.09375 0.62891-0.21875 0.92969-0.37109 0.28125-0.14453 0.55078-0.30859 0.80469-0.5 0.22266-0.16406 0.43359-0.34375 0.62891-0.53516 0.19141-0.1875 0.37109-0.39063 0.53516-0.60156 0.15234-0.19141 0.29297-0.39453 0.42188-0.60547 0.12109-0.19531 0.23047-0.39453 0.33594-0.60156 0.097656-0.19531 0.1875-0.39062 0.26562-0.59375 0.078126-0.19141 0.14844-0.39062 0.21484-0.58594 0.054688-0.16797 0.10547-0.33594 0.15234-0.50391 0.054688-0.19531 0.10938-0.38672 0.16406-0.58594 0.097657-0.36719 0.1875-0.73828 0.26953-1.1055 0.089844-0.39453 0.17578-0.79297 0.26172-1.1875 0.066407-0.30078 0.12891-0.59766 0.19922-0.89844 0.34375-1.4648 0.66797-2.9336 0.98828-4.4023 0.35938-1.6484 0.71484-3.293 1.0898-4.9375 0.32031-1.3984 0.65234-2.793 1.0117-4.1836 0.35156-1.3555 0.73047-2.7031 1.1523-4.0391 0.57812-1.8242 1.3438-3.5156 2.3438-5.1484 0.86328-1.4102 2.9141-1.4102 3.7773 0 1 1.6328 1.7695 3.3203 2.3438 5.1484 0.42188 1.3359 0.80078 2.6836 1.1523 4.0391 0.36328 1.3867 0.69531 2.7852 1.0117 4.1836 0.375 1.6445 0.73047 3.2891 1.0898 4.9375 0.32031 1.4688 0.64453 2.9375 0.98828 4.4023 0.070312 0.29688 0.13672 0.59766 0.19922 0.89844 0.085937 0.39453 0.17188 0.79297 0.26172 1.1875 0.082031 0.37109 0.17187 0.73828 0.26953 1.1055 0.046875 0.18359 0.097656 0.36719 0.15234 0.54688 0.050782 0.18359 0.10547 0.36328 0.16406 0.54297 0.13281 0.40625 0.28906 0.80078 0.48047 1.1797 0.050781 0.10156 0.10547 0.20312 0.16016 0.30469 0.054688 0.10156 0.11328 0.19922 0.17188 0.29688 0.066406 0.10547 0.13281 0.20703 0.20312 0.30859s0.14453 0.19922 0.21875 0.29688c0.16406 0.21094 0.34375 0.41406 0.53516 0.60156 0.19531 0.19141 0.40625 0.37109 0.62891 0.53516 0.25391 0.1875 0.52344 0.35547 0.80469 0.5 0.29688 0.14844 0.60938 0.27344 0.92969 0.37109 0.32422 0.097656 0.65625 0.16406 0.99609 0.19531 0.33984 0.035156 0.68359 0.039062 1.0273 0.011719 0.58984-0.046875 1.168-0.1875 1.7188-0.40625 0.24219-0.097657 0.47656-0.20703 0.70312-0.33203 0.21094-0.11328 0.41797-0.24219 0.61719-0.37891 0.09375-0.0625 0.1875-0.12891 0.27734-0.19531 0.089844-0.070313 0.17969-0.13672 0.26953-0.21094 0.089844-0.070312 0.17578-0.14453 0.26172-0.22266 0.085938-0.078125 0.17188-0.15234 0.25391-0.23047 0.37891-0.35547 0.74219-0.72266 1.0977-1.1016 0.35156-0.37891 0.69141-0.76953 1.0156-1.1719 0.34766-0.42969 0.67578-0.87109 0.98828-1.3281 0.15625-0.22656 0.30469-0.46094 0.44922-0.69531s0.28516-0.47266 0.41797-0.71484c0.22266-0.39063 0.43359-0.78516 0.64062-1.1836 0.20703-0.39844 0.41016-0.80078 0.60547-1.207 0.19531-0.40625 0.38281-0.8125 0.56641-1.2266 0.18359-0.41016 0.35937-0.82422 0.52734-1.2422 0.33594-0.82422 0.64062-1.6602 0.92578-2.5039 0.28125-0.84375 0.53906-1.6953 0.76953-2.5547 0.23047-0.85156 0.42969-1.7109 0.60938-2.5781 0.17969-0.86328 0.33203-1.7344 0.46094-2.6055 0.12891-0.86719 0.23438-1.7383 0.31641-2.6133 0.082032-0.875 0.14063-1.7461 0.17578-2.625 0.09375-2.2578 0.29688-4.5078 0.62109-6.7461 0.31641-2.1953 0.75-4.375 1.2969-6.5234 0.54688-2.1445 1.2109-4.2617 1.9844-6.3359 0.78906-2.1094 1.6914-4.1719 2.6953-6.1836 0.67188-1.3398 1.2734-2.7148 1.7852-4.125 0.26562-0.73438 0.50391-1.4805 0.71875-2.2344 0.21484-0.77344 0.40234-1.5547 0.55859-2.3438 0.32812-1.668 0.51172-3.3633 0.55469-5.0625 0.003906-0.22266 0.007812-0.44922 0.007812-0.67188v-0.32812c0.003906-0.10938 0-0.21875 0-0.32812zm-7.5977 13.102c-4.3477 8.707-6.6602 17.852-7.0625 27.594-0.26562 6.4648-1.8438 12.734-5.082 18.434-0.80859 1.4336-1.918 2.7617-3.1289 3.8906-1.3477 1.2617-2.4023 0.89063-2.957-0.85937-0.39453-1.2617-0.62891-2.5742-0.93359-3.8672-1.3984-5.9766-2.4922-12.051-4.332-17.887-0.68359-2.1719-1.6016-4.1836-2.7891-6.1289-1.2109-1.9805-3.3633-3.1836-5.6836-3.1836-2.3203 0-4.4727 1.207-5.6836 3.1836-1.1875 1.9414-2.1055 3.957-2.7891 6.1289-1.8438 5.8359-2.9336 11.906-4.332 17.887-0.30078 1.293-0.53516 2.6016-0.93359 3.8672-0.55078 1.7461-1.6094 2.1172-2.957 0.85937-1.207-1.1289-2.3164-2.457-3.1289-3.8906-3.2383-5.6992-4.8164-11.973-5.082-18.434-0.40234-9.7422-2.7148-18.887-7.0625-27.594-1.9141-3.8281-3.2188-7.8984-3.1523-12.98-0.007812-7.1328 4.918-13.984 11.707-15.508 3.2773-0.73437 6.1875 0.62891 9.0859 1.8086 2.9062 1.1836 5.707 2.6328 8.6133 3.8164 1.9062 0.77344 3.8086 1.1641 5.707 1.1641 1.8945 0 3.8008-0.39062 5.707-1.1641 2.9102-1.1797 5.7109-2.6289 8.6133-3.8164 2.8984-1.1797 5.8086-2.543 9.0859-1.8086 6.793 1.5273 11.715 8.3789 11.707 15.508 0.082032 5.082-1.2227 9.1523-3.1367 12.98z"/>
<text x="0.0" y="117.5" font-size="5.0" font-weight="bold" font-family="Arbeit Regular, Helvetica, Arial-Unicode, Arial, Sans-serif" fill="#000000">Created by jisangbong</text><text x="0.0" y="122.5" font-size="5.0" font-weight="bold" font-family="Arbeit Regular, Helvetica, Arial-Unicode, Arial, Sans-serif" fill="#000000">from Noun Project</text></svg>