<!-- Generated by IcoMoon.io -->
<svg version="1.1" xmlns="http://www.w3.org/2000/svg" width="32" height="32" viewBox="0 0 32 32">
<title>Tiger</title>
<path d="M2.563 2.813c-0.125 0.125-0.188 0.188-0.125 0.188s0 0.125-0.125 0.25c-0.125 0.125-0.25 0.188-0.313 0.188-0.188-0.125-0.375 0.438-0.313 0.813 0 0.313 0 0.313 0.063-0.063 0-0.188 0.063-0.438 0.125-0.563s0.125-0.063 0.063 0.25c-0.063 0.375 0.125 0.938 0.813 2.875 0.813 2.25 0.875 2.438 0.688 2.75-0.375 0.688-0.563 1.813-1.313 6.438-0.438 2.563-0.75 4.75-0.75 4.813 0 0.125-0.813 0.438-1 0.313-0.063-0.063-0.125 0-0.125 0.063 0.063 0.125 0 0.188-0.063 0.188-0.063-0.063-0.125 0.063-0.125 0.188s0.063 0.25 0.125 0.188c0.063 0 0.125 0.063 0.125 0.125-0.063 0.063 0.125 0.125 0.25 0.125 0.25 0 0.313 0 0.188-0.063s0-0.125 0.25-0.25c0.5-0.188 0.5-0.188 0.5 0.125 0 0.125 0.188 0.625 0.438 1.063l0.438 0.875-0.313 0.313c-0.188 0.188-0.375 0.313-0.438 0.313-0.063-0.063-0.125 0-0.188 0.063-0.063 0.125-0.063 0.125 0.063 0.063s0.125 0 0.063 0.188c-0.063 0.125 0 0.25 0.063 0.313s0.063 0.125 0.063 0.25c-0.063 0.063-0.063 0.063 0.063 0 0.25-0.25 0.438-0.25 0.313-0.063-0.063 0.125 0.063 0 0.25-0.25 0.438-0.438 0.5-0.438 0.938-0.125 0.125 0.188 0.25 0.25 0.188 0.125-0.125-0.188 0-0.125 0.563 0.25 0.75 0.5 2.188 1.125 3.313 1.313 0.75 0.125 0.875 0.188 0.563 0.188-0.438 0.063-0.438 0.063-0.063 0.063 0.188 0.063 0.438 0.188 0.563 0.313 0.125 0.188 0.125 0.125 0.063-0.125-0.125-0.625 0-0.438 0.25 0.25 0.125 0.375 0.188 0.688 0.125 0.75-0.063 0.125-0.063 0.125 0.063 0.063s0.125-0.063 0.063 0.125c0 0.125 0 0.188 0.063 0.125 0.063 0 0.25 0.25 0.5 0.563 0.438 0.688 1.375 1.375 1.938 1.375 0.188 0 0.938-0.188 1.688-0.438 1.25-0.5 1.375-0.5 2.875-0.5s1.625 0 2.875 0.5c1.563 0.5 1.938 0.563 2.563 0.125 0.25-0.188 0.5-0.313 0.5-0.25 0.063 0-0.188 0.188-0.438 0.375-0.313 0.188-0.5 0.313-0.438 0.313 0.375 0 1.438-1 1.875-1.75 0.188-0.313-0.063-0.063-0.375 0.375-0.188 0.25-0.375 0.5-0.438 0.438 0-0.063 0.063-0.188 0.188-0.375 0.188-0.125 0.375-0.375 0.438-0.563 0.063-0.125 0.188-0.25 0.25-0.188s0.063 0 0.063-0.125c-0.063-0.188-0.063-0.188 0.063-0.125s0.125 0.063 0.063-0.063c-0.063-0.063 0-0.375 0.125-0.75 0.188-0.625 0.25-0.625 0.688-0.625 1.063 0 3.188-0.75 4.063-1.438 0.438-0.313 0.625-0.375 0.5-0.188-0.063 0.125 0.063 0.063 0.188-0.125 0.438-0.313 0.5-0.313 0.938 0.125 0.188 0.25 0.313 0.375 0.25 0.25-0.063-0.063 0-0.125 0-0.125 0.063 0 0.188 0.063 0.313 0.125 0.125 0.125 0.125 0.125 0.063 0.063 0-0.125 0-0.188 0.063-0.25s0.125-0.188 0.063-0.313c-0.063-0.188-0.063-0.25 0.063-0.188s0.125 0.063 0.063-0.063c-0.063-0.063-0.125-0.125-0.188-0.063-0.063 0-0.25-0.125-0.438-0.313l-0.313-0.313 0.438-0.875c0.25-0.438 0.438-0.938 0.438-1.063 0-0.313 0-0.313 0.5-0.125 0.25 0.125 0.375 0.188 0.25 0.25s-0.063 0.063 0.188 0.063c0.125 0 0.313-0.063 0.25-0.125 0-0.063 0.063-0.125 0.125-0.125 0.063 0.063 0.125-0.063 0.125-0.188s-0.063-0.25-0.125-0.188c-0.063 0-0.125-0.063-0.063-0.188 0-0.063-0.063-0.125-0.125-0.063s-0.313 0-0.563-0.063c-0.5-0.188-0.375 0.375-1.25-5.5-0.313-2.125-0.75-4.313-0.875-4.875-0.188-0.563-0.313-1.125-0.313-1.188s0.375-1.25 0.875-2.563c0.875-2.375 0.938-2.688 0.875-3.438-0.063-0.375-0.5-0.813-0.813-0.813-0.063 0 0.063 0.125 0.313 0.25 0.5 0.313 0.5 0.375-0.063 0.125-0.5-0.25-1.375-0.438-1.125-0.313 0.125 0.063-0.813 0.5-2.438 1.063l-2.563 1-0.875-0.313c-1.313-0.438-2.625-0.563-6.813-0.563-4.125 0-5.5 0.125-6.75 0.563l-0.875 0.25-2.5-0.938c-2-0.688-2.688-0.875-3-0.813-0.563 0.063-0.375-0.063 0.188-0.188 0.5-0.063 0.5-0.125 0.125-0.125-0.188 0-0.5 0.063-0.625 0.188zM6.313 5.125c0.375 0.188 0.688 0.313 0.625 0.375s-0.438 0.313-0.875 0.625c-0.375 0.313-0.938 0.813-1.125 1.063-0.25 0.313-0.5 0.5-0.563 0.5-0.188-0.188-1.375-3.5-1.313-3.563s0.625 0.063 1.313 0.313c0.625 0.25 1.5 0.563 1.938 0.688zM29.25 4.125c0 0.125-0.313 1.063-0.75 2.063l-0.688 1.938-0.563-0.75c-0.313-0.375-0.938-0.938-1.375-1.25-0.375-0.313-0.75-0.563-0.75-0.625s3.75-1.5 4-1.5c0.063 0 0.125 0.063 0.125 0.125zM15.25 6.188c0.5 1.375 0.563 1.563 0.313 1.188-0.063-0.188-0.188-0.25-0.188-0.188 0 0.125 0.125 0.313 0.25 0.438 0.125 0.188 0.25 0.25 0.188 0.125-0.063-0.063 0-0.125 0.188-0.125s0.25 0.063 0.188 0.125c-0.063 0.125 0.063 0.063 0.188-0.125 0.125-0.125 0.25-0.313 0.25-0.438 0-0.063-0.125 0-0.188 0.188-0.25 0.375-0.188 0.188 0.313-1.188l0.438-1.063h2.688v2.125c0 1.125 0.063 2.188 0.063 2.313 0.25 0.563 0.5 0.063 1.75-3.5 0.313-0.813 0.313-0.813 1.875-0.063 2.5 1.188 4 3.188 4.5 5.875l0.125 1-1.438 0.813c-1.688 1-1.688 1-1.563 0.813s0.063-0.188-0.125 0c-0.063 0.063-0.188 0.25-0.188 0.375s0.063 0.125 0.125-0.063c0.063-0.188 0.125-0.188 0.125-0.063s0.063 0.25 0.125 0.313c0.063 0.063 0.813 0 1.625-0.125s1.563-0.188 1.563-0.188c0.063 0.063 0.938 5.375 0.938 5.625 0 0-0.938 0.063-2 0.063-2.313 0-3.125 0.125-3.125 0.563 0 0.125 0.063 0.25 0.125 0.25s0.125 0.063 0.063 0.125c0 0.063 0.188 0 0.5-0.125 0.375-0.125 1-0.188 2.375-0.188 1.063 0 1.938 0.063 2 0.125 0.125 0.125-0.25 1.313-0.563 1.625l-0.188 0.313-0.875-0.313c-0.5-0.188-1.375-0.438-2-0.625s-1.25-0.313-1.313-0.375c-0.063-0.063-0.125 0-0.125 0.063 0.063 0.125 0 0.188-0.063 0.188-0.063-0.063-0.125 0.063-0.125 0.188s0.063 0.25 0.125 0.188c0.063 0 0.125 0.063 0.125 0.125s0.188 0.125 0.5 0.125 2.875 0.75 3.125 0.938c0.125 0.125-0.875 0.813-1.063 0.688-0.063-0.063-0.125 0-0.125 0.063 0.063 0.188-1.563 0.813-2.5 0.938l-0.625 0.063v-1.125c0.063-0.75 0-1.188-0.125-1.313-0.125-0.188-0.813-0.188-1 0-0.125 0.125-0.125 0.813-0.188 1.938 0 1.813 0 1.813-0.438 2.688-0.25 0.5-0.563 0.938-0.813 1.125l-0.438 0.375-1.375-0.5c-2.563-0.813-3.938-0.813-6.5 0l-1.375 0.5-0.438-0.375c-0.25-0.188-0.563-0.625-0.813-1.125-0.438-0.875-0.438-0.875-0.438-2.688-0.063-1.125-0.063-1.813-0.188-1.938-0.188-0.188-0.875-0.188-1 0-0.125 0.125-0.188 0.563-0.125 1.313v1.188l-0.563-0.125c-1.25-0.188-2.75-0.75-2.625-0.938 0.063-0.125 0.063-0.125-0.063-0.063-0.188 0.125-1.188-0.563-1.063-0.688 0.25-0.188 2.625-0.875 3.125-0.938 0.313 0 0.5-0.063 0.5-0.125s0.063-0.125 0.125-0.125c0.063 0.063 0.125-0.063 0.125-0.188s-0.063-0.25-0.125-0.188c-0.063 0-0.125-0.063-0.063-0.188 0-0.063-0.063-0.125-0.125-0.063s-0.688 0.188-1.313 0.375c-0.625 0.188-1.5 0.438-2 0.625-1 0.375-1 0.375-1.438-0.625-0.438-0.938-0.375-1 0.813-1.125 1.25-0.125 2.75 0 3.438 0.25 0.25 0.063 0.438 0.125 0.438 0.063-0.063-0.063 0-0.125 0.063-0.125s0.125-0.125 0.125-0.25c0-0.438-0.813-0.563-3.125-0.563-1.25 0-2-0.063-2-0.125s0.188-1.375 0.438-2.875c0.25-1.5 0.438-2.75 0.438-2.75 0-0.063 0.063 0 0.125 0 0.5 0.188 3.063 0.438 3.188 0.313 0.063-0.063 0.188-0.125 0.188-0.063 0.063 0.063 0.063 0 0.063-0.125 0-0.063-0.063-0.188-0.125-0.125-0.063 0-0.125-0.063-0.125-0.125 0.063-0.125-0.063-0.25-0.25-0.313-0.25-0.125-0.25-0.125 0 0.063 0.5 0.375 0.063 0.188-1.375-0.688l-1.375-0.813 0.125-1c0.5-2.563 2.063-4.625 4.5-5.813 1.563-0.75 1.563-0.75 1.875 0.063 1.25 3.563 1.5 4.063 1.75 3.5 0-0.125 0.063-1.188 0.063-2.313v-2.125h2.688zM11 13.063c-0.125 0.188-0.063 1.313 0.063 1.438 0.188 0.125 1.313 0.063 1.438-0.063 0.125-0.188 0.063-1.313-0.063-1.438-0.188-0.125-1.313-0.063-1.438 0.063zM19.5 13.063c-0.125 0.188-0.063 1.313 0.063 1.438 0.188 0.125 1.313 0.063 1.438-0.063 0.125-0.188 0.063-1.313-0.063-1.438-0.188-0.125-1.313-0.063-1.438 0.063zM19.188 18.438c0.125 0.125 0.188 0.188 0.125 0.125-0.125-0.063-1.625-0.063-3.438-0.063-3 0-3.313 0-3.25 0.188 0 0.125-0.063 0.313-0.125 0.375-0.125 0.188-0.125 0.25 0.125 0.5 0.125 0.125 0.25 0.188 0.188 0.063-0.063-0.063-0.063-0.125 0-0.125 0 0 0.75 0.438 1.563 1s1.563 1 1.625 1c0.063 0 0.813-0.438 1.625-1s1.563-1 1.563-1c0.063 0 0.063 0.063 0 0.125-0.063 0.125 0.063 0.063 0.188-0.063 0.25-0.25 0.25-0.313 0.125-0.5-0.063-0.125-0.125-0.25-0.063-0.375 0.063-0.188-0.125-0.438-0.375-0.438-0.063 0 0 0.063 0.125 0.188zM15.438 23.875c-0.125 0.125-0.188 0.25-0.188 0.313s0.063 0 0.188-0.188c0.125-0.125 0.25-0.25 0.313-0.25s0 0.125-0.125 0.25c-0.125 0.125-0.25 0.375-0.25 0.563 0 0.438-0.313 1-0.75 1.25s-1.25 0.25-1.75 0c-0.188-0.125-0.438-0.125-0.563-0.125-0.188 0.063-0.188 0.063-0.125-0.063s0-0.063-0.125 0.063c-0.438 0.375-0.313 1.063 0.25 1.313 0.188 0.125 0.125 0.063-0.125-0.188-0.188-0.125-0.313-0.313-0.25-0.375 0-0.063 0.063-0.063 0.063 0.063 0 0.25 1.063 0.688 1.75 0.688 0.75 0 1.375-0.25 1.938-0.813l0.313-0.313 0.375 0.313c0.5 0.563 1.125 0.813 1.875 0.813 0.688 0 1.75-0.438 1.75-0.688 0-0.125 0.063-0.125 0.125-0.063 0 0.063-0.125 0.25-0.313 0.375-0.25 0.25-0.313 0.313-0.125 0.188 0.563-0.25 0.688-0.938 0.25-1.313-0.125-0.125-0.188-0.188-0.125-0.063s0.063 0.125-0.125 0.063c-0.125 0-0.375 0-0.563 0.125s-0.625 0.188-0.938 0.188c-0.5 0-0.625-0.063-1.063-0.5-0.375-0.313-0.5-0.563-0.5-0.875 0-0.188-0.125-0.5-0.25-0.625s-0.188-0.25-0.125-0.25c0.063 0 0.188 0.125 0.313 0.25 0.125 0.188 0.188 0.25 0.188 0.188 0-0.438-1-0.688-1.313-0.313z"></path>
</svg>
