<!-- Generated by IcoMoon.io -->
<svg version="1.1" xmlns="http://www.w3.org/2000/svg" width="32" height="32" viewBox="0 0 32 32">
<title>Tire-print</title>
<path d="M14.688 30.313c-0.563 0.063-1.063 0.063-1.188 0-0.063-0.063 0.125-0.25 0.375-0.438 0.25-0.25 0-0.5-0.125-0.563-0.438-0.438-0.875-0.875-1.25-1.313-0.125-0.125-0.313-0.375-0.813-0.313-0.688 0-1.563 0-1.688-0.063-0.063 0 0.375-0.375 0.875-0.75 0.375-0.313 0.25-0.75 0.125-0.938-0.375-0.625-0.75-1.25-1-1.875-0.063-0.188-0.25-0.438-0.688-0.438-0.688 0-1.438 0.063-1.5 0-0.125-0.063 0.5-0.625 1.063-1.125 0.125-0.063 0.375-0.375 0.25-0.875-0.188-0.75-0.438-1.563-0.563-2.375 0-0.188-0.188-0.563-0.625-0.563-0.625 0-1.188 0-1.313 0-0.063-0.063 0.563-0.625 1.188-1.125 0.188-0.125 0.5-0.188 0.563-0.875 0-0.188-0.063-0.438-0.063-0.625 0-0.625 0.063-1.313 0.125-1.938s-0.313-0.75-0.5-0.688c-0.625 0-1.188 0.063-1.313 0-0.063-0.063 0.813-0.688 1.625-1.188 0.188-0.125 0.5-0.313 0.625-0.875 0.25-0.75 0.438-1.5 0.688-2.188 0.25-0.625-0.25-0.75-0.5-0.75-0.625 0.063-1.188 0.063-1.313 0-0.063 0 1.063-0.688 2.063-1.125 0.25-0.063 0.688-0.313 1.125-0.938 0.313-0.5 0.688-1 1-1.5 0.313-0.438-0.063-0.5-0.25-0.5-0.813 0-1.5 0.063-1.625 0s1.688-0.75 2.75-1c0.25-0.063 0.563-0.188 1-0.5 0.375-0.313 0.688-0.625 1.063-0.875s0.063-0.313-0.063-0.313c-0.938 0-1.688 0.063-1.875 0-0.125-0.063 2.313-0.5 3.25-0.563 0.813-0.5 2.25-0.875 3.188-1.125-0.25 0-0.438 0-0.563 0h-5.313c-0.313 0.063-1.563 0-1.813 0-0.625 0.063-1 0.125-1.625 0.375-0.375 0.125-0.5 0.625-0.25 0.75 0.313 0.125 1.375 0.5 1.25 0.563-0.063 0.063-1.563 0-2.438-0.063-0.375-0.063-0.875-0.063-1.063 0.063-0.563 0.438-0.375 0.313-0.875 0.813-0.25 0.25-0.25 0.688 0 0.813 0.313 0.125 1.625 1 1.438 1.125-0.125 0.063-2 0.188-2.438 0.125-0.5 0-0.75 0-0.875 0.25-0.438 0.625-0.5 0.875-0.875 1.563-0.125 0.313-0.125 0.813 0.063 0.938 0.25 0.125 1.25 0.625 1.938 1.125-0.75-0.063-2.125 0.25-2.438 0.25s-0.563 0-0.625 0.313c-0.313 0.875-0.375 1.188-0.5 2-0.125 0.375 0.063 0.75 0.313 0.875 0.25 0.188 2.313 1.563 2.063 1.563-0.313-0.063-2.125 0.375-2.375 0.375s-0.438 0.25-0.5 0.563c0 0.688 0 0.688 0 1.375 0 0.25 0 0.438 0 0.688 0 0.375 0.313 0.75 0.625 0.875 0.438 0.188 2.5 1.25 2.313 1.313s-2.063 0.313-2.25 0.313c-0.438 0-0.5 0.438-0.438 0.813 0.125 0.875 0.125 1.063 0.375 1.938 0.063 0.25 0.313 0.438 0.563 0.563 0.188 0.063 3.125 1.25 2.938 1.375-0.125 0.063-1.875 0.375-2.188 0.375-0.375 0.063-0.313 0.563-0.125 0.938 0.313 0.75 0.125 0.563 0.563 1.25 0.063 0.125 0.438 0.313 0.563 0.375 0.25 0.063 3.563 1 3.375 1.063-0.125 0.063-1.938 0.188-2.25 0.188s-0.313 0.5-0.125 0.75c0.5 0.563 0.375 0.438 0.938 0.938 0.25 0.25 0.938 0.188 1 0.25 0.688 0.125 3.563 0.5 3.375 0.563-0.125 0.063-1.188 0.188-2.188 0.313-0.375 0-0.063 0.438 0.125 0.563 0.563 0.313 1.188 0.5 1.813 0.625 0 0 0 0 0.063 0 0.188 0 1.5 0.125 1.75 0.125 0.313 0 4.438 0.063 6.438 0.063-1.188-0.375-2.75-0.875-3.813-1.5-0.063-0.063-0.313-0.188-0.625-0.188zM30.063 14.5c0-0.313-0.188-0.625-0.438-0.563-0.063-0.438-0.125-0.875-0.188-1.313 0.25-0.125 0.375-0.438 0.313-0.813-0.125-0.875-0.375-1.75-0.625-2.563-0.063-0.375-0.625-0.5-0.625-0.5s-0.25-0.625-0.375-1c0.188-0.188 0.25-0.625 0.125-0.875-0.375-0.813-0.75-1.5-1.188-2.125-0.125-0.25-0.813-0.25-0.813-0.25-0.063-0.063-0.25-0.313-0.5-0.625 0.063 0 0.063 0 0.063 0 0.125-0.313 0.063-0.75-0.125-0.938-0.5-0.5-1-1-1.563-1.375-0.188-0.188-1.188-0.063-1.188-0.063l-0.188-0.125c0.063-0.313-0.063-0.688-0.313-0.813-0.563-0.25-1.188-0.438-1.813-0.5-0.125-0.063-0.75-0.063-1.25-0.063-0.938 0.313-1.813 0.75-2.688 1.313 0.813 0.125-1 1.375-0.875 0.625-0.563 0.438-1.063 0.875-1.5 1.375 0.75 0.125-0.688 1.938-0.938 1.063-0.625 0.813-1.188 1.688-1.625 2.688 0.688-0.25-0.188 2.125-0.688 1.438-0.375 1-0.688 2.125-0.938 3.25 0.688-0.25 0.375 1.938-0.25 1.625-0.063 0.875-0.125 1.75-0.125 2.688 0 0.188 0 0.438 0 0.625 0.625-0.313 0.938 1.625 0.063 1.688 0.125 1.188 0.375 2.25 0.625 3.313 0.375-0.375 1.375 1.313 0.5 1.563 0.313 0.938 0.75 1.813 1.188 2.625 0.25-0.438 1.5 1.063 0.813 1.188 0.5 0.813 1.125 1.5 1.75 2.125 0.125-0.438 1.375 0.5 0.875 0.75 1.125 0.875 2.313 1.563 3.625 2.063 0.625 0 1.063 0 1.063 0 0.625 0 0.938-0.125 1.188-0.188s0.75-0.813 0.75-0.813c0 0 0.813 0 1 0 0.063 0 0.125 0 0.188-0.063 0.563-0.313 1.063-0.75 1.625-1.188 0.188-0.188 0.25-0.625 0.125-0.938 0.25-0.25 0.313-0.313 0.5-0.563 0 0 0.438 0.063 0.563 0.063 0.063 0 0.188-0.063 0.25-0.188 0.5-0.625 0.938-1.25 1.313-2 0.125-0.25 0.125-0.688-0.063-0.875 0-0.063-0.063 0-0.063-0.063 0.188-0.313 0.313-0.563 0.5-0.938 0 0 0.188 0 0.25 0 0.188 0 0.313-0.125 0.375-0.375 0.313-0.813 0.563-1.625 0.75-2.5 0.125-0.313 0-0.688-0.25-0.813 0.063-0.438 0.125-0.875 0.188-1.313 0 0 0.063 0 0.063 0s0 0 0.063 0c0.188 0 0.375-0.188 0.438-0.5 0.063-0.938 0.125-1.875 0.125-2.75 0-0.5 0-1-0.063-1.5zM20.313 26.188c-3.375 0-6.063-4.563-6.063-10.188s2.688-10.188 6.063-10.188c3.313 0 6.063 4.563 6.063 10.188s-2.75 10.188-6.063 10.188z"></path>
</svg>
