<!-- Generated by IcoMoon.io -->
<svg version="1.1" xmlns="http://www.w3.org/2000/svg" width="26" height="32" viewBox="0 0 26 32">
<title>Toad</title>
<path d="M5.089 17.712c0.264-0.078 0.516-0.198 0.776-0.293 0.239-0.087 0.459-0.052 0.686 0.077 0.271 0.154 0.565 0.266 0.848 0.398 0.036 0.017 0.069 0.045 0.097 0.074 0.122 0.126 0.284 0.138 0.394 0.027 0.115-0.116 0.106-0.338-0.019-0.445-0.156-0.134-0.191-0.287-0.043-0.43 0.185-0.178 0.258-0.411 0.38-0.619 0.3-0.509 0.602-1.017 0.909-1.521 0.051-0.084 0.063-0.146 0.006-0.229-0.115-0.166-0.212-0.346-0.335-0.505-0.249-0.321-0.549-0.588-0.918-0.809 0 0.075 0.002 0.126-0 0.177-0.011 0.265-0.003 0.533-0.038 0.796-0.075 0.57-0.36 0.999-0.913 1.208-0.318 0.12-0.639 0.242-0.969 0.314-0.302 0.066-0.535 0.208-0.757 0.411-0.133 0.121-0.302 0.243-0.472 0.275-0.254 0.049-0.456 0.146-0.642 0.32-0.069 0.064-0.2 0.1-0.296 0.090-0.127-0.014-0.223 0.005-0.296 0.103-0.085 0.115-0.083 0.24-0.004 0.358 0.071 0.106 0.175 0.131 0.296 0.1 0.063-0.016 0.127-0.027 0.218-0.045-0.029 0.045-0.042 0.062-0.052 0.080-0.062 0.113-0.054 0.219 0.048 0.301 0.096 0.077 0.184 0.048 0.27-0.033 0.030-0.028 0.083-0.036 0.127-0.044 0.233-0.045 0.473-0.069 0.7-0.136zM7.19 6.518c-0.447-0.213-0.883-0.253-1.293 0.041-0.392 0.281-0.533 0.68-0.486 1.159 0.684-0.268 1.226-0.727 1.78-1.2zM8.278 7.718c0 0.188-0.153 0.341-0.341 0.341s-0.341-0.153-0.341-0.341c0-0.188 0.153-0.341 0.341-0.341s0.341 0.153 0.341 0.341zM21.837 15.347c-0.186-0.016-0.252-0.091-0.214-0.271 0.025-0.119 0.070-0.234 0.115-0.348 0.092-0.233 0.198-0.46 0.283-0.695 0.361-1.004-0.122-2.109-1.104-2.539-0.483-0.211-0.966-0.423-1.452-0.625-0.113-0.047-0.159-0.108-0.176-0.23-0.126-0.866-0.84-1.444-1.709-1.383-0.099 0.007-0.138-0.023-0.18-0.106-0.423-0.841-1.295-1.435-2.376-1.294-0.089 0.012-0.155-0.002-0.225-0.073-0.486-0.487-1.061-0.687-1.748-0.54-0.634 0.135-1.26 0.107-1.87-0.134-0.038-0.015-0.083-0.018-0.125-0.018-0.437 0.004-0.874 0.007-1.311 0.016-0.117 0.002-0.208-0.022-0.303-0.103-0.784-0.671-1.828-0.659-2.58 0.050-0.26 0.245-0.545 0.441-0.847 0.618-0.46 0.269-0.921 0.535-1.386 0.795-0.277 0.155-0.479 0.377-0.531 0.684-0.053 0.311-0.064 0.633-0.056 0.949 0.004 0.161 0.090 0.321 0.142 0.491 0.146-0.038 0.262-0.078 0.382-0.099 0.177-0.030 0.363-0.088 0.534-0.064 0.844 0.122 1.685 0.262 2.446 0.686 0.344 0.192 0.715 0.233 1.1 0.178 0.094-0.013 0.188-0.026 0.281-0.039-0.065 0.062-0.135 0.098-0.208 0.127-0.556 0.22-1.104 0.176-1.649-0.043-0.462-0.186-0.938-0.321-1.441-0.322-0.208-0-0.422-0.022-0.655 0.089 0.078 0.051 0.124 0.092 0.179 0.116 0.616 0.267 1.233 0.529 1.848 0.796 0.072 0.031 0.145 0.070 0.203 0.123 0.487 0.446 0.987 0.881 1.451 1.349 0.866 0.875 1.604 1.853 2.238 2.907 0.033 0.054 0.036 0.156 0.007 0.213-0.193 0.394-0.472 0.717-0.882 0.889-0.327 0.137-0.666 0.258-1.011 0.338-0.419 0.098-0.852 0.134-1.249 0.32-0.066 0.031-0.149 0.037-0.224 0.035-0.119-0.004-0.216 0.028-0.263 0.14-0.041 0.099-0.018 0.213 0.086 0.242 0.095 0.027 0.242 0.032 0.305-0.023 0.206-0.181 0.445-0.145 0.657-0.176-0.261 0.171-0.529 0.347-0.798 0.52-0.074 0.048-0.149 0.094-0.229 0.13-0.129 0.058-0.188 0.16-0.182 0.291s0.072 0.236 0.21 0.269c0.132 0.032 0.226-0.027 0.294-0.138 0.021-0.035 0.043-0.081 0.076-0.094 0.175-0.071 0.354-0.133 0.531-0.198 0.005 0.012 0.011 0.024 0.016 0.037-0.052 0.025-0.105 0.049-0.157 0.075-0.125 0.061-0.179 0.167-0.168 0.3 0.011 0.126 0.078 0.225 0.208 0.255s0.226-0.025 0.296-0.138c0.026-0.042 0.065-0.085 0.108-0.104 0.253-0.111 0.509-0.217 0.765-0.321 0.082-0.033 0.168-0.056 0.252-0.083 0.011 0.021 0.022 0.042 0.034 0.062-0.098 0.063-0.188 0.149-0.296 0.184-0.116 0.038-0.232 0.072-0.222 0.204 0.006 0.076 0.077 0.177 0.147 0.213 0.114 0.059 0.224 0.010 0.304-0.1 0.031-0.043 0.079-0.084 0.128-0.104 0.33-0.135 0.623-0.325 0.878-0.572 0.324-0.315 0.709-0.522 1.142-0.646 0.245-0.070 0.495-0.131 0.733-0.22 0.292-0.109 0.423-0.324 0.338-0.618-0.070-0.241-0.051-0.467-0.030-0.703 0.074-0.835-0.117-1.618-0.465-2.371-0.017-0.037-0.032-0.076-0.048-0.114 0.058 0.045 0.094 0.098 0.121 0.155 0.341 0.739 0.684 1.478 1.018 2.22 0.046 0.102 0.097 0.157 0.209 0.185 1.756 0.436 3.533 0.551 5.331 0.343 0.203-0.023 0.405-0.057 0.607-0.086-1.258-0.268-2.394-1.681-2.039-3.361-0.032 0.886 0.186 1.641 0.812 2.234 0.638 0.604 1.412 0.708 2.263 0.556-0.184 0.368-0.356 0.716-0.534 1.061-0.020 0.039-0.079 0.068-0.125 0.083-0.319 0.102-0.642 0.195-0.96 0.302-0.068 0.023-0.14 0.079-0.175 0.14-0.176 0.298-0.339 0.604-0.512 0.903-0.029 0.050-0.080 0.097-0.132 0.12-0.114 0.052-0.161 0.142-0.115 0.243 0.028 0.062 0.119 0.125 0.188 0.132 0.105 0.010 0.169-0.071 0.184-0.181 0.022-0.157 0.245-0.359 0.436-0.377-0.052 0.232-0.079 0.462-0.249 0.639-0.094 0.099-0.136 0.22-0.075 0.335 0.041 0.078 0.134 0.153 0.219 0.178 0.128 0.037 0.218-0.052 0.277-0.165 0.014-0.027 0.033-0.054 0.057-0.072 0.227-0.176 0.455-0.349 0.683-0.524 0.121-0.093 0.199-0.077 0.225 0.072 0.018 0.101 0.003 0.215-0.027 0.316-0.036 0.123-0.048 0.245 0.047 0.326 0.067 0.057 0.18 0.092 0.268 0.084 0.122-0.011 0.175-0.12 0.198-0.24 0.011-0.060 0.037-0.12 0.069-0.173 0.485-0.796 0.978-1.587 1.453-2.39 0.117-0.197 0.22-0.425 0.246-0.649 0.043-0.373 0.029-0.754 0.018-1.132-0.007-0.241-0.084-0.297-0.33-0.318zM8.187 8.268c-0.337 0.131-0.761-0.076-0.841-0.432-0.064-0.284 0.11-0.586 0.373-0.692 0.344-0.139 0.781 0.083 0.852 0.446 0.055 0.28-0.122 0.575-0.385 0.677zM11.344 8.435c-0.099 0.099-0.258 0.099-0.357 0s-0.099-0.258 0-0.357c0.099-0.099 0.258-0.099 0.357 0s0.099 0.258 0 0.357zM12.454 10.242c-0.034 0.178-0.202 0.281-0.375 0.23s-0.287-0.236-0.253-0.413 0.202-0.281 0.375-0.23c0.173 0.051 0.287 0.236 0.253 0.413zM13.187 8.957c-0.139-0.227-0.085-0.514 0.122-0.64s0.486-0.044 0.625 0.183 0.085 0.514-0.122 0.64c-0.206 0.126-0.486 0.044-0.625-0.183zM13.995 11.696c-0.23 0-0.416-0.186-0.416-0.416s0.186-0.416 0.416-0.416 0.416 0.186 0.416 0.416c0 0.23-0.186 0.416-0.416 0.416zM15.497 9.083c0.116-0.116 0.303-0.116 0.418 0s0.116 0.303 0 0.418c-0.116 0.116-0.303 0.116-0.418 0s-0.116-0.303 0-0.418zM16.029 11.114c-0.099 0.099-0.258 0.099-0.357 0s-0.099-0.258 0-0.357c0.099-0.099 0.258-0.099 0.357 0s0.099 0.258 0 0.357zM18.425 11.788c-0.034 0.178-0.202 0.281-0.375 0.23s-0.287-0.236-0.253-0.413 0.202-0.281 0.375-0.23 0.287 0.236 0.253 0.413z"></path>
</svg>
