<!-- Generated by IcoMoon.io -->
<svg version="1.1" xmlns="http://www.w3.org/2000/svg" width="32" height="32" viewBox="0 0 32 32">
<title>Tools</title>
<path d="M17.875 22.813c0 0 4.813 4.813 5.125 5.125 1.125 1.125 2.938 1.125 4 0 1.125-1.063 1.125-2.875 0-4-0.313-0.313-5.125-5.125-5.125-5.125zM25.625 11.75l-3.438-0.875-0.875-3.375 4-4c-2.313-0.688-4.875-0.188-6.688 1.625-2.563 2.563-1.75 5.938 0.813 8.5s5.938 3.375 8.5 0.813c1.813-1.813 2.313-4.375 1.625-6.625zM13.313 12.25l-3.688-3.688-1.063-3.25-4.313-2.125-2.125 2.125 2.125 4.313 3.188 1.063 3.75 3.688zM19.063 9.5c-3.563 3.563-13.5 13.438-13.875 13.813-1.25 1.25-1.25 3.313 0 4.563s3.313 1.25 4.563 0c0.375-0.375 10.25-10.313 13.875-13.875zM7.438 26.688c-0.563 0-1.063-0.5-1.063-1.063 0-0.625 0.5-1.063 1.063-1.063 0.625 0 1.125 0.438 1.125 1.063 0 0.563-0.5 1.063-1.125 1.063z"></path>
</svg>
