<!-- Generated by IcoMoon.io -->
<svg version="1.1" xmlns="http://www.w3.org/2000/svg" width="32" height="32" viewBox="0 0 32 32">
<title>Torch</title>
<path d="M17.938 3.25c-0.938 0.938-1.5 2.188-1.563 3.563 0 0.188 0 0.438 0 0.625l8.188 8.188c0.25 0 0.438 0 0.688 0 1.313-0.063 2.563-0.625 3.5-1.563l0.813-0.75-10.813-10.813zM31.813 10.063l-9.875-9.875c-0.25-0.25-0.688-0.25-0.938 0l-1.188 1.188 10.813 10.813 1.188-1.188c0.25-0.25 0.25-0.688 0-0.938zM1.438 23.688c-1.938 1.938-1.938 5 0 6.938 1.875 1.875 5 1.875 6.875 0l14.063-14.063-6.875-6.938zM17.375 14.625c0.438 0.438 0.438 1.188 0 1.625l-2.813 2.813c-0.438 0.438-1.188 0.438-1.625 0s-0.438-1.125 0-1.563l2.875-2.875c0.438-0.438 1.125-0.438 1.563 0z"></path>
</svg>
