<!-- Generated by IcoMoon.io -->
<svg version="1.1" xmlns="http://www.w3.org/2000/svg" width="32" height="32" viewBox="0 0 32 32">
<title>Tortoise</title>
<path d="M16.688 23.875c-1.063 0-2.375-0.688-3.813-2.063l-0.188-0.125c-1.188-1.125-2.375-2.188-2.938-3.938-0.063-0.375-0.188-0.75-0.188-1.063-0.563-0.125-1.125-0.313-1.563-0.563-0.438 0.688-0.5 1.313-0.313 1.938l0.125 0.25c0.25 0.688 0.625 1.625-0.563 2.25-0.813 0.5-1.5 0.563-2.125 0.25-0.813-0.5-1.313-1.75-1.438-3.688-0.063-0.813 0.063-1.625 0.438-2.438-0.313 0.063-0.625 0.063-0.938 0.063s-0.625-0.063-0.938 0h-0.063c-0.375 0-0.938 0.063-1.313-0.438-0.125-0.188-0.188-0.375-0.188-0.563-0.063 0-0.063-0.063-0.063-0.063s0 0 0 0c-0.188-0.063-0.313-0.188-0.375-0.313-0.063-0.25 0-0.5 0.063-0.688-0.125-0.188-0.188-0.375-0.188-0.625 0-0.313 0.25-0.75 0.813-0.875 0.063-0.063 0.125-0.063 0.125-0.125 0.313-0.375 0.688-0.75 1.125-1 0.688-0.313 1.5-0.25 2.125-0.188 0.563 0.063 1 0.25 1.438 0.375 0.625-0.875 1.313-1.438 2-1.875 0.625-0.5 1.188-1.063 1.75-1.625 0.25-0.25 0.5-0.438 0.75-0.688s0.5-0.438 0.75-0.625c0.063-0.063 0.063-0.063 0.063-0.063 1.813-1.188 4.063-1.188 5.938-1.25 2.063 0 4.625 0 6.75 0.813 1.875 0.688 4 2.438 4.875 4 0.188 0.313 0.375 0.688 0.5 1 0.25 0.563 0.5 1.063 0.875 1.5 0.063 0.063 0.125 0.188 0.25 0.313 0.438 0.375 0.875 0.875 0.813 1.375-0.063 0.188-0.188 0.438-0.5 0.563-0.125 0.063-0.25 0.063-0.313 0.063-0.063 0.188-0.063 0.313-0.125 0.5-0.063 0.125-0.125 0.25-0.188 0.375 0 0.063-0.063 0.125-0.063 0.125 0.5 0.625 0.625 1.313 0.75 2 0 0.313 0.063 0.688 0.188 1 0.063 0.188 0.25 0.438 0.375 0.688 0.438 0.625 0.875 1.375 0.625 2.125-0.438 1.188-2.375 1.188-3.125 1-1.25-0.25-1.188-1.313-1.188-2 0-0.188 0-0.375 0-0.5 0-0.875-0.563-1.563-1.125-2.25-0.125 0.125-0.25 0.25-0.375 0.313-1.313 0.938-2.938 1.375-4.563 1.375-0.5 0-1 0-1.438-0.063-0.75-0.063-1.563-0.063-2.313 0-0.25 0-0.5 0-0.75 0.063-0.5 0.063-1.063 0.125-1.625 0.125 0.188 0.125 0.375 0.313 0.625 0.5 0.125 0.063 0.313 0.125 0.5 0.25 0.938 0.563 2.438 1.375 2.563 2.5 0 0.5-0.188 1-0.75 1.375-0.438 0.438-1 0.625-1.563 0.625zM11 12.938c-0.5 1.5-0.875 3.063-0.375 4.563 0.438 1.5 1.5 2.438 2.688 3.5l0.188 0.188c1.813 1.75 3.25 2.188 4.188 1.438 0.313-0.25 0.438-0.5 0.438-0.688-0.063-0.625-1.438-1.375-2.125-1.813-0.188-0.125-0.375-0.188-0.5-0.313-1.063-0.625-1.5-1.563-1.938-2.5-0.25-0.438-0.438-0.875-0.75-1.313-0.063-0.125-0.188-0.313-0.25-0.5-0.063-0.063-0.125-0.125-0.125-0.125-0.125-0.125-0.25-0.313-0.25-0.563-0.5-0.375-0.688-0.875-0.875-1.313-0.063-0.125-0.063-0.25-0.125-0.375-0.063-0.063-0.125-0.125-0.188-0.188zM27.063 16.25c0.625 0.75 1.313 1.625 1.313 2.75 0 0.188 0 0.375 0 0.563 0 0.813 0.063 1.063 0.5 1.188 0.688 0.125 1.938 0 2.125-0.5 0.125-0.313-0.188-0.813-0.5-1.313-0.25-0.313-0.438-0.625-0.5-0.875-0.125-0.438-0.188-0.813-0.25-1.188-0.125-0.625-0.188-1.125-0.563-1.563-0.375 0.125-0.875 0.188-1.313 0.25-0.25 0.188-0.5 0.438-0.813 0.688 0 0 0 0 0 0zM5.125 14.563c-0.438 0.875-0.625 1.688-0.563 2.5 0.063 1.625 0.438 2.625 1 2.938 0.313 0.188 0.75 0.125 1.25-0.188 0.5-0.25 0.438-0.438 0.188-1.25l-0.125-0.188c-0.313-0.938-0.188-1.875 0.375-2.75-0.375-0.5-0.5-1.125-0.563-1.688-0.125 0.063-0.188 0.063-0.313 0.125-0.375 0.25-0.813 0.438-1.25 0.5zM14.688 17.625c0.625 0.188 1.375 0.063 2.125 0 0.313-0.063 0.563-0.063 0.813-0.063 0.813-0.063 1.625-0.063 2.438 0 0.438 0.063 0.938 0.063 1.375 0.063 1.438 0 2.875-0.438 4.063-1.188 0.313-0.25 0.688-0.563 1-0.875 0 0 0 0 0.063-0.063-0.188 0-0.375-0.063-0.563-0.063-0.313-0.125-0.313-0.125-0.5-0.063-0.688 0.25-1.188 0.25-1.875 0.188-0.188 0-0.313 0-0.5-0.063-0.375-0.063-0.5-0.063-0.75 0.125-0.75 0.5-1.313 0.438-2.063 0.25-0.188 0-0.375-0.125-0.563-0.188-0.25-0.063-0.5-0.125-0.75-0.188 0 0 0 0 0 0-0.125 0-0.188 0-0.25 0.063-0.125 0.063-0.25 0.125-0.438 0.188-0.375 0.188-0.75 0.375-1.438 0.25-0.313-0.063-0.625-0.25-0.938-0.438-0.188-0.125-0.438-0.25-0.563-0.25-0.125-0.063-0.375 0.063-0.625 0.188-0.313 0.125-0.625 0.25-1 0.25 0 0 0 0-0.063 0 0.25 0.438 0.5 0.813 0.688 1.188 0.063 0.25 0.188 0.438 0.313 0.688zM8.125 15.188c0 0 0 0 0 0 0.5 0.313 1 0.5 1.375 0.563 0-0.188 0.063-0.438 0.063-0.688-0.5-0.063-1-0.313-1.5-0.625-0.188-0.063-0.313-0.188-0.5-0.25 0.125 0.438 0.25 0.75 0.5 1 0 0 0.063 0 0.063 0zM15.313 14.438c0.063 0 0.063 0 0.125 0 0.313 0 0.625 0.188 0.938 0.375 0.25 0.125 0.5 0.25 0.688 0.313 0.375 0.063 0.563 0 0.875-0.188 0.188-0.063 0.313-0.125 0.563-0.25 0 0 0.063 0 0.063 0 0-0.375-0.063-0.813-0.125-1.188s-0.125-0.75-0.125-1.125c-0.375-0.063-0.688-0.25-0.938-0.375-0.063 0-0.063 0-0.125-0.063-0.188 0.063-0.375 0.125-0.5 0.188-0.5 0.125-1 0.25-1.625 0.125-0.188 0-0.438 0-0.688-0.063-0.375 0-0.75-0.063-1.125-0.125-0.125 0.438-0.188 1.5-0.25 1.938 0 0.25 0 0.438 0 0.625 0 0 0 0.125 0 0.125s0 0.063 0.063 0.063c0 0 0 0 0.063 0 0.063 0.063 0.25 0.063 0.563 0.063v0c0.188 0 0.438-0.125 0.688-0.188 0.313-0.125 0.563-0.25 0.875-0.25zM19.438 14.688c0.188 0.063 0.375 0.125 0.563 0.188s0.375 0.125 0.5 0.125c0.688 0.188 0.938 0.188 1.375-0.125 0.563-0.375 1-0.313 1.438-0.25 0.125 0.063 0.25 0.063 0.438 0.063 0.5 0.063 0.875 0.063 1.375-0.125-0.313-0.875-0.563-2.063-0.625-3-0.125-0.063-0.25-0.125-0.375-0.188-0.063-0.063-0.188-0.125-0.25-0.125-0.5-0.188-0.5-0.188-0.875 0.188-0.125 0.063-0.188 0.188-0.313 0.25-0.688 0.625-1.75 0.313-2.125 0.188-0.125 0.063-0.25 0.125-0.375 0.188-0.313 0.188-0.688 0.313-1 0.438 0.063 0.25 0.063 0.563 0.125 0.875 0.063 0.438 0.125 0.938 0.125 1.313zM26 14.5c0.063 0 0.125 0.063 0.188 0.063 0.313 0.063 0.563 0.125 0.875 0.188 0.438 0 1.563-0.188 2-0.313 0.063-0.063 0.063-0.188 0.125-0.25s0.063-0.125 0.125-0.25c0-0.063 0-0.188 0.063-0.313 0-0.125 0-0.313 0.063-0.438 0.063-0.188 0.25-0.313 0.438-0.313 0.063 0 0.063 0 0.125 0 0 0 0.063 0 0.125 0-0.125-0.125-0.375-0.375-0.5-0.5s-0.25-0.25-0.313-0.375c-0.438-0.5-0.688-1.063-0.938-1.563 0 0.063-0.063 0.063-0.125 0.125-0.25 0.313-0.625 0.625-1.063 0.75-0.5 0.063-0.813-0.125-1-0.25 0 0-0.063 0-0.063-0.063 0 0.063-0.063 0.063-0.188 0.188-0.063 0-0.063 0.063-0.125 0.063-0.125 0.125-0.25 0.313-0.438 0.375 0.063 0.938 0.375 2.063 0.625 2.875zM6.813 13.063c0.625 0 1.188 0.313 1.688 0.625 0.438 0.25 0.875 0.5 1.25 0.5 0.125-0.625 0.313-1.188 0.5-1.813-0.063-0.063-0.125-0.125-0.25-0.25s-0.625-1.063-0.688-1.188c-0.563-0.188-1.813 0.438-1.938 0.438-0.25 0-0.438 0-0.688 0 0 0-0.063 0-0.125 0-0.188 0-0.438-0.063-0.688-0.125l-0.25-0.125c-0.5-0.188-0.938-0.313-1.438-0.375-0.688-0.125-1.25-0.063-1.625 0.125-0.313 0.125-0.563 0.438-0.813 0.75-0.125 0.125-0.188 0.188-0.25 0.313-0.125 0.063-0.188 0.125-0.313 0.125-0.188 0-0.188 0.063-0.188 0.063s0.063 0.063 0.063 0.063c0.063 0 0.125 0 0.125 0 0.063 0.063 0.125 0.063 0.188 0.125v0c0 0.063 0.063 0.125 0.063 0.188 0.063 0 0.063 0.063 0.063 0.125s0 0.125-0.063 0.125c0 0.063 0 0.125-0.063 0.188-0.063 0-0.25 0.313-0.313 0.313 0.188 0 1.063 0 1.125 0 0.25 0 0.313-0.188 0.375 0 0 0.25-0.5 0.563-0.563 0.563-0.125 0-0.438 0.063-0.5 0.063 0.063 0 0.438 0 0.625 0h0.125c0.313-0.063 0.625 0 1 0 0.5 0 1.063 0 1.5-0.125 0.063 0 0.063 0 0.063 0 0.375-0.063 0.75-0.188 1.125-0.438 0.25-0.188 0.563-0.25 0.875-0.25zM10.313 10.813c0.063 0.063 0.063 0.125 0.063 0.188 0.125 0.188 0.188 0.438 0.313 0.563s0.25 0.25 0.438 0.375c0.313 0.188 0.625 0.375 0.813 0.813 0.063 0.125 0.125 0.313 0.188 0.438 0.063 0.063 0.063 0.188 0.125 0.25 0.063-0.688 0.125-1.313 0.313-1.813-0.313-0.25-0.563-0.625-0.75-0.938-0.063-0.125-0.125-0.25-0.25-0.375l-0.125-0.188c-0.063-0.125-0.125-0.25-0.188-0.313-0.063 0.125-0.188 0.188-0.25 0.313-0.188 0.25-0.438 0.5-0.688 0.688zM18.875 11.625c0 0 0 0 0 0 0.188 0.063 0.688-0.25 0.938-0.375 0.188-0.063 0.375-0.188 0.5-0.25 0 0 0 0 0.063 0 0 0 0 0 0 0v0c0.063 0 0.188 0 0.375 0 0.25 0.125 1 0.375 1.375 0.063 0.063-0.125 0.188-0.188 0.25-0.25 0.125-0.188 0.313-0.313 0.438-0.375-0.188-0.438-0.438-0.938-0.625-1.375-0.25-0.438-0.438-0.813-0.625-1.25-0.188-0.063-0.375-0.188-0.688-0.375-0.688-0.375-1.625-0.938-2.75-1.125-0.188 0.125-0.438 0.25-0.688 0.375-0.125 0.125-0.313 0.188-0.438 0.25-0.188 0.125-0.375 0.188-0.5 0.25 0.188 0.75 0.5 1.5 0.75 2.125 0.25 0.563 0.438 1.438 0.5 1.938 0.25 0.125 0.688 0.313 1 0.375 0.063 0 0.063 0 0.125 0zM13.313 11.125c0.313 0.125 0.813 0.188 1.188 0.188 0.25 0.063 0.5 0.063 0.75 0.125 0.438 0.063 0.813-0.063 1.25-0.188 0.125 0 0.25-0.063 0.375-0.125-0.063-0.438-0.25-1.063-0.375-1.438-0.313-0.688-0.625-1.563-0.875-2.313v0c-0.063 0-0.125 0-0.188 0-0.5-0.063-1-0.063-1.438 0-0.125 0-0.25 0-0.313 0-0.188 0.063-0.313 0.063-0.5 0.063-0.375 0.313-0.75 0.938-1.063 1.5-0.063 0.125-0.125 0.25-0.188 0.313 0.063 0.125 0.125 0.25 0.25 0.375l0.125 0.188c0.063 0.125 0.188 0.25 0.25 0.375 0.25 0.375 0.5 0.813 0.75 0.938 0 0 0 0 0 0s0 0 0 0zM24.938 10.813c0 0 0.063 0 0.063 0s0.063 0 0.188-0.125c0.063-0.063 0.125-0.125 0.188-0.188 0.563-0.5 0.938-0.375 1.25-0.188 0.188 0.125 0.25 0.125 0.438 0.125 0.188-0.063 0.375-0.25 0.563-0.5 0.125-0.125 0.25-0.25 0.375-0.313-0.063-0.063-0.063-0.188-0.125-0.25-0.688-1.25-2.313-2.625-3.813-3.375-0.25 0.188-0.625 0.438-0.875 0.688-0.063 0.063-0.188 0.25-0.25 0.375-0.188 0.188-0.313 0.375-0.5 0.563 0.188 0.313 0.313 0.688 0.5 1.063 0.25 0.5 0.5 1.063 0.75 1.563 0.125 0.063 0.313 0.125 0.5 0.188 0.125 0.063 0.25 0.125 0.375 0.188s0.313 0.188 0.375 0.188zM9.125 8.375c-0.313 0.25-0.563 0.5-0.875 0.688-0.625 0.438-1.125 0.813-1.563 1.375 0.063 0 0.125-0.063 0.188-0.063 0.813-0.438 2-1.063 2.938-0.313 0 0 0 0 0.063 0.063 0.125-0.188 0.313-0.375 0.438-0.563 0 0 0 0 0-0.063-0.813-0.063-1.063-0.688-1.188-1.125zM9.813 7.688c0.063 0.125 0.063 0.25 0.125 0.375 0.188 0.5 0.25 0.563 0.5 0.563 0.313 0.063 0.563 0.063 0.75 0.125 0.063-0.063 0.125-0.188 0.188-0.25 0.313-0.5 0.625-1.063 1-1.5-0.313-0.188-0.563-0.375-0.813-0.5-0.063-0.063-0.188-0.125-0.25-0.188-0.188 0.125-0.313 0.25-0.5 0.375-0.25 0.25-0.438 0.438-0.688 0.688-0.125 0.125-0.188 0.188-0.313 0.313zM18.313 5.5c1.25 0.188 2.313 0.813 3 1.188 0.188 0.125 0.375 0.25 0.5 0.313 0.125-0.125 0.313-0.375 0.375-0.5 0.125-0.125 0.25-0.313 0.375-0.438 0.063-0.063 0.25-0.25 0.563-0.438-1.625-0.5-3.5-0.625-5.125-0.625 0.125 0.188 0.188 0.313 0.313 0.5zM13.25 6.5c0.063 0.063 0.125 0.063 0.313 0 0.125 0 0.25 0 0.375 0 0.5-0.063 1.063-0.063 1.563 0 0.125 0 0.25 0 0.313 0s0.063 0 0.063 0c0.188-0.063 0.375-0.125 0.688-0.313 0.125-0.063 0.313-0.188 0.5-0.25 0.125-0.063 0.25-0.125 0.375-0.188-0.25-0.375-0.563-0.625-0.688-0.688-1.75 0-3.313 0.063-4.625 0.75 0.313 0.188 0.563 0.313 0.875 0.563 0.063 0.063 0.125 0.125 0.188 0.125 0 0 0 0 0.063 0zM2.563 12.438c-0.25 0-0.438-0.188-0.438-0.438 0-0.313 0.188-0.375 0.5-0.375 0.25 0 0.438 0 0.438 0.313 0 0.25-0.5 0.5-0.5 0.5z"></path>
</svg>
