<svg xmlns="http://www.w3.org/2000/svg" xmlns:xlink="http://www.w3.org/1999/xlink" version="1.1" x="0px" y="0px" viewBox="0 0 100 125" style="enable-background:new 0 0 100 100;" xml:space="preserve"><style type="text/css">
	.st0{fill:none;stroke:#000000;stroke-width:2;stroke-linecap:round;stroke-linejoin:round;stroke-miterlimit:10;}
	.st1{fill:none;stroke:#000000;stroke-width:2;stroke-linecap:round;stroke-linejoin:round;stroke-dasharray:4,4;}
	.st2{fill:none;stroke:#000000;stroke-width:2;stroke-linecap:round;stroke-linejoin:round;}
	.st3{fill:none;stroke:#000000;stroke-width:2;stroke-linecap:round;stroke-linejoin:round;stroke-dasharray:2.9655,3.954;}
	.st4{fill:none;stroke:#000000;stroke-width:2;stroke-linecap:round;stroke-linejoin:round;stroke-dasharray:2.7633,3.6844;}
	.st5{fill:none;stroke:#000000;stroke-width:2;stroke-miterlimit:10;}
	.st6{fill:none;stroke:#000000;stroke-width:1.8;stroke-linecap:round;stroke-linejoin:round;stroke-miterlimit:10;}
	.st7{stroke:#000000;stroke-width:0.2;stroke-miterlimit:10;}
	.st8{fill:none;stroke:#000000;stroke-width:2;stroke-linecap:round;stroke-linejoin:round;stroke-dasharray:2.9177,3.8902;}
</style><path d="M40.642,53.936c-11.806,0-21.78,11.525-21.78,25.167v9.827c0,0.553,0.448,1,1,1h60.857c0.552,0,1-0.447,1-1v-9.835  c0-13.638-9.971-25.159-21.773-25.159h-0.522v-7.825c4.68-2.956,8.011-8.098,8.775-14.117c0.006-0.027,0.022-0.05,0.027-0.078  c0.004-0.027-0.006-0.052-0.004-0.08c0.097-0.812,0.163-1.633,0.163-2.473c0-10.716-8.119-19.434-18.098-19.434  c-9.979,0-18.098,8.718-18.098,19.434c0,7.138,3.613,13.373,8.968,16.752v7.82H40.642z M79.719,79.095v8.835H68.388v-4.062  c0-0.553-0.448-1-1-1s-1,0.447-1,1v4.062H34.192v-4.062c0-0.553-0.448-1-1-1s-1,0.447-1,1v4.062H20.862v-8.827  c0-11.198,7.61-21.148,16.892-22.895l4.734,12.353h-1.295c-0.552,0-1,0.447-1,1v13.401c0,0.553,0.448,1,1,1h18.882  c0.552,0,1-0.447,1-1V69.561c0-0.553-0.448-1-1-1H58.78l4.681-12.216C72.451,58.413,79.719,68.155,79.719,79.095z M47.936,68v-1.346  h5.395V68H47.936z M59.074,70.561v11.401H42.192V70.561H59.074z M61.446,56.016l-4.807,12.544h-1.307v-2.906c0-0.553-0.448-1-1-1  h-7.395c-0.552,0-1,0.447-1,1v2.906h-1.307l-4.828-12.598c0.279-0.015,0.56-0.027,0.841-0.027h1.378l0.473,0.294  c2.409,1.495,5.106,2.242,7.803,2.242c2.722,0,5.443-0.761,7.867-2.283l0.403-0.253h1.38C60.449,55.936,60.949,55.968,61.446,56.016  z M66.385,29.363c0,0.402-0.031,0.796-0.056,1.191c-5.482-1.497-9.348-7.832-9.389-7.9c-0.021-0.034-0.054-0.054-0.078-0.085  c1.816-1.599,3.438-3.456,4.727-5.602C64.546,20.13,66.385,24.517,66.385,29.363z M50.287,11.93c3.694,0,7.091,1.369,9.811,3.643  c-6.245,10.945-22.62,14.054-25.873,14.571c-0.011-0.261-0.036-0.517-0.036-0.78C34.189,19.75,41.411,11.93,50.287,11.93z   M34.413,32.141c2.457-0.363,12.963-2.221,20.907-8.304c0.681,1.085,4.791,7.254,10.783,8.714  c-1.389,8.094-7.945,14.246-15.815,14.246C42.286,46.798,35.648,40.436,34.413,32.141z M50.287,48.798  c2.534,0,4.945-0.567,7.137-1.581v7.074l-0.325,0.204c-4.173,2.62-9.366,2.634-13.552,0.035l-0.391-0.242V47.22  C45.346,48.232,47.756,48.798,50.287,48.798z"/><path d="M50.633,80.896c2.442,0,4.43-1.987,4.43-4.43s-1.987-4.43-4.43-4.43s-4.43,1.987-4.43,4.43S48.191,80.896,50.633,80.896z   M50.633,74.036c1.34,0,2.43,1.09,2.43,2.43s-1.09,2.43-2.43,2.43s-2.43-1.09-2.43-2.43S49.293,74.036,50.633,74.036z"/><text x="0" y="115" fill="#000000" font-size="5px" font-weight="bold" font-family="'Helvetica Neue', Helvetica, Arial-Unicode, Arial, Sans-serif">Created by Made</text><text x="0" y="120" fill="#000000" font-size="5px" font-weight="bold" font-family="'Helvetica Neue', Helvetica, Arial-Unicode, Arial, Sans-serif">from the Noun Project</text></svg>