<!-- Generated by IcoMoon.io -->
<svg version="1.1" xmlns="http://www.w3.org/2000/svg" width="32" height="32" viewBox="0 0 32 32">
<title>Traffic-signs</title>
<path d="M13.625-0.375c0.438 0 0.625 0.188 0.625 0.625 0 0 0 27.5 0 27.5 0 0.438-0.188 0.625-0.625 0.625 0 0-1.438 0-1.438 0-0.438 0-0.688-0.188-0.688-0.625 0 0 0-14.063 0-14.063s-5.625 0-5.625 0c-0.313 0-0.625-0.063-0.875-0.188-0.25-0.063-0.563-0.188-0.813-0.375 0 0-3.875-2.625-3.875-2.625-0.188-0.125-0.313-0.313-0.313-0.563 0-0.188 0.125-0.375 0.313-0.5 0 0 3.875-2.625 3.875-2.625 0.25-0.188 0.563-0.313 0.813-0.375 0.188-0.063 0.438-0.125 0.875-0.125 0 0 5.625 0 5.625 0s0-6.063 0-6.063c0-0.438 0.25-0.625 0.688-0.625 0 0 1.438 0 1.438 0M31.688 6.25c0.188 0.125 0.313 0.313 0.313 0.5 0 0.25-0.125 0.375-0.313 0.5 0 0-3.813 2.625-3.813 2.625-0.438 0.313-0.688 0.438-0.813 0.438-0.313 0.125-0.563 0.188-0.875 0.188 0 0-9.688 0-9.688 0s-1.25-7.375-1.25-7.375c0 0 10.938 0 10.938 0 0.375 0 0.688 0.063 0.875 0.125 0.25 0.063 0.5 0.188 0.813 0.375 0 0 3.813 2.625 3.813 2.625"></path>
</svg>
