<!-- Generated by IcoMoon.io -->
<svg version="1.1" xmlns="http://www.w3.org/2000/svg" width="32" height="32" viewBox="0 0 32 32">
<title>Transect</title>
<path d="M25.313 4h-5.563c-0.563-1.563-2-2.688-3.75-2.688s-3.188 1.125-3.75 2.688h-5.563c-1.5 0-2.688 1.188-2.688 2.688v18.625c0 1.5 1.188 2.688 2.688 2.688h18.625c1.5 0 2.688-1.188 2.688-2.688v-18.625c0-1.5-1.188-2.688-2.688-2.688zM16 4c0.75 0 1.313 0.625 1.313 1.313 0 0.75-0.563 1.375-1.313 1.375s-1.313-0.625-1.313-1.375c0-0.688 0.563-1.313 1.313-1.313zM18.688 22.688h-9.375v-2.688h9.375zM22.688 17.313h-13.375v-2.625h13.375zM22.688 12h-13.375v-2.688h13.375z"></path>
</svg>
