<!-- Generated by IcoMoon.io -->
<svg version="1.1" xmlns="http://www.w3.org/2000/svg" width="32" height="32" viewBox="0 0 32 32">
<title>Tree</title>
<path d="M27.938 8.375c0.063-0.125 0.063-0.25 0.063-0.375 0-3.125-2.438-5.688-5.5-5.938-1.125-1.25-2.688-2.063-4.5-2.063-2.125 0-4 1.125-5.063 2.813-0.875-0.5-1.875-0.813-2.938-0.813-3.313 0-6 2.688-6 6 0 0.125 0 0.25 0.063 0.375-2.375 0.813-4.063 3-4.063 5.625 0 3.313 2.688 6 6 6 1.125 0 2.125-0.313 3-0.813 0.875 0.5 1.875 0.813 3 0.813 0.688 0 1.375-0.125 2-0.375v10.375h-2v2h8v-2h-2v-10c0.375 0 0.688-0.063 1-0.125 0.313 0.063 0.625 0.125 1 0.125 1.125 0 2.125-0.313 3-0.813 0.875 0.5 1.875 0.813 3 0.813 3.313 0 6-2.688 6-6 0-2.625-1.688-4.813-4.063-5.625"></path>
</svg>
