<!-- Generated by IcoMoon.io -->
<svg version="1.1" xmlns="http://www.w3.org/2000/svg" width="32" height="32" viewBox="0 0 32 32">
<title>Trespassing</title>
<path d="M15.563 6.313c0 1.25-1 2.313-2.25 2.313-1.313 0-2.313-1.063-2.313-2.313s1-2.25 2.313-2.25c1.25 0 2.25 1 2.25 2.25zM26.625 27.063l-6.688-11.625c0.125-0.125 0.188-0.313 0.188-0.563 0-0.375-0.25-0.75-0.625-0.875l-1.938-1.125-2.938-2.938c-0.375-0.5-1.063-0.813-1.75-0.813s-1.25 0.25-1.688 0.688l-3.375 3.438c-0.063 0-0.063 0.063-0.063 0.188v3.875c0 0.5 0.375 0.938 0.938 0.938 0.5 0 0.938-0.438 0.938-0.938v-3.25l1.188-1.125v6l-2.25 3.875-2.813 2.813c-0.25 0.25-0.438 0.625-0.438 1 0 0.75 0.625 1.313 1.375 1.313 0.375 0 0.75-0.188 1-0.5l3.063-3.063 2.625-4.5 2.25 2.313 2.938 5.063c0.25 0.438 0.688 0.688 1.188 0.688 0.75 0 1.313-0.563 1.313-1.313 0-0.313-0.063-0.563-0.25-0.813l-3.063-5.313-2.75-2.75v-4.75l1.375 1.438h0.063l2.188 1.25c0 0 0 0 0 0.063h0.063c0.125 0.063 0.25 0.125 0.438 0.125 0.063 0 0.125 0 0.188 0l6.688 11.5c0 0 0 0 0 0.063 0.063 0.063 0.188 0.188 0.313 0.188 0.188 0 0.375-0.188 0.375-0.375 0-0.063-0.063-0.125-0.063-0.188z"></path>
</svg>
