<!-- Generated by IcoMoon.io -->
<svg version="1.1" xmlns="http://www.w3.org/2000/svg" width="32" height="32" viewBox="0 0 32 32">
<title>Truck</title>
<path d="M8 20c-2.188 0-4 1.813-4 4s1.813 4 4 4c2.188 0 4-1.813 4-4s-1.813-4-4-4M26 20c-2.188 0-4 1.813-4 4s1.813 4 4 4c2.188 0 4-1.813 4-4s-1.813-4-4-4M31 0h-20c-0.563 0-1 0.438-1 1v3h-5c-0.563 0-1.188 0.375-1.438 0.875l-3.125 6.25c-0.25 0.5-0.438 1.313-0.438 1.875v6c0 0.563 0.313 1.313 0.688 1.688l0.625 0.625c0.25 0.25 0.688 0.438 1.063 0.563 0.875-2.25 3.063-3.875 5.625-3.875 2.625 0 4.813 1.688 5.625 4h6.75c0.813-2.313 3-4 5.625-4 2.5 0 4.688 1.563 5.563 3.813 0.25-0.188 0.438-0.5 0.438-0.813v-20c0-0.563-0.438-1-1-1M10 12h-6l2-6h4z"></path>
</svg>
