<!-- Generated by IcoMoon.io -->
<svg version="1.1" xmlns="http://www.w3.org/2000/svg" width="32" height="32" viewBox="0 0 32 32">
<title>Turtle</title>
<path d="M26.75 6.75c1.125-1.063 2.125-3.438 1.063-4.5-0.5-0.438-1.313-0.563-2.375-0.25-0.813 0.188-1.625 0.688-2.188 1.25 0 0 0 0 0 0.063 0.75 0.375 1.438 0.875 2 1.5 0.563 0.563 1.063 1.25 1.5 1.938zM9.875 1.375c1.688 0 4.375 0.375 4.938 1 0 0 0 0 0 0.063 1.5-0.438 2.938-0.5 4.125-0.438 0-0.688-0.063-1.313-0.25-1.625-0.188-0.438-0.813-1.188-1.313-1.438-1.813-0.875-5.688-0.375-7.813 1.625-0.188 0.125-0.188 0.375-0.188 0.563 0.125 0.125 0.313 0.25 0.5 0.25zM4.313 13.938c-1.625 0.188-3.75 0.75-3.813 2.063-0.063 1.188 1.813 2.063 4 2.5-0.375-1.563-0.375-3.25-0.188-4.563zM11.5 25.5c0.438 2.125 1.25 4 2.438 4h0.063c1.313-0.063 1.875-2.188 2.063-3.813-1.5 0.188-3.063 0.188-4.563-0.188zM9.938 12.75l-4-1.063c-1.438 3.688-1 7.625 1.375 10.25l4-3.938zM14 8l-1.063-3.875c-2.938 1.313-5.313 3.875-6.625 6.625l3.875 1.063zM12 18.625l-3.938 4c2.75 2.5 6.75 2.75 10.25 1.438l-1.063-4.063zM10.938 12.5l1.375 5.188 5.188 1.375 3.813-3.813-1.375-5.188-5.188-1.375zM13.938 3.75l1.063 4 5.188 1.375 4-3.938c-2.688-2.438-6.625-2.875-10.25-1.438zM18.188 19.75l1 3.875c3-1.313 5.375-3.813 6.688-6.625l-3.875-1.063zM20.875 9.813l1.438 5.25 4 1.063c1.375-3.5 1.063-7.5-1.375-10.25zM31.125 12.625c-0.25-0.563-1-1.188-1.438-1.313-0.375-0.188-0.875-0.25-1.625-0.25 0.125 1.313-0.063 2.813-0.375 4.125 0 0 0 0 0.063 0 0.625 0.5 0.938 3.188 0.938 4.938 0 0.188 0.188 0.375 0.375 0.438 0 0 0.063 0.063 0.125 0.063 0.125 0 0.25-0.063 0.313-0.188 1.938-2.125 2.5-6 1.625-7.813z"></path>
</svg>
