<svg xmlns="http://www.w3.org/2000/svg" xmlns:xlink="http://www.w3.org/1999/xlink" version="1.1" width="1000" height="1000" viewBox="0 0 1000 1000" xml:space="preserve">
<desc>Created with Fabric.js 3.5.0</desc>
<defs>
</defs>
<rect x="0" y="0" width="100%" height="100%" fill="#ffffff"/>
<g transform="matrix(0 -36.3535 36.3535 0 500.0005 499.9995)" id="652497">
<path style="stroke: none; stroke-width: 1; stroke-dasharray: none; stroke-linecap: butt; stroke-dashoffset: 0; stroke-linejoin: miter; stroke-miterlimit: 4; is-custom-font: none; font-file-url: none; fill: rgb(0,0,0); fill-rule: nonzero; opacity: 1;" vector-effect="non-scaling-stroke" transform=" translate(-12.2271, -11.5645)" d="M 0.875 -0.313 h -0.188 c 0 0.125 -0.063 0.188 -0.188 0.188 c -0.188 0 -0.25 -0.125 -0.25 -0.313 c 0 -0.25 0.063 -0.375 0.25 -0.375 c 0.125 0 0.188 0.063 0.188 0.188 h 0.188 c 0 -0.188 -0.188 -0.313 -0.375 -0.313 c -0.25 0 -0.438 0.188 -0.438 0.5 c 0 0.25 0.188 0.438 0.438 0.438 c 0.188 0 0.375 -0.125 0.375 -0.313 z M 0.5 -0.5 v -0.188 c -0.063 0 -0.063 0 -0.063 0 c -0.063 0 -0.125 0.063 -0.188 0.125 v -0.125 h -0.188 v 0.688 h 0.188 v -0.375 c 0 -0.125 0.063 -0.125 0.188 -0.125 c 0 0 0 0 0.063 0 z M 0.688 -0.313 c 0 -0.25 -0.125 -0.375 -0.313 -0.375 c -0.25 0 -0.375 0.125 -0.375 0.375 c 0 0.188 0.125 0.313 0.375 0.313 c 0.125 0 0.25 -0.063 0.313 -0.188 h -0.188 c 0 0.063 -0.063 0.063 -0.125 0.063 c -0.125 0 -0.188 -0.063 -0.188 -0.188 h 0.5 z M 0.5 -0.438 h -0.313 c 0.063 -0.063 0.063 -0.125 0.188 -0.125 c 0.063 0 0.125 0.063 0.125 0.125 z M 0.688 0 v 0 c -0.063 -0.063 -0.063 -0.063 -0.063 -0.125 v -0.375 c 0 -0.125 -0.063 -0.188 -0.25 -0.188 s -0.313 0.063 -0.313 0.25 h 0.188 c 0 -0.125 0 -0.125 0.125 -0.125 c 0.063 0 0.063 0 0.063 0.063 s -0.063 0.063 -0.125 0.063 l -0.063 0.063 c -0.125 0 -0.188 0.063 -0.188 0.188 s 0.063 0.188 0.188 0.188 c 0.063 0 0.125 0 0.188 -0.063 c 0 0 0 0.063 0.063 0.063 z M 0.438 -0.313 c 0 0.125 -0.063 0.188 -0.125 0.188 s -0.125 -0.063 -0.125 -0.063 c 0 -0.063 0.063 -0.063 0.125 -0.125 h 0.063 c 0.063 0 0.063 0 0.063 0 z M 0.375 0 v -0.125 c 0 0 0 0 0 0 c -0.063 0 -0.063 0 -0.063 -0.063 v -0.375 h 0.063 v -0.125 h -0.063 v -0.188 h -0.188 v 0.188 h -0.125 v 0.125 h 0.125 v 0.438 c 0 0.063 0.063 0.125 0.188 0.125 c 0 0 0.063 0 0.063 0 z M 0.688 0 v -0.938 h -0.188 v 0.313 c 0 -0.063 -0.063 -0.063 -0.188 -0.063 s -0.25 0.125 -0.25 0.313 c 0 0.25 0.063 0.375 0.25 0.375 c 0.125 0 0.188 0 0.188 -0.063 v 0.063 z M 0.5 -0.313 c 0 0.125 -0.063 0.188 -0.125 0.188 c -0.125 0 -0.188 -0.063 -0.188 -0.25 c 0 -0.125 0.063 -0.188 0.188 -0.188 c 0.063 0 0.125 0.063 0.125 0.25 z M 0.75 -0.313 c 0 -0.25 -0.125 -0.375 -0.313 -0.375 c -0.063 0 -0.125 0 -0.188 0.063 v -0.313 h -0.188 v 0.938 h 0.188 v -0.063 c 0.063 0.063 0.125 0.063 0.188 0.063 c 0.188 0 0.313 -0.125 0.313 -0.313 z M 0.563 -0.375 c 0 0.125 -0.063 0.25 -0.125 0.25 c -0.125 0 -0.188 -0.063 -0.188 -0.25 c 0 -0.125 0.063 -0.188 0.188 -0.188 c 0.063 0 0.125 0.063 0.125 0.188 z M 0.688 -0.688 h -0.188 l -0.125 0.5 l -0.188 -0.5 h -0.188 l 0.25 0.688 v 0.063 c 0 0.063 0 0.063 -0.063 0.063 s -0.063 0 -0.063 0 v 0.125 c 0 0 0 0 0.063 0 c 0.125 0 0.188 0 0.188 -0.125 z M 0.813 -0.625 c 0 -0.188 -0.125 -0.313 -0.313 -0.313 h -0.375 v 0.938 h 0.188 v -0.313 h 0.188 c 0.188 0 0.313 -0.125 0.313 -0.313 z M 0.625 -0.625 c 0 0.063 -0.063 0.125 -0.125 0.125 h -0.188 v -0.25 h 0.188 c 0.063 0 0.125 0 0.125 0.125 z M 0.75 -0.313 c 0 -0.25 -0.125 -0.375 -0.375 -0.375 c -0.188 0 -0.313 0.125 -0.313 0.313 c 0 0.25 0.125 0.375 0.313 0.375 c 0.25 0 0.375 -0.125 0.375 -0.313 z M 0.563 -0.313 c 0 0.125 -0.063 0.188 -0.188 0.188 c -0.063 0 -0.125 -0.063 -0.125 -0.25 c 0 -0.125 0.063 -0.188 0.125 -0.188 c 0.125 0 0.188 0.063 0.188 0.25 z M 0.25 0 v -0.938 h -0.188 v 0.938 z M 0.25 0 v -0.688 h -0.188 v 0.688 z M 0.25 -0.75 v -0.188 h -0.188 v 0.188 z M 0.688 0 v -0.438 c 0 -0.188 -0.063 -0.25 -0.25 -0.25 c -0.063 0 -0.125 0 -0.188 0.125 v -0.125 h -0.188 v 0.688 h 0.188 v -0.438 c 0 -0.063 0.063 -0.125 0.125 -0.125 c 0.125 0 0.125 0.063 0.125 0.125 v 0.438 z M 0.875 0 v -0.063 c -0.063 0 -0.063 0 -0.063 -0.063 c 0 -0.25 0 -0.25 -0.125 -0.313 c 0.125 -0.063 0.188 -0.125 0.188 -0.25 s -0.125 -0.25 -0.25 -0.25 h -0.5 v 0.938 h 0.188 v -0.375 h 0.188 c 0.125 0 0.125 0.063 0.125 0.125 v 0.063 c 0 0.125 0 0.125 0.063 0.188 z M 0.688 -0.625 c 0 0.063 -0.063 0.125 -0.188 0.125 h -0.188 v -0.25 h 0.188 c 0.125 0 0.188 0 0.188 0.125 z M 0.688 -0.688 h -0.188 l -0.125 0.5 l -0.188 -0.5 h -0.188 l 0.25 0.688 h 0.188 z M 0.688 -0.188 v 0 c 0 -0.125 -0.063 -0.188 -0.188 -0.188 l -0.188 -0.063 c -0.063 0 -0.063 -0.063 -0.063 -0.063 c 0 -0.063 0.063 -0.063 0.125 -0.063 s 0.125 0 0.125 0.063 h 0.125 c 0 -0.125 -0.063 -0.188 -0.25 -0.188 s -0.313 0.063 -0.313 0.188 c 0 0.125 0 0.188 0.125 0.188 l 0.25 0.063 c 0.063 0 0.063 0.063 0.063 0.063 c 0 0.063 -0.063 0.063 -0.125 0.063 c -0.125 0 -0.125 0 -0.188 -0.125 h -0.125 c 0 0.188 0.063 0.25 0.313 0.25 c 0.188 0 0.313 -0.063 0.313 -0.188 z M 0.688 0 l -0.25 -0.438 l 0.25 -0.25 h -0.188 l -0.25 0.25 v -0.5 h -0.188 v 0.938 h 0.188 v -0.25 l 0.063 -0.063 l 0.188 0.313 z M 0.375 -0.563 v -0.125 h -0.063 v -0.063 c 0 -0.063 0 -0.063 0 -0.063 c 0.063 0 0.063 0 0.063 0 v -0.125 c 0 0 -0.063 0 -0.063 0 c -0.125 0 -0.188 0.063 -0.188 0.188 v 0.063 h -0.125 v 0.125 h 0.125 v 0.563 h 0.188 v -0.563 z M 1.063 0 v -0.5 c 0 -0.125 -0.063 -0.188 -0.25 -0.188 c -0.063 0 -0.125 0 -0.188 0.063 c 0 -0.063 -0.125 -0.063 -0.188 -0.063 s -0.125 0 -0.188 0.063 v -0.063 h -0.188 v 0.688 h 0.188 v -0.438 c 0 -0.063 0.063 -0.125 0.125 -0.125 s 0.125 0.063 0.125 0.125 v 0.438 h 0.125 v -0.438 c 0 -0.063 0.063 -0.125 0.125 -0.125 s 0.125 0.063 0.125 0.125 v 0.438 z M 0.688 0 v -0.438 c 0 -0.188 -0.063 -0.25 -0.25 -0.25 c -0.063 0 -0.125 0 -0.188 0.125 v -0.375 h -0.188 v 0.938 h 0.188 v -0.438 c 0 -0.063 0.063 -0.125 0.125 -0.125 s 0.125 0.063 0.125 0.125 v 0.438 z M 0.875 0 v -0.938 h -0.25 v 0.625 l -0.313 -0.625 h -0.25 v 0.938 h 0.188 v -0.625 l 0.375 0.625 z M 0.688 0 v -0.688 h -0.188 v 0.438 c 0 0.063 -0.063 0.125 -0.125 0.125 s -0.125 -0.063 -0.125 -0.125 v -0.438 h -0.188 v 0.438 c 0 0.188 0.125 0.25 0.25 0.25 c 0.063 0 0.125 0 0.188 -0.063 v 0.063 z M 0.25 0.125 v -0.813 h -0.188 v 0.75 c 0 0.063 0 0.063 0 0.063 c -0.063 0 -0.063 0 -0.063 0 v 0.125 c 0.063 0 0.063 0 0.125 0 c 0.125 0 0.125 0 0.125 -0.125 z M 0.25 -0.75 v -0.188 h -0.188 v 0.188 z M 0.688 -0.25 h -0.188 c 0 0.063 -0.063 0.125 -0.125 0.125 c -0.125 0 -0.125 -0.063 -0.125 -0.188 s 0 -0.25 0.125 -0.25 c 0.063 0 0.125 0.063 0.125 0.125 h 0.188 c -0.063 -0.188 -0.125 -0.25 -0.313 -0.25 s -0.313 0.125 -0.313 0.375 c 0 0.188 0.125 0.313 0.313 0.313 s 0.25 -0.063 0.313 -0.25 z M 8.063 24.063 c 0 0 0 0 0 0 c -0.125 0 -0.25 -0.125 -0.25 -0.25 c -0.063 -0.125 -0.813 -4 0.438 -8.625 c 0.688 -2.75 1.938 -5.188 3.688 -7.313 c 2.125 -2.563 5.125 -4.625 8.75 -6.063 c 0.5 -0.188 0.813 -0.25 1 -0.25 c 0.25 0 0.313 0.125 0.375 0.188 c 0.125 0.313 -0.063 0.625 -0.438 1.063 c -0.063 0.125 -0.25 0.375 -0.313 0.5 c 0.125 0.063 0.25 0.063 0.438 0.063 s 0.438 0.063 0.75 0.188 c 0.125 0.125 0.188 0.25 0.188 0.375 c 0 0.25 -0.188 0.375 -0.438 0.5 c -0.063 0.063 -0.125 0.125 -0.188 0.125 c 0.063 0.063 0.125 0.063 0.25 0.125 c 0.188 0 0.438 0.125 0.5 0.375 s -0.063 0.438 -0.188 0.563 c -0.063 0.125 -0.188 0.25 -0.063 0.5 c 0.063 0.125 0.063 0.125 0.125 0.125 c 0 0 0.063 0 0.063 0 c 0.063 0 0.125 0 0.188 0 c 0.188 0 0.438 0.063 0.5 0.5 c 0.063 0.375 -0.063 0.5 -0.25 0.625 c 0 0.063 -0.063 0.063 -0.063 0.063 s 0 0.063 0.063 0.313 c 0.063 0.25 0.313 0.313 0.625 0.438 c 0.25 0.063 0.5 0.125 0.625 0.375 c 0.063 0.25 -0.063 0.5 -0.125 0.625 c -0.063 0.063 -0.125 0.125 -0.188 0.125 c -1 0.125 -3.625 0.5 -6.625 2.313 c -1.875 1.125 -3.563 2.563 -5 4.313 c -1.75 2.188 -3.188 4.875 -4.188 7.938 c 0 0.125 -0.125 0.188 -0.25 0.188 z M 21.438 2.125 c -0.125 0.063 -0.313 0.125 -0.563 0.25 c 0 0 0 0 0 0 c -3.563 1.375 -6.438 3.313 -8.5 5.875 c -1.688 2 -2.938 4.375 -3.625 7 c -0.75 3.125 -0.688 5.875 -0.563 7.313 c 1 -2.625 2.313 -5 3.875 -6.938 c 1.5 -1.813 3.188 -3.313 5.188 -4.5 c 2.938 -1.75 5.5 -2.188 6.625 -2.313 c 0 0 0 0 0 0 c 0 -0.063 -0.125 -0.063 -0.188 -0.125 c -0.375 -0.063 -0.875 -0.25 -1 -0.813 c -0.188 -0.563 -0.063 -0.75 0.188 -0.938 c 0 0 0 0 0 0 c 0.063 0 0.063 -0.063 0 -0.125 c 0 0 0 0 0 0 s 0 0 0 0 c -0.063 0 -0.125 0 -0.188 0 c -0.25 0 -0.5 -0.063 -0.625 -0.5 c -0.25 -0.563 0.063 -0.875 0.188 -1.063 c 0 0 0 0 0 0 c 0 -0.063 -0.063 -0.063 -0.063 -0.063 c -0.188 -0.063 -0.438 -0.125 -0.625 -0.375 c -0.063 -0.063 -0.063 -0.188 -0.063 -0.313 c 0.063 -0.25 0.25 -0.375 0.5 -0.5 c 0 0 0 0 0 -0.063 c -0.063 0 -0.188 0 -0.313 0 c -0.188 0 -0.438 0 -0.75 -0.188 c -0.125 -0.063 -0.188 -0.125 -0.188 -0.25 c -0.063 -0.25 0.125 -0.563 0.438 -1 c 0.125 -0.125 0.188 -0.25 0.25 -0.375 z" stroke-linecap="round"/>
</g>
</svg>