<!-- Generated by IcoMoon.io -->
<svg version="1.1" xmlns="http://www.w3.org/2000/svg" width="32" height="32" viewBox="0 0 32 32">
<title>Tusk</title>
<path d="M0.875-0.313h-0.188c0 0.125-0.063 0.188-0.188 0.188-0.188 0-0.25-0.125-0.25-0.313 0-0.25 0.063-0.375 0.25-0.375 0.125 0 0.188 0.063 0.188 0.188h0.188c0-0.188-0.188-0.313-0.375-0.313-0.25 0-0.438 0.188-0.438 0.5 0 0.25 0.188 0.438 0.438 0.438 0.188 0 0.375-0.125 0.375-0.313zM0.5-0.5v-0.188c-0.063 0-0.063 0-0.063 0-0.063 0-0.125 0.063-0.188 0.125v-0.125h-0.188v0.688h0.188v-0.375c0-0.125 0.063-0.125 0.188-0.125 0 0 0 0 0.063 0zM0.688-0.313c0-0.25-0.125-0.375-0.313-0.375-0.25 0-0.375 0.125-0.375 0.375 0 0.188 0.125 0.313 0.375 0.313 0.125 0 0.25-0.063 0.313-0.188h-0.188c0 0.063-0.063 0.063-0.125 0.063-0.125 0-0.188-0.063-0.188-0.188h0.5zM0.5-0.438h-0.313c0.063-0.063 0.063-0.125 0.188-0.125 0.063 0 0.125 0.063 0.125 0.125zM0.688 0v0c-0.063-0.063-0.063-0.063-0.063-0.125v-0.375c0-0.125-0.063-0.188-0.25-0.188s-0.313 0.063-0.313 0.25h0.188c0-0.125 0-0.125 0.125-0.125 0.063 0 0.063 0 0.063 0.063s-0.063 0.063-0.125 0.063l-0.063 0.063c-0.125 0-0.188 0.063-0.188 0.188s0.063 0.188 0.188 0.188c0.063 0 0.125 0 0.188-0.063 0 0 0 0.063 0.063 0.063zM0.438-0.313c0 0.125-0.063 0.188-0.125 0.188s-0.125-0.063-0.125-0.063c0-0.063 0.063-0.063 0.125-0.125h0.063c0.063 0 0.063 0 0.063 0zM0.375 0v-0.125c0 0 0 0 0 0-0.063 0-0.063 0-0.063-0.063v-0.375h0.063v-0.125h-0.063v-0.188h-0.188v0.188h-0.125v0.125h0.125v0.438c0 0.063 0.063 0.125 0.188 0.125 0 0 0.063 0 0.063 0zM0.688 0v-0.938h-0.188v0.313c0-0.063-0.063-0.063-0.188-0.063s-0.25 0.125-0.25 0.313c0 0.25 0.063 0.375 0.25 0.375 0.125 0 0.188 0 0.188-0.063v0.063zM0.5-0.313c0 0.125-0.063 0.188-0.125 0.188-0.125 0-0.188-0.063-0.188-0.25 0-0.125 0.063-0.188 0.188-0.188 0.063 0 0.125 0.063 0.125 0.25zM0.75-0.313c0-0.25-0.125-0.375-0.313-0.375-0.063 0-0.125 0-0.188 0.063v-0.313h-0.188v0.938h0.188v-0.063c0.063 0.063 0.125 0.063 0.188 0.063 0.188 0 0.313-0.125 0.313-0.313zM0.563-0.375c0 0.125-0.063 0.25-0.125 0.25-0.125 0-0.188-0.063-0.188-0.25 0-0.125 0.063-0.188 0.188-0.188 0.063 0 0.125 0.063 0.125 0.188zM0.688-0.688h-0.188l-0.125 0.5-0.188-0.5h-0.188l0.25 0.688v0.063c0 0.063 0 0.063-0.063 0.063s-0.063 0-0.063 0v0.125c0 0 0 0 0.063 0 0.125 0 0.188 0 0.188-0.125zM0.813-0.625c0-0.188-0.125-0.313-0.313-0.313h-0.375v0.938h0.188v-0.313h0.188c0.188 0 0.313-0.125 0.313-0.313zM0.625-0.625c0 0.063-0.063 0.125-0.125 0.125h-0.188v-0.25h0.188c0.063 0 0.125 0 0.125 0.125zM0.75-0.313c0-0.25-0.125-0.375-0.375-0.375-0.188 0-0.313 0.125-0.313 0.313 0 0.25 0.125 0.375 0.313 0.375 0.25 0 0.375-0.125 0.375-0.313zM0.563-0.313c0 0.125-0.063 0.188-0.188 0.188-0.063 0-0.125-0.063-0.125-0.25 0-0.125 0.063-0.188 0.125-0.188 0.125 0 0.188 0.063 0.188 0.25zM0.25 0v-0.938h-0.188v0.938zM0.25 0v-0.688h-0.188v0.688zM0.25-0.75v-0.188h-0.188v0.188zM0.688 0v-0.438c0-0.188-0.063-0.25-0.25-0.25-0.063 0-0.125 0-0.188 0.125v-0.125h-0.188v0.688h0.188v-0.438c0-0.063 0.063-0.125 0.125-0.125 0.125 0 0.125 0.063 0.125 0.125v0.438zM0.875 0v-0.063c-0.063 0-0.063 0-0.063-0.063 0-0.25 0-0.25-0.125-0.313 0.125-0.063 0.188-0.125 0.188-0.25s-0.125-0.25-0.25-0.25h-0.5v0.938h0.188v-0.375h0.188c0.125 0 0.125 0.063 0.125 0.125v0.063c0 0.125 0 0.125 0.063 0.188zM0.688-0.625c0 0.063-0.063 0.125-0.188 0.125h-0.188v-0.25h0.188c0.125 0 0.188 0 0.188 0.125zM0.688-0.688h-0.188l-0.125 0.5-0.188-0.5h-0.188l0.25 0.688h0.188zM0.688-0.188v0c0-0.125-0.063-0.188-0.188-0.188l-0.188-0.063c-0.063 0-0.063-0.063-0.063-0.063 0-0.063 0.063-0.063 0.125-0.063s0.125 0 0.125 0.063h0.125c0-0.125-0.063-0.188-0.25-0.188s-0.313 0.063-0.313 0.188c0 0.125 0 0.188 0.125 0.188l0.25 0.063c0.063 0 0.063 0.063 0.063 0.063 0 0.063-0.063 0.063-0.125 0.063-0.125 0-0.125 0-0.188-0.125h-0.125c0 0.188 0.063 0.25 0.313 0.25 0.188 0 0.313-0.063 0.313-0.188zM0.688 0l-0.25-0.438 0.25-0.25h-0.188l-0.25 0.25v-0.5h-0.188v0.938h0.188v-0.25l0.063-0.063 0.188 0.313zM0.375-0.563v-0.125h-0.063v-0.063c0-0.063 0-0.063 0-0.063 0.063 0 0.063 0 0.063 0v-0.125c0 0-0.063 0-0.063 0-0.125 0-0.188 0.063-0.188 0.188v0.063h-0.125v0.125h0.125v0.563h0.188v-0.563zM1.063 0v-0.5c0-0.125-0.063-0.188-0.25-0.188-0.063 0-0.125 0-0.188 0.063 0-0.063-0.125-0.063-0.188-0.063s-0.125 0-0.188 0.063v-0.063h-0.188v0.688h0.188v-0.438c0-0.063 0.063-0.125 0.125-0.125s0.125 0.063 0.125 0.125v0.438h0.125v-0.438c0-0.063 0.063-0.125 0.125-0.125s0.125 0.063 0.125 0.125v0.438zM0.688 0v-0.438c0-0.188-0.063-0.25-0.25-0.25-0.063 0-0.125 0-0.188 0.125v-0.375h-0.188v0.938h0.188v-0.438c0-0.063 0.063-0.125 0.125-0.125s0.125 0.063 0.125 0.125v0.438zM0.875 0v-0.938h-0.25v0.625l-0.313-0.625h-0.25v0.938h0.188v-0.625l0.375 0.625zM0.688 0v-0.688h-0.188v0.438c0 0.063-0.063 0.125-0.125 0.125s-0.125-0.063-0.125-0.125v-0.438h-0.188v0.438c0 0.188 0.125 0.25 0.25 0.25 0.063 0 0.125 0 0.188-0.063v0.063zM0.25 0.125v-0.813h-0.188v0.75c0 0.063 0 0.063 0 0.063-0.063 0-0.063 0-0.063 0v0.125c0.063 0 0.063 0 0.125 0 0.125 0 0.125 0 0.125-0.125zM0.25-0.75v-0.188h-0.188v0.188zM0.688-0.25h-0.188c0 0.063-0.063 0.125-0.125 0.125-0.125 0-0.125-0.063-0.125-0.188s0-0.25 0.125-0.25c0.063 0 0.125 0.063 0.125 0.125h0.188c-0.063-0.188-0.125-0.25-0.313-0.25s-0.313 0.125-0.313 0.375c0 0.188 0.125 0.313 0.313 0.313s0.25-0.063 0.313-0.25zM8.063 24.063c0 0 0 0 0 0-0.125 0-0.25-0.125-0.25-0.25-0.063-0.125-0.813-4 0.438-8.625 0.688-2.75 1.938-5.188 3.688-7.313 2.125-2.563 5.125-4.625 8.75-6.063 0.5-0.188 0.813-0.25 1-0.25 0.25 0 0.313 0.125 0.375 0.188 0.125 0.313-0.063 0.625-0.438 1.063-0.063 0.125-0.25 0.375-0.313 0.5 0.125 0.063 0.25 0.063 0.438 0.063s0.438 0.063 0.75 0.188c0.125 0.125 0.188 0.25 0.188 0.375 0 0.25-0.188 0.375-0.438 0.5-0.063 0.063-0.125 0.125-0.188 0.125 0.063 0.063 0.125 0.063 0.25 0.125 0.188 0 0.438 0.125 0.5 0.375s-0.063 0.438-0.188 0.563c-0.063 0.125-0.188 0.25-0.063 0.5 0.063 0.125 0.063 0.125 0.125 0.125 0 0 0.063 0 0.063 0 0.063 0 0.125 0 0.188 0 0.188 0 0.438 0.063 0.5 0.5 0.063 0.375-0.063 0.5-0.25 0.625 0 0.063-0.063 0.063-0.063 0.063s0 0.063 0.063 0.313c0.063 0.25 0.313 0.313 0.625 0.438 0.25 0.063 0.5 0.125 0.625 0.375 0.063 0.25-0.063 0.5-0.125 0.625-0.063 0.063-0.125 0.125-0.188 0.125-1 0.125-3.625 0.5-6.625 2.313-1.875 1.125-3.563 2.563-5 4.313-1.75 2.188-3.188 4.875-4.188 7.938 0 0.125-0.125 0.188-0.25 0.188zM21.438 2.125c-0.125 0.063-0.313 0.125-0.563 0.25 0 0 0 0 0 0-3.563 1.375-6.438 3.313-8.5 5.875-1.688 2-2.938 4.375-3.625 7-0.75 3.125-0.688 5.875-0.563 7.313 1-2.625 2.313-5 3.875-6.938 1.5-1.813 3.188-3.313 5.188-4.5 2.938-1.75 5.5-2.188 6.625-2.313 0 0 0 0 0 0 0-0.063-0.125-0.063-0.188-0.125-0.375-0.063-0.875-0.25-1-0.813-0.188-0.563-0.063-0.75 0.188-0.938 0 0 0 0 0 0 0.063 0 0.063-0.063 0-0.125 0 0 0 0 0 0s0 0 0 0c-0.063 0-0.125 0-0.188 0-0.25 0-0.5-0.063-0.625-0.5-0.25-0.563 0.063-0.875 0.188-1.063 0 0 0 0 0 0 0-0.063-0.063-0.063-0.063-0.063-0.188-0.063-0.438-0.125-0.625-0.375-0.063-0.063-0.063-0.188-0.063-0.313 0.063-0.25 0.25-0.375 0.5-0.5 0 0 0 0 0-0.063-0.063 0-0.188 0-0.313 0-0.188 0-0.438 0-0.75-0.188-0.125-0.063-0.188-0.125-0.188-0.25-0.063-0.25 0.125-0.563 0.438-1 0.125-0.125 0.188-0.25 0.25-0.375z"></path>
</svg>
