<!-- Generated by IcoMoon.io -->
<svg version="1.1" xmlns="http://www.w3.org/2000/svg" width="32" height="32" viewBox="0 0 32 32">
<title>unknown-cause</title>
<path d="M19.438 20.438v4.25c0 0.188-0.063 0.375-0.25 0.5-0.125 0.188-0.313 0.25-0.5 0.25h-4.25c-0.188 0-0.375-0.063-0.5-0.25-0.125-0.125-0.25-0.313-0.25-0.5v-4.25c0-0.188 0.125-0.375 0.25-0.5s0.313-0.25 0.5-0.25h4.25c0.188 0 0.375 0.125 0.5 0.25 0.188 0.125 0.25 0.313 0.25 0.5zM25.063 9.688c0 0.688-0.063 1.25-0.25 1.813s-0.438 1.063-0.625 1.375c-0.25 0.375-0.563 0.688-1 1.063s-0.75 0.625-1 0.813c-0.313 0.125-0.625 0.375-1.125 0.625s-0.875 0.625-1.188 1.125c-0.375 0.5-0.5 0.938-0.5 1.188s-0.063 0.438-0.25 0.625c-0.125 0.188-0.313 0.25-0.5 0.25h-4.25c-0.188 0-0.375-0.125-0.5-0.313-0.125-0.25-0.188-0.438-0.188-0.688v-0.813c0-1 0.438-1.875 1.188-2.75s1.625-1.563 2.563-1.938c0.688-0.375 1.188-0.688 1.5-1 0.313-0.375 0.438-0.813 0.438-1.375 0-0.5-0.25-0.938-0.813-1.313s-1.188-0.563-1.938-0.563c-0.75 0-1.438 0.125-1.938 0.5-0.438 0.313-1.063 1-1.875 2.063-0.188 0.188-0.375 0.25-0.563 0.25s-0.313 0-0.438-0.125l-2.938-2.25c-0.188-0.125-0.25-0.25-0.313-0.438 0-0.188 0-0.313 0.125-0.5 1.875-3.188 4.688-4.75 8.25-4.75 1 0 1.938 0.188 2.875 0.563 1 0.375 1.875 0.875 2.625 1.5 0.813 0.625 1.438 1.375 1.875 2.25 0.5 0.938 0.75 1.875 0.75 2.813z"></path>
</svg>
