<!-- Generated by IcoMoon.io -->
<svg version="1.1" xmlns="http://www.w3.org/2000/svg" width="32" height="32" viewBox="0 0 32 32">
<title>Vegetables</title>
<path d="M1.75-0.625h-0.375c0 0.25-0.188 0.313-0.438 0.313s-0.438-0.188-0.438-0.625c0-0.375 0.188-0.625 0.5-0.625 0.188 0 0.313 0.125 0.375 0.313h0.375c-0.063-0.375-0.375-0.625-0.813-0.625-0.5 0-0.813 0.375-0.813 0.938 0 0.625 0.313 0.938 0.813 0.938s0.75-0.188 0.813-0.625zM0.938-1.063v-0.313c0 0 0 0-0.063 0-0.125 0-0.313 0.063-0.375 0.25v-0.25h-0.313v1.375h0.313v-0.75c0-0.188 0.125-0.313 0.313-0.313 0.063 0 0.063 0 0.125 0zM1.313-0.625c0-0.5-0.188-0.75-0.625-0.75-0.375 0-0.625 0.25-0.625 0.688s0.25 0.688 0.625 0.688c0.313 0 0.563-0.125 0.625-0.375h-0.375c0 0.063-0.125 0.125-0.25 0.125-0.188 0-0.25-0.063-0.25-0.313h0.875zM0.938-0.813h-0.5c0-0.188 0.063-0.313 0.25-0.313 0.125 0 0.25 0.125 0.25 0.313zM1.313 0v-0.063c-0.063-0.063-0.063-0.063-0.063-0.125v-0.813c0-0.25-0.188-0.375-0.563-0.375s-0.563 0.125-0.563 0.438h0.313c0-0.125 0.063-0.188 0.25-0.188 0.125 0 0.188 0.063 0.188 0.125 0 0.188-0.063 0.188-0.25 0.188h-0.125c-0.313 0.063-0.438 0.188-0.438 0.438s0.188 0.375 0.438 0.375c0.125 0 0.25-0.063 0.375-0.188 0 0.063 0.063 0.125 0.063 0.188zM0.875-0.563c0 0.188-0.063 0.313-0.25 0.313-0.125 0-0.188-0.063-0.188-0.188 0-0.063 0.063-0.125 0.188-0.125l0.125-0.063c0.125 0 0.125 0 0.125 0zM0.75 0v-0.25c0 0-0.063 0-0.063 0-0.125 0-0.125 0-0.125-0.125v-0.75h0.188v-0.25h-0.188v-0.313h-0.375v0.313h-0.125v0.25h0.125v0.813c0 0.25 0.125 0.313 0.375 0.313 0.063 0 0.125 0 0.188 0zM1.375 0v-1.875h-0.375v0.688c-0.063-0.125-0.188-0.188-0.375-0.188-0.313 0-0.563 0.25-0.563 0.688 0 0.375 0.25 0.688 0.563 0.688 0.188 0 0.313-0.063 0.375-0.188v0.188zM1-0.688c0 0.25-0.063 0.438-0.25 0.438s-0.313-0.188-0.313-0.438c0-0.25 0.125-0.438 0.313-0.438s0.25 0.188 0.25 0.438zM1.438-0.688c0-0.375-0.188-0.688-0.563-0.688-0.188 0-0.313 0.063-0.375 0.188v-0.688h-0.375v1.875h0.375v-0.188c0.063 0.125 0.188 0.188 0.375 0.188 0.313 0 0.563-0.25 0.563-0.688zM1.125-0.688c0 0.25-0.125 0.438-0.313 0.438s-0.313-0.188-0.313-0.438c0-0.25 0.125-0.438 0.313-0.438s0.313 0.188 0.313 0.438zM1.375-1.375h-0.375l-0.313 1-0.25-1h-0.438l0.563 1.438c0 0.125-0.125 0.25-0.25 0.25 0 0-0.063 0-0.063-0.063v0.313c0 0 0.063 0 0.125 0 0.188 0 0.313-0.063 0.438-0.313zM1.813 0v-1h-0.75v0.313h0.438c-0.063 0.25-0.25 0.375-0.5 0.375-0.313 0-0.5-0.25-0.5-0.625s0.188-0.625 0.5-0.625c0.188 0 0.375 0.063 0.438 0.313h0.375c-0.063-0.375-0.375-0.625-0.813-0.625-0.5 0-0.875 0.375-0.875 0.938s0.375 0.938 0.875 0.938c0.25 0 0.375-0.063 0.563-0.25v0.25zM1.438-0.688c0-0.438-0.25-0.688-0.688-0.688-0.375 0-0.688 0.25-0.688 0.688s0.313 0.688 0.688 0.688c0.438 0 0.688-0.25 0.688-0.688zM1.063-0.688c0 0.25-0.125 0.438-0.313 0.438s-0.313-0.188-0.313-0.438c0-0.25 0.125-0.438 0.313-0.438s0.313 0.188 0.313 0.438zM1.375 0.063v-1.438h-0.313v0.188c-0.125-0.125-0.25-0.188-0.438-0.188-0.313 0-0.563 0.25-0.563 0.688s0.25 0.688 0.563 0.688c0.188 0 0.25 0 0.438-0.188v0.25c0 0.125-0.125 0.25-0.313 0.25-0.125 0-0.25-0.063-0.25-0.125h-0.375c0 0.188 0.25 0.375 0.625 0.375s0.625-0.188 0.625-0.5zM1.063-0.688c0 0.25-0.125 0.438-0.313 0.438s-0.313-0.188-0.313-0.438c0-0.25 0.125-0.438 0.313-0.438s0.313 0.188 0.313 0.438zM0.5 0v-1.375h-0.313v1.375zM0.563-1.563v-0.313h-0.375v0.313zM1.375 0v-0.938c0-0.313-0.125-0.438-0.438-0.438-0.188 0-0.313 0.063-0.438 0.188v-0.188h-0.313v1.375h0.313v-0.813c0-0.188 0.125-0.25 0.313-0.25 0.125 0 0.25 0.063 0.25 0.188v0.875zM0.563 0v-1.875h-0.375v1.875zM1.313-0.438v0c0-0.125-0.063-0.25-0.25-0.313l-0.438-0.125c-0.125-0.063-0.125-0.063-0.125-0.125s0.063-0.125 0.188-0.125c0.188 0 0.25 0.063 0.25 0.188h0.375c-0.063-0.313-0.25-0.438-0.625-0.438s-0.563 0.125-0.563 0.438c0 0.188 0.063 0.25 0.313 0.313l0.438 0.188c0.063 0 0.063 0 0.063 0.063s-0.063 0.125-0.25 0.125c-0.125 0-0.25-0.063-0.25-0.188h-0.375c0 0.313 0.25 0.438 0.688 0.438 0.375 0 0.563-0.125 0.563-0.438zM1.313-0.5h-0.313c-0.063 0.188-0.125 0.25-0.25 0.25-0.188 0-0.313-0.188-0.313-0.438s0.063-0.438 0.313-0.438c0.125 0 0.188 0.063 0.25 0.25h0.313c0-0.313-0.25-0.5-0.563-0.5-0.438 0-0.688 0.25-0.688 0.688s0.25 0.688 0.688 0.688c0.313 0 0.563-0.188 0.563-0.5zM1.375 0v-1.375h-0.375v0.813c0 0.188-0.125 0.313-0.25 0.313-0.188 0-0.25-0.125-0.25-0.25v-0.875h-0.375v0.938c0 0.313 0.188 0.438 0.5 0.438 0.188 0 0.313-0.063 0.375-0.188v0.188zM16.188 8.063c0 3.188 3.375 5 6.25 5s6.25-1.813 6.25-5c0-1.25-0.5-2.375-1.375-3.188l-0.563 1.375-1.438-0.563 0.563 1.438-2.563 1c-0.313-0.625-0.563-1.313-0.875-1.938-0.313 0.625-0.563 1.313-0.813 1.938l-2.625-1 0.625-1.438-1.5 0.563-0.5-1.375c-0.875 0.813-1.438 1.938-1.438 3.188M19.875 6.688l1.375 0.563c0.313-0.875 0.625-1.625 1.188-2.375 0.563 0.75 0.875 1.5 1.25 2.375l1.313-0.563c-0.313-0.75-0.563-1.375-1-2.125 0.813 0.188 1.563 0.438 2.375 0.75l0.5-1.313c-1.25-0.5-2.313-0.875-3.688-0.938 0.063-0.5 0.313-1.063 0.563-1.5l-1.625-0.5c-0.25 0.688-0.313 1.188-0.375 2-1.375 0.063-2.438 0.438-3.75 0.938l0.5 1.313c0.813-0.25 1.563-0.563 2.438-0.75-0.438 0.688-0.75 1.375-1.063 2.125zM14.813 10.438l-2.5 1.5-0.625-1.125 2.75-1.563-1.313-4-2.875 0.313c0.188-0.938 0.5-1.75 0.875-2.688l-1.375-0.563c-0.375 0.938-0.625 1.688-0.813 2.688-0.563-1.75-1.313-3.25-2.25-4.813l-1.25 0.75c1.063 1.688 1.75 3.125 2.25 5-1.313-1.438-2.188-2.75-3.063-4.5l-1.25 0.688c0.813 1.625 1.688 3 2.938 4.438-0.938-0.375-1.813-0.563-2.813-0.688l-0.188 1.375c1 0.188 1.875 0.375 2.813 0.75l-1.625 2.25 1.563 1.75 2.438-1.438 0.625 1.063-2.188 1.313 2.563 2.813 2.313-1.313 0.625 1.063-2.063 1.25 7.875 8.688 1.188-0.688-2.625-8.188-1.5 0.875-0.688-1.063 1.813-1z"></path>
</svg>
