<?xml version="1.0" encoding="UTF-8"?>
<svg width="700pt" height="700pt" version="1.1" viewBox="0 0 700 700" xmlns="http://www.w3.org/2000/svg">
 <path d="m574.18 353.15-140-243.77c-11.277-19.621-29.117-34.633-50.379-42.391-21.262-7.7539-44.582-7.7539-65.844 0-21.262 7.7578-39.102 22.77-50.379 42.391l-140 243.77c-17.113 29.637-17.203 66.133-0.23438 95.852s48.441 48.195 82.66 48.523h281.75c34.379-0.019532 66.133-18.371 83.312-48.148 17.18-29.773 17.176-66.453-0.011719-96.227zm-45.5 70c-3.7617 6.6992-9.2578 12.266-15.906 16.113-6.6484 3.8477-14.211 5.8398-21.895 5.7617h-280.88c-7.6836 0.078124-15.246-1.9141-21.895-5.7617-6.6484-3.8477-12.145-9.4141-15.906-16.113-3.875-6.6367-5.9141-14.188-5.9141-21.875 0-7.6836 2.0391-15.234 5.9141-21.875l140-243.77c7.8633-13.527 22.328-21.852 37.977-21.852 15.645 0 30.109 8.3242 37.973 21.852l140 243.77c3.957 6.5938 6.0898 14.117 6.1797 21.805 0.09375 7.6875-1.8594 15.262-5.6523 21.945zm-152.43-210v87.5c0 9.3789-5.0039 18.047-13.125 22.734-8.1211 4.6914-18.129 4.6914-26.25 0-8.1211-4.6875-13.125-13.355-13.125-22.734v-87.5c0-9.375 5.0039-18.043 13.125-22.73 8.1211-4.6914 18.129-4.6914 26.25 0 8.1211 4.6875 13.125 13.355 13.125 22.73zm-7.6992 152.77v0.003906c4.9219 4.918 7.6914 11.59 7.6992 18.551-0.011719 3.4141-0.66406 6.7969-1.9258 9.9727-1.3867 3.1875-3.3438 6.0938-5.7734 8.5742-4.9648 4.832-11.621 7.5352-18.551 7.5352s-13.586-2.7031-18.551-7.5352c-2.4297-2.4805-4.3867-5.3867-5.7734-8.5742-1.2617-3.1758-1.9141-6.5586-1.9258-9.9727 0.007812-6.9609 2.7773-13.633 7.6992-18.551 1.1797-1.293 2.5352-2.4141 4.0273-3.3242l4.5508-2.4492-0.003906-0.003906c1.5469-0.72656 3.2031-1.1992 4.9023-1.3984 3.3477-0.69922 6.8008-0.69922 10.148 0 1.6992 0.19922 3.3555 0.67188 4.9023 1.3984l4.5508 2.4492-0.003906 0.003906c1.4414 0.64063 2.793 1.4648 4.0273 2.4492z"/>
</svg>
