<?xml version="1.0" standalone="no"?>
<!DOCTYPE svg PUBLIC "-//W3C//DTD SVG 20010904//EN"
 "http://www.w3.org/TR/2001/REC-SVG-20010904/DTD/svg10.dtd">
<svg version="1.0" xmlns="http://www.w3.org/2000/svg"
 width="500.000000pt" height="500.000000pt" viewBox="0 0 500.000000 500.000000"
 preserveAspectRatio="xMidYMid meet">
<metadata>
Created by potrace 1.16, written by Peter Selinger 2001-2019
</metadata>
<g transform="translate(0.000000,500.000000) scale(0.100000,-0.100000)"
fill="#000000" stroke="none">
<path d="M1530 3618 c-56 -29 -87 -74 -95 -141 -4 -29 -5 -268 -3 -533 l3
-481 28 -41 c50 -72 53 -72 517 -72 l410 0 0 -467 c0 -294 4 -482 11 -505 19
-71 116 -93 163 -37 l26 31 0 489 0 489 415 0 c462 0 461 0 511 66 l29 37 0
541 0 541 -23 33 c-13 18 -41 41 -62 52 -38 20 -62 20 -962 20 l-924 0 -44
-22z m714 -201 c122 -58 202 -147 247 -273 17 -48 20 -77 17 -160 -3 -93 -6
-107 -40 -176 -49 -99 -117 -167 -215 -215 -75 -37 -80 -38 -187 -38 -107 0
-113 1 -189 37 -129 62 -214 166 -252 309 -52 194 50 416 233 508 85 43 123
51 224 47 75 -3 98 -8 162 -39z m1061 -163 c9 -9 15 -26 13 -37 -6 -42 -37
-47 -331 -47 l-278 0 -24 24 c-25 25 -25 52 -1 68 6 4 145 8 308 8 261 0 299
-2 313 -16z m-1 -240 c22 -21 20 -51 -3 -64 -12 -6 -130 -10 -313 -10 -309 0
-318 1 -318 45 0 44 9 45 321 45 257 0 300 -2 313 -16z m-124 -244 c12 -23 0
-54 -26 -64 -27 -11 -444 -7 -465 4 -19 10 -27 59 -12 73 3 4 116 7 249 7 233
0 244 -1 254 -20z"/>
<path d="M2010 3285 c-33 -35 -31 -81 4 -112 57 -48 146 -14 146 57 0 72 -99
109 -150 55z"/>
<path d="M1943 3072 c-7 -7 -13 -20 -13 -27 0 -18 28 -45 46 -45 11 0 14 -21
14 -105 0 -96 -2 -105 -19 -105 -25 0 -43 -24 -39 -52 3 -23 5 -23 133 -23
l130 0 0 30 c0 23 -7 33 -27 43 l-28 13 0 134 c0 95 -4 136 -12 141 -22 14
-170 10 -185 -4z"/>
</g>
</svg>
