<!-- Generated by IcoMoon.io -->
<svg version="1.1" xmlns="http://www.w3.org/2000/svg" width="32" height="32" viewBox="0 0 32 32">
<title>Vulture</title>
<path d="M16.625 10.875c-0.188-0.813-0.625-1.438-1.563-1.5s-0.813 0.75-1.938 0.688c-1.125-0.063-0.813-1-0.438-3.625 0.313-2.563-2.438-2.25-3.375-1.813-0.875 0.5-1.25 0.188-2.125 0.688-0.875 0.563-0.188 2.188 0 2.125s0.188-0.563 0.625-0.875c0.375-0.25 1.5 0.125 2.063 0.5 0.5 0.313 0.25 2 0 3.5-0.25 1.563 2 2.063 2 2.063 1.25-1.063 2.188-1 2.188-1-2 1.188-3.313 2.438 0.25 4.75 0 0.625 0.125 1.563 1 1.938 0.688 0.313 0.875 2.313 0.5 2.313-0.375 0.063-1.625 0.188-1.625 0.375 0 0.25 0.5 0.25 0.938 0.25h1.063c0.625 0 1.688 0 1.813 0s0.813-0.438-1.125-0.563c0 0-0.125-1.375-0.125-1.75 0-0.25 0.75-0.125 1.375-0.75 2.313 0.625 3.313-0.125 3.313-0.125 0-0.563-0.875-2.5-0.875-2.5 0.875 0.625 1.313 2.625 1.313 2.625-0.375 0.375-1.125 0.563-1.125 0.563 2.938 1.063 4.5-0.5 4.5-0.5-2.375-8.313-8.625-7.375-8.625-7.375z"></path>
</svg>
