<!-- Generated by IcoMoon.io -->
<svg version="1.1" xmlns="http://www.w3.org/2000/svg" width="32" height="32" viewBox="0 0 32 32">
<title>Walkie-talkie</title>
<path d="M2 2v28h16v-28zM7 26h-2v-2h2zM7 22h-2v-2h2zM7 18h-2v-2h2zM11 26h-2v-2h2zM9 22v-2h2v2zM11 18h-2v-2h2zM15 26h-2v-2h2zM15 22h-2v-2h2zM15 18h-2v-2h2zM15 12h-10v-6h10zM27.188 0l-1.438 1.563c2.563 2.688 4.125 6.375 4.125 10.438s-1.563 7.75-4.125 10.438l1.438 1.563c3-3.063 4.813-7.313 4.813-12s-1.813-8.938-4.813-12zM24.313 3.063l-1.438 1.5c1.875 1.875 3 4.5 3 7.438s-1.125 5.563-3 7.438l1.438 1.5c2.25-2.25 3.563-5.438 3.563-8.938s-1.313-6.688-3.563-8.938zM21.438 6.063l-1.438 1.5c1.063 1.125 1.75 2.688 1.75 4.438s-0.688 3.313-1.75 4.438l1.438 1.5c1.5-1.5 2.375-3.625 2.375-5.938s-0.875-4.438-2.375-5.938z"></path>
</svg>
