<!-- Generated by IcoMoon.io -->
<svg version="1.1" xmlns="http://www.w3.org/2000/svg" width="32" height="32" viewBox="0 0 32 32">
<title>Warned</title>
<path d="M24 14c-1.063 0-1.875 0.813-2 1.875v-1.875c0-1.125-0.875-2-2-2s-2 0.875-2 2v-2c0-1.125-0.875-2-2-2s-2 0.875-2 2v-8c0-1.125-0.875-2-2-2s-2 0.875-2 2v13.438c0 0.25-0.25 0.438-0.438 0.563-0.25 0.063-0.563-0.063-0.688-0.25-1.438-1.938-1.375-3.813-3.5-3.813-0.5 0-0.938 0.25-1.188 0.688s-0.25 0.938 0 1.375l6.25 13.5c0.188 0.313 0.5 0.5 0.875 0.5h11.688c1.625 0 3-1.313 3-3v-11c0-1.125-0.875-2-2-2"></path>
</svg>
