<!-- Generated by IcoMoon.io -->
<svg version="1.1" xmlns="http://www.w3.org/2000/svg" width="32" height="32" viewBox="0 0 32 32">
<title>Warthog</title>
<path d="M27.125 4.75c-0.063 0.063-0.125 0.063-0.25 0.063l-0.25-0.063-0.063 0.25c-0.125 0.188-0.125 0.188-0.125 0.5 0.063 0.25 0.063 0.25 0 0.313-0.063 0-0.125 0.063-0.125 0.188-0.063 0.063-0.063 0.125-0.063 0.125-0.063 0-0.125 0.188-0.125 0.25s-0.063 0.188-0.188 0.313c-0.25 0.438-0.313 0.688-0.375 1.438 0 0.563 0 2.188 0.063 2.25s0.25 1.563 0.313 2.063c0.063 0.75 0.063 1.688 0 1.75-0.125 0.063-0.5 0-0.5-0.125 0 0 0-0.063-0.063-0.063 0-0.063-0.063-0.125-0.063-0.188 0-0.125 0-0.125-0.125-0.188-0.063 0-0.125 0.063-0.188 0.063-0.063 0.063-0.063 0-0.063-0.063-0.063-0.125-0.188-0.188-0.375-0.063l-0.125 0.063v-0.063c0-0.125-0.188-0.125-0.375 0-0.188 0.063-0.438 0.125-0.375 0.063 0-0.063-0.125-0.25-0.188-0.25s-0.125 0.063-0.188 0.125c-0.125 0.063-0.188 0.125-0.25 0.125 0 0-0.188 0.063-0.375 0.188-0.625 0.25-1 0.25-2.875 0.188-2.063-0.063-2.688-0.063-2.813-0.188 0-0.063-0.063-0.063-0.125-0.063 0 0-0.063 0-0.063 0 0-0.063-0.063-0.063-0.063-0.063-0.063 0-0.25-0.125-0.438-0.25-0.188-0.188-0.375-0.313-0.375-0.313-0.063 0-0.188-0.063-0.313-0.188-0.063-0.063-0.313-0.188-0.5-0.313-0.125-0.063-0.313-0.188-0.375-0.25s-0.188-0.125-0.188-0.125c-0.063 0-0.188-0.063-0.313-0.125-0.063-0.063-0.25-0.125-0.25-0.125s-0.25-0.188-0.5-0.438c-0.188-0.188-0.438-0.438-0.438-0.438-0.063 0-0.125 0-0.188-0.063-0.063-0.125-0.188-0.125-0.188-0.125s-0.125-0.125-0.25-0.25c-0.188-0.188-0.25-0.25-0.375-0.25-0.063 0-0.188 0-0.25-0.125-0.125-0.125-0.25-0.188-0.25-0.188-0.125 0-0.125 0-0.125-0.063s0.063-0.125 0.063-0.188c0.063 0 0.063-0.063 0.063-0.125-0.063-0.063 0-0.188 0.063-0.25 0.25-0.313 0.25-0.438-0.063-0.625l-0.188-0.25-0.375 0.063c-0.188 0.063-0.375 0.063-0.438 0.125 0 0-0.125 0.063-0.188 0.063s-0.188 0-0.188 0.063c-0.063 0-0.125 0.063-0.188 0.063s-0.125 0.063-0.188 0.063c-0.063 0.063-0.438-0.125-0.438-0.188 0 0 0-0.125 0.125-0.188 0.063-0.063 0.125-0.125 0.125-0.25 0-0.188 0-0.313-0.063-0.25-0.063 0-0.25 0-0.5 0.063-0.438 0-0.438 0-0.625 0.125s-0.25 0.188-0.438 0.313c-0.063 0-0.063 0.063-0.063 0.313 0 0.188-0.063 0.313-0.063 0.313 0 0.063 0 0.125 0 0.188v0.125h-1.25l-0.313 0.313c-0.188 0.188-0.313 0.313-0.313 0.375 0 0-0.063 0.063-0.125 0.125s-0.125 0.125-0.125 0.188c0 0.063-0.063 0.188-0.188 0.313-0.188 0.25-0.375 0.563-0.375 0.625-0.063 0.063-0.063 0.125-0.063 0.125-0.063 0-0.188 0.125-0.313 0.25l-0.313 0.25-0.063-0.125c-0.063-0.063-0.188-0.188-0.313-0.313-0.25-0.25-0.563-0.438-0.938-0.438-0.188 0-0.188 0.063-0.188 0.125 0 0.125 0 0.125 0.125 0.188 0.063 0 0.188 0.125 0.25 0.25 0.125 0.188 0.188 0.25 0.188 0.438 0.063 0.438 0 0.438-0.75 0.5-0.375 0-0.688 0-0.75 0-0.063 0.063-0.063 0-0.063-0.063 0-0.188 0.125-0.563 0.188-0.625 0-0.063 0.063-0.188 0.125-0.25 0-0.125 0.063-0.25 0.188-0.313 0.125-0.188 0.125-0.313 0-0.375-0.125 0-0.688 0.313-0.938 0.5-0.188 0.188-0.313 0.438-0.375 0.75 0 0.188 0 0.188-0.188 0.188-0.125 0.063-0.125 0.063-0.063 0.125 0 0.063 0.063 0.063 0.063 0.125s0 0.063 0 0.125c0.063 0.063 0.125 0.75 0.063 1 0 0.125 0 0.188-0.125 0.25-0.188 0.125-0.375 0.25-0.375 0.313 0 0 0.063 0.063 0.125 0.188s0.063 0.188 0.063 0.25c-0.063 0.125-0.063 0.125 0.125 0.313 0.063 0.063 0.188 0.188 0.25 0.313 0.063 0.063 0.125 0.188 0.188 0.313 0.125 0.063 0.188 0.188 0.188 0.188 0 0.188 0.5 0.25 1.563 0.313 0.625 0 0.688 0 0.813-0.125 0.063 0 0.188-0.063 0.313-0.063 0.063 0 0.188 0 0.25-0.063 0.063 0 0.25-0.063 0.375-0.063 0.188 0 0.375-0.063 0.438-0.063s0.125-0.063 0.25-0.125c0.063 0 0.188-0.063 0.25-0.063 0.125 0 0.188 0 0.188 0 0.063-0.063 0.25-0.063 0.688-0.063 0.813 0.063 0.75 0 1.063 0.688 0.25 0.688 0.563 1.313 0.813 1.625 0.188 0.188 0.625 0.625 1.063 0.938 0 0.063 0.063 0.125 0.063 0.125 0 0.063 0.063 0.063 0.063 0.063s0.063 0 0 0.063c0 0 0 0.063 0.063 0.063 0 0 0 0.063-0.063 0.125-0.063 0.125-0.063 0.938 0.063 1 0 0.063 0 0.125-0.125 0.188-0.063 0.063-0.125 0.125-0.125 0.125-0.063 0-0.5 0.5-0.5 0.563s-0.125 0.188-0.188 0.188c-0.063 0-0.188 0.063-0.25 0.125-0.063 0.125-0.188 0.188-0.188 0.188-0.063 0-0.125 0-0.188 0.063s-0.188 0.125-0.313 0.125c-0.188 0.063-0.188 0.063-0.563 0.688-0.938 1.563-1.125 2.188-1 2.938 0 0.313 0.313 1.375 0.375 1.563 0.063 0.063 0.188 0.063 0.313-0.125 0.063-0.063 0.125-0.125 0.063-0.188 0 0 0-0.063 0.063-0.125 0.125-0.063 0.125-0.188 0.25-0.438 0-0.125 0.063-0.188 0.063-0.188 0.125 0 0.125-0.125 0.188-0.688 0-0.688 0.125-1.125 0.25-1.313 0.063-0.125 0.438-0.438 1.063-0.813 0.375-0.25 0.625-0.313 1.125-0.5 0.688-0.25 1.188-0.438 1.5-0.625 0.25-0.188 0.625-0.5 0.813-0.688 0.188-0.25 0.5-0.625 0.563-0.625s0.875 1.563 1.188 2.188c0.125 0.25 0.25 0.5 0.25 0.688 0.063 0.125 0.063 0.313 0.125 0.313 0 0.063 0.063 0.188 0.063 0.313s0.063 0.25 0.063 0.25c0.188 0.125 0.063 0.813-0.188 1.375s-0.688 1.25-0.75 1.25c0 0-0.063 0-0.063 0 0 0.063 0 0.125-0.063 0.125 0 0.063-0.063 0.188-0.063 0.25v0.188h0.438c0.25 0 0.438 0 0.5-0.063 0 0 0.188 0 0.438 0 0.375 0 0.563-0.063 0.563-0.188 0 0 0.063-0.063 0.063-0.125 0.063 0 0.125-0.125 0.125-0.25s0.063-0.25 0.063-0.313c0.063-0.063 0.063-0.25 0.125-0.5 0-0.25 0-0.5 0.063-0.5 0-0.063 0-0.813 0-2.313 0-1.813 0-2.25 0.063-2.25s0.625 0.063 1.375 0.125c2.5 0.313 3.5 0.313 4.125 0.25 0.188-0.063 0.563-0.188 0.75-0.313 0-0.063 0.125 0.125 0.438 1.125 0.375 0.875 0.438 1.25 0.438 1.75 0 0.375 0 0.438-0.125 0.688-0.125 0.375-0.5 1-0.625 1.125-0.063 0-0.188 0.063-0.313 0.125-0.5 0.188-0.75 0.375-1 0.625-0.25 0.313-0.563 0.75-0.563 0.875 0 0.063 0 0.125 0.25 0.063 0.063 0 0.188 0 0.188 0.063 0.063 0.063 0.25 0.063 0.313 0s0.25-0.063 0.563-0.063l0.5-0.063 0.25-0.25c0.125-0.125 0.25-0.25 0.25-0.313s0.125-0.188 0.25-0.313c0.625-0.625 1.063-1.188 1.063-1.25s0.063-0.125 0.125-0.125c0-0.063 0.125-0.188 0.25-0.313 0.5-0.438 0.75-0.625 0.813-0.625 0.125 0 0.25-0.313 0.125-0.438 0-0.063-0.063-0.188-0.125-0.313-0.063-0.063-0.125-0.125-0.125-0.125-0.125 0-0.125-0.125-0.125-0.938 0-0.563 0-0.813 0.063-0.875s0.25-0.188 0.313-0.188c0.063 0 0.063 0 0.063 0 0-0.125 0.063-0.063 0.25 0.188 0.125 0.25 0.313 0.438 0.438 0.625 0.375 0.25 1.188 0.75 2.5 1.438 0.813 0.375 1.063 0.563 1.063 0.625 0.063 0.063 0.125 0.375 0.188 0.625 0.25 1.5 0.5 1.875 1.375 2.5 0.313 0.188 0.375 0.188 0.5 0.188h0.188v-0.438c-0.063-0.938-0.063-1.188-0.125-1.188-0.188-0.125-0.5-0.438-0.625-0.563-0.188-0.313-0.375-1.063-0.625-2.438-0.125-0.688-0.125-0.75-0.25-0.75-0.063 0-0.188 0-0.25-0.063s-0.125-0.063-0.125-0.063-0.188-0.063-0.313-0.125c-0.188-0.125-0.313-0.25-0.625-0.625l-0.375-0.438 0.063-0.813c0.188-1.938 0.188-2.75 0-3.375-0.125-0.375-0.25-0.625-0.625-1.125-0.188-0.313-0.375-0.563-0.375-0.563s-0.188-0.25-0.375-0.438c-0.25-0.188-0.438-0.438-0.438-0.438 0-0.063 0-0.125-0.063-0.125-0.063-0.063-0.125-0.438-0.188-1.188-0.063-1.063-0.125-1.625-0.313-2.875-0.313-2.125-0.25-2.5 0.188-3.188 0.375-0.5 0.688-0.813 1.188-1.063l0.375-0.188v-0.125c0-0.125 0-0.188 0.063-0.188 0.063-0.125 0-0.313-0.063-0.313s-0.125-0.063-0.125-0.063c0-0.063-0.063-0.125-0.125-0.125 0 0-0.063-0.063-0.063-0.125-0.063-0.125-0.25-0.063-0.313 0.063l-0.063 0.125v-0.188c0-0.063-0.063-0.125-0.125-0.125s-0.125 0-0.125 0z"></path>
</svg>
