<!-- Generated by IcoMoon.io -->
<svg version="1.1" xmlns="http://www.w3.org/2000/svg" width="32" height="32" viewBox="0 0 32 32">
<title>Waste-dumping</title>
<path d="M23.938 0.75c-0.688 0.5-1 1.125-1 2 0 1 0.375 1.5 1.313 2 0.25 0.125 0.5 0.375 0.563 0.438 0.188 0.313 0.125 1.25-0.125 1.5-0.188 0.313-0.813 0.625-1.188 0.625-0.313 0-0.625 0.375-0.563 0.625 0.125 0.313 0.313 0.438 0.813 0.375 1.375-0.188 2.188-1.125 2.188-2.5 0-0.875-0.25-1.375-1-1.813-0.313-0.188-0.688-0.375-0.75-0.5-0.25-0.188-0.313-0.625-0.188-1.125 0.063-0.375 0.188-0.5 0.5-0.813 0.5-0.375 0.563-0.688 0.25-0.938-0.25-0.188-0.438-0.125-0.813 0.125zM14.625 3.125c-0.063 0-0.188 0.125-0.188 0.188-0.125 0.188-0.063 0.375 0.188 1.063l0.313 0.813-0.688 0.375c-0.75 0.313-1.438 0.938-2 1.625l-0.313 0.375v-1.125c0-0.938 0-1.063-0.125-1.188s-0.25-0.188-0.375-0.188c-0.125 0-1.063 0.688-1.188 0.938-0.063 0-0.375 0.063-0.75 0.063-0.875 0-1.063 0.063-1.188 0.313-0.063 0.25 0 0.375 0.688 1.25l0.5 0.625-0.375 0.5c-0.438 0.375-1.063 1.5-1.063 1.75 0 0.063-0.125 0.125-0.625 0.125-0.563 0-0.75 0-0.875 0.125-0.313 0.375-0.063 0.875 0.5 0.875 0.25 0 0.25 0 0.25 0.313 0 0.188 0.063 1.625 0.188 3.188 0.063 1.625 0.125 2.938 0.125 2.938s-0.188-0.063-0.438-0.125c-0.25-0.125-0.625-0.188-0.875-0.25l-0.438-0.125v-1.25c0-1.188 0-1.313-0.125-1.5-0.125-0.063-0.25-0.188-0.313-0.188-0.125 0-0.5 0.25-1 0.5l-0.75 0.5-0.875 0.063c-0.5 0-0.938 0.063-0.938 0.125-0.25 0.188-0.125 0.563 0.438 1.5 0.313 0.5 0.563 0.875 0.563 0.938s-0.25 0.188-0.438 0.375c-0.875 0.688-1.75 2.063-2.188 3.563-0.25 0.688-0.25 0.813-0.25 2.375s0 1.75 0.188 2.25c0.375 1.125 1.125 2.063 2.063 2.438 0.813 0.375 1.563 0.5 3.75 0.5 1.063 0 2.063 0 2.188 0 0.188 0 2.875 0 6.125 0.063 5.625 0 5.813 0 5.938-0.188 0.125-0.125 0.125-0.375 0.188-1.125 0-0.563 0.063-1.063 0.125-1.063 0 0 0.125 0.188 0.188 0.375 0.188 0.5 0.875 1.188 1.438 1.438 0.813 0.438 1.438 0.5 2.75 0.5 1.438 0 2-0.125 2.875-0.563 0.625-0.313 1.063-0.75 1.375-1.375 0.688-1.563 0.125-4.063-1.313-5.625-0.313-0.313-0.75-0.688-1-0.875-0.25-0.125-0.5-0.313-0.5-0.313s0.125-0.375 0.25-0.813c0.375-0.938 0.375-1.125 0.188-1.375-0.188-0.188-0.313-0.188-1.125 0.125l-0.688 0.188-0.5-0.188c-0.563-0.25-0.875-0.25-1 0.063-0.063 0.125 0 0.375 0.125 0.938 0.125 0.438 0.188 0.875 0.188 0.875 0 0.063-0.125 0.188-0.313 0.25-0.938 0.375-1.875 1.438-2.5 2.688l-0.313 0.625v-0.375c0-0.438 0.563-10.563 0.688-11.688l0.063-0.688h0.375c0.438 0 0.75-0.188 0.75-0.5 0-0.125-0.063-0.25-0.188-0.375s-0.25-0.125-0.938-0.125c-0.75 0-0.813 0-0.813-0.188 0-0.5-0.375-1.688-0.75-2.5-0.5-1-1.125-1.813-1.813-2.188-0.25-0.188-0.438-0.313-0.438-0.375s0.125-0.438 0.375-0.875c0.375-0.875 0.438-1.125 0.188-1.313-0.188-0.188-0.25-0.188-1.125 0.063l-0.688 0.25-0.688-0.25c-0.75-0.25-0.938-0.25-1.063-0.125zM17 6.25c0.688 0.25 1.438 1.063 1.938 2 0.313 0.688 0.688 1.813 0.688 2.188v0.188h-3.438l-0.25-0.438c-0.5-0.75-1.563-1.75-2.25-2.125-0.313-0.125-0.563-0.313-0.563-0.375 0-0.125 0.688-0.75 1.188-1.063 0.813-0.563 1.813-0.688 2.688-0.375zM12.563 8.688c0.75 0.25 1.813 1.063 2.25 1.688l0.188 0.25h-5.938l0.313-0.5c0.313-0.688 0.875-1.25 1.375-1.438 0.438-0.25 1.25-0.25 1.813 0zM20.375 11.625c0 0-0.188 3.75-0.438 8.313s-0.5 8.438-0.5 8.563v0.313h-10.188v-0.688c-0.125-1-0.938-15.813-0.938-16.188v-0.313h6.063c3.313 0 6 0 6 0zM4.875 16.813v0.75l-0.5 0.125c-0.313 0-0.563 0.063-0.625 0.063 0-0.063-0.188-0.313-0.313-0.563l-0.313-0.5h0.375c0.25 0 0.5-0.125 0.813-0.313 0.313-0.125 0.563-0.313 0.563-0.313s0 0.375 0 0.75zM6.875 18.875c0.313 0.125 0.625 0.313 0.688 0.375 0.125 0.063 0.188 0.75 0.438 4.75 0.125 2.563 0.25 4.688 0.188 4.688-0.063 0.125-2.938 0.125-3.813 0.063-1.625-0.188-2.188-0.438-2.75-1.313-0.563-0.813-0.75-1.5-0.75-2.875 0-0.938 0.063-1.25 0.25-1.875 0.313-0.938 0.625-1.688 1.125-2.313 0.5-0.75 0.813-1.063 1.563-1.438l0.688-0.313h0.875c0.688 0.063 1 0.125 1.5 0.25zM26 22c0.188 0.063 0.625 0.438 1 0.75 0.938 1 1.438 2.188 1.438 3.563 0 0.875-0.25 1.438-0.813 1.813-0.75 0.563-2.125 0.75-3.625 0.625-1.25-0.188-1.938-0.563-2.313-1.313-0.438-0.875-0.313-2.063 0.313-3.438 0.563-1.125 1.5-2 2.375-2.188 0.375-0.125 1.188 0 1.625 0.188zM10.563 14.75c-0.25 0.125-0.25 0.375 0 4.938 0.125 2.5 0.25 4.625 0.313 4.75 0.125 0.313 0.438 0.375 0.688 0.188 0.313-0.188 0.313 0.125 0-5.313-0.25-4.25-0.25-4.375-0.438-4.5-0.188-0.188-0.438-0.188-0.563-0.063zM14.125 14.813c-0.125 0.188-0.125 0.313-0.125 4.875 0 4.625 0 4.75 0.125 4.875 0.25 0.25 0.5 0.25 0.688 0 0.188-0.125 0.188-0.25 0.188-4.875 0-4.563 0-4.688-0.188-4.875-0.063-0.063-0.25-0.188-0.313-0.188-0.125 0-0.25 0.125-0.375 0.188zM17.563 14.813c-0.063 0.063-0.125 0.188-0.188 0.313 0 0.063-0.125 2.188-0.25 4.688-0.25 4.438-0.25 4.688 0 4.875 0.188 0.125 0.438 0.063 0.563-0.063 0.188-0.188 0.188-0.813 0.438-4.938l0.25-4.75-0.188-0.125c-0.25-0.188-0.438-0.188-0.625 0zM2.375 3.438c-0.313 0.313-0.25 0.563 0.313 0.938 0.375 0.25 0.5 0.625 0.5 1.188s-0.125 0.75-0.625 1.063c-0.938 0.438-1.313 1-1.313 1.875 0 0.75 0.125 1.313 0.563 1.75 0.438 0.5 0.938 0.75 1.625 0.813 0.375 0.063 0.5 0.063 0.625-0.063 0.313-0.313 0.125-0.875-0.375-0.875-0.875 0-1.625-0.875-1.5-1.75 0.125-0.375 0.25-0.563 0.875-0.938 0.563-0.313 0.688-0.438 1-0.938 0.125-0.313 0.188-0.5 0.125-1.063-0.063-0.875-0.25-1.375-0.875-1.813-0.438-0.375-0.688-0.438-0.938-0.188zM27.5 7.813c-0.75 0.5-1 1.125-1 2.063s0.313 1.438 1.25 1.938c0.25 0.188 0.563 0.375 0.625 0.438 0.188 0.313 0.125 1.25-0.125 1.563-0.188 0.25-0.813 0.563-1.188 0.563-0.313 0-0.625 0.375-0.563 0.625 0.063 0.313 0.25 0.438 0.75 0.375 1.438-0.188 2.25-1.063 2.25-2.5-0.063-0.875-0.313-1.375-1.063-1.813-0.313-0.188-0.625-0.375-0.75-0.5-0.188-0.188-0.25-0.625-0.125-1.125 0.063-0.375 0.125-0.5 0.5-0.75 0.438-0.438 0.563-0.75 0.188-1-0.25-0.188-0.375-0.125-0.75 0.125z"></path>
</svg>
