<!-- Generated by IcoMoon.io -->
<svg version="1.1" xmlns="http://www.w3.org/2000/svg" width="26" height="32" viewBox="0 0 26 32">
<title>Waterbird</title>
<path d="M20.943 5.028c-0.569-0.244-1.031-0.477-1.477-0.732l0.072 0.038c-0.287-1.498-1.18-1.661-1.559-1.661-0.896 0-1.866 0.804-2.12 1.759-0.133 0.564-0.21 1.21-0.21 1.875 0 0.231 0.009 0.46 0.027 0.686l-0.002-0.030c0.011 0.167 0.018 0.362 0.018 0.558 0 0.334-0.018 0.665-0.054 0.989l0.004-0.040c-0.156 1.098-1.249 2.624-1.792 3.034-0.256 0.197-0.888 0.287-1.554 0.381-0.656 0.077-1.245 0.198-1.815 0.365l0.077-0.019c-1.157 0.374-3.389 3.668-3.901 4.424-0.174 0-0.486 0-0.783 0.044-0.435 0.044-1.452 0.187-1.464 0.573 0 0.090 0.031 0.238 0.256 0.302v0c-0.050 0.074-0.080 0.166-0.080 0.265 0 0.077 0.018 0.15 0.051 0.214l-0.001-0.003c0.032 0.048 0.074 0.087 0.124 0.114l0.002 0.001c-0.159 0.135-0.336 0.267-0.519 0.389l-0.021 0.013c-0.063 0.047-0.104 0.122-0.104 0.206 0 0.066 0.025 0.126 0.065 0.171l-0-0c0.074 0.087 0.297 0.236 0.922 0.236 0.396-0.007 0.777-0.046 1.148-0.114l-0.043 0.007c0.191-0.033 0.41-0.051 0.634-0.051 0.005 0 0.009 0 0.014 0h-0.001c1.207 0.024 2.317 0.425 3.221 1.089l-0.016-0.011c0.538 0.425 0.44 1.62 0.346 2.12-0.463 0.571-0.586 0.768-0.512 0.988 0.040 0.115 0.135 0.202 0.254 0.227l0.002 0c0.042 0.010 0.091 0.015 0.14 0.015 0.005 0 0.009-0 0.014-0h-0.001c0.097 0 0.256 0 0.412-0.023s0.435-0.033 0.63-0.033c0.019-0.001 0.042-0.002 0.065-0.002 0.083 0 0.164 0.011 0.241 0.032l-0.006-0.002c0.086 0.040 0.158 0.080 0.227 0.125l-0.007-0.004c0.136 0.1 0.304 0.164 0.486 0.177l0.003 0c0.071-0 0.138-0.013 0.201-0.035l-0.004 0.001c0.152-0.055 0.27-0.173 0.324-0.321l0.001-0.004c0.044-0.095 0.054-0.118 0.212-0.131 0.087 0 0.284-0.023 0.353-0.189-0 0.006-0 0.012-0 0.019 0 0.074 0.020 0.144 0.055 0.203l-0.001-0.002c0.060 0.099 0.166 0.164 0.288 0.164 0.001 0 0.003 0 0.004-0h-0c0.075-0.001 0.145-0.020 0.207-0.052l-0.003 0.001c0.211-0.092 0.457-0.145 0.715-0.145 0.030 0 0.060 0.001 0.090 0.002l-0.004-0c0.443 0.008 0.868 0.067 1.275 0.17l-0.039-0.008c0.020 0.005 0.042 0.009 0.065 0.009 0.132 0 0.24-0.1 0.254-0.228l0-0.001c0-0.023 0.046-0.138 0.655-0.256 0.072-0.015 0.125-0.026 0.151-0.036 0.098-0.037 0.17-0.122 0.187-0.226l0-0.002c0.023-0.202-0.095-0.274-0.591-0.573-0.292-0.177-0.691-0.42-1.108-0.717-0.268-0.155-0.445-0.44-0.445-0.767 0-0.123 0.025-0.241 0.071-0.347l-0.002 0.006c5.614-3.482 4.326-7.342 3.558-9.654-0.525-1.577-0.361-2.816 0.494-3.663 0.076-0.075 0.181-0.121 0.297-0.121 0.017 0 0.034 0.001 0.051 0.003l-0.002-0c0.079 0 0.164 0 0.256 0s0.256 0.018 0.394 0.018c0.003 0 0.007 0 0.011 0 0.203 0 0.401-0.021 0.592-0.060l-0.019 0.003c0.499-0.1 0.819-0.379 0.858-0.75s-0.253-0.768-0.814-1.001zM12.421 23.142c-0.008 0.015-0.015 0.033-0.020 0.052l-0 0.002h-0.036c-0.086-0.020-0.162-0.057-0.227-0.106l0.002 0.001c-0.080-0.051-0.173-0.101-0.27-0.145l-0.014-0.006c-0.127-0.046-0.274-0.072-0.427-0.072-0.030 0-0.060 0.001-0.089 0.003l0.004-0c-0.212 0-0.456 0.018-0.668 0.033l-0.182 0.013c0.069-0.097 0.177-0.236 0.338-0.435 0.024-0.030 0.042-0.066 0.051-0.106l0-0.002c0.058-0.267 0.091-0.574 0.091-0.889 0-0.375-0.047-0.74-0.136-1.087l0.007 0.030h0.568c-0.088 0.135-0.152 0.295-0.181 0.466l-0.001 0.007c-0.006 0.046-0.009 0.098-0.009 0.151 0 0.322 0.122 0.616 0.322 0.838l-0.001-0.001c0.307 0.374 0.665 0.692 1.067 0.947l0.018 0.011c-0.093 0.077-0.164 0.176-0.206 0.29l-0.002 0.005zM13.929 21.862c-0.186 0.295-0.342 0.634-0.451 0.994l-0.008 0.030c-0.023-0.143-0.169-0.23-0.333-0.328-0.463-0.261-0.856-0.589-1.18-0.976l-0.005-0.007c-0.129-0.135-0.208-0.318-0.208-0.519 0-0.024 0.001-0.049 0.003-0.072l-0 0.003c0.062-0.25 0.207-0.46 0.404-0.602l0.003-0.002 0.023-0.018c0.21-0.173 0.482-0.277 0.778-0.277 0.016 0 0.031 0 0.046 0.001l-0.002-0c0.352 0.010 0.684 0.090 0.984 0.227l-0.016-0.006c0.338 0.673-0.041 1.556-0.038 1.556zM15.36 21.76c0.43 0.307 0.84 0.556 1.139 0.737v0c-0.217 0.058-0.402 0.176-0.542 0.334l-0.001 0.001c-0.345-0.077-0.742-0.125-1.15-0.131l-0.004-0c-0.013-0-0.029-0-0.045-0-0.257 0-0.506 0.037-0.742 0.105l0.019-0.005c0.119-0.285 0.238-0.521 0.371-0.748l-0.016 0.029c0.142-0.323 0.225-0.7 0.225-1.096 0-0.23-0.028-0.453-0.080-0.667l0.004 0.019h0.192c-0.013 0.072-0.020 0.154-0.020 0.238 0 0.495 0.257 0.93 0.645 1.179l0.006 0.003zM18.34 10.752c0.389 1.165 0.876 2.627 0.586 4.211-0.036-0.1-0.131-0.171-0.241-0.171-0.102 0-0.19 0.060-0.231 0.146l-0.001 0.002c-0.023 0.054-0.050 0.1-0.081 0.143l0.001-0.002c-0.035-0.041-0.064-0.087-0.088-0.137l-0.002-0.004c-0.041-0.090-0.13-0.151-0.233-0.151-0.002 0-0.003 0-0.005 0h0c-0.105 0.002-0.194 0.066-0.232 0.157l-0.001 0.002c-0.087 0.21-0.23 0.463-0.43 0.494-0.256 0.038-0.602-0.294-0.699-0.415-0.047-0.058-0.119-0.095-0.199-0.095-0.006 0-0.011 0-0.017 0.001l0.001-0c-0.085 0.005-0.158 0.050-0.202 0.117l-0.001 0.001c-0.028 0.046-0.058 0.087-0.093 0.123l0-0c-0.035-0.055-0.063-0.119-0.083-0.187l-0.001-0.005c-0.035-0.103-0.13-0.176-0.243-0.176-0.141 0-0.256 0.115-0.256 0.256 0 0.018 0.002 0.035 0.005 0.052l-0-0.002c0.033 0.128 0.166 0.543 0.512 0.596 0.019 0.003 0.040 0.004 0.062 0.004 0.132 0 0.251-0.053 0.337-0.14v0c0.217 0.218 0.51 0.361 0.835 0.386l0.005 0c0.017 0.001 0.037 0.002 0.058 0.002s0.040-0.001 0.060-0.002l-0.003 0c0.271-0.049 0.497-0.209 0.633-0.431l0.002-0.004c0.078 0.063 0.178 0.101 0.286 0.102h0c0.221-0.017 0.405-0.158 0.485-0.352l0.001-0.004c-0.358 1.469-1.418 3.031-3.86 4.544l-0.799 0.036c-0.353-0.167-0.765-0.269-1.2-0.279l-0.004-0c-0.011-0-0.024-0-0.037-0-0.388 0-0.746 0.127-1.035 0.342l0.005-0.003-1.334 0.015c-0.065-0.087-0.137-0.163-0.218-0.229l-0.002-0.002c-0.977-0.714-2.196-1.152-3.517-1.177l-0.006-0c-0.003 0-0.007 0-0.010 0-0.255 0-0.505 0.021-0.748 0.063l0.026-0.004c-0.322 0.062-0.693 0.098-1.072 0.098-0.027 0-0.055-0-0.082-0.001l0.004 0c0.553-0.435 0.512-0.612 0.468-0.717-0.037-0.116-0.134-0.203-0.254-0.225l-0.002-0c0.036-0.068 0.058-0.15 0.058-0.236 0-0.056-0.009-0.109-0.025-0.159l0.001 0.004c0.199-0.052 0.446-0.099 0.698-0.13l0.029-0.003c0.41-0.041 0.865-0.041 0.87-0.041 0 0 0.001 0 0.001 0 0.089 0 0.167-0.045 0.213-0.114l0.001-0.001c0.722-1.106 2.796-4.042 3.704-4.334 0.47-0.14 1.030-0.254 1.606-0.321l0.048-0.005c0.768-0.11 1.431-0.202 1.792-0.484 0.591-0.456 1.792-2.079 1.974-3.366 0.036-0.306 0.056-0.66 0.056-1.019 0-0.202-0.006-0.403-0.019-0.603l0.001 0.027c-0.015-0.188-0.024-0.407-0.024-0.627 0-0.623 0.070-1.23 0.204-1.813l-0.010 0.054c0.192-0.722 0.965-1.377 1.623-1.377s0.947 0.663 1.060 1.257c-0.18 0.008-0.35 0.045-0.507 0.106l0.011-0.004c0.026-0.076 0.040-0.164 0.041-0.256v-0c0-0.233-0.077-0.42-0.172-0.42s-0.172 0.187-0.172 0.42c-0.001 0.013-0.001 0.027-0.001 0.042 0 0.126 0.038 0.244 0.103 0.342l-0.001-0.002c-0.052 0.038-0.096 0.082-0.135 0.132l-0.001 0.002c-0.3 0.407-0.814 1.134-0.814 1.134-0.030 0.041-0.048 0.093-0.048 0.149 0 0.119 0.081 0.219 0.192 0.248l0.002 0s0.704 0.177 1.28 0.394c-1.103 1.211-0.883 2.86-0.492 4.027zM20.792 6.282c-0.162 0.028-0.348 0.045-0.539 0.045-0.106 0-0.211-0.005-0.314-0.015l0.013 0.001c-0.105 0-0.2-0.013-0.289-0.013-0.006-0-0.013-0-0.020-0-0.118 0-0.232 0.018-0.339 0.051l0.008-0.002c-0.338-0.144-0.764-0.293-1.2-0.416l-0.080-0.019c0.174-0.256 0.422-0.591 0.596-0.827 0.128-0.174 0.691-0.169 1.070-0.097 0.271 0.141 0.632 0.32 1.055 0.512 0.364 0.156 0.512 0.361 0.512 0.494s-0.212 0.243-0.474 0.294zM13.1 15.27c-0.090 0.041-0.151 0.13-0.151 0.234 0 0.041 0.010 0.079 0.026 0.114l-0.001-0.002c0.028 0.076 0.045 0.163 0.045 0.254 0 0.161-0.051 0.31-0.138 0.432l0.002-0.002c-0.305 0.468-1.398 1.257-5.307 1.257-0.141 0-0.256 0.115-0.256 0.256s0.115 0.256 0.256 0.256v0c3.187 0 5.12-0.512 5.75-1.508 0.13-0.194 0.208-0.433 0.208-0.69 0-0.17-0.034-0.332-0.095-0.48l0.003 0.008c-0.041-0.090-0.13-0.151-0.234-0.151-0.039 0-0.075 0.009-0.108 0.024l0.002-0.001zM17.388 4.275c0 0.232-0.077 0.42-0.172 0.42s-0.172-0.188-0.172-0.42c0-0.232 0.077-0.42 0.172-0.42s0.172 0.188 0.172 0.42z"></path>
</svg>
