<!-- Generated by IcoMoon.io -->
<svg version="1.1" xmlns="http://www.w3.org/2000/svg" width="26" height="32" viewBox="0 0 26 32">
<title>Waterbuck</title>
<path d="M4.938 14.775l0.734-0.785 2.352-1.604 0.329-0.629 1.067-0.392-0-0.189-1.519-0.135-1.080-0.481-0.624-0.684-0.35-1.114 0.56 0.989 0.617 0.497 0.609 0.229 0.337 0.041-0.118-0.557-0.27-0.524-0.369-0.6-0.542-0.278 0.776 0.178 0.54 0.531 0.405 0.625 0.405 0.472 0.456 0.144 0.688-0.051 1.886-1.13 0.819-1.139 0.143-2.261 0.524-1.443 1.173-1.452-0.818 1.747-0.101 1.316 0.613 1.65 0.248 0.123 1.283-0.869 0.996-1.545 0.27-1.874-0.27-1.207-0.549-1.081 0.768 0.937 0.557 1.435 0.101 1.966-0.937 1.865-1.047 1.013-1.587 1.063-1.612 0.76-1.528 0.498-0.151 0.304 1.876-0.4 2.208-0.065-1.681 1.546 0.501 0.042 1.956 2.193-0.573-0.219 2.346 2.971-1.249-0.591 4.558 4.456-1.603-0.438-3.933-0.625 1.908 1.62-2.076-0.642-1.718 0.034-1.144 0.608-0.752 2.009-0.051-1.333-1.485 2.009-0.183-4.293-0.425 0.731-0.236-3.106 0.197-0.893 1.626-0.402 1.304-0.468 0.556-1.159-0.379-0.994 0.167 0.95-0.546 0.922-1.217 0.369-1.696 0.317-1.443-0.051-0.644 0.365-0.597 0.040-0.861-0.595-0.146-0.86z"></path>
</svg>
