<!-- Generated by IcoMoon.io -->
<svg version="1.1" xmlns="http://www.w3.org/2000/svg" width="32" height="32" viewBox="0 0 32 32">
<title>Water-trough</title>
<path d="M24.063 24.438h-16.125c-1.625 0-3-1.313-3.313-3.25l-1.938-12 1.625 0.375 4.875 1.563 7.25 0.813 7.625-1.25 5.25-1.313-1.938 11.813c-0.25 1.875-1.625 3.25-3.313 3.25zM16 3.563c-8.688 0-15.688 1.813-15.688 4.25 0 2.375 7 4.188 15.688 4.188s15.688-1.875 15.688-4.25c0-2.438-7-4.188-15.688-4.188zM16 10.813c-3.063 0-5.875-0.188-8.188-0.625-3.438-0.5-5.688-1.438-5.688-2.438 0-1.75 6.188-3.063 13.813-3.063 7.688 0 13.813 1.375 13.813 3.063 0 1.625-6.063 3.063-13.75 3.063z"></path>
</svg>
