<svg xmlns="http://www.w3.org/2000/svg" xmlns:xlink="http://www.w3.org/1999/xlink" viewBox="0 0 73 125" version="1.1" x="0px" y="0px"><title>gun permit</title><desc>Created with Sketch.</desc><g stroke="none" stroke-width="1" fill="none" fill-rule="evenodd"><g transform="translate(-3451.000000, -9014.000000)" fill="#000000" fill-rule="nonzero"><path d="M3488.96914,9047.24598 C3487.98798,9047.51684 3487.28318,9048.44751 3487.28318,9049.53725 L3487.28318,9049.81949 C3487.28318,9051.11777 3488.28354,9052.19165 3489.50486,9052.19165 L3491.56183,9052.19165 C3492.8394,9052.19165 3493.83842,9051.11915 3493.83976,9049.81949 L3493.83976,9049.53725 C3493.83976,9048.24034 3492.8394,9047.16647 3491.61674,9047.16647 L3490.83832,9047.16647 C3489.3741,9048.74506 3490.89358,9051.00626 3490.89358,9051.00626 C3490.89358,9051.23067 3490.50523,9051.23067 3490.22668,9051.00626 C3490.22668,9051.00626 3488.40882,9049.592 3488.96914,9047.24598 Z M3507.43774,9038 C3507.68171,9038 3507.92484,9038.02857 3508.16216,9038.08512 C3509.84104,9038.48521 3510.87771,9040.17054 3510.47763,9041.84942 C3509.93981,9044.10627 3507.92313,9045.69884 3505.60308,9045.69884 L3502.18097,9045.69884 C3499.61261,9045.69884 3497.38668,9047.47755 3496.82009,9049.98264 C3496.2535,9052.48772 3494.02756,9054.26643 3491.4592,9054.26643 L3484.83919,9054.26643 L3482.61751,9061.33609 C3482.3952,9062.1828 3481.61715,9062.74727 3480.78284,9062.74727 L3473.45088,9062.69082 C3473.45088,9062.69082 3472.11706,9062.63438 3471.89476,9060.99741 C3471.78361,9060.09425 3472.72773,9057.94926 3472.72773,9057.94926 L3475.56141,9049.65152 C3475.83862,9048.80344 3475.39402,9047.90028 3474.56105,9047.6745 C3473.00627,9047.27937 3471.22785,9048.12607 3471.00555,9046.31976 C3470.83949,9044.6828 3474.4499,9044.28767 3475.00566,9044.06188 C3475.33911,9043.89254 3475.45026,9041.66907 3475.50517,9040.93525 C3474.95075,9040.76591 3474.2276,9040.59657 3473.83924,9040.59657 C3473.05984,9040.59657 3472.28312,9039.80631 3473.39463,9039.01605 C3474.50615,9038.22579 3476.83898,9039.74986 3476.83898,9039.74986 L3477.11619,9039.12894 C3477.50589,9038.39513 3478.28395,9038 3479.06067,9038 L3507.43774,9038 Z M3451.01134,9031.87376 C3451.01678,9031.81878 3451.0263,9031.76538 3451.03559,9031.71154 C3451.03899,9031.69253 3451.04058,9031.67308 3451.04443,9031.65407 C3451.05736,9031.58937 3451.07413,9031.52602 3451.0925,9031.46335 C3451.09476,9031.45566 3451.09612,9031.44796 3451.09839,9031.44027 C3451.11789,9031.3767 3451.14079,9031.31448 3451.1655,9031.25339 C3451.16822,9031.24638 3451.17026,9031.23914 3451.1732,9031.23235 C3451.19724,9031.17466 3451.22444,9031.119 3451.25301,9031.0638 C3451.25845,9031.05339 3451.26275,9031.04231 3451.26842,9031.0319 C3451.29495,9030.98235 3451.32465,9030.93507 3451.3548,9030.88778 C3451.36455,9030.8724 3451.37293,9030.85633 3451.38314,9030.84118 C3451.41148,9030.79887 3451.44276,9030.75905 3451.47382,9030.719 C3451.4881,9030.70045 3451.5008,9030.681 3451.51576,9030.6629 C3451.54999,9030.62149 3451.58695,9030.58281 3451.6239,9030.54389 C3451.63773,9030.52941 3451.64997,9030.5138 3451.66403,9030.49955 L3467.53359,9014.66244 C3467.54788,9014.64819 3467.56352,9014.63597 3467.57803,9014.6224 C3467.61702,9014.58552 3467.65579,9014.54864 3467.69728,9014.51448 C3467.71541,9014.49977 3467.73491,9014.48688 3467.75327,9014.47262 C3467.7934,9014.44163 3467.83353,9014.41041 3467.8757,9014.38213 C3467.89089,9014.37217 3467.90698,9014.36357 3467.92217,9014.35385 C3467.96955,9014.32376 3468.01693,9014.29412 3468.06658,9014.26765 C3468.07701,9014.26222 3468.08812,9014.25769 3468.09855,9014.25226 C3468.15364,9014.22376 3468.20964,9014.19661 3468.26745,9014.17262 C3468.27448,9014.16968 3468.28173,9014.16787 3468.28853,9014.16493 C3468.34974,9014.14027 3468.41209,9014.11742 3468.47579,9014.09796 C3468.4835,9014.0957 3468.49121,9014.09434 3468.49892,9014.09208 C3468.56171,9014.07376 3468.62519,9014.05701 3468.69003,9014.04412 C3468.70907,9014.04027 3468.72857,9014.03869 3468.74761,9014.03529 C3468.80134,9014.02602 3468.85507,9014.01652 3468.90994,9014.01109 C3468.9852,9014.00385 3469.0607,9014 3469.13665,9014 L3521.73292,9014 C3522.98503,9014 3524,9015.01312 3524,9016.26244 L3524,9111.73756 C3524,9112.98688 3522.98503,9114 3521.73292,9114 L3453.26708,9114 C3452.0152,9114 3451,9112.98688 3451,9111.73756 L3451,9032.09955 C3451,9032.02376 3451.00385,9031.94842 3451.01134,9031.87376 Z M3466.86957,9021.72466 L3458.74049,9029.8371 L3466.86957,9029.8371 L3466.86957,9021.72466 Z M3519.46584,9109.47511 L3519.46584,9018.52489 L3471.40373,9018.52489 L3471.40373,9032.09955 C3471.40373,9033.34887 3470.38853,9034.36199 3469.13665,9034.36199 L3455.53416,9034.36199 L3455.53416,9109.47511 L3519.46584,9109.47511 Z M3508.66898,9073.04082 L3468.58699,9073.04082 C3467.15549,9073.04082 3466.03075,9071.91837 3466.03075,9070.4898 C3466.03075,9069.06122 3467.15549,9068.04082 3468.58699,9068.04082 L3508.66898,9068.04082 C3510.10048,9068.04082 3511.12298,9069.06122 3511.12298,9070.4898 C3511.12298,9071.91837 3510.10048,9073.04082 3508.66898,9073.04082 Z M3508.66898,9094.04082 L3468.58699,9094.04082 C3467.15549,9094.04082 3466.03075,9092.91837 3466.03075,9091.4898 C3466.03075,9090.06122 3467.15549,9089.04082 3468.58699,9089.04082 L3508.66898,9089.04082 C3510.10048,9089.04082 3511.12298,9090.06122 3511.12298,9091.4898 C3511.12298,9092.91837 3510.10048,9094.04082 3508.66898,9094.04082 Z M3488.66898,9103.04082 L3468.58699,9103.04082 C3467.15549,9103.04082 3466.03075,9101.91837 3466.03075,9100.4898 C3466.03075,9099.06122 3467.15549,9098.04082 3468.58699,9098.04082 L3488.66898,9098.04082 C3490.10048,9098.04082 3491.12298,9099.06122 3491.12298,9100.4898 C3491.12298,9101.91837 3490.10048,9103.04082 3488.66898,9103.04082 Z M3508.66898,9082.97959 L3468.58699,9082.97959 C3467.15549,9082.97959 3466.03075,9081.95918 3466.03075,9080.53061 C3466.03075,9079.10204 3467.15549,9077.97959 3468.58699,9077.97959 L3508.66898,9077.97959 C3510.10048,9077.97959 3511.12298,9079.10204 3511.12298,9080.53061 C3511.12298,9081.95918 3510.10048,9082.97959 3508.66898,9082.97959 Z"/></g></g><text x="0" y="115" fill="#000000" font-size="5px" font-weight="bold" font-family="'Helvetica Neue', Helvetica, Arial-Unicode, Arial, Sans-serif">Created by Silviu Ojog</text><text x="0" y="120" fill="#000000" font-size="5px" font-weight="bold" font-family="'Helvetica Neue', Helvetica, Arial-Unicode, Arial, Sans-serif">from the Noun Project</text></svg>