<!-- Generated by IcoMoon.io -->
<svg version="1.1" xmlns="http://www.w3.org/2000/svg" width="32" height="32" viewBox="0 0 32 32">
<title>Weasel</title>
<path d="M7.75 23.25c1.375-0.125 2.063-1.313 2.375-2.063-0.25-0.375-0.438-0.75-0.563-1.125-0.375 0.875-1 2-2.625 2.188-0.5 0.063-1.125 0.125-1.875 0.125-1.5 0.063-3.625 0.188-4.063 0.813 0.5 0.188 2.938 0.313 6.75 0.063zM10.563 21.063l0.063 0.063c0 0.063 0.063 0.125 0.125 0.188 0.375 0.688 0.75 1.375 1.125 2.063 0.125 0.25 0.438 0.438 0.813 0.438h3.563c0.188 0 0.313-0.063 0.375-0.188 0-0.063 0.063-0.25-0.125-0.375-0.25-0.25-0.625-0.375-1.125-0.5-0.188 0-0.375-0.125-0.375-0.313-0.063-0.188-0.063-0.375 0.125-0.563 0.813-0.813 1.25-1.5 0.875-2.5-0.313-0.938-1.375-2.125-2.375-2.313-0.125 0-0.188-0.125-0.188-0.25s0.125-0.25 0.313-0.188c1 0.188 1.938 1.063 2.438 2 0.563-0.25 1.188-0.375 1.875-0.375 1.125 0 2.313 0.375 3.063 0.813 0.438 0.188 0.875 0.563 0.875 0.938v3c0 0.5 0.375 0.875 0.875 0.875h2.25c0.125 0 0.125-0.063 0.125-0.063 0.063-0.063 0.063-0.125-0.063-0.188-0.375-0.188-0.938-0.313-1.188-0.375-0.313-0.063-0.5-0.375-0.438-0.688 0.313-1.625 0.625-3.375 1.313-4.063v0c0.688-0.688 1.813-1.813 2.188-3.313 0-0.063 0-0.125 0.063-0.25 0.188-0.875 0.5-2.313 2.188-2.75 1.563-0.438 1.688-1.063 1.688-1.063v0c0.063-0.25-0.125-0.438-0.688-0.875-0.125-0.125-0.25-0.188-0.375-0.313-0.188-0.125-0.313-0.313-0.5-0.438-0.688-0.688-1.438-1.375-3-1.375-1.938 0-2.625 1.625-2.938 3-0.063 0.563-0.375 0.938-0.875 1.188-0.75 0.313-1.688 0.063-2.313-0.313-0.063-0.063-0.188-0.125-0.313-0.188-1.063-0.75-3.313-2.25-6.25-1.563-3.125 0.813-4.625 4.5-4.5 6.25 0.063 1.063 0.25 1.938 0.563 2.813 0.188 0.563 0.438 1.125 0.75 1.75zM27.938 9.813c0.188 0 0.438 0.188 0.438 0.438s-0.25 0.5-0.438 0.5c-0.25 0-0.5-0.25-0.5-0.5s0.25-0.438 0.5-0.438zM25.188 8.813c0.75-0.688 1.688-0.313 2.063-0.063 0.125 0.063 0.125 0.25 0.063 0.313-0.063 0.125-0.25 0.125-0.375 0.063 0 0-0.813-0.5-1.438 0.063-0.125 0.125-0.188 0.313-0.188 0.438 0 0.313 0.313 0.625 0.438 0.688 0.125 0.125 0.125 0.25 0.063 0.375-0.063 0.063-0.125 0.063-0.188 0.063s-0.125 0-0.188-0.063c0 0-0.563-0.438-0.625-1.063 0-0.25 0.125-0.563 0.375-0.813z"></path>
</svg>
