<svg xmlns="http://www.w3.org/2000/svg" version="1.1" viewBox="-5.0 -10.0 110.0 135.0">
 <path d="m21.113 67.504c-0.4375 0.39844-0.83984 0.76953-1.1406 1.0469v24.293l11.375 3.8047c0.71875 0.23437 1.3945 0.40625 2.0781 0.51562 0.68359 0.10547 1.3867 0.15234 2.1445 0.14844l19.875-0.13281c0.082032 0 0.17969-0.015626 0.28906-0.039063 0.74609-0.16406 1.5117-0.78906 2.1055-1.6523 0.625-0.90625 1.0312-2.0391 1-3.1523-0.003906-0.23047-0.03125-0.47656-0.085938-0.73047-0.3125-1.4414 0.4375-2.2422 0.82812-2.6523v0h0.003907c0.050781-0.070313 0.10547-0.13672 0.17578-0.19922l0.066406-0.066406c0.91406-0.84375 2.7031-2.4883 1.6836-6.5352-0.15234-0.5 0.050781-1.0586 0.51562-1.3438 0.69141-0.41016 1.0195-1.3203 1.0625-2.6211 0.050781-1.7109-0.39844-3.9648-1.2344-6.5977-0.13672-0.39062-0.066407-0.83203 0.22656-1.1641 0.40625-0.45703 0.77734-1.4961 0.89844-2.7109 0.085937-0.89453 0.023437-1.8438-0.29688-2.6719-0.29688-0.74609-0.8125-1.3984-1.6406-1.793s-1.9727-0.55859-3.5312-0.37109c-3.4258 0.41797-6.875 0.78906-10.305 1.2188-1.1953 0.13281-2.1211-0.027344-2.7852-0.35156-0.58594-0.28125-0.98828-0.68359-1.2344-1.1562-0.25391-0.48828-0.32422-1.0312-0.22656-1.5703 0.097656-0.57422 0.39453-1.1289 0.85547-1.5859 0.99219-0.99219 2.168-3.1484 3.125-5.6094 0.91016-2.3477 1.5977-4.9297 1.7227-7.0039 0.24219-4.1016-1.0039-6.6562-2.4727-7.7812-0.42969-0.32812-0.85938-0.51562-1.2539-0.57422-0.32812-0.042969-0.62891 0.003906-0.86719 0.14844-0.48437 0.28516-0.80078 0.98047-0.75781 2.1094 0.015625 0.14844 0 0.29688-0.042969 0.44922l-2.1875 7.2539c-0.078125 0.25781-0.24219 0.48828-0.47656 0.64062l-5.7734 3.8164c-0.91016 0.59766-1.707 1.2109-2.4414 1.8867-0.74609 0.68359-1.4258 1.4258-2.0938 2.2695l-5.1367 6.5c-0.76953 0.96875-2.6172 2.6523-4.043 3.9531zm9.4453-46.707c0-1.0547 0.85938-1.9141 1.9141-1.9141h7.5078c1.0547 0 1.9141 0.85938 1.9141 1.9141s-0.85938 1.9141-1.9141 1.9141h-7.5078c-1.0547 0-1.9141-0.85938-1.9141-1.9141zm68.883 0c0-1.0547-0.85938-1.9141-1.9141-1.9141h-7.5078c-1.0547 0-1.9141 0.85938-1.9141 1.9141s0.85938 1.9141 1.9141 1.9141h7.5078c1.0547 0 1.9141-0.85938 1.9141-1.9141zm-3.125-12.258c0.74219 0.74219 0.74219 1.957 0 2.7031l-5.3125 5.3086c-0.74219 0.74609-1.957 0.74609-2.7031 0-0.74609-0.74609-0.74609-1.9648 0-2.7031l5.3086-5.3086c0.74609-0.74609 1.9648-0.74609 2.7109 0zm-62.625 0c-0.74609 0.74219-0.74609 1.957 0 2.7031l5.3086 5.3086c0.74609 0.74609 1.9648 0.74609 2.7031 0 0.74609-0.74609 0.74609-1.9648 0-2.7031l-5.3086-5.3086c-0.74219-0.74609-1.9648-0.74609-2.7031 0zm0 24.52c-0.74609-0.74609-0.74609-1.9648 0-2.7031l5.3086-5.3125c0.74609-0.74219 1.9648-0.74219 2.7031 0 0.74609 0.74609 0.74609 1.9648 0 2.7109l-5.3086 5.3086c-0.74219 0.74609-1.9648 0.74609-2.7031 0zm62.625 0c0.74219-0.74609 0.74219-1.9648 0-2.7031l-5.3125-5.3125c-0.74219-0.74219-1.957-0.74219-2.7031 0-0.74609 0.74609-0.74609 1.9648 0 2.7109l5.3086 5.3086c0.74609 0.74609 1.9648 0.74609 2.7109 0zm-28.254-30.824 3.6211 11.219 11.789-0.023437c0.70703 0 1.3672 0.21484 1.8984 0.60156 0.53906 0.39062 0.94922 0.94141 1.168 1.6172 0.21875 0.66797 0.20703 1.3594 0.003907 1.9922-0.20312 0.62891-0.60938 1.1953-1.1797 1.6133l-9.5469 6.9102 3.6641 11.203c0.21875 0.66797 0.21484 1.3594 0.003906 1.9922-0.20312 0.62891-0.60156 1.1992-1.1719 1.6133-0.57031 0.41016-1.2266 0.62109-1.8906 0.62109s-1.3203-0.20703-1.8906-0.625l-9.5273-6.9492-9.5273 6.9492c-0.57031 0.41797-1.2344 0.625-1.8906 0.625-0.66797 0-1.3281-0.20703-1.8984-0.62109-0.56641-0.41016-0.96875-0.98047-1.1719-1.6133-0.20312-0.62891-0.20703-1.3203 0.003906-1.9922l3.668-11.203-9.5547-6.9102c-0.57031-0.41797-0.96875-0.98047-1.1797-1.6133-0.20312-0.62891-0.21484-1.3203 0.003906-1.9922 0.21875-0.67578 0.62891-1.2266 1.168-1.6172 0.53125-0.39062 1.1914-0.60156 1.8984-0.60156l11.789 0.023437 3.6211-11.219c0.21875-0.66797 0.62891-1.2227 1.168-1.6172 0.53906-0.39063 1.1953-0.61328 1.8984-0.61328 0.69531 0 1.3555 0.22656 1.8906 0.61328 0.53906 0.39453 0.94922 0.94922 1.168 1.6172zm1.6562 12.746-3.8828-12.027c-0.058594-0.19141-0.17188-0.34375-0.3125-0.44922-0.13672-0.097656-0.31641-0.15234-0.51953-0.15234s-0.38281 0.054688-0.52734 0.15234c-0.13672 0.10547-0.25391 0.25781-0.3125 0.44922l-3.8828 12.027c-0.15234 0.47266-0.59375 0.8125-1.1133 0.8125l-12.641-0.023438c-0.19922 0-0.37891 0.058594-0.51953 0.16406-0.14453 0.10547-0.25781 0.25781-0.31641 0.44531s-0.058594 0.37891-0.003906 0.54297c0.054688 0.17188 0.16406 0.32422 0.32812 0.4375l10.238 7.4102c0.39844 0.28906 0.58594 0.81641 0.42969 1.3125l-3.9336 12.016c-0.058594 0.19141-0.058594 0.38281-0.003906 0.54688 0.054687 0.16406 0.16406 0.31641 0.32422 0.43359 0.16406 0.12109 0.34375 0.17969 0.51953 0.17969 0.17578 0 0.35547-0.058593 0.51562-0.17578l10.195-7.4375c0.39844-0.30859 0.96484-0.32422 1.3945-0.015625l10.211 7.4531c0.16016 0.11328 0.33984 0.17578 0.51953 0.17578 0.17188 0 0.35156-0.058593 0.51562-0.17969 0.16406-0.11328 0.27344-0.26953 0.32422-0.43359 0.054687-0.16406 0.054687-0.35547-0.003906-0.54688l-3.9141-11.973c-0.17578-0.48438-0.023437-1.0352 0.41016-1.3555l10.242-7.4102c0.16016-0.11328 0.26953-0.26953 0.32422-0.4375 0.054687-0.16406 0.054687-0.35547-0.003907-0.54297-0.058593-0.1875-0.17187-0.33984-0.3125-0.44531-0.14844-0.10547-0.32812-0.16406-0.52734-0.16406l-12.586 0.023438c-0.51562 0.027343-1.0039-0.29688-1.168-0.8125zm-59.453 74.551c1.6523 0 2.9883 1.332 2.9883 2.9844s-1.3398 2.9844-2.9883 2.9844c-1.6523 0-2.9844-1.332-2.9844-2.9844s1.332-2.9844 2.9844-2.9844zm9.4453-23.91c1.3477-1.2266 3.0117-2.7539 3.6133-3.5156l5.1367-6.5c0.75781-0.96094 1.5195-1.793 2.3398-2.543 0.82812-0.76172 1.7227-1.4492 2.7305-2.1172l5.4219-3.582 2.0117-6.6758c-0.039063-2.0195 0.74609-3.3945 1.9023-4.0859 0.70703-0.41797 1.5312-0.56641 2.3867-0.44531 0.78516 0.10938 1.5977 0.45703 2.3516 1.0312 1.9844 1.5195 3.6836 4.7695 3.3906 9.7773-0.13672 2.3203-0.88672 5.1562-1.8828 7.7109-1.0625 2.7422-2.4336 5.2109-3.6562 6.4219-0.11328 0.11328-0.1875 0.23438-0.20312 0.33984-0.003906 0.03125-0.003906 0.058594 0.003906 0.078125 0.023438 0.042969 0.078126 0.085937 0.17188 0.13281 0.30078 0.14844 0.79687 0.20703 1.5117 0.13281l2.25-0.24609 8.0391-0.96875c2.0273-0.24219 3.6016 0.011719 4.8047 0.58203 1.4375 0.68359 2.3242 1.793 2.8203 3.0586 0.46484 1.1953 0.57031 2.5234 0.44922 3.75-0.13672 1.3438-0.55469 2.6055-1.0703 3.4531 0.8125 2.6602 1.2383 4.9922 1.1797 6.8477-0.050781 1.7383-0.51953 3.1133-1.4844 4.0312 0.98828 4.8906-1.3125 7.0156-2.5156 8.1289l-0.13281 0.14453c-0.10547 0.10547-0.29688 0.3125-0.24609 0.55859 0.082032 0.37109 0.125 0.76172 0.13672 1.1641 0.042969 1.6289-0.52734 3.2578-1.4102 4.5391-0.92188 1.332-2.2031 2.3203-3.5391 2.6094-0.22656 0.050781-0.46484 0.082031-0.72266 0.085937l-19.922 0.13281c-0.87891 0.003906-1.6992-0.050782-2.5156-0.17578-0.81641-0.13281-1.625-0.32812-2.457-0.60937l-10.633-3.5547v0.066406c0 1.2734-0.51953 2.4258-1.3594 3.2617l0.003907 0.003906c-0.83984 0.83203-1.9961 1.3555-3.2695 1.3555h-10.168c-1.2656 0-2.4258-0.51562-3.2617-1.3555l-0.003907-0.011719c-0.83203-0.83984-1.3555-1.9922-1.3555-3.2578v-28.219c0-1.2656 0.51953-2.4258 1.3594-3.2617l0.003906-0.003906c0.83984-0.83984 1.9922-1.3594 3.2578-1.3594h10.168c1.2734 0 2.4297 0.51953 3.2695 1.3594l0.066406 0.070313c0.44922 0.47266 0.80078 1.0352 1.0273 1.6562zm39.855 23.363 0.015625-0.023437h-0.003906c-0.003906 0.011718-0.03125 0.058593-0.011719 0.023437zm-44.219-24.102h-10.168c-0.625 0-1.1953 0.25781-1.6055 0.66797h-0.003907c-0.41016 0.41016-0.66406 0.98047-0.66406 1.6133v28.219c0 0.62891 0.25391 1.1992 0.66406 1.6055l0.003907 0.003907c0.41016 0.41016 0.98047 0.66797 1.6055 0.66797h10.168c0.625 0 1.1953-0.25781 1.6055-0.67578h0.003906c0.41016-0.40625 0.66797-0.97656 0.66797-1.6055v-28.219c0-0.60156-0.23438-1.1562-0.625-1.5625l-0.050781-0.050781c-0.41016-0.41016-0.98047-0.66797-1.6055-0.66797z"/>
<text x="0.0" y="117.5" font-size="5.0" font-weight="bold" font-family="Arbeit Regular, Helvetica, Arial-Unicode, Arial, Sans-serif" fill="#000000">Created by popcornarts</text><text x="0.0" y="122.5" font-size="5.0" font-weight="bold" font-family="Arbeit Regular, Helvetica, Arial-Unicode, Arial, Sans-serif" fill="#000000">from Noun Project</text></svg>