<!-- Generated by IcoMoon.io -->
<svg version="1.1" xmlns="http://www.w3.org/2000/svg" width="32" height="32" viewBox="0 0 32 32">
<title>Wheelbarrow</title>
<path d="M10.188 13c0.125 0.375 0.438 0.688 0.813 0.813l9.438 1.938c0.063 0 0.125 0 0.25 0 0.313 0 0.625-0.125 0.813-0.375l8.563-10.25c0.25-0.313 0.313-0.813 0.188-1.188-0.188-0.375-0.563-0.563-1-0.563h-20c-0.375 0-0.688 0.125-0.875 0.375s-0.25 0.625-0.188 0.938zM26.938 5.5l-6.688 8-8.125-1.688-1.5-6.313zM27.438 15.563c-1.813 0-3.313 1.063-4.063 2.563l-14.563-3.125-2.625-10.813c-0.125-0.5-0.563-0.813-1.063-0.813h-4.063c-0.563 0-1.063 0.438-1.063 1.063 0 0.563 0.5 1.063 1.063 1.063h3.188l2.625 10.688c0.063 0.375 0.375 0.688 0.813 0.813l1.813 0.375 2.75 5.688c0.188 0.375 0.563 0.625 0.938 0.625 0.438 0 0.813-0.25 1-0.625l2-4.25 6.75 1.438c0.063 2.438 2.063 4.375 4.5 4.375 2.5 0 4.563-2 4.563-4.5s-2.063-4.563-4.563-4.563zM13.188 20.125l-1-2.188 1.875 0.438zM27.438 22.5c-1.063 0-2-0.75-2.25-1.75l1.938 0.438c0.063 0 0.125 0 0.25 0 0.5 0 0.938-0.313 1.063-0.875s-0.25-1.125-0.875-1.25l-1.938-0.438c0.438-0.563 1.063-0.875 1.813-0.875 1.313 0 2.375 1.063 2.375 2.375s-1.063 2.375-2.375 2.375z"></path>
</svg>
