<!-- Generated by IcoMoon.io -->
<svg version="1.1" xmlns="http://www.w3.org/2000/svg" width="32" height="32" viewBox="0 0 32 32">
<title>Wild-fire</title>
<path d="M24.455 8.675l0.136-0.908c-1.591 1.137-2.558 3.014-2.883 3.235 0 0-0.499-2.508-2.134-3.87-1.705-1.421-3.726-3.778-1.794-5.982-6.282-0.564-7.652 8.579-8.014 9.001-0.427-1.674-1.916-2.706-1.924-2.74 1.068 3.65-3.849 5.101-3.178 9.137 0.633 3.814 2.804 6.248 5.555 7.564-0.284-1.035-0.025-1.962 0.563-3.278 1.284-2.875 5.362-3.549 3.632-6.56 3.35 1.336 4.601 2.723 4.382 6.379 0.605-0.711 1.374-1.475 1.428-2.442 0 0 1.328 1.952 1.169 3.609-0.081 0.842-0.121 1.801-0.417 2.656 2.397-0.857 4.368-2.319 5.29-4.214 3.52-7.24-2.331-8.118-1.811-11.587z"></path>
<path d="M3.301 26.048c-0.005 0.003-0.011 0.004-0.016 0.006s-0.012 0.002-0.018 0.002c-0.018 0-0.033-0.005-0.044-0.015s-0.016-0.024-0.016-0.042c0-0.017 0.005-0.031 0.016-0.041s0.025-0.016 0.044-0.016c0.006 0 0.012 0.001 0.018 0.002s0.011 0.003 0.016 0.006v0.023c-0.005-0.003-0.011-0.006-0.016-0.007s-0.011-0.003-0.016-0.003c-0.011 0-0.019 0.003-0.024 0.010s-0.009 0.015-0.009 0.026 0.003 0.021 0.009 0.027c0.006 0.006 0.014 0.009 0.024 0.009 0.005 0 0.010-0.001 0.016-0.002s0.010-0.004 0.016-0.008z"></path>
<path d="M3.385 25.994c-0.002-0.001-0.005-0.002-0.007-0.003s-0.005-0.001-0.006-0.001c-0.007 0-0.013 0.003-0.016 0.007s-0.005 0.011-0.005 0.019v0.038h-0.026v-0.083h0.026v0.014c0.003-0.005 0.007-0.009 0.011-0.011s0.010-0.004 0.016-0.004c0.001 0 0.002 0 0.003 0.001h0.005z"></path>
<path d="M3.481 26.012v0.007h-0.062c0 0.006 0.002 0.011 0.006 0.014s0.009 0.004 0.016 0.004c0.006 0 0.011-0.001 0.017-0.002s0.012-0.004 0.018-0.008v0.021c-0.006 0.003-0.013 0.004-0.019 0.005s-0.013 0.002-0.019 0.002c-0.015 0-0.026-0.004-0.035-0.011s-0.012-0.018-0.012-0.032c0-0.013 0.004-0.024 0.012-0.031s0.019-0.012 0.034-0.012c0.013 0 0.024 0.004 0.031 0.012s0.012 0.018 0.012 0.031zM3.453 26.003c0-0.005-0.001-0.009-0.004-0.011s-0.007-0.005-0.011-0.005c-0.005 0-0.010 0.001-0.013 0.004s-0.005 0.007-0.006 0.012z"></path>
<path d="M3.538 26.016c-0.006 0-0.010 0.001-0.013 0.003s-0.004 0.005-0.004 0.008c0 0.003 0.001 0.006 0.004 0.008s0.005 0.003 0.009 0.003c0.005 0 0.009-0.002 0.013-0.005s0.005-0.008 0.005-0.014v-0.003zM3.578 26.006v0.047h-0.026v-0.012c-0.003 0.005-0.007 0.008-0.012 0.011s-0.010 0.004-0.016 0.004c-0.009 0-0.016-0.002-0.021-0.007s-0.008-0.012-0.008-0.020c0-0.009 0.003-0.016 0.010-0.021s0.017-0.007 0.031-0.007h0.016v-0.002c0-0.004-0.002-0.007-0.005-0.009s-0.009-0.003-0.016-0.003c-0.005 0-0.011 0.001-0.016 0.002s-0.009 0.003-0.014 0.004v-0.020c0.006-0.001 0.011-0.002 0.017-0.003s0.011-0.001 0.017-0.001c0.015 0 0.026 0.003 0.032 0.009s0.010 0.015 0.010 0.029z"></path>
<path d="M3.631 25.947v0.024h0.027v0.019h-0.027v0.035c0 0.004 0.001 0.006 0.002 0.008s0.005 0.001 0.009 0.001h0.014v0.019h-0.023c-0.010 0-0.018-0.002-0.022-0.006s-0.006-0.012-0.006-0.022v-0.035h-0.013v-0.019h0.013v-0.024z"></path>
<path d="M3.758 26.012v0.007h-0.062c0 0.006 0.002 0.011 0.006 0.014s0.009 0.004 0.016 0.004c0.006 0 0.011-0.001 0.017-0.002s0.012-0.004 0.018-0.008v0.021c-0.006 0.003-0.013 0.004-0.019 0.005s-0.013 0.002-0.019 0.002c-0.015 0-0.026-0.004-0.035-0.011s-0.012-0.018-0.012-0.032c0-0.013 0.004-0.024 0.012-0.031s0.019-0.012 0.034-0.012c0.013 0 0.024 0.004 0.031 0.012s0.012 0.018 0.012 0.031zM3.73 26.003c0-0.005-0.001-0.009-0.004-0.011s-0.007-0.005-0.011-0.005c-0.005 0-0.010 0.001-0.013 0.004s-0.005 0.007-0.006 0.012z"></path>
<path d="M3.834 25.983v-0.044h0.026v0.115h-0.026v-0.012c-0.004 0.005-0.008 0.008-0.012 0.011s-0.010 0.004-0.016 0.004c-0.010 0-0.018-0.004-0.025-0.012s-0.009-0.019-0.009-0.031 0.003-0.023 0.009-0.031c0.007-0.008 0.015-0.012 0.025-0.012 0.006 0 0.011 0.001 0.015 0.004s0.009 0.006 0.013 0.011zM3.816 26.036c0.006 0 0.010-0.002 0.013-0.006s0.005-0.010 0.005-0.019c0-0.008-0.002-0.014-0.005-0.018s-0.007-0.006-0.013-0.006-0.010 0.002-0.013 0.006-0.004 0.010-0.004 0.018c0 0.008 0.001 0.014 0.004 0.019s0.007 0.006 0.013 0.006z"></path>
<path d="M3.983 26.036c0.005 0 0.009-0.002 0.012-0.006s0.005-0.010 0.005-0.019c0-0.008-0.002-0.014-0.005-0.018s-0.007-0.006-0.012-0.006c-0.006 0-0.010 0.002-0.014 0.006s-0.004 0.010-0.004 0.018c0 0.008 0.001 0.014 0.004 0.019s0.008 0.006 0.014 0.006zM3.965 25.983c0.004-0.005 0.008-0.008 0.012-0.011s0.009-0.004 0.015-0.004c0.010 0 0.019 0.004 0.025 0.012s0.010 0.019 0.010 0.031-0.003 0.023-0.010 0.031c-0.006 0.008-0.015 0.012-0.025 0.012-0.006 0-0.011-0.001-0.015-0.004s-0.008-0.006-0.012-0.011v0.012h-0.026v-0.115h0.026z"></path>
<path d="M4.036 25.971h0.026l0.022 0.056 0.019-0.056h0.026l-0.034 0.091c-0.004 0.009-0.008 0.015-0.013 0.019s-0.010 0.006-0.018 0.006h-0.016v-0.018h0.009c0.004 0 0.007-0.001 0.009-0.002s0.004-0.004 0.005-0.007l0.001-0.003z"></path>
<path d="M4.199 25.943h0.048c0.014 0 0.024 0.003 0.032 0.010s0.011 0.015 0.011 0.026-0.004 0.020-0.011 0.026c-0.008 0.006-0.018 0.009-0.032 0.009h-0.019v0.039h-0.029zM4.227 25.964v0.031h0.016c0.006 0 0.010-0.001 0.013-0.004s0.005-0.007 0.005-0.011c0-0.005-0.002-0.009-0.005-0.011s-0.007-0.004-0.013-0.004z"></path>
<path d="M4.346 26.016c-0.006 0-0.010 0.001-0.013 0.003s-0.004 0.005-0.004 0.008c0 0.003 0.001 0.006 0.004 0.008s0.005 0.003 0.009 0.003c0.005 0 0.009-0.002 0.013-0.005s0.005-0.008 0.005-0.014v-0.003zM4.386 26.006v0.047h-0.026v-0.012c-0.003 0.005-0.008 0.008-0.012 0.011s-0.010 0.004-0.016 0.004c-0.009 0-0.016-0.002-0.021-0.007s-0.008-0.012-0.008-0.020c0-0.009 0.003-0.016 0.010-0.021s0.017-0.007 0.031-0.007h0.016v-0.002c0-0.004-0.002-0.007-0.005-0.009s-0.009-0.003-0.016-0.003c-0.005 0-0.011 0.001-0.016 0.002s-0.009 0.003-0.014 0.004v-0.020c0.006-0.001 0.011-0.002 0.017-0.003s0.011-0.001 0.017-0.001c0.015 0 0.026 0.003 0.032 0.009s0.010 0.015 0.010 0.029z"></path>
<path d="M4.487 25.984c0.003-0.005 0.007-0.009 0.012-0.011s0.010-0.004 0.015-0.004c0.009 0 0.017 0.003 0.021 0.009s0.008 0.014 0.008 0.025v0.051h-0.026v-0.048c0-0.006-0.001-0.010-0.003-0.013s-0.004-0.004-0.008-0.004c-0.005 0-0.009 0.002-0.012 0.006s-0.004 0.010-0.004 0.018v0.041h-0.026v-0.043c0-0.009-0.001-0.015-0.002-0.018s-0.004-0.004-0.009-0.004c-0.005 0-0.009 0.002-0.012 0.006s-0.004 0.010-0.004 0.018v0.041h-0.026v-0.083h0.026v0.012c0.003-0.005 0.007-0.008 0.011-0.011s0.009-0.004 0.014-0.004c0.006 0 0.011 0.001 0.015 0.004s0.008 0.007 0.010 0.011z"></path>
<path d="M4.651 26.012v0.007h-0.062c0 0.006 0.003 0.011 0.006 0.014s0.009 0.004 0.016 0.004c0.006 0 0.011-0.001 0.017-0.002s0.012-0.004 0.018-0.008v0.021c-0.006 0.003-0.013 0.004-0.019 0.005s-0.013 0.002-0.019 0.002c-0.015 0-0.026-0.004-0.035-0.011s-0.012-0.018-0.012-0.032c0-0.013 0.004-0.024 0.012-0.031s0.019-0.012 0.034-0.012c0.013 0 0.024 0.004 0.031 0.012s0.012 0.018 0.012 0.031zM4.623 26.003c0-0.005-0.001-0.009-0.004-0.011s-0.007-0.005-0.011-0.005c-0.005 0-0.010 0.001-0.013 0.004s-0.005 0.007-0.006 0.012z"></path>
<path d="M4.732 25.994c-0.003-0.001-0.005-0.002-0.007-0.003s-0.005-0.001-0.006-0.001c-0.007 0-0.013 0.003-0.016 0.007s-0.005 0.011-0.005 0.019v0.038h-0.026v-0.083h0.026v0.014c0.003-0.005 0.007-0.009 0.011-0.011s0.010-0.004 0.016-0.004c0.001 0 0.002 0 0.003 0.001h0.005z"></path>
<path d="M4.782 26.016c-0.006 0-0.010 0.001-0.013 0.003s-0.004 0.005-0.004 0.008c0 0.003 0.001 0.006 0.004 0.008s0.005 0.003 0.009 0.003c0.005 0 0.009-0.002 0.013-0.005s0.005-0.008 0.005-0.014v-0.003zM4.822 26.006v0.047h-0.026v-0.012c-0.003 0.005-0.008 0.008-0.012 0.011s-0.010 0.004-0.016 0.004c-0.009 0-0.016-0.002-0.021-0.007s-0.008-0.012-0.008-0.020c0-0.009 0.003-0.016 0.010-0.021s0.017-0.007 0.031-0.007h0.016v-0.002c0-0.004-0.002-0.007-0.005-0.009s-0.009-0.003-0.016-0.003c-0.005 0-0.011 0.001-0.016 0.002s-0.009 0.003-0.014 0.004v-0.020c0.006-0.001 0.011-0.002 0.017-0.003s0.011-0.001 0.017-0.001c0.015 0 0.026 0.003 0.032 0.009s0.010 0.015 0.010 0.029z"></path>
<path d="M4.876 25.947v0.024h0.027v0.019h-0.027v0.035c0 0.004 0.001 0.006 0.002 0.008s0.005 0.001 0.009 0.001h0.014v0.019h-0.023c-0.010 0-0.018-0.002-0.022-0.006s-0.006-0.012-0.006-0.022v-0.035h-0.013v-0.019h0.013v-0.024z"></path>
<path d="M3.267 26.090v0.017h-0.014c-0.004 0-0.006 0.001-0.008 0.002s-0.002 0.004-0.002 0.007v0.006h0.022v0.019h-0.022v0.064h-0.027v-0.064h-0.013v-0.019h0.013v-0.006c0-0.009 0.002-0.016 0.008-0.020s0.013-0.006 0.024-0.006z"></path>
<path d="M3.34 26.145c-0.002-0.001-0.005-0.002-0.007-0.003s-0.005-0.001-0.006-0.001c-0.007 0-0.013 0.003-0.016 0.007s-0.005 0.011-0.005 0.019v0.038h-0.026v-0.083h0.026v0.014c0.003-0.005 0.007-0.009 0.011-0.011s0.010-0.004 0.016-0.004c0.001 0 0.002 0 0.003 0.001h0.005z"></path>
<path d="M3.393 26.139c-0.006 0-0.010 0.002-0.014 0.006s-0.004 0.010-0.004 0.018c0 0.008 0.001 0.014 0.004 0.019s0.008 0.006 0.014 0.006 0.010-0.002 0.013-0.006c0.003-0.004 0.005-0.010 0.005-0.019s-0.002-0.014-0.005-0.018c-0.003-0.004-0.007-0.006-0.013-0.006zM3.393 26.12c0.014 0 0.025 0.004 0.034 0.012s0.012 0.018 0.012 0.031c0 0.014-0.004 0.025-0.012 0.032s-0.019 0.011-0.034 0.011-0.026-0.004-0.034-0.011c-0.008-0.008-0.012-0.018-0.012-0.032s0.004-0.024 0.012-0.031c0.008-0.008 0.019-0.012 0.034-0.012z"></path>
<path d="M3.533 26.135c0.003-0.005 0.007-0.009 0.012-0.011s0.010-0.004 0.015-0.004c0.009 0 0.017 0.003 0.021 0.009s0.008 0.014 0.008 0.025v0.051h-0.026v-0.048c0-0.006-0.001-0.010-0.003-0.013s-0.004-0.004-0.008-0.004c-0.005 0-0.009 0.002-0.012 0.006s-0.004 0.010-0.004 0.018v0.041h-0.026v-0.043c0-0.009-0.001-0.015-0.002-0.018s-0.004-0.004-0.009-0.004c-0.005 0-0.009 0.002-0.012 0.006s-0.004 0.010-0.004 0.018v0.041h-0.026v-0.083h0.026v0.012c0.003-0.005 0.007-0.008 0.011-0.011s0.009-0.004 0.014-0.004c0.006 0 0.011 0.001 0.015 0.004s0.007 0.007 0.010 0.011z"></path>
<path d="M3.696 26.098v0.024h0.027v0.019h-0.027v0.035c0 0.004 0.001 0.006 0.002 0.008s0.005 0.001 0.009 0.001h0.014v0.019h-0.023c-0.010 0-0.018-0.002-0.022-0.006s-0.006-0.012-0.006-0.022v-0.035h-0.013v-0.019h0.013v-0.024z"></path>
<path d="M3.822 26.154v0.051h-0.026v-0.039c0-0.007-0-0.012-0.001-0.014s-0.001-0.005-0.001-0.006c-0.001-0.002-0.002-0.003-0.004-0.004s-0.004-0.001-0.006-0.001c-0.006 0-0.010 0.002-0.014 0.006s-0.004 0.010-0.004 0.018v0.041h-0.026v-0.115h0.026v0.044c0.004-0.005 0.008-0.008 0.012-0.011s0.010-0.004 0.015-0.004c0.010 0 0.017 0.003 0.022 0.009s0.007 0.014 0.007 0.025z"></path>
<path d="M3.93 26.163v0.007h-0.062c0 0.006 0.002 0.011 0.006 0.014s0.009 0.004 0.016 0.004c0.006 0 0.011-0.001 0.017-0.002s0.012-0.004 0.018-0.008v0.021c-0.006 0.003-0.013 0.004-0.019 0.005s-0.013 0.002-0.019 0.002c-0.015 0-0.026-0.004-0.035-0.011s-0.012-0.018-0.012-0.032c0-0.013 0.004-0.024 0.012-0.031s0.019-0.012 0.034-0.012c0.013 0 0.024 0.004 0.031 0.012s0.012 0.018 0.012 0.031zM3.902 26.154c0-0.005-0.001-0.009-0.004-0.011s-0.007-0.005-0.011-0.005c-0.005 0-0.010 0.001-0.013 0.004s-0.005 0.007-0.006 0.012z"></path>
<path d="M4.003 26.094h0.032l0.040 0.076v-0.076h0.027v0.111h-0.032l-0.040-0.076v0.076h-0.027z"></path>
<path d="M4.168 26.139c-0.006 0-0.010 0.002-0.014 0.006s-0.004 0.010-0.004 0.018c0 0.008 0.001 0.014 0.004 0.019s0.008 0.006 0.014 0.006 0.010-0.002 0.013-0.006c0.003-0.004 0.005-0.010 0.005-0.019s-0.002-0.014-0.005-0.018c-0.003-0.004-0.007-0.006-0.013-0.006zM4.168 26.12c0.014 0 0.025 0.004 0.034 0.012s0.012 0.018 0.012 0.031c0 0.014-0.004 0.025-0.012 0.032s-0.019 0.011-0.034 0.011-0.026-0.004-0.034-0.011c-0.008-0.008-0.012-0.018-0.012-0.032s0.004-0.024 0.012-0.031c0.008-0.008 0.019-0.012 0.034-0.012z"></path>
<path d="M4.232 26.172v-0.051h0.026v0.054c0 0.003 0.001 0.005 0.002 0.006 0.001 0.002 0.002 0.003 0.004 0.004s0.004 0.001 0.006 0.001 0.010-0.002 0.013-0.006c0.003-0.004 0.005-0.010 0.005-0.018v-0.041h0.026v0.083h-0.026v-0.012c-0.004 0.005-0.008 0.008-0.013 0.011s-0.009 0.004-0.014 0.004c-0.010 0-0.017-0.003-0.022-0.009s-0.007-0.015-0.007-0.026z"></path>
<path d="M4.423 26.154v0.051h-0.026v-0.039c0-0.007-0-0.012-0.001-0.014s-0.001-0.005-0.001-0.006c-0.001-0.002-0.003-0.003-0.004-0.004s-0.004-0.001-0.006-0.001c-0.006 0-0.010 0.002-0.014 0.006s-0.004 0.010-0.004 0.018v0.041h-0.026v-0.083h0.026v0.012c0.004-0.005 0.008-0.008 0.012-0.011s0.010-0.004 0.015-0.004c0.010 0 0.017 0.003 0.022 0.009s0.007 0.014 0.007 0.025z"></path>
<path d="M4.501 26.094h0.048c0.014 0 0.024 0.003 0.032 0.010s0.011 0.015 0.011 0.026-0.004 0.020-0.011 0.026c-0.008 0.006-0.018 0.009-0.032 0.009h-0.019v0.039h-0.029zM4.53 26.115v0.031h0.016c0.006 0 0.010-0.001 0.013-0.004s0.005-0.007 0.005-0.011c0-0.005-0.002-0.009-0.005-0.011s-0.007-0.004-0.013-0.004z"></path>
<path d="M4.673 26.145c-0.003-0.001-0.005-0.002-0.007-0.003s-0.005-0.001-0.006-0.001c-0.007 0-0.013 0.003-0.016 0.007s-0.005 0.011-0.005 0.019v0.038h-0.026v-0.083h0.026v0.014c0.003-0.005 0.007-0.009 0.011-0.011s0.010-0.004 0.016-0.004c0.001 0 0.002 0 0.003 0.001h0.005z"></path>
<path d="M4.725 26.139c-0.006 0-0.010 0.002-0.014 0.006s-0.004 0.010-0.004 0.018c0 0.008 0.001 0.014 0.004 0.019s0.008 0.006 0.014 0.006 0.010-0.002 0.013-0.006c0.003-0.004 0.005-0.010 0.005-0.019s-0.002-0.014-0.005-0.018c-0.003-0.004-0.007-0.006-0.013-0.006zM4.725 26.12c0.014 0 0.025 0.004 0.034 0.012s0.012 0.018 0.012 0.031c0 0.014-0.004 0.025-0.012 0.032s-0.019 0.011-0.034 0.011-0.026-0.004-0.034-0.011c-0.008-0.008-0.012-0.018-0.012-0.032s0.004-0.024 0.012-0.031c0.008-0.008 0.019-0.012 0.034-0.012z"></path>
<path d="M4.79 26.122h0.026v0.081c0 0.011-0.003 0.019-0.008 0.025s-0.013 0.009-0.024 0.009h-0.013v-0.018h0.004c0.005 0 0.009-0.001 0.011-0.004s0.003-0.006 0.003-0.013zM4.79 26.090h0.026v0.021h-0.026z"></path>
<path d="M4.924 26.163v0.007h-0.062c0 0.006 0.003 0.011 0.006 0.014s0.009 0.004 0.016 0.004c0.006 0 0.011-0.001 0.017-0.002s0.012-0.004 0.018-0.008v0.021c-0.006 0.003-0.013 0.004-0.019 0.005s-0.013 0.002-0.019 0.002c-0.015 0-0.026-0.004-0.035-0.011s-0.012-0.018-0.012-0.032c0-0.013 0.004-0.024 0.012-0.031s0.019-0.012 0.034-0.012c0.013 0 0.024 0.004 0.031 0.012s0.012 0.018 0.012 0.031zM4.897 26.154c0-0.005-0.001-0.009-0.004-0.011s-0.007-0.005-0.011-0.005c-0.005 0-0.010 0.001-0.013 0.004s-0.005 0.007-0.006 0.012z"></path>
<path d="M5.011 26.125v0.021c-0.003-0.002-0.007-0.004-0.011-0.005s-0.007-0.002-0.011-0.002c-0.008 0-0.014 0.002-0.018 0.006s-0.006 0.010-0.006 0.018c0 0.008 0.002 0.014 0.006 0.019s0.010 0.006 0.018 0.006c0.004 0 0.008-0.001 0.011-0.002s0.007-0.003 0.010-0.006v0.022c-0.004 0.001-0.008 0.002-0.012 0.003s-0.009 0.001-0.013 0.001c-0.015 0-0.026-0.004-0.035-0.011s-0.013-0.018-0.013-0.032c0-0.014 0.004-0.024 0.013-0.032s0.020-0.011 0.035-0.011c0.004 0 0.009 0.001 0.013 0.001s0.008 0.002 0.012 0.004z"></path>
<path d="M5.062 26.098v0.024h0.027v0.019h-0.027v0.035c0 0.004 0.001 0.006 0.002 0.008s0.005 0.001 0.009 0.001h0.014v0.019h-0.023c-0.010 0-0.018-0.002-0.022-0.006s-0.006-0.012-0.006-0.022v-0.035h-0.013v-0.019h0.013v-0.024z"></path>
</svg>
