<!-- Generated by IcoMoon.io -->
<svg version="1.1" xmlns="http://www.w3.org/2000/svg" width="32" height="32" viewBox="0 0 32 32">
<title>Wild-cat</title>
<path d="M6.875 22.5c0 0-1.125 3.875-2.125 4.625-1 0.813-1.688 0.813-1.688 1.313s2.25 0.5 3.188-0.563c0.938-1.063 3.625-3.5 3.625-3.5s-2.5-0.563-3-1.875zM20.438 24.063c0 0 1.5 1.75 1.563 1.938s-0.25 1.438-0.813 1.438c-0.563 0-0.75 0.25-0.75 0.5 0 0.313 0.875 0.813 2.063 0.25 1.125-0.625 0.938-2 1.125-2.938l-1.875-1.313c0 0-0.5 0.25-1.313 0.125zM30.813 26.5c-0.5-1.063-1-3.188-1.5-3.375-0.5-0.25-2.75-2-2.75-3.125 0-1.188-0.375-3.563-0.625-4.188-0.188-0.688 0.75-1.563 0.625-4.25-0.188-3.188-1.688-6.688-3.625-8.563s-2.125-0.688-1.625 0.125c0.5 0.813 2.5 2.875 2.875 6.5 0.313 3.625-1.188 5.563-2.5 5.75-1.313 0.125-3.875-0.375-6.75-0.313-2.813 0.063-4.125 0.375-6.188-0.063-1.875-0.375-3.125-1.313-4.5-1.313-0.563-0.938-1.625-1.438-1.688-1.063-0.063 0.313 0.188 1.063 0.313 1.563-0.438 0.25-0.938 0.5-1.063 0.688-0.313 0.25-0.375 2.188-1.063 2.688-0.625 0.5 0.25 1.5 0.625 1.625 0.625 0.25 1.5 0.125 2.313 0 0.875-0.125 1.688 0.188 2.188 0.813 0.375 0.438 1 1.188 1.25 1.875 0.688 1.5 3.813 1.75 5.5 3.563 1.75 1.813 2.313 2.813 1.813 3.313s-1 0.875-0.563 1.063c0.438 0.25 1.75 0.5 2.125-0.938s0.188-1.125-0.063-2.25c-0.313-1.063-1.063-2.75-2.438-3.75s-1.938-1.688-1.938-1.688c0 0 2.313 0.938 3.563 2.125 0 0 5.438 0.188 6.438 0 0 0-1.188-1.063-1.688-2.188 0-0.063-0.063-0.125-0.063-0.125 0.438 0.375 1.75 1.563 2.5 2.063 0.813 0.688 1.625 1.25 2.625 1.188 1.75-0.125 2.5 0 3.5 0.938s1.75 3.5 2.625 3.563c0.813 0.063 0.25-1.188-0.25-2.25zM2.688 17c-0.25 0-0.375-0.188-0.375-0.438 0-0.188 0.125-0.375 0.375-0.375 0.188 0 0.375 0.188 0.375 0.375 0 0.25-0.188 0.438-0.375 0.438z"></path>
</svg>
