<?xml version="1.0" standalone="no"?>
<!DOCTYPE svg PUBLIC "-//W3C//DTD SVG 20010904//EN"
 "http://www.w3.org/TR/2001/REC-SVG-20010904/DTD/svg10.dtd">
<svg version="1.0" xmlns="http://www.w3.org/2000/svg"
 width="500.000000pt" height="500.000000pt" viewBox="0 0 500.000000 500.000000"
 preserveAspectRatio="xMidYMid meet">
<metadata>
Created by potrace 1.16, written by Peter Selinger 2001-2019
</metadata>
<g transform="translate(0.000000,500.000000) scale(0.100000,-0.100000)"
fill="#000000" stroke="none">
<path d="M2538 3730 c-22 -13 -61 -137 -92 -290 -58 -290 -60 -398 -9 -435 20
-15 9 -52 -17 -60 -29 -9 -68 -62 -76 -101 -5 -25 -10 -32 -17 -25 -21 21 -52
10 -236 -85 -266 -139 -451 -256 -451 -288 0 -7 7 -19 16 -27 56 -46 574 140
678 245 38 38 45 41 61 29 18 -12 18 -22 2 -265 -10 -139 -22 -329 -28 -423
-6 -93 -17 -260 -25 -371 -17 -245 -18 -306 -2 -322 18 -18 262 -17 277 2 8
10 9 59 1 192 -6 99 -15 268 -20 376 -6 108 -17 295 -25 415 -20 289 -20 389
0 397 9 3 50 -17 98 -48 106 -69 344 -208 474 -276 100 -54 102 -54 122 -36
12 11 21 25 21 32 0 43 -326 318 -471 398 -70 38 -103 45 -156 32 -32 -7 -33
-7 -33 24 0 37 -13 65 -47 102 l-25 26 11 124 c10 111 31 507 31 585 0 42 -38
87 -62 73z"/>
</g>
</svg>
