<!-- Generated by IcoMoon.io -->
<svg version="1.1" xmlns="http://www.w3.org/2000/svg" width="32" height="32" viewBox="0 0 32 32">
<title>Rope</title>
<path d="M10.063 17.438c-1.313 0.938-2.625 1.5-3.75 1.938-1.125 0.5-2.063 0.875-2.625 1.5-2.063 2.063-2.063 5.375 0 7.438 1 1.063 2.375 1.563 3.688 1.563 1.375 0 2.75-0.5 3.75-1.563 0.625-0.563 1-1.5 1.5-2.625 0.438-1.125 1-2.438 1.938-3.75 0.188-0.25 0.125-0.563-0.125-0.75s-0.563-0.125-0.75 0.125c-1 1.375-1.625 2.813-2.063 4-0.438 0.938-0.75 1.813-1.25 2.25-1.625 1.688-4.313 1.688-5.938 0-1.688-1.625-1.688-4.313 0-5.938 0.438-0.5 1.313-0.813 2.25-1.25 1.188-0.438 2.625-1.063 4-2.063 0.25-0.188 0.313-0.5 0.125-0.75-0.125-0.25-0.5-0.313-0.75-0.125zM8.125 21.938c0.813-0.25 1.563-0.563 2.188-1 0.25-0.188 0.313-0.563 0.125-0.75-0.188-0.25-0.5-0.313-0.75-0.125-0.5 0.375-1.188 0.625-1.938 0.875-0.938 0.375-1.875 0.688-2.563 1.438-0.625 0.563-0.938 1.375-0.938 2.25 0 0.813 0.313 1.625 0.938 2.188 0.563 0.625 1.375 0.938 2.188 0.938 0.875 0 1.688-0.313 2.25-0.938 0.625-0.563 1-1.5 1.5-2.625 0.438-1.125 1-2.438 1.938-3.75 0.188-0.25 0.125-0.563-0.125-0.75s-0.563-0.125-0.75 0.125c-1 1.375-1.563 2.813-2.063 4-0.438 0.938-0.75 1.813-1.25 2.25-0.75 0.813-2.188 0.813-2.938 0-0.875-0.813-0.875-2.125 0-2.938 0.5-0.563 1.313-0.875 2.188-1.188zM18.25 22l-8.25-8.25c-0.188-0.188-0.5-0.188-0.75 0-0.188 0.188-0.188 0.563 0 0.75l8.25 8.25c0.063 0 3.188 3.063 1.75 6.375-0.125 0.25 0 0.563 0.25 0.688 0.063 0.063 0.188 0.063 0.25 0.063 0.188 0 0.375-0.125 0.5-0.313 1.688-4.063-1.875-7.438-2-7.563zM15.938 22.688c-0.25-0.188-0.563-0.125-0.75 0.125-0.938 1.313-1.438 2.563-1.875 3.625-0.375 1.063-0.75 1.938-1.438 2.625-2.438 2.5-6.5 2.5-8.938 0-1.188-1.188-1.875-2.75-1.875-4.438 0-1.75 0.688-3.313 1.875-4.5 0.688-0.688 1.563-1.063 2.625-1.438 1.063-0.438 2.313-0.938 3.625-1.875 0.25-0.188 0.313-0.5 0.125-0.75-0.125-0.25-0.5-0.313-0.75-0.125-1.188 0.875-2.375 1.313-3.375 1.75-1.125 0.438-2.188 0.813-3 1.688-1.438 1.375-2.188 3.25-2.188 5.25 0 1.938 0.75 3.813 2.188 5.188 1.438 1.438 3.313 2.188 5.188 2.188 1.938 0 3.813-0.75 5.25-2.188 0.875-0.813 1.25-1.875 1.688-3 0.438-1 0.875-2.188 1.75-3.375 0.188-0.25 0.125-0.625-0.125-0.75zM19 21.25c0.063 0.063 0.25 0.125 0.375 0.125s0.25-0.063 0.375-0.125c0.188-0.25 0.188-0.563 0-0.75l-8.25-8.25c-0.188-0.188-0.5-0.188-0.75 0-0.188 0.25-0.188 0.563 0 0.75zM21.625 14.688c0.063 0 0.188-0.063 0.313-0.125 1.313-0.938 2.625-1.5 3.75-1.938 1.125-0.5 2.063-0.875 2.625-1.5 2.063-2.063 2.063-5.375 0-7.438-1-1-2.313-1.563-3.688-1.563-1.438 0-2.75 0.563-3.75 1.563-0.625 0.563-1 1.5-1.5 2.625-0.438 1.125-1 2.438-1.938 3.75-0.188 0.25-0.125 0.625 0.125 0.75 0.25 0.188 0.563 0.125 0.75-0.125 1-1.375 1.625-2.813 2.063-4 0.438-0.938 0.75-1.813 1.25-2.25 0.813-0.813 1.813-1.25 3-1.25 1.125 0 2.188 0.438 2.938 1.25 1.688 1.625 1.688 4.313 0 5.938-0.438 0.5-1.313 0.813-2.25 1.25-1.188 0.5-2.625 1.063-4 2.063-0.25 0.188-0.313 0.5-0.125 0.75 0.063 0.125 0.25 0.25 0.438 0.25zM29.813 2.188c-1.375-1.438-3.25-2.188-5.188-2.188-2 0-3.875 0.75-5.25 2.188-0.875 0.813-1.25 1.875-1.688 3-0.438 1-0.875 2.188-1.75 3.375-0.188 0.25-0.125 0.625 0.125 0.75 0.25 0.188 0.563 0.125 0.75-0.125 0.938-1.313 1.438-2.563 1.875-3.625 0.375-1.063 0.75-1.938 1.438-2.625 1.188-1.188 2.75-1.875 4.5-1.875 1.688 0 3.25 0.688 4.438 1.875s1.875 2.75 1.875 4.438c0 1.75-0.688 3.313-1.875 4.5-0.688 0.688-1.563 1.063-2.625 1.438-1.063 0.438-2.313 0.938-3.625 1.875-0.25 0.188-0.313 0.5-0.125 0.75 0.063 0.125 0.25 0.25 0.438 0.25 0.063 0 0.188-0.063 0.313-0.125 1.188-0.875 2.375-1.313 3.375-1.75 1.125-0.438 2.188-0.813 3-1.688 1.438-1.375 2.188-3.25 2.188-5.25 0-1.938-0.75-3.813-2.188-5.188zM14.5 9.25c-0.188-0.188-0.563-0.188-0.75 0-0.188 0.25-0.188 0.563 0 0.75l8.25 8.25c0.063 0.125 0.188 0.125 0.375 0.125 0.125 0 0.25 0 0.375-0.125 0.188-0.188 0.188-0.563 0-0.75zM13 10.75c-0.188-0.188-0.563-0.188-0.75 0-0.188 0.25-0.188 0.563 0 0.75l8.25 8.25c0.063 0.125 0.25 0.125 0.375 0.125s0.25 0 0.375-0.125c0.188-0.188 0.188-0.563 0-0.75zM23.875 10.063c-0.813 0.25-1.563 0.563-2.188 1-0.25 0.188-0.313 0.563-0.125 0.75 0.188 0.25 0.5 0.313 0.75 0.125 0.5-0.375 1.188-0.625 1.938-0.875 0.938-0.375 1.875-0.688 2.563-1.438 0.625-0.563 0.938-1.375 0.938-2.25 0-0.813-0.313-1.625-0.938-2.188-1.188-1.25-3.25-1.25-4.438 0-0.625 0.563-1 1.5-1.5 2.625-0.438 1.125-1 2.438-1.938 3.75-0.188 0.25-0.125 0.563 0.125 0.75 0.063 0.063 0.188 0.125 0.313 0.125s0.313-0.063 0.438-0.25c1-1.375 1.563-2.813 2.063-4 0.438-0.938 0.75-1.813 1.25-2.25 0.813-0.875 2.125-0.875 2.938 0 0.438 0.375 0.625 0.875 0.625 1.5 0 0.563-0.188 1.063-0.625 1.438-0.5 0.563-1.313 0.875-2.188 1.188z"></path>
</svg>
