<!-- Generated by IcoMoon.io -->
<svg version="1.1" xmlns="http://www.w3.org/2000/svg" width="32" height="32" viewBox="0 0 32 32">
<title>Wolf</title>
<path d="M26.625 25.188l0.438-0.125-1.875-3c0.063-0.313 1.125 0.063 1.125 0.063-0.375-0.875-1.5-2.25-1.5-2.25 0.313-0.188 1.125 0.188 1.125 0.188-0.438-0.875-1.938-2.375-1.938-2.375 0.313-0.313 1.75 0.063 1.75 0.063-0.625-1.125-2.875-2.813-2.875-2.813s3.375-0.313 4.813-0.625c1.438-0.375-1.438-1.875-2.5-2.313s-7.063-4.625-7.5-5.063c-0.438-0.438-1.438-0.25-1.438-0.25h-1.5c-1.188-2.25-5.563-3.375-5.563-3.375-0.25-0.813-1.25-1.625-2.125-1.875-0.875-0.188-0.688 1.063-0.688 1.063-1.875 0.938 1.688 5.938 1.688 5.938s-1.438-1.063-2.75-1.938c-1.25-0.875-1.688-1.063-2.063-0.688s0.25 1.313 0.25 1.313c0 0 2.563 2.5 3.438 3.563 0.813 1.125-0.5 5.563-0.5 5.563l1.125-0.063-1.563 2.563 1.188-0.125c-0.875 0.813-0.125 5.438 0 4.563 0.188-0.938 0.75-0.25 0.75-0.25-0.75 1.25 0.125 3.5 0.125 2.938s0.5-0.875 0.5-0.875l-0.25 2.75c1.813 1.125 7.438 3.313 12.188 2.938 2.75-0.188 8.313-2.125 8.313-2.5 0-0.313-2.188-3-2.188-3zM17.563 9.25c-0.438-0.063-1.563-0.813-1.813-1.438 0 0 1-0.438 1.438-0.125s2 1.375 2 1.375c0 0-1.188 0.25-1.625 0.188z"></path>
</svg>
