<!-- Generated by IcoMoon.io -->
<svg version="1.1" xmlns="http://www.w3.org/2000/svg" width="32" height="32" viewBox="0 0 32 32">
<title>Wolverine</title>
<path d="M13.563 18.625l2.625 0.125 0.688 1.688-1.25 2-2.688 0.188 0.438-1.125 1.25 0.063 0.625-0.938zM0.688 17.563l0.313 1.063-0.688-0.563zM25.063 10.813l-8.813-1.188-3 1-4.063 0.313-1.688 1.313-2.625 0.438-3 2.625-1.063 2.063 0.438 1.188 0.875 0.313 3.125-1 1.813 0.313 1-0.313 0.188 1.75-3.25 2.625-2.188 0.188 0.375 0.75 2.125 0.188 6.125-2.625 2.125-2.5 6.188 0.25 4.063 1.813-1 1.313-0.875-0.25-1.063 0.75 3.438 0.563 1.313-2.938-0.313-2.813-0.688-1.313 0.938 1.188 0.438 3-0.875 1.938 1-0.313 0.438-1.313-0.5-2.5 0.25-1 3.25 3.063 1.5-0.563v-2.5zM2.25 16.188l0.125-0.313 0.5-0.125zM5.688 15.188c0.063-0.125 0.125-0.25 0.125-0.375 0-0.375-0.375-0.688-0.75-0.688-0.063 0-0.125 0-0.188 0 0.125-0.188 0.313-0.313 0.563-0.313 0.375 0 0.688 0.313 0.688 0.688s-0.188 0.625-0.438 0.688z"></path>
</svg>
