<!-- Generated by IcoMoon.io -->
<svg version="1.1" xmlns="http://www.w3.org/2000/svg" width="32" height="32" viewBox="0 0 32 32">
<title>Zebra-grevy</title>
<path d="M20.933 8.233c-0.967 0.4-1.233 0.667-1.133 1.233 0.067 0.367 0.033 0.5-0.033 0.267-0.2-0.533-0.2-0.533-2.133 0.467-1.533 0.8-1.9 0.867-4.067 0.667-1.333-0.1-2.8-0.3-3.3-0.4-0.833-0.2-0.933-0.133-0.967 0.733-0.033 0.967-0.033 0.967-0.3 0.133-0.267-0.9-0.5-0.6-0.767 1-0.1 0.467-0.133 0.2-0.133-0.6 0.033-1.033 0.167-1.4 0.533-1.433 0.367 0 0.4-0.067 0.133-0.2-0.6-0.233-2.433 0.467-3.433 1.267-0.833 0.667-0.833 0.667 0.567 0 0.767-0.4 1.533-0.7 1.667-0.7 0.167 0 0.2 0.633 0.133 1.4l-0.167 1.433-0.233-1.167-0.2-1.167-0.1 1.167-0.067 1.167-0.3-1c-0.233-0.8-0.233-0.7-0.133 0.567 0.133 1.3 0.067 1.533-0.367 1.367-0.367-0.133-0.467-0.5-0.367-1.3 0.1-0.733 0.033-1.033-0.233-0.933-0.467 0.167-0.533 3.767-0.1 3.7 0.433-0.1 1.2 2.667 1 3.433-0.1 0.367 0.033 0.933 0.267 1.233 0.267 0.3 0.3 0.467 0.1 0.333-0.233-0.133-0.467 0-0.567 0.267-0.133 0.333-0.033 0.4 0.367 0.3 0.3-0.1 0.2 0.033-0.2 0.3-0.767 0.433-0.767 0.467-0.2 1.067 0.333 0.333 0.667 0.9 0.7 1.3 0.067 0.367 0.333 0.867 0.633 1.067 0.4 0.3 0.4 0.433 0.067 0.567-0.367 0.133-0.367 0.2 0 0.2 0.233 0.033 0.333 0.167 0.233 0.367-0.1 0.167 0.033 0.333 0.3 0.333 0.3 0 0.533-0.167 0.533-0.333 0-0.2-0.167-0.333-0.367-0.333-0.167 0-0.267-0.133-0.133-0.3 0.1-0.2-0.1-0.467-0.4-0.667-0.333-0.2-0.433-0.367-0.2-0.367 0.3 0 0.3-0.267 0.067-0.967-0.3-0.833-0.167-1.3 0.7-3.033 0.933-1.867 1.033-2.233 0.733-3.367-0.167-0.733-0.2-1.3-0.067-1.3 0.167 0 0.367-0.267 0.433-0.6 0.067-0.3 0.067-0.033 0 0.6-0.1 0.867-0.033 1.033 0.233 0.667 0.3-0.433 0.367-0.433 0.667 0 0.233 0.367 0.333-0.167 0.367-1.833l0.067-2.333 0.2 2.233c0.2 2.067 0.667 3.5 0.733 2.067 0-0.567 0.033-0.567 0.533 0.1 0.7 1.033 1.033 0.967 0.867-0.167-0.1-0.767-0.067-0.8 0.2-0.233 0.233 0.467 0.333-0.167 0.333-2.3 0.033-1.633 0.133-2.867 0.267-2.767 0.1 0.133 0.2 1.3 0.2 2.633v2.433l0.133-2.267c0.2-3.267 0.6-2.733 0.567 0.667-0.033 1.633 0 2.3 0.1 1.5 0.167-1.8 0.633-1.8 0.933 0 0.233 1.333 0.267 1.367 0.667 0.633 0.367-0.7 0.433-0.733 0.633-0.2 0.1 0.333 0.3 0.5 0.4 0.4 0.3-0.3 1.1-4.267 1.133-5.5 0-1.3 0.8-1.333 0.9-0.033l0.067 0.8-0.267-0.833c-0.267-0.7-0.3-0.567-0.333 0.767-0.033 0.9-0.2 1.933-0.4 2.3-0.267 0.5-0.267 0.9 0 1.5 0.233 0.467 0.233 0.733 0.033 0.6s-0.2 0.067 0 0.567c0.2 0.433 0.433 1.033 0.533 1.333 0.133 0.333 0.333 0.6 0.5 0.6s0.2 0.233 0.1 0.5c-0.133 0.267-0.033 0.5 0.2 0.5 0.2 0 0.267 0.133 0.167 0.333s0.133 0.333 0.567 0.367c0.733 0 0.733 0.033 0.1 0.3-0.533 0.233-0.567 0.3-0.1 0.3 0.667 0.033 1.1-0.5 0.633-0.767-0.167-0.1-0.233-0.467-0.133-0.8 0.1-0.4-0.133-0.7-0.8-0.967l-0.933-0.4 0.967 0.2c0.833 0.167 0.933 0.1 0.767-0.367-0.133-0.3-0.1-0.467 0.067-0.367 0.4 0.233 0.8-1.033 0.5-1.533-0.133-0.233-0.1-0.3 0.1-0.2 0.2 0.133 1.033-0.333 1.9-1 1.1-0.867 1.5-1.367 1.367-1.8-0.233-0.733 0.433-1.2 0.7-0.467 0.167 0.4 0.3 0.433 0.667 0.133 0.267-0.2 0.467-0.267 0.467-0.133s-0.3 0.467-0.667 0.767c-0.633 0.567-0.633 0.567 0.233 1.2 0.467 0.367 0.767 0.467 0.633 0.267-0.133-0.233-0.167-0.4-0.1-0.4 0.1 0 0.467 0.533 0.867 1.167 0.367 0.633 0.9 1.167 1.167 1.167 0.667 0 1.267-1.133 0.967-1.867-0.2-0.533-0.233-0.533-0.467 0.067-0.233 0.567-0.267 0.567-0.267-0.133-0.033-0.433-0.167-0.7-0.333-0.567-0.167 0.1-0.433 0-0.567-0.2-0.133-0.233-0.1-0.3 0.1-0.2 0.2 0.133 0.433 0.033 0.5-0.2 0.3-0.733-0.1-1.233-0.967-1.233-0.533 0-0.9-0.233-1-0.633-0.2-0.833-1.133-1.033-1.7-0.367-0.367 0.433-0.4 0.4-0.1-0.2 0.267-0.533 0.567-0.667 1.433-0.533 1.3 0.167 2 0.667 1.7 1.2-0.133 0.233-0.067 0.233 0.233-0.033 0.333-0.3 0.267-0.567-0.3-1.3-0.733-0.967-0.9-1.967-0.367-2.3 0.2-0.1 0.333-0.033 0.333 0.133 0 0.2 0.167 0.367 0.333 0.367 0.2 0 0.333-0.367 0.333-0.833 0-0.9-0.3-1.067-0.933-0.433-0.3 0.3-0.4 0.3-0.4-0.1-0.033-0.267-0.2-0.133-0.467 0.333-0.233 0.433-0.4 1.033-0.333 1.333 0.2 0.7-0.367 1.5-0.833 1.233-0.4-0.267-0.167-1.733 0.367-2.4 0.7-0.9-3.4-1.067-5.467-0.233zM23.9 9.4c-0.1 0.233-0.167 0.067-0.167-0.4s0.067-0.633 0.167-0.433c0.067 0.233 0.067 0.633 0 0.833zM24.9 10.067c0 1.533-0.033 1.633-0.3 0.767-0.233-0.867-0.133-2.5 0.167-2.5 0.067 0 0.1 0.8 0.133 1.733zM22.667 10.167c0 0.567-0.067 0.567-0.333 0.167-0.167-0.267-0.333-0.8-0.333-1.167 0-0.567 0.067-0.567 0.333-0.167 0.167 0.267 0.333 0.8 0.333 1.167zM21.567 11.567c-0.067 0.533-0.133 0.1-0.133-0.9s0.067-1.433 0.133-0.933c0.067 0.533 0.067 1.333 0 1.833zM20.9 11.9c-0.067 0.533-0.133 0.167-0.133-0.733 0-0.933 0.067-1.333 0.133-0.933 0.067 0.433 0.067 1.167 0 1.667zM18.233 11.4c-0.1 0.267-0.2 0.167-0.2-0.2-0.033-0.367 0.067-0.567 0.167-0.433 0.1 0.1 0.133 0.4 0.033 0.633zM11.7 11.9c-0.4 0.667-0.467 0.467-0.167-0.4 0.133-0.3 0.3-0.467 0.367-0.367 0.1 0.067 0 0.433-0.2 0.767zM10.233 12.9c-0.1 0.333-0.167 0.067-0.167-0.567s0.067-0.9 0.167-0.6c0.067 0.333 0.067 0.867 0 1.167zM10.9 12.067c-0.1 0.267-0.2 0.167-0.2-0.2-0.033-0.367 0.067-0.567 0.167-0.433 0.1 0.1 0.133 0.4 0.033 0.633zM13 13.5c-0.2 1.633-0.267 1.767-0.3 0.667-0.033-1.233 0.267-2.967 0.467-2.767 0.067 0.067 0 1-0.167 2.1zM16.3 13.067c-0.033 0.967-0.1 1.5-0.2 1.167-0.067-0.3-0.333-0.567-0.6-0.567-0.233 0-0.4-0.267-0.333-0.6 0.067-0.3 0.133-0.8 0.167-1.067s0.2-0.067 0.333 0.5l0.267 1 0.033-1.1c0-0.567 0.1-1.067 0.2-1.067s0.133 0.8 0.133 1.733zM16.9 12.567c-0.1 0.333-0.167 0.133-0.167-0.4 0-0.567 0.067-0.8 0.167-0.6 0.067 0.233 0.067 0.7 0 1zM12.233 15.067c-0.067 0.6-0.133 0.133-0.133-1.067s0.067-1.667 0.133-1.1c0.067 0.6 0.067 1.6 0 2.167zM26.667 12.333c0 0.167-0.167 0.333-0.367 0.333-0.167 0-0.233-0.167-0.133-0.333 0.1-0.2 0.267-0.333 0.367-0.333 0.067 0 0.133 0.133 0.133 0.333zM20.833 14.567c0.267 0.8 0.4 1.433 0.333 1.433-0.367 0-1.167-2.067-1.133-2.9 0-0.5 0.1-0.7 0.2-0.433 0.067 0.267 0.367 1.133 0.6 1.9zM7.233 14.4c-0.1 0.267-0.2 0.167-0.2-0.2-0.033-0.367 0.067-0.567 0.167-0.433 0.1 0.1 0.133 0.4 0.033 0.633zM17.9 14.4c-0.1 0.267-0.2 0.167-0.2-0.2-0.033-0.367 0.067-0.567 0.167-0.433 0.1 0.1 0.133 0.4 0.033 0.633zM7.567 15.733c-0.1 0.267-0.2 0.167-0.2-0.2-0.033-0.367 0.067-0.567 0.167-0.433 0.1 0.1 0.133 0.4 0.033 0.633zM22.467 15.533c0.1 0.267 0.067 0.4-0.133 0.3s-0.333-0.333-0.333-0.533c0-0.467 0.233-0.367 0.467 0.233zM21 16.5c0.433 0.467 0.733 0.867 0.633 0.867-0.633 0.2-1.567 0.167-1.433-0.067 0.067-0.133 0.4-0.167 0.733-0.067 0.533 0.167 0.533 0.167 0-0.4-0.533-0.6-0.6-0.567-1.233 0.2l-0.7 0.8 0.367-1.1c0.433-1.3 0.633-1.3 1.633-0.233zM7.667 17.833c0.233 0.267 0.533 0.433 0.633 0.333 0.133-0.067 0.267 0.067 0.267 0.333s-0.167 0.367-0.367 0.233c-0.2-0.1-0.6-0.233-0.867-0.233s-0.533-0.267-0.6-0.6c-0.133-0.7 0.367-0.733 0.933-0.067zM15.367 16.867c0 0.367 0.1 0.467 0.2 0.2 0.1-0.233 0.067-0.533-0.033-0.633-0.1-0.133-0.2 0.067-0.167 0.433zM9.667 18c0 0.167 0.167 0.333 0.367 0.333 0.167 0 0.233-0.167 0.133-0.333-0.1-0.2-0.267-0.333-0.367-0.333-0.067 0-0.133 0.133-0.133 0.333zM2.867 18.267c-0.533 0.9-1.467 3.733-1.2 3.733 0.5 0 2-2.433 2-3.233 0-0.733-0.467-1.033-0.8-0.5zM4.2 19.5c0.2 0.467 0.133 0.533-0.2 0.333s-0.4-0.133-0.233 0.267c0.133 0.333-0.033 0.7-0.367 0.9-0.467 0.3-0.4 0.333 0.267 0.133 0.8-0.2 0.8-0.2 0.167 0.333-0.367 0.267-0.533 0.533-0.367 0.533s0.067 0.267-0.167 0.567c-0.4 0.5-0.4 0.533 0.033 0.267 0.4-0.2 0.433-0.167 0.1 0.2-0.233 0.233-0.433 0.567-0.433 0.733 0 0.133 0.2 0.167 0.433 0.033 0.3-0.2 0.3-0.167 0 0.267-0.233 0.267-0.333 0.6-0.2 0.7 0.1 0.133-0.033 0.233-0.333 0.233-0.367 0-0.467 0.167-0.333 0.533 0.5 1.333 1.7-1.667 1.9-4.767 0.033-0.6 0.167-0.7 0.7-0.567 0.367 0.133 0.6 0.167 0.5 0.1s-0.5-0.433-0.933-0.8c-0.733-0.6-0.767-0.6-0.533 0zM16.733 20.433c-0.367 0.767-0.733 1.6-0.8 1.867s-0.367 0.767-0.667 1.1c-0.667 0.667-0.8 2.067-0.2 1.867 0.2-0.067 0.533-0.567 0.7-1.1 0.2-0.567 0.7-1.267 1.133-1.633 0.633-0.5 0.733-0.7 0.367-0.9-0.333-0.233-0.333-0.3 0.067-0.3 0.267 0 0.7-0.3 0.9-0.633 0.333-0.5 0.3-0.733-0.2-1.167-0.533-0.5-0.633-0.433-1.3 0.9zM21.5 22c-0.1 0.167-0.1 0.333 0.067 0.367 0.133 0-0.033 0.133-0.4 0.3-0.6 0.267-0.6 0.3 0.167 0.333s0.767 0.067 0.167 0.333l-0.667 0.3h0.667c0.567 0.033 0.6 0.1 0.167 0.4s-0.433 0.333 0 0.2c0.3-0.067 0.467-0.433 0.4-0.933-0.033-0.433-0.1-1-0.133-1.233-0.067-0.5-0.167-0.5-0.433-0.067zM22 24.667c-0.3 0.2-0.333 0.333-0.1 0.333 0.2 0 0.333 0.3 0.267 0.633-0.1 0.5 0.033 0.6 0.4 0.467s0.467-0.067 0.3 0.167c-0.133 0.233-0.1 0.4 0.1 0.4 0.667 0 0.667-0.6 0.033-1.167-0.367-0.333-0.567-0.733-0.467-0.867 0.233-0.367 0.1-0.367-0.533 0.033zM15.167 25.667c-0.1 0.167 0.1 0.333 0.5 0.333s0.6-0.167 0.5-0.333c-0.1-0.2-0.333-0.333-0.5-0.333s-0.4 0.133-0.5 0.333zM8.5 27c-0.1 0.2 0.033 0.433 0.333 0.533 0.633 0.267 1 0 0.667-0.5-0.267-0.467-0.733-0.467-1-0.033zM23.4 27.167c-0.367 0.433-0.3 0.5 0.467 0.5 0.733 0 0.833-0.067 0.467-0.5-0.5-0.6-0.4-0.6-0.933 0z"></path>
</svg>
