<!-- Generated by IcoMoon.io -->
<svg version="1.1" xmlns="http://www.w3.org/2000/svg" width="32" height="32" viewBox="0 0 32 32">
<title>Zebra</title>
<path d="M16.5 11c-0.25 0-0.438 0.25-0.438 0.5v0.5c0 0.563-0.5 1-1.063 1s-1.063-0.438-1.063-1v-0.5c0-0.563 0.5-1.063 1.063-1.063 0.25 0 0.438-0.188 0.438-0.438s-0.188-0.5-0.438-0.5c-1.063 0-2 0.875-2 2v0.5c0 1.063 0.938 1.938 2 1.938s2-0.875 2-1.938v-0.5c0-0.25-0.25-0.5-0.5-0.5zM3.313 19.438c-0.188-0.188-0.5-0.188-0.688 0l-0.5 0.5c-0.188 0.188-0.188 0.5 0 0.625 0.125 0.125 0.25 0.188 0.375 0.188 0.063 0 0.188-0.063 0.313-0.188l0.5-0.5c0.188-0.188 0.188-0.438 0-0.625zM32 16.75c0 0 0-0.063 0-0.063s0 0 0 0 0 0 0 0c0-0.063 0-0.063 0-0.063s0 0 0 0 0 0 0-0.063c0 0-0.063 0-0.063 0s0 0 0 0 0 0 0-0.063c0 0 0 0 0 0-0.563-1-1.125-1.938-1.688-2.75 0.375-1.25 0.563-2.625 0.688-4 0.063 0.063 0.125 0.188 0.25 0.25 0.063 0.125 0.188 0.188 0.375 0.188 0.063 0 0.188 0 0.25-0.063 0.188-0.188 0.25-0.5 0.063-0.688-2.188-2.875-4.688-5-7.25-6.313-2-1.063-4.063-1.625-6.188-1.688-0.688-0.563-1.313-0.688-1.375-0.688-0.188 0-0.438 0.125-0.5 0.313s-0.125 0.313-0.125 0.5c-2.563 0.313-4.125 1.188-4.188 1.25-0.125 0.063-0.188 0.188-0.188 0.313-0.063 0.125-0.063 0.25 0.063 0.375l1.938 2.875c-0.438 0.25-0.875 0.563-1.375 1-2.125 1.688-10.188 8.688-12.188 10.563-0.438 0.313-0.563 0.875-0.438 1.438 0.125 0.438 0.438 1.5 1.063 2.438 0.688 1.125 1.5 1.75 2.5 1.813 0 0 0.063 0 0.063 0 0.188 0 0.375 0 0.75-0.188l1.5 1.063c0.25 0.188 0.563 0.25 0.813 0.25 0.188 0 0.313 0 0.5-0.063 1.188-0.438 3.063-1.188 5-2 2.313-0.938 4.75-1.875 6.438-2.5 0.563 1.188 2.688 6 4.375 10.75 0.063 0.188 0.25 0.313 0.438 0.313 0.063 0 0.125 0 0.188 0 0.25-0.125 0.375-0.375 0.25-0.625-0.188-0.5-0.313-0.938-0.5-1.438 0.75-0.375 3.813-1.938 6.313-4.25 0.188-0.188 0.188-0.438 0.063-0.625-0.188-0.188-0.5-0.25-0.688-0.063-2.313 2.125-5.188 3.625-6.063 4.063-0.188-0.563-0.375-1.063-0.563-1.563 1.063-0.5 4.5-2.313 7.063-5.438 0.125-0.188 0.125-0.5-0.125-0.625-0.188-0.188-0.438-0.125-0.625 0.063-2.375 2.875-5.625 4.625-6.688 5.125-0.25-0.563-0.438-1.063-0.625-1.563 0.75-0.313 2.563-1.188 4.5-3.063 1.375-1.375 2.5-3 3.313-4.875 0.25-0.5 0.438-0.938 0.563-1.438 0.438 0.625 0.813 1.25 1.125 1.875-0.25 0.75-0.563 1.438-0.938 2.188-0.125 0.188-0.063 0.5 0.125 0.625 0.125 0.063 0.188 0.063 0.25 0.063 0.188 0 0.313-0.063 0.438-0.25 0.438-0.813 0.813-1.688 1.125-2.563 0 0 0 0 0 0s0 0 0 0 0 0 0-0.063c0 0 0 0 0 0s0 0 0 0 0-0.063 0-0.063c0 0 0 0 0 0s0 0 0 0zM24.25 3.938c0.438 0.25 0.938 0.563 1.375 0.875 0.063 0.188 0.5 1.813 0.563 4.063-0.813-0.75-1.563-1.375-2.188-1.813-1.813-1.188-3.125-1.688-3.688-1.813-0.188-1.25-0.563-2.125-1-2.813 1.688 0.188 3.313 0.688 4.938 1.5zM13.188 3.375c0.563-0.25 1.625-0.625 3-0.875-0.188 1.125-0.125 2.063 0 2.813-0.313 0.063-0.75 0.188-1.375 0.563zM11.875 21.875c-1.938 0.75-3.75 1.5-4.938 1.938-0.188 0-0.313 0-0.5-0.125l-1-0.688c0.25-0.188 0.563-0.375 0.938-0.625 1-0.563 1.875-1.188 1.875-1.25 0.188-0.125 0.25-0.438 0.125-0.625-0.188-0.25-0.438-0.25-0.688-0.125-1.563 1.125-3.563 2.313-4 2.313 0 0 0 0 0 0-1.75-0.125-2.625-3.188-2.75-3.563-0.063-0.188 0-0.375 0.188-0.5 0.563-0.563 1.75-1.563 3.063-2.75 0.313 0.75 1.125 1.938 3.063 2.5 1.375 0.375 3.25 1.125 4.188 2.375 0.313 0.438 0.5 0.813 0.5 1.063 0 0 0 0-0.063 0.063zM15.563 20.375c-0.063-0.375-0.25-0.938-0.688-1.563-1.125-1.688-3.063-2.375-4.5-2.688-0.375-0.063-0.688-0.188-1.063-0.313-0.188-0.063-0.5 0.063-0.563 0.313-0.125 0.25 0.063 0.5 0.25 0.625 0.375 0.125 0.75 0.188 1.188 0.313 3.938 0.813 4.438 3.188 4.5 3.688-0.625 0.188-1.25 0.438-1.875 0.688-0.25-0.938-1.313-2.813-5.313-3.938-2-0.625-2.438-1.938-2.563-2.25 0.375-0.313 0.688-0.625 1.063-0.938 0.188 0.313 0.5 0.875 1.125 1.375 0.063 0.063 0.188 0.063 0.313 0.063s0.25 0 0.313-0.125c0.188-0.188 0.188-0.5-0.063-0.688-0.75-0.625-0.938-1.25-0.938-1.25s0 0 0-0.063c0.188-0.125 0.375-0.313 0.563-0.438 0.375 0.563 1.625 1.813 5.063 2.188 4.25 0.5 4.875 3.125 4.938 4.313-0.563 0.25-1.125 0.438-1.75 0.688zM28.5 15.938c-0.813 1.75-1.875 3.313-3.125 4.625-1.813 1.75-3.563 2.625-4.25 2.875-0.25-0.563-0.5-1.125-0.688-1.625 2.875-1.5 4.875-3.875 5.875-7 0.063-0.25-0.063-0.5-0.313-0.563-0.25-0.125-0.5 0-0.563 0.25-0.938 2.938-2.75 5.063-5.375 6.5-0.188-0.5-0.375-0.875-0.5-1.125 1.5-0.625 2.438-1.563 2.813-2.813 1.125-3.313-1.875-7.563-2-7.75s-0.438-0.25-0.625-0.063c-0.25 0.125-0.25 0.438-0.125 0.625 0 0.063 2.813 4 1.875 6.875-0.188 0.563-0.438 1-0.875 1.375 0.25-1.188 0.25-3.25-1.063-6.188-0.125-0.25-0.375-0.375-0.625-0.25s-0.313 0.375-0.25 0.625c0.625 1.313 1.313 3.313 1.125 5.125-0.125 1-0.5 1.5-0.5 1.563-0.188 0.063-0.938 0.313-1.063 0.375-0.063-0.813-0.375-1.875-1.25-2.813-1-1.188-2.5-1.875-4.563-2.125-3.375-0.375-4.25-1.625-4.438-1.875 2.25-1.938 4.313-3.688 5.313-4.438 1.75-1.438 2.688-1.813 3.063-1.875 0.063 0.375 0.188 0.625 0.188 0.625 0.125 0.25 0.375 0.375 0.625 0.313 0.25-0.125 0.375-0.375 0.25-0.625 0 0-0.813-2.125-0.125-4.75 0.25 0.125 0.563 0.375 0.875 0.688 0.875 1 1.375 2.625 1.375 4.75 0 0.25 0.188 0.438 0.438 0.438s0.5-0.188 0.5-0.438c0-0.375-0.063-0.688-0.063-1 0.625 0.25 1.688 0.688 3.063 1.625 0.938 0.688 1.813 1.438 2.688 2.25-0.063 0.813-0.125 1.625-0.25 2.438-0.063 0.25 0.125 0.5 0.375 0.5 0 0 0.063 0 0.063 0 0.25 0 0.438-0.125 0.438-0.375 0.125-0.5 0.188-1.063 0.25-1.563 0.813 0.875 1.5 1.875 2.188 2.813-0.25 0.688-0.5 1.375-0.75 2zM29.563 12.75c-0.875-1.188-1.688-2.125-2.438-2.938 0-1.75-0.188-3.313-0.375-4.25 1.125 0.875 2.25 1.938 3.313 3.125-0.063 1.438-0.25 2.75-0.5 4.063zM31.813 21.875c-0.25-0.125-0.5-0.063-0.688 0.125-0.188 0.25-0.375 0.563-0.563 0.813-0.188 0.188-0.188 0.5 0 0.625 0.125 0.125 0.25 0.125 0.313 0.125 0.125 0 0.313-0.063 0.375-0.125 0.25-0.313 0.5-0.625 0.688-0.938 0.125-0.188 0.063-0.5-0.125-0.625z"></path>
</svg>
